<svg width="70" height="42" viewBox="0 0 70 42" fill="none" xmlns="http://www.w3.org/2000/svg">
<path fill-rule="evenodd" clip-rule="evenodd" d="M55.6586 2C54.8349 4.33038 52.6124 6 50 6C47.3876 6 45.1651 4.33038 44.3414 2H4C2.89543 2 2 2.89543 2 4V38C2 39.1046 2.89543 40 4 40H44.3414C45.1651 37.6696 47.3876 36 50 36C52.6124 36 54.8349 37.6696 55.6586 40H66C67.1046 40 68 39.1046 68 38V4C68 2.89543 67.1046 2 66 2H55.6586ZM50 36H49V33.5H51V36H50ZM50 6H49V8.5H51V6H50ZM54 0C54 2.20914 52.2091 4 50 4C47.7909 4 46 2.20914 46 0H4C1.79086 0 0 1.79086 0 4V38C0 40.2091 1.79086 42 4 42H46C46 39.7909 47.7909 38 50 38C52.2091 38 54 39.7909 54 42H66C68.2091 42 70 40.2091 70 38V4C70 1.79086 68.2091 0 66 0H54ZM49 18.5V13.5H51V18.5H49ZM49 28.5V23.5H51V28.5H49ZM18 13H20V15H26V13H28V15C29.6569 15 31 16.3431 31 18V26C31 27.6569 29.6569 29 28 29H18C16.3431 29 15 27.6569 15 26V18C15 16.3431 16.3431 15 18 15V13ZM17 19V26C17 26.5523 17.4477 27 18 27H28C28.5523 27 29 26.5523 29 26V19H17ZM21 21V23H19V21H21Z" fill="#F1F2F2"/>
</svg>
