<svg width="1374" height="293" viewBox="0 0 1374 293" fill="#D24600" xmlns="http://www.w3.org/2000/svg">
<path d="M47.0782 68.9331C48.0446 82.8854 50.6678 93.9368 54.9476 102.087C59.2274 110.238 68.6155 113.691 78.4177 113.691C82.4214 113.691 84.9065 113 90.2908 110.652C95.6751 108.304 104.235 102.778 115.97 93.9368C129.224 83.8524 140.544 76.9453 149.794 73.3536C159.044 69.7619 168.156 67.9661 176.44 67.9661C201.429 67.9661 219.928 75.2876 232.63 89.9307C245.193 104.574 252.925 128.196 254.996 158.449H207.917C206.399 142.149 203.776 132.064 198.529 123.085C194.526 116.316 185.276 113.691 176.44 113.691C171.884 113.691 168.432 114.934 161.806 117.974C155.317 121.013 147.585 126.262 138.612 133.584C130.742 140.076 121.492 146.016 111 151.404C100.507 156.792 89.6005 159.278 78.4177 159.278C53.1528 159.278 34.3768 151.957 21.9514 136.899C9.52609 121.842 2.20895 99.1862 0 68.7949H47.0782V68.9331Z"/>
<path d="M304.559 158.587H353.57C353.57 172.264 367.238 182.901 384.081 182.901C399.958 182.901 412.107 174.75 412.107 160.798C412.107 152.371 407.413 144.635 388.361 138.281L362.82 130.545C315.466 117.697 306.354 88.6874 306.354 68.3805C306.354 29.7006 339.35 2.48656 382.148 2.48656C424.947 2.48656 454.767 27.0759 454.767 68.9331H405.756C405.756 56.0858 398.025 45.1726 381.182 45.1726C365.857 45.1726 355.917 55.5332 355.917 67.2753C355.917 71.6959 357.159 81.3659 377.178 86.8916L399.682 94.075C430.193 103.469 461.394 119.079 461.394 158.035C461.394 204.174 421.495 224.758 382.148 224.758C336.313 224.758 304.559 197.958 304.559 158.311V158.587Z"/>
<path d="M578.331 75.5639H628.584L566.872 221.304H526.696L464.984 75.5639H515.237L546.991 162.317L578.469 75.5639H578.331Z"/>
<path d="M636.039 26.7996C636.039 11.4658 649.155 0 664.756 0C680.356 0 692.782 11.604 692.782 26.7996C692.782 41.9953 680.356 53.5992 664.756 53.5992C649.155 53.5992 636.039 41.4427 636.039 26.7996ZM641.7 221.304V75.5639H687.812V221.304H641.7Z"/>
<path d="M882.061 148.227C882.061 195.333 847.822 225.034 811.237 225.034C796.326 225.034 776.998 218.818 766.367 205.003V293H720.255V75.5639H766.367V91.174C776.998 77.7742 796.326 71.834 811.237 71.834C847.684 71.834 882.061 101.535 882.061 148.227ZM835.397 148.227C835.397 129.854 819.796 114.52 801.711 114.52C783.625 114.52 768.024 129.439 768.024 148.227C768.024 167.014 784.177 182.21 801.711 182.21C819.244 182.21 835.397 166.876 835.397 148.227Z"/>
<path d="M1068.03 148.227C1068.03 195.333 1033.79 225.034 997.203 225.034C982.292 225.034 962.964 218.818 952.333 205.003V293H906.221V75.5639H952.333V91.174C962.964 77.7742 982.292 71.834 997.203 71.834C1033.65 71.834 1068.03 101.535 1068.03 148.227ZM1021.22 148.227C1021.22 129.854 1005.62 114.52 987.538 114.52C969.453 114.52 953.852 129.439 953.852 148.227C953.852 167.014 970.005 182.21 987.538 182.21C1005.07 182.21 1021.22 166.876 1021.22 148.227Z"/>
<path d="M1238.25 161.903H1131.53C1135.95 175.993 1148.1 184.696 1165.5 184.696C1179.16 184.696 1193.25 178.48 1202.36 169.777L1226.1 199.754C1211.75 215.364 1186.76 225.034 1162.46 225.034C1116.35 225.034 1083.9 193.261 1083.9 148.917C1083.9 101.535 1120.35 71.834 1162.18 71.834C1204.02 71.834 1238.94 101.12 1238.94 145.464C1238.94 149.47 1238.67 154.858 1238.25 162.041V161.903ZM1193.11 134.827C1192.42 120.46 1179.72 110.79 1163.15 110.79C1149.48 110.79 1135.95 117.283 1131.4 134.827H1193.11Z"/>
<path d="M1373 76.1165L1362.09 120.184C1353.12 114.934 1345.94 114.52 1341.25 114.52C1323.16 114.52 1308.25 129.854 1308.25 172.816V221.166H1262.14V75.5639H1307.7V106.508C1316.12 82.471 1333.52 71.834 1351.32 71.834C1358.23 71.834 1365.68 72.3866 1373.14 76.2546L1373 76.1165Z"/>
</svg>
