<svg width="66" height="80" viewBox="0 0 66 80" fill="none" xmlns="http://www.w3.org/2000/svg">
<path d="M46.0098 71.7617L46.1497 72.838L44.7291 73.1699L44.5371 71.7617H46.0098Z" fill="#6F777D"/>
<path d="M47.5127 72.1133L47.9301 73.8535L49.1588 73.2231V72.1653L47.5127 72.1133Z" fill="#6F777D"/>
<path d="M46.0095 58.2204V63.0149L46.4789 63.3134L46.2436 63.6119L46.4789 71.7617H43.3639V63.6974L42.8523 62.8873L42.5947 57.777L46.0095 58.2204Z" fill="#9CBCC6"/>
<path d="M46.3535 57.9654L46.4786 62.8875L46.6916 63.3581L47.119 72.0604C47.119 72.0604 48.8678 72.3167 50.1906 72.2746L49.3372 62.9729L50.1299 57.3052C50.1299 57.3052 47.249 57.8168 46.3535 57.9654Z" fill="#9CBCC6"/>
<path d="M47.1188 74.5778L46.4785 73.5548V72.4661L44.5364 72.9565L44.8151 74.1505L44.119 75.1389C44.119 75.1389 43.2768 75.1637 43.3288 75.6058C43.3474 75.7644 43.2557 75.8102 43.4167 75.9712C43.4167 75.9712 45.1383 76.048 45.2672 75.9204C45.3972 75.7929 46.2989 75.3569 46.2989 75.3569C46.2989 75.3569 46.9467 74.8231 47.1188 74.5778Z" fill="#4B555B"/>
<path d="M49.27 72.3981L47.1991 73.0137L47.7106 73.9414L47.8927 74.4467L46.6455 75.5131C46.7371 75.4437 46.3507 76.3145 46.4782 76.4433C46.4782 76.4433 46.9365 76.5981 47.5125 76.3776L49.3815 75.606C49.3815 75.606 50.0478 75.0709 50.1902 74.7786L49.4335 73.1883L49.27 72.3981Z" fill="#4B555B"/>
<path d="M46.4567 41.9554L46.2375 41.3881L43.0098 42.2663L43.1163 43.1209C43.1163 43.1209 44.4279 44.1563 45.2268 43.864C46.0257 43.5717 46.4567 41.9554 46.4567 41.9554Z" fill="#6F777D"/>
<path d="M53.7459 55.3887L53.6084 56.6929C53.7323 56.7932 54.0815 56.2173 54.2289 56.0711C54.3751 55.9262 54.7541 56.3572 54.7541 56.3572C54.7541 56.3572 54.1385 57.3072 54.2487 57.3741C54.4135 57.4744 55.4613 56.4315 55.4935 56.0241L54.7318 54.6269L53.7459 55.3887Z" fill="#6F777D"/>
<path d="M19.3825 75.6055L20.4675 75.224C20.4675 75.224 19.8098 74.1737 19.5893 71.9591L16.5449 72.2923L16.7939 75.3788L19.3825 75.6055Z" fill="#6F777D"/>
<path d="M22.7656 74.2835L23.292 72.6746L26.0516 72.5259L25.919 73.5502L27.0474 74.8706L24.5455 76.6504L22.7656 74.2835Z" fill="#6F777D"/>
<path d="M19.8337 73.5291C19.8337 73.5291 20.0505 73.7781 20.2003 74.1732C20.4097 74.7219 20.5075 75.1046 20.5459 75.444C20.6016 75.9555 20.567 76.581 20.567 76.581L20.6388 76.9624C20.6388 76.9624 19.7805 77.0454 18.2533 78.4264C17.8359 78.8042 16.71 79.966 15.9297 79.9969C15.1135 80.0291 12.9634 79.8012 12.7516 79.5808C12.541 79.3591 12.79 78.6469 12.79 78.6469L15.282 77.1396L16.2369 75.4402C16.2369 75.4402 16.0164 74.0196 17.1534 73.9378C18.2905 73.8586 19.0051 75.6062 19.0051 75.6062L20.1174 74.5485L19.8337 73.5291Z" fill="#4B555B"/>
<path d="M23.0204 73.5059C23.0204 73.5059 21.58 74.4274 21.85 76.6494L21.7559 77.2353C21.7559 77.2353 23.4205 77.9115 24.8312 77.675C24.8312 77.675 28.9136 78.3661 32.4844 77.5771C32.4844 77.5771 32.6268 76.9294 32.4695 76.7089C32.4695 76.7089 28.8033 75.7589 28.4268 75.697L27.1251 74.6838L24.9415 75.4294L22.8433 74.0967L23.0204 73.5059Z" fill="#4B555B"/>
<path d="M26.7965 73.8148C26.7965 73.8148 24.7318 74.2508 24.624 76.4629L27.1259 74.6818L26.7965 73.8148Z" fill="#4B555B"/>
<path d="M27.1092 37.2643L13.1679 37.3907C13.1679 37.3907 13.0279 53.4649 13.0118 54.1671C12.9945 54.8694 15.9943 73.2461 15.9943 73.2461C15.9943 73.2461 19.5106 73.0578 20.1398 71.6137L18.3463 54.4557L18.6733 53.9888L18.2064 53.5949L20.4061 40.7484L23.3836 55.8144L22.3952 56.4387L22.7556 57.1508L22.4658 57.9547L21.8317 72.7482L26.0515 72.5277L27.6158 57.3242L27.9069 56.5204L27.1092 37.2643Z" fill="#C4D5DB"/>
<path d="M15.9512 15.3891L17.4585 39.2948L24.9519 39.4199C24.9519 39.4199 26.2078 28.9949 25.7049 27.5309C25.2033 26.0644 24.3029 15.7867 24.3029 15.7867C24.3029 15.7867 19.8452 19.4504 15.9512 15.3891Z" fill="white"/>
<path d="M19.1765 6.66191C19.1765 6.66191 19.0316 4.539 19.0564 4.25165C19.0811 3.96183 18.6191 1.44009 18.6191 1.44009C18.6191 1.44009 23.6341 2.0086 24.0912 2.10768C24.0912 2.10768 24.381 2.71706 24.6324 3.87884L24.4578 4.78176C24.4578 4.78176 25.8053 6.09589 25.8524 6.35351C25.8896 6.56035 24.6745 6.95546 24.6745 6.95546C24.6745 6.95546 23.0693 9.02387 20.773 8.75758C20.0707 8.67583 19.1765 6.66191 19.1765 6.66191Z" fill="#6F777D"/>
<path d="M16.9271 16.0495C16.8862 16.026 17.7966 13.6108 18.0455 11.4421C18.1137 10.8475 17.6963 6.74539 17.6963 6.74539C17.6963 6.74539 18.3069 6.73301 18.6165 6.58066C18.6165 6.58066 19.5207 8.58963 20.2663 9.08753C20.2663 9.08753 22.0783 9.59163 22.7212 9.47025L22.8859 11.8867C22.8859 11.8867 23.8495 15.9381 23.8842 17.0751C23.8842 17.0751 19.6198 17.5916 16.9271 16.0495Z" fill="#6F777D"/>
<path d="M17.3323 7.98994C16.957 7.30005 15.3803 6.13332 15.4769 4.66066C15.5698 3.2524 15.877 1.5828 16.4616 1.11462C19.3524 -1.20027 23.1288 0.385102 25.1848 3.18923C25.1848 3.18923 21.619 2.71238 21.2747 3.11987C20.5551 3.97077 21.3316 4.35225 21.2388 5.43848C21.1124 6.90495 20.5068 7.86608 20.5068 7.86608L18.8892 8.8557L18.9994 10.2949C18.9994 10.2949 17.7707 8.79501 17.3323 7.98994Z" fill="#818B92"/>
<path d="M24.5834 6.84563C24.5834 6.84563 24.0236 7.37697 23.3956 7.58505C22.7677 7.79066 22.0159 8.4471 21.3272 8.34306C20.6386 8.23902 20.1964 7.97025 19.8459 7.5095C19.514 7.07476 19.4434 6.75645 19.4434 6.75645L18.4785 6.86668C18.4785 6.86668 18.5355 7.61478 19.1337 9.18529C19.5412 10.2591 20.6336 10.5861 21.0374 10.6988C21.5972 10.8574 23.4365 10.9267 24.3159 10.7471C24.8225 10.6443 25.3192 10.3731 25.3427 9.81325C25.365 9.25341 25.012 9.18653 25.012 9.18653C25.012 9.18653 25.5235 8.68738 24.9067 8.40623C24.9067 8.40623 25.2647 8.00493 25.1804 7.71387L24.5834 6.84563Z" fill="#6F777D"/>
<path d="M17.3272 12.5522C17.3272 12.5522 11.5306 14.1933 10.6934 15.2535C10.6934 15.2535 12.7259 19.4114 13.0702 21.8786C13.4145 24.3471 12.4558 31.9891 12.2255 34.7523C12.0162 37.258 12.1834 39.1059 12.1834 39.1059C12.1834 39.1059 17.2355 39.3053 18.7998 38.343C18.7998 38.343 17.3792 22.4855 16.9927 19.5365C16.9927 19.5365 17.1996 13.3325 17.3272 12.5522Z" fill="#9CBCC6"/>
<path d="M18.4426 38.4782L18.7596 39.9632C18.7596 39.9632 13.196 40.8909 12.9792 40.8847C12.9792 40.8847 12.7761 40.3398 12.6436 39.121C12.6436 39.121 15.7004 39.0009 18.4426 38.4782Z" fill="#5C9CAB"/>
<path d="M18.0507 11.4596C18.0507 11.4596 14.7586 11.5587 13.8594 12.8357C13.8594 12.8357 15.7432 16.1018 16.9979 20.4355C16.9979 20.4355 17.1243 19.2416 17.2704 17.3787C17.4042 15.6819 18.0061 12.6734 18.0135 12.37L18.0507 11.4596Z" fill="#5C9CAB"/>
<path d="M18.4585 5.9141C18.4585 5.9141 18.4696 5.29481 17.9569 5.16105C17.4429 5.02604 17.0663 5.46698 16.9821 5.85093C16.8867 6.29063 16.909 7.20841 17.4057 7.63572C17.9011 8.06179 18.7409 8.11133 18.7409 8.11133L18.4585 5.9141Z" fill="#6F777D"/>
<path d="M42.751 43.0174C42.751 43.0174 42.3398 57.7081 42.4637 58.476C42.4637 58.476 46.7244 60.0118 50.6742 58.263L47.8676 42.3585L46.3243 42.0364C46.3243 42.0364 45.409 43.1351 44.3934 43.1351C43.0508 43.1351 43.1177 42.7635 43.1177 42.7635C43.1177 42.7635 43.0012 42.8527 42.751 43.0174Z" fill="#9CBCC6"/>
<path d="M56.7718 56.198L55.7261 55.1312C55.5462 54.9476 55.2516 54.945 55.068 55.1253L52.8908 57.2639C52.7072 57.4443 52.7042 57.7393 52.8841 57.9228L53.9298 58.9897C54.1097 59.1732 54.4043 59.1758 54.5879 58.9955L56.7651 56.8569C56.9487 56.6766 56.9517 56.3816 56.7718 56.198Z" fill="#2B343A"/>
<path d="M44.2427 56.4702L43.8142 45.7603C43.8142 45.7603 42.5137 43.9235 41.1413 43.5841L39.0457 45.847L37.5953 43.0367L37.2522 43.1878V42.5623L35.2903 43.6708L35.4612 44.1031L35.0352 44.4623C35.0352 44.4623 36.9723 48.8765 38.2257 48.8765C38.4474 48.8765 41.4572 47.0422 41.4572 47.0422L40.6892 56.8975C40.6892 56.8975 43.0401 57.3236 44.2427 56.4702Z" fill="#5C9CAB"/>
<path d="M47.3623 56.6413L47.6658 46.594L49.1706 43.0368C49.1706 43.0368 50.2804 43.4145 50.4513 43.713C50.4513 43.713 54.8024 53.4841 54.8024 53.6972C54.8024 53.9102 54.333 54.0811 54.333 54.0811L54.8024 54.6794C54.8024 54.6794 54.333 55.4894 52.9681 55.5315L52.6696 54.849L52.1147 54.9779L49.5038 47.0423L51.083 56.214C51.083 56.214 49.9472 57.5801 47.3623 56.6413Z" fill="#5C9CAB"/>
<path d="M36.8695 42.7799L36.1462 41.602L35.0352 42.36L35.5925 43.502L36.8695 42.7799Z" fill="#6F777D"/>
<path d="M33.5556 40.495C33.5556 40.495 32.8248 39.8745 32.7295 39.5413C32.7295 39.5413 32.9859 37.7107 32.9859 37.4766C32.9859 37.2425 31.834 35.5147 31.834 35.5147L33.5556 34.1981L34.7706 36.3359C34.7706 36.3359 36.8192 37.9671 37.0434 38.0637C37.0434 38.0637 36.7239 40.7539 36.6917 41.0883C36.6595 41.4227 34.7706 43.8491 34.6753 43.9011C34.5799 43.9506 34.0993 44.015 34.2269 43.3425C34.3557 42.6712 34.835 39.3109 34.835 39.3109C34.835 39.3109 33.5866 39.8547 33.5556 40.495Z" fill="#6F777D"/>
<path d="M34.8985 41.003C34.8985 41.003 34.61 41.7449 34.418 41.808C34.2272 41.8724 33.6835 41.2321 33.5547 40.4964C33.5547 40.4964 33.7145 39.5154 34.2272 39.3012C34.7388 39.0881 35.1227 39.098 35.2825 39.1897C35.4423 39.2801 35.1797 40.4171 34.8985 41.003Z" fill="#6F777D"/>
<path d="M28.3843 15.2539L30.3103 25.8524H30.8751L30.6237 26.188L34.6503 34.5013L34.3926 35.1293L34.6503 35.751L32.8283 37.2695L32.3193 36.654H31.378L28.5515 32.9729L28.4079 26.432C28.4079 26.432 26.4249 19.0737 28.3843 15.2539Z" fill="#5C9CAB"/>
<path d="M28.4281 27.028L28.2175 20.279C28.2175 20.279 28.1271 19.0875 27.9748 17.7127L28.386 15.2541L27.1982 13.7133C27.1982 13.7133 24.508 12.7163 23.0898 12.1143C23.0898 12.1143 24.2479 26.3468 24.1166 28.4511C23.9829 30.5555 23.7698 38.8204 23.397 39.6751C23.397 39.6751 26.3188 40.6127 29.2505 40.1172L29.3261 39.2539L29.7633 39.0496L28.4281 27.028Z" fill="#9CBCC6"/>
<path d="M29.3265 39.3807C29.3265 39.3807 25.1513 39.9269 23.6675 38.728L23.3975 39.8018C23.3975 39.8018 26.3762 40.6589 29.251 40.244L29.3265 39.3807Z" fill="#5C9CAB"/>
<path d="M22.8594 11.653C22.8594 11.653 23.5505 16.1007 23.8007 17.5449C23.8007 17.5449 23.2916 13.5344 25.5979 16.1453C25.5979 16.1453 25.8741 11.8896 22.8594 11.653Z" fill="#5C9CAB"/>
<path d="M42.8269 42.319C42.8269 42.319 40.969 43.2665 40.9678 43.5316C40.9653 43.7966 43.1873 44.6934 43.814 45.7598C43.814 45.7598 43.7769 45.252 43.653 44.8618C43.3917 44.0394 43.2183 43.0361 43.1737 42.5618C43.1737 42.5618 42.9792 42.5333 42.8269 42.319Z" fill="#007F95"/>
<path d="M46.3431 41.6646C46.3431 41.6646 49.0642 42.3334 49.4271 42.3756C49.4271 42.3756 49.5968 42.9193 49.4271 43.2983C49.2562 43.6773 47.6968 46.3216 47.6659 46.8555C47.6659 46.8555 47.4739 46.0665 47.3624 45.555C47.2509 45.0422 47.355 43.2785 46.3232 42.0362L46.3431 41.6646Z" fill="#007F95"/>
<path d="M42.5408 38.2086C42.5408 38.2086 42.1085 37.3837 41.3121 37.3713C40.6309 37.3614 39.9534 37.759 39.6983 38.0971L39.6401 38.2804L40.2507 37.8915L39.5707 38.5034C39.5707 38.5034 39.5187 39.7481 40.6086 40.4863C40.6086 40.4863 40.8947 38.3523 42.1952 38.4192L42.5408 38.2086Z" fill="#6F777D"/>
<path d="M47.9719 39.1802C47.8678 38.8545 47.3303 38.3937 46.8633 39.0762C46.8633 39.0762 45.6867 37.8128 45.6879 37.0883L42.4862 36.6412C42.4862 36.6412 41.675 38.2823 41.6601 38.6575C41.6366 39.2174 41.784 39.4564 41.784 39.4564C41.784 39.4564 41.4074 40.0435 41.6564 40.8498C41.8409 41.4406 42.2249 41.8171 42.5531 42.1132C42.7674 42.3076 43.1712 42.7349 43.7892 42.6383C44.4085 42.5417 45.5889 42.3014 46.2255 41.7713C46.8621 41.2424 47.1098 40.4163 47.1098 40.4163C47.1098 40.4163 47.5594 40.5427 47.6981 40.1352C47.765 39.9345 48.0747 39.5072 47.9719 39.1802Z" fill="#6F777D"/>
<path d="M45.3483 37.1533C45.3483 37.1533 45.1985 38.1689 44.1073 38.3844C42.9492 38.6148 41.292 37.9348 41.292 37.9348C41.292 37.9348 41.6487 35.6942 43.1969 35.0564C44.7439 34.4185 45.44 34.9437 45.44 34.9437C45.44 34.9437 46.3739 34.66 47.3115 35.3437C48.2491 36.0262 48.8944 36.6665 48.9563 38.0153C49.017 39.3641 48.3172 40.7773 46.8012 41.082L47.1096 40.4169C47.1096 40.4169 47.5827 40.4355 47.7313 40.0429C47.9084 39.5734 47.8032 39.2341 47.4093 39.2613C47.0154 39.2886 46.8086 39.6849 46.8086 39.6849C46.8086 39.6849 45.1861 38.5987 45.3483 37.1533Z" fill="#6F777D"/>
<path d="M48.9603 37.9053C48.9603 37.9053 48.9417 38.6051 48.834 38.9172C48.834 38.9172 50.355 40.2734 50.3488 41.1367C50.3488 41.1367 50.5407 40.7503 50.3884 40.1595L50.6473 40.9893C50.6473 40.9893 51.5638 40.0753 51.7583 39.6083L50.9941 38.9841L52.032 39.5377C52.032 39.5377 52.2438 38.8466 52.0184 37.9053C52.0184 37.9053 51.2653 37.0048 50.0441 37.1931C49.1201 37.3343 48.9603 37.9053 48.9603 37.9053Z" fill="#6F777D"/>
<path d="M43.1236 40.9651L42.9998 40.9601C42.7372 40.9341 42.6592 40.8486 42.6592 40.8486C42.6592 40.8486 42.8846 41.4952 43.1125 41.4679C43.4519 41.4283 43.681 40.9093 43.681 40.9093C43.4482 40.9539 43.2661 40.9663 43.1236 40.9651Z" fill="white"/>
<path d="M10.6939 15.2546L8.38148 24.8684L8 25.0715L8.41864 25.2399C8.41864 25.2399 13.0212 25.7317 13.3556 25.5223C13.3556 25.5223 13.3977 22.089 12.854 20.2881C12.1864 18.081 10.6939 15.2546 10.6939 15.2546Z" fill="#5C9CAB"/>
<path d="M18.5469 21.8161C18.5469 21.8161 19.6616 20.0499 19.9081 19.7861C20.1533 19.521 21.5157 18.5797 21.5157 18.5797C21.5157 18.5797 21.8365 19.1309 21.5095 19.4492C21.1838 19.7688 20.6153 20.2543 20.6153 20.2543L19.3792 22.4453L18.5469 21.8161Z" fill="#6F777D"/>
<path d="M24.4219 17.8883L22.4226 17.1782C22.0787 17.0561 21.6918 17.2211 21.5586 17.5469L19.979 21.4107C19.8458 21.7365 20.0167 22.0996 20.3606 22.2218L22.3599 22.9319C22.7039 23.0541 23.0907 22.889 23.2239 22.5632L24.8035 18.6994C24.9367 18.3736 24.7659 18.0105 24.4219 17.8883Z" fill="#37424A"/>
<path d="M20.3595 20.5456L22.7982 19.7641C22.7982 19.7641 24.0677 19.8632 24.5347 20.1208C25.0004 20.3784 24.4653 22.5422 24.095 22.884C23.7234 23.2259 20.6196 23.616 20.6196 23.616L17.6259 24.9141L17.5615 22.5261L20.3595 20.5456Z" fill="#6F777D"/>
<path d="M17.9927 22.1512L17.5208 22.4708L16.5275 22.0905L13.2304 22.9662L9.00065 24.6593L8.58821 25.0643L8.39375 25.2538C8.39375 25.2538 7.01274 27.9056 10.2157 29.0996L18.415 25.9499L18.6392 25.0631L19.3526 24.6259L17.9927 22.1512Z" fill="#5C9CAB"/>
</svg>
