<svg width="145" height="212" viewBox="0 0 145 212" fill="none" xmlns="http://www.w3.org/2000/svg">
<g clip-path="url(#clip0_18521_24325)">
<path fill-rule="evenodd" clip-rule="evenodd" d="M20.8045 17.3616C20.8045 8.8776 27.711 2 36.2306 2H108.464C116.984 2 123.89 8.8776 123.89 17.3616V195.848C123.89 204.332 116.984 211.21 108.464 211.21H36.2306C27.711 211.21 20.8045 204.332 20.8045 195.848V17.3616Z" fill="#1A2024"/>
<path fill-rule="evenodd" clip-rule="evenodd" d="M51.6572 15.6549H91.5692C94.8148 15.6549 97.4459 13.0348 97.4459 9.49806C97.4791 8.87292 97.9812 8.37292 98.6074 8.34142L108.22 8.33984C113.358 8.33984 117.524 12.4882 117.524 17.6055V197.068C117.524 202.185 113.358 206.333 108.22 206.333H35.0067C29.8679 206.333 25.7021 202.185 25.7021 197.068V17.6055C25.7021 12.4882 29.8679 8.33984 35.0067 8.33984H44.6175C45.2452 8.37292 45.7473 8.87292 45.779 9.49648C45.7805 13.0348 48.4116 15.6549 51.6572 15.6549Z" fill="#D4E9EC"/>
<path d="M25.7021 126.464V138.785C25.7019 138.785 25.7022 138.785 25.7021 138.785L25.7024 197.07C25.7024 202.187 29.8686 206.335 35.0075 206.335H108.22C113.359 206.335 117.525 202.187 117.525 197.07V104.969C117.525 104.969 117.525 104.969 117.524 104.969V93.5874C115.394 98.9993 110.264 102.796 103.83 105.811L103.33 106.07C92.2677 110.52 79.0391 112.722 69.8881 113.786C67.8284 114.026 65.7944 114.242 63.8253 114.45L63.7955 114.453C54.1882 115.471 45.1128 116.433 37.246 119.598C34.618 120.655 32.2798 121.888 30.099 123.367L29.8832 123.509C28.4874 124.393 27.0923 125.38 25.7021 126.464Z" fill="#A6D1D9"/>
</g>
<path d="M6.46289 52.1064C6.46289 48.2404 9.5969 45.1064 13.4629 45.1064H130.463C134.329 45.1064 137.463 48.2405 137.463 52.1064V77.4471C137.463 81.3131 134.329 84.4471 130.463 84.4471H13.4629C9.5969 84.4471 6.46289 81.3131 6.46289 77.4471V52.1064Z" fill="white" stroke="#8D9398" stroke-width="2"/>
<path fill-rule="evenodd" clip-rule="evenodd" d="M16.2814 60.1999C16.2814 59.7581 16.6396 59.3999 17.0814 59.3999H29.8814C30.3233 59.3999 30.6814 59.7581 30.6814 60.1999V63.3999C30.6814 63.8389 30.3278 64.1954 29.8898 64.1999C29.8872 64.1999 29.8803 64.2002 29.8697 64.201C29.8472 64.2026 29.8099 64.2062 29.763 64.214C29.6653 64.2303 29.5474 64.2613 29.4392 64.3154C29.3341 64.368 29.2533 64.4343 29.1971 64.5187C29.1441 64.5981 29.0814 64.7399 29.0814 64.9999C29.0814 65.2599 29.1441 65.4017 29.1971 65.4811C29.2533 65.5656 29.3341 65.6318 29.4392 65.6844C29.5474 65.7385 29.6653 65.7695 29.763 65.7858C29.8099 65.7936 29.8472 65.7972 29.8697 65.7988C29.8803 65.7996 29.8872 65.7999 29.8898 65.7999C30.3278 65.8044 30.6814 66.1609 30.6814 66.5999V69.7999C30.6814 70.2417 30.3233 70.5999 29.8814 70.5999H17.0814C16.6396 70.5999 16.2814 70.2417 16.2814 69.7999V66.5999C16.2814 66.1609 16.6351 65.8044 17.0731 65.7999C17.0756 65.7999 17.0825 65.7996 17.0932 65.7988C17.1157 65.7972 17.153 65.7936 17.1999 65.7858C17.2975 65.7695 17.4154 65.7385 17.5237 65.6844C17.6288 65.6318 17.7095 65.5656 17.7658 65.4811C17.8187 65.4017 17.8814 65.2599 17.8814 64.9999C17.8814 64.7399 17.8187 64.5981 17.7658 64.5187C17.7095 64.4343 17.6288 64.368 17.5237 64.3154C17.4154 64.2613 17.2975 64.2303 17.1999 64.214C17.153 64.2062 17.1157 64.2026 17.0932 64.201C17.0825 64.2002 17.0756 64.1999 17.0731 64.1999C16.6351 64.1954 16.2814 63.8389 16.2814 63.3999V60.1999ZM17.8814 62.738C17.9955 62.7753 18.1165 62.823 18.2392 62.8844C18.5341 63.0318 18.8533 63.2656 19.0971 63.6311C19.3441 64.0017 19.4814 64.4599 19.4814 64.9999C19.4814 65.5399 19.3441 65.9981 19.0971 66.3687C18.8533 66.7343 18.5341 66.968 18.2392 67.1154C18.1165 67.1768 17.9955 67.2245 17.8814 67.2618V68.9999H29.0814V67.2618C28.9674 67.2245 28.8464 67.1768 28.7237 67.1154C28.4288 66.968 28.1095 66.7343 27.8658 66.3687C27.6187 65.9981 27.4814 65.5399 27.4814 64.9999C27.4814 64.4599 27.6187 64.0017 27.8658 63.6311C28.1095 63.2656 28.4288 63.0318 28.7237 62.8844C28.8464 62.823 28.9674 62.7753 29.0814 62.738V60.9999H17.8814V62.738Z" fill="#75B8C4"/>
<path d="M22.7314 65.5V62H24.3314V65.5H22.7314Z" fill="#75B8C4"/>
<path d="M22.7314 66.3H24.3314V67.9H22.7314V66.3Z" fill="#75B8C4"/>
<path d="M43.4814 60.9998C44.5039 60.9998 45.529 61.3905 46.3099 62.1714C47.872 63.7335 47.872 66.2661 46.3099 67.8282C45.9974 68.1406 45.4909 68.1406 45.1785 67.8282L42.9157 65.5655C42.7657 65.4155 42.6814 65.212 42.6814 64.9998V61.7998C42.6814 61.358 43.0396 60.9998 43.4814 60.9998Z" fill="#75B8C4"/>
<path fill-rule="evenodd" clip-rule="evenodd" d="M43.4814 57.7998C39.505 57.7998 36.2814 61.0234 36.2814 64.9998C36.2814 68.9763 39.505 72.1998 43.4814 72.1998C47.4579 72.1998 50.6814 68.9763 50.6814 64.9998C50.6814 61.0234 47.4579 57.7998 43.4814 57.7998ZM37.8814 64.9998C37.8814 61.907 40.3886 59.3998 43.4814 59.3998C46.5742 59.3998 49.0814 61.907 49.0814 64.9998C49.0814 68.0926 46.5742 70.5998 43.4814 70.5998C40.3886 70.5998 37.8814 68.0926 37.8814 64.9998Z" fill="#75B8C4"/>
<path d="M57.4814 57C57.4814 56.4477 57.9292 56 58.4814 56H127.481C128.034 56 128.481 56.4477 128.481 57C128.481 57.5523 128.034 58 127.481 58H58.4814C57.9292 58 57.4814 57.5523 57.4814 57Z" fill="#A6D1D9"/>
<path d="M57.4814 65C57.4814 64.4477 57.9292 64 58.4814 64H104.481C105.034 64 105.481 64.4477 105.481 65C105.481 65.5523 105.034 66 104.481 66H58.4814C57.9292 66 57.4814 65.5523 57.4814 65Z" fill="#A6D1D9"/>
<path d="M57.4814 73C57.4814 72.4477 57.9292 72 58.4814 72H104.481C105.034 72 105.481 72.4477 105.481 73C105.481 73.5523 105.034 74 104.481 74H58.4814C57.9292 74 57.4814 73.5523 57.4814 73Z" fill="#A6D1D9"/>
<path d="M35.4814 139C35.4814 138.448 35.9292 138 36.4814 138H106.481C107.034 138 107.481 138.448 107.481 139C107.481 139.552 107.034 140 106.481 140H36.4814C35.9292 140 35.4814 139.552 35.4814 139Z" fill="#D4E9EC"/>
<path d="M35.4814 148C35.4814 147.448 35.9292 147 36.4814 147H82.4814C83.0337 147 83.4814 147.448 83.4814 148C83.4814 148.552 83.0337 149 82.4814 149H36.4814C35.9292 149 35.4814 148.552 35.4814 148Z" fill="#D4E9EC"/>
<path d="M35.4814 157C35.4814 156.448 35.9292 156 36.4814 156H82.4814C83.0337 156 83.4814 156.448 83.4814 157C83.4814 157.552 83.0337 158 82.4814 158H36.4814C35.9292 158 35.4814 157.552 35.4814 157Z" fill="#D4E9EC"/>
<defs>
<clipPath id="clip0_18521_24325">
<rect width="104.555" height="209" fill="white" transform="translate(20.0698 2)"/>
</clipPath>
</defs>
</svg>
