<svg width="161" height="96" viewBox="0 0 161 96" fill="none" xmlns="http://www.w3.org/2000/svg">
<path fill-rule="evenodd" clip-rule="evenodd" d="M60.75 0C60.75 3.31371 58.0637 6 54.75 6C51.4363 6 48.75 3.31371 48.75 0H12.75C6.12258 0 0.75 5.37258 0.75 12V84C0.75 90.6274 6.12258 96 12.75 96H48.833C48.7784 95.6748 48.75 95.3407 48.75 95C48.75 91.6863 51.4363 89 54.75 89C58.0637 89 60.75 91.6863 60.75 95C60.75 95.3407 60.7216 95.6748 60.667 96H148.75C155.377 96 160.75 90.6274 160.75 84V12C160.75 5.37258 155.377 0 148.75 0H60.75ZM54.75 25C58.0637 25 60.75 22.3137 60.75 19C60.75 15.6863 58.0637 13 54.75 13C51.4363 13 48.75 15.6863 48.75 19C48.75 22.3137 51.4363 25 54.75 25ZM60.75 38C60.75 41.3137 58.0637 44 54.75 44C51.4363 44 48.75 41.3137 48.75 38C48.75 34.6863 51.4363 32 54.75 32C58.0637 32 60.75 34.6863 60.75 38ZM54.75 63C58.0637 63 60.75 60.3137 60.75 57C60.75 53.6863 58.0637 51 54.75 51C51.4363 51 48.75 53.6863 48.75 57C48.75 60.3137 51.4363 63 54.75 63ZM60.75 76C60.75 79.3137 58.0637 82 54.75 82C51.4363 82 48.75 79.3137 48.75 76C48.75 72.6863 51.4363 70 54.75 70C58.0637 70 60.75 72.6863 60.75 76Z" fill="#DBDDDE"/>
<rect x="72.75" y="24" width="76" height="8" rx="4" fill="#CFD2D3"/>
<rect x="72.75" y="44" width="76" height="8" rx="4" fill="#CFD2D3"/>
<rect x="72.75" y="64" width="76" height="8" rx="4" fill="#CFD2D3"/>
</svg>
