<svg width="40" height="40" viewBox="0 0 40 40" fill="none" xmlns="http://www.w3.org/2000/svg">
<path d="M14.5801 36.665H12.0801V6.66496C12.0801 4.13496 14.1399 2.08496 16.6699 2.08496H25C27.53 2.08496 29.5801 4.14496 29.5801 6.66496V19.995H27.0801V6.66496C27.0801 5.51496 26.15 4.58496 25 4.58496H16.6699C15.5199 4.58496 14.5801 5.51496 14.5801 6.66496V36.665Z" fill="black"/>
<path d="M5.83008 27.9149C3.73008 27.9149 2.08008 25.9049 2.08008 23.3349C2.08008 20.7649 3.73008 18.7549 5.83008 18.7549C7.93008 18.7549 9.58008 20.7649 9.58008 23.3349C9.58008 25.9049 7.93008 27.9149 5.83008 27.9149ZM5.83008 21.2449C5.24008 21.2449 4.58008 22.1349 4.58008 23.3249C4.58008 24.5149 5.24008 25.4049 5.83008 25.4049C6.42008 25.4049 7.08008 24.5149 7.08008 23.3249C7.08008 22.1349 6.42008 21.2449 5.83008 21.2449Z" fill="black"/>
<path d="M7.08008 26.665H4.58008V36.665H7.08008V26.665Z" fill="black"/>
<path d="M36.6699 37.915H3.33008C2.64008 37.915 2.08008 37.355 2.08008 36.665C2.08008 35.975 2.64008 35.415 3.33008 35.415H36.6699C37.3599 35.415 37.9199 35.975 37.9199 36.665C37.9199 37.355 37.3599 37.915 36.6699 37.915Z" fill="black"/>
<path d="M22.5 16.2451H19.1699C18.4799 16.2451 17.9199 15.6851 17.9199 14.9951C17.9199 14.3051 18.4799 13.7451 19.1699 13.7451H22.5C23.19 13.7451 23.75 14.3051 23.75 14.9951C23.75 15.6851 23.19 16.2451 22.5 16.2451ZM22.5 11.2451H19.1699C18.4799 11.2451 17.9199 10.6851 17.9199 9.99512C17.9199 9.30512 18.4799 8.74512 19.1699 8.74512H22.5C23.19 8.74512 23.75 9.30512 23.75 9.99512C23.75 10.6851 23.19 11.2451 22.5 11.2451Z" fill="black"/>
<path d="M28.3301 37.915C27.6401 37.915 27.0801 37.355 27.0801 36.665V31.665C27.0801 30.975 27.6401 30.415 28.3301 30.415C29.0201 30.415 29.5801 30.975 29.5801 31.665V36.665C29.5801 37.355 29.0201 37.915 28.3301 37.915Z" fill="black"/>
<path d="M35 37.9152C34.31 37.9152 33.75 37.3552 33.75 36.6652V25.6352L28.3301 21.5652L22.9199 25.6352V36.6652C22.9199 37.3552 22.3599 37.9152 21.6699 37.9152C20.9799 37.9152 20.4199 37.3552 20.4199 36.6652V25.0152C20.4199 24.6252 20.5999 24.2552 20.9199 24.0152L27.5801 19.0052C28.0201 18.6752 28.6401 18.6652 29.0801 19.0052L35.75 24.0152C36.06 24.2552 36.25 24.6252 36.25 25.0152V36.6652C36.25 37.3552 35.69 37.9152 35 37.9152Z" fill="black"/>
</svg>
