<svg width="40" height="40" viewBox="0 0 40 40" fill="none" xmlns="http://www.w3.org/2000/svg">
<path d="M6.66504 36.2418C5.97504 36.2418 5.41504 35.6818 5.41504 34.9918V23.3218C5.41504 22.6318 5.97504 22.0718 6.66504 22.0718C7.35504 22.0718 7.91504 22.6318 7.91504 23.3218V34.9918C7.91504 35.6818 7.35504 36.2418 6.66504 36.2418Z" fill="black"/>
<path d="M26.4849 26.232C24.1649 26.232 21.5949 25.752 19.0249 24.422C13.3149 21.472 9.06499 23.852 7.61499 25.522C7.27499 25.912 6.72486 26.062 6.23486 25.872C5.74486 25.692 5.4248 25.222 5.4248 24.702V7.36196C5.4248 6.98196 5.60479 6.62196 5.90479 6.38196C8.15479 4.61196 14.0248 2.10196 20.1848 5.28196C24.2248 7.37196 28.595 7.46196 32.825 5.53196C33.215 5.35196 33.6649 5.39196 34.0149 5.62196C34.3749 5.85196 34.585 6.25196 34.585 6.67196V23.362C34.585 23.812 34.3348 24.232 33.9448 24.452C32.4048 25.312 29.6949 26.222 26.4949 26.222L26.4849 26.232ZM13.7349 20.522C15.6549 20.522 17.8248 20.982 20.1748 22.202C24.9148 24.652 29.615 23.722 32.085 22.602V8.51196C27.715 9.97196 23.1449 9.63196 19.0349 7.50196C14.4049 5.10196 10.0048 6.63196 7.9248 8.00196V22.102C9.4048 21.222 11.3849 20.522 13.7449 20.522H13.7349Z" fill="black"/>
</svg>
