<svg width="40" height="40" viewBox="0 0 40 40" fill="none" xmlns="http://www.w3.org/2000/svg">
<path fill-rule="evenodd" clip-rule="evenodd" d="M2 15.6639C2 9.5967 5.99117 4 12.7167 4C14.4023 4 15.8862 4.39139 17.1846 5.10371C17.7898 5.43577 18.0113 6.19561 17.6792 6.80086C17.3472 7.40611 16.5873 7.62758 15.9821 7.29552C15.0665 6.79321 13.9985 6.5 12.7167 6.5C7.72106 6.5 4.5 10.6002 4.5 15.6639C4.5 20.0804 6.52398 23.709 9.56646 26.7532C12.4762 29.6646 16.2616 31.9811 19.9167 33.8472C23.5718 31.9811 27.3571 29.6646 30.2669 26.7532C33.3094 23.709 35.3333 20.0804 35.3333 15.6639C35.3333 10.6002 32.1122 6.5 27.1167 6.5C24.6902 6.5 22.9145 7.55808 21.4977 9.35938L25.0438 13.6167C25.4575 14.1133 25.4243 14.8435 24.9672 15.3005L20.8511 19.4167L23.3006 21.8662C23.7404 22.306 23.7899 23.0024 23.4167 23.5L20.9167 26.8334C20.5025 27.3857 19.719 27.4976 19.1667 27.0834C18.6144 26.6692 18.5025 25.8857 18.9167 25.3334L20.7662 22.8673L18.1994 20.3006C17.7113 19.8124 17.7113 19.021 18.1994 18.5328L22.3925 14.3398L18.9562 10.2144C18.602 9.78912 18.5696 9.18153 18.8766 8.72101C20.7078 5.97415 23.3188 4 27.1167 4C33.8421 4 37.8333 9.59669 37.8333 15.6639C37.8333 20.9334 35.392 25.1618 32.0351 28.5205C28.6942 31.8633 24.3868 34.4093 20.4759 36.3656C20.1239 36.5417 19.7095 36.5417 19.3574 36.3656C15.4466 34.4093 11.1391 31.8633 7.79819 28.5205C4.44135 25.1618 2 20.9334 2 15.6639Z" fill="black"/>
</svg>
