<svg width="40" height="40" viewBox="0 0 40 40" fill="none" xmlns="http://www.w3.org/2000/svg">
<path fill-rule="evenodd" clip-rule="evenodd" d="M12.7167 6.5C7.72107 6.5 4.5 10.6002 4.5 15.6639C4.5 20.0804 6.52398 23.709 9.56646 26.7532C12.4762 29.6646 16.2616 31.9811 19.9167 33.8472C23.5718 31.9811 27.3571 29.6646 30.2669 26.7532C33.3094 23.709 35.3333 20.0804 35.3333 15.6639C35.3333 10.6002 32.1122 6.5 27.1167 6.5C24.3712 6.5 22.4588 7.85462 20.9567 10.1078C20.7249 10.4555 20.3346 10.6644 19.9167 10.6644C19.4987 10.6644 19.1084 10.4555 18.8766 10.1078C17.3745 7.85462 15.4622 6.5 12.7167 6.5ZM2 15.6639C2 9.5967 5.99117 4 12.7167 4C15.847 4 18.171 5.34117 19.9167 7.35076C21.6623 5.34117 23.9863 4 27.1167 4C33.8421 4 37.8333 9.59669 37.8333 15.6639C37.8333 20.9334 35.392 25.1618 32.0351 28.5205C28.6942 31.8633 24.3868 34.4093 20.4759 36.3656C20.1239 36.5417 19.7095 36.5417 19.3574 36.3656C15.4466 34.4093 11.1391 31.8633 7.79819 28.5205C4.44135 25.1618 2 20.9334 2 15.6639Z" fill="black"/>
</svg>
