<svg width="40" height="40" viewBox="0 0 40 40" fill="none" xmlns="http://www.w3.org/2000/svg">
  <path fill-rule="evenodd" clip-rule="evenodd" d="M20 3C20.8665 3 21.6344 3.55792 21.9021 4.38197L25.0453 14.0557H35.2169C36.0834 14.0557 36.8513 14.6136 37.119 15.4377C37.3868 16.2617 37.0934 17.1645 36.3925 17.6738L28.1635 23.6525L31.3067 33.3262C31.5744 34.1503 31.2811 35.053 30.5801 35.5623C29.8792 36.0716 28.93 36.0716 28.229 35.5623L20 29.5836L11.771 35.5623C11.07 36.0716 10.1208 36.0716 9.41987 35.5623C8.71889 35.053 8.42557 34.1503 8.69332 33.3262L11.8365 23.6525L3.60752 17.6738C2.90655 17.1645 2.61323 16.2617 2.88098 15.4377C3.14873 14.6136 3.91664 14.0557 4.7831 14.0557H14.9547L18.0979 4.38197C18.3656 3.55792 19.1335 3 20 3ZM20 11.4721L18.3099 16.6738C18.0421 17.4978 17.2742 18.0557 16.4078 18.0557H10.9385L15.3632 21.2705C16.0642 21.7798 16.3575 22.6825 16.0898 23.5066L14.3997 28.7082L18.8244 25.4934C19.5254 24.9841 20.4746 24.9841 21.1756 25.4934L25.6003 28.7082L23.9102 23.5066C23.6425 22.6825 23.9358 21.7798 24.6368 21.2705L29.0615 18.0557H23.5922C22.7258 18.0557 21.9579 17.4978 21.6901 16.6738L20 11.4721Z" fill="black"/>
</svg>