<svg width="40" height="40" viewBox="0 0 40 40" fill="none" xmlns="http://www.w3.org/2000/svg">
<path fill-rule="evenodd" clip-rule="evenodd" d="M12.7167 6.5C7.72107 6.5 4.5 10.6002 4.5 15.6639C4.5 20.0804 6.52398 23.709 9.56646 26.7532C12.1454 29.3337 15.4123 31.4468 18.6667 33.1931V9.80257C17.1968 7.73286 15.3359 6.5 12.7167 6.5ZM21.1667 9.80257V33.1931C24.421 31.4468 27.6879 29.3336 30.2669 26.7532C33.3094 23.709 35.3333 20.0804 35.3333 15.6639C35.3333 10.6002 32.1122 6.5 27.1167 6.5C24.4975 6.5 22.6365 7.73286 21.1667 9.80257ZM19.9167 7.35076C18.171 5.34117 15.847 4 12.7167 4C5.99117 4 2 9.5967 2 15.6639C2 20.9334 4.44135 25.1618 7.79819 28.5205C11.1391 31.8633 15.4466 34.4093 19.3574 36.3656C19.7095 36.5417 20.1239 36.5417 20.4759 36.3656C24.3868 34.4093 28.6942 31.8633 32.0351 28.5205C35.392 25.1618 37.8333 20.9334 37.8333 15.6639C37.8333 9.59669 33.8421 4 27.1167 4C23.9863 4 21.6623 5.34117 19.9167 7.35076Z" fill="black"/>
<path d="M12.7167 5.25C6.85611 5.25 3.25 10.0985 3.25 15.6639C3.25 25.3499 12.1806 31.3779 19.9167 35.2477V9.41438C18.25 6.91438 15.9883 5.25 12.7167 5.25Z" fill="black"/>
</svg>
