<svg width="40" height="40" viewBox="0 0 40 40" fill="none" xmlns="http://www.w3.org/2000/svg">
  <path fill-rule="evenodd" clip-rule="evenodd" d="M37.2 29.4L34.8 32.6L29.8691 28.9018L31.3067 33.3262C31.5744 34.1503 31.2811 35.053 30.5801 35.5623C29.8792 36.0716 28.93 36.0716 28.229 35.5623L20 29.5836L11.771 35.5623C11.07 36.0716 10.1208 36.0716 9.41987 35.5623C8.71889 35.053 8.42557 34.1503 8.69332 33.3262L11.8365 23.6525L3.60752 17.6738C2.90655 17.1645 2.61323 16.2617 2.88098 15.4377C3.14873 14.6136 3.91664 14.0557 4.7831 14.0557H10.0743L2.80002 8.59999L5.20002 5.39999L37.2 29.4ZM24.3081 24.731L15.4077 18.0557H10.9385L15.3632 21.2705C16.0642 21.7798 16.3575 22.6825 16.0898 23.5066L14.3997 28.7082L18.8244 25.4934C19.5254 24.9841 20.4746 24.9841 21.1756 25.4934L25.6003 28.7082L24.3081 24.731Z" fill="black"/>
  <path d="M18.0979 4.38197L16.611 8.95821L32.2473 20.6854L36.3925 17.6738C37.0934 17.1645 37.3868 16.2617 37.119 15.4377C36.8513 14.6136 36.0834 14.0557 35.2169 14.0557H25.0453L21.9021 4.38197C21.6344 3.55792 20.8665 3 20 3C19.1335 3 18.3656 3.55792 18.0979 4.38197Z" fill="black"/>
</svg>