<svg width="40" height="40" viewBox="0 0 40 40" fill="none" xmlns="http://www.w3.org/2000/svg">
  <path fill-rule="evenodd" clip-rule="evenodd" d="M19.0077 4.26351C19.6226 3.91216 20.3774 3.91216 20.9923 4.26351L34.9923 12.2635C35.6154 12.6196 36 13.2823 36 14V34C36 35.1046 35.1046 36 34 36H6C4.89543 36 4 35.1046 4 34V14C4 13.2823 4.38457 12.6196 5.00772 12.2635L19.0077 4.26351ZM8 15.1606V32H14V22C14 20.8954 14.8954 20 16 20H24C25.1046 20 26 20.8954 26 22V32H32V15.1606L20 8.3035L8 15.1606ZM22 32V24H18V32H22Z" fill="black"/>
</svg>