<svg width="40" height="40" viewBox="0 0 40 40" fill="none" xmlns="http://www.w3.org/2000/svg">
<path d="M31.6699 37.4649H26.6699C25.0599 37.4649 23.75 36.1549 23.75 34.5449V27.8749C23.75 26.7249 22.8199 25.7949 21.6699 25.7949H18.3398C17.1898 25.7949 16.25 26.7249 16.25 27.8749V34.5449C16.25 36.1549 14.9401 37.4649 13.3301 37.4649H8.33008C5.80008 37.4649 3.75 35.4049 3.75 32.8849V16.3249C3.75 14.9149 4.39023 13.6049 5.49023 12.7249L17.1602 3.52491C18.8302 2.20491 21.1601 2.20491 22.8301 3.52491L34.5 12.7249C35.61 13.6049 36.25 14.9149 36.25 16.3249V32.8849C36.25 35.4149 34.1999 37.4649 31.6699 37.4649ZM18.3398 23.2949H21.6699C24.1999 23.2949 26.25 25.3549 26.25 27.8749V34.5449C26.25 34.7749 26.4399 34.9649 26.6699 34.9649H31.6699C32.8199 34.9649 33.75 34.0349 33.75 32.8849V16.3249C33.75 15.6849 33.4602 15.0849 32.9502 14.6849L21.2798 5.48491C20.5198 4.88491 19.47 4.88491 18.71 5.48491L7.04004 14.6849C6.54004 15.0849 6.25 15.6849 6.25 16.3249V32.8849C6.25 34.0349 7.18008 34.9649 8.33008 34.9649H13.3301C13.5601 34.9649 13.75 34.7749 13.75 34.5449V27.8749C13.75 25.3449 15.8098 23.2949 18.3398 23.2949Z" fill="black"/>
</svg>
