<svg width="40" height="40" viewBox="0 0 40 40" fill="none" xmlns="http://www.w3.org/2000/svg">
<path d="M25.0943 34.7955C23.8443 34.7955 22.7743 34.0455 22.3443 32.8555L18.4444 21.8055C18.4044 21.6855 18.3144 21.5955 18.1944 21.5555L7.15432 17.6555C5.93432 17.2255 5.16461 16.1055 5.20461 14.8155C5.24461 13.5255 6.07448 12.4655 7.31448 12.1055L31.0845 5.31546C32.1045 5.02546 33.1944 5.31546 33.9444 6.05546C34.6944 6.80546 34.9746 7.90546 34.6846 8.91546L27.8946 32.6755C27.5346 33.9155 26.4746 34.7455 25.1846 34.7855C25.1546 34.7855 25.1145 34.7855 25.0845 34.7855L25.0943 34.7955ZM31.8946 7.69546C31.8946 7.69546 31.8144 7.69546 31.7744 7.71546L8.00442 14.5055C7.76442 14.5755 7.71461 14.7555 7.70461 14.8855C7.70461 15.0255 7.7444 15.2155 7.9844 15.2955L19.0244 19.1955C19.8544 19.4955 20.4945 20.1355 20.7945 20.9655L24.6944 32.0155C24.7744 32.2555 24.9645 32.3155 25.1045 32.2955C25.2445 32.2955 25.4247 32.2355 25.4947 31.9855L32.2847 8.22546C32.3447 8.02546 32.2443 7.88546 32.1743 7.81546C32.1243 7.76546 32.0243 7.69546 31.8843 7.69546H31.8946Z" fill="black"/>
</svg>
