<svg width="40" height="40" viewBox="0 0 40 40" fill="none" xmlns="http://www.w3.org/2000/svg">
<path d="M32.5 37.0799H7.5C4.97 37.0799 2.91992 35.0199 2.91992 32.4999V7.49992C2.91992 4.96992 4.97 2.91992 7.5 2.91992H32.5C35.03 2.91992 37.0801 4.97992 37.0801 7.49992V32.4999C37.0801 35.0299 35.03 37.0799 32.5 37.0799ZM7.5 5.41992C6.35 5.41992 5.41992 6.34992 5.41992 7.49992V32.4999C5.41992 33.6499 6.35 34.5799 7.5 34.5799H32.5C33.65 34.5799 34.5801 33.6499 34.5801 32.4999V7.49992C34.5801 6.34992 33.65 5.41992 32.5 5.41992H7.5Z" fill="black"/>
<path d="M14.1699 30.4198C13.4799 30.4198 12.9199 29.8598 12.9199 29.1698V10.8398C12.9199 10.1498 13.4799 9.58984 14.1699 9.58984H20.8301C24.2801 9.58984 27.0801 12.3898 27.0801 15.8398C27.0801 19.2898 24.2801 22.0898 20.8301 22.0898H15.4199V29.1698C15.4199 29.8598 14.8599 30.4198 14.1699 30.4198ZM15.4199 19.5798H20.8301C22.9001 19.5798 24.5801 17.8998 24.5801 15.8298C24.5801 13.7598 22.9001 12.0798 20.8301 12.0798H15.4199V19.5798Z" fill="black"/>
</svg>
