<svg width="40" height="40" viewBox="0 0 40 40" fill="none" xmlns="http://www.w3.org/2000/svg">
<path d="M21.3546 12.7659H17.4469V19.1489H21.2908C22.3671 19.1489 23.1866 18.9518 23.75 18.413C24.3146 17.8761 24.5969 17.1527 24.5969 16.1723C24.5969 15.096 24.3057 14.3136 23.7266 13.67C23.1469 13.0271 22.3562 12.7659 21.3546 12.7659Z" fill="black"/>
<path d="M34.4669 0H5.64475C2.58419 0 0 2.57349 0 5.63499V34.4573C0 37.5182 2.58419 40 5.64475 40H34.4669C37.528 40 40 37.5182 40 34.4576V5.63521C40 2.57372 37.528 0.000227985 34.4666 0.000227985L34.4669 0ZM27.8159 21.4743C26.2074 22.8192 24.0002 23.4042 21.1961 23.4042H17.4472V31.4894H11.9152V8.51053H21.2913C23.0518 8.51053 24.6113 8.76076 25.9648 9.40963C27.3205 10.0576 28.3692 10.9437 29.113 12.1402C29.8548 13.3373 30.227 14.6321 30.227 16.1509C30.2273 18.3971 29.4238 20.1311 27.8161 21.4743H27.8159Z" fill="black"/>
</svg>
