<svg width="40" height="40" viewBox="0 0 40 40" fill="none" xmlns="http://www.w3.org/2000/svg">
<path d="M30 26.2549H20C19.31 26.2549 18.75 25.6949 18.75 25.0049V15.0049C18.75 14.3149 19.31 13.7549 20 13.7549H30C30.42 13.7549 30.81 13.9649 31.04 14.3149L34.3701 19.3149C34.6501 19.7349 34.6501 20.2849 34.3701 20.7049L31.04 25.7049C30.81 26.0549 30.42 26.2649 30 26.2649V26.2549ZM21.25 23.7549H29.3301L31.8301 20.0049L29.3301 16.2549H21.25V23.7549Z" fill="black"/>
<path d="M20 16.2551H10C9.58004 16.2551 9.19 16.0451 8.96 15.6951L5.62992 10.6951C5.34992 10.2751 5.34992 9.72511 5.62992 9.30511L8.96 4.30511C9.19 3.95511 9.58004 3.74512 10 3.74512H20C20.69 3.74512 21.25 4.30512 21.25 4.99512V14.9951C21.25 15.6851 20.69 16.2451 20 16.2451V16.2551ZM10.67 13.7551H18.75V6.25512H10.67L8.16996 10.0051L10.67 13.7551Z" fill="black"/>
<path d="M21.2402 5.01465H18.7402V35.0147H21.2402V5.01465Z" fill="black"/>
<path d="M25 36.2549H15C14.31 36.2549 13.75 35.6949 13.75 35.0049C13.75 34.3149 14.31 33.7549 15 33.7549H25C25.69 33.7549 26.25 34.3149 26.25 35.0049C26.25 35.6949 25.69 36.2549 25 36.2549Z" fill="black"/>
</svg>
