<svg width="40" height="40" viewBox="0 0 40 40" fill="none" xmlns="http://www.w3.org/2000/svg">
  <path fill-rule="evenodd" clip-rule="evenodd" d="M11.1716 26L8.58579 23.4142L11.4142 20.5858L17.4142 26.5858C18.1953 27.3668 18.1953 28.6332 17.4142 29.4142L11.4142 35.4142L8.58579 32.5858L11.1716 30H4V26H11.1716Z" fill="black"/>
  <path fill-rule="evenodd" clip-rule="evenodd" d="M12 6C12 4.89543 12.8954 4 14 4H34C35.1046 4 36 4.89543 36 6V16C36 17.1046 35.1046 18 34 18H26V36H22V18H14C12.8954 18 12 17.1046 12 16V6ZM16 8V14H32V8H16Z" fill="black"/>
</svg>