<svg width="40" height="40" viewBox="0 0 40 40" fill="none" xmlns="http://www.w3.org/2000/svg">
  <path fill-rule="evenodd" clip-rule="evenodd" d="M29.1716 26L26.5858 23.4142L29.4142 20.5858L35.4142 26.5858C36.1953 27.3668 36.1953 28.6332 35.4142 29.4142L29.4142 35.4142L26.5858 32.5858L29.1716 30H22V26H29.1716Z" fill="black"/>
  <path fill-rule="evenodd" clip-rule="evenodd" d="M4 6C4 4.89543 4.89543 4 6 4H26C27.1046 4 28 4.89543 28 6V16C28 17.1046 27.1046 18 26 18H18V36H14V18H6C4.89543 18 4 17.1046 4 16V6ZM8 8V14H24V8H8Z" fill="black"/>
</svg>