<svg width="40" height="40" viewBox="0 0 40 40" fill="none" xmlns="http://www.w3.org/2000/svg">
<path fill-rule="evenodd" clip-rule="evenodd" d="M24.75 15.0833C25.4404 15.0833 26 15.6429 26 16.3333V32.9999C26 33.6903 25.4404 34.2499 24.75 34.2499C24.0596 34.2499 23.5 33.6903 23.5 32.9999V16.3333C23.5 15.6429 24.0596 15.0833 24.75 15.0833Z" fill="#141B34"/>
<path fill-rule="evenodd" clip-rule="evenodd" d="M17.5 33C17.5 32.3096 18.0596 31.75 18.75 31.75H30.4167C31.107 31.75 31.6667 32.3096 31.6667 33C31.6667 33.6904 31.107 34.25 30.4167 34.25H18.75C18.0596 34.25 17.5 33.6904 17.5 33Z" fill="#141B34"/>
<path fill-rule="evenodd" clip-rule="evenodd" d="M30.75 7.5H18.75C18.4739 7.5 18.25 7.72386 18.25 8V14C18.25 14.2761 18.4739 14.5 18.75 14.5H30.75C31.0261 14.5 31.25 14.2761 31.25 14V8C31.25 7.72386 31.0261 7.5 30.75 7.5ZM18.75 5C17.0931 5 15.75 6.34315 15.75 8V14C15.75 15.6569 17.0931 17 18.75 17H30.75C32.4069 17 33.75 15.6569 33.75 14V8C33.75 6.34315 32.4069 5 30.75 5H18.75Z" fill="#141B34"/>
<path fill-rule="evenodd" clip-rule="evenodd" d="M12.8661 18.1161C13.3543 17.628 14.1457 17.628 14.6339 18.1161L19.6339 23.1161C20.122 23.6043 20.122 24.3957 19.6339 24.8839L14.634 29.8839C14.1458 30.372 13.3544 30.372 12.8662 29.8839C12.3781 29.3957 12.3781 28.6043 12.8662 28.1161L16.9822 24L12.8661 19.8839C12.378 19.3957 12.378 18.6043 12.8661 18.1161Z" fill="#141B34"/>
<path fill-rule="evenodd" clip-rule="evenodd" d="M6 24C6 23.3096 6.55964 22.75 7.25 22.75H18.75C19.4404 22.75 20 23.3096 20 24C20 24.6904 19.4404 25.25 18.75 25.25H7.25C6.55964 25.25 6 24.6904 6 24Z" fill="#141B34"/>
</svg>
