<svg width="40" height="40" viewBox="0 0 40 40" fill="none" xmlns="http://www.w3.org/2000/svg">
<path fill-rule="evenodd" clip-rule="evenodd" d="M15 15.0833C15.6904 15.0833 16.25 15.6429 16.25 16.3333V32.9999C16.25 33.6903 15.6904 34.2499 15 34.2499C14.3096 34.2499 13.75 33.6903 13.75 32.9999V16.3333C13.75 15.6429 14.3096 15.0833 15 15.0833Z" fill="black"/>
<path fill-rule="evenodd" clip-rule="evenodd" d="M7.75 33C7.75 32.3096 8.30964 31.75 9 31.75H20.6667C21.357 31.75 21.9167 32.3096 21.9167 33C21.9167 33.6904 21.357 34.25 20.6667 34.25H9C8.30964 34.25 7.75 33.6904 7.75 33Z" fill="black"/>
<path fill-rule="evenodd" clip-rule="evenodd" d="M21 7.5H9C8.72386 7.5 8.5 7.72386 8.5 8V14C8.5 14.2761 8.72386 14.5 9 14.5H21C21.2761 14.5 21.5 14.2761 21.5 14V8C21.5 7.72386 21.2761 7.5 21 7.5ZM9 5C7.34315 5 6 6.34315 6 8V14C6 15.6569 7.34315 17 9 17H21C22.6569 17 24 15.6569 24 14V8C24 6.34315 22.6569 5 21 5H9Z" fill="black"/>
<path fill-rule="evenodd" clip-rule="evenodd" d="M26.1161 18.1161C26.6043 17.628 27.3957 17.628 27.8839 18.1161L32.8839 23.1161C33.372 23.6043 33.372 24.3957 32.8839 24.8839L27.884 29.8839C27.3958 30.372 26.6044 30.372 26.1162 29.8839C25.6281 29.3957 25.6281 28.6043 26.1162 28.1161L30.2322 24L26.1161 19.8839C25.628 19.3957 25.628 18.6043 26.1161 18.1161Z" fill="black"/>
<path fill-rule="evenodd" clip-rule="evenodd" d="M19.25 24C19.25 23.3096 19.8096 22.75 20.5 22.75H32C32.6904 22.75 33.25 23.3096 33.25 24C33.25 24.6904 32.6904 25.25 32 25.25H20.5C19.8096 25.25 19.25 24.6904 19.25 24Z" fill="black"/>
</svg>
