<svg xmlns="http://www.w3.org/2000/svg" width="795" height="649" fill="none">
  <g clip-path="url(#a)">
    <path fill="#003F23"
      d="M683.8 316.8c60.9 0 110.3-49.4 110.3-110.3S744.7 96.2 683.8 96.2s-110.3 49.4-110.3 110.3 49.4 110.3 110.3 110.3Z" />
    <path fill="#1C6C6C"
      d="M602.4 374.6c60.9 0 110.3-49.4 110.3-110.3S663.3 154 602.4 154s-110.3 49.4-110.3 110.3 49.4 110.3 110.3 110.3Z"
      opacity=".8" />
    <path fill="#00975F"
      d="M561.8 220.7c60.9 0 110.3-49.4 110.3-110.3S622.8 0 561.8 0 451.5 49.4 451.5 110.3s49.4 110.3 110.3 110.3"
      opacity=".8" />
    <path fill="#1C6C6C"
      d="M492 365.8c73.9 0 133.8-59.9 133.8-133.8S565.9 98.2 492 98.2 358.2 158.1 358.2 232 418.1 365.8 492 365.8Z"
      opacity=".7" />
    <path fill="#003F23" d="M566 271.6h49.8v370.6H566V271.6Z" />
    <path fill="#003F23"
      d="m602.4 337.7 121.8-66.1-121.8 33v33.1Zm-34.3-20.9-144.3-96.1 149.6 63.7-5.3 32.4Z" />
    <path fill="#1C6C6C"
      d="M244.5 637.8c0 1.7 2.2 10.6 8.9 10.6 6.8 0 9.7-8.4 9.7-10.1 0-.8-.6-4-.8-6.3-2.2-19.2-3.1-17.7-8.7-17.7-7.5 0-9.1 20.2-9.1 23.6v-.1Z" />
    <path fill="#DDBB92"
      d="M249.6 610.5c0-2.9-.3-6.7-.5-10.9 0-1.7 1.2-3.1 2.9-3.1h6.5c1.7 0 3.1 1.5 2.9 3.2-.5 5.4-1 10.2-1.7 13-.1.4-.1.9 0 1.3.4 2.2.2 3.9 0 4.1.4 1.7.6 6.3.6 8.4-.1 4.4-1.3 6-3 7-1 .6-2.2.2-3.6.2s-3.2.2-4.3-.4c-1.9-1.1-2.9-2.8-2.8-7.2 0-2.9.8-6.4 1.8-8.5 0-.5-.3-3.2.8-5.6.2-.4.3-.9.3-1.4l.1-.1Z" />
    <path fill="#1C6C6C"
      d="M229.6 597.9c3.7 0 6.2 2.2 7.1 5.6 1.5 5.7-2.3 11.5-2.6 20.8 0 1.5-4 13.2-12.6 11.8-2.8-.5-3.4-3.6-3.5-8.3-.1-4.7 1.9-10.4 2.5-13 1-4.8 1.4-9.7 2-11.5 1.4-4.5.9-5.3 5.4-5.4h1.7Z" />
    <path fill="#DDBB92"
      d="M223.2 600c.6-4.4 0-11.2-.6-15.3-.2-1.7 1-3.2 2.7-3.3l5.8-.3c1.6 0 3 1.2 3.1 2.8.2 4.4.6 11.8 0 14v1.5c0 .6.3 1.6.6 2.3.8.6-.5 8.7-.5 9.4 0 2.9-.2 5-1.7 7.9-.4.8-2.1-.4-6.4-.2-4.1.2-5.1 1.7-5.6.6-.6-1.4.6-4.2.6-6.7 0-.5.9-9.8 1.6-12 .7-2.2.2-.4.2-.7h.2Z" />
    <path fill="#1C6C6C"
      d="m211.1 454.6 28.5 2 28.5-2c2.5 9.3 2.1 19.5 1.2 29.3-1.1 13.2-4.3 35-5.6 48.6-.1 1.2.8 3.4.7 4.6-.1 2-1.2 3-1.3 5.1-.2 8.1.4 15.3.6 21.8.5 19-.4 33.4-.9 37.3-.5 3.9-1.3 2.5-2.7 2.6-2.4.1-6.2.3-10.7-.3-1.5-.2-2.6-1.5-2.5-3 .1-5.1-.2-25.5-4.7-57.4-1.7-12 .7-54.4 0-60.2l-4.7-3.1c-.6 7.8-5.9 46.5-6 47.5-.2 6.3 2.5 9.6 2.9 18.2.8 20.4.4 38 0 42.6 0 1.4-1.2 2.6-2.6 2.7-7.2.8-10.5.1-10.9-2.3 0 0-5.9-24.8-11.7-57.7-.3-1.5.1-25.7 0-27.3-.5-27.8 1.4-29.4 1.9-49Z" />
    <path stroke="#003F23" stroke-linecap="round" stroke-linejoin="round" stroke-width=".7"
      d="m232.8 477.6 9.9 5" />
    <path fill="#1C6C6C"
      d="M246.1 601c0 2 1.3 3.6 3.3 4 2 .4 3.5.4 6 .4s4.4-.4 6.1-.8c1.8-.4 3-2 3-3.8v-.7c0-2.4-2.2-4.2-4.6-3.8-1.6.3-3.4.5-4.9.5-1.4 0-3-.2-4.4-.4-2.3-.3-4.3 1.4-4.4 3.7v.9h-.1Zm-9-12.7c0 1.9-1.2 3.5-3 4s-3.4.7-5.8.9c-2.3.2-4.5 0-6.2-.3-1.8-.3-3.2-1.7-3.4-3.5-.3-2.6 1.7-4.7 4.2-4.6 2.5.1 3.6.1 5.1 0 1.5-.1 2.9-.4 4.3-.7 2.4-.5 4.8 1.3 4.8 3.8v.4Z" />
    <path stroke="#003F23" stroke-linecap="round" stroke-linejoin="round" stroke-width=".7"
      d="M226 524.3s4.3 1.2 4.7 5.7l-2.3-1.4" />
    <path fill="#DDBB92" d="m188.1 457.6-9.3-2.6 10.7-43.9 14.1 6.7-15.5 39.8Z" />
    <path fill="#DDBB92"
      d="M180 452c-1 .5-1.6 1.9-3.5 4.7-.6.7-4.6 3.6-6.4 9.3-.5 1.5-.6 3.4-.7 5.3 0 2.3.6 4.8 1.8 6 .9.9 1.7 2 3.1 2 1.4 0 .2-1 .8-.4.5.5 1.2.9 1.8 0 .6-1-.4-2.5-1.4-4.5-.5-4 1.1-6.2 1.4-7 1.3-1.9 6.8.5 6.8.5-.5 1.5.7 3.3.3 4.7-.4 1.4-1 5.5-.4 5.9 1.6.9 2.4-1.1 3.9-3.7.7-1.2.9-6.6 1-7.8.6-5.8.9-10.4-.6-12.4-.7-.9-6.4-3.4-7.9-2.7v.1Z" />
    <path stroke="#D0A067" stroke-linecap="round" stroke-linejoin="round" stroke-width=".7"
      d="M176.6 456.6c-.6.7-4.6 3.6-6.4 9.3-.5 1.5-.6 3.4-.7 5.3 0 2.3.6 4.8 1.8 6 .9.9 1.7 2 3.1 2 1.4 0 .2-1 .8-.4.5.5 1.2.9 1.8 0 .6-1-.4-2.5-1.4-4.5-.5-4 1.1-6.2 1.4-7 1.3-1.9 6.8.5 6.8.5" />
    <path stroke="#D0A067" stroke-linecap="round" stroke-linejoin="round" stroke-width=".7"
      d="M175.1 478.9c-.9-.8-3.1-3.4-3.2-4.5-.4-2.5 0-6 0-6.9" />
    <path fill="#1C6C6C"
      d="M184.7 424.4c1.6-7.8 3.8-13.9 6.2-24.5 4-17.5 1.5-11.6 4.3-25 3-14.2 16.1-17.8 16.1-17.8l1.6 28.1-10.8 43.6s-1.7.2-7.5-.5c-5.7-.7-9.9-3.9-9.9-3.9Z" />
    <path fill="#DDBB92" d="m297 451 9-3.5-14.1-40.4-13.4 8L297 451Z" />
    <path fill="#1C6C6C"
      d="M297.7 420.1c-2.3-7.6-4.2-13.3-7.6-23.6-5.7-17-2.6-11.4-6.8-24.5-4.4-13.8-17.8-16.1-17.8-16.1l1.2 28.1 16.3 42.9s2.3.6 8-.6c5.6-1.3 6.7-6.1 6.7-6.1v-.1Z" />
    <path fill="#CCEADF"
      d="m271.4 463.8-.8-101.7s-18.1-7.4-19.6-7.9c-2.6-.7-20.6-.3-23.2.2-1.5.3-17.8 8.4-17.8 8.4l-2.2 101s23 3.6 32.5 3.3c9.6-.2 31.1-3.3 31.1-3.3Z" />
    <path stroke="#80CBAF" stroke-linecap="round" stroke-linejoin="round" stroke-width=".7"
      d="M219.7 411.8s18.3 4.4 37.7.7c0 0-6 4.5-25.5 3.5" />
    <path fill="#DDBB92"
      d="M253 365.2c2.2-3.1 2.2-6.7 2.2-8.6 0-3.7-3.3-4.1-15.5-4.1s-16.1.3-16.1 4-.2 5.6 1.9 8.7c0 0 4.5 5.6 14.1 5.6s13.5-5.6 13.5-5.6h-.1Z" />
    <path stroke="#80CBAF" stroke-linecap="round" stroke-linejoin="round" stroke-width=".7"
      d="M230.4 372.9s9.7 5.2 17.8 0" />
    <path stroke="#DDBB92" stroke-linecap="round" stroke-linejoin="round" stroke-width=".7"
      d="m225.4 358.3 8.7.4 2.3 1.5m16.8-1.9-8.7.4-2.3 1.5" />
    <path fill="#DDBB92" d="M247 334.5c.1 6 .7 13.9 2.5 20.8h-20.4c1.8-6.6 2.3-14.7 2.5-20.8H247Z" />
    <path fill="#D0A067"
      d="M238.7 357c5.026 0 9.1-4.567 9.1-10.2 0-5.633-4.074-10.2-9.1-10.2s-9.1 4.567-9.1 10.2c0 5.633 4.074 10.2 9.1 10.2Z" />
    <path fill="#1C6C6C"
      d="M227.6 352.8s-3.5 13.6-5.9 35.8c-2.5 23.3-3.7 48.1-2.3 77.1.1 2.6-3.3 4-6 4-5.2 0-9.3-.6-11.2-3.5 0 0 2.8-14.7 4.1-26.8.9-8.6 1.6-14.8 1.6-24.2 0-24.6-3.5-52.6-.1-56.1 0 0 4.5-4.6 19.8-6.4v.1Zm23.6.2s3.4 13.6 5.7 35.8c2.4 23.3 3.6 48.1 2.2 77.1-.1 2.6 3.3 4 6 4 5.2 0 9.3-.6 11.3-3.5 0 0-4.2-17.7-4.8-26.1-.6-8.4-.4-17.6-.4-27 0-24.6 2.7-51.6-.6-55.1 0 0-3.2-3.7-19.4-5.2Z" />
    <path stroke="#003F23" stroke-linecap="round" stroke-linejoin="round" stroke-width=".7"
      d="M274.5 386.8s-2.6 9.5-1.7 11.5l2.6-3.8m-73.3-6.4s6.3 15.3 5.3 17.4l-5.3-9.1" />
    <path fill="#DDBB92"
      d="M300.8 447.1c1.8-.5 2.7-1.5 4.2-.6 1 .6 2.6 3.6 4.4 6.6.7.9 6 6.4 5.7 15.4-.2 6.5-6.2 12.6-3.7 6.4-.5 1.5-.8 3.9-1.5 3.7-1.1-.3-2.2.3-1.4-7.2-.6-2.6-.4-3.5-.8-4.2-.6-.9-1.2-3-1.5-3.8-1.2-2-3.5-.2-3.5-.2.5 1.6.8 2.1 1.1 3.6.3 1.7 1.1 5.9.4 6.2-2.6 1.1-3.1-2.5-4.5-5.2-.7-1.3-1.6-5.2-2-6.3-1.8-5.8-1.6-10.2 0-12.1 1.6-1.9 1.9-2 3-2.3h.1Z" />
    <path stroke="#DDBB92" stroke-linecap="round" stroke-linejoin="round" stroke-width=".7"
      d="M311.5 474.5c.7-1.6 1.4-5.1.9-6.9-.6-1.8-.9-3.4-1.4-4.2m2.1-.8s1.4 2.7 2.1 5.1" />
    <path fill="#DDBB92"
      d="M250.8 329.8c-.9 3.1-2.9 8.4-.1 9.2 2.8.9 4.7-.2 7.2-6.2 1.3-2.9 1.2-6.9-1.6-7.8-2.8-.9-4.5 1.6-5.5 4.7v.1Z" />
    <path fill="#DDBB92"
      d="M216.8 314.9s-2.1 35.2 14.2 37.6c0 0 16.4 1.1 19.7-15.1 0 0 3.1-7.9 3-19.2 0-6.2-3-21.4-19.7-21.3-7.6 0-14.9 5.5-17.1 18h-.1Z" />
    <path fill="#1C6C6C" d="M252.5 339.9a1.7 1.7 0 1 0 0-3.4 1.7 1.7 0 0 0 0 3.4Z" />
    <path fill="#003F23" d="M243.7 304.9a8.4 8.4 0 1 0 0-16.8 8.4 8.4 0 0 0 0 16.8Z" />
    <path stroke="#4C7965" stroke-linecap="round" stroke-linejoin="round" stroke-width=".7"
      d="M244.5 290.6s-5.5 1.1-5.9 8m9.1-1.9s1.1 2.8-1.5 5.6" />
    <path fill="#003F23"
      d="M248.8 300.1c7.5 6 8.2 13.5 6.8 19.4-1.3 5.3-4.2 8.6-4.2 8.6-3.9-.9-24.3-13-26.4-19.3-2.2 6.9-5.7 13.1-8.3 16.5 0 0-6.2-19.4 8.8-27.6 6.1-3.3 16-3.6 23.3 2.3v.1Z" />
    <path stroke="#4C7965" stroke-linecap="round" stroke-linejoin="round" stroke-width=".7"
      d="M220.4 310.4s-2.6 3.7-2.7 6.9m30-12.9s6.8 4.8 7.4 13.9m-5 2.8s-5-2.3-6.3-7" />
    <path fill="#DDBB92"
      d="M365.3 495.2c-.3-1.9-.7-5.3-5.6-6-3.8-.6-17.6.9-21.3 1.4-3.4.5-6.8.4-9.7.4-5.5-8.1-18.7-21.6-18.7-21.6l-8.3 1.6s18.5 28.3 22.1 29.9c1.5.6 27.4.2 29.4 0 10.7-1.2 12.5-3.4 12.2-5.7h-.1Zm25.7 8.6.8-15.3s6.1 4.4 8.2 9.6c1.9 4.6 6 15.6 6.1 16 .8 1.3 3.9 5.9 5.1 9.8.7 2.2 4.6 15.9 4.6 15.9-.8 2.3-5.3 3.2-6.1 1.4-1.1-2.3-6.7-10.1-8.1-12.9-1.6-2.9-2-6.1-3.6-10.2-3-7.4-6.9-14.3-6.9-14.3h-.1Z" />
    <path fill="#fff" stroke="#1C6C6C" stroke-linecap="round" stroke-linejoin="round"
      stroke-width=".7"
      d="M373.5 634.3s-.8 2.1-1.5 5.2c-1 4.1 2.7 5.2 2.7 5.2s10 4.4 13-8.9c.3-1.5-.2-3 .5-4.5 1.5-3.3 1.8-4.3-1.1-10.4l-13.5 13.5-.1-.1Z" />
    <path fill="#1C6C6C"
      d="M373.6 633.5s2.4-6.9 3.5-12.4c0 0 9-.9 8.8-2 1.1 1.1 1.6 1.1 2.8 4.9 0 0-.1.7-1.1 2.9 0 0 0 3.2-.9 6s-.3 2.9-1 4.5c0 0-2.4 4.9-3.4 3.6-1.5-1.9-1.2-2.4-5.1-2.6-4.6-.3-5 2.6-5.2 2.8-.3.4-.7-5.1 1.8-7.7h-.2Z" />
    <path fill="#fff"
      d="M386.5 623.5c-.3 2.9-4.4 5.3-6.6 5-2.3-.3-3.1-4.4-2.7-7.3.3-2.9 4.1-4.4 6.4-4.2 2.3.3 3.3 3.5 3 6.5h-.1Z" />
    <path fill="#DDBB92"
      d="M386.5 558.7c-.2-1.2-8.8-1.1-11.7.8-2.5 1.6.7 12.1 1.1 24.7 0 2.1.8 10.8 1.1 12.5 1.2 7.8 1.3 23 .9 26.9 0 .2 0 3.3 3.8 2.2 2.5-.7 3.8-4.2 3.8-4.5.6-4.1 3.9-16.6 3.8-24.4 0-4.2-.7-7.4-.8-9.7-.7-13.1 0-17.6-2-28.5Z" />
    <path fill="#77A7A7"
      d="M380 623.5c-2.5-.2-4.6.6-4.7 3.2 0 .5 0 1 .1 1.5 0 0-1.3 3.6 3.4 4.2 4.7.5 5.2-3.8 5.2-3.8.1-.4.2-.8.3-1.3.2-2.6-1.8-3.6-4.3-3.8Z" />
    <path stroke="#fff" stroke-linecap="round" stroke-miterlimit="10" stroke-width="1.1"
      d="M382.1 631.1s-1.9-2.7-6.2-2.2" />
    <path stroke="#fff" stroke-linecap="round" stroke-miterlimit="10" stroke-width="1.1"
      d="M382.3 629.6s-2.8-1.6-6.5.7m5.9 2.9s-1.9-2.7-6.2-2.2m6.1 2.2s-3.5-1.2-6.2-.7" />
    <path stroke="#fff" stroke-linecap="round" stroke-miterlimit="10" stroke-width="1.1"
      d="M381.9 631.6s-2.8-1.6-6.5.7M383.918 630.917c.407-.657-.29-1.827-1.557-2.613-1.267-.785-2.625-.89-3.032-.233-.408.658.289 1.827 1.557 2.613 1.267.786 2.625.89 3.032.233Z" />
    <path stroke="#fff" stroke-linecap="round" stroke-miterlimit="10" stroke-width="1.1"
      d="M376.963 630.286c1.411-.48 2.354-1.463 2.104-2.195-.249-.732-1.595-.936-3.007-.455-1.411.48-2.354 1.463-2.104 2.195.249.732 1.595.936 3.007.455Z" />
    <path fill="#fff" stroke="#1C6C6C" stroke-linecap="round" stroke-linejoin="round"
      stroke-width=".7"
      d="M368.6 623.1s1.1 2 2.2 4.9c1.6 3.9-1.9 5.6-1.9 5.6s-9.3 5.8-14.1-7c-.5-1.4-.2-3-1.1-4.4-2-3.1-2.4-4-.4-10.5l15.3 11.4Z" />
    <path fill="#1C6C6C"
      d="M368.4 622.3s-3.4-6.5-5.2-11.8c0 0-9 .4-9-.8-.9 1.2-1.4 1.3-2.1 5.3 0 0 .2.7 1.5 2.7 0 0 .5 3.2 1.7 5.8.6 1.2.7 2.8 1.6 4.3 0 0 3.1 4.5 3.9 3.1 1.2-2 .9-2.5 4.7-3.3 4.5-.9 5.3 1.9 5.5 2.1.4.4 0-5.1-2.9-7.4h.3Z" />
    <path fill="#fff"
      d="M354.2 614.2c.7 2.8 5.1 4.6 7.3 4 2.2-.6 2.4-4.8 1.7-7.6s-4.7-3.8-6.9-3.2c-2.2.6-2.8 4-2.1 6.8Z" />
    <path fill="#DDBB92"
      d="M358.7 550c.4-1.2 10.2-1.1 12.9 1.2 2.3 1.9-.4 5.3-1.5 16.6-.2 2.1-.6 13.1-1.1 14.6-2.3 7.6-5.9 26.3-6.1 30.1 0 .2-1.1 4.6-4.7 2.9-2.3-1-3.2-4.7-3.2-4.9 0-4.2-.7-19.9.3-24 2.6-10.1 1.8-18 1.7-14.1.2-13-1.9-11.9 1.6-22.5l.1.1Z" />
    <path fill="#77A7A7"
      d="M360.6 613.3c2.5-.5 4.6 0 5.1 2.5.1.5.1 1 0 1.5 0 0 1.8 3.4-2.8 4.6-4.6 1.2-5.7-3-5.7-3-.2-.4-.3-.8-.4-1.2-.5-2.5 1.3-3.8 3.8-4.3v-.1Z" />
    <path stroke="#fff" stroke-linecap="round" stroke-miterlimit="10" stroke-width="1.1"
      d="M359.6 621.1s1.5-2.9 5.8-3" />
    <path stroke="#fff" stroke-linecap="round" stroke-miterlimit="10" stroke-width="1.1"
      d="M359.2 619.6s2.6-2 6.5-.2m-5.4 3.7s1.5-2.9 5.8-3m-5.7 3.1s3.3-1.7 6.1-1.6" />
    <path stroke="#fff" stroke-linecap="round" stroke-miterlimit="10" stroke-width="1.1"
      d="M359.9 621.6s2.6-2 6.5-.2M360.721 620.598c1.146-.954 1.673-2.21 1.178-2.804-.495-.594-1.825-.302-2.97.653-1.146.955-1.673 2.21-1.178 2.804.495.594 1.825.302 2.97-.653Z" />
    <path stroke="#fff" stroke-linecap="round" stroke-miterlimit="10" stroke-width="1.1"
      d="M367.344 618.568c.144-.76-.926-1.602-2.39-1.881-1.465-.28-2.77.109-2.915.869-.145.759.925 1.602 2.39 1.881 1.465.28 2.77-.11 2.915-.869Z" />
    <path fill="#1C6C6C"
      d="m352.3 543.6-8.2 22.2 4.3 2.5-.5 2.4s4.5 1.7 7.2 1.9c2.7.3 7.9 0 7.9 0l1.2-3.7.9 4.1s2.6.8 7.2.9c4.6 0 7.5-.6 7.5-.6l1.4-3.8 1.8 3.7s4.3 0 6.8-.3c2.5-.4 5.1-1.4 5.3-1.4.5 0-.5-2.2-.5-2.2l4.9-2.2-7-23-40.2-.2v-.3Z" />
    <path stroke="#003F23" stroke-linecap="round" stroke-linejoin="round" stroke-width=".7"
      d="m352.4 555.8-4 12.6m17-12-1.3 12.7m15.4-12.2 1.6 12.5m10.1-13.3 3.3 13" />
    <path fill="#77A7A7"
      d="M350.8 544s7.4 3 18.9 4c11.4 1 23.5-2.3 23.5-2.3l-1.6-22.8 1.5-18.2s4.3-2.9 6-5.3c1.7-2.4 3.8-6.7 3.8-6.7l-13.3-6.3s-2.3-1.8-13.7-2.6c-8-.6-13.3-.3-16.1.3-1.9.4-12.4 3.2-12.4 3.2s1.6 6.5 2.6 9.2c1.8 5.1 5.1 8.3 5.1 8.3l.5 16.9-4.8 22.3Z" />
    <path fill="#DDBB92"
      d="M386.3 488.5c.4 2.4-5.7 3.6-11.6 3.2-5.9-.5-11.7-2.4-11.2-4.8.4-2.2 2.8-4.5 11.8-3.8 9.4.7 10.8 3.8 11.1 5.5l-.1-.1Z" />
    <path fill="#DDBB92"
      d="M370.6 475.1c-.4 3.2-.5 7.1-1.8 10.4l12.9 1c-.7-3.4-.3-7.3-.3-10.6l-10.8-.8Z" />
    <path fill="#D0A067"
      d="M375.7 484.9c3.093 0 5.6-2.686 5.6-6s-2.507-6-5.6-6c-3.093 0-5.6 2.686-5.6 6s2.507 6 5.6 6Z" />
    <path stroke="#DDBB92" stroke-linecap="round" stroke-linejoin="round" stroke-width=".7"
      d="M328.7 491s-2 .9-2.2 2.1" />
    <path fill="#DDBB92"
      d="M411.2 535.5c2.2-.8 3.1-1.5 6.4 3 .5.6 4.7 5.7 4.7 11.7 0 4.4-2.5 4.7-2.6 4.6-.3 1.1-.7 2.2-1.1 2.5-.6.4-2.1 0-1.8-2 .2-1.8.5-4.2.4-4.4-.4-1.1-1.4-2.8-1.6-3.4-.9-1.2-2.5.2-2.5.2-.9.8-2.8 1.7-2.5 2.7.3 1.1 1 4.4.4 4.7-1.9 1-1.8-1.6-2.9-3.3-.5-.8-.8-4.9-.8-5.6 0-1.8.3-6.6.6-7.8.7-3.3 1.6-2.2 3.3-2.9Z" />
    <path stroke="#D0A067" stroke-linecap="round" stroke-linejoin="round" stroke-width=".7"
      d="M407.2 546.2c0 .8.3 4.8.8 5.6 1.1 1.7 1 4.2 2.9 3.3.5-.3-.1-3.5-.4-4.7-.2-1 1.6-1.8 2.5-2.7 0 0 1.6-1.4 2.5-.2.2.5 1.1 2.3 1.6 3.4 0 .2-.2 2.6-.4 4.4-.3 2.1 1.2 2.4 1.8 2 .4-.3.8-1.4 1.1-2.5 0 0 2.5-.2 2.6-4.6 0-6-3-9.7-3.6-10.3" />
    <path stroke="#D0A067" stroke-linecap="round" stroke-linejoin="round" stroke-width=".7"
      d="M419 545.7s1.9 2.7.7 9.1" />
    <path stroke="#DDBB92" stroke-linecap="round" stroke-linejoin="round" stroke-width=".7"
      d="M401.5 518.2s1.9-1.5 3.4-1.5" />
    <path fill="#003F23"
      d="M356.2 448c-2.9-.4-8.1 1.6-7.9 9.8 0 2.2.8 4.1 1.5 6.1.8 2.3.8 7.4-.4 9.6 2.3-1.8 3.3-3.1 4-4.2 2.8-4.1 0-7.6.6-11.6.5-3 3.1-4.4 4.9-6.2 2.4-2.3-1-3.3-2.7-3.5Z" />
    <path stroke="#4C7965" stroke-linecap="round" stroke-linejoin="round" stroke-width=".7"
      d="M356 450.8s1-.8 2.9.3" />
    <path fill="#003F23"
      d="M393.8 446.1c2.8-.7 8.2.8 8.8 9 .2 2.2-.4 4.1-.9 6.2-.6 2.4 0 7.5 1.3 9.6-2.4-1.6-3.6-2.8-4.4-3.8-3.2-3.8-.7-7.6-1.7-11.5-.8-2.9-3.5-4-5.5-5.6-2.6-2.1.7-3.5 2.3-3.9h.1Z" />
    <path stroke="#4C7965" stroke-linecap="round" stroke-linejoin="round" stroke-width=".7"
      d="M394.2 448.9s-1-.7-2.8.6" />
    <path fill="#DDBB92"
      d="M397.324 466.872c1.023-2.446.2-5.119-1.838-5.972-2.038-.852-4.52.439-5.543 2.885-1.023 2.445-.2 5.119 1.838 5.972 2.038.852 4.52-.439 5.543-2.885ZM360.557 471.267c1.945-1.048 2.503-3.789 1.246-6.123-1.257-2.334-3.853-3.377-5.798-2.33-1.945 1.047-2.503 3.789-1.246 6.123 1.257 2.334 3.852 3.377 5.798 2.33Z" />
    <path fill="#DDBB92"
      d="M359.1 462.8c1.3 14.2 11 18.6 17.5 18.3 6.1-.3 16.2-4.4 16-20.2-.1-10.5-8.3-18.6-17.9-18.1-9.6.5-16.6 9.6-15.6 20Z" />
    <path fill="#003F23"
      d="M388.3 443.4c-9.2-8.6-23.2-1.7-23.2-1.7-11.7 7.5-6 21.2-6 21.2 3.4-12.4 11.9-17.1 11.9-17.1s4.4 6.1 11.1 10.1c6.9 4.1 10.8 5.4 10.8 5.4 1.2-6-.5-14-4.5-17.8l-.1-.1Z" />
    <path stroke="#003F23" stroke-linecap="round" stroke-linejoin="round" stroke-width=".7"
      d="M370.9 445.8s-1.5 4.8 2.4 10.9" />
    <path stroke="#4C7965" stroke-linecap="round" stroke-linejoin="round" stroke-width=".7"
      d="M383.6 450.7s4.9 1 6.4 6.5m-4.2-11.3s3.7 1.1 4.8 4.7" />
    <path fill="#DDBB92"
      d="m297.7 466.7.6-4.6 3.6-4.9 5.6-1.9 2.7-.9s1.7.9.5 2.7c0 0 3.4-.4 1.8 3.1 0 0 2.7.7-.3 3.4 0 0 2.6 2.2.1 4l-3.4 3.2-3.6 2.1s-2.6 1.1-4.9-1.5c-2.3-2.6-2.6-1.3-2.9-4.8l.2.1Z" />
    <path stroke="#D0A067" stroke-linecap="round" stroke-linejoin="round" stroke-width=".7"
      d="m307.9 471.9 4.5-4.3c2.5-1.8-.1-4-.1-4 3-2.7.3-3.4.3-3.4 1.5-3.5-1.8-3.1-1.8-3.1 1.1-1.8-.5-2.7-.5-2.7l-2.7.9-5.6 1.9-3.6 4.9-.6 4.6c.3 3.5 1.2 3 2.9 4.8 0 0 1.1 1.3 4 1.6" />
    <path stroke="#D0A067" stroke-linecap="round" stroke-linejoin="round" stroke-width=".7"
      d="m310.2 457.2-6 3.3-2.6 2.8m10.8-3.5-6.9 3.7-2.1 2.4m8.9-2.3L307 467l-1.2 1.5" />
    <path fill="#77A7A7" d="M48.7 261.8h6.1v374.4h-6.1V261.8Z" />
    <path fill="#1C6C6C" stroke="#A4C4C4" stroke-miterlimit="10" stroke-width="2"
      d="M94 259.2H7.7a6.5 6.5 0 0 0-6.5 6.5v49.8a6.5 6.5 0 0 0 6.5 6.5H94a6.5 6.5 0 0 0 6.5-6.5v-49.8a6.5 6.5 0 0 0-6.5-6.5Z" />
    <path fill="#fff" fill-rule="evenodd"
      d="M35.4 297.6c4.3 0 7.8 3.5 7.8 7.8h16.2c0-4.3 3.5-7.8 7.8-7.8s7.8 3.5 7.8 7.8h4.6c1.9 0 3.4-1.5 3.4-3.4v-27.8c0-1.8-1.5-3.3-3.3-3.3H24.9c-1.9 0-3.1 1.6-3.4 3.4l-2.8 16.1v11.5c0 1.9 1.5 3.4 3.4 3.4h5.6c0-4.3 3.5-7.8 7.8-7.8l-.1.1Zm22.8-11.9H45.4c-.8 0-1.5-.6-1.5-1.4V276c0-.8.7-1.5 1.5-1.5h12.8c.8 0 1.4.7 1.4 1.5v8.3c0 .8-.6 1.4-1.4 1.4Zm-17.9.7c0 1-.8 1.6-1.8 1.8l-14.3 3.2c-.9.2-1.9-.8-1.8-1.8l2.2-13.3c.2-1 .8-1.8 1.8-1.8h12.1c1 0 1.8.8 1.8 1.8v10.1Zm22.9-2.2v-8.3c0-.8.6-1.5 1.4-1.5h12.8c.8 0 1.5.7 1.5 1.5v8.3c0 .8-.7 1.4-1.5 1.4H64.6c-.8 0-1.4-.6-1.4-1.4Z"
      clip-rule="evenodd" />
    <path fill="#fff" fill-rule="evenodd"
      d="M41.4 305.4c0-3.3-2.7-6-6-6s-6 2.7-6 6 2.7 6 6 6 6-2.7 6-6Zm25.8-6c-3.3 0-6 2.7-6 6s2.7 6 6 6 6-2.7 6-6-2.7-6-6-6Z"
      clip-rule="evenodd" />
    <path stroke="#D0A067" stroke-linecap="round" stroke-linejoin="round" stroke-width=".7"
      d="M315.4 468.2c-.2 6.5-6.2 12.6-3.7 6.4-.5 1.5-.8 3.9-1.5 3.7-1.1-.3-2.2.3-1.4-7.2" />
  </g>
  <defs>
    <clipPath id="a">
      <path fill="#fff" d="M0 0h794.1v648.5H0z" />
    </clipPath>
  </defs>
</svg>