<svg width="20" height="20" viewBox="0 0 20 20" fill="none" xmlns="http://www.w3.org/2000/svg">
<g clip-path="url(#clip0_1061_42)">
<path d="M16.6134 2.60529C14.8716 1.04837 12.5727 0.101562 10.0524 0.101562H9.94215C4.50297 0.101562 0.09375 4.51078 0.09375 9.94997V10.0603C0.09375 10.7886 0.172828 11.4984 0.322828 12.1817L16.6134 2.60529Z" fill="#00975F"/>
<path d="M0.6875 13.4297C2.0641 17.2086 5.68874 19.9068 9.94371 19.9068H10.054C14.309 19.9068 17.9336 17.2084 19.3102 13.4297H0.6875Z" fill="#00975F"/>
<path d="M15.6856 7.37337V7.31787C15.6856 5.77709 16.3896 4.40085 17.4937 3.49323C17.22 3.1778 16.9263 2.87993 16.615 2.60156L0.324219 12.178C0.418013 12.6056 0.539822 13.0228 0.687162 13.4276H19.3099C19.4517 13.0381 19.5696 12.6372 19.662 12.2264C17.3944 11.7748 15.6852 9.77355 15.6852 7.37319L15.6856 7.37337Z" fill="white"/>
<path d="M15.6875 7.31648V7.37197C15.6875 9.77233 17.3965 11.7734 19.6643 12.2252C19.8212 11.5269 19.9042 10.8009 19.9042 10.0553V9.94502C19.9042 7.47658 18.996 5.22038 17.4957 3.49219C16.3916 4.39981 15.6875 5.77605 15.6875 7.31683V7.31648Z" fill="#00975F"/>
</g>
<defs>
<clipPath id="clip0_1061_42">
<rect width="20" height="20" fill="white"/>
</clipPath>
</defs>
</svg>
