<?xml version="1.0" encoding="utf-8"?>
<!-- Generator: Adobe Illustrator 26.3.1, SVG Export Plug-In . SVG Version: 6.00 Build 0)  -->
<svg version="1.1" id="Layer_1" xmlns="http://www.w3.org/2000/svg" xmlns:xlink="http://www.w3.org/1999/xlink" x="0px" y="0px"
	 viewBox="0 0 1024 1024" style="enable-background:new 0 0 1024 1024;" xml:space="preserve">
<style type="text/css">
	.st0{fill:#005683;stroke:#1D1D1B;stroke-miterlimit:10;}
	.st1{fill-rule:evenodd;clip-rule:evenodd;fill:#FFFFFF;}
</style>
<rect class="st0" width="1024" height="1024"/>
<path class="st1" d="M818.8,116.9H205.2c-7.4,293-18.3,544.1,306.8,790.1C837.1,661.1,826.2,410,818.8,116.9z M257.8,487.6
	L257.8,487.6c56.7-16.1,98.3-68.3,98.3-130.2V238h-79.5v-19.9h79.5v-56.9H376v56.9h79.5V238H376v119.4c0,61.9,41.6,114.1,98.3,130.2
	v0c0,59.8-48.5,108.3-108.2,108.3C306.2,595.9,257.8,547.5,257.8,487.6z M619.5,617.4c0,59.8-48.4,108.2-108.2,108.2
	c-59.8,0-108.2-48.4-108.2-108.2v-0.1c56.8-16.1,98.3-68.3,98.3-130.2V367.7h-79.5v-19.9h79.5V291h19.9v56.9h79.5v19.9h-79.5v119.4
	C521.2,549.1,562.7,601.2,619.5,617.4L619.5,617.4z M764.7,487.6c0,59.8-48.5,108.3-108.2,108.3c-59.8,0-108.2-48.4-108.2-108.3v0
	c56.7-16.1,98.3-68.3,98.3-130.2V238H567v-19.9h79.5v-56.9h19.9v56.9H746V238h-79.5v119.4C666.4,419.3,708,471.5,764.7,487.6
	L764.7,487.6z"/>
</svg>
