<svg width="16" height="20" viewBox="0 0 827 1057" fill="none" xmlns="http://www.w3.org/2000/svg">
<path fill-rule="evenodd" clip-rule="evenodd" d="M413.253 1056.21C847.863 727.394 833.337 391.767 823.384 -3.93314e-05H3.27263C-6.6797 391.767 -21.231 727.394 413.253 1056.21Z" fill="#0488C1"/>
<path fill-rule="evenodd" clip-rule="evenodd" d="M425.609 494.943V335.352H531.892V308.677H425.609V232.68H398.985V308.677H292.702V335.352H398.985V494.943C398.985 577.742 343.508 647.428 267.581 668.985V669.067C267.581 749.037 332.356 813.682 412.273 813.682C492.215 813.682 556.942 749.037 556.942 669.067L557.013 668.985C481.086 647.428 425.609 577.742 425.609 494.943" fill="#E5F076"/>
<path fill-rule="evenodd" clip-rule="evenodd" d="M231.445 321.579V161.93H337.752V135.255H231.445V59.2622H204.835V135.255H98.4838V161.93H204.835V321.579C204.835 404.325 149.297 474.006 73.5005 495.501V495.581C73.5005 575.614 138.221 640.326 218.185 640.326C297.993 640.326 362.869 575.614 362.869 495.581V495.501C287.006 474.006 231.445 404.325 231.445 321.579" fill="#E5F076"/>
<path fill-rule="evenodd" clip-rule="evenodd" d="M593.117 321.581V161.93H486.819V135.255H593.117V59.2646H619.711V135.255H726.084V161.93H619.711V321.581C619.711 404.326 675.364 474.006 751.222 495.502L751.148 495.581C751.148 575.615 686.293 640.327 606.464 640.327C526.486 640.327 461.706 575.615 461.706 495.581V495.502C537.563 474.006 593.117 404.326 593.117 321.581" fill="#E5F076"/>
</svg>
