<svg width="40" height="40" viewBox="0 0 40 40" fill="none" xmlns="http://www.w3.org/2000/svg">
<path d="M14 4H26L36 14V26L26 36H14L4 26V14L14 4Z" fill="#F0E973"/>
<path fill-rule="evenodd" clip-rule="evenodd" d="M12.5858 2.58579C12.9609 2.21071 13.4696 2 14 2H26C26.5304 2 27.0391 2.21071 27.4142 2.58579L37.4142 12.5858C37.7893 12.9609 38 13.4696 38 14V26C38 26.5304 37.7893 27.0391 37.4142 27.4142L27.4142 37.4142C27.0391 37.7893 26.5304 38 26 38H14C13.4696 38 12.9609 37.7893 12.5858 37.4142L2.58579 27.4142C2.21071 27.0391 2 26.5304 2 26V14C2 13.4696 2.21071 12.9609 2.58579 12.5858L12.5858 2.58579ZM14.8284 6L6 14.8284V25.1716L14.8284 34H25.1716L34 25.1716V14.8284L25.1716 6H14.8284Z" fill="#E4D700"/>
<path d="M18 12V22H22V12H18Z" fill="black"/>
<path d="M22 24H18V28H22V24Z" fill="black"/>
</svg>
