<svg width="40" height="40" viewBox="0 0 40 40" fill="none" xmlns="http://www.w3.org/2000/svg">
<path fill-rule="evenodd" clip-rule="evenodd" d="M5.33378 7.58333C5.33378 5.05203 7.38581 3 9.91711 3H29.9171C32.4485 3 34.5004 5.05204 34.5004 7.58333V23.1959L37.5354 31.5204C38.1156 32.9227 37.8086 34.3712 36.9782 35.4319C36.1492 36.4908 34.8082 37.1667 33.2856 37.1667H6.5486C5.02604 37.1667 3.68502 36.4908 2.85599 35.4319C2.02552 34.3712 1.71858 32.9227 2.29881 31.5204L5.33378 23.1959V7.58333ZM7.45854 24.6667L4.62667 32.434L4.6142 32.4634C4.40471 32.9579 4.49178 33.4658 4.82444 33.8907C5.16487 34.3256 5.77046 34.6667 6.5486 34.6667H33.2856C34.0637 34.6667 34.6693 34.3256 35.0097 33.8907C35.3424 33.4658 35.4295 32.9579 35.22 32.4634L35.2075 32.434L32.3757 24.6667H7.45854ZM32.0004 22.1667V7.58333C32.0004 6.43273 31.0677 5.5 29.9171 5.5H9.91711C8.76652 5.5 7.83378 6.43274 7.83378 7.58333V22.1667H32.0004Z" fill="black"/>
<path fill-rule="evenodd" clip-rule="evenodd" d="M18.2439 8.41667C18.2439 7.49619 18.9901 6.75 19.9106 6.75H19.9256C20.8461 6.75 21.5923 7.49619 21.5923 8.41667C21.5923 9.33714 20.8461 10.0833 19.9256 10.0833H19.9106C18.9901 10.0833 18.2439 9.33714 18.2439 8.41667Z" fill="black"/>
</svg>
