<svg width="40" height="40" viewBox="0 0 40 40" fill="none" xmlns="http://www.w3.org/2000/svg">
<path d="M28.33 37.915H11.67C9.14004 37.915 7.07996 35.855 7.07996 33.335V6.66496C7.07996 4.13496 9.14004 2.08496 11.67 2.08496H28.33C30.86 2.08496 32.92 4.14496 32.92 6.66496V33.335C32.92 35.865 30.86 37.915 28.33 37.915ZM11.67 4.57496C10.52 4.57496 9.57996 5.50496 9.57996 6.65496V33.325C9.57996 34.475 10.52 35.405 11.67 35.405H28.33C29.48 35.405 30.42 34.475 30.42 33.325V6.65496C30.42 5.50496 29.48 4.57496 28.33 4.57496H11.67Z" fill="black"/>
<path d="M21.67 32.915H18.33C17.64 32.915 17.08 32.355 17.08 31.665C17.08 30.975 17.64 30.415 18.33 30.415H21.67C22.36 30.415 22.92 30.975 22.92 31.665C22.92 32.355 22.36 32.915 21.67 32.915Z" fill="black"/>
<path d="M22.1299 9.57481H17.8699C16.5999 9.57481 15.4899 8.7648 15.0999 7.5648L13.8099 3.71481L16.1799 2.9248L17.4698 6.78481C17.5298 6.96481 17.6799 7.07481 17.8599 7.07481H22.1199C22.2999 7.07481 22.4599 6.96481 22.5099 6.80481L23.7999 2.9348L26.1699 3.7248L24.8799 7.5848C24.4999 8.7748 23.3799 9.57481 22.1099 9.57481H22.1299Z" fill="black"/>
</svg>
