<svg width="40" height="40" viewBox="0 0 40 40" fill="none" xmlns="http://www.w3.org/2000/svg">
  <path d="M18 28C16.8954 28 16 28.8954 16 30C16 31.1046 16.8954 32 18 32H22C23.1046 32 24 31.1046 24 30C24 28.8954 23.1046 28 22 28H18Z" fill="black"/>
  <path fill-rule="evenodd" clip-rule="evenodd" d="M14 2C10.6863 2 8 4.68629 8 8V32C8 35.3137 10.6863 38 14 38H26C29.3137 38 32 35.3137 32 32V8C32 4.68629 29.3137 2 26 2H14ZM12 8C12 6.89543 12.8954 6 14 6H26C27.1046 6 28 6.89543 28 8V32C28 33.1046 27.1046 34 26 34H14C12.8954 34 12 33.1046 12 32V8Z" fill="black"/>
</svg>