<svg width="20" height="20" viewBox="0 0 20 20" fill="#000000" xmlns="http://www.w3.org/2000/svg">
  <path fill-rule="evenodd" clip-rule="evenodd" d="M17.9999 2.96761C17.9999 2.43289 17.5664 2 17.0323 2L6.33204 2.00464C3.93952 2.00481 2 3.94436 2 6.337L2.00446 17.033C2.00458 17.5683 2.43881 18 2.972 18H17.0323C17.5654 18 17.9999 17.5684 17.9999 17.0327V2.96761ZM15.085 4.73948C16.1294 4.24797 16.8592 3.62522 17.176 2.72727L6.33237 2.72944C4.34135 2.72944 2.72728 4.34351 2.72728 6.33452L2.728 8.04053C2.96027 7.85655 3.19344 7.6899 3.42673 7.5415L3.46075 7.51904C3.80457 7.28491 4.1732 7.08973 4.58753 6.92236C5.82779 6.42116 7.25861 6.26884 8.77328 6.10774L8.77795 6.10724L8.77797 6.10724L8.77799 6.10723C9.08844 6.07422 9.40912 6.04011 9.73384 6.00214C11.1766 5.83363 13.2622 5.48492 15.0063 4.78035L15.085 4.73948ZM8.94181 7.57343C9.25329 7.54032 9.5751 7.50611 9.90458 7.46756C11.437 7.28857 13.6614 6.91452 15.5573 6.14854C16.198 5.88967 16.6898 5.61237 17.2727 5.18889V17.0318C17.2727 17.1646 17.1651 17.2727 17.0323 17.2727H2.97207C2.83932 17.2727 2.73174 17.1646 2.73174 17.0318L2.72885 10.0323C3.0926 9.65568 3.62059 9.16519 4.22089 8.78404L4.27537 8.74828L4.28488 8.74184C4.54196 8.5664 4.82118 8.41878 5.13858 8.29061C6.18806 7.86641 7.51941 7.72475 8.92915 7.57478L8.94181 7.57343ZM14.1909 14.5024C14.0794 14.6223 13.9513 14.682 13.8066 14.682H13.3719V13.2279H13.8066C13.9513 13.2279 14.0794 13.2893 14.1909 13.4117C14.3023 13.5343 14.3581 13.7126 14.3581 13.9466C14.3581 14.1973 14.3023 14.3826 14.1909 14.5024ZM14.1157 11.9952C14.0321 12.1151 13.9096 12.1748 13.748 12.1748H13.3719V10.9548H13.748C13.9096 10.9548 14.0321 11.0161 14.1157 11.1387C14.1994 11.2612 14.2411 11.406 14.2411 11.5732C14.2411 11.7349 14.1994 11.8754 14.1157 11.9952ZM6.00951 13.5872L6.43575 11.0551H6.45243L6.87861 13.5872H6.00951ZM9.58214 15.6514C9.68509 15.7295 9.8772 15.8024 10.2372 15.8024L11.7881 15.8019H14.1659C14.4889 15.8019 14.7647 15.7587 14.9932 15.6724C15.2216 15.5861 15.4069 15.4648 15.549 15.3088C15.691 15.1529 15.7956 14.9662 15.8623 14.7489C15.9292 14.5316 15.9626 14.2949 15.9626 14.0385C15.9626 13.8826 15.9418 13.728 15.9 13.5746C15.8582 13.4215 15.7927 13.2809 15.7036 13.1526C15.6144 13.0246 15.5001 12.9174 15.361 12.8308C15.2216 12.7446 15.0545 12.693 14.8595 12.6763V12.6596C15.0266 12.6262 15.1688 12.5677 15.2858 12.4841C15.4027 12.4005 15.4989 12.299 15.574 12.179C15.6493 12.0594 15.7048 11.9256 15.7413 11.7779C15.7773 11.6303 15.7956 11.4785 15.7956 11.3224C15.7956 10.8712 15.6632 10.5105 15.3985 10.2402C15.1339 9.97004 14.7229 9.83494 14.1659 9.83494H11.8238L11.8261 14.799H11.1491C11.0265 14.799 10.936 14.7726 10.8775 14.7197C10.819 14.6667 10.7898 14.5763 10.7898 14.448V12.2919H11.3831V11.2807H10.7898V9.95191H9.28546V11.2807H7.77602L7.42184 9.83494H5.46628L4.03734 15.8019H5.66676L5.82558 14.7572H7.06248L7.22124 15.8019H8.87589L8.0187 12.2919H9.28546V14.6988C9.28546 14.9495 9.30912 15.1514 9.35638 15.3046C9.40382 15.458 9.47901 15.5735 9.58214 15.6514Z" />
</svg>