<svg fill="#ed5d15" stroke-width="0" width="16" height="16" xmlns="http://www.w3.org/2000/svg"
  viewBox="0 0 16 16">
  <path
    d="M3.12,5.28c.06.85.22,1.52.48,2.01.26.49.83.71,1.43.71.25,0,.4-.04.72-.18.32-.14.84-.48,1.56-1.01.8-.61,1.49-1.03,2.05-1.25.56-.22,1.11-.33,1.61-.33,1.52,0,2.64.44,3.41,1.33.77.89,1.23,2.32,1.36,4.16h-2.86c-.09-.99-.25-1.6-.57-2.15-.24-.41-.8-.57-1.34-.57-.28,0-.49.07-.88.26-.4.19-.86.5-1.41.95-.48.4-1.04.76-1.68,1.09-.64.33-1.3.48-1.97.48-1.53,0-2.68-.44-3.43-1.36-.76-.91-1.2-2.29-1.33-4.13h2.86Z" />
</svg>