<svg width="200" height="160" viewBox="0 0 200 160" fill="none" xmlns="http://www.w3.org/2000/svg">
<path d="M32.933 115.558C41.9465 116.145 48.6214 119.454 49.0517 121.948C49.8604 126.629 49.4799 132.577 49.2949 137.314C48.9956 144.982 49.4238 154.468 41.2522 158.23C34.596 161.294 19.7267 160.139 15.0827 153.817C11.684 149.19 12.5446 133.727 12.8252 127.822C12.9084 126.063 13.9789 120.035 15.2823 118.82C16.4776 117.705 22.0923 114.851 32.933 115.556V115.558Z" fill="#00404D"/>
<path d="M176.116 115.787C187.108 115.787 193.001 121.295 193.105 121.758C193.446 123.274 193.515 134.702 193.38 137.995C193.016 146.879 193.184 156.751 182.599 159.344C175.787 161.012 161.502 159.772 158.38 152.348C156.012 146.719 156.725 136.902 156.912 130.766C156.995 128.022 156.725 125.129 157.149 122.409C157.619 119.397 165.897 115.787 176.114 115.787H176.116Z" fill="#00404D"/>
<path d="M197.433 125.193C193.261 126.125 189.077 126.999 184.844 127.665C158.598 131.806 132.079 132.212 105.598 131.762C88.7372 131.476 71.3879 132.47 54.6165 131.768C44.7403 131.356 33.276 129.66 23.3831 128.347C17.4608 127.561 11.4823 126.613 5.66382 125.455L5.78231 107.454C6.71775 95.3085 6.60342 82.389 12.8605 71.5566C16.623 65.0418 21.876 62.162 28.7838 59.6371C32.4548 42.2443 34.7976 19.7787 51.3487 9.57499C69.1013 -1.36941 104.207 -0.134925 124.361 2.69091C130.373 3.53326 137.442 4.52708 143.011 6.91306C161.924 15.0192 165.897 40.2733 171.06 57.8341C173.42 58.6681 175.866 59.4254 178.126 60.5043C197.184 69.6063 196.188 95.4455 197.238 113.334L197.431 125.191L197.433 125.193Z" fill="#86B200"/>
<path d="M6.87157 33.47C15.3259 32.333 27.4783 45.6945 22.2003 53.9687C17.7663 60.9191 4.86765 54.0392 1.67883 48.4851C-1.48088 42.9828 -0.412397 34.4492 6.87365 33.47H6.87157Z" fill="#86B200"/>
<path d="M188.345 32.1172C192.669 31.6296 199.41 33.3371 199.951 38.4971C201.204 50.4747 178.153 59.0829 174.916 47.6572C172.813 40.2295 181.508 32.8911 188.345 32.1172Z" fill="#86B200"/>
<path d="M98.8608 9.05841C108.265 8.92977 119.607 9.83852 128.859 11.544C145.56 14.625 151.312 22.6896 156.058 38.213C157.174 41.8626 158.694 46.9603 158.939 50.7135C159.082 52.9169 158.646 54.1929 156.112 54.2136C151.478 54.2551 144.223 52.4044 139.316 51.7592C115.162 48.5827 89.2923 48.1159 65.0665 50.8504C59.3 51.5019 52.7706 53.0456 47.1393 53.307C45.9668 53.3609 43.1979 53.4667 42.7718 52.0185C42.4309 50.867 43.4266 45.9602 43.6677 44.4145C46.553 25.9263 50.6752 15.8429 70.3153 11.7681C79.6032 9.84059 89.3962 9.18496 98.8608 9.05425V9.05841Z" fill="#99D9E5"/>
<path d="M168.865 69.2036C180.828 68.1102 187.561 80.3721 177.976 88.7002C171.875 94.0013 154.659 99.0969 149.84 90.0945C144.423 79.9737 160.323 69.9837 168.865 69.2036Z" fill="#C1DB70"/>
<path d="M32.0268 70.3344C41.2253 69.4194 59.4372 80.2642 53.9452 91.08C49.1017 100.616 30.0977 94.8374 24.3769 88.4658C17.5357 80.8452 22.346 71.2971 32.0268 70.3365V70.3344Z" fill="#C1DB70"/>
<path d="M97.9545 99.7299C111.77 99.5038 125.558 99.8834 139.338 100.576C142.078 100.713 147.184 100.332 149.591 101.651C151.46 102.676 151.083 107.156 151.025 109.056C150.907 112.882 150.585 119.556 149.734 123.144C148.697 127.521 146.011 126.48 142.284 126.563C119.264 127.067 96.0836 126.837 72.9575 127.013C68.3094 127.048 63.3411 127.694 58.6868 127.258C56.5748 127.061 56.0967 125.903 55.8909 123.942C55.6352 121.49 55.7391 118.747 55.6456 116.272C55.5021 112.51 54.8785 106.867 55.735 103.265C56.3835 100.535 59.3333 101.145 61.41 101.016C73.4439 100.269 85.8686 99.9249 97.9545 99.7278V99.7299Z" fill="#D7FAFF"/>
<path d="M79.4246 111.874C79.6762 110.965 80.3975 110.515 80.5368 109.481C80.8985 106.79 78.5723 105.041 76.0695 104.915C75.6018 104.892 73.8515 105.209 73.6374 105.533C73.232 106.143 73.9242 111.104 73.9845 112.216C74.0947 114.27 73.9783 116.78 74.209 118.774C74.4626 120.967 77.9342 120.473 79.4745 119.953C84.2598 118.336 84.952 112.405 79.4246 111.874ZM75.3461 111.533C75.107 110.222 75.3939 108.106 75.1174 106.672C78.5744 106.373 80.6261 108.842 77.3646 111.291C76.8262 111.693 75.5602 112.71 75.3461 111.533ZM79.3519 118.247C78.5349 118.579 76.0009 119.2 75.7972 118.094C75.7265 117.699 75.4895 114.114 75.6018 113.94C77.1255 113.349 80.9608 112.834 81.5886 114.803C82.1104 116.44 80.7301 117.691 79.3519 118.247Z" fill="#0C1B21"/>
<path d="M73.4896 119.062C73.2693 116.934 70.9889 109.881 70.0805 107.744C69.6252 106.672 69.2365 105.367 67.8001 105.811C66.9561 106.072 65.9105 109.892 65.5987 110.852C65.237 111.971 63.0273 119.353 63.1478 119.857C63.2164 120.139 63.6051 120.473 63.9045 120.473C65.0811 120.477 65.2557 116.867 65.8169 116.044C66.0373 115.888 69.7167 115.869 70.2613 115.932C71.6666 116.093 71.415 118.776 72.0719 119.774C72.6956 120.72 73.5998 120.12 73.4896 119.062ZM66.2826 114.361C66.532 113.57 67.8957 108.132 68.2117 108.029C68.6565 107.881 68.7813 108.863 68.8893 109.159C69.486 110.794 70.0389 112.67 70.3611 114.361H66.2826Z" fill="#0C1B21"/>
<path d="M134.93 110.971C144.072 107.433 143.361 123.629 135.16 120.803C134.433 120.552 133.106 119.996 133.377 119.048C133.749 117.732 135.638 119.457 136.657 119.554C140.715 119.938 141.519 111.373 136.684 112.155C135.836 112.292 134.138 113.784 133.551 112.855C133.212 112.317 133.21 106.686 133.551 106.147C133.709 105.898 134.096 105.827 134.374 105.792C135.541 105.637 139.542 105.19 140.488 105.307C141.631 105.448 141.473 106.688 140.898 106.869C139.515 107.301 137.05 107.076 135.497 107.357C135.306 107.392 134.927 107.529 134.927 107.693V110.971H134.93Z" fill="#0C1B22"/>
<path d="M110.801 107.127C110.652 107.133 110.419 107.456 109.947 107.326C109.433 107.183 109.122 106.436 109.429 105.983C109.839 105.384 115.759 105.348 116.26 105.747C118.033 107.149 113.778 109.145 114.314 109.612C121.386 110.017 117.692 121.44 111.814 119.909C111.18 119.743 110.005 118.957 110.558 118.191C111.038 117.527 112.327 118.48 113.061 118.449C115.605 118.345 117.909 113.357 115.755 111.679C114.512 110.712 111.221 111.664 110.941 110.826C110.435 109.326 113.502 108.286 114.088 107.124C112.999 107.16 111.895 107.077 110.803 107.124L110.801 107.127Z" fill="#0C1B21"/>
<path d="M122.922 111.873C124.224 112.28 125.396 111.778 126.743 111.842C127.373 111.452 126.627 107.381 127.203 106.578C127.462 106.217 128.587 106.504 128.587 106.786L128.423 110.998C128.423 111.112 128.423 111.4 128.36 111.873C129.046 111.813 130.285 111.925 130.188 112.886C130.086 113.882 128.531 113.508 128.348 113.828C127.837 114.716 128.094 119.037 127.893 120.338C127.691 121.631 126.44 121.513 126.313 120.992C126.018 119.776 126.889 113.973 126.677 113.674C126.334 113.195 125.305 113.458 124.758 113.456C123.966 113.454 121.338 113.579 121.338 112.438V105.879C121.338 105.282 122.924 105.591 122.924 106.105V111.871L122.922 111.873Z" fill="#0D1C22"/>
<path d="M101.626 118.656C102.966 118.911 104.548 118.185 105.818 118.432C106.627 118.587 106.883 119.716 105.997 119.969C104.588 119.897 103.095 120.403 101.738 120.463C100.035 120.538 99.1705 120.43 99.6944 118.424C100.056 117.042 102.11 114.251 102.8 112.708C103.326 111.529 105.101 107.108 102.428 107.577C101.256 107.782 101.116 109.755 100.187 109.571C99.9542 109.525 99.6923 109.224 99.6237 108.998C99.0832 107.155 103.183 104.191 104.9 106.911C107.016 110.261 102.551 115.517 101.626 118.658V118.656Z" fill="#0C1B22"/>
<path d="M94.6015 118.886C94.7117 118.996 96.0338 118.709 96.4288 118.983C96.7572 119.212 96.7614 120.126 96.4246 120.363C95.9901 120.668 91.1071 121.133 90.9679 120.546C90.5521 118.794 92.9656 119.363 93.0321 118.979L93.2441 108.031C92.475 108.334 91.7578 110.132 90.8515 109.406C90.2424 108.917 90.6436 108.394 90.9824 107.919C91.6892 106.931 94.5122 104.286 94.8427 106.777C95.0734 108.512 94.1754 118.458 94.6036 118.886H94.6015Z" fill="#0D1D23"/>
</svg>
