<svg width="200" height="201" viewBox="0 0 200 201" fill="none" xmlns="http://www.w3.org/2000/svg">
<g clip-path="url(#clip0_8963_1041)">
<path d="M35.7858 47.6819C36.8922 52.7657 37.5278 58.7733 38.3013 64.0108C42.9222 95.2803 46.5351 126.77 51.5249 157.951C52.3771 163.282 53.4048 168.607 54.1156 173.955C54.0815 174.134 53.9795 174.179 53.8488 174.236C52.3288 174.908 49.6916 174.738 48.0516 175.433L47.6864 175.11C45.1619 159.176 42.5784 143.247 40.5392 127.209C38.1831 108.68 30.6224 55.8946 29.9062 48.1465C29.8095 47.1083 35.6068 46.8635 35.784 47.6801L35.7858 47.6819Z" fill="#00404D"/>
<path d="M0.868297 19.1802C1.74379 17.5041 8.58656 16.3926 19.9035 14.779C26.2396 13.8748 35.9702 12.5525 39.0246 12.0325C41.0728 11.684 48.3971 10.569 50.7013 10.3277C51.285 10.267 52.9232 9.91854 53.6948 11.9789C54.2928 13.5746 55.0412 18.9461 56.3929 25.4881C57.6408 31.5243 58.7311 39.3153 59.5117 43.9899C60.2279 48.275 61.8338 57.7171 60.6898 58.6392C59.3667 59.7042 53.8774 60.2117 52.1515 60.5494C42.0109 62.5347 26.5368 65.4116 19.4183 66.4105C17.1642 66.7268 17.1714 66.7751 10.4414 67.9187C10.1388 67.9705 8.68145 67.9527 8.21417 67.5345C7.7988 67.1628 7.58217 66.5678 7.38523 65.4921C6.29669 59.5487 5.98874 57.7046 5.64857 54.9134C5.07387 50.2192 3.60219 40.9754 2.92722 36.5867C2.33282 32.718 2.33461 31.9121 1.34274 25.4863C1.09209 23.8655 0.408173 20.0612 0.868297 19.1784V19.1802Z" fill="#99D9E5"/>
<path d="M10.069 63.06C8.76565 56.0124 7.73977 48.8521 6.94306 43.2662C6.14635 37.6802 4.68541 29.1941 4.11428 23.7636C3.89407 21.6694 4.11965 20.4471 6.4901 19.9003C8.86054 19.3535 24.417 16.8643 31.9043 15.76C36.7365 15.047 42.4299 13.9873 48.8788 13.1046C51.2296 12.783 51.4623 15.408 51.8437 17.3146C53.668 26.4458 57.8038 50.7248 57.5209 53.9842C57.3401 56.0588 57.5352 56.0695 53.9062 56.8326C48.9271 57.8797 42.1775 59.4558 36.9657 60.3939C29.7165 61.6984 21.5507 62.867 14.3695 64.1107C12.9014 64.3645 10.4504 65.1275 10.069 63.0618V63.06Z" fill="#008099"/>
<path d="M42.7629 30.1485C42.7217 29.7304 42.3422 26.8123 39.884 24.6054C38.6844 23.5297 36.9496 22.6666 34.9032 22.429C32.0225 22.0948 29.9063 21.9769 25.083 22.7792C23.3518 23.0669 18.2617 24.1855 17.5438 25.0772C17.141 25.5811 21.377 53.3107 21.9409 56.0661C22.1647 57.1633 29.4068 55.6891 29.294 55.0476C28.3809 49.8297 27.8169 46.9278 27.2888 42.7124C27.2243 42.2067 27.5699 41.7385 28.0729 41.6492C29.43 41.4097 31.0933 41.0756 32.9714 40.6592C37.3148 39.6961 39.918 38.0932 41.3861 36.3581C43.3519 34.0333 42.8041 30.5541 42.7629 30.1485ZM34.726 34.6212C33.1272 35.2412 28.8535 35.9882 25.6416 36.3581C25.1708 33.5133 23.9426 28.5778 24.3526 27.888C24.7912 27.15 30.8212 26.2834 33.0806 26.6836C35.3239 27.0803 36.5521 27.5485 37.3488 29.7286C38.4034 32.618 36.1565 34.0654 34.726 34.6212Z" fill="#99D9E5"/>
<path d="M41.3253 161.089C49.0884 161.595 54.8372 164.445 55.2078 166.593C55.9043 170.624 55.5767 175.747 55.4173 179.827C55.1595 186.432 55.5283 194.601 48.4904 197.841C42.7576 200.48 29.9511 199.485 25.9515 194.04C23.0242 190.055 23.7654 176.737 24.0071 171.652C24.0787 170.137 25.0008 164.945 26.1233 163.898C27.1528 162.939 31.9886 160.48 41.3253 161.087V161.089Z" fill="#00404D"/>
<path d="M164.644 161.286C174.111 161.286 179.187 166.03 179.277 166.429C179.57 167.735 179.629 177.578 179.513 180.413C179.2 188.065 179.345 196.567 170.228 198.801C164.361 200.238 152.058 199.169 149.368 192.775C147.329 187.927 147.943 179.472 148.104 174.188C148.176 171.824 147.943 169.333 148.309 166.99C148.713 164.395 155.842 161.286 164.642 161.286H164.644Z" fill="#00404D"/>
<path d="M183.004 169.388C179.411 170.19 175.807 170.943 172.162 171.516C149.557 175.083 126.717 175.433 103.909 175.045C89.3877 174.799 74.4454 175.655 60.0007 175.051C51.4947 174.695 41.6208 173.235 33.1004 172.104C27.9997 171.427 22.8506 170.61 17.8394 169.613L17.9414 154.11C18.7471 143.649 18.6486 132.522 24.0376 123.192C27.2782 117.581 31.8024 115.101 37.7518 112.926C40.9136 97.9466 42.9313 78.5977 57.1862 69.8096C72.476 60.3835 102.712 61.4467 120.069 63.8805C125.247 64.606 131.336 65.462 136.132 67.5169C152.421 74.4985 155.843 96.249 160.29 111.374C162.322 112.092 164.429 112.744 166.375 113.673C182.789 121.513 181.932 143.767 182.836 159.174L183.002 169.386L183.004 169.388Z" fill="#86B200"/>
<path d="M18.8794 90.3897C26.1609 89.4105 36.6273 100.918 32.0816 108.045C28.2627 114.031 17.1535 108.105 14.4071 103.322C11.6857 98.5828 12.606 91.2331 18.8812 90.3897H18.8794Z" fill="#86B200"/>
<path d="M175.177 89.2248C178.901 88.8049 184.707 90.2755 185.172 94.7196C186.252 105.036 166.399 112.45 163.611 102.609C161.799 96.2117 169.288 89.8913 175.177 89.2248Z" fill="#86B200"/>
<path d="M98.1068 69.3648C106.206 69.2541 115.975 70.0367 123.944 71.5056C138.327 74.1592 143.281 81.105 147.369 94.4748C148.33 97.618 149.639 102.008 149.85 105.241C149.974 107.139 149.598 108.238 147.415 108.256C143.425 108.291 137.176 106.697 132.949 106.142C112.147 103.406 89.8657 103.004 69.0008 105.359C64.0343 105.92 58.4108 107.25 53.5607 107.475C52.5509 107.521 50.1662 107.612 49.7991 106.365C49.5055 105.373 50.3631 101.147 50.5708 99.8159C53.0558 83.8926 56.6061 75.2081 73.5215 71.6986C81.5208 70.0385 89.9553 69.4738 98.1068 69.3613V69.3648Z" fill="#99D9E5"/>
<path d="M158.399 121.166C168.703 120.224 174.502 130.785 166.246 137.958C160.992 142.523 146.164 146.912 142.014 139.158C137.348 130.442 151.043 121.838 158.399 121.166Z" fill="#C1DB70"/>
<path d="M40.5447 122.14C48.467 121.352 64.1524 130.692 59.4223 140.007C55.2507 148.22 38.8832 143.244 33.9561 137.756C28.064 131.192 32.2069 122.969 40.5447 122.142V122.14Z" fill="#C1DB70"/>
<path d="M97.3261 147.457C109.225 147.262 121.1 147.589 132.969 148.186C135.328 148.304 139.726 147.975 141.799 149.112C143.408 149.995 143.084 153.853 143.034 155.489C142.932 158.785 142.655 164.533 141.922 167.623C141.029 171.393 138.716 170.496 135.506 170.568C115.679 171.002 95.7148 170.803 75.797 170.955C71.7937 170.986 67.5147 171.541 63.5061 171.166C61.6871 170.996 61.2753 169.999 61.0981 168.311C60.8779 166.198 60.9674 163.836 60.8868 161.704C60.7633 158.465 60.2262 153.604 60.9638 150.502C61.5224 148.15 64.0629 148.676 65.8515 148.565C76.2159 147.922 86.9169 147.625 97.3261 147.455V147.457Z" fill="#D7FAFF"/>
<path d="M81.3669 157.916C81.5835 157.134 82.2048 156.746 82.3247 155.856C82.6362 153.538 80.6328 152.032 78.4772 151.923C78.0744 151.903 76.5669 152.177 76.3825 152.455C76.0334 152.981 76.6296 157.253 76.6815 158.211C76.7764 159.98 76.6761 162.142 76.8748 163.86C77.0933 165.748 80.0832 165.323 81.4098 164.875C85.5313 163.483 86.1275 158.374 81.3669 157.916ZM77.8542 157.623C77.6483 156.494 77.8954 154.671 77.6572 153.436C80.6346 153.179 82.4017 155.306 79.5926 157.414C79.1289 157.761 78.0386 158.636 77.8542 157.623ZM81.3042 163.406C80.6006 163.692 78.4181 164.226 78.2427 163.273C78.1818 162.934 77.9777 159.846 78.0744 159.696C79.3867 159.187 82.69 158.744 83.2306 160.439C83.68 161.849 82.4912 162.927 81.3042 163.406Z" fill="#0C1B21"/>
<path d="M76.2554 164.108C76.0656 162.275 74.1016 156.201 73.3192 154.36C72.9271 153.436 72.5923 152.312 71.3552 152.695C70.6283 152.92 69.7277 156.21 69.4592 157.037C69.1476 158 67.2445 164.358 67.3483 164.792C67.4074 165.035 67.7422 165.323 68 165.323C69.0134 165.327 69.1638 162.217 69.6472 161.508C69.8369 161.374 73.0059 161.358 73.475 161.412C74.6853 161.551 74.4686 163.861 75.0344 164.721C75.5715 165.536 76.3503 165.019 76.2554 164.108ZM70.0482 160.059C70.263 159.378 71.4375 154.694 71.7097 154.605C72.0928 154.478 72.2002 155.323 72.2933 155.579C72.8072 156.987 73.2834 158.602 73.5609 160.059H70.0482Z" fill="#0C1B21"/>
<path d="M129.171 157.139C137.045 154.092 136.433 168.041 129.37 165.607C128.744 165.391 127.601 164.912 127.834 164.095C128.155 162.962 129.782 164.447 130.659 164.531C134.154 164.862 134.847 157.486 130.683 158.159C129.952 158.277 128.489 159.562 127.984 158.761C127.693 158.299 127.691 153.449 127.984 152.984C128.121 152.77 128.454 152.709 128.693 152.679C129.698 152.545 133.144 152.161 133.959 152.261C134.944 152.382 134.808 153.451 134.312 153.606C133.121 153.978 130.998 153.785 129.66 154.026C129.496 154.056 129.17 154.174 129.17 154.316V157.139H129.171Z" fill="#0C1B22"/>
<path d="M108.391 153.827C108.262 153.833 108.061 154.111 107.655 153.999C107.213 153.876 106.944 153.232 107.209 152.843C107.562 152.326 112.661 152.296 113.092 152.639C114.619 153.847 110.954 155.566 111.416 155.968C117.507 156.317 114.326 166.155 109.263 164.837C108.717 164.694 107.705 164.016 108.181 163.357C108.595 162.785 109.705 163.605 110.337 163.579C112.528 163.489 114.512 159.194 112.657 157.748C111.586 156.915 108.752 157.735 108.511 157.013C108.076 155.722 110.716 154.826 111.221 153.826C110.283 153.856 109.332 153.784 108.392 153.826L108.391 153.827Z" fill="#0C1B21"/>
<path d="M118.83 157.916C119.951 158.266 120.961 157.834 122.121 157.889C122.663 157.554 122.021 154.048 122.517 153.356C122.74 153.045 123.709 153.292 123.709 153.535L123.568 157.162C123.568 157.26 123.568 157.509 123.514 157.916C124.105 157.864 125.172 157.961 125.088 158.788C125 159.646 123.661 159.324 123.503 159.6C123.063 160.364 123.285 164.087 123.111 165.207C122.937 166.32 121.86 166.218 121.75 165.77C121.496 164.723 122.246 159.725 122.064 159.467C121.768 159.055 120.882 159.281 120.411 159.28C119.729 159.278 117.466 159.385 117.466 158.402V152.754C117.466 152.239 118.832 152.505 118.832 152.949V157.914L118.83 157.916Z" fill="#0D1C22"/>
<path d="M100.488 163.757C101.643 163.977 103.005 163.352 104.099 163.564C104.796 163.698 105.016 164.671 104.253 164.889C103.039 164.826 101.754 165.262 100.585 165.314C99.1183 165.378 98.3735 165.285 98.8246 163.557C99.1362 162.367 100.905 159.964 101.499 158.634C101.952 157.619 103.481 153.811 101.179 154.215C100.169 154.392 100.049 156.091 99.2489 155.932C99.0484 155.893 98.8228 155.634 98.7638 155.439C98.2983 153.852 101.829 151.299 103.308 153.642C105.13 156.527 101.285 161.054 100.488 163.759V163.757Z" fill="#0C1B22"/>
<path d="M94.4384 163.956C94.5333 164.051 95.6719 163.804 96.0121 164.04C96.295 164.236 96.2986 165.024 96.0085 165.228C95.6343 165.491 91.4288 165.891 91.3088 165.385C90.9507 163.877 93.0294 164.367 93.0867 164.036L93.2693 154.607C92.6068 154.868 91.9892 156.417 91.2086 155.791C90.684 155.37 91.0295 154.919 91.3214 154.51C91.9301 153.66 94.3614 151.381 94.6461 153.527C94.8448 155.021 94.0714 163.588 94.4402 163.956H94.4384Z" fill="#0D1D23"/>
<path opacity="0.53" d="M147.781 41.228C148.001 41.2361 148.303 41.2658 148.667 41.312C149.39 41.4042 150.315 41.5591 151.232 41.7261C152.147 41.8927 153.047 42.0698 153.718 42.2056C153.985 42.2594 154.215 42.3068 154.396 42.3442L144.035 168.63L144.034 168.634C143.96 169.622 143.595 170.25 143.078 170.673C142.542 171.112 141.795 171.37 140.9 171.507C140.008 171.645 139.02 171.655 138.038 171.64C137.074 171.625 136.092 171.584 135.285 171.626C115.478 172.659 95.3846 172.526 75.4917 172.76L71.5161 172.812C70.4909 172.827 68.2312 172.899 66.0376 172.879C64.9421 172.869 63.8747 172.837 62.9985 172.763C62.5603 172.726 62.1776 172.679 61.8667 172.622C61.5466 172.563 61.3389 172.499 61.228 172.443L61.2271 172.442C60.7023 172.176 60.2491 171.633 59.896 170.943C59.5467 170.26 59.3231 169.488 59.229 168.847C58.6094 164.638 58.504 157.214 58.7837 152.528L58.8452 151.628C58.943 150.368 59.2042 149.158 59.9351 148.245C63.7898 143.64 67.5496 138.951 71.314 134.275C75.0797 129.598 78.8507 124.933 82.731 120.368C84.0483 118.817 85.4291 117.318 86.8169 115.808C87.856 114.677 88.8987 113.54 89.9136 112.375L90.9185 111.202C98.2988 102.396 105.191 93.0411 112.398 84.1353C124.034 69.7575 135.889 55.5476 147.599 41.23C147.645 41.2283 147.705 41.2253 147.781 41.228Z" fill="#E4F0C2" stroke="#E4F0C2"/>
<path d="M197.426 71.3186C196.125 71.6689 192.642 72.2863 188.943 72.7795C186.64 73.0869 184.13 73.5157 181.985 72.3882C179.085 70.8621 179.362 67.576 179.513 64.733C179.882 57.7371 181.199 50.3375 181.851 43.3077C182.189 39.6623 182.426 35.992 182.599 32.3359L170.731 26.2675C169.997 29.4232 169.429 32.629 168.645 35.7758C167.415 40.7095 167.256 44.1618 160.778 42.4321V49.3457C160.778 49.4047 160.37 50.3142 160.284 50.4107C159.618 51.1737 157.955 50.6931 157.069 50.5162C153.264 49.7549 146.352 47.5909 142.726 46.1364C140.889 45.4002 138.841 44.5281 139.657 42.0926L144.192 36.4941C142.282 35.363 138.812 34.9931 138.968 32.0715C139.09 29.786 142.864 23.7372 144.158 21.4625C147.093 16.3018 150.289 10.6086 153.477 5.64098C155.087 3.13392 156.206 0.499984 159.616 1.03785C162.13 1.43455 167.408 3.67715 169.997 4.69927C175.832 7.00262 175.207 8.22309 173.986 14.036C173.784 15.0009 172.455 19.3324 172.774 19.8435L186.404 27.0806C189.229 29.148 189.199 31.7123 189.081 34.9431C189.016 36.6692 188.817 38.6349 188.681 40.386C187.999 49.1277 186.617 57.8354 185.953 66.5807C185.953 66.5807 197.111 63.6376 198.953 63.8538C200.796 64.07 199.317 70.7164 198.953 70.8639C198.59 71.0114 198.727 70.9684 197.426 71.3186Z" fill="#00404D"/>
</g>
<defs>
<clipPath id="clip0_8963_1041">
<rect width="200" height="199.616" fill="white" transform="translate(0 0.560547)"/>
</clipPath>
</defs>
</svg>
