<svg width="200" height="201" viewBox="0 0 200 201" fill="none" xmlns="http://www.w3.org/2000/svg">
<g clip-path="url(#clip0_8963_1070)">
<path d="M168.81 48.439C170.758 48.101 172.363 49.4057 172.327 51.3889C172.281 53.9409 171.608 57.2365 171.35 59.8803C169.603 77.8106 168.52 95.3163 167.462 113.293C166.145 135.629 163.865 157.884 162.02 180.174C161.166 183.797 156.311 183.209 156.326 179.495C159.562 147.11 161.781 114.643 163.563 82.1341C164.716 71.4045 165.318 60.5422 166.937 49.9031C167.251 49.2131 168.062 48.5678 168.811 48.439H168.81Z" fill="#00404D"/>
<path d="M147.154 3.3359C149.781 3.36013 152.394 3.70065 155.008 3.89706C166.274 4.74007 177.571 5.06784 188.805 5.70552C190.951 5.82668 195.382 5.5308 196.796 7.30993C198.385 9.30842 197.328 14.767 197.212 17.3139C196.91 23.9496 196.729 30.6019 196.384 37.2096C196.071 43.2357 195.979 49.2962 194.786 55.2228C193.933 59.4634 193.019 59.4047 188.797 59.2581C177.013 58.8499 165.246 57.5312 153.475 56.8897C150.925 56.7507 145.81 57.1142 143.7 56.2329C141.65 55.3771 141.777 53.1593 141.864 51.2564C142.178 44.4281 143.431 37.2312 144.087 30.3915C144.927 21.6335 145.34 12.8233 146.395 4.09856C145.677 3.3563 146.247 3.57566 146.46 3.24534C146.617 3.00047 146.498 2.32071 147.018 2.70714C147.178 2.82702 147.135 3.14842 147.154 3.3359Z" fill="#008099"/>
<path d="M198.399 4.31926C193.779 3.8665 189.121 3.91879 184.494 3.61908C172.807 2.86407 160.638 1.10151 149.033 0.833688C148.178 0.814557 145.522 0.685746 144.884 0.869398C144.728 0.914036 144.607 1.06325 144.499 1.17804C144.138 3.83462 143.818 6.56517 143.535 9.25492C142.076 23.1424 140.831 37.0808 139.499 50.9784C139.311 52.9527 138.892 54.9844 138.807 56.9599C138.793 57.2864 138.725 57.8246 138.93 58.0848C139.16 58.3781 141.255 58.3628 141.794 58.4202C156.949 60.0386 171.779 60.8906 187.003 61.4734C189.916 61.5856 193.288 61.9989 196.182 61.7629C196.708 61.7196 197.155 61.7272 197.227 61.1393C197.499 58.9227 197.153 56.048 197.36 53.7613C198.264 38.0794 199.353 22.321 199.869 6.61746C199.925 4.89955 200.223 4.49653 198.399 4.31926ZM193.882 22.3287C192.973 33.7993 192.382 45.2661 192.074 56.7507C189.64 56.7507 187.197 56.715 184.766 56.6168C173.17 56.15 161.548 55.0622 149.999 53.8314C148.197 53.6389 146.34 53.5815 144.568 53.2818L149.366 5.76807L194.794 9.45387C194.928 13.7557 194.221 18.0485 193.882 22.3287Z" fill="#99D9E5"/>
<path d="M186.011 20.3239C182.383 15.123 170.664 13.4561 164.749 13.3515C163.744 13.3336 162.754 13.377 161.761 13.5045L158.861 48.864L159.324 49.2364C161.178 49.2058 163.034 49.5999 164.876 49.6637C165.211 49.6751 166.415 49.7376 166.56 49.5272L166.898 34.497C171.77 34.659 177.129 33.9269 181.456 31.6007C185.48 29.4377 189.134 24.8017 186.011 20.3239ZM178.258 26.7326C175.243 28.4352 170.531 27.7886 167.177 27.9608L167.594 20.0318C170.664 20.0318 174.554 20.292 177.38 21.5827C179.806 22.691 181.102 25.1244 178.258 26.7326Z" fill="#99D9E5"/>
<path d="M54.773 20.9804C54.7564 21.0097 54.4376 21.1487 54.3075 21.2763C52.5398 23.0223 51.4073 25.8548 53.1329 28.0255C54.6812 29.973 56.9998 29.4169 59.0774 28.8303C59.8426 28.6134 60.9113 27.8661 61.6064 28.3137C62.2173 28.7078 63.9454 30.9384 64.5308 31.6475C66.3916 33.8998 69.1081 37.2642 70.3988 39.8264C71.2035 41.4245 70.2138 40.9118 69.0558 41.0342C52.3944 42.798 39.4686 50.185 28.9329 62.9424C28.628 63.3123 27.9049 64.5239 27.5427 64.6259L19.2082 56.5133C19.5156 55.6754 20.129 54.9497 20.5104 54.1029C21.9171 50.977 21.9859 47.0067 18.8218 44.9534C16.1193 43.1985 13.2191 44.2443 11.1951 46.4571C10.8329 46.8524 10.1378 48.1865 9.67358 48.1354L0.431022 41.3582C0.279254 40.8888 1.54569 39.4145 1.89131 38.9618C7.35625 31.8184 15.6066 25.5832 23.5011 21.3503C30.698 17.491 38.4777 14.3919 46.515 12.7964C46.7357 12.8257 48.2342 14.1342 48.5403 14.3982C49.7851 15.4708 51.0489 16.6582 52.2274 17.8035C52.7171 18.2792 54.6531 20.0838 54.7705 20.5531C54.8036 20.6883 54.847 20.8529 54.7705 20.9804H54.773Z" fill="#86B200"/>
<path d="M44.3457 49.0791C44.5268 46.2733 45.2078 42.122 47.6361 40.3378C48.7406 39.5266 50.4942 39.1836 51.3015 40.5673C51.9915 41.7509 50.9763 44.1141 50.9061 45.5553C50.836 46.9964 51.174 48.4376 51.7135 49.7512C52.1866 50.9029 53.0105 51.9015 53.4161 53.0621L43.3228 60.5051C42.9772 60.5076 42.101 59.1558 41.7975 58.8331C40.392 57.3422 38.7634 56.0872 37.0659 54.9407L36.8669 54.6104C39.1562 52.5188 41.5207 50.4131 44.3457 49.0766V49.0791Z" fill="#E8AA7D"/>
<path d="M76.0766 94.578C76.0906 94.5614 76.1289 94.2859 76.0077 94.3012C73.9735 94.2566 70.9063 94.3739 69.0468 93.4748C67.4092 92.6828 68.8351 91.9788 69.6794 91.3832C67.0368 91.2939 64.0895 90.706 61.702 89.5543C60.873 89.1539 59.5275 88.6654 60.1014 87.575C60.2991 87.2 63.3038 84.2641 63.0029 84.0116C61.2365 83.8904 56.9143 82.9913 56.8735 80.7416C56.8492 79.3731 59.4599 76.3122 60.1945 74.8723C60.6307 74.0178 60.8832 73.949 60.2187 73.097C58.8605 71.3549 55.8226 69.4686 59.4548 68.0134C60.2149 67.7086 63.1036 67.0646 63.4288 66.5289C63.8051 65.9104 62.9633 63.3928 62.883 62.5051C62.6725 60.1891 63.0156 59.5514 65.2309 58.9073C67.4513 58.262 69.9561 58.2314 72.2594 58.2748C72.8257 58.285 74.2643 58.7722 74.4862 58.0133C74.9033 56.5824 74.8995 55.1693 75.6379 53.737C77.5548 50.0155 79.0979 54.0979 80.4588 55.5008C80.7929 55.8452 81.4051 56.5122 81.6359 55.7024C81.9382 54.6412 82.2672 51.7003 83.0988 51.046C84.466 49.9709 86.3764 52.8175 87.0409 53.7868C88.3749 55.733 88.69 57.3386 89.6809 59.2134C89.9538 59.7287 90.0865 59.7351 90.5966 59.5182C91.7814 59.0157 93.7251 56.8374 94.9201 56.8808C96.272 56.9305 95.9493 58.8091 95.7874 59.7006C95.3869 61.8917 94.336 64.4539 93.0236 66.2547C92.8808 66.4498 92.2725 67.3541 92.2125 67.3898C92.025 67.502 91.6781 67.4561 91.4167 67.5683C86.9006 69.5005 85.1087 74.4515 84.3282 78.9777C83.4329 84.1685 83.7862 89.9408 84.5004 95.1379C84.3053 95.5269 82.044 96.1046 81.5313 96.2092C80.2203 96.4783 78.3008 96.7487 76.9847 96.6658C75.5078 96.5727 74.2707 96.1633 75.7348 94.717C75.8394 94.6137 76.0613 94.5984 76.0779 94.5793L76.0766 94.578Z" fill="#00151A"/>
<path d="M98.1915 92.6344C98.3484 93.1866 98.5537 93.8855 98.7208 94.6864C96.1305 96.6798 85.9531 98.1299 83.2442 96.8022C80.7101 95.4657 65.2438 88.3517 64.8318 74.6479C64.5053 63.8213 75.9007 58.2008 85.4468 62.472C90.1988 64.598 93.1564 67.6066 98.8891 65.8619C100.347 65.4181 103.015 64.0228 103.812 63.9897C104.806 63.9489 105.544 65.9563 105.647 66.8465C105.98 69.7046 105.107 72.1444 102.507 73.5103C107.678 78.9522 109.551 87.779 98.1928 92.6356L98.1915 92.6344Z" fill="#E8AA7D"/>
<path d="M81.3643 70.1025C81.9102 72.7502 82.5032 75.7996 81.108 78.2623C80.8644 78.6921 79.9334 79.7086 79.8619 79.9369C79.5201 81.0235 79.4844 83.1138 79.2077 84.4287C78.0101 90.1245 74.7133 94.7477 69.1208 89.5059C62.8435 83.6214 61.4495 74.2015 65.8648 66.7751C69.5863 60.5156 76.0779 58.6089 83.0057 60.3205C83.7161 60.4965 86.5691 61.3178 86.6456 62.106C86.7004 62.671 85.8039 65.7089 85.5705 66.4524C84.9838 68.3208 83.901 72.3918 81.3618 70.1013L81.3643 70.1025Z" fill="#00151A"/>
<path d="M77.2985 75.7035C84.5885 74.8197 86.7668 85.3963 83.6996 90.3103C80.3097 95.7382 70.3465 90.7158 69.6948 84.8989C69.2153 80.6175 73.1205 76.2098 77.2985 75.7035Z" fill="#E8AA7D"/>
<path d="M103.642 84.5229C102.333 87.1565 98.7501 88.5313 95.9672 88.6002C96.207 84.102 90.7217 81.1827 86.9275 83.3151C85.8676 81.3715 85.4085 79.3092 86.9275 77.4051C89.3162 74.4092 92.9638 77.6499 95.7976 78.1308C97.851 78.4777 99.9655 77.7214 101.933 78.669C104.08 79.7033 104.658 82.481 103.642 84.5229Z" fill="#00151A"/>
<path d="M95.9673 88.6001C92.1552 88.6944 88.7104 86.5888 86.9275 83.3149C90.7217 81.1825 96.207 84.1018 95.9673 88.6001Z" fill="#C2570A"/>
<path d="M140.968 136.859C140.782 136.155 138.553 133.933 137.902 133.243C127.246 121.96 115.61 111.66 104.165 101.196C103.341 99.1716 102.602 97.1846 101.046 95.5521C100.57 95.0535 99.213 93.8202 98.5537 93.8865C94.1333 95.6618 89.3851 96.83 84.5846 96.6438C81.7839 90.6407 78.6797 84.7868 75.1074 79.2096C72.3577 74.9155 69.3912 70.4708 66.4566 66.3029C62.6241 60.8597 58.4817 55.4585 53.6239 50.9016C53.1469 50.6211 51.9174 51.0024 51.355 51.1503C46.8236 52.3428 41.3472 56.1026 38.0364 59.3892C37.5198 59.9006 35.1311 62.5151 35.2063 63.0457C35.2382 63.2714 36.8465 65.215 37.1385 65.5785C39.1166 68.0349 41.272 70.3637 43.2513 72.8175C53.6379 85.6923 62.281 99.8399 71.5198 113.535C71.9292 119.604 72.1587 125.704 72.3284 131.779C72.401 134.356 72.2097 136.936 72.535 139.501L73.0923 139.918C76.495 140.036 135.117 139.482 137.882 139.068C139.038 138.895 141.403 138.515 140.968 136.859ZM111.918 138.912C111.684 138.422 111.088 134.71 111.266 134.498L115.854 137.904C115.314 138.959 112.092 139.275 111.918 138.912Z" fill="#C1DB70"/>
<path d="M127.121 101.674L127.01 102.05C124.635 103.361 125.313 106.415 125.975 108.584C128.67 117.424 132.018 126.481 135.612 134.96C136.715 137.562 137.688 137.86 140.534 137.986C143.802 138.041 147.061 138.069 150.311 138.07L150.627 138.254C160.284 138.211 173.782 140.861 180.39 148.407C180.477 148.641 180.439 148.812 180.195 148.813C175.916 147.577 172.288 149.005 172.414 153.976C172.596 161.118 181.296 166.274 186.448 160.248L186.926 160.091C188.992 165.914 190.631 175.851 188.285 181.685C187.218 184.336 186.147 184.963 183.378 185.263C177.259 185.926 170.414 185.5 164.18 185.676C153.328 185.983 142.504 186.601 131.647 186.51C109.314 186.324 86.9276 186.062 64.5972 185.687C57.871 185.574 50.9534 185.82 44.273 185.629C39.1384 185.482 36.0074 179.841 34.2869 175.663C32.5665 171.485 31.2375 167.038 30.04 162.733L30.0119 162.209C33.6875 161.325 34.9093 159.856 35.1746 156.155C35.5814 150.473 33.7334 145.934 27.1717 146.759L26.8414 146.46C26.7954 144.097 27.261 139.66 29.5757 138.415C31.5105 137.374 38.4625 137.363 40.9533 137.275C64.9416 136.424 88.8929 137.003 112.858 137.286C118.582 137.354 124.334 137.114 130.04 137.419L120.72 110.649C119.432 107.305 118.188 98.8849 123.434 98.3378C125.592 98.112 126.088 100.125 127.121 101.675V101.674Z" fill="#86B200"/>
<path d="M150.626 138.252C146.881 138.268 142.286 138.536 138.61 138.097C136.427 137.837 135.747 135.958 134.983 134.214C133.755 131.405 132.657 128.276 131.569 125.39C129.497 119.893 126.899 113.466 125.492 107.823C124.904 105.467 124.558 102.962 127.122 101.673C132.547 109.82 137.436 118.346 142.781 126.556C145.342 130.491 148.079 134.311 150.627 138.252H150.626Z" fill="#99D9E5"/>
<path d="M180.39 148.405C183.137 151.542 185.536 156.168 186.926 160.087C183.635 164.447 178.103 163.982 174.615 160.089C172.608 157.85 171.862 155.422 172.223 152.408C172.68 148.584 176.457 147.491 179.764 148.407C179.947 148.458 180.263 148.68 180.39 148.406V148.405Z" fill="#E4F0C2"/>
<path d="M26.8425 146.458C27.8641 146.549 28.8997 146.381 29.9327 146.497C34.8123 147.049 35.6897 151.81 35.464 155.984C35.2497 159.936 34.1261 161.274 30.4556 162.388C30.2273 162.457 29.9608 162.358 30.0411 162.731C28.6535 157.739 26.942 151.631 26.8425 146.458Z" fill="#E4F0C2"/>
<path d="M154.243 200.422C153.424 200.465 152.419 200.464 151.6 200.422C142.263 199.942 134.323 191.643 133.661 182.408C132.63 168.027 145.229 157.358 159.145 162.348C178.667 169.349 176.352 199.242 154.243 200.422Z" fill="#00404D"/>
<path d="M66.3139 161.241C76.4301 161.026 86.3499 170.339 86.0897 180.601C85.7224 195.166 70.5455 204.377 57.4373 198.13C39.1078 189.396 46.13 161.67 66.3139 161.24V161.241Z" fill="#00404D"/>
<path d="M92.7864 69.8587C93.5414 69.6113 94.4227 71.5422 93.961 71.8751C93.2073 72.4184 92.127 70.0743 92.7864 69.8587Z" fill="#00151A"/>
<path d="M90.0507 70.6127C90.0316 70.6127 90.0124 70.6114 89.9933 70.6089C89.7841 70.577 89.64 70.3818 89.6719 70.1727C89.751 69.6511 89.8811 69.1626 90.0583 68.7239C90.2688 68.2022 90.5353 67.7686 90.8529 67.4332C90.9983 67.2802 91.2406 67.2738 91.3936 67.4179C91.5467 67.5633 91.5531 67.8056 91.4089 67.9587C91.1615 68.2201 90.9396 68.5836 90.7687 69.0096C90.6144 69.3947 90.4996 69.8245 90.4295 70.2875C90.4001 70.4775 90.2382 70.6127 90.052 70.6127H90.0507Z" fill="#00151A"/>
<path d="M106.156 95.9223C105.76 95.9223 105.298 95.8573 104.775 95.7272C103.734 95.4683 102.505 94.6584 102.025 94.323C101.868 94.2133 101.792 94.0297 101.824 93.8422C101.856 93.6547 101.99 93.5068 102.173 93.4558C102.719 93.304 104.114 92.9596 105.304 93.026C106.365 93.0846 107.114 93.2453 107.565 93.86C107.903 94.3205 107.938 95.1227 107.447 95.5384C107.145 95.7948 106.714 95.9223 106.155 95.9223H106.156ZM102.983 94.0399C103.516 94.3766 104.303 94.8204 104.961 94.9836C105.907 95.2196 106.654 95.2081 106.953 94.953C107.091 94.8357 107.09 94.5003 106.951 94.3103C106.711 93.9838 106.254 93.8422 105.263 93.7873C104.493 93.744 103.611 93.897 102.983 94.0386V94.0399Z" fill="#00151A"/>
<path d="M88.7894 107.518C88.6236 107.518 88.4706 107.409 88.4221 107.242C88.0357 105.922 87.5931 104.601 87.1059 103.318C86.0945 100.652 84.8523 98.043 83.4163 95.5637C83.3104 95.3813 83.3729 95.1467 83.5553 95.0408C83.7377 94.9349 83.9723 94.9974 84.0782 95.1798C85.5347 97.6948 86.7935 100.341 87.8201 103.046C88.3137 104.348 88.7639 105.688 89.1554 107.027C89.2141 107.229 89.098 107.442 88.8953 107.501C88.8595 107.511 88.8238 107.516 88.7881 107.516L88.7894 107.518Z" fill="#00151A"/>
<path d="M111.434 137.441C111.242 137.441 111.078 137.299 111.055 137.105C110.644 133.678 110.106 130.22 109.453 126.832C108.765 123.263 107.934 119.676 106.983 116.17C106.928 115.966 107.048 115.755 107.252 115.7C107.454 115.645 107.666 115.765 107.721 115.969C108.677 119.493 109.514 123.1 110.205 126.688C110.861 130.095 111.403 133.569 111.816 137.014C111.842 137.225 111.691 137.415 111.482 137.439C111.467 137.44 111.451 137.441 111.436 137.441H111.434Z" fill="#00151A"/>
<path d="M33.4655 49.083C33.3711 49.083 33.278 49.0409 33.2155 48.9618C30.3969 45.387 27.2672 42.0175 23.9117 38.9451C20.9937 36.2732 17.8576 33.7837 14.5914 31.5454C14.446 31.446 14.409 31.247 14.5085 31.1016C14.6079 30.9562 14.8069 30.9192 14.9523 31.0187C18.2427 33.2736 21.4031 35.7809 24.3428 38.4732C27.7225 41.5673 30.8765 44.9635 33.7167 48.5652C33.8251 48.7029 33.8022 48.9044 33.6632 49.0128C33.6045 49.0587 33.5356 49.0817 33.4655 49.0817V49.083Z" fill="#E4F0C2"/>
<path d="M43.3469 9.37848C43.2194 9.37848 43.0982 9.30068 43.0497 9.17442C42.5498 7.88503 42.0932 6.88897 41.4224 5.61871L41.3305 5.44526C40.8663 4.56653 40.4276 3.73755 39.9582 2.9685C39.8664 2.81801 39.9136 2.6216 40.0641 2.52978C40.2146 2.43795 40.411 2.48514 40.5028 2.63563C40.9824 3.42126 41.4262 4.25917 41.8942 5.14682L41.9861 5.319C42.6697 6.61222 43.1352 7.62741 43.644 8.94231C43.7078 9.10683 43.6262 9.29176 43.4617 9.35425C43.4234 9.36955 43.3851 9.37593 43.3469 9.37593V9.37848Z" fill="#00151A"/>
<path d="M46.7115 7.96667C46.6847 7.96667 46.6579 7.96284 46.6311 7.95647C46.4602 7.9131 46.3582 7.73838 46.4016 7.56876C46.6924 6.43751 46.9997 5.29223 47.3147 4.16353C47.631 3.02591 47.9639 1.87808 48.3019 0.749385C48.3529 0.581037 48.5302 0.485385 48.6985 0.535124C48.8669 0.586139 48.9625 0.763414 48.9128 0.931762C48.5761 2.05536 48.2445 3.20063 47.9295 4.33316C47.6157 5.45803 47.3096 6.60075 47.0201 7.7269C46.9831 7.87102 46.8531 7.96667 46.7115 7.96667Z" fill="#00151A"/>
<path d="M50.6267 11.0184C50.5285 11.0184 50.4303 10.9725 50.3691 10.8871C50.2658 10.7442 50.2976 10.5453 50.4392 10.4419C51.2363 9.86293 52.0653 9.30815 52.9019 8.7929C53.972 8.13482 55.0866 7.52137 56.2153 6.96913C56.3735 6.89134 56.5648 6.95765 56.6413 7.1158C56.7191 7.27395 56.6528 7.46525 56.4946 7.54177C55.3838 8.0838 54.287 8.68832 53.2361 9.33493C52.4122 9.84253 51.5972 10.3871 50.8129 10.9572C50.7568 10.998 50.6905 11.0184 50.6254 11.0184H50.6267Z" fill="#00151A"/>
</g>
<defs>
<clipPath id="clip0_8963_1070">
<rect width="200" height="200" fill="white" transform="translate(0 0.560547)"/>
</clipPath>
</defs>
</svg>
