<svg width="1439" height="385" viewBox="0 0 1439 390" fill="none" xmlns="http://www.w3.org/2000/svg">
<path d="M514.459 164.921L482.672 60.6164L482.517 60.0007C482.517 58.9744 483.082 58.459 484.213 58.459H503.653C504.784 58.459 505.505 58.9744 505.815 60.0007L526.336 135.297C526.436 135.607 526.591 135.762 526.796 135.762C527.002 135.762 527.157 135.607 527.257 135.297L547.472 60.0007C547.782 58.9744 548.499 58.459 549.634 58.459H568.613C569.229 58.459 569.694 58.6642 570 59.0747C570.31 59.4853 570.36 60.0007 570.155 60.6164L537.907 164.921C537.597 165.952 536.927 166.463 535.901 166.463H516.461C515.43 166.463 514.764 165.948 514.454 164.921H514.459Z" fill="#003F23"/>
<path d="M645.145 131.748C645.04 132.985 644.374 133.6 643.138 133.6H595.46C594.844 133.6 594.634 133.86 594.844 134.371C595.154 136.428 595.715 138.485 596.541 140.542C599.214 146.303 604.664 149.181 612.897 149.181C619.479 149.081 624.674 146.403 628.483 141.158C628.893 140.542 629.354 140.232 629.869 140.232C630.18 140.232 630.535 140.437 630.95 140.848L642.061 151.804C642.577 152.319 642.832 152.785 642.832 153.191C642.832 153.396 642.627 153.806 642.216 154.427C638.823 158.646 634.449 161.911 629.103 164.224C623.753 166.537 617.892 167.695 611.515 167.695C602.667 167.695 595.182 165.688 589.065 161.679C582.944 157.665 578.547 152.064 575.874 144.862C573.712 139.721 572.636 132.98 572.636 124.647C572.636 118.991 573.407 114.001 574.948 109.681C577.316 102.379 581.453 96.5681 587.368 92.2441C593.284 87.9247 600.304 85.7627 608.432 85.7627C618.717 85.7627 626.973 88.7457 633.199 94.7117C639.42 100.678 643.202 108.651 644.538 118.626C645.154 122.535 645.359 126.909 645.154 131.739L645.145 131.748ZM595.77 113.695C595.36 115.032 594.999 116.678 594.689 118.635C594.689 119.15 594.944 119.406 595.46 119.406H622.152C622.768 119.406 622.973 119.15 622.768 118.635C622.252 115.652 621.997 114.215 621.997 114.316C621.071 111.228 619.452 108.838 617.135 107.141C614.818 105.444 611.967 104.596 608.573 104.596C602.092 104.596 597.823 107.629 595.765 113.7L595.77 113.695Z" fill="#003F23"/>
<path d="M672.612 164.612C667.467 162.66 663.481 159.932 660.653 156.434C657.821 152.94 656.411 148.976 656.411 144.552V143.01C656.411 142.495 656.589 142.062 656.949 141.697C657.31 141.336 657.743 141.159 658.263 141.159H675.39C675.906 141.159 676.339 141.341 676.704 141.697C677.064 142.057 677.242 142.495 677.242 143.01V143.165C677.242 145.428 678.501 147.357 681.023 148.954C683.541 150.55 686.706 151.344 690.51 151.344C694.004 151.344 696.837 150.65 698.999 149.259C701.161 147.873 702.237 146.148 702.237 144.091C702.237 142.24 701.311 140.853 699.459 139.927C697.608 139.001 694.574 138.025 690.355 136.994C685.521 135.758 681.717 134.577 678.939 133.446C672.352 131.183 667.107 128.405 663.198 125.112C659.289 121.819 657.337 117.089 657.337 110.918C657.337 103.305 660.293 97.2618 666.209 92.7873C672.124 88.3128 679.965 86.0732 689.74 86.0732C696.321 86.0732 702.082 87.1269 707.022 89.2341C711.962 91.3414 715.789 94.3016 718.516 98.1056C721.239 101.914 722.603 106.234 722.603 111.068C722.603 111.584 722.42 112.022 722.065 112.382C721.704 112.742 721.266 112.92 720.751 112.92H704.24C703.724 112.92 703.286 112.742 702.926 112.382C702.566 112.022 702.388 111.588 702.388 111.068C702.388 108.806 701.229 106.904 698.917 105.358C696.604 103.816 693.539 103.045 689.735 103.045C686.342 103.045 683.564 103.661 681.402 104.897C679.24 106.133 678.163 107.83 678.163 109.987C678.163 112.145 679.217 113.591 681.324 114.617C683.432 115.648 686.957 116.724 691.893 117.856C693.024 118.166 694.31 118.499 695.751 118.859C697.193 119.219 698.734 119.657 700.381 120.173C707.683 122.335 713.444 125.112 717.663 128.506C721.878 131.899 723.99 136.839 723.99 143.321C723.99 150.933 720.979 156.876 714.963 161.141C708.947 165.41 700.846 167.545 690.661 167.545C683.769 167.545 677.748 166.564 672.608 164.612H672.612Z" fill="#003F23"/>
<path d="M782.86 104.05C782.5 104.41 782.062 104.588 781.547 104.588H766.732C766.217 104.588 765.961 104.848 765.961 105.359V138.072C765.961 141.465 766.654 143.987 768.046 145.634C769.432 147.281 771.672 148.102 774.76 148.102H779.85C780.365 148.102 780.799 148.284 781.164 148.64C781.524 149 781.702 149.438 781.702 149.953V164.613C781.702 165.744 781.086 166.415 779.85 166.62C775.531 166.825 772.443 166.93 770.591 166.93C762.052 166.93 755.676 165.516 751.457 162.688C747.238 159.86 745.076 154.537 744.975 146.72V105.368C744.975 104.853 744.715 104.597 744.204 104.597H735.41C734.895 104.597 734.457 104.419 734.097 104.059C733.736 103.699 733.559 103.265 733.559 102.745V89.0116C733.559 88.4962 733.736 88.0629 734.097 87.698C734.457 87.3377 734.89 87.1598 735.41 87.1598H744.204C744.72 87.1598 744.975 86.9044 744.975 86.3889V68.0257C744.975 67.5103 745.153 67.0769 745.513 66.712C745.874 66.3517 746.307 66.1738 746.827 66.1738H764.109C764.625 66.1738 765.058 66.3563 765.423 66.712C765.783 67.0724 765.961 67.5103 765.961 68.0257V86.3889C765.961 86.9044 766.217 87.1598 766.732 87.1598H781.547C782.062 87.1598 782.495 87.3422 782.86 87.698C783.221 88.0583 783.399 88.4962 783.399 89.0116V102.745C783.399 103.261 783.216 103.699 782.86 104.059V104.05Z" fill="#003F23"/>
<path d="M844.578 87.5412C844.939 87.9015 845.116 88.3394 845.116 88.8548V103.514C845.116 104.03 844.934 104.468 844.578 104.828C844.222 105.188 843.78 105.366 843.265 105.366H828.299C827.784 105.366 827.529 105.626 827.529 106.137V164.616C827.529 165.131 827.346 165.569 826.99 165.929C826.63 166.29 826.192 166.468 825.677 166.468H807.624C807.108 166.468 806.67 166.29 806.31 165.929C805.95 165.569 805.772 165.136 805.772 164.616V106.137C805.772 105.622 805.512 105.366 805.001 105.366H795.897C795.381 105.366 794.943 105.188 794.583 104.828C794.223 104.468 794.045 104.034 794.045 103.514V88.8548C794.045 88.3394 794.223 87.9061 794.583 87.5412C794.943 87.1808 795.377 87.0029 795.897 87.0029H805.001C805.516 87.0029 805.772 86.7475 805.772 86.2321V82.8386C805.772 76.4621 806.748 71.4995 808.705 67.9509C810.657 64.4023 813.822 61.8846 818.192 60.3885C822.561 58.897 828.605 58.2539 836.322 58.4591H842.184C842.699 58.4591 843.132 58.6416 843.497 58.9973C843.858 59.3577 844.035 59.7955 844.035 60.311V72.8086C844.035 73.324 843.853 73.7619 843.497 74.1222C843.141 74.4825 842.699 74.6604 842.184 74.6604H837.093C833.49 74.7653 831 75.5088 829.608 76.8999C828.222 78.2865 827.524 80.8362 827.524 84.5399V86.2367C827.524 86.7521 827.779 87.0075 828.295 87.0075H843.26C843.775 87.0075 844.209 87.19 844.574 87.5457L844.578 87.5412Z" fill="#003F23"/>
<path d="M867.338 160.908C861.167 156.384 856.948 150.212 854.685 142.394C853.244 137.56 852.523 132.314 852.523 126.654C852.523 120.587 853.244 115.132 854.685 110.297C857.053 102.685 861.322 96.7188 867.493 92.3994C873.665 88.08 881.072 85.918 889.711 85.918C898.35 85.918 905.346 88.0526 911.312 92.3219C917.278 96.5911 921.498 102.53 923.965 110.142C925.607 115.287 926.433 120.688 926.433 126.344C926.433 132 925.712 137.094 924.271 141.929C922.008 149.952 917.812 156.256 911.696 160.831C905.574 165.41 898.194 167.695 889.556 167.695C880.917 167.695 873.509 165.433 867.338 160.908ZM898.194 145.943C900.562 143.886 902.258 141.058 903.285 137.455C904.106 134.161 904.521 130.563 904.521 126.654C904.521 122.334 904.11 118.685 903.285 115.698C902.154 112.204 900.402 109.476 898.039 107.52C895.672 105.568 892.794 104.587 889.401 104.587C886.007 104.587 882.997 105.568 880.684 107.52C878.372 109.476 876.698 112.204 875.671 115.698C874.846 118.165 874.435 121.819 874.435 126.654C874.435 131.489 874.796 134.887 875.516 137.455C876.543 141.058 878.267 143.886 880.684 145.943C883.102 148 886.057 149.031 889.556 149.031C893.054 149.031 895.827 148.005 898.194 145.943Z" fill="#003F23"/>
<path d="M942.556 165.925C942.195 165.565 942.018 165.132 942.018 164.612V60.3069C942.018 59.7915 942.195 59.3582 942.556 58.9933C942.916 58.633 943.349 58.4551 943.869 58.4551H961.922C962.438 58.4551 962.871 58.6375 963.236 58.9933C963.596 59.3536 963.774 59.7915 963.774 60.3069V164.612C963.774 165.127 963.592 165.565 963.236 165.925C962.876 166.286 962.438 166.464 961.922 166.464H943.869C943.354 166.464 942.916 166.286 942.556 165.925Z" fill="#003F23"/>
<path d="M1030.97 58.9933C1031.33 58.633 1031.76 58.4551 1032.28 58.4551H1050.33C1050.85 58.4551 1051.28 58.6375 1051.65 58.9933C1052.01 59.3536 1052.18 59.7915 1052.18 60.3069V164.612C1052.18 165.127 1052 165.565 1051.65 165.925C1051.29 166.286 1050.85 166.464 1050.33 166.464H1032.28C1031.76 166.464 1031.33 166.286 1030.97 165.925C1030.6 165.565 1030.43 165.132 1030.43 164.612V159.522C1030.43 159.211 1030.32 159.034 1030.12 158.983C1029.91 158.933 1029.71 159.011 1029.5 159.216C1025.18 164.876 1019.27 167.704 1011.76 167.704C1004.25 167.704 998.357 165.697 993.167 161.688C987.972 157.674 984.24 152.174 981.978 145.177C980.227 139.831 979.355 133.605 979.355 126.508C979.355 119.411 980.281 112.829 982.133 107.374C984.501 100.792 988.227 95.5693 993.322 91.7106C998.412 87.8518 1004.71 85.9225 1012.22 85.9225C1019.74 85.9225 1025.39 88.495 1029.51 93.6354C1029.71 93.9456 1029.92 94.0459 1030.12 93.9456C1030.33 93.8452 1030.43 93.6354 1030.43 93.3298V60.3115C1030.43 59.7961 1030.61 59.3628 1030.97 58.9979L1030.97 58.9933ZM1030.27 126.809C1030.27 119.917 1029.14 114.516 1026.88 110.608C1024.51 106.594 1021.07 104.591 1016.54 104.591C1011.7 104.591 1008.05 106.598 1005.58 110.608C1003.01 114.621 1001.72 120.072 1001.72 126.964C1001.72 133.135 1002.8 138.28 1004.96 142.394C1007.53 146.819 1011.34 149.031 1016.38 149.031C1021.01 149.031 1024.61 146.819 1027.18 142.394C1029.24 138.59 1030.27 133.395 1030.27 126.809H1030.27Z" fill="#003F23"/>
<path d="M490.694 316.252V211.332C490.694 210.305 491.21 209.79 492.236 209.79H500.104C501.13 209.79 501.646 210.305 501.646 211.332V274.44C501.646 274.645 501.723 274.8 501.878 274.905C502.033 275.01 502.211 274.96 502.417 274.75L535.129 240.496C535.645 239.98 536.26 239.725 536.981 239.725H546.24C546.856 239.725 547.267 239.93 547.476 240.341C547.682 240.751 547.577 241.166 547.166 241.577L527.416 263.489C527.211 263.694 527.156 263.949 527.261 264.26L550.87 315.951L551.025 316.567C551.025 317.393 550.564 317.803 549.638 317.803H541.305C540.48 317.803 539.919 317.393 539.608 316.567L519.703 271.512C519.498 271.101 519.243 271.047 518.933 271.357L501.96 289.255C501.755 289.46 501.65 289.715 501.65 290.026V316.257C501.65 317.288 501.135 317.799 500.109 317.799H492.241C491.21 317.799 490.699 317.283 490.699 316.257L490.694 316.252Z" fill="#003F23"/>
<path d="M573.399 313.319C568.049 309.515 564.345 304.269 562.288 297.583C560.847 292.853 560.126 286.526 560.126 278.603C560.126 270.681 560.847 264.409 562.288 259.78C564.24 253.198 567.894 248.003 573.244 244.194C578.59 240.39 585.071 238.483 592.684 238.483C600.296 238.483 606.285 240.39 611.585 244.194C616.881 248.003 620.507 253.143 622.464 259.624C623.905 264.049 624.625 270.375 624.625 278.603C624.625 286.832 623.905 293.263 622.464 297.583C620.507 304.269 616.881 309.515 611.585 313.319C606.285 317.127 599.936 319.029 592.529 319.029C585.121 319.029 578.745 317.127 573.394 313.319H573.399ZM605.186 305.373C608.68 302.65 611.047 298.969 612.283 294.34C613.209 290.636 613.67 285.445 613.67 278.754C613.67 272.063 613.259 266.772 612.433 263.168C611.197 258.539 608.807 254.863 605.259 252.135C601.71 249.412 597.414 248.048 592.373 248.048C587.333 248.048 583.064 249.412 579.566 252.135C576.067 254.863 573.705 258.539 572.468 263.168C571.643 266.772 571.232 271.962 571.232 278.754C571.232 285.546 571.643 290.741 572.468 294.34C573.6 298.969 575.94 302.645 579.488 305.373C583.037 308.101 587.384 309.46 592.524 309.46C597.664 309.46 601.678 308.096 605.177 305.373H605.186Z" fill="#003F23"/>
<path d="M644.53 316.252V211.332C644.53 210.305 645.046 209.79 646.072 209.79H653.94C654.966 209.79 655.482 210.305 655.482 211.332V316.252C655.482 317.283 654.966 317.794 653.94 317.794H646.072C645.041 317.794 644.53 317.279 644.53 316.252Z" fill="#003F23"/>
<path d="M677.702 316.252V211.332C677.702 210.305 678.218 209.79 679.244 209.79H687.112C688.138 209.79 688.653 210.305 688.653 211.332V316.252C688.653 317.283 688.138 317.794 687.112 317.794H679.244C678.213 317.794 677.702 317.279 677.702 316.252Z" fill="#003F23"/>
<path d="M771.361 276.443V281.383C771.361 282.414 770.846 282.925 769.82 282.925H719.98C719.569 282.925 719.364 283.13 719.364 283.54C719.569 289.201 719.879 292.85 720.29 294.496C721.421 299.126 723.839 302.779 727.542 305.452C731.246 308.13 735.976 309.466 741.737 309.466C746.056 309.466 749.86 308.49 753.153 306.533C756.442 304.581 759.014 301.803 760.866 298.2C761.482 297.274 762.203 297.069 763.028 297.584L769.044 301.133C769.865 301.648 770.071 302.369 769.66 303.295C767.088 308.234 763.229 312.116 758.088 314.944C752.943 317.776 747.028 319.186 740.345 319.186C733.038 319.081 726.922 317.334 721.982 313.94C717.042 310.547 713.494 305.817 711.336 299.746C709.485 294.806 708.559 287.709 708.559 278.455C708.559 274.135 708.636 270.614 708.791 267.886C708.946 265.163 709.329 262.719 709.95 260.557C711.697 253.87 715.218 248.52 720.518 244.51C725.814 240.496 732.217 238.494 739.73 238.494C749.089 238.494 756.291 240.861 761.331 245.591C766.371 250.326 769.51 257.008 770.746 265.651C771.156 268.534 771.361 272.133 771.361 276.452V276.443ZM727.155 251.986C723.811 254.609 721.622 258.135 720.596 262.554C719.98 264.716 719.565 268.215 719.359 273.045C719.359 273.456 719.565 273.661 719.975 273.661H759.94C760.351 273.661 760.556 273.456 760.556 273.045C760.351 268.415 760.041 265.127 759.63 263.17C758.499 258.54 756.209 254.864 752.766 252.137C749.317 249.414 744.975 248.05 739.725 248.05C734.475 248.05 730.493 249.363 727.15 251.986H727.155Z" fill="#003F23"/>
<path d="M790.802 316.252V211.332C790.802 210.305 791.317 209.79 792.343 209.79H800.211C801.238 209.79 801.753 210.305 801.753 211.332V274.44C801.753 274.645 801.831 274.8 801.986 274.905C802.141 275.01 802.319 274.96 802.524 274.75L835.237 240.496C835.752 239.98 836.368 239.725 837.089 239.725H846.348C846.964 239.725 847.374 239.93 847.584 240.341C847.789 240.751 847.684 241.166 847.274 241.577L827.524 263.489C827.319 263.694 827.264 263.949 827.369 264.26L850.977 315.951L851.132 316.567C851.132 317.393 850.672 317.803 849.746 317.803H841.413C840.587 317.803 840.026 317.393 839.716 316.567L819.811 271.512C819.606 271.101 819.35 271.047 819.04 271.357L802.068 289.255C801.863 289.46 801.758 289.715 801.758 290.026V316.257C801.758 317.288 801.242 317.799 800.216 317.799H792.348C791.317 317.799 790.806 317.283 790.806 316.257L790.802 316.252Z" fill="#003F23"/>
<path d="M899.271 248.825H881.834C881.423 248.825 881.218 249.03 881.218 249.44V294.956C881.218 299.896 882.322 303.367 884.534 305.369C886.746 307.376 890.217 308.38 894.947 308.38H898.806C899.832 308.38 900.348 308.895 900.348 309.922V316.248C900.348 317.279 899.832 317.79 898.806 317.79C897.57 317.89 895.668 317.945 893.095 317.945C885.688 317.945 880.082 316.558 876.278 313.78C872.47 311.003 870.568 305.862 870.568 298.35V249.436C870.568 249.025 870.363 248.82 869.952 248.82H860.538C859.507 248.82 858.996 248.305 858.996 247.278V241.262C858.996 240.236 859.512 239.721 860.538 239.721H869.952C870.363 239.721 870.568 239.515 870.568 239.105V221.207C870.568 220.18 871.083 219.665 872.109 219.665H879.672C880.698 219.665 881.214 220.18 881.214 221.207V239.105C881.214 239.515 881.419 239.721 881.829 239.721H899.267C900.293 239.721 900.808 240.236 900.808 241.262V247.278C900.808 248.309 900.293 248.82 899.267 248.82L899.271 248.825Z" fill="#003F23"/>
<path d="M920.872 223.053C919.225 221.411 918.404 219.35 918.404 216.882C918.404 214.414 919.225 212.23 920.872 210.633C922.514 209.041 924.576 208.243 927.043 208.243C929.511 208.243 931.568 209.041 933.214 210.633C934.856 212.23 935.682 214.314 935.682 216.882C935.682 219.45 934.856 221.411 933.214 223.053C931.568 224.7 929.511 225.521 927.043 225.521C924.576 225.521 922.514 224.7 920.872 223.053ZM921.182 316.097V241.106C921.182 240.08 921.697 239.565 922.724 239.565H930.592C931.618 239.565 932.133 240.08 932.133 241.106V316.097C932.133 317.128 931.618 317.638 930.592 317.638H922.724C921.693 317.638 921.182 317.123 921.182 316.097Z" fill="#003F23"/>
<path d="M974.722 316.558L949.417 241.413L949.262 240.797C949.262 240.076 949.727 239.716 950.648 239.716H959.442C960.368 239.716 960.984 240.126 961.294 240.952L980.583 301.438C980.684 301.643 980.839 301.748 981.044 301.748C981.249 301.748 981.404 301.647 981.505 301.438L1000.79 240.952C1001.1 240.131 1001.72 239.716 1002.65 239.716L1011.44 239.871C1012.57 239.871 1012.98 240.436 1012.68 241.568L987.37 316.558C987.06 317.383 986.444 317.794 985.518 317.794H976.57C975.644 317.794 975.028 317.383 974.718 316.558H974.722Z" fill="#003F23"/>
<path d="M1061.13 248.825H1043.69C1043.28 248.825 1043.07 249.03 1043.07 249.44V294.956C1043.07 299.896 1044.18 303.367 1046.39 305.369C1048.6 307.376 1052.07 308.38 1056.8 308.38H1060.66C1061.69 308.38 1062.2 308.895 1062.2 309.922V316.248C1062.2 317.279 1061.69 317.79 1060.66 317.79C1059.43 317.89 1057.52 317.945 1054.95 317.945C1047.54 317.945 1041.94 316.558 1038.13 313.78C1034.33 311.003 1032.42 305.862 1032.42 298.35V249.436C1032.42 249.025 1032.21 248.82 1031.81 248.82H1022.39C1021.36 248.82 1020.85 248.305 1020.85 247.278V241.262C1020.85 240.236 1021.37 239.721 1022.39 239.721H1031.81C1032.22 239.721 1032.42 239.515 1032.42 239.105V221.207C1032.42 220.18 1032.94 219.665 1033.97 219.665H1041.53C1042.55 219.665 1043.07 220.18 1043.07 221.207V239.105C1043.07 239.515 1043.28 239.721 1043.69 239.721H1061.12C1062.15 239.721 1062.66 240.236 1062.66 241.262V247.278C1062.66 248.309 1062.15 248.82 1061.12 248.82L1061.13 248.825Z" fill="#003F23"/>
<path d="M1121.76 240.952C1122.59 241.363 1122.9 242.033 1122.69 242.959L1120.99 250.522C1120.68 251.552 1120.01 251.858 1118.99 251.448C1117.24 250.727 1115.23 250.366 1112.97 250.366L1110.96 250.522C1105.61 250.727 1101.19 252.706 1097.7 256.46C1094.2 260.214 1092.45 264.971 1092.45 270.732V316.248C1092.45 317.279 1091.93 317.79 1090.91 317.79H1083.04C1082.01 317.79 1081.5 317.274 1081.5 316.248V241.258C1081.5 240.232 1082.01 239.716 1083.04 239.716H1090.91C1091.93 239.716 1092.45 240.232 1092.45 241.258V250.672C1092.45 250.982 1092.53 251.16 1092.68 251.21C1092.84 251.265 1092.97 251.188 1093.07 250.978C1095.23 247.174 1097.98 244.213 1101.33 242.106C1104.67 239.999 1108.55 238.945 1112.98 238.945C1116.37 238.945 1119.3 239.616 1121.77 240.952H1121.76Z" fill="#003F23"/>
<path d="M1183.49 245.582C1188.53 250.316 1191.05 256.588 1191.05 264.406V316.248C1191.05 317.279 1190.53 317.79 1189.51 317.79H1181.64C1180.61 317.79 1180.1 317.274 1180.1 316.248V309.922C1180.1 309.717 1180.02 309.561 1179.87 309.457C1179.71 309.356 1179.53 309.406 1179.33 309.612C1176.75 312.7 1173.41 315.039 1169.3 316.631C1165.18 318.223 1160.6 319.021 1155.56 319.021C1148.26 319.021 1142.14 317.169 1137.2 313.466C1132.26 309.762 1129.79 304.106 1129.79 296.494C1129.79 288.881 1132.59 282.682 1138.2 278.208C1143.81 273.733 1151.6 271.494 1161.58 271.494H1179.48C1179.89 271.494 1180.09 271.289 1180.09 270.878V265.017C1180.09 259.772 1178.63 255.63 1175.7 252.597C1172.76 249.564 1168.21 248.045 1162.04 248.045C1157.1 248.045 1153.09 248.998 1150 250.9C1146.92 252.807 1145.01 255.452 1144.29 258.846C1143.98 259.877 1143.37 260.337 1142.44 260.232L1134.11 259.151C1132.98 258.946 1132.51 258.536 1132.72 257.915C1133.54 252.155 1136.63 247.475 1141.98 243.876C1147.33 240.277 1154.02 238.476 1162.04 238.476C1171.3 238.476 1178.45 240.843 1183.49 245.573V245.582ZM1173.46 305.064C1177.88 302.031 1180.09 297.944 1180.09 292.799V280.762C1180.09 280.352 1179.89 280.146 1179.48 280.146H1163.28C1156.49 280.146 1151.03 281.533 1146.92 284.311C1142.81 287.089 1140.75 290.947 1140.75 295.883C1140.75 300.412 1142.32 303.828 1145.46 306.145C1148.59 308.458 1152.68 309.616 1157.72 309.616C1163.79 309.616 1169.04 308.102 1173.46 305.064H1173.46Z" fill="#003F23"/>
<path d="M1230.85 223.131C1228.79 225.653 1227.76 229.945 1227.76 236.016V239.104C1227.76 239.515 1227.97 239.72 1228.38 239.72H1245.66C1246.69 239.72 1247.2 240.235 1247.2 241.262V248.204C1247.2 249.234 1246.69 249.745 1245.66 249.745H1228.38C1227.97 249.745 1227.76 249.951 1227.76 250.361V316.247C1227.76 317.278 1227.25 317.789 1226.22 317.789H1218.51C1217.48 317.789 1216.97 317.273 1216.97 316.247V250.361C1216.97 249.951 1216.76 249.745 1216.35 249.745H1206.01C1204.98 249.745 1204.47 249.23 1204.47 248.204V241.262C1204.47 240.235 1204.98 239.72 1206.01 239.72H1216.35C1216.76 239.72 1216.97 239.515 1216.97 239.104V235.4C1216.97 229.024 1217.69 224.007 1219.13 220.358C1220.57 216.709 1223.06 214.031 1226.61 212.335C1230.16 210.638 1235.12 209.789 1241.5 209.789H1245.97C1247 209.789 1247.52 210.305 1247.52 211.331V217.813C1247.52 218.843 1247 219.354 1245.97 219.354H1242.43C1236.77 219.354 1232.91 220.613 1230.85 223.135L1230.85 223.131ZM1267.73 223.053C1266.08 221.411 1265.26 219.35 1265.26 216.882C1265.26 214.414 1266.08 212.23 1267.73 210.633C1269.37 209.041 1271.43 208.243 1273.9 208.243C1276.37 208.243 1278.43 209.041 1280.07 210.633C1281.72 212.23 1282.54 214.314 1282.54 216.882C1282.54 219.45 1281.72 221.411 1280.07 223.053C1278.43 224.7 1276.37 225.521 1273.9 225.521C1271.43 225.521 1269.37 224.7 1267.73 223.053ZM1268.04 316.097V241.106C1268.04 240.08 1268.55 239.565 1269.58 239.565H1277.45C1278.47 239.565 1278.99 240.08 1278.99 241.106V316.097C1278.99 317.128 1278.47 317.638 1277.45 317.638H1269.58C1268.55 317.638 1268.04 317.123 1268.04 316.097Z" fill="#003F23"/>
<path d="M1303.68 316.252V211.332C1303.68 210.305 1304.2 209.79 1305.23 209.79H1313.09C1314.12 209.79 1314.63 210.305 1314.63 211.332V274.44C1314.63 274.645 1314.71 274.8 1314.87 274.905C1315.02 275.01 1315.2 274.96 1315.41 274.75L1348.12 240.496C1348.63 239.98 1349.25 239.725 1349.97 239.725H1359.23C1359.85 239.725 1360.26 239.93 1360.47 240.341C1360.67 240.751 1360.57 241.166 1360.16 241.577L1340.41 263.489C1340.2 263.694 1340.15 263.949 1340.25 264.26L1363.86 315.951L1364.01 316.567C1364.01 317.393 1363.55 317.803 1362.63 317.803H1354.29C1353.47 317.803 1352.91 317.393 1352.6 316.567L1332.69 271.512C1332.49 271.101 1332.23 271.047 1331.92 271.357L1314.95 289.255C1314.74 289.46 1314.64 289.715 1314.64 290.026V316.257C1314.64 317.288 1314.12 317.799 1313.1 317.799H1305.23C1304.2 317.799 1303.69 317.283 1303.69 316.257L1303.68 316.252Z" fill="#003F23"/>
<path d="M1378.67 316.252V211.332C1378.67 210.305 1379.18 209.79 1380.21 209.79H1388.08C1389.1 209.79 1389.62 210.305 1389.62 211.332V274.44C1389.62 274.645 1389.7 274.8 1389.85 274.905C1390.01 275.01 1390.19 274.96 1390.39 274.75L1423.1 240.496C1423.62 239.98 1424.24 239.725 1424.96 239.725H1434.21C1434.83 239.725 1435.24 239.93 1435.45 240.341C1435.66 240.751 1435.55 241.166 1435.14 241.577L1415.39 263.489C1415.19 263.694 1415.13 263.949 1415.24 264.26L1438.84 315.951L1439 316.567C1439 317.393 1438.53 317.803 1437.61 317.803H1429.28C1428.45 317.803 1427.89 317.393 1427.58 316.567L1407.68 271.512C1407.47 271.101 1407.22 271.047 1406.91 271.357L1389.94 289.255C1389.73 289.46 1389.62 289.715 1389.62 290.026V316.257C1389.62 317.288 1389.11 317.799 1388.08 317.799H1380.22C1379.18 317.799 1378.67 317.283 1378.67 316.257L1378.67 316.252Z" fill="#003F23"/>
<path d="M320.363 48.5537C286.583 18.3587 241.998 0 193.125 0H190.985C85.5083 0 0 85.5083 0 190.985V193.125C0 207.251 1.53255 221.016 4.44258 234.266L320.363 48.5537Z" fill="#00975F"/>
<path d="M11.4854 258.499C38.1819 331.783 108.474 384.109 190.99 384.109H193.13C275.646 384.109 345.938 331.779 372.635 258.499H11.4854Z" fill="#00975F"/>
<path d="M302.338 141.09V140.013C302.338 110.133 315.994 83.4457 337.404 65.8441C332.095 59.7276 326.403 53.9486 320.364 48.5527L4.44336 234.265C6.26327 242.558 8.62139 250.649 11.4813 258.499H372.626C375.376 250.946 377.666 243.169 379.454 235.205C335.48 226.448 302.334 187.641 302.334 141.09H302.338Z" fill="white"/>
<path d="M302.337 140.012V141.088C302.337 187.64 335.478 226.446 379.457 235.204C382.504 221.666 384.11 207.581 384.11 193.122V190.983C384.11 143.114 366.499 99.3628 337.403 65.8428C315.993 83.4443 302.337 110.132 302.337 140.012Z" fill="#00975F"/>
</svg>
