<svg width="31" height="40" viewBox="0 0 827 1057" fill="none" xmlns="http://www.w3.org/2000/svg">
<path fill-rule="evenodd" clip-rule="evenodd" d="M823.78 15.5005C833.642 400.636 842.121 731.739 413.253 1056.21C-15.4653 731.758 -6.98682 400.674 2.87505 15.5671C3.00768 10.3879 3.14056 5.19888 3.27263 0H823.384C823.516 5.17661 823.648 10.3434 823.78 15.5005ZM425.609 335.352V494.943C425.609 577.742 481.086 647.428 557.013 668.985L556.942 669.067C556.942 749.036 492.215 813.682 412.273 813.682C332.356 813.682 267.581 749.036 267.581 669.067V668.985C343.508 647.428 398.985 577.742 398.985 494.943V335.352H292.702V308.677H398.985V232.68H425.609V308.677H531.892V335.352H425.609ZM231.445 161.93V321.579C231.445 404.325 287.006 474.006 362.869 495.501V495.581C362.869 575.615 297.993 640.326 218.185 640.326C138.221 640.326 73.5005 575.615 73.5005 495.581V495.501C149.297 474.006 204.835 404.325 204.835 321.579V161.93H98.4838V135.255H204.835V59.2622H231.445V135.255H337.752V161.93H231.445ZM593.117 161.93V321.581C593.117 404.326 537.563 474.006 461.706 495.503V495.582C461.706 575.615 526.486 640.327 606.464 640.327C686.293 640.327 751.148 575.615 751.148 495.582L751.222 495.503C675.364 474.006 619.711 404.326 619.711 321.581V161.93H726.084V135.255H619.711V59.2647H593.117V135.255H486.819V161.93H593.117Z" fill="#2C2E35"/>
</svg>
