<svg width="40" height="40" viewBox="0 0 40 40" fill="none" xmlns="http://www.w3.org/2000/svg">
<path d="M30 9.58008C29.31 9.58008 28.75 9.02008 28.75 8.33008V3.33008C28.75 2.64008 29.31 2.08008 30 2.08008C30.69 2.08008 31.25 2.64008 31.25 3.33008V8.33008C31.25 9.02008 30.69 9.58008 30 9.58008ZM10 9.58008C9.31 9.58008 8.75 9.02008 8.75 8.33008V3.33008C8.75 2.64008 9.31 2.08008 10 2.08008C10.69 2.08008 11.25 2.64008 11.25 3.33008V8.33008C11.25 9.02008 10.69 9.58008 10 9.58008Z" fill="black"/>
<path d="M32.5 37.9198H7.5C4.97 37.9198 2.91992 35.8598 2.91992 33.3398V9.16984C2.91992 6.63984 4.97 4.58984 7.5 4.58984H32.5C35.03 4.58984 37.0801 6.64984 37.0801 9.16984V33.3398C37.0801 35.8698 35.03 37.9198 32.5 37.9198ZM7.5 7.07985C6.35 7.07985 5.41992 8.00984 5.41992 9.15984V33.3298C5.41992 34.4798 6.35 35.4098 7.5 35.4098H32.5C33.65 35.4098 34.5801 34.4798 34.5801 33.3298V9.15984C34.5801 8.00984 33.65 7.07985 32.5 7.07985H7.5Z" fill="black"/>
<path d="M35.8301 15.4199H4.16992C3.47992 15.4199 2.91992 14.8599 2.91992 14.1699C2.91992 13.4799 3.47992 12.9199 4.16992 12.9199H35.8301C36.5201 12.9199 37.0801 13.4799 37.0801 14.1699C37.0801 14.8599 36.5201 15.4199 35.8301 15.4199Z" fill="black"/>
<path d="M20.0098 30.0002C19.0898 30.0002 18.3301 29.2502 18.3301 28.3302C18.3301 27.4102 19.0702 26.6602 19.9902 26.6602H20.0098C20.9298 26.6602 21.6802 27.4102 21.6802 28.3302C21.6802 29.2502 20.9298 30.0002 20.0098 30.0002ZM13.3501 30.0002C12.4301 30.0002 11.6699 29.2502 11.6699 28.3302C11.6699 27.4102 12.4101 26.6602 13.3301 26.6602H13.3501C14.2701 26.6602 15.02 27.4102 15.02 28.3302C15.02 29.2502 14.2701 30.0002 13.3501 30.0002ZM26.6699 23.3302C25.7499 23.3302 24.9902 22.5802 24.9902 21.6602C24.9902 20.7402 25.7299 19.9902 26.6499 19.9902H26.6699C27.5899 19.9902 28.3398 20.7402 28.3398 21.6602C28.3398 22.5802 27.5899 23.3302 26.6699 23.3302ZM20.0098 23.3302C19.0898 23.3302 18.3301 22.5802 18.3301 21.6602C18.3301 20.7402 19.0702 19.9902 19.9902 19.9902H20.0098C20.9298 19.9902 21.6802 20.7402 21.6802 21.6602C21.6802 22.5802 20.9298 23.3302 20.0098 23.3302ZM13.3501 23.3302C12.4301 23.3302 11.6699 22.5802 11.6699 21.6602C11.6699 20.7402 12.4101 19.9902 13.3301 19.9902H13.3501C14.2701 19.9902 15.02 20.7402 15.02 21.6602C15.02 22.5802 14.2701 23.3302 13.3501 23.3302Z" fill="black"/>
</svg>
