<svg width="40" height="40" viewBox="0 0 40 40" fill="none" xmlns="http://www.w3.org/2000/svg">
  <path d="M20 9.99999C22.5561 9.99999 25.1188 10.9767 27.0711 12.9289C30.9763 16.8342 30.9763 23.1658 27.0711 27.0711C26.29 27.8521 25.0237 27.8521 24.2426 27.0711L18.5858 21.4142C18.2107 21.0391 18 20.5304 18 20V12C18 10.8954 18.8954 9.99999 20 9.99999Z" fill="black"/>
  <path fill-rule="evenodd" clip-rule="evenodd" d="M20 2C10.0589 2 2 10.0589 2 20C2 29.9411 10.0589 38 20 38C29.9411 38 38 29.9411 38 20C38 10.0589 29.9411 2 20 2ZM6 20C6 12.268 12.268 6 20 6C27.732 6 34 12.268 34 20C34 27.732 27.732 34 20 34C12.268 34 6 27.732 6 20Z" fill="black"/>
</svg>