<svg width="40" height="40" viewBox="0 0 40 40" fill="none" xmlns="http://www.w3.org/2000/svg">
<path d="M19.6791 37.92C19.4691 37.92 19.2588 37.92 19.0488 37.91C18.3588 37.89 17.8188 37.31 17.8388 36.62C17.8588 35.93 18.4588 35.37 19.1288 35.41C19.4888 35.42 19.8491 35.42 20.1992 35.41C20.9091 35.37 21.4692 35.92 21.4892 36.61C21.5192 37.3 20.979 37.88 20.289 37.9C20.079 37.9 19.8789 37.91 19.6689 37.91L19.6791 37.92ZM25.4492 36.87C24.9492 36.87 24.4687 36.56 24.2787 36.07C24.0287 35.43 24.359 34.7 24.999 34.46C25.289 34.35 25.5888 34.23 25.8788 34.1C26.5088 33.81 27.249 34.1 27.539 34.72C27.829 35.35 27.5389 36.09 26.9189 36.38C26.5889 36.53 26.2389 36.67 25.8989 36.8C25.7489 36.86 25.5991 36.88 25.4492 36.88V36.87ZM13.8989 36.86C13.7489 36.86 13.5989 36.83 13.4589 36.78C13.1289 36.65 12.7892 36.52 12.4692 36.37C11.8392 36.09 11.5588 35.35 11.8388 34.72C12.1188 34.09 12.8592 33.81 13.4892 34.09C13.7692 34.21 14.0488 34.33 14.3388 34.44C14.9888 34.69 15.309 35.41 15.059 36.05C14.869 36.55 14.3991 36.86 13.8891 36.86H13.8989ZM30.829 33.52C30.489 33.52 30.1591 33.38 29.9091 33.12C29.4391 32.61 29.4689 31.82 29.9789 31.35C30.2489 31.1 30.499 30.85 30.749 30.58C31.219 30.08 32.009 30.05 32.519 30.52C33.019 30.99 33.049 31.78 32.579 32.29C32.289 32.6 31.9989 32.9 31.6889 33.18C31.4489 33.4 31.1488 33.51 30.8388 33.51L30.829 33.52ZM8.48919 33.49C8.17919 33.49 7.86884 33.38 7.62884 33.15C7.36884 32.91 7.12884 32.66 6.87884 32.4C6.39884 31.9 6.41888 31.11 6.91888 30.63C7.41888 30.15 8.2089 30.17 8.6889 30.67C8.8989 30.9 9.1188 31.11 9.3388 31.33C9.8388 31.8 9.85909 32.6 9.38909 33.1C9.13909 33.36 8.80894 33.49 8.47894 33.49H8.48919ZM34.5287 28.42C34.3487 28.42 34.1787 28.38 34.0087 28.3C33.3787 28.01 33.1089 27.27 33.3989 26.64C33.5589 26.3 33.699 25.96 33.829 25.61C34.069 24.96 34.7891 24.63 35.4291 24.87C36.0791 25.11 36.4089 25.83 36.1689 26.47C36.0189 26.89 35.8491 27.29 35.6591 27.69C35.4491 28.15 34.999 28.41 34.519 28.41L34.5287 28.42ZM4.78899 28.33C4.30899 28.33 3.84909 28.05 3.63909 27.58C3.48909 27.24 3.33892 26.89 3.20892 26.53C2.97892 25.88 3.30892 25.16 3.95892 24.93C4.60892 24.69 5.32901 25.03 5.55901 25.68C5.66901 25.98 5.79913 26.28 5.92913 26.58C6.20913 27.21 5.92899 27.95 5.28899 28.23C5.12899 28.3 4.95899 28.34 4.78899 28.34V28.33ZM3.3388 22.09C2.6688 22.09 2.1088 21.55 2.0888 20.88C2.0788 20.51 2.0788 20.14 2.0888 19.77C2.1088 19.08 2.72907 18.53 3.36907 18.56C4.05907 18.58 4.59903 19.15 4.57903 19.84C4.57903 20.16 4.57903 20.49 4.57903 20.81C4.59903 21.5 4.05907 22.08 3.36907 22.09C3.35907 22.09 3.34903 22.09 3.32903 22.09H3.3388ZM4.37884 15.81C4.23884 15.81 4.08915 15.79 3.94915 15.73C3.29915 15.49 2.96892 14.77 3.20892 14.12C3.33892 13.77 3.47884 13.42 3.62884 13.08C3.90884 12.45 4.64874 12.16 5.27874 12.44C5.90874 12.72 6.19888 13.46 5.91888 14.09C5.78888 14.38 5.66901 14.68 5.55901 14.98C5.36901 15.48 4.89909 15.8 4.38909 15.8L4.37884 15.81ZM7.75872 10.38C7.44872 10.38 7.14911 10.27 6.90911 10.04C6.40911 9.57001 6.37905 8.78001 6.84905 8.27001C7.10905 7.99001 7.37911 7.72001 7.65911 7.46001C8.15911 6.99001 8.95913 7.02001 9.42913 7.53001C9.89913 8.04001 9.86882 8.83001 9.35882 9.30001C9.11882 9.52001 8.88888 9.75001 8.66888 9.98001C8.41888 10.24 8.08872 10.38 7.75872 10.38ZM12.9091 6.69001C12.4391 6.69001 11.989 6.42001 11.769 5.96001C11.479 5.33001 11.7488 4.59001 12.3788 4.30001C12.7488 4.13001 13.129 3.97001 13.519 3.83001C14.159 3.59001 14.8888 3.92001 15.1288 4.57001C15.3688 5.22001 15.0391 5.94001 14.3891 6.18001C14.0591 6.30001 13.7391 6.43001 13.4291 6.58001C13.2591 6.66001 13.0791 6.70001 12.9091 6.70001V6.69001Z" fill="black"/>
<path d="M19.9988 23.7498C17.9288 23.7498 16.2488 22.0698 16.2488 19.9998C16.2488 18.3698 17.2888 16.9798 18.7488 16.4598V9.99976C18.7488 9.30976 19.3088 8.74976 19.9988 8.74976C20.6888 8.74976 21.2488 9.30976 21.2488 9.99976V16.4598C22.3088 16.8398 23.1588 17.6798 23.5388 18.7498H26.6687C27.3587 18.7498 27.9187 19.3098 27.9187 19.9998C27.9187 20.6898 27.3587 21.2498 26.6687 21.2498H23.5388C23.0188 22.7098 21.6288 23.7498 19.9988 23.7498ZM19.9988 18.7498C19.3088 18.7498 18.7488 19.3098 18.7488 19.9998C18.7488 20.6898 19.3088 21.2498 19.9988 21.2498C20.6888 21.2498 21.2488 20.6898 21.2488 19.9998C21.2488 19.3098 20.6888 18.7498 19.9988 18.7498Z" fill="black"/>
<path d="M36.6687 21.2498C35.9787 21.2498 35.4187 20.6898 35.4187 19.9998C35.4187 11.4998 28.4988 4.57983 19.9988 4.57983C19.3088 4.57983 18.7488 4.01983 18.7488 3.32983C18.7488 2.63983 19.3088 2.07983 19.9988 2.07983C29.8788 2.07983 37.9187 10.1198 37.9187 19.9998C37.9187 20.6898 37.3587 21.2498 36.6687 21.2498Z" fill="black"/>
</svg>
