<svg width="40" height="40" viewBox="0 0 40 40" fill="none" xmlns="http://www.w3.org/2000/svg">
<path d="M20 37.9201C10.12 37.9201 2.08008 29.8801 2.08008 20.0001C2.08008 10.1201 10.12 2.08008 20 2.08008C29.88 2.08008 37.9199 10.1201 37.9199 20.0001C37.9199 21.1901 37.7998 22.4001 37.5498 23.5801C37.4098 24.2601 36.7601 24.7001 36.0801 24.5501C35.4001 24.4101 34.9699 23.7501 35.1099 23.0801C35.3199 22.0601 35.4199 21.0201 35.4199 20.0001C35.4199 11.5001 28.5 4.58008 20 4.58008C11.5 4.58008 4.58008 11.5001 4.58008 20.0001C4.58008 28.5001 11.5 35.4201 20 35.4201C20.53 35.4201 21.0601 35.3901 21.5801 35.3401C22.2601 35.2601 22.8802 35.7701 22.9502 36.4601C23.0202 37.1501 22.5201 37.7601 21.8301 37.8301C21.2301 37.8901 20.6102 37.9201 19.9902 37.9201H20Z" fill="black"/>
<path d="M22.5 23.7501C22.18 23.7501 21.8601 23.6301 21.6201 23.3801L19.1201 20.8801C18.8901 20.6501 18.75 20.3301 18.75 20.0001V13.3301C18.75 12.6401 19.31 12.0801 20 12.0801C20.69 12.0801 21.25 12.6401 21.25 13.3301V19.4801L23.3799 21.6101C23.8699 22.1001 23.8699 22.8901 23.3799 23.3801C23.1399 23.6201 22.82 23.7501 22.5 23.7501Z" fill="black"/>
<path d="M26.8197 37.91C26.4897 37.91 26.1798 37.8 25.9198 37.58C25.4698 37.2 25.3001 36.6 25.4901 36.04L27.12 30.82L25.4799 25.59C25.2999 25.06 25.4698 24.46 25.9198 24.08C26.3698 23.7 26.9999 23.64 27.5199 23.93L37.2098 29.6C37.6398 29.85 37.91 30.32 37.91 30.82C37.91 31.32 37.6501 31.79 37.2201 32.04L27.5497 37.72C27.3097 37.85 27.0597 37.91 26.8197 37.91ZM27.89 36.78V36.82C27.89 36.82 27.89 36.79 27.89 36.78ZM28.7098 27.52L29.6298 30.45C29.7098 30.69 29.7098 30.95 29.6298 31.2L28.7098 34.15L34.3597 30.83L28.7201 27.53L28.7098 27.52ZM27.8597 24.81L27.8798 24.86C27.8798 24.86 27.8697 24.83 27.8597 24.81Z" fill="black"/>
</svg>
