<svg width="40" height="40" viewBox="0 0 40 40" fill="none" xmlns="http://www.w3.org/2000/svg">
  <path fill-rule="evenodd" clip-rule="evenodd" d="M18 20V12H22V18H28V22H20C18.8954 22 18 21.1046 18 20Z" fill="black"/>
  <path fill-rule="evenodd" clip-rule="evenodd" d="M16 36C16 29.3726 10.6274 24 4 24V20C12.8366 20 20 27.1634 20 36H16Z" fill="black"/>
  <path fill-rule="evenodd" clip-rule="evenodd" d="M10 36C10 32.6863 7.31371 30 4 30V26C9.52285 26 14 30.4772 14 36H10Z" fill="black"/>
  <path fill-rule="evenodd" clip-rule="evenodd" d="M8 36H4V32C6.20914 32 8 33.7909 8 36Z" fill="black"/>
  <path fill-rule="evenodd" clip-rule="evenodd" d="M8.09684 18.4683C8.84903 12.5642 13.8915 8 20 8C26.6274 8 32 13.3726 32 20C32 26.1085 27.4358 31.151 21.5317 31.9032C21.8291 33.1807 21.9904 34.5104 21.9996 35.8763C29.8924 34.8923 36 28.1594 36 20C36 11.1634 28.8366 4 20 4C11.8406 4 5.10774 10.1076 4.12373 18.0004C5.4896 18.0096 6.81933 18.1709 8.09684 18.4683Z" fill="black"/>
</svg>