<svg width="40" height="40" viewBox="0 0 40 40" fill="none" xmlns="http://www.w3.org/2000/svg">
  <path fill-rule="evenodd" clip-rule="evenodd" d="M17 21V15H21V19H25V23H19C17.8954 23 17 22.1046 17 21Z" fill="black"/>
  <path fill-rule="evenodd" clip-rule="evenodd" d="M14 32C14 28.6863 11.3137 26 8 26V22C13.5229 22 18 26.4772 18 32H14Z" fill="black"/>
  <path fill-rule="evenodd" clip-rule="evenodd" d="M12 32H8V28C10.2091 28 12 29.7909 12 32Z" fill="black"/>
  <path fill-rule="evenodd" clip-rule="evenodd" d="M12 20C12 15.5817 15.5817 12 20 12C24.4183 12 28 15.5817 28 20C28 24.4183 24.4183 28 20 28C19.7664 28 19.5352 27.99 19.3067 27.9704C19.7556 29.2299 20 30.5864 20 32C26.6274 32 32 26.6274 32 20C32 13.3726 26.6274 8 20 8C13.3726 8 7.99997 13.3726 7.99997 20C7.99996 20 7.99999 20 7.99997 20C9.41358 20 10.7701 20.2444 12.0296 20.6933C12.01 20.4648 12 20.2336 12 20Z" fill="black"/>
</svg>