<svg width="1190" height="290" viewBox="0 0 1190 290" fill="black" xmlns="http://www.w3.org/2000/svg">
<path class="foreground" d="M994.394 54.8418L961.109 76.4464V122.979H938.642V152.062H961.109V285.845H994.394V152.062H1024.35V122.979H994.394V54.8418Z" />
<path class="foreground" d="M625.76 0C594.971 0 579.993 19.9427 579.993 58.1662V122.98H557.525V152.063H579.993V285.845H612.446V152.063H642.402V122.98H612.446V54.8425C612.446 39.0545 619.103 29.0831 631.585 29.0831C634.913 29.0831 639.074 29.9141 642.402 30.7451L646.563 31.5758V2.49274C639.074 0.830844 630.753 0 625.76 0Z" />
<path class="foreground" d="M1189.94 204.414C1189.94 158.712 1164.15 118.826 1113.39 118.826C1066.79 118.826 1035.17 157.05 1035.17 204.414C1035.17 252.609 1064.29 290.001 1121.71 290.001C1140.85 290.001 1160.82 284.184 1169.97 277.537C1170.8 276.706 1171.64 275.875 1172.47 275.875V242.637C1156.66 255.101 1135.85 260.918 1120.88 260.918C1090.92 260.918 1071.78 245.961 1069.28 222.694C1069.28 221.863 1069.28 220.202 1069.28 219.371H1189.94V204.414ZM1069.28 192.781C1069.28 191.119 1069.28 190.288 1069.28 188.626C1071.78 166.19 1089.26 148.74 1114.22 148.74C1141.68 148.74 1154.16 166.19 1156.66 188.626C1156.66 190.288 1157.49 191.119 1157.49 192.781H1069.28Z" />
<path class="foreground" d="M724.783 118.826C708.972 118.826 689.833 123.812 679.016 131.29V162.035C679.848 161.205 681.512 160.374 683.176 159.543C689.001 155.388 702.315 147.909 722.286 147.909C749.747 147.909 761.396 159.543 761.396 180.316V193.611C760.564 192.78 759.732 191.949 758.9 191.119C752.243 186.133 737.265 177.823 716.461 177.823C683.176 177.823 653.22 198.597 653.22 234.328C653.22 271.72 683.176 290.001 716.461 290.001C733.936 290.001 749.747 282.523 759.732 269.227C760.564 267.566 761.396 266.735 762.228 265.073V285.846H793.849V178.654C793.017 150.402 782.2 118.826 724.783 118.826ZM721.454 262.58C698.155 262.58 684.841 250.116 684.841 232.666C684.841 215.216 699.819 203.583 721.454 203.583C742.257 203.583 759.732 216.047 759.732 232.666C759.732 247.623 743.09 262.58 721.454 262.58ZM765.557 196.935C766.389 196.935 766.389 196.935 765.557 196.935V196.935Z" />
<path class="foreground" d="M491.788 122.98L328.691 285.846H262.953L426.882 122.98H491.788Z" />
<path class="foreground" d="M360.311 122.98L197.214 285.846H131.476L294.573 122.98H360.311Z" />
<path class="foreground" d="M228.835 122.98L65.7381 285.846H0L163.097 122.98H228.835Z" />
<path class="foreground" d="M921.998 122.98H916.173C895.37 122.98 874.567 132.121 863.749 149.571V122.98H831.296V285.846H863.749V217.708C863.749 176.161 884.552 152.064 917.005 152.064H922.83L921.998 122.98Z" />
</svg>
