<?xml version="1.0" encoding="iso-8859-1"?>
<svg version="1.1" id="Layer_1" xmlns="http://www.w3.org/2000/svg" xmlns:xlink="http://www.w3.org/1999/xlink" x="0px" y="0px"
	 viewBox="0 0 512 512" style="enable-background:new 0 0 512 512;" xml:space="preserve">
<path style="fill:#78B9EB;" d="M496.298,328.695l6.058-10.24l-8.077-10.238l8.077-10.238l-8.077-10.239l8.077-10.241l-8.077-10.239
	l8.077-10.24l-8.077-10.238l8.077-10.238l-8.077-10.24l8.077-10.244l-8.077-10.241l8.077-10.248l-6.058-10.248
	c-25.093,0-45.434-20.341-45.434-45.434H61.138c0,25.093-20.341,45.434-45.434,45.434l-6.058,10.248l8.077,10.248l-8.077,10.241
	l8.077,10.244l-8.077,10.24l8.077,10.238l-8.077,10.238l8.077,10.24L9.645,277.5l8.077,10.241l-8.077,10.239l8.077,10.238
	l-8.077,10.238l6.058,10.24c24.415,0,44.326,19.26,45.383,43.415h389.828C451.972,347.955,471.882,328.695,496.298,328.695z"/>
<path style="fill:#FFFFFF;" d="M90.388,342.167c-3.631-6.405-8.057-12.283-13.148-17.511l-0.107-135.293
	c5.624-5.769,10.445-12.326,14.28-19.485h329.174c3.835,7.159,8.656,13.716,14.281,19.485l-0.107,135.293
	c-5.091,5.228-9.518,11.105-13.148,17.511H90.388z"/>
<path style="fill:#E0E0E0;" d="M233.788,328.695V223.691c0-22.269,18.117-40.386,40.386-40.386h68.656
	c22.269,0,40.386,18.117,40.386,40.386v105.004H233.788z"/>
<path style="fill:#FFC853;" d="M363.024,308.502H253.981v-84.811c0-11.153,9.04-20.193,20.193-20.193h68.656
	c11.153,0,20.193,9.04,20.193,20.193V308.502z"/>
<rect x="253.978" y="254.482" width="109.042" height="15.145"/>
<rect x="300.927" y="205.514" width="15.145" height="56.541"/>
<path style="fill:#78B9EB;" d="M363.024,262.058H253.981v-38.367c0-11.153,9.04-20.193,20.193-20.193h68.656
	c11.153,0,20.193,9.04,20.193,20.193V262.058z"/>
<path d="M503.924,246.782L512,236.545l-8.078-10.243l8.077-10.244l-8.078-10.242l7.594-9.634l-10.897-18.432h-4.319
	c-20.878,0-37.862-16.984-37.862-37.862v-7.572H53.565v7.572c0,20.878-16.984,37.862-37.862,37.862h-4.32L0.486,196.184l7.594,9.634
	L0.001,216.06l8.077,10.244L0,236.545l8.077,10.237L0,257.019l8.077,10.242L0,277.501l8.077,10.241L0,297.981l8.077,10.239
	l-7.594,9.624l10.901,18.425h4.318c20.319,0,36.93,15.889,37.819,36.174l0.317,7.241h404.324l0.317-7.241
	c0.887-20.285,17.499-36.174,37.818-36.174h4.318l10.901-18.425l-7.594-9.624L512,297.981l-8.077-10.24L512,277.501l-8.077-10.24
	L512,257.019L503.924,246.782z M492.712,216.061l-8.077,10.244l8.076,10.238l-8.078,10.239l8.078,10.238l-8.077,10.24l8.077,10.24
	l-8.077,10.241l8.077,10.24l-8.077,10.239l8.561,10.851l-1.322,2.234c-23.983,1.969-43.466,19.803-47.714,43.234H182.801v-11.611
	h-15.145v11.611H67.843c-4.249-23.431-23.732-41.266-47.714-43.234l-1.322-2.234l8.561-10.851L19.29,297.98l8.077-10.24L19.29,277.5
	l8.077-10.24l-8.077-10.24l8.077-10.239l-8.077-10.239l8.076-10.239l-8.077-10.244l8.076-10.24l-8.561-10.863l1.328-2.246
	c24.646-2.048,44.56-21.032,48.039-45.251h99.485v8.582h15.145v-8.582h261.03c3.479,24.219,23.393,43.203,48.039,45.251l1.327,2.246
	l-8.561,10.863L492.712,216.061z"/>
<path d="M84.738,166.302c-3.479,6.497-7.862,12.476-13.027,17.774l-2.153,2.209l0.112,141.451l2.146,2.203
	c4.663,4.788,8.695,10.159,11.986,15.963l2.176,3.839h69.058v-15.145h-60.36c-2.903-4.59-6.205-8.924-9.866-12.944l-0.102-129.285
	c4.194-4.6,7.915-9.595,11.111-14.916h59.215v-15.145H86.879L84.738,166.302z"/>
<path d="M427.263,166.302l-2.14-3.997H195.421v15.145h220.76c3.197,5.322,6.918,10.317,11.112,14.916l-0.104,129.285
	c-3.662,4.021-6.965,8.355-9.865,12.944H195.421v15.145h230.603l2.176-3.839c3.286-5.8,7.319-11.17,11.985-15.963l2.146-2.203
	l0.112-141.452l-2.154-2.208C435.125,178.779,430.742,172.799,427.263,166.302z"/>
<rect x="167.653" y="231.765" width="15.145" height="15.145"/>
<rect x="167.653" y="292.344" width="15.145" height="15.145"/>
<rect x="167.653" y="201.476" width="15.145" height="15.145"/>
<rect x="167.653" y="262.055" width="15.145" height="15.145"/>
<rect x="167.653" y="322.634" width="15.145" height="15.145"/>
<rect x="167.653" y="171.186" width="15.145" height="15.145"/>
<path d="M342.831,195.926h-68.656c-15.309,0-27.765,12.456-27.765,27.765v0.505h-26.251V256h15.145v-16.659h11.106v76.734h22.212
	v12.621h15.145v-12.621h49.473v12.621h15.145v-12.621h22.212v-76.734h11.106V256h15.145v-31.804h-26.251v-0.505
	C370.596,208.382,358.14,195.926,342.831,195.926z M355.451,223.691v30.794h-39.376V211.07h26.756
	C349.789,211.07,355.451,216.732,355.451,223.691z M274.174,211.07h26.756v43.415h-39.376v-30.794
	C261.554,216.732,267.215,211.07,274.174,211.07z M261.554,300.93V269.63h93.898v31.299H261.554z"/>
<rect x="272.657" y="277.704" width="15.145" height="15.145"/>
<rect x="329.197" y="277.704" width="15.145" height="15.145"/>
<g>
</g>
<g>
</g>
<g>
</g>
<g>
</g>
<g>
</g>
<g>
</g>
<g>
</g>
<g>
</g>
<g>
</g>
<g>
</g>
<g>
</g>
<g>
</g>
<g>
</g>
<g>
</g>
<g>
</g>
</svg>
