<svg height="480pt" viewBox="0 -104 480 480" width="480pt" xmlns="http://www.w3.org/2000/svg"><path d="m40 40h432v224h-432zm0 0" fill="#fdbb3d"/><path d="m8 8h432v224h-432zm0 0" fill="#e94f4f"/><path d="m88 200h-32c0-8.835938-7.164062-16-16-16v-128c8.835938 0 16-7.164062 16-16h32c0 8.835938 7.164062 16 16 16v128c-8.835938 0-16 7.164062-16 16zm0 0" fill="#4db7e5"/><path d="m384 200h-192c0-13.253906-10.746094-24-24-24v-112c13.253906 0 24-10.746094 24-24h192c0 13.253906 10.746094 24 24 24v112c-13.253906 0-24 10.746094-24 24zm0 0" fill="#4db7e5"/><path d="m360 168h-144l16-16-16-16h144l-16 16zm0 0" fill="#fdbb3d"/><g fill="#cf3a3a"><path d="m128 32h16v16h-16zm0 0"/><path d="m128 64h16v16h-16zm0 0"/><path d="m128 96h16v16h-16zm0 0"/><path d="m128 128h16v16h-16zm0 0"/><path d="m128 160h16v16h-16zm0 0"/><path d="m128 192h16v16h-16zm0 0"/></g><path d="m64 152h16v16h-16zm0 0" fill="#8c4b32"/><path d="m64 72h16v64h-16zm0 0" fill="#8c4b32"/><path d="m216 64h48v16h-48zm0 0" fill="#8c4b32"/><path d="m280 64h80v16h-80zm0 0" fill="#8c4b32"/><path d="m224 96h128v16h-128zm0 0" fill="#8c4b32"/><path d="m464 256h-424v16h432c4.417969 0 8-3.582031 8-8v-224h-16zm0 0"/><path d="m448 232v-224c0-4.417969-3.582031-8-8-8h-432c-4.417969 0-8 3.582031-8 8v224c0 4.417969 3.582031 8 8 8h432c4.417969 0 8-3.582031 8-8zm-16-8h-416v-208h416zm0 0"/><path d="m40 192c4.417969 0 8 3.582031 8 8s3.582031 8 8 8h32c4.417969 0 8-3.582031 8-8s3.582031-8 8-8 8-3.582031 8-8v-128c0-4.417969-3.582031-8-8-8s-8-3.582031-8-8-3.582031-8-8-8h-32c-4.417969 0-8 3.582031-8 8s-3.582031 8-8 8-8 3.582031-8 8v128c0 4.417969 3.582031 8 8 8zm8-129.367188c6.828125-2.433593 12.199219-7.804687 14.632812-14.632812h18.734376c2.433593 6.828125 7.804687 12.199219 14.632812 14.632812v114.734376c-6.828125 2.433593-12.199219 7.804687-14.632812 14.632812h-18.734376c-2.433593-6.828125-7.804687-12.199219-14.632812-14.632812zm0 0"/><path d="m128 32h16v16h-16zm0 0"/><path d="m128 64h16v16h-16zm0 0"/><path d="m128 96h16v16h-16zm0 0"/><path d="m128 128h16v16h-16zm0 0"/><path d="m128 160h16v16h-16zm0 0"/><path d="m128 192h16v16h-16zm0 0"/><path d="m168 184c8.835938 0 16 7.164062 16 16 0 4.417969 3.582031 8 8 8h192c4.417969 0 8-3.582031 8-8 0-8.835938 7.164062-16 16-16 4.417969 0 8-3.582031 8-8v-112c0-4.417969-3.582031-8-8-8-8.835938 0-16-7.164062-16-16 0-4.417969-3.582031-8-8-8h-192c-4.417969 0-8 3.582031-8 8 0 8.835938-7.164062 16-16 16-4.417969 0-8 3.582031-8 8v112c0 4.417969 3.582031 8 8 8zm8-113.015625c11.261719-2.929687 20.058594-11.722656 22.992188-22.984375h178.015624c2.933594 11.261719 11.730469 20.054688 22.992188 22.984375v98.03125c-11.261719 2.929687-20.058594 11.722656-22.992188 22.984375h-178.015624c-2.933594-11.261719-11.730469-20.054688-22.992188-22.984375zm0 0"/><path d="m64 152h16v16h-16zm0 0"/><path d="m64 72h16v64h-16zm0 0"/><path d="m208.609375 171.0625c1.238281 2.988281 4.15625 4.9375 7.390625 4.9375h144c3.234375 0 6.152344-1.949219 7.390625-4.9375s.550781-6.429688-1.734375-8.71875l-10.34375-10.34375 10.34375-10.34375c2.285156-2.289062 2.972656-5.730469 1.734375-8.71875s-4.15625-4.9375-7.390625-4.9375h-144c-3.234375 0-6.152344 1.949219-7.390625 4.9375s-.550781 6.429688 1.734375 8.71875l10.34375 10.34375-10.34375 10.34375c-2.289062 2.289062-2.972656 5.730469-1.734375 8.71875zm29.046875-24.71875-2.34375-2.34375h105.375l-2.34375 2.34375c-3.121094 3.125-3.121094 8.1875 0 11.3125l2.34375 2.34375h-105.375l2.34375-2.34375c3.121094-3.125 3.121094-8.1875 0-11.3125zm0 0"/><path d="m216 64h48v16h-48zm0 0"/><path d="m280 64h80v16h-80zm0 0"/><path d="m224 96h128v16h-128zm0 0"/></svg>