<svg height="512pt" viewBox="0 -96 512 512" width="512pt" xmlns="http://www.w3.org/2000/svg"><path d="m452 310h-392c-27.5 0-50-22.5-50-50v-200c0-27.5 22.5-50 50-50h392c27.5 0 50 22.5 50 50v200c0 27.5-22.5 50-50 50zm0 0" fill="#ffed8a"/><path d="m10 71.003906h492v60h-492zm0 0" fill="#909090"/><path d="m437 220.832031c0 16.570313-13.429688 30-30 30-16.234375 0-29.457031-12.894531-29.984375-29-.011719-.332031-.015625-.664062-.015625-1 0-16.566406 13.429688-30 30-30s30 13.433594 30 30zm0 0" fill="#ffed8a"/><path d="m452 0h-392c-33.078125 0-60 26.921875-60 60v200c0 33.078125 26.921875 60 60 60h392c33.078125 0 60-26.921875 60-60v-200c0-33.078125-26.921875-60-60-60zm40 260c0 22.058594-17.941406 40-40 40h-392c-22.058594 0-40-17.941406-40-40v-119h472zm0-139h-472v-40h472zm0-60h-472v-1c0-22.058594 17.941406-40 40-40h392c22.058594 0 40 17.941406 40 40zm0 0"/><path d="m407 180.828125c-18.960938 0-34.878906 13.273437-38.96875 31h-102.03125c-5.519531 0-10 4.480469-10 10 0 5.53125 4.480469 10 10 10h20v19c0 5.53125 4.480469 10 10 10s10-4.46875 10-10v-19h62.511719c4.75 16.863281 20.136719 29 38.488281 29 22.058594 0 40-17.9375 40-40 0-22.046875-17.941406-40-40-40zm0 60c-10.851562 0-19.628906-8.488281-19.988281-19.316406-.011719-.222657-.011719-.453125-.011719-.683594 0-11.027344 8.96875-20 20-20s20 8.972656 20 20c0 11.03125-8.96875 20-20 20zm0 0"/><path d="m225 211.332031h-80c-5.523438 0-10-4.476562-10-10 0-5.519531 4.476562-10 10-10h80c5.523438 0 10 4.480469 10 10 0 5.523438-4.476562 10-10 10zm0 0"/><path d="m105.019531 211.332031c-5.523437 0-10.003906-4.476562-10.003906-10 0-5.519531 4.472656-10 9.996094-10h.007812c5.523438 0 10 4.480469 10 10 0 5.523438-4.476562 10-10 10zm0 0"/><path d="m185 250.332031h-80c-5.523438 0-10-4.476562-10-10 0-5.519531 4.476562-10 10-10h80c5.523438 0 10 4.480469 10 10 0 5.523438-4.476562 10-10 10zm0 0"/><path d="m225.019531 250.332031c-5.523437 0-10.003906-4.476562-10.003906-10 0-5.519531 4.472656-10 9.996094-10h.007812c5.523438 0 10 4.480469 10 10 0 5.523438-4.476562 10-10 10zm0 0"/></svg>