<svg width="40" height="40" viewBox="0 0 40 40" fill="none" xmlns="http://www.w3.org/2000/svg">
<g clip-path="url(#clip0_8068_209)">
<path fill-rule="evenodd" clip-rule="evenodd" d="M18 31.5C25.4558 31.5 31.5 25.4558 31.5 18C31.5 10.5442 25.4558 4.5 18 4.5C10.5442 4.5 4.5 10.5442 4.5 18C4.5 25.4558 10.5442 31.5 18 31.5ZM18 34C26.8366 34 34 26.8366 34 18C34 9.16345 26.8366 2 18 2C9.16345 2 2 9.16345 2 18C2 26.8366 9.16345 34 18 34Z" fill="black"/>
<path d="M29.0588 18.0588C29.0588 24.134 24.134 29.0588 18.0588 29.0588C11.9837 29.0588 7.05882 24.134 7.05882 18.0588C7.05882 11.9837 11.9837 7.05882 18.0588 7.05882C24.134 7.05882 29.0588 11.9837 29.0588 18.0588Z" fill="black"/>
<path fill-rule="evenodd" clip-rule="evenodd" d="M18.0588 26.0588C22.4771 26.0588 26.0588 22.4771 26.0588 18.0588C26.0588 13.6405 22.4771 10.0588 18.0588 10.0588C13.6405 10.0588 10.0588 13.6405 10.0588 18.0588C10.0588 22.4771 13.6405 26.0588 18.0588 26.0588ZM18.0588 29.0588C24.134 29.0588 29.0588 24.134 29.0588 18.0588C29.0588 11.9837 24.134 7.05882 18.0588 7.05882C11.9837 7.05882 7.05882 11.9837 7.05882 18.0588C7.05882 24.134 11.9837 29.0588 18.0588 29.0588Z" fill="black"/>
<path fill-rule="evenodd" clip-rule="evenodd" d="M35.1161 36.8839L27.1161 28.8839L28.8839 27.1161L36.8839 35.1161C37.372 35.6043 37.372 36.3957 36.8839 36.8839C36.3957 37.372 35.6043 37.372 35.1161 36.8839Z" fill="black"/>
</g>
<defs>
<clipPath id="clip0_8068_209">
<rect width="40" height="40" fill="white"/>
</clipPath>
</defs>
</svg>
