<svg width="40" height="40" viewBox="0 0 40 40" fill="none" xmlns="http://www.w3.org/2000/svg">
<path d="M36.666 37.9201C36.346 37.9201 36.0261 37.8001 35.7861 37.5501L28.2861 30.0501C27.7961 29.5601 27.7961 28.7701 28.2861 28.2801C28.7761 27.7901 29.5662 27.7901 30.0562 28.2801L37.5562 35.7801C38.0462 36.2701 38.0462 37.0601 37.5562 37.5501C37.3162 37.7901 36.9963 37.9201 36.6763 37.9201H36.666Z" fill="black"/>
<path d="M18.3264 34.5801C9.36635 34.5801 2.07635 27.2901 2.07635 18.3301C2.07635 9.37008 9.36635 2.08008 18.3264 2.08008C27.2864 2.08008 34.5764 9.37008 34.5764 18.3301C34.5764 27.2901 27.2864 34.5801 18.3264 34.5801ZM18.3264 4.58008C10.7464 4.58008 4.57635 10.7501 4.57635 18.3301C4.57635 25.9101 10.7464 32.0801 18.3264 32.0801C25.9064 32.0801 32.0764 25.9101 32.0764 18.3301C32.0764 10.7501 25.9064 4.58008 18.3264 4.58008Z" fill="black"/>
</svg>
