<svg width="40" height="40" viewBox="0 0 40 40" fill="none" xmlns="http://www.w3.org/2000/svg">
<path fill-rule="evenodd" clip-rule="evenodd" d="M19.9167 2C10.0216 2 2 10.0216 2 19.9167C2 29.8118 10.0216 37.8333 19.9167 37.8333C29.8118 37.8333 37.8333 29.8118 37.8333 19.9167C37.8333 10.0216 29.8118 2 19.9167 2ZM21.5833 13.25C21.5833 12.3295 20.8372 11.5833 19.9167 11.5833C18.9962 11.5833 18.25 12.3295 18.25 13.25V19.9167C18.25 20.3587 18.4257 20.7827 18.7382 21.0952L22.0715 24.4285C22.7223 25.0793 23.7777 25.0793 24.4285 24.4285C25.0793 23.7777 25.0793 22.7223 24.4285 22.0715L21.5833 19.2263V13.25Z" fill="black"/>
</svg>
