<svg width="40" height="40" viewBox="0 0 40 40" fill="none" xmlns="http://www.w3.org/2000/svg">
<path d="M20 37.9201C10.12 37.9201 2.08008 29.8801 2.08008 20.0001C2.08008 10.1201 10.12 2.08008 20 2.08008C29.88 2.08008 37.9199 10.1201 37.9199 20.0001C37.9199 29.8801 29.88 37.9201 20 37.9201ZM20 4.58008C11.5 4.58008 4.58008 11.5001 4.58008 20.0001C4.58008 28.5001 11.5 35.4201 20 35.4201C28.5 35.4201 35.4199 28.5001 35.4199 20.0001C35.4199 11.5001 28.5 4.58008 20 4.58008Z" fill="black"/>
<path d="M23.3301 24.5801C23.0101 24.5801 22.6902 24.4601 22.4502 24.2101L19.1201 20.8801C18.8901 20.6501 18.75 20.3301 18.75 20.0001V13.3301C18.75 12.6401 19.31 12.0801 20 12.0801C20.69 12.0801 21.25 12.6401 21.25 13.3301V19.4801L24.21 22.4501C24.7 22.9401 24.7 23.7301 24.21 24.2201C23.97 24.4601 23.6501 24.5901 23.3301 24.5901V24.5801Z" fill="black"/>
</svg>
