<svg width="40" height="40" viewBox="0 0 40 40" fill="none" xmlns="http://www.w3.org/2000/svg">
<path d="M18.8817 31.5977L14.5 29.7199V2L23.6667 5.92857V17.1271C20.1895 19.0409 17.8333 22.7401 17.8333 26.9896C17.8333 28.7202 18.2515 30.2596 18.8817 31.5977Z" fill="black"/>
<path d="M26.1667 16.1214V6.57425H34.9167C36.5275 6.57425 37.8333 7.88008 37.8333 9.49092V19.9179C35.7708 17.3692 32.6173 15.7396 29.0833 15.7396C28.0747 15.7396 27.0968 15.8724 26.1667 16.1214Z" fill="black"/>
<path d="M11.9996 2.0519L3.6123 6.24555C2.62417 6.73962 2 7.74955 2 8.8543V28.8452C2 30.8361 3.95037 32.2417 5.839 31.6122L12 29.5586L11.9996 2.0519Z" fill="black"/>
<path fill-rule="evenodd" clip-rule="evenodd" d="M29.0833 18.2402C24.2508 18.2402 20.3333 22.1577 20.3333 26.9902C20.3333 29.8349 21.8285 32.0996 23.4288 33.7117C25.0345 35.3294 26.8667 36.4162 27.8357 36.9312C28.619 37.3476 29.5477 37.3476 30.331 36.9312C31.3 36.4162 33.1322 35.3294 34.7378 33.7117C36.3382 32.0996 37.8333 29.8349 37.8333 26.9902C37.8333 22.1577 33.9158 18.2402 29.0833 18.2402ZM29.0685 23.6536C27.2357 23.6536 25.75 25.1461 25.75 26.9869C25.75 28.8279 27.2357 30.3202 29.0685 30.3202H29.0982C30.931 30.3202 32.4167 28.8279 32.4167 26.9869C32.4167 25.1461 30.931 23.6536 29.0982 23.6536H29.0685Z" fill="black"/>
</svg>
