<svg width="40" height="40" viewBox="0 0 40 40" fill="none" xmlns="http://www.w3.org/2000/svg">
<path fill-rule="evenodd" clip-rule="evenodd" d="M19.9167 4.5C11.4023 4.5 4.5 11.4023 4.5 19.9167C4.5 28.431 11.4023 35.3333 19.9167 35.3333C28.431 35.3333 35.3333 28.431 35.3333 19.9167C35.3333 11.4023 28.431 4.5 19.9167 4.5ZM2 19.9167C2 10.0216 10.0216 2 19.9167 2C29.8117 2 37.8333 10.0216 37.8333 19.9167C37.8333 29.8117 29.8117 37.8333 19.9167 37.8333C10.0216 37.8333 2 29.8117 2 19.9167Z" fill="black"/>
<path fill-rule="evenodd" clip-rule="evenodd" d="M19.9167 12.8333C17.8455 12.8333 16.1667 14.5123 16.1667 16.5833C16.1667 18.6545 17.8455 20.3333 19.9167 20.3333C21.9878 20.3333 23.6667 18.6545 23.6667 16.5833C23.6667 14.5123 21.9878 12.8333 19.9167 12.8333ZM13.6667 16.5833C13.6667 13.1316 16.4648 10.3333 19.9167 10.3333C23.3685 10.3333 26.1667 13.1316 26.1667 16.5833C26.1667 20.0352 23.3685 22.8333 19.9167 22.8333C16.4648 22.8333 13.6667 20.0352 13.6667 16.5833Z" fill="black"/>
<path fill-rule="evenodd" clip-rule="evenodd" d="M11.1025 30.5692V30.5692L9.54836 33.289L7.37776 32.0486L8.93193 29.3288C10.6382 26.3431 13.8135 24.5002 17.2527 24.5002H22.5805C26.0196 24.5002 29.1949 26.343 30.9011 29.3288L32.4553 32.0486L30.2847 33.289L28.7305 30.5692V30.5692C27.4694 28.3623 25.1224 27.0002 22.5805 27.0002H17.2527C14.7107 27.0002 12.3637 28.3623 11.1025 30.5692Z" fill="black"/>
</svg>
