<svg width="40" height="40" viewBox="0 0 40 40" fill="none" xmlns="http://www.w3.org/2000/svg">
<path fill-rule="evenodd" clip-rule="evenodd" d="M20.3333 5.33333C12.0491 5.33333 5.33333 12.0491 5.33333 20.3333C5.33333 28.6177 12.0491 35.3333 20.3333 35.3333C28.6177 35.3333 35.3333 28.6177 35.3333 20.3333C35.3333 12.0491 28.6177 5.33333 20.3333 5.33333ZM2 20.3333C2 10.2081 10.2081 2 20.3333 2C30.4585 2 38.6667 10.2081 38.6667 20.3333C38.6667 30.4585 30.4585 38.6667 20.3333 38.6667C10.2081 38.6667 2 30.4585 2 20.3333Z" fill="black"/>
<path fill-rule="evenodd" clip-rule="evenodd" d="M9.34862 29.7455C11.0549 26.7597 14.2302 24.9168 17.6693 24.9168H22.9972C26.4363 24.9168 29.6117 26.7597 31.3178 29.7455L31.3227 29.7538L32.6208 32.0663C32.9062 32.5745 32.8025 33.2123 32.371 33.6038C29.1912 36.4898 24.9663 38.25 20.3333 38.25C15.7004 38.25 11.4755 36.4898 8.29573 33.6038C7.86427 33.2123 7.7606 32.5745 8.0458 32.0665L9.34862 29.7455Z" fill="black"/>
<path d="M14.5 17C14.5 13.7783 17.1117 11.1667 20.3333 11.1667C23.555 11.1667 26.1667 13.7783 26.1667 17C26.1667 20.2217 23.555 22.8333 20.3333 22.8333C17.1117 22.8333 14.5 20.2217 14.5 17Z" fill="black"/>
</svg>
