<svg width="40" height="40" viewBox="0 0 40 40" fill="none" xmlns="http://www.w3.org/2000/svg">
<path fill-rule="evenodd" clip-rule="evenodd" d="M16.1667 34.1667H33.25C35.7813 34.1667 37.8333 32.1147 37.8333 29.5833V23.75C37.8333 23.0597 37.2737 22.5 36.5833 22.5C34.9725 22.5 33.6667 21.1942 33.6667 19.5833C33.6667 17.9725 34.9725 16.6667 36.5833 16.6667C37.2737 16.6667 37.8333 16.107 37.8333 15.4167V9.58333C37.8333 7.05203 35.7813 5 33.25 5H16.1667V34.1667ZM13.6667 5H6.58333C4.05203 5 2 7.05203 2 9.58333V15.4167C2 16.107 2.55965 16.6667 3.25 16.6667C4.86083 16.6667 6.16667 17.9725 6.16667 19.5833C6.16667 21.1942 4.86083 22.5 3.25 22.5C2.55965 22.5 2 23.0597 2 23.75V29.5833C2 32.1147 4.05203 34.1667 6.58333 34.1667H13.6667V5Z" fill="black"/>
</svg>
