<svg width="70" height="42" viewBox="0 0 70 42" fill="none" xmlns="http://www.w3.org/2000/svg">
    <path fill-rule="evenodd" clip-rule="evenodd" d="M55.6586 2C54.8349 4.33038 52.6124 6 50 6C47.3876 6 45.1651 4.33038 44.3414 2H4C2.89543 2 2 2.89543 2 4V38C2 39.1046 2.89543 40 4 40H44.3414C45.1651 37.6696 47.3876 36 50 36C52.6124 36 54.8349 37.6696 55.6586 40H66C67.1046 40 68 39.1046 68 38V4C68 2.89543 67.1046 2 66 2H55.6586ZM54 0C54 2.20914 52.2091 4 50 4C47.7909 4 46 2.20914 46 0H4C1.79086 0 0 1.79086 0 4V38C0 40.2091 1.79086 42 4 42H46C46 39.7909 47.7909 38 50 38C52.2091 38 54 39.7909 54 42H66C68.2091 42 70 40.2091 70 38V4C70 1.79086 68.2091 0 66 0H54Z" fill="#555E65"/>
    <path fill-rule="evenodd" clip-rule="evenodd" d="M49 8.5V6H51V8.5H49ZM49 18.5V13.5H51V18.5H49ZM49 28.5V23.5H51V28.5H49ZM49 36V33.5H51V36H49Z" fill="#555E65"/>
    <path fill-rule="evenodd" clip-rule="evenodd" d="M27.5664 19.8125C27.5471 19.7835 27.5 19.7 27.5 19.5C27.5 19.3 27.5471 19.2165 27.5664 19.1875C27.5899 19.1523 27.6283 19.1164 27.6972 19.0819C27.77 19.0455 27.8549 19.0224 27.93 19.0098C27.9652 19.004 27.9924 19.0014 28.0068 19.0004L28.0147 18.9999C28.5602 18.992 29 18.5474 29 18V15C29 14.4477 28.5523 14 28 14H16C15.4477 14 15 14.4477 15 15V18C15 18.5474 15.4398 18.992 15.9853 18.9999L15.9932 19.0004C16.0076 19.0014 16.0348 19.004 16.07 19.0098C16.1451 19.0224 16.23 19.0455 16.3028 19.0819C16.3717 19.1164 16.4101 19.1523 16.4336 19.1875C16.4529 19.2165 16.5 19.3 16.5 19.5C16.5 19.7 16.4529 19.7835 16.4336 19.8125C16.4101 19.8477 16.3717 19.8836 16.3028 19.9181C16.23 19.9545 16.1451 19.9776 16.07 19.9902C16.0348 19.996 16.0076 19.9986 15.9932 19.9996L15.9853 20.0001C15.4398 20.008 15 20.4526 15 21V24C15 24.5523 15.4477 25 16 25H28C28.5523 25 29 24.5523 29 24V21C29 20.4526 28.5602 20.008 28.0147 20.0001L28.0068 19.9996C27.9924 19.9986 27.9652 19.996 27.93 19.9902C27.8549 19.9776 27.77 19.9545 27.6972 19.9181C27.6283 19.8836 27.5899 19.8477 27.5664 19.8125ZM17 17.2045V16H27V17.2045C26.9354 17.2304 26.8694 17.2598 26.8028 17.2931C26.4967 17.4461 26.1601 17.6914 25.9023 18.0781C25.6404 18.471 25.5 18.95 25.5 19.5C25.5 20.05 25.6404 20.529 25.9023 20.9219C26.1601 21.3086 26.4967 21.5539 26.8028 21.7069C26.8694 21.7402 26.9354 21.7696 27 21.7955V23H17V21.7955C17.0646 21.7696 17.1306 21.7402 17.1972 21.7069C17.5033 21.5539 17.8399 21.3086 18.0977 20.9219C18.3596 20.529 18.5 20.05 18.5 19.5C18.5 18.95 18.3596 18.471 18.0977 18.0781C17.8399 17.6914 17.5033 17.4461 17.1972 17.2931C17.1306 17.2598 17.0646 17.2304 17 17.2045Z" fill="#555E65"/>
    <path d="M30 17V26H17V28H31C31.5523 28 32 27.5523 32 27V17H30Z" fill="#555E65"/>
</svg>
