<svg width="70" height="42" viewBox="0 0 70 42" fill="none" xmlns="http://www.w3.org/2000/svg">
<path fill-rule="evenodd" clip-rule="evenodd" d="M55.6586 2C54.8349 4.33038 52.6124 6 50 6C47.3876 6 45.1651 4.33038 44.3414 2H4C2.89543 2 2 2.89543 2 4V38C2 39.1046 2.89543 40 4 40H44.3414C45.1651 37.6696 47.3876 36 50 36C52.6124 36 54.8349 37.6696 55.6586 40H66C67.1046 40 68 39.1046 68 38V4C68 2.89543 67.1046 2 66 2H55.6586ZM54 0C54 2.20914 52.2091 4 50 4C47.7909 4 46 2.20914 46 0H4C1.79086 0 0 1.79086 0 4V38C0 40.2091 1.79086 42 4 42H46C46 39.7909 47.7909 38 50 38C52.2091 38 54 39.7909 54 42H66C68.2091 42 70 40.2091 70 38V4C70 1.79086 68.2091 0 66 0H54Z" fill="#555E65"/>
<path fill-rule="evenodd" clip-rule="evenodd" d="M49 8.5V6H51V8.5H49ZM49 18.5V13.5H51V18.5H49ZM49 28.5V23.5H51V28.5H49ZM49 36V33.5H51V36H49Z" fill="#555E65"/>
<path fill-rule="evenodd" clip-rule="evenodd" d="M16 21C16 17.134 19.134 14 23 14C26.866 14 30 17.134 30 21C30 24.866 26.866 28 23 28C19.134 28 16 24.866 16 21ZM23 12C18.0294 12 14 16.0294 14 21C14 25.9706 18.0294 30 23 30C27.9706 30 32 25.9706 32 21C32 16.0294 27.9706 12 23 12ZM22 16V21C22 21.5523 22.4477 22 23 22H28V20H24V16H22Z" fill="#555E65"/>
</svg>
