<svg width="70" height="42" viewBox="0 0 70 42" fill="none" xmlns="http://www.w3.org/2000/svg">
<path fill-rule="evenodd" clip-rule="evenodd" d="M55.6586 2C54.8349 4.33038 52.6124 6 50 6C47.3876 6 45.1651 4.33038 44.3414 2H4C2.89543 2 2 2.89543 2 4V38C2 39.1046 2.89543 40 4 40H44.3414C45.1651 37.6696 47.3876 36 50 36C52.6124 36 54.8349 37.6696 55.6586 40H66C67.1046 40 68 39.1046 68 38V4C68 2.89543 67.1046 2 66 2H55.6586ZM54 0C54 2.20914 52.2091 4 50 4C47.7909 4 46 2.20914 46 0H4C1.79086 0 0 1.79086 0 4V38C0 40.2091 1.79086 42 4 42H46C46 39.7909 47.7909 38 50 38C52.2091 38 54 39.7909 54 42H66C68.2091 42 70 40.2091 70 38V4C70 1.79086 68.2091 0 66 0H54Z" fill="#555E65"/>
<path fill-rule="evenodd" clip-rule="evenodd" d="M49 8.5V6H51V8.5H49ZM49 18.5V13.5H51V18.5H49ZM49 28.5V23.5H51V28.5H49ZM49 36V33.5H51V36H49Z" fill="#555E65"/>
<path fill-rule="evenodd" clip-rule="evenodd" d="M22.375 11.625C22.375 11.2798 22.6548 11 23 11C23.3452 11 23.625 11.2798 23.625 11.625V14.125C23.625 14.4702 23.3452 14.75 23 14.75C22.6548 14.75 22.375 14.4702 22.375 14.125V11.625ZM28 21C28 23.7614 25.7614 26 23 26C20.2386 26 18 23.7614 18 21C18 18.2386 20.2386 16 23 16C25.7614 16 28 18.2386 28 21ZM23 27.25C22.6548 27.25 22.375 27.5298 22.375 27.875V30.375C22.375 30.7202 22.6548 31 23 31C23.3452 31 23.625 30.7202 23.625 30.375V27.875C23.625 27.5298 23.3452 27.25 23 27.25ZM13.625 21.625C13.2798 21.625 13 21.3452 13 21C13 20.6548 13.2798 20.375 13.625 20.375H16.125C16.4702 20.375 16.75 20.6548 16.75 21C16.75 21.3452 16.4702 21.625 16.125 21.625H13.625ZM29.25 21C29.25 21.3452 29.5298 21.625 29.875 21.625H32.375C32.7202 21.625 33 21.3452 33 21C33 20.6548 32.7202 20.375 32.375 20.375H29.875C29.5298 20.375 29.25 20.6548 29.25 21ZM16.5669 15.4507C16.3229 15.2067 16.3229 14.8109 16.5669 14.5668C16.811 14.3228 17.2067 14.3228 17.4508 14.5668L18.3347 15.4507C18.5788 15.6948 18.5788 16.0905 18.3347 16.3346C18.0906 16.5787 17.6949 16.5787 17.4508 16.3346L16.5669 15.4507ZM27.8169 25.8168C27.5729 26.0609 27.5729 26.4567 27.8169 26.7007L28.7008 27.5846C28.9449 27.8287 29.3406 27.8287 29.5847 27.5846C29.8288 27.3405 29.8288 26.9448 29.5847 26.7007L28.7008 25.8168C28.4567 25.5728 28.061 25.5728 27.8169 25.8168ZM28.4101 14.5669C28.6542 14.3229 29.0499 14.3229 29.294 14.5669C29.5381 14.811 29.5381 15.2067 29.294 15.4508L28.4101 16.3347C28.166 16.5788 27.7703 16.5788 27.5262 16.3347C27.2821 16.0906 27.2821 15.6949 27.5262 15.4508L28.4101 14.5669ZM18.3345 25.1919C18.0904 24.9479 17.6947 24.9479 17.4506 25.1919L16.5668 26.0758C16.3227 26.3199 16.3227 26.7156 16.5668 26.9597C16.8108 27.2038 17.2066 27.2038 17.4506 26.9597L18.3345 26.0758C18.5786 25.8317 18.5786 25.436 18.3345 25.1919Z" fill="#555E65"/>
</svg>
