<svg width="70" height="42" viewBox="0 0 70 42" fill="none" xmlns="http://www.w3.org/2000/svg">
<path fill-rule="evenodd" clip-rule="evenodd" d="M55.6586 2C54.8349 4.33038 52.6124 6 50 6C47.3876 6 45.1651 4.33038 44.3414 2H4C2.89543 2 2 2.89543 2 4V38C2 39.1046 2.89543 40 4 40H44.3414C45.1651 37.6696 47.3876 36 50 36C52.6124 36 54.8349 37.6696 55.6586 40H66C67.1046 40 68 39.1046 68 38V4C68 2.89543 67.1046 2 66 2H55.6586ZM54 0C54 2.20914 52.2091 4 50 4C47.7909 4 46 2.20914 46 0H4C1.79086 0 0 1.79086 0 4V38C0 40.2091 1.79086 42 4 42H46C46 39.7909 47.7909 38 50 38C52.2091 38 54 39.7909 54 42H66C68.2091 42 70 40.2091 70 38V4C70 1.79086 68.2091 0 66 0H54Z" fill="#555E65"/>
<path fill-rule="evenodd" clip-rule="evenodd" d="M49 8.5V6H51V8.5H49ZM49 18.5V13.5H51V18.5H49ZM49 28.5V23.5H51V28.5H49ZM49 36V33.5H51V36H49Z" fill="#555E65"/>
<path fill-rule="evenodd" clip-rule="evenodd" d="M19 16C19 13.7909 20.7909 12 23 12C24.4806 12 25.7733 12.8044 26.4649 14H30C30.5523 14 31 14.4477 31 15C31 15.5523 30.5523 16 30 16L27 16C27 18.2091 25.2091 20 23 20C20.7909 20 19 18.2091 19 16ZM23.001 14C23.0007 14 23.0003 14 23 14C22.9997 14 22.9993 14 22.999 14H23.001ZM21.0042 15.8687C21.1504 15.9522 21.3196 16 21.5 16L25 16C25 17.1046 24.1046 18 23 18C21.8954 18 21 17.1046 21 16C21 15.9559 21.0014 15.9121 21.0042 15.8687ZM23 23C19.6863 23 19 25.6863 19 29V30H17V29C17 24.5817 18.5817 21 23 21C27.4183 21 29 24.5817 29 29V30H27V29C27 25.6863 26.3137 23 23 23Z" fill="#555E65"/>
</svg>
