<svg width="248" height="176" viewBox="0 0 248 176" fill="none" xmlns="http://www.w3.org/2000/svg">
<path d="M0 8C0 3.58173 3.58172 0 8 0H110C114.418 0 118 3.58172 118 8V168C118 172.418 114.418 176 110 176H8C3.58172 176 0 172.418 0 168V8Z" fill="#D4E9EC"/>
<path d="M33.0259 74.0609C33.0259 71.8325 34.8323 70.0261 37.0607 70.0261H83.965C86.1934 70.0261 87.9998 71.8325 87.9998 74.0609V104.826C87.9998 107.054 86.1934 108.861 83.965 108.861H37.0607C34.8323 108.861 33.0259 107.054 33.0259 104.826V74.0609Z" fill="#75B8C4"/>
<path d="M30 71.0348C30 68.8064 31.8064 67 34.0348 67H80.9391C83.1675 67 84.9739 68.8064 84.9739 71.0348V101.8C84.9739 104.028 83.1675 105.835 80.9391 105.835H34.0348C31.8064 105.835 30 104.028 30 101.8V71.0348Z" fill="white"/>
<path d="M36.5566 96.2522C36.5566 95.6951 37.0082 95.2435 37.5653 95.2435H59.7566C60.3137 95.2435 60.7653 95.6951 60.7653 96.2522V97.2609C60.7653 97.818 60.3137 98.2696 59.7566 98.2696H37.5653C37.0082 98.2696 36.5566 97.818 36.5566 97.2609V96.2522Z" fill="#75B8C4"/>
<path d="M130 8C130 3.58173 133.582 0 138 0H240C244.418 0 248 3.58172 248 8V168C248 172.418 244.418 176 240 176H138C133.582 176 130 172.418 130 168V8Z" fill="#D4E9EC"/>
<rect x="176.5" y="60" width="27" height="55.5" rx="3" fill="white" stroke="#429EAE" stroke-width="2"/>
<line x1="175.5" y1="68.5" x2="204.233" y2="68.5" stroke="#429EAE" stroke-width="2"/>
<line x1="175.5" y1="108" x2="204.233" y2="108" stroke="#429EAE" stroke-width="2"/>
<line x1="187.133" y1="64.2776" x2="192.867" y2="64.2776" stroke="#429EAE" stroke-width="2" stroke-linecap="round"/>
<path d="M202.5 107V70L180.5 107H202.5Z" fill="#A6D1D9"/>
<path d="M66.5 87.5C66.5 86.9477 66.9477 86.5 67.5 86.5H77.5C78.0523 86.5 78.5 86.9477 78.5 87.5V97.5C78.5 98.0523 78.0523 98.5 77.5 98.5H67.5C66.9477 98.5 66.5 98.0523 66.5 97.5V87.5Z" fill="#75B8C4"/>
</svg>
