<svg width="115" height="83" viewBox="0 0 115 83" fill="none" xmlns="http://www.w3.org/2000/svg">
<path d="M6 14C6 9.58172 9.58172 6 14 6H107C111.418 6 115 9.58172 115 14V75C115 79.4183 111.418 83 107 83H14C9.58172 83 6 79.4183 6 75V14Z" fill="#429EAE"/>
<path d="M0 8C0 3.58172 3.58172 0 8 0H101C105.418 0 109 3.58172 109 8V69C109 73.4183 105.418 77 101 77H8C3.58172 77 0 73.4183 0 69V8Z" fill="#D4E9EC"/>
<path d="M13 58C13 56.8954 13.8954 56 15 56H59C60.1046 56 61 56.8954 61 58V60C61 61.1046 60.1046 62 59 62H15C13.8954 62 13 61.1046 13 60V58Z" fill="#429EAE"/>
<path fill-rule="evenodd" clip-rule="evenodd" d="M71 40V60H91V40H71ZM70 38C69.4477 38 69 38.4477 69 39V61C69 61.5523 69.4477 62 70 62H92C92.5523 62 93 61.5523 93 61V39C93 38.4477 92.5523 38 92 38H70Z" fill="#429EAE"/>
</svg>
