<svg width="118" height="86" viewBox="0 0 118 86" fill="none" xmlns="http://www.w3.org/2000/svg">
    <rect x="4" y="4" width="110" height="78" rx="8" fill="#D4E9EC"/>
    <rect x="31" y="20.5" width="72" height="10" rx="1.5" fill="#429EAE"/>
    <g clip-path="url(#clip0_2786_6432)">
        <rect x="71" y="36.5" width="32" height="31" rx="1.5" fill="white"/>
        <path d="M78.7607 60.8238C78.9024 60.8238 79.0399 60.8072 79.1816 60.7822V60.1654C79.0483 60.1779 78.9774 60.1821 78.8482 60.1821C78.3815 60.1821 78.1982 59.9695 78.1982 59.4403V56.8983H79.1816V56.2982H78.1982V55.1356H77.4481V56.2982H76.7396V56.8983H77.4481V59.6237C77.4481 60.4821 77.8356 60.8238 78.7607 60.8238Z"
              fill="#007C92"/>
        <path d="M80.8568 57.6067C81.1569 57.6067 81.3986 57.3609 81.3986 57.065C81.3986 56.765 81.1569 56.5233 80.8568 56.5233C80.561 56.5233 80.3151 56.765 80.3151 57.065C80.3151 57.3609 80.561 57.6067 80.8568 57.6067ZM80.8568 60.8322C81.1569 60.8322 81.3986 60.5863 81.3986 60.2904C81.3986 59.9904 81.1569 59.7487 80.8568 59.7487C80.561 59.7487 80.3151 59.9904 80.3151 60.2904C80.3151 60.5863 80.561 60.8322 80.8568 60.8322Z"
              fill="#007C92"/>
        <path d="M82.8404 60.7905H83.5655V59.0861L83.9864 58.6777L85.67 60.7905H86.5826L84.4948 58.186L86.4534 56.2982H85.5741L83.6322 58.261H83.5655V54.5146H82.8404V60.7905Z"
              fill="#007C92"/>
        <path d="M89.0705 60.8697C90.3498 60.8697 91.1416 59.9862 91.1416 58.5485V58.5402C91.1416 57.0983 90.3498 56.219 89.0705 56.219C87.7911 56.219 86.9993 57.0983 86.9993 58.5402V58.5485C86.9993 59.9862 87.7911 60.8697 89.0705 60.8697ZM89.0705 60.2279C88.2203 60.2279 87.7411 59.607 87.7411 58.5485V58.5402C87.7411 57.4775 88.2203 56.8608 89.0705 56.8608C89.9206 56.8608 90.3998 57.4775 90.3998 58.5402V58.5485C90.3998 59.607 89.9206 60.2279 89.0705 60.2279Z"
              fill="#007C92"/>
        <path d="M92.2667 60.7905H92.9918V58.0068C92.9918 57.3484 93.4835 56.9108 94.1753 56.9108C94.3337 56.9108 94.4712 56.9275 94.6212 56.9525V56.2482C94.5504 56.2357 94.3962 56.219 94.2586 56.219C93.6502 56.219 93.2293 56.4941 93.0585 56.965H92.9918V56.2982H92.2667V60.7905Z"
              fill="#007C92"/>
        <path d="M97.1965 60.8238C97.3382 60.8238 97.4757 60.8072 97.6174 60.7822V60.1654C97.4841 60.1779 97.4132 60.1821 97.2841 60.1821C96.8173 60.1821 96.634 59.9695 96.634 59.4403V56.8983H97.6174V56.2982H96.634V55.1356H95.8839V56.2982H95.1754V56.8983H95.8839V59.6237C95.8839 60.4821 96.2714 60.8238 97.1965 60.8238Z"
              fill="#007C92"/>
    </g>
    <rect x="71.3556" y="36.8556" width="31.2888" height="30.2888" rx="1.1444" stroke="#429EAE"
          stroke-width="0.711207"/>
    <defs>
        <clipPath id="clip0_2786_6432">
            <rect x="71" y="36.5" width="32" height="31" rx="1.5" fill="white"/>
        </clipPath>
    </defs>
</svg>
