<svg width="200" height="201" viewBox="0 0 200 201" fill="none" xmlns="http://www.w3.org/2000/svg">
<g clip-path="url(#clip0_7555_3620)">
<path d="M71.4142 30.9813C71.1761 29.9626 71.1402 28.8525 71.3068 27.6494C70.6425 21.6553 71.0651 17.2796 75.7361 13.2316C78.6669 9.71531 78.8854 5.01023 76.6814 1.12692C77.1326 0.776012 78.504 1.35609 79.0734 1.56377C82.3569 2.76511 86.5499 5.54018 88.8792 8.14874C92.8466 12.5888 94.483 18.1139 96.7765 23.4707C97.4694 23.8896 100.423 23.3812 101.356 23.3633C124.151 22.9193 150.312 32.7466 160.229 54.6535C165.903 67.1896 164.225 76.5139 158.863 88.6722C151.515 105.333 133.842 110.516 117.142 112.708C106.509 114.104 84.5734 114.994 75.0468 110.176C59.2737 102.197 60.0239 84.7245 68.4064 71.3862C74.0568 62.395 82.1027 55.9497 86.2778 45.9398C88.4119 40.8229 91.7796 30.6053 85.4703 27.1678C80.4161 24.4142 75.3387 28.1632 71.4142 30.9795V30.9813Z" fill="#008099"/>
<path d="M76.6832 1.1273C77.129 1.05568 77.4942 1.9079 77.6357 2.22479C79.0286 5.33466 78.8424 8.7471 77.231 11.7227C75.3852 15.1298 71.9513 16.5101 71.6039 20.9252C71.3407 24.2785 72.073 27.6748 71.4159 30.9817C71.2566 31.0962 71.3031 31.4328 70.7481 31.3773C70.1322 31.3147 67.0027 28.135 66.4387 27.4707C57.5585 17.0633 68.8145 11.3163 74.6153 4.03306C75.1435 3.37063 76.2231 1.48537 76.685 1.1273H76.6832Z" fill="#00404D"/>
<path d="M111.751 52.6766C113.413 52.3096 114.786 54.7695 115.593 55.9727C117.042 58.1336 118.139 60.5399 119.607 62.6901C122.833 63.1681 126.171 62.9139 129.374 63.6551C136.968 65.415 126.894 72.3545 125.073 74.7876C125.795 77.6701 126.83 80.4935 127.358 83.4279C127.623 84.896 128.552 88.6558 126.645 89.2341C123.44 90.2062 116.829 86.2889 113.862 85.0231C111.216 87.0445 108.437 89.5313 105.497 91.1122C95.8526 96.2971 101.598 81.0396 101.639 76.9665C99.6768 75.4536 93.5215 70.4191 93.9315 67.8553C94.1249 66.645 95.0953 66.2995 96.0943 65.902C98.8407 64.8117 102.108 64.7311 104.975 64.0508C106.19 61.8683 109.372 53.203 111.753 52.6766H111.751Z" fill="#99D9E5"/>
<path d="M131.903 197.614C127.123 198.275 122.01 198.586 117.179 198.345C110.009 197.985 108.147 194.676 105.229 188.739L99.2311 173.389L99.5104 173.031C104.074 169.711 109.655 165.796 114.472 162.92C114.78 162.736 115.171 162.435 115.506 162.582L127.229 178.405L126.932 179.086L119.804 184.059C119.391 184.335 119.919 185.033 120.18 185.241C120.868 185.787 122.986 185.441 123.997 185.52C132.108 186.152 132.772 190.608 131.902 197.616L131.903 197.614Z" fill="#86B200"/>
<path d="M99.5121 173.029L105.198 187.734C108.933 195.984 111.033 198.2 120.49 198.007C124.006 197.935 127.895 197.833 131.35 197.355C131.714 197.305 131.98 196.972 131.902 197.616C131.817 198.288 131.841 199.922 131.18 200.114C128.982 200.377 126.796 200.297 124.588 200.35C121.002 200.438 113.638 200.916 110.503 199.602C107.229 198.229 105.236 194.521 103.834 191.441C101.363 186.011 99.7592 179.972 97.9617 174.29C97.9903 173.681 99.1183 173.319 99.5139 173.031L99.5121 173.029Z" fill="#00151A"/>
<path d="M21.4629 168.347C24.9863 167.383 29.7917 166.893 33.4906 166.424C34.4234 166.306 39.1768 165.615 39.6172 165.901L43.522 184.728C51.1919 184.993 55.8594 186.406 55.6088 194.98L55.2202 198.201C54.889 198.085 54.7583 197.816 54.8299 197.395C47.382 198.235 39.3307 198.351 31.7915 197.798C25.9889 197.372 24.4958 194.626 23.7581 189.224C22.8576 182.636 22.077 176.034 21.8997 169.362C21.8854 168.997 21.7404 168.658 21.4647 168.345L21.4629 168.347Z" fill="#86B200"/>
<path d="M21.4628 168.347C21.7583 168.429 22.213 168.08 22.2452 168.633C22.6373 175.216 22.9148 182.199 24.0553 188.682C25.0472 194.318 25.7364 197.026 32.0887 197.429C37.7623 197.789 45.7241 197.737 51.4228 197.429C52.6313 197.363 54.0618 197.17 55.2184 196.837C55.1898 197.282 55.265 197.76 55.2202 198.203C55.0054 200.303 53.4119 200.242 51.618 200.357C45.7617 200.734 38.3585 200.491 32.4861 200.156C27.5734 199.877 24.7947 200.133 22.5997 195.018C20.9974 191.283 20.6984 184.338 20.4799 180.161C20.3152 176.999 20.0216 172.685 20.2848 169.609C20.394 168.339 20.4692 168.621 21.4628 168.348V168.347Z" fill="#00151A"/>
<path d="M132.682 150.006L119.514 149.612L109.468 148.731L92.1967 169.324C85.8247 176.067 70.9092 179.157 61.8947 181.558C55.8128 183.178 49.0309 185.139 42.8005 185.878C42.1434 185.957 40.738 186.258 40.276 185.919C39.73 185.522 38.1742 181.44 37.8483 180.543C35.9308 175.266 34.495 169.288 34.1655 163.681C37.7964 162.974 41.4022 162.1 45.0313 161.377C52.7334 159.842 60.6952 158.867 68.3293 157.162C72.9968 156.12 73.5464 156.047 76.6778 152.438C80.0634 148.535 83.4704 144.064 86.625 139.946C90.6426 134.704 94.2019 128.977 98.2624 123.878C98.7888 123.217 100.226 121.052 101.061 121.416C104.228 123.801 107.558 126.017 111.133 127.748C123.863 127.961 136.678 127.546 149.367 128.149C158.111 128.565 173.943 129.748 170.631 142.589C168.534 150.717 158.012 158.673 151.588 163.74C142.583 170.844 132.987 177.118 123.759 183.921C122.943 184.163 121.809 183.01 121.167 182.496C118.076 180.023 114.302 175.981 111.918 172.817C111.137 171.782 106.743 165.387 106.947 164.578L132.68 150.006H132.682Z" fill="#C1DB70"/>
<path d="M62.8168 103.156C62.9189 103.014 62.1687 101.702 62.0953 101.274C61.8769 99.9977 62.1437 97.4661 63.8821 97.5234C64.6842 97.5503 67.4879 100.073 68.5048 100.717C70.4295 101.938 72.7372 103.023 74.9287 103.659C76.0029 103.971 78.436 103.877 78.2068 105.163C77.4674 106.592 75.4693 117.346 74.9394 117.719C74.0406 118.349 69.3015 116.136 68.29 115.565C66.3009 114.442 61.8089 111.263 62.5304 108.629C62.6378 108.235 63.2268 107.659 63.1892 107.403C63.0603 106.542 61.1518 105.763 62.0004 103.806C62.2332 103.267 62.7542 103.236 62.815 103.152L62.8168 103.156Z" fill="#E8AA7D"/>
<path d="M139.896 37.4116C140.041 37.2719 139.828 35.7984 141.106 35.401C142.477 34.9749 143.593 36.0706 143.904 36.0491C144.144 36.0312 144.28 35.1432 144.493 34.8889C144.98 34.3053 146.121 34.2301 146.83 34.2981C149.805 34.5846 154.646 40.7936 156.179 43.2893C157.386 45.2569 158.397 45.7815 155.71 46.4941C152.186 47.4287 148.366 47.7742 144.819 48.6944L144.049 48.596L137.409 39.8178C136.335 37.1054 139.674 37.6246 139.896 37.4116Z" fill="#E8AA7D"/>
<path d="M158.976 44.103C159.162 44.282 160.587 47.3113 160.814 47.8234C164.873 56.9972 167.15 69.2737 166.024 79.2461C164.01 97.062 157.583 107.697 144.588 119.468C143.65 120.319 136.664 126.465 136.125 126.372C134.12 124.44 130.238 120.081 129.993 117.275C129.864 115.809 131.601 113.748 132.492 112.644C137.733 106.146 144.173 100.362 147.879 92.7114C152.272 83.6432 150.051 68.7241 147.173 59.3175C146.142 55.9445 144.144 52.0862 143.353 48.8958C143.014 47.5315 143.269 47.4921 144.33 46.8225C146.558 45.4171 150.674 44.18 153.293 43.8828C154.21 43.7789 158.462 43.607 158.976 44.103Z" fill="#86B200"/>
<path d="M173.854 96.7356C173.796 98.4454 173.503 100.123 172.883 101.716C170.724 107.27 165.342 109.592 159.652 108.108C157.221 107.474 154.423 104.973 151.952 105.958C150.858 106.393 149.204 108.504 148.235 108.215C147.143 107.89 143.385 101.5 142.322 100.349C142.261 99.7434 144.606 97.8994 145.163 97.219C147.965 93.7994 148.298 89.0245 149.952 85.032C152.74 78.3074 157.959 73.5754 165.698 75.7185C172.113 77.4963 172.394 82.9623 175.916 87.3541C176.89 88.568 179.719 90.4031 179.907 91.7512C180.351 94.9273 176.618 96.8788 173.85 96.7356H173.854Z" fill="#E8AA7D"/>
<path d="M165.852 69.8085C165.525 67.7263 162.93 64.3747 167.132 64.7256C171.334 65.0765 172.752 71.8369 169.947 74.7803C174.263 76.6512 170.928 80.6617 168.072 82.076C166.525 82.8423 162.2 84.1296 161.215 82.1512C160.349 80.4074 162.597 79.2652 163.706 78.3951C158.062 76.465 159.753 83.5191 156.555 85.3882C154.045 86.8545 151.184 83.1324 149.816 85.868C147.809 89.882 152.433 94.4636 148.294 98.1983C145.478 100.739 139.736 101.355 142.828 95.955C141.002 95.3892 139.086 94.9273 137.577 93.6919C136.188 92.5551 135.165 90.9437 136.992 89.626L138.73 88.9296C135.257 88.0738 131.932 84.1171 136.873 82.2891C137.384 82.0993 139.228 81.795 139.315 81.7054C139.609 81.4082 139.199 81.3617 139.068 81.2614C137.692 80.1872 136.306 79.1434 136.37 77.1203C136.458 74.4294 139.238 75.5573 140.78 75.6558C141.91 75.7274 143.063 75.611 144.192 75.6558C142.198 74.3291 140.59 72.4063 143.018 70.4816C145.927 68.1756 151.313 69.0583 154.731 69.6061C154.96 69.4253 152.288 67.395 153.56 65.6083C154.872 63.7624 158.617 65.0891 160.324 65.8679C162.397 66.815 164.148 68.3242 165.849 69.8031L165.852 69.8085Z" fill="#00151A"/>
<path d="M148.253 77.6719C157.479 76.9253 158.537 91.1444 150.629 93.7064C140.427 97.0132 136.157 78.6495 148.253 77.6719Z" fill="#E8AA7D"/>
<path d="M160.78 103.371L160.73 102.842C163.752 98.968 162.044 93.203 156.736 92.9219L156.489 92.4439C157.49 89.3734 160.813 87.4273 163.605 89.7172C164.902 90.7807 165.362 92.836 166.535 94.2021C168.502 96.4937 172.763 97.2439 170.498 101.283C168.468 104.903 164.109 105.403 160.78 103.369V103.371Z" fill="#00151A"/>
<path d="M160.78 103.371C157.199 101.183 155.141 96.5747 156.487 92.4443C157.473 92.5142 158.125 92.7398 158.933 93.0226C163.181 94.5086 163.645 100.36 160.778 103.371H160.78Z" fill="#C2570A"/>
<path d="M170.477 86.425C172 85.9774 171.309 89.3218 170.244 89.3272C169.048 89.3344 169.652 86.6667 170.477 86.425Z" fill="#00151A"/>
<path d="M73.8149 119.896C73.1543 119.289 72.5008 116.476 72.4149 115.54C71.9995 111.005 72.8875 105.807 76.6079 102.832C77.965 103.072 79.3364 103.383 80.7078 103.541C100.681 105.827 114.446 100.631 133.395 97.9352C139.382 97.083 148.586 95.9246 151.118 103.181C154.548 113.01 140.911 122.832 134.301 127.917C131.502 127.92 128.749 128.26 125.943 128.16C120.844 127.247 114.345 128.697 109.379 127.945C106.586 127.523 102.506 123.543 100.187 121.908C93.6039 122.358 86.6912 122.717 80.1546 121.658C79.0392 121.477 74.481 120.508 73.8149 119.898V119.896Z" fill="#86B200"/>
<path d="M86.0808 36.4466C85.8391 36.4466 85.6404 36.2551 85.6332 36.0134C85.5921 34.6437 85.7335 32.8283 86.4389 30.9323C84.3316 31.6449 82.1367 32.1551 79.888 32.4559C79.6427 32.4899 79.4171 32.3163 79.3849 32.071C79.3526 31.8257 79.5245 31.6001 79.7698 31.5679C82.2351 31.2385 84.6324 30.6494 86.9187 29.8133C87.1909 29.2601 87.5149 28.7051 87.9034 28.159C88.8237 26.861 89.8281 25.9855 90.8504 25.2712C91.7133 24.1755 92.6282 23.1782 93.3211 22.4961C96.7156 19.1535 97.4479 19.6995 97.7236 19.9036C98.1694 20.2367 98.1193 20.9797 97.8937 21.7567C99.4406 21.284 100.792 21.1587 101.261 21.8569C102.171 23.2087 98.8587 26.3597 98.1855 26.9774C95.5554 29.3908 91.7026 31.3172 89.769 31.183C89.2874 31.1489 88.9257 30.9896 88.693 30.7067C88.5694 30.5581 88.4889 30.3827 88.4495 30.1804C88.1612 30.2985 87.8694 30.4131 87.5776 30.5241C86.6627 32.5436 86.4872 34.5309 86.532 35.9847C86.5392 36.2318 86.3458 36.4377 86.0987 36.4466C86.0934 36.4466 86.0898 36.4466 86.0844 36.4466H86.0808ZM89.2963 29.8223C89.2928 29.9583 89.3214 30.064 89.3823 30.1374C89.4503 30.2197 89.6096 30.2734 89.8299 30.2896C91.332 30.3952 94.9646 28.7176 97.5804 26.3185C99.5909 24.4745 100.731 22.6716 100.518 22.3565C100.457 22.2669 99.8326 22.0628 97.8793 22.702C97.754 22.7432 97.6269 22.7861 97.498 22.8327C97.1632 23.599 96.8015 24.2095 96.7944 24.2238C94.9718 27.28 92.0034 28.6621 89.2981 29.8223H89.2963ZM88.7914 28.4616C88.7395 28.5314 88.6858 28.603 88.6339 28.6764C88.4853 28.8859 88.3474 29.0954 88.2185 29.3067C88.3152 29.2673 88.4101 29.2261 88.5068 29.1867C88.5139 29.1831 88.5193 29.1813 88.5265 29.1777C88.5873 28.9575 88.6769 28.7176 88.7914 28.4616ZM91.4519 25.9461C90.6624 26.9631 90.0322 27.9281 89.6616 28.6872C92.0338 27.638 94.5009 26.3185 96.0227 23.7655C96.114 23.6115 96.2018 23.4557 96.2841 23.3018C95.201 23.7565 94.0838 24.3187 93.0991 24.9095C92.553 25.2371 91.9998 25.5684 91.4519 25.9461ZM97.1739 20.6502C96.7496 20.7183 95.4856 21.6224 93.9513 23.1353C93.7543 23.3286 93.561 23.5273 93.3694 23.7261C94.3398 23.1943 95.5948 22.5892 96.8248 22.1255C97.0898 21.438 97.2115 20.883 97.1739 20.6502Z" fill="#00151A"/>
<path d="M108.546 148.927C108.527 148.927 108.509 148.927 108.489 148.924C106.364 148.648 102.319 147.672 99.0986 144.224C97.754 142.784 96.7174 141.092 96.0173 139.198C95.9314 138.967 96.0514 138.709 96.2823 138.624C96.5151 138.538 96.7711 138.658 96.857 138.889C97.5141 140.672 98.488 142.26 99.752 143.613C102.781 146.857 106.598 147.776 108.604 148.035C108.849 148.068 109.023 148.292 108.99 148.537C108.962 148.762 108.768 148.927 108.546 148.927Z" fill="#00151A"/>
<path d="M133.158 150.341C133.015 150.341 132.874 150.271 132.786 150.142C132.648 149.936 132.702 149.658 132.908 149.521C134.902 148.18 136.943 146.855 138.975 145.582C141.609 143.931 144.314 142.314 147.012 140.776C147.227 140.655 147.501 140.728 147.623 140.943C147.745 141.158 147.671 141.432 147.456 141.554C144.769 143.086 142.076 144.696 139.452 146.341C137.428 147.609 135.395 148.93 133.409 150.265C133.332 150.317 133.246 150.342 133.16 150.342L133.158 150.341Z" fill="#00151A"/>
<path d="M147.967 111.852C147.845 111.852 147.723 111.802 147.635 111.705C147.469 111.523 147.481 111.24 147.666 111.073C148.495 110.318 150.45 108.227 150.675 105.135C150.758 104.009 150.607 102.879 150.228 101.774C150.147 101.54 150.271 101.285 150.505 101.205C150.74 101.122 150.994 101.25 151.075 101.482C151.495 102.702 151.662 103.951 151.569 105.199C151.318 108.612 149.177 110.907 148.269 111.734C148.183 111.813 148.076 111.85 147.968 111.85L147.967 111.852Z" fill="#00151A"/>
<path d="M167.038 85.1808C166.943 85.1808 166.846 85.1504 166.765 85.0877C166.57 84.9373 166.533 84.6562 166.683 84.4593C167.165 83.8326 167.745 83.2955 168.405 82.8641C169 82.4738 169.65 82.1783 170.337 81.9832C170.575 81.9152 170.822 82.053 170.89 82.2911C170.958 82.5293 170.821 82.7763 170.583 82.8444C169.983 83.0144 169.417 83.274 168.896 83.6142C168.319 83.992 167.815 84.4593 167.394 85.0071C167.306 85.1217 167.174 85.1808 167.039 85.1808H167.038Z" fill="#00151A"/>
<path d="M67.5112 106.315C67.4628 106.315 67.4127 106.306 67.3644 106.29C66.1953 105.881 65.1246 105.267 64.1847 104.469C63.3378 103.749 62.6217 102.897 62.0541 101.937C61.9288 101.724 61.9986 101.45 62.2117 101.325C62.4248 101.2 62.6987 101.269 62.824 101.482C63.3396 102.356 63.9931 103.131 64.763 103.787C65.6188 104.515 66.5927 105.072 67.658 105.445C67.8907 105.527 68.0143 105.781 67.9337 106.016C67.8693 106.2 67.6956 106.316 67.5112 106.316V106.315Z" fill="#00151A"/>
<path d="M67.7761 110.795C67.717 110.795 67.6579 110.785 67.6024 110.76C66.5605 110.319 65.5543 109.78 64.6107 109.159C63.9053 108.694 63.2232 108.176 62.5858 107.617C62.3996 107.455 62.3817 107.172 62.5429 106.985C62.7058 106.799 62.9887 106.78 63.1749 106.943C63.7818 107.472 64.4299 107.967 65.1013 108.409C65.9983 109 66.9579 109.513 67.948 109.932C68.1754 110.029 68.2828 110.292 68.1861 110.52C68.1145 110.69 67.948 110.794 67.7743 110.794L67.7761 110.795Z" fill="#00151A"/>
<path d="M100.801 122.295C100.57 122.295 100.373 122.116 100.355 121.882C100.336 121.635 100.52 121.42 100.767 121.4C106.511 120.951 112.288 120.19 117.94 119.135C121.063 118.554 124.21 117.871 127.291 117.107C127.531 117.048 127.775 117.193 127.834 117.435C127.893 117.674 127.746 117.918 127.506 117.977C124.407 118.745 121.244 119.433 118.103 120.018C112.421 121.078 106.611 121.844 100.835 122.295C100.823 122.295 100.812 122.295 100.799 122.295H100.801Z" fill="#00151A"/>
<path d="M41.3951 187.478C41.2053 187.478 41.0388 187.461 40.9242 187.448C38.4249 187.179 36.6453 184.72 35.8074 183.276C35.6838 183.063 35.7554 182.79 35.9703 182.664C36.1833 182.541 36.4573 182.612 36.5826 182.827C37.1895 183.871 38.8349 186.324 41.0209 186.558C41.2751 186.585 41.8033 186.642 42.0826 186.381C42.2401 186.232 42.3118 185.976 42.2992 185.633L42.2885 185.629C40.8472 185.119 38.595 183.672 38.1169 182.285C37.8985 181.651 37.9827 181.039 38.3479 180.607C38.6684 180.227 39.1589 180.041 39.6298 180.12C41.293 180.398 41.9501 181.918 42.3852 182.924C42.4353 183.038 42.4818 183.149 42.5302 183.251C42.8149 183.878 43.0082 184.438 43.1121 184.934C43.3878 184.988 43.531 184.967 43.5668 184.945C43.7172 184.85 43.7745 184.575 43.8085 184.41C43.9553 183.694 43.5543 183.022 43.1676 182.449C42.3064 181.173 41.1946 179.866 39.8643 178.568C39.6871 178.396 39.6835 178.111 39.8572 177.934C40.0308 177.757 40.3137 177.753 40.491 177.927C41.8642 179.268 43.0154 180.62 43.9106 181.948C44.2633 182.471 44.9203 183.445 44.6858 184.589C44.6321 184.854 44.5175 185.407 44.043 185.704C43.8282 185.839 43.5489 185.889 43.198 185.853C43.1711 186.354 43.0046 186.75 42.6967 187.038C42.3046 187.403 41.7979 187.48 41.3987 187.48L41.3951 187.478ZM39.4185 180.997C39.2789 180.997 39.1303 181.067 39.03 181.185C38.8707 181.373 38.8474 181.66 38.962 181.993C39.2556 182.849 40.7685 183.989 42.0898 184.585C41.9949 184.288 41.8695 183.966 41.7138 183.622C41.6654 183.515 41.6153 183.4 41.5634 183.278C41.1623 182.353 40.6646 181.2 39.483 181.003C39.4615 180.999 39.44 180.997 39.4185 180.997Z" fill="#00151A"/>
<path d="M122.993 183.612C122.631 183.612 122.314 183.533 122.13 183.486C119.718 182.879 118.531 180.24 118.132 179.134C118.048 178.901 118.17 178.645 118.4 178.561C118.633 178.477 118.889 178.599 118.973 178.83C120.024 181.746 121.682 182.45 122.348 182.616C122.628 182.686 123.15 182.817 123.539 182.58C123.664 182.503 123.768 182.394 123.852 182.26C123.426 182.081 123.012 181.818 122.638 181.481C121.782 180.709 121.245 179.66 121.202 178.677C121.19 178.375 121.149 177.455 121.772 177.138C121.938 177.052 122.225 176.982 122.636 177.127C123.376 177.388 124.232 178.246 124.624 179.123C124.968 179.889 125.105 180.817 124.987 181.63C125.077 181.637 125.163 181.637 125.25 181.63C125.469 181.617 125.981 181.587 126.137 181.338C126.454 180.833 125.376 179.315 124.588 178.208C123.822 177.13 122.946 176.097 121.983 175.141C121.808 174.968 121.808 174.683 121.983 174.508C122.158 174.332 122.441 174.332 122.617 174.508C123.614 175.501 124.524 176.572 125.32 177.691C126.507 179.361 127.531 180.802 126.898 181.814C126.497 182.453 125.662 182.503 125.308 182.525C125.12 182.536 124.93 182.528 124.738 182.502C124.572 182.854 124.332 183.148 124.011 183.345C123.678 183.549 123.32 183.612 122.998 183.612H122.993ZM122.18 177.938C122.155 177.976 122.073 178.135 122.096 178.638C122.128 179.386 122.556 180.201 123.238 180.815C123.514 181.062 123.811 181.259 124.115 181.399C124.178 180.785 124.063 180.061 123.806 179.49C123.376 178.532 122.44 177.902 122.18 177.938Z" fill="#00151A"/>
<path d="M148.232 40.6614C148.07 40.6614 147.916 40.5755 147.836 40.4233C147.218 39.2542 146.409 38.2319 145.431 37.3814C144.894 36.9142 144.305 36.5006 143.679 36.1515C143.462 36.0315 143.385 35.7576 143.507 35.5427C143.628 35.3279 143.901 35.2491 144.115 35.3709C144.796 35.7504 145.435 36.1998 146.019 36.7065C147.08 37.6285 147.958 38.7385 148.627 40.0043C148.744 40.2228 148.659 40.4931 148.441 40.6095C148.375 40.6453 148.303 40.6614 148.232 40.6614Z" fill="#00151A"/>
<path d="M144.472 42.769C144.307 42.769 144.149 42.6795 144.071 42.522C143.525 41.4334 142.812 40.4451 141.956 39.5858C141.228 38.8535 140.402 38.2233 139.502 37.713C139.287 37.5913 139.212 37.3174 139.333 37.1025C139.455 36.8877 139.729 36.8125 139.944 36.9342C140.914 37.4857 141.806 38.1642 142.59 38.9538C143.514 39.8812 144.28 40.9464 144.869 42.1209C144.98 42.3411 144.891 42.6115 144.67 42.7225C144.606 42.7547 144.538 42.7708 144.47 42.7708L144.472 42.769Z" fill="#00151A"/>
</g>
<defs>
<clipPath id="clip0_7555_3620">
<rect width="200" height="200" fill="white" transform="translate(0 0.736328)"/>
</clipPath>
</defs>
</svg>
