<svg width="200" height="218" viewBox="0 0 200 218" fill="none" xmlns="http://www.w3.org/2000/svg">
<g clip-path="url(#clip0_7555_3656)">
<path d="M197.23 190.201C192.131 208.304 173.489 219.562 154.998 217.562C141.613 216.115 129.859 209.79 120.163 200.981C119.585 200.455 119.015 199.922 118.452 199.379C113.814 194.915 109.678 189.883 106.095 184.569C105.466 183.637 104.853 182.696 104.261 181.749C104.181 181.622 104.101 181.495 104.023 181.368C90.2855 159.129 87.4572 126.222 107.356 107.559C108.081 106.881 108.837 106.219 109.624 105.578C110.846 104.581 112.139 103.635 113.51 102.741C115.39 101.515 115.16 101.895 117.095 101.397C120.659 100.482 123.065 99.2466 127.055 98.9371C127.08 98.9371 127.105 98.9331 127.129 98.931C127.857 98.8777 128.586 98.8429 129.318 98.8285C149.042 98.4535 170.669 112.704 182.49 127.374C197.761 146.324 204.053 165.964 197.226 190.203L197.23 190.201Z" fill="#99D9E5"/>
<path d="M144.249 44.7549C144.249 44.7549 144.247 44.7713 144.243 44.8041C144.243 44.8143 144.24 44.8246 144.238 44.8369C144.222 45.0193 144.171 45.4989 144.093 46.2264C143.935 47.6918 143.671 50.1635 143.345 53.1968C143.257 54.0186 143.162 54.8835 143.066 55.7812C142.238 63.4483 141.144 73.4949 140.344 80.4284C140.129 82.3221 139.932 83.9822 139.771 85.3C139.348 88.7268 138.932 92.0572 138.518 95.2954C132.718 140.751 127.773 167.575 126.139 177.757C125.871 179.439 124.711 185.256 122.735 194.505C122.364 196.241 121.768 198.287 120.575 200.322C120.05 201.217 119.411 202.111 118.624 202.974C118.491 203.097 118.357 203.218 118.226 203.339C114.939 206.286 111.233 208.274 105.593 209.991C104.898 210.207 104.175 210.411 103.419 210.618C101.111 211.241 98.4998 211.842 95.5137 212.453C92.9641 212.971 90.3162 213.377 87.6027 213.668C86.8853 213.746 86.1557 213.816 85.4261 213.875C80.2491 214.314 74.8835 214.346 69.5897 213.992C68.8621 213.943 68.1345 213.887 67.4069 213.822C63.4432 213.475 59.5389 212.904 55.8068 212.121C55.0649 211.965 54.3312 211.801 53.6056 211.629C49.1398 210.569 44.9588 209.192 41.2677 207.503C40.9582 207.364 40.6549 207.22 40.3598 207.077C39.5236 206.673 38.7407 206.259 38.0295 205.821C35.857 204.49 34.3056 202.945 33.7235 200.805C28.5239 182.225 26.2572 162.052 24.0294 149.084C20.5534 128.87 14.7923 89.3232 11.2241 67.0759C11.0294 65.8585 10.8409 64.6944 10.6605 63.5877C10.3183 61.4972 9.65423 57.8081 9.29147 54.9511C9.17875 54.0719 9.09472 53.2726 9.05783 52.6229C8.80779 48.28 9.79565 47.4192 9.79565 47.4192C9.88787 47.7902 10.0108 48.237 10.1851 48.7309C10.3634 49.2371 10.5929 49.7946 10.8921 50.3787C11.1278 50.848 11.4106 51.3358 11.7468 51.8256C12.2427 52.5512 12.7879 53.1906 13.3638 53.7542C15.2862 55.652 17.5325 56.7178 19.2746 57.3695C19.8156 57.5745 20.3096 57.7384 20.7297 57.8737C21.0023 57.9618 21.2728 58.0479 21.5434 58.1319C23.5826 58.7796 25.5788 59.3616 27.5074 59.8843C32.6024 61.2697 37.2261 62.2473 40.9582 62.9237C41.7329 63.063 42.4687 63.1901 43.1594 63.3069C47.6211 64.0468 50.347 64.2907 50.347 64.2907C52.378 64.4751 54.2512 64.6452 56.0036 64.7989C58.7478 65.0367 61.1929 65.2375 63.4719 65.3892C64.2138 65.4384 64.9373 65.4855 65.6464 65.5224C66.2264 65.5552 66.7962 65.5819 67.3639 65.6064C67.8476 65.629 68.3251 65.6454 68.8006 65.6618C69.8704 65.6966 70.9239 65.7192 71.9835 65.7253C73.0963 65.7335 74.2154 65.7233 75.3569 65.6946H75.359C76.7281 65.6618 78.1299 65.6023 79.6035 65.5142C82.2924 65.3564 84.7867 65.131 87.2358 64.8399C87.9654 64.758 88.6889 64.6657 89.4144 64.5674C94.45 63.8931 99.5205 62.9401 106.028 61.7083H106.03C106.22 61.6735 106.409 61.6366 106.599 61.5997C107.651 61.4009 108.774 61.1836 109.977 60.9316C110.686 60.784 111.42 60.6262 112.184 60.4499H112.186C113.494 60.1568 114.888 59.8187 116.378 59.4293H116.38C117.304 59.1874 118.265 58.9251 119.263 58.6382C123.731 57.3511 127.301 56.3079 130.798 54.6949C131.361 54.4346 131.925 54.158 132.491 53.8628C132.493 53.8628 132.495 53.8608 132.497 53.8587C132.683 53.7624 132.87 53.662 133.056 53.5616C133.347 53.4038 133.643 53.2398 133.936 53.0697C134.313 52.8545 134.692 52.629 135.073 52.3913C136.909 51.2579 138.514 50.0692 139.902 48.9154C141.431 47.6447 142.693 46.415 143.701 45.3492C143.703 45.3451 143.708 45.3431 143.71 45.339C143.853 45.1853 143.992 45.0357 144.126 44.8902C144.169 44.843 144.208 44.7979 144.249 44.7549Z" fill="#99D9E5"/>
<path d="M143.915 44.2813C144.072 44.4411 144.208 44.683 144.249 44.7547C142.336 46.8554 139.324 49.7616 135.071 52.3932C130.05 55.5002 125.541 56.8303 119.261 58.638C114.113 60.1198 109.973 60.9601 106.597 61.6016C95.6633 63.6715 88.7955 64.9709 79.5994 65.5161C70.1041 66.0777 63.517 65.4833 50.3428 64.2925C50.3428 64.2925 36.8244 63.0731 20.7276 57.8735C18.5593 57.1726 14.4131 55.7338 11.7447 51.8255C10.5826 50.1244 10.0539 48.4725 9.79358 47.419C10.06 47.0481 10.6339 46.5132 10.7917 46.3677C11.4434 45.7774 12.0009 45.4044 12.3186 45.1646C13.3105 44.4206 14.823 43.402 17.1513 42.0617C20.7686 39.9773 23.7015 38.7907 25.6218 38.0242C26.622 37.6245 31.2088 35.8148 37.5663 34.331C41.0791 33.5112 43.8541 33.089 45.8483 32.7898C48.6704 32.3655 51.1667 32.0929 53.9581 31.8511C62.9411 31.0661 70.8316 30.9452 71.7929 30.9329C79.6486 30.8243 88.3425 30.7075 99.9119 31.8511C99.9119 31.8511 114.113 33.257 126.273 36.5301C128.156 37.0363 130.755 37.977 135.952 39.8585C135.952 39.8585 137.606 40.4549 142.002 42.8446C142.199 42.9511 143.062 43.4266 143.913 44.2813H143.915Z" fill="#00404D"/>
<path d="M40.3577 207.077C39.5215 206.671 38.7407 206.257 38.0274 205.82C37.2322 198.975 36.3756 192.046 35.4799 185.165C34.0391 174.1 33.0308 167.273 31.9609 160.047C31.1821 154.774 30.3746 149.32 29.3499 141.88C27.6693 129.657 26.454 119.409 24.0355 98.9924C22.4083 85.2465 20.8055 71.2546 19.2725 57.3672C19.8156 57.5742 20.3096 57.7361 20.7297 57.8714C21.0002 57.9574 21.2728 58.0456 21.5413 58.1296C23.0415 71.6829 24.6033 85.3243 26.1916 98.7362C28.608 119.139 29.8213 129.378 31.5019 141.583C32.5246 149.01 33.328 154.46 34.1088 159.729C35.1807 166.966 36.1891 173.799 37.6319 184.885C38.5931 192.277 39.5092 199.729 40.3557 207.075L40.3577 207.077Z" fill="#00151A"/>
<path d="M55.8068 212.121C55.0649 211.965 54.3332 211.801 53.6056 211.629C53.329 206.575 53.0031 201.472 52.6362 196.409C51.6422 182.694 50.6011 172.879 49.5948 163.392C49.4513 162.033 49.3099 160.687 49.1664 159.336C47.3772 142.291 46.3012 129.983 44.6719 111.353V111.331C43.2885 95.5272 42.0403 79.2542 40.9603 62.9238C41.735 63.0632 42.4687 63.1923 43.1614 63.3071C44.2333 79.4428 45.4671 95.521 46.8341 111.142V111.165C48.4635 129.782 49.5394 142.084 51.3287 159.109C51.4701 160.457 51.6135 161.806 51.755 163.163C52.7633 172.67 53.8044 182.502 54.8026 196.254C55.1858 201.533 55.524 206.856 55.8089 212.123L55.8068 212.121Z" fill="#00151A"/>
<path d="M69.5897 213.992C68.8601 213.943 68.1325 213.888 67.409 213.822C66.6548 199.162 66.0154 184.199 65.505 169.285C65.1115 157.764 64.798 146.183 64.4844 131.736C64.0192 110.314 63.6789 88.0078 63.474 65.3916C64.2139 65.4408 64.9373 65.4859 65.6465 65.5228C65.8514 88.0775 66.1916 110.323 66.6548 131.687C66.9684 146.125 67.284 157.699 67.6775 169.207C68.1899 184.207 68.8314 199.254 69.5917 213.99L69.5897 213.992Z" fill="#00151A"/>
<path d="M87.4429 140.825C86.9284 159.244 86.8772 161.168 87.0842 166.645C87.1191 167.557 87.16 168.567 87.2072 169.678C87.5453 177.874 88.1131 191.593 87.697 210.004C87.6704 211.221 87.6396 212.447 87.6027 213.666C86.8834 213.744 86.1558 213.814 85.4262 213.875C85.4631 212.57 85.4958 211.26 85.5266 209.955C85.9406 191.612 85.377 177.937 85.0388 169.766C84.9917 168.653 84.9507 167.641 84.9158 166.727C84.7047 161.181 84.758 159.246 85.2745 140.762C85.4467 134.572 85.6619 126.868 85.9365 116.539C86.3915 99.5851 86.826 82.2075 87.2379 64.838C87.9675 64.754 88.691 64.6618 89.4165 64.5654C89.0046 82.0435 88.5639 99.5319 88.109 116.596C87.8343 126.927 87.6191 134.632 87.4449 140.823L87.4429 140.825Z" fill="#00151A"/>
<path d="M112.184 60.4521C111.604 69.1031 111.065 77.9425 110.58 86.7718C110.112 95.2751 109.809 101.682 109.629 105.576C108.842 106.215 108.085 106.879 107.36 107.558C107.384 107.013 107.413 106.465 107.438 105.912L107.448 105.685C107.63 101.807 107.934 95.3202 108.411 86.6529C108.885 78.0286 109.409 69.392 109.977 60.9317C110.684 60.7862 111.418 60.6264 112.184 60.4521Z" fill="#00151A"/>
<path d="M106.099 184.568C105.913 190.669 105.778 196.709 105.677 203.384C105.644 205.591 105.616 207.801 105.593 209.99C104.898 210.203 104.175 210.41 103.419 210.615C103.441 208.211 103.472 205.78 103.507 203.349C103.624 195.518 103.792 188.562 104.027 181.362C104.105 181.491 104.185 181.616 104.265 181.744C104.859 182.692 105.47 183.631 106.099 184.564V184.568Z" fill="#00151A"/>
<path d="M133.054 53.5636C132.546 60.6835 131.997 67.908 131.417 75.0689C130.722 83.6481 130.195 89.5527 129.322 98.8287C128.591 98.8431 127.861 98.8779 127.133 98.9312C128.021 89.4892 128.552 83.5518 129.253 74.8927C129.798 68.1683 130.314 61.3885 130.796 54.6928C131.548 54.3465 132.298 53.9714 133.054 53.5615V53.5636Z" fill="#00151A"/>
<path d="M120.165 200.982C119.727 201.656 119.216 202.324 118.622 202.976C118.491 203.099 118.357 203.22 118.224 203.339C118.298 202.023 118.376 200.703 118.454 199.379C119.017 199.922 119.587 200.455 120.165 200.982Z" fill="#00151A"/>
<path d="M160.653 177C160.306 177 159.966 176.83 159.761 176.518C159.442 176.027 159.579 175.369 160.071 175.049C162.573 173.418 164.942 171.673 167.115 169.864C168.273 168.898 169.195 168.05 169.646 166.673C170.031 165.492 169.943 163.445 168.535 161.242C165.348 156.253 155.898 143.147 152.9 141.12C152.078 140.564 151.057 139.98 149.727 139.867C148.43 139.759 147.399 140.128 145.573 140.995C143.115 142.163 140.662 143.509 138.281 144.995C137.782 145.307 137.127 145.155 136.817 144.657C136.506 144.159 136.659 143.503 137.155 143.194C139.607 141.665 142.129 140.279 144.661 139.078C146.45 138.228 147.973 137.59 149.905 137.754C151.733 137.908 153.1 138.695 154.088 139.363C155.681 140.439 158.544 143.727 162.6 149.133C165.746 153.328 168.929 157.915 170.326 160.104C171.511 161.959 172.485 164.834 171.667 167.339C171.044 169.249 169.802 170.399 168.476 171.503C166.242 173.364 163.805 175.158 161.233 176.834C161.054 176.951 160.852 177.006 160.653 177.006V177Z" fill="#00151A"/>
<path d="M126.459 205.902C126.246 205.902 126.029 205.839 125.84 205.708C122.627 203.474 119.587 200.949 116.804 198.202C115.431 196.848 110.553 191.783 105.452 183.503C99.293 173.508 96.5426 164.541 95.6449 161.152C94.5402 156.973 93.0256 151.248 92.5645 144.616C92.0173 136.756 93.122 129.337 95.8457 122.57C97.264 119.045 101.033 109.681 110.317 103.661C115.156 100.523 120.143 99.142 122.682 98.5989C126.547 97.7709 130.509 97.5557 134.458 97.9595C135.055 98.0209 135.489 98.5538 135.428 99.1502C135.366 99.7466 134.835 100.179 134.237 100.12C130.515 99.7384 126.781 99.9413 123.137 100.722C120.743 101.235 116.046 102.534 111.498 105.483C102.789 111.13 99.334 119.715 97.8584 123.381C91.8492 138.314 95.5383 152.263 97.7436 160.598C98.6167 163.896 101.293 172.618 107.3 182.366C112.274 190.439 117.001 195.347 118.331 196.659C121.026 199.317 123.971 201.764 127.082 203.929C127.574 204.271 127.695 204.947 127.353 205.439C127.142 205.742 126.803 205.904 126.461 205.904L126.459 205.902Z" fill="#00151A"/>
<path d="M27.1426 213.473C25.1218 214.453 21.5762 210.874 20.1928 209.546C18.3953 207.821 16.7721 205.925 15.0711 204.109C14.8374 203.998 14.5628 204.138 14.3353 204.199C12.5584 204.689 10.4474 205.761 8.60491 206.388C6.86079 206.982 3.12661 208.485 1.61614 206.913C0.327003 205.57 2.27402 201.959 2.79459 200.504L6.28488 193.484C4.67398 191.9 3.06923 190.084 1.78419 188.221C-0.253005 185.27 -1.44171 182.026 3.54471 181.948C6.6251 181.901 9.86535 182.638 12.9109 183.077C12.9109 183.077 16.7455 178.162 17.9957 176.502C20.5391 173.121 22.935 171.364 24.5602 176.551C25.4559 179.413 25.6506 182.63 26.2183 185.573C29.1675 186.746 32.7685 187.326 35.5537 188.842C38.1238 190.242 37.3573 191.994 35.3672 193.484C33.1189 195.167 30.225 196.239 27.8271 197.706C27.8989 200.762 28.4543 203.791 28.6018 206.839C28.6859 208.601 28.9871 212.58 27.1446 213.473H27.1426Z" fill="#008099"/>
<path d="M144.761 44.3202C144.589 44.4944 144.415 44.6666 144.238 44.8367C144.24 44.8244 144.243 44.8141 144.243 44.8039C144.247 44.7711 144.249 44.7547 144.249 44.7547C144.208 44.7977 144.169 44.8428 144.126 44.8879C143.992 45.0355 143.853 45.1851 143.71 45.3388C143.708 45.3429 143.703 45.3449 143.701 45.349C141.799 47.1198 139.674 48.7348 137.496 50.3027C137.5 50.2719 137.502 50.2596 137.502 50.2596C137.465 50.2986 137.43 50.3375 137.393 50.3764H137.391C135.764 51.5467 134.108 52.6924 132.497 53.8585C132.495 53.8606 132.493 53.8626 132.491 53.8626C131.925 54.1578 131.361 54.4344 130.798 54.6947C127.301 56.3077 123.731 57.3509 119.263 58.638C118.265 58.9249 117.304 59.1872 116.38 59.4291H116.378C114.888 59.8185 113.494 60.1566 112.186 60.4497H112.184C111.42 60.626 110.686 60.7838 109.977 60.9313C108.774 61.1834 107.651 61.4007 106.599 61.5995C106.409 61.6364 106.22 61.6733 106.03 61.7081H106.028C99.5205 62.9398 94.45 63.8929 89.4144 64.5671C88.6889 64.6655 87.9654 64.7577 87.2358 64.8397C84.7867 65.1308 82.2924 65.3562 79.6035 65.514C78.1299 65.6021 76.728 65.6616 75.359 65.6944H75.3569C74.2154 65.7231 73.0963 65.7333 71.9835 65.7251L75.5188 54.7542C71.1186 51.559 66.6466 47.8166 62.9185 43.8427C57.0099 37.5487 53.0174 30.2484 64.8615 28.2747C72.1802 27.0593 80.1589 27.6496 87.5637 27.6025C87.5637 27.6025 94.9296 14.5246 97.3091 10.1244C102.154 1.16192 107.225 -3.87778 112.955 7.88427C116.115 14.3791 117.73 21.9643 120.14 28.7686C127.584 30.4984 136.362 30.5886 143.537 33.1996C150.157 35.6119 148.965 40.0552 144.761 44.3202Z" fill="#008099"/>
<path d="M144.249 44.7549C144.249 44.7549 144.247 44.7713 144.242 44.8041C144.242 44.8143 144.24 44.8246 144.238 44.8369C144.064 45.007 143.888 45.175 143.71 45.339C143.853 45.1853 143.992 45.0357 144.126 44.8902C144.169 44.843 144.208 44.7979 144.249 44.7549Z" fill="#028099"/>
<path d="M144.249 44.7549C144.249 44.7549 144.249 44.7713 144.242 44.8041C144.204 44.8328 144.165 44.8615 144.126 44.8881C144.169 44.843 144.208 44.8 144.249 44.7549Z" fill="#028099"/>
<path d="M64.3594 55.1614C62.0926 58.623 58.7478 61.6152 56.0036 64.7981C54.2513 64.6444 52.378 64.4743 50.347 64.2898C50.347 64.2898 47.6211 64.0459 43.1594 63.3061C42.4687 63.1892 41.7329 63.0622 40.9582 62.9228C37.2261 62.2465 32.6024 61.2689 27.5074 59.8834C25.5788 59.3608 23.5826 58.7787 21.5434 58.1311C21.2728 58.0471 21.0023 57.961 20.7297 57.8728C20.3096 57.7376 19.8156 57.5736 19.2746 57.3687C17.5325 56.7169 15.2863 55.6512 13.3638 53.7534C16.8111 52.911 20.4038 52.372 23.7773 51.6731C23.7773 51.6731 26.952 41.9155 27.9521 38.6445C29.9893 31.9857 32.707 27.9236 38.134 35.0353C41.1263 38.9601 43.2332 43.8256 45.7643 48.0619C50.9844 48.2177 56.8808 47.0925 62.0434 47.8754C66.8024 48.5989 66.6015 51.7367 64.3594 55.1614Z" fill="#008099"/>
</g>
<defs>
<clipPath id="clip0_7555_3656">
<rect width="200" height="217.064" fill="white" transform="translate(0 0.736328)"/>
</clipPath>
</defs>
</svg>

