<svg width="200" height="178" viewBox="0 0 200 178" fill="none" xmlns="http://www.w3.org/2000/svg">
<g clip-path="url(#clip0_7555_3844)">
<path d="M37.5616 37.6963C40.6794 37.2848 43.0174 39.2327 43.4343 42.2984C44.1926 47.862 39.1268 58.9891 37.3621 64.718C33.3638 77.6871 30.2765 94.2627 32.5192 107.663C33.0781 111.009 34.5103 117.529 35.1716 118.912C39.0657 127.073 27.4211 129.969 21.6239 130.647C19.4639 130.9 13.7332 131.77 13.3235 129.4C9.01243 104.434 9.95945 79.998 18.7738 60.4249C21.6922 53.9431 29.8866 38.7062 37.5616 37.6945V37.6963Z" fill="#E8AA7D"/>
<path d="M98.3708 84.4026C98.1103 85.0441 97.2585 85.5868 96.6044 85.7683C94.6924 86.3002 90.5556 86.3505 88.4405 86.4188C59.1312 87.3479 31.9226 79.2739 6.73022 64.9014C3.69866 63.1708 -0.684265 61.62 0.225025 57.3485L4.43004 42.9472C5.05361 41.9193 6.66912 42.4584 7.74014 42.3416C14.4161 41.6156 20.2402 37.0422 18.9535 29.7625C18.2868 25.987 15.789 23.4154 13.1312 20.896C12.7826 20.5654 11.9901 20.2689 11.9649 19.7334C11.9452 19.3308 13.0881 16.2885 13.3217 15.6074C14.301 12.7448 17.0217 4.27184 18.6175 2.29872C19.1476 1.6446 19.8538 1.00846 20.7164 0.871887C21.6994 0.715546 22.1864 0.997677 23.0256 1.4074C25.9152 2.81985 29.4175 5.75797 32.3395 7.56577C47.9987 17.2535 64.9715 23.5484 83.7395 22.9644C85.2077 22.9177 86.958 22.5996 88.4244 22.5565C92.703 22.4271 95.2063 22.4271 95.7742 27.3653C96.13 30.458 96.6565 40.6776 96.333 41.6282C96.1893 42.0469 93.5459 42.807 92.9025 43.0946C80.9883 48.4101 80.8086 60.1213 93.6231 63.9849C94.5737 64.2724 97.4454 64.533 97.6934 65.3991C97.8946 66.0964 97.9719 74.8209 98.1193 78.095C98.1858 79.5758 98.8524 83.2165 98.3708 84.4026Z" fill="#86B200"/>
<path d="M51.4921 95.0265C57.2354 87.4179 69.5251 82.9577 78.9433 84.7349C84.2697 85.7395 89.2654 90.7819 86.2194 96.3401C82.7584 102.657 73.971 99.6358 69.0489 103.846C64.0317 108.137 60.6299 118.167 61.4458 124.674C61.3685 125.405 46.7552 122.706 41.6732 122.519C41.1143 122.42 44.0794 104.844 51.4921 95.0265Z" fill="#E8AA7D"/>
<path d="M35.5184 124.441C31.2793 122.563 30.0771 117.141 29.777 112.947C28.4561 94.4052 34.4941 61.1982 48.8649 48.2165C52.7123 44.7411 59.9956 40.0922 65.0937 43.5533C72.0014 48.2435 62.9193 60.2601 60.2939 65.1282C54.2469 76.3398 51.5334 88.3385 51.1147 100.993C51.0033 104.362 51.643 125.301 51.3376 125.695C49.7328 127.756 40.2697 126.543 35.5184 124.439V124.441Z" fill="#E8AA7D"/>
<path d="M63.4207 120.527C64.4234 125.583 65.259 130.347 67.6958 134.957C68.0875 135.699 70.4919 139.133 70.5189 139.395C70.6429 140.626 66.1575 147.931 65.1871 149.338C59.0539 158.232 50.2539 166.408 39.8061 169.785C38.1708 170.313 31.4392 172.078 30.1723 171.503C29.6979 171.287 27.5397 168.758 27.0401 168.173C18.8655 158.559 13.0719 145.593 11.2048 133.088C11.0359 131.954 10.3099 129.576 11.424 129.064C20.4145 125.598 29.7931 122.187 39.3371 120.55C47.3194 119.181 55.4401 119.172 63.4207 120.527Z" fill="#C1DB70"/>
<path d="M18.7882 82.5713C18.7361 82.5713 18.6858 82.5677 18.6319 82.5587C18.0928 82.4742 17.7244 81.9675 17.8106 81.4284C18.1035 79.5703 18.4737 77.7014 18.9068 75.8738C19.25 74.429 19.6418 72.977 20.0731 71.5538C20.2312 71.0308 20.7811 70.7361 21.3058 70.8943C21.8288 71.0524 22.1235 71.6041 21.9653 72.127C21.5466 73.5107 21.1639 74.9268 20.8314 76.332C20.4091 78.1111 20.0497 79.9297 19.764 81.7375C19.6867 82.2244 19.2662 82.5713 18.7882 82.5713Z" fill="#00151A"/>
<path d="M31.7788 82.7746C31.7213 82.7746 31.662 82.7692 31.6027 82.7584C31.0654 82.6614 30.7078 82.1474 30.8049 81.6101C30.9324 80.9039 31.0708 80.1905 31.2164 79.4878C31.4248 78.4833 31.6548 77.4698 31.901 76.4742C32.0322 75.9441 32.5677 75.6207 33.0978 75.7518C33.628 75.883 33.9514 76.4185 33.8202 76.9487C33.5794 77.919 33.3548 78.9092 33.1518 79.8886C33.0098 80.5732 32.875 81.2705 32.751 81.9605C32.6648 82.4385 32.2479 82.7746 31.7788 82.7746Z" fill="#00151A"/>
<path d="M23.2196 65.2947C23.1621 65.2947 23.1046 65.2893 23.0471 65.2803C22.5098 65.1851 22.1504 64.6729 22.2457 64.1356C23.748 55.6447 25.987 47.2293 28.9018 39.1248C31.2649 32.5549 34.1078 26.0874 37.355 19.8985C37.6083 19.4151 38.2068 19.2282 38.6902 19.4834C39.1735 19.7368 39.3604 20.3352 39.1071 20.8186C35.903 26.9266 33.096 33.3114 30.7635 39.7951C27.8883 47.7936 25.6762 56.0994 24.1936 64.4807C24.1092 64.9605 23.6923 65.2965 23.2214 65.2965L23.2196 65.2947Z" fill="#F6FAEB"/>
<path d="M189.352 45.5363C191.449 45.3692 196.114 44.9577 197.129 47.2381C197.931 49.0387 198.377 54.7137 198.596 56.9348C201.033 81.7462 199.489 104.66 185.948 126.149C183.111 130.652 175.722 141.091 169.371 138.059C164.49 135.729 167.755 126.503 168.972 122.686C170.28 118.583 171.951 114.585 173.19 110.452C177.199 97.0622 179.619 80.5152 179.021 66.5219C178.976 65.4652 175.713 58.6887 175.062 57.3589C170.986 49.0459 183.517 46.0018 189.354 45.5345L189.352 45.5363Z" fill="#E8AA7D"/>
<path d="M157.374 82.4959C150.883 89.0999 137.947 94.1567 129.019 90.8682C122.415 88.435 120.834 80.4886 127.373 76.7796C132.151 74.0697 137.129 76.1722 141.607 72.0175C144.964 68.9015 147.65 61.1599 148.572 56.7015C148.978 54.7392 148.856 51.4561 148.856 51.4561C148.856 51.4561 167.831 53.7077 167.958 53.8856C168.188 54.2073 167.962 71.721 157.372 82.4959H157.374Z" fill="#E8AA7D"/>
<path d="M183.084 115.755C182.728 118.589 181.183 122.149 179.413 125.414C178.058 127.912 176.57 130.237 175.382 131.93C174.873 132.654 174.137 133.74 173.376 134.867C171.853 137.125 170.244 139.55 170.244 139.55C170.244 139.55 179.511 160.016 178.784 164.692C178.013 169.639 172.442 168.534 168.88 167.783C163.302 166.604 150.037 161.843 150.037 161.843C150.037 161.843 140.047 169.646 135.195 172.979C133.086 174.43 128.234 177.307 125.721 177.172C124.897 177.127 123.822 176.566 123.295 175.919C122.038 174.376 121.441 170.298 121.234 168.289C120.602 162.149 120.868 155.719 120.251 149.552C116.706 147.135 112.803 145.165 109.183 142.795C106.574 141.088 100.588 137.196 99.2963 134.529C98.1049 132.065 99.1813 129.499 101.359 128.015C106.283 124.656 121.831 121.243 122.095 120.906C123.103 116.884 123.676 112.713 124.647 108.65C125.524 104.984 128.034 94.6853 130.543 92.324C131.474 91.4489 132.2 91.235 133.485 91.3465C137.474 91.6951 145.192 100.885 147.692 104.127C149.8 106.864 151.647 109.795 153.658 112.6C156.389 112.185 174.654 110.089 179.251 110.411C180.971 110.531 182.042 111.18 182.617 112.195C183.145 113.119 183.262 114.348 183.084 115.755Z" fill="#008099"/>
<path d="M163.676 52.9586C180.795 45.2835 180.958 61.6831 180.385 73.5847C179.515 91.6717 173.236 122.683 155.838 132.076C149.706 135.386 141.934 134.5 142.804 125.898C143.305 120.941 147.323 115.89 149.668 111.611C158.639 95.2388 159.847 78.097 159.241 59.6686C159.263 58.9373 163.676 52.9604 163.676 52.9604V52.9586Z" fill="#E8AA7D"/>
<path d="M178.189 4.8021C178.866 4.7446 179.688 4.57568 180.295 4.92789C189.97 15.2104 196.872 28.812 198.955 42.8665C199.117 43.9555 199.834 46.678 198.846 47.1973C183.533 53.4168 168.077 58.08 151.298 56.4447C150.589 56.3747 147.251 56.0171 146.894 55.7583C146.457 55.4402 145.681 50.0384 145.424 49.0033C144.308 44.5108 142.267 40.5447 139.654 36.7656C142.897 29.2721 148.003 22.19 153.94 16.5887C160.256 10.628 169.382 5.54607 178.189 4.8021Z" fill="#99D9E5"/>
<path d="M186.804 107.397C186.387 108.835 184.647 112.617 183.084 115.755C183.262 114.348 183.145 113.119 182.617 112.195C183.686 109.942 184.629 107.798 184.906 106.845C185.059 106.321 185.607 106.019 186.132 106.173C186.655 106.324 186.957 106.874 186.804 107.397Z" fill="#00151A"/>
<path d="M173.118 110.614C172.949 110.614 172.78 110.571 172.624 110.481C172.151 110.208 171.989 109.602 172.264 109.13C172.6 108.547 173.021 107.552 173.231 106.925C173.526 106.049 173.824 105.102 174.009 104.109C174.11 103.573 174.625 103.219 175.163 103.32C175.7 103.42 176.052 103.936 175.952 104.474C175.743 105.586 175.421 106.612 175.103 107.557C174.859 108.285 174.392 109.399 173.973 110.122C173.79 110.438 173.457 110.616 173.118 110.616V110.614Z" fill="#00151A"/>
</g>
<defs>
<clipPath id="clip0_7555_3844">
<rect width="200" height="176.55" fill="white" transform="translate(0 0.736328)"/>
</clipPath>
</defs>
</svg>
