<svg width="200" height="201" viewBox="0 0 200 201" fill="none" xmlns="http://www.w3.org/2000/svg">
<path d="M152.532 86.4408C154.006 86.1669 154.652 86.8007 155.771 87.5974C157.597 88.899 159.3 90.8003 161.077 92.2434C170.624 99.9939 181.411 106.869 193.324 110.339C196.165 111.166 201.001 111.168 199.253 115.599L192.776 124.547C189.29 123.863 185.582 123.138 182.309 124.996C178.063 127.406 178.215 132.681 181.264 136.059C181.633 136.467 183.226 137.703 183.224 138.002L178.541 145.032C177.551 146.115 176.697 146.15 175.309 146.11C158.412 145.612 138.902 135.483 127.705 123.081C126.62 121.878 124.101 119.213 124.332 117.568C124.536 116.109 126.858 113.121 127.814 111.866C128.325 111.196 131.049 107.755 131.519 107.556C131.835 107.422 133.758 108.16 134.363 108.226C140.474 108.91 144.355 104.565 143.802 98.592C143.722 97.7255 142.882 95.697 143.118 95.1796C145.15 93.3015 146.855 91.1047 148.874 89.2195C149.684 88.4657 151.558 86.6198 152.532 86.439V86.4408Z" fill="#86B200"/>
<path d="M141.679 126.891C141.57 126.891 141.46 126.866 141.357 126.814C141.004 126.637 140.861 126.205 141.04 125.853C143.732 120.512 146.991 115.435 150.725 110.765C154.419 106.146 158.603 101.892 163.163 98.1235C163.468 97.8711 163.919 97.9141 164.171 98.2184C164.424 98.5228 164.381 98.974 164.076 99.2264C159.593 102.932 155.477 107.115 151.844 111.659C148.172 116.251 144.968 121.244 142.32 126.497C142.194 126.748 141.942 126.891 141.679 126.891Z" fill="#F6FAEB"/>
<path d="M1.21748 109.077C1.32669 108.949 3.55391 108.255 4.10176 107.959C10.479 104.515 7.7738 97.808 1.77787 96.3274C1.58988 96.1108 1.87455 91.3108 1.95511 90.5929C2.02494 89.9895 2.32214 87.8536 2.62292 87.5528C3.62552 86.5448 10.7512 87.0873 12.5953 86.9889C23.6955 86.3998 34.6651 81.6607 42.9778 74.4456C45.1549 73.545 45.8083 76.5958 46.2971 78.0496C47.0455 80.2768 47.6327 82.6383 48.2003 84.921C47.1243 86.4303 45.6615 87.3827 44.7771 89.123C42.8417 92.9347 44.4495 96.8788 49.0811 96.5476C49.8832 96.4903 50.7354 96.0177 51.26 95.9837C51.4301 95.9729 51.5232 95.9837 51.6091 96.1484L54.0404 105.057C54.0637 105.523 53.5964 106.853 53.2616 107.168C39.2592 114.421 21.8139 121.29 5.85632 116.931C4.80896 116.644 1.66149 115.645 1.12796 114.829C0.649935 114.099 0.809278 109.549 1.21927 109.077H1.21748Z" fill="#86B200"/>
<path d="M17.3236 114.051C17.0049 114.051 16.7131 113.836 16.6307 113.514C15.5547 109.331 14.9335 105.027 14.7884 100.721C14.6667 97.1408 14.8744 93.5242 15.4025 89.9757C15.4616 89.5836 15.8251 89.3133 16.2172 89.3724C16.6092 89.4314 16.8778 89.7949 16.8205 90.187C16.3049 93.6495 16.1026 97.1784 16.2207 100.673C16.3622 104.875 16.9673 109.075 18.0183 113.157C18.1167 113.541 17.8858 113.931 17.5026 114.029C17.4436 114.045 17.3827 114.053 17.3236 114.053V114.051Z" fill="#F6FAEB"/>
<path d="M75.6931 44.6573C75.0987 46.9382 74.5258 49.3069 73.6664 51.4768C73.5214 51.5842 73.3513 51.7346 73.1777 51.7758C72.7623 51.8761 69.3534 51.3389 68.6409 51.2172C56.7296 49.1959 47.878 40.7686 40.1132 32.1355C39.9467 31.8132 39.7999 31.4444 39.8017 31.0774C39.8034 30.3773 43.1622 24.4136 43.5453 24.1845C43.9284 23.9553 45.0062 24.6374 45.5774 24.718C49.7095 25.3088 52.1104 21.7549 50.7676 17.9665C50.449 17.0696 49.7364 16.4143 49.4517 15.5477C49.5645 15.0375 53.5642 9.83827 54.0512 9.61089C54.2857 9.50168 54.4307 9.47303 54.6868 9.54286C55.1755 9.67713 57.0411 13.2811 57.5943 14.0635C62.1723 20.5375 69.2693 24.8845 76.873 26.9792C78.0707 27.3087 80.6041 27.169 80.7724 28.5565C80.955 30.0497 78.6508 34.0619 78.538 35.8594C78.2838 36.2014 76.6528 36.0152 76.0476 36.1011C71.1026 36.8048 71.2817 43.1999 75.6895 44.6537L75.6931 44.6573Z" fill="#86B200"/>
<path d="M62.1795 45.435C62.0541 45.435 61.9288 45.4028 61.8142 45.3347C61.4741 45.1324 61.3631 44.692 61.5654 44.3536C63.157 41.6824 64.6179 38.893 65.9106 36.0642C67.2283 33.1799 68.3974 30.1882 69.3857 27.1733C69.5092 26.7973 69.9121 26.5932 70.2898 26.7167C70.6658 26.8403 70.8699 27.2449 70.7464 27.6209C69.7402 30.686 68.5514 33.726 67.2122 36.6586C65.8998 39.5339 64.412 42.3699 62.7953 45.0859C62.6611 45.3115 62.4229 45.435 62.1795 45.435Z" fill="#F6FAEB"/>
<path d="M56.7814 110.394C56.6257 110.219 57.1771 108.91 57.5585 108.835C57.8109 109.177 57.1556 110.817 56.7814 110.394Z" fill="#CBD375"/>
<path d="M152.102 184.546C139.391 192.828 115.781 192.14 100.973 191.567C84.8025 190.941 65.2463 190.239 50.1535 184.046C34.3446 177.561 27.0041 155.031 28.4901 139.176C31.4711 107.374 57.6014 82.7365 86.3386 72.3416C87.3126 71.9889 91.998 70.7464 92.3077 70.3113C92.9307 69.443 91.5969 66.3833 91.3695 65.1712C89.4359 54.8014 92.4312 41.3969 100.486 34.1961C101.412 33.3689 103.643 31.3959 104.781 31.9545C103.521 37.0607 102.91 43.6582 108.933 45.8585C113.973 47.4949 118.254 49.8743 119.921 55.2902C120.796 58.4412 122.85 63.5473 125.854 65.907C119.097 63.2842 106.391 62.6396 103.941 71.4088C101.952 78.5309 111.175 89.3018 116.095 93.9084C122.789 100.178 131.23 103.806 138.988 108.48C149.811 115.004 162.418 125.299 167.507 137.133C174.777 154.041 167.17 174.725 152.102 184.546Z" fill="#008099"/>
<path d="M129.671 63.0466C128.734 64.5093 126.819 65.9112 125.854 65.9076C122.85 63.5479 120.796 58.4418 119.92 55.2907C118.254 49.8749 113.973 47.4955 108.933 45.8591C102.91 43.6587 103.521 37.0612 104.781 31.9551C105.297 32.2093 105.938 33.6022 107.171 34.4562C113.742 39.0055 119.917 38.1372 125.369 43.05C131.314 48.4085 132.8 58.166 129.671 63.0466Z" fill="#00404D"/>
<path d="M78.9909 144.035C75.6089 142.257 71.7579 140.191 68.8754 137.665C58.2209 128.33 78.1262 128.042 83.4311 126.459C84.8329 123.156 85.7585 119.577 87.0207 116.195C88.197 113.042 90.4368 105.29 94.9252 109.664C98.463 113.108 100.629 119.602 103.216 123.811C103.56 124.021 106.187 123.918 106.837 123.915C110.068 123.892 113.328 123.582 116.583 123.908C128.627 125.116 113.738 136.313 111.214 140.014C111.164 140.47 111.373 140.859 111.517 141.269C113.262 146.3 117.742 153.306 118.39 158.396C119.57 167.68 107.904 161.11 103.997 159.13C101.947 158.091 98.6205 155.749 96.7299 155.082C96.4613 154.987 96.2125 154.87 95.9135 154.924C91.801 157.842 88.2042 161.806 83.7676 164.259C81.8197 165.337 78.7654 166.597 77.6213 163.847C76.8389 161.966 77.2597 157.722 77.4655 155.615C77.6142 154.088 79.3007 144.533 78.9927 144.035H78.9909Z" fill="#99D9E5"/>
<path d="M77.659 101.322C77.5659 102.142 74.9179 110.405 74.5026 111.239C71.6344 117.006 43.386 179.998 43.1192 179.764C36.6811 174.128 31.9205 164.939 29.9099 156.681C22.3349 125.539 44.5193 92.6731 71.706 79.163C71.9405 79.0466 71.8027 78.9249 72.1017 79.163C72.4007 79.4011 77.8004 100.089 77.659 101.322Z" fill="#008099"/>
<path d="M104.785 76.0161C103.474 76.0161 101.96 75.8138 100.434 75.42C98.4522 74.9097 95.5518 73.8534 92.9952 71.7246C92.2969 71.1428 91.5128 70.4427 90.9005 69.7051C89.9605 69.8358 89.1387 69.9701 88.4906 70.0757C85.0746 70.6361 81.6657 71.6029 78.3554 72.9492C77.9901 73.0978 77.5712 72.9224 77.4226 72.5554C77.274 72.1883 77.4494 71.7712 77.8165 71.6226C81.2253 70.2351 84.738 69.2378 88.2597 68.6613C88.4297 68.6327 88.6088 68.604 88.795 68.5736C86.1757 67.4528 83.5868 66.0528 81.0481 64.377C80.7186 64.1586 80.6273 63.7145 80.844 63.3851C81.0624 63.0557 81.5064 62.9644 81.8358 63.181C84.4569 64.9105 87.1299 66.3392 89.8334 67.4564C89.828 67.2201 89.8674 66.9873 89.9569 66.7617C90.1807 66.2014 90.691 65.7806 91.4698 65.5103C93.7131 64.7297 98.4934 65.2381 102.302 67.4188C103.591 68.1564 104.377 68.7652 104.849 69.2593C106.027 69.834 107.062 70.611 107.87 71.6441C108.348 72.2564 109.236 73.395 108.774 74.4872C108.507 75.1156 107.861 75.5578 106.851 75.8013C106.26 75.9445 105.558 76.0144 104.787 76.0144L104.785 76.0161ZM93.5019 70.2744C93.6308 70.3872 93.7686 70.5036 93.9136 70.6236C96.515 72.7899 102.5 75.3841 106.514 74.4102C107.162 74.2526 107.411 74.0324 107.456 73.9286C107.545 73.7191 107.306 73.2464 106.742 72.5249C106.341 72.0093 105.861 71.5707 105.322 71.1947C104.953 71.7551 103.623 72.4265 97.1614 71.1696C95.9385 70.9315 94.7175 70.6325 93.5019 70.2744ZM95.2851 69.279C95.9994 69.4616 96.7174 69.6228 97.4335 69.7624C100.701 70.398 103.016 70.5537 103.882 70.3998C101.422 69.3255 98.2302 69.1376 95.2851 69.279ZM91.5289 68.1171C91.5665 68.1314 91.6041 68.1439 91.6417 68.1582C94.1876 67.8378 97.2867 67.614 100.191 67.9738C97.5266 66.8405 93.9459 66.1656 91.9407 66.8638C91.5915 66.9855 91.348 67.1467 91.2872 67.2971C91.28 67.315 91.1977 67.5531 91.5271 68.1171H91.5289Z" fill="#00151A"/>
</svg>
