<svg width="200" height="221" viewBox="0 0 200 221" fill="none" xmlns="http://www.w3.org/2000/svg">
<g clip-path="url(#clip0_7555_3678)">
<path d="M151.733 39.5428C159.378 38.7735 158.684 44.6546 160.155 50.1759C164.769 67.4989 196.658 146.615 197.366 149.172C197.817 150.804 196.794 150.916 195.606 151.52C183.383 157.723 168.302 163.689 155.435 168.677C148.64 171.311 147.258 171.356 140.137 169.764C129.262 167.332 118.516 164.227 107.822 161.13C104.282 160.624 81.0959 176.624 72.8754 182.671C67.4511 186.66 65.432 186.919 62.7644 180.326C57.1265 166.385 31.1973 96.5644 24.9206 75.6918C24.715 75.0728 25.156 74.5468 25.595 74.1809C34.7607 67.4475 59.9701 48.2636 62.9839 47.346C68.0502 45.8036 99.6213 51.6906 108.354 52.1929C115.422 52.6003 145.923 40.1281 151.735 39.5428H151.733Z" fill="#99D9E5"/>
<path d="M19.4489 101.55V100.85C19.4568 101.085 19.4686 101.32 19.4489 101.55Z" fill="#88BDC9"/>
<path d="M19.4489 101.55V100.85C19.4568 101.085 19.4686 101.32 19.4489 101.55Z" fill="#90BFCA"/>
<path d="M64.4551 144.94C62.4282 148.083 54.2867 146.06 51.1682 145.367C47.1163 144.468 43.1672 143.176 39.1746 142.063C38.7454 142.106 38.4765 142.542 38.2076 142.828C36.1015 145.063 34.0271 148.413 31.9487 150.902C29.9831 153.258 25.9687 158.627 22.4586 157.697C19.4607 156.902 19.1067 150.08 18.5886 147.56L17.4812 134.552C13.8189 133.69 9.96468 132.498 6.52578 130.959C1.07377 128.525 -3.42508 124.936 3.60301 120.51C7.94564 117.777 13.194 116.021 17.9044 114.012C17.9044 114.012 19.1087 103.699 19.4488 100.256C20.143 93.2441 22.0295 88.674 28.8302 94.6461C32.5815 97.9426 35.6407 102.351 38.9966 106.046C44.2073 105.161 49.8314 102.871 55.1074 102.617C59.9741 102.386 60.4012 105.54 58.8588 109.385C57.1166 113.725 53.9249 117.753 51.7852 121.916C54.532 126.201 57.9432 130.03 60.7888 134.24C62.4341 136.676 66.3041 142.073 64.4551 144.94Z" fill="#008099"/>
<path d="M187.174 36.8416C189.638 37.8402 192.626 38.8072 195.03 39.9443C198.655 41.6588 202.869 43.6897 197.318 47.1939C194.465 48.9954 190.526 50.9709 187.269 52.1733C187.52 57.297 187.846 59.9726 187.552 65.6599C187.465 67.323 187.328 70.5029 185.26 70.756C181.409 71.2266 172.433 59.1242 171.451 57.829C167.581 58.5132 163.736 60.285 159.835 60.7873C151.703 61.8334 155.015 56.2588 157.345 52.0487C158.808 49.4047 160.586 46.923 162.079 44.2948C161.417 43.5197 157.345 37.6504 156.479 35.748C151.735 25.2988 166.665 30.733 171.458 32.1252L178.93 23.8513C184.771 18.1956 185.803 23.1592 186.474 28.5973C186.62 29.7799 186.871 36.541 187.174 36.8416Z" fill="#008099"/>
<path d="M114.028 192.463C115.524 189.718 116.966 186.481 118.754 183.936C119.8 182.448 121.269 180.437 123.114 182.261C124.916 184.04 126.891 192.951 127.419 193.258C130.119 193.736 133.024 193.971 135.66 194.715C144.24 197.135 132.964 202.376 130.488 204.913C131.03 208.658 132.749 212.795 133.024 216.533C133.783 226.869 121.789 214.943 118.88 212.791C115.774 213.891 110.132 218.435 106.855 217.917C106.384 217.842 105.92 217.577 105.682 217.152C104.33 214.741 108.152 206.645 108.682 203.825C108.599 203.232 107.035 202.36 106.517 201.878C105.457 200.891 103.976 199.514 103.066 198.433C96.5245 190.659 110.005 192.864 114.029 192.465L114.028 192.463Z" fill="#008099"/>
<path d="M140.354 1.76433C141.094 4.32719 141.147 6.52817 141.408 9.13256C141.586 9.41336 148.745 11.9703 148.745 13.5088C148.745 15.3004 143.388 17.0308 141.966 17.7071C141.622 20.4301 143.803 32.0579 137.981 27.3039C136.951 26.4635 134.083 23.1947 132.871 21.407C130.54 22.1051 126.183 23.4735 124.346 23.0503C124.054 22.9831 123.684 22.8308 123.581 22.5243C122.871 20.4301 126.593 15.9075 127.431 13.9241C126.818 12.3164 122.383 7.90056 124.178 6.16826C125.481 4.91254 130.455 6.27505 132.666 6.90785C133.975 5.71343 137.309 1.10384 138.841 0.77953C139.769 0.583756 140.156 1.07813 140.354 1.76235V1.76433Z" fill="#008099"/>
<path d="M101.33 151.024C100.747 151.024 100.203 150.652 100.013 150.066C94.5806 133.343 89.5162 119.929 83.6529 104.398C82.7116 101.902 81.7485 99.353 80.7618 96.7289C78.013 89.422 75.4086 82.5699 72.8893 75.9452C70.7595 70.3468 68.5585 64.5586 66.2468 58.4283C65.9778 57.7125 66.3378 56.9136 67.0536 56.6446C67.7695 56.3737 68.5684 56.7356 68.8373 57.4515C71.1491 63.5778 73.35 69.366 75.4778 74.9624C77.9992 81.591 80.6036 88.4431 83.3543 95.7559C84.3411 98.3801 85.3021 100.927 86.2434 103.421C92.1186 118.984 97.1929 132.427 102.647 149.212C102.882 149.94 102.485 150.721 101.759 150.956C101.617 151.002 101.472 151.024 101.332 151.024H101.33Z" fill="#00151A"/>
<path d="M146.034 156.159C145.432 156.159 144.879 155.766 144.705 155.158C139.82 138.266 135.197 124.695 129.842 108.979C128.981 106.454 128.103 103.877 127.202 101.222C124.694 93.8297 122.313 86.8985 120.011 80.1948C118.066 74.5292 116.054 68.6698 113.941 62.4663C113.693 61.7426 114.081 60.9555 114.805 60.7103C115.528 60.4631 116.315 60.8507 116.561 61.5745C118.673 67.774 120.684 73.6314 122.628 79.297C124.93 86.0027 127.31 92.9359 129.822 100.332C130.722 102.986 131.6 105.562 132.46 108.086C137.825 123.833 142.458 137.434 147.361 154.387C147.572 155.121 147.149 155.888 146.415 156.102C146.287 156.139 146.158 156.157 146.03 156.157L146.034 156.159Z" fill="#00151A"/>
</g>
<defs>
<clipPath id="clip0_7555_3678">
<rect width="200" height="219.955" fill="white" transform="translate(0 0.736328)"/>
</clipPath>
</defs>
</svg>
