<svg width="70" height="42" viewBox="0 0 70 42" fill="none" xmlns="http://www.w3.org/2000/svg">
<path fill-rule="evenodd" clip-rule="evenodd" d="M55.6586 2C54.8349 4.33038 52.6124 6 50 6C47.3876 6 45.1651 4.33038 44.3414 2H4C2.89543 2 2 2.89543 2 4V38C2 39.1046 2.89543 40 4 40H44.3414C45.1651 37.6696 47.3876 36 50 36C52.6124 36 54.8349 37.6696 55.6586 40H66C67.1046 40 68 39.1046 68 38V4C68 2.89543 67.1046 2 66 2H55.6586ZM54 0C54 2.20914 52.2091 4 50 4C47.7909 4 46 2.20914 46 0H4C1.79086 0 0 1.79086 0 4V38C0 40.2091 1.79086 42 4 42H46C46 39.7909 47.7909 38 50 38C52.2091 38 54 39.7909 54 42H66C68.2091 42 70 40.2091 70 38V4C70 1.79086 68.2091 0 66 0H54Z" fill="black" fill-opacity="0.6"/>
<path fill-rule="evenodd" clip-rule="evenodd" d="M49 8.5V6H51V8.5H49ZM49 18.5V13.5H51V18.5H49ZM49 28.5V23.5H51V28.5H49ZM49 36V33.5H51V36H49Z" fill="black" fill-opacity="0.6"/>
<g clip-path="url(#clip0_1958_285)">
<path fill-rule="evenodd" clip-rule="evenodd" d="M12.8819 27L11.7764 26.4472L12.2236 25.5528L13.3292 26.1056C13.7514 26.3167 14.2485 26.3167 14.6708 26.1056L14.8819 26C15.5858 25.6481 16.4142 25.6481 17.118 26L17.3292 26.1056C17.7514 26.3167 18.2485 26.3167 18.6708 26.1056L18.8819 26C19.5858 25.6481 20.4142 25.6481 21.118 26L21.3292 26.1056C21.7514 26.3167 22.2485 26.3167 22.6708 26.1056L22.8819 26C23.5858 25.6481 24.4142 25.6481 25.118 26L25.3292 26.1056C25.7514 26.3167 26.2485 26.3167 26.6708 26.1056L26.8819 26C27.5858 25.6481 28.4142 25.6481 29.118 26L29.3292 26.1056C29.7514 26.3167 30.2485 26.3167 30.6708 26.1056L30.8819 26C31.5858 25.6481 32.4142 25.6481 33.118 26L34.2236 26.5528L33.7764 27.4472L32.6708 26.8944C32.2485 26.6833 31.7514 26.6833 31.3292 26.8944L31.118 27C30.4142 27.3519 29.5858 27.3519 28.8819 27L28.6708 26.8944C28.2485 26.6833 27.7514 26.6833 27.3292 26.8944L27.118 27C26.4142 27.3519 25.5858 27.3519 24.8819 27L24.6708 26.8944C24.2485 26.6833 23.7514 26.6833 23.3292 26.8944L23.118 27C22.4142 27.3519 21.5858 27.3519 20.8819 27L20.6708 26.8944C20.2485 26.6833 19.7514 26.6833 19.3292 26.8944L19.118 27C18.4142 27.3519 17.5858 27.3519 16.8819 27L16.6708 26.8944C16.2485 26.6833 15.7514 26.6833 15.3292 26.8944L15.118 27C14.4142 27.3519 13.5858 27.3519 12.8819 27Z" fill="black" fill-opacity="0.6"/>
<path d="M19 16.5C19 15.6716 19.6715 15 20.5 15H26.6937L25.7486 17.8353C25.6699 18.0714 25.7768 18.3294 25.9993 18.4407L31.9826 21.4323C32.8984 21.8902 33.0964 23.1107 32.3725 23.8346L30.9717 24.9573C30.9416 24.9709 30.9117 24.9851 30.8819 25L30.6708 25.1056C30.2485 25.3167 29.7514 25.3167 29.3292 25.1056L29.118 25C28.4142 24.6481 27.5858 24.6481 26.8819 25L26.6708 25.1056C26.2485 25.3167 25.7514 25.3167 25.3292 25.1056L25.118 25C24.4142 24.6481 23.5858 24.6481 22.8819 25L22.6708 25.1056C22.2485 25.3167 21.7514 25.3167 21.3292 25.1056L21.118 25C20.4142 24.6481 19.5858 24.6481 18.8819 25L18.6708 25.1056C18.2485 25.3167 17.7514 25.3167 17.3292 25.1056L17.118 25C16.4142 24.6481 15.5858 24.6481 14.8819 25L14.6708 25.1056C14.2485 25.3167 13.7514 25.3167 13.3292 25.1056L13 24.941V22H30.8819L25.5521 19.3351C25.0342 19.0761 24.7252 18.5524 24.7227 18H23.5C23.2238 18 23 17.7761 23 17.5C23 17.2239 23.2238 17 23.5 17H24.9729L25.3063 16H20.5C20.2238 16 20 16.2239 20 16.5V17H21.5C21.7761 17 22 17.2239 22 17.5C22 17.7761 21.7761 18 21.5 18H13V17H19V16.5Z" fill="black" fill-opacity="0.6"/>
<path d="M16.5 19.5H13V20.5H16.5C16.7761 20.5 17 20.2761 17 20C17 19.7239 16.7761 19.5 16.5 19.5Z" fill="black" fill-opacity="0.6"/>
<path d="M18 20C18 19.7239 18.2238 19.5 18.5 19.5H22.5C22.7761 19.5 23 19.7239 23 20C23 20.2761 22.7761 20.5 22.5 20.5H18.5C18.2238 20.5 18 20.2761 18 20Z" fill="black" fill-opacity="0.6"/>
</g>
<defs>
<clipPath id="clip0_1958_285">
<rect width="20" height="20" fill="white" transform="translate(13 11)"/>
</clipPath>
</defs>
</svg>
