<svg width="70" height="42" viewBox="0 0 70 42" fill="none" xmlns="http://www.w3.org/2000/svg">
<path fill-rule="evenodd" clip-rule="evenodd" d="M55.6586 2C54.8349 4.33038 52.6124 6 50 6C47.3876 6 45.1651 4.33038 44.3414 2H4C2.89543 2 2 2.89543 2 4V38C2 39.1046 2.89543 40 4 40H44.3414C45.1651 37.6696 47.3876 36 50 36C52.6124 36 54.8349 37.6696 55.6586 40H66C67.1046 40 68 39.1046 68 38V4C68 2.89543 67.1046 2 66 2H55.6586ZM54 0C54 2.20914 52.2091 4 50 4C47.7909 4 46 2.20914 46 0H4C1.79086 0 0 1.79086 0 4V38C0 40.2091 1.79086 42 4 42H46C46 39.7909 47.7909 38 50 38C52.2091 38 54 39.7909 54 42H66C68.2091 42 70 40.2091 70 38V4C70 1.79086 68.2091 0 66 0H54Z" fill="black" fill-opacity="0.6"/>
<path fill-rule="evenodd" clip-rule="evenodd" d="M49 8.5V6H51V8.5H49ZM49 18.5V13.5H51V18.5H49ZM49 28.5V23.5H51V28.5H49ZM49 36V33.5H51V36H49Z" fill="black" fill-opacity="0.6"/>
<path d="M16.7957 24H20.3503V23.3672H17.7683V23.2969L18.9988 21.9805C19.9871 20.9297 20.2605 20.4609 20.2605 19.8164V19.8086C20.2605 18.8984 19.5261 18.2305 18.5652 18.2305C17.5105 18.2305 16.7605 18.9492 16.7566 19.9492L16.7605 19.9531L17.4324 19.957L17.4363 19.9492C17.4363 19.2852 17.8699 18.8438 18.5183 18.8438C19.155 18.8438 19.5417 19.2891 19.5417 19.8828V19.8906C19.5417 20.3828 19.3386 20.6758 18.6394 21.4531L16.7957 23.5156V24Z" fill="black" fill-opacity="0.6"/>
<path d="M24.0235 24H24.711V22.832H25.4922V22.2031H24.711V18.3633H23.6914C22.9219 19.5391 22.0782 20.9141 21.336 22.1914V22.832H24.0235V24ZM22.0508 22.207V22.1602C22.6485 21.125 23.3633 19.9609 23.9805 19.0156H24.0274V22.207H22.0508Z" fill="black" fill-opacity="0.6"/>
<path d="M26.4505 24H27.1302V21.5078C27.1302 20.7695 27.556 20.3164 28.2278 20.3164C28.8997 20.3164 29.2122 20.6797 29.2122 21.4375V24H29.8919V21.2734C29.8919 20.2734 29.3646 19.7148 28.4192 19.7148C27.7982 19.7148 27.4036 19.9766 27.1927 20.4219H27.1302V18.1172H26.4505V24Z" fill="black" fill-opacity="0.6"/>
</svg>
