<svg width="200" height="172" viewBox="0 0 200 172" fill="none" xmlns="http://www.w3.org/2000/svg">
<g clip-path="url(#clip0_7555_2007)">
<g clip-path="url(#clip1_7555_2007)">
<path d="M25.6702 168.47C36.771 166.842 57.346 168.791 68.8938 170.191C72.5486 170.634 76.8076 170.212 78.1776 174.07C79.9905 179.177 80.9301 189.973 81.7082 195.776C82.8092 203.978 83.4218 212.282 84.5351 220.497C92.1675 276.765 100.917 332.992 107.457 389.354C107.031 391.951 105.855 393.533 103.421 394.444C101.104 395.308 73.2067 395.962 65.2888 397.455C64.2043 397.657 63.687 398.834 62.6646 399.378C59.2375 401.199 11.49 401.743 5.78641 400.563C1.70534 399.715 0.289799 395.494 0.0249023 391.715C6.24583 324.204 14.4866 256.814 20.3516 189.273C20.8276 183.787 20.5378 177.697 21.2994 172.295C21.6885 169.546 23.1288 168.837 25.6661 168.466L25.6702 168.47Z" fill="#C1DB70"/>
<path d="M179.975 33.0025C187.761 27.7902 191.271 34.5249 187.649 41.7403C190.604 41.3313 193.001 42.9591 193.104 46.1093C193.249 50.6047 187.318 56.5972 185.029 60.4643C180.766 67.6587 179.33 75.3338 173.639 81.9842C171.913 84.0042 163.929 91.1522 161.789 91.9871C161.093 92.257 160.679 92.392 159.901 92.3709C157.198 92.2992 146.089 85.0964 143.85 82.9204C142.331 81.4444 140.891 80.1666 142.025 77.8345C149.086 66.7478 161.164 31.7922 171.822 25.8503C177.504 22.679 180.749 27.36 179.975 33.0025Z" fill="#E8AA7D"/>
<path d="M179.654 0.590305C183.435 0.284998 187.116 1.45534 188.1 5.56172C190.711 25.4372 197.718 46.656 199.771 66.3839C200.215 70.6379 200.205 73.294 195.811 74.8104C189.358 77.034 171.029 80.7893 164.177 81.4305C157.825 82.0207 155.657 80.4077 153.774 74.4033C148.116 56.3902 146.832 34.5608 141.783 16.1202C141.024 12.4006 142.942 9.56632 146.293 8.2535C152.201 5.94844 173.362 1.09915 179.659 0.590305H179.654Z" fill="#00151A"/>
<path d="M195.371 66.8014C195.471 71.2283 193.189 71.8695 189.638 72.8719C182.551 74.8615 173.986 75.8435 166.649 76.9223L156.446 65.0662L156.207 64.7914L146.088 15.9169C145.674 13.9222 146.867 11.9327 148.81 11.4442C150.373 11.0524 152.036 10.7318 152.766 10.6046C154.978 10.2229 154.229 14.6906 156.576 15.0366C157.535 15.174 172.662 11.78 174.076 11.205C177.427 9.8413 173.946 6.56943 175.334 5.55683C176.228 4.89533 180.613 3.96924 182.821 5.16502C185.028 6.36081 187.076 19.8452 187.35 22.5217L191.166 43.0587C192.38 49.7754 195.236 60.395 195.376 66.8014H195.371Z" fill="#99D9E5"/>
<path d="M186.996 19.6304C187.016 19.8136 189.158 32.092 190.202 37.8521C190.956 41.872 187.236 45.2507 184.204 46.9553C172.138 54.5015 167.319 61.6966 167.833 75.298L166.689 76.4989C164.402 76.8347 160.836 78.7479 159.033 76.2495C158.084 74.9316 156.441 66.8003 156.336 64.8412C155.887 56.0891 160.152 49.1892 167.059 44.406C174.705 39.114 183.54 35.4046 186.097 24.5204C186.412 23.1872 186.626 21.8082 186.991 19.6304H186.996Z" fill="#70C9DB"/>
<path d="M154.17 40.0509C160.039 38.6845 161.736 44.0445 161.541 48.9405C161.454 51.1882 160.486 53.4908 160.61 55.806C160.821 59.7194 167.883 63.5423 167.883 74.1192C168.346 81.651 161.905 92.5341 154.169 93.5672C149.145 94.2378 134.836 86.9577 136.798 79.3922C140.08 70.4941 144.795 61.5497 148.197 52.8245C149.505 49.4677 150.506 40.9027 154.17 40.0509Z" fill="#E8AA7D"/>
<path d="M96.6623 50.1209C98.5704 64.9356 93.8147 74.4663 80.4001 80.2437C77.5608 81.4667 74.1461 82.0571 71.3854 83.4825C69.4442 84.4819 68.2232 86.1645 67.2381 88.0749C66.609 89.3021 66.0709 90.622 65.5039 91.9167C64.0097 95.303 62.2754 98.4785 57.9502 99.2376C57.826 99.2587 57.706 99.2797 57.5859 99.2924C54.9701 95.1638 45.0654 88.5556 45.0158 88.2857C44.4529 84.9163 44.4198 81.2896 44.5191 78.1773C30.3802 69.41 25.8894 53.1699 27.1394 37.0142C28.8654 14.7647 50.7359 2.30319 71.0253 7.92881C79.2247 10.1976 101.795 25.8473 105.611 33.4128C109.518 41.1722 105.04 49.4842 96.6623 50.1209Z" fill="#E8AA7D"/>
<path d="M49.5727 44.2883C48.9478 43.7316 39.9537 69.6963 42.2798 72.1802C43.1366 73.0953 44.3949 73.0278 45.351 73.652C49.3699 76.2792 51.6878 80.5343 49.7259 85.3291C47.971 89.6137 43.9561 88.5932 40.2393 89.9216C30.3222 93.4724 24.5773 107.908 21.5972 117.392C19.6601 123.561 18.6171 129.912 16.9781 136.145C8.33582 128.466 1.29951 118.062 0.500682 106.01C-0.49268 90.9716 10.5792 78.9571 9.01877 63.2863C8.50967 58.1921 6.41533 53.2538 6.40705 47.9993C6.38222 21.4316 40.8477 -6.58266 66.2033 2.25639C75.752 5.58369 78.7279 11.4328 74.2536 21.0773C71.0045 28.0735 64.974 29.6465 60.806 34.9769C58.6248 37.7686 55.9468 47.1939 52.2507 46.7848C50.6861 46.6119 50.3136 44.9504 49.5686 44.2883H49.5727Z" fill="#00151A"/>
<path d="M170.691 93.2018C169.096 95.755 165.178 101.809 163.22 104.702C153.411 119.234 139.298 143.383 126.467 154.326C117.101 162.309 109.622 156.342 100.764 151.058C93.9761 147.009 84.5185 141.633 78.0451 136.129C81.8116 154.79 86.9812 173.585 90.2386 192.162C90.996 194.962 88.8396 196.569 86.4803 197.307L39.366 200.904C38.6831 207.01 37.9298 213.104 37.0606 219.172C36.5557 222.711 36.477 226.957 31.8993 226.78C26.4606 226.569 17.8018 224.478 12.1521 223.402C9.09333 222.824 -8.22427 219.67 -9.23004 218.03C-9.52391 217.553 -9.48667 217.064 -9.35008 216.549C-0.0166187 183.302 7.47084 149.476 16.8788 116.262C20.1652 104.678 23.6792 89.0958 37.8718 87.506C40.4339 87.2192 43.5754 87.3162 45.7484 88.1512C51.8162 90.4875 54.9742 95.1558 57.5901 99.2843C57.7101 99.2717 57.8301 99.2506 57.9543 99.2295C62.2837 98.4704 64.0138 95.2907 65.508 91.9086C66.075 90.6182 66.6131 89.2982 67.2422 88.0668C71.1246 90.091 74.8332 92.5876 77.8381 94.3672C86.53 99.5247 98.4876 109.173 107.101 112.855C112.32 115.082 113.417 110.557 115.702 106.546C122.274 95.0293 132.71 72.2171 139.883 61.5942C140.33 60.9406 141.721 59.2832 142.387 59.0808C143.521 58.7308 144.718 59.0597 145.703 59.6586C154.378 65.8788 165.317 70.7285 173.732 77.1047C175.677 78.5765 177.213 79.3862 176.816 82.1905C176.816 82.1905 172.286 90.6486 170.691 93.2018Z" fill="#86B200"/>
<path d="M35.6038 35.5213C52.5778 32.9869 53.8899 53.288 49.2666 65.0833C46.0465 73.3066 43.0995 73.741 34.6973 72.0836C15.9021 68.3768 19.4989 37.9251 35.5996 35.5213H35.6038Z" fill="#E8AA7D"/>
<path d="M91.2858 58.5177C90.7809 61.8703 88.1112 63.7005 87.0723 64.4132C83.3845 66.9477 79.291 66.4754 76.8987 66.2013C76.0957 66.1085 74.7215 65.9356 73.0742 65.4295C71.162 64.8434 68.8814 63.8017 66.7208 61.9083C65.3136 60.6769 62.1265 57.8893 61.3443 53.1535C61.2118 52.3649 60.6779 49.1431 62.0686 46.014C62.379 45.3013 62.7929 44.597 63.331 43.9223C63.8608 43.256 65.5205 41.1854 68.4178 40.7004C68.989 40.6077 71.2406 40.304 73.2687 41.5354C74.0096 41.9866 74.0386 42.2228 76.075 44.0952C76.075 44.0952 77.4119 45.3224 78.5874 46.2965C80.7604 48.1015 82.7222 49.2105 83.7942 49.8136C88.0202 52.1836 88.91 51.6059 90.1062 53.2126C91.6915 55.3338 91.3562 57.9863 91.2776 58.5177H91.2858Z" fill="#00151A"/>
<path d="M73.157 63.7592C73.1321 64.3707 73.1073 64.9232 73.0784 65.4292C71.1661 64.843 68.8855 63.8014 66.725 61.9079C65.3177 60.6765 62.1307 57.889 61.3484 53.1532C61.216 52.3646 60.682 49.1428 62.0727 46.0137C63.3434 46.6083 64.7051 47.6035 66.0255 48.565C67.9005 49.9356 70.3011 51.6899 71.8739 55.0594C73.3971 58.3276 73.2687 61.2332 73.157 63.755V63.7592Z" fill="#C2570A"/>
<path d="M84.0255 38.9571C85.0394 38.8731 85.7595 37.5291 85.6338 35.9552C85.5082 34.3813 84.5844 33.1735 83.5705 33.2575C82.5567 33.3416 81.8366 34.6856 81.9622 36.2595C82.0879 37.8333 83.0117 39.0411 84.0255 38.9571Z" fill="#00151A"/>
<path d="M77.5609 30.7394C77.2712 30.7647 76.9732 30.6635 76.7497 30.4399C76.3399 30.0309 76.3358 29.3646 76.7372 28.9471C77.9665 27.6693 79.3738 26.5982 80.9176 25.7674C81.6999 25.3457 82.1221 25.1264 82.5608 24.9493C83.0906 24.7342 83.6949 24.9957 83.906 25.5355C84.1171 26.0752 83.8605 26.6909 83.3307 26.906C82.9747 27.0494 82.5981 27.2476 81.8862 27.6314C80.5327 28.3609 79.2952 29.3013 78.2149 30.4231C78.0328 30.6129 77.801 30.7141 77.5609 30.7351V30.7394Z" fill="#00151A"/>
<path d="M77.5816 137.559C77.0808 137.559 76.642 137.188 76.5593 136.669L72.6603 111.569C72.5693 110.995 72.9583 110.451 73.5212 110.363C74.0841 110.274 74.6181 110.666 74.705 111.24L78.6039 136.34C78.695 136.913 78.3059 137.457 77.743 137.546C77.6892 137.554 77.6354 137.559 77.5816 137.559Z" fill="#00151A"/>
<path d="M38.7536 202.059C38.7163 202.059 38.6832 202.059 38.6459 202.055C38.0789 201.996 37.665 201.477 37.7229 200.896L46.4563 115.423C46.5142 114.845 47.0233 114.42 47.5945 114.483C48.1615 114.542 48.5754 115.061 48.5175 115.642L39.7842 201.115C39.7304 201.659 39.2792 202.059 38.7536 202.059Z" fill="#00151A"/>
</g>
</g>
<defs>
<clipPath id="clip0_7555_2007">
<rect width="200" height="171.296" fill="white" transform="translate(0 0.175781)"/>
</clipPath>
<clipPath id="clip1_7555_2007">
<rect width="237.963" height="451.481" fill="white" transform="translate(-37.963 0.268555)"/>
</clipPath>
</defs>
</svg>
