<svg width="200" height="110" viewBox="0 0 200 110" fill="none" xmlns="http://www.w3.org/2000/svg">
<g clip-path="url(#clip0_7584_1125)">
<path d="M199.719 55.433C199.685 60.2346 199.524 74.5209 199.503 76.7858C199.483 78.8138 199.462 83.7896 199.385 84.8907C198.876 91.783 196.737 92.0338 191.19 92.4589C177.99 93.4485 97.555 92.9537 53.4068 92.6541C51.5671 92.6401 49.79 92.6332 48.0826 92.6192C37.1553 92.5356 29.1271 92.4799 25.9493 92.4729H24.6461C23.775 92.4868 22.8899 92.4938 21.9979 92.5008C14.6805 92.5426 7.07044 92.3544 4.71494 91.3439C2.7288 90.4937 1.73224 88.9605 1.24442 87.1695C0.70781 85.1904 0.805374 79.1065 0.826281 78.2423H0.83325C0.721747 75.4687 0.638121 72.3815 0.610245 69.3779C0.547524 63.6215 0.707809 58.0952 1.4047 55.3982C2.98665 49.2864 16.4646 49.9136 25.0781 49.9415C28.7159 39.9481 32.2561 29.871 36.0333 19.9194C37.678 15.5847 39.4481 10.0374 41.5248 6.00243C43.2043 2.74795 44.7932 1.78624 48.4171 1.18691C55.4278 0.00915954 64.5641 0.559703 71.8048 0.566672C91.8614 0.580609 135.006 0.587578 164.087 0.650298C164.722 0.657267 165.349 0.657268 165.969 0.657268C166.255 0.657268 169.927 0.71302 174.506 0.782709C182.513 0.915119 193.266 1.09631 193.406 1.10328C194.423 1.17994 195.336 1.29144 196.165 1.63988C196.925 1.96046 197.622 2.48313 198.235 3.36818C199.991 5.87003 199.441 10.804 199.58 13.8564C199.671 15.8983 199.719 20.2609 199.747 25.4179C199.81 38.0316 199.719 55.433 199.719 55.433Z" fill="#C2570A"/>
<path d="M199.747 25.4179C189.747 46.4152 172.764 68.6879 146.491 74.277C129.048 77.9845 109.054 71.9076 90.2794 69.9911C69.728 67.8865 60.8008 74.5349 54.2709 90.5216C53.9434 91.316 53.6577 92.0269 53.4068 92.6541C51.567 92.6401 49.7899 92.6332 48.0825 92.6192C37.1553 92.5356 29.127 92.4799 25.9492 92.4729C34.3537 74.5837 49.9502 57.0986 69.958 53.2936C88.0563 49.8579 122.65 58.7502 138.874 55.1403C152.191 52.1716 161.502 37.8992 167.377 25.3412C169.711 20.3306 173.063 10.2395 174.506 0.782715C182.513 0.915124 193.266 1.09632 193.406 1.10328C194.423 1.17994 195.336 1.29144 196.165 1.63989C196.925 1.96046 197.622 2.48313 198.235 3.36819C199.991 5.87003 199.441 10.804 199.58 13.8564C199.671 15.8983 199.719 20.2609 199.747 25.4179Z" fill="#B24A00"/>
<path d="M199.712 55.4401C199.678 60.2417 199.636 64.876 199.594 68.9877C194.061 70.5626 190.186 66.6182 190.73 60.7086C191.273 54.7989 196.312 55.4401 199.712 55.4401Z" fill="#E8AA7D"/>
<path d="M7.24461 64.5275C5.86477 67.984 4.39432 69.1966 0.603226 69.3778C0.540505 63.6215 0.70079 58.0951 1.39768 55.3982C8.0112 54.9243 9.50952 58.8687 7.25158 64.5275H7.24461Z" fill="#E4F0C2"/>
<path d="M99.7711 12.4486C115.932 11.7796 186.255 12.5601 191.001 13.1246C194.033 13.487 193.761 16.1491 193.907 18.3374C194.207 22.8672 194.068 31.2996 193.789 35.8573C193.698 37.3695 193.392 40.5683 192.507 41.7112C191.503 43.0004 188.116 43.321 186.506 43.4255C170.541 44.443 118.246 43.3837 106.817 43.321C104.663 43.307 99.1369 43.3349 96.9417 42.875C94.1123 42.2826 93.959 39.2999 93.8057 36.8747C93.499 32.1219 93.4572 22.9438 93.8196 18.2259C94.1611 13.8076 95.3946 12.6368 99.7571 12.4556H99.7711V12.4486Z" fill="#99D9E5"/>
<path d="M79.819 12.7762C83.2338 13.1456 83.2129 15.7171 83.4011 18.6162C83.7356 23.8707 83.7913 33.7806 83.4011 38.9933C83.1223 42.7635 81.6867 43.4116 78.1047 43.6904C73.331 44.0597 49.0861 44.22 41.2321 43.6904C37.0159 43.4046 34.6604 43.1119 35.866 38.3313C36.8556 34.3938 42.0893 18.8601 44.0824 15.6265C44.5563 14.8529 46.2427 13.1804 48.2916 13.1037C57.2885 12.7901 75.0383 12.2605 79.819 12.7692V12.7762Z" fill="#99D9E5"/>
<path d="M84.4394 52.4781H77.3451C77.129 52.4781 76.9478 52.3038 76.9478 52.0808C76.9478 51.8578 77.1221 51.6836 77.3451 51.6836H84.4394C84.6555 51.6836 84.8367 51.8578 84.8367 52.0808C84.8367 52.3038 84.6624 52.4781 84.4394 52.4781Z" fill="#00151A"/>
<path d="M99.4575 52.4781H92.3631C92.1471 52.4781 91.9659 52.3038 91.9659 52.0808C91.9659 51.8578 92.1401 51.6836 92.3631 51.6836H99.4575C99.6735 51.6836 99.8547 51.8578 99.8547 52.0808C99.8547 52.3038 99.6805 52.4781 99.4575 52.4781Z" fill="#00151A"/>
<path d="M88.6069 74.2212C88.3908 74.2212 88.2096 74.047 88.2096 73.824V9.24293C88.2096 9.0269 88.3839 8.8457 88.6069 8.8457C88.8299 8.8457 89.0041 9.01993 89.0041 9.24293V73.824C89.0041 74.04 88.8299 74.2212 88.6069 74.2212Z" fill="#00151A"/>
<path d="M160.136 66.6531C169.823 67.9424 175.196 72.9949 177.489 80.821C180.645 91.5949 173.99 103.958 163.802 107.317C139.557 115.31 124.232 81.0231 147.689 68.6672C150.345 67.2734 157.153 66.2489 160.136 66.6462V66.6531Z" fill="#00151A"/>
<path d="M41.469 67.4266C52.4939 66.5973 64.5501 77.427 63.4212 88.7654C61.7904 105.052 43.8385 115.645 29.6846 105.526C13.5654 94.0061 22.9805 68.8064 41.469 67.4266Z" fill="#00151A"/>
</g>
<defs>
<clipPath id="clip0_7584_1125">
<rect width="200" height="109.524" fill="white" transform="translate(0 0.210449)"/>
</clipPath>
</defs>
</svg>
