<svg width="200" height="158" viewBox="0 0 200 158" fill="none" xmlns="http://www.w3.org/2000/svg">
<g clip-path="url(#clip0_7552_6750)">
<path d="M102.636 129.478C102.636 129.478 114.643 138.453 115.346 139.302C115.756 139.794 112.496 146.285 112.496 146.285C112.496 146.285 113.226 148.32 112.725 149.756C112.324 150.904 111.232 150.852 111.232 150.852C111.232 150.852 111.431 152.968 110.38 154.218C109.748 154.968 108.274 154.637 108.274 154.637C108.274 154.637 107.877 157.431 105.553 157.431C104.47 157.431 103.643 156.371 103.643 156.371C103.643 156.371 99.8434 157.233 96.6905 155.664C91.7939 153.228 91.2442 149.675 89.3178 145.402C88.6571 143.937 87.087 142.459 86.4299 140.883C87.0888 140.281 97.8399 129.614 97.8399 129.614L100.422 131.761L102.638 129.477L102.636 129.478Z" fill="#E8AA7D"/>
<path d="M112.967 150.524C112.653 150.941 112.184 151.249 111.597 151.423C111.622 152.015 111.558 152.642 111.341 153.297C111.189 153.747 110.911 154.583 110.063 155.08C109.665 155.317 109.196 155.44 108.7 155.44C108.636 155.44 108.571 155.437 108.507 155.433C108.5 155.433 108.491 155.433 108.484 155.43C108.407 155.691 108.296 155.958 108.14 156.216C107.619 157.086 106.942 157.607 106.128 157.77C105.966 157.802 105.811 157.814 105.655 157.814C104.332 157.814 103.293 156.737 102.982 156.375C102.144 155.394 101.455 154.332 101.183 153.593C101.179 153.586 101.179 153.584 101.175 153.577C101.166 153.548 101.156 153.521 101.152 153.492C101 152.771 100.977 152.049 101.091 151.353C101.279 150.155 101.856 149.242 102.803 147.731C103.039 147.355 103.227 147.07 103.388 146.829C103.741 146.301 103.934 146.01 104.165 145.434C104.395 144.854 104.627 144.072 104.441 143.602C104.221 143.062 103.7 142.813 103.6 142.768C102.971 142.496 102.321 142.729 102.008 142.843C101.038 143.189 99.9329 144.43 98.7334 146.526C98.0244 147.765 97.4103 149.083 96.909 150.442C96.8177 150.694 96.5402 150.823 96.2877 150.73C96.0353 150.637 95.9064 150.358 95.9995 150.109C96.5169 148.694 97.1543 147.328 97.8919 146.045C99.8792 142.575 101.235 142.09 101.682 141.928C101.695 141.925 101.705 141.921 101.718 141.916C101.693 141.835 101.689 141.744 101.711 141.655C101.747 141.511 101.911 140.765 101.449 140.111C101.34 139.955 101.029 139.578 100.533 139.447C100.355 139.399 99.8183 139.255 98.6045 140.027C97.8185 140.525 96.8141 141.357 95.3138 143.742C94.6245 144.836 93.9997 145.998 93.4554 147.189C93.3712 147.366 93.1958 147.473 93.0114 147.473C92.9433 147.473 92.8753 147.461 92.8109 147.428C92.5656 147.319 92.4581 147.031 92.5709 146.788C93.1313 145.554 93.7777 144.358 94.4902 143.228C96.0962 140.675 97.2062 139.762 98.0817 139.209C98.1533 139.164 98.2249 139.121 98.2912 139.084C98.0584 138.751 97.609 138.262 96.9323 138.077C96.4202 137.938 95.7614 138.042 94.9718 138.389C93.9889 138.822 92.8484 139.916 91.7689 141.474C91.0957 142.441 90.4941 143.438 89.9373 145.849C89.8854 146.073 89.6849 146.225 89.4647 146.225C89.4288 146.225 89.393 146.222 89.3554 146.216C89.0958 146.156 88.9311 145.892 88.9938 145.635C89.59 143.058 90.2685 141.936 90.9739 140.922C92.1717 139.198 93.4196 138.013 94.5851 137.501C95.5949 137.057 96.4489 136.941 97.1901 137.141C98.241 137.433 98.882 138.206 99.1702 138.649C99.7664 138.421 100.293 138.38 100.782 138.512C101.584 138.726 102.069 139.311 102.241 139.551C102.817 140.367 102.771 141.243 102.697 141.69C103.082 141.655 103.53 141.687 103.988 141.884C104.215 141.984 104.989 142.376 105.342 143.243C105.594 143.867 105.503 144.705 105.066 145.799C104.801 146.469 104.574 146.809 104.199 147.371C104.04 147.608 103.856 147.885 103.626 148.252C102.644 149.819 102.203 150.549 102.051 151.511C101.96 152.076 101.976 152.665 102.096 153.261V153.269C102.328 153.897 102.962 154.871 103.72 155.75C103.981 156.054 104.907 157.028 105.94 156.824C106.473 156.717 106.933 156.348 107.306 155.727C107.859 154.798 107.658 153.775 107.467 152.785C107.254 151.675 106.794 150.626 106.108 149.663C105.952 149.443 106.004 149.138 106.224 148.983C106.441 148.827 106.745 148.879 106.901 149.099C107.667 150.177 108.179 151.355 108.419 152.601C108.528 153.167 108.656 153.804 108.632 154.468C108.885 154.481 109.241 154.445 109.57 154.252C110.104 153.935 110.292 153.369 110.419 152.997C110.629 152.366 110.663 151.747 110.611 151.165C110.607 151.126 110.604 151.088 110.598 151.049C110.557 150.648 110.475 150.266 110.389 149.91C109.948 148.136 109.175 146.399 108.088 144.748C107.943 144.524 108.004 144.224 108.228 144.075C108.455 143.93 108.752 143.991 108.901 144.215C110.047 145.959 110.865 147.797 111.33 149.677C111.391 149.922 111.447 150.178 111.492 150.443C111.796 150.327 112.032 150.159 112.197 149.942C112.575 149.444 112.55 148.644 112.093 147.092C111.617 145.468 111.067 143.826 109.597 141.655C108.491 140.02 107.134 138.58 105.562 137.383C105.352 137.222 105.309 136.914 105.471 136.702C105.632 136.489 105.94 136.446 106.151 136.609C107.807 137.875 109.237 139.39 110.403 141.11C111.95 143.395 112.546 145.185 113.024 146.818C113.5 148.44 113.654 149.627 112.965 150.529L112.967 150.524Z" fill="#00151A"/>
<path d="M100.202 21.1702C100.202 21.1702 101.63 22.6097 101.507 24.4502C101.442 25.417 100.022 26.4196 100.022 26.4196C100.022 26.4196 100.903 29.0246 99.1201 29.7801C96.6978 30.806 94.6567 28.6021 94.6567 28.6021C94.6567 28.6021 93.7454 29.5062 92.9398 29.6243C90.6696 29.9574 86.8561 25.9183 84.9243 24.5952C83.6979 23.7555 82.3068 23.3008 81.1431 22.3805C81.8091 21.7485 86.1991 8.60187 87.66 8.47118C88.2956 8.41388 92.5656 10.9365 93.4554 11.4772C95.9924 13.0187 102.447 17.0166 101.197 20.5794C101.005 21.1255 100.205 21.1685 100.205 21.1685L100.202 21.1702Z" fill="#E8AA7D"/>
<path d="M93.1296 136.481C92.8396 136.982 90.4065 139.709 89.9553 139.295C90.4709 137.988 91.726 136.8 93.1296 136.481Z" fill="#F7E0D1"/>
<path d="M44.4567 122.371C44.206 125.74 43.9214 128.852 44.4424 132.231C32.6134 135.217 20.6502 133.403 9.65555 128.428C8.14627 127.744 0.43516 123.637 0.0788773 122.475C-0.438539 120.79 1.70274 115.528 2.66954 113.895C2.93809 113.442 42.618 122.196 44.4567 122.371Z" fill="#C1DB70"/>
<path d="M95.6003 127.309C96.2413 126.723 99.122 129.69 98.9644 130.119C96.2789 134.003 95.8205 135.231 91.939 138.88C90.2865 140.434 86.883 142.512 86.883 142.512C86.883 142.512 84.1455 139.467 83.2611 138.416C84.1187 137.44 94.6192 128.007 95.5985 127.309H95.6003Z" fill="#C1DB70"/>
<path d="M84.2351 7.46126C84.0686 7.16943 82.9926 7.22852 83.2558 6.33691C84.6666 6.65918 88.5678 7.35563 88.5624 8.9598C88.5553 10.9238 84.8403 23.6784 83.4438 23.8879C81.9345 23.1001 79.9418 23.1878 78.676 22.0295C79.3027 21.0197 80.1352 22.0886 80.9122 21.8307C82.2174 21.3975 85.03 8.86312 84.2351 7.46126Z" fill="#C1DB70"/>
<path d="M74.1373 59.9084C73.3675 62.8822 71.5073 65.6609 68.4458 68.2354C64.2169 71.7929 60.6863 72.9835 55.5963 70.2013C54.275 71.4527 54.4755 74.8132 52.5813 75.3145C52.5133 75.3324 52.3199 75.3682 52.0299 75.4166C51.9619 75.4291 51.8885 75.4417 51.8097 75.456H51.8079C51.5501 75.2984 51.2959 75.1588 51.0506 75.0406C47.1368 73.1536 42.4801 73.3953 38.4768 75.1283C38.33 74.6575 38.2136 74.26 38.194 74.1436C38.0382 73.2449 38.0203 71.9487 38.0973 71.0374C38.2208 69.5836 39.4991 67.3761 39.449 66.8748C39.4007 66.3717 38.2602 64.977 37.9397 64.1695C35.068 56.9472 37.3203 48.7545 44.1612 45.0699C44.5569 44.8568 44.9669 44.6599 45.393 44.4773C46.1682 44.1478 48.741 43.5749 48.8932 43.3798C49.117 43.0915 47.8566 38.7982 50.4383 36.4725C52.9949 34.1719 53.8901 36.3938 55.5784 37.7133C57.1092 38.9092 58.7527 40.0049 60.4464 40.9574C61.3022 41.439 63.3432 42.3414 65.4791 43.3082C67.5434 44.2409 69.6972 45.231 70.9577 45.9561C70.4653 46.427 69.9944 46.9265 69.5451 47.4475C66.6303 50.8223 64.5678 55.1568 63.0908 59.921C62.8455 60.7105 61.6245 64.9483 63.0299 66.9965C64.02 68.4395 64.8865 68.88 65.66 68.3393C65.8605 68.248 66.4173 67.7896 67.1173 67.1702C68.854 65.6537 71.459 63.1776 71.6577 62.9861C72.5475 62.1177 73.3836 61.065 74.1373 59.9084Z" fill="#E8AA7D"/>
<path d="M78.103 80.1825C76.5597 84.9824 72.782 90.2658 68.1933 93.5511C65.7889 100.088 69.2425 106.859 67.4807 113.473C65.5722 120.65 57.7036 125.556 50.5851 126.204C48.6533 126.379 41.5724 125.223 42.2545 122.365C42.5141 121.287 42.2258 112.214 42.7916 108.535C44.0055 100.612 48.0409 90.7689 51.8007 83.688C52.2966 82.7624 54.9553 79.0509 55.0073 78.7627C55.163 77.9176 51.2887 75.4165 49.9817 75.8605C49.2853 76.0933 49.3443 77.4146 48.3382 77.223C48.2468 75.0907 50.7193 73.1839 52.8552 73.5599C53.2044 73.6208 56.3107 74.9743 56.4449 75.1157C57.5299 76.2651 53.4264 75.1515 52.9215 75.4648C56.4646 79.6615 56.171 76.0772 58.5808 75.284C59.1538 75.096 61.3863 75.3932 62.8688 75.0065C63.8391 74.7505 65.5131 73.6799 66.3671 73.2144C68.3831 74.0881 72.3935 75.3503 78.6652 74.0522C79.0573 75.8265 78.8245 77.9517 78.1012 80.1842L78.103 80.1825Z" fill="#00151A"/>
<path d="M74.1374 59.9083C73.3836 61.0649 72.5475 62.1177 71.6577 62.986C71.459 63.1776 68.854 65.6536 67.1174 67.1701C66.4173 67.7895 65.8605 68.2479 65.66 68.3392C64.8866 68.8799 64.02 68.4394 63.03 66.9964C61.6245 64.9482 62.8456 60.7104 63.0908 59.9209C64.5679 55.1567 66.6304 50.8222 69.5451 47.4474C69.9945 46.9264 70.4653 46.4269 70.9577 45.956C69.6973 45.2309 67.5435 44.2409 65.4792 43.3081C65.9912 42.5866 67.8729 42.2732 69.4341 42.2267C71.3014 42.0656 73.321 42.1569 74.0586 42.5114C75.3047 43.1129 75.9188 44.1155 76.2912 45.2238C76.583 45.3849 76.8641 45.5621 77.1398 45.7627C77.5964 46.2031 77.8989 46.8476 77.9867 47.7536C78.2946 51.012 76.6654 56.0429 74.1374 59.9083Z" fill="#00151A"/>
<path d="M83.3291 72.2419C82.0472 75.0832 80.5165 77.3391 78.103 80.1839C78.8246 77.9514 79.0573 75.8244 78.667 74.0519C72.3954 75.35 68.3849 74.0878 66.369 73.2141C66.2616 73.1657 66.1613 73.121 66.0682 73.078C64.4336 72.3296 66.5606 72.3332 67.0135 72.104C70.0912 70.5321 67.3501 68.4821 67.1174 67.1716C68.8558 65.6533 71.4608 63.1791 71.6577 62.9875C75.5178 59.2134 78.3895 51.9875 77.9885 47.755C77.9007 46.8491 77.5964 46.2046 77.1398 45.7642C80.742 48.3333 83.0391 53.8387 84.1366 57.8276C85.8714 64.1387 86.0165 66.2836 83.3309 72.2419H83.3291Z" fill="#99D9E5"/>
<path d="M60.9568 64.2731C72.9898 63.1148 72.7571 77.0921 63.9341 79.9478C50.5726 84.2733 47.1691 65.5998 60.9568 64.2731Z" fill="#E8AA7D"/>
<path d="M56.6258 64.8804C56.2857 65.6789 55.6161 66.447 54.8659 66.9411C54.3736 67.258 53.8526 67.4621 53.3584 67.4854C46.8701 67.7736 43.848 64.5044 41.9932 61.7061C41.9162 61.5897 41.841 61.4733 41.7658 61.357C39.7212 58.154 38.6398 54.6127 40.4069 51.1304C41.8142 48.3571 45.0046 46.8138 47.8369 47.9274C50.3184 48.905 49.9299 51.2504 50.6424 53.2341C52.1016 57.3018 58.7331 59.9462 56.6258 64.8804Z" fill="#00151A"/>
<path d="M54.8641 66.941C54.3718 67.2579 53.8508 67.462 53.3567 67.4853C46.8684 67.7736 43.8462 64.5043 41.9914 61.706C41.9144 61.5896 41.8392 61.4733 41.764 61.3569C46.5372 59.5611 52.9126 62.1429 54.8641 66.9428V66.941Z" fill="#C2570A"/>
<path d="M97.2134 126.814C97.2134 126.831 97.2116 126.848 97.2116 126.865C97.2098 126.891 97.2062 126.92 97.2027 126.949C97.1937 126.997 97.183 127.047 97.1704 127.097C97.1651 127.119 97.1597 127.14 97.1525 127.162C97.1436 127.199 97.131 127.239 97.1167 127.276C97.1006 127.327 97.0809 127.38 97.0594 127.434C97.0379 127.488 97.0147 127.543 96.9878 127.599C96.9359 127.713 96.875 127.831 96.8088 127.955C96.7747 128.018 96.7389 128.08 96.7013 128.145C96.6781 128.184 96.653 128.225 96.628 128.266C96.6047 128.308 96.5796 128.349 96.551 128.39C96.5259 128.433 96.499 128.474 96.4704 128.517C96.4435 128.562 96.4149 128.605 96.3845 128.648C96.2376 128.864 96.0747 129.092 95.8993 129.328C95.8277 129.423 95.7542 129.518 95.679 129.615C95.6021 129.711 95.5251 129.808 95.4445 129.906C95.4069 129.957 95.3657 130.007 95.3228 130.057C95.2404 130.157 95.1563 130.257 95.0703 130.359C95.0166 130.422 94.9629 130.485 94.9092 130.549C94.7212 130.766 94.5261 130.986 94.3237 131.21C94.2432 131.299 94.1608 131.389 94.0785 131.478C93.9943 131.568 93.9102 131.657 93.826 131.749C90.6248 135.141 86.0236 138.914 83.9432 139.537H83.9396C83.9074 139.548 83.8752 139.555 83.8429 139.564C83.7928 139.574 83.7463 139.583 83.6997 139.59C83.2539 139.659 82.4375 139.206 81.5477 138.572C81.5423 138.568 81.5352 138.563 81.528 138.557C80.3822 137.709 79.0483 136.561 78.3107 135.911C78.2874 135.89 78.2642 135.87 78.2409 135.85C78.1317 135.752 78.0368 135.668 77.9598 135.6C77.7127 135.381 77.4639 135.156 77.2132 134.928C76.9626 134.699 76.7083 134.466 76.4541 134.23C76.071 133.874 75.6842 133.51 75.2939 133.14C74.9054 132.769 74.5133 132.39 74.1195 132.008C73.5949 131.498 73.0685 130.979 72.5421 130.452C71.4894 129.402 70.442 128.331 69.4233 127.275C69.2962 127.142 69.1691 127.01 69.0402 126.877C68.7895 126.614 68.5389 126.351 68.29 126.091C67.4217 125.178 66.582 124.285 65.7907 123.432C65.6116 123.241 65.4308 123.044 65.2482 122.842C59.5459 116.583 51.2296 105.677 49.8725 102.904C49.817 103.148 49.7615 103.396 49.7078 103.647C49.2799 103.627 49.5037 103.758 49.4017 104.204C48.2988 109.083 47.699 114.241 47.3213 119.241C47.3087 119.404 47.2962 119.567 47.2837 119.728C47.2801 119.78 47.2765 119.834 47.2747 119.891C47.2461 120.392 47.2675 120.867 47.2998 121.314V121.32C47.3374 122.129 47.3929 123.001 47.3606 123.696C47.2479 124.36 46.922 124.926 46.1307 125.398C46.1307 125.398 46.1289 125.4 46.1271 125.4C45.9463 125.507 45.7404 125.611 45.5076 125.71C34.3017 130.44 18.4713 126.605 8.51508 120.4C7.31016 119.649 0.664322 114.857 0.417252 114.008C0.198827 113.252 1.43597 110.819 1.83343 109.899C5.00954 102.553 11.1326 93.4528 16.1044 87.1364C18.6485 83.9048 25.2246 77.8676 25.6775 74.1311C26.0141 71.365 24.4332 68.0117 23.8209 65.2384C20.8883 51.9467 15.9111 23.8147 24.8808 12.6786C34.8872 0.25528 66.7288 -0.596934 80.7026 4.12426C85.7443 5.82869 85.3934 6.03816 84.6235 11.4057C84.3657 13.1996 81.9326 22.7369 80.7886 23.453C80.0545 23.9114 74.6852 22.0333 73.3156 21.7415C65.9482 20.1695 58.9067 19.7452 51.4337 20.8928C49.7902 21.1435 44.9132 22.2195 43.6367 22.9697C42.8149 23.4513 42.754 24.6777 42.6824 25.5424C42.1417 32.0504 42.8991 38.5709 44.1613 45.0699C37.3203 48.7545 35.068 56.9472 37.9397 64.1696C38.2602 64.977 39.4007 66.3717 39.449 66.8748C39.4991 67.3761 38.2208 69.5836 38.0973 71.0374C38.0203 71.9487 38.0382 73.2449 38.194 74.1437C38.2137 74.2601 38.33 74.6575 38.4769 75.1284C42.4801 73.3953 47.1369 73.1536 51.0506 75.0407C51.2959 75.1588 51.5501 75.2985 51.8079 75.456H51.8097C53.8686 76.7075 56.2946 79.1316 58.7886 82.0141C60.3283 84.1536 61.7498 86.4292 63.3647 88.4738C66.0109 91.8289 68.7394 95.1142 71.527 98.3476C71.7383 98.6108 71.9424 98.8615 72.1393 99.096C75.9528 103.658 80.0151 108.014 84.1025 112.341C86.9725 115.435 89.8657 118.507 92.759 121.579C94.2575 123.218 95.7363 124.872 97.1848 126.549C97.1901 126.567 97.1937 126.585 97.1973 126.605C97.2098 126.671 97.217 126.741 97.2134 126.814Z" fill="#86B200"/>
<path d="M99.7431 21.4497C99.6106 21.4497 99.4763 21.396 99.3814 21.2886C98.6402 20.4596 97.8166 19.6969 96.934 19.0202C96.1784 18.4401 95.371 17.9155 94.5313 17.4626C94.295 17.3354 94.2073 17.04 94.3344 16.8055C94.4615 16.5692 94.7569 16.4814 94.9914 16.6085C95.8759 17.0866 96.7263 17.638 97.523 18.2503C98.4522 18.9629 99.3205 19.7685 100.101 20.6422C100.28 20.8428 100.262 21.1489 100.064 21.328C99.9704 21.4103 99.8559 21.4515 99.7395 21.4515L99.7431 21.4497Z" fill="#00151A"/>
<path d="M99.6984 26.7494C99.5695 26.7494 99.4424 26.6993 99.3475 26.599C98.4541 25.6591 97.4641 24.8033 96.4042 24.0567C95.4642 23.3943 94.458 22.8088 93.416 22.3183C93.1743 22.2037 93.0687 21.9154 93.1833 21.6719C93.2979 21.4285 93.5861 21.3246 93.8296 21.4392C94.9235 21.9548 95.9781 22.5671 96.9645 23.2636C98.0746 24.0478 99.1148 24.9447 100.051 25.9294C100.236 26.1228 100.228 26.4307 100.033 26.6151C99.9401 26.7047 99.8184 26.7494 99.6984 26.7494Z" fill="#00151A"/>
<path d="M94.3075 28.7597C94.1643 28.7597 94.0229 28.697 93.928 28.5771C93.2333 27.7034 92.4312 26.9156 91.5468 26.2389C90.5119 25.4475 89.3697 24.8102 88.1505 24.3429C87.8998 24.2462 87.7745 23.9669 87.8712 23.7162C87.966 23.4656 88.2471 23.3403 88.4978 23.437C89.8047 23.9383 91.0294 24.6222 92.1376 25.469C93.0865 26.1941 93.9441 27.0374 94.6889 27.9737C94.8554 28.1832 94.8214 28.4894 94.6119 28.6559C94.5224 28.7275 94.4167 28.7615 94.3093 28.7615L94.3075 28.7597Z" fill="#00151A"/>
<path d="M8.91787 111.544C8.84983 111.544 8.78001 111.53 8.71555 111.5C8.47206 111.387 8.36643 111.099 8.47743 110.855C11.6159 104.048 15.5082 97.5921 20.0468 91.666C23.2408 87.4962 26.7929 83.5413 30.6046 79.914C30.7979 79.7296 31.1059 79.7368 31.2903 79.9301C31.4747 80.1235 31.4675 80.4314 31.2742 80.6158C27.4983 84.2091 23.9802 88.1246 20.8166 92.255C16.321 98.1238 12.4664 104.517 9.3583 111.26C9.27594 111.437 9.10048 111.543 8.91787 111.543V111.544Z" fill="#00151A"/>
<path d="M30.2912 77.4503C29.4891 77.4503 28.7336 77.2766 28.1929 76.7861C28.0783 76.6822 27.5144 75.9553 27.7919 75.2446C28.2126 74.1685 29.6216 73.8624 31.6591 74.4031C32.5489 74.6394 34.4001 75.4916 34.4789 75.5274C34.6508 75.6062 34.7618 75.7799 34.7618 75.9696C34.7618 76.1594 34.649 76.3313 34.4771 76.4101C34.1602 76.5533 32.1102 77.4485 30.293 77.4485L30.2912 77.4503ZM28.8661 76.0878C29.7165 76.8165 31.6519 76.3993 33.0054 75.9428C32.4504 75.7065 31.8059 75.4504 31.4084 75.3448C30.3163 75.0548 28.9502 74.9473 28.696 75.6008C28.6512 75.7136 28.7766 75.9696 28.8661 76.0896V76.0878Z" fill="#00151A"/>
<path d="M59.0517 47.2293C58.6668 47.1523 58.4179 47.249 58.2819 47.3314C58.0706 47.4603 57.8719 47.6876 57.931 48.1316C57.9793 48.4844 58.2765 48.7296 58.5254 48.9319C58.7671 49.1289 59.4402 49.5192 60.1098 49.3509C60.2799 49.3079 60.6004 49.1557 60.7007 48.8138C60.8099 48.4342 60.6398 48.18 60.5628 48.0869C60.3426 47.8237 60.0436 47.428 59.0535 47.2311L59.0517 47.2293Z" fill="#00151A"/>
<path d="M62.6754 52.7648C62.5089 52.7648 62.3496 52.6717 62.2726 52.5124C62.1652 52.2904 62.2565 52.0218 62.4803 51.9144C62.9673 51.6781 63.875 51.1141 64.4748 50.0023C65.0799 48.8815 65.0477 47.8019 64.9725 47.2595C64.9385 47.0142 65.1103 46.7886 65.3556 46.7564C65.6009 46.7241 65.8265 46.8942 65.8587 47.1395C65.9464 47.7894 65.9858 49.082 65.2607 50.4266C64.5428 51.7586 63.4543 52.4336 62.8688 52.7183C62.8061 52.7487 62.7399 52.763 62.6737 52.763L62.6754 52.7648Z" fill="#00151A"/>
<path d="M123.811 23.4386L113.167 30.0845C111.531 30.7165 110.252 29.8302 109.884 28.2028C107.382 31.1157 101.301 32.3654 104.061 26.7938C102.031 26.7418 101.566 24.9246 102.033 23.1719C102.192 22.5721 103.302 21.5337 103.3 21.3188C103.295 20.916 101.705 20.6707 102.573 18.4238C103.254 16.6621 107.569 13.2299 109.234 12.0376C110.136 11.3912 116.064 7.71562 116.583 7.75322C116.676 7.76038 123.17 22.966 123.809 23.4386H123.811Z" fill="#E8AA7D"/>
<path d="M150.969 104.03L117.108 141.59C115.994 142.108 113.767 140.967 112.641 140.419C109.241 138.763 102.319 133.383 101.653 129.511C101.419 128.146 103.012 126.594 103.882 125.54C117.686 108.8 136.875 93.2771 149.148 75.5794C159.998 59.9352 162.007 43.0627 161.52 22.9605C149.333 19.7969 134.836 19.8059 122.982 24.6202C117.496 20.044 115.065 12.1055 116.109 5.15711L116.649 4.6397C132.596 -0.989212 151.52 -1.29536 167.378 4.91721C176.084 8.32785 179.667 13.8189 181.475 22.837C184.912 39.9726 181.976 59.3175 178.625 76.2042C181.862 80.2576 183.623 81.6111 186.524 85.9331C192.378 94.6539 199.611 114.257 199.993 124.673C200.07 126.802 199.257 127.402 197.692 128.712C189.797 135.324 170.849 140.52 160.825 138.437C159.813 138.228 157.156 137.709 156.959 136.659C156.881 128.839 156.766 120.424 155.096 112.776C154.226 108.789 153.45 109.972 152.014 107.394C151.459 106.399 151.092 105.167 150.965 104.034L150.969 104.03Z" fill="#008099"/>
<path d="M151.671 102.619C153.212 109.852 159.103 108.975 158.338 101.419C157.502 93.1623 149.112 87.1502 141.804 84.8102L146.362 78.8161C151.302 79.7847 160.531 81.6789 164.368 77.3963C169 72.224 157.899 67.048 153.792 66.9925C154.208 66.3856 154.906 63.3849 155.241 63.1432C156.066 62.547 166.454 66.9477 168.028 67.7516C186.948 77.4268 195.827 97.0814 199.255 117.193C193.8 122.182 187.564 126.082 180.497 128.16C174.636 129.883 167.492 130.694 161.384 129.77C159.183 129.437 153.826 127.96 153.241 125.568C152.831 118.478 152.342 111.334 150.353 104.488L151.673 102.619H151.671Z" fill="#99D9E5"/>
<path d="M164.996 72.736C164.484 75.2408 160.884 76.8968 158.553 76.8968C157.507 76.8933 156.245 76.2559 155.366 76.3239C154.677 76.3794 153.286 77.3104 152.113 77.4823C145.045 78.5314 139.029 73.3376 136.589 67.091C136.277 66.2979 135.735 63.5407 135.735 63.5407C135.735 63.5407 133.438 62.8514 132.657 62.5596C129.8 61.4943 128.767 58.508 129.715 56.4974C130.195 55.4787 133.527 54.6462 134.852 53.8727C137.701 52.2131 139.457 49.8337 141.185 47.5885C141.813 46.7721 142.438 45.9736 143.109 45.2288C143.113 45.2253 143.113 45.2217 143.113 45.2217C143.113 45.2217 147.293 46.5233 148.43 46.7847C149.85 47.1123 151.263 47.3612 152.734 47.2448C148.715 52.3975 154.437 53.2157 158.376 51.1209C158.166 52.8844 158.771 55.749 160.583 56.4992C162.787 57.4159 162.289 55.9263 163.412 58.9627C164.871 62.9069 164.01 67.1537 165.079 71.2124C165.104 71.7567 165.091 72.2795 164.998 72.7342L164.996 72.736Z" fill="#E8AA7D"/>
<path d="M171.669 60.7369C171.426 62.5416 170.194 65.8484 168.146 68.593C167.404 69.5866 166.21 70.677 165.081 71.2248C165.081 71.2212 165.077 71.2177 165.077 71.2159C164.01 67.1571 164.869 62.9122 163.41 58.9662C162.288 55.9315 162.785 57.4193 160.581 56.5026C158.769 55.7525 158.164 52.8879 158.374 51.1244C154.435 53.2173 148.715 52.3991 152.732 47.2482C151.261 47.3646 149.848 47.1158 148.428 46.7881C147.293 46.5267 143.111 45.2251 143.111 45.2251C143.111 45.2251 143.111 45.2287 143.107 45.2323C142.434 45.9771 141.809 46.7756 141.183 47.592C140.032 47.3073 139.015 45.8088 139.255 44.2888C139.507 42.69 140.846 42.1726 140.846 42.1726C140.846 42.1726 139.292 39.1862 140.73 37.5391C142.81 35.1597 146.176 36.7334 148.496 37.7235C147.884 33.8133 152.088 31.5127 155.02 34.2018C156.503 35.5643 159.554 41.8234 161.26 41.8234C161.713 40.0367 162.374 39.2829 162.807 38.8335C165.183 36.3646 169.981 38.5095 167.544 42.6595C171.615 42.1976 173.356 46.4336 168.962 47.78C172.392 51.0295 172.269 56.2842 171.667 60.7422L171.669 60.7369Z" fill="#00151A"/>
<path d="M158.463 60.22C157.81 59.1583 159.425 56.1165 160.141 55.1837C163.231 51.1554 170.994 51.6316 172.913 56.5157C176.496 65.634 164.712 72.9799 160.184 63.602C159.731 62.662 159.627 61.3103 159.228 60.6622C159.076 60.4151 158.555 60.3686 158.463 60.22Z" fill="#E8AA7D"/>
<path d="M158.771 64.7439C158.198 68.9083 154.603 71.3199 153.959 71.7496C153.202 72.258 151.642 73.1729 149.587 73.574C148.473 73.7942 147.211 73.8658 145.856 73.6348C145.211 73.5274 141.215 72.8524 139.643 69.7963C139.391 69.3004 138.673 67.9057 139.219 66.57C139.611 65.6033 140.488 65.0912 140.986 64.803C141.811 64.3213 142.125 64.4306 143.908 63.9489C145.17 63.6088 146.241 63.3152 147.442 62.6706C148.387 62.1622 149.041 61.6376 149.574 61.2079C151.198 59.9045 151.374 59.2833 152.62 58.7103C153.105 58.4901 153.766 58.1858 154.628 58.2251C156.603 58.3129 157.831 60.1015 158.039 60.4166C158.327 60.8498 158.521 61.2974 158.651 61.7343C159.017 62.9678 158.859 64.1262 158.771 64.7439Z" fill="#00151A"/>
<path d="M158.771 64.7438C158.198 68.9082 154.603 71.3198 153.959 71.7495C153.201 72.258 151.642 73.1729 149.587 73.5739C149.567 72.2186 150.011 70.6449 150.176 70.0594C151.046 66.9692 153.06 65.1431 154.424 63.9399C155.627 62.8783 157.343 62.0046 158.651 61.7324C159.017 62.966 158.859 64.1244 158.771 64.742V64.7438Z" fill="#C2570A"/>
<path d="M148.536 51.2375C148.444 51.2375 148.353 51.2124 148.271 51.1587C147.54 50.6843 146.765 50.2653 145.967 49.918C145.111 49.5456 144.217 49.2466 143.306 49.0317C143.045 48.9691 142.884 48.7077 142.946 48.4481C143.009 48.1867 143.267 48.0256 143.532 48.0882C144.497 48.3174 145.447 48.6343 146.355 49.03C147.204 49.3988 148.027 49.8428 148.803 50.3477C149.028 50.4945 149.091 50.7953 148.944 51.0191C148.851 51.1623 148.695 51.2393 148.538 51.2393L148.536 51.2375Z" fill="#00151A"/>
<path d="M147.349 54.2524C147.225 54.2524 147.1 54.2059 147.005 54.111C146.747 53.855 145.374 52.591 143.492 52.8774C142.508 53.0278 141.799 53.5363 141.378 53.9373C141.185 54.1217 140.877 54.1146 140.692 53.9212C140.508 53.7279 140.515 53.4199 140.708 53.2355C141.229 52.7378 142.112 52.1076 143.346 51.9196C145.687 51.5633 147.376 53.112 147.691 53.4271C147.881 53.6169 147.881 53.923 147.691 54.1128C147.596 54.2077 147.472 54.256 147.347 54.256L147.349 54.2524Z" fill="#00151A"/>
<path d="M103.626 21.3579C103.508 21.3579 103.388 21.3149 103.295 21.2272C103.1 21.0446 103.089 20.7367 103.272 20.5415C103.999 19.7645 104.781 19.0269 105.603 18.3519C106.58 17.5462 107.631 16.8086 108.725 16.1605C108.956 16.0244 109.253 16.0996 109.389 16.3306C109.526 16.5615 109.45 16.8587 109.219 16.9948C108.168 17.6161 107.16 18.325 106.221 19.0985C105.433 19.7484 104.679 20.4556 103.983 21.2022C103.888 21.3042 103.757 21.3561 103.628 21.3561L103.626 21.3579Z" fill="#00151A"/>
<path d="M104.221 26.8863C104.119 26.8863 104.015 26.854 103.927 26.7878C103.714 26.6267 103.671 26.3205 103.834 26.1075C104.469 25.2696 105.18 24.48 105.945 23.7621C106.996 22.7756 108.163 21.9073 109.414 21.1822C109.647 21.0479 109.943 21.1266 110.079 21.3594C110.213 21.5921 110.134 21.8876 109.901 22.0236C108.714 22.7111 107.606 23.5347 106.609 24.4711C105.884 25.1514 105.211 25.8998 104.607 26.6947C104.512 26.82 104.367 26.8863 104.221 26.8863Z" fill="#00151A"/>
<path d="M110.068 28.1648C109.975 28.1648 109.882 28.1379 109.799 28.0824C109.576 27.9338 109.517 27.6312 109.665 27.4092C110.358 26.3726 111.234 25.4971 112.267 24.8078C113.165 24.208 114.154 23.7712 115.205 23.5062C115.466 23.44 115.727 23.5993 115.794 23.8589C115.858 24.1185 115.701 24.3835 115.441 24.448C114.497 24.6843 113.611 25.0764 112.806 25.6153C111.88 26.233 111.094 27.0189 110.473 27.9481C110.38 28.0878 110.226 28.163 110.068 28.163V28.1648Z" fill="#00151A"/>
<path d="M167.558 82.0316C167.838 81.8132 168.298 82.003 168.441 82.0621C169.028 82.3038 169.25 82.8606 169.293 82.9752C169.372 83.1864 169.576 83.7289 169.263 84.1317C169.086 84.3609 168.774 84.5023 168.471 84.4665C168.128 84.4271 167.929 84.1765 167.771 83.9796C167.494 83.6304 167.435 83.267 167.406 83.0665C167.356 82.7174 167.286 82.2447 167.558 82.0316Z" fill="#00151A"/>
<path d="M173.527 92.9654C173.816 92.8472 174.149 93.0799 174.38 93.2393C174.528 93.3431 174.757 93.5061 174.897 93.8176C174.956 93.9519 175.105 94.2813 174.958 94.6394C174.936 94.6931 174.804 95.001 174.471 95.1263C174.007 95.3 173.583 94.9598 173.527 94.9133C173.098 94.5588 173.125 93.9966 173.132 93.848C173.139 93.7066 173.166 93.1122 173.527 92.9654Z" fill="#00151A"/>
<path d="M178.431 104.358C178.906 104.125 179.464 104.603 179.497 104.632C179.998 105.072 179.939 105.749 179.923 105.879C179.905 106.041 179.831 106.685 179.375 106.853C178.85 107.047 178.31 106.433 178.279 106.397C177.869 105.919 177.957 105.328 177.975 105.21C178.007 104.99 178.075 104.531 178.431 104.358Z" fill="#00151A"/>
<path d="M181.416 117.454C181.754 117.219 182.25 117.4 182.512 117.576C182.968 117.882 183.052 118.403 183.09 118.641C183.124 118.845 183.217 119.431 182.846 119.858C182.773 119.944 182.564 120.184 182.268 120.193C181.763 120.208 181.425 119.538 181.325 119.341C181.249 119.194 181.126 118.904 181.112 118.519C181.099 118.193 181.079 117.687 181.416 117.454Z" fill="#00151A"/>
</g>
<defs>
<clipPath id="clip0_7552_6750">
<rect width="200" height="157.447" fill="white" transform="translate(0 0.351562)"/>
</clipPath>
</defs>
</svg>
