<svg width="200" height="158" viewBox="0 0 200 158" fill="none" xmlns="http://www.w3.org/2000/svg">
<g clip-path="url(#clip0_7552_6750)">
<path d="M102.636 129.303C102.636 129.303 114.643 138.278 115.346 139.126C115.756 139.619 112.496 146.109 112.496 146.109C112.496 146.109 113.226 148.144 112.725 149.58C112.324 150.728 111.232 150.676 111.232 150.676C111.232 150.676 111.431 152.792 110.38 154.042C109.748 154.792 108.274 154.461 108.274 154.461C108.274 154.461 107.877 157.256 105.553 157.256C104.47 157.256 103.643 156.196 103.643 156.196C103.643 156.196 99.8434 157.057 96.6905 155.488C91.7939 153.052 91.2442 149.5 89.3178 145.226C88.6571 143.762 87.087 142.283 86.4299 140.707C87.0888 140.106 97.8399 129.439 97.8399 129.439L100.422 131.585L102.638 129.301L102.636 129.303Z" fill="#E8AA7D"/>
<path d="M112.967 150.348C112.653 150.765 112.184 151.073 111.597 151.247C111.622 151.84 111.558 152.466 111.341 153.122C111.189 153.571 110.911 154.407 110.063 154.905C109.665 155.141 109.196 155.265 108.7 155.265C108.636 155.265 108.571 155.261 108.507 155.257C108.5 155.257 108.491 155.257 108.484 155.254C108.407 155.515 108.296 155.782 108.14 156.04C107.619 156.91 106.942 157.431 106.128 157.594C105.966 157.626 105.811 157.639 105.655 157.639C104.332 157.639 103.293 156.561 102.982 156.199C102.144 155.218 101.455 154.156 101.183 153.417C101.179 153.41 101.179 153.408 101.175 153.401C101.166 153.372 101.156 153.345 101.152 153.317C101 152.595 100.977 151.874 101.091 151.177C101.279 149.979 101.856 149.066 102.803 147.555C103.039 147.179 103.227 146.895 103.388 146.653C103.741 146.125 103.934 145.835 104.165 145.258C104.395 144.678 104.627 143.896 104.441 143.427C104.221 142.886 103.7 142.637 103.6 142.592C102.971 142.32 102.321 142.553 102.008 142.668C101.038 143.013 99.9329 144.254 98.7334 146.35C98.0244 147.589 97.4103 148.907 96.909 150.266C96.8177 150.518 96.5402 150.647 96.2877 150.554C96.0353 150.461 95.9064 150.182 95.9995 149.933C96.5169 148.518 97.1543 147.152 97.8919 145.869C99.8792 142.399 101.235 141.914 101.682 141.753C101.695 141.749 101.705 141.746 101.718 141.74C101.693 141.66 101.689 141.568 101.711 141.479C101.747 141.336 101.911 140.589 101.449 139.935C101.34 139.78 101.029 139.402 100.533 139.271C100.355 139.223 99.8183 139.08 98.6045 139.851C97.8185 140.349 96.8141 141.182 95.3138 143.566C94.6245 144.66 93.9997 145.822 93.4554 147.013C93.3712 147.19 93.1958 147.297 93.0114 147.297C92.9433 147.297 92.8753 147.285 92.8109 147.253C92.5656 147.143 92.4581 146.855 92.5709 146.612C93.1313 145.378 93.7777 144.182 94.4902 143.052C96.0962 140.499 97.2062 139.586 98.0817 139.033C98.1533 138.988 98.2249 138.945 98.2912 138.908C98.0584 138.575 97.609 138.086 96.9323 137.902C96.4202 137.762 95.7614 137.866 94.9718 138.213C93.9889 138.646 92.8484 139.74 91.7689 141.298C91.0957 142.265 90.4941 143.262 89.9373 145.674C89.8854 145.897 89.6849 146.05 89.4647 146.05C89.4288 146.05 89.393 146.046 89.3554 146.041C89.0958 145.98 88.9311 145.717 88.9938 145.459C89.59 142.882 90.2685 141.76 90.9739 140.746C92.1717 139.022 93.4196 137.837 94.5851 137.325C95.5949 136.881 96.4489 136.765 97.1901 136.965C98.241 137.257 98.882 138.031 99.1702 138.473C99.7664 138.245 100.293 138.204 100.782 138.337C101.584 138.55 102.069 139.135 102.241 139.375C102.817 140.191 102.771 141.067 102.697 141.515C103.082 141.479 103.53 141.511 103.988 141.708C104.215 141.808 104.989 142.2 105.342 143.067C105.594 143.692 105.503 144.53 105.066 145.623C104.801 146.293 104.574 146.633 104.199 147.195C104.04 147.432 103.856 147.709 103.626 148.076C102.644 149.643 102.203 150.373 102.051 151.335C101.96 151.9 101.976 152.49 102.096 153.086V153.093C102.328 153.721 102.962 154.695 103.72 155.574C103.981 155.879 104.907 156.853 105.94 156.649C106.473 156.541 106.933 156.172 107.306 155.551C107.859 154.622 107.658 153.6 107.467 152.609C107.254 151.499 106.794 150.45 106.108 149.487C105.952 149.267 106.004 148.962 106.224 148.807C106.441 148.651 106.745 148.703 106.901 148.923C107.667 150.001 108.179 151.179 108.419 152.425C108.528 152.991 108.656 153.628 108.632 154.292C108.885 154.305 109.241 154.269 109.57 154.076C110.104 153.759 110.292 153.193 110.419 152.821C110.629 152.191 110.663 151.571 110.611 150.989C110.607 150.95 110.604 150.912 110.598 150.873C110.557 150.472 110.475 150.09 110.389 149.734C109.948 147.96 109.175 146.223 108.088 144.573C107.943 144.349 108.004 144.048 108.228 143.899C108.455 143.754 108.752 143.815 108.901 144.039C110.047 145.783 110.865 147.622 111.33 149.501C111.391 149.747 111.447 150.003 111.492 150.268C111.796 150.151 112.032 149.983 112.197 149.766C112.575 149.269 112.55 148.468 112.093 146.916C111.617 145.292 111.067 143.65 109.597 141.479C108.491 139.844 107.134 138.405 105.562 137.207C105.352 137.046 105.309 136.738 105.471 136.527C105.632 136.314 105.94 136.271 106.151 136.434C107.807 137.699 109.237 139.214 110.403 140.934C111.95 143.219 112.546 145.009 113.024 146.642C113.5 148.264 113.654 149.451 112.965 150.354L112.967 150.348Z" fill="#00151A"/>
<path d="M100.202 20.9945C100.202 20.9945 101.63 22.4339 101.507 24.2744C101.442 25.2412 100.022 26.2438 100.022 26.2438C100.022 26.2438 100.903 28.8488 99.1201 29.6043C96.6978 30.6302 94.6567 28.4263 94.6567 28.4263C94.6567 28.4263 93.7454 29.3304 92.9398 29.4486C90.6696 29.7816 86.8561 25.7425 84.9243 24.4194C83.6979 23.5797 82.3068 23.125 81.1431 22.2047C81.8091 21.5727 86.1991 8.42609 87.66 8.29539C88.2956 8.2381 92.5656 10.7607 93.4554 11.3014C95.9924 12.8429 102.447 16.8408 101.197 20.4036C101.005 20.9497 100.205 20.9927 100.205 20.9927L100.202 20.9945Z" fill="#E8AA7D"/>
<path d="M93.1296 136.305C92.8396 136.806 90.4065 139.533 89.9553 139.12C90.4709 137.813 91.726 136.624 93.1296 136.305Z" fill="#F7E0D1"/>
<path d="M44.4567 122.195C44.206 125.565 43.9214 128.676 44.4424 132.055C32.6134 135.041 20.6502 133.227 9.65555 128.252C8.14627 127.568 0.43516 123.461 0.0788773 122.299C-0.438539 120.614 1.70274 115.352 2.66954 113.72C2.93809 113.267 42.618 122.02 44.4567 122.195Z" fill="#C1DB70"/>
<path d="M95.6003 127.133C96.2413 126.547 99.122 129.514 98.9644 129.944C96.2789 133.827 95.8205 135.055 91.939 138.704C90.2865 140.258 86.883 142.337 86.883 142.337C86.883 142.337 84.1455 139.291 83.2611 138.24C84.1187 137.265 94.6192 127.831 95.5985 127.133H95.6003Z" fill="#C1DB70"/>
<path d="M84.2351 7.28548C84.0686 6.99365 82.9926 7.05274 83.2558 6.16113C84.6666 6.4834 88.5678 7.17985 88.5624 8.78402C88.5553 10.748 84.8403 23.5026 83.4438 23.7121C81.9345 22.9243 79.9418 23.0121 78.676 21.8537C79.3027 20.8439 80.1352 21.9128 80.9122 21.655C82.2174 21.2217 85.03 8.68734 84.2351 7.28548Z" fill="#C1DB70"/>
<path d="M74.1373 59.7327C73.3675 62.7065 71.5073 65.4851 68.4458 68.0597C64.2169 71.6171 60.6863 72.8077 55.5963 70.0255C54.275 71.2769 54.4755 74.6375 52.5813 75.1388C52.5133 75.1567 52.3199 75.1925 52.0299 75.2408C51.9619 75.2533 51.8885 75.2659 51.8097 75.2802H51.8079C51.5501 75.1226 51.2959 74.983 51.0506 74.8648C47.1368 72.9778 42.4801 73.2195 38.4768 74.9526C38.33 74.4817 38.2136 74.0842 38.194 73.9679C38.0382 73.0691 38.0203 71.7729 38.0973 70.8616C38.2208 69.4078 39.4991 67.2003 39.449 66.699C39.4007 66.1959 38.2602 64.8012 37.9397 63.9937C35.068 56.7714 37.3203 48.5787 44.1612 44.8941C44.5569 44.681 44.9669 44.4841 45.393 44.3015C46.1682 43.9721 48.741 43.3991 48.8932 43.204C49.117 42.9157 47.8566 38.6224 50.4383 36.2968C52.9949 33.9961 53.8901 36.218 55.5784 37.5375C57.1092 38.7335 58.7527 39.8292 60.4464 40.7816C61.3022 41.2632 63.3432 42.1656 65.4791 43.1324C67.5434 44.0652 69.6972 45.0552 70.9577 45.7803C70.4653 46.2512 69.9944 46.7507 69.5451 47.2717C66.6303 50.6466 64.5678 54.981 63.0908 59.7452C62.8455 60.5347 61.6245 64.7725 63.0299 66.8207C64.02 68.2637 64.8865 68.7042 65.66 68.1635C65.8605 68.0722 66.4173 67.6138 67.1173 66.9944C68.854 65.4779 71.459 63.0019 71.6577 62.8103C72.5475 61.942 73.3836 60.8892 74.1373 59.7327Z" fill="#E8AA7D"/>
<path d="M78.103 80.0067C76.5597 84.8066 72.782 90.09 68.1933 93.3753C65.7889 99.912 69.2425 106.683 67.4807 113.297C65.5722 120.474 57.7036 125.38 50.5851 126.028C48.6533 126.203 41.5724 125.047 42.2545 122.189C42.5141 121.112 42.2258 112.038 42.7916 108.359C44.0055 100.437 48.0409 90.5931 51.8007 83.5122C52.2966 82.5866 54.9553 78.8752 55.0073 78.5869C55.163 77.7419 51.2887 75.2407 49.9817 75.6847C49.2853 75.9175 49.3443 77.2388 48.3382 77.0472C48.2468 74.9149 50.7193 73.0081 52.8552 73.3841C53.2044 73.445 56.3107 74.7985 56.4449 74.9399C57.5299 76.0894 53.4264 74.9758 52.9215 75.2891C56.4646 79.4857 56.171 75.9014 58.5808 75.1082C59.1538 74.9202 61.3863 75.2175 62.8688 74.8307C63.8391 74.5747 65.5131 73.5041 66.3671 73.0386C68.3831 73.9123 72.3935 75.1745 78.6652 73.8765C79.0573 75.6507 78.8245 77.7759 78.1012 80.0085L78.103 80.0067Z" fill="#00151A"/>
<path d="M74.1374 59.7326C73.3836 60.8891 72.5475 61.9419 71.6577 62.8102C71.459 63.0018 68.854 65.4778 67.1174 66.9943C66.4173 67.6138 65.8605 68.0721 65.66 68.1634C64.8866 68.7041 64.02 68.2637 63.03 66.8206C61.6245 64.7724 62.8456 60.5347 63.0908 59.7451C64.5679 54.9809 66.6304 50.6465 69.5451 47.2716C69.9945 46.7506 70.4653 46.2511 70.9577 45.7802C69.6973 45.0551 67.5435 44.0651 65.4792 43.1323C65.9912 42.4108 67.8729 42.0975 69.4341 42.0509C71.3014 41.8898 73.321 41.9811 74.0586 42.3356C75.3047 42.9371 75.9188 43.9397 76.2912 45.048C76.583 45.2091 76.8641 45.3864 77.1398 45.5869C77.5964 46.0273 77.8989 46.6718 77.9867 47.5778C78.2946 50.8362 76.6654 55.8672 74.1374 59.7326Z" fill="#00151A"/>
<path d="M83.3291 72.0661C82.0472 74.9074 80.5165 77.1633 78.103 80.0082C78.8246 77.7756 79.0573 75.6486 78.667 73.8762C72.3954 75.1742 68.3849 73.912 66.369 73.0383C66.2616 72.9899 66.1613 72.9452 66.0682 72.9022C64.4336 72.1538 66.5606 72.1574 67.0135 71.9282C70.0912 70.3563 67.3501 68.3063 67.1174 66.9958C68.8558 65.4776 71.4608 63.0033 71.6577 62.8117C75.5178 59.0376 78.3895 51.8117 77.9885 47.5793C77.9007 46.6733 77.5964 46.0288 77.1398 45.5884C80.742 48.1576 83.0391 53.6629 84.1366 57.6519C85.8714 63.9629 86.0165 66.1078 83.3309 72.0661H83.3291Z" fill="#99D9E5"/>
<path d="M60.9568 64.0973C72.9898 62.939 72.7571 76.9164 63.9341 79.772C50.5726 84.0975 47.1691 65.424 60.9568 64.0973Z" fill="#E8AA7D"/>
<path d="M56.6258 64.7046C56.2857 65.5031 55.6161 66.2712 54.8659 66.7653C54.3736 67.0822 53.8526 67.2863 53.3584 67.3096C46.8701 67.5979 43.848 64.3287 41.9932 61.5303C41.9162 61.4139 41.841 61.2976 41.7658 61.1812C39.7212 57.9782 38.6398 54.4369 40.4069 50.9546C41.8142 48.1813 45.0046 46.6381 47.8369 47.7517C50.3184 48.7292 49.9299 51.0746 50.6424 53.0583C52.1016 57.126 58.7331 59.7704 56.6258 64.7046Z" fill="#00151A"/>
<path d="M54.8641 66.7653C54.3718 67.0821 53.8508 67.2862 53.3567 67.3095C46.8684 67.5978 43.8462 64.3286 41.9914 61.5302C41.9144 61.4138 41.8392 61.2975 41.764 61.1811C46.5372 59.3854 52.9126 61.9671 54.8641 66.767V66.7653Z" fill="#C2570A"/>
<path d="M97.2134 126.639C97.2134 126.655 97.2116 126.673 97.2116 126.689C97.2098 126.716 97.2062 126.744 97.2027 126.773C97.1937 126.821 97.183 126.871 97.1704 126.922C97.1651 126.943 97.1597 126.965 97.1525 126.986C97.1436 127.024 97.131 127.063 97.1167 127.101C97.1006 127.151 97.0809 127.204 97.0594 127.258C97.0379 127.312 97.0147 127.367 96.9878 127.423C96.9359 127.537 96.875 127.656 96.8088 127.779C96.7747 127.842 96.7389 127.904 96.7013 127.969C96.6781 128.008 96.653 128.049 96.628 128.091C96.6047 128.132 96.5796 128.173 96.551 128.214C96.5259 128.257 96.499 128.298 96.4704 128.341C96.4435 128.386 96.4149 128.429 96.3845 128.472C96.2376 128.689 96.0747 128.916 95.8993 129.152C95.8277 129.247 95.7542 129.342 95.679 129.439C95.6021 129.535 95.5251 129.632 95.4445 129.731C95.4069 129.781 95.3657 129.831 95.3228 129.881C95.2404 129.981 95.1563 130.082 95.0703 130.184C95.0166 130.246 94.9629 130.309 94.9092 130.373C94.7212 130.59 94.5261 130.81 94.3237 131.034C94.2432 131.124 94.1608 131.213 94.0785 131.303C93.9943 131.392 93.9102 131.482 93.826 131.573C90.6248 134.966 86.0236 138.738 83.9432 139.361H83.9396C83.9074 139.372 83.8752 139.379 83.8429 139.388C83.7928 139.399 83.7463 139.408 83.6997 139.415C83.2539 139.483 82.4375 139.03 81.5477 138.396C81.5423 138.392 81.5352 138.387 81.528 138.382C80.3822 137.533 79.0483 136.385 78.3107 135.736C78.2874 135.714 78.2642 135.694 78.2409 135.675C78.1317 135.576 78.0368 135.492 77.9598 135.424C77.7127 135.206 77.4639 134.98 77.2132 134.753C76.9626 134.523 76.7083 134.291 76.4541 134.054C76.071 133.698 75.6842 133.335 75.2939 132.964C74.9054 132.593 74.5133 132.214 74.1195 131.833C73.5949 131.322 73.0685 130.803 72.5421 130.277C71.4894 129.226 70.442 128.155 69.4233 127.099C69.2962 126.966 69.1691 126.834 69.0402 126.701C68.7895 126.438 68.5389 126.175 68.29 125.915C67.4217 125.002 66.582 124.109 65.7907 123.257C65.6116 123.065 65.4308 122.868 65.2482 122.666C59.5459 116.407 51.2296 105.502 49.8725 102.728C49.817 102.972 49.7615 103.221 49.7078 103.471C49.2799 103.452 49.5037 103.582 49.4017 104.028C48.2988 108.907 47.699 114.065 47.3213 119.065C47.3087 119.228 47.2962 119.391 47.2837 119.552C47.2801 119.604 47.2765 119.658 47.2747 119.715C47.2461 120.217 47.2675 120.691 47.2998 121.139V121.144C47.3374 121.953 47.3929 122.825 47.3606 123.52C47.2479 124.184 46.922 124.75 46.1307 125.223C46.1307 125.223 46.1289 125.224 46.1271 125.224C45.9463 125.332 45.7404 125.436 45.5076 125.534C34.3017 130.264 18.4713 126.429 8.51508 120.224C7.31016 119.474 0.664322 114.681 0.417252 113.832C0.198827 113.077 1.43597 110.644 1.83343 109.723C5.00954 102.377 11.1326 93.277 16.1044 86.9606C18.6485 83.729 25.2246 77.6919 25.6775 73.9554C26.0141 71.1892 24.4332 67.8359 23.8209 65.0626C20.8883 51.7709 15.9111 23.6389 24.8808 12.5028C34.8872 0.0794988 66.7288 -0.772716 80.7026 3.94848C85.7443 5.65291 85.3934 5.86238 84.6235 11.2299C84.3657 13.0238 81.9326 22.5611 80.7886 23.2773C80.0545 23.7356 74.6852 21.8575 73.3156 21.5657C65.9482 19.9937 58.9067 19.5694 51.4337 20.717C49.7902 20.9677 44.9132 22.0437 43.6367 22.7939C42.8149 23.2755 42.754 24.5019 42.6824 25.3666C42.1417 31.8746 42.8991 38.3951 44.1613 44.8941C37.3203 48.5787 35.068 56.7714 37.9397 63.9938C38.2602 64.8012 39.4007 66.1959 39.449 66.699C39.4991 67.2003 38.2208 69.4078 38.0973 70.8616C38.0203 71.7729 38.0382 73.0691 38.194 73.9679C38.2137 74.0843 38.33 74.4817 38.4769 74.9526C42.4801 73.2195 47.1369 72.9778 51.0506 74.8649C51.2959 74.983 51.5501 75.1227 51.8079 75.2802H51.8097C53.8686 76.5317 56.2946 78.9559 58.7886 81.8383C60.3283 83.9778 61.7498 86.2534 63.3647 88.298C66.0109 91.6531 68.7394 94.9385 71.527 98.1719C71.7383 98.435 71.9424 98.6857 72.1393 98.9202C75.9528 103.482 80.0151 107.838 84.1025 112.165C86.9725 115.259 89.8657 118.331 92.759 121.404C94.2575 123.042 95.7363 124.696 97.1848 126.374C97.1901 126.392 97.1937 126.41 97.1973 126.429C97.2098 126.495 97.217 126.565 97.2134 126.639Z" fill="#86B200"/>
<path d="M99.7431 21.2739C99.6106 21.2739 99.4763 21.2202 99.3814 21.1128C98.6402 20.2838 97.8166 19.5211 96.934 18.8444C96.1784 18.2643 95.371 17.7397 94.5313 17.2868C94.295 17.1597 94.2073 16.8642 94.3344 16.6297C94.4615 16.3934 94.7569 16.3056 94.9914 16.4328C95.8759 16.9108 96.7263 17.4622 97.523 18.0745C98.4522 18.7871 99.3205 19.5928 100.101 20.4665C100.28 20.667 100.262 20.9731 100.064 21.1522C99.9704 21.2345 99.8559 21.2757 99.7395 21.2757L99.7431 21.2739Z" fill="#00151A"/>
<path d="M99.6984 26.5736C99.5695 26.5736 99.4424 26.5235 99.3475 26.4232C98.4541 25.4833 97.4641 24.6275 96.4042 23.8809C95.4642 23.2185 94.458 22.633 93.416 22.1425C93.1743 22.0279 93.0687 21.7396 93.1833 21.4962C93.2979 21.2527 93.5861 21.1488 93.8296 21.2634C94.9235 21.779 95.9781 22.3913 96.9645 23.0878C98.0746 23.872 99.1148 24.769 100.051 25.7537C100.236 25.947 100.228 26.255 100.033 26.4394C99.9401 26.5289 99.8184 26.5736 99.6984 26.5736Z" fill="#00151A"/>
<path d="M94.3075 28.5839C94.1643 28.5839 94.0229 28.5213 93.928 28.4013C93.2333 27.5276 92.4312 26.7398 91.5468 26.0631C90.5119 25.2717 89.3697 24.6344 88.1505 24.1671C87.8998 24.0704 87.7745 23.7911 87.8712 23.5405C87.966 23.2898 88.2471 23.1645 88.4978 23.2612C89.8047 23.7625 91.0294 24.4464 92.1376 25.2932C93.0865 26.0183 93.9441 26.8616 94.6889 27.798C94.8554 28.0074 94.8214 28.3136 94.6119 28.4801C94.5224 28.5517 94.4167 28.5857 94.3093 28.5857L94.3075 28.5839Z" fill="#00151A"/>
<path d="M8.91787 111.369C8.84983 111.369 8.78001 111.354 8.71555 111.324C8.47206 111.211 8.36643 110.923 8.47743 110.679C11.6159 103.872 15.5082 97.4163 20.0468 91.4902C23.2408 87.3204 26.7929 83.3655 30.6046 79.7382C30.7979 79.5538 31.1059 79.561 31.2903 79.7543C31.4747 79.9477 31.4675 80.2557 31.2742 80.4401C27.4983 84.0333 23.9802 87.9488 20.8166 92.0792C16.321 97.948 12.4664 104.341 9.3583 111.084C9.27594 111.261 9.10048 111.367 8.91787 111.367V111.369Z" fill="#00151A"/>
<path d="M30.2912 77.2745C29.4891 77.2745 28.7336 77.1008 28.1929 76.6103C28.0783 76.5064 27.5144 75.7795 27.7919 75.0688C28.2126 73.9928 29.6216 73.6866 31.6591 74.2273C32.5489 74.4636 34.4001 75.3158 34.4789 75.3516C34.6508 75.4304 34.7618 75.6041 34.7618 75.7939C34.7618 75.9836 34.649 76.1555 34.4771 76.2343C34.1602 76.3775 32.1102 77.2727 30.293 77.2727L30.2912 77.2745ZM28.8661 75.912C29.7165 76.6407 31.6519 76.2235 33.0054 75.767C32.4504 75.5307 31.8059 75.2747 31.4084 75.169C30.3163 74.879 28.9502 74.7716 28.696 75.4251C28.6512 75.5378 28.7766 75.7939 28.8661 75.9138V75.912Z" fill="#00151A"/>
<path d="M59.0517 47.0535C58.6668 46.9765 58.4179 47.0732 58.2819 47.1556C58.0706 47.2845 57.8719 47.5119 57.931 47.9559C57.9793 48.3086 58.2765 48.5539 58.5254 48.7562C58.7671 48.9531 59.4402 49.3434 60.1098 49.1751C60.2799 49.1321 60.6004 48.98 60.7007 48.638C60.8099 48.2584 60.6398 48.0042 60.5628 47.9111C60.3426 47.6479 60.0436 47.2523 59.0535 47.0553L59.0517 47.0535Z" fill="#00151A"/>
<path d="M62.6754 52.589C62.5089 52.589 62.3496 52.4959 62.2726 52.3366C62.1652 52.1146 62.2565 51.846 62.4803 51.7386C62.9673 51.5023 63.875 50.9383 64.4748 49.8265C65.0799 48.7057 65.0477 47.6262 64.9725 47.0837C64.9385 46.8384 65.1103 46.6128 65.3556 46.5806C65.6009 46.5484 65.8265 46.7184 65.8587 46.9637C65.9464 47.6136 65.9858 48.9063 65.2607 50.2508C64.5428 51.5829 63.4543 52.2578 62.8688 52.5425C62.8061 52.5729 62.7399 52.5873 62.6737 52.5873L62.6754 52.589Z" fill="#00151A"/>
<path d="M123.811 23.2628L113.167 29.9087C111.531 30.5407 110.252 29.6544 109.884 28.027C107.382 30.9399 101.301 32.1896 104.061 26.618C102.031 26.5661 101.566 24.7488 102.033 22.9961C102.192 22.3963 103.302 21.3579 103.3 21.143C103.295 20.7402 101.705 20.4949 102.573 18.248C103.254 16.4863 107.569 13.0542 109.234 11.8618C110.136 11.2155 116.064 7.53984 116.583 7.57743C116.676 7.5846 123.17 22.7902 123.809 23.2628H123.811Z" fill="#E8AA7D"/>
<path d="M150.969 103.854L117.108 141.414C115.994 141.932 113.767 140.791 112.641 140.243C109.241 138.587 102.319 133.207 101.653 129.335C101.419 127.971 103.012 126.418 103.882 125.364C117.686 108.624 136.875 93.1014 149.148 75.4036C159.998 59.7594 162.007 42.887 161.52 22.7847C149.333 19.6212 134.836 19.6301 122.982 24.4444C117.496 19.8682 115.065 11.9297 116.109 4.98133L116.649 4.46392C132.596 -1.16499 151.52 -1.47115 167.378 4.74142C176.084 8.15207 179.667 13.6431 181.475 22.6612C184.912 39.7968 181.976 59.1417 178.625 76.0284C181.862 80.0818 183.623 81.4353 186.524 85.7573C192.378 94.4781 199.611 114.081 199.993 124.497C200.07 126.626 199.257 127.226 197.692 128.536C189.797 135.148 170.849 140.344 160.825 138.262C159.813 138.052 157.156 137.533 156.959 136.484C156.881 128.663 156.766 120.249 155.096 112.6C154.226 108.613 153.45 109.797 152.014 107.218C151.459 106.223 151.092 104.991 150.965 103.858L150.969 103.854Z" fill="#008099"/>
<path d="M151.671 102.443C153.212 109.676 159.103 108.799 158.338 101.244C157.502 92.9865 149.112 86.9745 141.804 84.6345L146.362 78.6403C151.302 79.6089 160.531 81.5031 164.368 77.2205C169 72.0482 157.899 66.8722 153.792 66.8167C154.208 66.2098 154.906 63.2091 155.241 62.9674C156.066 62.3712 166.454 66.772 168.028 67.5758C186.948 77.251 195.827 96.9056 199.255 117.017C193.8 122.007 187.564 125.906 180.497 127.985C174.636 129.707 167.492 130.518 161.384 129.594C159.183 129.261 153.826 127.784 153.241 125.392C152.831 118.302 152.342 111.159 150.353 104.312L151.673 102.443H151.671Z" fill="#99D9E5"/>
<path d="M164.996 72.5602C164.484 75.065 160.884 76.7211 158.553 76.7211C157.507 76.7175 156.245 76.0801 155.366 76.1481C154.677 76.2036 153.286 77.1346 152.113 77.3065C145.045 78.3557 139.029 73.1618 136.589 66.9152C136.277 66.1221 135.735 63.3649 135.735 63.3649C135.735 63.3649 133.438 62.6756 132.657 62.3838C129.8 61.3185 128.767 58.3322 129.715 56.3216C130.195 55.3029 133.527 54.4704 134.852 53.6969C137.701 52.0373 139.457 49.6579 141.185 47.4128C141.813 46.5964 142.438 45.7979 143.109 45.0531C143.113 45.0495 143.113 45.0459 143.113 45.0459C143.113 45.0459 147.293 46.3475 148.43 46.6089C149.85 46.9365 151.263 47.1854 152.734 47.069C148.715 52.2217 154.437 53.0399 158.376 50.9452C158.166 52.7087 158.771 55.5733 160.583 56.3234C162.787 57.2401 162.289 55.7505 163.412 58.787C164.871 62.7311 164.01 66.9779 165.079 71.0366C165.104 71.5809 165.091 72.1037 164.998 72.5585L164.996 72.5602Z" fill="#E8AA7D"/>
<path d="M171.669 60.5611C171.426 62.3658 170.194 65.6726 168.146 68.4172C167.404 69.4109 166.21 70.5012 165.081 71.049C165.081 71.0455 165.077 71.0419 165.077 71.0401C164.01 66.9813 164.869 62.7364 163.41 58.7904C162.288 55.7557 162.785 57.2435 160.581 56.3269C158.769 55.5767 158.164 52.7121 158.374 50.9486C154.435 53.0415 148.715 52.2233 152.732 47.0725C151.261 47.1888 149.848 46.94 148.428 46.6123C147.293 46.3509 143.111 45.0494 143.111 45.0494C143.111 45.0494 143.111 45.0529 143.107 45.0565C142.434 45.8013 141.809 46.5998 141.183 47.4162C140.032 47.1315 139.015 45.633 139.255 44.113C139.507 42.5142 140.846 41.9968 140.846 41.9968C140.846 41.9968 139.292 39.0104 140.73 37.3633C142.81 34.9839 146.176 36.5576 148.496 37.5477C147.884 33.6376 152.088 31.3369 155.02 34.0261C156.503 35.3885 159.554 41.6477 161.26 41.6477C161.713 39.8609 162.374 39.1071 162.807 38.6577C165.183 36.1888 169.981 38.3337 167.544 42.4838C171.615 42.0218 173.356 46.2578 168.962 47.6042C172.392 50.8537 172.269 56.1084 171.667 60.5665L171.669 60.5611Z" fill="#00151A"/>
<path d="M158.463 60.0442C157.81 58.9825 159.425 55.9407 160.141 55.0079C163.231 50.9796 170.994 51.4558 172.913 56.3399C176.496 65.4583 164.712 72.8041 160.184 63.4262C159.731 62.4863 159.627 61.1345 159.228 60.4864C159.076 60.2393 158.555 60.1928 158.463 60.0442Z" fill="#E8AA7D"/>
<path d="M158.771 64.5681C158.198 68.7325 154.603 71.1441 153.959 71.5738C153.202 72.0823 151.642 72.9971 149.587 73.3982C148.473 73.6184 147.211 73.69 145.856 73.459C145.211 73.3516 141.215 72.6767 139.643 69.6205C139.391 69.1246 138.673 67.7299 139.219 66.3943C139.611 65.4275 140.488 64.9154 140.986 64.6272C141.811 64.1456 142.125 64.2548 143.908 63.7732C145.17 63.433 146.241 63.1394 147.442 62.4949C148.387 61.9864 149.041 61.4618 149.574 61.0321C151.198 59.7287 151.374 59.1075 152.62 58.5346C153.105 58.3143 153.766 58.01 154.628 58.0494C156.603 58.1371 157.831 59.9257 158.039 60.2408C158.327 60.674 158.521 61.1216 158.651 61.5585C159.017 62.792 158.859 63.9504 158.771 64.5681Z" fill="#00151A"/>
<path d="M158.771 64.568C158.198 68.7324 154.603 71.1441 153.959 71.5737C153.201 72.0822 151.642 72.9971 149.587 73.3981C149.567 72.0428 150.011 70.4691 150.176 69.8836C151.046 66.7935 153.06 64.9673 154.424 63.7642C155.627 62.7025 157.343 61.8288 158.651 61.5566C159.017 62.7902 158.859 63.9486 158.771 64.5662V64.568Z" fill="#C2570A"/>
<path d="M148.536 51.0617C148.444 51.0617 148.353 51.0366 148.271 50.9829C147.54 50.5085 146.765 50.0895 145.967 49.7422C145.111 49.3698 144.217 49.0708 143.306 48.856C143.045 48.7933 142.884 48.5319 142.946 48.2723C143.009 48.0109 143.267 47.8498 143.532 47.9124C144.497 48.1416 145.447 48.4585 146.355 48.8542C147.204 49.223 148.027 49.667 148.803 50.1719C149.028 50.3187 149.091 50.6195 148.944 50.8433C148.851 50.9865 148.695 51.0635 148.538 51.0635L148.536 51.0617Z" fill="#00151A"/>
<path d="M147.349 54.0767C147.225 54.0767 147.1 54.0301 147.005 53.9352C146.747 53.6792 145.374 52.4152 143.492 52.7017C142.508 52.8521 141.799 53.3605 141.378 53.7616C141.185 53.946 140.877 53.9388 140.692 53.7454C140.508 53.5521 140.515 53.2441 140.708 53.0597C141.229 52.562 142.112 51.9318 143.346 51.7438C145.687 51.3875 147.376 52.9362 147.691 53.2513C147.881 53.4411 147.881 53.7472 147.691 53.937C147.596 54.0319 147.472 54.0802 147.347 54.0802L147.349 54.0767Z" fill="#00151A"/>
<path d="M103.626 21.1821C103.508 21.1821 103.388 21.1392 103.295 21.0514C103.1 20.8688 103.089 20.5609 103.272 20.3657C103.999 19.5887 104.781 18.8511 105.603 18.1761C106.58 17.3704 107.631 16.6328 108.725 15.9847C108.956 15.8486 109.253 15.9238 109.389 16.1548C109.526 16.3857 109.45 16.6829 109.219 16.819C108.168 17.4403 107.16 18.1493 106.221 18.9227C105.433 19.5726 104.679 20.2798 103.983 21.0264C103.888 21.1284 103.757 21.1803 103.628 21.1803L103.626 21.1821Z" fill="#00151A"/>
<path d="M104.221 26.7105C104.119 26.7105 104.015 26.6783 103.927 26.612C103.714 26.4509 103.671 26.1447 103.834 25.9317C104.469 25.0938 105.18 24.3042 105.945 23.5863C106.996 22.5998 108.163 21.7315 109.414 21.0064C109.647 20.8721 109.943 20.9509 110.079 21.1836C110.213 21.4164 110.134 21.7118 109.901 21.8478C108.714 22.5353 107.606 23.3589 106.609 24.2953C105.884 24.9756 105.211 25.724 104.607 26.5189C104.512 26.6442 104.367 26.7105 104.221 26.7105Z" fill="#00151A"/>
<path d="M110.068 27.989C109.975 27.989 109.882 27.9621 109.799 27.9066C109.576 27.758 109.517 27.4554 109.665 27.2334C110.358 26.1968 111.234 25.3213 112.267 24.632C113.165 24.0323 114.154 23.5954 115.205 23.3304C115.466 23.2642 115.727 23.4235 115.794 23.6831C115.858 23.9427 115.701 24.2077 115.441 24.2722C114.497 24.5085 113.611 24.9006 112.806 25.4395C111.88 26.0572 111.094 26.8431 110.473 27.7723C110.38 27.912 110.226 27.9872 110.068 27.9872V27.989Z" fill="#00151A"/>
<path d="M167.558 81.8559C167.838 81.6374 168.298 81.8272 168.441 81.8863C169.028 82.128 169.25 82.6848 169.293 82.7994C169.372 83.0107 169.576 83.5531 169.263 83.956C169.086 84.1851 168.774 84.3266 168.471 84.2908C168.128 84.2514 167.929 84.0007 167.771 83.8038C167.494 83.4547 167.435 83.0912 167.406 82.8907C167.356 82.5416 167.286 82.0689 167.558 81.8559Z" fill="#00151A"/>
<path d="M173.527 92.7896C173.816 92.6714 174.149 92.9042 174.38 93.0635C174.528 93.1673 174.757 93.3303 174.897 93.6418C174.956 93.7761 175.105 94.1055 174.958 94.4636C174.936 94.5173 174.804 94.8252 174.471 94.9506C174.007 95.1242 173.583 94.7841 173.527 94.7375C173.098 94.383 173.125 93.8208 173.132 93.6722C173.139 93.5308 173.166 92.9364 173.527 92.7896Z" fill="#00151A"/>
<path d="M178.431 104.182C178.906 103.949 179.464 104.427 179.497 104.456C179.998 104.896 179.939 105.573 179.923 105.704C179.905 105.865 179.831 106.509 179.375 106.678C178.85 106.871 178.31 106.257 178.279 106.221C177.869 105.743 177.957 105.152 177.975 105.034C178.007 104.814 178.075 104.356 178.431 104.182Z" fill="#00151A"/>
<path d="M181.416 117.278C181.754 117.044 182.25 117.225 182.512 117.4C182.968 117.706 183.052 118.227 183.09 118.465C183.124 118.669 183.217 119.255 182.846 119.683C182.773 119.769 182.564 120.009 182.268 120.017C181.763 120.032 181.425 119.362 181.325 119.165C181.249 119.018 181.126 118.728 181.112 118.343C181.099 118.018 181.079 117.511 181.416 117.278Z" fill="#00151A"/>
</g>
<defs>
<clipPath id="clip0_7552_6750">
<rect width="200" height="157.447" fill="white" transform="translate(0 0.175781)"/>
</clipPath>
</defs>
</svg>
