<svg width="200" height="250" viewBox="0 0 200 250" fill="none" xmlns="http://www.w3.org/2000/svg">
<g clip-path="url(#clip0_7605_3360)">
<path d="M189.973 115.214C189.77 115.993 189.342 116.628 189.021 117.009C179.295 128.586 151.349 127.836 135.775 126.075C121.383 124.444 111.267 123.085 91.8999 117.945C87.8223 116.861 80.4717 114.515 73.138 110.04C71.3766 108.964 70.1105 107.939 69.7845 106.551C69.7803 106.542 69.7803 106.534 69.7803 106.525C69.7337 106.25 69.6913 105.987 69.704 105.742C69.8734 102.439 79.7858 98.4039 95.5922 98.7426C130.635 99.4921 145.857 101.008 169.132 105.03C176.309 106.271 185.231 108.816 187.86 110.73C190.05 112.322 190.299 113.956 189.973 115.214Z" fill="#00404D"/>
<path d="M197.794 100.123C203.9 83.6687 197.218 66.537 178.994 61.4813C167.773 58.3734 157.213 66.8038 152.191 76.4621C139.853 100.195 140.746 116.933 144.066 143.143C145.759 156.506 190.731 119.147 197.794 100.123ZM179.015 99.0814C167.574 102.486 157.056 88.0173 165.864 77.961C167.689 75.8777 173.282 73.1932 176.055 73.5743C190.858 75.6237 192.505 95.0631 179.015 99.0814Z" fill="#86B200"/>
<path d="M108.333 69.1365C101.457 56.3618 86.298 46.0853 72.2192 53.8679C57.2892 62.1162 57.0013 81.0178 63.4543 95.1686C69.8268 109.159 94.2457 133.992 107.012 143.045C109.62 144.9 113.452 148.329 115.993 144.629C118.821 120.324 120.388 91.5483 108.329 69.1408L108.333 69.1365ZM86.027 83.3C75.3017 89.1602 65.7069 72.4562 74.7512 66.0836C87.4794 57.1155 98.2936 76.593 86.027 83.3Z" fill="#86B200"/>
<path d="M106.11 84.5238C98.717 89.9436 93.4877 101.744 95.4355 111.331C98.1878 124.91 115.684 150.43 126.519 159.241C131.215 163.056 133.755 160.143 136.093 155.892C141.813 145.471 148.596 119.511 146.708 107.351C143.371 85.8491 124.512 71.0377 106.11 84.5238ZM130.719 101.236C130.465 105.822 128.069 110.967 124.906 112.068C122.759 112.813 118.499 114.206 113.194 110.746C110.573 109.04 108.058 103.171 108.269 99.9914C108.494 96.6676 111.678 91.993 116.547 90.5152C117.703 90.168 122.814 88.614 126.985 92.0988C129.284 94.0212 130.961 96.9047 130.715 101.236H130.719Z" fill="#C1DB70"/>
<path d="M174.391 25.6466C176.716 14.0279 168.929 2.43028 155.469 0.283525C143.68 -1.59224 133.23 5.92353 130.224 17.5719C125.825 34.619 134.687 80.0735 139.429 81.3819C143.837 82.5971 169.259 51.3315 174.396 25.6466H174.391ZM148.291 32.0149C134.153 28.3184 140.954 8.8875 151.01 8.95948C170.801 9.09497 167.151 36.9478 148.291 32.0149Z" fill="#C1DB70"/>
<path d="M189.973 115.214C189.351 118.923 167.866 141.597 153.648 167.354C152.369 169.679 151.145 172.029 150.002 174.391C149.401 175.628 148.825 176.873 148.27 178.118C143.591 188.665 140.7 199.356 141.415 209.167C141.944 216.442 145.184 229.915 147.186 236.758C147.36 237.359 147.525 237.909 147.682 238.4C149.227 243.329 147.356 244.896 142.063 246.767C131.244 250.587 117.178 250.498 106.292 246.954C102.854 245.84 96.6211 243.558 97.2308 239.865C97.7304 238.637 98.2513 237.333 98.7848 235.961C104.442 221.37 111.403 199.344 110.645 185.096C109.764 168.476 100.5 151.844 90.1639 136.914C84.744 129.081 79.0236 121.709 74.0695 115.061C73.1803 113.867 69.7802 109.294 69.704 105.742C70.0301 107.08 71.3765 108.875 73.138 109.908C80.4717 114.219 87.8223 116.475 91.8999 117.521C111.267 122.471 121.383 123.78 135.775 125.35C151.349 127.044 179.256 127.988 188.983 116.844C189.304 116.475 189.77 115.963 189.973 115.214Z" fill="#99D9E5"/>
<path d="M167.964 211.119C167.477 211.729 165.182 214.117 165.182 214.117C165.182 214.117 166.444 216.696 166.677 217.615C168.057 223.051 164.957 228.619 160.495 231.571C156.895 233.95 152.331 235.636 147.186 236.758C132.794 239.899 113.871 238.638 98.7848 235.962C93.3141 234.992 88.3516 233.836 84.291 232.633C79.591 231.24 75.272 229.627 71.258 226.744C63.6872 212.733 62.0189 196.325 61.7775 180.603C71.855 181.399 86.1921 181.818 87.564 168.777C88.1949 162.785 86.6833 158.627 84.8626 153.131C83.3044 148.436 79.1591 142.686 84.6255 138.604C86.442 137.249 88.3177 136.77 90.1639 136.914C96.2315 137.38 102.032 144.549 104.776 149.371C106.351 152.145 107.77 155.367 108.625 158.445C111.369 168.32 107.202 176.64 122.446 178.774C131.401 180.031 145.721 179.646 148.207 178.24C148.228 178.202 148.249 178.16 148.27 178.118C148.8 177.072 149.405 175.751 150.002 174.391C151.145 172.029 152.369 169.679 153.648 167.354C155.367 167.875 160.058 169.365 162.239 170.822C170.699 176.479 172.164 186.091 165.61 193.746C172.058 198.112 172.477 205.428 167.964 211.119Z" fill="#E8AA7D"/>
<path d="M8.59974 158.534C10.0436 158.322 11.4155 158.852 12.762 159.241C28.9071 163.933 41.3854 168.633 58.7839 169.522C63.8566 169.78 70.6483 168.828 75.361 169.556C78.2953 170.009 79.7307 172.897 80.5733 175.42C84.5535 187.344 82.4576 218.148 77.6898 229.983C75.6277 235.106 73.0279 237.854 67.1042 237.854C51.3952 237.854 16.8523 230.186 6.16505 217.996C-0.893423 209.942 -0.732522 182.508 0.999282 172.202C1.71063 167.985 3.47208 159.288 8.59974 158.538V158.534Z" fill="#86B200"/>
<path d="M135.394 180.569C132.189 180.569 128.89 180.446 125.626 180.201C125.041 180.158 124.605 179.65 124.647 179.066C124.69 178.482 125.211 178.05 125.782 178.088C130.995 178.482 136.304 178.558 141.14 178.308C145.484 178.083 149.706 177.084 153.03 175.496C153.559 175.242 154.19 175.467 154.44 175.992C154.694 176.521 154.469 177.152 153.944 177.402C150.375 179.112 145.865 180.184 141.246 180.421C139.353 180.518 137.388 180.565 135.39 180.565L135.394 180.569Z" fill="#0E2328"/>
<path d="M144.21 202.93C141.868 202.93 139.696 202.718 137.926 202.498C137.346 202.426 136.935 201.897 137.007 201.317C137.079 200.736 137.608 200.326 138.189 200.398C141.838 200.851 147.258 201.27 152.153 199.712C157.327 198.069 161.371 195.588 164.623 193.593L165.224 193.225C165.724 192.92 166.376 193.077 166.681 193.576C166.986 194.076 166.829 194.728 166.329 195.033L165.732 195.401C162.383 197.455 158.217 200.008 152.797 201.732C149.943 202.638 146.958 202.93 144.214 202.93H144.21Z" fill="#0E2328"/>
<path d="M144.019 221.734C141.466 221.734 139.378 221.455 137.812 221.129C137.24 221.01 136.872 220.451 136.99 219.876C137.109 219.304 137.672 218.936 138.244 219.054C141.064 219.638 145.7 220.062 151.802 218.758C156.751 217.699 160.791 216.158 164.513 213.901C165.008 213.596 165.665 213.757 165.965 214.257C166.27 214.756 166.109 215.408 165.61 215.709C161.735 218.059 157.361 219.732 152.242 220.824C149.138 221.485 146.382 221.726 144.023 221.726L144.019 221.734Z" fill="#06272D"/>
</g>
<defs>
<clipPath id="clip0_7605_3360">
<rect width="200" height="249.621" fill="white"/>
</clipPath>
</defs>
</svg>
