<svg width="200" height="186" viewBox="0 0 200 186" fill="none" xmlns="http://www.w3.org/2000/svg">
<g clip-path="url(#clip0_7555_3407)">
<path d="M68.6247 130.615C79.2206 129.946 90.6722 134.571 100.922 137.219C108.722 139.233 118.691 140.891 126.522 142.777C141.099 146.291 155.936 150.452 170.447 154.235C178.237 156.264 184.959 157.755 192.487 160.322C195.023 161.186 199.718 162.845 200 165.975L199.715 174.538C198.256 177.408 194.79 176.903 192.097 177.254C182.33 178.522 172.515 179.691 162.765 181.089C149.891 182.936 135.705 186.967 122.821 184.151C108.701 181.064 94.5175 176.641 80.5258 172.946C55.9608 166.462 31.0474 160.977 6.61856 154.019C5.58557 153.724 0.824742 152.46 0.391753 151.913C0.284536 151.779 0.16701 151.668 0.158763 151.478L0 142.491C0.0742268 141.992 0.457732 141.621 0.839175 141.33C2.49485 140.06 7.11753 139.128 9.29485 138.786C25.9773 136.159 38.9917 133.936 54.1917 131.932C58.6082 131.349 64.1856 130.897 68.6268 130.617L68.6247 130.615Z" fill="#00151A"/>
<path d="M71.4577 133.615C110.202 139.491 147.882 154.213 186.53 161.609C197.643 167.532 126.192 173.677 121.959 171.184C87.2144 161.167 51.7794 152.881 16.5815 144.557C15.2784 144.167 13.5691 143.254 15.0907 141.918C33.6763 137.825 52.5464 135.578 71.4557 133.615H71.4577Z" fill="#008099"/>
<path d="M170.252 87.4083C168.041 99.1691 149.763 98.2001 140.961 96.5114C138.054 95.9547 133.979 94.3753 131.239 94.2331C126.198 93.9795 125.73 100.505 125.183 104.171C122.911 119.404 122.581 140.208 108.876 150.031C104.122 153.439 97.367 155.293 92.066 153.893C91.4 153.716 90.7546 153.487 90.1402 153.204C90.2165 153.192 90.2556 153.184 90.2598 153.173C89.9938 153.052 89.0165 152.452 87.6041 151.551C85.7979 149.936 84.4989 147.567 84.0144 144.293C83.3752 139.979 84.3959 137.559 86.2 135.509C87.7031 133.81 89.7464 132.367 91.8288 130.316C95.9897 126.217 97.701 120.285 97.9917 114.563C92.167 118.342 83.5443 116.837 79.5752 111.078C69.9031 117.252 63.3299 108.862 60.8721 100.101C56.7608 85.4331 59.6804 69.6867 63.7422 55.4001C66.1216 47.0331 68.8701 40.7423 70.835 32.2681C72.4639 25.231 73.1484 21.4825 74.8618 13.9423C76.6639 6.00832 76.2825 4.56914 82.5711 2.67842C91.0165 0.140278 113.775 -0.410237 128.074 5.72997C132.126 7.47018 131.369 8.9609 130.594 14.0289C128.338 28.7568 126.443 40.965 134.072 54.5691C137.814 61.2454 143.983 67.5856 150.932 70.8764C158.08 74.264 172.276 76.6413 170.249 87.4083H170.252Z" fill="#E8AA7D"/>
<path d="M151.639 117.169C146.346 106.451 131.245 106.315 124.165 115.154C117.371 123.629 119.802 133.142 115.021 142.175C112.365 147.189 107.503 151.144 102.153 152.975C102.177 153.266 102.856 153.608 103.07 153.645C110.466 154.868 118.19 154.701 125.491 152.956C127.903 152.385 130.268 151.635 132.559 150.713C134.072 150.105 135.555 149.416 136.994 148.649C137.435 148.414 137.874 148.169 138.309 147.913C148.804 141.756 157.722 129.488 151.639 117.169ZM137.907 131.396C127.994 132.233 126.854 116.884 136.957 115.777C147.219 114.651 147.532 130.579 137.907 131.396Z" fill="#86B200"/>
<path d="M127.128 90.53C118.425 90.897 114.177 99.2269 112.439 106.68C111.928 108.878 111.045 115.052 111.959 116.934C113.037 119.165 115.006 115.757 115.823 114.895C118.491 112.068 121.264 109.751 124.441 107.511C127.856 105.109 133.821 102.299 134.449 97.6887C135.091 92.9877 131.542 90.3465 127.128 90.53ZM124.724 99.8001C121.025 100.206 120.406 97.0248 123.076 94.9856C123.994 94.2825 125.476 93.7815 126.625 93.699C127.468 93.6372 128.536 93.7733 129.157 94.4021C131.423 96.699 126.783 99.5712 124.724 99.8001Z" fill="#C1DB70"/>
<path d="M135.907 147.4C130.353 146.92 125.299 149.687 120.157 151.148C110.579 153.872 102.938 152.913 102.153 152.977C102.045 153.122 104.155 158.223 116.105 164.433C123.21 168.126 139.025 169.726 144.227 162.386C148.666 156.118 142.852 148.004 135.905 147.402L135.907 147.4ZM138.579 159.231C135.367 163.181 127.357 162.779 127.478 156.817C127.53 154.181 130.909 152.821 133.126 152.612C137.047 152.25 141.936 155.107 138.579 159.231Z" fill="#E4F0C2"/>
<path d="M87.6021 151.553C85.7959 149.938 84.4969 147.569 84.0124 144.295C83.3732 139.982 84.3938 137.561 86.1979 135.512C86.134 135.365 86.0701 135.221 86.0083 135.083C82.9113 128.107 80.4784 118.712 73.5691 114.472C66.699 110.254 59.6969 115.664 59.5258 123.068C59.4289 127.431 60.8515 131.264 63.1031 134.683C64.5175 136.843 66.268 138.837 68.165 140.695C72.099 144.551 79.5732 149.714 85.9113 153.427C88.1773 153.375 89.7134 153.27 90.1402 153.204C90.2165 153.192 90.2557 153.184 90.2598 153.173C89.9938 153.052 89.0165 152.452 87.6041 151.551L87.6021 151.553ZM72.466 129.982C69.4825 131.874 65.9814 128.019 65.2392 125.322C64.5794 122.928 64.699 119.47 67.532 118.54C73.2144 116.683 76.5361 127.402 72.466 129.98V129.982Z" fill="#C1DB70"/>
<path d="M87.6021 151.552C87.4124 151.433 87.2144 151.307 87.0082 151.177C87.0062 151.175 87.0021 151.175 86.9959 151.169C81.7134 147.785 71.6887 141.113 68.3876 138.672C66.9113 137.581 65.0866 136.093 63.101 134.686C62.4371 134.218 61.7526 133.757 61.0598 133.326C58.0433 131.439 54.8144 130.072 51.9567 130.715C45.5546 132.152 44.3484 139.569 47.7216 144.536C53.4227 152.93 76.2557 153.649 85.9113 153.433C88.1773 153.381 89.7134 153.276 90.1402 153.21C90.2165 153.198 90.2557 153.19 90.2598 153.179C89.9938 153.058 89.0165 152.458 87.6041 151.557L87.6021 151.552ZM60.0845 142.977C57.4866 148.01 49.9196 143.06 50.9959 138.392C51.2701 137.194 52.2289 136.332 53.4021 136.062C57.1897 135.196 62.0845 139.095 60.0845 142.977Z" fill="#86B200"/>
<path d="M49.5546 97.6802C45.8639 92.2472 39.7423 94.1957 39.1052 100.503C38.4969 106.513 42.3938 111.002 46.3299 114.905C47.6474 116.21 52.0371 120.592 53.4619 121.105C53.7031 121.192 54.1917 121.344 54.3979 121.212C54.5051 121.144 54.6 120.511 54.5938 120.326C54.3794 114.365 52.8887 102.585 49.5567 97.6823L49.5546 97.6802ZM46.7443 104.808C44.1526 106.614 41.3175 101.229 43.3299 98.8926C43.5278 98.6596 43.9052 98.3111 44.2082 98.2575C46.8701 97.7833 48.8557 103.336 46.7464 104.808H46.7443Z" fill="#86B200"/>
<path d="M97.6825 120.285C97.565 120.285 97.4454 120.27 97.3258 120.244C96.5052 120.048 95.9979 119.223 96.1938 118.402C97.3588 113.518 97.499 109.543 97.4103 107.068C97.1443 99.5281 95.4804 94.2003 93.8887 89.9838C93.5897 89.1941 93.9897 88.3116 94.7794 88.0147C95.5691 87.7157 96.4516 88.1157 96.7485 88.9054C98.4289 93.3549 100.184 98.9796 100.466 106.961C100.561 109.623 100.41 113.893 99.167 119.112C99 119.813 98.3732 120.287 97.6825 120.287V120.285Z" fill="#0E2328"/>
<path d="M79.5794 111.734C79.0701 111.734 78.5711 111.479 78.2804 111.015C76.3897 107.984 75.4062 105.559 74.5753 99.1981C74.0227 94.9631 74.2309 90.6951 75.1918 86.5074C75.3814 85.6847 76.2021 85.1713 77.0227 85.359C77.8454 85.5487 78.3588 86.3672 78.1711 87.1899C77.2928 91.0208 77.1031 94.928 77.6062 98.8002C78.4309 105.12 79.3897 107.017 80.8722 109.394C81.3196 110.109 81.101 111.054 80.3856 111.501C80.134 111.658 79.8536 111.734 79.5773 111.734H79.5794Z" fill="#0E2328"/>
</g>
<defs>
<clipPath id="clip0_7555_3407">
<rect width="200" height="186" fill="white"/>
</clipPath>
</defs>
</svg>
