<svg width="200" height="300" viewBox="0 0 200 300" fill="none" xmlns="http://www.w3.org/2000/svg">
<g clip-path="url(#clip0_7655_1052)">
<path d="M132.186 144.383C148.538 163.984 124.126 178.175 105.963 168.734C104.257 192.346 119.053 211.117 128.076 231.495C129.059 237.632 122.276 241.186 117.826 243.853C98.66 255.34 66.8011 263.177 44.5685 260.577C38.7787 259.9 33.6855 251.007 30.8456 246.193C18.5627 225.398 -1.58997 175.908 0.099976 152.353C1.81659 128.415 24.0025 91.0525 45.0385 79.2384C63.4745 68.8844 101.83 68.391 122.066 73.4447C141.959 78.4117 143.219 94.1494 126.579 104.553C136.179 110.16 153.802 115.817 154.721 128.878C155.701 142.756 144.325 147.9 132.182 144.386L132.186 144.383Z" fill="#E8AA7D"/>
<path d="M187.904 98.4331C158.205 124.028 121.033 145.71 90.0604 170.178C77.2775 176.308 72.2143 173.635 63.4813 164.694C63.2746 164.487 63.068 164.274 62.8613 164.057C58.7781 159.827 48.1518 147.043 37.9588 133.665C26.6725 118.851 15.9162 103.327 15.1629 97.9197C13.2963 84.5255 20.5027 79.7718 29.6391 72.2747C59.5247 47.743 91.7937 25.2082 124.529 4.68684C137.259 -3.29036 148.108 -0.556846 156.285 8.90045C159.251 12.3307 166.668 22.5514 174.311 33.5054C182.917 45.8696 191.82 59.1671 194.95 64.7308C195.32 65.3942 195.674 66.0376 196 66.6643C203.487 80.9453 200.28 87.769 187.904 98.4297V98.4331Z" fill="#008099"/>
<path d="M196 66.6642C151.842 99.3331 107.663 132.002 63.4779 164.691C63.2713 164.484 63.0646 164.271 62.8579 164.054C58.7747 159.824 48.1484 147.04 37.9554 133.662L174.311 33.5054C182.917 45.8695 191.82 59.1671 194.95 64.7308C195.32 65.3942 195.674 66.0375 196 66.6642Z" fill="#00151A"/>
<path d="M94.4635 106.184C101.63 104.967 107.783 106.387 112.49 112.071C122.186 123.782 111.94 135.169 108.5 146.453C101.653 168.915 107.216 186.929 113.476 208.517C111.316 231.002 72.3443 236.872 64.4579 215.391C59.348 201.477 61.468 159.394 65.1912 144.37C68.4144 131.362 79.8973 108.657 94.4635 106.187V106.184Z" fill="#E8AA7D"/>
<path d="M146.835 249.116C139.722 237.329 133.522 225.005 128.079 212.331C126.072 210.014 122.423 210.064 119.579 210.127C92.0902 210.727 45.8184 232.472 28.3857 253.923C26.9324 255.714 24.3858 258.174 25.5625 260.434C34.4788 273.211 43.0152 286.332 52.4616 298.74C52.4616 298.74 68.0944 302.833 91.2703 296.246C102.273 293.119 116.186 285.799 126.352 276.762C143.692 261.347 146.835 249.113 146.835 249.113V249.116Z" fill="#99D9E5"/>
</g>
<defs>
<clipPath id="clip0_7655_1052">
<rect width="200" height="300" fill="white"/>
</clipPath>
</defs>
</svg>
