<svg width="200" height="214" viewBox="0 0 200 214" fill="none" xmlns="http://www.w3.org/2000/svg">
<g clip-path="url(#clip0_7555_3462)">
<path d="M117.446 30.0097C120.855 30.4318 122.758 34.4872 124.36 37.2692C129.318 45.8678 133.834 55.1273 138.609 63.8712C150.979 86.5356 115.574 105.075 96.8996 105.878C94.4602 105.982 89.8685 105.141 88.1176 105.487C82.7439 106.546 79.0346 122.688 70.8996 120.653C64.9654 119.169 56.4913 110.937 52.6539 106.162C50.2456 103.165 43.2041 92.5771 43.2699 89.0927C43.3252 86.1896 49.1834 82.456 51.1349 79.6809C56.5813 71.9301 54.3045 63.2726 59.1522 54.9924C62.0761 49.9993 73.6297 38.0339 78.9654 36.0581C82.609 34.7086 88.6851 36.5944 92.9861 36.4664C96.647 36.3557 100.394 35.3903 103.855 34.2657C107.388 33.1169 113.903 29.5668 117.45 30.0062L117.446 30.0097Z" fill="#DEA076"/>
<path d="M192.74 184.075C192.74 184.075 172.121 200.567 134.931 208.93C95.5675 217.781 79.5709 211.746 79.5709 211.746C91.1488 200.03 102.059 181.418 117.626 176.501C133.952 171.349 158.557 169.843 159.91 169.778C166.574 169.452 176.913 177.124 184.017 178.106C186.055 178.394 191.159 182.726 192.744 184.075H192.74Z" fill="#C1DB70"/>
<path d="M141.183 198.681C151.081 198.681 159.104 190.657 159.104 180.76C159.104 170.863 151.081 162.84 141.183 162.84C131.286 162.84 123.263 170.863 123.263 180.76C123.263 190.657 131.286 198.681 141.183 198.681Z" fill="#E4F0C2"/>
<path d="M192.74 184.075C170.073 175.245 151.353 175.567 132.419 181.3C107.685 188.788 91.1488 200.034 79.5709 211.747C79.2283 211.152 78.8408 210.674 78.9896 209.92C79.3598 208.03 82.4671 201.062 83.5501 198.172C92.7751 173.639 84.5086 158.286 86.9308 135.165C88.2076 122.951 93.1245 112.771 100.09 106.373C96.7993 98.9093 77.1488 34.7121 72.9792 20.674C67.2906 1.51829 103.36 -8.44365 107.156 9.42486C114.958 46.1377 121.391 92.3557 122.052 99.4318C128.772 100.549 135.83 104.404 142.654 111.65C160.564 130.667 164.121 159.857 185.716 174.577C189.125 176.899 193.872 179.584 192.744 184.079L192.74 184.075Z" fill="#86B200"/>
<path d="M97.4256 19.6949C103.46 20.4665 104.689 26.4596 103.505 31.47C102.142 37.2347 98.654 41.0824 93.7474 44.0893C91.9654 45.1828 88.8581 45.5322 88.0899 47.6776C87.3425 49.7606 89.0311 58.6049 88.9792 61.7744C88.8131 71.7225 85.7751 79.8817 78.6194 86.9475C72.4671 93.0236 65.0104 93.7398 58.1003 88.1724C56.3841 86.7917 52.7474 81.6533 52.872 79.508C52.9446 78.2312 55.0484 74.7675 55.4636 72.6637C56.4083 67.861 55.0692 61.8471 56.5225 56.4561C58.3149 49.816 66.6713 35.3073 71.8616 30.7364C75.6886 27.3696 84.0346 24.9821 88.9481 22.9578C91.3287 21.9786 94.8927 19.3696 97.4256 19.6949Z" fill="#DEA076"/>
<path d="M136.851 44.0061C142.879 47.1065 144.813 53.4075 142.069 59.5459C141.433 60.9681 138.581 63.9923 138.54 64.2829C138.46 64.8608 140.474 68.1584 140.779 69.5252C143.976 83.8158 118.374 93.5978 110.017 80.1791C107.346 75.8919 108.097 71.8816 111.135 68.0234C112.232 66.6324 110.848 66.0857 111.467 64.5425C104.512 62.0926 102.886 54.411 108.173 49.6463C102.118 47.2899 100.17 38.8435 102.955 33.3694C107.419 24.5944 136.63 21.9681 139.249 34.0476C140.128 38.0961 139.318 40.757 136.848 44.0027L136.851 44.0061Z" fill="#DEA076"/>
<path d="M73.9758 128.729C73.9343 128.774 73.8893 128.822 73.8408 128.867C67.2111 135.816 61.2561 140.438 58.1453 142.722C57.9308 142.878 57.7301 143.023 57.5467 143.158C53.5779 146.037 49.9758 148.276 47.1903 149.881C45.0138 151.137 43.3287 152.013 42.3529 152.508C36.0138 155.719 38.1765 155.196 28.2699 158.708C27.9516 158.819 27.6401 158.926 27.3391 159.027C24.346 160.02 21.9931 160.414 19.1384 159.75C16.8201 159.21 15.263 158.366 13.9619 156.954C2.8962 144.947 -0.809685 118.068 0.491353 110.961C0.629762 110.2 1.30104 104.636 2.5571 103.13C3.29758 102.248 4.22492 101.857 7.06575 100.743C9.01384 99.9817 11.8616 98.8813 16.1661 97.0405C16.4221 96.9332 16.6782 96.8294 16.9308 96.7222C21.1523 94.9367 24.3529 93.0197 26.5398 91.563C26.5675 91.5457 26.5952 91.5249 26.6228 91.5076C29.5087 89.5837 32.3841 87.8017 35.4256 84.5734C35.5294 84.4626 35.6298 84.3519 35.7301 84.2446C38.218 81.5491 39.1523 80.2516 41.346 78.0405C42.7786 76.5976 46.1799 77.6668 48.7336 78.5976C59.6782 82.5941 67.5363 90.3623 72.4083 95.7395C77.1142 100.93 82.0346 109.681 82.3841 118.089C82.5017 120.871 79.0346 123.411 73.9723 128.726L73.9758 128.729Z" fill="#C1DB70"/>
<path d="M58.0796 186.49C57.8858 186.431 57.6989 186.331 57.5363 186.189C56.955 185.67 56.9066 184.777 57.4256 184.199C59.3702 182.026 60.865 179.539 61.8616 176.805C62.7751 174.307 63.2422 171.691 63.2491 169.026C63.2491 168.248 63.8858 167.618 64.6643 167.622C65.4429 167.622 66.0726 168.258 66.0692 169.037C66.0588 172.03 65.5363 174.971 64.5086 177.777C63.3875 180.847 61.7093 183.642 59.5225 186.085C59.1488 186.504 58.5813 186.646 58.0726 186.497L58.0796 186.49Z" fill="#00151A"/>
<path d="M68.1419 196.559C67.9723 196.511 67.8097 196.428 67.6643 196.31C67.0519 195.826 66.9515 194.94 67.4325 194.331C70.5121 190.442 72.7924 186.068 74.2076 181.331C75.5017 176.999 76.0277 172.511 75.7682 167.988C75.7232 167.21 76.3183 166.545 77.0969 166.5C77.8754 166.455 78.5398 167.051 78.5848 167.829C78.8616 172.68 78.2976 177.497 76.91 182.141C75.391 187.22 72.9481 191.912 69.6436 196.082C69.2768 196.545 68.6747 196.718 68.1419 196.559Z" fill="#00151A"/>
<path d="M199.111 149.871C199.28 149.761 199.429 149.608 199.543 149.425C199.948 148.761 199.737 147.892 199.073 147.487C196.581 145.972 194.433 144.024 192.682 141.698C191.086 139.574 189.879 137.204 189.097 134.653C188.869 133.909 188.08 133.491 187.336 133.719C186.588 133.947 186.173 134.736 186.401 135.48C187.28 138.345 188.633 141.006 190.426 143.394C192.391 146.006 194.803 148.193 197.602 149.899C198.083 150.19 198.668 150.162 199.107 149.875L199.111 149.871Z" fill="#00151A"/>
<path d="M192.398 162.424C192.547 162.328 192.678 162.203 192.785 162.047C193.228 161.407 193.069 160.528 192.433 160.085C188.36 157.255 184.91 153.729 182.183 149.608C179.692 145.84 177.886 141.694 176.824 137.29C176.64 136.532 175.879 136.068 175.121 136.251C174.363 136.435 173.9 137.196 174.083 137.954C175.225 142.681 177.159 147.123 179.834 151.165C182.758 155.587 186.457 159.369 190.827 162.404C191.311 162.739 191.938 162.729 192.405 162.424H192.398Z" fill="#00151A"/>
<path d="M139.304 63.3761C139.201 63.9712 138.626 64.3657 138.035 64.2619C134.059 63.556 130.031 63.21 126.073 63.248C119.727 63.3034 116.803 63.4107 114.035 65.4107C112.782 66.3138 109.83 68.8501 109.429 72.8778C109.173 75.5041 110.024 78.0854 111.979 80.5352C114.668 83.9089 118.412 84.7082 120.214 85.0889C122.142 85.5041 124.128 85.5664 126.118 85.2861C126.713 85.1996 127.273 85.6148 127.36 86.21C127.443 86.812 127.024 87.3657 126.429 87.4522C125.516 87.5768 124.602 87.6425 123.692 87.6425C122.367 87.6425 121.052 87.5041 119.754 87.2307C117.865 86.8259 113.443 85.8778 110.266 81.8916C107.945 78.9781 106.931 75.8709 107.249 72.6494C107.543 69.6667 108.958 67.3761 110.36 65.8017C108.488 64.3138 104.716 60.7982 104.502 56.6044C104.377 54.1304 105.159 51.7705 106.841 49.5698C105.751 48.9608 104.789 48.1961 103.962 47.2861C101.152 44.1823 100.969 40.5041 100.903 39.1131C100.734 35.7013 101.779 33.037 102.682 31.3899C102.976 30.8605 103.64 30.6667 104.17 30.9574C104.699 31.2515 104.893 31.9159 104.602 32.4453C103.83 33.8397 102.945 36.1062 103.086 38.9747C103.145 40.1788 103.301 43.293 105.588 45.8121C106.356 46.6563 107.273 47.3553 108.325 47.8743C111.436 44.819 115.398 43.6702 120.37 42.8882C123.747 42.3588 128.588 42.6702 133.311 43.0854C133.913 43.1408 134.363 43.6702 134.308 44.2723C134.253 44.8743 133.727 45.3242 133.121 45.2688C128.533 44.864 123.851 44.556 120.709 45.0508C115.021 45.9435 112.021 47.1961 109.63 49.6702C108.858 50.4695 106.509 52.8986 106.695 56.4868C106.872 59.9124 110.439 63.0716 111.945 64.255C112.253 63.9989 112.526 63.7913 112.754 63.6252C116.208 61.1304 119.913 61.1027 126.059 61.0473C130.166 61.0093 134.315 61.3657 138.419 62.0923C139.014 62.2031 139.408 62.7705 139.304 63.3622V63.3761Z" fill="#00151A"/>
</g>
<defs>
<clipPath id="clip0_7555_3462">
<rect width="200" height="213.841" fill="white"/>
</clipPath>
</defs>
</svg>
