<svg width="200" height="200" viewBox="0 0 200 200" fill="none" xmlns="http://www.w3.org/2000/svg">
<path d="M89.8542 130.026C89.8373 130.122 89.8147 130.212 89.7921 130.302C87.4948 140.587 76.7083 140.163 69.6922 134.35C63.7881 129.45 60.3845 121.311 57.6131 114.205C57.6131 114.205 57.551 114.046 57.4381 113.759C57.3986 113.651 57.3591 113.55 57.3196 113.442C57.2744 113.341 57.2349 113.222 57.1841 113.098C60.582 109.463 64.4429 106.251 68.5407 103.435C69.7543 102.6 76.8889 97.8412 78.1137 98.3097C78.1702 98.6145 78.2379 98.908 78.3056 99.1959C78.4467 99.8111 78.7007 100.5 78.9152 101.155C79.1523 101.871 79.3442 102.549 79.2934 103.062C79.1975 104.028 77.4477 107.301 77.0074 108.65C75.8277 112.246 75.2068 116.078 75.4947 119.883C76.0422 127.096 82.8946 131.646 89.8542 130.026Z" fill="#E8AA7D"/>
<path d="M122.276 110.88C122.62 111.162 122.97 112.234 123.32 112.675C125.623 115.615 130.33 115.045 131.431 111.348C131.736 110.321 131.296 109.277 132.374 108.503C140.773 106.443 149.448 105.19 157.96 103.491C160.726 103.35 161.917 104.744 162.566 107.267C163.644 111.472 165.597 120.103 165.907 124.235C166.19 127.926 163.085 127.542 160.517 129.066C150.492 135.004 153.14 150.532 164.107 153.653C165.907 154.167 168.961 154.128 170.338 154.732C171.857 155.403 172.489 158.039 172.856 159.524C173.623 162.623 175.768 172.387 175.396 175.074C175.119 177.084 173.635 178.229 171.806 178.794C163.954 181.193 154.116 181.509 146.045 183.648C143.629 183.699 143.984 182.152 142.771 180.673C140.265 177.614 135.681 178.647 134.654 182.531C134.315 183.812 134.75 185.545 133.04 186.058C112.658 189.451 92.4505 194.469 72.0401 197.624C68.1342 198.228 65.4022 199.261 64.104 194.632C62.9921 190.664 61.7785 184.286 61.2366 180.177C61.152 179.533 60.9036 178.133 60.9488 177.609C61.135 175.531 65.0241 174.978 66.661 174.109C77.5378 168.329 74.6366 150.955 62.58 149.324C58.6571 148.794 55.88 150.843 54.5254 146.011C52.8941 140.186 52.4821 133.593 50.9016 127.695C50.7549 125.962 51.5677 124.043 53.2497 123.337C75.8953 118.844 98.665 114.492 121.395 110.564C121.723 110.609 122.022 110.677 122.281 110.891L122.276 110.88Z" fill="#C2570A"/>
<path d="M158.225 53.4083C156.617 57.0828 149.843 62.2814 146.852 65.589C142.444 70.4602 139.158 76.178 134.507 80.8629C123.885 91.5479 110.586 95.5724 103.254 109.717C99.7545 116.468 97.5983 127.689 89.792 130.303C88.4938 130.737 87.0375 130.935 85.395 130.833C77.6677 130.353 74.8568 123.191 75.2406 116.355C75.5229 111.241 76.8832 106.127 78.9152 101.155C83.0018 91.1528 89.8146 81.7209 96.0856 73.988C80.902 66.6389 77.1033 82.7877 77.6565 94.4378C77.7016 95.3917 77.8427 96.9101 78.1137 98.3099C78.1701 98.6147 78.2378 98.9082 78.3056 99.1961C77.8766 100.071 57.613 114.205 57.613 114.205C57.613 114.205 57.5509 114.047 57.438 113.759C57.3985 113.652 57.359 113.55 57.3195 113.443C57.2743 113.341 57.2348 113.223 57.184 113.098C56.5857 111.524 55.4794 108.538 54.7569 106.015C53.9102 103.051 53.4192 100.698 52.9507 97.6495C46.7192 105.309 39.071 110.937 30.3785 115.063C23.3342 118.399 13.3443 118.32 9.7093 109.717C5.41952 99.5686 19.8747 94.9777 26.3093 91.3822C33.0375 87.623 38.9823 82.8285 44.0285 77.0203C42.0303 77.9291 36.1528 78.6559 33.9909 78.8309C25.942 79.4913 14.9296 75.4273 14.0434 65.9954C12.9936 54.8138 26.0097 56.603 33.1443 56.1289C41.1989 55.5983 48.6722 54.4243 56.1059 51.2069C66.7175 46.6124 73.8295 38.1231 83.2727 31.5304C99.3876 20.2866 121.565 11.7014 141.428 11.1652C149.228 10.9563 150.989 15.4606 153.806 21.8276C157.238 29.5717 161.702 45.4948 158.225 53.4083Z" fill="#E8AA7D"/>
<path d="M194.914 60.4467C179.093 62.1852 161.889 65.2389 148.986 75.0489C138.08 65.38 130.935 51.2406 126.611 37.3722C123.868 28.5668 121.796 19.0729 122.197 9.80466C135.986 5.96643 150.707 3.51674 164.993 2.24109C167.544 2.01531 170.192 1.85727 172.704 1.84033C187.458 17.2215 195.722 39.0429 194.909 60.4467H194.914Z" fill="#C1DB70"/>
<path d="M75.0318 120.532C74.5859 120.532 74.2134 120.187 74.1851 119.736C73.965 116.236 74.2077 112.731 74.9189 109.311C75.489 106.545 76.3695 103.835 77.5267 101.245C77.7186 100.816 78.2209 100.629 78.6443 100.816C79.0732 101.008 79.2651 101.51 79.0732 101.933C77.9669 104.406 77.1259 107.002 76.5784 109.649C75.9011 112.923 75.664 116.276 75.8785 119.623C75.9067 120.091 75.5511 120.492 75.0883 120.52C75.0713 120.52 75.0544 120.52 75.0318 120.52V120.532Z" fill="#00151A"/>
<path d="M138.3 172.991C137.928 172.991 137.589 172.749 137.488 172.371C135.156 164.062 133.762 156.199 132.289 147.874C132.029 146.395 131.759 144.899 131.488 143.375C130.314 136.856 129.309 129.524 128.344 122.434L128.152 121.046C128.09 120.583 128.411 120.154 128.874 120.092C129.343 120.03 129.766 120.351 129.828 120.814L130.014 122.203C130.98 129.275 131.979 136.596 133.147 143.076C133.424 144.606 133.689 146.101 133.949 147.58C135.416 155.861 136.805 163.684 139.113 171.919C139.237 172.371 138.978 172.833 138.526 172.963C138.453 172.986 138.374 172.997 138.295 172.997L138.3 172.991Z" fill="#F6FAEB"/>
<path fill-rule="evenodd" clip-rule="evenodd" d="M65.1304 57.0823C65.4614 56.7486 66.0003 56.7464 66.334 57.0774C66.6677 57.4084 66.67 57.9472 66.339 58.2809L66.335 58.2849L66.3214 58.2988C66.3091 58.3112 66.2905 58.3301 66.266 58.3552C66.2169 58.4054 66.1439 58.4804 66.0498 58.5781C65.8616 58.7735 65.5889 59.0598 65.2533 59.4208C64.5817 60.1433 63.66 61.1635 62.6602 62.353C60.6465 64.7488 58.3695 67.7697 57.1488 70.4105C55.2321 74.5569 54.7588 77.1527 54.045 81.7624C53.5746 84.8 53.5713 88.7771 53.6918 92.0319C53.7518 93.6515 53.8418 95.078 53.9167 96.0993C53.9542 96.6097 53.9879 97.0185 54.0122 97.2991C54.0243 97.4394 54.0341 97.5476 54.0408 97.6203C54.0441 97.6567 54.0467 97.6843 54.0484 97.7025L54.051 97.7289C54.0965 98.1967 53.7542 98.6131 53.2863 98.6586C52.8185 98.7041 52.4024 98.3618 52.3568 97.894L53.2039 97.8115C52.3568 97.894 52.3569 97.8941 52.3568 97.894L52.3539 97.8631C52.352 97.8434 52.3493 97.8144 52.3458 97.7765C52.3388 97.7007 52.3288 97.5893 52.3164 97.4457C52.2915 97.1586 52.2572 96.7424 52.2192 96.2239C52.1431 95.1871 52.0517 93.7395 51.9909 92.0948C51.8696 88.8209 51.8664 84.7084 52.3629 81.5019C53.0839 76.8452 53.586 74.0614 55.6037 69.6963C56.9249 66.8382 59.3271 63.6732 61.3572 61.2578C62.3793 60.0418 63.3206 59 64.0065 58.262C64.3497 57.8928 64.6294 57.5992 64.8239 57.3973C64.9211 57.2963 64.9971 57.2182 65.0491 57.1651C65.0751 57.1385 65.0951 57.1181 65.1088 57.1043L65.1245 57.0883L65.1304 57.0823C65.1306 57.0822 65.1304 57.0823 65.7347 57.6816L65.1304 57.0823Z" fill="black"/>
</svg>
