<svg width="200" height="174" viewBox="0 0 200 174" fill="none" xmlns="http://www.w3.org/2000/svg">
<g clip-path="url(#clip0_7607_1069)">
<path d="M199.246 169.438C198.72 170.737 196.993 171.836 195.672 172.201C191.802 173.277 183.434 173.379 179.152 173.515C119.844 175.396 64.7895 159.059 13.8124 129.975C7.67769 126.473 -1.1918 123.336 0.648919 114.693L9.15645 85.5507C10.4187 83.4717 13.6886 84.5607 15.8542 84.3256C29.3641 82.8561 41.1479 73.603 38.543 58.8711C37.1942 51.2298 32.1392 46.0263 26.7624 40.931C26.057 40.2628 24.4545 39.6626 24.4019 38.5798C24.3617 37.7662 26.6758 31.6099 27.146 30.2301C29.129 24.4388 34.6326 7.2938 37.8624 3.2999C38.9359 1.97582 40.3652 0.688862 42.11 0.413528C44.0992 0.0979758 45.083 0.667207 46.7814 1.4963C52.6284 4.35483 59.7159 10.3008 65.6279 13.9575C97.313 33.562 131.659 46.2985 169.636 45.1167C172.606 45.0208 176.148 44.3773 179.115 44.2907C187.774 44.0278 192.839 44.0278 193.986 54.0202C194.707 60.2787 195.771 80.9566 195.119 82.8809C194.828 83.7285 189.479 85.2661 188.177 85.8477C164.068 96.6043 163.706 120.302 189.634 128.119C191.558 128.701 197.368 129.227 197.869 130.981C198.277 132.392 198.432 150.047 198.732 156.671C198.865 159.668 200.217 167.034 199.243 169.435L199.246 169.438Z" fill="#86B200"/>
<path d="M47.1775 130.77C47.063 130.77 46.9455 130.761 46.8279 130.739C45.7389 130.547 45.015 129.508 45.2068 128.422C48.2479 111.24 52.7801 94.2124 58.6766 77.8129C63.4562 64.5195 69.2104 51.4303 75.7813 38.9103C76.2949 37.9327 77.5045 37.5553 78.4821 38.0689C79.4597 38.5824 79.8371 39.792 79.3236 40.7696C72.8393 53.1287 67.1593 66.0478 62.4415 79.168C56.6224 95.3539 52.149 112.159 49.1481 129.121C48.978 130.089 48.1334 130.773 47.1806 130.773L47.1775 130.77Z" fill="#F6FAEB"/>
</g>
<defs>
<clipPath id="clip0_7607_1069">
<rect width="200" height="174" fill="white"/>
</clipPath>
</defs>
</svg>
