<?xml version="1.0" encoding="iso-8859-1"?>
<svg width="32" height="96" viewBox="0 0 32 96" fill="none" xmlns="http://www.w3.org/2000/svg">
  <path fill-rule="evenodd" clip-rule="evenodd" d="M29.992 19.19L28.592 10.598C28.5664 10.4324 28.4827 10.2814 28.3559 10.1718C28.2292 10.0622 28.0675 10.0014 27.9 10H3.4C2.7 10 2 10.716 2 11.434V21.284C2 21.64 2.256 22 2.6 22H5.694C6.166 20.562 7.506 19.6 9.1 19.6C10.694 19.6 12.036 20.562 12.506 22H19.594C20.066 20.562 21.406 19.6 23 19.6C24.594 19.6 25.934 20.562 26.406 22H29.3C29.686 22 30 21.678 30 21.284V19.308C30 19.268 29.996 19.228 29.992 19.188V19.19ZM24.312 13.58C24.312 13.184 24.628 12.864 25.012 12.864H27.186C27.3579 12.8644 27.5236 12.928 27.6516 13.0427C27.7795 13.1574 27.8608 13.3152 27.88 13.486L28.25 16.35C28.263 16.4507 28.2546 16.553 28.2253 16.6502C28.196 16.7474 28.1465 16.8373 28.08 16.914C28.0157 16.9904 27.9355 17.0517 27.845 17.0939C27.7544 17.136 27.6558 17.1579 27.556 17.158H25.012C24.919 17.157 24.8272 17.1376 24.7417 17.1011C24.6562 17.0645 24.5787 17.0115 24.5137 16.945C24.4487 16.8785 24.3974 16.7999 24.3628 16.7136C24.3282 16.6273 24.3109 16.535 24.312 16.442V13.58ZM15.912 13.58C15.912 13.184 16.226 12.864 16.612 12.864H22.212C22.598 12.864 22.912 13.184 22.912 13.58V16.44C22.9131 16.533 22.8958 16.6253 22.8612 16.7116C22.8266 16.7979 22.7753 16.8765 22.7103 16.943C22.6453 17.0095 22.5678 17.0625 22.4823 17.0991C22.3968 17.1356 22.305 17.155 22.212 17.156H16.612C16.519 17.155 16.4272 17.1356 16.3417 17.0991C16.2562 17.0625 16.1787 17.0095 16.1137 16.943C16.0487 16.8765 15.9974 16.7979 15.9628 16.7116C15.9282 16.6253 15.9109 16.533 15.912 16.44V13.58ZM7.512 13.58C7.512 13.184 7.826 12.864 8.212 12.864H13.812C14.2 12.864 14.514 13.184 14.514 13.58V16.44C14.5156 16.6276 14.4429 16.8082 14.3117 16.9424C14.1805 17.0766 14.0016 17.1534 13.814 17.156H8.214C8.12102 17.155 8.02916 17.1356 7.94366 17.0991C7.85816 17.0625 7.7807 17.0095 7.7157 16.943C7.6507 16.8765 7.59943 16.7979 7.56482 16.7116C7.53021 16.6253 7.51294 16.533 7.514 16.44V13.58H7.512ZM3.312 13.58C3.312 13.184 3.628 12.864 4.012 12.864H5.414C5.8 12.864 6.112 13.184 6.112 13.58V16.44C6.11332 16.5329 6.0963 16.6251 6.06191 16.7114C6.02752 16.7977 5.97645 16.8764 5.9116 16.9429C5.84676 17.0094 5.76943 17.0624 5.68404 17.099C5.59865 17.1356 5.50689 17.155 5.414 17.156H4.014C3.92102 17.155 3.82916 17.1356 3.74366 17.0991C3.65816 17.0625 3.5807 17.0095 3.5157 16.943C3.4507 16.8765 3.39943 16.7979 3.36482 16.7116C3.33021 16.6253 3.31294 16.533 3.314 16.44V13.58H3.312Z" fill="#A2AD00"/>
  <path d="M20.9999 23.6C20.9882 23.3301 21.0314 23.0606 21.1267 22.8079C21.2221 22.5551 21.3676 22.3242 21.5547 22.1292C21.7417 21.9343 21.9663 21.7792 22.2148 21.6734C22.4634 21.5676 22.7309 21.5133 23.0011 21.5137C23.2712 21.5141 23.5385 21.5692 23.7868 21.6758C24.035 21.7823 24.2592 21.938 24.4456 22.1336C24.632 22.3291 24.7769 22.5604 24.8715 22.8135C24.9661 23.0666 25.0084 23.3362 24.9959 23.606C24.9721 24.1205 24.7508 24.6059 24.3781 24.9612C24.0054 25.3166 23.51 25.5144 22.995 25.5137C22.4801 25.5129 21.9853 25.3135 21.6136 24.9571C21.242 24.6006 21.0222 24.1145 20.9999 23.6Z" fill="#A2AD00"/>
  <path d="M9.1001 21.5996C7.9981 21.5996 7.1001 22.4976 7.1001 23.5996C7.1001 24.13 7.31081 24.6388 7.68588 25.0138C8.06096 25.3889 8.56966 25.5996 9.1001 25.5996C9.63053 25.5996 10.1392 25.3889 10.5143 25.0138C10.8894 24.6388 11.1001 24.13 11.1001 23.5996C11.1001 22.4976 10.2021 21.5996 9.1001 21.5996Z" fill="#A2AD00"/>
  <path fill-rule="evenodd" clip-rule="evenodd" d="M26.636 46.9117H29.5L29.498 46.9097C29.5849 46.9094 29.6704 46.9319 29.746 46.9747C29.8216 47.0176 29.8847 47.0794 29.9292 47.1541C29.9736 47.2288 29.9978 47.3138 29.9993 47.4007C30.0009 47.4876 29.9797 47.5734 29.938 47.6497L26.716 53.5757L26.6848 53.5587C25.8971 53.1297 24.8024 52.5337 23.026 52.5337C21.626 52.5337 20.926 52.9002 20.226 53.2667C19.526 53.6332 18.826 53.9997 17.426 53.9997C16.026 53.9997 15.326 53.6332 14.626 53.2667C13.926 52.9002 13.226 52.5337 11.826 52.5337C10.426 52.5337 9.72603 52.9002 9.02603 53.2667C8.32603 53.6332 7.62603 53.9997 6.22603 53.9997C4.99203 53.9997 4.30203 53.7157 3.67603 53.3957L6.66803 47.3017C6.72588 47.1845 6.81536 47.0859 6.92634 47.017C7.03733 46.9481 7.16538 46.9116 7.29603 46.9117H8.63003C8.65082 46.9115 8.67105 46.9049 8.68789 46.8927C8.70474 46.8805 8.71737 46.8634 8.72403 46.8437L10.924 42.3957C10.9824 42.2768 11.0729 42.1767 11.1854 42.1067C11.2978 42.0367 11.4276 41.9996 11.56 41.9997H18.338C18.38 41.9997 18.432 41.9717 18.432 41.8917V40.9657C18.4313 40.7997 18.4765 40.6368 18.5626 40.4949C18.6488 40.353 18.7725 40.2377 18.92 40.1617L21.346 38.7497C21.752 38.5497 22.034 38.7737 22.18 39.1457L22.86 40.7957C22.8667 40.8154 22.8793 40.8325 22.8962 40.8447C22.913 40.8569 22.9332 40.8635 22.954 40.8637H24.062C24.2091 40.8643 24.3521 40.9115 24.4707 40.9984C24.5893 41.0854 24.6772 41.2076 24.722 41.3477L26.536 46.8397C26.5431 46.8606 26.5566 46.8788 26.5745 46.8917C26.5924 46.9046 26.6139 46.9116 26.636 46.9117ZM14.6769 46.7945C14.7519 46.7195 14.794 46.6178 14.794 46.5117H14.796V44.9117C14.796 44.6917 14.616 44.5117 14.396 44.5117H11.496C11.4013 44.5115 11.3084 44.5378 11.2278 44.5876C11.1472 44.6375 11.0822 44.7088 11.04 44.7937L10.278 46.3537C10.072 46.7157 10.294 46.9117 10.544 46.9117H14.394C14.5001 46.9117 14.6019 46.8695 14.6769 46.7945ZM19.0825 46.7922C19.159 46.7157 19.202 46.6119 19.202 46.5037V44.9197C19.202 44.6937 19.02 44.5117 18.794 44.5117H16.01C15.784 44.5117 15.602 44.6937 15.602 44.9197V46.5037C15.602 46.6119 15.645 46.7157 15.7215 46.7922C15.798 46.8687 15.9018 46.9117 16.01 46.9117H18.794C18.9022 46.9117 19.006 46.8687 19.0825 46.7922ZM20.406 46.9137L24.27 46.9117C24.488 46.9117 24.692 46.7837 24.586 46.4537L24.2 44.8937C24.144 44.6697 23.942 44.5117 23.71 44.5117H20.404C20.18 44.5117 20 44.6937 20 44.9137V46.5117C20.0003 46.5647 20.011 46.6172 20.0315 46.6661C20.0521 46.715 20.0821 46.7594 20.1198 46.7968C20.1575 46.8341 20.2022 46.8636 20.2513 46.8837C20.3004 46.9038 20.353 46.9139 20.406 46.9137Z" fill="#007C92"/>
  <path d="M14.2139 57.1523C14.971 57.5498 15.8288 58.0002 17.474 58.0002C19.1171 58.0002 19.977 57.5498 20.732 57.1543L20.736 57.1522C21.398 56.8042 21.918 56.5322 23.072 56.5322C23.898 56.5322 24.398 56.6702 24.858 56.8762L25.816 55.1162C25.164 54.8062 24.358 54.5322 23.072 54.5322C21.428 54.5322 20.566 54.9822 19.808 55.3802L19.8035 55.3826C19.1456 55.7275 18.6253 56.0002 17.474 56.0002C16.3227 56.0002 15.8024 55.7275 15.1445 55.3826L15.14 55.3802C14.382 54.9822 13.52 54.5322 11.874 54.5322C10.228 54.5322 9.368 54.9822 8.608 55.3802L8.60687 55.3808C7.9474 55.7265 7.42534 56.0002 6.272 56.0002C4.79239 56.0002 3.3984 55.1304 3.28976 55.0626L3.286 55.0602L2.894 54.8442L2 56.6322L2.258 56.7742C2.334 56.8242 4.168 58.0002 6.272 58.0002C7.918 58.0002 8.778 57.5502 9.538 57.1502L9.53913 57.1496C10.1986 56.8039 10.7207 56.5302 11.874 56.5302C13.0273 56.5302 13.5494 56.8039 14.2089 57.1496L14.21 57.1502L14.2139 57.1523Z" fill="#007C92"/>
  <path fill-rule="evenodd" clip-rule="evenodd" d="M27.8785 74.1514C28.0024 74.2506 28.089 74.389 28.1239 74.5439L29.9819 82.7598C30.0065 82.8808 30.0061 83.0054 29.9807 83.1262C29.9552 83.2469 29.9053 83.3612 29.8339 83.4618L28.2099 85.7078C28.1449 85.7977 28.0596 85.8709 27.9608 85.9213C27.8621 85.9717 27.7528 85.9979 27.6419 85.9978H4.35588C4.24534 85.9976 4.13643 85.9712 4.03805 85.9208C3.93967 85.8704 3.85463 85.7974 3.78988 85.7078L2.16588 83.4598C2.09477 83.3594 2.04496 83.2455 2.01951 83.1252C1.99406 83.0048 1.9935 82.8805 2.01788 82.7598L3.87788 74.5439C3.91281 74.389 3.99933 74.2506 4.12325 74.1514C4.24717 74.0522 4.40114 73.998 4.55988 73.9979H14.8099L18.2099 71.6659L14.8079 68.7979H16.7359L19.7239 71.1559C19.8126 71.2178 19.8849 71.3004 19.9344 71.3966C19.9839 71.4928 20.0091 71.5997 20.0079 71.7079C20.0079 71.9519 19.9099 72.0679 19.7099 72.2179L17.1319 73.9979H27.4419C27.6006 73.998 27.7546 74.0522 27.8785 74.1514ZM7.4466 80.6317C7.48178 80.5468 7.49988 80.4558 7.49988 80.3638V77.5619C7.49988 77.4699 7.48178 77.3789 7.4466 77.294C7.41142 77.209 7.35986 77.1319 7.29486 77.0669C7.22986 77.0019 7.15269 76.9503 7.06776 76.9151C6.98283 76.88 6.89181 76.8619 6.79988 76.8619H5.31588C5.15693 76.8627 5.003 76.9176 4.87942 77.0176C4.75583 77.1175 4.66994 77.2566 4.63588 77.4118L4.01588 80.2118C3.9931 80.3142 3.99363 80.4204 4.01742 80.5226C4.04121 80.6248 4.08766 80.7203 4.15332 80.8021C4.21899 80.8839 4.3022 80.9499 4.39681 80.9952C4.49141 81.0405 4.59499 81.064 4.69988 81.0638H6.79988C6.89181 81.0638 6.98283 81.0457 7.06776 81.0106C7.15269 80.9754 7.22986 80.9238 7.29486 80.8588C7.35986 80.7938 7.41142 80.7167 7.4466 80.6317ZM13.7999 81.0638C13.9855 81.0638 14.1636 80.9901 14.2949 80.8588C14.4261 80.7275 14.4999 80.5495 14.4999 80.3638L14.4979 80.3598V77.5599C14.4979 77.3742 14.4241 77.1962 14.2929 77.0649C14.1616 76.9336 13.9835 76.8599 13.7979 76.8599H9.59788C9.41223 76.8599 9.23418 76.9336 9.10291 77.0649C8.97163 77.1962 8.89788 77.3742 8.89788 77.5599V80.3638C8.89788 80.5495 8.97163 80.7275 9.10291 80.8588C9.23418 80.9901 9.41223 81.0638 9.59788 81.0638H13.7999ZM20.8199 81.0638C21.0055 81.0638 21.1836 80.9901 21.3149 80.8588C21.4461 80.7275 21.5199 80.5495 21.5199 80.3638V77.5599C21.5199 77.3742 21.4461 77.1962 21.3149 77.0649C21.1836 76.9336 21.0055 76.8599 20.8199 76.8599H16.6199C16.4342 76.8599 16.2562 76.9336 16.1249 77.0649C15.9936 77.1962 15.9199 77.3742 15.9199 77.5599V80.3638C15.9199 80.5495 15.9936 80.7275 16.1249 80.8588C16.2562 80.9901 16.4342 81.0638 16.6199 81.0638H20.8199ZM27.4236 80.9945C27.5177 80.9492 27.6005 80.8834 27.6659 80.8018H27.6639C27.7303 80.7205 27.7775 80.6252 27.8017 80.5229C27.826 80.4207 27.8267 80.3144 27.8039 80.2118L27.1859 77.4118C27.1517 77.2559 27.0652 77.1164 26.9408 77.0163C26.8164 76.9163 26.6615 76.8618 26.5019 76.8619H23.6199C23.4342 76.8619 23.2562 76.9356 23.1249 77.0669C22.9936 77.1982 22.9199 77.3762 22.9199 77.5619V80.3638C22.9199 80.5495 22.9936 80.7275 23.1249 80.8588C23.2562 80.9901 23.4342 81.0638 23.6199 81.0638H27.1219C27.2264 81.0635 27.3295 81.0399 27.4236 80.9945Z" fill="black"/>
  <path d="M28 87.998H4V89.998H28V87.998Z" fill="black"/>
</svg>