<svg xmlns="http://www.w3.org/2000/svg" width="254" height="299" fill="none">
  <rect width="233.023" height="273.529" fill="#C4C4C4" rx="4.20888" transform="matrix(.99695 -.0797535 .0720502 .997274 .99176 19.0269)"/>
  <path fill="#fff" d="M15.3062 8.00452c.1686-3.09475 2.8131-5.45099 5.9067-5.26281L242.602 16.2084c3.094.1881 5.465 2.8495 5.296 5.9442l-1.121 20.5814L14.1853 28.5859l1.1209-20.58138Z"/>
  <path fill="#555E65" d="m23.4501 19.52 1.2924.0786.6716-1.751 2.556.1554.4819 1.8213 1.2923.0786-2.0744-7.0584-1.3928-.0848-2.827 6.7603Zm3.4128-5.4371.0814.0049.7713 2.9438-1.9385-.118 1.0858-2.8307Zm5.6856 6.0962c1.2875.0783 2.2571-.5304 2.3114-1.5264l.0005-.0096c.0415-.7613-.4182-1.2264-1.43-1.5185l-.8371-.2383c-.5577-.1637-.7677-.3638-.751-.6702l.0002-.0048c.0214-.3926.4184-.6279.9497-.5956.56.0341.89.3232.9582.6588l.004.0146 1.12.0682.0005-.0096c-.0304-.8522-.757-1.5305-2.0302-1.6079-1.2349-.0752-2.1319.5236-2.1833 1.4669l-.0002.0048c-.042.7709.4063 1.2689 1.3899 1.5498l.8367.243c.5674.1642.7862.3793.7695.6858l-.0006.0095c-.0213.3927-.4476.6358-1.0411.5997-.5935-.0361-.9291-.3112-1.0337-.6826l-.0043-.0099-1.1822-.0719-.0006.0096c.0523.8919.823 1.5537 2.1537 1.6346Zm3.2283 1.8346 1.1918.0725.1401-2.5713.0813.005c.2421.5816.8211.9723 1.5391 1.016 1.3258.0806 2.2051-.8988 2.2959-2.5651l.0005-.0095c.0902-1.6567-.6905-2.7515-2.002-2.8313-.7323-.0445-1.3202.256-1.6384.8083l-.0814-.0049.0446-.8188-1.1918-.0725-.3797 6.9716Zm2.6337-2.5061c-.8089-.0492-1.2763-.7261-1.2192-1.7748l.0005-.0095c.0572-1.0486.5947-1.6597 1.4036-1.6105.8137.0495 1.2717.7211 1.2144 1.7745l-.0006.0096c-.0571 1.0486-.585 1.6602-1.3987 1.6107Zm3.5687 1.1395 1.1919.0725.1734-3.1841c.0354-.6512.4933-1.123 1.0821-1.0872.5839.0355.9233.4165.8918.9958l-.1849 3.3949 1.1918.0725.1781-3.2704c.0326-.5985.46-1.0385 1.0822-1.0006.6366.0387.929.4024.8919 1.0823l-.1802 3.3086 1.1919.0725.196-3.6007c.0592-1.0869-.5374-1.7718-1.5904-1.8358-.7275-.0443-1.3509.2925-1.6357.8469l-.0813-.005c-.1934-.593-.6906-.9884-1.3989-1.0314-.6845-.0417-1.229.2567-1.4858.8271l-.0813-.0049.0443-.814-1.1918-.0725-.2851 5.2335Zm9.1141 2.3991c1.1583.0705 1.7793-.3097 2.3006-1.5943l2.1673-5.2295-1.254-.0762-1.4385 4.0151-.0909-.0055-.9978-4.1634-1.3019-.0792 1.5862 5.3522-.0753.2356c-.155.4661-.458.6495-.9462.6198-.1244-.0076-.2582-.0205-.3534-.0359l-.0498.9145c.1428.0231.3101.0381.4537.0468Zm5.1022-1.5344 1.1918.0725.1656-3.0405c.0407-.7469.5882-1.1892 1.3828-1.1409.2058.0125.4005.0532.5898.1032l.0582-1.0678c-.1131-.0405-.2984-.0758-.4803-.0869-.6893-.0419-1.1859.2594-1.3935.8088l-.0814-.0049.0438-.8044-1.1918-.0725-.285 5.2334Zm5.3277.4106c.6892.0419 1.2606-.2212 1.5754-.7113l.0814.005-.0391.7182 1.1774.0716.1948-3.5767c.0603-1.1061-.6605-1.8033-2.0055-1.8851-1.2445-.0757-2.1187.4572-2.2816 1.3312l-.0071.0428 1.1248.0685.0058-.0189c.1385-.3375.5034-.5122 1.049-.479.6414.039.9656.3469.9372.8688l-.0245.4501-1.3495-.0004c-1.2773-.0008-2.0202.5017-2.0711 1.4354l-.0005.0095c-.0519.9529.6375 1.6097 1.6331 1.6703Zm-.4525-1.6561.0005-.0096c.0235-.4309.3479-.6562 1.0156-.6588l1.1816-.005-.023.4214c-.0339.6224-.5907 1.0593-1.3087 1.0157-.5265-.0321-.8903-.3184-.866-.7637ZM68.6156 21.7664l3.594.2186.0362-.6648-2.8555-.1737.2863-5.2575-.7384-.0449-.3226 5.9223Zm5.3501-4.97c.2708.0165.5044-.1916.5192-.4625.0147-.2709-.1947-.506-.4655-.5225-.2708-.0164-.5044.1917-.5192.4626-.0147.2709.1948.506.4655.5224Zm-.6484 5.256.7138.0434.241-4.4242-.7139-.0435-.2409 4.4243Zm2.1005.1278.7139.0434.0914-1.6786.4363-.377 1.5441 2.1816.8985.0547-1.9157-2.6901 2.0295-1.7419-.8657-.0527-2.0171 1.8168-.0656-.004.2009-3.6896-.7139-.0435-.3366 6.1809Zm6.1169.4503c1.0421.0634 1.7061-.4892 1.8905-1.0791l.01-.0324-.7138-.0434-.0185.0359c-.1335.2596-.5181.5203-1.1171.4839-.7877-.048-1.2633-.6122-1.234-1.5287l3.1837.1937.0152-.2791c.072-1.3215-.6096-2.2607-1.8116-2.3338-1.2021-.0731-2.0326.8152-2.107 2.1819l-.0002.0041c-.0756 1.3872.6392 2.3201 1.9028 2.397Zm.1656-3.9471c.6523.0397 1.1139.4837 1.1401 1.3623l-2.4452-.1487c.1238-.8366.6487-1.2535 1.3051-1.2136Zm6.4481 4.2712.722.0439 1.8779-4.3247-.7548-.0459-1.4088 3.5708-.0657-.004-1.0118-3.7181-.7548-.0459 1.396 4.5239Zm4.9394.3787c1.0421.0633 1.7061-.4892 1.8905-1.0792l.01-.0323-.7139-.0435-.0184.036c-.1335.2595-.5181.5202-1.1171.4838-.7877-.0479-1.2633-.6121-1.234-1.5286l3.1837.1936.0152-.279c.072-1.3216-.6096-2.2607-1.8117-2.3338-1.202-.0731-2.0325.8152-2.1069 2.1819l-.0003.0041c-.0755 1.3872.6393 2.3201 1.9029 2.397Zm.1656-3.9471c.6523.0396 1.1138.4836 1.1401 1.3623l-2.4452-.1487c.1238-.8367.6487-1.2536 1.3051-1.2136Zm4.4622 4.2286c.6154.0374 1.1236-.2241 1.4212-.7001l.0656.004-.0384.7059.7139.0434.3361-6.1808-.7134-.0434-.1337 2.4542-.0656-.0039c-.2164-.4867-.7291-.8226-1.3362-.8596-1.1242-.0684-1.9034.786-1.9789 2.1732l-.0005.0082c-.0751 1.379.6099 2.3307 1.7299 2.3989Zm.1985-.6221c-.8082-.0492-1.2542-.7022-1.1981-1.7323l.0004-.0082c.0561-1.0302.5701-1.6248 1.3783-1.5757.8042.049 1.2621.7109 1.2064 1.7329l-.0004.0082c-.0557 1.0219-.5824 1.624-1.3866 1.5751Zm7.2109 1.0728c1.005.0611 1.802-.4381 1.845-1.2261v-.0082c.035-.632-.348-1.0177-1.169-1.2694l-.673-.2056c-.514-.1589-.725-.3612-.709-.6608l.001-.0082c.021-.3899.422-.6373.947-.6054.533.0325.864.2956.94.6502l.701.0426c-.059-.7283-.678-1.2312-1.605-1.2876-.939-.0572-1.675.454-1.715 1.1886v.0041c-.035.6361.319 1.02 1.137 1.2674l.676.2059c.538.1645.753.3875.736.6871v.0082c-.022.4023-.46.6597-1.055.6235-.566-.0344-.906-.298-1.005-.6746l-.73-.0444c.042.7355.693 1.2528 1.678 1.3127Zm4.413.2231c.139.0085.276.0003.416-.0159l.033-.6074c-.131.0044-.201.0042-.329-.0035-.459-.028-.628-.2483-.6-.7695l.137-2.5035.968.0589.032-.591-.968-.0589.062-1.1451-.738-.0449-.063 1.1451-.697-.0425-.032.591.697.0425-.146 2.6841c-.046.8454.317 1.2052 1.228 1.2606Zm2.693.2091c.595.0362 1.072-.1942 1.377-.6492l.066.004-.036.6526.714.0434.165-3.0289c.05-.9193-.523-1.5101-1.602-1.5757-.943-.0574-1.642.3695-1.794 1.0562l-.006.0243.714.0435.005-.0121c.133-.3378.493-.5136 1.022-.4814.661.0402.977.3559.947.9018l-.022.4022-1.272.0009c-1.033-.0011-1.64.419-1.683 1.207l-.001.0082c-.043.8044.565 1.352 1.406 1.4032Zm-.674-1.3752v-.0082c.024-.4391.332-.6592 1.007-.6593l1.186-.002-.022.4022c-.034.632-.59 1.0759-1.316 1.0317-.513-.0312-.88-.317-.855-.7644Zm5.728 1.6826c.616.0375 1.124-.224 1.421-.7l.066.004-.038.7059.714.0434.336-6.1808-.714-.0435-.133 2.4543-.066-.004c-.216-.4867-.729-.8226-1.336-.8595-1.124-.0684-1.904.786-1.979 2.1732l-.001.0082c-.075 1.379.61 2.3307 1.73 2.3988Zm.199-.622c-.808-.0492-1.254-.7022-1.198-1.7324v-.0082c.056-1.0301.57-1.6247 1.378-1.5756.805.0489 1.262.7109 1.207 1.7329l-.001.0082c-.055 1.0219-.582 1.624-1.386 1.5751Zm3.999-4.4963c.27.0165.504-.1917.519-.4626.015-.2708-.195-.5059-.466-.5224-.27-.0165-.504.1917-.519.4625-.015.2709.195.506.466.5225Zm-.649 5.256.714.0434.241-4.4243-.714-.0434-.241 4.4243Zm3.873.3138c1.259.0766 2.086-.7461 2.163-2.162l.001-.0082c.077-1.42-.655-2.3334-1.915-2.4101-1.259-.0766-2.086.742-2.163 2.162l-.001.0082c-.077 1.416.655 2.3335 1.915 2.4101Zm.034-.6321c-.837-.0509-1.275-.6911-1.218-1.7335v-.0082c.057-1.0466.562-1.6253 1.399-1.5744.837.0509 1.276.687 1.219 1.7336l-.001.0082c-.057 1.0424-.562 1.6253-1.399 1.5743Zm3.117.7455.714.0434.142-2.6184c.043-.7757.516-1.2246 1.221-1.1817.706.043 1.014.4446.97 1.2408l-.146 2.6924.713.0434.156-2.8647c.058-1.0507-.464-1.6713-1.457-1.7317-.652-.0396-1.082.2101-1.329.6645l-.065-.004.036-.6648-.714-.0435-.241 4.4243Z"/>
  <path fill="#000" fill-rule="evenodd" d="M231.771 25.3774c.288-.2569.731-.23.99.0602l4.634 5.2012-1.044.9304-4.166-4.6759-4.646 4.1398-.937-1.0508 5.169-4.6049Z" clip-rule="evenodd"/>
  <path fill="#E7E8E9" d="m14.1854 28.5859 232.59207441 14.14811715-.03814668.7004428-232.5920744-14.14811714z"/>
  <path fill="#fff" d="m14.1472 29.2863 232.59207441 14.14811715-2.3415679 42.99547238L11.80563208 72.28177238z"/>
  <rect width="41.3874" height="26.2237" fill="#024D61" rx="5.61184" transform="matrix(.998155 .0607158 -.0543802 .99852 22.0917 38.2027)"/>
  <path fill="#fff" fill-rule="evenodd" d="M27.1591 48.3496c.0211-.3868.3516-.6813.7384-.6578l12.0102.7305c.3422.0209.6209.2862.6587.6273l.3993 3.5963c.0043.0384.0054.0772.0033.1157l-.0732 1.343c-.021.3868-.3516.6813-.7383.6578l-.7352-.0447c-.1187-.8092-.7923-1.4537-1.6392-1.5052-.8468-.0516-1.586.5071-1.7917 1.2965l-4.2712-.2598c-.1186-.8092-.7923-1.4537-1.6391-1.5053-.8469-.0515-1.586.5072-1.7918 1.2966l-.7352-.0447c-.3867-.0236-.6831-.3562-.662-.7431l.267-4.9031Zm.643 1.0933c.0105-.1934.1758-.3407.3692-.3289l.7001.0426c.1934.0117.3416.1781.3311.3715l-.0763 1.4009c-.0106.1934-.1759.3406-.3692.3289l-.7002-.0426c-.1933-.0118-.3415-.1781-.331-.3715l.0763-1.4009Zm10.8719.3099c-.1933-.0117-.3586.1355-.3691.329l-.0763 1.4008c-.0105.1935.1377.3598.331.3716l1.1622.0706c.2163.0132.3914-.1711.3675-.3867l-.1571-1.4151c-.0189-.1706-.1583-.3033-.3294-.3137l-.9288-.0565Zm-8.7714-.1821c.0106-.1935.1759-.3407.3692-.329l2.8008.1704c.1933.0118.3415.1781.331.3715l-.0763 1.4009c-.0106.1934-.1758.3407-.3692.3289l-2.8007-.1703c-.1934-.0118-.3416-.1781-.331-.3716l.0762-1.4008Zm4.5703-.0734c-.1933-.0118-.3586.1355-.3691.3289l-.0763 1.4009c-.0106.1934.1376.3597.331.3715l2.8007.1704c.1934.0117.3587-.1355.3692-.329l.0763-1.4008c.0105-.1935-.1377-.3598-.331-.3716l-2.8008-.1703Z" clip-rule="evenodd"/>
  <path fill="#fff" d="M38.738 55.0274c-.0316.5803-.5274 1.0221-1.1075.9868-.58-.0353-1.0246-.5343-.993-1.1145.0316-.5803.5274-1.0221 1.1075-.9868.58.0353 1.0246.5343.993 1.1145ZM29.9285 55.5457c.58.0353 1.0759-.4065 1.1075-.9868.0316-.5802-.413-1.0792-.9931-1.1145-.58-.0353-1.0759.4065-1.1075.9868-.0316.5802.413 1.0792.9931 1.1145ZM53.2274 56.7388l1.4113.0859.43-7.8964-1.4058-.0855-2.1413 1.3247-.0724 1.3297 2.0395-1.2705.093.0057-.3543 6.5064Z"/>
  <path fill="#000" d="m71.9081 57.8752 3.0797.1873c1.6794.1021 2.7199-.6636 2.7953-2.0481l.0006-.0109c.0567-1.0397-.5869-1.8201-1.6571-2.0224l.0048-.0876c.7678-.0905 1.4101-.7982 1.4545-1.6135l.0006-.011c.0655-1.2038-.7792-2.0184-2.2288-2.1066l-3.0196-.1836-.43 7.8964Zm3.1943-6.8553c.9792.0595 1.5228.5593 1.4793 1.3582l-.0006.011c-.0453.8317-.6758 1.2216-1.8683 1.1491l-1.5754-.0958.138-2.5337 1.827.1112Zm-.1568 3.3835c1.2582.0765 1.8783.5809 1.8288 1.4893l-.0006.0109c-.0494.9084-.6993 1.352-1.8863 1.2798l-1.9474-.1184.1511-2.7744 1.8544.1128Zm4.8636-3.1082c.361.022.6725-.2556.6921-.6167.0197-.3612-.2596-.6747-.6206-.6966-.361-.022-.6725.2555-.6922.6167-.0197.3612.2596.6746.6207.6966Zm-1.8283 8.9808c1.2363.0752 1.839-.4097 1.9051-1.6246l.3371-6.189-.9518-.0579-.338 6.2054c-.0355.6512-.2884.861-.9284.822l-.1422-.0086-.0459.8427.1641.01Zm5.9157-1.5673c1.6684.1015 2.7655-.9957 2.868-2.8782l.0006-.0109c.0444-.8154-.1101-1.5056-.4379-2.0361l.6987-.7371-.5113-.4868-.6405.6748c-.4246-.3663-.9779-.5866-1.6453-.6272-1.6684-.1015-2.7651.9903-2.8683 2.8836l-.0006.011c-.0444.8153.1101 1.5055.4383 2.0306l-.693.732.5114.4868.6349-.6751c.4244.3717.9777.592 1.645.6326Zm-1.6012-3.15.0006-.011c.0763-1.4008.7608-2.1773 1.8876-2.1087.4486.0273.8137.1757 1.085.4338l-2.8065 2.9588c-.1347-.3486-.1938-.7749-.1667-1.2729Zm1.6462 2.3237c-.4485-.0273-.8134-.1812-1.0847-.4393l2.8068-2.9643c.1399.3544.199.7808.1716 1.2842l-.0006.011c-.076 1.3954-.7607 2.1773-1.8931 2.1084Zm3.9447.9647.9519.0579.199-3.6555c.0471-.8646.7239-1.3999 1.632-1.3446.2078.0126.3871.0455.5823.0903l.0504-.9248c-.0921-.0221-.2934-.0563-.4739-.0673-.7986-.0486-1.3708.279-1.6287.8837l-.0876-.0053.0477-.8756-.9518-.0579-.3213 5.8991Zm4.1592.253.9518.0579.1901-3.4913c.0563-1.0342.6872-1.6328 1.628-1.5755.9409.0572 1.3508.5927 1.293 1.6544l-.1955 3.5897.9518.0579.208-3.8196c.0763-1.4009-.6195-2.2283-1.9433-2.3088-.8698-.0529-1.4423.2801-1.7716.886l-.0875-.0054.0482-.8865-.9518-.0579-.3212 5.8991Zm8.4965.6211c.821.0499 1.498-.2987 1.895-.9334l.088.0054-.052.9412.952.0579.449-8.2412-.952-.0579-.178 3.2724-.088-.0053c-.288-.6489-.972-1.0968-1.781-1.1461-1.499-.0911-2.538 1.0481-2.6387 2.8977l-.0006.0109c-.1001 1.8387.8132 3.1076 2.3063 3.1984Zm.265-.8294c-1.0777-.0655-1.6724-.9362-1.5976-2.3098l.0006-.0109c.0748-1.3735.7601-2.1664 1.838-2.1008 1.072.0652 1.682.9478 1.608 2.3104v.011c-.075 1.3625-.777 2.1653-1.849 2.1001Zm5.842 1.2009c.793.0482 1.43-.2589 1.836-.8656l.088.0053-.048.8701.952.0579.22-4.0385c.067-1.2258-.697-2.0134-2.136-2.1009-1.258-.0766-2.189.4927-2.393 1.4082l-.007.0325.952.0579.006-.0161c.179-.4504.658-.6847 1.363-.6418.881.0536 1.303.4745 1.263 1.2023l-.029.5363-1.696.0011c-1.378-.0014-2.187.5588-2.245 1.6094v.011c-.059 1.0725.752 1.8027 1.874 1.8709Zm-.899-1.8336v-.0109c.032-.5855.443-.879 1.343-.8791l1.581-.0027-.029.5363c-.046.8427-.786 1.4345-1.754 1.3757-.684-.0416-1.174-.4228-1.141-1.0193Zm5.304 1.9972.952.0579.449-8.2411-.952-.0579-.449 8.2411Zm4.58.383c1.341.0815 2.403-.5841 2.46-1.6348l.001-.0109c.046-.8427-.464-1.3569-1.56-1.6926l-.896-.2741c-.686-.2119-.967-.4816-.945-.8811v-.0109c.028-.5199.562-.8498 1.263-.8072.711.0433 1.153.3941 1.253.8669l.935.0569c-.078-.9711-.904-1.6417-2.14-1.7169-1.252-.0762-2.234.6053-2.287 1.5848v.0055c-.046.8482.425 1.36 1.516 1.6899l.901.2745c.718.2193 1.004.5167.982.9162v.0109c-.029.5363-.613.8796-1.407.8314-.755-.0459-1.207-.3974-1.339-.8996l-.974-.0592c.056.9807.924 1.6704 2.237 1.7503Zm3.684.1197.952.0579.448-8.2412-.951-.0579-.449 8.2412Zm3.448-6.8508c.361.0219.673-.2556.692-.6168.02-.3611-.259-.6746-.62-.6966-.361-.0219-.673.2556-.693.6168-.019.3611.26.6746.621.6966Zm-.865 7.008.952.0578.321-5.899-.951-.0579-.322 5.8991Zm4.143.3562c.793.0483 1.43-.2589 1.836-.8655l.088.0053-.048.8701.952.0579.22-4.0385c.067-1.2258-.697-2.0135-2.136-2.101-1.258-.0765-2.189.4928-2.392 1.4083l-.008.0325.952.0579.006-.0161c.179-.4504.658-.6848 1.364-.6418.88.0535 1.302.4745 1.262 1.2023l-.029.5363-1.696.0011c-1.377-.0014-2.187.5587-2.244 1.6094l-.001.011c-.058 1.0725.753 1.8026 1.874 1.8708Zm-.899-1.8335v-.011c.032-.5855.444-.8789 1.344-.8791l1.58-.0026-.029.5362c-.046.8428-.786 1.4346-1.754 1.3757-.684-.0416-1.174-.4227-1.141-1.0192Z"/>
  <g clip-path="url(#a)">
    <path fill="#C9CF6B" d="M197.014 61.4926c-.106 1.9342-1.759 3.4069-3.692 3.2893-1.934-.1177-3.416-1.781-3.31-3.7152.105-1.9342 1.758-3.4069 3.691-3.2893 1.934.1176 3.416 1.781 3.311 3.7152Z"/>
    <path fill="#909A00" d="M195.438 61.3968c-.058 1.0638-.967 1.8737-2.03 1.8091-1.064-.0647-1.879-.9796-1.821-2.0434.058-1.0638.967-1.8738 2.031-1.8091 1.063.0647 1.878.9795 1.82 2.0434Z"/>
  </g>
  <path fill="#000" d="m200.805 65.7157 1.362.0829.296-5.4394.088.0053 3.582 5.6753 1.22.0742.43-7.8964-1.357-.0825-.296 5.4394-.087-.0054-3.582-5.6752-1.226-.0746-.43 7.8964Zm10.929-6.1487c.722.0439 1.344-.4783 1.382-1.1842v-.0055c.039-.7059-.522-1.2945-1.244-1.3385-.728-.0442-1.348.4725-1.387 1.1785v.0054c-.039.7059.522 1.3 1.249 1.3443Zm.035-.6457c-.35-.0213-.619-.3122-.6-.657v-.0054c.018-.3393.312-.5905.667-.5689.351.0213.62.3068.602.646v.0055c-.019.3448-.318.6011-.669.5798Zm-1.198 7.4873c.788.0479 1.441-.2528 1.801-.8129l.093.0057-.045.8208 1.346.0819.222-4.0878c.069-1.264-.754-2.0608-2.292-2.1543-1.422-.0865-2.421.5225-2.607 1.5214l-.008.0489 1.285.0782.007-.0215c.158-.3857.575-.5855 1.199-.5475.733.0446 1.103.3965 1.071.993l-.028.5144-1.542-.0005c-1.46-.0009-2.309.5733-2.367 1.6404l-.001.0109c-.059 1.089.729 1.8397 1.866 1.9089Zm-.517-1.8927.001-.0109c.027-.4925.397-.75 1.16-.753l1.351-.0057-.026.4816c-.039.7114-.675 1.2107-1.496 1.1608-.602-.0366-1.017-.3639-.99-.8728Z"/>
  <path fill="#000" fill-rule="evenodd" d="M230.489 58.0414c.303.0185.561.2302.639.5245l.916 3.4549 3.561.2166c.303.0185.562.2302.64.5245.078.2943-.042.6042-.297.7677l-2.995 1.9186.916 3.4549c.078.2943-.042.6042-.297.7676-.256.1635-.588.1433-.823-.05l-2.767-2.2691-2.995 1.9186c-.255.1634-.588.1432-.823-.0501-.236-.1933-.322-.5157-.212-.7986l1.285-3.321-2.767-2.2691c-.236-.1933-.321-.5157-.212-.7986.11-.2829.389-.4619.692-.4435l3.561.2166 1.285-3.321c.11-.2829.389-.4619.693-.4435Zm-.162 2.9671-.691 1.7858c-.109.2829-.389.4619-.692.4435l-1.915-.1165 1.488 1.2201c.236.1933.321.5157.212.7986l-.691 1.7857 1.61-1.0316c.255-.1635.588-.1433.823.05l1.488 1.2201-.493-1.8577c-.078-.2943.042-.6042.297-.7676l1.611-1.0317-1.915-.1165c-.303-.0184-.561-.2302-.639-.5245l-.493-1.8577Z" clip-rule="evenodd"/>
  <path fill="#E7E8E9" d="m11.8056 72.2818 232.59207441 14.14811715-.03814668.7004428-232.5920744-14.14811714z"/>
  <path fill="#fff" d="m11.7675 72.9823 232.59207441 14.14811715-2.46007868 45.17154702-232.5920744-14.14811715z"/>
  <rect width="41.3874" height="26.2237" fill="#024D61" rx="5.61184" transform="matrix(.998155 .0607158 -.0543802 .99852 19.6526 82.9867)"/>
  <path fill="#fff" fill-rule="evenodd" d="M24.72 93.1336c.0211-.3868.3517-.6814.7384-.6578l12.0102.7305c.3423.0208.6209.2861.6588.6273l.3992 3.5963c.0043.0384.0054.0771.0033.1157l-.0732 1.3429c-.021.3869-.3516.6814-.7383.6579l-.7352-.0447c-.1187-.8092-.7923-1.4538-1.6392-1.5053-.8468-.0515-1.586.5071-1.7917 1.2966l-4.2712-.2598c-.1186-.8092-.7922-1.4538-1.6391-1.5053-.8469-.0515-1.586.5071-1.7918 1.2966l-.7352-.0448c-.3867-.0235-.6831-.3562-.662-.743l.267-4.9031Zm.643 1.0933c.0105-.1935.1758-.3407.3692-.329l.7002.0426c.1933.0118.3415.1781.331.3715l-.0763 1.4009c-.0106.1934-.1758.3407-.3692.329l-.7002-.0426c-.1933-.0118-.3415-.1781-.331-.3716l.0763-1.4008Zm10.872.3099c-.1934-.0118-.3587.1355-.3692.3289l-.0763 1.4009c-.0105.1934.1377.3598.331.3715l1.1622.0707c.2163.0132.3914-.1711.3675-.3868l-.1571-1.4151c-.0189-.1705-.1582-.3032-.3294-.3136l-.9287-.0565Zm-8.7714-.1822c.0105-.1934.1758-.3407.3691-.3289l2.8008.1704c.1933.0117.3415.1781.331.3715l-.0763 1.4009c-.0105.1934-.1758.3407-.3692.3289l-2.8007-.1704c-.1934-.0117-.3416-.1781-.331-.3715l.0763-1.4009Zm4.5702-.0733c-.1933-.0118-.3586.1355-.3691.3289l-.0763 1.4009c-.0106.1934.1377.3597.331.3715l2.8007.1703c.1934.0118.3587-.1355.3692-.3289l.0763-1.4009c.0105-.1934-.1377-.3597-.331-.3715l-2.8008-.1703Z" clip-rule="evenodd"/>
  <path fill="#fff" d="M36.299 99.8114c-.0316.5806-.5275 1.0216-1.1075.9866-.5801-.035-1.0247-.534-.9931-1.1144.0316-.5802.5274-1.022 1.1075-.9867.58.0352 1.0247.5342.9931 1.1145ZM27.4894 100.33c.5801.035 1.0759-.4068 1.1075-.9871.0316-.5803-.413-1.0793-.9931-1.1145-.58-.0353-1.0759.4065-1.1075.9867-.0316.5803.4131 1.0789.9931 1.1149ZM48.1516 101.362l5.3554.326.0637-1.171-3.4517-.21.0069-.126 1.5981-1.4288c1.4703-1.2996 1.9357-1.985 1.9846-2.8825l.0009-.0164c.0724-1.3297-.9543-2.331-2.464-2.4229-1.6083-.0978-2.7857.8628-2.8713 2.3344l.0045.0168 1.3126.0853.0012-.0219c.0444-.8153.6215-1.3347 1.4201-1.2862.7878.048 1.2351.6022 1.1954 1.33l-.0009.0165c-.0331.6074-.3447.9892-1.454 2.0088l-2.6496 2.4959-.0519.952Z"/>
  <path fill="#000" d="M72.5879 103.036c1.9583.119 3.1933-.992 3.2869-2.71l.2822-5.1826-.9846-.0599-.2787 5.1165c-.0661 1.215-.8888 2.01-2.2563 1.927-1.3676-.083-2.1094-.974-2.0432-2.1885l.2786-5.1165-.9846-.0599-.2823 5.1821c-.0935 1.7188 1.0237 2.9718 2.982 3.0918Zm4.8038.105.9518.058.1901-3.4913c.0564-1.0343.6872-1.6328 1.6281-1.5756.9408.0573 1.3507.5928 1.2929 1.6544l-.1955 3.5895.9518.058.208-3.8194c.0763-1.4009-.6195-2.2283-1.9433-2.3089-.8698-.0529-1.4422.2802-1.7716.886l-.0875-.0053.0483-.8865-.9519-.0579-.3212 5.899Zm7.2118-6.6219c.361.022.6725-.2555.6922-.6167.0197-.3612-.2596-.6746-.6207-.6966-.361-.0219-.6725.2556-.6922.6168-.0196.3611.2597.6746.6207.6965Zm-.8646 7.0079.9518.058.3212-5.899-.9518-.0579-.3212 5.8989Zm4.1974.255.9627.059 2.5039-5.7663-1.0065-.0612-1.8784 4.7615-.0875-.006-1.3491-4.9571-1.0065-.0613 1.8614 6.0314Zm6.3688.492c1.3895.085 2.2748-.652 2.5207-1.439l.0133-.043-.9518-.058-.0245.048c-.1781.346-.6909.694-1.4896.645-1.0503-.064-1.6844-.816-1.6452-2.038l4.2448.258.0203-.372c.096-1.7618-.8128-3.014-2.4155-3.1115-1.6028-.0975-2.7101 1.087-2.8093 2.9095l-.0003.005c-.1008 1.85.8523 3.094 2.5371 3.196Zm.2208-5.2626c.8698.0529 1.4851.6448 1.5201 1.8166l-3.2602-.198c.165-1.116.8649-1.6719 1.7401-1.6186ZM98.087 104.4l.9518.058.1991-3.656c.0471-.8643.7239-1.3996 1.6321-1.3443.208.0126.387.0455.582.0903l.051-.9248c-.093-.0221-.294-.0563-.474-.0673-.799-.0485-1.3711.279-1.6291.8837l-.0875-.0053.0477-.8755-.9518-.0579-.3213 5.8991Zm5.959.467c1.34.081 2.402-.584 2.46-1.635v-.011c.046-.843-.464-1.357-1.56-1.693l-.896-.274c-.685-.212-.967-.481-.945-.881v-.011c.029-.5196.563-.8494 1.263-.8069.711.0433 1.153.3941 1.253.8669l.936.057c-.079-.9712-.904-1.6418-2.141-1.717-1.252-.0762-2.233.6053-2.287 1.585v.005c-.046.849.425 1.36 1.516 1.69l.902.275c.718.219 1.003.516.982.916l-.001.011c-.029.536-.613.879-1.406.831-.755-.046-1.208-.397-1.34-.899l-.974-.06c.057.981.925 1.671 2.238 1.751Zm4.515-6.8906c.361.022.672-.2555.692-.6167.02-.3612-.26-.6746-.621-.6966-.361-.022-.672.2556-.692.6167-.02.3612.26.6747.621.6966Zm-.865 7.0076.952.058.321-5.8987-.952-.0579-.321 5.8986Zm4.622.325c.186.012.368.001.555-.021l.044-.81c-.175.006-.269.006-.438-.004-.613-.038-.839-.331-.801-1.026l.182-3.338 1.291.078.043-.7878-1.291-.0785.083-1.5267-.984-.0599-.084 1.5267-.93-.0565-.042.788.929.0567-.194 3.579c-.062 1.127.422 1.607 1.637 1.68Zm4.074.309c1.389.084 2.274-.653 2.52-1.439l.014-.043-.952-.058-.025.048c-.178.346-.691.693-1.489.645-1.051-.064-1.685-.816-1.646-2.038l4.245.258.021-.372c.096-1.762-.813-3.0145-2.416-3.112-1.603-.0975-2.71 1.087-2.809 2.909l-.001.006c-.1 1.849.853 3.093 2.538 3.196Zm.22-5.263c.87.053 1.486.645 1.521 1.816l-3.261-.198c.165-1.116.865-1.671 1.74-1.618Zm5.654 5.56c.186.011.368 0 .556-.022l.044-.809c-.176.005-.269.005-.439-.005-.613-.037-.838-.331-.8-1.026l.181-3.338 1.291.078.043-.788-1.291-.0781.084-1.5268-.985-.0599-.083 1.5268-.93-.0566-.043.7876.93.057-.195 3.579c-.061 1.127.423 1.607 1.637 1.681Zm4.074.308c1.389.084 2.275-.652 2.521-1.439l.013-.043-.952-.058-.024.048c-.178.346-.691.694-1.49.645-1.05-.064-1.684-.816-1.645-2.038l4.245.258.02-.372c.096-1.762-.813-3.014-2.416-3.112-1.602-.097-2.71 1.087-2.809 2.909v.006c-.101 1.849.852 3.093 2.537 3.196Zm.221-5.263c.869.053 1.485.645 1.52 1.816l-3.26-.198c.165-1.115.865-1.671 1.74-1.618Zm5.654 5.56c.186.011.367 0 .555-.021l.044-.81c-.176.005-.269.005-.439-.005-.612-.037-.838-.331-.8-1.026l.182-3.338 1.291.079.043-.788-1.291-.079.083-1.5268-.985-.0599-.083 1.5267-.93-.056-.043.788.93.056-.195 3.579c-.061 1.127.423 1.607 1.638 1.681Z"/>
  <g clip-path="url(#b)">
    <path fill="#C9CF6B" d="M176.972 98.4921c-.105 1.9339-1.758 3.4069-3.691 3.2889-1.934-.117-3.416-1.781-3.311-3.7148.106-1.9342 1.759-3.4069 3.692-3.2892 1.934.1176 3.416 1.7809 3.31 3.7151Z"/>
    <path fill="#909A00" d="M175.397 98.3963c-.058 1.0638-.967 1.8737-2.031 1.8087-1.063-.064-1.878-.9791-1.82-2.043.058-1.0638.967-1.8737 2.03-1.8091 1.064.0647 1.879.9796 1.821 2.0434Z"/>
  </g>
  <path fill="#000" d="m183.95 102.909 1.412.086.43-7.8965-1.406-.0855-2.141 1.3247-.073 1.3297 2.04-1.2705.093.0057-.355 6.5064Zm7.119.631c1.86.113 3.068-1.411 3.207-3.9614v-.0109c.139-2.5501-.896-4.2052-2.755-4.3184-1.86-.1131-3.068 1.4056-3.207 3.9557l-.001.0109c-.139 2.5501.896 4.2111 2.756 4.3241Zm.062-1.144c-.99-.06-1.497-1.222-1.395-3.0936v-.0109c.102-1.8715.732-2.9532 1.722-2.893.99.0602 1.498 1.2112 1.396 3.0827v.0109c-.102 1.8719-.733 2.9639-1.723 2.9039Zm5.53-3.8473c.503.0307.89-.3301.917-.8117.026-.487-.32-.8869-.823-.9175-.498-.0303-.89.3247-.917.8117-.026.4816.325.8873.823.9175Zm-.221 4.0603c.503.031.89-.325.916-.812.027-.487-.319-.886-.822-.917-.498-.03-.891.325-.917.812-.027.487.325.887.823.917Zm5.923 1.42 1.351.082.083-1.516 1.039.064.063-1.166-1.039-.063.284-5.2152-1.991-.1211c-1.134 1.5672-2.321 3.3177-3.414 5.0353l-.063 1.155 3.769.229-.082 1.516Zm-2.323-2.799.004-.082c.817-1.2951 1.778-2.7026 2.638-3.8911l.077.0047-.225 4.1204-2.494-.152Zm8.787 3.351c1.718.105 2.947-.792 3.022-2.182l.001-.011c.06-1.094-.658-1.83-1.779-2.008l.002-.027c.924-.142 1.649-.7509 1.702-1.7304l.001-.0109c.067-1.2368-.915-2.1475-2.512-2.2447-1.559-.0948-2.659.7388-2.848 2.0998l-.009.0599 1.313.0798.009-.0543c.104-.702.675-1.1119 1.473-1.0634.81.0493 1.257.5047 1.218 1.2271l-.001.0109c-.037.6895-.622 1.1481-1.464 1.0968l-.87-.0529-.057 1.0503.902.055c.968.059 1.534.555 1.489 1.387l-.001.011c-.04.733-.647 1.206-1.528 1.153-.886-.054-1.451-.566-1.486-1.238l-.002-.061-1.351-.082.002.066c.03 1.358 1.089 2.367 2.774 2.469Z"/>
  <path fill="#555E65" d="m190.725 117.75.738.045.323-5.922-.735-.045-1.637 1.037-.042.78 1.565-1 .066.004-.278 5.101Zm5.104.451c1.309.08 2.162-1.067 2.265-2.971l.001-.008c.104-1.905-.619-3.143-1.928-3.222-1.309-.08-2.153 1.063-2.257 2.967v.008c-.104 1.905.61 3.146 1.919 3.226Zm.035-.644c-.849-.052-1.294-1.026-1.212-2.537l.001-.008c.082-1.51.629-2.416 1.479-2.364.849.052 1.302 1.018 1.22 2.528v.009c-.082 1.51-.638 2.423-1.488 2.372Zm4.089-3.277c.296.018.547-.209.563-.501.016-.295-.209-.548-.505-.566-.291-.017-.546.206-.562.502-.016.291.213.548.504.565Zm-.173 3.177c.295.018.547-.21.563-.501.016-.295-.209-.548-.505-.566-.291-.018-.546.206-.562.501-.016.292.213.548.504.566Zm4.488 1.117.722.044.067-1.227.82.05.036-.661-.82-.05.219-4.034-1.07-.065c-.876 1.186-1.841 2.577-2.693 3.871l-.037.673 2.823.172-.067 1.227Zm-1.97-2.01.003-.049c.687-1.049 1.504-2.227 2.207-3.18l.049.003-.183 3.353-2.076-.127Zm6.61 2.433c1.309.079 2.162-1.067 2.266-2.972v-.008c.104-1.904-.619-3.142-1.928-3.222-1.309-.079-2.153 1.063-2.257 2.968v.008c-.104 1.904.611 3.146 1.919 3.226Zm.036-.645c-.85-.051-1.295-1.026-1.212-2.536v-.008c.082-1.511.63-2.416 1.479-2.364.849.051 1.303 1.018 1.221 2.528l-.001.008c-.082 1.511-.638 2.424-1.487 2.372Z"/>
  <path fill="#555E65" d="m188.041 115.034 23.664 1.44-.027.492-23.664-1.439.027-.493Z"/>
  <g clip-path="url(#c)">
    <path fill="#000" fill-rule="evenodd" d="M228.05 102.825c.303.019.561.231.639.525l.916 3.455 3.561.216c.303.019.562.231.64.525.078.294-.042.604-.297.768l-2.995 1.918.916 3.455c.078.294-.042.604-.297.768-.255.163-.588.143-.823-.05l-2.767-2.269-2.995 1.918c-.255.164-.588.143-.823-.05-.236-.193-.322-.516-.212-.799l1.285-3.321-2.767-2.269c-.236-.193-.321-.515-.212-.798.11-.283.389-.462.692-.444l3.561.217 1.285-3.321c.11-.283.389-.462.693-.444Zm-.162 2.968-.691 1.785c-.109.283-.389.462-.692.444l-1.915-.117 1.488 1.22c.236.194.321.516.212.799l-.691 1.786 1.61-1.032c.255-.163.588-.143.823.05l1.488 1.22-.493-1.858c-.078-.294.042-.604.297-.767l1.611-1.032-1.915-.116c-.303-.019-.561-.23-.639-.525l-.493-1.857Z" clip-rule="evenodd"/>
  </g>
  <path fill="#E7E8E9" d="m9.30737 118.154 232.59207441 14.14811715-.03814668.7004428-232.5920744-14.14811714z"/>
  <path fill="#fff" d="m9.26923 118.854 232.59207441 14.14811715-2.3415679 42.99547238L6.92766208 161.84947238z"/>
  <rect width="41.3874" height="26.2237" fill="#024D61" rx="5.61184" transform="matrix(.998155 .0607158 -.0543802 .99852 17.2137 127.771)"/>
  <path fill="#fff" fill-rule="evenodd" d="M22.2811 137.918c.0211-.387.3517-.682.7384-.658l12.0102.73c.3422.021.6209.286.6588.628l.3992 3.596c.0043.038.0054.077.0033.116l-.0732 1.342c-.021.387-.3516.682-.7383.658l-.7352-.044c-.1187-.81-.7923-1.454-1.6392-1.506-.8468-.051-1.586.508-1.7917 1.297l-4.2712-.26c-.1186-.809-.7923-1.454-1.6391-1.505-.8469-.052-1.586.507-1.7918 1.296l-.7352-.044c-.3867-.024-.6831-.356-.662-.743l.267-4.903Zm.643 1.093c.0105-.194.1758-.341.3692-.329l.7001.043c.1934.011.3416.178.3311.371l-.0763 1.401c-.0106.193-.1758.341-.3692.329l-.7002-.043c-.1933-.012-.3415-.178-.331-.371l.0763-1.401Zm10.872.31c-.1934-.012-.3587.135-.3692.329l-.0763 1.401c-.0105.193.1377.359.331.371l1.1622.071c.2163.013.3914-.171.3675-.387l-.1571-1.415c-.0189-.171-.1583-.303-.3294-.314l-.9287-.056Zm-8.7714-.182c.0105-.194.1758-.341.3691-.329l2.8008.17c.1933.012.3415.178.331.372l-.0763 1.4c-.0105.194-.1758.341-.3692.329l-2.8007-.17c-.1934-.012-.3416-.178-.331-.372l.0763-1.4Zm4.5702-.074c-.1933-.012-.3586.136-.3691.329l-.0763 1.401c-.0106.193.1376.36.331.372l2.8007.17c.1934.012.3587-.136.3692-.329l.0763-1.401c.0105-.193-.1377-.36-.331-.371l-2.8008-.171Z" clip-rule="evenodd"/>
  <path fill="#fff" d="M33.86 144.595c-.0316.581-.5274 1.022-1.1074.987-.5801-.035-1.0247-.534-.9931-1.114.0316-.581.5274-1.022 1.1075-.987.58.035 1.0247.534.993 1.114ZM25.0505 145.114c.5801.035 1.0759-.407 1.1075-.987.0316-.58-.413-1.079-.9931-1.115-.58-.035-1.0759.407-1.1075.987-.0316.58.413 1.079.9931 1.115ZM48.3494 146.307l1.4113.086.43-7.897-1.4058-.085-2.1413 1.324-.0724 1.33 2.0395-1.27.093.005-.3543 6.507Z"/>
  <path fill="#000" d="m67.0301 147.443 3.0797.187c1.6794.103 2.72-.663 2.7954-2.048l.0006-.011c.0566-1.039-.587-1.82-1.6571-2.022l.0047-.088c.7678-.09 1.4101-.798 1.4545-1.613l.0006-.011c.0656-1.204-.7792-2.018-2.2288-2.107l-3.0196-.183-.43 7.896Zm3.1943-6.855c.9792.059 1.5228.559 1.4793 1.358l-.0006.011c-.0453.832-.6758 1.222-1.8683 1.149l-1.5754-.096.138-2.533 1.827.111Zm-.1568 3.383c1.2582.077 1.8783.581 1.8288 1.49l-.0005.011c-.0495.908-.6993 1.352-1.8864 1.279l-1.9474-.118.1511-2.775 1.8544.113Zm4.8636-3.108c.361.022.6725-.255.6922-.617.0196-.361-.2597-.674-.6207-.696-.361-.022-.6725.255-.6922.617-.0197.361.2596.674.6207.696Zm-1.8283 8.981c1.2363.075 1.839-.41 1.9051-1.625l.3371-6.189-.9518-.058-.338 6.206c-.0354.651-.2884.861-.9284.822l-.1422-.009-.0459.843.1641.01Zm5.9157-1.567c1.6684.101 2.7655-.996 2.868-2.879l.0006-.01c.0444-.816-.1101-1.506-.4379-2.037l.6987-.737-.5113-.486-.6405.674c-.4246-.366-.9779-.586-1.6453-.627-1.6684-.101-2.7651.99-2.8683 2.884l-.0006.011c-.0444.815.1101 1.505.4383 2.03l-.693.732.5114.487.635-.675c.4243.372.9776.592 1.6449.633Zm-1.6011-3.15.0005-.011c.0763-1.401.7608-2.178 1.8876-2.109.4486.027.8137.176 1.085.434l-2.8065 2.959c-.1347-.349-.1938-.775-.1666-1.273Zm1.6461 2.323c-.4485-.027-.8133-.181-1.0847-.439l2.8068-2.964c.1399.354.199.781.1716 1.284l-.0006.011c-.076 1.395-.7607 2.177-1.8931 2.108Zm3.9448.965.9518.058.199-3.656c.0471-.864.7239-1.399 1.632-1.344.2078.012.3872.045.5823.09l.0504-.925c-.0921-.022-.2933-.056-.4739-.067-.7986-.049-1.3708.279-1.6287.884l-.0875-.006.0476-.875-.9518-.058-.3212 5.899Zm4.1591.253.9518.058.1901-3.491c.0563-1.035.6872-1.633 1.628-1.576.9409.057 1.3508.593 1.293 1.654l-.1955 3.59.9518.058.208-3.819c.0763-1.401-.6195-2.229-1.9433-2.309-.8698-.053-1.4422.28-1.7716.886l-.0875-.006.0482-.886-.9518-.058-.3212 5.899Zm8.4967.621c.8206.05 1.4982-.299 1.895-.933l.0875.005-.0513.941.9518.058.4489-8.241-.9519-.058-.1782 3.273-.0875-.006c-.2885-.649-.9721-1.097-1.7817-1.146-1.4988-.091-2.5378 1.048-2.6385 2.898l-.0006.011c-.1001 1.838.8132 3.107 2.3065 3.198Zm.2648-.829c-1.0777-.066-1.6724-.936-1.5976-2.31l.0006-.011c.0748-1.373.7601-2.166 1.8378-2.101 1.0721.065 1.6826.948 1.6084 2.311l-.0006.011c-.0742 1.362-.7765 2.165-1.8486 2.1Zm5.842 1.201c.793.048 1.43-.259 1.836-.866l.088.005-.048.87.952.058.22-4.038c.067-1.226-.697-2.014-2.136-2.101-1.258-.077-2.189.493-2.393 1.408l-.007.033.952.058.006-.017c.179-.45.658-.684 1.363-.641.881.053 1.303.474 1.263 1.202l-.029.536-1.696.001c-1.377-.001-2.1873.559-2.2446 1.61l-.0006.011c-.0584 1.072.7522 1.802 1.8742 1.871Zm-.899-1.834v-.011c.032-.585.443-.879 1.343-.879l1.581-.003-.029.537c-.046.842-.786 1.434-1.754 1.375-.684-.041-1.174-.422-1.141-1.019Zm5.304 1.997.952.058.449-8.241-.952-.058-.449 8.241Zm4.58.383c1.341.082 2.403-.584 2.46-1.635l.001-.01c.046-.843-.464-1.357-1.56-1.693l-.896-.274c-.686-.212-.967-.482-.945-.881v-.011c.028-.52.562-.85 1.263-.807.711.043 1.153.394 1.253.867l.935.056c-.078-.971-.904-1.641-2.14-1.716-1.252-.077-2.234.605-2.287 1.584v.006c-.046.848.425 1.36 1.516 1.69l.901.274c.718.22 1.004.517.982.916v.011c-.029.537-.613.88-1.407.832-.755-.046-1.207-.398-1.339-.9l-.974-.059c.056.981.924 1.67 2.237 1.75Zm3.684.12.952.058.448-8.241-.951-.058-.449 8.241Zm3.448-6.851c.361.022.673-.255.692-.617.02-.361-.259-.674-.62-.696-.361-.022-.673.255-.693.617-.019.361.26.674.621.696Zm-.865 7.008.952.058.321-5.899-.951-.058-.322 5.899Zm4.143.356c.793.049 1.43-.259 1.836-.865l.088.005-.048.87.952.058.22-4.038c.067-1.226-.697-2.014-2.136-2.101-1.258-.077-2.189.492-2.392 1.408l-.008.032.952.058.007-.016c.178-.45.657-.685 1.363-.642.88.054 1.302.475 1.262 1.203l-.029.536-1.696.001c-1.377-.001-2.187.559-2.244 1.61l-.001.01c-.058 1.073.753 1.803 1.874 1.871Zm-.899-1.833v-.011c.032-.586.444-.879 1.344-.879l1.58-.003-.029.536c-.046.843-.786 1.435-1.754 1.376-.684-.042-1.174-.423-1.141-1.019Z"/>
  <g clip-path="url(#d)">
    <path fill="#C9CF6B" d="M174.169 149.968c-.105 1.934-1.758 3.407-3.692 3.289-1.933-.118-3.415-1.781-3.31-3.715.105-1.934 1.758-3.407 3.692-3.29 1.933.118 3.415 1.781 3.31 3.716Z"/>
    <path fill="#909A00" d="M172.593 149.872c-.057 1.064-.967 1.874-2.03 1.809-1.063-.065-1.879-.98-1.821-2.043.058-1.064.967-1.874 2.031-1.81 1.063.065 1.878.98 1.82 2.044Z"/>
  </g>
  <path fill="#000" d="m181.147 154.385 1.411.085.43-7.896-1.406-.085-2.141 1.324-.072 1.33 2.039-1.271.093.006-.354 6.507Zm7.119.63c1.86.113 3.068-1.411 3.207-3.961v-.011c.139-2.55-.896-4.205-2.756-4.318-1.86-.113-3.068 1.405-3.206 3.956l-.001.01c-.139 2.551.896 4.211 2.756 4.324Zm.062-1.143c-.99-.061-1.498-1.223-1.396-3.094l.001-.011c.102-1.871.731-2.953 1.722-2.893.99.06 1.498 1.211 1.396 3.083l-.001.011c-.102 1.871-.732 2.964-1.722 2.904Zm5.529-3.848c.504.031.891-.33.917-.811.027-.487-.319-.887-.822-.918-.498-.03-.891.325-.917.812-.026.481.325.887.822.917Zm-.221 4.061c.504.03.891-.325.917-.812.027-.487-.319-.887-.823-.918-.497-.03-.89.325-.916.812-.027.487.324.887.822.918Zm5.3 1.579c1.69.103 2.944-.946 3.033-2.588l.001-.011c.082-1.51-.914-2.669-2.374-2.758-.734-.044-1.363.236-1.715.747l-.093-.006.35-2.389 3.599.219.063-1.16-4.704-.286-.63 4.601 1.215.074c.102-.169.237-.315.385-.427.299-.245.678-.354 1.121-.327.886.054 1.491.739 1.441 1.658v.011c-.051.93-.716 1.543-1.624 1.488-.798-.049-1.356-.599-1.424-1.251l-.009-.039-1.297-.078.002.071c.028 1.303 1.057 2.354 2.66 2.451Zm7.069.43c1.86.113 3.068-1.411 3.207-3.961l.001-.011c.139-2.55-.896-4.205-2.756-4.318-1.86-.113-3.068 1.406-3.207 3.956v.011c-.139 2.55.895 4.21 2.755 4.323Zm.063-1.143c-.991-.061-1.498-1.222-1.396-3.094v-.011c.102-1.871.732-2.953 1.722-2.893.99.06 1.498 1.211 1.397 3.083l-.001.011c-.102 1.871-.732 2.964-1.722 2.904Z"/>
  <path fill="#000" fill-rule="evenodd" d="M225.611 147.609c.303.019.561.231.639.525l.916 3.455 3.561.216c.303.019.562.231.64.525.078.294-.042.604-.297.768l-2.995 1.918.916 3.455c.078.294-.042.604-.297.768-.255.163-.588.143-.823-.05l-2.767-2.27-2.995 1.919c-.255.164-.588.143-.823-.05-.236-.193-.322-.516-.212-.799l1.285-3.321-2.767-2.269c-.236-.193-.321-.515-.212-.798.11-.283.389-.462.692-.444l3.561.217 1.285-3.321c.11-.283.389-.462.693-.444Zm-.162 2.967-.691 1.786c-.109.283-.389.462-.692.444l-1.915-.117 1.488 1.22c.236.194.321.516.212.799l-.691 1.786 1.61-1.032c.255-.163.588-.143.823.05l1.488 1.22-.493-1.858c-.078-.294.042-.604.297-.767l1.611-1.032-1.915-.116c-.303-.019-.561-.231-.639-.525l-.493-1.858Z" clip-rule="evenodd"/>
  <path fill="#E7E8E9" d="m6.92767 161.85 232.59207441 14.14811715-.03814668.7004428-232.5920744-14.14811714z"/>
  <path fill="#fff" d="m6.88953 162.55 232.59207441 14.14811715-2.3415679 42.99547238L4.54796208 205.54547238z"/>
  <rect width="41.3874" height="26.2237" fill="#024D61" rx="5.61184" transform="matrix(.998155 .0607158 -.0543802 .99852 14.834 171.467)"/>
  <path fill="#fff" fill-rule="evenodd" d="M19.9014 181.613c.0211-.386.3517-.681.7384-.657l12.0102.73c.3422.021.6209.286.6588.628l.3992 3.596c.0043.038.0054.077.0033.116l-.0732 1.342c-.021.387-.3516.682-.7383.658l-.7352-.044c-.1187-.81-.7923-1.454-1.6392-1.506-.8468-.051-1.586.507-1.7917 1.297l-4.2712-.26c-.1186-.809-.7923-1.454-1.6391-1.505-.8469-.052-1.586.507-1.7918 1.296l-.7352-.044c-.3867-.024-.6831-.357-.662-.743l.267-4.904Zm.643 1.094c.0105-.194.1758-.341.3692-.329l.7001.042c.1934.012.3416.179.3311.372l-.0763 1.401c-.0106.193-.1758.341-.3692.329l-.7002-.043c-.1933-.012-.3415-.178-.331-.371l.0763-1.401Zm10.872.31c-.1934-.012-.3587.135-.3692.329l-.0763 1.401c-.0105.193.1377.359.331.371l1.1622.071c.2163.013.3914-.171.3675-.387l-.1571-1.415c-.0189-.171-.1583-.303-.3294-.314l-.9287-.056Zm-8.7714-.182c.0105-.194.1758-.341.3691-.329l2.8008.17c.1933.012.3415.178.331.371l-.0763 1.401c-.0105.194-.1758.341-.3692.329l-2.8007-.17c-.1934-.012-.3416-.178-.331-.372l.0763-1.4Zm4.5702-.074c-.1933-.012-.3586.136-.3691.329l-.0763 1.401c-.0106.193.1376.36.331.371l2.8007.171c.1934.012.3587-.136.3692-.329l.0763-1.401c.0105-.193-.1377-.36-.331-.371l-2.8008-.171Z" clip-rule="evenodd"/>
  <path fill="#fff" d="M31.4804 188.291c-.0317.581-.5275 1.022-1.1075.987-.5801-.035-1.0247-.534-.9931-1.114.0316-.581.5274-1.023 1.1075-.987.58.035 1.0247.534.9931 1.114ZM22.6708 188.81c.5801.035 1.0759-.407 1.1075-.987.0316-.58-.413-1.079-.9931-1.115-.58-.035-1.0759.407-1.1075.987-.0316.58.413 1.079.9931 1.115ZM43.333 189.842l5.3554.326.0637-1.171-3.4517-.21.0069-.126 1.5981-1.429c1.4703-1.3 1.9357-1.985 1.9846-2.882l.0009-.017c.0724-1.33-.9543-2.331-2.4641-2.423-1.6082-.098-2.7856.863-2.8713 2.335l.0046.016 1.3126.086.0012-.022c.0444-.815.6215-1.335 1.4201-1.286.7878.048 1.2351.602 1.1954 1.33l-.0009.016c-.0331.608-.3447.989-1.454 2.009l-2.6496 2.496-.0519.952Z"/>
  <path fill="#000" d="M67.7692 191.515c1.9584.12 3.1934-.991 3.2869-2.71l.2823-5.182-.9847-.06-.2786 5.117c-.0662 1.215-.8889 2.01-2.2564 1.927-1.3676-.083-2.1094-.974-2.0432-2.189l.2786-5.116-.9846-.06-.2822 5.182c-.0936 1.718 1.0236 2.972 2.9819 3.091Zm4.8038.106.9518.058.1902-3.491c.0563-1.035.6871-1.633 1.628-1.576.9409.057 1.3508.593 1.2929 1.654l-.1955 3.59.9519.058.208-3.82c.0763-1.4-.6196-2.228-1.9434-2.308-.8697-.053-1.4422.28-1.7716.886l-.0875-.006.0483-.886-.9518-.058-.3213 5.899Zm7.2118-6.622c.3611.022.6726-.256.6922-.617.0197-.361-.2596-.674-.6206-.696-.3611-.022-.6726.255-.6922.616-.0197.362.2596.675.6206.697Zm-.8646 7.008.9518.058.3213-5.899-.9518-.058-.3213 5.899Zm4.1974.255.9628.059 2.5038-5.766-1.0065-.062-1.8783 4.762-.0876-.006-1.349-4.957-1.0065-.061 1.8613 6.031Zm6.3689.492c1.3894.085 2.2747-.652 2.5206-1.439l.0134-.043-.9518-.058-.0246.048c-.178.346-.6909.694-1.4895.645-1.0503-.064-1.6844-.816-1.6453-2.038l4.2449.258.0202-.372c.096-1.762-.8127-3.014-2.4155-3.112-1.6028-.097-2.7101 1.087-2.8093 2.91l-.0003.005c-.1007 1.85.8524 3.094 2.5372 3.196Zm.2207-5.263c.8698.053 1.4852.645 1.5202 1.817l-3.2603-.199c.165-1.115.8649-1.671 1.7401-1.618Zm3.5611 5.389.9518.058.1991-3.656c.0471-.864.7239-1.4 1.6319-1.344.2079.012.3872.045.5824.09l.0503-.925c-.0921-.022-.2933-.056-.4738-.067-.7986-.049-1.3708.279-1.6287.884l-.0876-.006.0477-.875-.9518-.058-.3213 5.899Zm5.9586.467c1.3401.081 2.4031-.584 2.4601-1.635l.001-.011c.045-.843-.464-1.357-1.56-1.693l-.8964-.274c-.6855-.212-.9672-.481-.9454-.881l.0006-.011c.0283-.52.5622-.85 1.2623-.807.7109.043 1.1529.394 1.2539.867l.935.057c-.079-.971-.904-1.642-2.1402-1.717-1.2527-.076-2.2338.605-2.2871 1.585l-.0003.005c-.0462.848.4254 1.36 1.516 1.69l.9016.275c.718.219 1.004.516.982.916l-.001.011c-.029.536-.613.879-1.406.831-.7549-.046-1.2078-.397-1.3396-.899l-.9737-.06c.0564.981.9244 1.671 2.2372 1.751Zm4.5151-6.891c.361.022.673-.255.692-.616.02-.362-.259-.675-.62-.697-.361-.022-.673.256-.693.617-.019.361.26.674.621.696Zm-.864 7.008.951.058.322-5.899-.952-.058-.321 5.899Zm4.621.325c.186.012.368.001.556-.021l.044-.81c-.176.006-.269.006-.439-.004-.613-.038-.838-.331-.8-1.026l.181-3.338 1.291.078.043-.788-1.291-.078.084-1.527-.985-.06-.083 1.527-.93-.057-.043.788.93.057-.195 3.579c-.061 1.127.423 1.606 1.637 1.68Zm4.074.309c1.389.084 2.275-.653 2.521-1.439l.013-.043-.952-.058-.024.048c-.178.346-.691.693-1.49.645-1.05-.064-1.684-.817-1.645-2.038l4.245.258.02-.372c.096-1.762-.813-3.015-2.416-3.112-1.602-.098-2.71 1.087-2.809 2.909v.006c-.101 1.849.852 3.093 2.537 3.196Zm.221-5.263c.869.053 1.485.645 1.52 1.816l-3.26-.198c.165-1.116.865-1.671 1.74-1.618Zm5.654 5.56c.186.011.367 0 .555-.022l.044-.81c-.176.006-.269.006-.439-.004-.612-.037-.838-.331-.8-1.026l.182-3.338 1.291.078.043-.788-1.291-.078.083-1.527-.985-.06-.083 1.527-.93-.057-.043.788.93.057-.195 3.579c-.061 1.127.423 1.607 1.638 1.681Zm4.073.308c1.39.084 2.275-.653 2.521-1.439l.013-.043-.952-.058-.024.048c-.178.346-.691.693-1.49.645-1.05-.064-1.684-.816-1.645-2.038l4.245.258.02-.372c.096-1.762-.812-3.014-2.415-3.112-1.603-.097-2.71 1.087-2.81 2.909v.006c-.101 1.849.852 3.093 2.537 3.196Zm.221-5.263c.87.053 1.485.645 1.52 1.816l-3.26-.198c.165-1.115.865-1.671 1.74-1.618Zm5.654 5.56c.186.011.368 0 .555-.021l.044-.81c-.175.005-.269.005-.438-.005-.613-.037-.839-.331-.801-1.026l.182-3.338 1.291.078.043-.788-1.291-.078.083-1.527-.984-.06-.084 1.527-.93-.057-.042.788.929.057-.194 3.579c-.062 1.127.422 1.607 1.637 1.681ZM178.767 198.081l1.412.085.43-7.896-1.406-.086-2.142 1.325-.072 1.33 2.04-1.271.093.006-.355 6.507Zm7.135.434 1.411.085.43-7.896-1.405-.086-2.142 1.325-.072 1.33 2.039-1.271.093.006-.354 6.507Zm5.576-4.795c.503.031.89-.33.917-.811.026-.488-.32-.887-.823-.918-.498-.03-.89.325-.917.812-.026.481.325.887.823.917Zm-.221 4.061c.503.03.89-.325.916-.812.027-.487-.319-.887-.822-.918-.498-.03-.891.325-.917.812-.027.487.325.887.823.918Zm5.25 1.379 1.411.085.43-7.896-1.406-.085-2.141 1.324-.072 1.33 2.039-1.271.093.006-.354 6.507Zm7.119.63c1.859.113 3.068-1.411 3.206-3.961l.001-.011c.139-2.55-.896-4.205-2.756-4.318-1.86-.113-3.068 1.405-3.206 3.956l-.001.01c-.139 2.551.896 4.211 2.756 4.324Zm.062-1.143c-.99-.061-1.498-1.223-1.396-3.094l.001-.011c.102-1.871.731-2.953 1.721-2.893.991.06 1.499 1.211 1.397 3.083l-.001.011c-.102 1.871-.732 2.964-1.722 2.904Z"/>
  <g clip-path="url(#e)">
    <path fill="#000" fill-rule="evenodd" d="M223.231 191.305c.303.019.561.23.639.525l.916 3.455 3.561.216c.304.019.562.23.64.525.078.294-.042.604-.297.767l-2.995 1.919.916 3.455c.078.294-.042.604-.297.768-.255.163-.588.143-.823-.05l-2.767-2.27-2.995 1.919c-.255.163-.587.143-.823-.05s-.321-.516-.212-.799l1.285-3.321-2.767-2.269c-.236-.193-.321-.515-.212-.798.11-.283.389-.462.693-.444l3.561.217 1.285-3.321c.109-.283.389-.462.692-.444Zm-.162 2.967-.691 1.786c-.109.283-.388.462-.692.444l-1.915-.117 1.488 1.22c.236.194.321.516.212.799l-.691 1.786 1.61-1.032c.255-.164.588-.143.823.05l1.488 1.22-.492-1.858c-.078-.294.042-.604.297-.767l1.61-1.032-1.915-.116c-.303-.019-.561-.231-.639-.525l-.493-1.858Z" clip-rule="evenodd"/>
  </g>
  <path fill="#E7E8E9" d="m4.54797 205.546 232.59207441 14.14811715-.03814668.7004428-232.5920744-14.14811714z"/>
  <path fill="#fff" d="m4.50983 206.246 232.59207441 14.14811715-2.46007868 45.17154702-232.5920744-14.14811715z"/>
  <rect width="41.3874" height="26.2237" fill="#024D61" rx="5.61184" transform="matrix(.998155 .0607158 -.0543802 .99852 12.395 216.251)"/>
  <path fill="#fff" fill-rule="evenodd" d="M17.4625 226.397c.021-.386.3516-.681.7383-.657l12.0102.73c.3423.021.6209.286.6588.627l.3992 3.597c.0043.038.0054.077.0033.115l-.0731 1.343c-.0211.387-.3517.682-.7384.658l-.7352-.044c-.1186-.81-.7923-1.454-1.6391-1.506-.8469-.051-1.5861.507-1.7918 1.297l-4.2711-.26c-.1187-.809-.7923-1.454-1.6392-1.505-.8468-.052-1.586.507-1.7917 1.296l-.7352-.044c-.3867-.024-.6831-.357-.6621-.743l.2671-4.904Zm.6429 1.094c.0106-.194.1758-.341.3692-.329l.7002.042c.1933.012.3415.178.331.372l-.0763 1.401c-.0105.193-.1758.34-.3692.329l-.7001-.043c-.1934-.012-.3416-.178-.3311-.371l.0763-1.401Zm10.872.31c-.1934-.012-.3586.135-.3692.329l-.0763 1.4c-.0105.194.1377.36.3311.372l1.1621.071c.2163.013.3915-.171.3675-.387l-.1571-1.415c-.0189-.171-.1582-.303-.3294-.314l-.9287-.056Zm-8.7714-.182c.0105-.194.1758-.341.3692-.329l2.8007.17c.1934.012.3416.178.331.371l-.0763 1.401c-.0105.194-.1758.341-.3691.329l-2.8008-.17c-.1933-.012-.3415-.178-.331-.372l.0763-1.4Zm4.5703-.074c-.1934-.012-.3587.136-.3692.329l-.0763 1.401c-.0105.193.1377.36.331.371l2.8008.171c.1933.012.3586-.136.3691-.329l.0763-1.401c.0106-.193-.1376-.36-.331-.372l-2.8007-.17Z" clip-rule="evenodd"/>
  <path fill="#fff" d="M29.0414 233.075c-.0316.581-.5275 1.022-1.1075.987-.5801-.035-1.0247-.534-.9931-1.114.0316-.581.5275-1.023 1.1075-.987.5801.035 1.0247.534.9931 1.114ZM20.2318 233.594c.5801.035 1.0759-.407 1.1075-.987.0316-.58-.413-1.079-.993-1.115-.5801-.035-1.0759.407-1.1075.987-.0316.58.413 1.079.993 1.115ZM43.5306 234.787l1.4114.086.43-7.897-1.4058-.085-2.1413 1.324-.0724 1.33 2.0395-1.27.093.005-.3544 6.507Z"/>
  <path fill="#000" d="m62.2114 235.923 3.0798.187c1.6793.102 2.7199-.663 2.7953-2.048l.0006-.011c.0566-1.039-.5869-1.82-1.6571-2.022l.0048-.088c.7678-.09 1.41-.798 1.4544-1.613l.0006-.011c.0656-1.204-.7792-2.019-2.2288-2.107l-3.0195-.183-.4301 7.896Zm3.1944-6.855c.9791.059 1.5227.559 1.4792 1.358l-.0006.011c-.0453.832-.6757 1.222-1.8682 1.149l-1.5755-.096.138-2.533 1.8271.111Zm-.1568 3.383c1.2581.077 1.8783.581 1.8288 1.49l-.0006.01c-.0495.909-.6993 1.352-1.8863 1.28l-1.9474-.118.1511-2.775 1.8544.113Zm4.8635-3.108c.361.022.6725-.256.6922-.617.0197-.361-.2596-.674-.6207-.696-.361-.022-.6725.255-.6922.616-.0196.362.2597.675.6207.697Zm-1.8282 8.981c1.2362.075 1.8389-.41 1.9051-1.625l.337-6.189-.9518-.058-.3379 6.206c-.0355.651-.2884.861-.9284.822l-.1423-.009-.0459.843.1642.01Zm5.9157-1.567c1.6684.101 2.7654-.996 2.8679-2.879l.0006-.011c.0444-.815-.1101-1.505-.4379-2.036l.6987-.737-.5113-.487-.6405.675c-.4246-.366-.9779-.586-1.6452-.627-1.6685-.101-2.7652.99-2.8683 2.884l-.0006.011c-.0444.815.1101 1.505.4382 2.03l-.6929.732.5113.487.635-.675c.4243.372.9776.592 1.645.633Zm-1.6012-3.15.0006-.011c.0763-1.401.7607-2.178 1.8876-2.109.4485.027.8136.176 1.085.434l-2.8065 2.958c-.1347-.348-.1938-.774-.1667-1.272Zm1.6462 2.323c-.4486-.027-.8134-.181-1.0847-.439l2.8068-2.964c.1398.354.1989.78.1715 1.284l-.0006.011c-.076 1.395-.7607 2.177-1.893 2.108Zm3.9447.965.9518.058.1991-3.656c.0471-.864.7238-1.4 1.6319-1.344.2079.012.3872.045.5823.09l.0504-.925c-.0921-.022-.2933-.056-.4738-.067-.7987-.049-1.3708.279-1.6288.884l-.0875-.006.0477-.875-.9518-.058-.3213 5.899Zm4.1591.253.9518.058.1901-3.491c.0564-1.035.6872-1.633 1.6281-1.576.9408.057 1.3508.593 1.2929 1.654l-.1955 3.59.9518.058.2081-3.82c.0763-1.4-.6196-2.228-1.9434-2.308-.8698-.053-1.4422.28-1.7716.886l-.0875-.006.0483-.886-.9518-.058-.3213 5.899Zm8.4968.621c.8205.05 1.4981-.299 1.8949-.933l.0875.005-.0512.941.9518.058.4488-8.241-.9518-.058-.1782 3.272-.0876-.005c-.2884-.649-.972-1.097-1.7816-1.146-1.4989-.091-2.5378 1.048-2.6386 2.898l-.0006.011c-.1001 1.838.8132 3.107 2.3066 3.198Zm.2647-.829c-1.0776-.066-1.6724-.937-1.5976-2.31l.0006-.011c.0748-1.374.7602-2.166 1.8378-2.101 1.0721.065 1.6827.948 1.6085 2.311l-.0006.011c-.0742 1.362-.7766 2.165-1.8487 2.1Zm5.8418 1.201c.7932.048 1.4301-.259 1.8363-.866l.0875.005-.0473.87.9518.058.2196-4.038c.067-1.226-.6968-2.014-2.1355-2.101-1.2581-.077-2.1892.493-2.3927 1.408l-.0073.033.9518.057.0064-.016c.1782-.45.6574-.684 1.3631-.641.8807.053 1.3023.474 1.2627 1.202l-.0292.536-1.696.001c-1.3775-.001-2.1873.559-2.2445 1.61l-.0006.011c-.0584 1.072.7525 1.802 1.8739 1.871Zm-.899-1.834.0006-.011c.0319-.586.443-.879 1.3431-.879l1.5808-.003-.0292.537c-.0459.842-.7862 1.434-1.7544 1.375-.6838-.041-1.1734-.423-1.1409-1.019Zm5.3049 1.997.951.058.449-8.241-.952-.058-.448 8.241Zm4.58.383c1.34.082 2.402-.584 2.46-1.635v-.011c.046-.842-.464-1.356-1.56-1.692l-.896-.274c-.685-.212-.967-.482-.945-.881v-.011c.029-.52.563-.85 1.263-.807.711.043 1.153.394 1.253.866l.936.057c-.079-.971-.904-1.641-2.14-1.717-1.253-.076-2.234.606-2.288 1.585v.006c-.046.848.425 1.36 1.516 1.69l.902.274c.718.219 1.003.517.982.916l-.001.011c-.029.537-.613.88-1.406.832-.755-.046-1.208-.398-1.34-.9l-.974-.059c.057.981.925 1.67 2.238 1.75Zm3.683.12.952.058.449-8.241-.952-.058-.449 8.241Zm3.448-6.851c.361.022.673-.256.693-.617.019-.361-.26-.674-.621-.696-.361-.022-.673.255-.692.616-.02.362.259.675.62.697Zm-.864 7.008.952.058.321-5.899-.952-.058-.321 5.899Zm4.142.356c.793.049 1.43-.259 1.837-.865l.087.005-.047.87.952.058.219-4.038c.067-1.226-.697-2.014-2.135-2.101-1.258-.077-2.19.492-2.393 1.408l-.007.032.951.058.007-.016c.178-.45.657-.685 1.363-.642.881.054 1.302.475 1.263 1.203l-.03.536-1.696.001c-1.377-.001-2.187.559-2.244 1.609l-.001.011c-.058 1.073.753 1.803 1.874 1.871Zm-.899-1.833.001-.011c.032-.586.443-.879 1.343-.879l1.581-.003-.029.536c-.046.843-.787 1.435-1.755 1.376-.684-.042-1.173-.423-1.141-1.019Z"/>
  <g clip-path="url(#f)">
    <path fill="#C9CF6B" d="M169.715 231.756c-.106 1.934-1.759 3.407-3.692 3.289-1.934-.117-3.416-1.781-3.31-3.715.105-1.934 1.758-3.407 3.691-3.289 1.934.117 3.416 1.781 3.311 3.715Z"/>
    <path fill="#909A00" d="M168.139 231.66c-.058 1.064-.967 1.874-2.03 1.809-1.064-.064-1.879-.979-1.821-2.043.058-1.064.967-1.874 2.031-1.809 1.063.065 1.878.979 1.82 2.043Z"/>
  </g>
  <path fill="#000" d="m176.693 236.173 1.411.086.43-7.897-1.406-.085-2.141 1.325-.072 1.329 2.039-1.27.093.005-.354 6.507Zm7.135.434 1.411.086.43-7.897-1.406-.085-2.141 1.325-.073 1.329 2.04-1.27.093.005-.354 6.507Zm5.575-4.794c.503.03.891-.331.917-.812.027-.487-.319-.887-.823-.918-.497-.03-.89.325-.917.812-.026.482.325.887.823.918Zm-.221 4.06c.503.031.89-.325.917-.812.026-.487-.32-.887-.823-.917-.498-.031-.89.324-.917.811-.026.488.325.888.823.918Zm2.614 1.219 5.355.325.064-1.171-3.452-.21.007-.126 1.598-1.429c1.47-1.299 1.936-1.985 1.985-2.882l.001-.017c.072-1.329-.955-2.331-2.464-2.422-1.609-.098-2.786.862-2.872 2.334l.005.017 1.312.085.002-.022c.044-.815.621-1.335 1.42-1.286.787.048 1.235.602 1.195 1.33l-.001.016c-.033.608-.345.99-1.454 2.009l-2.649 2.496-.052.953Zm9.774.753c1.717.105 2.946-.792 3.022-2.182v-.011c.06-1.095-.657-1.83-1.778-2.008l.001-.027c.924-.142 1.649-.751 1.702-1.731l.001-.01c.067-1.237-.915-2.148-2.512-2.245-1.559-.095-2.658.739-2.848 2.1l-.008.06 1.312.079.009-.054c.104-.702.675-1.112 1.474-1.063.809.049 1.257.504 1.217 1.227v.011c-.038.689-.623 1.148-1.465 1.096l-.87-.052-.057 1.05.903.055c.968.059 1.534.555 1.488 1.386v.011c-.04.734-.648 1.207-1.529 1.154-.886-.054-1.451-.566-1.485-1.238l-.003-.061-1.351-.082.002.066c.031 1.358 1.09 2.367 2.775 2.469Z"/>
  <path fill="#555E65" d="m183.467 251.014.739.045.322-5.922-.734-.045-1.637 1.037-.043.78 1.565-1 .066.004-.278 5.101Zm5.293.322.738.045.323-5.922-.735-.045-1.637 1.037-.042.78 1.565-1 .065.004-.277 5.101Zm3.935-3.792c.296.018.547-.209.563-.501.016-.295-.209-.548-.504-.566-.292-.017-.547.206-.563.501-.016.292.213.549.504.566Zm-.173 3.177c.296.018.547-.21.563-.501.016-.296-.209-.548-.504-.566-.292-.018-.547.205-.563.501-.016.291.213.548.504.566Zm2.026.967 3.738.228.036-.665-2.716-.165.004-.074 1.372-1.304c1.098-1.041 1.412-1.516 1.449-2.194v-.008c.053-.956-.681-1.705-1.694-1.766-1.103-.068-1.936.639-1.998 1.69l.004.004.706.047.004-.008c.038-.697.519-1.133 1.2-1.092.673.041 1.053.533 1.019 1.157v.008c-.028.518-.258.812-1.041 1.584l-2.055 2.049-.028.509Zm7.103.572c1.309.08 2.161-1.066 2.265-2.971v-.008c.104-1.904-.619-3.142-1.927-3.222-1.309-.08-2.154 1.063-2.257 2.968l-.001.008c-.103 1.904.611 3.146 1.92 3.225Zm.035-.644c-.849-.052-1.294-1.026-1.212-2.536v-.008c.083-1.511.63-2.416 1.479-2.365.849.052 1.303 1.019 1.221 2.529l-.001.008c-.082 1.51-.638 2.424-1.487 2.372Z"/>
  <path fill="#555E65" d="m180.783 248.298 23.664 1.439-.027.493-23.664-1.439.027-.493Z"/>
  <path fill="#000" fill-rule="evenodd" d="M220.792 236.089c.303.019.562.23.64.525l.915 3.455 3.561.216c.304.019.562.23.64.525.078.294-.042.604-.297.767l-2.995 1.919.916 3.455c.078.294-.042.604-.297.768-.255.163-.587.143-.823-.05l-2.767-2.27-2.995 1.919c-.255.163-.587.143-.823-.05s-.321-.516-.212-.799l1.285-3.321-2.767-2.269c-.235-.193-.321-.515-.211-.798.109-.283.388-.462.692-.444l3.561.217 1.285-3.321c.109-.283.389-.462.692-.444Zm-.162 2.967-.69 1.786c-.11.283-.389.462-.693.444l-1.915-.117 1.488 1.22c.236.194.321.516.212.799l-.691 1.786 1.61-1.032c.256-.164.588-.143.824.05l1.487 1.22-.492-1.858c-.078-.294.042-.604.297-.767l1.61-1.032-1.915-.116c-.303-.019-.561-.231-.639-.525l-.493-1.858Z" clip-rule="evenodd"/>
  <path fill="#E7E8E9" d="m2.04974 251.418 232.59207441 14.14811715-.03814668.7004428-232.5920744-14.14811714z"/>
  <path fill="#fff" d="m2.0116 252.118 232.5924 14.148-1.426 26.185c-.169 3.095-2.813 5.451-5.907 5.263L5.88186 284.247c-3.09361-.188-5.464857-2.849-5.296314-5.944L2.0116 252.118Z"/>
  <path fill="#000" d="M12.5985 272.388c1.6561.101 2.7406-.678 2.8139-2.024l.0003-.005c.0568-1.044-.5193-1.665-1.9576-2.06l-.7333-.203c-.8517-.234-1.1844-.562-1.1578-1.05l.0003-.005c.032-.589.5972-.915 1.3631-.868.79.043 1.2813.457 1.3382.999l.0065.058 1.1822.072-.0014-.063c-.0256-1.116-.9325-2.012-2.4642-2.105-1.4933-.091-2.6013.678-2.6686 1.913l-.0002.005c-.0561 1.029.5206 1.727 1.9164 2.11l.7336.198c.8798.246 1.2224.57 1.1953 1.067l-.0003.005c-.0323.594-.6387.97-1.4716.92-.8759-.054-1.4725-.474-1.4983-1.057l-.0022-.048-1.19663-.073.00114.067c.02119 1.198.99769 2.05 2.60119 2.147Zm6.097.304c1.4216.086 2.165-.69 2.3693-1.355l.0167-.042-1.1344-.069-.0162.033c-.1279.232-.5142.535-1.1603.496-.8089-.049-1.2866-.626-1.2498-1.565l3.6568.222.0214-.393c.086-1.58-.7761-2.679-2.2647-2.77-1.4886-.09-2.4997.929-2.5894 2.576l-.0003.005c-.0907 1.666.7953 2.767 2.3509 2.862Zm.2023-4.508c.6653.04 1.1256.496 1.1603 1.358l-2.4842-.151c.1363-.828.6586-1.248 1.3239-1.207Zm6.1317 4.788 1.1918.072.2347-4.309 1.1152.067.0503-.924-1.1343-.069.0245-.45c.0271-.498.2571-.753.8171-.719.1675.011.3154.029.4055.049l.0454-.833c-.1896-.045-.4042-.073-.6579-.088-1.1631-.071-1.7223.409-1.7792 1.453l-.0281.517-.8568-.052-.0503.924.8568.052-.2347 4.31Zm3.3986.206 1.1918.073.3954-7.259-1.1919-.073-.3953 7.259Zm4.8288.4c1.4216.086 2.165-.69 2.3693-1.355l.0167-.042-1.1344-.069-.0162.032c-.1279.233-.5142.536-1.1603.497-.8089-.05-1.2866-.626-1.2498-1.566l3.6568.223.0214-.393c.0861-1.58-.7761-2.68-2.2647-2.77-1.4885-.091-2.4997.929-2.5894 2.576l-.0003.005c-.0907 1.666.7953 2.767 2.3509 2.862Zm.2023-4.509c.6654.041 1.1256.496 1.1603 1.358l-2.4842-.151c.1363-.827.6586-1.247 1.3239-1.207Zm3.2404 4.612 1.1918.073.1656-3.041c.0407-.747.5882-1.189 1.3828-1.141.2058.013.4005.054.5898.104l.0582-1.068c-.1131-.041-.2984-.076-.4803-.087-.6893-.042-1.1859.259-1.3935.809l-.0814-.005.0438-.805-1.1918-.072-.285 5.233Zm6.0733.476c1.4216.086 2.165-.69 2.3693-1.355l.0167-.042-1.1344-.069-.0162.032c-.1279.233-.5142.536-1.1603.496-.809-.049-1.2866-.625-1.2498-1.565l3.6568.223.0214-.393c.086-1.58-.7761-2.68-2.2647-2.77-1.4886-.091-2.4997.928-2.5895 2.576l-.0002.004c-.0908 1.667.7953 2.768 2.3509 2.863Zm.2023-4.509c.6653.041 1.1255.496 1.1602 1.358l-2.4841-.151c.1363-.827.6586-1.247 1.3239-1.207Zm7.1704 4.938c.6892.042 1.2606-.221 1.5755-.711l.0813.004-.0391.719 1.1775.071.1948-3.576c.0602-1.107-.6606-1.804-2.0056-1.886-1.2444-.075-2.1187.458-2.2815 1.332l-.0072.043 1.1249.068.0058-.019c.1384-.337.5033-.512 1.049-.479.6413.039.9655.347.9371.869l-.0245.45h-1.3494c-1.2774-.001-2.0203.501-2.0711 1.435l-.0006.01c-.0519.952.6375 1.609 1.6331 1.67Zm-.4525-1.656.0006-.01c.0234-.431.3478-.656 1.0155-.659l1.1816-.005-.0229.422c-.0339.622-.5908 1.059-1.3087 1.015-.5265-.032-.8903-.318-.8661-.763Zm5.8183 1.896 1.3067.079 2.1373-5.121-1.254-.076-1.4231 3.997-.0813-.005-.9893-4.144-1.2732-.077 1.5769 5.347Zm5.998 2.209c1.5269.093 2.5352-.609 2.6009-1.816l.278-5.104-1.1918-.073-.047.862-.0622-.004c-.2644-.611-.8099-1-1.5327-1.044-1.3497-.082-2.2298.912-2.3122 2.425l-.0006.009c-.0808 1.485.6867 2.559 2.0125 2.64.7228.044 1.309-.228 1.6411-.77l.0813.005-.0545 1.001c-.0365.67-.5309 1.02-1.3446.97-.6653-.04-1.0498-.299-1.1129-.639l-.004-.015-1.1919-.072-.0055.014c.0717.888.8676 1.527 2.2461 1.611Zm.1651-3.031c-.8281-.05-1.2625-.715-1.2121-1.639l.0005-.01c.0503-.924.5543-1.537 1.3824-1.487.8233.05 1.2909.722 1.2406 1.646l-.0006.01c-.0503.924-.5828 1.531-1.4108 1.48Zm5.2053 1.6c.6892.042 1.2606-.221 1.5754-.712l.0814.005-.0391.719 1.1775.071.1948-3.577c.0602-1.106-.6606-1.803-2.0056-1.885-1.2445-.075-2.1187.458-2.2815 1.332l-.0072.042 1.1248.069.0059-.019c.1384-.337.5033-.512 1.0489-.479.6414.039.9656.347.9372.869l-.0245.45h-1.3494c-1.2774-.001-2.0203.501-2.0712 1.435l-.0005.009c-.0519.953.6375 1.61 1.6331 1.671Zm-.4525-1.656.0005-.01c.0235-.431.3479-.656 1.0156-.659l1.1816-.005-.0229.422c-.0339.622-.5908 1.059-1.3087 1.015-.5265-.032-.8903-.318-.8661-.763Zm4.5738 1.82 1.1918.072.1661-3.05c.0428-.785.5102-1.256 1.2186-1.213.7228.044 1.0306.476.9863 1.29l-.1692 3.107 1.1918.073.1843-3.385c.0678-1.245-.5304-1.988-1.6983-2.059-.7563-.046-1.2774.263-1.5568.808l-.0813-.004.0435-.8-1.1918-.073-.285 5.234Zm8.037 2.334c1.5269.092 2.5352-.61 2.601-1.817l.2779-5.104-1.1918-.072-.0469.861-.0622-.003c-.2645-.612-.81-1.001-1.5327-1.045-1.3498-.082-2.2299.912-2.3123 2.425l-.0005.01c-.0809 1.484.6866 2.559 2.0124 2.639.7228.044 1.3091-.228 1.6411-.769l.0814.004-.0545 1.001c-.0365.671-.531 1.02-1.3447.971-.6653-.041-1.0498-.3-1.1129-.64l-.004-.015-1.1918-.072-.0056.014c.0717.888.8677 1.528 2.2461 1.612Zm.1651-3.031c-.828-.051-1.2624-.716-1.2121-1.64l.0005-.01c.0504-.924.5544-1.537 1.3824-1.487.8233.05 1.2909.723 1.2406 1.647l-.0005.009c-.0504.924-.5828 1.531-1.4109 1.481Zm6.018 1.668c1.4215.086 2.1649-.69 2.3692-1.355l.0167-.042-1.1343-.069-.0162.032c-.1279.233-.5142.536-1.1604.497-.8089-.05-1.2865-.626-1.2498-1.566l3.6568.223.0214-.393c.0861-1.58-.7761-2.68-2.2646-2.77-1.4886-.091-2.4998.929-2.5895 2.576l-.0003.004c-.0907 1.667.7954 2.768 2.351 2.863Zm.2023-4.509c.6653.041 1.1255.496 1.1602 1.358l-2.4842-.151c.1364-.827.6587-1.247 1.324-1.207Zm3.2403 4.612 1.1918.073.1656-3.041c.0407-.747.5883-1.189 1.3828-1.141.2058.013.4005.054.5899.103l.0581-1.067c-.113-.041-.2984-.076-.4803-.087-.6892-.042-1.1859.259-1.3935.809l-.0813-.005.0438-.805-1.1919-.072-.285 5.233Z"/>
  <path fill="#000" fill-rule="evenodd" d="m221.583 280.718-2.18-2.446 1.044-.931 3.31 3.715c.259.291.235.734-.054.991l-3.691 3.289-.937-1.051 2.432-2.166-8.813-.536.077-1.401 8.812.536Z" clip-rule="evenodd"/>
  <defs>
    <clipPath id="a">
      <path fill="#fff" d="m190.202 57.5645 7.00186768.4259098-.38146678 7.00442808-7.00186767-.4259098z"/>
    </clipPath>
    <clipPath id="b">
      <path fill="#fff" d="m170.161 94.564 7.00186768.4259098-.38146678 7.00442808-7.00186767-.4259098z"/>
    </clipPath>
    <clipPath id="c">
      <path fill="#fff" d="m221.105 101.349 14.00371539.85181839-.76293246 14.00883619-14.00371538-.85181839z"/>
    </clipPath>
    <clipPath id="d">
      <path fill="#fff" d="m167.358 146.04 7.00186768.4259098-.38146678 7.00442808-7.00186767-.4259098z"/>
    </clipPath>
    <clipPath id="e">
      <path fill="#fff" d="m216.286 189.829 14.00371539.85181839-.76293246 14.00883619-14.00371538-.85181839z"/>
    </clipPath>
    <clipPath id="f">
      <path fill="#fff" d="m162.903 227.828 7.00186768.4259098-.38146678 7.00442808-7.00186767-.4259098z"/>
    </clipPath>
  </defs>
</svg>
