<?xml version="1.0" encoding="UTF-8"?>
<svg width="85" height="97" id="Fav-avg.2" xmlns="http://www.w3.org/2000/svg" viewBox="0 0 1265 1452">
  <defs>
    <style>
      .cls-1 {
        fill: none;
        stroke: #00242d;
        stroke-miterlimit: 10;
        stroke-width: 30px;
      }

      .cls-2 {
        fill: #00242d;
      }

      .cls-3 {
        fill: #0085a9;
      }

      .cls-4 {
        fill: #ff282e;
      }

      .cls-5 {
        fill: #e3f2f7;
      }

      .cls-6 {
        fill: #ffbb46;
      }
    </style>
  </defs>
  <path class="cls-5" d="M548.89,389.9c143.11,111.1,298.76,73.98,442.11,259.1,154.26,259.87-296.31,705.92-522.01,450-132.1-149.78-226.99-194-226.99-335,0-218,155.49-491.64,306.89-374.1Z"/>
  <g>
    <path class="cls-3" d="M432.74,464.78c0,41.3-74.74,185.83-74.74,185.83,0,0-74.75-144.53-74.75-185.83s33.46-74.78,74.75-74.78,74.74,33.49,74.74,74.78Zm-74.74-38.51c-24.69,0-44.72,20.03-44.72,44.74s20.03,44.73,44.72,44.73,44.71-20.02,44.71-44.73-20.02-44.74-44.71-44.74Z"/>
    <circle class="cls-2" cx="357.6" cy="739.05" r="30.6"/>
  </g>
  <g>
    <path class="cls-4" d="M986.59,755.6c0,58.9-106.59,265.01-106.59,265.01,0,0-106.59-206.11-106.59-265.01s47.72-106.65,106.59-106.65,106.59,47.75,106.59,106.65Zm-106.59-54.91c-35.21,0-63.77,28.56-63.77,63.8s28.56,63.79,63.77,63.79,63.76-28.56,63.76-63.79-28.55-63.8-63.76-63.8Z"/>
    <circle class="cls-2" cx="879.6" cy="1123.05" r="40.18"/>
  </g>
  <path class="cls-6" d="M602.48,520.74c1.71-5.07,.77-7.51-3.4-10.48-19.55-13.94-53.09-38.22-75.07-54.19-6.87-4.99-3.36-15.85,5.13-15.87,27.14-.08,68.55-.09,92.9,.09,4.86,.04,7.04-1.24,8.56-6.08,7.1-22.59,20.05-62.48,28.56-88.57,2.63-8.07,14.05-8.07,16.68,0,8.45,25.93,21.22,65.43,28.47,88.44,1.47,4.65,3.43,6.28,8.46,6.23,24.39-.2,65.85-.29,93.04-.33,8.49-.01,12.05,10.85,5.19,15.86-21.79,15.93-54.92,39.99-74.48,53.92-4.56,3.25-5.79,5.9-3.89,11.52,7.66,22.68,20.43,61.89,28.8,87.78,2.61,8.1-6.67,14.8-13.54,9.78-25.14-18.37-49.79-36.37-74.54-54.45-3.5-2.55-8.24-2.56-11.74,0-20.33,14.84-53.22,38.82-75.14,54.79-6.91,5.03-16.2-1.77-13.48-9.88,8.79-26.22,21.62-65.19,29.49-88.55Z"/>
  <path class="cls-1" d="M357.6,739.05l307.2,83.17c18.08,4.89,21.72,28.94,5.9,38.96l-109.23,69.24c-14.21,9.01-13.06,30.1,2.04,37.51l316.1,155.12"/>
</svg>