<svg width="2400" height="2000" viewBox="0 0 2400 2000" fill="none" xmlns="http://www.w3.org/2000/svg">
  <path d="M1527.42 577.14C1373.73 603.51 1268 720.47 994.69 640.87C823.56 591 571 731.79 547.86 914.67C515.52 1170.26 388.1 1371.1 480.58 1512.09C645.58 1763.59 1148.32 1788.77 1371.79 1573.28C1548.79 1402.65 1768.03 1457.91 1954.4 1309.45C2106 1188.66 2114 889.51 1982.33 729.24C1848.66 566.55 1662.79 553.9 1527.42 577.14Z" fill="#E3F2F7"/>
  <path d="M1455.26 798.07H760C731.414 798.07 708.24 821.244 708.24 849.83V1258.7C708.24 1287.29 731.414 1310.46 760 1310.46H1455.26C1483.85 1310.46 1507.02 1287.29 1507.02 1258.7V849.83C1507.02 821.244 1483.85 798.07 1455.26 798.07Z" fill="#006275"/>
  <g clip-path="url(#clip0_37_138)">
    <path d="M1418.05 802H1402.72V1319.18H1418.05V802Z" fill="#00242D"/>
    <path d="M1203.47 866.15C1224.53 860.82 1254.85 875.74 1259.62 900.38C1264.39 925.02 1268.87 968.03 1253.26 973.5C1246.35 975.92 1219.89 973.5 1219.89 973.5L1225.45 1002.91H1176.96L1184.96 960.78C1184.96 960.78 1134.03 883.63 1203.47 866.15Z" fill="#FF989B"/>
    <path d="M1223.82 897.15C1217.99 914.15 1223.89 939.15 1212.34 917.56C1206.7 906.99 1198.17 909.77 1193.68 918.33C1188.17 928.85 1200.68 937.84 1199.45 941.39C1198.22 944.94 1187.65 960.39 1184.89 960.75C1182.13 961.11 1155.05 916.9 1166.89 887.29C1179.89 854.87 1234.98 852.81 1247.26 879.05C1242.61 878.95 1229.58 880.28 1223.82 897.15Z" fill="#00242D"/>
    <path d="M1178.61 1267.25C1178.61 1267.25 1228.61 1524.17 1230.71 1544.15C1232.81 1564.13 1226.5 1661.94 1249.56 1752.68L1293.56 1754.13C1295.21 1694.13 1298.06 1581.78 1298.45 1557.36C1299 1522.73 1300.11 1326.36 1300.11 1326.36C1300.11 1326.36 1198.47 1219.15 1178.61 1267.25Z" fill="#00242D"/>
    <path d="M1352.99 1345.75C1352.99 1345.75 1355.45 1364.22 1355.43 1365.75C1355.41 1367.28 1364.43 1405.28 1364.43 1407.44C1364.43 1409.6 1361.24 1430.86 1360.22 1432.44C1359.2 1434.02 1341.8 1451.36 1341.8 1451.36C1341.8 1451.36 1337.51 1451.78 1338.25 1447.36C1338.99 1442.94 1336.66 1444.69 1336.15 1442.91C1335.64 1441.13 1343.96 1424.2 1343.96 1424.2L1345.46 1412.2L1342.68 1409.32L1332.19 1432.94C1332.19 1432.94 1329.49 1434.21 1328.72 1431.45C1327.95 1428.69 1335.54 1404.3 1335.54 1404.3C1335.54 1404.3 1332.86 1387 1332.48 1383.05C1332.1 1379.1 1334.21 1368.34 1334.21 1368.34L1326.79 1348.25L1352.99 1345.75Z" fill="#0085A9"/>
    <path d="M1105.85 1324.32C1105.85 1324.32 1117.09 1444.64 1121.25 1555.7C1113.97 1648.54 1120.72 1739.33 1121.96 1751.82L1168.96 1751.9C1169.36 1727.59 1174.59 1639.62 1184.9 1560.43C1200.03 1444.15 1222.01 1316.15 1222.01 1316.15C1222.01 1316.15 1125.14 1276.05 1105.85 1324.32Z" fill="#00242D"/>
    <path d="M1389.47 1240.42C1371.84 1251.52 1363.14 1269.42 1370.04 1280.36C1372.16 1283.59 1375.35 1285.98 1379.04 1287.11C1382.87 1288.42 1395.96 1278.02 1401.19 1273.11C1404.13 1270.37 1407.39 1268 1410.9 1266.05C1418.84 1261.58 1427.03 1259.61 1433.4 1260.14C1436.93 1252.89 1437.4 1245.67 1433.94 1240.14C1427.02 1229.2 1407.13 1229.31 1389.47 1240.42Z" fill="#FF989B"/>
    <path d="M1273.71 1007.4C1306.98 1033.69 1318.98 1048.18 1321.71 1153.4C1323.71 1230.46 1336.05 1233.97 1352.42 1244.4C1370.42 1255.85 1376.89 1251.17 1376.89 1251.17L1380.79 1287.24C1380.79 1287.24 1219.58 1342.62 1250.39 1135.73C1255.77 1099.26 1244.05 1021.57 1273.71 1007.4Z" fill="#00242D"/>
    <path d="M1179.87 987.35C1158.25 989.46 1119.69 1010.43 1113.56 1016.54C1102.92 1089.86 1100.96 1370.98 1100.96 1370.98L1306.73 1372.51C1306.73 1372.51 1311.8 1123.09 1281.51 1015.51C1271.63 999.04 1233.9 991.1 1222.59 987.85C1221.71 987.62 1180.47 987.28 1179.87 987.35Z" fill="#00242D"/>
    <path d="M1122.72 1010.15C1070.04 1041.08 1037.88 1150.15 1047.79 1208.15C1057.33 1263.91 1148.36 1300.63 1148.36 1300.63C1148.36 1300.63 1148.39 1051.6 1122.72 1010.15Z" fill="#00242D"/>
    <path d="M865.562 1028.97C884.862 1024.09 911.562 1027.97 917.022 1060.34C920.882 1083.01 925.502 1122.34 911.192 1127.34C904.862 1129.56 880.602 1127.34 880.602 1127.34L885.702 1154.34H841.262L848.552 1115.73C848.552 1115.73 801.932 1045.04 865.562 1028.97Z" fill="#FF989B"/>
    <path d="M884.922 1054.84C879.352 1071.1 884.982 1094.95 873.922 1074.32C868.542 1064.23 860.392 1066.89 856.112 1075.06C850.842 1085.06 862.742 1093.68 861.622 1097.06C860.502 1100.44 852.852 1117.3 847.722 1115.55C819.882 1106.06 806.722 1077.24 814.432 1047.78C824.632 1009 879.432 1003.89 906.292 1037.55C901.862 1037.48 890.472 1038.75 884.922 1054.84Z" fill="#00242D"/>
    <path d="M871.472 990.34C875.042 1005.66 867.692 1017.44 853.762 1020.69C839.832 1023.94 831.142 1015.41 827.572 1000.1C824.002 984.79 828.682 971.57 842.572 968.32C856.462 965.07 867.852 975.03 871.472 990.34Z" fill="#00242D"/>
    <path d="M893.372 1144.02C893.372 1144.02 861.622 1146.86 844.372 1139.33C822.602 1129.84 791.612 1119.13 775.652 1124.9C763.652 1129.25 758.802 1198.74 797.412 1201.36C866.372 1206.05 893.372 1144.02 893.372 1144.02Z" fill="#FFBB46"/>
    <path d="M855.892 1139.66C836.162 1140.89 816.762 1145.66 804.042 1182.92C785.912 1234.23 773.042 1323.67 772.612 1493.37L937.892 1460.85C921.312 1373.85 923.812 1171.85 893.372 1144.02C880.712 1138.7 872.672 1138.62 855.892 1139.66Z" fill="#FFBB46"/>
    <path d="M844.612 1182.92C858.512 1182.83 878.432 1246.84 848.822 1365.2L946.252 1447.75L921.172 1480.87C921.172 1480.87 828.982 1424.26 809.752 1381.44C790.522 1338.62 794.652 1183.25 844.612 1182.92Z" fill="#FFBB46"/>
  </g>
  <path opacity="0.2" d="M1409.63 801.85H805.63C689.08 801.85 713.4 843.15 713.4 894.09V936.23C713.4 911.769 723.117 888.31 740.414 871.014C757.71 853.717 781.169 844 805.63 844H1409.63C1434.09 844.003 1457.55 853.721 1474.84 871.016C1492.14 888.312 1501.86 911.77 1501.86 936.23V894.09C1501.86 843.15 1528.21 801.85 1409.63 801.85Z" fill="#00242D"/>
  <path d="M653.28 762L609.21 1464.54L1573.36 1383.88L1567.61 732.25L653.28 762ZM1507 1262.49C1507 1276.22 1501.55 1289.38 1491.84 1299.09C1482.13 1308.8 1468.97 1314.25 1455.24 1314.25H760C746.272 1314.25 733.107 1308.8 723.4 1299.09C713.693 1289.38 708.24 1276.22 708.24 1262.49V853.61C708.24 839.882 713.693 826.717 723.4 817.01C733.107 807.303 746.272 801.85 760 801.85H1455.26C1468.98 801.855 1482.14 807.311 1491.85 817.017C1501.55 826.724 1507 839.886 1507 853.61V1262.49Z" fill="#E3F2F7"/>
  <path d="M1461.44 1326.76H753.82C722.09 1326.76 696.27 1300.64 696.27 1268.54V847.54C696.27 815.44 722.09 789.32 753.82 789.32H1461.44C1493.17 789.32 1518.99 815.44 1518.99 847.54V1268.54C1519 1300.64 1493.17 1326.76 1461.44 1326.76ZM760 806.64C747.535 806.64 735.58 811.592 726.766 820.406C717.952 829.22 713 841.175 713 853.64V1262.52C713 1274.99 717.952 1286.94 726.766 1295.75C735.58 1304.57 747.535 1309.52 760 1309.52H1455.26C1467.73 1309.52 1479.68 1304.57 1488.49 1295.75C1497.31 1286.94 1502.26 1274.99 1502.26 1262.52V853.61C1502.26 841.145 1497.31 829.19 1488.49 820.376C1479.68 811.562 1467.73 806.61 1455.26 806.61L760 806.64Z" fill="#00242D"/>
  <path d="M1846 1029.28C1824.26 1029.28 1812.59 1021.79 1803.22 1015.77C1795.57 1010.85 1790.04 1007.3 1777.57 1007.3C1765.1 1007.3 1759.57 1010.85 1751.92 1015.77C1742.55 1021.77 1730.92 1029.28 1709.15 1029.28C1687.38 1029.28 1675.75 1021.79 1666.38 1015.77C1658.73 1010.85 1653.2 1007.3 1640.73 1007.3V963.73C1662.47 963.73 1674.13 971.23 1683.5 977.25C1691.15 982.16 1696.68 985.72 1709.15 985.72C1721.62 985.72 1727.15 982.16 1734.8 977.25C1744.17 971.25 1755.8 963.73 1777.57 963.73C1799.34 963.73 1810.98 971.23 1820.35 977.25C1828 982.16 1833.53 985.72 1846 985.72C1858.47 985.72 1864 982.16 1871.65 977.25C1881.02 971.25 1892.65 963.73 1914.42 963.73V1007.3C1901.95 1007.3 1896.42 1010.85 1888.77 1015.77C1879.36 1021.79 1867.7 1029.28 1846 1029.28Z" fill="#0085A9"/>
  <path d="M1716.16 1067.15H1640.69V1107.67H1716.16V1067.15Z" fill="#0085A9"/>
  <path d="M1815.27 1067.15H1739.8V1107.67H1815.27V1067.15Z" fill="#0085A9"/>
  <path d="M1914.38 1067.15H1838.91V1107.67H1914.38V1067.15Z" fill="#0085A9"/>
  <path d="M1843.4 869.98L1778.02 917.45L1712.64 869.98L1640.69 922.71V929.34H1763.16H1792.88H1914.38V921.93L1843.4 869.98Z" fill="#0085A9"/>
  <path d="M651.75 935.67C832.916 935.67 979.78 788.806 979.78 607.64C979.78 426.474 832.916 279.61 651.75 279.61C470.584 279.61 323.72 426.474 323.72 607.64C323.72 788.806 470.584 935.67 651.75 935.67Z" fill="#0085A9"/>
  <g opacity="0.7">
    <path opacity="0.32" d="M720.58 512.08C710 569.72 758.22 756.33 669.21 849C646.1 873 619.21 902.35 592.42 930.33C767.2 962.56 936.55 849.33 972.83 674.45C1004 524 926.78 376.33 794.41 312.5C773.69 345.4 738.82 412.26 720.58 512.08Z" fill="white"/>
    <path opacity="0.32" d="M676.29 509.35C691.79 413.08 741.47 339.76 771.54 302.54C754.288 295.791 736.499 290.506 718.36 286.74C541 250 367.46 363.89 330.68 541.21C300.1 688.63 373.68 833.43 501.26 899.21C544.4 869.49 590.79 834.7 621.67 803.48C708.18 716 664 585.8 676.29 509.35Z" fill="white"/>
    <path opacity="0.7" d="M555.38 780.69C565.08 785.36 574.53 789.59 583.38 793.23C592.92 797.16 602.83 803.76 612.81 812.14C628.17 825.06 643.67 842.22 658.19 860.55C677.09 884.4 694.32 910.18 707.39 931.02C714.77 929.76 722.07 928.25 729.29 926.49C715.29 903.74 695.48 873.65 673.15 845.86L692.27 838.2L798.08 901.2C801.02 899.74 803.937 898.233 806.83 896.68L782 881.94L857.17 771.52L913.83 805C915.51 802.76 917.177 800.5 918.83 798.22L788.83 721.34L816.83 667.58C837.16 665.27 852.73 662.99 861.14 660.81C873.94 657.49 889.24 650.81 905.26 642.41L965.26 704.18C966.2 701.12 967.094 698.037 967.94 694.93L912.94 638.3C935.94 625.71 959.86 610.3 979.58 596.77C979.314 588.61 978.74 580.51 977.86 572.47C955.54 588.07 925.34 608.1 897.86 622.73L850.65 574.1L899 455.46L955.66 484.6C954.007 480.527 952.277 476.497 950.47 472.51L902.18 447.69L916.03 413.69C914.11 411.07 912.154 408.483 910.16 405.93L894.7 443.84L824.23 407.61L853.93 349.61C851.7 347.86 849.45 346.13 847.17 344.44L816.79 403.8L761.55 375.39C760.45 377.91 759.36 380.49 758.26 383.11L813 411.23L783.38 469.11L736.3 447.7L734.55 451.54L732.83 455.32L733.44 455.59L865.44 515.64L842.95 570.76L720 565.68C720.16 568.42 720.32 571.23 720.49 574.08L843.82 579.18L890 626.76C877.44 633.07 865.69 638.01 855.82 640.57C838.31 645.11 786.15 650.24 724.26 655.07C708.84 656.27 692.81 657.45 676.57 658.6C573.26 665.92 461 671.93 439 673.08L599.83 615.58C603.584 617.015 607.584 617.69 611.601 617.569C615.617 617.447 619.569 616.53 623.229 614.87C626.888 613.211 630.182 610.843 632.921 607.902C635.659 604.961 637.787 601.507 639.181 597.738C640.575 593.97 641.208 589.962 641.044 585.947C640.879 581.933 639.92 577.99 638.222 574.349C636.523 570.707 634.12 567.438 631.15 564.732C628.18 562.025 624.703 559.934 620.92 558.58L629.56 422.58L730 289.4C727 288.67 724.07 287.99 721.07 287.34L662.13 365.53L559.88 293C556.51 294 553.14 295 549.8 296.1L562.43 305.1L404.79 453.1L376.88 428.9C375.34 431.26 373.88 433.65 372.36 436.05L441.08 495.66L372.36 593L328.54 552.63C327.98 555.95 327.45 559.26 326.99 562.57L367.49 599.9L327.41 656.67C327.997 660.577 328.664 664.47 329.41 668.35L373.12 606.44L425.93 677.61L346.69 728.13C349.29 734.71 352.097 741.19 355.11 747.57L432.17 698.45C438.23 706.27 447.85 715 459.69 724.02L380.1 791.43C381.674 793.75 383.274 796.05 384.9 798.33L466.6 729.08C474.26 734.6 482.6 740.18 491.46 745.68L459.38 763.13L490.22 863.25L475.94 884.68C478.29 886.16 480.66 887.68 483.05 889.07L555.38 780.69ZM791 472.58L820.44 415.06L891.55 451.62L868.6 507.89L791 472.58ZM850 767.25L774.84 877.65L702 834.29L737.23 820.19L784.87 728.79L850 767.25ZM450.58 660.07L522.64 564.49L580.93 584.9C580.556 589.548 581.255 594.22 582.974 598.554C584.692 602.889 587.383 606.771 590.84 609.9L450.58 660.07ZM632.81 591.88C631.917 596.134 629.784 600.029 626.68 603.072C623.576 606.115 619.64 608.17 615.369 608.978C611.097 609.786 606.683 609.311 602.681 607.612C598.68 605.913 595.272 603.067 592.887 599.433C590.502 595.798 589.247 591.539 589.28 587.192C589.313 582.845 590.634 578.606 593.074 575.009C595.515 571.412 598.967 568.618 602.994 566.981C607.02 565.344 611.442 564.937 615.7 565.81C621.422 567.006 626.437 570.421 629.644 575.308C632.852 580.195 633.99 586.155 632.81 591.88V591.88ZM612.65 557.06C606.241 556.762 599.901 558.499 594.54 562.023C589.178 565.548 585.069 570.678 582.8 576.68L527.92 557.48L620.43 434.79L612.65 557.06ZM452.53 494.49L501 437.3L579.14 475.63L520.47 553.44L452.53 494.49ZM657.13 372.21L584.29 468.82L506.6 430.71L594.09 327.51L657.13 372.21ZM587.24 322.65L498.85 426.91L463.39 409.52L569.39 310L587.24 322.65ZM411.14 458.58L456.87 415.64L493.27 433.49L446.21 489L411.14 458.58ZM378.19 599.19L447.42 501.13L515.42 560.13L431.66 671.26L378.19 599.19ZM455.26 693.19C494.65 691.08 587.48 685.92 675.18 679.7C691.85 678.53 708.32 677.31 724.18 676.07C754.86 673.67 783.35 671.18 806.75 668.7L731.27 813.57L682.48 833.1L667.58 839.1C654.72 823.62 641.14 809.1 627.44 797.39C615.37 787.05 603.2 778.81 591.33 773.93C532.34 749.56 476.91 713.77 455.26 693.17V693.19ZM469.39 767.19L499.7 750.71C515.22 760.04 531.7 769.02 547.78 776.97L496.22 854.25L469.39 767.19Z" fill="#E3F2F7"/>
  </g>
  <path d="M503.77 658.83V520.97L405.6 438.07L409.24 433.75L509.42 518.35V652.88L755.27 640.21L732.18 586.71L737.3 491.34L756.34 416.38L658.86 318.9V307.28H664.51V316.56L762.61 414.65L742.84 492.46L737.89 585.68L763.68 645.43L503.77 658.83Z" fill="#FF282E"/>
  <path d="M881.35 802.7L841.04 778.84L644.7 776.64V564.99L616.25 544.71L362.79 536.55L362.97 530.9L618.14 539.12L650.35 562.09V771.06L842.62 773.21L884.22 797.84L881.35 802.7Z" fill="#FFBB46"/>
  <path d="M511.73 871.39L507.05 868.24L522.83 844.82L556.47 836.48L630.73 771.6V511.65H535.14V369.66H639.07L682.75 308.36L687.35 311.64L641.98 375.31H540.79V506H636.38V774.16L559.16 841.64L526.3 849.78L511.73 871.39Z" fill="white"/>
  <defs>
    <clipPath id="clip0_37_138">
      <rect width="669" height="544" fill="white" transform="translate(767 802)"/>
    </clipPath>
  </defs>
</svg>