<svg width="1025" height="564" viewBox="0 0 1025 564" fill="none" xmlns="http://www.w3.org/2000/svg">
<path d="M717.435 141.278L709.956 145.122L705.015 132.832L712.863 129.135L717.435 141.278Z" fill="#323E48"/>
<path d="M718.241 120.012C714.765 112.635 707.023 108.974 700.951 111.836C694.878 114.698 692.773 122.998 696.25 130.376C699.727 137.753 707.469 141.414 713.541 138.552C719.614 135.69 721.718 127.39 718.241 120.012Z" fill="#323E48"/>
<path d="M691.02 123.376C691.1 119.126 688.373 115.628 684.931 115.564C681.488 115.5 678.632 118.893 678.553 123.144C678.474 127.394 681.2 130.892 684.643 130.956C688.086 131.021 690.941 127.627 691.02 123.376Z" fill="#323E48"/>
<path d="M709.092 139.404C709.092 139.404 694.134 149.558 685.171 124.275C685.171 124.275 690.382 107.739 708.066 109.685C708.066 109.685 705.823 121.035 704.437 124.925C704.437 124.925 698.017 128.508 705.377 131.527L709.092 139.404Z" fill="#323E48"/>
<path d="M722.196 136.53L724.572 143.782C724.572 143.782 736.031 148.267 743.453 153.999C750.876 159.73 806.677 244.085 806.677 244.085C803.467 245.978 742.247 271.964 742.247 271.964C739.474 266.645 736.099 216.962 736.099 216.962L718.691 182.911L709.027 164.188C709.162 162.976 706.943 153.246 706.943 153.246L705.225 143.544C715.367 145.247 722.196 136.53 722.196 136.53Z" fill="#D7282F"/>
<path d="M789.134 155.503C789.134 155.503 800.394 147.842 797.62 141.684L790.036 143.942L780.373 154.031L781.393 159.716L789.134 155.503Z" fill="#323E48"/>
<path d="M756.299 178.914C752.302 178.303 738.265 172.859 738.265 172.859L741.669 156.665C743.633 157.531 757.666 165.632 757.666 165.632C759.317 164.773 783.199 149.565 783.199 149.565C783.53 150.443 788.516 157.088 788.516 157.088C785.441 159.486 756.299 178.914 756.299 178.914Z" fill="#D7282F"/>
<path d="M712.537 129.611L716.167 125.894C716.167 125.894 717.18 126.308 716.956 127.369C716.763 128.413 712.537 129.611 712.537 129.611Z" fill="white"/>
<path d="M712.566 129.593C712.566 129.593 716.351 129.222 717.279 128.877C717.279 128.877 718.177 127.862 716.956 127.369L712.566 129.593Z" fill="white"/>
<path d="M910.299 230.521L896.41 235.855L914.545 283.074L928.434 277.74L910.299 230.521Z" fill="#007C92"/>
<path d="M958.8 64.0871C958.8 59.9788 955.47 56.6484 951.362 56.6484C947.253 56.6484 943.923 59.9788 943.923 64.0871V233.684C943.923 237.792 947.253 241.122 951.362 241.122C955.47 241.122 958.8 237.792 958.8 233.684V64.0871Z" fill="#37424A"/>
<path d="M788.476 141.025L788.476 141.025C786.843 142.271 786.529 144.605 787.775 146.238L804.916 168.714C806.162 170.347 808.496 170.661 810.129 169.415C811.763 168.17 812.077 165.836 810.831 164.202L793.689 141.727C792.444 140.094 790.11 139.78 788.476 141.025Z" fill="#37424A"/>
<path d="M981.915 126.521L962.47 133.989C955.567 136.64 952.12 144.385 954.772 151.288L954.772 151.288C957.423 158.191 965.168 161.638 972.071 158.987L991.516 151.519C998.419 148.868 1001.87 141.122 999.215 134.219L999.214 134.219C996.563 127.316 988.818 123.869 981.915 126.521Z" fill="#37424A"/>
<path d="M774.947 268.162L772.622 282.856L923.977 306.799L926.302 292.105L774.947 268.162Z" fill="#007C92"/>
<path d="M941.224 331.792C959.633 324.722 968.825 304.068 961.755 285.659C954.685 267.251 934.03 258.06 915.622 265.13C897.213 272.2 888.021 292.854 895.091 311.263C902.161 329.671 922.815 338.862 941.224 331.792Z" fill="#2C353B"/>
<path fill-rule="evenodd" clip-rule="evenodd" d="M709.881 181.596L670.252 196.816L511.974 263.979L442.785 192.601C438.323 187.997 431.545 186.502 425.56 188.8L384.702 204.492C371.297 209.641 364.604 224.681 369.752 238.086L397.876 311.312C405.833 332.03 426.722 344.813 448.792 342.47L699.536 315.845C710.016 314.732 720.305 312.255 730.142 308.477L972.792 215.284C983.619 211.126 989.025 198.978 984.867 188.151L954.854 110.006C950.696 99.1792 938.548 93.7732 927.721 97.9314L802.839 145.894C807.966 162.549 792.548 183.313 767.561 192.91C742.574 202.506 717.22 197.401 709.881 181.596Z" fill="#71D6E0"/>
<path d="M730.654 257.336C731.551 256.432 732.629 255.729 733.817 255.272L895.829 193.05C900.469 191.267 905.675 193.584 907.457 198.224L910.604 206.419C912.387 211.059 910.07 216.266 905.43 218.048L699.11 297.288C696.092 298.447 693.628 294.67 695.904 292.375L730.654 257.336Z" fill="#007C92"/>
<path d="M445.416 309.643C446.348 308.642 447.497 307.867 448.774 307.376L528.097 276.911C531.932 275.438 536.235 277.353 537.708 281.188C539.181 285.023 537.266 289.326 533.431 290.799L435.836 328.282C432.866 329.422 430.396 325.764 432.565 323.436L445.416 309.643Z" fill="#007C92"/>
<path d="M674.333 151.423C690.657 145.791 701.395 145.811 705.205 146.738L705.26 142.733C705.812 142.786 708.219 142.553 713.432 141.188C718.645 139.823 721.267 137.382 721.926 136.332C724.632 137.152 729.006 139.828 724.86 143.97C720.713 148.113 711.451 151.245 707.338 152.293C701.516 153.732 686.939 152.984 678.817 156.873C661.989 164.929 663.693 175.59 641.574 192.69C631.744 200.291 587.537 207.601 570.054 209.8L576.737 196.078L573.486 181.39C585.751 183.585 614.639 186.461 632.074 180.403C653.868 172.829 653.928 158.463 674.333 151.423Z" fill="#A2AD00"/>
<path d="M606.757 355.894C540.144 391.307 392.007 449.297 296.04 451.42C176.082 454.073 143.966 379.034 183.384 348.059C226.925 313.843 271.284 346.432 267.401 410.738C265.272 445.994 261.392 557.121 17.5718 551.855" stroke="#37424A" stroke-width="16" stroke-linecap="round" stroke-dasharray="16 32"/>
</svg>
