<svg width="201" height="216" viewBox="0 0 201 216" fill="none" xmlns="http://www.w3.org/2000/svg">
<g clip-path="url(#clip0_7555_3040)">
<path d="M157.836 131.511C190.161 133.39 210.818 171.615 192.131 198.886C173.673 225.825 134.335 217.718 121.256 189.832C108.442 162.512 126.436 129.687 157.836 131.511ZM126.305 190.607C138.272 212.456 168.85 219.654 186.247 199.8C206.577 176.598 188.874 137.785 158.808 135.589C128.517 133.376 112.385 165.191 126.305 190.607Z" fill="#00151A"/>
<path d="M40.7433 131.511C77.7397 133.648 96.1293 183.443 66.8155 207.17C43.7923 225.804 11.3247 211.038 2.93656 184.651C-5.36816 158.532 12.032 129.852 40.7433 131.511ZM10.572 191.773C23.8122 214.509 56.4315 219.58 71.4656 195.897C86.445 172.3 69.8007 137.639 41.7146 135.589C10.9772 133.344 -3.94002 166.851 10.572 191.773Z" fill="#00151A"/>
<path d="M149.084 133.809L156.241 173.001L122.385 151.855C121.965 151.994 121.937 152.631 122.262 152.906L155.464 174.276C154.886 175.042 154.221 177.235 153.379 177.615C143.748 179.797 134.015 181.634 124.431 184.007C123.668 184.197 121.57 184.566 121.045 184.844C120.571 185.094 120.694 185.838 121.235 185.982L152.745 179.022C152.893 179.161 151.059 182.259 150.837 182.646C146.393 190.389 141.379 197.806 136.718 205.419C136.009 206.927 137.091 207.008 137.991 205.722C141.304 200.983 144.537 195.431 147.583 190.46C149.931 186.63 152.183 182.74 154.402 178.834L157.405 178.05L164.627 214.031C164.795 214.541 165.63 214.549 165.757 213.871C165.894 213.15 165.449 211.102 165.306 210.245C163.514 199.374 160.294 188.747 158.651 177.847C158.835 177.601 160.948 177.295 161.3 177.751C167.348 181.556 173.516 185.174 179.527 189.037C181.142 190.075 191.811 197.586 192.623 197.436C192.845 197.395 193.141 197.024 193.142 196.786C193.145 196.24 190.482 194.921 189.928 194.558C180.907 188.651 171.998 182.573 162.651 177.178C162.817 176.905 163.066 176.947 163.32 176.876C166.278 176.052 170.011 175.584 173.1 175.004C181.06 173.51 189.041 172.122 197.029 170.778C197.606 170.621 197.933 170.52 197.78 169.819C197.678 169.512 197.395 169.497 197.128 169.498C195.601 169.511 192.646 170.26 190.964 170.538C180.996 172.188 171.086 174.212 161.154 176.05C159.811 175.338 157.163 174.586 157.745 172.675C163.094 163.185 168.129 153.529 173.295 143.942C174.162 142.335 175.788 140.075 176.416 138.521C176.584 138.104 176.921 137.069 176.144 137.075C175.716 137.078 175.344 137.837 175.115 138.189C170.705 144.985 167.498 153.155 163.265 160.124L157.214 170.864C154.818 159.257 153.182 147.466 150.515 135.915C150.285 134.917 150.353 133.346 149.083 133.807L149.084 133.809Z" fill="#00151A"/>
<path d="M39.9252 172.031L35.398 169.084C26.4225 162.561 17.2436 156.284 8.73248 149.149C7.94177 148.63 7.51985 149.096 7.71867 149.964C17.8507 158.251 28.6504 165.734 39.3227 173.326C39.3607 174.162 38.957 174.233 38.2543 174.338C28.441 175.803 18.2665 176.326 8.39404 177.492C7.06456 177.65 3.38419 177.908 2.40225 178.295C1.89383 178.495 1.72538 179.151 2.08962 179.381C2.53886 179.665 11.2943 178.386 12.6435 178.246C21.2882 177.351 29.9435 176.609 38.5654 175.528C34.5436 185.83 29.5914 195.971 25.7972 206.349C25.5954 206.9 24.6559 208.877 25.1537 209.225C25.5164 209.478 26.0613 209.299 26.1781 208.867C30.5521 197.584 35.3176 186.455 40.0497 175.325L40.675 175.358C43.6193 188.038 46.946 200.639 49.567 213.4C51.0741 213.915 50.4609 212.151 50.3167 211.246C49.7097 207.43 48.661 203.386 47.7898 199.598C45.9291 191.5 43.6299 183.497 42.0591 175.332L66.7349 191.333L74.6906 196.196C75.4085 196.558 75.9093 196.027 75.5587 195.326C65.9002 189.246 56.0581 183.347 46.6576 176.848C45.8988 176.323 44.9412 175.737 44.2461 175.193C44.0882 175.068 43.8879 175.197 44.0017 174.749C52.7906 173.883 61.5339 172.585 70.3136 171.644C73.4598 171.307 76.6803 171.234 79.8127 170.846C80.9434 170.706 80.8402 169.506 79.6564 169.524C76.6347 169.571 72.8193 170.158 69.7308 170.48C60.7159 171.417 51.7267 172.714 42.7284 173.787C41.5658 173.893 41.0923 172.864 41.3716 171.839L55.7713 136.7C56.0414 136.102 55.3205 135.902 55.2583 135.338L40.7008 169.896C38.1951 157.94 35.1901 146.099 32.4112 134.206C32.4219 133.542 31.4035 133.299 31.2047 133.91L39.9207 172.03L39.9252 172.031Z" fill="#00151A"/>
<path d="M6.37103 143.626C6.56682 142.983 10.5871 139.922 11.4021 139.337C22.1472 131.626 35.3723 128.055 48.5062 130.93C50.4155 131.348 52.2458 131.98 54.1095 132.535L60.1225 113.784H43.422C43.0456 115.228 43.0942 118.74 41.1728 118.817C32.8059 117.327 23.9138 117.151 15.5833 115.698C14.134 115.445 13.4768 115.296 13.1459 113.669C12.8803 105.34 11.264 96.7212 10.9984 88.4438C10.9741 87.7138 10.8512 86.7121 11.4734 86.2068C12.4311 85.4267 13.7196 86.1992 13.8623 87.3253L15.9384 112.623L39.9966 115.738C43.0805 103.939 45.5984 91.9633 48.4774 80.1012C49.1755 78.3149 51.8739 79.23 51.1348 81.2075L44.2006 110.869H62.3565C63.1047 110.869 63.4675 112.015 63.4052 112.69C63.1867 115.094 61.2577 118.633 60.7372 121.116L60.8024 121.729L103.328 176.882L118.7 105.66C118.869 103.25 121.839 103.32 121.666 105.698L115.853 132.699L116.53 133.781L125.464 143.097C135.939 132.777 151.591 127.569 166.185 130.537C175.171 132.364 184.736 138.821 190.413 145.92C197.865 155.234 202.137 171.782 200.682 183.552C200.474 185.243 200.085 186.992 199.785 188.674C199.404 189.615 197.514 189.463 197.252 188.591C196.696 186.73 198.2 183.204 197.991 181.154H103.328C102.941 181.154 101.986 179.858 101.686 179.497C87.3162 162.303 74.5176 143.127 60.3092 125.729L59.5412 125.044L56.8246 133.769C76.4572 142.582 85.9488 165.66 82.8891 186.347C82.1607 187.662 80.2742 187.193 80.1482 185.725L80.5094 181.735H34.1976C34.1187 181.735 33.8591 181.424 33.9032 181.262L52.8468 135.727L52.9287 135.146C39.467 130.282 24.9201 133.302 13.454 141.386C11.6025 142.693 9.94061 144.227 8.12547 145.578C6.82027 145.918 5.99768 144.853 6.36951 143.623L6.37103 143.626ZM116.823 178.245H154.883L125.466 147.374C121.037 152.611 118.454 159.046 117.272 165.783C116.565 169.82 116.109 174.189 116.823 178.245Z" fill="#C91D39"/>
<path d="M159.963 149.944C153.907 150.911 153.534 161.764 160.887 160.967C167.478 160.251 167.799 148.695 159.963 149.944ZM160.233 158.135C157.172 158.257 157.824 152.921 160.943 152.655C163.972 152.397 163.561 158.005 160.233 158.135Z" fill="#EADADB"/>
<path d="M170.247 145.473C171.268 145.165 171.485 145.75 172.191 145.973C173.481 146.381 174.639 146.575 176.015 146.385C177.061 146.243 178.201 144.977 179.137 146.209C180.612 148.15 177.22 149.184 175.835 149.311C174.229 149.459 170.203 149.04 169.432 147.369C169.137 146.73 169.609 145.665 170.247 145.472V145.473Z" fill="#EADADB"/>
<path d="M158.014 145.473C158.777 145.302 164.352 145.302 165.117 145.473C166.61 145.807 166.851 148.07 165.146 148.333C164.127 148.49 158.928 148.521 157.976 148.34C156.603 148.079 156.425 145.83 158.013 145.473H158.014Z" fill="#EADADB"/>
<path d="M172.584 150.916C166.528 151.881 166.155 162.734 173.508 161.936C180.099 161.219 180.421 149.664 172.584 150.916ZM172.854 159.107C169.794 159.227 170.445 153.89 173.564 153.625C176.593 153.367 176.182 158.976 172.854 159.107Z" fill="#EADADB"/>
<path d="M107.566 102.557C110.379 104.264 115.22 105.594 120.283 106.041C127.242 106.654 134.616 105.598 137.703 101.558C139.318 99.444 138.626 97.1037 135.901 96.7501C134.101 96.5164 130.383 96.9641 128.38 97.09C126.339 97.2175 124.299 97.3754 122.258 97.5453C117.316 97.9521 112.374 98.4195 107.422 98.6578C104.399 99.4166 105.586 101.353 107.566 102.557Z" fill="#00151A"/>
<path d="M117.755 173.673C117.249 173.532 117.075 174.115 116.71 174.315C113.921 175.853 110.679 177.103 107.79 178.598C104.067 180.524 98.0127 183.414 94.7983 185.8C94.5995 185.947 94.2337 186.173 94.2823 186.475C94.3627 186.98 96.0125 189.568 96.4632 189.934C98.5166 191.599 102.271 188.785 104.235 187.665C108.447 185.264 114.223 182.109 118.069 179.362C120.987 177.278 119.904 175.874 117.756 173.673H117.755Z" fill="#00151A"/>
<path d="M86.9185 188.147L87.2782 188.384C100.877 180.175 114.476 171.964 128.081 163.752L128.087 163.295C123.387 157.235 117.603 149.607 112.458 144.071C111.959 143.534 111.315 142.573 110.467 143.056C106.355 145.882 102.277 148.803 98.4786 152.04C96.7181 153.541 94.4386 155.463 92.9346 157.175C92.4504 157.727 91.1179 159.158 91.2241 159.852C91.2772 160.199 91.7356 160.832 91.8722 161.353C92.2197 162.681 92.6143 164.397 92.1727 165.731C91.5049 167.748 88.4286 169.99 87.0141 171.641C82.3882 177.044 83.4567 182.447 86.92 188.147H86.9185Z" fill="#C1DB70"/>
<path d="M86.9184 188.147C87.4618 189.043 88.4513 190.768 89.6427 190.396L128.925 167.144C130.77 165.962 128.991 164.464 128.085 163.297L86.9184 188.149V188.147Z" fill="#86B200"/>
<path d="M56.5998 102.4C58.8095 92.654 71.5777 88.5927 79.8278 85.6287C88.0809 82.6647 97.5907 80.4155 105.505 77.1312C113.64 73.7559 120.225 64.0595 128.478 60.8815C130.594 60.0665 130.715 60.4747 132.169 62.038C142.42 73.0517 144.485 91.9392 128.932 99.1967C123.79 101.596 117.105 102.903 110.57 103.968C113.28 104.978 115.146 105.349 118.702 105.663C118.016 109.409 112.971 132.432 111.118 141.333L118.06 149.389C115.772 150.775 113.01 152.561 110.676 153.883C107.996 155.402 105.281 156.861 102.523 158.221C99.5697 159.676 95.6738 161.669 92.5975 162.663C91.9312 162.88 90.8886 163.373 90.2208 163.001C88.6379 160.629 87.0201 158.271 85.384 155.918C77.0535 143.935 68.2662 132.109 61.253 119.353C58.3694 114.108 55.1944 108.605 56.5998 102.4ZM91.2544 118.445C91.3803 117.978 91.5078 117.51 91.6353 117.045C92.5672 113.625 93.5385 110.215 94.531 106.811C90.8385 107.632 87.1597 108.521 83.4247 109.128L91.2544 118.445Z" fill="#86B200"/>
<path d="M35.8912 29.933C35.8714 33.5724 36.3647 37.6944 38.2587 40.8648C43.1988 49.1331 55.2142 44.5922 61.4215 40.3989C65.3856 40.8254 69.0326 42.3309 72.4641 44.2705C76.0261 41.8468 79.1297 36.8217 78.5879 32.3825C78.5545 32.1063 78.4422 31.5114 78.3117 31.3004C77.6894 30.2897 70.9373 29.2971 69.4834 29.3487C72.2501 22.5511 69.0781 13.0914 62.6903 9.44594C57.1872 6.30587 49.0206 6.26489 43.9515 10.3277C40.6111 13.0049 31.9042 22.847 31.4687 26.9781C31.1697 29.8101 33.6511 30.147 35.8896 29.933H35.8912Z" fill="#994000"/>
<path d="M72.7858 31.2943C79.6942 31.6221 81.5731 26.8991 75.3689 23.1763L72.3973 21.5873C75.8424 21.1077 82.033 19.0133 80.7566 14.4891C79.7018 10.7465 73.9605 9.78886 70.6489 9.54604C72.5748 7.92364 74.7557 5.96432 72.206 3.62255C66.7788 -1.36301 54.2777 1.64351 48.9203 5.7822C46.4875 7.66109 45.3645 8.25146 47.0718 11.2792C49.0994 14.8746 53.094 17.784 56.6514 19.7372C54.7877 22.8211 57.0323 26.978 58.7245 29.7235C60.8796 33.2218 64.7725 37.491 69.3376 36.8733C72.1954 36.4863 74.1016 34.105 72.7858 31.2958V31.2943Z" fill="#C1DB70"/>
<path d="M64.6769 20.4704C56.3616 19.2684 52.8315 28.5824 57.9293 34.0126C63.3869 39.8253 71.1073 29.7904 69.189 24.1143C68.6031 22.3842 66.489 20.7314 64.6784 20.4704H64.6769Z" fill="#994000"/>
<path d="M166.95 10.5448C154.329 28.983 146.232 32.6057 130.934 30.0029C109.621 26.3771 92.276 17.3197 79.0555 28.5489C77.7245 28.1164 76.4284 27.564 75.4116 27.1982C73.9516 26.6731 72.4339 28.6187 71.6401 29.7039C69.6687 32.4008 67.509 36.582 66.7153 39.4929C66.3344 40.8876 65.5952 42.3931 67.1554 43.2309C69.0707 44.2599 72.44 45.0263 74.633 45.8504C75.7363 46.2647 76.7759 46.8232 77.893 47.1951C79.6413 44.8503 72.1228 37.8356 74.2399 35.7639C88.3634 21.9531 116.328 44.8351 139.468 46.7944C151.649 47.8264 163.346 46.1873 176.37 35.7639C182.403 30.9362 189.867 20.6343 190.011 19.2259C190.193 17.4562 167.481 9.76316 166.947 10.5417L166.95 10.5448Z" fill="#86B200"/>
<path d="M58.3421 77.7884L64.988 75.6469C66.1475 74.882 64.4781 70.9133 63.9894 69.8722C63.3019 68.4076 60.6809 64.0352 59.148 63.6391C57.9779 63.3371 54.2353 65.5195 53.0971 66.2328C48.4651 69.1361 43.1897 74.7834 44.0047 80.7281C44.8713 87.0507 54.4751 88.406 57.9035 83.2702C59.1025 81.4718 58.7504 79.7553 58.3421 77.7884Z" fill="#994000"/>
<path d="M82.4521 51.8512C82.4323 52.1153 82.1774 52.1836 81.977 52.2474C73.3794 54.9503 61.0164 58.8917 53.7346 63.2642C51.619 64.5344 51.4885 65.5923 52.4552 67.9204C53.7225 70.9709 57.2845 74.4858 60.0375 76.26C61.4611 77.1782 63.17 78.1783 64.9578 77.6335C72.8968 75.2204 96.9185 68.7323 96.9185 68.7323C97.5301 68.7855 98.5242 71.663 98.767 72.3292C99.5426 74.4449 100.089 76.6212 100.52 78.8325C105.199 78.0084 109.731 76.4087 114.153 74.7105C123.268 71.2122 132.798 66.9476 139.334 59.4912L134.334 54.4723C140.966 46.3937 133.121 41.2078 126.05 38.4487C118.829 35.6303 110.487 33.2309 102.878 31.7163C95.2946 30.2062 75.7454 26.7595 73.5661 37.4303C72.1455 44.3843 77.2267 48.5442 82.4521 51.8512Z" fill="#C1DB70"/>
<path d="M53.3142 80.3515C51.5977 80.2559 50.7311 81.2211 52.2594 82.3761L61.5415 83.7966C62.9484 83.8012 63.3536 82.1864 61.9118 81.6567C60.47 81.127 55.0155 80.4456 53.3142 80.3515Z" fill="#01242A"/>
<path d="M41.5687 22.7409C41.1043 23.2114 41.127 25.4651 42.1651 25.1965C43.4749 24.858 42.8951 21.3992 41.5687 22.7409Z" fill="#00151A"/>
<path d="M47.5407 19.722C47.6515 19.722 47.7623 19.6871 47.8579 19.6173C48.0932 19.4428 48.1417 19.1089 47.9672 18.8736C47.2918 17.9676 46.4996 17.1541 45.6118 16.459C44.8666 15.8747 44.0546 15.3739 43.1972 14.9687C42.9316 14.8442 42.6159 14.9565 42.4899 15.2221C42.3639 15.4877 42.4778 15.8034 42.7434 15.9294C43.5295 16.3012 44.2732 16.761 44.9561 17.2953C45.7696 17.9327 46.4966 18.6779 47.1143 19.508C47.219 19.6477 47.3783 19.722 47.5407 19.722Z" fill="#00151A"/>
<path d="M37.9156 37.098C37.9278 37.098 37.9414 37.098 37.9536 37.098C39.6351 36.9781 41.256 36.5471 42.7737 35.8186C44.3217 35.0749 45.6922 34.0535 46.8502 32.7832C47.0475 32.5662 47.0323 32.2308 46.8153 32.0335C46.5982 31.8362 46.2628 31.8514 46.0655 32.0684C45.0001 33.237 43.7389 34.1765 42.3138 34.8609C40.9176 35.5317 39.4242 35.9279 37.8777 36.0386C37.5848 36.0599 37.3647 36.3133 37.3859 36.6063C37.4057 36.8855 37.6394 37.0995 37.9156 37.0995V37.098Z" fill="#00151A"/>
<path d="M97.4313 69.1725C97.4783 69.1725 97.5254 69.1664 97.5709 69.1543C100.034 68.4804 102.537 67.7687 105.009 67.0371C112.708 64.7606 116.947 63.507 121.86 61.4764C126.041 59.7477 130.178 57.6609 134.157 55.2706C134.409 55.1188 134.49 54.7925 134.34 54.5421C134.188 54.2902 133.863 54.2098 133.611 54.36C129.677 56.723 125.587 58.7871 121.455 60.496C116.593 62.5054 112.373 63.7529 104.712 66.0188C102.242 66.7488 99.7472 67.459 97.2916 68.1314C97.0078 68.2088 96.8424 68.5002 96.9198 68.784C96.9836 69.0207 97.1991 69.1755 97.4313 69.1755V69.1725Z" fill="#00151A"/>
<path d="M94.5295 107.342C94.5462 107.342 94.5629 107.342 94.5795 107.339C97.5269 107.064 100.165 106.689 103.062 106.261C105.566 105.892 108.09 105.461 110.532 105.044C111.866 104.816 113.244 104.581 114.582 104.361C114.872 104.314 115.068 104.041 115.021 103.751C114.974 103.461 114.701 103.265 114.411 103.312C113.068 103.532 111.688 103.768 110.353 103.997C107.917 104.413 105.399 104.844 102.907 105.211C100.025 105.636 97.4009 106.009 94.4809 106.281C94.1895 106.308 93.974 106.566 94.0013 106.859C94.0271 107.134 94.2578 107.342 94.5295 107.342Z" fill="#00151A"/>
<path d="M110.773 141.864C110.896 141.864 111.019 141.822 111.119 141.737C111.342 141.546 111.368 141.21 111.177 140.987L92.2651 118.932C92.0739 118.709 91.7385 118.683 91.5154 118.875C91.2923 119.066 91.2665 119.401 91.4577 119.624L110.369 141.679C110.474 141.802 110.623 141.864 110.773 141.864Z" fill="#00151A"/>
<path d="M93.4974 165.68C94.0984 165.68 94.7192 165.593 95.2245 165.451L95.5144 165.37C96.1974 165.18 96.7377 165.032 97.1748 164.796C97.4328 164.658 97.5299 164.335 97.3918 164.077C97.2522 163.819 96.9319 163.722 96.6724 163.86C96.34 164.038 95.8513 164.174 95.2306 164.346L94.9377 164.428C93.7251 164.768 92.4806 164.593 92.262 164.373C92.2985 164.204 92.5929 163.878 93.0057 163.553C95.1912 164.086 96.2338 163.646 96.809 163.405C97.1444 163.264 97.9882 162.661 97.7469 161.969C97.6528 161.7 97.4555 161.491 97.1748 161.365C96.2034 160.926 94.3868 161.606 93.8526 161.825C93.5946 161.93 93.2015 162.133 92.7963 162.4L92.7689 162.392C89.7837 161.561 89.2965 161.034 89.2161 160.881C89.4103 160.609 90.5091 160.037 92.1543 159.794C94.1394 159.501 95.8179 159.527 97.0442 159.547H97.1732C97.4646 159.55 97.7075 159.319 97.712 159.026C97.7166 158.733 97.4828 158.492 97.1884 158.487H97.0594C95.7982 158.466 94.0681 158.439 91.9964 158.745C90.7019 158.937 88.2311 159.612 88.1431 160.796C88.0763 161.705 89.1432 162.423 91.7916 163.22C91.3772 163.657 91.1071 164.147 91.2209 164.626C91.268 164.824 91.4015 165.106 91.7749 165.326C92.2029 165.578 92.8372 165.684 93.4959 165.684L93.4974 165.68ZM96.592 162.291C96.5222 162.35 96.4448 162.405 96.3962 162.426C96.0274 162.581 95.4841 162.81 94.4596 162.726C95.5099 162.323 96.2596 162.244 96.592 162.291Z" fill="#00151A"/>
<path d="M98.9079 48.0357C99.1432 48.0357 99.3572 47.8794 99.4209 47.6411C99.4968 47.3573 99.3283 47.0659 99.0445 46.9915L89.1842 44.3629C88.9004 44.287 88.609 44.4555 88.5346 44.7393C88.4587 45.0231 88.6272 45.3145 88.911 45.3889L98.7713 48.0175C98.8169 48.0296 98.8639 48.0357 98.9079 48.0357Z" fill="#00151A"/>
<path d="M82.9663 52.2823C83.0148 52.2823 83.0634 52.2762 83.112 52.2626C88.949 50.6053 94.9013 49.0497 100.802 47.6398C105.217 46.585 109.711 45.5863 114.156 44.6727C114.443 44.6135 114.628 44.3327 114.569 44.0459C114.51 43.7591 114.229 43.5739 113.942 43.6331C109.486 44.5498 104.982 45.5499 100.556 46.6077C94.6402 48.0207 88.6743 49.5793 82.8221 51.2412C82.5398 51.3216 82.3759 51.6145 82.4563 51.8968C82.5231 52.1305 82.7356 52.2823 82.9678 52.2823H82.9663Z" fill="#00151A"/>
</g>
<defs>
<clipPath id="clip0_7555_3040">
<rect width="201" height="215" fill="white" transform="matrix(-1 0 0 1 201 0.471191)"/>
</clipPath>
</defs>
</svg>
