<svg width="80" height="54" viewBox="0 0 80 54" fill="none" xmlns="http://www.w3.org/2000/svg">
<mask id="mask0_4940_3250" style="mask-type:luminance" maskUnits="userSpaceOnUse" x="0" y="0" width="80" height="54">
<path d="M79.0123 0H0V54H79.0123V0Z" fill="white"/>
</mask>
<g mask="url(#mask0_4940_3250)">
<path fill-rule="evenodd" clip-rule="evenodd" d="M33.4255 42.4955C33.7395 41.3388 34.9035 40.6606 36.0253 40.9806C37.1471 41.3006 37.8021 42.4977 37.4881 43.6544L49.6757 47.1311C51.9194 47.7712 54.2473 46.4147 54.8752 44.1013L61.697 18.9692C62.3249 16.6559 61.0151 14.2617 58.7714 13.6217L46.5557 10.1369C46.5433 10.2557 46.5213 10.3751 46.489 10.494C46.1751 11.6507 45.0111 12.3289 43.8893 12.0089C42.7674 11.6889 42.1125 10.4918 42.4265 9.33511C42.4588 9.21618 42.5 9.10232 42.5493 8.99407L12.7292 0.487442C10.4855 -0.152601 8.15764 1.20388 7.52971 3.51723L0.707954 28.6493C0.0800286 30.9627 1.38985 33.3568 3.63354 33.9969L33.4255 42.4955ZM37.8255 34.3485C36.7036 34.0285 35.5397 34.7067 35.2257 35.8634C34.9118 37.0201 35.5667 38.2172 36.6885 38.5372C37.8104 38.8572 38.9743 38.179 39.2883 37.0223C39.6022 35.8657 38.9473 34.6686 37.8255 34.3485ZM37.0259 29.2313C37.3399 28.0747 38.5038 27.3964 39.6257 27.7165C40.7475 28.0365 41.4024 29.2336 41.0885 30.3902C40.7745 31.5469 39.6105 32.2252 38.4887 31.9051C37.3669 31.5851 36.7119 30.388 37.0259 29.2313ZM41.4259 21.0844C40.304 20.7643 39.1401 21.4426 38.8261 22.5993C38.5121 23.7559 39.1671 24.953 40.2889 25.2731C41.4107 25.5931 42.5747 24.9148 42.8886 23.7582C43.2026 22.6015 42.5477 21.4044 41.4259 21.0844ZM40.6263 15.9672C40.9402 14.8105 42.1042 14.1323 43.226 14.4523C44.3479 14.7723 45.0028 15.9694 44.6888 17.1261C44.3749 18.2828 43.2109 18.961 42.0891 18.641C40.9672 18.321 40.3123 17.1239 40.6263 15.9672Z" fill="#A6D1D9"/>
<path d="M7.29867 26.0164L30.2457 32.5623C31.014 32.7815 31.8066 32.3341 32.0159 31.563C32.2252 30.7919 31.772 29.9891 31.0036 29.7699L8.05664 23.2239C7.28828 23.0047 6.49572 23.4521 6.28641 24.2233C6.0771 24.9944 6.5303 25.7972 7.29867 26.0164Z" fill="#75B8C4"/>
<path d="M9.19418 19.0353L32.1412 25.5812C32.9095 25.8004 33.7021 25.353 33.9114 24.5819C34.1207 23.8108 33.6675 23.008 32.8992 22.7888L9.95215 16.2428C9.18378 16.0236 8.39122 16.4711 8.18192 17.2422C7.97261 18.0133 8.42581 18.8161 9.19418 19.0353Z" fill="#75B8C4"/>
<path d="M11.0887 12.0542L34.0357 18.6001C34.8041 18.8193 35.5966 18.3719 35.8059 17.6008C36.0153 16.8297 35.562 16.0269 34.7937 15.8077L11.8467 9.26172C11.0783 9.04254 10.2858 9.48996 10.0765 10.2611C9.86711 11.0322 10.3204 11.835 11.0887 12.0542Z" fill="#75B8C4"/>
<path d="M3.90234 51.9998C3.90234 52.552 20.498 52.9998 40.9699 52.9998C61.4417 52.9998 78.0374 52.552 78.0374 51.9998C78.0374 51.4475 61.4417 50.9998 40.9699 50.9998C20.498 50.9998 3.90234 51.4475 3.90234 51.9998Z" fill="#37424A" fill-opacity="0.15"/>
<path d="M10.3525 46.7554L23.5301 48.2934V39.373H10.3525V46.7554Z" fill="#37424A"/>
<path d="M56.4736 48.601H69.6512V39.373H56.4736V48.601Z" fill="#37424A"/>
<path d="M22.0687 27.4599L23.266 27.826L19.1144 29.1555L18.7861 28.5523C18.7034 28.4002 18.6441 28.236 18.6102 28.0654L18.5217 27.6194C18.4676 27.3466 18.663 27.0884 18.9341 27.0742C19.9929 27.0189 21.0529 27.1493 22.0687 27.4599Z" fill="#007C92"/>
<path d="M77.5265 48.7319C77.8265 48.6549 78.0369 48.3785 78.0369 48.0615V47.831C78.0369 47.5767 77.8358 47.3705 77.5876 47.3705C77.5049 47.3705 77.4379 47.3017 77.4379 47.217V45.6784C77.4379 45.5936 77.5049 45.5249 77.5876 45.5249C77.8358 45.5249 78.0369 45.3187 78.0369 45.0643V41.4185C78.0369 40.1533 77.3762 38.9851 76.3052 38.3565C74.6774 37.4011 72.8969 36.7499 71.0468 36.4332L61.9047 34.8682C60.2978 34.5932 58.6529 34.6606 57.0726 35.0664L48.6692 30.7509C45.5065 29.1268 42.1122 28.0279 38.6132 27.4955C36.7461 27.2114 34.8612 27.0688 32.9737 27.0688H27.9629C25.8097 27.0688 23.6603 27.2515 21.5366 27.615L20.8399 27.7343C16.2803 28.5148 11.8922 30.1198 7.88029 32.4744L6.54189 33.2599C5.9348 33.6162 5.56027 34.2784 5.56027 34.9956V39.0705C5.56027 39.2677 5.50343 39.4604 5.39691 39.6245L4.68902 40.7151C4.47597 41.0433 4.3623 41.4288 4.3623 41.8231V42.1817C4.3623 44.5012 5.91833 46.5161 8.12053 47.0483L9.45364 47.3705L9.87428 47.4155C10.4499 47.4771 10.951 47.0142 10.951 46.4209C10.951 46.3287 10.951 46.2351 10.951 46.1401C10.951 42.7424 13.6327 39.988 16.9408 39.988C20.2489 39.988 22.9306 42.7424 22.9306 46.1401V47.9113C22.9306 48.4234 23.308 48.8527 23.8048 48.9059L23.8292 48.9085L56.0907 49.1223C56.6319 49.1258 57.0725 48.6771 57.0725 48.1223V46.1401C57.0725 42.7424 59.7542 39.988 63.0623 39.988C66.3703 39.988 69.0521 42.7424 69.0521 46.1401V48.2146C69.0521 48.7644 69.485 49.211 70.0213 49.2146L70.2501 49.2161H74.9756C75.4175 49.2161 75.8577 49.1604 76.2864 49.0503L77.5265 48.7319Z" fill="#429EAE"/>
<path fill-rule="evenodd" clip-rule="evenodd" d="M35.0038 34.7978L33.5089 28.3492L33.9168 28.2495L35.4168 34.7201L36.6179 44.2808V46.7671L51.9352 47.1019C53.1606 47.1286 54.168 46.1157 54.168 44.8569V36.9621C54.168 36.4739 53.8639 36.0404 53.4129 35.886L53.5455 35.4775C54.1677 35.6905 54.5873 36.2885 54.5873 36.9621V44.8569C54.5873 46.3571 53.3867 47.5643 51.9263 47.5324L27.4618 46.9978C26.6157 46.9793 25.831 46.5399 25.3576 45.8195L18.3757 35.1958C18.085 34.7535 17.9297 34.2321 17.9297 33.6985V31.3753H18.349V33.6985C18.349 34.1463 18.4793 34.5838 18.7232 34.9548L25.7051 45.5785C26.1024 46.183 26.7608 46.5517 27.4707 46.5672L36.1986 46.758V44.3084L35.0038 34.7978Z" fill="#007C92"/>
<path d="M32.5179 28.0995C33.7199 28.0269 34.926 28.0851 36.1161 28.2731L39.3683 28.787C41.2389 29.0826 43.0486 29.6956 44.7233 30.6009L53.6187 35.4095C53.7424 35.4763 53.8046 35.6221 53.7686 35.7608C53.7327 35.8995 53.6082 35.9942 53.4685 35.9891L36.6859 35.3735L21.5417 33.6452C20.814 33.5622 20.1123 33.3189 19.4844 32.932L18.322 32.2156C17.714 31.841 17.7483 30.9246 18.3824 30.5989L18.4141 30.5827C18.5535 30.5111 18.6977 30.4497 18.8456 30.3991L21.9301 29.3431C23.3519 28.8563 24.8299 28.564 26.326 28.4736L32.5179 28.0995Z" fill="#37424A"/>
<path d="M63.0627 51.677C60.0854 51.677 57.6719 49.1981 57.6719 46.1402C57.6719 43.0823 60.0854 40.6034 63.0627 40.6034C66.04 40.6034 68.4535 43.0823 68.4535 46.1402C68.4535 49.1981 66.04 51.677 63.0627 51.677Z" fill="black"/>
<path d="M16.9416 51.677C13.9643 51.677 11.5508 49.1981 11.5508 46.1402C11.5508 43.0823 13.9643 40.6034 16.9416 40.6034C19.9189 40.6034 22.3324 43.0823 22.3324 46.1402C22.3324 49.1981 19.9189 51.677 16.9416 51.677Z" fill="black"/>
<path d="M63.063 50.4466C60.7473 50.4466 58.8701 48.5186 58.8701 46.1402C58.8701 43.7619 60.7473 41.8338 63.063 41.8338C65.3787 41.8338 67.2559 43.7619 67.2559 46.1402C67.2559 48.5186 65.3787 50.4466 63.063 50.4466Z" fill="#429EAE"/>
<path d="M16.9408 50.4466C14.6252 50.4466 12.748 48.5186 12.748 46.1402C12.748 43.7619 14.6252 41.8338 16.9408 41.8338C19.2565 41.8338 21.1337 43.7619 21.1337 46.1402C21.1337 48.5186 19.2565 50.4466 16.9408 50.4466Z" fill="#429EAE"/>
<path d="M14.8441 37.5273C14.0171 37.5273 13.3467 36.8387 13.3467 35.9893C13.3467 35.1399 14.0171 34.4513 14.8441 34.4513C15.6712 34.4513 16.3416 35.1399 16.3416 35.9893C16.3416 36.8387 15.6712 37.5273 14.8441 37.5273Z" fill="#007C92"/>
<path d="M6.52231 33.2718C6.3135 33.3977 6.13286 33.5601 5.98633 33.7485L10.6071 32.7993C11.2335 32.6707 11.8405 32.4568 12.4119 32.1633L15.7644 30.4417C16.0027 30.3193 16.0027 29.97 15.7644 29.8476C15.7507 29.8406 15.7365 29.8345 15.722 29.8296L14.4692 29.4007C12.2218 30.2006 10.0461 31.2111 7.97046 32.4218L6.52231 33.2718Z" fill="#37424A"/>
<path d="M8.76133 36.8061L11.8215 35.2346C12.3851 34.9452 12.3265 34.1019 11.7287 33.8972C11.6116 33.8571 11.4863 33.8491 11.3653 33.8739L8.5551 34.4512L6.89764 34.8768C6.4636 34.9882 6.15918 35.3881 6.15918 35.8468V35.912C6.15918 36.4643 6.59591 36.912 7.13464 36.912H8.32444C8.47612 36.912 8.62572 36.8758 8.76133 36.8061Z" fill="#C76B89"/>
<path d="M69.7491 38.7976L75.1111 41.0005C75.4202 41.1275 75.7738 41.0148 75.9583 40.7306L76.0973 40.5164C76.4338 39.998 76.3277 39.3219 75.894 38.9315C75.7426 38.7953 75.5395 38.7402 75.3387 38.7058L70.023 37.7958C69.5335 37.712 69.2271 38.3214 69.5777 38.6816C69.6266 38.7318 69.6849 38.7712 69.7491 38.7976Z" fill="#E3E5E6"/>
<path d="M76.2403 45.3629V45.1236C76.2403 44.6657 75.8782 44.2945 75.4315 44.2945C75.1855 44.2945 74.9529 44.4092 74.7995 44.6062L73.9113 45.7465C73.4012 46.4014 73.8561 47.3705 74.6736 47.3705H74.9378C75.3579 47.3705 75.7308 47.0948 75.8634 46.6862L76.1904 45.6786C76.2234 45.5768 76.2403 45.4702 76.2403 45.3629Z" fill="#006678"/>
<path d="M57.073 35.0662L48.6692 30.7509C47.7982 30.3036 46.9097 29.8962 46.0062 29.5294H45.6924C45.394 29.5294 45.299 29.9426 45.5659 30.0797L55.2761 35.0662H57.073Z" fill="#37424A"/>
<path d="M78.0372 44.2944V41.1579C78.0372 40.859 77.9342 40.5663 77.8541 40.2875L77.3534 40.4523C77.0605 40.5383 76.8771 40.8363 76.9272 41.145L77.3548 43.7803C77.4029 44.077 77.6528 44.2944 77.9456 44.2944H78.0372Z" fill="#006678"/>
<path d="M4.44284 43.0641L4.3623 44.2234C4.3623 45.6509 4.94838 46.3711 6.30122 46.6981L8.99264 47.2591C8.9692 47.1779 8.92923 47.101 8.87319 47.0338L5.73955 43.2789C5.62576 43.1425 5.45963 43.0641 5.28477 43.0641H4.44284Z" fill="#006678"/>
<path d="M31.9492 28.1338L32.5175 28.0995C33.2749 28.0537 34.034 28.0599 34.7896 28.1178L37.7952 35.4142L36.6854 35.3735L32.4553 34.8907L31.9492 28.1338Z" fill="black"/>
<path d="M21.8171 29.3818L22.2876 33.7303L21.5417 33.6452C20.814 33.5622 20.1123 33.3189 19.4844 32.932L18.322 32.2156C17.714 31.841 17.7483 30.9246 18.3824 30.5989L18.4141 30.5827C18.5535 30.5111 18.6977 30.4498 18.8456 30.3991L21.8171 29.3818Z" fill="black"/>
</g>
</svg>
