<svg width="200" height="107" viewBox="0 0 200 107" fill="none" xmlns="http://www.w3.org/2000/svg">
<g clip-path="url(#clip0_7601_3347)">
<path d="M199.746 66.6462H199.751C199.665 70.0942 199.459 73.0922 199.339 74.1656C199.253 74.9084 199.177 75.9222 199.079 77.0552C198.77 80.7851 198.299 85.8161 197.068 86.7649C193.175 89.8117 179.486 88.928 173.913 88.9551H173.843C157.899 89.0527 142.052 89.8279 126.032 89.5298C99.0389 89.0147 72.1544 90.0123 45.1615 89.5298C35.1591 89.3454 25.2542 88.9334 15.241 89.2424C12.9044 89.3129 8.43177 89.1015 5.9759 88.8521C1.67676 88.4292 0.478643 82.482 0.202154 77.0986C0.0178277 73.5205 0.240103 70.1809 0.218418 68.8744C0.207575 68.2184 0.180468 67.4486 0.14794 66.6191C-0.0201218 62.3308 -0.264083 56.2318 1.24848 52.9248C1.30811 52.7784 1.37317 52.6483 1.44364 52.5182C4.84283 46.2565 12.1671 46.701 18.2661 46.6523C21.3454 46.6306 25.4223 46.636 28.2089 46.5384V46.5276C29.9925 43.8115 32.1448 41.2417 34.1941 38.71C39.3172 32.3833 44.6193 25.3951 50.1274 19.4804C50.1437 19.4642 50.16 19.4479 50.1708 19.4316C55.0175 14.2651 58.2486 11.9881 65.6542 11.5056C93.4928 12.3242 148.498 11.8417 159.319 11.7984H161.178C163.396 11.9664 165.049 12.1779 166.378 12.5194C169.717 13.3651 171.045 15.0512 174.222 19.0576C174.336 19.1931 174.445 19.3449 174.564 19.4858C176.629 22.0989 178.565 24.6632 180.424 27.233C180.782 27.7209 181.14 28.2034 181.487 28.6967C182.799 30.5291 184.089 32.3561 185.374 34.2048C187.77 37.6311 190.166 41.1008 192.742 44.7114C193.127 45.2536 193.587 45.8499 194.086 46.4842C195.788 48.6527 197.881 51.2008 198.765 53.3802C198.808 53.4777 198.846 53.5808 198.879 53.6892C199.762 56.2697 199.865 61.8917 199.746 66.6462Z" fill="#008099"/>
<path d="M199.757 66.6407C195.376 66.1419 192.986 63.9463 192.796 59.7935C192.611 55.7221 195.17 54.5023 198.884 53.6782C199.773 56.2588 199.876 61.8807 199.757 66.6353V66.6407Z" fill="#C1DB70"/>
<path d="M0.142516 66.6191C-0.0255463 62.3363 -0.269507 56.2373 1.24305 52.9248C3.87241 53.494 6.4855 53.9603 7.03848 56.4324C7.74326 59.528 5.03258 65.6216 0.142516 66.6191Z" fill="#C1DB70"/>
<path d="M188.892 29.304V29.3148H188.887L188.892 29.304Z" fill="#B24A00"/>
<path d="M188.892 29.3309V29.3147C188.892 29.3147 188.898 29.3255 188.903 29.3309H188.892Z" fill="#B24A00"/>
<path d="M194.092 46.4787C190.047 46.5763 183.471 46.4625 181.254 46.2673C178.988 46.0667 177.556 45.389 176.32 43.6379C175.122 41.9356 173.707 38.428 172.748 36.7637C171.3 34.2319 166.524 24.3054 166.887 21.8604C167.267 19.3015 171.219 19.025 174.228 19.0575C174.336 19.193 174.45 19.3448 174.569 19.4858C181.259 27.9214 186.475 35.9288 192.747 44.7059C193.137 45.2535 193.593 45.8444 194.092 46.4787Z" fill="#99D9E5"/>
<path d="M160.382 24.4192C162.198 27.8889 165.819 36.9805 167.256 40.6074C168.725 44.3048 167.234 45.8715 164.599 45.9691C160.907 46.1047 154.906 46.5058 151.062 46.5492C144.931 46.6197 138.631 46.5492 132.424 46.5384C125.967 46.5275 117.715 47.1564 111.497 46.5384C105.046 45.8932 106.434 43.4916 106.238 35.2836C105.935 22.7115 105.241 19.4316 112.912 19.4804C126.086 19.5725 140.409 19.6105 153.366 19.4804C158.744 19.4262 159.053 21.8766 160.382 24.4246V24.4192Z" fill="#99D9E5"/>
<path d="M86.3963 46.6468C76.1228 46.9667 65.703 46.5981 55.397 46.5384C54.1826 46.3216 53.4128 46.0125 52.9845 44.8253C52.0466 42.2501 54.6272 36.9101 55.7006 34.3024C57.0885 30.9086 59.5552 24.75 61.4743 21.855C62.6182 20.131 64.1958 19.4913 66.218 19.4804C75.3747 19.4262 84.7645 19.0576 94.4199 19.4913C97.2499 19.616 98.2203 21.2207 98.513 23.9422C98.9901 28.3823 99.1365 35.6903 98.8492 40.1521C98.7407 41.811 98.4642 44.4349 96.9896 45.4108C94.8536 46.8149 89.1287 46.5764 86.4126 46.6577H86.4017V46.6468H86.3963Z" fill="#99D9E5"/>
<path d="M53.7164 22.3375C53.3857 24.2783 49.6937 30.4695 48.5281 32.6868C47.2921 35.0614 42.9712 43.8765 41.4478 45.2535C40.5208 46.0938 38.8402 46.4191 37.5661 46.5275C34.6386 46.7824 31.3262 46.5492 28.2035 46.5275C29.9871 43.8115 32.1394 41.2472 34.1886 38.71C39.3118 32.3832 44.6139 25.3951 50.122 19.4804C50.1383 19.4641 50.1545 19.4479 50.16 19.4316C52.09 19.2636 54.0471 20.3261 53.7055 22.332H53.7164V22.3375Z" fill="#99D9E5"/>
<path d="M102.433 70.0726C102.048 70.0726 101.739 69.7636 101.739 69.3786V20.3045C101.739 19.9196 102.048 19.6106 102.433 19.6106C102.818 19.6106 103.127 19.9196 103.127 20.3045V69.3786C103.127 69.7636 102.818 70.0726 102.433 70.0726Z" fill="#00151A"/>
<path d="M97.548 52.54H91.2592C90.8743 52.54 90.5653 52.2309 90.5653 51.846C90.5653 51.4611 90.8743 51.1521 91.2592 51.1521H97.548C97.9329 51.1521 98.2419 51.4611 98.2419 51.846C98.2419 52.2309 97.9329 52.54 97.548 52.54Z" fill="#00151A"/>
<path d="M113.227 52.4152H106.938C106.553 52.4152 106.244 52.1062 106.244 51.7213C106.244 51.3364 106.553 51.0273 106.938 51.0273H113.227C113.611 51.0273 113.921 51.3364 113.921 51.7213C113.921 52.1062 113.611 52.4152 113.227 52.4152Z" fill="#00151A"/>
<path d="M157.047 61.5176C170.2 62.6886 174.97 69.4274 178.093 77.2179C182.425 88.0172 174.461 101.202 163.905 104.682C138.772 112.972 121.521 77.2938 145.836 64.4885C148.59 63.041 152.933 61.149 157.042 61.5122H157.047V61.5176Z" fill="#00151A"/>
<path d="M41.7623 61.5176C53.2067 60.6556 65.7409 71.8886 64.5536 83.6801C62.8568 100.595 44.2236 111.589 29.5208 101.077C12.7851 89.1123 22.5544 62.9542 41.7623 61.5176Z" fill="#00151A"/>
<path fill-rule="evenodd" clip-rule="evenodd" d="M64.9843 46.6529C72.1343 46.7602 79.3002 46.8678 86.3963 46.6468H86.4017V46.6577H86.4126C86.8767 46.6438 87.4288 46.6392 88.0358 46.6342C90.1863 46.6165 93.0266 46.593 95.0921 46.1283C90.1984 41.0155 84.7285 35.6229 80.5408 32.0768C75.4328 27.7494 69.8471 26.3838 66.0352 28.5377L66.0738 28.2415C66.0738 28.2415 65.9637 28.4064 65.7643 28.6985C64.1631 29.6968 62.8995 31.3476 62.1523 33.6951C59.5382 37.1052 56.2918 40.854 54.6534 40.854H53.2006C52.7898 42.3819 52.6169 43.8159 52.9845 44.8253C53.4128 46.0125 54.1826 46.3216 55.397 46.5384C58.5844 46.5569 61.7827 46.6049 64.9843 46.6529Z" fill="#86B200"/>
<path d="M67.8824 2.07303C59.7541 1.34914 58.1759 6.11651 55.4869 6.33846C50.3342 6.76391 46.1698 9.32541 45.4856 12.5488C45.0166 14.758 47.1159 16.7515 50.0385 17.6001C47.9809 21.1769 47.1331 25.9398 50.3403 29.0146C53.1394 31.6981 57.2403 31.4225 60.7401 31.4225C61.0017 31.4225 62.0998 36.1851 65.4971 36.3614C68.1261 36.4978 69.5308 32.0485 70.9512 30.1413C74.2457 25.718 77.5896 22.741 78.0858 16.7515C78.6149 10.3388 74.7584 2.87962 67.8824 2.07773V2.07303Z" fill="#994000"/>
<path d="M55.2638 28.5633L55.7835 28.2199C56.1504 24.9513 60.3338 24.0177 62.9417 25.264L63.4732 24.9701C64.014 23.2699 63.9505 21.8942 62.4526 20.7302C60.1669 18.9548 58.8923 20.3304 56.6466 20.582C55.2897 20.7349 53.3755 20.3516 52.1692 20.7231C50.4619 21.2499 50.0998 23.1876 50.5066 24.7208C51.0216 26.6632 53.4226 28.1988 55.2615 28.5609L55.2638 28.5633Z" fill="#00151A"/>
<path d="M55.2638 28.5634C58.3138 29.163 62.3679 28.4458 63.4755 24.9725C60.4937 23.1901 55.1839 24.6269 55.2638 28.5634Z" fill="#C2570A"/>
<path d="M60.4044 16.5869C60.4467 16.5869 60.4914 16.5822 60.5337 16.5681C60.783 16.4975 60.9288 16.2365 60.8582 15.9872C60.7547 15.6274 60.1433 13.7932 58.1586 13.0407C56.0704 12.2482 54.2926 13.3793 54.0951 13.511C53.8788 13.6568 53.8223 13.9484 53.9658 14.1648C54.1116 14.3811 54.4032 14.4375 54.6195 14.2941C54.7747 14.1906 56.1786 13.297 57.8223 13.9225C59.4214 14.5292 59.9011 16.0742 59.9505 16.2482C60.0093 16.4552 60.1974 16.5892 60.402 16.5892L60.4044 16.5869Z" fill="#00151A"/>
<path d="M62.4902 13.8943C62.5255 13.8943 62.5608 13.8896 62.596 13.8826C62.85 13.8238 63.0075 13.5721 62.9488 13.3182C62.8006 12.6739 62.3867 11.4346 61.2744 10.3928C60.355 9.52981 59.3485 9.15591 58.6665 8.99365C58.4126 8.93251 58.161 9.09007 58.0998 9.34169C58.0387 9.59565 58.1962 9.84727 58.4479 9.90841C59.0193 10.0448 59.8611 10.3576 60.6301 11.0771C61.5613 11.9496 61.907 12.9866 62.0316 13.5251C62.081 13.7438 62.2762 13.892 62.4902 13.892V13.8943Z" fill="#00151A"/>
<path d="M84.2933 35.7521C82.1182 34.9073 79.2987 33.1705 76.5431 32.2091C71.4888 30.4465 71.1005 30.808 70.4556 29.6459C69.2326 27.4384 73.4473 23.7343 72.3164 21.4484C71.2927 19.3752 69.0479 21.0272 67.662 19.6606C66.4821 18.4968 67.0765 15.7081 68.3964 13.9325C65.8795 12.2299 61.1979 6.73714 61.3739 3.48149C61.5019 1.12753 63.8098 -0.121113 69.4773 1.06052C71.0891 1.39732 76.1407 3.74043 78.6295 5.53378C82.3351 8.20562 89.2068 13.9813 100.37 10.8287C107.804 8.72953 108.004 7.71462 115.93 4.42664C118.216 3.47953 124.729 1.92243 126.234 5.28551C128.454 10.2447 117.311 20.5948 117.311 20.5948C118.137 20.2734 122.892 19.3929 124.121 21.7543C127.601 28.4366 115.651 36.7905 109.961 37.8438C100.442 39.605 95.3351 40.0403 84.2886 35.7522L84.2933 35.7521Z" fill="#00151A"/>
<path d="M73.0253 16.6832C64.91 15.2958 62.5255 29.344 70.328 30.4046C78.8054 31.5569 81.8554 18.1929 73.0253 16.6832Z" fill="#994000"/>
<path d="M85.1035 45.7869C85.4501 42.0511 81.0105 40.575 77.9592 41.378C74.9151 42.1787 72.605 45.8753 72.6664 48.9024C72.6846 49.8447 73.2587 51.5625 74.2247 51.9026C74.7385 52.0821 75.3737 51.5879 75.364 51.7975C75.3423 52.271 75.8909 53.3481 76.7907 53.5797C78.9171 54.1257 79.6246 52.065 79.6246 52.065C79.6246 52.065 80.1734 52.9253 81.0023 52.9566C82.2197 53.0024 82.919 52.2374 83.3817 51.2248C83.6427 50.655 85.0509 46.3193 85.1011 45.7869L85.1035 45.7869Z" fill="#994000"/>
<path d="M79.1332 50.9242C79.1329 51.3765 79.1538 51.8311 79.196 52.2835C79.2195 52.5426 79.4514 52.7336 79.712 52.7103C79.9725 52.6869 80.1646 52.4586 80.1411 52.1971C80.0402 51.111 80.0696 50.0133 80.2292 48.9392C80.3387 48.1925 80.5146 47.4506 80.7473 46.7323C80.8281 46.4851 80.6909 46.2187 80.4423 46.1384C80.1937 46.0581 79.9259 46.1945 79.8452 46.4418C79.5959 47.2096 79.4081 48.0033 79.2914 48.8018C79.1865 49.5037 79.1338 50.2127 79.1332 50.9242Z" fill="#00151A"/>
<path d="M74.5526 51.1771C74.5523 51.4598 74.5639 51.7449 74.5897 52.0276C74.6132 52.2867 74.8428 52.4777 75.1033 52.4567C75.3639 52.4334 75.5559 52.2121 75.5348 51.9459C75.4527 51.0153 75.5222 50.0825 75.7361 49.1758C75.9287 48.3632 76.2348 47.5814 76.6499 46.8514C76.778 46.6254 76.6977 46.3379 76.4705 46.2105C76.2432 46.0831 75.9542 46.163 75.8261 46.389C75.3683 47.1967 75.0265 48.0609 74.815 48.9606C74.6438 49.6884 74.5579 50.4304 74.5573 51.1748L74.5526 51.1771Z" fill="#00151A"/>
</g>
<defs>
<clipPath id="clip0_7601_3347">
<rect width="200" height="106" fill="white" transform="translate(0 0.471191)"/>
</clipPath>
</defs>
</svg>
