<svg width="80" height="54" viewBox="0 0 80 54" fill="none" xmlns="http://www.w3.org/2000/svg">
<g clip-path="url(#clip0_4940_3048)">
<mask id="mask0_4940_3048" style="mask-type:luminance" maskUnits="userSpaceOnUse" x="0" y="0" width="80" height="54">
<path d="M80 0H0V54H80V0Z" fill="white"/>
</mask>
<g mask="url(#mask0_4940_3048)">
<mask id="mask1_4940_3048" style="mask-type:luminance" maskUnits="userSpaceOnUse" x="0" y="0" width="80" height="54">
<path d="M80 0H0V54H80V0Z" fill="white"/>
</mask>
<g mask="url(#mask1_4940_3048)">
<path fill-rule="evenodd" clip-rule="evenodd" d="M34.2692 42.4938C34.591 41.3371 35.7843 40.6589 36.9343 40.9789C38.0844 41.299 38.7558 42.4961 38.4339 43.6527L50.9281 47.1295C53.2283 47.7695 55.6147 46.4131 56.2584 44.0997L63.2519 18.9676C63.8956 16.6543 62.5529 14.2601 60.2527 13.62L47.7297 10.1353C47.7171 10.2541 47.6945 10.3734 47.6614 10.4924C47.3395 11.649 46.1463 12.3273 44.9962 12.0072C43.8461 11.6872 43.1748 10.4901 43.4966 9.33345C43.5297 9.21452 43.572 9.10065 43.6225 8.9924L13.0523 0.485683C10.7522 -0.154367 8.36569 1.20211 7.72196 3.51545L0.728513 28.6475C0.0847839 30.9609 1.42755 33.3551 3.72768 33.9951L34.2692 42.4938ZM38.7798 34.3469C37.6297 34.0268 36.4365 34.7051 36.1147 35.8617C35.7928 37.0184 36.4642 38.2155 37.6142 38.5355C38.7643 38.8556 39.9575 38.1773 40.2794 37.0207C40.6013 35.864 39.9299 34.6669 38.7798 34.3469ZM37.9601 29.2297C38.282 28.073 39.4752 27.3948 40.6253 27.7148C41.7754 28.0348 42.4468 29.2319 42.1249 30.3886C41.803 31.5453 40.6098 32.2235 39.4597 31.9035C38.3097 31.5834 37.6383 30.3863 37.9601 29.2297ZM42.4708 21.0827C41.3207 20.7627 40.1275 21.4409 39.8056 22.5976C39.4838 23.7543 40.1552 24.9514 41.3052 25.2714C42.4553 25.5914 43.6485 24.9132 43.9704 23.7565C44.2922 22.5998 43.6209 21.4027 42.4708 21.0827ZM41.6511 15.9655C41.973 14.8089 43.1662 14.1306 44.3163 14.4506C45.4664 14.7707 46.1377 15.9678 45.8159 17.1244C45.494 18.2811 44.3008 18.9593 43.1507 18.6393C42.0007 18.3193 41.3293 17.1222 41.6511 15.9655Z" fill="#A6D1D9"/>
<path d="M7.45468 26.0064L31.0389 32.5691C31.81 32.7837 32.6091 32.3325 32.8237 31.5614C33.0382 30.7903 32.5871 29.9912 31.816 29.7766L8.23173 23.214C7.46061 22.9994 6.66155 23.4505 6.44697 24.2217C6.2324 24.9928 6.68357 25.7918 7.45468 26.0064Z" fill="#75B8C4"/>
<path d="M9.39706 19.0252L32.9814 25.5879C33.7525 25.8025 34.5516 25.3513 34.7661 24.5802C34.9807 23.8091 34.5296 23.01 33.7584 22.7954L10.1742 16.2328C9.40299 16.0182 8.60393 16.4693 8.38935 17.2405C8.17478 18.0116 8.62595 18.8106 9.39706 19.0252Z" fill="#75B8C4"/>
<path d="M11.3394 12.0441L34.9237 18.6068C35.6948 18.8214 36.4939 18.3702 36.7084 17.5991C36.923 16.828 36.4718 16.0289 35.7007 15.8143L12.1164 9.25166C11.3453 9.03708 10.5463 9.48825 10.3317 10.2594C10.1171 11.0305 10.5683 11.8295 11.3394 12.0441Z" fill="#75B8C4"/>
<path d="M39.5536 53.2567C57.1263 53.2567 71.3717 52.8665 71.3717 52.3851C71.3717 51.9037 57.1263 51.5135 39.5536 51.5135C21.9808 51.5135 7.73535 51.9037 7.73535 52.3851C7.73535 52.8665 21.9808 53.2567 39.5536 53.2567Z" fill="#37424A" fill-opacity="0.15"/>
<path d="M52.3498 21.6926L49.4753 26.6934C49.2362 27.1094 49.3789 27.6417 49.7939 27.8824C50.209 28.1231 50.7392 27.981 50.9783 27.565L53.8528 22.5642C54.0919 22.1482 53.9493 21.6159 53.5342 21.3752C53.1192 21.1345 52.5889 21.2766 52.3498 21.6926Z" fill="#006678"/>
<path fill-rule="evenodd" clip-rule="evenodd" d="M59.2236 50.0608C64.4954 50.0608 68.769 45.7682 68.769 40.473C68.769 35.1778 64.4954 30.8851 59.2236 30.8851C53.9518 30.8851 49.6781 35.1778 49.6781 40.473C49.6781 45.7682 53.9518 50.0608 59.2236 50.0608ZM59.2236 52.0946C65.6136 52.0946 70.7938 46.8914 70.7938 40.473C70.7938 34.0545 65.6136 28.8513 59.2236 28.8513C52.8335 28.8513 47.6533 34.0545 47.6533 40.473C47.6533 46.8914 52.8335 52.0946 59.2236 52.0946Z" fill="#002329"/>
<path d="M28.7023 22.0657L27.7614 23.7025C27.5224 24.1185 27.665 24.6508 28.08 24.8915C28.4951 25.1322 29.0254 24.9901 29.2645 24.5741L30.2053 22.9373C30.4444 22.5213 30.3018 21.989 29.8867 21.7483C29.4717 21.5076 28.9414 21.6497 28.7023 22.0657Z" fill="#006678"/>
<path fill-rule="evenodd" clip-rule="evenodd" d="M19.3056 50.0608C24.5774 50.0608 28.8511 45.7682 28.8511 40.473C28.8511 35.1778 24.5774 30.8851 19.3056 30.8851C14.0338 30.8851 9.76015 35.1778 9.76015 40.473C9.76015 45.7682 14.0338 50.0608 19.3056 50.0608ZM19.3056 52.0946C25.6957 52.0946 30.8759 46.8914 30.8759 40.473C30.8759 34.0545 25.6957 28.8513 19.3056 28.8513C12.9155 28.8513 7.73535 34.0545 7.73535 40.473C7.73535 46.8914 12.9155 52.0946 19.3056 52.0946Z" fill="#002329"/>
<path fill-rule="evenodd" clip-rule="evenodd" d="M59.2227 29.2872C53.0722 29.2872 48.0863 34.2952 48.0863 40.473H46.0615C46.0615 33.172 51.954 27.2534 59.2227 27.2534C66.4914 27.2534 72.3838 33.172 72.3838 40.473C72.3838 40.8022 72.0617 41.0351 71.7491 40.9319L71.0456 40.6996C70.6358 40.5644 70.3635 40.1805 70.3362 39.7499C69.9651 33.9091 65.1313 29.2872 59.2227 29.2872Z" fill="#006678"/>
<path fill-rule="evenodd" clip-rule="evenodd" d="M30.5878 40.6808C30.1591 40.5578 29.8683 40.1645 29.8388 39.7194C29.4696 34.1438 25.0329 29.6859 19.4826 29.3125C19.0367 29.2825 18.643 28.9906 18.5207 28.5608L18.307 27.8099C18.2277 27.5309 18.4372 27.2534 18.7273 27.2534C25.996 27.2534 31.8885 33.172 31.8885 40.473C31.8885 40.764 31.6097 40.9741 31.3299 40.8938L30.5878 40.6808Z" fill="#006678"/>
<path d="M59.2236 43.3784C60.8211 43.3784 62.1162 42.0776 62.1162 40.473C62.1162 38.8684 60.8211 37.5676 59.2236 37.5676C57.6261 37.5676 56.3311 38.8684 56.3311 40.473C56.3311 42.0776 57.6261 43.3784 59.2236 43.3784Z" fill="#002329"/>
<mask id="mask2_4940_3048" style="mask-type:luminance" maskUnits="userSpaceOnUse" x="56" y="37" width="7" height="7">
<path d="M59.2236 43.3784C60.8211 43.3784 62.1162 42.0776 62.1162 40.473C62.1162 38.8684 60.8211 37.5676 59.2236 37.5676C57.6261 37.5676 56.3311 38.8684 56.3311 40.473C56.3311 42.0776 57.6261 43.3784 59.2236 43.3784Z" fill="white"/>
</mask>
<g mask="url(#mask2_4940_3048)">
<path d="M58.6162 40.473C58.6162 40.1592 58.8735 39.8784 59.2236 39.8784V46.8784C62.7687 46.8784 65.6162 43.9959 65.6162 40.473H58.6162ZM59.2236 39.8784C59.5737 39.8784 59.8311 40.1592 59.8311 40.473H52.8311C52.8311 43.9959 55.6785 46.8784 59.2236 46.8784V39.8784ZM59.8311 40.473C59.8311 40.7867 59.5737 41.0676 59.2236 41.0676V34.0676C55.6785 34.0676 52.8311 36.95 52.8311 40.473H59.8311ZM59.2236 41.0676C58.8735 41.0676 58.6162 40.7867 58.6162 40.473H65.6162C65.6162 36.95 62.7687 34.0676 59.2236 34.0676V41.0676Z" fill="#002329"/>
</g>
<path d="M19.3056 43.3784C20.9032 43.3784 22.1982 42.0776 22.1982 40.473C22.1982 38.8684 20.9032 37.5676 19.3056 37.5676C17.7081 37.5676 16.4131 38.8684 16.4131 40.473C16.4131 42.0776 17.7081 43.3784 19.3056 43.3784Z" fill="#002329"/>
<mask id="mask3_4940_3048" style="mask-type:luminance" maskUnits="userSpaceOnUse" x="16" y="37" width="7" height="7">
<path d="M19.3056 43.3784C20.9032 43.3784 22.1982 42.0776 22.1982 40.473C22.1982 38.8684 20.9032 37.5676 19.3056 37.5676C17.7081 37.5676 16.4131 38.8684 16.4131 40.473C16.4131 42.0776 17.7081 43.3784 19.3056 43.3784Z" fill="white"/>
</mask>
<g mask="url(#mask3_4940_3048)">
<path d="M18.6982 40.473C18.6982 40.1592 18.9556 39.8784 19.3056 39.8784V46.8784C22.8508 46.8784 25.6982 43.9959 25.6982 40.473H18.6982ZM19.3056 39.8784C19.6557 39.8784 19.9131 40.1592 19.9131 40.473H12.9131C12.9131 43.9959 15.7605 46.8784 19.3056 46.8784V39.8784ZM19.9131 40.473C19.9131 40.7867 19.6557 41.0676 19.3056 41.0676V34.0676C15.7605 34.0676 12.9131 36.95 12.9131 40.473H19.9131ZM19.3056 41.0676C18.9556 41.0676 18.6982 40.7867 18.6982 40.473H25.6982C25.6982 36.95 22.8508 34.0676 19.3056 34.0676V41.0676Z" fill="#002329"/>
</g>
<path d="M44.4885 41.5149L35.8339 26.458C35.5587 25.9792 34.9482 25.8156 34.4705 26.0927L32.6936 27.1231C32.2158 27.4002 32.0516 28.0129 32.3268 28.4918L40.9815 43.5486C41.2567 44.0275 41.8671 44.191 42.3449 43.914L44.1218 42.8835C44.5996 42.6064 44.7638 41.9937 44.4885 41.5149Z" fill="#007C92"/>
<path d="M34.844 25.692L28.7627 24.0553C28.2294 23.9118 27.6817 24.228 27.5393 24.7616L27.0067 26.7582C26.8644 27.2918 27.1813 27.8407 27.7146 27.9843L33.7959 29.621C34.3292 29.7645 34.877 29.4483 35.0193 28.9147L35.5519 26.9181C35.6943 26.3845 35.3774 25.8356 34.844 25.692Z" fill="#007C92"/>
<path d="M49.3887 21.6215C49.3887 21.1215 49.794 20.7162 50.2939 20.7162H55.792C56.4091 20.7162 56.9093 21.2165 56.9093 21.8335C56.9093 22.4846 56.355 22.9977 55.7059 22.9476L50.2242 22.524C49.7527 22.4876 49.3887 22.0944 49.3887 21.6215Z" fill="#004E5C"/>
<path d="M49.3303 25.7831L41.2096 39.911C40.9344 40.3898 41.0985 41.0026 41.5763 41.2797L42.3512 41.729C42.829 42.0061 43.4394 41.8425 43.7146 41.3637L51.8353 27.2358C52.1105 26.757 51.9463 26.1442 51.4686 25.8672L50.6937 25.4178C50.2159 25.1407 49.6055 25.3043 49.3303 25.7831Z" fill="#007C92"/>
<path d="M45.3248 41.6351C45.3248 42.9224 44.2879 43.9527 43.0252 43.9527C41.7624 43.9527 40.7256 42.9224 40.7256 41.6351C40.7256 40.3479 41.7624 39.3176 43.0252 39.3176C44.2879 39.3176 45.3248 40.3479 45.3248 41.6351Z" stroke="#004E5C" stroke-width="3.5"/>
<path d="M26.9603 23.9341L17.6901 40.0618C17.4149 40.5406 17.5791 41.1534 18.0569 41.4305L18.8318 41.8798C19.3095 42.1569 19.92 41.9933 20.1952 41.5145L29.4653 25.3868C29.7406 24.908 29.5764 24.2952 29.0986 24.0182L28.3237 23.5688C27.8459 23.2918 27.2355 23.4553 26.9603 23.9341Z" fill="#007C92"/>
<path d="M28.213 22.1749C27.8129 21.9428 27.6231 21.4661 27.754 21.0221L27.8825 20.5862L30.1153 21.8811C30.404 22.0485 30.5032 22.4187 30.3369 22.7081C30.1706 22.9974 29.8018 23.0962 29.5131 22.9288L28.213 22.1749Z" fill="#006678"/>
<path d="M20.6115 17.5844L21.8105 22.079C21.8929 22.3878 22.2098 22.5708 22.5185 22.4877C22.8271 22.4046 23.0105 22.087 22.9281 21.7782L21.7291 17.2836C21.6467 16.9748 21.3298 16.7918 21.0212 16.8749C20.7125 16.958 20.5291 17.2756 20.6115 17.5844Z" fill="#006678"/>
<path d="M26.8262 15.1054V22.0835C26.8262 22.403 27.0852 22.662 27.4047 22.662C27.7242 22.662 27.9832 22.403 27.9832 22.0835V15.1054C27.9832 14.7859 27.7242 14.5269 27.4047 14.5269C27.0852 14.5269 26.8262 14.7859 26.8262 15.1054Z" fill="#006678"/>
<path d="M27.8544 22.0808C27.8544 22.4017 27.5943 22.6619 27.2733 22.6619H22.4141C22.0932 22.6619 21.833 22.4017 21.833 22.0808C21.833 21.7599 22.0932 21.4997 22.4141 21.4997H27.2733C27.5943 21.4997 27.8544 21.7599 27.8544 22.0808Z" fill="#006678"/>
<path d="M27.377 16.9257C28.1485 17.1333 28.9416 16.6734 29.1483 15.8985C29.355 15.1235 28.8972 14.3269 28.1256 14.1193C27.3541 13.9116 26.561 14.3715 26.3543 15.1465C26.1476 15.9215 26.6054 16.718 27.377 16.9257Z" fill="#003943"/>
<path d="M19.3061 41.0541C19.6256 41.0541 19.8846 40.7939 19.8846 40.473C19.8846 40.1521 19.6256 39.8919 19.3061 39.8919C18.9865 39.8919 18.7275 40.1521 18.7275 40.473C18.7275 40.7939 18.9865 41.0541 19.3061 41.0541Z" fill="#004E5C"/>
<path d="M48.8023 28.8719L58.7757 40.4256C59.0831 40.7817 59.6199 40.8199 59.9747 40.5109C60.3295 40.2019 60.3679 39.6628 60.0605 39.3066L50.0871 27.753C49.7797 27.3968 49.2428 27.3586 48.8881 27.6676C48.5333 27.9766 48.4949 28.5158 48.8023 28.8719Z" fill="#007C92"/>
<path d="M44.6025 41.6351H59.3794C59.9317 41.6351 60.3794 41.1874 60.3794 40.6351V40.3108C60.3794 39.7585 59.9317 39.3108 59.3794 39.3108H44.6025C44.0502 39.3108 43.6025 39.7585 43.6025 40.3108V40.6351C43.6025 41.1874 44.0502 41.6351 44.6025 41.6351Z" fill="#007C92"/>
<path d="M43.0246 37.5676H57.1981V40.473L45.9172 42.5068L42.1568 44.8311L39.8428 41.3446L43.0246 37.5676Z" fill="#004E5C"/>
<path d="M57.1982 40.473C57.997 40.473 58.6445 39.8226 58.6445 39.0203C58.6445 38.218 57.997 37.5676 57.1982 37.5676C56.3995 37.5676 55.752 38.218 55.752 39.0203C55.752 39.8226 56.3995 40.473 57.1982 40.473Z" fill="#004E5C"/>
<path d="M59.223 41.0541C59.5425 41.0541 59.8016 40.7939 59.8016 40.473C59.8016 40.1521 59.5425 39.8919 59.223 39.8919C58.9035 39.8919 58.6445 40.1521 58.6445 40.473C58.6445 40.7939 58.9035 41.0541 59.223 41.0541Z" fill="#004E5C"/>
<path d="M43.6033 47.4459C43.6033 47.7669 43.3432 48.027 43.0222 48.027H40.1348C39.8139 48.027 39.5537 47.7669 39.5537 47.4459C39.5537 47.125 39.8139 46.8649 40.1348 46.8649H43.0222C43.3432 46.8649 43.6033 47.125 43.6033 47.4459Z" fill="#007C92"/>
<path d="M41.4293 47.672C41.1207 47.5889 40.9373 47.2712 41.0197 46.9624L42.3838 41.8488C42.4662 41.54 42.7832 41.357 43.0918 41.4401C43.4004 41.5231 43.5838 41.8408 43.5014 42.1496L42.1373 47.2632C42.0549 47.572 41.7379 47.755 41.4293 47.672Z" fill="#007C92"/>
</g>
</g>
</g>
<defs>
<clipPath id="clip0_4940_3048">
<rect width="80" height="54" fill="white"/>
</clipPath>
</defs>
</svg>
