<svg width="92" height="92" viewBox="0 0 92 92" fill="none" xmlns="http://www.w3.org/2000/svg">
<ellipse cx="46" cy="87.5" rx="44" ry="1.5" fill="#F1F2F2"/>
<circle cx="75" cy="79" r="6.25" stroke="#002329" stroke-width="3.5"/>
<circle cx="17" cy="79" r="6.25" stroke="#002329" stroke-width="3.5"/>
<path fill-rule="evenodd" clip-rule="evenodd" d="M19 72H12.7808C12.3219 72 11.9219 71.6877 11.8106 71.2425L11.3106 69.2425C11.1528 68.6114 11.6302 68 12.2808 68H19C23.6331 68 27.4485 71.5009 27.9452 76.0016C28.0058 76.5506 27.5523 77 27 77H25C24.4477 77 24.0104 76.5478 23.9013 76.0064C23.4405 73.721 21.4212 72 19 72Z" fill="#007C92"/>
<path fill-rule="evenodd" clip-rule="evenodd" d="M73 72H81.2192C81.6781 72 82.0781 71.6877 82.1894 71.2425L82.6894 69.2425C82.8472 68.6114 82.3698 68 81.7192 68H73C68.0294 68 64 72.0294 64 77H68C68 74.2386 70.2386 72 73 72Z" fill="#007C92"/>
<rect x="34" y="76" width="44" height="5" rx="1" fill="#75B8C4"/>
<rect x="25.2" y="55" width="26.6391" height="5" transform="rotate(60 25.2 55)" fill="#75B8C4"/>
<path d="M24.7658 44.1901L34.3421 8.45087L28.5465 6.89795L29.323 4.00017L35.1185 5.55309L38.0163 6.32955L27.6636 44.9666L24.7658 44.1901Z" fill="#007C92"/>
<circle cx="28.5" cy="5.5" r="2.5" fill="#003943"/>
<rect x="14" y="80.5361" width="56.46" height="5" rx="1" transform="rotate(-75 14 80.5361)" fill="#75B8C4"/>
<circle cx="17" cy="79" r="1" fill="#004E5C"/>
<circle cx="75" cy="79" r="1" fill="#004E5C"/>
</svg>
