<svg width="40" height="40" viewBox="0 0 40 40" fill="none" xmlns="http://www.w3.org/2000/svg">
<path d="M33.3301 34.5799H6.66992C4.13992 34.5799 2.08008 32.5199 2.08008 29.9999V9.99992C2.08008 7.46992 4.13992 5.41992 6.66992 5.41992H33.3301C35.8601 5.41992 37.9199 7.47992 37.9199 9.99992V29.9999C37.9199 32.5299 35.8601 34.5799 33.3301 34.5799ZM6.66992 7.91992C5.51992 7.91992 4.58008 8.84992 4.58008 9.99992V29.9999C4.58008 31.1499 5.51992 32.0799 6.66992 32.0799H33.3301C34.4801 32.0799 35.4199 31.1499 35.4199 29.9999V9.99992C35.4199 8.84992 34.4801 7.91992 33.3301 7.91992H6.66992Z" fill="black"/>
<path d="M30 27.9199H24.1699C23.4799 27.9199 22.9199 27.3599 22.9199 26.6699C22.9199 25.9799 23.4799 25.4199 24.1699 25.4199H30C30.69 25.4199 31.25 25.9799 31.25 26.6699C31.25 27.3599 30.69 27.9199 30 27.9199ZM19.1699 27.9199H16.6699C15.9799 27.9199 15.4199 27.3599 15.4199 26.6699C15.4199 25.9799 15.9799 25.4199 16.6699 25.4199H19.1699C19.8599 25.4199 20.4199 25.9799 20.4199 26.6699C20.4199 27.3599 19.8599 27.9199 19.1699 27.9199Z" fill="black"/>
<path d="M37.9199 13.75H2.08008V16.25H37.9199V13.75Z" fill="black"/>
</svg>
