<svg width="40" height="40" viewBox="0 0 40 40" fill="none" xmlns="http://www.w3.org/2000/svg">
<path d="M19.9164 37.9051C18.3764 37.9051 16.8062 37.7051 15.2562 37.2951C8.3362 35.4451 3.16653 29.7051 2.09653 22.6551C1.99653 21.9751 2.45633 21.3351 3.14633 21.2351C3.81633 21.1351 4.46625 21.5951 4.56625 22.2851C5.49625 28.3451 9.94659 33.2951 15.9066 34.8851C24.1766 37.0951 32.6766 32.2051 34.8866 23.9951C35.9466 20.0351 35.4063 15.8951 33.3563 12.3351C31.2863 8.74507 27.9364 6.18507 23.9164 5.10507C16.9064 3.23507 9.42629 6.61507 6.10629 12.9051H8.33627C9.02627 12.9051 9.58627 13.4651 9.58627 14.1551C9.58627 14.8451 9.02627 15.4051 8.33627 15.4051H4.17661C3.76661 15.4051 3.38633 15.2051 3.14633 14.8651C2.91633 14.5251 2.8562 14.0951 3.0062 13.7151C6.2462 5.17507 15.7165 0.325073 24.5565 2.69507C29.2165 3.94507 33.1164 6.92507 35.5164 11.0851C37.9064 15.2251 38.5362 20.0351 37.2962 24.6351C35.1462 32.6251 27.8664 37.9051 19.9164 37.9051Z" fill="black"/>
<path d="M23.3265 24.5754C23.0065 24.5754 22.6867 24.4554 22.4467 24.2054L19.1166 20.8754C18.8866 20.6454 18.7465 20.3254 18.7465 19.9954V13.3254C18.7465 12.6354 19.3065 12.0754 19.9965 12.0754C20.6865 12.0754 21.2465 12.6354 21.2465 13.3254V19.4754L24.2064 22.4454C24.6964 22.9354 24.6964 23.7254 24.2064 24.2154C23.9664 24.4554 23.6465 24.5854 23.3265 24.5854V24.5754Z" fill="black"/>
</svg>
