<svg width="40" height="40" viewBox="0 0 40 40" fill="none" xmlns="http://www.w3.org/2000/svg">
  <path d="M7.59131 26H14.7007V24.7344H9.53662V24.5938L11.9976 21.9609C13.9741 19.8594 14.521 18.9219 14.521 17.6328V17.6172C14.521 15.7969 13.0522 14.4609 11.1304 14.4609C9.021 14.4609 7.521 15.8984 7.51318 17.8984L7.521 17.9062L8.86475 17.9141L8.87256 17.8984C8.87256 16.5703 9.73975 15.6875 11.0366 15.6875C12.3101 15.6875 13.0835 16.5781 13.0835 17.7656V17.7812C13.0835 18.7656 12.6772 19.3516 11.2788 20.9062L7.59131 25.0312V26Z" fill="black"/>
  <path d="M22.0469 26H23.4219V23.6641H24.9844V22.4062H23.4219V14.7266H21.3829C19.8438 17.0781 18.1563 19.8281 16.6719 22.3828V23.6641H22.0469V26ZM18.1016 22.4141V22.3203C19.2969 20.25 20.7266 17.9219 21.961 16.0312H22.0547V22.4141H18.1016Z" fill="black"/>
  <path d="M26.901 26H28.2604V21.0156C28.2604 19.5391 29.1119 18.6328 30.4557 18.6328C31.7994 18.6328 32.4244 19.3594 32.4244 20.875V26H33.7838V20.5469C33.7838 18.5469 32.7291 17.4297 30.8385 17.4297C29.5963 17.4297 28.8072 17.9531 28.3854 18.8438H28.2604V14.2344H26.901V26Z" fill="black"/>
</svg>