<svg width="40" height="40" viewBox="0 0 40 40" fill="none" xmlns="http://www.w3.org/2000/svg">
<path d="M20.2092 37.0811C10.6792 37.0811 2.91913 29.3211 2.91913 19.7911C2.91913 11.7211 8.39921 4.79105 16.2492 2.95105C16.7292 2.84105 17.229 3.02105 17.529 3.41105C17.829 3.80105 17.8693 4.33105 17.6393 4.76105C16.6393 6.64105 16.1091 8.75105 16.1091 10.8811C16.1091 18.0511 21.9491 23.8911 29.1291 23.8911C31.2591 23.8911 33.3694 23.3611 35.2394 22.3611C35.6694 22.1311 36.1991 22.1711 36.5891 22.4711C36.979 22.7711 37.159 23.2711 37.049 23.7511C35.209 31.6011 28.2892 37.0811 20.2092 37.0811ZM14.3293 6.20105C8.96928 8.50105 5.41913 13.7711 5.41913 19.7911C5.41913 27.9511 12.0492 34.5811 20.2092 34.5811C26.2292 34.5811 31.499 31.0211 33.799 25.6611C32.299 26.1311 30.7191 26.381 29.1291 26.381C20.5691 26.381 13.6091 19.421 13.6091 10.871C13.6091 9.29105 13.8593 7.71105 14.3293 6.20105Z" fill="black"/>
</svg>
