<svg width="40" height="40" viewBox="0 0 40 40" fill="none" xmlns="http://www.w3.org/2000/svg">
<path d="M33.3301 36.2549H30.8301C30.1401 36.2549 29.5801 35.6949 29.5801 35.0049C29.5801 34.3149 30.1401 33.7549 30.8301 33.7549H33.3301C33.5601 33.7549 33.75 33.5649 33.75 33.3349V26.6649C33.75 26.4349 33.5601 26.2449 33.3301 26.2449H30.8301C30.1401 26.2449 29.5801 25.6849 29.5801 24.9949C29.5801 24.3049 30.1401 23.7449 30.8301 23.7449H33.3301C34.9401 23.7449 36.25 25.0549 36.25 26.6649V33.3349C36.25 34.9449 34.9401 36.2549 33.3301 36.2549ZM25.8301 36.2549H24.1699C23.4799 36.2549 22.9199 35.6949 22.9199 35.0049C22.9199 34.3149 23.4799 33.7549 24.1699 33.7549H25.8301C26.5201 33.7549 27.0801 34.3149 27.0801 35.0049C27.0801 35.6949 26.5201 36.2549 25.8301 36.2549ZM20 33.7549C19.31 33.7549 18.75 33.1949 18.75 32.5049V29.1749C18.75 28.4849 19.31 27.9249 20 27.9249C20.69 27.9249 21.25 28.4849 21.25 29.1749V32.5049C21.25 33.1949 20.69 33.7549 20 33.7549ZM30 32.0849C29.31 32.0849 28.75 31.5249 28.75 30.8349C28.75 30.6049 28.5601 30.4149 28.3301 30.4149H26.6699C25.0599 30.4149 23.75 29.1049 23.75 27.4949V24.9949C23.75 24.3049 24.31 23.7449 25 23.7449C25.69 23.7449 26.25 24.3049 26.25 24.9949V27.4949C26.25 27.7249 26.4399 27.9149 26.6699 27.9149H28.3301C29.9401 27.9149 31.25 29.2249 31.25 30.8349C31.25 31.5249 30.69 32.0849 30 32.0849ZM20 25.4249C19.31 25.4249 18.75 24.8649 18.75 24.1749V21.6749C18.75 20.0649 20.0599 18.7549 21.6699 18.7549H34.1699C34.8599 18.7549 35.4199 19.3149 35.4199 20.0049C35.4199 20.6949 34.8599 21.2549 34.1699 21.2549H21.6699C21.4399 21.2549 21.25 21.4449 21.25 21.6749V24.1749C21.25 24.8649 20.69 25.4249 20 25.4249Z" fill="black"/>
<path d="M15 21.2549H5C4.31 21.2549 3.75 20.6949 3.75 20.0049C3.75 19.3149 4.31 18.7549 5 18.7549H15C15.69 18.7549 16.25 19.3149 16.25 20.0049C16.25 20.6949 15.69 21.2549 15 21.2549Z" fill="black"/>
<path d="M20 14.5849C19.31 14.5849 18.75 14.0249 18.75 13.3349V5.00488C18.75 4.31488 19.31 3.75488 20 3.75488C20.69 3.75488 21.25 4.31488 21.25 5.00488V13.3349C21.25 14.0249 20.69 14.5849 20 14.5849Z" fill="black"/>
<path d="M13.3301 16.2551H6.66992C5.05992 16.2551 3.75 14.9451 3.75 13.3351V6.66512C3.75 5.05512 5.05992 3.74512 6.66992 3.74512H13.3301C14.9401 3.74512 16.25 5.05512 16.25 6.66512V13.3351C16.25 14.9451 14.9401 16.2551 13.3301 16.2551ZM6.66992 6.25512C6.43992 6.25512 6.25 6.44511 6.25 6.67511V13.3451C6.25 13.5751 6.43992 13.7651 6.66992 13.7651H13.3301C13.5601 13.7651 13.75 13.5751 13.75 13.3451V6.67511C13.75 6.44511 13.5601 6.25512 13.3301 6.25512H6.66992Z" fill="black"/>
<path d="M13.3301 36.2551H6.66992C5.05992 36.2551 3.75 34.9451 3.75 33.3351V26.6651C3.75 25.0551 5.05992 23.7451 6.66992 23.7451H13.3301C14.9401 23.7451 16.25 25.0551 16.25 26.6651V33.3351C16.25 34.9451 14.9401 36.2551 13.3301 36.2551ZM6.66992 26.2551C6.43992 26.2551 6.25 26.4451 6.25 26.6751V33.3451C6.25 33.5751 6.43992 33.7651 6.66992 33.7651H13.3301C13.5601 33.7651 13.75 33.5751 13.75 33.3451V26.6751C13.75 26.4451 13.5601 26.2551 13.3301 26.2551H6.66992Z" fill="black"/>
<path d="M33.3301 16.2551H26.6699C25.0599 16.2551 23.75 14.9451 23.75 13.3351V6.66512C23.75 5.05512 25.0599 3.74512 26.6699 3.74512H33.3301C34.9401 3.74512 36.25 5.05512 36.25 6.66512V13.3351C36.25 14.9451 34.9401 16.2551 33.3301 16.2551ZM26.6699 6.25512C26.4399 6.25512 26.25 6.44511 26.25 6.67511V13.3451C26.25 13.5751 26.4399 13.7651 26.6699 13.7651H33.3301C33.5601 13.7651 33.75 13.5751 33.75 13.3451V6.67511C33.75 6.44511 33.5601 6.25512 33.3301 6.25512H26.6699Z" fill="black"/>
</svg>
