<svg width="40" height="40" viewBox="0 0 40 40" fill="none" xmlns="http://www.w3.org/2000/svg">
<path fill-rule="evenodd" clip-rule="evenodd" d="M29.4807 6.18946L30 5.89272V34.1073L29.4807 33.8105C27.9435 32.9322 26.0565 32.9322 24.5193 33.8105L23.5 34.393L22.4807 33.8105C20.9435 32.9322 19.0565 32.9322 17.5193 33.8105L16.5 34.393L15.4807 33.8105C13.9435 32.9322 12.0565 32.9322 10.5193 33.8105L10 34.1073V5.89272L10.5193 6.18946C12.0565 7.06784 13.9435 7.06784 15.4807 6.18946L16.5 5.607L17.5193 6.18946C19.0565 7.06784 20.9435 7.06784 22.4807 6.18946L23.5 5.607L24.5193 6.18946C26.0565 7.06784 27.9435 7.06784 29.4807 6.18946ZM6 2C6 1.44772 6.44772 1 7 1H9.23444C9.40846 1 9.57948 1.04542 9.73057 1.13176L12.5039 2.71649C12.8113 2.89217 13.1887 2.89217 13.4961 2.71649L16.0039 1.28351C16.3113 1.10783 16.6887 1.10783 16.9961 1.28351L19.5039 2.71649C19.8113 2.89217 20.1887 2.89217 20.4961 2.71649L23.0039 1.28351C23.3113 1.10783 23.6887 1.10783 23.9961 1.28351L26.5039 2.71649C26.8113 2.89217 27.1887 2.89217 27.4961 2.71649L30.2694 1.13176C30.4205 1.04542 30.5915 1 30.7656 1H33C33.5523 1 34 1.44772 34 2V38C34 38.5523 33.5523 39 33 39H30.7656C30.5915 39 30.4205 38.9546 30.2694 38.8682L27.4961 37.2835C27.1887 37.1078 26.8113 37.1078 26.5039 37.2835L23.9961 38.7165C23.6887 38.8922 23.3113 38.8922 23.0039 38.7165L20.4961 37.2835C20.1887 37.1078 19.8113 37.1078 19.5039 37.2835L16.9961 38.7165C16.6887 38.8922 16.3113 38.8922 16.0039 38.7165L13.4961 37.2835C13.1887 37.1078 12.8113 37.1078 12.5039 37.2835L9.73057 38.8682C9.57948 38.9546 9.40846 39 9.23444 39H7C6.44772 39 6 38.5523 6 38V2ZM16 11C14.8954 11 14 11.8954 14 13C14 14.1046 14.8954 15 16 15H24C25.1046 15 26 14.1046 26 13C26 11.8954 25.1046 11 24 11H16ZM14 19C14 17.8954 14.8954 17 16 17H24C25.1046 17 26 17.8954 26 19C26 20.1046 25.1046 21 24 21H16C14.8954 21 14 20.1046 14 19ZM16 23C14.8954 23 14 23.8954 14 25C14 26.1046 14.8954 27 16 27H20C21.1046 27 22 26.1046 22 25C22 23.8954 21.1046 23 20 23H16Z" fill="black"/>
</svg>
