<svg width="40" height="40" viewBox="0 0 40 40" fill="none" xmlns="http://www.w3.org/2000/svg">
<path fill-rule="evenodd" clip-rule="evenodd" d="M12.9166 18.3333C12.9166 17.6429 13.4763 17.0833 14.1666 17.0833H19.1666C19.857 17.0833 20.4166 17.6429 20.4166 18.3333C20.4166 19.0236 19.857 19.5833 19.1666 19.5833H14.1666C13.4763 19.5833 12.9166 19.0236 12.9166 18.3333Z" fill="black"/>
<path fill-rule="evenodd" clip-rule="evenodd" d="M12.9166 11.6666C12.9166 10.9762 13.4763 10.4166 14.1666 10.4166H24.1666C24.857 10.4166 25.4166 10.9762 25.4166 11.6666C25.4166 12.3569 24.857 12.9166 24.1666 12.9166H14.1666C13.4763 12.9166 12.9166 12.3569 12.9166 11.6666Z" fill="black"/>
<path fill-rule="evenodd" clip-rule="evenodd" d="M5.41663 6.66659C5.41663 4.13528 7.46865 2.08325 9.99996 2.08325H30C32.5313 2.08325 34.5833 4.13529 34.5833 6.66659V35.8333C34.5833 36.2665 34.359 36.6688 33.9905 36.8966C33.6219 37.1243 33.1618 37.145 32.7743 36.9513L26.7346 33.9315L20.6625 37.7266C20.2571 37.9799 19.7428 37.9799 19.3375 37.7266L13.2653 33.9315L7.22564 36.9513C6.83816 37.145 6.37798 37.1243 6.00946 36.8966C5.64094 36.6688 5.41663 36.2665 5.41663 35.8333V6.66659ZM9.99996 4.58325C8.84937 4.58325 7.91663 5.51599 7.91663 6.66659V33.8107L12.7743 31.3819C13.1638 31.1871 13.6265 31.2091 13.9958 31.4399L20 35.1925L26.0041 31.4399C26.3734 31.2091 26.8362 31.1871 27.2256 31.3819L32.0833 33.8107V6.66659C32.0833 5.51598 31.1506 4.58325 30 4.58325H9.99996Z" fill="black"/>
</svg>
