<svg width="40" height="40" viewBox="0 0 40 40" fill="none" xmlns="http://www.w3.org/2000/svg">
<path d="M7.9165 33.9584C7.9165 28.7807 12.1138 24.5834 17.2915 24.5834H22.7082C27.8858 24.5834 32.0832 28.7807 32.0832 33.9584C32.0832 36.1445 30.311 37.9167 28.1248 37.9167H11.8748C9.6887 37.9167 7.9165 36.1445 7.9165 33.9584Z" fill="black"/>
<path fill-rule="evenodd" clip-rule="evenodd" d="M20.4925 2.18444C20.1782 2.04969 19.8222 2.04969 19.5078 2.18444L7.8411 7.18444C7.3815 7.38142 7.0835 7.83334 7.0835 8.33337C7.0835 8.8334 7.3815 9.28532 7.8411 9.4823L12.9168 11.6576V15.8334C12.9168 19.7454 16.0881 22.9167 20.0002 22.9167C23.9122 22.9167 27.0835 19.7454 27.0835 15.8334V11.6576L30.4168 10.229V15C30.4168 15.6904 30.9765 16.25 31.6668 16.25C32.3572 16.25 32.9168 15.6904 32.9168 15V8.33337C32.9168 7.83334 32.6188 7.38142 32.1592 7.18444L20.4925 2.18444ZM15.4168 13.4159C16.3049 13.2256 18.1457 12.9167 20.0002 12.9167C21.8547 12.9167 23.6953 13.2256 24.5835 13.4159V15.8334C24.5835 18.3647 22.5315 20.4167 20.0002 20.4167C17.4688 20.4167 15.4168 18.3647 15.4168 15.8334V13.4159Z" fill="black"/>
</svg>
