<svg width="40" height="40" viewBox="0 0 40 40" fill="none" xmlns="http://www.w3.org/2000/svg">
  <path fill-rule="evenodd" clip-rule="evenodd" d="M18.75 1.25C18.75 0.559644 19.3096 0 20 0C20.6904 0 21.25 0.559644 21.25 1.25V6.25C21.25 6.94036 20.6904 7.5 20 7.5C19.3096 7.5 18.75 6.94036 18.75 6.25V1.25ZM30 20C30 25.5228 25.5228 30 20 30C14.4772 30 10 25.5228 10 20C10 14.4772 14.4772 10 20 10C25.5228 10 30 14.4772 30 20ZM20 32.5C19.3096 32.5 18.75 33.0596 18.75 33.75V38.75C18.75 39.4404 19.3096 40 20 40C20.6904 40 21.25 39.4404 21.25 38.75V33.75C21.25 33.0596 20.6904 32.5 20 32.5ZM1.25 21.25C0.559644 21.25 0 20.6904 0 20C0 19.3096 0.559644 18.75 1.25 18.75H6.25C6.94036 18.75 7.5 19.3096 7.5 20C7.5 20.6904 6.94036 21.25 6.25 21.25H1.25ZM32.5 20C32.5 20.6904 33.0596 21.25 33.75 21.25H38.75C39.4404 21.25 40 20.6904 40 20C40 19.3096 39.4404 18.75 38.75 18.75H33.75C33.0596 18.75 32.5 19.3096 32.5 20ZM7.13388 8.90146C6.64573 8.41331 6.64573 7.62185 7.13388 7.13369C7.62204 6.64554 8.4135 6.64554 8.90165 7.13369L10.6694 8.90146C11.1576 9.38962 11.1576 10.1811 10.6694 10.6692C10.1813 11.1574 9.38981 11.1574 8.90165 10.6692L7.13388 8.90146ZM29.6339 29.6337C29.1457 30.1218 29.1457 30.9133 29.6339 31.4015L31.4016 33.1692C31.8898 33.6574 32.6813 33.6574 33.1694 33.1692C33.6576 32.6811 33.6576 31.8896 33.1694 31.4015L31.4016 29.6337C30.9135 29.1455 30.122 29.1455 29.6339 29.6337ZM30.8202 7.13388C31.3084 6.64573 32.0998 6.64573 32.588 7.13388C33.0761 7.62204 33.0761 8.4135 32.588 8.90165L30.8202 10.6694C30.3321 11.1576 29.5406 11.1576 29.0525 10.6694C28.5643 10.1813 28.5643 9.38981 29.0525 8.90165L30.8202 7.13388ZM10.669 28.3839C10.1809 27.8957 9.38943 27.8957 8.90127 28.3839L7.13351 30.1516C6.64535 30.6398 6.64535 31.4313 7.13351 31.9194C7.62166 32.4076 8.41312 32.4076 8.90127 31.9194L10.669 30.1516C11.1572 29.6635 11.1572 28.872 10.669 28.3839Z" fill="black"/>
</svg>