<svg width="40" height="40" viewBox="0 0 40 40" fill="none" xmlns="http://www.w3.org/2000/svg">
<path d="M20 29.575C14.72 29.575 10.4199 25.275 10.4199 19.995C10.4199 14.715 14.72 10.415 20 10.415C25.28 10.415 29.5801 14.715 29.5801 19.995C29.5801 25.275 25.28 29.575 20 29.575ZM20 12.915C16.1 12.915 12.9199 16.095 12.9199 19.995C12.9199 23.895 16.1 27.075 20 27.075C23.9 27.075 27.0801 23.895 27.0801 19.995C27.0801 16.095 23.9 12.915 20 12.915Z" fill="black"/>
<path d="M20 37.915C19.31 37.915 18.75 37.355 18.75 36.665V33.335C18.75 32.645 19.31 32.085 20 32.085C20.69 32.085 21.25 32.645 21.25 33.335V36.665C21.25 37.355 20.69 37.915 20 37.915ZM31.6699 32.915C31.3499 32.915 31.03 32.795 30.79 32.545L28.29 30.045C27.8 29.555 27.8 28.765 28.29 28.275C28.78 27.785 29.5701 27.785 30.0601 28.275L32.5601 30.775C33.0501 31.265 33.0501 32.055 32.5601 32.545C32.3201 32.785 32.0002 32.915 31.6802 32.915H31.6699ZM8.33008 32.915C8.01008 32.915 7.6902 32.795 7.4502 32.545C6.9602 32.055 6.9602 31.265 7.4502 30.775L9.9502 28.275C10.4402 27.785 11.2302 27.785 11.7202 28.275C12.2102 28.765 12.2102 29.555 11.7202 30.045L9.22021 32.545C8.98022 32.785 8.65984 32.915 8.33984 32.915H8.33008ZM36.6699 21.245H33.3301C32.6401 21.245 32.0801 20.685 32.0801 19.995C32.0801 19.305 32.6401 18.745 33.3301 18.745H36.6699C37.3599 18.745 37.9199 19.305 37.9199 19.995C37.9199 20.685 37.3599 21.245 36.6699 21.245ZM6.66992 21.245H3.33008C2.64008 21.245 2.08008 20.685 2.08008 19.995C2.08008 19.305 2.64008 18.745 3.33008 18.745H6.66992C7.35992 18.745 7.91992 19.305 7.91992 19.995C7.91992 20.685 7.35992 21.245 6.66992 21.245ZM10.8301 12.075C10.5101 12.075 10.1902 11.955 9.9502 11.705L7.4502 9.20496C6.9602 8.71496 6.9602 7.92496 7.4502 7.43496C7.9402 6.94496 8.73022 6.94496 9.22021 7.43496L11.7202 9.93496C12.2102 10.425 12.2102 11.215 11.7202 11.705C11.4802 11.945 11.1598 12.075 10.8398 12.075H10.8301ZM29.1699 12.075C28.8499 12.075 28.53 11.955 28.29 11.715C27.8 11.225 27.8 10.435 28.29 9.94496L30.7798 7.44496C31.2698 6.95496 32.0598 6.95496 32.5498 7.44496C33.0398 7.93496 33.0398 8.72496 32.5498 9.21496L30.0601 11.715C29.8201 11.965 29.4899 12.085 29.1699 12.085V12.075ZM20 7.91496C19.31 7.91496 18.75 7.35496 18.75 6.66496V3.33496C18.75 2.64496 19.31 2.08496 20 2.08496C20.69 2.08496 21.25 2.64496 21.25 3.33496V6.66496C21.25 7.35496 20.69 7.91496 20 7.91496Z" fill="black"/>
</svg>
