<svg width="40" height="40" viewBox="0 0 40 40" fill="none" xmlns="http://www.w3.org/2000/svg">
<path d="M23.8053 37.4295H8.8053C6.2753 37.4295 4.22522 35.3694 4.22522 32.8494V14.5195C4.22522 11.9895 6.2753 9.93945 8.8053 9.93945H23.8053C26.3353 9.93945 28.3951 11.9995 28.3951 14.5195V32.8494C28.3951 35.3794 26.3353 37.4295 23.8053 37.4295ZM8.8053 12.4295C7.6553 12.4295 6.72522 13.3595 6.72522 14.5095V32.8395C6.72522 33.9895 7.6553 34.9195 8.8053 34.9195H23.8053C24.9553 34.9195 25.8951 33.9895 25.8951 32.8395V14.5095C25.8951 13.3595 24.9553 12.4295 23.8053 12.4295H8.8053Z" fill="black"/>
<path d="M28.3453 33.2798L26.005 32.4098L33.1554 13.1998C33.5454 12.1298 33.0054 10.9298 31.9454 10.5298L17.9655 5.20977C17.4455 5.00977 16.8754 5.02977 16.3654 5.25977C15.8554 5.48977 15.4653 5.90977 15.2653 6.42977L13.3151 11.6798L10.9752 10.8098L12.9254 5.55977C13.3554 4.39977 14.2151 3.48977 15.3351 2.97977C16.4551 2.46977 17.7053 2.43977 18.8453 2.86977L32.8253 8.18977C35.1653 9.07977 36.3552 11.7198 35.4952 14.0698L28.3453 33.2798Z" fill="black"/>
<path d="M16.3052 28.9899C15.4352 28.9899 14.6249 28.6099 14.0649 27.9399L12.0752 25.5399C11.1652 24.4599 11.1652 22.8899 12.0752 21.7999L14.0552 19.4099C14.6152 18.7399 15.4352 18.3599 16.3052 18.3599H16.3149C17.1849 18.3599 17.9949 18.7499 18.5449 19.4099L20.5449 21.7999C21.4549 22.8799 21.4549 24.4499 20.5449 25.5399L18.5449 27.9299C18.0049 28.5899 17.1852 28.9699 16.3252 28.9799H16.3149L16.3052 28.9899ZM16.3052 20.8599C16.2252 20.8599 16.0951 20.8799 15.9751 21.0099L13.9951 23.3999C13.8651 23.5599 13.8651 23.7799 13.9951 23.9299L15.9951 26.3299C16.1051 26.4599 16.2149 26.4599 16.3149 26.4799C16.3849 26.4799 16.525 26.4599 16.625 26.3399L18.625 23.9399C18.755 23.7899 18.755 23.5699 18.625 23.4199L16.625 21.0199C16.515 20.8899 16.3752 20.8599 16.3052 20.8699V20.8599Z" fill="black"/>
</svg>
