<svg width="40" height="40" viewBox="0 0 40 40" fill="none" xmlns="http://www.w3.org/2000/svg">
<path d="M33.3301 34.5799H6.66992C4.13992 34.5799 2.08008 32.5199 2.08008 29.9999V24.1699C2.08008 23.4799 2.64008 22.9199 3.33008 22.9199C4.94008 22.9199 6.25 21.6099 6.25 19.9999C6.25 18.3899 4.94008 17.0799 3.33008 17.0799C2.64008 17.0799 2.08008 16.5199 2.08008 15.8299V9.99992C2.08008 7.46992 4.13992 5.41992 6.66992 5.41992H33.3301C35.8601 5.41992 37.9199 7.47992 37.9199 9.99992V15.8299C37.9199 16.5199 37.3599 17.0799 36.6699 17.0799C35.0599 17.0799 33.75 18.3899 33.75 19.9999C33.75 21.6099 35.0599 22.9199 36.6699 22.9199C37.3599 22.9199 37.9199 23.4799 37.9199 24.1699V29.9999C37.9199 32.5299 35.8601 34.5799 33.3301 34.5799ZM4.58008 25.2699V29.9999C4.58008 31.1499 5.51992 32.0799 6.66992 32.0799H33.3301C34.4801 32.0799 35.4199 31.1499 35.4199 29.9999V25.2699C33.0299 24.6999 31.25 22.5599 31.25 19.9999C31.25 17.4399 33.0299 15.2899 35.4199 14.7299V9.99992C35.4199 8.84992 34.4801 7.91992 33.3301 7.91992H6.66992C5.51992 7.91992 4.58008 8.84992 4.58008 9.99992V14.7299C6.97008 15.2999 8.75 17.4399 8.75 19.9999C8.75 22.5599 6.97008 24.7099 4.58008 25.2699Z" fill="black"/>
<path d="M25.8299 27.0798C25.5099 27.0798 25.19 26.9598 24.95 26.7098L19.9998 21.7598L15.0496 26.7098C14.5596 27.1998 13.7696 27.1998 13.2796 26.7098C12.7896 26.2198 12.7896 25.4298 13.2796 24.9398L18.2298 19.9898L13.2796 15.0398C12.7896 14.5498 12.7896 13.7598 13.2796 13.2698C13.7696 12.7798 14.5596 12.7798 15.0496 13.2698L19.9998 18.2198L24.95 13.2698C25.44 12.7798 26.23 12.7798 26.72 13.2698C27.21 13.7598 27.21 14.5498 26.72 15.0398L21.7698 19.9898L26.72 24.9398C27.21 25.4298 27.21 26.2198 26.72 26.7098C26.48 26.9498 26.1597 27.0798 25.8397 27.0798H25.8299Z" fill="black"/>
</svg>
