<svg width="40" height="40" viewBox="0 0 40 40" fill="none" xmlns="http://www.w3.org/2000/svg">
<path d="M33.3301 36.255H6.66992C5.97992 36.255 5.41992 35.695 5.41992 35.005C5.41992 27.885 11.2101 22.085 18.3301 22.085H21.6699C28.7899 22.085 34.5801 27.875 34.5801 35.005C34.5801 35.695 34.0201 36.255 33.3301 36.255ZM32 33.755C31.38 28.595 26.9802 24.585 21.6602 24.585H18.3198C12.9998 24.585 8.59998 28.595 7.97998 33.755H32Z" fill="black"/>
<path d="M20 19.5851C15.63 19.5851 12.0801 16.0351 12.0801 11.6651C12.0801 7.29512 15.63 3.74512 20 3.74512C24.37 3.74512 27.9199 7.29512 27.9199 11.6651C27.9199 16.0351 24.37 19.5851 20 19.5851ZM20 6.25512C17.01 6.25512 14.5801 8.68511 14.5801 11.6751C14.5801 14.6651 17.01 17.0951 20 17.0951C22.99 17.0951 25.4199 14.6651 25.4199 11.6751C25.4199 8.68511 22.99 6.25512 20 6.25512Z" fill="black"/>
</svg>
