<svg width="40" height="40" viewBox="0 0 40 40" fill="none" xmlns="http://www.w3.org/2000/svg">
<path d="M20 37.9201C10.12 37.9201 2.08008 29.8801 2.08008 20.0001C2.08008 10.1201 10.12 2.08008 20 2.08008C29.88 2.08008 37.9199 10.1201 37.9199 20.0001C37.9199 29.8801 29.88 37.9201 20 37.9201ZM20 4.58008C11.5 4.58008 4.58008 11.5001 4.58008 20.0001C4.58008 28.5001 11.5 35.4201 20 35.4201C28.5 35.4201 35.4199 28.5001 35.4199 20.0001C35.4199 11.5001 28.5 4.58008 20 4.58008Z" fill="black"/>
<path d="M21.3303 11.25C20.7703 11.25 20.1804 11.15 19.6204 10.89C18.2804 10.24 17.2701 8.69997 17.1101 7.05997C16.9301 5.27997 17.7404 3.60997 19.3904 2.34997C19.9404 1.92997 20.7204 2.03997 21.1404 2.57997C21.5604 3.12997 21.4504 3.90997 20.9104 4.32997C19.9504 5.06997 19.5003 5.89997 19.6003 6.80997C19.6903 7.73997 20.3105 8.43997 20.7205 8.63997C21.3005 8.91997 22.3903 8.61997 22.8303 8.41997C23.4603 8.13997 24.2002 8.41997 24.4802 9.05997C24.7602 9.68997 24.4803 10.42 23.8503 10.71C23.6803 10.79 22.5801 11.25 21.3401 11.25H21.3303Z" fill="black"/>
<path d="M26.6699 16.6701H26.6499C25.7299 16.6701 24.98 15.9201 24.98 15.0001C24.98 14.0801 25.7299 13.3301 26.6499 13.3301C27.5699 13.3301 28.3301 14.0801 28.3301 15.0001C28.3301 15.9201 27.5899 16.6701 26.6699 16.6701ZM13.3501 16.6701H13.3301C12.4101 16.6701 11.6602 15.9201 11.6602 15.0001C11.6602 14.0801 12.4101 13.3301 13.3301 13.3301C14.2501 13.3301 15.0098 14.0801 15.0098 15.0001C15.0098 15.9201 14.2701 16.6701 13.3501 16.6701Z" fill="black"/>
<path d="M20 29.5799C16.95 29.5799 14.1601 28.1799 12.3301 25.7499C11.9201 25.1999 12.0301 24.4199 12.5801 23.9999C13.1301 23.5799 13.9101 23.6999 14.3301 24.2499C15.6801 26.0499 17.75 27.0799 20 27.0799C22.25 27.0799 24.32 26.0499 25.67 24.2499C26.09 23.6999 26.87 23.5799 27.42 23.9999C27.97 24.4199 28.08 25.1999 27.67 25.7499C25.84 28.1899 23.05 29.5799 20 29.5799Z" fill="black"/>
</svg>
