<svg width="40" height="40" viewBox="0 0 40 40" fill="none" xmlns="http://www.w3.org/2000/svg">
  <path fill-rule="evenodd" clip-rule="evenodd" d="M12 10C12 5.58172 15.5817 2 20 2C22.9611 2 25.5465 3.60879 26.9297 6H34C34.9428 6 35.4142 6 35.7071 6.29289C36 6.58579 36 7.05719 36 8C36 8.94281 36 9.41421 35.7071 9.70711C35.4142 10 34.9428 10 34 10L28 10C28 14.4183 24.4183 18 20 18C15.5817 18 12 14.4183 12 10ZM20.002 6C20.0013 6 20.0007 6 20 6C19.9993 6 19.9987 6 19.998 6H20.002ZM16.0001 9.97463C16.258 10 16.5829 10 17 10L24 10C24 12.2091 22.2091 14 20 14C17.7909 14 16 12.2091 16 10C16 9.99154 16 9.98308 16.0001 9.97463ZM20 24C13.3726 24 12 29.3726 12 36V38H8V36C8 27.1634 11.1634 20 20 20C28.8366 20 32 27.1634 32 36V38H28V36C28 29.3726 26.6274 24 20 24Z" fill="black"/>
</svg>