<svg width="200" height="201" viewBox="0 0 200 201" fill="none" xmlns="http://www.w3.org/2000/svg">
<g clip-path="url(#clip0_8945_551)">
<path d="M184.725 183.502C184.725 192.739 177.237 200.228 167.999 200.228C158.761 200.228 151.273 192.74 151.273 183.502C151.273 174.264 158.761 166.777 167.999 166.777C177.237 166.777 184.725 174.264 184.725 183.502ZM178.718 183.493C178.718 177.574 173.92 172.774 167.999 172.774C162.078 172.774 157.28 177.573 157.28 183.493C157.28 189.414 162.078 194.212 167.999 194.212C173.92 194.212 178.718 189.414 178.718 183.493Z" fill="#008099"/>
<path d="M45.1244 185.063C45.1244 193.573 38.2261 200.471 29.7165 200.471C21.2069 200.471 14.3086 193.573 14.3086 185.063C14.3086 176.554 21.2069 169.656 29.7165 169.656C38.2261 169.656 45.1244 176.554 45.1244 185.063ZM39.0998 185.063C39.0998 179.877 34.8942 175.671 29.7075 175.671C24.5208 175.671 20.3153 179.877 20.3153 185.063C20.3153 190.25 24.5208 194.456 29.7075 194.456C34.8942 194.456 39.0998 190.25 39.0998 185.063Z" fill="#008099"/>
<path d="M153.656 77.8222C154.226 77.5572 159.812 78.0585 159.812 78.0585C162.221 104.329 164.678 130.62 166.916 156.895C173.028 155.689 179.454 155.877 185.432 157.674C186.884 158.111 188.373 158.415 189.27 159.755C190.713 161.909 189.299 164.164 186.911 164.483C185.109 164.028 183.416 163.344 181.595 162.931C177.031 161.898 172.111 161.681 167.578 163.026C167.562 163.395 167.6 163.745 167.621 164.109C167.943 169.618 168.892 180.083 169.198 185.597C168.976 187.914 166.592 189.319 164.558 187.989C162.973 186.952 163.083 185.208 162.891 183.5C162.451 179.581 162.404 170.638 161.942 166.723C161.896 166.327 161.738 165.033 161.738 165.033C161.738 165.033 157.772 166.861 157.051 167.271C150.992 170.712 146.364 175.555 143.605 181.998C142.891 183.669 141.974 187.76 140.757 188.619C139.242 189.69 136.501 188.954 136.152 187.069C135.772 185.026 137.226 181.474 138.068 179.536C142.456 169.448 150.758 162.7 160.889 158.797L160.05 146.714L121.793 186.7L120.347 187.622L28.9501 187.735C26.6889 187.425 26.0927 184.467 27.3209 182.772C28.0155 181.812 30.984 181.826 31.206 181.826L48.3917 181.982C45.4483 169.731 34.9604 161.3 22.0608 164.53C19.8765 165.077 16.1633 167.174 14.2333 166.775C12.3409 166.383 11.5657 163.896 12.5342 162.344C13.4742 160.838 17.9608 159.395 19.7441 158.901C36.8277 154.16 51.2867 165.405 54.5559 181.973L117.332 181.769L118.277 181.531L159.246 138.673C157.602 118.374 155.509 98.0999 153.658 77.8222H153.656Z" fill="#86B200"/>
<path d="M153.533 15.7037C155.987 43.0945 157.302 50.6785 159.813 78.0603C158.331 78.1087 154.041 77.9386 153.658 77.824C151.213 51.1099 150.21 44.9529 147.764 18.2388C145.913 19.3721 129.515 27.9247 124.599 30.322C122.586 31.3031 121.349 27.042 122.103 25.8246C122.617 24.9957 166.377 0.490916 170.316 0.471222C172.933 0.458689 173.216 4.34915 172.402 4.84688C168.312 7.34086 153.533 15.7037 153.533 15.7037Z" fill="#008099"/>
<path d="M89.6492 109.492C90.2185 110.059 122.946 126.67 122.397 128.917C120.094 138.32 115.384 145.319 107.496 147.929C95.8421 151.786 87.037 149.546 81.7841 144.365C76.2411 138.897 73.6558 129.82 76.037 123.926C78.1067 118.804 79.1415 116.929 83.288 113.284C84.0597 112.605 88.9008 108.745 89.651 109.492H89.6492Z" fill="#C2E8F0"/>
<path d="M101.591 174.008C103.63 173.951 105.924 174.488 107.61 175.662C110.143 177.427 110.41 180.965 107.358 182.335C104.253 183.726 94.8179 183.749 91.2927 183.337C89.676 183.149 86.1454 182.686 85.7533 180.761C85.4668 179.356 85.0246 176.188 85.1804 174.667C85.7157 169.428 86.5142 166.266 88.6662 161.484C88.9813 160.784 90.8362 157.476 90.7359 157.085C86.2707 152.581 84.4821 150.201 81.7859 144.365C79.0896 138.528 78.8067 133.882 84.1885 130.117C91.282 125.152 96.9771 128.436 101.913 133.103C106.19 137.146 110.174 145.999 110.675 151.97C111.359 160.098 108.409 164.592 104.024 170.667L101.594 174.01L101.591 174.008Z" fill="#E8AA7D"/>
<path d="M134.517 64.9225C134.102 65.1714 132.467 65.7962 132.347 65.9967C132.317 66.0469 132.367 66.8579 132.29 67.1963C130.419 75.4033 119.714 84.4124 112.241 87.6441C106.335 90.1989 101.44 88.1633 96.4039 84.9173C90.8215 93.9712 73.4746 89.9769 75.3563 78.2966C76.4538 71.4842 83.5902 68.6071 89.733 70.4404C90.1841 61.1986 96.5292 53.5376 104.745 50.0464C105.238 49.8351 105.737 49.64 106.244 49.4627C108.858 48.5353 111.631 48.025 114.44 48.0089C118.184 47.9857 122.608 49.0169 125.46 51.5234C126.217 50.2558 128.835 48.2041 132.005 48.1898C138.332 48.1611 143.956 59.2668 134.517 64.9225Z" fill="#E8AA7D"/>
<path d="M147.279 75.3175C144.189 77.2869 132.369 83.4404 126.89 87.7015C131.923 102.075 130.999 114.722 127.449 122.784C124.531 129.41 115.455 134.471 107.42 131.551C98.7119 128.384 90.4583 118.612 89.2803 109.324C93.7616 105.865 96.7264 103.883 98.438 98.39C100.116 93.0099 99.9491 89.8875 103.218 85.1556C108.761 77.1312 128.543 69.4272 137.133 66.3943C140.071 65.3577 141.521 64.5073 143.509 62.4788C144.044 61.9328 144.898 60.9069 145.745 56.9287C146.23 54.6567 145.525 52.8413 146.701 52.1019C149.431 50.3849 151.667 54.6657 152.371 57.3029C153.413 61.2041 154.027 64.8815 153.075 68.1972C152.122 71.513 149.268 74.0482 147.276 75.3175H147.279Z" fill="#E8AA7D"/>
<path d="M111.633 65.0354C109.239 66.0058 107.273 64.4464 105.501 65.7623C102.258 68.1739 104.409 73.0759 106.725 74.1537C109.266 75.3371 112.603 74.9809 114.879 74.0642C116.952 73.2281 118.995 71.8961 120.218 70.0484C121.254 68.4818 121.938 66.0792 120.746 63.7016C119.96 62.1332 118.021 60.6866 115.973 61.503C114.032 62.2764 113.717 64.1885 111.633 65.0336V65.0354Z" fill="#E4F0C2"/>
<path d="M110.91 66.1454C109.538 66.8848 108.951 67.8982 108.711 68.7325C108.299 70.1558 109.341 72.2864 110.747 73.033C112.193 73.801 114.313 73.2926 115.683 72.4457C116.988 71.6383 118.383 69.8479 117.849 68.0307C117.459 66.6969 116.12 65.6459 115.092 65.3935C113.694 65.0497 112.446 65.3183 110.911 66.1472L110.91 66.1454Z" fill="#86B200"/>
<path d="M101.833 59.283C101.727 59.3189 101.612 59.3314 101.496 59.3171C101.084 59.2651 100.791 58.8874 100.844 58.4756C100.934 57.7702 101.197 57.0916 101.605 56.5169C102.228 55.6379 103.03 55.1956 103.592 54.979C103.981 54.8286 104.416 55.0238 104.565 55.4123C104.713 55.8008 104.52 56.2358 104.131 56.3844C103.831 56.5008 103.261 56.7837 102.833 57.387C102.499 57.8597 102.379 58.3431 102.337 58.6636C102.3 58.959 102.096 59.1917 101.833 59.2813V59.283Z" fill="#00151A"/>
<path d="M114.601 54.4204C114.394 54.492 114.157 54.4706 113.957 54.3452C113.599 54.1196 113.21 53.9657 112.798 53.8851C112.131 53.7544 111.558 53.8529 111.196 53.9585C110.797 54.0749 110.378 53.8457 110.262 53.4465C110.145 53.0472 110.371 52.6319 110.774 52.5119C111.524 52.2935 112.324 52.2559 113.087 52.4045C113.681 52.5208 114.243 52.7446 114.759 53.0687C115.112 53.2907 115.215 53.7562 114.995 54.1071C114.9 54.2593 114.759 54.3649 114.601 54.4186V54.4204Z" fill="#00151A"/>
<path d="M89.3947 82.8513C89.3733 82.8584 89.3518 82.8638 89.3285 82.8709C87.8801 83.2988 86.6913 83.1359 85.7979 82.3858C84.7828 81.5353 84.0451 79.8506 84.6753 78.3968C85.1301 77.3512 86.1631 76.5456 87.7476 76.0049C87.8317 75.9763 87.9159 75.9494 87.9983 75.9225C87.0941 75.5734 85.8068 75.4033 84.2832 76.1231C83.1231 76.6727 82.3837 77.8311 82.0865 79.5713L82.0739 79.6411C82.0005 80.0511 81.6102 80.3233 81.202 80.2516C80.792 80.18 80.5199 79.7879 80.5915 79.3797L80.6023 79.3171C80.8672 77.7702 81.6102 75.722 83.6405 74.7624C86.8077 73.2638 89.5057 74.7427 90.4887 75.7328C90.6928 75.9386 90.7608 76.243 90.6641 76.5151C90.5674 76.7873 90.3222 76.9806 90.0357 77.0129C89.1262 77.1131 86.6376 77.6646 86.0593 78.9966C85.737 79.7396 86.1757 80.735 86.7665 81.231C87.42 81.7788 88.299 81.6052 88.9042 81.4261C90.0088 81.0949 90.5961 80.2051 90.7948 79.8363C90.9917 79.4693 91.4483 79.3332 91.8153 79.5301C92.1823 79.7271 92.3184 80.1836 92.1215 80.5506C91.8368 81.0788 91.0079 82.3482 89.3965 82.8513H89.3947Z" fill="#00151A"/>
<path d="M106.158 61.5432C106.73 61.4719 107.104 60.6903 106.993 59.7974C106.881 58.9045 106.328 58.2385 105.756 58.3097C105.183 58.381 104.81 59.1626 104.921 60.0555C105.032 60.9484 105.586 61.6144 106.158 61.5432Z" fill="#00151A"/>
<path d="M113.053 59.1095C113.55 58.8166 113.582 57.9509 113.124 57.1759C112.667 56.401 111.894 56.0102 111.398 56.3031C110.901 56.596 110.869 57.4617 111.326 58.2367C111.784 59.0117 112.557 59.4025 113.053 59.1095Z" fill="#00151A"/>
<path d="M108.767 63.7052C108.656 63.7428 108.536 63.7553 108.412 63.7374C108 63.6748 107.718 63.2916 107.78 62.8798C107.941 61.8074 108.67 60.914 109.68 60.5488C111.162 60.0188 112.362 60.9033 112.492 61.0071C112.82 61.2631 112.877 61.7376 112.62 62.0652C112.364 62.3929 111.889 62.4502 111.561 62.1923C111.536 62.1744 110.913 61.7018 110.192 61.965C109.701 62.1422 109.347 62.5791 109.268 63.1036C109.225 63.3919 109.023 63.6175 108.765 63.7052H108.767Z" fill="#00151A"/>
<path d="M106.357 40.801C104.738 39.2058 102.357 39.8396 102.257 39.8683C101.856 39.9793 101.621 40.3928 101.73 40.7921C101.841 41.1931 102.255 41.4295 102.656 41.3202C102.672 41.3167 104.301 40.8905 105.3 41.8735C106.258 42.817 106.077 44.5017 105.32 45.4793C104.996 44.747 104.541 44.1257 103.757 43.8142C102.667 43.3809 101.095 43.6513 100.495 44.7434C100.039 45.5777 100.237 46.7737 100.946 47.4684C101.442 47.9535 102.2 48.197 103.08 48.1523C103.564 48.129 104.051 48.0216 104.509 47.8479C104.679 48.5569 104.758 49.2945 104.745 50.0465C105.238 49.8352 105.737 49.6401 106.244 49.4628C106.212 48.6428 106.085 47.8408 105.861 47.0673C106.065 46.899 106.251 46.7164 106.418 46.5177C106.427 46.5051 106.437 46.4944 106.448 46.4819C107.674 44.9762 107.932 42.3515 106.357 40.801ZM103.005 46.6484C102.563 46.6716 102.187 46.575 102.001 46.3923C101.773 46.1703 101.682 45.712 101.815 45.4685C101.827 45.4488 101.84 45.4291 101.856 45.4094C102.081 45.1319 102.735 45.0281 103.2 45.2143C103.6 45.3736 103.854 45.8176 104.07 46.4013C103.728 46.5445 103.363 46.6305 103.005 46.6484Z" fill="#C2E8F0"/>
<path d="M125.689 124.053C126.011 123.496 126.015 122.896 125.698 122.713C125.381 122.53 124.864 122.833 124.542 123.391C124.22 123.948 124.216 124.548 124.533 124.731C124.85 124.914 125.367 124.611 125.689 124.053Z" fill="#00151A"/>
<path d="M105.15 83.5962C104.964 83.5962 104.777 83.5246 104.636 83.3832C104.353 83.1003 104.353 82.6402 104.636 82.3573C111.583 75.4321 126.693 69.3897 131.16 67.7013C131.534 67.5599 131.953 67.7479 132.095 68.1239C132.236 68.4981 132.046 68.917 131.672 69.0584C127.275 70.7199 112.403 76.6621 105.66 83.3832C105.519 83.5246 105.332 83.5944 105.148 83.5944L105.15 83.5962Z" fill="#00151A"/>
<path d="M123.342 91.8605C123.216 91.8605 123.087 91.8282 122.971 91.7584C122.627 91.5543 122.513 91.1085 122.719 90.7648C123.58 89.3146 124.525 88.3316 126.326 87.0121C127.324 86.2817 128.138 85.7911 129.083 85.2236C129.518 84.9622 129.968 84.6918 130.489 84.3678C130.829 84.1565 131.277 84.2604 131.488 84.5987C131.699 84.9389 131.595 85.3865 131.257 85.5978C130.727 85.929 130.27 86.2011 129.832 86.4661C128.881 87.0372 128.129 87.4884 127.186 88.1795C125.336 89.5366 124.627 90.3942 123.968 91.5042C123.832 91.7316 123.592 91.8587 123.344 91.8587L123.342 91.8605Z" fill="#00151A"/>
<path d="M133.767 60.9104C133.783 60.9014 133.8 60.8907 133.817 60.8799C134.902 60.2175 135.472 59.3832 135.509 58.4003C135.552 57.2867 134.915 55.8723 133.653 55.4462C132.743 55.1382 131.656 55.3298 130.423 56.0137C130.357 56.0495 130.292 56.0871 130.23 56.1247C130.523 55.362 131.143 54.4615 132.453 53.9172C133.452 53.5036 134.594 53.697 135.848 54.4937L135.898 54.5259C136.195 54.7121 136.585 54.6226 136.772 54.3254C136.958 54.0282 136.868 53.6379 136.571 53.4517L136.526 53.4231C135.409 52.7141 133.712 52.0212 131.964 52.7463C129.239 53.8778 128.638 56.3987 128.701 57.5731C128.713 57.8166 128.865 58.0315 129.091 58.1246C129.316 58.2177 129.574 58.1747 129.757 58.0118C130.333 57.4997 132.084 56.2572 133.243 56.6493C133.889 56.8677 134.263 57.7038 134.238 58.3537C134.211 59.0717 133.606 59.5228 133.153 59.8003C132.322 60.3034 131.434 60.1674 131.091 60.0832C130.751 59.9991 130.407 60.2068 130.323 60.5469C130.239 60.8871 130.446 61.2308 130.786 61.315C131.277 61.4367 132.539 61.6355 133.764 60.9122L133.767 60.9104Z" fill="#00151A"/>
</g>
<defs>
<clipPath id="clip0_8945_551">
<rect width="200" height="200" fill="white" transform="translate(0 0.471191)"/>
</clipPath>
</defs>
</svg>
