<svg width="80" height="54" viewBox="0 0 80 54" fill="none" xmlns="http://www.w3.org/2000/svg">
<mask id="mask0_4940_2952" style="mask-type:luminance" maskUnits="userSpaceOnUse" x="0" y="0" width="79" height="54">
<path d="M78.4577 0H0.420898V54H78.4577V0Z" fill="white"/>
</mask>
<g mask="url(#mask0_4940_2952)">
<path fill-rule="evenodd" clip-rule="evenodd" d="M33.4337 42.4955C33.7439 41.3388 34.8934 40.6606 36.0015 40.9806C37.1094 41.3006 37.7562 42.4977 37.4462 43.6544L49.4833 47.1311C51.6993 47.7712 53.9985 46.4147 54.6186 44.1013L61.3562 18.9692C61.9764 16.6559 60.6827 14.2617 58.4667 13.6217L46.4018 10.1369C46.3896 10.2557 46.3679 10.3751 46.336 10.494C46.0258 11.6507 44.8763 12.3289 43.7683 12.0089C42.6603 11.6889 42.0135 10.4918 42.3236 9.33511C42.3554 9.21618 42.3962 9.10232 42.4449 8.99407L12.993 0.487442C10.777 -0.152601 8.47779 1.20388 7.85762 3.51723L1.12008 28.6493C0.4999 30.9627 1.79356 33.3568 4.00955 33.9969L33.4337 42.4955ZM37.7794 34.3485C36.6714 34.0285 35.5218 34.7067 35.2117 35.8634C34.9016 37.0201 35.5485 38.2172 36.6565 38.5372C37.7644 38.8572 38.914 38.179 39.2242 37.0223C39.5342 35.8657 38.8874 34.6686 37.7794 34.3485ZM36.9897 29.2313C37.2998 28.0747 38.4494 27.3964 39.5573 27.7165C40.6654 28.0365 41.3122 29.2336 41.002 30.3902C40.692 31.5469 39.5424 32.2252 38.4344 31.9051C37.3264 31.5851 36.6796 30.388 36.9897 29.2313ZM41.3353 21.0844C40.2273 20.7643 39.0777 21.4426 38.7677 22.5993C38.4575 23.7559 39.1044 24.953 40.2124 25.2731C41.3204 25.5931 42.47 24.9148 42.78 23.7582C43.0901 22.6015 42.4433 21.4044 41.3353 21.0844ZM40.5456 15.9672C40.8557 14.8105 42.0053 14.1323 43.1133 14.4523C44.2213 14.7723 44.8681 15.9694 44.558 17.1261C44.248 18.2828 43.0983 18.961 41.9904 18.641C40.8823 18.321 40.2355 17.1239 40.5456 15.9672Z" fill="#357A91"/>
<path d="M7.62929 26.0164L30.293 32.5623C31.0519 32.7815 31.8347 32.3341 32.0414 31.563C32.2481 30.7919 31.8005 29.9891 31.0416 29.7699L8.37791 23.2239C7.61903 23.0047 6.83625 23.4521 6.62953 24.2233C6.4228 24.9944 6.87041 25.7972 7.62929 26.0164Z" fill="#2A6476"/>
<path d="M9.50136 19.0353L32.1651 25.5812C32.924 25.8004 33.7067 25.353 33.9135 24.5819C34.1202 23.8108 33.6726 23.008 32.9137 22.7888L10.25 16.2428C9.4911 16.0236 8.70833 16.4711 8.5016 17.2422C8.29487 18.0133 8.74248 18.8161 9.50136 19.0353Z" fill="#2A6476"/>
<path d="M11.3725 12.0542L34.0362 18.6001C34.7951 18.8193 35.5778 18.3719 35.7846 17.6008C35.9913 16.8297 35.5437 16.0269 34.7848 15.8077L12.1211 9.26172C11.3622 9.04254 10.5794 9.48996 10.3727 10.2611C10.166 11.0322 10.6136 11.835 11.3725 12.0542Z" fill="#2A6476"/>
<path d="M4.27539 51.9998C4.27539 52.552 20.6662 52.9998 40.8852 52.9998C61.1044 52.9998 77.4952 52.552 77.4952 51.9998C77.4952 51.4475 61.1044 50.9998 40.8852 50.9998C20.6662 50.9998 4.27539 51.4475 4.27539 51.9998Z" fill="#D4E9EC" fill-opacity="0.15"/>
<path d="M10.6455 46.7554L23.6604 48.2934V39.373H10.6455V46.7554Z" fill="#37424A"/>
<path d="M56.1973 48.601H69.2121V39.373H56.1973V48.601Z" fill="#37424A"/>
<path d="M22.2171 27.4599L23.3997 27.826L19.2993 29.1555L18.9751 28.5523C18.8935 28.4002 18.8348 28.236 18.8014 28.0654L18.714 27.6194C18.6606 27.3466 18.8536 27.0884 19.1213 27.0742C20.1669 27.0189 21.214 27.1493 22.2171 27.4599Z" fill="#007C92"/>
<path d="M76.9904 48.7319C77.2867 48.6549 77.4945 48.3785 77.4945 48.0615V47.831C77.4945 47.5767 77.2958 47.3705 77.0508 47.3705C76.9691 47.3705 76.9029 47.3017 76.9029 47.217V45.6784C76.9029 45.5936 76.9691 45.5249 77.0508 45.5249C77.2958 45.5249 77.4945 45.3187 77.4945 45.0643V41.4185C77.4945 40.1533 76.8419 38.9851 75.7842 38.3565C74.1764 37.4011 72.418 36.7499 70.5907 36.4332L61.5615 34.8682C59.9744 34.5932 58.3498 34.6606 56.7891 35.0664L48.4894 30.7509C45.3658 29.1268 42.0134 28.0279 38.5575 27.4955C36.7135 27.2114 34.8518 27.0688 32.9876 27.0688H28.0387C25.9121 27.0688 23.7893 27.2515 21.6917 27.615L21.0037 27.7343C16.5003 28.5148 12.1663 30.1198 8.20405 32.4744L6.88216 33.2599C6.28257 33.6162 5.91266 34.2784 5.91266 34.9956V39.0705C5.91266 39.2677 5.85652 39.4604 5.75132 39.6245L5.05218 40.7151C4.84175 41.0433 4.72949 41.4288 4.72949 41.8231V42.1817C4.72949 44.5012 6.2663 46.5161 8.44131 47.0483L9.75797 47.3705L10.1735 47.4155C10.7419 47.4771 11.2369 47.0142 11.2369 46.4209C11.2369 46.3287 11.2369 46.2351 11.2369 46.1401C11.2369 42.7424 13.8855 39.988 17.1527 39.988C20.4199 39.988 23.0686 42.7424 23.0686 46.1401V47.9113C23.0686 48.4234 23.4413 48.8527 23.932 48.9059L23.956 48.9085L55.8193 49.1223C56.3538 49.1258 56.789 48.6771 56.789 48.1223L56.7889 46.1401C56.7889 42.7424 59.4376 39.988 62.7047 39.988C65.972 39.988 68.6206 42.7424 68.6206 46.1401L68.6207 48.2146C68.6207 48.7644 69.0482 49.211 69.5778 49.2146L69.8039 49.2161H74.4709C74.9075 49.2161 75.3422 49.1604 75.7656 49.0503L76.9904 48.7319Z" fill="#84B6C3"/>
<path fill-rule="evenodd" clip-rule="evenodd" d="M34.9922 34.7978L33.5158 28.3492L33.9186 28.2495L35.4001 34.7201L36.5864 44.2808V46.7671L51.7146 47.1019C52.9249 47.1286 53.9198 46.1157 53.9198 44.8569V36.9621C53.9198 36.4739 53.6194 36.0404 53.174 35.886L53.305 35.4775C53.9194 35.6905 54.3339 36.2885 54.3339 36.9621V44.8569C54.3339 46.3571 53.1482 47.5643 51.7058 47.5324L27.5433 46.9978C26.7077 46.9793 25.9327 46.5399 25.4651 45.8195L18.5693 35.1958C18.2823 34.7535 18.1289 34.2321 18.1289 33.6985V31.3753H18.543V33.6985C18.543 34.1463 18.6717 34.5838 18.9126 34.9548L25.8083 45.5785C26.2007 46.183 26.8509 46.5517 27.5521 46.5672L36.1723 46.758V44.3084L34.9922 34.7978Z" fill="#5C9CAC"/>
<path d="M32.5375 28.0995C33.7246 28.0269 34.9158 28.0851 36.0913 28.2731L39.3033 28.787C41.1508 29.0826 42.9382 29.6956 44.5922 30.6009L53.3778 35.4095C53.4998 35.4763 53.5613 35.6221 53.5258 35.7608C53.4904 35.8995 53.3673 35.9942 53.2294 35.9891L36.6539 35.3735L21.6967 33.6452C20.978 33.5622 20.2849 33.3189 19.6649 32.932L18.5167 32.2156C17.9163 31.841 17.9502 30.9246 18.5765 30.5989L18.6077 30.5827C18.7455 30.5111 18.8879 30.4497 19.034 30.3991L22.0804 29.3431C23.4846 28.8563 24.9444 28.564 26.422 28.4736L32.5375 28.0995Z" fill="#37424A"/>
<path d="M62.7051 51.677C59.7646 51.677 57.3809 49.1981 57.3809 46.1402C57.3809 43.0823 59.7646 40.6034 62.7051 40.6034C65.6456 40.6034 68.0294 43.0823 68.0294 46.1402C68.0294 49.1981 65.6456 51.677 62.7051 51.677Z" fill="black"/>
<path d="M17.1534 51.677C14.2129 51.677 11.8291 49.1981 11.8291 46.1402C11.8291 43.0823 14.2129 40.6034 17.1534 40.6034C20.0939 40.6034 22.4776 43.0823 22.4776 46.1402C22.4776 49.1981 20.0939 51.677 17.1534 51.677Z" fill="black"/>
<path d="M62.7056 50.4466C60.4185 50.4466 58.5645 48.5186 58.5645 46.1402C58.5645 43.7619 60.4185 41.8338 62.7056 41.8338C64.9926 41.8338 66.8467 43.7619 66.8467 46.1402C66.8467 48.5186 64.9926 50.4466 62.7056 50.4466Z" fill="#429EAE"/>
<path d="M17.1527 50.4466C14.8657 50.4466 13.0117 48.5186 13.0117 46.1402C13.0117 43.7619 14.8657 41.8338 17.1527 41.8338C19.4398 41.8338 21.2938 43.7619 21.2938 46.1402C21.2938 48.5186 19.4398 50.4466 17.1527 50.4466Z" fill="#429EAE"/>
<path d="M15.0815 37.5273C14.2647 37.5273 13.6025 36.8387 13.6025 35.9893C13.6025 35.1399 14.2647 34.4513 15.0815 34.4513C15.8983 34.4513 16.5604 35.1399 16.5604 35.9893C16.5604 36.8387 15.8983 37.5273 15.0815 37.5273Z" fill="#5C9CAC"/>
<path d="M6.86237 33.2718C6.65614 33.3977 6.47774 33.5601 6.33301 33.7485L10.8968 32.7993C11.5154 32.6707 12.1149 32.4568 12.6793 32.1633L15.9904 30.4417C16.2257 30.3193 16.2257 29.97 15.9904 29.8476C15.9769 29.8406 15.9628 29.8345 15.9485 29.8296L14.7112 29.4007C12.4915 30.2006 10.3427 31.2111 8.29265 32.4218L6.86237 33.2718Z" fill="#37424A"/>
<path d="M9.07394 36.8061L12.0963 35.2346C12.653 34.9452 12.5951 34.1019 12.0047 33.8972C11.889 33.8571 11.7653 33.8491 11.6458 33.8739L8.87025 34.4512L7.23325 34.8768C6.80457 34.9882 6.50391 35.3881 6.50391 35.8468V35.912C6.50391 36.4643 6.93524 36.912 7.46732 36.912H8.64243C8.79224 36.912 8.94 36.8758 9.07394 36.8061Z" fill="#C76B89"/>
<path d="M69.3086 38.7976L74.6043 41.0005C74.9096 41.1275 75.2589 41.0148 75.4411 40.7306L75.5784 40.5164C75.9107 39.998 75.806 39.3219 75.3777 38.9315C75.2281 38.7953 75.0275 38.7402 74.8292 38.7058L69.5791 37.7958C69.0956 37.712 68.7931 38.3214 69.1393 38.6816C69.1876 38.7318 69.2452 38.7712 69.3086 38.7976Z" fill="#E3E5E6"/>
<path d="M75.7197 45.3629V45.1236C75.7197 44.6657 75.3619 44.2945 74.9208 44.2945C74.6779 44.2945 74.4482 44.4092 74.2966 44.6062L73.4194 45.7465C72.9156 46.4014 73.3648 47.3705 74.1723 47.3705H74.4332C74.8481 47.3705 75.2163 47.0948 75.3474 46.6862L75.6704 45.6786C75.703 45.5768 75.7197 45.4702 75.7197 45.3629Z" fill="#357A91"/>
<path d="M56.7894 35.0662L48.4893 30.7509C47.6291 30.3036 46.7515 29.8962 45.8592 29.5294H45.5493C45.2545 29.5294 45.1607 29.9426 45.4243 30.0797L55.0147 35.0662H56.7894Z" fill="#37424A"/>
<path d="M77.4951 44.2944V41.1579C77.4951 40.859 77.3933 40.5663 77.3143 40.2875L76.8198 40.4523C76.5305 40.5383 76.3493 40.8363 76.3987 41.145L76.8211 43.7803C76.8686 44.077 77.1155 44.2944 77.4046 44.2944H77.4951Z" fill="#006678"/>
<path d="M4.80903 43.0641L4.72949 44.2234C4.72949 45.6509 5.30833 46.3711 6.64446 46.6981L9.30266 47.2591C9.27951 47.1779 9.24003 47.101 9.18468 47.0338L6.08974 43.2789C5.97734 43.1425 5.81326 43.0641 5.64057 43.0641H4.80903Z" fill="#357A91"/>
<path d="M31.9756 28.1338L32.5369 28.0995C33.2849 28.0537 34.0346 28.0599 34.7809 28.1178L37.7493 35.4142L36.6533 35.3735L32.4754 34.8907L31.9756 28.1338Z" fill="black"/>
<path d="M21.9688 29.3818L22.4335 33.7303L21.6967 33.6452C20.978 33.5622 20.2849 33.3189 19.6649 32.932L18.5167 32.2156C17.9163 31.841 17.9502 30.9246 18.5765 30.5989L18.6077 30.5827C18.7455 30.5111 18.8879 30.4498 19.034 30.3991L21.9688 29.3818Z" fill="black"/>
</g>
</svg>
