<svg width="200" height="107" viewBox="0 0 200 107" fill="none" xmlns="http://www.w3.org/2000/svg">
<g clip-path="url(#clip0_7601_3461)">
<path d="M199.746 66.6455H199.751C199.665 70.0935 199.459 73.0915 199.339 74.1649C199.253 74.9076 199.177 75.9214 199.079 77.0545C198.77 80.7844 198.299 85.8154 197.068 86.7642C193.175 89.811 179.486 88.9273 173.913 88.9544H173.843C157.899 89.0519 142.052 89.8272 126.032 89.529C99.0389 89.014 72.1544 90.0115 45.1615 89.529C35.1591 89.3447 25.2542 88.9327 15.241 89.2417C12.9044 89.3122 8.43177 89.1007 5.9759 88.8514C1.67676 88.4285 0.478643 82.4813 0.202154 77.0979C0.0178277 73.5198 0.240103 70.1802 0.218418 68.8737C0.207575 68.2177 0.180468 67.4478 0.14794 66.6184C-0.0201218 62.3301 -0.264083 56.2311 1.24848 52.924C1.30811 52.7777 1.37317 52.6475 1.44364 52.5174C4.84283 46.2558 12.1671 46.7003 18.2661 46.6515C21.3454 46.6298 25.4223 46.6353 28.2089 46.5377V46.5268C29.9925 43.8107 32.1448 41.241 34.1941 38.7092C39.3172 32.3825 44.6193 25.3944 50.1274 19.4797C50.1437 19.4634 50.16 19.4472 50.1708 19.4309C55.0175 14.2644 58.2486 11.9874 65.6542 11.5049C93.4928 12.3235 148.498 11.841 159.319 11.7976H161.178C163.396 11.9657 165.049 12.1771 166.378 12.5187C169.717 13.3644 171.045 15.0504 174.222 19.0568C174.336 19.1924 174.445 19.3442 174.564 19.4851C176.629 22.0982 178.565 24.6625 180.424 27.2322C180.782 27.7202 181.14 28.2027 181.487 28.696C182.799 30.5284 184.089 32.3554 185.374 34.2041C187.77 37.6304 190.166 41.1001 192.742 44.7107C193.127 45.2528 193.587 45.8492 194.086 46.4835C195.788 48.652 197.881 51.2 198.765 53.3794C198.808 53.477 198.846 53.58 198.879 53.6885C199.762 56.269 199.865 61.891 199.746 66.6455Z" fill="#22A8C3"/>
<path d="M199.757 66.64C195.376 66.1412 192.986 63.9455 192.796 59.7928C192.611 55.7213 195.17 54.5015 198.884 53.6775C199.773 56.2581 199.876 61.88 199.757 66.6345V66.64Z" fill="#E4F0C2"/>
<path d="M0.142516 66.6184C-0.0255463 62.3355 -0.269507 56.2365 1.24305 52.9241C3.87241 53.4933 6.4855 53.9596 7.03848 56.4317C7.74326 59.5273 5.03258 65.6209 0.142516 66.6184Z" fill="#E4F0C2"/>
<path d="M188.892 29.3032V29.3141H188.887L188.892 29.3032Z" fill="#B24A00"/>
<path d="M188.892 29.3301V29.314C188.892 29.314 188.898 29.3247 188.903 29.3301H188.892Z" fill="#B24A00"/>
<path d="M194.092 46.478C190.047 46.5756 183.471 46.4617 181.254 46.2666C178.988 46.066 177.556 45.3883 176.32 43.6372C175.122 41.9349 173.707 38.4273 172.748 36.7629C171.3 34.2312 166.524 24.3047 166.887 21.8596C167.267 19.3007 171.219 19.0243 174.228 19.0568C174.336 19.1923 174.45 19.3441 174.569 19.4851C181.259 27.9207 186.475 35.928 192.747 44.7052C193.137 45.2528 193.593 45.8437 194.092 46.478Z" fill="#C2E8F0"/>
<path d="M160.382 24.4185C162.198 27.8882 165.819 36.9798 167.256 40.6067C168.725 44.304 167.234 45.8708 164.599 45.9684C160.907 46.1039 154.906 46.5051 151.062 46.5485C144.931 46.619 138.631 46.5485 132.424 46.5376C125.967 46.5268 117.715 47.1557 111.497 46.5376C105.046 45.8925 106.434 43.4908 106.238 35.2829C105.935 22.7108 105.241 19.4309 112.912 19.4796C126.086 19.5718 140.409 19.6098 153.366 19.4796C158.744 19.4254 159.053 21.8759 160.382 24.4239V24.4185Z" fill="#C2E8F0"/>
<path d="M86.3963 46.6461C76.1228 46.966 65.703 46.5973 55.397 46.5377C54.1826 46.3208 53.4128 46.0118 52.9845 44.8245C52.0466 42.2494 54.6272 36.9094 55.7006 34.3017C57.0885 30.9079 59.5552 24.7493 61.4743 21.8542C62.6182 20.1303 64.1958 19.4905 66.218 19.4797C75.3747 19.4255 84.7645 19.0568 94.4199 19.4905C97.2499 19.6152 98.2203 21.2199 98.513 23.9415C98.9901 28.3816 99.1365 35.6896 98.8492 40.1513C98.7407 41.8103 98.4642 44.4342 96.9896 45.41C94.8536 46.8142 89.1287 46.5756 86.4126 46.657H86.4017V46.6461H86.3963Z" fill="#C2E8F0"/>
<path d="M53.7164 22.3367C53.3857 24.2776 49.6937 30.4688 48.5281 32.6861C47.2921 35.0606 42.9712 43.8758 41.4478 45.2528C40.5208 46.0931 38.8402 46.4184 37.5661 46.5268C34.6386 46.7816 31.3262 46.5485 28.2035 46.5268C29.9871 43.8107 32.1394 41.2464 34.1886 38.7092C39.3118 32.3825 44.6139 25.3944 50.122 19.4797C50.1383 19.4634 50.1545 19.4471 50.16 19.4309C52.09 19.2628 54.0471 20.3254 53.7055 22.3313H53.7164V22.3367Z" fill="#C2E8F0"/>
<path d="M102.433 70.0718C102.048 70.0718 101.739 69.7628 101.739 69.3779V20.3038C101.739 19.9189 102.048 19.6099 102.433 19.6099C102.818 19.6099 103.127 19.9189 103.127 20.3038V69.3779C103.127 69.7628 102.818 70.0718 102.433 70.0718Z" fill="#00151A"/>
<path d="M97.548 52.5392H91.2592C90.8743 52.5392 90.5653 52.2302 90.5653 51.8453C90.5653 51.4604 90.8743 51.1514 91.2592 51.1514H97.548C97.9329 51.1514 98.2419 51.4604 98.2419 51.8453C98.2419 52.2302 97.9329 52.5392 97.548 52.5392Z" fill="#00151A"/>
<path d="M113.227 52.4145H106.938C106.553 52.4145 106.244 52.1055 106.244 51.7205C106.244 51.3356 106.553 51.0266 106.938 51.0266H113.227C113.611 51.0266 113.921 51.3356 113.921 51.7205C113.921 52.1055 113.611 52.4145 113.227 52.4145Z" fill="#00151A"/>
<path d="M157.047 61.5169C170.2 62.6879 174.97 69.4266 178.093 77.2171C182.425 88.0165 174.461 101.201 163.905 104.682C138.772 112.971 121.521 77.293 145.836 64.4878C148.59 63.0403 152.933 61.1482 157.042 61.5115H157.047V61.5169Z" fill="#008099"/>
<path d="M41.7623 61.5168C53.2067 60.6548 65.7409 71.8879 64.5536 83.6793C62.8568 100.594 44.2236 111.588 29.5208 101.076C12.7851 89.1115 22.5544 62.9535 41.7623 61.5168Z" fill="#008099"/>
<path fill-rule="evenodd" clip-rule="evenodd" d="M64.9843 46.6529C72.1343 46.7602 79.3002 46.8678 86.3963 46.6468H86.4017V46.6577H86.4126C86.8767 46.6438 87.4288 46.6392 88.0357 46.6342C90.1863 46.6165 93.0266 46.593 95.0921 46.1283C90.1984 41.0155 84.7285 35.6229 80.5408 32.0768C75.4328 27.7494 69.8471 26.3838 66.0352 28.5377L66.0738 28.2415C66.0738 28.2415 65.9637 28.4064 65.7643 28.6985C64.1631 29.6968 62.8995 31.3476 62.1523 33.6951C59.5382 37.1052 56.2918 40.854 54.6534 40.854H53.2006C52.7898 42.3819 52.6169 43.8159 52.9845 44.8253C53.4128 46.0125 54.1826 46.3216 55.397 46.5384C58.5844 46.5569 61.7827 46.6049 64.9843 46.6529Z" fill="#86B200"/>
<path d="M67.8824 2.07279C59.7541 1.34889 58.1759 6.11627 55.4869 6.33822C50.3342 6.76366 46.1698 9.32516 45.4856 12.5486C45.0166 14.7577 47.1159 16.7513 50.0385 17.5999C47.9809 21.1766 47.1331 25.9396 50.3403 29.0143C53.1394 31.6978 57.2403 31.4223 60.7401 31.4223C61.0017 31.4223 62.0998 36.1849 65.4971 36.3611C68.1261 36.4975 69.5308 32.0482 70.9512 30.1411C74.2457 25.7178 77.5896 22.7407 78.0858 16.7513C78.6149 10.3385 74.7584 2.87937 67.8824 2.07749V2.07279Z" fill="#E8AA7D"/>
<path d="M55.2638 28.5635L55.7835 28.2202C56.1504 24.9515 60.3338 24.0179 62.9417 25.2643L63.4732 24.9703C64.014 23.2701 63.9505 21.8945 62.4526 20.7304C60.1669 18.955 58.8923 20.3307 56.6466 20.5823C55.2897 20.7351 53.3755 20.3518 52.1692 20.7234C50.4619 21.2501 50.0998 23.1878 50.5066 24.7211C51.0216 26.6634 53.4226 28.199 55.2615 28.5612L55.2638 28.5635Z" fill="#00151A"/>
<path d="M55.2638 28.5636C58.3138 29.1633 62.3679 28.4461 63.4755 24.9728C60.4937 23.1903 55.1839 24.6271 55.2638 28.5636Z" fill="#D97126"/>
<path d="M60.4044 16.5869C60.4467 16.5869 60.4914 16.5822 60.5337 16.5681C60.783 16.4975 60.9288 16.2365 60.8582 15.9872C60.7547 15.6274 60.1433 13.7932 58.1586 13.0407C56.0704 12.2482 54.2926 13.3793 54.0951 13.511C53.8788 13.6568 53.8223 13.9484 53.9658 14.1648C54.1116 14.3811 54.4032 14.4375 54.6195 14.2941C54.7747 14.1906 56.1786 13.297 57.8223 13.9225C59.4214 14.5292 59.9011 16.0742 59.9505 16.2482C60.0093 16.4552 60.1974 16.5892 60.402 16.5892L60.4044 16.5869Z" fill="#00151A"/>
<path d="M62.4902 13.8943C62.5255 13.8943 62.5608 13.8896 62.596 13.8826C62.85 13.8238 63.0075 13.5721 62.9488 13.3182C62.8006 12.6739 62.3867 11.4346 61.2744 10.3928C60.355 9.52981 59.3485 9.15591 58.6665 8.99365C58.4126 8.93251 58.161 9.09007 58.0998 9.34169C58.0387 9.59565 58.1962 9.84727 58.4479 9.90841C59.0193 10.0448 59.8611 10.3576 60.6301 11.0771C61.5613 11.9496 61.907 12.9866 62.0316 13.5251C62.081 13.7438 62.2762 13.892 62.4902 13.892V13.8943Z" fill="#00151A"/>
<path d="M84.2933 35.7521C82.1182 34.9073 79.2987 33.1705 76.5431 32.2091C71.4888 30.4465 71.1005 30.808 70.4556 29.6459C69.2326 27.4384 73.4473 23.7343 72.3164 21.4484C71.2927 19.3752 69.0479 21.0272 67.662 19.6606C66.4821 18.4968 67.0765 15.7081 68.3964 13.9325C65.8795 12.2299 61.1979 6.73714 61.3739 3.48149C61.5019 1.12753 63.8098 -0.121113 69.4773 1.06052C71.0891 1.39732 76.1407 3.74043 78.6295 5.53378C82.3351 8.20562 89.2068 13.9813 100.37 10.8287C107.804 8.72953 108.004 7.71462 115.93 4.42664C118.216 3.47953 124.729 1.92243 126.234 5.28551C128.454 10.2447 117.311 20.5948 117.311 20.5948C118.137 20.2734 122.892 19.3929 124.121 21.7543C127.601 28.4366 115.651 36.7905 109.961 37.8438C100.442 39.605 95.3351 40.0403 84.2886 35.7522L84.2933 35.7521Z" fill="#008099"/>
<path d="M73.0253 16.6832C64.91 15.2958 62.5255 29.344 70.328 30.4046C78.8054 31.5569 81.8554 18.1929 73.0253 16.6832Z" fill="#E8AA7D"/>
<path d="M85.1035 45.786C85.4501 42.0501 81.0105 40.574 77.9592 41.3771C74.9151 42.1778 72.605 45.8743 72.6664 48.9015C72.6846 49.8438 73.2587 51.5616 74.2247 51.9016C74.7385 52.0811 75.3737 51.5869 75.364 51.7966C75.3423 52.2701 75.8909 53.3471 76.7907 53.5787C78.9171 54.1247 79.6246 52.064 79.6246 52.064C79.6246 52.064 80.1734 52.9243 81.0023 52.9557C82.2197 53.0015 82.919 52.2364 83.3817 51.2239C83.6427 50.654 85.0509 46.3183 85.1011 45.786L85.1035 45.786Z" fill="#E8AA7D"/>
<path d="M79.1332 50.9234C79.1329 51.3757 79.1538 51.8304 79.196 52.2827C79.2195 52.5419 79.4514 52.7329 79.712 52.7095C79.9725 52.6862 80.1646 52.4579 80.1411 52.1964C80.0402 51.1103 80.0696 50.0126 80.2292 48.9385C80.3387 48.1918 80.5146 47.4499 80.7473 46.7316C80.8281 46.4843 80.6909 46.218 80.4423 46.1377C80.1937 46.0574 79.9259 46.1938 79.8452 46.4411C79.5959 47.2088 79.4081 48.0026 79.2914 48.801C79.1865 49.503 79.1338 50.212 79.1332 50.9234Z" fill="#00151A"/>
<path d="M74.5526 51.1764C74.5523 51.4591 74.5639 51.7441 74.5897 52.0269C74.6132 52.286 74.8428 52.477 75.1033 52.456C75.3639 52.4327 75.5559 52.2114 75.5348 51.9452C75.4527 51.0146 75.5222 50.0818 75.7361 49.175C75.9287 48.3625 76.2348 47.5806 76.6499 46.8507C76.778 46.6247 76.6977 46.3372 76.4705 46.2098C76.2432 46.0824 75.9542 46.1623 75.8261 46.3883C75.3683 47.1959 75.0265 48.0602 74.815 48.9599C74.6438 49.6877 74.5579 50.4296 74.5573 51.174L74.5526 51.1764Z" fill="#00151A"/>
</g>
<defs>
<clipPath id="clip0_7601_3461">
<rect width="200" height="106" fill="white" transform="translate(0 0.471191)"/>
</clipPath>
</defs>
</svg>
