<svg width="80" height="54" viewBox="0 0 80 54" fill="none" xmlns="http://www.w3.org/2000/svg">
<mask id="mask0_4940_3099" style="mask-type:luminance" maskUnits="userSpaceOnUse" x="0" y="0" width="80" height="54">
<path d="M79.4332 0H0.420898V54H79.4332V0Z" fill="white"/>
</mask>
<g mask="url(#mask0_4940_3099)">
<path fill-rule="evenodd" clip-rule="evenodd" d="M34.2671 42.4938C34.585 41.3371 35.7635 40.6589 36.8994 40.9789C38.0353 41.299 38.6983 42.4961 38.3805 43.6527L50.7204 47.1295C52.9921 47.7695 55.3492 46.4131 55.9849 44.0997L62.8921 18.9676C63.5278 16.6543 62.2016 14.2601 59.9299 13.62L47.5615 10.1353C47.549 10.2541 47.5266 10.3734 47.4939 10.4924C47.1761 11.649 45.9977 12.3273 44.8618 12.0072C43.7259 11.6872 43.0627 10.4901 43.3807 9.33345C43.4134 9.21452 43.4551 9.10065 43.505 8.9924L13.3122 0.485683C11.0405 -0.154367 8.68348 1.20211 8.0477 3.51545L1.14059 28.6475C0.504803 30.9609 1.831 33.3551 4.10273 33.9951L34.2671 42.4938ZM38.7221 34.3469C37.5862 34.0268 36.4077 34.7051 36.0898 35.8617C35.772 37.0184 36.4351 38.2155 37.5709 38.5355C38.7068 38.8556 39.8853 38.1773 40.2032 37.0207C40.521 35.864 39.858 34.6669 38.7221 34.3469ZM37.9125 29.2297C38.2304 28.073 39.4089 27.3948 40.5448 27.7148C41.6806 28.0348 42.3437 29.2319 42.0259 30.3886C41.708 31.5453 40.5295 32.2235 39.3936 31.9035C38.2577 31.5834 37.5947 30.3863 37.9125 29.2297ZM42.3675 21.0827C41.2316 20.7627 40.0532 21.4409 39.7352 22.5976C39.4174 23.7543 40.0804 24.9514 41.2163 25.2714C42.3522 25.5914 43.5307 24.9132 43.8486 23.7565C44.1664 22.5998 43.5033 21.4027 42.3675 21.0827ZM41.5579 15.9655C41.8759 14.8089 43.0543 14.1306 44.1902 14.4506C45.326 14.7707 45.9892 15.9678 45.6713 17.1244C45.3534 18.2811 44.1749 18.9593 43.039 18.6393C41.9031 18.3193 41.24 17.1222 41.5579 15.9655Z" fill="#357A91"/>
<path d="M7.78435 26.0064L31.0775 32.5691C31.8391 32.7837 32.6283 32.3325 32.8402 31.5614C33.0521 30.7903 32.6065 29.9912 31.8449 29.7766L8.5518 23.214C7.79021 22.9994 7.00101 23.4505 6.78908 24.2217C6.57716 24.9928 7.02276 25.7918 7.78435 26.0064Z" fill="#2A6476"/>
<path d="M9.7033 19.0252L32.9964 25.5879C33.758 25.8025 34.5472 25.3513 34.7591 24.5802C34.971 23.8091 34.5255 23.01 33.7639 22.7954L10.4707 16.2328C9.70915 16.0182 8.91995 16.4693 8.70803 17.2405C8.4961 18.0116 8.9417 18.8106 9.7033 19.0252Z" fill="#2A6476"/>
<path d="M11.6213 12.0441L34.9144 18.6068C35.676 18.8214 36.4652 18.3702 36.6771 17.5991C36.889 16.828 36.4434 16.0289 35.6818 15.8143L12.3887 9.25166C11.6271 9.03708 10.8379 9.48825 10.626 10.2594C10.4141 11.0305 10.8597 11.8295 11.6213 12.0441Z" fill="#2A6476"/>
<path d="M39.4859 53.2567C56.8417 53.2567 70.9113 52.8665 70.9113 52.3851C70.9113 51.9037 56.8417 51.5135 39.4859 51.5135C22.1302 51.5135 8.06055 51.9037 8.06055 52.3851C8.06055 52.8665 22.1302 53.2567 39.4859 53.2567Z" fill="#D4E9EC" fill-opacity="0.15"/>
<path d="M52.1244 21.6926L49.2854 26.6934C49.0493 27.1094 49.1901 27.6417 49.6001 27.8824C50.01 28.1231 50.5337 27.981 50.7699 27.565L53.6089 22.5642C53.845 22.1482 53.7041 21.6159 53.2942 21.3752C52.8843 21.1345 52.3605 21.2766 52.1244 21.6926Z" fill="#84B6C3"/>
<path fill-rule="evenodd" clip-rule="evenodd" d="M58.9137 50.0608C64.1205 50.0608 68.3413 45.7682 68.3413 40.473C68.3413 35.1778 64.1205 30.8851 58.9137 30.8851C53.707 30.8851 49.4861 35.1778 49.4861 40.473C49.4861 45.7682 53.707 50.0608 58.9137 50.0608ZM58.9137 52.0946C65.2249 52.0946 70.3411 46.8914 70.3411 40.473C70.3411 34.0545 65.2249 28.8513 58.9137 28.8513C52.6026 28.8513 47.4863 34.0545 47.4863 40.473C47.4863 46.8914 52.6026 52.0946 58.9137 52.0946Z" fill="#1F4D5B"/>
<path d="M28.7693 22.0657L27.8401 23.7025C27.6039 24.1185 27.7448 24.6508 28.1547 24.8915C28.5647 25.1322 29.0884 24.9901 29.3246 24.5741L30.2538 22.9373C30.4899 22.5213 30.3491 21.989 29.9391 21.7483C29.5292 21.5076 29.0055 21.6497 28.7693 22.0657Z" fill="#84B6C3"/>
<path fill-rule="evenodd" clip-rule="evenodd" d="M19.488 50.0608C24.6947 50.0608 28.9155 45.7682 28.9155 40.473C28.9155 35.1778 24.6947 30.8851 19.488 30.8851C14.2813 30.8851 10.0603 35.1778 10.0603 40.473C10.0603 45.7682 14.2813 50.0608 19.488 50.0608ZM19.488 52.0946C25.7992 52.0946 30.9153 46.8914 30.9153 40.473C30.9153 34.0545 25.7992 28.8513 19.488 28.8513C13.1768 28.8513 8.06055 34.0545 8.06055 40.473C8.06055 46.8914 13.1768 52.0946 19.488 52.0946Z" fill="#1F4D5B"/>
<path fill-rule="evenodd" clip-rule="evenodd" d="M58.9128 29.2872C52.8382 29.2872 47.9139 34.2952 47.9139 40.473H45.9141C45.9141 33.172 51.7338 27.2534 58.9128 27.2534C66.0917 27.2534 71.9114 33.172 71.9114 40.473C71.9114 40.8022 71.5933 41.0351 71.2845 40.9319L70.5896 40.6996C70.185 40.5644 69.916 40.1805 69.889 39.7499C69.5226 33.9091 64.7484 29.2872 58.9128 29.2872Z" fill="#84B6C3"/>
<path fill-rule="evenodd" clip-rule="evenodd" d="M30.6312 40.6808C30.2078 40.5578 29.9206 40.1645 29.8915 39.7194C29.5267 34.1438 25.1449 29.6859 19.6631 29.3125C19.2227 29.2825 18.8338 28.9906 18.713 28.5608L18.5021 27.8099C18.4237 27.5309 18.6306 27.2534 18.9172 27.2534C26.0961 27.2534 31.9158 33.172 31.9158 40.473C31.9158 40.764 31.6405 40.9741 31.3642 40.8938L30.6312 40.6808Z" fill="#84B6C3"/>
<path d="M58.9135 43.3784C60.4913 43.3784 61.7703 42.0776 61.7703 40.473C61.7703 38.8684 60.4913 37.5676 58.9135 37.5676C57.3357 37.5676 56.0566 38.8684 56.0566 40.473C56.0566 42.0776 57.3357 43.3784 58.9135 43.3784Z" fill="#002329"/>
<mask id="mask1_4940_3099" style="mask-type:luminance" maskUnits="userSpaceOnUse" x="56" y="37" width="6" height="7">
<path d="M58.9135 43.3784C60.4913 43.3784 61.7703 42.0776 61.7703 40.473C61.7703 38.8684 60.4913 37.5676 58.9135 37.5676C57.3357 37.5676 56.0566 38.8684 56.0566 40.473C56.0566 42.0776 57.3357 43.3784 58.9135 43.3784Z" fill="white"/>
</mask>
<g mask="url(#mask1_4940_3099)">
<path d="M58.3134 40.473C58.3134 40.1592 58.5675 39.8784 58.9133 39.8784V46.8784C62.4146 46.8784 65.227 43.9959 65.227 40.473H58.3134ZM58.9133 39.8784C59.2591 39.8784 59.5132 40.1592 59.5132 40.473H52.5996C52.5996 43.9959 55.412 46.8784 58.9133 46.8784V39.8784ZM59.5132 40.473C59.5132 40.7867 59.2591 41.0676 58.9133 41.0676V34.0676C55.412 34.0676 52.5996 36.95 52.5996 40.473H59.5132ZM58.9133 41.0676C58.5675 41.0676 58.3134 40.7867 58.3134 40.473H65.227C65.227 36.95 62.4146 34.0676 58.9133 34.0676V41.0676Z" fill="#002329"/>
</g>
<path d="M19.4887 43.3784C21.0665 43.3784 22.3455 42.0776 22.3455 40.473C22.3455 38.8684 21.0665 37.5676 19.4887 37.5676C17.9109 37.5676 16.6318 38.8684 16.6318 40.473C16.6318 42.0776 17.9109 43.3784 19.4887 43.3784Z" fill="#002329"/>
<mask id="mask2_4940_3099" style="mask-type:luminance" maskUnits="userSpaceOnUse" x="16" y="37" width="7" height="7">
<path d="M19.4887 43.3784C21.0665 43.3784 22.3455 42.0776 22.3455 40.473C22.3455 38.8684 21.0665 37.5676 19.4887 37.5676C17.9109 37.5676 16.6318 38.8684 16.6318 40.473C16.6318 42.0776 17.9109 43.3784 19.4887 43.3784Z" fill="white"/>
</mask>
<g mask="url(#mask2_4940_3099)">
<path d="M18.8885 40.473C18.8885 40.1592 19.1427 39.8784 19.4884 39.8784V46.8784C22.9897 46.8784 25.8021 43.9959 25.8021 40.473H18.8885ZM19.4884 39.8784C19.8342 39.8784 20.0884 40.1592 20.0884 40.473H13.1748C13.1748 43.9959 15.9871 46.8784 19.4884 46.8784V39.8784ZM20.0884 40.473C20.0884 40.7867 19.8342 41.0676 19.4884 41.0676V34.0676C15.9871 34.0676 13.1748 36.95 13.1748 40.473H20.0884ZM19.4884 41.0676C19.1427 41.0676 18.8885 40.7867 18.8885 40.473H25.8021C25.8021 36.95 22.9897 34.0676 19.4884 34.0676V41.0676Z" fill="#002329"/>
</g>
<path d="M44.3611 41.5149L35.8133 26.458C35.5414 25.9792 34.9386 25.8156 34.4667 26.0927L32.7117 27.1231C32.2399 27.4002 32.0777 28.0129 32.3495 28.4918L40.8973 43.5486C41.1692 44.0275 41.7721 44.191 42.2439 43.914L43.9989 42.8835C44.4708 42.6064 44.6329 41.9937 44.3611 41.5149Z" fill="#AED0D8"/>
<path d="M34.8348 25.692L28.8285 24.0553C28.3018 23.9118 27.7608 24.228 27.6202 24.7616L27.0942 26.7582C26.9536 27.2918 27.2666 27.8407 27.7933 27.9843L33.7996 29.621C34.3263 29.7645 34.8673 29.4483 35.0079 28.9147L35.5339 26.9181C35.6745 26.3845 35.3615 25.8356 34.8348 25.692Z" fill="#AED0D8"/>
<path d="M49.2002 21.6215C49.2002 21.1215 49.6004 20.7162 50.0942 20.7162H55.5244C56.1339 20.7162 56.6279 21.2165 56.6279 21.8335C56.6279 22.4846 56.0805 22.9977 55.4394 22.9476L50.0254 22.524C49.5597 22.4876 49.2002 22.0944 49.2002 21.6215Z" fill="#AED0D8"/>
<path d="M49.1425 25.7831L41.1221 39.911C40.8502 40.3898 41.0124 41.0026 41.4843 41.2797L42.2496 41.729C42.7215 42.0061 43.3244 41.8425 43.5962 41.3637L51.6166 27.2358C51.8885 26.757 51.7263 26.1442 51.2544 25.8672L50.4891 25.4178C50.0172 25.1407 49.4143 25.3043 49.1425 25.7831Z" fill="#AED0D8"/>
<path d="M45.1859 41.6351C45.1859 42.9224 44.1619 43.9527 42.9148 43.9527C41.6676 43.9527 40.6436 42.9224 40.6436 41.6351C40.6436 40.3479 41.6676 39.3176 42.9148 39.3176C44.1619 39.3176 45.1859 40.3479 45.1859 41.6351Z" stroke="#143842" stroke-width="3.5"/>
<path d="M27.0482 23.9341L17.8925 40.0618C17.6207 40.5406 17.7828 41.1534 18.2547 41.4305L19.02 41.8798C19.4919 42.1569 20.0948 41.9933 20.3666 41.5145L29.5223 25.3868C29.7941 24.908 29.632 24.2953 29.1601 24.0182L28.3948 23.5688C27.9229 23.2918 27.32 23.4553 27.0482 23.9341Z" fill="#AED0D8"/>
<path d="M28.2859 22.1749C27.8907 21.9428 27.7033 21.4661 27.8325 21.0221L27.9595 20.5862L30.1647 21.8811C30.4498 22.0485 30.5478 22.4187 30.3836 22.7081C30.2193 22.9974 29.8551 23.0962 29.5699 22.9288L28.2859 22.1749Z" fill="#84B6C3"/>
<path d="M20.7792 17.5844L21.9633 22.079C22.0447 22.3878 22.3577 22.5708 22.6626 22.4877C22.9674 22.4046 23.1485 22.087 23.0671 21.7782L21.883 17.2836C21.8016 16.9748 21.4885 16.7918 21.1837 16.8749C20.8789 16.958 20.6978 17.2756 20.7792 17.5844Z" fill="#84B6C3"/>
<path d="M26.916 15.1054V22.0835C26.916 22.403 27.1718 22.662 27.4874 22.662C27.8029 22.662 28.0588 22.403 28.0588 22.0835V15.1054C28.0588 14.7859 27.8029 14.5269 27.4874 14.5269C27.1718 14.5269 26.916 14.7859 26.916 15.1054Z" fill="#84B6C3"/>
<path d="M27.9314 22.0808C27.9314 22.4017 27.6744 22.6619 27.3575 22.6619H22.5583C22.2413 22.6619 21.9844 22.4017 21.9844 22.0808C21.9844 21.7599 22.2413 21.4997 22.5583 21.4997H27.3575C27.6744 21.4997 27.9314 21.7599 27.9314 22.0808Z" fill="#84B6C3"/>
<path d="M27.4595 16.9257C28.2215 17.1333 29.0048 16.6734 29.2089 15.8985C29.4131 15.1235 28.9609 14.3269 28.1989 14.1193C27.4369 13.9116 26.6536 14.3715 26.4494 15.1465C26.2453 15.9215 26.6975 16.718 27.4595 16.9257Z" fill="#AED0D8"/>
<path d="M19.4884 41.0541C19.8039 41.0541 20.0597 40.7939 20.0597 40.473C20.0597 40.1521 19.8039 39.8919 19.4884 39.8919C19.1728 39.8919 18.917 40.1521 18.917 40.473C18.917 40.7939 19.1728 41.0541 19.4884 41.0541Z" fill="#004E5C"/>
<path d="M48.6201 28.8719L58.4703 40.4256C58.774 40.7817 59.3042 40.8199 59.6546 40.5109C60.005 40.2019 60.0429 39.6628 59.7393 39.3066L49.889 27.753C49.5854 27.3968 49.0552 27.3586 48.7048 27.6676C48.3544 27.9766 48.3165 28.5158 48.6201 28.8719Z" fill="#AED0D8"/>
<path d="M44.4739 41.6351H59.0684C59.6139 41.6351 60.0561 41.1874 60.0561 40.6351V40.3108C60.0561 39.7585 59.6139 39.3108 59.0684 39.3108H44.4739C43.9285 39.3108 43.4863 39.7585 43.4863 40.3108V40.6351C43.4863 41.1874 43.9285 41.6351 44.4739 41.6351Z" fill="#AED0D8"/>
<path d="M42.915 37.5676H56.9135V40.473L45.7718 42.5068L42.0579 44.8311L39.7725 41.3446L42.915 37.5676Z" fill="#143842"/>
<path d="M56.9128 40.473C57.7017 40.473 58.3412 39.8226 58.3412 39.0203C58.3412 38.218 57.7017 37.5676 56.9128 37.5676C56.1239 37.5676 55.4844 38.218 55.4844 39.0203C55.4844 39.8226 56.1239 40.473 56.9128 40.473Z" fill="#143842"/>
<path d="M58.9132 41.0541C59.2287 41.0541 59.4845 40.7939 59.4845 40.473C59.4845 40.1521 59.2287 39.8919 58.9132 39.8919C58.5976 39.8919 58.3418 40.1521 58.3418 40.473C58.3418 40.7939 58.5976 41.0541 58.9132 41.0541Z" fill="#004E5C"/>
<path d="M43.4859 47.4459C43.4859 47.7669 43.2289 48.027 42.912 48.027H40.0603C39.7433 48.027 39.4863 47.7669 39.4863 47.4459C39.4863 47.125 39.7433 46.8649 40.0603 46.8649H42.912C43.2289 46.8649 43.4859 47.125 43.4859 47.4459Z" fill="#007C92"/>
<path d="M41.3391 47.672C41.0343 47.5889 40.8531 47.2712 40.9345 46.9624L42.2818 41.8488C42.3632 41.54 42.6761 41.357 42.981 41.4401C43.2858 41.5231 43.467 41.8408 43.3856 42.1496L42.0383 47.2632C41.9569 47.572 41.6438 47.755 41.3391 47.672Z" fill="#007C92"/>
</g>
</svg>
