<svg width="122" height="74" viewBox="0 0 122 74" fill="none" xmlns="http://www.w3.org/2000/svg">
<ellipse cx="58.0186" cy="69.5" rx="55" ry="1.5" fill="#202323"/>
<rect x="74.4189" y="26.5825" width="12.9308" height="3" rx="1" transform="rotate(-60 74.4189 26.5825)" fill="#007C92"/>
<path fill-rule="evenodd" clip-rule="evenodd" d="M92.0186 65.5C101.131 65.5 108.519 58.1127 108.519 49C108.519 39.8873 101.131 32.5 92.0186 32.5C82.9059 32.5 75.5186 39.8873 75.5186 49C75.5186 58.1127 82.9059 65.5 92.0186 65.5ZM92.0186 69C103.064 69 112.019 60.0457 112.019 49C112.019 37.9543 103.064 29 92.0186 29C80.9729 29 72.0186 37.9543 72.0186 49C72.0186 60.0457 80.9729 69 92.0186 69Z" fill="#1F4D5B"/>
<rect x="36.8857" y="21.4355" width="6.246" height="3" rx="1" transform="rotate(-60 36.8857 21.4355)" fill="#429EAE"/>
<path fill-rule="evenodd" clip-rule="evenodd" d="M23.0186 65.5C32.1313 65.5 39.5186 58.1127 39.5186 49C39.5186 39.8873 32.1313 32.5 23.0186 32.5C13.9059 32.5 6.51855 39.8873 6.51855 49C6.51855 58.1127 13.9059 65.5 23.0186 65.5ZM23.0186 69C34.0642 69 43.0186 60.0457 43.0186 49C43.0186 37.9543 34.0642 29 23.0186 29C11.9729 29 3.01855 37.9543 3.01855 49C3.01855 60.0457 11.9729 69 23.0186 69Z" fill="#1F4D5B"/>
<path fill-rule="evenodd" clip-rule="evenodd" d="M92.0186 29.75C81.3871 29.75 72.7686 38.3685 72.7686 49H69.2686C69.2686 36.4355 79.4541 26.25 92.0186 26.25C104.583 26.25 114.769 36.4355 114.769 49C114.769 49.567 114.214 49.9682 113.676 49.7912L111.956 49.226C111.546 49.0912 111.271 48.7067 111.255 48.275C110.874 37.9795 102.407 29.75 92.0186 29.75Z" fill="#007C92"/>
<path fill-rule="evenodd" clip-rule="evenodd" d="M41.9939 49.2072C41.5646 49.0846 41.2713 48.691 41.2541 48.2448C40.8671 38.2139 32.8047 30.1515 22.7738 29.7645C22.3277 29.7473 21.9341 29.454 21.8114 29.0247L21.2933 27.2116C21.1556 26.7297 21.5175 26.25 22.0187 26.25C34.5831 26.25 44.7687 36.4355 44.7687 49C44.7687 49.5011 44.289 49.863 43.8071 49.7253L41.9939 49.2072Z" fill="#007C92"/>
<circle cx="92.0186" cy="49" r="3.25" fill="#002329" stroke="#002329" stroke-width="3.5"/>
<circle cx="23.0186" cy="49" r="3.25" fill="#002329" stroke="#002329" stroke-width="3.5"/>
<rect x="50.7275" y="23.3892" width="33.366" height="7" rx="1" transform="rotate(60 50.7275 23.3892)" fill="#5C9CAC"/>
<rect x="37.6963" y="20.299" width="14.339" height="7" rx="1" transform="rotate(15 37.6963 20.299)" fill="#5C9CAC"/>
<path d="M75.0186 16.5576C75.0186 15.6974 75.7159 15 76.5762 15L86.0954 15C87.1575 15 88.0186 15.861 88.0186 16.9232C88.0186 18.0435 87.0648 18.9266 85.9479 18.8407L76.4567 18.1106C75.6452 18.0482 75.0186 17.3715 75.0186 16.5576Z" fill="#006678"/>
<rect x="60.0186" y="49.525" width="31.52" height="5" rx="1" transform="rotate(-60 60.0186 49.525)" fill="#5C9CAC"/>
<circle cx="64.0186" cy="51" r="5.25" stroke="#006678" stroke-width="3.5"/>
<rect x="19.3643" y="49.7844" width="35.494" height="5" rx="1" transform="rotate(-60 19.3643 49.7844)" fill="#5C9CAC"/>
<path d="M37.9184 17.2235C37.518 16.9923 37.3283 16.5168 37.4596 16.0735L37.8437 14.7763L41.7408 17.0263C42.2191 17.3024 42.383 17.914 42.1069 18.3923L42.0659 18.4633C41.7897 18.9416 41.1781 19.1055 40.6998 18.8293L37.9184 17.2235Z" fill="#429EAE"/>
<rect x="27.6064" y="18.3074" width="10" height="2" rx="1" transform="rotate(-105 27.6064 18.3074)" fill="#429EAE"/>
<rect x="36.0186" y="18.3485" width="14" height="2" rx="1" transform="rotate(-90 36.0186 18.3485)" fill="#429EAE"/>
<path d="M37.795 17.3484C37.795 17.9007 37.3472 18.3484 36.795 18.3484L28.3865 18.3484C27.8342 18.3484 27.3865 17.9007 27.3865 17.3484C27.3865 16.7961 27.8342 16.3484 28.3865 16.3484L36.795 16.3484C37.3472 16.3484 37.795 16.7961 37.795 17.3484Z" fill="#429EAE"/>
<circle cx="37.6174" cy="6.06186" r="2.5" transform="rotate(15 37.6174 6.06186)" fill="#1F4D5B"/>
<circle cx="23.0186" cy="49" r="1" fill="#004E5C"/>
<rect x="92.2061" y="50.0281" width="29.2538" height="2.93942" rx="1" transform="rotate(-130.927 92.2061 50.0281)" fill="#5C9CAC"/>
<rect x="94.0186" y="51" width="29" height="4" rx="1" transform="rotate(180 94.0186 51)" fill="#5C9CAC"/>
<path d="M64.0186 44H88.5186V49L69.0186 52.5L62.5186 56.5L58.5186 50.5L64.0186 44Z" fill="#006678"/>
<circle cx="88.5186" cy="46.5" r="2.5" fill="#006678"/>
<circle cx="92.0186" cy="49" r="1" fill="#004E5C"/>
<path d="M65.0186 61C65.0186 61.5523 64.5708 62 64.0186 62L59.0186 62C58.4663 62 58.0186 61.5523 58.0186 61C58.0186 60.4477 58.4663 60 59.0186 60L64.0186 60C64.5708 60 65.0186 60.4477 65.0186 61Z" fill="#429EAE"/>
<path d="M61.2599 61.3889C60.7264 61.246 60.4098 60.6977 60.5528 60.1642L62.9088 51.3714C63.0517 50.8379 63.6001 50.5213 64.1335 50.6643C64.667 50.8072 64.9836 51.3556 64.8406 51.889L62.4846 60.6818C62.3417 61.2153 61.7933 61.5319 61.2599 61.3889Z" fill="#429EAE"/>
</svg>
