<svg width="93" height="92" viewBox="0 0 93 92" fill="none" xmlns="http://www.w3.org/2000/svg">
<path d="M43 88L43 11C43 10.4477 43.4477 10 44 10L48 10C48.5523 10 49 10.4477 49 11L49 88L43 88Z" fill="#006678"/>
<path d="M42.5 88C42.2239 88 42 87.7761 42 87.5L42 73C42 72.4477 42.4477 72 43 72L49 72C49.5523 72 50 72.4477 50 73L50 87.5C50 87.7761 49.7761 88 49.5 88L42.5 88Z" fill="#006678"/>
<rect x="15.0654" y="4" width="61.7023" height="33.2328" rx="2" fill="#007C92"/>
<path d="M20.6748 27.3519V13.6929H26.1965C29.0052 13.6929 30.9033 15.5198 30.9033 18.2554V18.2743C30.9033 21.0004 29.0052 22.8368 26.1965 22.8368H23.148V27.3519H20.6748ZM25.5925 15.6902H23.148V20.8679H25.5925C27.366 20.8679 28.4013 19.9214 28.4013 18.2838V18.2648C28.4013 16.6273 27.366 15.6902 25.5925 15.6902Z" fill="white"/>
<path d="M33.7079 21.5921V19.4528H37.9067V15.3541H40.0732V19.4528H44.2719V21.5921H40.0732V25.6907H37.9067V21.5921H33.7079Z" fill="white"/>
<path fill-rule="evenodd" clip-rule="evenodd" d="M71.8527 23.031L70.6256 15.5951C70.6032 15.4518 70.5298 15.3211 70.4187 15.2263C70.3076 15.1315 70.166 15.0788 70.0191 15.0776H48.546C47.9325 15.0776 47.319 15.6973 47.319 16.3186V24.8432C47.319 25.1513 47.5434 25.4629 47.8449 25.4629H50.5566C50.9703 24.2184 52.1447 23.3858 53.5418 23.3858C54.9389 23.3858 56.1151 24.2184 56.527 25.4629H62.7393C63.153 24.2184 64.3274 23.3858 65.7245 23.3858C67.1216 23.3858 68.296 24.2184 68.7097 25.4629H71.2461C71.5845 25.4629 71.8597 25.1842 71.8597 24.8432V23.1331C71.8597 23.0985 71.8562 23.0639 71.8527 23.0292V23.031ZM66.8744 18.1759C66.8744 17.8332 67.1514 17.5562 67.4879 17.5562H69.3933C69.544 17.5566 69.6892 17.6116 69.8014 17.7109C69.9135 17.8102 69.9848 17.9467 70.0016 18.0945L70.3259 20.5731C70.3373 20.6603 70.3299 20.7488 70.3042 20.8329C70.2786 20.917 70.2352 20.9949 70.1769 21.0612C70.1205 21.1273 70.0502 21.1804 69.9709 21.2169C69.8915 21.2534 69.8051 21.2723 69.7176 21.2724H67.4879C67.4064 21.2715 67.3259 21.2548 67.251 21.2231C67.176 21.1915 67.1081 21.1456 67.0512 21.0881C66.9942 21.0305 66.9493 20.9625 66.9189 20.8878C66.8886 20.8131 66.8735 20.7332 66.8744 20.6528V18.1759ZM59.5122 18.1759C59.5122 17.8332 59.7874 17.5562 60.1257 17.5562H65.0338C65.3722 17.5562 65.6474 17.8332 65.6474 18.1759V20.651C65.6483 20.7315 65.6332 20.8113 65.6028 20.886C65.5725 20.9607 65.5276 21.0288 65.4706 21.0863C65.4136 21.1439 65.3457 21.1898 65.2708 21.2214C65.1958 21.253 65.1153 21.2698 65.0338 21.2707H60.1257C60.0442 21.2698 59.9637 21.253 59.8888 21.2214C59.8138 21.1898 59.7459 21.1439 59.689 21.0863C59.632 21.0288 59.5871 20.9607 59.5567 20.886C59.5264 20.8113 59.5113 20.7315 59.5122 20.651V18.1759ZM52.15 18.1759C52.15 17.8332 52.4252 17.5562 52.7635 17.5562H57.6716C58.0117 17.5562 58.2869 17.8332 58.2869 18.1759V20.651C58.2883 20.8134 58.2246 20.9697 58.1096 21.0858C57.9947 21.2019 57.8378 21.2684 57.6734 21.2707H52.7653C52.6838 21.2698 52.6033 21.253 52.5283 21.2214C52.4534 21.1898 52.3855 21.1439 52.3285 21.0863C52.2715 21.0288 52.2266 20.9607 52.1963 20.886C52.1659 20.8113 52.1508 20.7315 52.1517 20.651V18.1759H52.15ZM48.4689 18.1759C48.4689 17.8332 48.7458 17.5562 49.0824 17.5562H50.3112C50.6495 17.5562 50.923 17.8332 50.923 18.1759V20.651C50.9241 20.7314 50.9092 20.8112 50.8791 20.8859C50.8489 20.9606 50.8041 21.0287 50.7473 21.0862C50.6905 21.1438 50.6227 21.1897 50.5479 21.2214C50.473 21.253 50.3926 21.2698 50.3112 21.2707H49.0842C49.0027 21.2698 48.9222 21.253 48.8472 21.2214C48.7723 21.1898 48.7044 21.1439 48.6474 21.0863C48.5904 21.0288 48.5455 20.9607 48.5152 20.886C48.4848 20.8113 48.4697 20.7315 48.4706 20.651V18.1759H48.4689Z" fill="white"/>
<path d="M63.9715 26.8476C63.9613 26.614 63.9991 26.3808 64.0827 26.162C64.1662 25.9432 64.2938 25.7435 64.4577 25.5747C64.6216 25.406 64.8185 25.2718 65.0363 25.1802C65.2542 25.0886 65.4886 25.0416 65.7254 25.042C65.9622 25.0423 66.1965 25.09 66.4141 25.1823C66.6317 25.2745 66.8281 25.4092 66.9915 25.5785C67.1549 25.7477 67.2819 25.9479 67.3647 26.1669C67.4477 26.3859 67.4848 26.6192 67.4738 26.8528C67.453 27.298 67.259 27.7181 66.9324 28.0256C66.6057 28.3331 66.1715 28.5044 65.7201 28.5037C65.2688 28.5031 64.8351 28.3305 64.5094 28.022C64.1837 27.7135 63.991 27.2928 63.9715 26.8476Z" fill="white"/>
<path d="M53.5419 25.1163C52.576 25.1163 51.789 25.8935 51.789 26.8472C51.789 27.3063 51.9737 27.7465 52.3024 28.0711C52.6311 28.3957 53.077 28.5781 53.5419 28.5781C54.0068 28.5781 54.4526 28.3957 54.7814 28.0711C55.1101 27.7465 55.2948 27.3063 55.2948 26.8472C55.2948 25.8935 54.5077 25.1163 53.5419 25.1163Z" fill="white"/>
<ellipse cx="46" cy="88.5" rx="26" ry="1.5" fill="#202323"/>
</svg>
