<svg width="928" height="248" viewBox="0 0 928 248" fill="none" xmlns="http://www.w3.org/2000/svg">
<path d="M0 209.393H7.21501L15.9213 234.023L25.8321 209.393H32.7543V238.708H27.0759V223.998L27.2419 217.984L19.1545 238.708H12.3953L5.26484 217.685L5.63918 223.998V238.718H0V209.393Z" fill="#53575A"/>
<path d="M37.6992 237.962L40.392 235.1C39.0667 233.192 38.3603 230.665 38.3603 227.595C38.3603 219.966 42.9218 215.52 49.6387 215.52C52.7058 215.52 55.1108 216.224 56.8537 217.633L59.3382 215.021L61.1223 216.806L58.6771 219.459C60.0054 221.446 60.6665 224.105 60.6665 227.381C60.6665 235.175 55.8575 239.154 49.3066 239.154C46.3633 239.154 43.9573 238.363 42.1731 236.953L39.5618 239.734L37.6992 237.962ZM53.2885 221.337C52.4583 220.464 51.2175 219.924 49.5119 219.924C45.1165 219.924 43.915 223.547 43.915 227.429C43.915 228.676 44.0418 229.919 44.4554 230.913L53.2885 221.337ZM55.0696 227.375C55.1051 226.136 54.9232 224.901 54.5322 223.725L45.6569 233.301C46.5625 234.173 47.8153 234.713 49.5813 234.713C53.9918 234.728 55.0696 231.492 55.0696 227.39V227.375Z" fill="#53575A"/>
<path d="M65.7744 216.07H71.2898V219.089C72.3706 217.552 74.5653 215.608 77.3848 215.608C78.3786 215.571 79.3717 215.696 80.3252 215.979L79.5403 220.541C78.5851 220.346 77.6105 220.263 76.6362 220.293C75.614 220.322 74.6093 220.566 73.688 221.01C72.7667 221.453 71.9495 222.087 71.2898 222.868V238.708H65.7744V216.07Z" fill="#53575A"/>
<path d="M81.2822 227.759C81.2822 218.515 85.9674 215.529 92.3523 215.529C98.9031 215.529 101.56 219.843 101.56 226.934V228.921H86.7976C86.7976 233.896 89.907 234.729 93.9281 234.729C95.507 234.729 98.1997 234.189 100.068 233.823L100.935 238.095C98.3324 238.839 95.6386 239.215 92.9319 239.212C85.8014 239.203 81.2822 236.637 81.2822 227.759ZM95.8783 225.232C95.9205 221.83 94.55 219.469 91.8119 219.469C89.0738 219.469 87.172 221.501 86.9244 225.232H95.8783Z" fill="#53575A"/>
<path d="M114.915 227.596C114.915 219.967 119.476 215.49 126.193 215.49C133.74 215.49 137.221 219.925 137.221 227.39C137.221 235.185 132.412 239.203 125.861 239.203C118.855 239.203 114.915 234.814 114.915 227.596ZM131.624 227.39C131.624 223.532 130.547 219.883 126.07 219.883C121.671 219.883 120.47 223.532 120.47 227.43C120.47 231.62 121.84 234.768 126.151 234.768C130.547 234.768 131.624 231.493 131.624 227.39Z" fill="#53575A"/>
<path d="M142.615 246.832L143.521 242.358C145.598 242.811 148.653 243.263 150.41 243.263C153.891 243.263 156.258 242.765 156.258 238.783V237.576C155.039 238.537 153.535 239.068 151.983 239.085C146.803 239.085 140.955 237.757 140.955 227.517C140.955 219.596 146.347 215.493 152.855 215.493C156.046 215.493 158.534 215.907 161.728 216.529V239.372C161.728 245.594 156.336 248 151.237 248C148.327 247.959 145.432 247.567 142.615 246.832ZM156.215 233.772V220.489C155.106 220.194 153.964 220.041 152.816 220.033C148.288 220.033 146.477 223.143 146.477 227.538C146.477 232.93 148.671 234.753 152.321 234.753C153.677 234.732 155.01 234.396 156.215 233.772Z" fill="#53575A"/>
<path d="M193.205 233.278L189.102 227.886C188.428 227.97 187.75 228.012 187.071 228.01H184.209V238.708H178.53V209.393H189.226C195.445 209.393 199.84 212.297 199.84 218.597C199.84 221.918 198.267 224.9 194.823 226.558L198.446 231.038C200.184 233.151 202.131 234.189 204.704 234.85L203.46 239.204C199.258 238.998 196.067 236.846 193.205 233.278ZM187.318 223.865C191.632 223.865 193.993 222.247 193.993 218.808C193.993 215.24 192.335 213.873 188.314 213.873H184.209V223.865H187.318Z" fill="#53575A"/>
<path d="M207.022 227.596C207.022 219.967 211.581 215.49 218.298 215.49C225.845 215.49 229.329 219.925 229.329 227.39C229.329 235.185 224.517 239.203 217.966 239.203C210.959 239.203 207.022 234.814 207.022 227.596ZM223.729 227.39C223.729 223.532 222.651 219.883 218.171 219.883C213.779 219.883 212.577 223.532 212.577 227.43C212.577 231.62 213.945 234.768 218.259 234.768C222.651 234.768 223.741 231.493 223.741 227.39H223.729Z" fill="#53575A"/>
<path d="M234.431 216.07H239.949V218.515C241.812 217.006 244.547 215.496 247.285 215.496C250.642 215.496 252.673 216.864 253.588 218.895C255.33 217.359 258.316 215.496 261.507 215.496C268.598 215.496 268.679 220.51 268.679 224.368V238.714H263.164V224.984C263.164 221.914 262.503 220.299 259.599 220.299C257.736 220.299 255.674 221.205 254.165 222.162C254.249 222.879 254.292 223.601 254.292 224.323V238.708H248.821V224.984C248.821 221.706 248.197 220.338 245.338 220.338C243.554 220.338 241.413 221.244 239.949 222.15V238.696H234.431V216.07Z" fill="#53575A"/>
<path d="M273.552 238.249L274.21 233.984C276.577 234.355 278.898 234.729 280.643 234.729C284.166 234.729 285.201 233.648 285.201 232.405C285.201 228.921 273.802 230.292 273.802 222.289C273.802 217.727 277.944 215.49 282.672 215.49C284.988 215.493 287.287 215.886 289.473 216.652L288.567 220.755C286.783 220.338 285.084 219.925 282.678 219.925C280.151 219.925 279.318 221.045 279.318 221.999C279.318 225.621 290.641 224.61 290.641 232.112C290.641 237.796 284.957 239.203 281.186 239.203C278.61 239.237 276.041 238.916 273.552 238.249Z" fill="#53575A"/>
<path d="M294.148 227.181C294.148 219.384 299.374 215.49 305.843 215.49C307.041 215.481 308.236 215.605 309.406 215.861V207.444H314.909V238.707H309.394V236.881C308.277 237.835 306.743 239.082 304.005 239.082C299.664 239.091 294.148 237.089 294.148 227.181ZM309.406 233.026V220.347C308.271 220.04 307.1 219.887 305.925 219.891C301.445 219.891 299.664 223.085 299.664 227.311C299.664 232.706 302.025 234.487 304.971 234.487C306.586 234.478 308.409 233.566 309.406 233.026Z" fill="#53575A"/>
<path d="M319.82 232.405C319.82 226.724 324.952 225.564 329.149 225.522L333.625 225.483V223.49C333.625 220.882 332.116 220.257 328.856 220.257C326.7 220.257 324.216 220.837 322.555 221.251L321.435 217.145C324.123 216.113 326.973 215.571 329.852 215.545C336.116 215.545 339.014 217.411 339.014 222.262V233.293C339.014 234.37 339.92 234.621 341.088 234.702L340.84 238.929H339.633C337.218 238.929 334.619 238.349 334.121 236.354C332.668 237.434 330.35 239.095 327.069 239.095C322.471 239.092 319.82 236.758 319.82 232.405ZM333.625 233.311V228.828L329.435 228.994C326.824 229.036 325.17 230.114 325.17 231.976C325.17 233.972 326.579 234.718 328.318 234.718C330.226 234.73 332.46 233.691 333.625 233.317V233.311Z" fill="#53575A"/>
<path d="M346.483 207.444H351.996V238.707H346.483V207.444Z" fill="#53575A"/>
<path d="M368.707 220.049H365.387V216.071H368.707V214.495C368.707 208.071 372.605 206.407 377.085 206.407C378.392 206.373 379.695 206.556 380.943 206.948L380.037 211.343C379.147 211.188 378.244 211.119 377.341 211.135C375.183 211.135 374.271 212.382 374.271 214.785V216.071H379.125V220.049H374.271V246.959H368.713L368.707 220.049Z" fill="#53575A"/>
<path d="M390.441 238.709H388.328L380.741 216.067H386.67L390.984 230.54L392.023 234.355L393.23 230.585L398.166 216.07H403.76L392.681 247.847H387.362L390.441 238.709Z" fill="#53575A"/>
<path d="M407.484 207.444H413V238.707H407.484V207.444Z" fill="#53575A"/>
<path d="M419.473 207.444H424.985V225.935L432.834 216.108H438.887L430.132 226.557L433.852 231.037C435.636 233.11 437.254 234.357 439.533 234.961L438.787 239.154C435.971 238.985 433.148 238.568 430.247 234.801L424.979 227.954V238.695H419.467L419.473 207.444Z" fill="#53575A"/>
<path d="M442.114 227.759C442.114 218.515 446.796 215.529 453.184 215.529C459.735 215.529 462.389 219.843 462.389 226.934V228.921H447.63C447.63 233.896 450.739 234.729 454.76 234.729C456.339 234.729 459.032 234.189 460.894 233.823L461.77 238.095C459.167 238.839 456.474 239.215 453.767 239.212C446.636 239.203 442.114 236.637 442.114 227.759ZM456.71 225.232C456.747 221.83 455.379 219.469 452.644 219.469C449.909 219.469 448.001 221.501 447.75 225.232H456.71Z" fill="#53575A"/>
<path d="M465.878 238.249L466.542 233.984C468.903 234.355 471.224 234.729 472.966 234.729C476.489 234.729 477.528 233.648 477.528 232.405C477.528 228.921 466.125 230.292 466.125 222.289C466.125 217.727 470.27 215.49 474.998 215.49C477.313 215.493 479.612 215.886 481.796 216.652L480.891 220.755C479.106 220.338 477.407 219.925 475.001 219.925C472.474 219.925 471.647 221.045 471.647 221.999C471.647 225.621 482.962 224.61 482.962 232.112C482.962 237.796 477.283 239.203 473.51 239.203C470.934 239.237 468.366 238.916 465.878 238.249Z" fill="#53575A"/>
<path d="M487.856 207.444H493.371V225.935L501.205 216.108H507.258L498.503 226.557L502.234 231.037C504.019 233.11 505.631 234.357 507.919 234.961L507.17 239.154C504.351 238.985 501.528 238.568 498.63 234.801L493.362 227.954V238.695H487.847L487.856 207.444Z" fill="#53575A"/>
<path d="M510.496 227.596C510.496 219.967 515.061 215.49 521.774 215.49C529.322 215.49 532.805 219.925 532.805 227.39C532.805 235.185 527.996 239.203 521.448 239.203C514.454 239.203 510.496 234.814 510.496 227.596ZM527.208 227.39C527.208 223.532 526.131 219.883 521.654 219.883C517.258 219.883 516.054 223.532 516.054 227.43C516.054 231.62 517.424 234.768 521.735 234.768C526.131 234.768 527.208 231.493 527.208 227.39Z" fill="#53575A"/>
<path d="M537.91 216.07H543.435V218.515C545.297 217.006 548.032 215.496 550.77 215.496C554.133 215.496 556.162 216.864 557.074 218.895C558.816 217.359 561.801 215.496 564.995 215.496C572.083 215.496 572.168 220.51 572.168 224.368V238.714H566.655V224.984C566.655 221.914 565.994 220.299 563.087 220.299C561.222 220.299 559.163 221.205 557.653 222.162C557.739 222.879 557.782 223.601 557.78 224.323V238.708H552.307V224.984C552.307 221.706 551.685 220.338 548.826 220.338C547.042 220.338 544.884 221.244 543.435 222.15V238.696H537.91V216.07Z" fill="#53575A"/>
<path d="M578.508 216.07H584.023V218.515C585.889 217.006 588.627 215.496 591.365 215.496C594.719 215.496 596.754 216.864 597.668 218.895C599.41 217.359 602.39 215.496 605.59 215.496C612.675 215.496 612.759 220.51 612.759 224.368V238.714H607.244V224.984C607.244 221.914 606.58 220.299 603.679 220.299C601.813 220.299 599.754 221.205 598.245 222.162C598.328 222.879 598.37 223.601 598.369 224.323V238.708H592.896V224.984C592.896 221.706 592.274 220.338 589.415 220.338C587.631 220.338 585.49 221.244 584.023 222.15V238.696H578.508V216.07Z" fill="#53575A"/>
<path d="M619.026 230.288V216.069H624.542V229.654C624.542 232.933 625.079 234.342 628.065 234.342C630.429 234.342 632.877 233.135 633.952 232.558V216.069H639.467V238.711H633.952V236.262C632.463 237.343 629.556 239.206 626.323 239.206C619.525 239.203 619.026 234.934 619.026 230.288Z" fill="#53575A"/>
<path d="M645.9 216.07H651.416V218.485C653.073 217.277 655.854 215.499 659.005 215.499C665.927 215.499 666.383 219.683 666.383 224.371V238.717H660.907V224.984C660.907 221.543 660.246 220.299 657.221 220.299C654.939 220.299 652.78 221.337 651.416 222.083V238.708H645.9V216.07Z" fill="#53575A"/>
<path d="M671.363 227.759C671.363 218.515 676.048 215.529 682.433 215.529C688.984 215.529 691.638 219.843 691.638 226.934V228.921H676.867C676.867 233.896 679.976 234.729 683.997 234.729C685.573 234.729 688.266 234.189 690.131 233.823L691.01 238.095C688.405 238.839 685.71 239.215 683.001 239.212C675.882 239.203 671.363 236.637 671.363 227.759ZM685.959 225.232C685.999 221.83 684.628 219.469 681.893 219.469C679.113 219.469 677.25 221.501 676.999 225.232H685.959Z" fill="#53575A"/>
<path d="M357.173 0H413.655L484.598 182.371H439.964L386.311 32.7634L341.173 182.371H304.419L302.997 158.914L357.173 0Z" fill="#53575A"/>
<path d="M43.9812 111.181V182.371H0.135742V0H145.471L134.721 34.3151H43.9812V87.6185M43.9812 87.6185H107.558V119.343H43.9812" fill="#53575A"/>
<path d="M231.094 143.171L210.458 119.171C207.366 119.437 204.015 119.437 200.655 119.437H187.252V182.371H143.138V0H214.08C255.073 0 284.485 18.8345 284.485 59.5887C284.485 79.9718 274.683 97.7739 255.073 108.859L273.651 128.983C283.713 139.805 294.251 146.069 320.216 147.85L306.097 182.371C268.721 182.371 250.176 165.359 231.094 143.171ZM202.201 88.7536C228.257 88.7536 239.333 77.913 239.333 60.6332C239.333 42.324 231.855 34.5928 208.387 34.5928H187.255V88.7536H202.201Z" fill="#53575A"/>
<path d="M478.229 0H531.623L582.436 143.171L640.75 0H691.566V182.371H647.715V114.531L649.007 71.7214L605.671 182.371H556.658L519.26 68.615L522.092 114.531V182.371H478.229V0Z" fill="#53575A"/>
<path fill-rule="evenodd" clip-rule="evenodd" d="M833.894 239.203C932.299 164.756 929.003 88.7536 926.757 0.0664062H741.065C738.816 88.7536 735.523 164.756 833.894 239.203Z" fill="#0083BD"/>
<path fill-rule="evenodd" clip-rule="evenodd" d="M836.69 112.125V75.993H860.756V69.9554H836.69V52.748H830.653V69.9554H806.586V75.993H830.653V112.125C830.661 121.037 827.761 129.708 822.394 136.822C817.027 143.937 809.485 149.106 800.914 151.545C801.031 160.155 804.533 168.373 810.663 174.42C816.793 180.468 825.058 183.858 833.668 183.858C842.279 183.858 850.544 180.468 856.674 174.42C862.803 168.373 866.306 160.155 866.423 151.545L866.438 151.524C857.868 149.087 850.327 143.922 844.959 136.812C839.59 129.702 836.687 121.035 836.69 112.125Z" fill="#E7DC76"/>
<path fill-rule="evenodd" clip-rule="evenodd" d="M792.736 72.8749V36.7274H816.802V30.6898H792.736V13.4824H786.699V30.6898H762.617V36.7274H786.699V72.8749C786.699 81.7797 783.796 90.4418 778.429 97.5479C773.062 104.654 765.525 109.816 756.96 112.253V112.271C756.877 116.625 757.662 120.952 759.27 124.999C760.879 129.046 763.278 132.732 766.328 135.841C769.378 138.95 773.017 141.42 777.032 143.106C781.048 144.792 785.359 145.66 789.714 145.66C794.07 145.66 798.381 144.792 802.396 143.106C806.412 141.42 810.051 138.95 813.101 135.841C816.151 132.732 818.55 129.046 820.158 124.999C821.767 120.952 822.552 116.625 822.469 112.271V112.253C813.904 109.816 806.368 104.653 801.002 97.5473C795.637 90.4412 792.735 81.7792 792.736 72.8749Z" fill="#E7DC76"/>
<path fill-rule="evenodd" clip-rule="evenodd" d="M874.622 72.8749V36.7274H850.556V30.6898H874.622V13.4824H880.639V30.6898H904.723V36.7274H880.639V72.8749C880.642 81.7835 883.551 90.4479 888.924 97.5541C894.297 104.66 901.84 109.821 910.41 112.253L910.392 112.271C910.392 116.574 909.545 120.834 907.898 124.81C906.251 128.785 903.838 132.397 900.795 135.44C897.752 138.483 894.14 140.896 890.165 142.543C886.19 144.19 881.929 145.037 877.626 145.037C873.323 145.037 869.062 144.19 865.087 142.543C861.111 140.896 857.499 138.483 854.456 135.44C851.414 132.397 849 128.785 847.354 124.81C845.707 120.834 844.859 116.574 844.859 112.271V112.253C853.429 109.821 860.972 104.661 866.343 97.5542C871.715 90.4477 874.621 81.783 874.622 72.8749Z" fill="#E7DC76"/>
</svg>
