<svg width="40" height="40" viewBox="0 0 40 40" fill="none" xmlns="http://www.w3.org/2000/svg">
<rect x="10" y="10" width="20" height="20" fill="black"/>
<path fill-rule="evenodd" clip-rule="evenodd" d="M2.08008 20.0001C2.08008 10.1001 10.1001 2.08008 20.0001 2.08008C29.9001 2.08008 37.92 10.1001 37.92 20.0001C37.92 29.9001 29.9001 37.9201 20.0001 37.9201C10.1001 37.9201 2.08008 29.9001 2.08008 20.0001ZM20.0001 12.5001C20.9201 12.5001 21.67 13.2501 21.67 14.1701V20.8401C21.67 21.7601 20.9201 22.5101 20.0001 22.5101C19.0801 22.5101 18.3301 21.7601 18.3301 20.8401V14.1701C18.3301 13.2501 19.0801 12.5001 20.0001 12.5001ZM20.0001 24.1701C19.0801 24.1701 18.3301 24.9201 18.3301 25.8401C18.3301 26.7601 19.0801 27.5101 20.0001 27.5101H20.0201C20.9401 27.5101 21.6901 26.7601 21.6901 25.8401C21.6901 24.9201 20.9401 24.1701 20.0201 24.1701H20.0001Z" fill="#E6D220"/>
</svg>
