<svg width="18" height="16" viewBox="0 0 18 16" fill="#0181A2" xmlns="http://www.w3.org/2000/svg">
  <path d="M13.1098 10.4268C11.801 10.4268 11.1073 9.9832 10.5314 9.61784C10.0733 9.31773 9.73295 9.10895 8.9869 9.10895C8.24084 9.10895 7.90054 9.31773 7.44243 9.61784C6.87962 9.9832 6.17283 10.4268 4.87705 10.4268C3.56819 10.4268 2.87449 9.9832 2.31167 9.61784C1.85357 9.31773 1.51327 9.10895 0.767212 9.10895V6.49927C2.07608 6.49927 2.76978 6.94291 3.33259 7.30827C3.79069 7.60838 4.131 7.81716 4.87705 7.81716C5.62311 7.81716 5.96341 7.60838 6.42152 7.30827C6.98433 6.94291 7.69112 6.49927 8.9869 6.49927C10.2958 6.49927 10.9895 6.94291 11.5654 7.30827C12.0235 7.60838 12.3638 7.81716 13.1098 7.81716C13.8559 7.81716 14.1962 7.60838 14.6543 7.30827C15.2171 6.94291 15.9239 6.49927 17.2328 6.49927V9.10895C16.4867 9.10895 16.1464 9.31773 15.6883 9.61784C15.1124 9.97015 14.4187 10.4268 13.1098 10.4268Z" />
  <path d="M5.30898 12.6973H0.767212V15.1243H5.30898V12.6973Z" />
  <path d="M11.2643 12.6973H6.72253V15.1243H11.2643V12.6973Z" />
  <path d="M17.2327 12.6973H12.6909V15.1243H17.2327V12.6973Z" />
  <path d="M12.9528 0.875488L9.02616 3.72004L5.09956 0.875488L0.767212 4.03321V4.43771H8.13613H9.91619H17.2197V3.99406L12.9528 0.875488Z" />
</svg>