<svg width="65" height="97" viewBox="0 0 572 858" fill="none" xmlns="http://www.w3.org/2000/svg">
<path d="M356.605 719.408C354.749 728.689 323.661 736.114 319.176 749.88C316.701 757.459 321.496 759.779 330.466 762.254C351.037 768.287 392.023 765.966 402.54 763.801C460.075 752.2 404.087 737.66 387.228 720.027C393.105 558.852 379.804 297.756 379.34 144.16L354.439 138.437C353.666 141.995 356.605 719.254 356.605 719.254V719.408ZM376.711 550.809C376.711 550.809 369.132 505.798 367.74 480.121C363.255 393.656 367.276 160.711 367.276 160.711C368.359 123.433 373.308 133.797 373.308 133.797L376.711 550.654V550.809Z" fill="#FDEEE7"/>
<path d="M323.661 181.592C301.853 187.625 279.736 167.362 280.046 145.552L281.283 114.926C281.747 109.512 281.747 97.2926 282.52 91.8789C284.376 78.7312 294.275 66.821 307.576 64.1915C327.992 60.6339 377.02 53.2093 398.209 49.6517C398.519 49.6517 398.828 49.6517 398.828 50.1157C398.828 50.4251 398.828 50.7345 398.364 50.7345L338.045 61.0979C327.992 62.7994 317.938 64.5008 308.04 66.357C298.451 68.3678 290.408 75.947 287.16 85.073C284.067 92.9616 285.15 106.264 284.531 114.926L283.758 145.398C283.758 155.142 288.707 164.423 295.976 170.61C303.245 176.797 313.453 179.891 322.578 177.261C325.362 176.488 326.6 180.664 323.816 181.438L323.661 181.592Z" fill="#FDEDE7"/>
<path d="M418.47 165.815L327.837 181.128C307.731 186.851 287.933 169.063 288.861 147.099L290.253 102.242C290.872 86.9292 301.699 74.0909 316.082 71.7707L405.014 56.9216C435.329 51.0438 445.072 65.4289 444.144 87.3932L443.062 134.879C442.443 149.574 432.545 161.948 418.47 165.815Z" fill="#FDEEE7"/>
<path d="M370.524 84.609C401.457 79.814 413.83 75.947 415.686 82.7528C417.387 89.0947 420.945 155.761 411.51 128.847C410.737 126.681 409.345 124.671 407.18 123.588C399.292 119.566 388.001 128.538 386.609 141.221C377.175 144.624 364.492 145.552 353.666 148.8C352.892 148.955 352.738 148.8 352.738 148.027C352.274 139.21 346.242 133.951 338.509 135.807C329.383 137.354 324.589 148.182 321.65 156.844C312.68 159.473 319.33 112.451 319.64 104.872C320.413 88.7853 334.642 90.7961 370.524 84.609ZM396.972 98.9941C395.58 113.379 396.817 113.379 410.118 109.822C417.851 105.8 412.283 92.3429 411.51 85.5371C409.963 80.8967 404.705 84.4543 401.457 84.4543C395.734 86.0011 397.59 94.3537 396.972 98.9941ZM373.927 101.16C371.761 115.545 377.793 111.832 388.156 109.667C394.806 107.037 391.713 96.6739 392.796 90.9508C392.486 83.0622 383.052 88.94 378.412 88.94C373.308 90.1774 374.081 97.1379 373.927 101.314V101.16ZM324.434 111.214C321.959 126.836 329.383 122.041 340.055 120.03C347.324 117.246 343.922 106.419 345.159 100.231C344.695 91.8789 334.333 98.3753 329.383 98.2207C323.815 99.4581 324.589 106.728 324.434 111.214ZM349.799 106.109C347.479 121.268 354.284 116.937 364.802 114.771C371.761 111.987 368.359 101.314 369.596 95.4365C369.132 87.3932 359.234 93.735 354.439 93.5803C349.18 94.8177 350.108 101.933 349.799 106.264V106.109Z" fill="#F09060"/>
<path d="M400.529 150.966C395.115 152.977 390.785 148.8 391.094 142.149C391.404 135.962 395.734 129.93 400.529 128.692C405.787 127.455 409.654 132.25 408.726 139.21C407.953 144.469 404.395 149.419 400.374 150.811L400.529 150.966Z" fill="#F09060"/>
<path d="M336.189 165.97C331.703 166.588 328.146 163.186 327.837 158.081C327.218 150.347 333.25 142.304 339.746 141.685C344.231 141.221 347.634 144.624 347.943 149.729C348.407 157.308 342.685 165.042 336.189 165.97Z" fill="#F09060"/>
<path d="M165.439 404.329C162.191 402.163 166.986 392.109 151.674 387.624C136.362 383.138 145.178 382.055 140.848 381.282C140.074 381.282 139.301 381.436 138.837 382.21C134.043 389.17 144.405 405.102 146.725 406.958" fill="#FDEEE7"/>
<path d="M159.407 396.131C185.855 404.019 198.073 433.099 198.073 433.099L177.039 449.031L181.524 427.531C175.492 419.642 161.263 411.599 154.303 419.951C153.994 421.189 139.61 424.282 139.301 425.674C135.589 426.448 131.568 423.973 130.485 420.415C122.443 421.189 114.709 413.455 115.483 405.412" fill="#FDEEE7"/>
<path d="M120.123 380.818C115.328 382.983 110.843 386.85 107.595 390.408C106.203 391.8 106.822 394.429 108.832 395.976C118.112 403.091 135.125 413.455 148.581 423.045C151.52 425.21 155.077 424.901 156.469 422.426L164.511 408.35C165.285 406.958 164.511 404.948 162.81 403.865C154.922 398.915 134.507 385.922 123.216 380.972C111.926 376.023 121.051 380.354 120.123 380.818Z" fill="#ED5D15"/>
<path d="M120.432 381.436C115.483 383.757 111.461 387.005 108.213 390.562C104.965 394.12 107.749 393.037 108.987 393.965C117.803 400.926 135.434 411.444 148.89 421.189C150.746 422.581 153.066 422.426 153.994 420.879L162.191 407.577C163.119 406.03 162.81 404.793 160.799 403.555C153.066 398.606 133.888 386.231 123.525 381.591C113.163 376.951 121.36 381.127 120.586 381.591L120.432 381.436Z" fill="#F09060"/>
<path d="M227.614 383.293L242.153 402.937C238.441 395.822 233.492 388.552 227.614 383.293Z" fill="#8A98E4"/>
<path d="M351.655 444.081C349.335 437.585 315.773 396.286 312.216 392.573C301.544 381.591 303.4 372.156 289.48 351.429L269.683 327.299C257.774 321.112 239.678 307.036 232.254 334.105C232.873 356.533 212.921 345.86 210.292 375.249L237.822 399.07C240.916 401.854 243.545 405.257 245.246 408.969C247.411 413.919 249.113 418.559 250.35 422.117C205.033 458.466 196.218 386.541 179.514 407.577C179.514 407.577 179.668 421.189 168.223 429.077C159.562 435.11 153.84 444.854 154.304 455.373C156.005 501.312 231.326 507.963 238.132 511.521C248.958 516.935 248.339 523.895 250.041 528.226C250.505 529.463 251.123 530.237 251.897 530.701C241.689 536.269 226.532 545.705 219.108 555.449C211.065 565.968 215.551 571.845 213.695 581.126C177.503 614.072 148.117 664.807 130.021 710.437C125.381 722.192 120.432 735.495 108.987 740.909C99.243 745.549 88.2619 728.38 73.5688 746.013C70.1661 750.035 75.2701 764.42 81.766 767.668C86.4059 769.988 189.103 774.01 194.052 763.956C200.703 750.189 207.044 734.567 213.385 718.171C220.036 726.369 225.913 730.7 228.233 730.7C243.235 730.7 260.094 702.858 260.094 702.858C268.291 714.613 267.363 739.981 254.062 745.085C226.686 742.455 221.428 762.564 233.182 764.884C238.596 765.966 308.813 763.182 314.381 763.182C333.714 763.182 346.087 709.973 342.375 698.836C338.973 688.318 323.197 613.454 280.974 595.82C277.726 594.428 275.87 592.263 274.942 589.324C276.334 578.342 298.451 560.863 298.451 560.863C328.456 564.111 359.543 535.187 361.09 517.863C362.946 497.29 369.132 493.114 351.81 444.39L351.655 444.081Z" fill="#8A98E4"/>
<path d="M282.056 376.332C304.328 377.26 322.114 399.998 335.106 415.93C356.914 441.761 374.391 476.254 366.193 510.902C356.759 549.726 329.538 572.464 294.893 559.78C316.237 562.719 326.909 550.036 343.922 535.96C379.34 504.251 357.532 449.959 331.858 418.714C319.175 402.473 303.709 380.044 282.056 377.415C282.056 377.415 281.283 377.415 281.283 376.951C281.283 376.487 282.056 376.487 282.056 376.487V376.332Z" fill="#0020C2"/>
<path d="M291.491 319.101C284.84 298.993 278.653 301.313 262.104 304.407C250.195 306.727 246.793 308.119 230.862 311.831C226.068 312.914 220.5 314.151 216.942 317.09C207.508 324.824 203.641 338.127 203.332 350.346C202.713 380.663 222.665 386.077 222.665 386.077C219.881 376.023 234.42 361.792 241.843 351.584C246.483 345.242 250.041 337.508 243.854 326.371C242.771 324.515 244.627 322.195 246.793 322.195C261.486 322.195 286.077 343.076 295.512 361.638C297.368 365.195 306.957 339.055 291.491 319.101Z" fill="#F09060"/>
<path d="M215.241 373.703C209.983 341.994 223.593 366.433 222.046 328.691C221.582 316.162 247.721 312.141 262.723 319.72C278.653 327.763 292.883 338.591 288.397 321.885C283.757 305.335 276.952 302.86 262.414 307.191C249.267 311.058 230.553 312.759 224.212 317.245C217.87 321.731 219.881 328.072 216.324 336.889C203.487 353.13 207.199 365.659 215.241 373.548V373.703Z" fill="#ED5D15"/>
<path d="M222.201 335.497C209.983 331.939 198.692 335.497 194.207 336.734C190.186 337.817 186.01 335.497 183.381 332.403C181.061 329.774 179.514 326.68 177.658 323.741C165.903 339.519 149.664 352.666 130.485 359.781C131.568 361.019 131.568 361.019 132.96 362.102C135.899 364.577 141.157 364.112 143.168 367.361C146.106 372.001 152.138 378.343 157.242 380.044C162.501 381.746 160.645 379.271 167.45 374.631L174.719 376.023C172.863 379.426 173.946 379.735 181.37 378.498C188.794 377.26 184.463 379.116 185.701 380.044C187.866 381.746 190.031 384.221 192.97 383.293C194.98 382.674 196.063 380.508 196.063 378.498C196.063 374.012 192.506 370.764 191.423 366.742C187.711 353.285 195.135 341.529 213.695 347.253C216.479 348.181 219.263 349.727 220.655 348.181C222.047 346.634 222.975 335.652 222.201 335.342V335.497Z" fill="#FDEEE7"/>
<path d="M144.714 364.267C143.941 365.505 145.488 367.206 148.272 365.814C150.592 364.731 149.818 362.875 148.426 362.411C147.034 361.792 146.88 361.638 144.714 364.267Z" fill="#8A98E4"/>
<path d="M226.841 372.774C235.502 358.389 255.763 344.932 244.164 326.216C244.164 325.907 243.7 326.216 243.854 326.371C258.238 351.274 217.871 361.638 220.5 385.149C220.655 386.695 222.82 387.933 224.057 387.005C223.284 382.21 224.521 376.951 226.996 372.62L226.841 372.774Z" fill="white"/>
<path d="M115.638 407.577C114.4 401.081 113.936 398.915 116.256 399.224C118.576 399.534 122.597 408.969 122.597 408.969C122.597 408.969 122.443 406.185 123.525 402.009C124.608 397.832 129.093 402.937 127.856 407.268C126.464 411.753 129.093 413.764 129.093 413.764C129.093 413.764 129.093 410.671 131.259 407.422C133.424 404.174 135.744 406.03 135.125 411.444C134.816 415.002 134.197 417.012 134.816 417.786C135.435 418.559 137.909 414.074 139.456 413.3C143.168 411.444 143.786 414.692 143.786 415.775C143.322 420.57 141.931 423.973 135.125 424.437" fill="#FDEEE7"/>
<path d="M137.445 386.386C137.445 386.386 138.837 396.75 153.53 397.832C161.573 398.451 142.395 386.077 142.395 386.077L137.445 386.386Z" fill="#FDEEE7"/>
<path d="M279.891 565.813L274.323 563.338C262.105 557.46 252.361 544.622 257.929 530.856C257.929 530.546 257.929 530.392 258.083 530.082C259.63 529.154 261.177 528.071 262.259 526.679C277.107 511.057 288.861 490.33 288.861 468.211C288.861 460.941 286.541 453.516 282.211 447.484C280.51 445.164 276.179 439.595 274.323 437.275C267.982 429.541 258.857 418.25 253.134 410.207C249.731 405.566 247.102 400.462 245.555 395.048C245.555 394.429 244.627 394.739 244.782 395.357C247.875 406.649 255.918 415.466 262.723 424.746C267.672 431.088 276.488 442.225 281.128 448.567C288.552 459.085 288.088 473.161 284.222 485.071C280.046 498.528 272.158 510.747 262.569 521.111L259.63 524.05C257.619 526.215 255.763 526.989 252.979 528.226C238.286 535.032 222.974 542.92 214.777 557.77C209.055 568.597 209.828 581.126 209.828 592.882C209.828 606.029 222.665 615.465 234.574 617.321C235.502 617.475 235.966 616.083 235.038 615.774C225.913 611.134 215.705 603.709 215.705 592.882C215.705 581.435 214.777 569.834 219.727 560.399C226.222 548.334 239.06 540.446 250.969 534.258C251.433 533.949 252.051 533.794 252.67 533.485C250.041 550.654 263.96 562.41 279.736 567.05C280.2 567.205 280.355 566.586 280.046 566.432L279.891 565.813Z" fill="#0020C2"/>
<path d="M294.738 336.116C294.584 340.447 292.883 343.85 290.872 344.159C290.872 344.159 290.717 344.314 290.872 344.468C290.872 344.468 291.027 344.623 291.181 344.468C293.192 343.85 294.738 342.303 295.357 338.127C296.285 327.608 292.883 321.267 289.635 311.986C286.387 302.705 287.005 307.81 285.613 306.418C288.707 311.058 295.202 326.68 294.893 335.961L294.738 336.116Z" fill="white"/>
<path d="M184.772 316.781L176.884 322.659C176.884 322.659 176.73 322.349 176.575 322.195C170.079 312.914 158.015 307.964 147.034 309.975C136.053 311.986 126.464 319.101 123.525 329.929C121.824 335.961 122.597 343.231 124.608 350.191C129.093 349.109 133.114 354.677 133.888 357.771L128.165 359.781C128.32 360.246 128.629 360.71 128.784 361.174C128.784 361.174 191.268 346.943 211.065 309.666C230.708 272.388 184.927 316.936 184.927 316.936L184.772 316.781Z" fill="#0020C2"/>
<path d="M131.104 371.537C126 366.123 127.701 361.483 130.021 357.307C131.877 353.749 126.928 350.81 124.608 352.202C118.112 355.915 116.875 368.753 123.989 375.404C123.989 372.62 120.432 367.051 125.072 360.246C123.989 365.659 127.237 371.537 131.258 371.537H131.104Z" fill="#F09060"/>
</svg>
