<svg width="838" height="699" viewBox="0 0 838 699" fill="none" xmlns="http://www.w3.org/2000/svg">
<g clip-path="url(#clip0_6968_7687)">
<path d="M604.889 526.302C692.258 499.111 702.674 379.814 622.044 336.823C571.559 310 510.045 302.406 470.22 302.896C424.637 303.508 297.198 307.183 313.25 314.899C351.237 329.964 432.602 370.016 470.098 384.591C478.798 388.265 479.411 389.858 472.058 388.878C420.348 379.692 279.92 377.487 206.643 399.289C147.947 416.803 129.935 462.489 169.269 498.498C228.209 552.268 362.143 515.278 362.143 489.925C367.657 461.264 221.347 482.821 270.852 407.617C269.014 426.847 251.246 460.897 361.775 461.264C470.343 461.509 357.119 545.286 268.402 546.633C51.1431 550.063 142.066 623.184 286.047 623.184C430.028 623.184 540.434 629.063 514.824 584.848C491.664 544.796 546.684 546.021 602.806 526.914C603.418 526.791 604.031 526.547 604.644 526.302H604.889Z" fill="#FDEEE7"/>
<path d="M232.376 383.244C231.395 387.775 216.568 391.327 214.363 397.941C213.137 401.493 215.466 402.718 219.754 403.943C229.68 406.76 249.286 405.658 254.432 404.678C282.126 399.044 255.168 392.062 247.08 383.611C249.898 306.203 243.527 180.782 243.281 107.049L231.273 104.354C230.905 106.069 232.253 383.366 232.253 383.366L232.376 383.244ZM242.056 302.283C242.056 302.283 238.38 280.727 237.767 268.356C235.562 226.835 237.522 115.01 237.522 115.01C238.012 97.1275 240.463 102.149 240.463 102.149L242.179 302.406L242.056 302.283Z" fill="#FDEEE7"/>
<path d="M216.446 125.053C206.03 127.87 195.369 118.194 195.492 107.783L196.104 93.0857C196.35 90.5136 196.35 84.6345 196.717 82.0624C197.575 75.6933 202.354 70.0592 208.726 68.7119C218.529 66.9972 242.178 63.4452 252.227 61.7305C252.349 61.7305 252.472 61.7305 252.472 61.9755C252.472 62.0979 252.472 62.2204 252.227 62.2204L223.308 67.2422C218.529 68.0995 213.627 68.8344 208.848 69.8143C204.192 70.7941 200.393 74.4685 198.8 78.8779C197.33 82.6748 197.82 89.0438 197.575 93.2082L197.207 107.906C197.207 112.56 199.535 117.092 203.089 120.032C206.643 122.971 211.544 124.563 215.833 123.216C217.181 122.849 217.794 124.808 216.446 125.176V125.053Z" fill="#FDEDE7"/>
<path d="M262.03 117.337L218.406 124.686C208.726 127.38 199.168 118.929 199.658 108.273L200.393 86.7166C200.761 79.3678 205.908 73.2437 212.77 72.1414L255.535 65.0375C270.117 62.2204 274.774 69.0794 274.283 79.6127L273.793 102.394C273.426 109.498 268.769 115.377 262.03 117.214V117.337Z" fill="#FDEEE7"/>
<path d="M238.993 78.3879C253.82 76.0608 259.824 74.2236 260.682 77.5306C261.54 80.8376 263.133 112.683 258.721 99.6997C258.354 98.5973 257.618 97.74 256.638 97.25C252.839 95.2903 247.448 99.6997 246.713 105.701C242.179 107.293 236.052 107.783 230.905 109.376C230.538 109.376 230.538 109.376 230.415 109.008C230.17 104.844 227.352 102.272 223.553 103.129C219.142 103.864 216.813 109.008 215.466 113.173C211.177 114.397 214.363 91.8609 214.485 88.1864C214.853 80.4701 221.715 81.45 238.87 78.5104L238.993 78.3879ZM251.737 85.2469C251.001 92.1058 251.737 92.2283 258.108 90.3911C261.785 88.4314 259.089 82.0624 258.844 78.7554C258.109 76.5507 255.535 78.2655 253.942 78.2655C251.246 79.0003 252.104 83.0422 251.737 85.2469ZM240.708 86.3492C239.605 93.3306 242.546 91.4934 247.57 90.3911C250.756 89.1663 249.286 84.1446 249.776 81.3275C249.653 77.5306 245.12 80.3476 242.914 80.3476C240.463 80.96 240.831 84.267 240.708 86.2267V86.3492ZM216.936 91.126C215.711 98.5973 219.264 96.3927 224.411 95.2903C227.964 93.9431 226.249 88.7988 226.861 85.7368C226.616 81.6949 221.715 84.8794 219.264 84.757C216.568 85.3694 217.059 88.7988 216.936 91.0035V91.126ZM229.067 88.6764C227.964 95.9027 231.15 93.8206 236.297 92.8407C239.605 91.4934 238.012 86.3492 238.625 83.5321C238.38 79.7352 233.601 82.6748 231.395 82.6748C228.822 83.2872 229.312 86.7167 229.19 88.6764H229.067Z" fill="#F09060"/>
<path d="M253.452 110.233C250.879 111.213 248.796 109.253 248.918 106.069C249.041 103.129 251.124 100.19 253.452 99.5772C256.025 98.9648 257.863 101.292 257.373 104.599C256.883 107.906 255.29 109.498 253.33 110.233H253.452Z" fill="#F09060"/>
<path d="M222.45 117.459C220.245 117.704 218.652 116.112 218.406 113.663C218.161 109.988 220.98 106.069 224.166 105.824C226.249 105.579 227.964 107.293 228.087 109.743C228.332 113.295 225.636 117.092 222.45 117.459Z" fill="#F09060"/>
<path d="M140.473 231.857C138.88 230.877 141.208 225.978 133.856 223.773C126.503 221.568 130.67 221.078 128.709 220.711C128.341 220.711 127.974 220.711 127.729 221.078C125.401 224.385 130.425 232.102 131.527 232.959" fill="#FDEEE7"/>
<path d="M137.532 227.937C150.275 231.734 156.157 245.697 156.157 245.697L145.987 253.414L148.192 243.125C145.374 239.328 138.389 235.409 135.081 239.451C134.958 240.063 128.096 241.533 127.851 242.145C126.136 242.513 124.175 241.288 123.562 239.573C119.641 239.941 115.965 236.144 116.333 232.347" fill="#FDEEE7"/>
<path d="M118.661 220.711C116.333 221.813 114.25 223.651 112.657 225.243C111.064 226.835 112.289 227.203 113.27 227.937C117.803 231.367 125.891 236.389 132.385 240.92C133.856 241.9 135.571 241.778 136.184 240.675L140.105 233.939C140.473 233.327 140.105 232.347 139.247 231.734C135.449 229.407 125.646 223.161 120.254 220.711C114.863 218.261 119.151 220.466 118.784 220.711H118.661Z" fill="#ED5D15"/>
<path d="M118.906 220.956C116.578 222.058 114.617 223.651 113.024 225.365C111.431 227.08 112.779 226.59 113.392 226.958C117.681 230.265 126.013 235.286 132.508 240.063C133.366 240.675 134.468 240.675 134.959 239.941L138.88 233.572C139.37 232.837 139.125 232.224 138.267 231.612C134.469 229.285 125.278 223.283 120.377 221.078C115.475 218.874 119.396 220.834 118.906 221.078V220.956Z" fill="#F09060"/>
<path d="M170.372 221.813L177.356 231.244C175.518 227.815 173.19 224.385 170.372 221.813Z" fill="#8A98E4"/>
<path d="M229.925 250.964C228.822 247.779 212.647 228.06 210.932 226.223C205.785 220.956 206.643 216.424 200.026 206.503L190.59 194.868C184.831 191.928 176.131 185.191 172.577 198.052C172.822 208.83 163.265 203.686 162.039 217.771L175.273 229.285C176.744 230.632 177.969 232.224 178.827 234.061C179.93 236.389 180.665 238.593 181.278 240.431C159.466 257.823 155.3 223.406 147.212 233.449C147.212 233.449 147.212 239.941 141.821 243.737C137.654 246.677 134.958 251.331 135.081 256.353C135.939 278.4 172.087 281.707 175.396 283.299C180.665 285.871 180.297 289.3 181.155 291.26C181.4 291.873 181.645 292.24 182.013 292.363C177.111 295.057 169.759 299.589 166.205 304.243C162.284 309.265 164.49 312.204 163.632 316.491C146.232 332.291 132.14 356.665 123.44 378.589C121.234 384.223 118.784 390.592 113.269 393.287C108.613 395.492 103.344 387.285 96.2367 395.737C94.6437 397.696 97.0944 404.555 100.158 406.148C102.364 407.25 151.746 409.21 154.074 404.31C157.26 397.696 160.324 390.225 163.387 382.264C166.573 386.183 169.391 388.265 170.494 388.265C177.724 388.265 185.811 374.915 185.811 374.915C189.733 380.549 189.365 392.797 182.871 395.124C169.636 393.899 167.186 403.453 172.822 404.555C175.396 405.045 209.216 403.82 211.789 403.82C221.102 403.82 227.106 378.222 225.268 372.955C223.553 367.933 216.078 331.924 195.737 323.473C194.144 322.86 193.286 321.758 192.796 320.288C193.531 315.022 204.069 306.693 204.069 306.693C218.406 308.285 233.478 294.322 234.214 285.993C235.071 276.073 238.135 274.113 229.68 250.719L229.925 250.964Z" fill="#FDEEE7"/>
<path d="M196.472 218.506C207.133 218.996 215.71 229.897 221.96 237.491C232.498 249.862 240.831 266.519 236.909 283.054C232.376 301.671 219.264 312.694 202.599 306.448C212.892 307.918 217.916 301.794 226.126 295.057C243.159 279.869 232.743 253.781 220.367 238.716C214.24 230.999 206.888 220.221 196.472 218.874C196.472 218.874 196.104 218.874 196.104 218.629C196.104 218.384 196.472 218.384 196.472 218.384V218.506Z" fill="#F28F60"/>
<path d="M201.006 190.948C197.82 181.272 194.757 182.374 186.914 183.967C181.155 185.069 179.562 185.681 171.842 187.519C169.514 188.009 166.818 188.621 165.103 190.091C160.569 193.888 158.731 200.134 158.608 206.136C158.363 220.711 167.921 223.283 167.921 223.283C166.573 218.506 173.558 211.647 177.111 206.748C180.665 201.849 181.032 200.012 178.092 194.623C175.151 189.233 178.459 192.663 179.439 192.663C186.424 192.663 198.31 202.706 202.844 211.525C207.378 220.344 208.358 200.747 200.883 191.071L201.006 190.948Z" fill="#F09060"/>
<path d="M164.368 217.282C161.794 201.971 168.411 213.852 167.676 195.725C167.431 189.723 180.052 187.764 187.16 191.438C194.757 195.235 201.619 200.502 199.413 192.54C197.208 184.579 193.899 183.477 186.914 185.559C179.93 187.641 171.597 188.254 168.534 190.458C165.47 192.663 166.451 195.602 164.735 199.889C158.486 207.728 160.324 213.73 164.245 217.527L164.368 217.282Z" fill="#ED5D15"/>
<path d="M167.676 198.909C161.794 197.195 156.403 198.909 154.197 199.522C152.359 200.012 150.276 198.909 149.05 197.44C147.947 196.215 147.212 194.623 146.354 193.275C140.718 200.869 132.875 207.116 123.685 210.545C124.175 211.158 124.298 211.158 124.91 211.647C126.381 212.872 128.832 212.627 129.812 214.22C131.16 216.424 134.101 219.486 136.551 220.344C139.002 221.201 138.144 219.976 141.453 217.771L145.007 218.384C144.149 219.976 144.639 220.221 148.193 219.609C151.746 218.996 149.663 219.976 150.276 220.344C151.256 221.201 152.359 222.303 153.707 221.936C154.687 221.691 155.177 220.589 155.177 219.609C155.177 217.404 153.462 215.934 152.971 213.975C151.133 207.483 154.687 201.849 163.632 204.666C164.98 205.033 166.328 205.891 166.941 205.156C167.553 204.421 168.044 199.154 167.676 199.032V198.909Z" fill="#FDEEE7"/>
<path d="M130.424 212.75C130.057 213.362 130.792 214.097 132.14 213.485C133.243 212.995 132.875 212.137 132.14 211.77C131.527 211.525 131.405 211.402 130.424 212.75Z" fill="#8A98E4"/>
<path d="M170.004 216.792C174.17 209.81 183.973 203.441 178.337 194.378C178.337 194.255 178.091 194.378 178.214 194.378C185.076 206.381 165.715 211.28 167.063 222.671C167.063 223.406 168.166 224.018 168.779 223.528C168.411 221.201 169.024 218.629 170.127 216.669L170.004 216.792Z" fill="white"/>
<path d="M116.578 233.449C115.965 230.387 115.72 229.285 116.946 229.407C118.171 229.53 120.009 234.061 120.009 234.061C120.009 234.061 120.009 232.714 120.499 230.754C120.989 228.795 123.195 231.122 122.582 233.327C121.97 235.531 123.195 236.511 123.195 236.511C123.195 236.511 123.195 235.041 124.298 233.449C125.401 231.857 126.504 232.837 126.136 235.409C125.768 237.981 125.646 238.103 126.013 238.471C126.381 238.838 127.484 236.756 128.219 236.389C130.057 235.531 130.302 237.001 130.302 237.613C130.057 239.941 129.444 241.533 126.136 241.778" fill="#FDEEE7"/>
<path d="M126.994 223.283C126.994 223.283 127.729 228.182 134.714 228.795C141.698 229.407 129.322 223.161 129.322 223.161H126.994V223.283Z" fill="#FDEEE7"/>
<path d="M195.492 309.387L192.796 308.163C186.914 305.346 182.258 299.099 184.954 292.607C184.954 292.607 184.954 292.363 184.954 292.24C185.689 291.75 186.424 291.26 186.914 290.648C194.021 283.176 199.658 273.133 199.658 262.6C199.658 259.048 198.555 255.496 196.472 252.679C195.614 251.576 193.531 248.882 192.674 247.779C189.61 244.105 185.199 238.593 182.503 234.796C180.787 232.592 179.562 230.142 178.827 227.448C178.827 227.203 178.337 227.325 178.459 227.448C179.93 232.837 183.851 237.124 187.037 241.533C189.365 244.595 193.654 249.984 195.86 253.046C199.413 258.068 199.168 264.804 197.33 270.561C195.369 277.052 191.571 282.931 186.914 287.831L185.444 289.3C184.464 290.28 183.606 290.77 182.258 291.26C175.273 294.445 167.798 298.364 163.877 305.468C161.181 310.735 161.549 316.736 161.549 322.37C161.549 328.617 167.676 333.149 173.435 334.129C173.925 334.129 174.048 333.516 173.68 333.394C169.269 331.189 164.367 327.515 164.367 322.37C164.367 316.859 163.877 311.347 166.206 306.693C169.391 300.936 175.518 297.139 181.278 294.077C181.523 293.955 181.768 293.832 182.013 293.71C180.787 301.916 187.404 307.55 195.002 309.877C195.247 309.877 195.369 309.632 195.002 309.51L195.492 309.387Z" fill="#F28F60"/>
<path d="M202.599 199.154C202.599 201.237 201.741 202.829 200.761 202.951C200.761 202.951 200.761 202.951 200.761 203.074C200.761 203.074 200.761 203.074 200.883 203.074C201.864 202.829 202.599 202.094 202.966 200.012C203.457 194.99 201.864 191.928 200.148 187.396C198.433 182.864 198.923 185.314 198.188 184.702C199.658 186.906 202.844 194.378 202.599 198.909V199.154Z" fill="white"/>
<path d="M149.786 189.846L145.987 192.663C145.987 192.663 145.987 192.54 145.864 192.418C142.801 188.009 137.042 185.559 131.65 186.539C126.258 187.519 121.725 190.948 120.377 196.092C119.641 199.032 120.009 202.461 120.867 205.891C122.95 205.401 124.911 208.096 125.278 209.565L122.46 210.545C122.46 210.79 122.705 211.035 122.827 211.28C122.827 211.28 152.849 204.421 162.407 186.539C171.842 168.657 149.786 189.968 149.786 189.968V189.846Z" fill="#0020C2"/>
<path d="M123.93 216.179C121.48 213.607 122.337 211.402 123.318 209.32C124.175 207.606 121.847 206.258 120.744 206.871C117.681 208.585 117.068 214.832 120.499 218.016C120.499 216.669 118.784 213.975 120.989 210.79C120.499 213.485 121.97 216.179 123.93 216.179Z" fill="#F09060"/>
<path d="M472.917 319.676C474.877 309.142 460.663 307.673 456.251 305.346C469.853 250.474 444.978 222.303 444.978 222.303C442.405 179.557 444.365 206.993 429.661 212.137L428.313 212.627C425.25 213.73 422.921 215.934 421.696 218.751C418.878 217.649 415.447 217.649 412.261 219.241C410.668 220.099 409.197 221.323 408.094 222.793L401.845 215.934C383.709 247.412 385.057 273.868 384.567 270.683C385.302 276.317 389.469 279.135 391.919 281.094C391.919 281.094 380.401 300.079 384.445 314.532C385.67 318.696 388.243 321.636 400.497 327.147C415.692 334.006 426.843 326.29 410.79 312.449C414.099 306.448 424.637 299.711 426.597 266.519C441.302 284.646 428.681 303.876 430.151 313.919C430.764 318.573 432.969 322.493 449.757 322.125C453.923 322.003 471.691 323.473 472.794 319.676H472.917Z" fill="#F09060"/>
<path d="M382.116 213.607C383.341 215.444 398.781 225.365 398.781 225.365C404.908 235.041 433.214 246.187 444.855 229.897C456.496 213.607 447.428 199.767 444.12 198.419L446.448 195.725C447.183 194.01 446.938 191.316 446.938 191.316C460.662 195.97 469.608 183.844 470.956 173.433C472.303 163.022 467.892 159.226 459.682 155.796C445.835 150.774 412.75 166.942 410.79 166.942C379.175 166.697 373.538 208.83 382.116 213.485V213.607ZM401.477 204.176C401.477 204.176 401.477 203.931 401.477 203.809C401.477 203.809 401.477 204.054 401.477 204.176Z" fill="white"/>
<path d="M445.59 199.032C448.776 195.847 449.267 185.559 444.733 184.579C449.022 197.44 441.792 199.032 442.895 199.644C452.943 205.156 453.555 227.325 435.052 237.246C461.52 228.917 454.781 206.626 445.713 199.032H445.59Z" fill="#8A98E4"/>
<path d="M408.584 166.452C408.584 166.452 414.466 166.819 409.442 167.554C375.989 172.209 374.764 213.73 383.954 214.587C385.425 215.322 382.974 216.302 382.729 215.812C368.515 204.054 385.547 166.819 408.584 166.452Z" fill="#8A98E4"/>
<path d="M403.928 189.846C403.928 190.703 403.438 200.257 402.458 204.176C400.987 209.81 399.639 210.668 399.639 210.545C399.639 210.423 401.722 207.116 402.09 202.461C402.458 197.685 400.987 189.601 401.355 188.009C401.845 186.416 403.683 187.151 403.928 189.846Z" fill="#8A98E4"/>
<path d="M425.985 164.247C428.681 168.167 427.823 174.046 426.475 176.128C424.392 176.74 419.858 173.433 413.854 171.719C416.059 166.452 412.996 163.39 411.158 156.286C411.158 156.286 411.158 150.529 416.427 150.039C421.696 149.549 425.985 164.125 425.985 164.125V164.247Z" fill="#FDEEE7"/>
<path d="M431.499 164.37C434.685 157.021 430.886 153.714 431.131 152.979C433.214 147.467 431.131 143.058 426.72 141.098C422.308 139.139 414.098 140.608 412.138 141.833L409.197 152.734L418.755 166.452C418.755 166.452 428.925 170.249 431.376 164.37H431.499Z" fill="#FDEEE7"/>
<path d="M424.146 149.182C422.798 148.815 420.96 150.039 420.715 151.264C420.593 151.999 421.083 152.122 421.573 151.877C422.431 151.142 423.289 150.529 424.514 150.652C426.352 150.774 425.372 149.55 424.391 149.182H424.269H424.146Z" fill="#ED5D15"/>
<path d="M431.621 149.305C430.886 148.57 429.293 148.692 428.803 149.672C428.68 150.039 428.68 150.284 428.803 150.407C429.293 150.529 429.783 150.407 430.151 150.407C430.641 150.407 430.886 150.774 431.376 150.897C431.866 150.897 431.866 149.917 431.621 149.549V149.305Z" fill="#ED5D15"/>
<path d="M432.724 157.878C433.214 162.9 430.641 163.267 430.763 162.043C430.763 159.96 430.273 159.47 429.661 159.348C430.641 159.348 431.376 159.103 430.886 158.001C430.518 157.266 428.313 155.306 427.823 153.959C427.823 153.714 427.455 153.836 427.578 154.081C428.19 155.551 428.68 155.919 429.293 156.898C429.538 157.266 430.641 158.246 430.518 158.491C430.151 159.226 428.558 158.858 427.578 158.246C425.494 156.898 423.044 158.246 422.553 161.063C421.573 165.839 418.142 164.492 416.427 162.777C413.853 160.328 410.177 154.449 414.221 146.365C418.265 138.281 419.49 143.18 419.49 143.18C419.368 141.833 416.059 139.384 412.505 141.466C394.125 151.877 407.972 194.99 436.645 182.864C426.23 177.965 440.689 164.86 432.847 157.633L432.724 157.878Z" fill="#ED5D15"/>
<path d="M424.637 162.043C423.656 160.45 424.269 161.063 425.249 161.185C426.965 161.185 427.578 161.063 428.558 160.45C429.538 159.838 429.048 161.43 428.313 162.043C427.945 162.655 425.372 163.145 424.637 162.043Z" fill="#FDEEE7"/>
<path d="M412.138 158.123C408.829 159.226 407.359 153.836 408.217 152.367C409.074 150.897 410.913 151.264 410.913 153.714C410.913 153.714 410.913 156.041 412.138 158.123Z" fill="#FDEEE7"/>
<path d="M424.146 152.122C424.024 152.979 424.759 153.346 425.127 152.856C425.739 151.999 424.392 150.529 424.146 152.122Z" fill="#8A98E4"/>
<path d="M430.028 151.754C429.783 152.612 430.151 152.979 430.641 152.612C431.499 151.999 430.396 150.407 430.028 151.754Z" fill="#8A98E4"/>
<path d="M473.039 116.112C471.691 114.397 469.975 111.213 468.382 112.805C466.667 110.111 464.338 108.518 463.481 110.968C462.868 110.478 462.133 109.253 460.54 109.498C459.56 109.621 459.192 111.458 460.05 112.805C457.844 111.458 455.026 111.213 455.271 113.54C455.761 116.602 460.172 126.033 459.927 125.911C455.638 123.951 449.021 124.931 450.737 127.013C451.227 127.748 455.393 129.218 457.844 132.77C460.172 136.199 463.481 139.751 464.951 141.098C466.422 142.446 468.627 142.446 468.627 142.446C468.995 151.999 453.923 151.264 452.452 161.675C450.982 172.086 460.417 181.64 472.671 168.902C491.174 149.794 480.391 125.788 473.161 116.235L473.039 116.112Z" fill="#FDEEE7"/>
<path d="M459.804 126.523C459.069 123.461 457.354 120.644 456.373 117.704C455.883 116.235 455.026 114.52 455.148 112.928C455.148 111.458 456.741 111.09 457.966 111.458C460.172 111.948 461.397 113.907 461.643 115.99C462.255 118.439 463.113 120.889 464.216 123.216C464.216 123.216 464.216 123.339 464.216 123.461C464.216 123.461 464.093 123.461 463.971 123.461C462.378 120.644 461.397 117.582 460.417 114.52C459.927 113.418 458.947 112.683 457.721 112.438C456.373 112.193 455.761 112.56 456.128 114.03C456.619 115.745 457.354 117.704 458.089 119.297C459.069 121.624 460.417 123.951 460.54 126.646C460.54 127.013 459.927 127.135 459.804 126.646V126.523Z" fill="#F28F60"/>
<path d="M464.951 130.32C461.52 128.973 458.579 126.89 455.148 125.911C453.555 125.421 451.717 125.298 451.227 126.523C450.982 126.89 451.84 127.625 452.207 127.87C454.29 129.585 456.619 130.932 458.579 132.77C459.927 134.117 460.785 135.709 461.765 137.179C463.603 140.241 466.544 142.691 470.22 142.323C470.465 142.323 470.465 142.568 470.22 142.691C463.726 143.425 461.643 137.179 457.967 133.504C456.006 131.79 453.555 130.442 451.472 128.85C450.614 128.115 449.512 127.258 450.124 125.911C452.33 121.501 460.172 125.911 463.358 127.258C464.216 127.625 465.074 127.993 465.686 128.238C467.157 128.605 466.544 130.81 465.074 130.442L464.951 130.32Z" fill="#F28F60"/>
<path d="M471.568 120.399C468.873 117.582 469.24 112.683 465.932 110.356C464.706 109.498 463.604 109.866 464.216 111.458C464.216 111.458 464.216 111.703 464.094 111.703C463.726 111.703 463.604 110.845 463.604 110.6C463.604 110.233 463.726 109.743 464.094 109.498C464.951 109.131 465.687 109.498 466.299 109.743C467.525 110.478 468.382 111.703 468.873 112.928C469.975 115.377 470.221 117.949 471.936 120.154C472.059 120.277 471.814 120.521 471.691 120.399H471.568Z" fill="#F28F60"/>
<path d="M481.984 136.566C480.881 129.095 477.082 122.604 472.916 116.48C472.058 115.01 471.2 113.173 469.362 112.683C469.117 112.683 468.75 112.683 468.75 112.683C468.75 112.805 468.75 113.173 468.995 113.418C468.995 113.54 468.872 113.663 468.75 113.54C468.627 113.295 468.382 112.928 468.505 112.56C469.485 111.335 472.181 113.295 472.793 114.397C474.386 117.092 476.102 119.542 477.572 122.359C479.901 126.768 481.616 131.545 482.351 136.444C482.351 136.689 481.984 136.689 481.984 136.444V136.566Z" fill="#F28F60"/>
<path d="M460.785 115.377C460.05 113.785 456.864 109.376 460.417 109.131C464.216 109.131 465.074 113.785 465.932 116.602C466.422 118.317 466.912 120.154 467.892 121.746V121.869C466.667 120.766 466.177 118.194 465.564 116.725C464.584 114.275 464.216 111.09 461.765 109.866C459.192 109.131 459.682 110.723 460.417 112.56C460.785 113.418 461.153 114.275 461.275 115.255C461.275 115.377 461.275 115.5 461.03 115.622C460.908 115.622 460.785 115.622 460.785 115.5V115.377Z" fill="#F28F60"/>
<path d="M462.623 124.196C465.319 121.746 469.117 119.787 472.916 120.276C473.161 120.276 473.161 120.766 472.916 120.766C469.24 121.011 466.054 122.726 462.991 124.563C462.745 124.686 462.5 124.318 462.623 124.196Z" fill="#F28F60"/>
<path d="M405.521 265.049C405.521 265.049 404.786 250.351 401.11 248.759C395.718 246.432 383.342 244.35 378.93 245.085C374.396 245.82 372.926 255.863 372.681 259.293C358.712 258.435 353.933 293.465 368.147 296.527L398.659 302.528C413.363 305.468 421.818 272.398 405.521 264.927V265.049ZM381.994 250.351C384.935 249.984 395.35 251.576 399.026 253.169C400.252 253.658 400.252 262.355 400.497 264.314L377.95 260.272C378.073 258.803 377.337 250.841 381.871 250.229L381.994 250.351Z" fill="white"/>
<path d="M396.086 238.961C397.311 234.306 400.129 217.894 399.394 212.26C397.679 198.909 385.915 198.297 382.116 208.218C378.563 217.527 380.401 228.305 382.852 235.531C385.302 242.758 383.097 238.593 382.239 239.941C380.769 242.145 380.401 244.962 380.278 247.289C380.278 249.617 381.259 252.311 382.852 252.801C384.445 253.291 384.445 251.944 384.567 252.189C384.935 252.924 385.547 253.536 386.283 253.536C387.876 253.536 388.366 252.189 388.611 252.556C388.979 253.291 389.591 254.026 390.326 254.271C391.429 254.516 391.919 254.271 392.41 253.536C392.9 254.271 393.512 255.128 394.493 255.373C395.473 255.496 398.169 253.903 398.782 253.169C398.536 253.169 397.924 252.679 397.679 252.434C395.963 250.229 396.943 247.902 398.536 248.147C399.149 248.147 400.742 248.759 400.742 248.759C399.884 243.738 399.884 244.35 396.086 239.083V238.961Z" fill="#FDEEE7"/>
<path d="M517.642 236.511C516.662 230.387 505.879 229.652 501.835 235.531C496.566 235.899 494.238 242.39 497.424 245.33C497.178 249.739 501.712 250.229 502.448 250.107C502.325 254.271 503.795 262.845 509.065 266.519C510.78 264.682 511.638 265.172 511.27 261.375C520.828 245.942 529.528 257.7 537.983 250.841C538.351 250.474 538.841 250.107 539.331 249.617C538.841 250.107 538.473 250.474 537.983 250.841C532.592 256.231 540.189 255.618 536.39 262.11C550.605 247.167 534.062 233.327 517.765 236.511H517.642Z" fill="#F09060"/>
<path d="M537.983 250.841C538.474 250.474 538.841 250.107 539.331 249.617C538.841 250.107 538.351 250.474 537.983 250.841Z" fill="#FFF070"/>
<path d="M539.209 249.617C538.228 248.637 532.959 258.19 521.196 248.882C518.868 249.494 511.638 246.432 510.29 256.231C510.045 257.945 509.8 267.376 503.183 271.786C502.448 311.102 520.706 311.96 521.563 309.02C521.931 307.795 521.318 283.666 521.441 275.95C520.706 275.338 519.358 274.48 518.132 273.378C520.338 275.093 522.789 276.318 524.994 275.95C528.916 275.338 528.425 271.663 530.999 269.581C533.572 267.499 535.655 266.641 534.43 266.029C534.675 263.334 535.9 262.845 536.145 262.477C540.189 255.496 531.121 256.721 539.086 249.984L539.209 249.617Z" fill="#FDEEE7"/>
<path d="M531.244 269.826C530.999 269.826 530.876 269.704 530.754 269.459C530.631 269.214 530.754 268.846 530.999 268.724C534.307 267.254 534.43 266.397 534.43 266.274C534.43 265.784 533.327 265.294 532.592 265.172C532.347 265.172 532.102 264.804 532.102 264.437C532.102 264.192 532.469 263.947 532.837 263.947C533.082 263.947 535.41 264.559 535.533 266.029C535.533 267.254 534.307 268.356 531.489 269.704C531.489 269.704 531.366 269.704 531.244 269.704V269.826Z" fill="#F09060"/>
<path d="M526.71 254.761C527.078 254.883 526.833 256.965 525.975 256.965C524.627 256.965 525.73 254.393 526.71 254.761Z" fill="#ED5D15"/>
<path d="M534.675 259.17C535.778 259.17 534.675 261.62 534.062 261.62C532.96 261.62 534.062 259.17 534.675 259.17Z" fill="#ED5D15"/>
<path d="M525.362 268.356C525.117 269.091 523.769 269.214 523.156 268.846C522.176 268.479 521.808 267.621 522.053 266.764C522.176 266.029 522.911 264.559 523.769 265.417C524.259 266.152 525.362 267.254 525.362 268.111V268.356Z" fill="#F09060"/>
<path d="M517.888 495.069C517.765 494.212 513.476 488.21 510.045 486.25C518.01 473.757 511.761 410.924 508.33 378.957C507.84 373.078 515.437 356.91 504.654 350.664C493.87 344.295 465.197 345.519 460.418 350.664C439.709 375.65 452.33 462.979 478.308 490.782C479.288 491.762 478.063 491.149 479.288 491.762C478.063 494.211 476.715 496.784 489.459 501.07C500.977 504.867 502.57 503.03 503.551 502.418C504.531 501.805 504.286 500.948 503.796 500.213C501.713 496.906 498.037 492.129 498.037 492.129C499.017 493.232 506.492 496.784 514.824 497.641C523.157 498.498 518.255 496.906 517.888 495.069Z" fill="#0020C2"/>
<path d="M527.323 297.139C529.283 277.297 524.627 276.073 523.769 275.705C518.378 274.113 512.618 267.499 512.618 268.234C512.618 268.479 518.5 273.99 518.5 274.235C518.99 279.257 521.686 295.057 518.378 303.631C509.065 293.342 505.266 283.911 504.653 270.316C504.653 270.316 506.491 268.724 506.491 268.356C492.767 268.969 487.131 270.806 487.008 276.685C480.881 284.279 436.278 303.263 444.365 317.839C452.33 332.414 470.833 335.231 480.514 335.843C480.514 335.843 444.978 345.274 418.142 385.203C431.376 407.617 458.947 417.416 468.75 417.783C474.754 418.028 492.277 418.518 497.669 415.701C501.222 396.839 506.369 367.688 505.511 359.36C505.266 357.4 506.124 357.645 506.369 358.992C507.104 363.034 507.349 382.386 502.08 411.782C505.144 412.027 516.539 400.881 517.52 393.654C519.48 380.426 517.275 361.687 512.496 344.417C517.397 341.6 519.971 337.313 519.971 337.313C523.769 339.395 529.161 339.273 530.876 336.211C533.94 330.944 533.695 326.902 526.465 324.33C528.548 321.391 534.552 316.736 527.445 297.139H527.323Z" fill="#8A98E4"/>
<path d="M487.131 276.318C491.419 277.665 492.89 280.972 497.914 293.22C502.938 305.468 510.29 311.47 515.437 313.184C515.804 313.184 515.927 313.552 515.804 313.674C515.682 313.797 514.947 313.674 514.579 313.674C506.614 310.98 499.139 302.528 495.953 293.71C492.767 284.891 491.664 279.747 485.66 278.277C479.656 276.807 486.763 276.318 487.131 276.318Z" fill="white"/>
<path d="M493.625 295.425C491.91 297.752 462.991 311.102 464.094 313.429C463.236 313.797 467.892 319.676 458.702 316.491C461.153 319.308 468.873 319.308 473.407 320.043C473.897 320.043 474.019 319.553 473.652 319.308C473.652 319.308 471.814 316.124 467.402 315.266C475.857 311.592 494.728 295.914 493.625 295.425Z" fill="#0020C2"/>
<path d="M524.872 307.55C526.71 305.835 528.916 297.752 527.813 289.178C527.568 296.894 526.71 303.386 524.872 307.55Z" fill="white"/>
<path d="M533.204 333.026C528.18 334.006 522.053 335.108 516.294 336.578C516.294 335.843 517.275 332.904 515.191 331.312C515.191 331.189 525.852 329.229 529.651 328.862C533.449 329.107 534.43 329.107 533.327 333.026H533.204Z" fill="#0020C2"/>
<path d="M563.349 380.794C561.633 382.754 559.918 381.896 559.183 381.529C561.756 361.687 551.218 336.823 545.091 332.291C538.964 327.76 541.66 331.679 536.636 332.536C531.612 333.394 534.43 327.76 536.023 327.392C543.008 326.167 547.051 325.922 549.257 329.597C559.795 346.989 563.349 363.892 563.226 380.671L563.349 380.794Z" fill="#0020C2"/>
<path d="M517.03 332.659C516.662 331.312 516.172 329.842 514.456 328.25C506.369 320.411 498.281 328.25 497.301 328.372C494.36 328.862 490.439 324.82 488.723 329.474C487.621 332.414 489.336 334.986 492.89 336.456C496.443 337.926 506.369 334.619 506.859 334.986C507.962 335.843 508.697 336.701 508.697 337.803C508.697 338.538 509.065 339.15 509.922 339.273C510.29 339.273 510.413 339.15 510.535 338.905C510.658 338.17 510.535 335.721 510.535 335.721C510.535 335.231 510.29 334.863 509.922 334.496C507.349 331.434 506.982 331.434 506.369 330.699C506.369 330.577 506.614 330.209 506.859 330.454C507.717 331.067 510.78 333.761 511.148 334.986C511.27 335.476 511.148 336.823 511.148 338.17C511.148 340.13 512.986 340.498 513.108 339.273C513.476 335.476 513.108 334.251 513.108 334.251C513.108 333.761 512.741 333.149 512.373 332.781C511.025 331.189 509.8 330.332 509.31 329.597C509.31 329.474 509.555 329.107 509.8 329.352C510.658 329.964 513.108 332.169 513.599 333.516C513.966 334.619 513.966 337.191 513.844 338.538C513.844 339.518 515.314 340.008 515.314 339.15C515.682 335.353 515.559 333.639 515.559 333.639C515.559 333.149 515.314 332.781 515.069 332.291C512.618 329.229 512.863 329.719 512.251 329.107C512.251 328.984 512.251 328.739 512.496 328.862C513.353 329.597 515.559 331.801 515.927 333.026C516.172 334.006 515.927 335.721 515.927 337.558C516.417 337.926 517.152 337.926 517.275 336.578C517.275 335.721 517.397 333.639 517.275 332.659H517.03Z" fill="white"/>
<path d="M539.454 333.516C539.209 334.251 538.106 333.761 537.861 332.904C537.739 332.904 537.738 334.864 536.758 335.231C535.778 335.598 535.41 334.374 535.41 334.374C535.165 335.353 534.553 336.088 534.185 335.966C533.45 335.721 533.327 334.374 533.45 334.006C533.695 333.394 533.205 334.619 532.96 335.353C532.714 336.088 531.489 335.598 531.489 334.251C531.489 332.904 531.734 330.822 531.489 330.332C531.244 329.842 529.896 328.617 528.916 328.739C528.916 328.739 525.117 329.352 523.892 329.597C523.892 329.597 523.647 327.637 525.117 325.677C527.813 322.003 531.857 321.636 535.41 322.86C538.964 324.085 539.699 326.902 540.067 328.25C540.434 329.597 539.577 333.026 539.332 333.639L539.454 333.516Z" fill="#E5E9F9"/>
<path d="M538.596 328.494C538.229 327.147 536.758 325.555 536.023 324.942C535.778 324.698 535.9 325.187 536.023 325.31C536.513 326.045 535.778 324.82 537.984 327.882C538.229 328.25 538.351 328.617 538.351 329.107C538.351 329.107 538.106 332.414 537.371 334.741C537.003 335.721 536.268 335.108 535.778 334.496C536.391 332.659 537.003 330.087 536.268 328.739C535.533 327.392 534.675 326.29 533.817 325.555C533.572 325.31 533.572 325.8 533.817 326.045C534.43 326.657 535.043 327.392 535.9 328.862C536.758 330.332 536.146 332.659 535.165 335.598C534.185 338.538 533.94 336.088 533.817 334.496C534.062 333.884 534.185 332.904 534.307 331.924C534.43 330.944 534.43 330.577 534.062 329.719C533.45 328.494 532.102 327.025 531.367 326.29C531.122 326.045 531.122 326.412 531.489 327.025C531.979 327.637 532.96 328.739 533.45 329.597C533.572 329.842 533.817 330.332 533.817 330.822C533.817 332.414 533.327 334.986 532.96 335.966C533.205 335.843 533.327 335.598 533.45 335.353C533.45 335.966 533.817 336.333 534.062 336.578C534.553 336.823 535.043 336.823 535.533 335.353C535.533 335.353 535.533 335.353 535.533 335.231C535.778 335.598 536.146 335.843 536.513 335.966C536.758 335.966 537.126 336.211 537.371 335.721C537.739 335.231 538.841 330.087 538.474 328.984L538.596 328.494Z" fill="#8A98E4"/>
<path d="M649.002 496.049C648.757 473.022 626.578 474.737 622.289 484.535C629.886 476.819 638.832 478.044 642.875 485.148C646.429 491.394 646.919 499.723 643.611 508.419C640.302 517.36 628.294 520.545 623.27 509.889L624.005 508.787C624.005 508.787 626.946 513.686 632.705 513.686C638.832 513.686 643.243 506.092 642.508 495.559C641.773 485.025 639.199 484.413 635.401 482.698C630.009 480.494 625.108 483.556 622.044 489.802C616.898 484.291 609.178 473.145 607.095 470.695H603.418C604.276 472.042 592.145 483.556 592.145 483.556L594.106 486.373C599.62 482.576 606.482 475.839 606.237 474.737C608.565 477.922 617.388 490.047 620.941 493.354C620.941 493.354 619.961 498.376 621.309 501.315L599.987 522.015C600.233 522.382 600.355 521.157 607.34 516.013C612.364 512.339 627.191 497.641 627.313 497.518C629.151 495.191 633.195 496.784 629.764 500.948C629.764 500.948 618.613 512.829 613.589 516.993C607.217 522.26 602.071 527.649 602.071 527.649L616.898 515.523L621.676 511.114C623.76 515.033 628.048 518.585 632.582 518.83C641.16 519.443 649.125 512.216 648.88 495.926L649.002 496.049Z" fill="#8A98E4"/>
<path d="M603.541 487.72C601.458 472.777 585.16 469.96 579.769 484.903C579.646 485.393 583.812 483.433 587.979 486.373C585.528 487.23 582.955 488.822 583.2 493.477C583.2 493.477 585.65 491.639 586.876 490.415C589.939 487.23 591.777 490.905 589.572 493.599C589.572 493.599 571.314 511.481 565.554 515.156C558.325 519.81 566.412 516.871 566.412 516.871L583.445 500.948C583.935 503.03 587.979 506.337 593.493 506.46C603.663 506.827 604.889 496.661 603.663 487.72H603.541Z" fill="#8A98E4"/>
<path d="M659.54 397.941C625.843 395.859 575.602 378.344 560.04 381.039C560.04 381.039 549.747 387.163 538.228 393.654C533.082 396.594 527.935 379.569 523.156 370.383C522.789 369.771 530.754 395.737 533.082 396.594C570.701 435.665 643.61 442.279 644.101 441.912C650.105 420.723 679.391 397.206 659.663 398.064L659.54 397.941Z" fill="#0020C2"/>
<path d="M693.238 348.336C678.533 340.865 667.873 331.189 658.805 324.698C658.805 324.698 656.722 324.453 654.026 323.228C630.866 313.184 610.28 333.149 606.236 343.805C590.797 384.101 605.746 413.496 605.746 413.496C596.801 415.824 544.355 407.372 531.121 395.002C532.592 399.534 540.556 433.216 559.06 449.261C569.475 458.325 592.267 469.838 615.549 470.328C680.371 471.797 710.148 418.763 711.618 384.591C711.618 382.876 710.761 381.284 710.761 381.284C704.389 372.955 697.527 359.115 695.689 350.909C693.973 350.664 695.076 349.194 693.36 348.336H693.238Z" fill="white"/>
<path d="M710.638 381.406C699.12 394.267 634.053 409.087 615.059 409.822C615.059 409.822 615.795 407.74 614.079 405.29C624.127 395.859 685.151 352.623 695.566 350.909C695.566 349.071 693.238 348.336 693.238 348.336C672.774 358.502 635.155 382.999 612.976 403.82C612.976 403.82 609.79 401.738 608.197 402.596C616.04 387.653 622.779 362.667 635.033 343.192C641.282 333.149 650.473 327.76 658.805 324.698C657.09 324.085 654.884 323.595 654.884 323.595C648.267 325.555 638.464 332.536 632.95 341.6C618.123 365.484 606.849 402.596 606.849 402.596C603.051 403.575 599.252 407.74 600.6 412.027C603.296 420.968 615.427 415.701 615.304 411.537C628.048 412.639 705.247 395.492 711.619 384.713V383.856C711.741 383.121 711.619 382.386 711.128 381.774L710.761 381.284L710.638 381.406Z" fill="#8A98E4"/>
<path d="M559.427 490.537C548.399 491.762 542.762 503.153 544.11 515.523C545.458 528.261 554.648 539.407 567.025 536.223C574.99 533.405 581.361 526.914 579.769 511.726C579.401 508.174 577.563 504.745 576.092 501.683C576.092 501.56 605.011 473.88 607.339 471.185C607.339 471.185 605.624 470.328 603.051 470.45C600.477 470.573 574.254 498.621 573.887 498.008C570.333 493.109 565.309 489.925 559.55 490.537H559.427Z" fill="#0020C2"/>
<path d="M563.716 509.277C557.712 507.317 555.996 512.584 555.996 514.666C556.119 524.342 568.005 524.587 568.617 514.176C568.863 510.869 567.882 501.683 570.701 506.827C571.926 508.909 573.764 515.523 572.784 519.198C569.72 530.343 560.898 532.671 552.443 524.219C551.585 523.362 551.34 523.362 551.217 523.484C551.095 523.607 550.972 523.974 551.707 524.954C558.202 533.895 567.024 532.916 571.558 526.669C576.092 520.422 576.337 510.991 569.72 501.805C565.186 495.559 557.589 493.722 553.423 499.478C562.368 498.621 567.76 510.624 563.839 509.277H563.716Z" fill="#E5E9F9"/>
<path d="M577.073 496.661C585.65 506.95 584.792 531.323 566.902 536.223C583.935 530.098 580.504 509.154 574.009 498.743C571.313 494.334 567.025 489.925 559.182 490.537C567.392 489.067 572.049 490.537 577.073 496.661Z" fill="white"/>
<path d="M620.206 503.275C628.661 515.646 626.823 543.081 606.482 546.266C609.423 543.816 613.099 543.204 616.53 538.427C626.088 525.444 594.963 494.334 603.051 494.211C610.035 494.211 614.324 494.579 620.206 503.153V503.275Z" fill="white"/>
<path d="M621.431 520.422C621.431 507.439 611.751 487.72 595.453 496.416C589.694 487.475 582.097 472.042 578.788 464.449C594.963 473.512 631.357 478.411 654.271 463.836C622.534 475.227 592.635 468.123 577.195 460.284C552.688 447.791 541.169 421.458 533.204 397.206C525.239 372.955 522.789 358.257 500.364 343.682C499.139 342.947 497.914 341.11 501.345 340.008C504.776 338.905 505.756 338.783 508.574 338.048C508.574 336.946 508.329 336.088 507.962 335.476C507.226 334.251 505.879 333.271 503.55 333.884C499.384 334.864 495.708 335.598 493.747 336.701C490.071 338.783 490.439 342.702 495.953 346.009C536.635 370.383 523.156 433.706 574.622 463.346C574.622 463.346 580.014 479.391 592.512 498.376C588.346 500.825 582.709 507.807 582.342 520.545C581.974 533.283 591.042 546.511 601.825 546.511C612.609 546.511 603.418 546.511 604.153 546.266C604.521 546.266 604.766 546.266 605.134 546.266C608.687 545.409 612.731 543.326 616.285 538.55C618.613 535.365 619.961 531.691 620.573 527.771C621.064 525.444 621.309 523.117 621.309 520.545L621.431 520.422Z" fill="#0020C2"/>
<path d="M615.06 516.626C612.609 502.908 599.007 496.661 591.655 508.664C597.659 505.725 605.379 508.297 605.747 515.278C605.992 518.34 597.414 510.991 595.208 516.993C592.022 525.322 597.904 533.038 603.786 531.323C610.158 529.241 613.467 518.34 608.075 510.379C607.707 509.889 608.32 509.277 608.81 509.644C613.957 513.074 615.059 524.219 614.324 527.526C613.957 529.241 613.221 529.364 613.344 528.139C613.466 525.322 613.344 523.607 613.221 521.892C613.099 520.912 612.609 521.157 612.609 521.892C612.241 529.241 611.751 535.733 605.011 538.672C598.272 541.612 590.307 534.14 588.959 523.117C588.714 521.892 588.469 522.75 588.346 523.484C588.101 529.609 592.88 539.162 600.478 540.509C611.383 542.469 617.388 529.364 615.06 516.503V516.626Z" fill="#E5E9F9"/>
<path d="M525.607 334.496C525.607 334.496 527.445 336.088 527.813 336.333C528.181 336.578 528.916 335.721 528.916 334.986C528.916 334.251 528.548 334.006 528.548 334.006L525.607 334.619V334.496Z" fill="#E5E9F9"/>
<path d="M384.322 544.796C382.974 537.325 373.906 534.998 367.902 537.937C367.902 537.937 354.913 530.588 351.114 528.261C346.335 512.339 359.324 455.385 360.795 442.647C362.02 431.624 356.383 401.861 352.83 383.121C288.743 323.963 300.506 365.361 301.977 365.729C288.865 388.633 291.561 380.671 292.051 403.208C293.032 443.259 287.395 451.955 287.395 451.955C267.421 485.025 263.623 528.629 264.48 551.655C264.48 553.247 276.612 553.492 276.612 553.492C276.979 556.922 276.121 560.841 276.121 564.393C276.121 567.945 278.695 568.313 294.747 575.172C304.795 579.458 318.274 578.111 320.602 574.314C321.583 572.722 321.46 570.027 321.215 567.945C320.97 566.108 320.112 564.271 318.642 563.046C315.701 560.596 312.27 559.739 309.819 559.249C309.206 559.371 308.471 559.494 307.736 559.616C307.736 559.616 297.443 545.899 297.32 541.612C296.953 526.179 303.692 499.478 320.357 468.123C322.073 464.816 328.445 446.566 328.445 446.566C328.077 448.036 315.578 504.622 320.848 536.59C326.117 568.558 334.204 538.06 334.204 538.06C331.631 545.164 331.753 550.553 333.224 552.023C347.806 554.105 368.024 555.575 381.013 551.655C385.057 550.43 384.934 546.633 384.444 544.306L384.322 544.796Z" fill="#8A98E4"/>
<path d="M462.746 499.233C465.197 500.336 467.157 502.418 468.137 504.867C468.873 506.582 469.24 508.419 470.221 510.012C472.549 513.686 475.49 512.461 476.838 513.563C478.185 514.666 479.288 516.136 476.593 518.34C473.039 521.28 469.118 516.993 468.137 515.646C465.442 511.971 464.706 506.582 462.991 506.46C463.358 514.421 466.79 517.728 470.833 520.055C474.877 522.382 469.118 526.179 464.584 525.077C461.03 524.342 458.334 520.667 458.334 513.441C458.334 511.359 459.682 502.663 456.496 503.03C454.168 503.275 453.556 501.683 454.781 499.356C455.884 497.151 460.908 498.253 462.746 499.111V499.233Z" fill="white"/>
<path d="M447.674 558.759C447.183 556.799 446.938 555.697 444.12 554.717C440.566 553.492 439.096 552.39 439.341 548.593C439.341 548.593 441.056 547.981 441.179 546.878C444.488 527.036 447.674 508.297 446.448 496.539C445.345 485.638 442.772 473.39 437.258 464.449C437.013 473.145 438.116 498.376 435.542 504.99C434.44 507.807 429.17 510.257 426.475 510.501C417.897 511.236 412.015 509.399 407.236 506.46C403.56 519.688 404.54 528.139 403.438 546.388C403.438 546.878 405.031 548.348 407.726 548.838L397.678 552.268C396.698 552.635 395.473 553.125 395.473 554.105C395.718 556.187 398.414 559.494 402.09 559.739C403.928 559.861 409.81 560.106 411.525 559.861C415.446 559.371 417.284 557.657 416.672 553.737L415.814 549.451C418.387 549.206 420.96 547.736 421.205 545.899C421.818 538.182 421.328 528.751 423.166 524.464C423.166 524.464 423.166 539.897 425.984 546.878C426.597 548.226 427.7 548.348 429.906 548.961L428.925 557.779C428.925 558.882 429.415 559.861 430.396 560.351C436.278 562.801 441.056 563.536 444.978 562.678C447.061 561.944 448.041 561.331 447.551 558.637L447.674 558.759Z" fill="#ED5D15"/>
<path d="M441.914 554.227C443.262 554.472 439.831 554.84 438.973 556.799C438.116 558.759 437.748 556.799 437.871 556.309C438.973 553.982 441.669 554.105 441.914 554.105V554.227Z" fill="white"/>
<path d="M404.296 550.185C405.398 550.185 406.501 550.675 406.501 552.023C405.889 551.165 404.173 550.675 402.58 550.675C400.987 550.675 403.683 550.185 404.296 550.185Z" fill="white"/>
<path d="M456.251 498.253C454.781 496.294 453.31 494.701 450.859 494.946C448.409 495.191 445.59 498.376 445.345 500.581C444.978 503.275 446.693 506.705 447.673 506.582C449.511 506.337 449.021 503.03 449.021 503.03C449.021 503.03 452.33 509.522 452.575 510.257C452.943 511.114 453.923 512.216 454.781 512.094C455.638 511.971 455.516 511.726 455.148 510.134C454.781 508.542 454.413 507.194 454.413 507.194C454.413 507.194 454.903 507.072 455.393 506.582C455.883 506.092 455.883 505.48 455.883 505.48C456.986 505.235 457.599 503.887 457.109 502.663C457.109 502.663 457.721 502.295 457.599 501.438C457.476 500.58 456.986 499.233 456.251 498.253Z" fill="#FDEEE7"/>
<path d="M452.82 501.928C453.555 503.643 453.923 505.357 454.291 506.705C454.658 508.052 455.026 509.889 455.026 509.889C454.536 508.419 453.433 504.01 452.698 502.173C451.962 500.336 452.82 501.805 452.82 501.805V501.928Z" fill="#F09060"/>
<path d="M449.021 501.805C447.796 501.805 447.306 502.908 446.693 503.765C445.713 505.235 447.061 505.847 448.041 504.867C448.408 504.5 449.144 503.153 449.266 503.52C449.389 503.888 450.614 505.357 451.104 507.317C451.594 509.399 453.31 511.481 453.923 511.726C451.594 507.807 452.575 501.315 449.021 501.683V501.805Z" fill="#F09060"/>
<path d="M454.903 501.193C455.516 502.54 456.129 504.377 456.006 505.48C455.884 506.582 455.761 506.337 455.761 506.215C456.129 504.745 455.393 502.908 454.781 501.438C454.781 501.315 454.781 501.07 454.903 501.315V501.193Z" fill="#F09060"/>
<path d="M306.511 299.466C307.246 301.181 308.839 304.978 309.206 306.57C307.613 310.612 309.942 316.614 306.511 323.718C305.408 326.045 300.016 332.414 298.546 330.822C298.301 329.107 309.084 323.84 307.613 307.428C307.246 303.263 304.06 297.997 306.511 299.344V299.466Z" fill="white"/>
<path d="M437.87 447.669C435.542 450.976 427.209 446.076 418.632 453.425C412.26 452.323 392.409 435.053 387.507 422.56C382.606 410.067 387.262 421.335 387.507 420.723C388.243 419.131 391.306 417.783 394.247 417.048C397.065 416.313 399.639 415.946 399.761 416.191C405.643 427.214 413.853 449.628 437.87 447.669Z" fill="#F09060"/>
<path d="M357.241 258.558C358.466 254.883 358.711 253.903 358.589 251.944C358.466 249.984 357.976 250.107 357.486 249.494C356.996 248.882 359.079 250.107 359.324 249.494C359.569 248.882 361.285 244.717 359.569 240.92C359.201 240.186 358.466 242.758 357.608 243.003C349.644 244.472 345.845 242.758 338.248 239.696C337.635 239.451 336.9 239.696 336.532 240.308L328.445 253.414C328.445 253.536 328.2 253.658 328.077 253.781C327.464 254.271 326.607 256.231 326.361 254.761C326.116 253.291 326.729 246.31 320.235 247.657C319.622 247.657 319.254 248.147 319.132 248.759C318.519 251.699 321.95 256.231 323.176 257.945C323.421 258.313 323.543 258.925 323.298 259.293L318.274 270.806C316.926 272.766 312.637 273.133 311.902 273.255C310.922 273.5 315.946 283.544 315.456 283.789C309.451 285.994 320.112 284.279 320.48 284.279C326.974 284.891 336.532 310 339.35 315.144C342.169 320.288 342.169 290.403 343.639 282.564C343.639 282.074 350.134 277.175 354.79 269.336C355.035 268.969 356.138 267.989 356.261 267.621C356.751 264.682 355.525 263.212 357.118 258.68L357.241 258.558Z" fill="#E5E9F9"/>
<path d="M358.711 248.759C360.794 250.596 358.711 252.066 358.711 252.189C358.221 250.474 356.138 249.617 356.261 248.637C356.383 247.657 357.363 247.289 358.834 248.637L358.711 248.759Z" fill="#0020C2"/>
<path d="M346.703 246.432C350.379 247.045 347.315 247.657 344.62 248.514C341.924 249.372 341.679 250.474 340.698 250.351C335.919 249.617 344.375 245.942 346.703 246.432Z" fill="#0020C2"/>
<path d="M344.62 252.924C346.826 253.414 345.968 259.17 344.252 259.048C341.802 258.925 344.497 255.128 344.252 254.761C344.007 254.393 341.556 255.863 341.311 254.638C341.066 253.414 342.414 252.434 344.62 252.924Z" fill="#0020C2"/>
<path d="M356.996 256.721C357.854 259.17 356.628 261.252 355.77 261.13C354.913 261.007 354.422 259.538 355.648 257.945C356.873 256.353 355.77 257.455 355.648 257.21C354.913 256.476 353.81 257.21 353.687 256.843C353.565 256.476 353.687 256.231 354.177 255.863C355.158 255.128 356.628 255.618 356.996 256.721Z" fill="#0020C2"/>
<path d="M353.442 258.925C352.094 259.17 357.486 265.172 352.094 264.192C349.889 263.702 349.521 263.824 350.011 264.192C356.016 266.764 356.751 262.967 353.32 259.048L353.442 258.925Z" fill="#8A98E4"/>
<path d="M343.639 286.238C345.968 285.626 350.011 291.75 343.272 286.973C342.904 286.973 343.517 286.238 343.639 286.238Z" fill="black"/>
<path d="M360.55 304.733C360.305 312.572 358.221 314.409 360.182 305.101L360.427 304.856L360.672 304.611L360.55 304.733Z" fill="#282525"/>
<path d="M372.436 285.749C367.902 279.012 345.11 277.542 337.635 277.052C345.477 283.176 338.86 303.141 339.228 313.184C339.228 313.184 337.635 296.772 325.626 285.626C324.156 284.279 312.147 273.01 312.147 273.01C310.554 273.01 309.084 273.745 306.878 276.562L306.633 278.645C305.408 279.502 262.152 286.851 260.192 294.812C252.349 328.372 261.662 391.94 295.605 437.135C296.34 437.993 301.609 420.6 313.74 423.785C308.716 415.456 306.143 400.881 303.815 388.265C327.342 399.411 346.58 388.755 352.707 382.999L355.893 364.504C358.221 380.426 370.965 404.31 373.784 410.557C376.602 416.803 385.057 407.862 389.836 406.148C393.512 404.923 398.169 401.248 395.105 396.716C365.574 353.113 383.709 302.284 372.313 285.504L372.436 285.749Z" fill="#ED5D15"/>
<path d="M398.046 495.804C398.046 495.804 403.438 510.501 422.921 510.869C436.278 511.114 439.463 501.805 439.463 501.805L437.38 464.571C437.38 464.571 444.365 489.802 443.507 497.151C442.649 504.622 457.354 497.641 457.476 494.456C458.702 471.92 444.488 447.669 437.993 447.546C424.636 447.424 420.103 451.588 420.103 451.588C405.153 468.858 397.188 494.089 398.168 495.804H398.046Z" fill="#F09060"/>
<path d="M296.095 563.658C295.482 564.271 296.095 565.251 296.83 565.128C297.565 565.006 298.546 564.638 299.526 563.781C301.609 561.944 307.123 558.759 315.088 561.209C315.088 561.209 311.657 558.759 306.511 559.249C302.099 559.739 297.811 561.821 296.095 563.658Z" fill="white"/>
<path d="M362.633 541.122C362.633 541.122 366.431 538.182 369.862 537.202C365.083 537.57 361.407 538.917 359.079 541.244C357.731 542.592 360.427 543.081 362.633 541.122Z" fill="white"/>
<path d="M419.613 470.205C422.799 469.348 422.921 474.37 421.083 475.104C416.917 476.819 418.51 470.45 419.613 470.205Z" fill="#ED5D15"/>
<path d="M421.818 461.876C424.759 460.529 424.146 467.266 422.186 467.511C419.368 468.001 421.206 462.121 421.818 461.876Z" fill="#ED5D15"/>
<path d="M454.903 408.965C452.943 407.127 450.86 406.637 448.531 406.148C448.531 405.903 448.531 405.658 448.531 405.413C447.796 401.983 444.733 400.636 441.547 401.616C440.076 395.492 433.459 399.044 431.376 399.779C428.803 400.636 425.372 396.104 422.186 401.126C420.47 403.82 420.96 409.944 424.392 411.169C425.494 410.067 427.21 408.475 428.68 407.74C423.411 412.762 431.499 412.517 432.479 408.475C432.479 408.475 433.337 413.251 437.993 414.721C442.65 416.191 441.669 411.904 442.65 412.149C446.816 413.374 443.14 422.315 443.63 429.909C443.875 428.929 444.365 428.807 445.1 428.439C446.693 427.704 449.389 427.337 450.369 429.174C451.84 428.072 454.291 425.622 454.903 424.03C458.579 414.599 450.124 413.741 454.903 408.965Z" fill="#ED5D15"/>
<path d="M443.997 434.073C445.345 435.176 449.389 433.583 450.247 431.991C450.737 431.134 451.227 428.439 450.859 427.214C450.002 424.765 444.12 427.214 443.63 429.786C443.262 422.315 446.816 413.251 442.649 412.027C441.669 411.782 442.772 415.824 438.116 414.354C433.459 412.884 432.479 408.352 432.479 408.352C431.499 412.394 423.411 412.639 428.68 407.617C427.087 408.352 425.494 409.822 424.391 411.047C423.901 411.537 423.043 413.129 423.289 413.251C421.083 416.068 420.96 417.783 421.083 418.518C421.573 418.396 420.593 418.886 420.103 420.11C419.735 421.825 417.652 423.05 416.794 424.765C414.711 428.807 415.324 436.033 428.435 440.687C429.66 443.504 431.376 449.261 430.641 450.853C430.518 451.098 421.573 456.487 424.269 457.345C426.965 458.202 430.518 455.507 437.993 447.546C437.135 440.075 444.12 433.951 444.12 433.951" fill="#FDEEE7"/>
<path d="M438.238 447.669C435.91 452.078 428.068 458.692 424.146 457.467C425.739 456.855 427.332 456.242 429.171 454.895C432.724 452.445 433.459 451.711 437.871 447.669C437.871 447.669 438.116 447.669 438.238 447.669Z" fill="#EF7B3B"/>
<path d="M421.328 416.681C421.328 416.558 420.47 415.579 423.044 414.599C425.127 413.741 425.862 414.599 423.411 415.701C420.961 416.803 422.308 416.436 421.328 416.803V416.681Z" fill="#ED5D15"/>
<path d="M423.044 417.538C422.921 417.538 422.063 417.661 422.308 418.151C422.553 418.641 423.044 418.396 423.044 418.396C422.799 419.375 421.206 419.62 419.858 420.233C418.51 420.845 419.98 418.763 420.103 418.518C420.838 416.558 422.799 416.558 422.921 417.538H423.044Z" fill="#0020C2"/>
<path d="M432.356 415.211C432.847 414.599 437.38 417.906 437.013 419.131C436.523 421.458 435.542 418.518 433.949 417.171C432.356 415.824 431.009 416.436 432.234 415.211H432.356Z" fill="#ED5D15"/>
<path d="M419.49 432.603C415.079 426.847 421.818 429.052 427.21 430.031L426.107 432.236C426.107 432.236 419.122 433.583 419.49 432.481V432.603Z" fill="white"/>
<path d="M417.897 428.807C417.529 429.419 417.652 431.991 419.245 433.461C421.573 435.543 425.372 433.951 426.965 431.991L428.68 430.154C420.96 427.337 418.51 427.827 417.897 428.807ZM418.51 429.664C418.51 428.194 423.656 429.296 425.984 430.276C425.739 430.276 423.289 431.501 419.98 431.501C416.672 431.501 418.632 431.379 418.51 430.644C418.387 429.909 418.51 429.786 418.51 429.786V429.664Z" fill="#F09060"/>
<path d="M432.479 420.723C431.988 421.703 431.621 420.233 432.111 419.988C432.111 419.988 432.111 419.988 432.234 419.988C431.988 419.498 431.376 419.131 430.518 419.253C429.905 419.253 428.68 420.723 428.802 421.335C429.905 421.703 430.028 425.989 431.866 423.172C432.234 422.56 432.479 421.58 432.479 420.723Z" fill="#0020C2"/>
<path d="M423.902 426.234C422.799 425.989 422.063 425.255 422.186 424.642C422.186 424.52 422.309 424.275 422.431 424.152C421.818 424.152 421.451 424.52 421.328 424.887C421.206 425.5 421.941 426.234 423.044 426.479C423.902 426.602 424.637 426.479 425.004 426.112C424.637 426.112 424.269 426.112 423.902 426.112V426.234Z" fill="#F09060"/>
<path d="M436.278 542.102C438.728 540.999 440.321 538.06 438.361 532.058C436.4 526.057 433.704 519.81 436.523 513.808C437.871 517.36 442.159 519.81 445.468 516.993C445.468 516.993 443.752 519.688 442.65 522.382C440.321 528.261 440.321 541.244 443.017 544.674C446.326 548.961 451.227 546.633 450.492 540.509C449.757 533.65 442.159 526.791 448.776 514.543C451.227 510.012 452.453 506.092 449.634 503.52C448.164 502.173 442.527 502.54 437.748 508.664C433.459 514.053 429.783 521.892 428.68 530.466C427.332 540.632 432.847 543.694 436.155 542.224L436.278 542.102Z" fill="white"/>
<path d="M444.61 539.774C445.345 543.449 447.306 544.674 448.531 542.959C449.511 541.489 448.531 536.957 446.57 533.528C444.977 530.466 444.12 523.484 445.59 520.055C447.061 516.626 445.59 519.443 445.345 519.81C442.282 523.974 441.424 537.57 444.365 542.224L444.61 539.897V539.774Z" fill="#FDEEE7"/>
<path d="M434.072 540.142C438.606 538.672 433.091 528.874 432.846 520.667C428.68 531.691 429.415 536.467 431.376 539.53C433.459 542.837 432.479 537.447 432.479 537.447C433.337 537.937 434.072 538.672 434.072 540.142Z" fill="#FDEEE7"/>
<path d="M441.914 509.767C441.669 510.134 441.914 510.379 441.914 510.379C442.037 510.746 442.527 510.869 442.772 510.746L443.63 510.379C443.262 509.767 442.159 509.399 441.914 509.767Z" fill="#8A98E4"/>
<path d="M440.199 510.746C440.199 510.746 439.831 510.257 439.464 510.379C439.096 510.501 438.483 511.359 439.219 511.726C439.954 512.094 439.709 511.726 439.954 511.481C440.076 511.236 440.321 510.991 440.199 510.746Z" fill="#0020C2"/>
<path d="M444.855 511.849C444.243 511.849 443.875 512.461 443.998 513.074C444.12 513.686 444.61 513.441 444.855 513.319C445.1 513.196 445.346 512.829 445.346 512.584C445.346 512.216 445.1 511.971 444.733 511.971L444.855 511.849Z" fill="#0020C2"/>
<path d="M442.649 510.257L443.875 508.419C443.262 508.909 442.894 509.522 442.649 510.257Z" fill="#8A98E4"/>
<path d="M443.875 508.174C443.14 507.929 442.159 508.297 442.65 508.297C443.14 508.297 443.385 508.297 443.875 508.297C444.365 508.297 444.61 508.909 444.733 509.032C444.978 509.399 444.733 508.297 443.997 508.052L443.875 508.174Z" fill="#0020C2"/>
<mask id="mask0_6968_7687" style="mask-type:luminance" maskUnits="userSpaceOnUse" x="257" y="273" width="140" height="165">
<path d="M372.436 285.749C367.902 279.012 345.11 277.542 337.635 277.052C345.477 283.176 338.86 303.141 339.228 313.184C339.228 313.184 337.635 296.772 325.626 285.626C324.156 284.279 312.147 273.01 312.147 273.01C310.554 273.01 309.084 273.745 306.878 276.562L306.633 278.645C305.408 279.502 262.152 286.851 260.192 294.812C252.349 328.372 261.662 391.94 295.605 437.135C296.34 437.993 301.609 420.6 313.74 423.785C308.716 415.456 306.143 400.881 303.815 388.265C327.342 399.411 346.58 388.755 352.707 382.999L355.893 364.504C358.221 380.426 370.965 404.31 373.784 410.557C376.602 416.803 385.057 407.862 389.836 406.148C393.512 404.923 398.169 401.248 395.105 396.716C365.574 353.113 383.709 302.284 372.313 285.504L372.436 285.749Z" fill="white"/>
</mask>
<g mask="url(#mask0_6968_7687)">
<path d="M284.944 394.879C286.415 400.881 289.601 409.455 295.605 401.861C298.423 398.799 299.771 398.554 301.854 403.085C302.222 403.698 303.57 406.76 303.202 405.168C302.099 401.126 300.139 395.124 297.075 391.695C293.644 388.265 290.949 392.675 288.13 393.287C286.66 393.287 285.679 391.817 284.822 390.837C284.454 390.47 284.332 390.347 284.209 390.592C284.209 391.327 284.577 393.532 284.822 394.267V394.757L284.944 394.879Z" fill="#F09060"/>
<path d="M257.251 294.935C258.844 295.914 260.682 296.404 262.275 296.772C267.912 298.242 269.505 297.017 266.931 292.24C265.338 289.178 261.907 287.708 258.844 286.728C256.761 286.116 253.207 284.769 253.33 286.851C253.33 289.668 254.678 292.852 257.006 294.567L257.373 294.812L257.251 294.935Z" fill="#F09060"/>
<path d="M256.638 305.713C255.903 305.713 256.025 307.673 256.883 310.367C258.231 314.899 262.52 318.573 267.299 317.594C269.872 317.349 273.548 315.389 274.896 318.573C275.754 320.166 276.612 323.105 277.224 323.35C277.592 323.473 277.714 322.983 277.837 322.615C278.695 318.818 274.896 312.327 270.975 310.857C268.157 309.632 265.461 310.367 263.378 310.49C260.682 310.98 259.334 308.408 257.741 306.57C257.496 306.325 257.128 305.958 256.761 305.835L256.638 305.713Z" fill="#F09060"/>
<path d="M269.872 337.313C271.588 338.048 273.181 338.415 274.896 338.66C277.225 339.028 278.94 339.518 278.94 337.558C278.818 334.863 277.225 332.046 274.896 330.699C271.833 328.862 267.912 328.494 266.686 330.699C265.829 333.026 267.422 335.966 269.627 337.068H269.995L269.872 337.313Z" fill="#F09060"/>
<path d="M268.279 346.744C268.157 346.499 267.789 347.357 267.544 349.194C266.564 354.95 268.892 364.994 276.367 364.749C279.798 364.259 282.004 359.972 284.699 359.115C288.743 358.38 288.498 368.301 288.743 370.873C288.743 372.71 288.743 373.568 289.356 372.588C292.297 366.831 293.645 357.278 285.435 354.583C281.391 353.113 277.225 356.788 274.039 358.502C267.912 361.564 268.892 350.051 268.157 346.867L268.279 346.744Z" fill="#F09060" stroke="#F09060" stroke-miterlimit="10"/>
<path d="M289.601 383.488C287.64 386.183 282.249 383.488 282.371 380.426C282.371 378.344 285.19 376.507 287.273 376.997C289.969 377.487 291.071 381.039 289.846 383.244V383.488H289.601Z" fill="#F09060"/>
<path d="M300.996 374.425C302.222 376.262 304.672 377.242 306.633 378.099C309.084 379.079 310.799 379.447 310.799 377.732C310.554 375.16 308.839 372.465 306.265 371.485C304.427 370.75 302.712 370.261 301.609 370.75C299.771 371.363 299.894 372.955 300.874 374.18L301.119 374.425H300.996Z" fill="#F09060"/>
<path d="M284.086 311.592C285.679 313.184 288.13 313.919 290.213 314.164C292.541 314.409 293.399 313.062 292.419 310.367C291.439 307.673 288.743 306.08 286.169 305.346C281.758 304.488 282.003 308.897 283.964 311.347L284.209 311.715L284.086 311.592Z" fill="#F09060"/>
<path d="M272.813 280.482C271.465 283.666 272.568 290.403 276.611 292.73C280.533 295.67 286.292 292.363 289.6 296.159C290.948 297.507 291.806 299.711 291.929 297.507C292.174 295.057 290.703 288.688 287.885 286.728C285.557 284.524 282.003 284.646 279.307 283.789C277.469 283.299 275.631 281.584 274.651 280.482C273.916 279.747 273.18 279.257 272.69 280.237L272.813 280.482Z" fill="#F09060"/>
<path d="M297.075 360.707C297.81 363.647 306.143 365.729 306.02 361.319C305.775 358.625 301.977 356.788 299.403 357.4C297.933 357.645 296.462 358.87 296.953 360.462V360.707H297.075Z" fill="#F09060"/>
<path d="M282.616 337.068C284.821 341.967 289.11 345.152 293.399 342.947C296.217 341.232 297.565 337.803 299.526 335.231C301.609 332.046 304.06 334.986 305.04 337.803C306.143 340.498 306.265 344.417 306.143 347.357C306.143 348.704 306.02 349.929 306.143 351.031C306.143 351.276 306.143 351.398 306.265 351.398C307.246 350.296 308.104 347.234 308.349 342.947C308.349 340.008 307.736 337.068 306.388 334.619C304.182 330.087 297.443 324.33 294.012 324.942C289.233 325.187 291.071 339.028 286.414 336.946C282.738 334.251 282.616 328.127 282.738 323.963C282.738 320.411 282.738 319.063 282.493 320.533C281.39 325.555 280.533 331.679 282.493 336.578V336.946L282.616 337.068Z" fill="#F09060"/>
<path d="M273.671 406.515C274.773 411.537 277.837 426.112 280.288 416.558C281.39 412.762 281.758 407.985 284.209 404.555C285.557 402.963 284.086 402.841 282.738 402.473C280.9 402.106 277.837 401.003 275.876 401.738C273.548 402.473 273.058 403.698 273.671 406.025V406.27V406.515Z" fill="#F09060"/>
<path d="M372.681 330.087C372.068 330.087 372.191 331.067 372.191 331.557C372.068 334.006 373.661 339.395 376.847 340.988C380.401 343.315 384.322 340.498 387.998 340.498C388.978 340.62 389.468 341.355 389.959 342.335C391.061 344.662 391.797 347.846 394.247 349.194C395.963 350.174 398.659 350.174 399.884 349.806C403.56 348.091 390.571 338.538 388.366 337.803C385.057 336.211 382.116 335.966 378.93 335.108C376.479 334.374 375.132 332.659 373.906 331.189C373.539 330.822 373.048 330.209 372.681 329.964V330.087Z" fill="#F09060"/>
<path d="M250.879 357.767C252.349 359.727 258.231 363.402 260.314 360.707C261.172 358.747 260.069 355.563 258.844 353.848C257.863 352.501 256.148 352.501 254.8 352.991C253.084 353.603 249.653 355.195 250.756 357.522V357.767H250.879Z" fill="#F09060"/>
<path d="M253.207 370.873C253.207 373.69 254.923 378.712 258.721 378.712C261.294 378.834 264.726 376.752 267.054 377.242C270.607 377.854 271.71 384.101 274.896 384.101C276.612 382.754 275.141 380.182 273.303 378.099C269.872 373.935 264.848 372.71 259.702 372.833C257.006 372.588 255.658 371.24 254.555 369.893C253.33 368.423 253.084 369.281 253.084 370.628V370.873H253.207Z" fill="#F09060"/>
<path d="M274.406 390.837C271.71 387.285 265.093 389.613 268.156 394.144C270.975 397.819 277.837 396.104 274.773 391.205L274.528 390.837H274.406Z" fill="#F09060"/>
<path d="M370.72 379.447C370.353 377.487 371.701 372.343 368.27 372.343C366.187 372.22 362.51 373.568 359.57 373.323C352.34 372.71 352.095 363.647 353.688 359.115C353.933 358.38 354.423 356.543 354.791 358.502C355.281 360.34 354.913 362.912 356.016 364.504C356.751 365.239 357.732 365.116 358.957 364.994C360.672 364.749 362.878 364.136 365.206 364.626C372.191 365.974 373.784 375.405 371.333 379.937C370.966 380.671 370.843 379.937 370.843 379.569L370.72 379.447Z" fill="#F09060"/>
<path d="M365.329 353.113C364.226 353.603 362.143 353.236 360.795 352.746C358.589 352.011 356.138 351.031 355.526 348.704C354.913 347.234 354.913 344.907 356.506 344.295C357.731 343.805 358.957 344.172 360.305 344.784C362.755 345.764 365.941 348.581 366.187 351.521C366.309 352.133 366.064 352.868 365.574 353.113H365.329Z" fill="#F09060"/>
<path d="M361.285 394.267C362.143 393.165 364.349 393.532 366.432 394.267C368.515 395.002 370.353 396.227 370.72 398.554C370.966 399.901 371.211 402.228 369.618 402.718C366.677 403.208 359.202 397.819 361.04 394.389V394.144L361.285 394.267Z" fill="#F09060"/>
<path d="M368.147 337.803C367.657 339.64 367.044 340.62 366.799 340.375C365.941 338.17 367.412 333.149 363.981 332.536C360.304 331.801 354.668 334.496 351.727 330.577C349.889 328.494 349.276 325.677 349.521 322.983C349.521 322.003 350.992 314.654 351.237 317.349C351.359 327.27 351.727 326.412 361.285 324.942C368.269 324.575 370.23 331.801 368.392 337.558V337.926L368.147 337.803Z" fill="#F09060"/>
<path d="M354.668 305.223C351.482 307.183 355.403 312.572 358.834 312.449C360.672 312.449 362.143 310.98 361.898 309.142C361.408 306.203 357.731 304.121 354.913 304.978H354.668V305.223Z" fill="#F09060"/>
<path d="M364.103 298.854C363.858 297.629 363.736 295.914 362.388 295.425C360.55 294.812 355.648 296.772 351.972 294.812C349.889 293.71 348.419 291.75 347.438 289.545C346.213 286.483 346.09 282.687 346.703 279.747C346.826 279.257 346.948 278.89 347.438 278.89C347.928 279.257 348.296 279.992 348.664 280.604C352.217 288.688 362.265 282.931 364.593 293.097C365.451 296.159 364.839 303.631 364.226 298.977V298.732L364.103 298.854Z" fill="#F09060"/>
<path d="M362.755 388.633C363.981 389.98 366.431 389.613 367.044 388.02C367.534 386.551 367.044 384.958 366.064 383.856C362.755 380.671 360.672 385.938 362.633 388.388L362.878 388.633H362.755Z" fill="#F09060"/>
<path d="M331.018 406.392C328.812 406.148 325.626 405.045 323.666 403.698C321.583 401.983 319.377 396.349 323.053 395.982C326.974 396.227 331.631 399.656 331.998 403.82C331.998 405.045 332.121 406.025 331.263 406.27H331.14L331.018 406.392Z" fill="#F09060"/>
<path d="M326.974 390.592C325.381 391.817 321.95 391.94 320.602 390.592C319.745 389.49 319.745 387.653 320.847 386.673C322.195 385.448 324.524 385.448 325.994 386.183C327.832 387.163 328.445 389.245 327.219 390.47L326.974 390.715V390.592Z" fill="#F09060"/>
<path d="M326.484 380.181C324.891 379.202 322.318 378.222 320.48 377.242C317.661 376.14 315.701 370.995 315.823 368.791C315.823 366.219 319.254 368.913 320.725 369.403C323.053 370.383 326.729 371.608 328.077 374.425C329.425 376.997 331.386 383.121 326.852 380.304H326.607L326.484 380.181Z" fill="#F09060"/>
<path d="M329.057 360.462C328.077 359.482 327.587 356.788 326.729 355.563C324.156 351.521 317.906 356.665 314.23 352.256C312.27 350.174 311.412 346.744 310.922 344.05C310.309 339.885 311.289 340.13 312.882 344.295C313.495 346.254 314.72 346.989 316.803 346.377C319.377 345.642 322.318 344.417 325.013 345.887C329.302 347.724 330.405 354.705 329.915 358.38C329.792 359.237 329.915 360.217 329.302 360.585L329.057 360.462Z" fill="#F09060"/>
<path d="M317.171 335.966C314.475 335.966 310.554 334.129 308.471 332.046C306.511 329.719 304.918 325.065 308.471 325.555C310.922 326.167 313.863 325.8 316.436 327.27C319.377 329.107 321.95 335.231 317.416 335.966H317.049H317.171Z" fill="#F09060"/>
<path d="M318.519 319.308C317.171 317.349 318.152 305.835 313.005 308.285C310.799 309.265 307.981 312.449 304.795 312.939C300.874 313.552 297.32 310.245 295.727 306.938C293.889 303.141 294.257 297.997 294.992 295.425C295.115 294.935 295.727 292.73 296.217 293.71C297.565 297.139 296.708 307.55 302.957 303.386C304.918 302.283 307.123 300.324 309.329 299.589C313.618 298.119 317.416 302.161 318.887 305.958C320.602 310.122 319.99 315.511 319.254 317.839C319.132 318.329 318.887 319.308 318.397 319.308H318.519Z" fill="#F09060"/>
<path d="M299.649 288.443C302.712 290.648 307.368 287.463 305.408 283.911C304.305 281.829 300.874 280.727 299.158 281.952C296.83 283.299 297.565 286.851 299.281 288.198L299.649 288.443Z" fill="#F09060"/>
<path d="M396.208 394.267C395.595 393.287 394.86 390.96 394.37 389.735C393.88 388.388 393.145 386.061 391.307 387.163C389.714 388.02 387.018 391.205 384.445 390.715C379.788 389.613 377.215 380.794 377.092 376.875C377.092 376.63 377.46 376.752 377.705 377.119C380.646 381.529 382.239 381.039 387.14 380.426C393.635 379.447 395.84 388.633 396.453 393.409C396.453 394.022 396.453 395.002 396.208 394.512V394.267Z" fill="#F09060"/>
<path d="M384.567 369.893C381.871 371.73 375.009 370.261 375.867 366.219C376.357 364.626 377.705 363.402 379.298 362.789C382.606 361.197 388.488 366.586 384.934 369.648L384.689 369.893H384.567Z" fill="#F09060"/>
<path d="M334.694 315.756C331.386 315.389 327.955 319.431 326.117 316.614C325.259 315.144 324.279 311.225 323.789 311.47C323.543 311.592 323.666 311.837 323.543 312.204C323.543 314.287 323.911 316.614 324.646 318.573C326.975 325.677 335.675 322.86 339.963 327.515C342.292 329.964 342.782 330.209 342.659 327.27C342.414 322.738 339.718 316.369 334.939 315.634H334.572L334.694 315.756Z" fill="#F09060"/>
<path d="M383.586 283.054C382.484 284.646 380.646 285.504 378.808 285.259C375.867 284.891 374.519 280.482 376.724 278.277C379.42 275.215 386.16 278.645 383.832 282.687L383.586 283.054Z" fill="#F09060"/>
<path d="M353.932 404.188C352.83 403.453 352.217 401.983 350.256 400.391C348.051 398.554 344.742 398.064 342.414 396.349C339.718 394.389 338.738 388.265 338.615 386.428C338.615 384.836 339.228 387.04 339.473 387.53C341.924 396.839 350.624 385.081 354.055 393.042C355.28 396.104 355.28 400.146 354.668 403.33C354.545 403.943 354.423 404.31 353.932 404.31V404.188Z" fill="#F09060"/>
<path d="M341.556 307.428C340.453 305.223 342.904 293.097 337.022 296.404C334.694 297.629 331.998 299.834 329.18 300.079C324.891 300.691 320.112 296.037 319.867 291.26C319.622 288.688 320.112 285.749 321.093 283.544C321.828 281.952 322.808 280.359 322.931 283.054C323.298 285.504 322.686 289.423 324.033 291.75C325.014 292.975 326.974 291.995 329.548 290.77C331.141 290.035 332.856 289.3 334.694 289.3C342.537 289.668 345.6 298.854 342.904 305.346C342.414 306.815 341.924 307.673 341.556 307.428Z" fill="#F09060"/>
<path d="M334.572 334.129C336.165 334.251 338.738 335.721 340.331 337.068C341.924 338.66 344.497 343.192 340.821 343.682C339.105 343.682 336.165 342.825 334.572 341.233C333.101 339.763 331.508 334.619 334.572 334.129Z" fill="#F09060"/>
<path d="M340.698 374.057C342.536 373.568 344.865 373.812 346.58 374.792C349.153 376.262 347.928 379.324 345.722 380.059C343.517 381.039 340.943 380.304 339.473 378.222C338.248 376.63 338.615 374.67 340.331 374.18H340.698V374.057Z" fill="#F09060"/>
<path d="M333.959 353.236C335.185 362.422 345.233 347.602 349.399 360.34C350.012 362.912 350.257 366.341 349.399 368.668C349.154 368.668 348.664 365.116 348.051 363.157C346.213 357.89 338.003 366.709 334.082 359.237C332.121 355.563 332.734 350.296 332.979 348.214C332.979 348.091 332.979 348.214 333.101 348.459C333.346 349.684 333.592 351.766 333.837 352.991V353.236H333.959Z" fill="#F09060"/>
<path d="M369.373 291.995C369.005 297.262 370.966 303.631 376.48 304.488C379.543 304.856 383.097 303.998 386.038 304.488C387.018 304.488 387.753 304.733 388.611 304.611C392.655 304.856 389.714 295.057 388.611 292.607C386.895 288.443 383.587 287.218 379.421 287.708C376.725 287.953 372.804 286.851 370.843 287.218C369.25 287.831 369.373 290.035 369.25 291.505V291.873L369.373 291.995Z" fill="#F09060"/>
<path d="M378.44 319.431C379.911 321.636 383.219 322.615 385.915 322.003C388.733 321.636 391.184 318.696 389.101 316.124C386.038 311.47 375.377 312.817 378.195 319.063L378.44 319.431Z" fill="#F09060"/>
<path d="M380.278 329.107C379.053 329.474 378.563 330.577 379.175 332.536C380.278 338.17 387.385 340.988 392.287 342.09C397.311 342.947 395.473 336.946 394.125 334.374C391.429 330.332 385.057 328.25 380.523 329.107H380.278Z" fill="#F09060"/>
<path d="M396.943 353.113C396.821 356.788 390.694 355.93 389.469 353.236C388.488 351.398 390.081 349.316 391.919 349.071C394.125 348.704 396.576 350.664 396.943 352.746V353.113Z" fill="#F09060"/>
<path d="M392.042 367.688C395.35 374.425 397.924 371.608 403.56 371.975C405.644 372.343 406.992 373.445 406.134 370.995C405.766 369.893 404.663 367.688 403.683 366.341C401.6 363.034 397.556 362.299 394.37 361.564C389.591 360.462 390.694 364.504 392.042 367.199L392.287 367.566L392.042 367.688Z" fill="#F09060"/>
<path d="M394.86 395.002C397.801 399.289 404.541 394.512 405.398 398.186C405.643 399.534 405.766 402.228 406.256 401.983C408.339 398.676 406.746 392.92 403.56 390.715C401.355 389 398.536 389.98 396.086 390.225C394.125 390.347 394.248 388.143 394.248 386.673C394.248 384.836 394.248 383.244 394.002 383.733C392.9 387.163 392.532 391.572 394.738 394.757L394.983 395.002H394.86Z" fill="#F09060"/>
</g>
<path d="M357.364 357.278C359.815 345.152 360.427 333.149 360.427 315.756C364.226 323.35 362.388 340.743 360.427 350.051C358.467 359.36 357.241 357.155 357.241 357.155L357.364 357.278Z" fill="white"/>
<path d="M359.937 242.39C360.305 243.982 360.06 245.942 360.182 245.942C371.21 245.575 369.005 227.815 360.55 225.12C355.526 223.528 347.071 228.182 341.189 228.06C335.675 228.06 328.2 224.385 323.666 228.917C319.377 233.327 319.377 241.778 321.46 247.167C324.279 247.167 325.504 248.759 325.872 250.351C326.729 253.781 327.097 257.333 326.729 258.925C324.034 268.724 324.769 281.462 335.675 285.749C342.292 288.443 355.648 275.46 356.506 267.254C348.173 267.499 337.39 262.722 331.999 257.578C329.67 255.373 329.303 251.944 330.896 249.249L337.268 238.961C346.09 242.513 350.992 246.922 360.06 242.268L359.937 242.39Z" fill="#0020C2"/>
<path d="M333.591 263.09C338.493 266.764 349.154 269.336 348.296 271.908C347.438 274.603 334.817 278.032 333.591 263.09Z" fill="#FDEEE7"/>
<path d="M335.919 266.029C338.86 269.459 342.536 270.438 346.825 271.663C343.394 271.908 336.9 269.459 335.919 266.029Z" fill="#0020C2"/>
<path d="M352.094 227.692C353.687 226.958 349.766 230.265 346.703 230.632C338.125 231.734 328.077 224.63 322.808 235.409C326.117 221.936 339.228 233.082 352.094 227.692Z" fill="white"/>
<path d="M344.007 289.3C351.114 300.446 342.414 312.939 340.944 312.327C343.517 304.978 344.252 297.017 344.007 289.3Z" fill="white"/>
<path d="M330.283 297.507C332.734 301.181 339.596 315.634 337.635 315.634C337.635 315.634 331.141 300.936 322.073 291.383C320.112 291.628 316.069 292.975 316.069 292.975C316.069 292.975 306.878 279.38 306.633 278.645C306.388 277.91 306.633 276.562 306.878 276.562C307.859 276.44 312.147 281.094 316.069 290.28C316.559 288.811 317.907 286.361 319.255 285.504C321.705 283.789 322.808 284.156 324.401 286.606C326.607 289.913 329.793 296.772 330.283 297.384V297.507Z" fill="white"/>
<path d="M318.397 427.337C322.931 429.419 326.239 425.989 323.789 424.275C321.583 422.805 319.5 420.6 318.642 417.538C317.907 414.966 316.436 413.251 314.721 412.027C312.147 410.312 310.309 407.74 309.329 404.8C306.021 395.737 300.261 378.222 296.463 359.972C295.36 354.705 294.502 350.786 295.85 360.217C298.056 376.017 301.977 399.044 306.633 409.455C299.771 409.455 292.296 415.211 290.703 422.438C290.091 425.5 290.458 428.807 292.296 431.991C294.502 435.666 296.463 438.85 299.526 441.667C302.835 444.484 307.736 446.689 309.084 446.811C310.432 446.934 310.677 444.729 309.084 443.872C305.898 442.279 305.653 441.79 304.305 440.442C302.222 438.238 300.384 435.421 300.384 435.298C300.384 434.073 302.835 438.238 304.918 440.197C306.511 441.79 308.716 443.137 311.167 444.117C312.638 444.729 313.863 445.097 316.926 445.954C318.764 446.444 319.01 443.382 316.681 442.647C315.333 442.157 313.863 441.545 312.76 440.932C308.716 438.483 305.898 435.421 303.937 432.603C303.692 432.359 303.937 432.114 304.183 432.359C307.369 435.421 309.329 437.993 314.108 440.687C315.824 441.667 319.622 443.137 321.705 443.259C322.196 443.259 322.686 443.259 322.808 442.647C323.543 440.81 322.073 439.83 321.093 439.462C318.764 438.85 315.211 436.89 313.74 435.788C312.393 434.808 310.8 433.093 307.736 428.807C307.491 428.562 307.981 428.194 308.226 428.562C310.064 431.011 312.025 433.706 314.476 435.543C316.681 437.258 322.563 439.952 323.543 438.85C324.646 437.38 323.666 435.176 321.828 434.196C319.5 432.971 315.211 431.746 313.863 425.5C313.495 424.03 317.539 426.724 318.519 427.214L318.397 427.337Z" fill="#E5E9F9"/>
<path d="M394.125 395.002C391.306 390.47 381.258 389.98 377.092 394.267C371.945 399.656 372.435 407.372 376.234 413.864C377.337 415.701 378.195 417.661 378.562 419.375C379.543 423.785 382.361 421.213 382.729 419.253L382.974 408.72C382.974 408.72 385.057 414.599 386.65 418.396C385.669 418.763 383.709 420.233 383.464 421.703C382.851 425.132 384.077 426.234 385.424 425.377C386.772 424.52 386.772 424.52 387.385 423.907C386.037 427.214 388.733 427.827 389.468 426.969C390.694 425.622 391.551 424.52 391.551 424.52C391.061 425.5 391.061 427.092 392.409 426.847C393.757 426.602 396.575 425.01 397.678 422.315C397.678 422.315 399.026 423.662 400.006 421.09C400.987 418.518 401.722 413.741 400.742 408.475C399.516 402.351 394.002 395.247 394.002 395.247L394.125 395.002Z" fill="#E5E9F9"/>
<path d="M386.65 418.273C386.65 418.273 384.567 418.273 382.851 417.171C381.258 416.068 381.626 414.354 382.116 413.619C382.116 413.619 380.155 412.884 380.891 410.924C380.891 410.924 379.788 410.557 379.91 409.332C379.91 408.107 381.136 406.882 382.729 406.27C383.954 405.903 385.67 405.658 386.65 406.515C387.63 407.372 386.65 408.352 386.65 408.352C386.65 408.352 387.753 408.72 387.998 409.454C388.243 410.189 387.998 410.557 386.895 411.292C386.895 411.292 388.365 411.292 388.611 412.394C388.856 413.496 387.998 414.721 385.67 415.579C385.67 415.579 386.16 416.926 386.65 418.028V418.273Z" fill="#FDEEE7"/>
<path d="M382.116 413.741V413.619C381.381 413.374 380.768 412.639 380.768 411.782C380.768 411.537 380.768 411.292 380.891 411.047V410.924C380.891 410.924 379.91 410.557 380.033 409.455H379.788C379.788 410.557 380.523 410.924 380.768 411.047C380.4 412.149 380.891 413.374 381.993 413.741C381.258 415.211 381.381 416.558 382.606 417.171C382.729 420.845 379.543 422.438 379.053 420.478C378.562 418.518 377.827 416.436 376.724 414.721C374.519 411.292 373.293 406.76 373.416 402.596C373.416 402.351 373.171 402.351 373.171 402.596C372.19 407.74 373.783 411.414 377.46 417.293C378.317 418.763 378.44 421.458 379.175 421.825C381.748 422.193 383.464 419.62 383.341 417.416C381.748 416.558 381.381 414.966 382.239 413.619L382.116 413.741Z" fill="#F09060"/>
<path d="M387.262 411.292C387.507 411.169 387.63 411.047 387.875 410.924C388.855 410.067 387.875 408.842 386.895 408.475C387.63 407.74 387.385 406.515 386.282 406.148C383.831 405.168 380.033 406.515 379.665 409.454H379.91C380.155 407.74 381.993 406.637 383.586 406.392C384.934 406.025 387.507 406.392 386.65 408.352C385.669 408.475 384.689 407.985 382.116 409.699C381.626 410.067 381.871 410.189 382.116 410.067C384.076 408.475 386.65 408.597 387.385 409.087C388.243 409.699 387.998 410.434 386.895 411.292C384.812 411.537 384.444 411.659 383.464 412.394C382.974 412.762 382.974 413.129 383.464 412.639C384.076 412.272 386.159 411.169 387.262 411.659C389.223 412.517 387.752 414.354 387.017 414.844C386.527 415.211 386.16 415.456 385.669 415.824C388.12 415.701 390.081 411.659 387.262 411.292Z" fill="#F09060"/>
<path d="M398.046 422.193C398.781 419.743 399.761 416.069 399.761 415.211C399.761 413.864 399.271 416.313 399.271 416.313C398.414 419.253 397.923 420.968 397.556 422.315C397.188 423.662 397.311 423.05 397.066 423.295C396.33 424.275 395.35 425.01 394.37 425.622C392.899 426.602 391.429 426.969 391.674 425.255C392.532 424.275 394.002 422.315 394.983 420.11C395.595 418.763 395.595 417.661 395.595 417.661C395.595 417.661 393.512 423.295 389.468 426.479C388.733 427.214 387.508 426.479 387.385 425.622C387.385 425.01 387.385 424.152 387.63 423.662C387.63 423.54 387.63 423.417 387.385 423.662C387.018 424.03 386.527 424.275 386.16 424.642C385.425 425.132 384.444 425.867 383.832 424.642C382.851 422.07 384.077 419.376 386.65 418.396C386.65 418.396 386.773 418.396 386.65 418.151C386.65 418.151 386.65 418.151 386.405 418.151C385.425 418.641 384.567 419.253 383.832 420.11C382.239 422.193 382.484 427.949 386.16 424.887C386.527 424.642 386.773 424.397 387.018 424.152C386.895 424.642 386.65 425.255 386.773 425.745C386.773 426.969 388.611 427.827 389.468 426.847C389.468 426.847 389.591 426.724 389.713 426.602C390.081 426.357 390.571 426.112 390.571 426.112C390.571 426.112 390.694 425.989 391.061 425.622C391.061 426.602 391.797 427.214 393.022 426.479C394.37 425.867 397.556 423.54 397.923 422.438C398.904 422.927 399.884 421.948 400.007 420.968C399.639 421.825 398.904 422.927 397.923 422.315L398.046 422.193Z" fill="#F09060"/>
</g>
<defs>
<clipPath id="clip0_6968_7687">
<rect width="838" height="699" fill="white"/>
</clipPath>
</defs>
</svg>
