<svg width="489" height="489" viewBox="0 0 489 489" fill="#37424A" xmlns="http://www.w3.org/2000/svg">
  <path class="foreground" fill-rule="evenodd" clip-rule="evenodd" d="M489 29.5725C489 13.2303 475.751 0 459.427 0L132.399 0.141683C59.2769 0.146887 0 59.4244 0 132.549L0.13616 459.445C0.139912 475.806 13.4112 489 29.707 489H459.427C475.718 489 489 475.809 489 459.438V29.5725ZM399.915 83.7273C431.835 68.7056 454.138 49.6728 463.82 22.2293L132.41 22.2955C71.5599 22.2955 22.2295 71.6257 22.2295 132.476L22.2516 184.616C29.3503 178.993 36.4766 173.9 43.6066 169.364L44.6462 168.678C55.1545 161.522 66.4208 155.557 79.0836 150.442C116.989 135.124 160.719 130.469 207.011 125.545L207.157 125.529L207.159 125.529C216.646 124.52 226.445 123.478 236.368 122.317C280.462 117.167 344.203 106.51 397.508 84.9766L399.915 83.7273ZM212.158 170.338L212.162 170.337C221.682 169.325 231.517 168.28 241.587 167.101C288.42 161.631 356.405 150.199 414.35 126.789C433.929 118.877 448.96 110.402 466.777 97.4597V459.41C466.777 463.467 463.487 466.77 459.43 466.77H29.7111C25.6539 466.77 22.3659 463.467 22.3659 459.41L22.2775 245.487C33.3948 233.976 49.5316 218.986 67.8782 207.337L69.5434 206.244L69.8341 206.047C77.6909 200.685 86.2248 196.173 95.9253 192.256C128 179.291 168.69 174.962 211.775 170.379L212.158 170.338ZM372.59 382.105C369.182 385.768 365.269 387.595 360.843 387.595H347.56V343.154H360.843C365.269 343.154 369.182 345.029 372.59 348.772C375.996 352.518 377.7 357.966 377.7 365.118C377.7 372.782 375.996 378.445 372.59 382.105ZM370.292 305.478C367.738 309.142 363.992 310.969 359.055 310.969H347.56V273.681H359.055C363.992 273.681 367.738 275.556 370.292 279.301C372.849 283.047 374.124 287.472 374.124 292.582C374.124 297.522 372.849 301.819 370.292 305.478ZM122.545 354.135L135.572 276.747H136.082L149.107 354.135H122.545ZM231.734 417.223C234.881 419.609 240.752 421.838 251.753 421.838L299.154 421.821H371.826C381.698 421.821 390.127 420.502 397.112 417.863C404.091 415.225 409.754 411.519 414.096 406.752C418.437 401.986 421.633 396.28 423.674 389.64C425.716 382.997 426.739 375.762 426.739 367.928C426.739 363.164 426.101 358.439 424.824 353.751C423.547 349.071 421.545 344.773 418.822 340.852C416.097 336.94 412.602 333.663 408.35 331.017C404.091 328.383 398.983 326.806 393.025 326.294V325.785C398.131 324.763 402.477 322.975 406.052 320.421C409.627 317.867 412.566 314.763 414.86 311.098C417.164 307.44 418.86 303.353 419.973 298.838C421.076 294.328 421.633 289.688 421.633 284.917C421.633 271.126 417.587 260.102 409.498 251.843C401.41 243.585 388.848 239.456 371.826 239.456H300.245L300.317 391.17H279.624C275.878 391.17 273.11 390.365 271.324 388.745C269.535 387.128 268.643 384.364 268.643 380.443V314.548H286.776V283.641H268.643V243.031H222.667V283.641H176.534L165.71 239.456H105.943L62.2705 421.821H112.07L116.924 389.892H154.727L159.579 421.821H210.149L183.951 314.548H222.667V388.107C222.667 395.77 223.39 401.94 224.834 406.623C226.284 411.309 228.582 414.842 231.734 417.223Z" />
</svg>
