<?xml version="1.0" encoding="utf-8"?>
<!-- Generator: Adobe Illustrator 26.5.0, SVG Export Plug-In . SVG Version: 6.00 Build 0)  -->
<svg version="1.1" id="Layer_1" xmlns="http://www.w3.org/2000/svg" xmlns:xlink="http://www.w3.org/1999/xlink" x="0px" y="0px"
	 viewBox="0 0 119 86" style="enable-background:new 0 0 119 86;" xml:space="preserve">
<style type="text/css">
	.st0{fill:none;stroke:#CDE9E3;stroke-miterlimit:10;}
</style>
<path class="st0" d="M12.8,4h94c4.4,0,8,3.6,8,8v62c0,4.4-3.6,8-8,8h-94c-4.4,0-8-3.6-8-8V12C4.8,7.6,8.3,4,12.8,4z"/>
<path class="st0" d="M33.2,20.5h69c0.8,0,1.5,0.7,1.5,1.5v7c0,0.8-0.7,1.5-1.5,1.5h-69c-0.8,0-1.5-0.7-1.5-1.5v-7
	C31.8,21.2,32.4,20.5,33.2,20.5z"/>
</svg>
