<svg width="241" height="50" viewBox="0 0 241 50" fill="none" xmlns="http://www.w3.org/2000/svg">
<path d="M0 0.0615234V25.3386C0 42.0232 19.8332 49.9094 19.8332 49.9094C19.8626 49.9094 39.6664 41.9938 39.6664 25.3386V0.0615234H0Z" fill="#009D4F"/>
<path d="M26.1599 15.5691L28.0726 13.6564L19.8333 5.3877L11.594 13.6564L13.5067 15.5691L19.8333 9.24252L26.1599 15.5691Z" fill="white"/>
<path d="M6.59152 12.5088L2.70728 16.3636V20.2184L6.59152 16.3636L15.9785 25.7505L17.9206 23.8379L6.59152 12.5088Z" fill="white"/>
<path d="M36.9593 16.393L33.075 12.5088L15.2722 30.3116C14.0069 31.5181 13.2124 33.2248 13.2124 35.1081C13.2124 38.7569 16.1844 41.7289 19.8333 41.7289C23.4821 41.7289 26.4542 38.7569 26.4542 35.1081C26.4542 33.2542 25.6891 31.5769 24.4532 30.3705L23.6881 29.6054L21.7754 31.5181L22.5993 32.3714C23.3056 33.0777 23.747 34.0487 23.747 35.1375C23.747 37.2856 21.9814 39.0512 19.8333 39.0512C17.6852 39.0512 15.9196 37.2856 15.9196 35.1375C15.9196 34.0487 16.361 33.0777 17.0967 32.3714L33.075 16.393L36.9593 20.2773V16.393Z" fill="white"/>
<path d="M55.5859 10.4785H52.6433V27.8399H55.5859V10.4785Z" fill="black"/>
<path d="M62.7955 20.6008V27.7513H60V14.539H62.7955V16.9519C63.2369 16.128 63.8548 15.5101 64.6493 15.0392C65.4438 14.5684 66.2972 14.333 67.2094 14.333C68.7101 14.333 69.9166 14.7744 70.8288 15.6866C71.741 16.5988 72.2118 17.923 72.2118 19.6297V27.7219H69.4164V20.5125C69.4164 18.0701 68.4159 16.8637 66.3855 16.8637C65.4144 16.8637 64.5905 17.1873 63.8843 17.8347C63.1486 18.4527 62.7955 19.3943 62.7955 20.6008Z" fill="black"/>
<path d="M78.3323 20.6008V27.7513H75.5369V14.539H78.3323V16.9519C78.7737 16.128 79.3917 15.5101 80.1862 15.0392C80.9807 14.5684 81.8341 14.333 82.7463 14.333C84.247 14.333 85.4535 14.7744 86.3657 15.6866C87.2779 16.5988 87.7487 17.923 87.7487 19.6297V27.7219H84.9532V20.5125C84.9532 18.0701 83.9527 16.8637 81.9223 16.8637C80.9513 16.8637 80.1273 17.1873 79.4211 17.8347C78.6855 18.4527 78.3323 19.3943 78.3323 20.6008Z" fill="black"/>
<path d="M97.783 26.8099C97.1356 27.575 96.194 27.9575 94.9875 27.9575C93.7811 27.9575 92.8394 27.6044 92.1332 26.8982C91.427 26.192 91.0444 25.1326 91.0444 23.7496V10.3901H93.8399V23.3965C93.8399 24.7207 94.3402 25.3975 95.3407 25.3975C95.9292 25.3975 96.3411 25.1915 96.5766 24.7795L97.783 26.8099Z" fill="black"/>
<path d="M110.642 27.7517H108.111V25.9861C107.023 27.2809 105.551 27.9577 103.727 27.9577C102.344 27.9577 101.226 27.5751 100.314 26.7806C99.4014 26.0155 98.96 24.9562 98.96 23.6614C98.96 22.3667 99.4308 21.3956 100.402 20.7483C101.373 20.1009 102.668 19.7772 104.316 19.7772H107.906V19.277C107.906 17.5114 106.934 16.658 104.963 16.658C103.727 16.658 102.462 17.0994 101.138 18.0116L99.9016 16.2755C101.52 15.0102 103.315 14.3628 105.375 14.3628C106.934 14.3628 108.2 14.7453 109.2 15.5398C110.171 16.3343 110.672 17.5702 110.672 19.2475V27.7517H110.642ZM107.847 22.8375V21.7193H104.727C102.727 21.7193 101.726 22.3373 101.726 23.6026C101.726 24.25 101.961 24.7502 102.462 25.0739C102.962 25.427 103.639 25.5741 104.522 25.5741C105.404 25.5741 106.169 25.3387 106.846 24.8385C107.523 24.3677 107.847 23.6909 107.847 22.8375Z" fill="black"/>
<path d="M117.175 20.6008V27.7513H114.379V14.539H117.175V16.9519C117.616 16.128 118.234 15.5101 119.029 15.0392C119.823 14.5684 120.677 14.333 121.589 14.333C123.09 14.333 124.296 14.7744 125.208 15.6866C126.12 16.5988 126.591 17.923 126.591 19.6297V27.7219H123.796V20.5125C123.796 18.0701 122.795 16.8637 120.765 16.8637C119.794 16.8637 118.97 17.1873 118.264 17.8347C117.528 18.4527 117.175 19.3943 117.175 20.6008Z" fill="black"/>
<path d="M131.505 26.074C130.27 24.8087 129.652 23.1608 129.652 21.101C129.652 19.0412 130.299 17.3933 131.564 16.1869C132.83 14.951 134.36 14.3624 136.125 14.3624C137.891 14.3624 139.303 15.0981 140.392 16.5988V9.33057H143.188V27.7513H140.363V25.7503C139.333 27.2217 137.832 27.9279 135.861 27.9279C134.213 27.9573 132.741 27.3394 131.505 26.074ZM132.418 21.2187C132.418 22.484 132.83 23.514 133.624 24.3085C134.448 25.103 135.39 25.5149 136.478 25.5149C137.567 25.5149 138.509 25.103 139.274 24.3085C140.039 23.514 140.422 22.484 140.422 21.2187C140.422 19.9534 140.039 18.8941 139.274 18.0701C138.509 17.2168 137.567 16.8048 136.478 16.8048C135.36 16.8048 134.419 17.2168 133.624 18.0701C132.83 18.8941 132.418 19.9534 132.418 21.2187Z" fill="black"/>
<path d="M157.194 23.8083C157.194 25.0737 156.724 26.0742 155.841 26.8392C154.929 27.6043 153.752 27.9574 152.339 27.9574C151.368 27.9574 150.368 27.7809 149.338 27.4278C148.308 27.0747 147.396 26.6038 146.601 25.9565L147.955 23.8083C149.485 24.956 150.986 25.5445 152.427 25.5445C153.045 25.5445 153.546 25.3974 153.928 25.1031C154.281 24.8088 154.487 24.4557 154.487 23.9849C154.487 23.3375 153.604 22.7196 151.868 22.1899C151.721 22.1311 151.633 22.1016 151.574 22.1016C148.837 21.366 147.454 20.1007 147.454 18.3645C147.454 17.1286 147.925 16.1576 148.896 15.4219C149.838 14.6863 151.074 14.3037 152.604 14.3037C154.134 14.3037 155.576 14.7451 156.93 15.6573L155.9 17.7171C154.811 17.0109 153.663 16.6578 152.398 16.6578C151.721 16.6578 151.192 16.7755 150.78 17.0109C150.368 17.2463 150.162 17.5994 150.162 18.0997C150.162 18.5411 150.368 18.8353 150.809 19.0413C151.103 19.1884 151.515 19.3356 152.074 19.4533C152.604 19.6004 153.075 19.7181 153.516 19.8653C153.928 20.0124 154.34 20.1595 154.723 20.3066C155.105 20.4832 155.517 20.7186 155.988 21.0129C156.753 21.6308 157.194 22.543 157.194 23.8083Z" fill="black"/>
<path d="M164.58 16.7756V23.4848C164.58 24.1027 164.757 24.603 165.081 24.9855C165.404 25.368 165.875 25.5446 166.464 25.5446C167.052 25.5446 167.641 25.2503 168.17 24.6618L169.318 26.6334C168.347 27.5161 167.258 27.9575 166.081 27.9575C164.904 27.9575 163.874 27.5456 163.05 26.7216C162.226 25.8977 161.785 24.8089 161.785 23.3965V16.7756H160.108V14.5392H161.785V10.3901H164.58V14.5392H168.053V16.7756H164.58Z" fill="black"/>
<path d="M178.322 17.1579C176.939 17.1579 175.909 17.5993 175.203 18.5115C174.497 19.3943 174.173 20.6008 174.173 22.1015V27.7513H171.378V14.539H174.173V17.1873C174.615 16.3634 175.232 15.6866 175.998 15.1569C176.763 14.6273 177.587 14.3624 178.44 14.333L178.469 17.1285H178.322V17.1579Z" fill="black"/>
<path d="M192.565 27.7517H190.034V25.9861C188.945 27.2809 187.474 27.9577 185.649 27.9577C184.266 27.9577 183.148 27.5751 182.236 26.7806C181.324 26.0155 180.882 24.9562 180.882 23.6614C180.882 22.3667 181.353 21.3956 182.324 20.7483C183.295 20.1009 184.59 19.7772 186.238 19.7772H189.798V19.277C189.798 17.5114 188.827 16.658 186.856 16.658C185.62 16.658 184.355 17.0994 183.03 18.0116L181.795 16.2755C183.413 15.0102 185.208 14.3628 187.268 14.3628C188.827 14.3628 190.093 14.7453 191.093 15.5398C192.064 16.3343 192.565 17.5702 192.565 19.2475V27.7517ZM189.769 22.8375V21.7193H186.65C184.649 21.7193 183.648 22.3373 183.648 23.6026C183.648 24.25 183.884 24.7502 184.384 25.0739C184.884 25.427 185.561 25.5741 186.444 25.5741C187.327 25.5741 188.092 25.3387 188.769 24.8385C189.445 24.3677 189.769 23.6909 189.769 22.8375Z" fill="black"/>
<path d="M199.862 13.4504V14.5392H203.334V16.7756H199.862V27.7515H197.067V16.7756H195.389V14.5392H197.067V13.5093C197.067 12.1263 197.479 11.0081 198.332 10.1841C199.156 9.36021 200.186 8.94824 201.363 8.94824C202.54 8.94824 203.629 9.38963 204.6 10.2724L203.452 12.244C202.893 11.6554 202.334 11.3612 201.745 11.3612C201.157 11.3612 200.686 11.5377 200.362 11.9203C200.039 12.3322 199.862 12.8325 199.862 13.4504Z" fill="black"/>
<path d="M207.543 11.9204C207.189 11.5673 207.013 11.1553 207.013 10.6845C207.013 10.2137 207.189 9.80173 207.543 9.44862C207.896 9.0955 208.308 8.91895 208.779 8.91895C209.249 8.91895 209.661 9.0955 210.014 9.44862C210.368 9.80173 210.544 10.2137 210.544 10.6845C210.544 11.1553 210.368 11.5673 210.014 11.9204C209.661 12.2735 209.249 12.4501 208.779 12.4501C208.308 12.4501 207.896 12.2735 207.543 11.9204ZM210.162 27.7517H207.366V14.5393H210.162V27.7517Z" fill="black"/>
<path d="M217.194 27.7513H214.399V9.33057H217.194V20.1594L222.55 14.539H226.14L221.108 19.7768L226.493 27.7513H223.138L219.195 21.9838L217.194 24.0142V27.7513Z" fill="black"/>
<path d="M231.701 27.7513H228.906V9.33057H231.701V20.1594L237.057 14.539H240.647L235.615 19.7768L241 27.7513H237.616L233.702 21.9838L231.701 24.0142V27.7513Z" fill="black"/>
</svg>
