<svg width="40" height="40" viewBox="0 0 40 40" fill="none" xmlns="http://www.w3.org/2000/svg">
<rect x="10" y="10" width="20" height="20" fill="black"/>
<path fill-rule="evenodd" clip-rule="evenodd" d="M20.0001 37.9201C10.1001 37.9201 2.08008 29.9001 2.08008 20.0001C2.08008 10.1001 10.1001 2.08008 20.0001 2.08008C29.9001 2.08008 37.9201 10.1001 37.9201 20.0001C37.9201 29.9001 29.9001 37.9201 20.0001 37.9201ZM27.9501 16.0701C28.5401 15.3601 28.4401 14.3101 27.7401 13.7201C27.0301 13.1301 25.9801 13.2301 25.3901 13.9301L18.2301 22.5301L14.5201 18.8201C13.8701 18.1701 12.8101 18.1701 12.1601 18.8201C11.5101 19.4701 11.5101 20.5301 12.1601 21.1801L17.1601 26.1801C17.4901 26.5101 17.9501 26.6901 18.4101 26.6701C18.8801 26.6501 19.3101 26.4301 19.6201 26.0701L27.9501 16.0701Z" fill="#66C3A4"/>
</svg>
