<svg xmlns="http://www.w3.org/2000/svg" width="40" height="40" fill="none"><path fill="#000" d="M6.447 11.827c-.134.096-.537 1.362-.883 2.82l-.613 2.667-1.228.096-1.209.096-.441 1.535c-.25.844-.614 2.11-.806 2.84l-.384 1.285.883.67c1.362 1.037 2.11.941 3.971-.536 1.324-1.075 2.955-.94 4.528.345 1.266 1.036 2.283 1.17 3.204.403 1.38-1.151 2.014-1.458 3.03-1.458 1.018 0 1.65.307 3.032 1.458.92.767 1.957.633 3.3-.403 1.669-1.285 3.3-1.42 4.623-.345 2.091 1.65 2.667 1.65 4.777-.02.883-.71 2.57-.92 3.473-.44l.575.287 1.88-2.57c1.113-1.535 1.823-2.706 1.765-2.878-.077-.211-.614-.269-2.686-.269h-2.57l-3.895-2.878-3.914-2.877H16.787c-5.544 0-10.187.076-10.34.172Zm6.887 4.24v1.535H9.862c-3.204 0-3.453-.02-3.377-.345.058-.173.211-.806.326-1.382.135-.575.288-1.112.327-1.208.038-.077 1.458-.135 3.146-.135h3.05v1.535Zm6.715 0v1.535h-6.14v-3.07h6.14v1.535Zm9.611-.172c1.056.748 1.957 1.438 2.015 1.534.057.096-2.149.173-5.372.173h-5.487v-3.07h6.964l1.88 1.363Z"/><path fill="#000" d="M6.888 24.834c-.345.192-.978.634-1.42.96-1.457 1.132-2.839 1.074-4.374-.134l-.94-.768-.115.806c-.096.748-.057.844.595 1.439 1.113.978 1.86 1.266 3.031 1.17.748-.058 1.19-.23 1.708-.652 1.937-1.535 2.647-1.612 4.067-.5 1.304 1.056 1.63 1.19 2.705 1.19.959 0 1.611-.326 2.973-1.458.653-.556 1.746-.614 2.456-.115 2.34 1.573 2.34 1.573 3.319 1.573.998 0 1.247-.115 2.8-1.304 1.325-.979 2.054-.864 3.953.633.633.518.863.575 1.995.575 1.132 0 1.362-.057 1.995-.575 1.804-1.42 2.59-1.593 3.799-.767l.69.46.308-.748c.383-.96.383-1.151.019-1.151-.173 0-.557-.192-.883-.422-.901-.672-1.88-.557-3.089.383-.556.422-1.266.864-1.553.979-1.21.46-2.59.076-4.01-1.151-1.228-1.056-2.014-.902-4.182.805-1.151.883-2.744.71-4.279-.48-1.726-1.342-2.263-1.323-4.124.116-1.708 1.324-3.089 1.209-5.027-.403-.882-.748-1.65-.883-2.417-.46Z"/></svg>