<svg xmlns="http://www.w3.org/2000/svg" width="40" height="40" fill="none"><path fill="#000" d="M.07 10.302c-.062.125-.083 3.959-.062 8.48L.07 27.01l3.375.062 3.354.042.146-.875c.334-1.98 1.459-3.25 3.25-3.709 2.396-.604 4.625 1.021 5.084 3.688l.146.896h9.125v-.625c0-1.313 1.083-3.021 2.291-3.646 1.542-.77 3.292-.52 4.625.687.98.875 1.417 1.771 1.417 2.855v.729l3.5-.042 3.479-.062.063-8.209c.02-5.875-.021-8.291-.188-8.479-.333-.417-39.52-.437-39.667-.02Zm9.48 6.5v3.23H1.84v-6.459H9.55v3.23Zm9.583 0v3.23h-7.708v-6.459h7.708v3.23Zm9.375 0v3.23h-7.709v-6.459h7.709v3.23Zm9.375 0v3.23h-7.709v-6.459h7.709v3.23Z"/><path fill="#000" d="M9.633 23.552c-2.542 1.146-2.583 4.75-.083 6 .5.271 1.208.48 1.562.48 1.042 0 2.438-.834 2.98-1.771.374-.646.457-1.063.395-1.938-.104-1.333-.583-2.062-1.813-2.708-1.104-.563-1.916-.584-3.041-.063ZM27.591 23.365c-1.312.396-2.208 1.729-2.208 3.291 0 2.5 2.583 4.084 4.875 2.98 1.25-.605 1.875-1.646 1.875-3.042 0-2.396-2.167-3.938-4.542-3.23Z"/></svg>