<svg xmlns="http://www.w3.org/2000/svg" width="40" height="40" fill="none"><path fill="#000" d="M23.725 7.532c-2.916 1.167-2.708.937-2.708 3.23v1.978h-6.833c-5.167 0-6.917.063-7.146.25-.188.167-.709 1.896-1.209 4.021-1.395 5.896-1.166 5.313-2.062 5.313-.417 0-.875.083-1.02.166-.23.146-1.855 5.625-1.71 5.75.042.042.876.438 1.855.875 1.52.688 1.98.813 3.23.813s1.707-.104 3.207-.813c3.271-1.5 6.188-1.5 9.355.021 1.354.646 1.833.75 3.062.771 1.292.02 1.688-.083 3.146-.77 3.062-1.418 6.27-1.522 9.02-.23.605.27 1.21.5 1.355.5.354 0 4.708-6.146 4.708-6.646 0-.416-.125-.437-3.146-.479l-3.166-.063-1.375-5.937c-.75-3.27-1.459-6.063-1.542-6.208-.104-.167-.73-.25-1.812-.25h-1.646l-.23-1.209c-.312-1.479-.541-1.916-1-1.896-.187.021-1.25.375-2.333.813Zm-9.375 9.167v1.458h-3.458c-3.188 0-3.438-.02-3.354-.375.062-.188.229-.854.354-1.458l.25-1.084h6.208V16.7Zm7.292 0v1.458h-6.667V15.24h6.667V16.7Zm7.896-.667c.125.438.291 1.083.354 1.458l.146.667H22.476V15.24h6.853l.209.792Z"/><path fill="#000" d="M11.746 29.594c-.333.084-1.417.521-2.375.938-1.5.687-1.937.792-3.25.792-1.312 0-1.75-.105-3.417-.855-1.041-.479-1.979-.854-2.062-.854-.146 0-.75 1.896-.625 1.959a64 64 0 0 0 1.833.854c1.75.833 1.792.833 4.271.833 2.48 0 2.52 0 4.25-.833 1.667-.792 1.896-.834 3.646-.834 1.792 0 1.98.042 3.562.834 1.667.833 1.667.833 4.167.833 2.48 0 2.52 0 4.27-.833 2.293-1.063 4.147-1.23 6.084-.521l1.271.458.396-.479c.812-1.042.833-1.187.23-1.52-1.355-.688-3.022-1-4.834-.917-1.521.083-2.063.208-3.521.875-2.98 1.354-4.604 1.354-7.583 0-1.563-.709-1.917-.792-3.709-.855-1.083-.02-2.25.021-2.604.125Z"/></svg>