<svg width="3478" height="2767" viewBox="0 0 3478 2767" fill="none" xmlns="http://www.w3.org/2000/svg">
  <g clip-path="url(#clip0_39_5)">
    <path d="M1265.26 1585.43L1220.77 1441.35C1219.41 1436.95 1214.66 1434.44 1210.08 1435.72C1205.51 1437 1202.8 1441.58 1204 1446.03L1243.67 1592.89L1265.26 1585.43Z" fill="#00242D"/>
    <path d="M1205.51 1439.54L1170.84 1479.94C1167.59 1483.32 1167.7 1488.58 1171.1 1491.77C1174.5 1494.96 1179.93 1494.9 1183.3 1491.63L1222.84 1453.87L1205.51 1439.54Z" fill="#00242D"/>
    <path d="M2072.89 1348.81L2098.81 1264.47L1850.52 1294.92L1773.85 1369.46L2072.89 1348.81Z" fill="#006275"/>
    <path d="M2103.17 1264.92L1844.5 1296.65C1835.67 1288.66 1840.56 1274.23 1852.6 1272.75L2062.38 1247.02L2103.7 1259.63C2106.57 1260.51 2106.16 1264.56 2103.17 1264.92Z" fill="#99CEDC"/>
    <path d="M1927.37 1261.29L1889.25 1226.8C1887.98 1225.65 1886.24 1225.11 1884.51 1225.32L1854.05 1229.06C1850.81 1229.46 1848.5 1232.32 1848.89 1235.45L1853.84 1275.83C1854.23 1279.03 1857.24 1281.27 1860.53 1280.77C1873.88 1278.74 1906.36 1273.81 1924.2 1271.14C1929.08 1270.41 1930.96 1264.54 1927.37 1261.29Z" fill="#99CEDC"/>
    <path d="M2416.7 1442.18C2414.83 1419.62 2399.29 1400.46 2377.19 1393.33C2301.24 1368.81 2118.18 1319.17 1937.2 1341.38L1622.84 1379.94L1627.02 1390.57L1645.76 1391.05L1650.98 1433.57L1156.16 1512.89L1121.96 1572.43L1128.17 1623.05L1146.54 1755.8L2359.31 1607.03L2416.7 1442.18Z" fill="#99CEDC"/>
    <path d="M2412.43 1433.07L1128.09 1623.52L1148.01 1782.8L2358.87 1607.09C2358.87 1607.09 2398.72 1602.2 2408.75 1554.46C2416.26 1518.73 2421.85 1467.43 2424.2 1443.87C2424.84 1437.38 2419.07 1432.09 2412.43 1433.07Z" fill="#00242D"/>
    <path d="M2163.45 1393.51C2163.45 1393.51 1975.86 1414.68 1672.02 1455.79C1512.41 1477.38 1144.1 1532.41 1144.1 1532.41L1121.65 1570.91L1124.85 1596.96L2284.46 1430.14C2299.98 1427.9 2300.33 1406.29 2284.89 1403.81L2209.94 1393.75C2194.55 1391.39 2178.88 1391.31 2163.45 1393.51Z" fill="#006275"/>
    <path d="M2422.28 1464.25L1132.2 1655.18" stroke="#99CEDC" stroke-width="13.306" stroke-miterlimit="10" stroke-linecap="round"/>
    <path d="M1448.13 1481.39L1548.23 1468.21C1561.3 1466.49 1570.5 1454.5 1568.78 1441.43L1568.76 1441.27C1567.04 1428.2 1555.05 1419 1541.98 1420.72L1441.88 1433.9C1428.81 1435.62 1419.61 1447.61 1421.33 1460.68L1421.35 1460.84C1423.07 1473.91 1435.06 1483.11 1448.13 1481.39Z" fill="#99CEDC"/>
    <path d="M2078.2 1376.98L1682.73 1425.6C1678.49 1426.12 1674.64 1423.21 1674.13 1419.1L1671.52 1397.8C1671.02 1393.69 1674.05 1389.94 1678.29 1389.42L1944.5 1356.66C1980.81 1352.21 2033.89 1351.21 2078.3 1356.26C2090.9 1357.69 2090.81 1375.44 2078.2 1376.98Z" fill="#006275"/>
    <path d="M2394.01 1585.79C2393.01 1591.79 2357.69 1641.38 2292.67 1653.48C1997.75 1708.37 1333.25 1799.93 1183.33 1820.39C1166.58 1822.68 1151.25 1811.26 1149.24 1795.01L1148.02 1782.79L2394.01 1585.79Z" fill="#FF282E"/>
    <path d="M1402.71 1482.92L1335.3 1491.8L1346.13 1574.09L1413.54 1565.21L1402.71 1482.92Z" fill="#99CEDC"/>
    <path d="M1278 1830L1340 1837L1446.88 1788.19L1751.87 1697.93L2036 1702L2105.94 1776.84L2184.9 1762.52L2295 1832L2377 1878L1063 1957.43L1278 1830Z" fill="#00242D"/>
    <path d="M3499.12 2970C3499.12 2970 3511 2108 3511 1906C3293.35 1906 3196.87 1893.22 3063.32 1875.52C2899.8 1853.85 2696.27 1826.89 2316.84 1826.89C1937.42 1826.89 1733.9 1853.85 1570.38 1875.52C1436.85 1893.21 1340.36 1906 1122.72 1906C905.1 1906 808.62 1893.22 675.09 1875.53C511.57 1853.86 308.05 1826.9 -71.3601 1826.9V2970H3499.12Z" fill="#006275"/>
  </g>
  <defs>
    <clipPath id="clip0_39_5">
      <rect width="3478" height="2767" fill="white"/>
    </clipPath>
  </defs>
</svg>