<svg width="2400" height="2000" viewBox="0 0 2400 2000" fill="none" xmlns="http://www.w3.org/2000/svg">
  <path d="M1527.42 577.14C1373.73 603.52 1268.04 720.47 994.689 640.87C823.569 591.04 571.009 731.79 547.869 914.67C515.529 1170.25 388.109 1371.09 480.579 1512.09C645.529 1763.59 1148.32 1788.76 1371.79 1573.28C1548.74 1402.65 1768.03 1457.91 1954.4 1309.45C2106.04 1188.66 2114.02 889.51 1982.33 729.24C1848.66 566.55 1662.79 553.9 1527.42 577.14Z" fill="#0085A9"/>
  <path d="M1507.02 1258.71C1507.02 1287.29 1483.85 1310.47 1455.26 1310.47H759.999C731.419 1310.47 708.239 1287.3 708.239 1258.71V849.83C708.239 821.25 731.409 798.07 759.999 798.07H1455.27C1483.85 798.07 1507.03 821.24 1507.03 849.83V1258.71H1507.02Z" fill="#006275"/>
  <path d="M1417.58 801.85H1402.25V1319.03H1417.58V801.85Z" fill="#00242D"/>
  <path d="M1202.98 865.95C1224.04 860.63 1254.37 875.54 1259.14 900.18C1263.91 924.82 1268.39 967.83 1252.78 973.3C1245.87 975.72 1219.4 973.3 1219.4 973.3L1224.96 1002.71H1176.47L1184.42 960.58C1184.42 960.58 1133.56 883.48 1202.98 865.95Z" fill="#FF989B"/>
  <path d="M1223.35 896.98C1217.52 914.01 1223.42 938.99 1211.88 917.39C1206.24 906.82 1197.71 909.6 1193.22 918.16C1187.7 928.69 1200.16 937.67 1198.99 941.22C1197.8 944.76 1187.19 960.18 1184.43 960.58C1181.68 960.97 1154.58 916.73 1166.46 887.12C1179.45 854.71 1234.55 852.64 1246.83 878.88C1242.14 878.8 1229.11 880.13 1223.35 896.98Z" fill="#00242D"/>
  <path d="M1178.14 1267.1C1178.14 1267.1 1228.13 1524.02 1230.24 1544C1232.35 1563.99 1226.03 1661.79 1249.09 1752.54L1293.13 1753.99C1294.78 1693.98 1297.63 1581.64 1298.02 1557.22C1298.57 1522.59 1299.68 1326.23 1299.68 1326.23C1299.68 1326.23 1197.96 1219.04 1178.14 1267.1Z" fill="#00242D"/>
  <path d="M1253.14 1803.45L1286.87 1812.85V1780.73V1753.98L1253.14 1752.66V1803.45Z" fill="#0085A9"/>
  <path d="M1352.52 1345.6C1352.52 1345.6 1354.98 1364.08 1354.97 1365.57C1354.95 1367.07 1363.95 1405.11 1363.99 1407.26C1364.03 1409.42 1360.79 1430.68 1359.78 1432.27C1358.77 1433.86 1341.35 1451.19 1341.35 1451.19C1341.35 1451.19 1337.07 1451.61 1337.8 1447.21C1338.53 1442.82 1336.21 1444.54 1335.7 1442.76C1335.19 1440.98 1343.51 1424.05 1343.51 1424.05L1345.01 1412.1L1342.23 1409.21L1331.74 1432.84C1331.74 1432.84 1329.03 1434.1 1328.27 1431.35C1327.5 1428.6 1335.09 1404.2 1335.09 1404.2C1335.09 1404.2 1332.41 1386.9 1332.02 1382.95C1331.63 1379 1333.75 1368.24 1333.75 1368.24L1326.33 1348.15L1352.52 1345.6Z" fill="#0085A9"/>
  <path d="M1161.08 1798.29L1129.35 1789.63L1130.09 1748.98H1163.68L1161.08 1798.29Z" fill="#0085A9"/>
  <path d="M1105.38 1324.17C1105.38 1324.17 1116.63 1444.49 1120.78 1555.55C1113.5 1648.39 1120.24 1739.18 1121.49 1751.67L1168.49 1751.75C1168.89 1727.44 1174.12 1639.46 1184.43 1560.27C1199.56 1443.96 1221.54 1316 1221.54 1316C1221.54 1316 1124.67 1275.9 1105.38 1324.17Z" fill="#00242D"/>
  <path d="M1389.03 1240.27C1371.4 1251.37 1362.69 1269.25 1369.6 1280.21C1371.6 1283.4 1374.72 1285.65 1378.56 1286.96C1382.39 1288.27 1395.48 1277.88 1400.72 1272.95C1403.44 1270.39 1406.72 1267.97 1410.42 1265.89C1418.36 1261.42 1426.55 1259.45 1432.92 1259.98C1436.46 1252.74 1436.92 1245.51 1433.46 1240.01C1426.55 1229.05 1406.66 1229.16 1389.03 1240.27Z" fill="#FF989B"/>
  <path d="M1273.24 1007.25C1306.51 1033.54 1318.5 1048.02 1321.18 1153.26C1323.14 1230.32 1335.53 1233.83 1351.89 1244.23C1369.93 1255.69 1376.37 1251 1376.37 1251L1380.26 1287.08C1380.26 1287.08 1219.06 1342.46 1249.86 1135.57C1255.3 1099.11 1243.58 1021.42 1273.24 1007.25Z" fill="#00242D"/>
  <path d="M1179.4 987.2C1157.78 989.32 1119.22 1010.29 1113.09 1016.39C1102.45 1089.71 1100.49 1370.83 1100.49 1370.83L1306.26 1372.36C1306.26 1372.36 1311.33 1122.94 1281.04 1015.39C1271.17 998.92 1233.43 990.99 1222.12 987.73C1221.24 987.47 1180.02 987.13 1179.4 987.2Z" fill="#00242D"/>
  <path d="M1122.25 1010C1069.57 1040.93 1037.41 1150.02 1047.32 1207.97C1056.86 1263.72 1147.89 1300.45 1147.89 1300.45C1147.89 1300.45 1147.92 1051.45 1122.25 1010Z" fill="#00242D"/>
  <path d="M1251.93 1786.74C1249.61 1787.37 1243.35 1828.29 1247.08 1830.43C1250.82 1832.57 1355.3 1834.22 1361.36 1828.28C1364.54 1825.16 1361.15 1811.36 1358.96 1810.75C1318.62 1799.48 1289.33 1778.24 1289.33 1778.24C1289.33 1778.24 1279.01 1781.93 1280.21 1787.46L1281.45 1789.79C1281.45 1789.79 1274.94 1795.86 1268.64 1795.27C1262.35 1794.68 1257.8 1785.14 1251.93 1786.74Z" fill="#006275"/>
  <path d="M1121.99 1797.03C1122.38 1794.22 1125.16 1790.69 1126.83 1789.07C1128.62 1787.33 1129.38 1786.2 1131.38 1780.73C1133.2 1775.77 1140.1 1774.28 1144.4 1774.1V1774.09C1144.45 1774.09 1144.51 1774.09 1144.55 1774.1C1144.6 1774.1 1144.65 1774.1 1144.7 1774.09V1774.1C1148.99 1774.28 1155.9 1775.77 1157.72 1780.73C1159.73 1786.2 1160.48 1787.33 1162.27 1789.07C1163.94 1790.69 1166.73 1794.22 1167.11 1797.03C1167.5 1799.85 1170.17 1832.23 1163.92 1832.75C1160.91 1833 1152.69 1832.48 1144.7 1832.65C1144.65 1832.65 1144.6 1832.65 1144.55 1832.65C1144.5 1832.65 1144.45 1832.65 1144.4 1832.65C1136.41 1832.49 1128.19 1833 1125.18 1832.75C1118.93 1832.23 1121.6 1799.85 1121.99 1797.03Z" fill="#006275"/>
  <path d="M865.089 1028.82C884.389 1023.94 911.059 1027.83 916.559 1060.19C920.409 1082.87 925.029 1122.19 910.729 1127.21C904.389 1129.43 880.139 1127.21 880.139 1127.21L885.239 1154.16H840.799L848.089 1115.55C848.079 1115.55 801.459 1044.89 865.089 1028.82Z" fill="#FF989B"/>
  <path d="M884.449 1054.69C878.889 1070.95 884.519 1094.8 873.499 1074.17C868.109 1064.08 859.969 1066.73 855.689 1074.91C850.419 1084.96 862.319 1093.54 861.199 1096.92C860.069 1100.3 852.439 1117.15 847.299 1115.4C819.459 1105.92 806.259 1077.09 814.009 1047.64C824.219 1008.86 878.959 1003.74 905.869 1037.41C901.389 1037.33 889.949 1038.6 884.449 1054.69Z" fill="#00242D"/>
  <path d="M870.949 990.19C874.519 1005.5 867.169 1017.29 853.229 1020.54C839.299 1023.79 830.619 1015.26 827.049 999.95C823.479 984.64 828.149 971.42 842.079 968.18C856.019 964.93 867.379 974.88 870.949 990.19Z" fill="#00242D"/>
  <path d="M1016.27 1520.73C1024.98 1536.96 1028.35 1526.39 1052.04 1585.76C1065.01 1618.28 1092.61 1656.64 1107.81 1678.05L1136.78 1667.22C1117.4 1615.73 1072.43 1493.21 1060.64 1473.49C1044.35 1446.24 902.579 1465.26 902.579 1465.26C902.579 1465.26 849.709 1430.96 813.339 1455.25C803.149 1462.06 1007.57 1504.51 1016.27 1520.73Z" fill="#1C273F"/>
  <path d="M1218.95 1719.1L1133.78 1752.38L1125.1 1721.49L1158.12 1698.79L1213.65 1704.15L1218.95 1719.1Z" fill="#2A3756"/>
  <path d="M1127.53 1719.93L1152.86 1702.4L1141.51 1681.27L1115.48 1692.85L1127.53 1719.93Z" fill="white"/>
  <path d="M1141.51 1681.27L1115.48 1692.85L1107.81 1678.05L1135.46 1667.73L1141.51 1681.27Z" fill="#DB807D"/>
  <path d="M787.099 1495.77C791.249 1564.47 974.789 1516.33 980.779 1533.74C986.779 1551.15 983.009 1559.38 993.239 1613.4C999.189 1644.8 1016.68 1689.79 1028.25 1713.36L1056.86 1707.68C1045.99 1653.75 1032.6 1524.55 1027.92 1502.67C1021.29 1471.62 881.599 1459.62 881.599 1459.62C881.599 1459.62 835.769 1416.55 795.979 1434.69C784.839 1439.77 786.469 1485.36 787.099 1495.77Z" fill="#2A3756"/>
  <path d="M1118.11 1781.7L1026.71 1784.44L1028.91 1752.43L1067.63 1742.14L1118.14 1765.84L1118.11 1781.7Z" fill="#2A3756"/>
  <path d="M1031.72 1751.78L1063.94 1743.12L1059.21 1720.06L1029.46 1722.23L1031.72 1751.78Z" fill="white"/>
  <path d="M1059.21 1720.06L1029.46 1722.23L1028.25 1713.36L1056.86 1707.68L1059.21 1720.06Z" fill="#DB807D"/>
  <path d="M892.899 1143.87C892.899 1143.87 861.159 1146.71 843.869 1139.18C822.099 1129.69 791.109 1118.98 775.139 1124.76C763.119 1129.1 758.289 1198.6 796.899 1201.22C865.899 1205.9 892.899 1143.87 892.899 1143.87Z" fill="#FFBB46"/>
  <path d="M855.419 1139.51C835.689 1140.74 816.279 1145.51 803.569 1182.77C785.439 1234.08 772.609 1323.52 772.139 1493.22L937.419 1460.71C920.829 1373.73 923.329 1171.74 892.889 1143.87C880.239 1138.55 872.199 1138.47 855.419 1139.51Z" fill="#FFBB46"/>
  <path d="M844.139 1182.77C858.039 1182.68 877.949 1246.69 848.349 1365.05L945.769 1447.61L920.689 1480.72C920.689 1480.72 828.499 1424.11 809.269 1381.29C790.049 1338.47 794.179 1183.1 844.139 1182.77Z" fill="#FFBB46"/>
  <path d="M940.989 1453.93L956.969 1471.42L946.279 1483.96L927.149 1472.26L940.989 1453.93Z" fill="#DB807D"/>
  <path d="M979.839 1466.12C964.179 1460.59 948.689 1464 945.249 1473.73C944.249 1476.56 944.389 1479.62 945.469 1482.67C946.549 1485.72 959.519 1488.75 965.189 1489.59C968.139 1490.03 971.269 1490.88 974.409 1492.16C981.129 1494.91 986.419 1499.06 989.239 1503.3C995.519 1501.93 1000.26 1498.64 1001.99 1493.76C1005.41 1484.03 995.499 1471.65 979.839 1466.12Z" fill="#DB807D"/>
  <path opacity="0.2" d="M1409.63 801.85H805.63C689.08 801.85 713.4 843.15 713.4 894.09V936.24C713.4 885.3 754.7 844 805.63 844H1409.63C1460.57 844 1501.87 885.3 1501.87 936.24V894.09C1501.86 843.15 1528.21 801.85 1409.63 801.85Z" fill="#00242D"/>
  <path d="M653.279 761.98L609.209 1464.52L1573.36 1383.86L1567.6 732.23L653.279 761.98ZM1507.02 1262.49C1507.02 1291.07 1483.85 1314.25 1455.26 1314.25H759.999C731.419 1314.25 708.239 1291.08 708.239 1262.49V853.61C708.239 825.03 731.409 801.85 759.999 801.85H1455.27C1483.85 801.85 1507.03 825.02 1507.03 853.61V1262.49H1507.02Z" fill="#0085A9"/>
  <path d="M1461.44 1326.76H753.82C722.09 1326.76 696.27 1300.64 696.27 1268.54V847.56C696.27 815.46 722.09 789.34 753.82 789.34H1461.44C1493.17 789.34 1518.99 815.46 1518.99 847.56V1268.53C1518.99 1300.64 1493.17 1326.76 1461.44 1326.76ZM760 806.64C734.1 806.64 713.03 827.71 713.03 853.61V1262.49C713.03 1288.39 734.1 1309.46 760 1309.46H1455.27C1481.17 1309.46 1502.24 1288.39 1502.24 1262.49V853.61C1502.24 827.71 1481.17 806.64 1455.27 806.64H760Z" fill="#00242D"/>
  <path d="M1845.96 1029.28C1824.22 1029.28 1812.56 1021.79 1803.19 1015.77C1795.54 1010.85 1790.01 1007.3 1777.54 1007.3C1765.07 1007.3 1759.54 1010.85 1751.89 1015.77C1742.52 1021.79 1730.86 1029.28 1709.12 1029.28C1687.38 1029.28 1675.72 1021.79 1666.35 1015.77C1658.7 1010.85 1653.17 1007.3 1640.7 1007.3V963.74C1662.44 963.74 1674.1 971.23 1683.47 977.25C1691.12 982.17 1696.65 985.72 1709.12 985.72C1721.59 985.72 1727.12 982.17 1734.77 977.25C1744.14 971.23 1755.8 963.74 1777.54 963.74C1799.28 963.74 1810.94 971.23 1820.31 977.25C1827.96 982.17 1833.49 985.72 1845.96 985.72C1858.43 985.72 1863.96 982.17 1871.61 977.25C1880.98 971.23 1892.64 963.74 1914.38 963.74V1007.3C1901.91 1007.3 1896.38 1010.85 1888.73 1015.77C1879.36 1021.79 1867.7 1029.28 1845.96 1029.28Z" fill="white"/>
  <path d="M1716.16 1067.15H1640.69V1107.67H1716.16V1067.15Z" fill="white"/>
  <path d="M1815.27 1067.15H1739.8V1107.67H1815.27V1067.15Z" fill="white"/>
  <path d="M1914.38 1067.15H1838.91V1107.67H1914.38V1067.15Z" fill="white"/>
  <path d="M1843.4 869.98L1778.02 917.44L1712.64 869.98L1640.69 922.71V929.34H1763.16H1792.88H1914.38V921.93L1843.4 869.98Z" fill="white"/>
  <path d="M651.84 936.13C833.006 936.13 979.87 789.266 979.87 608.1C979.87 426.934 833.006 280.07 651.84 280.07C470.674 280.07 323.81 426.934 323.81 608.1C323.81 789.266 470.674 936.13 651.84 936.13Z" fill="#00242D"/>
  <g opacity="0.7">
    <path opacity="0.32" d="M720.66 512.54C710.13 570.18 758.3 756.79 669.29 849.43C646.18 873.48 619.27 902.79 592.5 930.76C767.27 962.99 936.62 849.77 972.9 674.88C1004.1 524.47 926.86 376.79 794.48 312.97C773.77 345.86 738.9 412.72 720.66 512.54Z" fill="white"/>
    <path opacity="0.32" d="M676.37 509.81C691.87 413.53 741.55 340.21 771.63 303C754.65 296.36 736.9 291.03 718.44 287.2C541.11 250.42 367.55 364.35 330.76 541.67C300.18 689.09 373.77 833.89 501.34 899.68C544.49 869.96 590.87 835.17 621.75 803.95C708.26 716.5 664.06 586.26 676.37 509.81Z" fill="white"/>
    <path opacity="0.7" d="M555.46 781.15C565.17 785.81 574.61 790.04 583.44 793.68C592.98 797.62 602.89 804.21 612.87 812.6C628.23 825.52 643.73 842.68 658.25 861.01C677.15 884.85 694.38 910.64 707.46 931.48C714.83 930.21 722.14 928.7 729.36 926.94C715.35 904.19 695.55 874.11 673.22 846.31L692.33 838.65L798.15 901.7C801.09 900.23 804.01 898.73 806.9 897.17L782.09 882.39L857.27 771.97L913.91 805.46C915.59 803.22 917.25 800.96 918.88 798.68L788.85 721.81L816.87 668.05C837.21 665.74 852.78 663.46 861.18 661.28C873.98 657.96 889.28 651.26 905.3 642.88L965.25 704.65C966.19 701.59 967.08 698.51 967.93 695.4L912.97 638.77C935.98 626.17 959.89 610.71 979.62 597.23C979.35 589.07 978.77 580.98 977.9 572.94C955.58 588.54 925.38 608.56 897.86 623.2L850.65 574.57L899.06 455.92L955.72 485.06C954.07 480.99 952.34 476.97 950.53 472.98L902.24 448.15L916.09 414.19C914.17 411.57 912.22 408.99 910.22 406.43L894.77 444.3L824.3 408.07L854 350.05C851.77 348.31 849.52 346.58 847.24 344.89L816.86 404.24L761.62 375.84C760.53 378.35 759.43 380.94 758.33 383.56L813.04 411.69L783.41 469.56L736.36 448.15L734.61 451.99L732.89 455.76L733.49 456.04L865.45 516.09L842.96 571.21L720.07 566.13C720.23 568.87 720.39 571.68 720.56 574.53L843.89 579.63L890.08 627.21C877.52 633.52 865.77 638.46 855.9 641.02C838.38 645.56 786.23 650.69 724.34 655.52C708.92 656.72 692.89 657.9 676.65 659.05C573.32 666.37 461.09 672.38 439.07 673.53L599.91 616.03C601.57 616.69 603.29 617.25 605.1 617.62C621.52 621.03 637.65 610.44 641.06 594.02C644.21 578.82 635.37 563.89 621 559.04L629.64 423.08L730.1 289.84C727.14 289.11 724.17 288.43 721.17 287.78L662.23 365.96L559.94 293.43C556.56 294.42 553.2 295.44 549.86 296.54L562.49 305.49L404.87 453.53L376.97 429.33C375.43 431.69 373.93 434.08 372.45 436.48L441.17 496.08L372.45 593.41L328.64 553.03C328.07 556.35 327.55 559.66 327.08 562.98L367.59 600.31L327.51 657.08C328.1 661 328.77 664.89 329.5 668.76L373.21 606.85L426 678.02L346.76 728.54C349.36 735.12 352.17 741.6 355.18 747.98L432.24 698.86C438.3 706.69 447.92 715.41 459.76 724.43L380.18 791.9C381.75 794.22 383.35 796.52 384.98 798.8L466.67 729.55C474.33 735.07 482.72 740.65 491.54 746.15L459.46 763.6L490.3 863.72L476.01 885.14C478.36 886.63 480.73 888.1 483.13 889.54L555.46 781.15ZM791.05 473.03L820.49 415.52L891.6 452.08L868.65 508.34L791.05 473.03ZM850.05 767.71L774.89 878.11L702.11 834.75L737.34 820.65L784.98 729.24L850.05 767.71ZM450.66 660.52L522.72 564.95L581.01 585.36C580.21 594.98 584.07 604.17 590.92 610.39L450.66 660.52ZM632.89 592.34C630.42 604.24 618.73 611.92 606.82 609.45C594.91 606.98 587.24 595.29 589.71 583.39C592.18 571.49 603.87 563.81 615.77 566.28C627.68 568.74 635.36 580.43 632.89 592.34ZM612.73 557.51C599.61 556.89 587.5 564.84 582.88 577.13L528.01 557.93L620.51 435.24L612.73 557.51ZM452.61 494.95L501.1 437.76L579.25 476.08L520.58 553.9L452.61 494.95ZM657.21 372.67L584.38 469.28L506.69 431.18L594.18 327.98L657.21 372.67ZM587.32 323.11L498.93 427.37L463.47 409.98L569.47 310.46L587.32 323.11ZM411.22 459.04L456.95 416.1L493.35 433.95L446.29 489.46L411.22 459.04ZM378.27 599.65L447.5 501.58L515.52 560.59L431.74 671.71L378.27 599.65ZM455.34 693.63C494.73 691.52 587.56 686.36 675.26 680.14C691.92 678.96 708.39 677.75 724.29 676.5C754.98 674.1 783.46 671.61 806.86 669.14L731.36 814.03L682.56 833.56L667.66 839.52C654.8 824.04 641.22 809.56 627.51 797.81C615.44 787.46 603.27 779.23 591.41 774.34C532.43 750.02 477 714.22 455.34 693.63ZM469.48 767.67L499.78 751.19C515.3 760.52 531.82 769.5 547.86 777.45L496.3 854.73L469.48 767.67Z" fill="#E3F2F7"/>
  </g>
  <path d="M503.85 659.29V521.43L405.68 438.53L409.32 434.21L509.5 518.81V653.34L755.35 640.66L732.26 587.16L737.38 491.8L756.42 416.83L658.94 319.36V307.74H664.59V317.02L762.69 415.11L742.92 492.92L737.97 586.14L763.76 645.89L503.85 659.29Z" fill="#FF282E"/>
  <path d="M881.43 803.16L841.12 779.3L644.78 777.1V565.45L616.33 545.16L362.87 537.01L363.05 531.36L618.22 539.57L650.43 562.54V771.51L842.7 773.67L884.31 798.3L881.43 803.16Z" fill="#FFBB46"/>
  <path d="M511.81 871.85L507.13 868.69L522.91 845.28L556.55 836.94L630.81 772.06V512.1H535.22V370.12H639.15L682.83 308.82L687.43 312.09L642.06 375.77H540.87V506.46H636.46V774.62L559.24 842.1L526.38 850.24L511.81 871.85Z" fill="white"/>
</svg>