<svg width="2400" height="2000" viewBox="0 0 2400 2000" fill="none" xmlns="http://www.w3.org/2000/svg">
  <path d="M1527.42 577.14C1373.73 603.52 1268.04 720.47 994.689 640.87C823.569 591.04 571.009 731.79 547.869 914.67C515.529 1170.25 388.109 1371.09 480.579 1512.09C645.529 1763.59 1148.32 1788.76 1371.79 1573.28C1548.74 1402.65 1768.03 1457.91 1954.4 1309.45C2106.04 1188.66 2114.02 889.51 1982.33 729.24C1848.66 566.55 1662.79 553.9 1527.42 577.14Z" fill="#0085A9"/>
  <path d="M1507.02 1258.71C1507.02 1287.29 1483.85 1310.47 1455.26 1310.47H759.999C731.419 1310.47 708.239 1287.3 708.239 1258.71V849.83C708.239 821.25 731.409 798.07 759.999 798.07H1455.27C1483.85 798.07 1507.03 821.24 1507.03 849.83V1258.71H1507.02Z" fill="#006275"/>
  <g clip-path="url(#clip0_13_2)">
    <path d="M1202.5 866.114C1223.56 860.794 1253.89 875.704 1258.66 900.344C1263.43 924.984 1267.91 967.994 1252.3 973.464C1245.39 975.884 1218.92 973.464 1218.92 973.464L1224.48 1002.87H1175.99L1183.94 960.744C1183.94 960.744 1133.08 883.644 1202.5 866.114Z" fill="#FF989B"/>
    <path d="M1222.87 897.144C1217.04 914.174 1222.94 939.154 1211.4 917.554C1205.76 906.984 1197.23 909.764 1192.74 918.324C1187.22 928.854 1199.68 937.834 1198.51 941.384C1197.32 944.924 1186.71 960.344 1183.95 960.744C1181.2 961.134 1154.1 916.894 1165.98 887.284C1178.97 854.874 1234.07 852.804 1246.35 879.044C1241.66 878.964 1228.63 880.294 1222.87 897.144Z" fill="#00242D"/>
    <path d="M1177.66 1267.26C1177.66 1267.26 1227.65 1524.18 1229.76 1544.16C1231.87 1564.15 1225.55 1661.95 1248.61 1752.7L1292.65 1754.15C1294.3 1694.14 1297.15 1581.8 1297.54 1557.38C1298.09 1522.75 1299.2 1326.39 1299.2 1326.39C1299.2 1326.39 1197.48 1219.2 1177.66 1267.26Z" fill="#00242D"/>
    <path d="M1352.04 1345.76C1352.04 1345.76 1354.5 1364.24 1354.49 1365.73C1354.47 1367.23 1363.47 1405.27 1363.51 1407.42C1363.55 1409.58 1360.31 1430.84 1359.3 1432.43C1358.29 1434.02 1340.87 1451.35 1340.87 1451.35C1340.87 1451.35 1336.59 1451.77 1337.32 1447.37C1338.05 1442.98 1335.73 1444.7 1335.22 1442.92C1334.71 1441.14 1343.03 1424.21 1343.03 1424.21L1344.53 1412.26L1341.75 1409.37L1331.26 1433C1331.26 1433 1328.55 1434.26 1327.79 1431.51C1327.02 1428.76 1334.61 1404.36 1334.61 1404.36C1334.61 1404.36 1331.93 1387.06 1331.54 1383.11C1331.15 1379.16 1333.27 1368.4 1333.27 1368.4L1325.85 1348.31L1352.04 1345.76Z" fill="#0085A9"/>
    <path d="M1104.9 1324.33C1104.9 1324.33 1116.15 1444.65 1120.3 1555.71C1113.02 1648.55 1119.76 1739.34 1121.01 1751.83L1168.01 1751.91C1168.41 1727.6 1173.64 1639.62 1183.95 1560.43C1199.08 1444.12 1221.06 1316.16 1221.06 1316.16C1221.06 1316.16 1124.19 1276.06 1104.9 1324.33Z" fill="#00242D"/>
    <path d="M1388.55 1240.43C1370.92 1251.53 1362.21 1269.41 1369.12 1280.37C1371.12 1283.56 1374.24 1285.81 1378.08 1287.12C1381.91 1288.43 1395 1278.04 1400.24 1273.11C1402.96 1270.55 1406.24 1268.13 1409.94 1266.05C1417.88 1261.58 1426.07 1259.61 1432.44 1260.14C1435.98 1252.9 1436.44 1245.67 1432.98 1240.17C1426.07 1229.21 1406.18 1229.32 1388.55 1240.43Z" fill="#FF989B"/>
    <path d="M1272.76 1007.41C1306.03 1033.7 1318.02 1048.18 1320.7 1153.42C1322.66 1230.48 1335.05 1233.99 1351.41 1244.39C1369.45 1255.85 1375.89 1251.16 1375.89 1251.16L1379.78 1287.24C1379.78 1287.24 1218.58 1342.62 1249.38 1135.73C1254.82 1099.27 1243.1 1021.58 1272.76 1007.41Z" fill="#00242D"/>
    <path d="M1178.92 987.364C1157.3 989.484 1118.74 1010.45 1112.61 1016.55C1101.97 1089.87 1100.01 1370.99 1100.01 1370.99L1305.78 1372.52C1305.78 1372.52 1310.85 1123.1 1280.56 1015.55C1270.69 999.084 1232.95 991.154 1221.64 987.894C1220.76 987.634 1179.54 987.294 1178.92 987.364Z" fill="#00242D"/>
    <path d="M1121.77 1010.16C1069.09 1041.09 1036.93 1150.18 1046.84 1208.13C1056.38 1263.88 1147.41 1300.61 1147.41 1300.61C1147.41 1300.61 1147.44 1051.61 1121.77 1010.16Z" fill="#00242D"/>
    <path d="M864.61 1028.98C883.91 1024.1 910.58 1027.99 916.08 1060.35C919.93 1083.03 924.55 1122.35 910.25 1127.37C903.91 1129.59 879.66 1127.37 879.66 1127.37L884.76 1154.32H840.32L847.61 1115.71C847.6 1115.71 800.98 1045.05 864.61 1028.98Z" fill="#FF989B"/>
    <path d="M883.971 1054.85C878.411 1071.11 884.041 1094.96 873.021 1074.33C867.631 1064.24 859.491 1066.89 855.211 1075.07C849.941 1085.12 861.841 1093.7 860.721 1097.08C859.591 1100.46 851.961 1117.31 846.821 1115.56C818.981 1106.08 805.781 1077.25 813.531 1047.8C823.741 1009.02 878.481 1003.9 905.391 1037.57C900.911 1037.49 889.471 1038.76 883.971 1054.85Z" fill="#00242D"/>
    <path d="M870.471 990.354C874.041 1005.66 866.691 1017.45 852.751 1020.7C838.821 1023.95 830.141 1015.42 826.571 1000.11C823.001 984.804 827.671 971.584 841.601 968.344C855.541 965.094 866.901 975.044 870.471 990.354Z" fill="#00242D"/>
    <path d="M892.42 1144.03C892.42 1144.03 860.68 1146.87 843.39 1139.34C821.62 1129.85 790.63 1119.14 774.66 1124.92C762.64 1129.26 757.81 1198.76 796.42 1201.38C865.42 1206.06 892.42 1144.03 892.42 1144.03Z" fill="#FFBB46"/>
    <path d="M854.94 1139.67C835.21 1140.9 815.8 1145.67 803.09 1182.93C784.96 1234.24 772.13 1323.68 771.66 1493.38L936.94 1460.87C920.35 1373.89 922.85 1171.9 892.41 1144.03C879.76 1138.71 871.72 1138.63 854.94 1139.67Z" fill="#FFBB46"/>
    <path d="M843.661 1182.93C857.561 1182.84 877.471 1246.85 847.871 1365.21L945.291 1447.77L920.211 1480.88C920.211 1480.88 828.021 1424.27 808.791 1381.45C789.571 1338.63 793.701 1183.26 843.661 1182.93Z" fill="#FFBB46"/>
  </g>
  <path d="M1417.58 801.85H1402.25V1319.03H1417.58V801.85Z" fill="#00242D"/>
  <path opacity="0.2" d="M1409.63 801.85H805.63C689.08 801.85 713.4 843.15 713.4 894.09V936.24C713.4 885.3 754.7 844 805.63 844H1409.63C1460.57 844 1501.87 885.3 1501.87 936.24V894.09C1501.86 843.15 1528.21 801.85 1409.63 801.85Z" fill="#00242D"/>
  <path d="M653.279 761.98L609.209 1464.52L1573.36 1383.86L1567.6 732.23L653.279 761.98ZM1507.02 1262.49C1507.02 1291.07 1483.85 1314.25 1455.26 1314.25H759.999C731.419 1314.25 708.239 1291.08 708.239 1262.49V853.61C708.239 825.03 731.409 801.85 759.999 801.85H1455.27C1483.85 801.85 1507.03 825.02 1507.03 853.61V1262.49H1507.02Z" fill="#0085A9"/>
  <path d="M1461.44 1326.76H753.82C722.09 1326.76 696.27 1300.64 696.27 1268.54V847.56C696.27 815.46 722.09 789.34 753.82 789.34H1461.44C1493.17 789.34 1518.99 815.46 1518.99 847.56V1268.53C1518.99 1300.64 1493.17 1326.76 1461.44 1326.76ZM760 806.64C734.1 806.64 713.03 827.71 713.03 853.61V1262.49C713.03 1288.39 734.1 1309.46 760 1309.46H1455.27C1481.17 1309.46 1502.24 1288.39 1502.24 1262.49V853.61C1502.24 827.71 1481.17 806.64 1455.27 806.64H760Z" fill="#00242D"/>
  <path d="M1845.96 1029.28C1824.22 1029.28 1812.56 1021.79 1803.19 1015.77C1795.54 1010.85 1790.01 1007.3 1777.54 1007.3C1765.07 1007.3 1759.54 1010.85 1751.89 1015.77C1742.52 1021.79 1730.86 1029.28 1709.12 1029.28C1687.38 1029.28 1675.72 1021.79 1666.35 1015.77C1658.7 1010.85 1653.17 1007.3 1640.7 1007.3V963.74C1662.44 963.74 1674.1 971.23 1683.47 977.25C1691.12 982.17 1696.65 985.72 1709.12 985.72C1721.59 985.72 1727.12 982.17 1734.77 977.25C1744.14 971.23 1755.8 963.74 1777.54 963.74C1799.28 963.74 1810.94 971.23 1820.31 977.25C1827.96 982.17 1833.49 985.72 1845.96 985.72C1858.43 985.72 1863.96 982.17 1871.61 977.25C1880.98 971.23 1892.64 963.74 1914.38 963.74V1007.3C1901.91 1007.3 1896.38 1010.85 1888.73 1015.77C1879.36 1021.79 1867.7 1029.28 1845.96 1029.28Z" fill="white"/>
  <path d="M1716.16 1067.15H1640.69V1107.67H1716.16V1067.15Z" fill="white"/>
  <path d="M1815.27 1067.15H1739.8V1107.67H1815.27V1067.15Z" fill="white"/>
  <path d="M1914.38 1067.15H1838.91V1107.67H1914.38V1067.15Z" fill="white"/>
  <path d="M1843.4 869.98L1778.02 917.44L1712.64 869.98L1640.69 922.71V929.34H1763.16H1792.88H1914.38V921.93L1843.4 869.98Z" fill="white"/>
  <path d="M651.84 936.13C833.006 936.13 979.87 789.266 979.87 608.1C979.87 426.934 833.006 280.07 651.84 280.07C470.674 280.07 323.81 426.934 323.81 608.1C323.81 789.266 470.674 936.13 651.84 936.13Z" fill="#00242D"/>
  <g opacity="0.7">
    <path opacity="0.32" d="M720.66 512.54C710.13 570.18 758.3 756.79 669.29 849.43C646.18 873.48 619.27 902.79 592.5 930.76C767.27 962.99 936.62 849.77 972.9 674.88C1004.1 524.47 926.86 376.79 794.48 312.97C773.77 345.86 738.9 412.72 720.66 512.54Z" fill="white"/>
    <path opacity="0.32" d="M676.37 509.81C691.87 413.53 741.55 340.21 771.63 303C754.65 296.36 736.9 291.03 718.44 287.2C541.11 250.42 367.55 364.35 330.76 541.67C300.18 689.09 373.77 833.89 501.34 899.68C544.49 869.96 590.87 835.17 621.75 803.95C708.26 716.5 664.06 586.26 676.37 509.81Z" fill="white"/>
    <path opacity="0.7" d="M555.46 781.15C565.17 785.81 574.61 790.04 583.44 793.68C592.98 797.62 602.89 804.21 612.87 812.6C628.23 825.52 643.73 842.68 658.25 861.01C677.15 884.85 694.38 910.64 707.46 931.48C714.83 930.21 722.14 928.7 729.36 926.94C715.35 904.19 695.55 874.11 673.22 846.31L692.33 838.65L798.15 901.7C801.09 900.23 804.01 898.73 806.9 897.17L782.09 882.39L857.27 771.97L913.91 805.46C915.59 803.22 917.25 800.96 918.88 798.68L788.85 721.81L816.87 668.05C837.21 665.74 852.78 663.46 861.18 661.28C873.98 657.96 889.28 651.26 905.3 642.88L965.25 704.65C966.19 701.59 967.08 698.51 967.93 695.4L912.97 638.77C935.98 626.17 959.89 610.71 979.62 597.23C979.35 589.07 978.77 580.98 977.9 572.94C955.58 588.54 925.38 608.56 897.86 623.2L850.65 574.57L899.06 455.92L955.72 485.06C954.07 480.99 952.34 476.97 950.53 472.98L902.24 448.15L916.09 414.19C914.17 411.57 912.22 408.99 910.22 406.43L894.77 444.3L824.3 408.07L854 350.05C851.77 348.31 849.52 346.58 847.24 344.89L816.86 404.24L761.62 375.84C760.53 378.35 759.43 380.94 758.33 383.56L813.04 411.69L783.41 469.56L736.36 448.15L734.61 451.99L732.89 455.76L733.49 456.04L865.45 516.09L842.96 571.21L720.07 566.13C720.23 568.87 720.39 571.68 720.56 574.53L843.89 579.63L890.08 627.21C877.52 633.52 865.77 638.46 855.9 641.02C838.38 645.56 786.23 650.69 724.34 655.52C708.92 656.72 692.89 657.9 676.65 659.05C573.32 666.37 461.09 672.38 439.07 673.53L599.91 616.03C601.57 616.69 603.29 617.25 605.1 617.62C621.52 621.03 637.65 610.44 641.06 594.02C644.21 578.82 635.37 563.89 621 559.04L629.64 423.08L730.1 289.84C727.14 289.11 724.17 288.43 721.17 287.78L662.23 365.96L559.94 293.43C556.56 294.42 553.2 295.44 549.86 296.54L562.49 305.49L404.87 453.53L376.97 429.33C375.43 431.69 373.93 434.08 372.45 436.48L441.17 496.08L372.45 593.41L328.64 553.03C328.07 556.35 327.55 559.66 327.08 562.98L367.59 600.31L327.51 657.08C328.1 661 328.77 664.89 329.5 668.76L373.21 606.85L426 678.02L346.76 728.54C349.36 735.12 352.17 741.6 355.18 747.98L432.24 698.86C438.3 706.69 447.92 715.41 459.76 724.43L380.18 791.9C381.75 794.22 383.35 796.52 384.98 798.8L466.67 729.55C474.33 735.07 482.72 740.65 491.54 746.15L459.46 763.6L490.3 863.72L476.01 885.14C478.36 886.63 480.73 888.1 483.13 889.54L555.46 781.15ZM791.05 473.03L820.49 415.52L891.6 452.08L868.65 508.34L791.05 473.03ZM850.05 767.71L774.89 878.11L702.11 834.75L737.34 820.65L784.98 729.24L850.05 767.71ZM450.66 660.52L522.72 564.95L581.01 585.36C580.21 594.98 584.07 604.17 590.92 610.39L450.66 660.52ZM632.89 592.34C630.42 604.24 618.73 611.92 606.82 609.45C594.91 606.98 587.24 595.29 589.71 583.39C592.18 571.49 603.87 563.81 615.77 566.28C627.68 568.74 635.36 580.43 632.89 592.34ZM612.73 557.51C599.61 556.89 587.5 564.84 582.88 577.13L528.01 557.93L620.51 435.24L612.73 557.51ZM452.61 494.95L501.1 437.76L579.25 476.08L520.58 553.9L452.61 494.95ZM657.21 372.67L584.38 469.28L506.69 431.18L594.18 327.98L657.21 372.67ZM587.32 323.11L498.93 427.37L463.47 409.98L569.47 310.46L587.32 323.11ZM411.22 459.04L456.95 416.1L493.35 433.95L446.29 489.46L411.22 459.04ZM378.27 599.65L447.5 501.58L515.52 560.59L431.74 671.71L378.27 599.65ZM455.34 693.63C494.73 691.52 587.56 686.36 675.26 680.14C691.92 678.96 708.39 677.75 724.29 676.5C754.98 674.1 783.46 671.61 806.86 669.14L731.36 814.03L682.56 833.56L667.66 839.52C654.8 824.04 641.22 809.56 627.51 797.81C615.44 787.46 603.27 779.23 591.41 774.34C532.43 750.02 477 714.22 455.34 693.63ZM469.48 767.67L499.78 751.19C515.3 760.52 531.82 769.5 547.86 777.45L496.3 854.73L469.48 767.67Z" fill="#E3F2F7"/>
  </g>
  <path d="M503.85 659.29V521.43L405.68 438.53L409.32 434.21L509.5 518.81V653.34L755.35 640.66L732.26 587.16L737.38 491.8L756.42 416.83L658.94 319.36V307.74H664.59V317.02L762.69 415.11L742.92 492.92L737.97 586.14L763.76 645.89L503.85 659.29Z" fill="#FF282E"/>
  <path d="M881.43 803.16L841.12 779.3L644.78 777.1V565.45L616.33 545.16L362.87 537.01L363.05 531.36L618.22 539.57L650.43 562.54V771.51L842.7 773.67L884.31 798.3L881.43 803.16Z" fill="#FFBB46"/>
  <path d="M511.81 871.85L507.13 868.69L522.91 845.28L556.55 836.94L630.81 772.06V512.1H535.22V370.12H639.15L682.83 308.82L687.43 312.09L642.06 375.77H540.87V506.46H636.46V774.62L559.24 842.1L526.38 850.24L511.81 871.85Z" fill="white"/>
  <defs>
    <clipPath id="clip0_13_2">
      <rect width="670" height="511" fill="white" transform="translate(766 861)"/>
    </clipPath>
  </defs>
</svg>