<svg width="1803" height="2110" viewBox="0 0 1803 2110" fill="none" xmlns="http://www.w3.org/2000/svg">
  <path d="M760.79 1432.67C737.28 1470.53 704.182 1501.51 664.847 1522.47C625.513 1543.42 581.339 1553.61 536.8 1552C590.727 1524.26 635.566 1481.64 666 1429.19C716.29 1420.16 714.64 1425.53 760.79 1432.67Z" fill="#E3F2F7"/>
  <path d="M781.57 1484.41C1233.51 1481.6 1304.09 1256.56 1276 950C1253 699 1205.48 438.89 819.33 477.29C591 500 397.76 718.57 439.09 1147.21C458.9 1352.71 600.71 1485.53 781.57 1484.41Z" fill="#E3F2F7"/>
  <path d="M1110.39 985.13C1110.39 985.13 1154.11 986.59 1166.84 1029.01C1179.57 1071.43 1173.61 1315.76 1173.61 1315.76L1110.39 985.13Z" fill="#FF989B"/>
  <path d="M681.87 1125.4C681.87 1125.4 647.11 1220.15 640.93 1237.88C634.75 1255.61 717.93 1246.3 737.93 1197.77C749.3 1170.28 759.04 1100.07 738.71 1087.77C727.5 1081.05 681.87 1125.4 681.87 1125.4Z" fill="#FFCBCD"/>
  <path d="M655.48 1037C655.48 1037 624.29 1121.56 618.4 1144.87C612.51 1168.18 683.57 1165.51 725.68 1102.22C767.79 1038.93 744.1 982.71 744.1 982.71L655.48 1037Z" fill="#FFB2B4"/>
  <path d="M742.63 702.37C742.63 702.37 657.79 671.26 647.89 667C637.99 662.74 618.19 756.09 742.63 791.44C867.07 826.79 742.63 702.37 742.63 702.37Z" fill="#FF989B"/>
  <path d="M740.49 942.92C740.49 942.92 685.07 940.6 665.14 956C645.21 971.4 608.43 1007.34 593.83 1018.95C579.23 1030.56 623.74 1095.77 722.15 1015.61C820.56 935.45 740.49 942.92 740.49 942.92Z" fill="#FF989B"/>
  <path d="M846 1258C846 1258 841.56 1420.11 987.65 1502.83C987.65 1502.83 1017.35 1549.48 974.65 1625.83C931.95 1702.18 1236.98 1764.29 1246.13 1676.73C1249.86 1641.12 1256.95 1587.65 1250.37 1521.9C1245.23 1470.51 1221.85 1410.9 1221.85 1410.9L1144.33 1258H846Z" fill="#FF7E81"/>
  <path d="M763.739 654.29C737.609 654.29 713.989 681.23 713.989 707.37V1263.37C713.989 1289.5 739.549 1315.79 765.689 1315.79H1001.28C1027.42 1315.79 1053.62 1290.16 1053.62 1264.01V706.72C1053.62 680.58 1030.01 654.29 1003.87 654.29H763.739Z" fill="#E3F2F7"/>
  <path d="M1002.34 1324.29H765.28C749.279 1324.27 733.938 1317.91 722.623 1306.6C711.309 1295.28 704.946 1279.94 704.93 1263.94V706.32C704.956 690.325 711.324 674.993 722.637 663.686C733.95 652.379 749.285 646.019 765.28 646H1002.34C1018.34 646.021 1033.67 652.387 1044.99 663.7C1056.3 675.014 1062.66 690.352 1062.68 706.35V1263.97C1062.66 1279.96 1056.29 1295.3 1044.98 1306.6C1033.67 1317.91 1018.33 1324.27 1002.34 1324.29V1324.29ZM765.28 658.92C752.712 658.933 740.662 663.931 731.774 672.817C722.886 681.703 717.886 693.752 717.87 706.32V1263.94C717.886 1276.51 722.886 1288.56 731.773 1297.45C740.661 1306.33 752.711 1311.33 765.28 1311.35H1002.34C1014.91 1311.33 1026.96 1306.33 1035.84 1297.45C1044.73 1288.56 1049.73 1276.51 1049.74 1263.94V706.32C1049.72 693.754 1044.72 681.706 1035.84 672.821C1026.95 663.935 1014.91 658.936 1002.34 658.92H765.28Z" fill="#006275"/>
  <path d="M713.989 782.44H699.989V810.92H713.989V782.44Z" fill="#006275"/>
  <path d="M1067.62 844.58H1053.62V902.83H1067.62V844.58Z" fill="#006275"/>
  <path d="M713.989 825.16H699.989V866.58H713.989V825.16Z" fill="#006275"/>
  <path d="M713.989 880.83H699.989V922.25H713.989V880.83Z" fill="#006275"/>
  <path d="M1106 867.81C1100.34 848.02 1107.41 785.81 1091.85 784.38C1076.29 782.95 1017.79 836.95 1026.85 901.75C1042.4 1013.52 1042.16 1087.33 1026.24 1146.38C1007.1 1217.38 939.37 1348.58 1026.24 1440.5C1113.11 1532.42 1230.47 1451.81 1230.47 1451.81C1230.47 1451.81 1111.69 887.61 1106 867.81Z" fill="#FF7E81"/>
  <path d="M991.9 858.43H775.71C769.386 858.43 764.26 863.556 764.26 869.88V1086.07C764.26 1092.39 769.386 1097.52 775.71 1097.52H991.9C998.223 1097.52 1003.35 1092.39 1003.35 1086.07V869.88C1003.35 863.556 998.223 858.43 991.9 858.43Z" fill="#0085A9"/>
  <path d="M926.52 1001.52C912.95 1001.52 905.67 996.84 899.82 993.08C895.04 990.01 891.59 987.79 883.82 987.79C876.05 987.79 872.59 990.01 867.82 993.08C861.97 996.84 854.69 1001.52 841.12 1001.52C827.55 1001.52 820.27 996.84 814.42 993.08C809.64 990.01 806.19 987.79 798.42 987.79V960.6C811.99 960.6 819.27 965.28 825.12 969.03C829.89 972.1 833.35 974.32 841.12 974.32C848.89 974.32 852.36 972.1 857.12 969.03C862.97 965.28 870.25 960.6 883.82 960.6C897.39 960.6 904.68 965.28 910.53 969.03C915.3 972.1 918.75 974.32 926.53 974.32C934.31 974.32 937.77 972.1 942.53 969.03C948.38 965.28 955.66 960.6 969.24 960.6V987.79C961.45 987.79 958 990.01 953.24 993.08C947.37 996.84 940.09 1001.52 926.52 1001.52Z" fill="white"/>
  <path d="M845.5 1025.16H798.38V1050.46H845.5V1025.16Z" fill="white"/>
  <path d="M907.37 1025.16H860.25V1050.46H907.37V1025.16Z" fill="white"/>
  <path d="M969.24 1025.16H922.12V1050.46H969.24V1025.16Z" fill="white"/>
  <path d="M924.92 902.07L884.11 931.7L843.29 902.07L798.38 934.99V939.12H874.83H893.39H969.24V934.5L924.92 902.07Z" fill="white"/>
  <path d="M937.189 630.26C937.189 661.649 949.658 691.753 971.853 713.95C994.047 736.146 1024.15 748.617 1055.54 748.62H1265.15C1296.54 748.617 1326.64 736.146 1348.84 713.95C1371.03 691.753 1383.5 661.649 1383.5 630.26V630.26C1383.5 598.872 1371.03 568.769 1348.84 546.574C1326.64 524.379 1296.54 511.91 1265.15 511.91H1055.54C1024.15 511.91 994.048 524.379 971.853 546.574C949.658 568.769 937.189 598.872 937.189 630.26V630.26Z" fill="#00242D"/>
  <path d="M1252.77 699.37C1276.52 735.05 1313.05 758.9 1355.24 761.5C1364.87 762.102 1374.54 761.565 1384.05 759.9C1352.14 745.9 1325.05 721.34 1305.48 690.12C1276.92 688 1278.13 691.35 1252.77 699.37Z" fill="#00242D"/>
  <path d="M1234.93 630.44C1234.93 634.719 1236.19 638.902 1238.57 642.461C1240.95 646.019 1244.32 648.793 1248.28 650.432C1252.23 652.07 1256.58 652.499 1260.78 651.665C1264.97 650.831 1268.83 648.77 1271.85 645.745C1274.88 642.719 1276.94 638.864 1277.77 634.667C1278.61 630.471 1278.18 626.121 1276.54 622.168C1274.9 618.215 1272.13 614.837 1268.57 612.461C1265.01 610.085 1260.83 608.818 1256.55 608.82C1250.82 608.823 1245.32 611.101 1241.26 615.155C1237.21 619.209 1234.93 624.707 1234.93 630.44V630.44Z" fill="#E3F2F7"/>
  <path d="M1138.67 630.44C1138.67 634.716 1139.94 638.896 1142.31 642.451C1144.69 646.007 1148.07 648.778 1152.02 650.414C1155.97 652.051 1160.31 652.479 1164.51 651.645C1168.7 650.81 1172.55 648.751 1175.58 645.728C1178.6 642.704 1180.66 638.852 1181.49 634.658C1182.33 630.464 1181.9 626.117 1180.26 622.166C1178.63 618.216 1175.86 614.839 1172.3 612.464C1168.75 610.088 1164.57 608.82 1160.29 608.82C1154.56 608.823 1149.06 611.101 1145.01 615.155C1140.95 619.209 1138.67 624.707 1138.67 630.44Z" fill="#E3F2F7"/>
  <path d="M1042.4 630.44C1042.4 634.72 1043.67 638.904 1046.04 642.463C1048.42 646.022 1051.8 648.796 1055.75 650.434C1059.71 652.071 1064.06 652.499 1068.25 651.663C1072.45 650.828 1076.31 648.765 1079.33 645.738C1082.36 642.71 1084.41 638.853 1085.25 634.655C1086.08 630.457 1085.65 626.107 1084.01 622.154C1082.36 618.202 1079.59 614.825 1076.03 612.451C1072.46 610.078 1068.28 608.814 1064 608.82C1058.27 608.828 1052.78 611.109 1048.73 615.162C1044.68 619.216 1042.4 624.71 1042.4 630.44V630.44Z" fill="#E3F2F7"/>
</svg>