<svg width="1803" height="2110" viewBox="0 0 1803 2110" fill="none" xmlns="http://www.w3.org/2000/svg">
  <path d="M760.79 1432.67C723.88 1492.14 662.59 1536.06 588.14 1548.61C570.85 1551.52 553.66 1552.6 536.8 1551.99C591.35 1524.01 635.86 1480.96 665.95 1429.18C716.29 1420.16 714.64 1425.53 760.79 1432.67Z" fill="#0085A9"/>
  <path d="M781.57 1484.41C1233.51 1481.61 1304.09 1256.57 1276 950C1253 699 1205.48 438.89 819.33 477.29C591 500 397.76 718.57 439.09 1147.21C458.9 1352.71 600.71 1485.53 781.57 1484.41Z" fill="#0085A9"/>
  <path d="M1110.39 985.13C1110.39 985.13 1154.11 986.59 1166.84 1029.01C1179.57 1071.43 1173.62 1315.76 1173.62 1315.76L1110.39 985.13Z" fill="#FF989B"/>
  <path d="M681.87 1125.4C681.87 1125.4 647.1 1220.15 640.92 1237.88C634.74 1255.61 717.88 1246.3 737.95 1197.77C749.32 1170.28 759.07 1100.07 738.73 1087.82C727.5 1081.05 681.87 1125.4 681.87 1125.4Z" fill="#FFCBCD"/>
  <path d="M655.48 1037.04C655.48 1037.04 624.29 1121.6 618.4 1144.91C612.51 1168.22 683.57 1165.55 725.68 1102.26C767.79 1038.97 744.11 982.71 744.11 982.71L655.48 1037.04Z" fill="#FFB2B4"/>
  <path d="M742.63 702.37C742.63 702.37 657.79 671.26 647.89 667.02C637.99 662.78 618.2 756.11 742.63 791.46C867.06 826.81 742.63 702.37 742.63 702.37Z" fill="#FF989B"/>
  <path d="M740.49 942.92C740.49 942.92 685.07 940.59 665.14 955.98C645.21 971.37 608.43 1007.32 593.83 1018.93C579.23 1030.54 623.74 1095.74 722.15 1015.58C820.55 935.43 740.49 942.92 740.49 942.92Z" fill="#FF989B"/>
  <path d="M845.979 1257.99C845.979 1257.99 841.539 1420.1 987.629 1502.81C987.629 1502.81 1017.32 1549.47 974.649 1625.82C931.969 1702.17 1236.98 1764.28 1246.13 1676.72C1249.85 1641.1 1256.95 1587.64 1250.37 1521.89C1245.23 1470.5 1221.85 1410.91 1221.85 1410.91L1144.32 1257.98H845.979V1257.99Z" fill="#FF7E81"/>
  <path d="M763.74 654.29C737.6 654.29 713.99 681.22 713.99 707.36V1263.33C713.99 1289.47 739.55 1315.75 765.69 1315.75H1001.28C1027.42 1315.75 1053.62 1290.11 1053.62 1263.97V706.72C1053.62 680.58 1030 654.29 1003.87 654.29H763.74V654.29Z" fill="#E3F2F7"/>
  <path d="M1002.34 1324.29H765.281C732.001 1324.29 704.931 1297.22 704.931 1263.94V706.32C704.931 673.04 732.001 645.97 765.281 645.97H1002.34C1035.61 645.97 1062.69 673.04 1062.69 706.32V1263.94C1062.68 1297.22 1035.61 1324.29 1002.34 1324.29ZM765.281 658.92C739.141 658.92 717.881 680.19 717.881 706.32V1263.94C717.881 1290.08 739.141 1311.34 765.281 1311.34H1002.34C1028.48 1311.34 1049.74 1290.07 1049.74 1263.94V706.32C1049.74 680.18 1028.47 658.92 1002.34 658.92H765.281V658.92Z" fill="#00242D"/>
  <path d="M713.99 782.44H699.99V810.92H713.99V782.44Z" fill="#00242D"/>
  <path d="M1067.62 844.58H1053.62V902.83H1067.62V844.58Z" fill="#8E9093"/>
  <path d="M713.99 825.16H699.99V866.58H713.99V825.16Z" fill="#00242D"/>
  <path d="M713.99 880.83H699.99V922.25H713.99V880.83Z" fill="#00242D"/>
  <path d="M1106.04 867.81C1100.38 848.01 1107.45 785.8 1091.9 784.38C1076.35 782.97 1017.84 836.94 1026.85 901.75C1042.4 1013.52 1042.16 1087.33 1026.24 1146.38C1007.1 1217.37 939.37 1348.59 1026.24 1440.5C1113.11 1532.41 1230.47 1451.81 1230.47 1451.81C1230.47 1451.81 1111.69 887.61 1106.04 867.81Z" fill="#FF7E81"/>
  <path d="M991.9 1097.52H775.71C769.39 1097.52 764.26 1092.39 764.26 1086.07V869.88C764.26 863.56 769.39 858.43 775.71 858.43H991.9C998.22 858.43 1003.35 863.56 1003.35 869.88V1086.07C1003.35 1092.39 998.23 1097.52 991.9 1097.52Z" fill="#0085A9"/>
  <path d="M926.52 1001.52C912.95 1001.52 905.67 996.84 899.82 993.08C895.04 990.01 891.59 987.79 883.81 987.79C876.02 987.79 872.57 990.01 867.8 993.08C861.95 996.84 854.67 1001.52 841.1 1001.52C827.53 1001.52 820.25 996.84 814.4 993.08C809.62 990.01 806.17 987.79 798.39 987.79V960.59C811.96 960.59 819.24 965.27 825.09 969.03C829.87 972.1 833.32 974.32 841.1 974.32C848.89 974.32 852.34 972.1 857.11 969.03C862.96 965.27 870.24 960.59 883.81 960.59C897.38 960.59 904.66 965.27 910.51 969.03C915.29 972.1 918.74 974.32 926.52 974.32C934.3 974.32 937.76 972.1 942.53 969.03C948.38 965.27 955.66 960.59 969.23 960.59V987.79C961.44 987.79 957.99 990.01 953.22 993.08C947.37 996.84 940.09 1001.52 926.52 1001.52Z" fill="white"/>
  <path d="M845.5 1025.16H798.38V1050.46H845.5V1025.16Z" fill="white"/>
  <path d="M907.37 1025.16H860.25V1050.46H907.37V1025.16Z" fill="white"/>
  <path d="M969.24 1025.16H922.12V1050.46H969.24V1025.16Z" fill="white"/>
  <path d="M924.92 902.07L884.11 931.7L843.3 902.07L798.38 934.98V939.12H874.83H893.39H969.24V934.5L924.92 902.07Z" fill="white"/>
  <path d="M937.189 630.26C937.189 695.63 990.179 748.62 1055.55 748.62H1265.15C1330.52 748.62 1383.51 695.63 1383.51 630.26C1383.51 564.89 1330.52 511.9 1265.15 511.9H1055.55C990.179 511.91 937.189 564.9 937.189 630.26Z" fill="#006275"/>
  <path d="M1252.77 699.37C1276.52 735.05 1313.05 758.9 1355.23 761.51C1365.03 762.12 1374.67 761.55 1384.05 759.91C1352.14 745.86 1325.02 721.34 1305.48 690.13C1276.92 688 1278.13 691.35 1252.77 699.37Z" fill="#006275"/>
  <path d="M1234.93 630.44C1234.93 642.38 1244.61 652.06 1256.55 652.06C1268.49 652.06 1278.17 642.38 1278.17 630.44C1278.17 618.5 1268.49 608.82 1256.55 608.82C1244.61 608.82 1234.93 618.5 1234.93 630.44Z" fill="#E3F2F7"/>
  <path d="M1138.67 630.44C1138.67 642.38 1148.35 652.06 1160.29 652.06C1172.23 652.06 1181.91 642.38 1181.91 630.44C1181.91 618.5 1172.23 608.82 1160.29 608.82C1148.35 608.82 1138.67 618.5 1138.67 630.44Z" fill="#E3F2F7"/>
  <path d="M1042.4 630.44C1042.4 642.38 1052.08 652.06 1064.02 652.06C1075.96 652.06 1085.64 642.38 1085.64 630.44C1085.64 618.5 1075.96 608.82 1064.02 608.82C1052.08 608.82 1042.4 618.5 1042.4 630.44Z" fill="#E3F2F7"/>
</svg>