<svg width="1804" height="1804" viewBox="0 0 1804 1804" fill="none" xmlns="http://www.w3.org/2000/svg">
  <path d="M1476.07 1112.32C1519.97 954.43 1383.53 779.47 1177.66 601.41C971.79 423.35 818.61 176.86 558 373.53C297.39 570.2 215.45 1019.53 350.45 1221.94C485.45 1424.35 1335 1619.52 1476.07 1112.32Z" fill="#E3F2F7"/>
  <path d="M1435.7 826.13C1435.7 826.13 1479.42 827.59 1492.15 870.01C1504.88 912.43 1498.92 1156.76 1498.92 1156.76L1435.7 826.13Z" fill="#FF989B"/>
  <path d="M1007.18 966.4C1007.18 966.4 972.42 1061.15 966.23 1078.88C960.04 1096.61 1043.23 1087.3 1063.23 1038.77C1074.6 1011.28 1084.35 941.07 1064.02 928.82C1052.81 922.05 1007.18 966.4 1007.18 966.4Z" fill="#FFCBCD"/>
  <path d="M980.79 878C980.79 878 949.601 962.6 943.711 985.91C937.821 1009.22 1008.88 1006.55 1050.98 943.26C1093.08 879.97 1069.41 823.71 1069.41 823.71L980.79 878Z" fill="#FFB2B4"/>
  <path d="M1067.93 543.37C1067.93 543.37 983.09 512.26 973.19 508C963.29 503.74 943.501 597.09 1067.93 632.44C1192.36 667.79 1067.93 543.37 1067.93 543.37Z" fill="#FF989B"/>
  <path d="M1065.8 783.92C1065.8 783.92 1010.38 781.6 990.45 796.98C970.52 812.36 933.74 848.32 919.14 859.93C904.54 871.54 949.05 936.75 1047.46 856.59C1145.87 776.43 1065.8 783.92 1065.8 783.92Z" fill="#FF989B"/>
  <path d="M1171.29 1099C1171.29 1099 1166.85 1261.11 1312.94 1343.83C1312.94 1343.83 1342.63 1390.48 1299.94 1466.83C1257.25 1543.18 1562.26 1605.29 1571.42 1517.73C1575.14 1482.12 1582.24 1428.65 1575.66 1362.9C1570.52 1311.51 1547.14 1251.9 1547.14 1251.9L1469.63 1099H1171.29Z" fill="#FF7E81"/>
  <path d="M1089.05 495.29C1062.91 495.29 1039.3 522.23 1039.3 548.37V1104.37C1039.3 1130.5 1064.85 1156.79 1090.99 1156.79H1326.58C1352.73 1156.79 1378.93 1131.16 1378.93 1105.01V547.72C1378.93 521.58 1355.31 495.29 1329.18 495.29H1089.05Z" fill="#E3F2F7"/>
  <path d="M1327.64 1165.29H1090.59C1074.59 1165.27 1059.25 1158.91 1047.93 1147.6C1036.61 1136.28 1030.25 1120.94 1030.23 1104.94V547.32C1030.26 531.324 1036.63 515.992 1047.94 504.685C1059.26 493.378 1074.59 487.019 1090.59 487H1327.64C1343.64 487.016 1358.97 493.375 1370.29 504.682C1381.6 515.99 1387.97 531.323 1388 547.32V1104.94C1387.98 1120.94 1381.62 1136.29 1370.3 1147.6C1358.99 1158.91 1343.64 1165.28 1327.64 1165.29V1165.29ZM1090.59 499.92C1078.02 499.933 1065.97 504.931 1057.08 513.817C1048.2 522.703 1043.2 534.752 1043.18 547.32V1104.94C1043.2 1117.51 1048.2 1129.56 1057.08 1138.45C1065.97 1147.33 1078.02 1152.33 1090.59 1152.35H1327.64C1340.21 1152.33 1352.26 1147.33 1361.15 1138.45C1370.03 1129.56 1375.03 1117.51 1375.05 1104.94V547.32C1375.03 534.752 1370.03 522.703 1361.15 513.817C1352.26 504.931 1340.21 499.933 1327.64 499.92H1090.59Z" fill="#00242D"/>
  <path d="M1039.3 623.44H1025.3V651.92H1039.3V623.44Z" fill="#00242D"/>
  <path d="M1392.93 685.58H1378.93V743.83H1392.93V685.58Z" fill="#00242D"/>
  <path d="M1039.3 666.16H1025.3V707.58H1039.3V666.16Z" fill="#00242D"/>
  <path d="M1039.3 721.83H1025.3V763.25H1039.3V721.83Z" fill="#00242D"/>
  <path d="M1431.34 708.81C1425.68 689.02 1432.76 626.81 1417.2 625.38C1401.64 623.95 1343.14 677.95 1352.2 742.75C1367.75 854.52 1367.51 928.33 1351.59 987.38C1332.44 1058.38 1264.72 1189.58 1351.59 1281.5C1438.46 1373.42 1555.82 1292.81 1555.82 1292.81C1555.82 1292.81 1437 728.61 1431.34 708.81Z" fill="#FF7E81"/>
  <path d="M1328.35 695.1H1089.87C1082.89 695.1 1077.24 700.755 1077.24 707.73V946.21C1077.24 953.185 1082.89 958.84 1089.87 958.84H1328.35C1335.33 958.84 1340.98 953.185 1340.98 946.21V707.73C1340.98 700.755 1335.33 695.1 1328.35 695.1Z" fill="#0085A9"/>
  <path d="M1256.23 852.94C1241.23 852.94 1233.23 847.78 1226.78 843.64C1221.51 840.25 1217.7 837.81 1209.11 837.81C1200.52 837.81 1196.72 840.25 1191.45 843.64C1184.99 847.78 1176.96 852.94 1161.99 852.94C1147.02 852.94 1138.99 847.78 1132.54 843.64C1127.27 840.25 1123.46 837.81 1114.87 837.81V807.81C1129.87 807.81 1137.87 812.97 1144.33 817.11C1149.6 820.5 1153.41 822.94 1161.99 822.94C1170.57 822.94 1174.39 820.5 1179.66 817.11C1186.11 812.97 1194.14 807.81 1209.11 807.81C1224.08 807.81 1232.11 812.97 1238.57 817.11C1243.84 820.5 1247.64 822.94 1256.23 822.94C1264.82 822.94 1268.63 820.5 1273.9 817.11C1280.35 812.97 1288.38 807.81 1303.35 807.81V837.81C1294.76 837.81 1290.96 840.25 1285.69 843.64C1279.24 847.78 1271.2 852.94 1256.23 852.94Z" fill="white"/>
  <path d="M1166.84 879.02H1114.87V906.93H1166.84V879.02Z" fill="white"/>
  <path d="M1235.1 879.02H1183.13V906.93H1235.1V879.02Z" fill="white"/>
  <path d="M1303.35 879.02H1251.38V906.93H1303.35V879.02Z" fill="white"/>
  <path d="M1254.47 743.24L1209.45 775.93L1164.42 743.24L1114.88 779.55V784.12H1199.21H1219.68H1303.35V779.02L1254.47 743.24Z" fill="white"/>
  <path d="M913.07 338.28C913.07 420.36 764.46 707.58 764.46 707.58C764.46 707.58 615.83 420.36 615.83 338.28C615.83 298.864 631.488 261.061 659.36 233.19C687.232 205.318 725.034 189.66 764.45 189.66C803.867 189.66 841.669 205.318 869.54 233.19C897.412 261.061 913.07 298.864 913.07 338.28V338.28Z" fill="#FF282E"/>
  <path d="M853.36 350.67C853.36 368.255 848.145 385.445 838.375 400.067C828.605 414.688 814.719 426.084 798.472 432.813C782.225 439.542 764.348 441.302 747.101 437.871C729.854 434.439 714.012 425.971 701.578 413.535C689.144 401.1 680.677 385.257 677.247 368.009C673.818 350.762 675.58 332.885 682.311 316.639C689.042 300.393 700.439 286.508 715.062 276.739C729.684 266.971 746.875 261.758 764.46 261.76C776.135 261.76 787.696 264.06 798.483 268.528C809.269 272.996 819.07 279.546 827.325 287.802C835.581 296.058 842.129 305.859 846.596 316.646C851.063 327.433 853.361 338.995 853.36 350.67V350.67Z" fill="#E3F2F7"/>
  <path d="M775.361 994.67C775.737 995.2 775.888 995.857 775.781 996.498C775.674 997.138 775.318 997.711 774.791 998.09L732.521 1028.33C732.259 1028.52 731.963 1028.65 731.649 1028.72C731.336 1028.8 731.011 1028.81 730.693 1028.75C730.375 1028.7 730.071 1028.59 729.798 1028.42C729.525 1028.24 729.288 1028.02 729.101 1027.76C728.914 1027.5 728.78 1027.2 728.708 1026.89C728.635 1026.58 728.625 1026.25 728.678 1025.94C728.731 1025.62 728.846 1025.32 729.016 1025.04C729.187 1024.77 729.409 1024.54 729.671 1024.35L771.941 994.11C772.202 993.922 772.498 993.788 772.811 993.714C773.125 993.641 773.449 993.629 773.767 993.681C774.085 993.733 774.389 993.848 774.662 994.017C774.936 994.187 775.173 994.409 775.361 994.67V994.67Z" fill="#00242D"/>
  <path d="M713.94 1020.06C713.94 1020.06 730.11 1007.49 731.28 1006.91C732.45 1006.33 745.38 1003.29 745.82 1003.21L757.27 1001.08C757.27 1001.08 758.34 1005.27 755.27 1007.47C752.2 1009.67 746.27 1010.47 746.27 1010.47L727.47 1024.07L713.94 1020.06Z" fill="#FF7E81"/>
  <path d="M706.221 1024.3C706.221 1024.3 727.001 1012.81 729.151 1012.13C731.301 1011.45 757.631 1009.33 758.781 1009.19C765.251 1008.38 765.601 1015.03 762.781 1016.38C760.461 1017.3 758.018 1017.88 755.531 1018.09C755.531 1018.09 758.531 1024.09 752.531 1025.24C757.341 1031.5 750.621 1034.05 750.621 1034.05C750.621 1034.05 750.841 1038.2 749.901 1039.56C748.961 1040.92 743.841 1044.15 742.051 1044.85C740.261 1045.55 711.181 1051.39 711.181 1051.39L683.021 1059.87L679.711 1034.23L706.221 1024.3Z" fill="#FF989B"/>
  <path d="M569.291 1079.25L696.191 1022.4L718.261 1058.52C718.261 1058.52 623.561 1132.94 575.771 1135.24C527.981 1137.54 468.001 1007.13 569.291 1079.25Z" fill="#FFBB46"/>
  <path d="M578.891 739C599.181 740.26 623.891 752.33 619.191 785.52C615.891 808.77 608.191 848.46 592.691 848.89C585.841 849.07 562.941 839.38 562.941 839.38L558.291 876.96L516.291 853.37L535.391 818C535.391 818 512.001 734.82 578.891 739Z" fill="#FF989B"/>
  <path d="M615.001 1397C608.331 1365.28 592.401 1169.39 592.401 1169.39C592.401 1169.39 463.661 1104.61 455.511 1152.57C455.511 1152.57 558.631 1354.1 564.691 1371.9C570.751 1389.7 566.611 1427.52 590.951 1488.08C603.131 1518.36 641.131 1619.54 641.131 1619.54L672.881 1633.76C672.881 1633.76 619.651 1419.39 615.001 1397Z" fill="#FF989B"/>
  <path d="M472.571 1131.57C458.921 1164.95 477.491 1230.39 469.471 1290.7C461.451 1351.01 460.921 1361.12 424.311 1434.46C412.531 1458.04 385.541 1591.37 385.541 1591.37L405.861 1612.74C405.861 1612.74 477.591 1429.62 488.031 1410.59C503.591 1382.24 570.031 1192.05 570.031 1192.05C570.031 1192.05 486.211 1098.18 472.571 1131.57Z" fill="#FF989B"/>
  <path d="M533.531 853.18C513.381 854.43 489.321 861.41 481.801 910.18C471.251 978.71 421.541 1384.18 421.541 1384.18L633.921 1407.65C633.921 1407.65 613.341 1028.65 582.261 900.07C572.941 861.48 550.661 852.12 533.531 853.18Z" fill="#FFBB46"/>
  <path d="M543 725.62C465.1 752.42 451.95 970.76 390.4 985.94C507.4 1027.94 553.93 804.94 553.93 804.94C555.99 802.12 547.44 790.55 555.36 782.74C561.79 776.39 570.19 776.35 572.21 787.37C572.21 787.37 597.75 752.72 613.93 754.74C609.87 731.9 564.31 715.5 543 725.62Z" fill="#00242D"/>
  <path d="M638.72 1618.67C637.04 1619.74 642.17 1653.79 645.67 1654.57C649.17 1655.35 732.58 1630.83 735.92 1624.57C737.68 1621.3 731.58 1611.18 729.68 1611.24C708.24 1611.76 686.855 1608.85 666.33 1602.63C666.33 1602.63 659.04 1608.11 661.33 1612.21L662.89 1613.75C662.89 1613.75 659.22 1620.18 654.07 1621.27C648.92 1622.36 643 1615.94 638.72 1618.67Z" fill="#00242D"/>
  <path d="M385.221 1582.07C383.221 1581.68 363.501 1609.89 365.501 1612.86C367.501 1615.83 444.811 1655.6 451.501 1653.4C455.021 1652.25 457.581 1640.71 456.171 1639.4C440.286 1624.99 426.803 1608.14 416.231 1589.48C416.231 1589.48 407.171 1588.48 406.031 1592.99L406.091 1595.18C406.091 1595.18 399.001 1597.31 394.521 1594.55C390.041 1591.79 390.191 1583 385.221 1582.07Z" fill="#00242D"/>
</svg>