<svg width="1293" height="1466" viewBox="0 0 1293 1466" fill="none" xmlns="http://www.w3.org/2000/svg">
  <path d="M1190.07 923.32C1233.97 765.44 1097.53 590.47 891.66 412.41C685.79 234.35 532.61 -12.14 271.96 184.53C11.3099 381.2 -70.5901 830.56 64.4099 1032.94C199.42 1235.32 1049.02 1430.52 1190.07 923.32Z" fill="#0085A9"/>
  <path d="M1149.7 637.13C1149.7 637.13 1193.42 638.59 1206.15 681.01C1218.88 723.43 1212.93 967.76 1212.93 967.76L1149.7 637.13Z" fill="#FF989B"/>
  <path d="M721.18 777.4C721.18 777.4 686.41 872.15 680.23 889.88C674.05 907.61 757.19 898.3 777.26 849.77C788.63 822.28 798.38 752.07 778.04 739.82C766.81 733.05 721.18 777.4 721.18 777.4Z" fill="#FFCBCD"/>
  <path d="M694.79 689.04C694.79 689.04 663.6 773.6 657.71 796.91C651.82 820.22 722.88 817.55 764.99 754.26C807.1 690.97 783.42 634.71 783.42 634.71L694.79 689.04Z" fill="#FFB2B4"/>
  <path d="M781.93 354.37C781.93 354.37 697.089 323.26 687.189 319.02C677.289 314.78 657.5 408.11 781.93 443.46C906.37 478.81 781.93 354.37 781.93 354.37Z" fill="#FF989B"/>
  <path d="M779.8 594.92C779.8 594.92 724.38 592.59 704.45 607.98C684.52 623.37 647.74 659.32 633.14 670.93C618.54 682.54 663.05 747.74 761.46 667.58C859.86 587.43 779.8 594.92 779.8 594.92Z" fill="#FF989B"/>
  <path d="M885.29 909.99C885.29 909.99 880.85 1072.1 1026.94 1154.81C1026.94 1154.81 1056.63 1201.47 1013.96 1277.82C971.29 1354.17 1276.29 1416.28 1285.44 1328.72C1289.16 1293.1 1296.26 1239.64 1289.68 1173.89C1284.54 1122.5 1261.16 1062.91 1261.16 1062.91L1183.63 909.98H885.29V909.99Z" fill="#FF7E81"/>
  <path d="M803.051 306.29C776.911 306.29 753.301 333.22 753.301 359.36V915.33C753.301 941.47 778.861 967.75 805.001 967.75H1040.59C1066.73 967.75 1092.93 942.11 1092.93 915.97V358.72C1092.93 332.58 1069.31 306.29 1043.18 306.29H803.051Z" fill="#E3F2F7"/>
  <path d="M1041.64 976.29H804.58C771.3 976.29 744.23 949.22 744.23 915.94V358.32C744.23 325.04 771.3 297.97 804.58 297.97H1041.64C1074.91 297.97 1101.99 325.04 1101.99 358.32V915.94C1101.99 949.22 1074.92 976.29 1041.64 976.29ZM804.59 310.92C778.45 310.92 757.19 332.19 757.19 358.32V915.94C757.19 942.08 778.45 963.34 804.59 963.34H1041.65C1067.79 963.34 1089.05 942.07 1089.05 915.94V358.32C1089.05 332.18 1067.78 310.92 1041.65 310.92H804.59V310.92Z" fill="#00242D"/>
  <path d="M753.301 434.44H739.301V462.92H753.301V434.44Z" fill="#00242D"/>
  <path d="M1106.93 496.58H1092.93V554.83H1106.93V496.58Z" fill="#8E9093"/>
  <path d="M753.301 477.16H739.301V518.58H753.301V477.16Z" fill="#00242D"/>
  <path d="M753.301 532.83H739.301V574.25H753.301V532.83Z" fill="#00242D"/>
  <path d="M1145.34 519.81C1139.68 500.01 1146.75 437.8 1131.2 436.38C1115.65 434.97 1057.14 488.94 1066.15 553.75C1081.7 665.52 1081.46 739.33 1065.54 798.38C1046.4 869.37 978.671 1000.59 1065.54 1092.5C1152.41 1184.41 1269.77 1103.81 1269.77 1103.81C1269.77 1103.81 1151 539.61 1145.34 519.81Z" fill="#FF7E81"/>
  <path d="M1042.36 769.85H803.87C796.89 769.85 791.24 764.2 791.24 757.22V518.73C791.24 511.75 796.89 506.1 803.87 506.1H1042.36C1049.34 506.1 1054.99 511.75 1054.99 518.73V757.22C1054.99 764.19 1049.33 769.85 1042.36 769.85Z" fill="#0085A9"/>
  <path d="M970.231 663.94C955.261 663.94 947.231 658.78 940.771 654.63C935.501 651.24 931.691 648.8 923.101 648.8C914.511 648.8 910.701 651.25 905.441 654.63C898.991 658.78 890.961 663.94 875.991 663.94C861.021 663.94 852.991 658.78 846.541 654.63C841.271 651.24 837.461 648.8 828.881 648.8V618.8C843.851 618.8 851.881 623.96 858.331 628.11C863.601 631.5 867.411 633.94 875.991 633.94C884.581 633.94 888.391 631.49 893.651 628.11C900.101 623.96 908.131 618.8 923.101 618.8C938.071 618.8 946.101 623.96 952.561 628.11C957.831 631.5 961.641 633.94 970.231 633.94C978.821 633.94 982.631 631.49 987.901 628.11C994.351 623.96 1002.38 618.8 1017.36 618.8V648.8C1008.77 648.8 1004.96 651.25 999.691 654.63C993.241 658.78 985.201 663.94 970.231 663.94Z" fill="white"/>
  <path d="M880.841 690.02H828.871V717.93H880.841V690.02Z" fill="white"/>
  <path d="M949.101 690.02H897.131V717.93H949.101V690.02Z" fill="white"/>
  <path d="M1017.35 690.02H965.381V717.93H1017.35V690.02Z" fill="white"/>
  <path d="M968.471 554.24L923.451 586.93L878.431 554.24L828.871 590.55V595.12H913.211H933.681H1017.35V590.02L968.471 554.24Z" fill="white"/>
  <path d="M627.07 149.28C627.07 231.36 478.45 518.58 478.45 518.58C478.45 518.58 329.83 231.36 329.83 149.28C329.83 67.21 396.37 0.660004 478.45 0.660004C560.54 0.660004 627.07 67.21 627.07 149.28Z" fill="#FF282E"/>
  <path d="M567.359 161.67C567.359 210.77 527.549 250.57 478.449 250.57C429.359 250.57 389.529 210.78 389.529 161.67C389.529 112.56 429.349 72.76 478.449 72.76C527.559 72.76 567.359 112.56 567.359 161.67Z" fill="white"/>
  <path d="M489.358 805.67C490.148 806.77 489.888 808.3 488.788 809.09L446.518 839.33C445.418 840.12 443.888 839.86 443.098 838.76C442.308 837.66 442.568 836.13 443.668 835.34L485.938 805.1C487.038 804.32 488.568 804.57 489.358 805.67Z" fill="#00242D"/>
  <path d="M427.939 831.06C427.939 831.06 444.109 818.49 445.279 817.91C446.449 817.33 459.369 814.29 459.819 814.21C460.259 814.13 471.269 812.09 471.269 812.09C471.269 812.09 472.339 816.27 469.249 818.48C466.159 820.69 460.259 821.52 460.259 821.52L441.459 835.12L427.939 831.06Z" fill="#FF7E81"/>
  <path d="M420.219 835.3C420.219 835.3 440.999 823.81 443.149 823.13C445.299 822.46 471.619 820.33 472.779 820.19C479.249 819.39 479.599 826.03 476.749 827.38C473.899 828.73 469.499 829.09 469.499 829.09C469.499 829.09 472.439 835.13 466.449 836.24C471.259 842.5 464.529 845.05 464.529 845.05C464.529 845.05 464.749 849.2 463.819 850.56C462.889 851.92 457.749 855.15 455.959 855.85C454.169 856.55 425.089 862.4 425.089 862.4L396.929 870.87L393.619 845.24L420.219 835.3Z" fill="#FF989B"/>
  <path d="M283.289 890.25L410.189 833.4L432.259 869.51C432.259 869.51 337.549 943.93 289.769 946.23C241.999 948.55 182.039 818.13 283.289 890.25Z" fill="#FFBB46"/>
  <path d="M292.889 549.96C313.179 551.22 337.909 563.29 333.199 596.48C329.899 619.73 322.169 659.42 306.699 659.85C299.849 660.04 276.949 650.34 276.949 650.34L272.309 687.92L230.309 664.33L249.399 629.04C249.389 629.03 226.009 545.82 292.889 549.96Z" fill="#FF989B"/>
  <path d="M328.959 1208.03C322.289 1176.31 306.358 980.42 306.358 980.42C306.358 980.42 177.619 915.64 169.479 963.6C169.479 963.6 272.589 1165.13 278.649 1182.93C284.709 1200.73 280.568 1238.55 304.918 1299.11C317.088 1329.39 355.098 1430.57 355.098 1430.57L386.848 1444.79C386.838 1444.79 333.649 1230.39 328.959 1208.03Z" fill="#FF989B"/>
  <path d="M186.569 942.57C172.919 975.95 191.489 1041.39 183.469 1101.7C175.449 1161.99 174.919 1172.13 138.299 1245.46C126.519 1269.05 99.5391 1402.37 99.5391 1402.37L119.859 1423.74C119.859 1423.74 191.589 1240.62 202.029 1221.59C217.589 1193.24 284.009 1003.05 284.009 1003.05C284.009 1003.05 200.209 909.18 186.569 942.57Z" fill="#FF989B"/>
  <path d="M247.529 664.18C227.379 665.43 203.319 672.41 195.799 721.18C185.249 789.71 135.539 1195.13 135.539 1195.13L347.919 1218.6C347.919 1218.6 327.329 839.56 296.249 711.02C286.939 672.48 264.659 663.12 247.529 664.18Z" fill="#FFBB46"/>
  <path d="M256.95 536.62C179.04 563.42 165.89 781.76 104.35 796.94C221.4 839 267.87 615.92 267.87 615.92C269.93 613.09 261.38 601.53 269.3 593.72C275.73 587.37 284.13 587.32 286.15 598.35C286.15 598.35 311.69 563.69 327.87 565.71C323.87 542.9 278.31 526.5 256.95 536.62Z" fill="#00242D"/>
  <path d="M352.719 1429.67C351.039 1430.74 356.179 1464.8 359.669 1465.57C363.159 1466.34 446.579 1441.83 449.919 1435.61C451.679 1432.34 445.569 1422.22 443.679 1422.28C408.849 1423.3 380.329 1413.67 380.329 1413.67C380.329 1413.67 373.039 1419.16 375.359 1423.25L376.919 1424.79C376.919 1424.79 373.249 1431.23 368.099 1432.31C362.949 1433.39 356.979 1426.94 352.719 1429.67Z" fill="#006275"/>
  <path d="M99.2194 1393.07C97.2594 1392.69 77.4994 1420.9 79.4994 1423.87C81.4994 1426.84 158.809 1466.61 165.519 1464.41C169.039 1463.26 171.599 1451.72 170.189 1450.45C144.259 1427.17 130.249 1400.53 130.249 1400.53C130.249 1400.53 121.189 1399.48 120.049 1404.04L120.109 1406.23C120.109 1406.23 113.019 1408.36 108.539 1405.6C104.059 1402.82 104.189 1394.04 99.2194 1393.07Z" fill="#006275"/>
</svg>