<svg width="40" height="40" viewBox="0 0 40 40" fill="none" xmlns="http://www.w3.org/2000/svg">
  <path
    d="M7.79687 13.2031C7.94687 15.3281 8.34687 17.0031 8.99687 18.2281C9.64687 19.4531 11.0719 20.0031 12.5719 20.0031C13.1969 20.0031 13.5719 19.9031 14.3719 19.5531C15.1719 19.2031 16.4719 18.3531 18.2719 17.0281C20.2719 15.5031 21.9969 14.4531 23.3969 13.9031C24.7969 13.3531 26.1719 13.0781 27.4219 13.0781C31.2219 13.0781 34.0219 14.1781 35.9469 16.4031C37.8719 18.6281 39.0219 22.2031 39.3469 26.8031H32.1969C31.9719 24.3281 31.5719 22.8031 30.7719 21.4281C30.1719 20.4031 28.7719 20.0031 27.4219 20.0031C26.7219 20.0031 26.1969 20.1781 25.2219 20.6531C24.2219 21.1281 23.0719 21.9031 21.6969 23.0281C20.4969 24.0281 19.0969 24.9281 17.4969 25.7531C15.8969 26.5781 14.2469 26.9531 12.5719 26.9531C8.74688 26.9531 5.87188 25.8531 3.99688 23.5531C2.09688 21.2781 0.996875 17.8281 0.671875 13.2281H7.82188L7.79687 13.2031Z"
    fill="black" />
</svg>