<svg width="40" height="40" viewBox="0 0 40 40" fill="none" xmlns="http://www.w3.org/2000/svg">
<path d="M36 20C36 28.8366 28.8366 36 20 36C11.1634 36 4 28.8366 4 20C4 11.1634 11.1634 4 20 4C28.8366 4 36 11.1634 36 20Z" fill="#E5E8B8"/>
<path fill-rule="evenodd" clip-rule="evenodd" d="M20 6C12.268 6 6 12.268 6 20C6 27.732 12.268 34 20 34C27.732 34 34 27.732 34 20C34 12.268 27.732 6 20 6ZM2 20C2 10.0589 10.0589 2 20 2C29.9411 2 38 10.0589 38 20C38 29.9411 29.9411 38 20 38C10.0589 38 2 29.9411 2 20Z" fill="#A2AD00"/>
<path fill-rule="evenodd" clip-rule="evenodd" d="M18 21.1716L25.5858 13.5858L28.4142 16.4142L19.4142 25.4142C18.6332 26.1953 17.3669 26.1953 16.5858 25.4142L11.5858 20.4142L14.4142 17.5858L18 21.1716Z" fill="black"/>
</svg>
