<svg width="20" height="20" viewBox="0 0 40 40" fill="none" xmlns="http://www.w3.org/2000/svg">
  <path fill-rule="evenodd" clip-rule="evenodd" d="M8.00001 5.99997L32 5.99999C35.3137 5.99999 38 8.68628 38 12V28C38 31.3137 35.3137 34 32 34H8C4.68629 34 2 31.3137 2 28V12C2 8.68626 4.6863 5.99997 8.00001 5.99997ZM20.6563 25.0937C20.3516 25.1562 19.7734 25.2109 19.1641 25.2109C16.7109 25.2109 15.7422 24.5 15.7422 22.7656V18.7422H14.4219V16.4297H15.7422V14.5H18.9453V16.4297H20.6563V18.7422H18.9453V22.0547C18.9453 22.6094 19.2656 22.8984 19.9375 22.8984C20.2813 22.8984 20.4688 22.8828 20.6563 22.8594V25.0937ZM26.0025 18.5625C26.0025 19.5469 25.315 20.2578 24.2681 20.2578C23.2213 20.2578 22.5338 19.5469 22.5338 18.5625C22.5338 17.5781 23.2213 16.8672 24.2681 16.8672C25.315 16.8672 26.0025 17.5781 26.0025 18.5625ZM26.0025 23.8281C26.0025 24.8125 25.315 25.5234 24.2681 25.5234C23.2213 25.5234 22.5338 24.8125 22.5338 23.8281C22.5338 22.8437 23.2213 22.1328 24.2681 22.1328C25.315 22.1328 26.0025 22.8437 26.0025 23.8281Z" fill="#000000"/>
</svg>