<?xml version="1.0" encoding="utf-8"?>
<!-- Generator: Adobe Illustrator 26.4.1, SVG Export Plug-In . SVG Version: 6.00 Build 0)  -->
<svg version="1.1" id="Layer_1" xmlns="http://www.w3.org/2000/svg" xmlns:xlink="http://www.w3.org/1999/xlink" x="0px" y="0px"
	 viewBox="0 0 320 320" style="enable-background:new 0 0 320 320;" xml:space="preserve">
<style type="text/css">
	.st0{fill:#005685;}
	.st1{fill:none;stroke:#005685;stroke-miterlimit:10;}
</style>
<g>
	<g>
		<g>
			<path class="st0" d="M127.2,169.8c-0.3,0-0.5-0.2-0.5-0.5c0-0.1,0-0.3,0.1-0.4c0.1-0.1,0.2-0.2,0.4-0.2c3.5-0.1,4.2-1.6,4.3-4.7
				c0-0.3,0.2-0.5,0.4-0.5c0.4-0.1,0.5-0.2,0.5-0.2c0,0,0.1-0.2-0.2-1c-0.6-1.4-0.7-2.3-0.7-4.1c-0.2-4.3,0-4.3,0.3-4.3
				c0.3,0,0.5,0,0.7,4.3c0,1.7,0.1,2.5,0.6,3.7c0.4,0.9,0.4,1.4,0.2,1.9c-0.2,0.3-0.5,0.5-0.8,0.6
				C132.3,167.8,131.3,169.7,127.2,169.8L127.2,169.8z M127.2,169.5L127.2,169.5L127.2,169.5z M127.2,169.2L127.2,169.2L127.2,169.2
				L127.2,169.2L127.2,169.2z M127.2,169.2L127.2,169.2C127.2,169.2,127.2,169.2,127.2,169.2C127.2,169.2,127.2,169.2,127.2,169.2
				L127.2,169.2z"/>
		</g>
	</g>
	<g>
		<g>
			<path class="st0" d="M125.8,175C125.8,175,125.8,175,125.8,175l-0.3,0l0-0.3c-0.3-2.9,0-4.8,0.8-5.6c0.5-0.5,0.9-0.4,1-0.4
				c0.1,0,0.3,0.1,0.4,0.2c0.1,0.1,0.1,0.2,0.1,0.4c0,0.3-0.3,0.5-0.6,0.5c0,0-0.1,0-0.1,0.1c-0.1,0.2-0.4,1.6-0.8,4.2
				C126.1,175,126,175,125.8,175z M126.2,170.5c-0.1,0.2-0.1,0.5-0.2,0.8C126.1,171,126.2,170.7,126.2,170.5z"/>
		</g>
	</g>
	<g>
		<g>
			<path class="st0" d="M120.7,175l-0.2,0c-0.3-0.1-0.4-0.4-0.3-0.7c1.7-5.1,0.9-9.5,0.9-9.7c0-0.1,0-0.3,0.1-0.4
				c0.1-0.1,0.2-0.2,0.3-0.2c0.1,0,0.3,0,0.4,0.1c0.1,0.1,0.2,0.2,0.2,0.3c0,0,0.9,4.8-0.9,10.3C121.1,174.9,120.9,175,120.7,175z
				 M121.5,164.5L121.5,164.5L121.5,164.5C121.5,164.5,121.5,164.5,121.5,164.5z"/>
		</g>
	</g>
	<g>
		<g>
			<path class="st0" d="M134.3,193.6l-0.1,0c-0.1,0-0.2-0.1-0.3-0.2c-0.1-0.1-0.1-0.3-0.1-0.4c0.5-1.7,0.8-3.6-0.1-6.3
				c-1.2-3.8-5.5-10.6-5.6-10.9c-0.1-0.1-0.1-0.3-0.1-0.4c0-0.1,0.1-0.3,0.2-0.3c0.3-0.2,0.6-0.1,0.7,0.2c0,0.1,4.5,7.2,5.8,11.2
				c0.9,2.9,0.6,5,0.1,6.9C134.7,193.5,134.5,193.6,134.3,193.6z M134.4,193.1C134.4,193.1,134.3,193.1,134.4,193.1L134.4,193.1
				L134.4,193.1z M128.4,175.5C128.4,175.5,128.4,175.5,128.4,175.5C128.4,175.5,128.4,175.5,128.4,175.5z"/>
		</g>
	</g>
	<g>
		<g>
			<path class="st0" d="M143.3,195.1c-1.6,0-6.2-2.2-8.8-4.1c-0.1-0.1-0.2-0.2-0.2-0.4c0-0.1,0-0.3,0.1-0.4c0.2-0.2,0.5-0.3,0.7-0.1
				c2.4,1.9,6.8,3.9,8.1,3.9c4-0.2,16.4-6.1,17-6.7c0.1-0.2,0.4-0.2,0.7-0.1c0.1,0.1,0.2,0.2,0.2,0.3c0,0.1,0,0.3-0.1,0.4
				c-0.6,0.9-13.7,6.9-17.7,7.1L143.3,195.1z M160.7,187.8C160.7,187.8,160.7,187.8,160.7,187.8
				C160.7,187.8,160.7,187.8,160.7,187.8z"/>
		</g>
	</g>
	<g>
		<g>
			<path class="st0" d="M143.2,190.1c-0.1,0-0.1,0-0.1,0c-0.1,0-0.2,0-0.2-0.1c-3.4-2.2-9.8-6.4-11.8-9.5c-0.2-0.2-0.1-0.6,0.1-0.7
				c0.2-0.2,0.6-0.1,0.7,0.1c1.9,2.9,8.1,6.9,11.4,9.1c0.7,0,4.6-0.4,16.6-4.9c0.1,0,0.3,0,0.4,0c0.1,0.1,0.2,0.2,0.3,0.3
				c0.1,0.3,0,0.6-0.3,0.7C147.5,189.9,143.8,190.1,143.2,190.1z"/>
		</g>
	</g>
	<g>
		<path class="st0" d="M113.3,187.8c-2.2,0-3.5-1-4.1-1.8c-1.9-2.4-1.6-7.1,1-11.6c3.2-5.7,4.3-11.6,5.3-16.9
			c0.2-1.2,0.4-2.3,0.6-3.3c1.4-6.5,8.6-7.8,8.7-7.8c0.1,0,0.1,0,0.2,0c2.9-0.5,5.7,0.1,8.5,1.6c1.8,1,2.2,2,2.1,2.6
			c0,0.6-0.4,1.2-1,1.6c-0.3,0.2-0.6,0.2-0.9,0.3c0.2,0.7,0,1.1-0.3,1.3c-0.6,0.5-1.7,0.2-2.1-0.2c0,0,0,0,0,0
			c-1.3,1.9-2.4,2.4-3.4,3c-0.7,0.4-1.5,0.8-2.2,1.6c-1.6,1.8-1.9,4.7-0.8,10.1c0.4,2,2,3.7,3.5,5.3c2.2,2.4,4.2,4.6,3,7.6
			c-0.7,1.6-1.4,2.4-2.2,2.5c-1.4,0.2-2.6-1.3-4-3.1c-0.4-0.5-0.7-0.9-1.1-1.4c-0.9-1.1-1.9-1.6-2.8-1.5c-1.9,0.1-3.3,2.3-3.3,2.4
			c-1.7,3.5-1.1,6.6-1.1,6.7l0.1,0.5l-0.4,0.1C115.3,187.7,114.2,187.8,113.3,187.8z M124.9,147.5c-0.4,0.1-6.6,1.3-7.8,7
			c-0.2,1-0.4,2.1-0.6,3.2c-1,5.3-2.2,11.4-5.4,17.2c-2.3,4.1-2.7,8.3-1.1,10.5c1.1,1.4,3.1,1.8,5.7,1.1c-0.1-1.1-0.2-3.8,1.3-6.9
			c0.1-0.1,1.7-2.8,4.2-3c1.3-0.1,2.6,0.5,3.7,1.9c0.4,0.5,0.8,0.9,1.1,1.4c1.1,1.4,2.3,2.9,3.1,2.8c0.5-0.1,1-0.7,1.5-1.9
			c1-2.4-0.9-4.4-2.8-6.5c-1.6-1.8-3.3-3.6-3.7-5.8c-1.2-5.7-0.9-8.8,1-10.9c0.9-1,1.7-1.4,2.5-1.8c0.9-0.5,1.9-1,3-2.6
			c0.1-0.3,0.2-0.5,0.5-0.6c0.5-0.2,1,0.2,1.1,0.4c0.2,0.2,0.7,0.3,0.8,0.2c0,0,0-0.3-0.4-0.9c-0.3-0.3-0.2-0.6-0.1-0.8
			c0.3-0.4,0.8-0.1,1.2,0.1c0.1,0,0.3,0,0.6-0.1c0.3-0.2,0.5-0.4,0.5-0.7c0-0.5-0.6-1.1-1.6-1.7c-3.8-2.2-6.8-1.7-7.8-1.5
			C125,147.5,125,147.5,124.9,147.5z"/>
	</g>
	<g>
		<g>
			<path class="st0" d="M165.7,188.2c-0.1,0-0.2,0-0.2-0.1l-5-2.6c-0.2-0.1-0.3-0.3-0.3-0.5v-1.5c0-0.3,0.2-0.5,0.5-0.5
				s0.5,0.2,0.5,0.5v1.1l4.2,2.2l4.6-8.8V177c0-0.3,0.2-0.5,0.5-0.5s0.5,0.2,0.5,0.5v1.4c0,0.1,0,0.2-0.1,0.2l-4.9,9.3
				c-0.1,0.1-0.2,0.2-0.3,0.3L165.7,188.2z"/>
		</g>
	</g>
	<g>
		<g>
			<path class="st0" d="M165.7,186.8c-0.1,0-0.2,0-0.2-0.1l-5-2.6c-0.1-0.1-0.2-0.2-0.3-0.3c0-0.1,0-0.3,0-0.4l4.9-9.3
				c0.1-0.1,0.2-0.2,0.3-0.3c0.1,0,0.3,0,0.4,0l5,2.6c0.1,0.1,0.2,0.2,0.3,0.3c0,0.1,0,0.3,0,0.4l-4.9,9.3
				C166,186.7,165.9,186.8,165.7,186.8z M161.4,183.4l4.1,2.1l4.4-8.4l-4.1-2.1L161.4,183.4z"/>
		</g>
	</g>
	<g>
		<g>
			<path class="st0" d="M160.3,188.6L160.3,188.6c-0.2,0-0.4-0.1-0.5-0.2c-0.1-0.1-0.2-0.2-0.2-0.4c0-0.3,0.2-0.5,0.5-0.5h0.1
				c0,0,0,0,0,0c1.4,0,3.7-0.2,4.4-0.6c0.1-0.1,0.3-0.1,0.4-0.1c0.1,0,0.3,0.1,0.3,0.2c0.1,0.1,0.1,0.3,0.1,0.4
				c0,0.1-0.1,0.3-0.2,0.3C164.2,188.5,161.2,188.6,160.3,188.6z M160.3,188L160.3,188C160.3,188.1,160.3,188,160.3,188z M160.3,188
				L160.3,188l0-0.2L160.3,188z"/>
		</g>
	</g>
	<g>
		<g>
			<path class="st0" d="M159.4,185.5l-0.2,0c-0.1,0-0.2-0.1-0.3-0.3c-0.1-0.1-0.1-0.3,0-0.4c0.1-0.4,0.6-1.8,0.6-2.4
				c0-0.5,0.4-1.1,1.1-2.1c0.5-0.7,1-1.5,1.3-2.1c0.4-0.9,0.9-1.1,1.2-1c0.4,0,0.8,0.3,1,0.8c0,0.1,0,0.3,0,0.4
				c-0.1,0.1-0.2,0.2-0.3,0.3c-0.3,0.1-0.6,0-0.7-0.3c0,0,0,0,0-0.1c0,0.1-0.1,0.2-0.2,0.3c-0.3,0.7-0.9,1.6-1.4,2.3
				c-0.4,0.5-0.9,1.4-1,1.6c0,0.7-0.5,2.3-0.6,2.6C159.8,185.3,159.6,185.5,159.4,185.5z"/>
		</g>
	</g>
	<g>
		<g>
			<path class="st0" d="M166.1,187.5c-0.2,0-0.5-0.2-0.5-0.4c0-0.1,0-0.3,0.1-0.4c0.1-0.1,0.2-0.2,0.3-0.2c1.1-0.2,3-2.4,3.2-3.8
				c0.1-0.4,0.2-0.8,0.4-1.1c-0.2,0.2-0.3,0.5-0.5,0.7c-0.1,0.1-0.2,0.2-0.3,0.2c-0.1,0-0.3,0-0.4-0.1c-0.2-0.2-0.3-0.5-0.2-0.7
				c1.9-2.9,2.5-3,2.7-3c0.2,0,0.4,0.1,0.5,0.2c0.4,0.5,0.1,1.1-0.4,2c-0.3,0.6-0.7,1.3-0.8,2c-0.3,1.8-2.5,4.3-4.1,4.6L166.1,187.5
				z"/>
		</g>
	</g>
	<g>
		<g>
			<path class="st0" d="M119.7,188.8c-0.2,0-0.3-0.1-0.4-0.2l0,0c-0.1-0.1-0.1-0.1-0.1-0.2c-0.1-0.1-0.1-0.3,0-0.4
				c0.1-0.1,0.2-0.2,0.3-0.3c4.5-1.7,8-0.3,8.1-0.3c0.3,0.1,0.4,0.4,0.3,0.7c0,0.1-0.2,0.3-0.3,0.3c-0.1,0.1-0.3,0.1-0.4,0
				c0,0-3.3-1.2-7.3,0.3C119.8,188.8,119.8,188.8,119.7,188.8z"/>
		</g>
	</g>
	<g>
		<g>
			<path class="st0" d="M127.7,217.2c-0.1,0-0.2,0-0.3-0.1c0,0-2.9-1.9-7.2-1.3c-0.2,0-0.4-0.1-0.6-0.3l0,0c0-0.1-0.1-0.1-0.1-0.2
				c0-0.2,0-0.3,0.1-0.4c0.1-0.1,0.2-0.2,0.4-0.2c4.7-0.7,7.8,1.4,8,1.5c0.3,0.2,0.3,0.5,0.2,0.8c-0.1,0.1-0.2,0.2-0.3,0.2
				C127.8,217.2,127.7,217.2,127.7,217.2z"/>
		</g>
	</g>
	<g>
		<g>
			<path class="st0" d="M134,186.6l-0.2,0c-0.1,0-0.2-0.1-0.3-0.3c-0.1-0.1-0.1-0.3,0-0.4c0.4-1.3,1.3-2.1,1.4-2.2
				c0.1-0.1,0.2-0.2,0.4-0.1c0.1,0,0.3,0.1,0.4,0.2c0.2,0.2,0.2,0.5,0,0.7c0,0-0.8,0.8-1.1,1.8C134.5,186.5,134.2,186.6,134,186.6z"
				/>
		</g>
	</g>
	<g>
		<g>
			<path class="st0" d="M170.4,175.1c-0.5,0-0.9-0.2-1.1-0.4c-0.4-0.5-0.6-1.3,0.3-2.4c0.1-0.1,1-1.8,0.2-3.5
				c-0.8-1.7-2.9-2.9-6.3-3.6c-10.5-2.1-12.7-13.9-11.6-19.8c0.6-2.9,2.7-5.2,5.8-6.2c3.2-1.1,6.5-0.5,8.7,1.6
				c1.8,1.7,3.6,5,2.1,11.3c-1.5,6.3-0.8,6.8,1.6,8.2c0.9,0.5,2,1.2,3.3,2.3c2.2,2,2.6,4.2,2.6,5.7c-0.1,2.3-1.3,4.6-3.2,6
				C171.8,174.8,171.1,175.1,170.4,175.1z M160.8,139.7c-0.9,0-1.9,0.2-2.8,0.5c-2.7,0.9-4.6,2.9-5.1,5.4c-1.1,5.5,1,16.6,10.8,18.6
				c3.8,0.8,6.2,2.2,7.1,4.3c1,2.3-0.3,4.4-0.3,4.5l0,0.1c-0.4,0.4-0.5,0.8-0.4,1c0.2,0.2,0.9,0.2,2-0.6c1.6-1.2,2.7-3.2,2.8-5.2
				c0.1-1.3-0.3-3.2-2.2-4.8c-1.2-1-2.2-1.7-3.1-2.2c-2.6-1.5-3.8-2.2-2-9.3c1.4-5.9-0.2-8.8-1.8-10.3
				C164.4,140.4,162.7,139.7,160.8,139.7z"/>
		</g>
	</g>
	<g>
		<g>
			<g>
				<g>
					<path class="st0" d="M163.6,153.1h-8.3c-0.3,0-0.6-0.1-0.7-0.4c-0.1-0.2-0.1-0.5,0.1-0.8l1-1.5c0.1-0.1,0.1-0.2,0.2-0.2
						c0,0,0-0.1,0-0.1l0.2-3.5c0-0.2,0-0.3,0.1-0.4c0.2-1.5,1.6-2.7,3.4-2.7c1.8,0,3.2,1.2,3.4,2.7c0,0.1,0,0.3,0.1,0.4l0.2,3.5
						c0,0.1,0,0.1,0,0.2c0,0.1,0.1,0.1,0.1,0.2l1,1.5c0.2,0.2,0.2,0.5,0.1,0.8C164.1,152.9,163.9,153.1,163.6,153.1z M155.9,152
						l7.1,0l-0.7-1c0-0.1-0.1-0.1-0.1-0.2c-0.2-0.2-0.2-0.4-0.2-0.7l-0.2-3.6l-0.1-0.1l0-0.2c-0.1-1-1.1-1.8-2.3-1.8
						c-1.3,0-2.3,0.8-2.3,1.8l-0.2,3.8c0,0.3,0,0.5-0.2,0.7c0,0-0.1,0.1-0.1,0.2L155.9,152z"/>
				</g>
			</g>
		</g>
		<g>
			<g>
				<g>
					<path class="st0" d="M159.5,155.1c-1.3,0-2.2-1.5-2.3-1.6c-0.1-0.2-0.2-0.5,0-0.7c0.1-0.2,0.4-0.4,0.7-0.4h3.3
						c0.3,0,0.6,0.1,0.7,0.4c0.1,0.2,0.1,0.5,0,0.7C161.7,153.6,160.8,155.1,159.5,155.1z M158.4,153.4c0.3,0.3,0.6,0.6,1,0.6
						c0.4,0,0.7-0.3,1-0.6L158.4,153.4z"/>
				</g>
			</g>
		</g>
	</g>
	<g>
		<path class="st0" d="M138.5,273.6c-0.6,0-1.2-0.1-1.8-0.4c-0.1,0-0.2-0.1-0.2-0.2c-1.6-2.6-3.1-5.2-4.3-7.7
			c-0.5-1-0.9-1.9-1.3-2.9c-1.7-4.1-2.8-7.8-3.1-11.1c-0.2-1.8-0.2-3.5,0.1-5c0-0.3,0.1-0.5,0.2-0.8l-0.2-1.3
			c-0.1-0.4-0.2-0.9-0.3-1.5c-0.1-0.4-0.1-0.8-0.2-1.2l-0.1-0.6c0-0.1,0-0.2,0-0.3c0.6-2.3,1.1-4.8,1.6-7.5c0.6-3,1.2-6.4,1.7-10.4
			c0-0.3,0.3-0.5,0.6-0.5c0.3,0,0.5,0.3,0.5,0.6c-0.6,4-1.2,7.4-1.8,10.4c-0.5,2.7-1,5.2-1.6,7.5c0,0,0,0,0,0l0.1,0.5
			c0.1,0.4,0.1,0.8,0.2,1.2c0.1,0.6,0.2,1.1,0.3,1.5l0.3,1.4c0,0.1,0,0.2,0,0.2c-0.1,0.3-0.1,0.6-0.2,0.9c-0.3,1.4-0.3,3-0.1,4.7
			c0.3,3.2,1.3,6.8,3,10.8c0.4,0.9,0.8,1.8,1.3,2.8c1.2,2.5,2.6,5,4.1,7.4c0.5,0.2,0.9,0.3,1.4,0.2c0.3,0,0.7-0.1,1-0.3
			c-0.5-2.4-1-4.8-1.4-7l-0.2-0.9c-0.1-0.6-0.2-1.3-0.3-1.9c-0.8-4.6-1.2-8.4-1.4-11.3c-0.1-1.7-0.1-3,0-4c0-0.4,0.1-0.8,0.1-1.1
			c0.3-1.7,0.6-3.4,0.8-5.1l0-0.3c0.3-2.4,0.5-4.9,0.6-7.4c0.1-3,0-5.8-0.2-8.8c-0.1-1-0.2-1.9-0.3-2.8c0-0.3,0.2-0.6,0.5-0.6
			c0.3,0,0.6,0.2,0.6,0.5c0.1,0.9,0.2,1.8,0.3,2.8c0.2,3,0.3,5.9,0.2,8.9c-0.1,2.5-0.3,5.1-0.6,7.5l0,0.3c-0.2,1.7-0.5,3.4-0.8,5.1
			c-0.1,0.3-0.1,0.6-0.1,1c-0.1,1-0.1,2.3,0,3.9c0.1,2.9,0.6,6.6,1.4,11.1c0.1,0.6,0.2,1.3,0.3,1.9l0.2,0.9c0.4,2.4,1,4.9,1.5,7.4
			c0.1,0.2-0.1,0.5-0.3,0.6c-0.5,0.3-1.1,0.6-1.8,0.6C138.7,273.6,138.6,273.6,138.5,273.6z"/>
	</g>
	<g>
		<path class="st0" d="M118.1,273.8c-1.4,0-2.5-0.8-3.2-1.4c-0.1-0.1-0.1-0.2-0.1-0.3c-0.5-2.3-0.9-4.7-1.1-7.1
			c-0.1-1.1-0.1-2-0.2-2.9c-0.1-4.6,0.5-8.7,1.9-12.3c0.5-1.3,1.1-2.5,1.7-3.6l0,0c0,0,0-0.1,0-0.1c0-0.2,0-0.5-0.1-0.9
			c-0.1-0.6-0.2-1.5-0.3-2.6c0-0.4-0.1-1-0.1-1.6l0-0.5c-0.1-2-0.2-4.6-0.4-7.5c-0.1-2.5-0.3-4.8-0.4-6.8c-0.1-1.7-0.2-3.3-0.3-4.8
			c0-0.3,0.2-0.6,0.5-0.6c0.3,0,0.6,0.2,0.6,0.5c0.1,1.5,0.2,3,0.3,4.7c0.2,2,0.3,4.3,0.4,6.8c0.1,2.8,0.2,5.5,0.4,7.4l0,0.5
			c0,0.6,0.1,1.1,0.1,1.6c0.1,1.1,0.2,2,0.3,2.6c0,0.3,0.1,0.6,0.1,0.8c0,0,0,0.1,0,0.1c0,0.3,0,0.5-0.2,0.8c-0.6,1-1.2,2.2-1.6,3.5
			c-1.3,3.4-1.9,7.4-1.8,11.9c0,1,0.1,1.9,0.1,2.8c0.2,2.2,0.5,4.5,1,6.7c0.5,0.5,1.3,1,2.3,1c0,0,0,0,0,0c0.6-2.9,1.1-5.4,1.6-7.8
			l0.6-2.8c0.9-4.2,1.8-7.4,2.5-9.6c0.4-1.3,0.8-2.3,1.2-2.9c0.6-0.9,1.1-2.1,1.6-3.5c0.4-1.1,0.8-2.3,1.2-4
			c0.1-0.4,0.2-0.9,0.3-1.3c0-0.1,0-0.3,0.1-0.4c0.5-2.2,1.1-4.6,1.6-7.2c0.6-3,1.2-6.4,1.7-10.4c0-0.3,0.3-0.5,0.6-0.5
			c0.3,0,0.5,0.3,0.5,0.6c-0.6,4-1.2,7.4-1.8,10.4c-0.5,2.7-1,5.2-1.6,7.5c0,0,0,0,0,0.1c0,0,0,0.1,0,0.1c-0.1,0.5-0.2,1-0.4,1.5
			c-0.5,1.7-0.9,3-1.3,4.1c-0.5,1.5-1.1,2.8-1.7,3.8c-0.3,0.5-0.7,1.4-1.1,2.7c-0.7,2.2-1.5,5.4-2.5,9.5l-0.6,2.8
			c-0.5,2.5-1.1,5.2-1.7,8.2c0,0.2-0.2,0.4-0.5,0.5C118.5,273.8,118.3,273.8,118.1,273.8z"/>
	</g>
	<g>
		<path class="st0" d="M124.4,278.6h-10.6c-0.3,0-0.5-0.2-0.6-0.5c-0.1-0.7,0-1.8,0.4-2.7c0.2-0.4,0.4-0.7,0.6-1
			c0.4-0.6,0.7-1,0.5-1.8c0-0.2,0.1-0.5,0.3-0.6c0.2-0.1,0.5-0.1,0.6,0.1c0.9,0.9,1.8,1.2,2.8,1.1c0.2,0,0.5,0.1,0.6,0.3
			c0.6,0.9,1.3,2,1.7,2.2c0.1,0.1,0.6,0.2,0.9,0.3c1.1,0.2,2.7,0.6,3.2,1.9c0.1,0.2,0,0.4-0.1,0.5
			C124.8,278.5,124.6,278.6,124.4,278.6z M114.3,277.4h8.7c-0.5-0.2-1.1-0.3-1.6-0.5c-0.6-0.1-1-0.2-1.3-0.4
			c-0.6-0.4-1.4-1.6-1.8-2.3c-0.9,0.1-1.7-0.2-2.5-0.7c-0.1,0.5-0.4,1-0.7,1.4c-0.2,0.3-0.3,0.5-0.5,0.9
			C114.4,276.3,114.4,277,114.3,277.4z"/>
	</g>
	<g>
		<path class="st0" d="M147.5,278.7h-10.6c-0.3,0-0.5-0.2-0.6-0.5c-0.1-0.5-0.2-1.8,0.5-2.8c0.4-0.8,0.3-1.1-0.1-1.9
			c-0.1-0.2-0.1-0.5,0.1-0.6c0.2-0.2,0.4-0.2,0.6-0.1c0.5,0.2,1,0.3,1.5,0.3c0.4,0,1-0.3,1.3-0.5c0.2-0.1,0.5-0.1,0.7,0.1l0.3,0.3
			c0.6,0.7,2.2,2.4,2.6,2.8c0.1,0.1,0.6,0.2,0.9,0.2c1.1,0.2,2.7,0.6,3.2,1.9c0.1,0.2,0,0.4-0.1,0.5
			C147.9,278.6,147.7,278.7,147.5,278.7z M137.4,277.6h8.8c-0.5-0.2-1-0.3-1.6-0.4c-0.6-0.1-1-0.2-1.3-0.4c-0.5-0.4-1.7-1.6-2.8-2.9
			l0,0c-0.4,0.2-0.9,0.4-1.4,0.4c-0.3,0-0.6,0-0.9,0c0.1,0.5,0.1,1.1-0.4,1.9C137.5,276.5,137.4,277.1,137.4,277.6z"/>
	</g>
	<g>
		<g>
			<path class="st0" d="M122.1,206.2l-0.3,0c-1.3,0-2.2-0.1-2.5-0.1l-0.1,0c-0.3,0-0.5-0.3-0.5-0.6c0-0.3,0.3-0.5,0.6-0.5
				c0,0,0,0,0.1,0c0.3,0,1.2,0.1,2.4,0.1l0.3,0l0,0.3c0,0.2,0,0.3,0,0.5V206.2z"/>
		</g>
		<g>
			<path class="st0" d="M126.5,206.2v-1.1l0.3,0c1.6-0.1,3.1-0.3,4.4-0.5c0.1,0,0.3,0,0.4,0.1s0.2,0.2,0.2,0.3
				c0.1,0.3-0.1,0.6-0.4,0.6c-1.3,0.3-2.8,0.5-4.6,0.6L126.5,206.2z"/>
		</g>
	</g>
	<g>
		<g>
			<path class="st0" d="M122.2,208l-0.3,0c-0.6,0-1.1-0.1-1.5-0.1c-0.2,0-0.3,0-0.5-0.1c-0.2,0-0.3,0-0.4,0l-0.1,0
				c-0.1,0-0.1,0-0.1,0l-0.1,0c-0.2-0.1-0.3-0.3-0.3-0.5l0.1-0.3c0.1-0.2,0.3-0.3,0.5-0.3c0,0,0.1,0,0.3,0l0.1,0
				c0.4,0,1.1,0.1,2.1,0.2l0.3,0l0,0.3c0,0.2,0,0.3,0,0.5V208z"/>
		</g>
		<g>
			<path class="st0" d="M126.4,208.2v-0.3c0-0.1,0-0.2,0-0.2c0-0.1,0-0.1,0-0.2v-0.3l0.3,0c1.9,0,3.7-0.2,5.4-0.4l0.1,0
				c0.2,0,0.3,0,0.4,0.1c0.1,0.1,0.2,0.2,0.2,0.3c0.1,0.3-0.1,0.5-0.4,0.6l0,0l-0.4,0.1c-0.1,0-0.1,0-0.2,0c-0.3,0-0.6,0.1-0.9,0.1
				c-1.3,0.2-2.6,0.2-4.3,0.3L126.4,208.2z"/>
		</g>
	</g>
	<g>
		<g>
			<path class="st0" d="M116.4,227.3c-1.5-4-0.7-9.1,0.3-12.8l0-0.2c0.5-2,1-3.4,1.2-3.7v-0.1l0.1-0.1c0.1-0.2,0.2-0.4,0.2-0.7
				l0.1-0.3c0,0,0,0,0,0c0.1-0.6,0.2-1,0.3-1.5l0-0.1c0.5-4-0.8-8.6-2-12.6l-0.1-0.5c-0.5-1.7-0.9-3.2-1.2-4.6
				c-0.2-0.8-0.2-1.5-0.3-2.2c0-0.2,0-0.5,0-0.7c0,0,0-0.1,0-0.1c0,0,0-0.1,0-0.1c0,0,0-0.1,0-0.1c0.2-1.7,0.5-3.2,0.9-4.6
				c0-0.1,0-0.1,0-0.1c0.3-1.2,0.7-2,1-2.6c0.2-0.3,0.3-0.6,0.4-0.7c0.2-0.3,0.5-0.4,0.7-0.2c0.2,0.1,0.3,0.3,0.3,0.5
				c0,0.1,0,0.2-0.1,0.3l-0.1,0.1c-0.5,0.9-1,2.2-1.4,3.5v0.1l0,0c-0.3,1-0.5,1.9-0.6,2.8l0,0.4l0,0c0,0.1,0,0.2,0,0.3l0,0.3l0,0
				c-0.2,1.9,0.6,4.7,1.5,7.7c0.9,3.3,2,7,2.1,10.4c0,0.1,0,0.3,0,0.5c0,0.4,0,0.8,0,1.1l0,0.5c0,0.1,0,0.2,0,0.4c0,0.1,0,0.2,0,0.3
				c0,0,0,0.1,0,0.2c-0.1,0.4-0.1,0.8-0.2,1.2c0,0.1,0,0.2-0.1,0.2c0,0.1,0,0.2-0.1,0.2l-0.3,0l0.3,0.1l0,0.1
				c-0.1,0.3-0.2,0.5-0.3,0.8c-0.2,0.6-0.7,2-1.2,4c-0.1,0.3-0.1,0.6-0.2,0.9c-0.3,1.5-0.6,3-0.7,4.4l0,0.2c0,0.1,0,0.1,0,0.2
				c0,0,0,0.1,0,0.1l-0.1,1c0,1.2,0.1,2.3,0.2,3.3l0,0.1h-0.5c0.1,0.7,0.3,1.4,0.5,2L116.4,227.3z"/>
		</g>
		<g>
			<rect x="129.6" y="231.9" class="st0" width="0.3" height="0.6"/>
		</g>
	</g>
	<g>
		<g>
			<path class="st0" d="M133.3,208.9c-0.6-0.7-1.1-1.6-1.4-2.6l0,0l0-0.1c-0.1-0.1-0.1-0.3-0.2-0.4c-0.2-0.7-0.3-1.3-0.4-1.9
				c-0.1-1.7,0-3.6,0.3-5.4c0.1-0.5,0.4-0.6,0.6-0.6c0.2,0,0.3,0.1,0.4,0.2c0.1,0.1,0.1,0.3,0.1,0.4c-0.3,1.7-0.4,3.5-0.3,5.3
				c0.1,0.7,0.3,1.9,1,3.1l-0.4,0.2c0.3,0.5,0.5,0.9,0.9,1.3L133.3,208.9z"/>
		</g>
	</g>
	<g>
		<path class="st0" d="M138,222c-0.3,0-0.5-0.2-0.6-0.5c-0.3-5.4-5.3-14.2-5.4-14.2c-0.2-0.3-0.1-0.6,0.2-0.8
			c0.3-0.2,0.6-0.1,0.8,0.2c0.2,0.4,5.2,9.1,5.5,14.7C138.6,221.7,138.4,222,138,222C138.1,222,138,222,138,222z"/>
	</g>
	<g>
		<path class="st0" d="M127,215.7l-5.9-0.6l0.2-0.6c0.2-0.6,0.2-2.9,0.1-6.8c0-0.2,0-0.3,0-0.4c0-0.5,0-0.9,0-1.3c0-0.2,0-0.3,0-0.5
			c-0.3-7.7-0.9-17.5-0.9-17.6l1-0.1c0,0.1,0.6,9.9,0.9,17.6c0,0.2,0,0.3,0,0.5c0,0.4,0,0.9,0,1.3c0,0.1,0,0.3,0,0.5
			c0.1,3.4,0.1,5.4,0,6.5l3.6,0.4c0-1.1,0.1-3.6,0.2-6.7l0.1-2.4c0.4-15-0.2-17-0.4-17.3l0.6-0.9c0.5,0.3,1.4,0.7,0.9,18.2l0,2
			c0,0.1,0,0.2,0,0.3l0,0.2c-0.1,4.2-0.3,7.3-0.3,7.3L127,215.7z"/>
	</g>
	<g>
		<path class="st0" d="M132.4,199l-0.6,0c-0.3-0.3-0.3-0.4,0.1-1.3c0.5-1.1,1.4-3.3,2-5.2l1,0.3c-0.6,2-1.6,4.3-2.1,5.4
			c-0.1,0.3-0.2,0.6-0.3,0.6l-0.5-0.2l0,0L132.4,199z"/>
	</g>
</g>
<g>
	<g>
		<path class="st0" d="M201.2,102.7h-23.6c-0.2,0-0.4-0.2-0.4-0.4s0.2-0.4,0.4-0.4h23.6c1,0,1.9-0.4,2.6-1.1c0.7-0.7,1.1-1.6,1-2.6
			c0-2.4-0.1-4.8-0.2-7.1c-0.3-7-0.9-16.7-2.3-23.1c0-0.2,0.1-0.5,0.3-0.5c0.2-0.1,0.5,0.1,0.5,0.3c1.4,6.5,2,16.2,2.3,23.3
			c0.1,2.3,0.2,4.7,0.2,7.1c0,1.2-0.4,2.3-1.3,3.2C203.6,102.2,202.4,102.7,201.2,102.7z"/>
	</g>
	<g>
		<path class="st0" d="M95.3,102.7H78.2c-1,0-2-0.2-2.8-0.7l-3.9-2.1c-2-1-3.2-3.1-3.2-5.3V66.5c0-3.3,2.7-6,6-6h124.7
			c1.5,0,2.7,1.7,3.7,5.3c0.1,0.2-0.1,0.5-0.3,0.5c-0.2,0.1-0.5-0.1-0.5-0.3c-0.8-3-1.8-4.7-2.9-4.7H74.4c-2.8,0-5.2,2.3-5.2,5.1
			v28.1c0,1.9,1,3.6,2.7,4.5l3.9,2.1c0.7,0.4,1.5,0.6,2.4,0.6h17.1c0.2,0,0.4,0.2,0.4,0.4S95.6,102.7,95.3,102.7z"/>
	</g>
	<g>
		<path class="st0" d="M163,102.7h-52.7c-0.2,0-0.4-0.2-0.4-0.4s0.2-0.4,0.4-0.4H163c0.2,0,0.4,0.2,0.4,0.4S163.2,102.7,163,102.7z"
			/>
	</g>
	<g>
		<path class="st0" d="M102.6,107.7c-4.6,0-8.3-3.7-8.3-8.3c0-4.6,3.7-8.3,8.3-8.3s8.3,3.7,8.3,8.3
			C110.9,104,107.2,107.7,102.6,107.7z M102.6,92c-4.1,0-7.4,3.3-7.4,7.4c0,4.1,3.3,7.4,7.4,7.4c4.1,0,7.4-3.3,7.4-7.4
			C110.1,95.4,106.7,92,102.6,92z"/>
	</g>
	<g>
		<path class="st0" d="M170.3,107.7c-4.6,0-8.3-3.7-8.3-8.3c0-4.6,3.7-8.3,8.3-8.3c4.6,0,8.3,3.7,8.3,8.3
			C178.6,104,174.9,107.7,170.3,107.7z M170.3,92c-4.1,0-7.4,3.3-7.4,7.4c0,4.1,3.3,7.4,7.4,7.4c4.1,0,7.4-3.3,7.4-7.4
			C177.7,95.4,174.4,92,170.3,92z"/>
	</g>
	<g>
		<path class="st0" d="M121.8,83.8H75c-1.6,0-2.9-1.3-2.9-2.9V67.8c0-1.6,1.3-2.9,2.9-2.9h46.8c1.6,0,2.9,1.3,2.9,2.9V81
			C124.7,82.5,123.4,83.8,121.8,83.8z M75,65.8c-1.1,0-2,0.9-2,2V81c0,1.1,0.9,2,2,2h46.8c1.1,0,2-0.9,2-2V67.8c0-1.1-0.9-2-2-2H75z
			"/>
	</g>
	<g>
		<path class="st0" d="M176.3,83.8H150c-1.6,0-2.9-1.3-2.9-2.9V67.8c0-1.6,1.3-2.9,2.9-2.9h26.4c1.6,0,2.9,1.3,2.9,2.9V81
			C179.2,82.5,177.9,83.8,176.3,83.8z M150,65.8c-1.1,0-2,0.9-2,2V81c0,1.1,0.9,2,2,2h26.4c1.1,0,2-0.9,2-2V67.8c0-1.1-0.9-2-2-2
			H150z"/>
	</g>
	<g>
		<path class="st0" d="M194.4,99.9h-12.9c-0.2,0-0.4-0.2-0.4-0.4V67.8c0-1.2,1-2.2,2.2-2.2h9.3c1.2,0,2.2,1,2.2,2.2v31.7
			C194.8,99.7,194.6,99.9,194.4,99.9z M181.9,99H194V67.8c0-0.8-0.6-1.4-1.4-1.4h-9.3c-0.8,0-1.4,0.6-1.4,1.4V99z"/>
	</g>
	<g>
		<path class="st0" d="M204.1,91.5c-2.5,0-5.8-0.8-6.4-4c-0.8-4.4-1.3-25.7-1.4-26.6c0-0.2,0.2-0.4,0.4-0.4c0.3,0,0.4,0.2,0.4,0.4
			c0,0.2,0.5,22.1,1.3,26.4c0.7,3.9,6.7,3.2,6.7,3.2c0.2,0,0.4,0.1,0.5,0.4c0,0.2-0.1,0.4-0.4,0.5C204.9,91.5,204.5,91.5,204.1,91.5
			z"/>
	</g>
	<g>
		<path class="st0" d="M144.8,99.9h-17.6c-0.2,0-0.4-0.2-0.4-0.4V67.5c0-1.4,1.2-2.6,2.6-2.6h13.2c1.4,0,2.6,1.2,2.6,2.6v31.9
			C145.2,99.7,145,99.9,144.8,99.9z M127.6,99h16.7V67.5c0-1-0.8-1.8-1.8-1.8h-13.2c-1,0-1.8,0.8-1.8,1.8V99z"/>
	</g>
	<g>
		<path class="st0" d="M102.6,104.9c-3,0-5.5-2.5-5.5-5.5s2.5-5.5,5.5-5.5c3,0,5.5,2.5,5.5,5.5S105.7,104.9,102.6,104.9z
			 M102.6,94.8c-2.6,0-4.6,2.1-4.6,4.6s2.1,4.6,4.6,4.6c2.6,0,4.6-2.1,4.6-4.6S105.2,94.8,102.6,94.8z"/>
	</g>
	<g>
		<path class="st0" d="M170.3,104.9c-3,0-5.5-2.5-5.5-5.5s2.5-5.5,5.5-5.5c3,0,5.5,2.5,5.5,5.5S173.3,104.9,170.3,104.9z
			 M170.3,94.8c-2.6,0-4.6,2.1-4.6,4.6s2.1,4.6,4.6,4.6s4.6-2.1,4.6-4.6S172.9,94.8,170.3,94.8z"/>
	</g>
	<g>
		<path class="st0" d="M218.5,105.9h-43.2c-0.2,0-0.4-0.2-0.4-0.4s0.2-0.4,0.4-0.4h43.2c0.2,0,0.4,0.2,0.4,0.4
			S218.7,105.9,218.5,105.9z"/>
	</g>
	<g>
		<path class="st0" d="M165.3,106.3h-57.5c-0.2,0-0.4-0.2-0.4-0.4s0.2-0.4,0.4-0.4h57.5c0.2,0,0.4,0.2,0.4,0.4
			S165.5,106.3,165.3,106.3z"/>
	</g>
	<g>
		<path class="st0" d="M207.8,71.5c-0.3,0-0.6-0.1-0.8-0.3c0,0-0.1-0.1-0.1-0.1l-0.5-1.2l-0.5-1.6h-8.8c-0.1,0-0.2,0-0.3-0.1
			c-0.1-0.1-0.1-0.2-0.1-0.3l0.1-1.8c0-0.2,0.2-0.4,0.4-0.4h10c1,0,1.8,0.7,1.9,1.7l0.2,2.2c0.1,0.8-0.5,1.6-1.1,1.9
			C208.1,71.4,208,71.5,207.8,71.5z M207.7,70.6c0.1,0,0.1,0.1,0.3,0c0.3-0.2,0.6-0.6,0.6-1l-0.2-2.2c-0.1-0.5-0.5-1-1.1-1h-9.6
			l-0.1,1h8.6c0.2,0,0.3,0.1,0.4,0.3L207.7,70.6z"/>
	</g>
	<g>
		<path class="st0" d="M181.5,99.9h-3.3c-0.2,0-0.4-0.2-0.4-0.4s0.2-0.4,0.4-0.4h3.3c0.2,0,0.4,0.2,0.4,0.4S181.7,99.9,181.5,99.9z"
			/>
	</g>
	<g>
		<path class="st0" d="M127.2,99.9h-16.7c-0.2,0-0.4-0.2-0.4-0.4s0.2-0.4,0.4-0.4h16.7c0.2,0,0.4,0.2,0.4,0.4S127.4,99.9,127.2,99.9
			z"/>
	</g>
	<g>
		<path class="st0" d="M121.2,83.4"/>
	</g>
</g>
<g>
	<g>
		<path class="st0" d="M214.6,160.1c-0.1,0-0.2,0-0.2-0.1c-0.1-0.1-0.2-0.2-0.2-0.3v-28.9c0-0.2,0.1-0.3,0.2-0.4l12.8-4.7
			c0.1,0,0.2,0,0.3,0c0.1,0.1,0.2,0.2,0.2,0.3v0.3c0,0.1,0,0.1,0,0.2c-0.5,1-0.7,2.1-0.7,3.3c0,1.1,0.2,2.3,0.7,3.6c0,0,0,0.1,0,0.1
			V155c0,0.2-0.1,0.3-0.2,0.4l-12.8,4.7C214.7,160.1,214.6,160.1,214.6,160.1z M214.9,131.1v28.1l12-4.5v-21.1
			c-0.5-1.4-0.7-2.6-0.7-3.8c0-1.1,0.2-2.1,0.6-3.1L214.9,131.1z"/>
	</g>
	<g>
		<path class="st0" d="M227.4,126.7C227.3,126.7,227.3,126.7,227.4,126.7c-0.2,0-0.4-0.2-0.4-0.4v-0.3c0-0.1,0.1-0.3,0.2-0.3
			c0.1-0.1,0.3-0.1,0.4,0l0.1,0.1c0.1,0.1,0.2,0.3,0.1,0.5l-0.1,0.2C227.6,126.6,227.5,126.7,227.4,126.7z"/>
	</g>
	<g>
		<path class="st0" d="M240.1,164.9c-0.1,0-0.2,0-0.2-0.1l-12.8-9.5c-0.1-0.1-0.2-0.2-0.2-0.3v-21.5c0-0.2,0.1-0.3,0.3-0.4
			c0.2,0,0.4,0.1,0.4,0.2c1.7,4.7,6.1,9.2,7.2,10.3c0.8-0.8,3-3.3,4.9-6.2c0.1-0.1,0.3-0.2,0.4-0.2c0.2,0,0.3,0.2,0.3,0.4v26.7
			c0,0.1-0.1,0.3-0.2,0.3C240.3,164.9,240.2,164.9,240.1,164.9z M227.7,154.8l12,8.9V139c-2.2,3.1-4.5,5.5-4.6,5.6
			c-0.1,0.1-0.4,0.2-0.5,0c-0.2-0.2-4.6-4.3-6.9-9.2V154.8z"/>
	</g>
	<g>
		<path class="st0" d="M240.1,164.9c-0.2,0-0.3-0.1-0.4-0.2c-0.1-0.2,0-0.4,0.2-0.5l12.5-4.7v-28.1l-10.6,4c-0.2,0.1-0.4,0-0.5-0.2
			c-0.1-0.2,0-0.4,0.2-0.5l11.2-4.1c0.1,0,0.2,0,0.3,0c0.1,0.1,0.2,0.2,0.2,0.3v28.9c0,0.2-0.1,0.3-0.2,0.4l-12.8,4.7
			C240.2,164.9,240.2,164.9,240.1,164.9z"/>
	</g>
	<g>
		<path class="st1" d="M234.9,121.5c-3.3,0-6.1,1.9-7.5,4.7c0,0.1-0.1,0.1-0.1,0.2c-0.5,1-0.7,2.2-0.7,3.4c0,1.2,0.3,2.5,0.7,3.7
			c2.1,5.5,7.6,10.7,7.6,10.7s2.8-2.9,5.2-6.5c0.6-0.9,1.1-1.8,1.6-2.8c0.9-1.8,1.5-3.6,1.5-5.2
			C243.3,125.2,239.5,121.5,234.9,121.5z M238,134c-0.9,0.6-1.9,1-3.1,1c-2.9,0-5.2-2.3-5.2-5.2c0-0.6,0.1-1.2,0.3-1.7
			c0.7-2,2.6-3.5,4.9-3.5c2.9,0,5.2,2.3,5.2,5.2C240.1,131.5,239.3,133,238,134z"/>
	</g>
	<g>
		<path class="st0" d="M234.9,135.3c-3.1,0-5.6-2.5-5.6-5.6c0-0.6,0.1-1.2,0.3-1.8c0.8-2.2,2.9-3.8,5.3-3.8c3.1,0,5.6,2.5,5.6,5.6
			c0,1.8-0.9,3.5-2.3,4.5C237.3,135,236.1,135.3,234.9,135.3z M234.9,124.9c-2.1,0-3.9,1.3-4.6,3.3c-0.2,0.5-0.3,1-0.3,1.6
			c0,2.7,2.2,4.8,4.8,4.8c1,0,2-0.3,2.8-0.9c1.3-0.9,2-2.4,2-3.9C239.8,127.1,237.6,124.9,234.9,124.9z"/>
	</g>
</g>
<path class="st1" d="M102.6,0L102.6,0c10.8,9,7.8,26.3-5.4,31.2l-51,19c-6,2.2-10.3,7.4-11.6,13.6l-4,20.1
	c-2.2,11.3,6.4,21.9,18,21.9H98"/>
<path class="st1" d="M217.8,105.4h71c7,0,12.6-5.7,12.6-12.6v-9.5c0-7-5.7-12.6-12.6-12.6h0c-7,0-12.6,5.7-12.6,12.6v89.4
	c0,2.1-1.7,3.7-3.7,3.7h0c-2.1,0-3.7-1.7-3.7-3.7v0c0-7.2-5.8-13-13-13h-3.1"/>
<path class="st1" d="M165.7,187.5v22.8c0,6.4,5.2,11.7,11.7,11.7h55.2c11.4,0,20.7,9.3,20.7,20.7v0c0,11.4-9.3,20.7-20.7,20.7h-8.7
	c-11.4,0-20.7-9.2-20.7-20.7l-0.2-71.5c0-6.5,5.2-11.7,11.7-11.7l0,0"/>
<polyline class="st1" points="66.7,148.2 66.7,278.6 59.2,278.6 59.2,148.2 59.2,128 59.2,123.6 66.7,123.6 "/>
<polygon class="st1" points="59.2,148.2 95.2,148.2 95.2,123.6 59.2,123.6 59.2,128 "/>
<line class="st1" x1="59.2" y1="278.6" x2="148" y2="278.6"/>
</svg>
