<svg width="260" height="229" viewBox="0 0 260 229" fill="none" xmlns="http://www.w3.org/2000/svg">
  <path
    d="M150.163 60.2473C149.774 60.2473 149.529 59.9879 149.529 59.6131C149.529 59.4834 149.529 59.224 149.658 59.1087C149.788 58.979 149.918 58.8493 150.163 58.8493C154.631 58.7196 155.539 56.8027 155.654 52.8393C155.654 52.4502 155.913 52.2052 156.158 52.2052C156.663 52.0754 156.793 51.9457 156.793 51.9457C156.793 51.9457 156.922 51.6863 156.533 50.663C155.769 48.8759 155.64 47.7229 155.64 45.4169C155.38 39.9258 155.64 39.9258 156.029 39.9258C156.418 39.9258 156.663 39.9258 156.922 45.4169C156.922 47.5932 157.052 48.6165 157.686 50.1442C158.191 51.2972 158.191 51.9313 157.946 52.5799C157.686 52.969 157.311 53.214 156.922 53.3437C156.677 57.6963 155.395 60.1176 150.163 60.2473Z"
    fill="#005686" />
  <path
    d="M148.361 66.8878H147.972V66.4987C147.583 62.7947 147.972 60.359 148.995 59.3357C149.63 58.7015 150.148 58.8312 150.278 58.8312C150.408 58.8312 150.667 58.961 150.783 59.0907C150.912 59.2204 150.912 59.3501 150.912 59.5951C150.912 59.9842 150.523 60.2293 150.148 60.2293C150.148 60.2293 150.019 60.2293 150.019 60.359C149.889 60.6184 149.514 62.4055 148.995 65.7348C148.75 66.8878 148.621 66.8878 148.361 66.8878ZM148.88 61.1372C148.75 61.3967 148.75 61.7714 148.621 62.1605C148.75 61.7858 148.88 61.3967 148.88 61.1372Z"
    fill="#005686" />
  <path
    d="M141.847 66.8919H141.588C141.198 66.7622 141.083 66.3875 141.198 65.9984C143.375 59.484 142.351 53.8487 142.351 53.6037C142.351 53.474 142.351 53.2146 142.481 53.0993C142.611 52.9696 142.741 52.8398 142.87 52.8398C143 52.8398 143.259 52.8398 143.375 52.9696C143.504 53.0993 143.634 53.229 143.634 53.3587C143.634 53.3587 144.787 59.4984 142.481 66.5316C142.366 66.7766 142.106 66.8919 141.847 66.8919Z"
    fill="#005686" />
  <path
    d="M159.228 90.6725H159.099C158.969 90.6725 158.839 90.5428 158.709 90.413C158.58 90.2833 158.58 90.0239 158.58 89.9086C159.214 87.7323 159.603 85.311 158.45 81.8521C156.922 76.9951 151.417 68.3044 151.287 67.9153C151.157 67.7855 151.157 67.5261 151.157 67.4108C151.157 67.2811 151.287 67.0217 151.417 67.0217C151.806 66.7623 152.181 66.892 152.31 67.2811C152.31 67.4108 158.061 76.4906 159.718 81.5926C160.871 85.2966 160.482 87.9918 159.848 90.413C159.747 90.5428 159.488 90.6725 159.228 90.6725Z"
    fill="#005686" />
  <path
    d="M170.744 92.588C168.697 92.588 162.817 89.7775 159.488 87.3418C159.358 87.2121 159.228 87.0824 159.228 86.8374C159.228 86.7077 159.228 86.4483 159.358 86.333C159.617 86.0735 159.992 85.9438 160.252 86.2033C163.321 88.639 168.942 91.1899 170.614 91.1899C175.73 90.9305 191.584 83.3928 192.348 82.629C192.478 82.3696 192.852 82.3696 193.242 82.4993C193.371 82.629 193.501 82.7587 193.501 82.8884C193.501 83.0181 193.501 83.2775 193.371 83.3928C192.607 84.5458 175.86 92.2132 170.744 92.4727V92.588Z"
    fill="#005686" />
  <path
    d="M170.614 86.2089C170.485 86.2089 170.485 86.2089 170.485 86.2089C170.355 86.2089 170.225 86.2089 170.225 86.0792C165.873 83.2688 157.701 77.8929 155.135 73.9295C154.876 73.6701 155.006 73.1656 155.265 73.0359C155.524 72.7765 156.029 72.9062 156.159 73.1657C158.594 76.8696 166.521 81.9861 170.73 84.7965C171.623 84.7965 176.61 84.292 191.959 78.5271C192.089 78.5271 192.348 78.5271 192.463 78.5271C192.593 78.6568 192.723 78.7865 192.853 78.9162C192.982 79.3053 192.853 79.6801 192.463 79.8098C176.105 85.9495 171.378 86.2089 170.614 86.2089Z"
    fill="#005686" />
  <path
    d="M132.392 83.2649C129.582 83.2649 127.925 81.9822 127.146 80.9589C124.711 77.889 125.1 71.8791 128.429 66.1285C132.522 58.8358 133.92 51.2981 135.203 44.5243C135.462 42.9966 135.707 41.5842 135.967 40.3015C137.754 31.9855 146.963 30.3281 147.093 30.3281C147.223 30.3281 147.223 30.3281 147.353 30.3281C151.057 29.6939 154.645 30.4578 158.22 32.3746C160.525 33.6573 161.03 34.9256 160.9 35.7039C160.9 36.4678 160.396 37.2316 159.618 37.7505C159.228 38.0099 158.854 38.0099 158.465 38.1396C158.724 39.0332 158.465 39.552 158.075 39.797C157.312 40.4312 155.899 40.0564 155.395 39.5376C153.737 41.9733 152.325 42.6074 151.042 43.3713C150.149 43.8757 149.125 44.3946 148.232 45.4179C146.185 47.7239 145.796 51.4278 147.208 58.3314C147.713 60.8824 149.759 63.0587 151.676 65.1052C154.487 68.1751 157.052 70.9855 155.51 74.8192C154.616 76.8658 153.723 77.889 152.7 78.0188C150.912 78.2782 149.37 76.3613 147.583 74.0553C147.079 73.4212 146.69 72.9023 146.171 72.2682C145.018 70.8558 143.735 70.2216 142.596 70.3513C140.161 70.4811 138.374 73.2915 138.374 73.4212C136.197 77.889 136.961 81.8525 136.961 81.9822L137.091 82.6163L136.586 82.746C134.943 83.1352 133.531 83.2649 132.392 83.2649ZM147.223 31.7405C146.718 31.8702 138.792 33.3979 137.249 40.6906C136.99 41.9733 136.745 43.3713 136.486 44.7837C135.203 51.5576 133.675 59.3547 129.582 66.7771C126.642 72.0232 126.123 77.3846 128.17 80.195C129.582 81.9822 132.133 82.501 135.462 81.6074C135.333 80.195 135.203 76.7505 137.12 72.787C137.249 72.6573 139.296 69.2128 142.496 68.9533C144.153 68.8236 145.825 69.5875 147.223 71.389C147.727 72.0232 148.246 72.542 148.635 73.1762C150.048 74.9633 151.575 76.8802 152.599 76.7505C153.233 76.6207 153.881 75.8569 154.516 74.3148C155.798 71.2449 153.363 68.6939 150.941 65.9988C148.895 63.6928 146.718 61.4012 146.214 58.5908C144.686 51.2981 145.061 47.3347 147.497 44.654C148.65 43.3713 149.673 42.8669 150.696 42.348C151.849 41.7139 153.132 41.0653 154.53 39.0187C154.66 38.6296 154.789 38.3846 155.164 38.2549C155.798 37.9955 156.447 38.5143 156.576 38.7593C156.836 39.0187 157.47 39.1485 157.6 39.0187C157.6 39.0187 157.6 38.6296 157.095 37.8658C156.706 37.4766 156.836 37.1019 156.966 36.8425C157.355 36.338 157.989 36.7128 158.493 36.9722C158.623 36.9722 158.882 36.9722 159.257 36.8425C159.646 36.5831 159.891 36.338 159.891 35.9489C159.891 35.3148 159.127 34.5365 157.845 33.7726C152.988 30.9622 149.154 31.5964 147.871 31.8558C147.338 31.7405 147.338 31.7405 147.223 31.7405Z"
    fill="#005686" />
  <path
    d="M199.381 83.766C199.252 83.766 199.122 83.766 199.122 83.6363L192.723 80.307C192.463 80.1773 192.334 79.9179 192.334 79.6729V77.756C192.334 77.3669 192.593 77.1219 192.968 77.1219C193.357 77.1219 193.602 77.3813 193.602 77.756V79.1684L198.978 81.9789L204.858 70.7228V69.4545C204.858 69.0653 205.117 68.8203 205.492 68.8203C205.881 68.8203 206.126 69.0797 206.126 69.4545V71.2416C206.126 71.3713 206.126 71.501 205.997 71.501L199.727 83.3913C199.626 83.521 199.511 83.6363 199.381 83.766Z"
    fill="#005686" />
  <path
    d="M199.381 81.9796C199.251 81.9796 199.122 81.9796 199.122 81.8499L192.723 78.5206C192.593 78.3909 192.463 78.2612 192.333 78.1315C192.333 78.0018 192.333 77.7423 192.333 77.627L198.603 65.7368C198.733 65.6071 198.862 65.4774 198.992 65.3477C199.122 65.3477 199.381 65.3477 199.496 65.3477L205.896 68.6769C206.025 68.8066 206.155 68.9363 206.285 69.0661C206.285 69.1958 206.285 69.4552 206.285 69.5705L200.015 81.4607C199.756 81.8499 199.626 81.9796 199.381 81.9796ZM193.876 77.6414L199.122 80.3222L204.743 69.5849L199.496 66.9042L193.876 77.6414Z"
    fill="#005686" />
  <path
    d="M192.478 84.2916C192.218 84.2916 191.973 84.1619 191.844 84.0321C191.714 83.9024 191.584 83.7727 191.584 83.5277C191.584 83.1386 191.844 82.8936 192.218 82.8936H192.348C194.135 82.8936 197.075 82.6341 197.969 82.1297C198.099 82 198.358 82 198.473 82C198.603 82 198.863 82.1297 198.863 82.2594C198.992 82.3891 198.992 82.6486 198.992 82.7639C198.992 82.8936 198.863 83.153 198.733 83.153C197.465 84.1619 193.631 84.2916 192.478 84.2916Z"
    fill="#005686" />
  <path
    d="M191.325 80.3215H191.065C190.936 80.3215 190.806 80.1918 190.676 79.9324C190.547 79.8027 190.547 79.5433 190.676 79.428C190.806 78.9235 191.44 77.122 191.44 76.3581C191.44 75.724 191.945 74.9457 192.853 73.6774C193.487 72.7838 194.135 71.7606 194.51 70.9967C195.014 69.8437 195.663 69.5843 196.038 69.714C196.542 69.714 197.061 70.1031 197.32 70.7373C197.32 70.867 197.32 71.1264 197.32 71.2417C197.191 71.3714 197.061 71.5011 196.931 71.6308C196.542 71.7606 196.167 71.6309 196.038 71.2417C196.038 71.2417 196.038 71.2417 196.038 71.112C196.038 71.2417 195.908 71.3714 195.778 71.5011C195.389 72.3947 194.625 73.5477 193.991 74.4413C193.487 75.0754 192.838 76.2284 192.708 76.4878C192.708 77.3814 192.074 79.428 191.945 79.8171C191.829 80.0621 191.584 80.3215 191.325 80.3215Z"
    fill="#005686" />
  <path
    d="M199.886 82.8823C199.626 82.8823 199.252 82.6229 199.252 82.3779C199.252 82.2482 199.252 81.9887 199.381 81.8734C199.511 81.7437 199.641 81.614 199.771 81.614C201.183 81.3546 203.604 78.5442 203.864 76.757C203.993 76.2526 204.123 75.7338 204.368 75.3446C204.109 75.604 203.979 75.9788 203.734 76.2382C203.604 76.3679 203.475 76.4976 203.345 76.4976C203.215 76.4976 202.956 76.4976 202.84 76.3679C202.581 76.1085 202.451 75.7338 202.581 75.4743C205.017 71.7703 205.781 71.6406 206.04 71.6406C206.299 71.6406 206.544 71.7703 206.674 71.9001C207.179 72.5342 206.804 73.3125 206.17 74.451C205.781 75.2149 205.276 76.1085 205.146 77.002C204.743 79.308 201.932 82.5076 199.886 82.8823Z"
    fill="#005686" />
  <path
    d="M140.564 84.5467C140.305 84.5467 140.175 84.417 140.06 84.2872C139.93 84.1575 139.93 84.1575 139.93 84.0278C139.801 83.8981 139.801 83.6387 139.93 83.5234C140.06 83.3937 140.19 83.264 140.319 83.1342C146.07 80.958 150.552 82.7451 150.682 82.7451C151.071 82.8748 151.186 83.2495 151.071 83.6387C151.071 83.7684 150.812 84.0278 150.682 84.0278C150.552 84.1575 150.293 84.1575 150.178 84.0278C150.178 84.0278 145.955 82.5001 140.838 84.4169C140.694 84.5467 140.694 84.5467 140.564 84.5467Z"
    fill="#005686" />
  <path
    d="M150.797 120.85C150.667 120.85 150.538 120.85 150.408 120.721C150.408 120.721 146.704 118.285 141.199 119.063C140.939 119.063 140.694 118.933 140.435 118.674C140.435 118.544 140.305 118.544 140.305 118.415C140.305 118.155 140.305 118.025 140.435 117.91C140.564 117.78 140.694 117.651 140.939 117.651C146.949 116.757 150.912 119.438 151.172 119.568C151.561 119.827 151.561 120.202 151.431 120.591C151.302 120.721 151.172 120.85 151.042 120.85C150.927 120.85 150.797 120.85 150.797 120.85Z"
    fill="#005686" />
  <path
    d="M158.854 81.7234H158.594C158.465 81.7234 158.335 81.5937 158.205 81.3342C158.075 81.2045 158.075 80.9451 158.205 80.8298C158.71 79.1724 159.863 78.1491 159.992 78.0194C160.122 77.8897 160.252 77.76 160.497 77.8897C160.626 77.8897 160.886 78.0194 161.001 78.1491C161.261 78.4085 161.261 78.7832 161.001 79.0427C161.001 79.0427 159.978 80.0659 159.589 81.3486C159.488 81.6081 159.113 81.7234 158.854 81.7234Z"
    fill="#005686" />
  <path
    d="M205.391 67.0247C204.757 67.0247 204.238 66.7653 203.979 66.5203C203.474 65.8861 203.215 64.8628 204.368 63.4504C204.498 63.3207 205.651 61.1444 204.627 58.9826C203.604 56.8063 200.923 55.2786 196.571 54.385C183.153 51.7043 180.328 36.6145 181.74 29.0768C182.504 25.3728 185.199 22.4327 189.148 21.15C193.241 19.7376 197.464 20.5158 200.275 23.1966C202.581 25.3728 204.872 29.5957 202.955 37.6378C201.039 45.6943 201.932 46.3285 205.002 48.1156C206.155 48.7498 207.553 49.6433 209.225 51.0558C212.035 53.6067 212.554 56.4316 212.554 58.3484C212.424 61.2886 210.897 64.2287 208.461 66.0158C207.178 66.65 206.285 67.0247 205.391 67.0247ZM193.112 21.7697C191.959 21.7697 190.676 22.0291 189.537 22.4039C186.078 23.5569 183.657 26.1079 183.023 29.3074C181.611 36.3407 184.306 50.5369 196.83 53.0879C201.687 54.1112 204.757 55.8983 205.91 58.579C207.193 61.5192 205.521 64.1999 205.521 64.3296V64.4593C205.016 64.9637 204.887 65.4826 205.016 65.742C205.276 66.0014 206.169 66.0014 207.567 64.9782C209.614 63.4504 211.026 60.885 211.142 58.334C211.271 56.6766 210.753 54.2409 208.331 52.1943C206.804 50.9116 205.521 50.0181 204.368 49.3839C201.039 47.4671 199.511 46.5735 201.817 37.4937C203.604 29.956 201.557 26.2376 199.511 24.3207C197.709 22.6633 195.547 21.7697 193.112 21.7697Z"
    fill="#005686" />
  <path
    d="M196.686 38.9017H186.079C185.69 38.9017 185.315 38.772 185.185 38.3973C185.056 38.1378 185.056 37.7631 185.315 37.374L186.598 35.4571C186.727 35.3274 186.727 35.1977 186.857 35.1977V35.068L187.117 30.6001C187.117 30.3407 187.117 30.211 187.246 30.0957C187.506 28.1788 189.293 26.6367 191.599 26.6367C193.905 26.6367 195.692 28.1644 195.951 30.0957C195.951 30.2254 195.951 30.4848 196.081 30.6001L196.341 35.068C196.341 35.1977 196.341 35.1977 196.341 35.3274C196.341 35.4571 196.47 35.4571 196.47 35.5868L197.753 37.5037C198.012 37.7631 198.012 38.1378 197.883 38.527C197.335 38.6423 197.076 38.9017 196.686 38.9017ZM186.843 37.4893H195.923L195.029 36.2066C195.029 36.0769 194.899 36.0769 194.899 35.9471C194.64 35.6877 194.64 35.4427 194.64 35.0536L194.38 30.456L194.251 30.3263V30.0669C194.121 28.7842 192.838 27.7609 191.311 27.7609C189.653 27.7609 188.37 28.7842 188.37 30.0669L188.111 34.9239C188.111 35.313 188.111 35.558 187.852 35.8174C187.852 35.8174 187.722 35.9471 187.722 36.0769L186.843 37.4893Z"
    fill="#005686" />
  <path
    d="M191.454 41.4563C189.797 41.4563 188.644 39.5394 188.514 39.4097C188.385 39.1503 188.255 38.7756 188.514 38.5162C188.644 38.2567 189.019 38.0117 189.408 38.0117H193.631C194.02 38.0117 194.395 38.1414 194.524 38.5162C194.654 38.7756 194.654 39.1503 194.524 39.4097C194.265 39.5394 193.112 41.4563 191.454 41.4563ZM190.042 39.28C190.431 39.6691 190.806 40.0439 191.325 40.0439C191.844 40.0439 192.218 39.6547 192.607 39.28H190.042Z"
    fill="#005686" />
  <path
    d="M164.604 192.96C163.84 192.96 163.076 192.83 162.298 192.455C162.168 192.455 162.039 192.326 162.039 192.196C159.992 188.867 158.075 185.552 156.548 182.352C155.913 181.069 155.395 179.916 154.89 178.648C152.714 173.402 151.316 168.675 150.927 164.452C150.667 162.146 150.667 159.984 151.056 158.053C151.056 157.664 151.186 157.419 151.316 157.03L151.056 155.372C150.927 154.868 150.797 154.219 150.667 153.455C150.538 152.951 150.538 152.432 150.408 151.928L150.278 151.164C150.278 151.034 150.278 150.904 150.278 150.775C151.042 147.834 151.691 144.635 152.325 141.19C153.089 137.357 153.852 133.004 154.501 127.888C154.501 127.498 154.89 127.253 155.265 127.253C155.654 127.253 155.899 127.643 155.899 128.017C155.135 133.134 154.371 137.472 153.593 141.32C152.959 144.779 152.31 147.964 151.546 150.904L151.676 151.538C151.806 152.043 151.806 152.562 151.936 153.066C152.065 153.83 152.195 154.479 152.325 154.983L152.714 156.77C152.714 156.9 152.714 157.03 152.714 157.03C152.584 157.419 152.584 157.793 152.454 158.183C152.065 159.97 152.065 162.016 152.325 164.192C152.714 168.286 153.982 172.883 156.158 178C156.663 179.153 157.182 180.306 157.816 181.574C159.344 184.773 161.145 187.973 163.062 191.028C163.696 191.288 164.215 191.418 164.849 191.288C165.238 191.288 165.743 191.158 166.132 190.899C165.498 187.829 164.849 184.759 164.345 181.949L164.085 180.796C163.956 180.032 163.826 179.138 163.696 178.36C162.673 172.48 162.168 167.623 161.909 163.919C161.779 161.742 161.779 160.085 161.909 158.802C161.909 158.298 162.039 157.779 162.039 157.39C162.428 155.214 162.803 153.037 163.062 150.875V150.486C163.451 147.416 163.696 144.217 163.826 141.032C163.956 137.198 163.826 133.624 163.566 129.776C163.437 128.493 163.307 127.34 163.177 126.201C163.177 125.812 163.437 125.438 163.811 125.438C164.201 125.438 164.575 125.697 164.575 126.072C164.705 127.225 164.835 128.378 164.964 129.646C165.224 133.48 165.354 137.184 165.224 141.017C165.094 144.217 164.835 147.532 164.46 150.602V150.991C164.201 153.167 163.826 155.343 163.437 157.505C163.307 157.894 163.307 158.269 163.307 158.788C163.177 160.071 163.177 161.728 163.307 163.775C163.437 167.479 164.071 172.206 165.094 177.971C165.224 178.735 165.354 179.628 165.483 180.406L165.743 181.559C166.247 184.629 167.025 187.829 167.66 191.014C167.789 191.273 167.53 191.648 167.27 191.778C166.636 192.167 165.858 192.542 164.964 192.542C164.864 192.96 164.734 192.96 164.604 192.96Z"
    fill="#005686" />
  <path
    d="M138.518 193.214C136.731 193.214 135.318 192.19 134.425 191.427C134.295 191.297 134.295 191.167 134.295 191.037C133.661 188.097 133.142 185.027 132.882 181.958C132.753 180.545 132.753 179.407 132.623 178.254C132.493 172.373 133.257 167.127 135.059 162.53C135.693 160.872 136.471 159.33 137.235 157.932V157.802C137.235 157.543 137.235 157.168 137.105 156.649C136.976 155.886 136.846 154.733 136.716 153.32C136.716 152.816 136.586 152.037 136.586 151.274V150.639C136.457 148.088 136.327 144.759 136.082 141.055C135.952 137.856 135.693 134.915 135.578 132.364C135.448 130.188 135.318 128.142 135.188 126.225C135.188 125.836 135.448 125.461 135.823 125.461C136.212 125.461 136.586 125.72 136.586 126.095C136.716 128.012 136.846 129.929 136.976 132.105C137.235 134.656 137.365 137.596 137.48 140.796C137.61 144.37 137.739 147.829 137.984 150.25V150.884C137.984 151.648 138.114 152.297 138.114 152.931C138.244 154.343 138.374 155.482 138.503 156.26C138.503 156.649 138.633 157.024 138.633 157.284V157.413C138.633 157.802 138.633 158.047 138.374 158.437C137.61 159.719 136.846 161.247 136.327 162.904C134.67 167.257 133.891 172.359 134.021 178.124C134.021 179.407 134.151 180.56 134.151 181.698C134.41 184.509 134.785 187.449 135.433 190.259C136.068 190.893 137.091 191.542 138.374 191.542C139.137 187.838 139.786 184.638 140.42 181.568L141.184 177.994C142.337 172.618 143.49 168.54 144.384 165.715C144.888 164.057 145.407 162.775 145.911 162.011C146.675 160.858 147.324 159.33 147.958 157.543C148.462 156.131 148.981 154.603 149.486 152.427C149.615 151.922 149.745 151.274 149.875 150.769C149.875 150.639 149.875 150.38 150.004 150.265C150.639 147.454 151.417 144.384 152.051 141.055C152.815 137.221 153.579 132.869 154.227 127.753C154.227 127.363 154.616 127.118 154.991 127.118C155.38 127.118 155.625 127.508 155.625 127.882C154.861 132.999 154.098 137.337 153.319 141.185C152.685 144.644 152.037 147.829 151.273 150.769C151.273 150.769 151.273 150.769 151.273 150.899V151.029C151.143 151.663 151.013 152.311 150.768 152.945C150.134 155.122 149.615 156.779 149.111 158.192C148.477 160.108 147.698 161.766 146.935 163.049C146.545 163.683 146.041 164.836 145.522 166.508C144.629 169.318 143.605 173.411 142.323 178.657L141.559 182.231C140.925 185.431 140.146 188.876 139.382 192.709C139.382 192.969 139.123 193.214 138.748 193.343C139.037 193.214 138.777 193.214 138.518 193.214Z"
    fill="#005686" />
  <path
    d="M146.574 199.343H133.027C132.638 199.343 132.393 199.084 132.263 198.709C132.133 197.816 132.263 196.403 132.767 195.25C133.027 194.746 133.272 194.357 133.531 193.968C134.036 193.204 134.425 192.685 134.165 191.662C134.165 191.402 134.295 191.027 134.554 190.898C134.814 190.768 135.189 190.768 135.318 191.027C136.471 192.18 137.624 192.555 138.893 192.44C139.152 192.44 139.527 192.57 139.656 192.829C140.42 193.982 141.314 195.38 141.833 195.639C141.962 195.769 142.596 195.899 142.986 196.029C144.398 196.288 146.445 196.792 147.079 198.464C147.208 198.724 147.079 198.969 146.949 199.098C147.093 199.214 146.834 199.343 146.574 199.343ZM133.661 197.816H144.787C144.153 197.556 143.375 197.427 142.741 197.182C141.977 197.052 141.458 196.922 141.083 196.677C140.319 196.173 139.296 194.631 138.777 193.737C137.624 193.867 136.601 193.478 135.578 192.843C135.448 193.478 135.073 194.126 134.684 194.631C134.425 195.02 134.295 195.265 134.05 195.784C133.791 196.403 133.791 197.297 133.661 197.816Z"
    fill="#005686" />
  <path
    d="M176.105 199.469H162.558C162.169 199.469 161.923 199.21 161.794 198.835C161.664 198.201 161.534 196.529 162.428 195.261C162.932 194.238 162.817 193.849 162.298 192.825C162.169 192.566 162.169 192.191 162.428 192.061C162.687 191.802 162.932 191.802 163.192 191.932C163.826 192.191 164.474 192.321 165.109 192.321C165.613 192.321 166.391 191.932 166.766 191.687C167.025 191.557 167.4 191.557 167.66 191.816L168.049 192.206C168.813 193.099 170.859 195.275 171.378 195.78C171.508 195.91 172.142 196.039 172.531 196.039C173.943 196.299 175.99 196.803 176.624 198.475C176.754 198.734 176.624 198.979 176.494 199.109C176.624 199.34 176.365 199.469 176.105 199.469ZM163.192 198.071H174.448C173.814 197.812 173.165 197.682 172.401 197.567C171.637 197.452 171.119 197.308 170.744 197.063C170.11 196.558 168.568 195.016 167.17 193.359C166.665 193.618 166.017 193.863 165.382 193.863C164.993 193.863 164.619 193.863 164.229 193.863C164.359 194.497 164.359 195.275 163.725 196.299C163.321 196.659 163.192 197.423 163.192 198.071Z"
    fill="#005686" />
  <path
    d="M143.634 106.786H143.259C141.602 106.786 140.449 106.656 140.06 106.656H139.93C139.541 106.656 139.296 106.267 139.296 105.892C139.296 105.503 139.685 105.258 140.06 105.258C140.06 105.258 140.06 105.258 140.19 105.258C140.579 105.258 141.717 105.388 143.259 105.388H143.649V105.777C143.649 106.036 143.649 106.166 143.649 106.411V106.786H143.634Z"
    fill="#005686" />
  <path
    d="M149.269 106.785V105.372H149.658C151.705 105.243 153.622 104.983 155.279 104.738C155.409 104.738 155.668 104.738 155.784 104.868C155.913 104.998 156.043 105.127 156.043 105.257C156.173 105.646 155.913 106.021 155.539 106.021C153.881 106.41 151.964 106.655 149.658 106.785H149.269Z"
    fill="#005686" />
  <path
    d="M143.764 109.098H143.375C142.611 109.098 141.962 108.968 141.458 108.968C141.198 108.968 141.069 108.968 140.824 108.838C140.564 108.838 140.435 108.838 140.319 108.838H140.19C140.06 108.838 140.06 108.838 140.06 108.838H139.93C139.671 108.708 139.541 108.449 139.541 108.204L139.671 107.815C139.8 107.555 140.06 107.426 140.305 107.426C140.305 107.426 140.435 107.426 140.694 107.426H140.824C141.328 107.426 142.236 107.555 143.504 107.685H143.894V108.074C143.894 108.334 143.894 108.463 143.894 108.708V109.098H143.764Z"
    fill="#005686" />
  <path
    d="M149.14 109.341V108.951C149.14 108.822 149.14 108.692 149.14 108.692C149.14 108.562 149.14 108.562 149.14 108.433V108.043H149.529C151.965 108.043 154.256 107.784 156.432 107.539H156.562C156.822 107.539 156.951 107.539 157.067 107.669C157.196 107.798 157.326 107.928 157.326 108.058C157.456 108.447 157.196 108.692 156.822 108.822L156.317 108.951C156.187 108.951 156.187 108.951 156.058 108.951C155.669 108.951 155.294 109.081 154.905 109.081C153.247 109.341 151.575 109.341 149.414 109.47L149.14 109.341Z"
    fill="#005686" />
  <path
    d="M136.356 133.767C134.439 128.651 135.462 122.136 136.745 117.409V117.15C137.379 114.599 138.028 112.797 138.273 112.422V112.293L138.402 112.163C138.532 111.903 138.662 111.658 138.662 111.269L138.792 110.88C138.921 110.116 139.051 109.597 139.181 108.963V108.834C139.815 103.717 138.157 97.837 136.63 92.7206L136.5 92.0864C135.866 89.9101 135.347 87.9933 134.972 86.2061C134.713 85.1829 134.713 84.2893 134.583 83.3957C134.583 83.1363 134.583 82.7616 134.583 82.5021V82.3724V82.2427V82.113C134.843 79.9367 135.217 78.0199 135.736 76.2327C135.736 76.103 135.736 76.103 135.736 76.103C136.125 74.5753 136.63 73.552 137.019 72.7738C137.278 72.3846 137.408 72.0099 137.523 71.8802C137.783 71.4911 138.157 71.3758 138.417 71.6208C138.676 71.7505 138.806 72.0099 138.806 72.2549C138.806 72.3846 138.806 72.5143 138.676 72.644L138.547 72.7738C137.912 73.9268 137.264 75.5842 136.759 77.2416V77.3713C136.37 78.654 136.125 79.807 135.996 80.9456V81.45C135.996 81.5798 135.996 81.7095 135.996 81.8392V82.2283C135.736 84.664 136.759 88.2383 137.912 92.072C139.065 96.2948 140.463 101.022 140.593 105.375C140.593 105.504 140.593 105.764 140.593 106.009C140.593 106.513 140.593 107.032 140.593 107.421V108.055C140.593 108.185 140.593 108.315 140.593 108.56C140.593 108.69 140.593 108.819 140.593 108.949C140.593 108.949 140.593 109.079 140.593 109.208C140.463 109.713 140.463 110.232 140.334 110.736C140.334 110.866 140.334 110.995 140.204 110.995C140.204 111.125 140.204 111.255 140.074 111.255H139.685L140.074 111.385V111.514C139.945 111.903 139.815 112.148 139.685 112.538C139.426 113.301 138.792 115.089 138.157 117.654C138.028 118.043 138.028 118.418 137.898 118.807C137.509 120.724 137.134 122.641 137.004 124.428V124.687C137.004 124.817 137.004 124.817 137.004 124.947V125.076L136.875 126.359C136.875 127.887 137.004 129.299 137.134 130.582V130.712H136.5C136.63 131.605 136.889 132.499 137.134 133.263L136.356 133.767Z"
    fill="#005686" />
  <path d="M153.608 139.645H153.219V140.408H153.608V139.645Z" fill="#005686" />
  <path
    d="M157.96 110.25C157.196 109.357 156.548 108.204 156.173 106.921V106.791C156.043 106.661 156.043 106.402 155.914 106.287C155.654 105.393 155.524 104.629 155.409 103.851C155.279 101.675 155.409 99.2534 155.798 96.9475C155.928 96.3133 156.303 96.1836 156.562 96.1836C156.822 96.1836 156.951 96.3133 157.067 96.443C157.196 96.5727 157.196 96.8322 157.196 96.9475C156.807 99.1237 156.692 101.415 156.807 103.721C156.937 104.615 157.196 106.157 158.09 107.685L157.585 107.944C157.975 108.578 158.22 109.097 158.738 109.602L157.96 110.25Z"
    fill="#005686" />
  <path
    d="M163.97 126.991C163.581 126.991 163.336 126.732 163.206 126.357C162.817 119.453 156.432 108.197 156.303 108.197C156.043 107.808 156.173 107.433 156.562 107.174C156.951 106.915 157.326 107.044 157.585 107.433C157.845 107.938 164.23 119.064 164.619 126.227C164.734 126.602 164.475 126.991 163.97 126.991Z"
    fill="#005686" />
  <path
    d="M149.904 118.938L142.366 118.174L142.625 117.41C142.885 116.646 142.885 113.706 142.755 108.719C142.755 108.46 142.755 108.33 142.755 108.215C142.755 107.581 142.755 107.062 142.755 106.557C142.755 106.298 142.755 106.168 142.755 105.923C142.366 96.0796 141.602 83.5552 141.602 83.4255L142.885 83.2958C142.885 83.4255 143.649 95.9499 144.038 105.794C144.038 106.053 144.038 106.183 144.038 106.428C144.038 106.932 144.038 107.581 144.038 108.085C144.038 108.215 144.038 108.474 144.038 108.719C144.167 113.072 144.167 115.623 144.038 117.035L148.635 117.54C148.635 116.127 148.765 112.942 148.895 108.979L149.024 105.909C149.529 86.7259 148.765 84.1749 148.52 83.7858L149.284 82.6328C149.918 83.0219 151.071 83.5264 150.437 105.894V108.445C150.437 108.575 150.437 108.705 150.437 108.835V109.094C150.307 114.47 150.048 118.433 150.048 118.433L149.904 118.938Z"
    fill="#005686" />
  <path
    d="M156.807 97.5789H156.043C155.654 97.1898 155.654 97.0745 156.173 95.9215C156.807 94.509 157.96 91.6986 158.724 89.2773L160.007 89.6665C159.243 92.2175 157.96 95.1576 157.326 96.57C157.196 96.9592 157.067 97.3339 156.937 97.3339L156.303 97.0745L156.807 97.5789Z"
    fill="#005686" />
  <path d="M72.8116 32.6315V199.34H63.2273V32.6315V6.80443V1.18359H72.8116" stroke="#005686"
    stroke-width="1.44124" stroke-miterlimit="10" />
  <path d="M63.2273 32.6315H109.246V1.18359H63.2273V6.80443V32.6315Z" stroke="#005686"
    stroke-width="1.44124" stroke-miterlimit="10" />
  <path d="M55.2428 199.469H212.54" stroke="#005686" stroke-width="1.44124" stroke-miterlimit="10" />
</svg>
  