<svg xmlns="http://www.w3.org/2000/svg" width="85" height="85" fill="none"><path fill="#005685" d="M33.449 26.526c.207-.5.25-.834.25-1.545.06-1.32.122-1.668.198-1.763.028-.032.056-.032.094-.032h.004c.123 0 .208.023.123 1.795 0 .754-.043 1.13-.292 1.715-.127.334-.085.42-.085.42s.042.042.207.084c.08 0 .165.08.165.207.038 1.277.325 1.904 1.734 1.965h.057c.08 0 .122.043.165.085.042.038.042.122.042.165 0 .113-.07.198-.184.207h-.023c-1.71-.042-2.13-.834-2.21-2.257a.64.64 0 0 1-.335-.25c-.075-.212-.075-.419.09-.796Z"/><path fill="#005685" d="M35.706 29.454a.306.306 0 0 1 .141-.08c.01 0 .014-.005.024-.005.042 0 .212-.043.42.165.112.113.197.273.263.48.042.146.075.311.094.5a9.835 9.835 0 0 1-.443.57c-.028-.17-.056-.325-.08-.462-.08-.452-.141-.702-.17-.759a.04.04 0 0 0-.023-.037c-.01-.005-.019-.005-.019-.005-.122 0-.25-.08-.25-.207 0-.076 0-.118.043-.16Zm.707 1.003c-.02-.056-.029-.113-.038-.165a.555.555 0 0 0-.047-.17c0 .052.014.119.037.184.015.052.029.1.048.151ZM38.043 27.58c0-.043.042-.085.085-.127.037-.043.122-.043.164-.043.043 0 .085.043.128.085.042.038.042.122.042.165 0 .08-.334 1.922.377 4.052.038.127 0 .25-.127.292h-.085c-.085 0-.17-.038-.207-.118-.754-2.299-.377-4.306-.377-4.306ZM32.785 36.811c.009-.033.023-.066.033-.104.066-.193.15-.4.245-.617.117-.268.25-.556.395-.839.184-.367.382-.74.575-1.093.038-.066.07-.127.104-.188.099-.18.198-.353.297-.518-.08.264-.09.537-.005.824-.075.137-.15.278-.226.42-.349.65-.683 1.333-.9 1.908a3.782 3.782 0 0 0-.104.301c-.34 1.023-.268 1.767-.099 2.432l.057.202c0 .038 0 .123-.043.165-.042.042-.084.085-.127.085h-.042a.299.299 0 0 1-.165-.052c-.014-.01-.028-.023-.038-.033a6.11 6.11 0 0 1-.16-.806 5.969 5.969 0 0 1-.038-.518 4.99 4.99 0 0 1 .24-1.569Zm2.605-4.806a13.03 13.03 0 0 0-.344.4c.1-.164.16-.263.16-.273.029-.09.1-.136.184-.127Z"/><path fill="#005685" d="M21.74 37.222c.005-.038.047-.08.085-.118.127-.042.25-.042.292.042.25.25 5.433 2.714 7.105 2.8.537 0 2.304-.797 3.322-1.58.024-.018.047-.032.066-.051.085-.085.207-.042.292.042.043.038.043.123.043.165 0 .08-.043.123-.085.165-.09.066-.184.132-.278.198-1.112.745-2.785 1.517-3.402 1.517v-.037c-1.437-.071-5.682-1.932-7.006-2.696-.217-.127-.358-.221-.392-.273-.042-.038-.042-.122-.042-.165v-.01Z"/><path fill="#005685" d="M29.222 38.316h.043c.042 0 .085 0 .085-.043 1.422-.919 4.094-2.676 4.933-3.972.085-.085.042-.25-.043-.292-.084-.085-.25-.042-.292.042-.796 1.211-3.387 2.884-4.763 3.803-.293 0-1.923-.165-6.94-2.05h-.166l-.127.127c-.042.128 0 .25.127.293 5.348 2.007 6.894 2.092 7.143 2.092Z"/><path fill="#005685" d="M33.275 20.72c1.168-.628 2.341-.877 3.552-.67h.085c.042 0 3.053.542 3.638 3.26.084.42.164.882.25 1.381.419 2.215.876 4.679 2.214 7.063 1.088 1.88 1.215 3.845.42 4.848-.255.335-.797.754-1.716.754a5.823 5.823 0 0 1-1.164-.122c-.066-.014-.136-.029-.207-.047l-.165-.043.042-.207c0-.042.25-1.338-.461-2.799 0-.042-.585-.961-1.38-1.003-.373-.043-.793.165-1.17.626-.17.207-.296.377-.461.584-.584.754-1.089 1.381-1.673 1.296-.32-.042-.598-.344-.876-.952-.014-.028-.029-.06-.043-.094a1.538 1.538 0 0 1-.028-.08 1.798 1.798 0 0 1-.094-.363c-.01-.056-.014-.113-.019-.165-.075-.96.636-1.734 1.4-2.572.24-.255.485-.518.71-.792.086-.104.166-.207.241-.316.005-.004.005-.009.01-.014.066-.09.122-.183.179-.278.15-.259.264-.527.32-.81.462-2.257.335-3.468-.334-4.222-.293-.334-.627-.504-.92-.669-.207-.127-.428-.24-.664-.424a3.621 3.621 0 0 1-.758-.83.598.598 0 0 1-.203.128.598.598 0 0 1-.099.033c-.193.057-.424.052-.575-.075-.127-.08-.212-.25-.127-.542-.127-.043-.25-.043-.377-.127-.254-.17-.42-.42-.42-.67-.046-.254.119-.669.873-1.088Zm-.34 1.46a.71.71 0 0 0 .25.042c.165-.085.372-.207.5-.042.042.085.084.207-.043.334-.165.25-.165.377-.165.377.043.043.25 0 .335-.085.042-.08.254-.25.461-.165.123.043.165.123.208.25.457.67.876.881 1.253 1.089.335.17.67.334 1.046.753.796.877.919 2.173.42 4.557-.08.443-.283.843-.552 1.225a9.77 9.77 0 0 1-.443.57c-.179.212-.367.42-.551.627l-.264.292c-.118.132-.236.268-.344.4-.278.34-.509.683-.612 1.041a1.404 1.404 0 0 0 .052.985c.207.504.419.754.626.797.335.042.834-.585 1.296-1.169.127-.207.297-.377.462-.584.457-.59 1.003-.839 1.545-.796.636.051 1.13.485 1.432.829.198.221.311.405.325.424a5.473 5.473 0 0 1 .542 2.883c.095.024.184.047.274.066.951.198 1.687.01 2.11-.527.67-.92.5-2.672-.461-4.387-1.338-2.427-1.838-4.976-2.257-7.19-.085-.462-.165-.919-.25-1.338-.504-2.384-3.096-2.884-3.26-2.926-.038 0-.038 0-.212.037-.42-.084-1.673-.292-3.261.627-.42.25-.669.504-.669.712 0 .127.08.207.207.292ZM19.818 37.519c.042 0 .084 0 .084-.042l2.092-1.089a.231.231 0 0 0 .128-.207v-.627c0-.127-.085-.207-.208-.207-.127 0-.207.085-.207.207v.462l-1.757.919-1.923-3.68v-.415c0-.127-.085-.207-.207-.207-.127 0-.207.085-.207.207v.584c0 .043 0 .085.042.085l2.05 3.887c.033.043.07.08.113.123Z"/><path fill="#005685" d="m17.688 32.587 2.092-1.089h.165l.127.127.702 1.329.778 1.475.461.876.052.094.052.1.005.009v.165l-.024.023c-.033.033-.066.07-.103.104l-.288.15-1.786.929-.018.01c0 .032-.029.042-.062.042h-.023c-.071 0-.113-.033-.184-.137-.005-.01-.014-.019-.024-.033l-.895-1.7-.627-1.188-.475-.9-.052-.1v-.164a3.07 3.07 0 0 0 .127-.123Zm3.93 2.93-1.06-2.026-.067-.122-.711-1.357-1.715.876 1.837 3.51 1.716-.88ZM19.987 37.026c0-.042.085-.085.128-.085.037 0 .122 0 .165.043.08.042.202.08.353.113.137.028.292.052.457.07.212.024.443.043.65.052.137.005.264.01.377.01h.043c.122 0 .207.08.207.207 0 .08-.043.123-.085.165a.267.267 0 0 1-.108.066c-.033.01-.066.019-.1.019-.353 0-1.488-.038-1.964-.32-.028-.02-.057-.033-.08-.052-.043 0-.085-.085-.085-.128 0-.033 0-.117.042-.16Z"/><path fill="#005685" d="M22.452 36.394h.084c.043 0 .085-.043.128-.127.042-.043.042-.128 0-.165-.043-.165-.25-.754-.25-1.004 0-.207-.165-.462-.462-.876a7.086 7.086 0 0 1-.542-.877c-.165-.377-.377-.461-.5-.419-.164 0-.334.127-.419.334v.165l.128.128c.127.042.25 0 .292-.128v-.042c0 .042.042.085.085.127.127.292.377.67.584.961.165.208.377.585.42.67 0 .292.207.96.249 1.088.038.08.118.165.203.165ZM19.653 37.228c.085 0 .207-.085.207-.165 0-.042 0-.127-.042-.165-.043-.042-.085-.085-.127-.085-.462-.085-1.254-1.003-1.339-1.588-.042-.165-.084-.334-.165-.461.085.084.128.207.208.292.042.042.085.085.127.085.043 0 .127 0 .165-.043.085-.085.127-.207.085-.292-.796-1.21-1.046-1.253-1.131-1.253a.312.312 0 0 0-.207.085c-.165.207-.043.461.165.834.127.25.292.541.334.834.132.753 1.05 1.8 1.72 1.922ZM39.046 37.776c.085 0 .128-.043.165-.085.043-.043.043-.043.043-.085.042-.042.042-.127 0-.165l-.127-.127c-1.88-.712-3.346-.127-3.388-.127-.127.042-.165.165-.127.292 0 .042.084.127.127.127.042.042.127.042.165 0 0 0 1.38-.5 3.053.127.047.043.047.043.09.043ZM35.701 49.645c.042 0 .085 0 .127-.043 0 0 1.211-.796 3.011-.542.085 0 .165-.042.25-.127 0-.042.042-.042.042-.085 0-.084 0-.127-.042-.165-.043-.042-.085-.084-.165-.084-1.965-.293-3.26.584-3.346.626-.127.085-.127.207-.084.335.042.042.084.085.127.085h.08ZM33.067 36.851h.085c.042 0 .085-.042.127-.127.043-.043.043-.127 0-.165-.165-.542-.542-.877-.584-.919-.042-.042-.085-.085-.165-.042a.294.294 0 0 0-.165.084.2.2 0 0 0 0 .293s.335.334.462.753c.033.085.155.123.24.123ZM31.187 73.217c.25 0 .5-.042.754-.165a.091.091 0 0 0 .085-.085c.669-1.088 1.295-2.172 1.795-3.218.207-.42.377-.796.542-1.21.711-1.716 1.168-3.261 1.296-4.642.084-.754.084-1.46-.043-2.092 0-.127-.042-.207-.085-.334l.085-.542c.043-.165.085-.377.127-.627.043-.165.043-.334.085-.5l.043-.249v-.127a45.096 45.096 0 0 1-.67-3.134c-.25-1.253-.499-2.676-.71-4.348 0-.128-.128-.208-.25-.208-.128 0-.208.128-.208.25.25 1.673.5 3.09.754 4.349.207 1.13.42 2.172.669 3.133l-.042.208c-.043.164-.043.334-.085.499-.043.25-.085.462-.127.627l-.128.584v.085c.043.127.043.25.085.377.127.584.127 1.253.043 1.965-.128 1.338-.542 2.84-1.254 4.513-.165.377-.334.754-.542 1.169a31.11 31.11 0 0 1-1.715 3.09c-.207.086-.377.128-.584.086a.803.803 0 0 1-.42-.128c.208-1.003.42-2.007.585-2.926l.085-.377c.042-.25.085-.541.127-.796.334-1.922.5-3.51.584-4.721.043-.712.043-1.253 0-1.673 0-.165-.042-.334-.042-.461a37.633 37.633 0 0 1-.335-2.13v-.127a36.622 36.622 0 0 1-.25-3.091 35.57 35.57 0 0 1 .085-3.68c.043-.42.085-.797.128-1.169 0-.127-.085-.25-.208-.25-.127 0-.25.085-.25.208-.042.377-.084.754-.127 1.168-.084 1.254-.127 2.465-.084 3.718.042 1.046.127 2.13.25 3.133v.127c.084.712.207 1.423.334 2.13.042.127.042.25.042.42.043.419.043.96 0 1.63-.042 1.21-.25 2.756-.584 4.64-.043.25-.085.543-.127.797l-.085.377c-.165 1.004-.42 2.05-.627 3.091-.042.085.043.207.127.25.208.127.462.25.754.25.033.136.076.136.118.136Z"/><path fill="#005685" d="M39.715 73.302c.585 0 1.046-.334 1.338-.584.043-.042.043-.085.043-.127.207-.961.377-1.965.462-2.969.042-.461.042-.834.084-1.21.043-1.923-.207-3.638-.796-5.141a12.347 12.347 0 0 0-.711-1.503v-.043c0-.084 0-.207.042-.376.042-.25.085-.627.127-1.089 0-.165.043-.42.043-.669v-.207c.042-.834.085-1.923.165-3.133.042-1.046.127-2.008.165-2.842.042-.711.084-1.38.127-2.007 0-.127-.085-.25-.208-.25-.127 0-.25.085-.25.208-.042.626-.084 1.253-.127 1.965-.084.833-.127 1.795-.164 2.84-.043 1.17-.085 2.3-.165 3.092v.207c0 .25-.043.462-.043.669-.042.462-.084.834-.127 1.088 0 .128-.042.25-.042.335v.042c0 .127 0 .208.085.335.25.42.499.919.669 1.46.541 1.423.796 3.091.753 4.976 0 .42-.042.796-.042 1.169-.085.918-.207 1.88-.42 2.798-.207.208-.541.42-.96.42-.25-1.211-.462-2.257-.67-3.26l-.25-1.17a43.759 43.759 0 0 0-1.045-4.014c-.165-.542-.335-.96-.5-1.21-.25-.378-.462-.877-.669-1.461a14.094 14.094 0 0 1-.5-1.673c-.042-.165-.084-.377-.127-.542 0-.042 0-.127-.042-.165-.207-.919-.462-1.922-.669-3.01-.25-1.254-.5-2.677-.711-4.35 0-.127-.128-.207-.25-.207-.127 0-.207.127-.207.25.25 1.673.499 3.09.753 4.349.208 1.13.42 2.172.67 3.133V59.511c.042.207.084.42.164.627.208.711.377 1.253.542 1.715.208.626.462 1.168.712 1.588.127.207.292.584.462 1.13.292.92.626 2.257 1.045 3.972l.25 1.169c.208 1.046.462 2.172.712 3.425 0 .085.084.165.207.208-.094-.043-.01-.043.075-.043Z"/><path fill="#005685" d="M36.96 75.225c-.043-.043-.086-.123-.043-.208.207-.546.876-.711 1.338-.796.127-.043.334-.085.377-.127.17-.085.462-.542.711-.92a.218.218 0 0 1 .08-.08.33.33 0 0 1 .17-.046c.415.037.791-.085 1.168-.462.043-.085.165-.085.25-.043a.21.21 0 0 1 .085.085.357.357 0 0 1 .042.165c-.084.335.043.504.208.754.085.127.165.255.25.42.164.376.207.838.164 1.13-.042.123-.122.208-.25.208h-4.428c-.085 0-.17-.043-.123-.08Zm4.343-.42c-.042-.17-.042-.462-.127-.664-.08-.17-.122-.25-.207-.377a1.516 1.516 0 0 1-.292-.584c-.335.207-.67.334-1.046.292-.17.292-.505.796-.754.96-.123.081-.292.123-.542.166-.207.08-.462.122-.67.207h3.638ZM27.258 75.02c.207-.546.876-.71 1.338-.796.127 0 .334-.042.377-.084.17-.165.838-.877 1.088-1.169l.127-.127a.248.248 0 0 1 .292-.042c.123.08.377.207.542.207.208 0 .42-.043.627-.127.085-.043.165-.043.25.042.047.023.066.07.07.122a.241.241 0 0 1-.028.128c-.17.334-.207.461-.042.796.292.415.25.961.207 1.168-.042.123-.123.208-.25.208h-4.429c-.085 0-.17-.043-.127-.118-.042-.042-.085-.122-.042-.207Zm4.39-.131c0-.212-.041-.462-.173-.58-.208-.334-.208-.589-.165-.796h-.377a.971.971 0 0 1-.306-.052 1.634 1.634 0 0 1-.278-.113c-.458.542-.962 1.046-1.169 1.21-.122.081-.292.128-.542.166a2.84 2.84 0 0 0-.669.165h3.68ZM38.043 45.046h.122c.542 0 .919-.042 1.046-.042h.043c.127 0 .207-.127.207-.25 0-.127-.127-.207-.25-.207h-.042c-.127 0-.5.042-1.004.042h-.127V44.924l.005.122ZM36.2 45.046v-.462h-.127a21.99 21.99 0 0 1-1.837-.207c-.043 0-.128 0-.165.042-.043.043-.085.085-.085.128-.042.127.042.25.165.25.542.127 1.168.207 1.922.249h.127ZM38 45.798h.128c.25 0 .461-.042.626-.042.085 0 .128 0 .208-.042H39.254a.231.231 0 0 0 .127-.208l-.042-.127a.231.231 0 0 0-.208-.127h-.169c-.165 0-.462.042-.877.085h-.127V45.798H38ZM36.243 45.878V45.454h-.127c-.797 0-1.546-.085-2.257-.165h-.043c-.085 0-.127 0-.165.042-.042.043-.085.085-.085.128-.042.127.043.207.165.25l.165.042h.085c.127 0 .25.042.377.042.542.085 1.089.085 1.795.127l.09-.042Z"/><path fill="#005685" d="M40.422 53.865c.627-1.673.292-3.802-.127-5.348v-.085c-.207-.834-.42-1.423-.5-1.545v-.043l-.042-.042c-.042-.085-.085-.165-.085-.292l-.042-.127c-.042-.25-.085-.42-.127-.627v-.042c-.208-1.673.334-3.595.834-5.268l.042-.207a26.25 26.25 0 0 0 .5-1.923c.084-.334.084-.627.127-.919V36.978a11.865 11.865 0 0 0-.377-1.922v-.043a5.057 5.057 0 0 0-.42-1.088c-.084-.127-.127-.25-.164-.292-.085-.128-.208-.165-.293-.085a.231.231 0 0 0-.127.207c0 .043 0 .085.043.127l.042.043c.207.377.42.919.584 1.46v.043c.127.42.208.796.25 1.168V37.016c.085.796-.25 1.965-.627 3.218-.377 1.38-.834 2.926-.876 4.349v1.253c.042.165.042.335.085.5 0 .042 0 .084.042.084 0 .043 0 .085.043.085h.127l-.127.043v.042c.042.127.084.207.127.335.085.25.292.834.5 1.672.042.127.042.25.084.377.127.627.25 1.254.292 1.838V51.024l.043.42c0 .499-.043.96-.085 1.38v.042h.207a5.266 5.266 0 0 1-.207.834l.254.165ZM34.782 55.787h.127v.25h-.127v-.25ZM33.36 46.177c.249-.292.461-.67.584-1.089v-.042c.042-.042.042-.127.084-.165.085-.292.128-.542.165-.796.043-.712 0-1.503-.127-2.257-.042-.208-.165-.25-.25-.25-.085 0-.127.042-.165.085-.042.042-.042.127-.042.165.127.711.165 1.46.127 2.214-.042.292-.127.797-.42 1.296l.166.085c-.127.207-.208.377-.377.542l.254.212Z"/><path fill="#005685" d="M31.395 51.652c.127 0 .207-.085.25-.208.126-2.257 2.214-5.936 2.256-5.936.085-.128.042-.25-.085-.335-.127-.085-.25-.042-.334.085-.085.165-2.172 3.802-2.3 6.144-.037.123.048.25.213.25 0 0-.038 0 0 0ZM35.993 49.015l2.464-.25-.084-.25c-.085-.249-.085-1.21-.043-2.84v-.914c.127-3.219.377-7.313.377-7.355l-.42-.043c0 .043-.249 4.137-.376 7.355v.957c-.043 1.423-.043 2.257 0 2.718l-1.503.165c0-.461-.043-1.503-.085-2.798l-.042-1.004c-.165-6.271.084-7.105.165-7.233l-.25-.377c-.208.128-.584.293-.377 7.605v1.046c.042 1.758.127 3.053.127 3.053l.047.165ZM33.736 42.034h.25c.127-.127.127-.165-.042-.542a22.707 22.707 0 0 1-.834-2.172l-.42.127c.25.834.67 1.796.877 2.258.042.127.084.25.127.25l.207-.086-.165.165Z"/><path stroke="#005685" stroke-miterlimit="10" stroke-width=".471" d="M61.196 20.802v54.501h3.134V10.521h-3.134"/><path stroke="#005685" stroke-miterlimit="10" stroke-width=".471" d="M64.33 20.802H49.285v-10.28H64.33v10.28ZM66.94 75.346H15.516"/></svg>