<svg xmlns="http://www.w3.org/2000/svg" width="165" height="165" fill="none"><g clip-path="url(#a)"><path fill="#005685" d="M68.63 83.48c-.258-.618-.31-1.03-.31-1.907-.103-1.65-.154-2.063-.257-2.166-.052-.051-.052-.051-.104-.051-.154 0-.257 0-.154 2.217 0 .928.051 1.392.36 2.114.155.412.104.515.104.515s-.052.052-.258.103c-.103 0-.206.104-.206.258-.052 1.599-.413 2.372-2.166 2.424h-.051c-.104 0-.155.051-.207.103-.051.051-.051.154-.051.206 0 .155.103.258.258.258h.051c2.063-.052 2.578-1.031 2.681-2.785a.802.802 0 0 0 .413-.309c.103-.258.103-.515-.103-.98Z"/><path fill="#005685" d="M65.845 87.09a.391.391 0 0 0-.206-.104h-.051c-.104 0-.258 0-.465.207-.154.154-.257.36-.309.618a2.215 2.215 0 0 0-.103.62c.155.257.36.463.516.721.051-.206.051-.412.103-.567.103-.567.154-.877.206-.928 0-.052.052-.052.052-.052h.051c.155 0 .258-.103.258-.258 0-.154 0-.206-.052-.257Zm-.876 1.237c0-.052.051-.155.051-.206 0-.052.052-.155.052-.206 0 .051 0 .154-.052.206 0 .051-.051.154-.051.206ZM62.958 84.769c0-.052-.052-.103-.103-.155-.052-.052-.155-.052-.206-.052-.052 0-.104.052-.155.104-.052.051-.052.154-.052.206 0 .103.413 2.372-.464 5.001-.051.155 0 .31.155.361h.103a.284.284 0 0 0 .258-.154c.928-2.836.464-5.311.464-5.311ZM69.455 96.164c0-.052 0-.103-.052-.103a2.429 2.429 0 0 0-.31-.774c-.154-.309-.309-.67-.463-1.03a11.083 11.083 0 0 0-.722-1.341.39.39 0 0 1-.103-.207c-.103-.257-.258-.464-.413-.67.103.31.103.67 0 1.031.103.155.206.361.31.516.412.773.825 1.65 1.134 2.372.052.103.052.154.103.258 0 .051 0 .051.052.103.412 1.237.309 2.165.103 2.99 0 .103-.052.155-.052.258 0 .052 0 .155.052.206.051.052.103.104.154.104h.052c.052 0 .155 0 .206-.052l.052-.052c.103-.309.154-.618.206-.98.052-.206.052-.412.052-.618a9.737 9.737 0 0 0-.361-2.01Zm-3.249-5.93c.155.155.31.361.464.516-.154-.258-.206-.36-.206-.36-.052-.104-.103-.156-.258-.156Z"/><path fill="#005685" d="M83.067 96.679c0-.052-.051-.103-.103-.155-.155-.052-.31-.052-.36.052-.31.309-6.704 3.351-8.766 3.454-.67 0-2.836-.98-4.074-1.959-.051 0-.051-.052-.103-.052-.103-.103-.258-.051-.361.052-.051.052-.051.155-.051.206 0 .103.051.155.103.207.103.103.206.154.36.257 1.393.928 3.455 1.857 4.177 1.857v-.052c1.753-.103 7.013-2.372 8.663-3.352.257-.154.464-.257.464-.36.051 0 .051-.104.051-.155Z"/><path fill="#005685" d="M73.838 98.02h-.052c-.052 0-.103 0-.103-.052-1.753-1.134-5.053-3.3-6.085-4.898-.103-.104-.051-.31.052-.361.103-.104.31-.052.36.051.98 1.495 4.177 3.558 5.88 4.692.36 0 2.37-.206 8.558-2.526h.207l.154.154c.052.155 0 .31-.154.361-6.6 2.475-8.508 2.578-8.817 2.578Z"/><path fill="#005685" d="M68.836 76.313c-1.444-.774-2.888-1.083-4.383-.825h-.103c-.051 0-3.764.67-4.486 4.022a53.662 53.662 0 0 0-.31 1.701c-.515 2.733-1.082 5.775-2.732 8.714-1.34 2.32-1.495 4.744-.516 5.981.31.413.98.928 2.114.928.258 0 .567 0 .877-.051.155 0 .36-.052.567-.103.103 0 .155-.052.258-.052l.206-.051-.051-.258c0-.052-.31-1.65.567-3.455 0-.051.722-1.186 1.701-1.237.464-.052.98.206 1.444.773.206.258.361.464.567.722.722.928 1.34 1.701 2.063 1.598.412-.051.722-.412 1.083-1.186 0-.051.051-.051.051-.103 0-.051 0-.051.052-.103.051-.154.103-.31.103-.464v-.206c.103-1.186-.774-2.166-1.702-3.197-.31-.31-.618-.619-.876-.98a2.858 2.858 0 0 1-.31-.412 1.077 1.077 0 0 1-.206-.31c-.206-.309-.31-.67-.412-1.03-.568-2.785-.413-4.28.412-5.209.361-.412.774-.618 1.134-.825.258-.154.516-.309.825-.515.31-.207.62-.516.929-1.032.051.052.154.104.257.155.052 0 .052.052.103.052.258.051.516.051.722-.103.155-.103.258-.31.155-.67.155-.052.31-.052.464-.155.31-.207.516-.516.516-.825.051-.258-.155-.774-1.083-1.29Zm.413 1.804c-.155.052-.258.052-.31.052-.206-.103-.464-.258-.619-.052-.051.103-.103.258.052.413.206.31.206.464.206.464-.051.051-.31 0-.412-.103-.052-.103-.31-.31-.567-.207-.155.052-.207.155-.258.31-.567.825-1.083 1.083-1.547 1.34-.413.207-.825.413-1.29.929-.979 1.082-1.134 2.68-.515 5.62.103.567.361 1.031.722 1.547.155.258.36.464.516.722.206.257.464.515.67.773.103.103.206.258.31.361.154.155.309.361.463.516.31.412.567.773.722 1.186.103.309.103.67 0 1.03 0 .052-.051.156-.051.207-.258.619-.516.928-.774.98-.412.051-1.031-.722-1.598-1.444-.155-.258-.361-.464-.567-.722-.568-.722-1.238-1.031-1.908-.98-.774.052-1.392.62-1.753 1.032-.258.258-.361.515-.413.515a6.77 6.77 0 0 0-.67 3.558c-.103.052-.258.052-.361.103-1.186.258-2.063 0-2.578-.67-.825-1.134-.619-3.3.567-5.414 1.65-2.99 2.269-6.136 2.784-8.869.103-.567.207-1.134.31-1.65.618-2.939 3.815-3.558 4.022-3.61.051 0 .051 0 .257.052.516-.103 2.063-.36 4.022.774.516.31.825.619.825.876 0 .155-.103.258-.257.361ZM85.44 97.04c-.052 0-.104 0-.104-.05l-2.578-1.342a.283.283 0 0 1-.155-.257v-.774c0-.154.103-.258.258-.258.155 0 .258.104.258.258v.567l2.165 1.135 2.372-4.538v-.515c0-.155.103-.258.258-.258.155 0 .258.103.258.258v.721c0 .052 0 .104-.052.104l-2.526 4.795-.155.155Z"/><path fill="#005685" d="m88.069 90.956-2.578-1.34h-.207l-.154.154-.877 1.65-.98 1.805-.567 1.082-.051.103-.052.052v.258l.052.052.103.103.36.206 2.218 1.134c0 .052.052.052.052.052h.051c.103 0 .155-.052.258-.155v-.051l1.083-2.115.773-1.443.619-1.135.052-.103v-.206l-.155-.103Zm-4.847 3.61 1.289-2.476.103-.154.877-1.65 2.114 1.082-2.269 4.332-2.114-1.135ZM85.233 96.421c0-.051-.103-.103-.155-.103-.051 0-.155 0-.206.052a2.396 2.396 0 0 1-.464.155c-.155.051-.361.051-.567.103-.258.051-.568.051-.825.051H82.5c-.155 0-.258.103-.258.258 0 .103.052.155.103.206.052.052.103.052.155.103h.103c.413 0 1.805-.051 2.424-.412.051 0 .103-.052.103-.052.051 0 .103-.103.103-.154a.157.157 0 0 0 0-.207Z"/><path fill="#005685" d="M82.19 95.65h-.102c-.052 0-.104-.052-.155-.156a.157.157 0 0 1 0-.206c.051-.206.31-.928.31-1.237 0-.258.206-.567.566-1.083.258-.361.516-.773.67-1.083.207-.464.465-.567.62-.516.206 0 .412.155.515.413v.206l-.155.155c-.154.052-.309 0-.36-.155v-.051c0 .051-.052.103-.104.154-.154.361-.464.825-.722 1.186a6.252 6.252 0 0 0-.515.825c0 .361-.258 1.186-.31 1.34-.051.104-.154.207-.257.207ZM85.645 96.68c-.103 0-.257-.103-.257-.206 0-.052 0-.155.051-.206.052-.052.103-.103.155-.103.567-.104 1.547-1.238 1.65-1.96.051-.206.103-.412.206-.567-.103.103-.155.258-.258.36-.051.052-.103.104-.154.104-.052 0-.155 0-.207-.052-.103-.103-.154-.257-.103-.36.98-1.496 1.29-1.547 1.392-1.547.103 0 .207.051.258.103.206.258.052.567-.206 1.031-.155.31-.361.67-.413 1.031-.154.928-1.289 2.217-2.114 2.372ZM61.72 97.349c-.103 0-.154-.052-.206-.103-.052-.052-.052-.052-.052-.103a.157.157 0 0 1 0-.207l.155-.154c2.32-.877 4.125-.155 4.177-.155.154.052.206.206.154.361 0 .052-.103.155-.154.155a.157.157 0 0 1-.206 0s-1.702-.619-3.765.154c-.051.052-.051.052-.103.052ZM65.845 111.993c-.051 0-.103 0-.154-.051 0 0-1.496-.98-3.713-.67-.103 0-.206-.052-.31-.155 0-.052-.05-.052-.05-.103 0-.103 0-.155.05-.207.052-.051.104-.103.207-.103 2.423-.361 4.022.722 4.125.774.155.103.155.258.103.412-.051.052-.103.103-.155.103h-.103ZM69.094 96.215h-.103c-.052 0-.103-.052-.155-.155a.157.157 0 0 1 0-.206c.206-.67.67-1.083.722-1.135.051-.051.103-.103.206-.051a.39.39 0 0 1 .206.103.25.25 0 0 1 0 .36s-.412.413-.567.929c-.051.103-.206.155-.31.155ZM89.41 83.84a10.411 10.411 0 0 0-1.702-1.185c-1.238-.722-1.599-.98-.825-4.228.773-3.249-.155-4.95-1.083-5.827-1.134-1.083-2.836-1.392-4.486-.825-1.598.516-2.681 1.701-2.99 3.197-.568 3.042.567 9.126 5.98 10.21 1.754.36 2.837.979 3.25 1.855.412.877-.052 1.754-.104 1.805-.464.567-.36.98-.155 1.238.103.103.31.206.567.206.362 0 .722-.155 1.238-.413a4.145 4.145 0 0 0 1.65-3.093c0-.774-.206-1.908-1.34-2.94Zm-.67 5.62c-.568.413-.929.413-1.032.31-.052-.103 0-.31.206-.515v-.052c0-.052.67-1.134.155-2.32-.464-1.083-1.702-1.805-3.661-2.217-5.053-1.032-6.136-6.755-5.569-9.591.258-1.29 1.238-2.32 2.63-2.784.464-.155.98-.258 1.444-.258.98 0 1.856.36 2.578 1.031.825.773 1.65 2.269.928 5.31-.928 3.662-.31 4.023 1.031 4.796.464.258.98.619 1.599 1.135.98.825 1.185 1.804 1.134 2.475-.052 1.03-.619 2.062-1.444 2.68Z"/><path fill="#005685" d="m84.769 78.375-.516-.773c0-.052-.051-.052-.051-.104v-.103l-.104-1.804c-.051-.052-.051-.155-.051-.207-.103-.773-.825-1.392-1.753-1.392-.928 0-1.65.619-1.753 1.392-.052.052-.052.103-.052.207l-.103 1.804v.052c-.052 0-.052.051-.103.103l-.516.773c-.103.155-.103.31-.051.413.051.155.206.206.36.206h4.28c.155 0 .258-.103.464-.154.052-.155.052-.31-.051-.413Zm-4.383 0 .36-.567c0-.052.052-.103.052-.103.104-.103.104-.207.104-.361l.103-1.96c0-.515.515-.928 1.186-.928.618 0 1.134.413 1.186.928v.103l.051.052.103 1.856c0 .155 0 .258.103.361 0 .052.052.052.052.103l.36.516h-3.66Z"/><path fill="#005685" d="M83.48 78.788c-.052-.154-.207-.206-.361-.206h-1.702a.434.434 0 0 0-.36.206c-.052.052-.052.103-.052.155 0 .103.051.155.051.206.052.052.516.825 1.186.825.67 0 1.135-.773 1.238-.825.051-.051.051-.154.051-.206 0-.052-.051-.103-.051-.155Zm-1.29.619c-.206 0-.36-.155-.515-.31h1.031c-.154.155-.31.31-.515.31ZM71.414 141.075a2.02 2.02 0 0 1-.928-.207.11.11 0 0 1-.103-.103c-.825-1.34-1.599-2.681-2.217-3.97-.258-.516-.464-.98-.67-1.495-.877-2.114-1.444-4.022-1.6-5.724-.102-.928-.102-1.805.052-2.578 0-.155.052-.258.104-.412l-.104-.671a10.109 10.109 0 0 1-.154-.773c-.052-.206-.052-.413-.103-.619l-.052-.309v-.155c.31-1.186.567-2.475.825-3.867.31-1.547.619-3.3.877-5.363 0-.154.154-.258.309-.258s.258.155.258.31c-.31 2.062-.619 3.815-.928 5.362-.258 1.393-.516 2.682-.825 3.868l.051.257c.052.207.052.413.103.619.052.309.103.567.155.774l.155.721v.104c-.052.154-.052.309-.103.464-.155.721-.155 1.546-.052 2.423.155 1.65.67 3.506 1.547 5.569.206.464.413.928.67 1.444a39.533 39.533 0 0 0 2.114 3.815c.258.103.464.155.722.103a.995.995 0 0 0 .516-.154c-.258-1.238-.516-2.475-.722-3.61l-.103-.464c-.052-.309-.103-.67-.155-.98a56.896 56.896 0 0 1-.722-5.826c-.051-.877-.051-1.547 0-2.063 0-.206.052-.412.052-.567.154-.876.31-1.753.412-2.629v-.155c.155-1.238.258-2.527.31-3.816.051-1.547 0-2.99-.103-4.537-.052-.516-.103-.98-.155-1.444 0-.155.103-.309.258-.309.154 0 .31.103.31.257.05.464.102.929.154 1.444.103 1.547.154 3.042.103 4.589a46.935 46.935 0 0 1-.31 3.867v.155c-.103.877-.257 1.753-.412 2.63-.052.154-.052.309-.052.515-.051.516-.051 1.186 0 2.011.052 1.496.31 3.403.722 5.724.052.309.103.67.155.979l.103.465c.206 1.237.516 2.526.774 3.815.051.103-.052.258-.155.31-.258.154-.567.309-.928.309-.052.155-.103.155-.155.155Z"/><path fill="#005685" d="M60.895 141.178c-.722 0-1.289-.413-1.65-.722-.051-.052-.051-.103-.051-.155a28.473 28.473 0 0 1-.567-3.661c-.052-.567-.052-1.031-.104-1.495-.051-2.372.258-4.486.98-6.342.258-.671.567-1.289.877-1.857v-.051c0-.103 0-.258-.052-.464-.051-.31-.103-.774-.155-1.341 0-.206-.051-.515-.051-.825v-.258c-.052-1.031-.103-2.371-.206-3.867-.052-1.289-.155-2.475-.207-3.506-.051-.877-.103-1.702-.154-2.475 0-.155.103-.309.258-.309.154 0 .309.103.309.257.051.774.103 1.547.155 2.424.103 1.031.154 2.217.206 3.506.051 1.444.103 2.836.206 3.816v.258c0 .309.052.567.052.825.051.567.103 1.031.154 1.34 0 .155.052.31.052.413v.051c0 .155 0 .258-.103.413a8.304 8.304 0 0 0-.825 1.804c-.67 1.754-.98 3.816-.928 6.136 0 .516.051.98.051 1.444.103 1.134.258 2.32.516 3.455.258.258.67.515 1.186.515.31-1.495.567-2.784.825-4.021l.31-1.444a53.239 53.239 0 0 1 1.288-4.95c.206-.671.413-1.186.619-1.496.31-.464.567-1.082.825-1.804.206-.567.412-1.186.619-2.063.051-.206.103-.464.154-.67 0-.052 0-.155.052-.206.258-1.135.567-2.372.825-3.713.31-1.547.619-3.3.876-5.362 0-.155.155-.258.31-.258s.258.155.258.309c-.31 2.063-.62 3.816-.928 5.363-.258 1.392-.516 2.681-.825 3.867v.103c-.052.258-.104.516-.207.774a36.86 36.86 0 0 1-.67 2.114 10.07 10.07 0 0 1-.877 1.959c-.154.258-.36.722-.567 1.392-.36 1.135-.773 2.785-1.289 4.899l-.31 1.443c-.257 1.289-.566 2.682-.876 4.228 0 .104-.103.207-.258.258.104-.051 0-.051-.103-.051Z"/><path fill="#005685" d="M64.35 143.293c-.258-.67-1.083-.877-1.65-.98-.155-.051-.413-.103-.464-.155-.206-.103-.567-.67-.877-1.134 0-.051-.051-.051-.103-.103-.051-.052-.154-.052-.206-.052-.516.052-.98-.103-1.444-.567-.051-.103-.206-.103-.31-.051a.11.11 0 0 0-.102.103c-.052.051-.052.154-.052.206.103.413-.051.619-.258.928-.103.155-.206.31-.309.516-.206.464-.258 1.031-.206 1.392.051.155.154.258.31.258h5.465c.103 0 .206-.052.154-.103.052-.052.104-.155.052-.258Zm-5.414-.258c.051-.206.051-.567.155-.825.103-.206.154-.309.257-.464.155-.206.31-.464.361-.722.413.258.825.413 1.29.361.206.361.618.98.928 1.186.154.103.36.155.67.206.258.103.567.155.825.258h-4.486ZM76.26 143.293c-.257-.67-1.082-.877-1.65-.98-.154 0-.412-.051-.463-.103a43.067 43.067 0 0 1-1.34-1.444l-.155-.154c-.052 0-.052-.052-.104-.052-.103-.051-.206-.051-.257 0-.155.103-.464.258-.67.258-.258 0-.516-.052-.774-.155-.103-.051-.206-.051-.31.052-.051 0-.103.103-.103.155 0 .051 0 .103.052.154.206.413.258.567.051.98-.36.516-.309 1.186-.257 1.444.051.103.103.154.154.206.052.051.103.051.155.051h5.466c.051 0 .103 0 .154-.051 0 0 .052-.052 0-.103.052-.052.103-.155.052-.258Zm-2.37-.567c.154.103.36.154.67.206.309.052.567.103.824.206h-4.537c0-.258.051-.567.206-.722.258-.412.258-.721.206-.979h.464c.258 0 .516-.103.722-.207.568.671 1.186 1.29 1.444 1.496ZM62.958 106.322h-.155c-.67 0-1.134-.052-1.289-.052h-.052c-.154 0-.257-.154-.257-.309s.154-.258.31-.258h.05c.155 0 .62.052 1.238.052h.155V106.322ZM65.227 106.321v-.567h.154a25.452 25.452 0 0 0 2.269-.258c.052 0 .155 0 .206.052.052.051.103.103.103.154.052.155-.051.31-.206.31-.67.154-1.444.258-2.372.309h-.154ZM63.01 107.25h-.155c-.31 0-.567-.051-.774-.051-.103 0-.154 0-.258-.052h-.361a.282.282 0 0 1-.154-.258l.051-.154a.284.284 0 0 1 .258-.155h.206c.207 0 .568.052 1.083.103h.155V107.096l-.052.154ZM65.175 107.353v-.516h.155c.98 0 1.907-.103 2.784-.206h.052c.103 0 .154 0 .206.051.051.052.103.104.103.155.052.155-.052.258-.206.309l-.207.052h-.103c-.154 0-.309.052-.464.052-.67.103-1.34.103-2.217.154l-.103-.051Z"/><path fill="#005685" d="M60.019 117.201c-.774-2.063-.361-4.692.154-6.6v-.103c.258-1.031.516-1.753.62-1.908v-.052l.05-.051c.052-.103.104-.206.104-.361l.051-.155c.052-.309.104-.515.155-.773v-.052c.258-2.062-.412-4.434-1.031-6.497l-.052-.257a32.979 32.979 0 0 1-.618-2.372c-.104-.413-.104-.774-.155-1.135v-.515c.103-.877.258-1.65.464-2.372v-.052c.155-.618.36-1.031.516-1.34.103-.155.154-.31.206-.361.103-.155.258-.207.36-.104a.284.284 0 0 1 .155.258c0 .052 0 .103-.051.155l-.052.052c-.258.464-.515 1.134-.722 1.804v.052a8.07 8.07 0 0 0-.309 1.444v.515c-.103.98.31 2.424.774 3.971.464 1.701 1.03 3.609 1.082 5.362v1.547c-.051.206-.051.412-.103.619 0 .051 0 .103-.051.103 0 .051 0 .103-.052.103h-.155l.155.051v.052c-.052.155-.103.258-.155.413-.103.309-.36 1.031-.618 2.062-.052.155-.052.309-.103.464-.155.774-.31 1.547-.361 2.269v.258l-.052.515c0 .619.052 1.186.103 1.702v.051h-.258c.052.361.155.722.258 1.032l-.31.206ZM66.98 119.572h-.155v.31h.155v-.31ZM68.733 107.715a3.723 3.723 0 0 1-.722-1.341v-.051c-.052-.052-.052-.155-.103-.207a8.378 8.378 0 0 1-.206-.979 12.8 12.8 0 0 1 .154-2.785c.052-.257.207-.309.31-.309.103 0 .154.052.206.103.052.052.052.155.052.206-.155.877-.207 1.805-.155 2.733.051.361.154.98.515 1.599l-.206.103c.155.258.258.464.464.67l-.31.258Z"/><path fill="#005685" d="M71.156 114.47c-.154 0-.258-.103-.31-.258-.154-2.785-2.732-7.322-2.784-7.322-.103-.155-.051-.309.104-.413.154-.103.309-.051.412.104.103.206 2.681 4.692 2.836 7.579.052.155-.052.31-.258.31 0 0 .052 0 0 0ZM65.484 111.22l-3.042-.309.103-.31c.103-.309.103-1.495.052-3.506v-1.134c-.155-3.971-.464-9.024-.464-9.076l.515-.051c0 .051.31 5.105.464 9.075v1.186c.052 1.753.052 2.784 0 3.351l1.857.207c0-.567.051-1.857.103-3.455l.051-1.237c.207-7.735-.103-8.766-.206-8.92l.31-.465c.257.155.721.361.464 9.385v1.289c-.052 2.165-.155 3.764-.155 3.764l-.052.206ZM68.269 102.609h-.31c-.154-.154-.154-.206.052-.67.258-.567.722-1.702 1.031-2.681l.516.154c-.31 1.032-.825 2.218-1.083 2.785-.052.155-.103.309-.155.309l-.257-.103.206.206ZM103.744 52.955H91.575a.222.222 0 0 1-.206-.206c0-.104.103-.207.206-.207h12.169c.515 0 .979-.206 1.34-.567.361-.36.568-.825.516-1.34 0-1.238-.052-2.476-.103-3.661-.155-3.61-.464-8.611-1.186-11.911 0-.104.051-.258.155-.258.103-.052.257.051.257.154.722 3.352 1.032 8.353 1.186 12.014.052 1.186.103 2.424.103 3.661 0 .62-.206 1.186-.67 1.65-.361.413-.98.67-1.598.67ZM49.139 52.955h-8.817c-.516 0-1.031-.103-1.444-.361l-2.01-1.083c-1.032-.516-1.65-1.599-1.65-2.733V34.29a3.103 3.103 0 0 1 3.093-3.094h64.298c.774 0 1.393.877 1.908 2.733.052.103-.051.258-.155.258-.103.051-.257-.052-.257-.155-.413-1.547-.928-2.423-1.496-2.423H38.363c-1.444 0-2.682 1.186-2.682 2.63v14.489c0 .98.516 1.856 1.392 2.32l2.011 1.083c.361.206.774.31 1.238.31h8.817c.103 0 .206.102.206.205s-.051.31-.206.31ZM84.047 52.956H56.873a.222.222 0 0 1-.206-.207c0-.103.103-.206.206-.206h27.174c.103 0 .206.103.206.206a.222.222 0 0 1-.206.206Z"/><path fill="#005685" d="M57.183 51.098c-.103-2.32-1.96-4.125-4.28-4.125a4.27 4.27 0 0 0-4.28 4.28c0 .412.052.824.155 1.185.052.155.103.361.206.516.258.619.67 1.186 1.186 1.598.722.62 1.702.98 2.733.98.928 0 1.805-.31 2.527-.825.154-.103.258-.206.412-.31.413-.412.774-.876 1.031-1.443.052-.155.104-.258.155-.413.103-.309.155-.67.206-1.03v-.259c-.051-.051-.051-.103-.051-.154Zm-4.28 3.97a3.759 3.759 0 0 1-3.558-2.475v-.052c-.154-.412-.206-.825-.206-1.289a3.807 3.807 0 0 1 3.816-3.815c2.114 0 3.867 1.753 3.815 3.815-.051 2.114-1.753 3.816-3.867 3.816ZM92.09 51.098c-.103-2.32-1.959-4.125-4.28-4.125a4.27 4.27 0 0 0-4.279 4.28c0 .463.052.876.206 1.288.052.155.104.258.155.413.258.567.567 1.031 1.031 1.444.155.154.31.258.465.36.67.465 1.546.774 2.474.774 1.032 0 1.96-.36 2.682-.928.154-.103.31-.258.464-.413a4 4 0 0 0 .825-1.237c.051-.155.103-.258.154-.413.104-.309.155-.67.207-1.03v-.259c-.103-.051-.103-.103-.103-.154Zm-4.28 3.97a3.807 3.807 0 0 1-3.815-3.816 3.807 3.807 0 0 1 3.816-3.815c2.114 0 3.816 1.753 3.816 3.815a3.807 3.807 0 0 1-3.816 3.816ZM62.803 33.465H38.672c-.825 0-1.495.67-1.495 1.495v6.755c0 .825.67 1.495 1.495 1.495h24.131c.825 0 1.495-.67 1.495-1.444V34.96c0-.825-.67-1.495-1.495-1.495Zm1.031 8.301c0 .568-.464 1.032-1.03 1.032H38.671a1.034 1.034 0 0 1-1.031-1.032V34.96c0-.567.464-1.031 1.03-1.031h24.132c.567 0 1.031.464 1.031 1.031v6.806ZM90.956 33.465H77.344c-.825 0-1.496.67-1.496 1.495v6.755c0 .825.67 1.495 1.496 1.495h13.56a1.57 1.57 0 0 0 1.547-1.444V34.96c0-.825-.67-1.495-1.495-1.495Zm1.031 8.301c0 .568-.464 1.032-1.03 1.032H77.343a1.034 1.034 0 0 1-1.032-1.032V34.96c0-.567.465-1.031 1.032-1.031h13.612c.567 0 1.031.464 1.031 1.031v6.806ZM99.31 33.824h-4.796c-.619 0-1.134.516-1.134 1.135v16.345c0 .103.103.206.206.206h6.651a.222.222 0 0 0 .207-.206V34.959c0-.62-.516-1.135-1.135-1.135Zm.721 17.222h-6.239V34.96c0-.413.31-.722.722-.722h4.795c.413 0 .722.31.722.722v16.087ZM105.239 47.18c-1.289 0-2.991-.413-3.3-2.063-.412-2.269-.67-13.251-.722-13.715 0-.104.103-.207.206-.207.155 0 .207.103.207.207 0 .103.257 11.395.67 13.612.361 2.011 3.455 1.65 3.455 1.65.103 0 .206.052.257.206 0 .103-.051.207-.206.258-.154.052-.361.052-.567.052ZM73.528 33.465h-6.806c-.722 0-1.34.619-1.34 1.34v16.5c0 .104.102.207.206.207h9.075c.103 0 .206-.103.206-.258V34.806c0-.722-.619-1.341-1.34-1.341Zm.877 17.583h-8.663V34.806c0-.516.413-.929.928-.929h6.806c.516 0 .929.413.929.928v16.243Z"/><path fill="#005685" d="M52.903 48.418c-1.547 0-2.836 1.289-2.836 2.836s1.29 2.836 2.836 2.836a2.828 2.828 0 0 0 2.836-2.836c0-1.547-1.289-2.836-2.836-2.836Zm0 5.208c-1.289 0-2.372-1.083-2.372-2.372a2.366 2.366 0 0 1 2.372-2.372 2.366 2.366 0 0 1 2.372 2.372 2.366 2.366 0 0 1-2.372 2.372ZM87.81 48.418c-1.546 0-2.835 1.289-2.835 2.836s1.289 2.836 2.836 2.836 2.836-1.29 2.836-2.836c0-1.547-1.29-2.836-2.836-2.836Zm0 5.208c-1.288 0-2.371-1.083-2.371-2.372a2.366 2.366 0 0 1 2.372-2.372 2.366 2.366 0 0 1 2.372 2.372c0 1.289-1.083 2.372-2.372 2.372ZM112.664 54.604H90.389a.222.222 0 0 1-.206-.206c0-.104.103-.207.206-.207h22.275c.103 0 .206.103.206.207a.222.222 0 0 1-.206.206ZM85.233 54.81H55.584a.222.222 0 0 1-.206-.205c0-.103.103-.207.206-.207h29.649c.103 0 .206.104.206.207a.222.222 0 0 1-.206.206ZM107.92 35.888l-.103-1.134a.96.96 0 0 0-.98-.877h-5.156a.222.222 0 0 0-.206.206l-.052.928c0 .052 0 .103.052.155.052.052.103.052.155.052h4.537l.258.825.258.618.051.052a.586.586 0 0 0 .413.155c.103 0 .155-.052.206 0 .309-.155.619-.568.567-.98Zm-.67.516c-.103.051-.103 0-.155 0l-.567-1.496c-.051-.103-.103-.154-.206-.154h-4.435l.052-.516h4.95c.309 0 .516.258.567.516l.103 1.134c0 .206-.154.412-.309.516ZM93.586 51.51h-1.702a.222.222 0 0 1-.206-.206c0-.103.103-.206.206-.206h1.702c.103 0 .206.103.206.206a.222.222 0 0 1-.206.206ZM65.588 51.51h-8.611a.222.222 0 0 1-.207-.206c0-.103.103-.206.206-.206h8.612c.103 0 .206.103.206.206a.222.222 0 0 1-.206.206ZM117.356 64.866l-.051-.052h-.207l-6.548 2.424c-.052.052-.103.103-.103.206v14.902c0 .051.051.103.103.154 0 .052.052.052.103.052h.052l6.497-2.372.103-.052c.051-.051.103-.103.103-.206V68.785a5.13 5.13 0 0 1-.361-1.856c0-.62.103-1.186.361-1.702v-.258c0-.051 0-.051-.052-.103Zm-6.548 2.733 6.136-2.269a4.207 4.207 0 0 0-.31 1.599c0 .618.104 1.237.361 1.959v10.88l-6.187 2.32v-14.49Z"/><path fill="#005685" d="M117.253 65.33c-.051 0-.051 0 0 0a.222.222 0 0 1-.206-.207v-.154c0-.052.051-.155.103-.155.052-.051.155-.051.206 0l.052.052c.051.051.103.154.051.257l-.051.104c-.052.051-.103.103-.155.103ZM123.905 70.796c0-.052-.052-.052-.103-.052a.393.393 0 0 0-.207.103c-.979 1.496-2.114 2.785-2.526 3.197-.567-.567-2.733-2.784-3.661-5.156 0-.052-.052-.103-.052-.103 0-.052-.103-.103-.206-.103-.103.051-.155.103-.155.206v11.034c0 .052.052.103.103.155l.104.103 6.342 4.744.103.103v.052h.051c.052 0 .104 0 .052-.155.052 0 .103-.103.103-.155V71.002c.103-.103.103-.155.052-.206Zm-6.497 9.023V69.816c1.186 2.527 3.455 4.64 3.558 4.744.051.103.206.051.257 0a27.411 27.411 0 0 0 2.372-2.888v12.736l-6.187-4.589Z"/><path fill="#005685" d="M123.802 85.026c-.104 0-.155-.052-.207-.103-.051-.103 0-.207.103-.258l6.446-2.424V67.752l-5.466 2.063c-.103.051-.206 0-.258-.103-.051-.103 0-.207.103-.258l5.775-2.114h.155c.052.051.103.103.103.154v14.902c0 .103-.051.155-.103.206l-6.651 2.424c.051 0 .051 0 0 0Z"/><path stroke="#005685" stroke-miterlimit="10" d="M121.12 62.648a4.25 4.25 0 0 0-3.712 2.166v.052c-.052.051-.052.103-.103.206 0 .051-.052.051-.052.103s-.051.103-.051.103c-.207.464-.31 1.083-.31 1.65s.103 1.135.31 1.702c0 .051.051.154.051.206.052.155.155.31.206.516 1.186 2.63 3.713 5.001 3.713 5.001s1.444-1.495 2.681-3.351c.052-.052.103-.104.103-.207.207-.31.413-.67.567-1.03.052-.104.104-.156.104-.259.051-.051.051-.103.103-.154.412-.877.67-1.754.67-2.527.052-2.269-1.908-4.177-4.28-4.177Zm1.599 6.446c-.464.31-.98.515-1.599.515a2.663 2.663 0 0 1-2.681-2.68c0-.31.052-.62.155-.877a2.683 2.683 0 0 1 2.526-1.805 2.663 2.663 0 0 1 2.682 2.681c0 .877-.413 1.65-1.083 2.166Z"/><path fill="#005685" d="M121.12 63.988c-1.237 0-2.32.825-2.732 1.96a2.883 2.883 0 0 0 2.732 3.816c.619 0 1.238-.155 1.702-.568a2.88 2.88 0 0 0-1.702-5.208Zm-2.526 2.94c0-.31.051-.568.154-.826.361-1.03 1.29-1.701 2.372-1.701 1.393 0 2.527 1.134 2.424 2.526 0 .774-.361 1.547-1.031 2.011-.413.31-.929.464-1.444.464a2.475 2.475 0 0 1-2.475-2.475Z"/><path stroke="#005685" stroke-miterlimit="10" d="M52.903 0c5.569 4.64 4.022 13.56-2.784 16.087l-26.297 9.797c-3.094 1.135-5.311 3.816-5.981 7.013L15.778 43.26c-1.134 5.826 3.3 11.292 9.281 11.292h25.472M112.303 54.347h36.609c3.61 0 6.497-2.939 6.497-6.497v-4.898c0-3.61-2.939-6.497-6.497-6.497-3.609 0-6.496 2.94-6.496 6.497v46.097a1.904 1.904 0 0 1-1.908 1.908 1.903 1.903 0 0 1-1.908-1.908 6.69 6.69 0 0 0-6.703-6.703h-1.599M85.44 96.68v11.756c0 3.3 2.68 6.033 6.032 6.033h28.462c5.879 0 10.674 4.795 10.674 10.673s-4.795 10.674-10.674 10.674h-4.486c-5.878 0-10.673-4.744-10.673-10.674l-.103-36.867a6.008 6.008 0 0 1 6.033-6.033M34.392 76.415v67.237h-3.867V63.731h3.867"/><path stroke="#005685" stroke-miterlimit="10" d="M30.525 76.415h18.563V63.73H30.524V76.415ZM30.525 143.652h45.788"/></g><defs><clipPath id="a"><path fill="#fff" d="M0 0h165v165H0z"/></clipPath></defs></svg>