<svg width="32" height="96" viewBox="0 0 32 96" fill="none" xmlns="http://www.w3.org/2000/svg">
  <path d="M26.0591 52.6604C25.3317 52.2851 24.5064 51.8651 22.9379 51.8651C21.3694 51.8651 20.5419 52.2851 19.814 52.6604C19.1347 53.0102 18.5449 53.313 17.2951 53.313C16.0453 53.313 15.4572 53.0085 14.7774 52.6604C14.0489 52.2851 13.2259 51.8651 11.6534 51.8651C10.0809 51.8651 9.25906 52.2851 8.53283 52.6604C7.85359 53.0102 7.26378 53.313 6.01396 53.313C4.76415 53.313 4.17491 53.0085 3.49679 52.6604C3.08302 52.447 2.64151 52.22 2.04264 52.0603L1.68434 53.3339C2.14906 53.4551 2.50283 53.6368 2.88944 53.8355C3.62076 54.2091 4.44491 54.633 6.01396 54.633C7.58302 54.633 8.40887 54.2091 9.13849 53.8355C9.81774 53.4856 10.4036 53.1845 11.6534 53.1845C12.9032 53.1845 13.4902 53.4856 14.174 53.8355C14.9008 54.2091 15.7255 54.633 17.2951 54.633C18.8647 54.633 19.6894 54.2091 20.4174 53.8355C21.0966 53.4856 21.6892 53.1845 22.9379 53.1845C24.1866 53.1845 24.7736 53.4856 25.4528 53.8355C25.4749 53.8474 25.4992 53.8604 25.5247 53.8728L26.3092 52.7883C26.2283 52.7464 26.1434 52.7028 26.0591 52.6604Z" fill="#000000" />
  <path d="M30.0411 46.824H25.7393L24.3072 41.0243C24.2506 40.7243 24.0955 40.6536 23.8323 40.6536H21.5364L21.0157 38.5943C20.9926 38.5225 20.9473 38.4599 20.8862 38.4156C20.8251 38.3713 20.7515 38.3476 20.676 38.3481C20.6425 38.3482 20.6091 38.3531 20.577 38.3628L17.3296 39.5357C16.9809 39.6692 16.8728 39.8357 16.8728 40.2041V42.7264H6.59075C6.34792 42.7264 6.16678 42.9053 6.1215 43.1662L5.28093 46.8223H3.92244C3.81392 46.8218 3.70827 46.8572 3.6219 46.9229C3.53552 46.9886 3.47324 47.0809 3.44471 47.1857L2.38225 50.9492C3.13735 51.1479 3.68923 51.4304 4.14263 51.6619C4.76527 51.9817 5.1049 52.1577 6.01395 52.1577C6.92301 52.1577 7.26377 51.9817 7.88697 51.6619C8.67037 51.2606 9.74132 50.7098 11.6534 50.7098C13.5655 50.7098 14.6404 51.2606 15.4232 51.6619C16.0459 51.9817 16.3883 52.1577 17.2951 52.1577C18.2019 52.1577 18.5472 51.9811 19.1659 51.6619C19.9504 51.2606 21.0247 50.7098 22.9379 50.7098C24.8511 50.7098 25.9215 51.2606 26.7049 51.6619L26.9834 51.8034L30.2602 47.2706C30.2928 47.2205 30.3123 47.1631 30.3168 47.1036C30.3194 47.0665 30.3141 47.0293 30.3013 46.9945C30.2884 46.9596 30.2683 46.9279 30.2422 46.9015C30.2161 46.875 30.1847 46.8544 30.15 46.841C30.1154 46.8277 30.0782 46.8219 30.0411 46.824ZM11.2204 46.824H6.54716L6.98867 44.8689H11.2226L11.2204 46.824ZM16.8525 46.824H12.1509V44.8672H16.853L16.8525 46.824ZM17.7847 46.824V44.8672H22.4868L22.9793 46.8223L17.7847 46.824Z" fill="#000000" />
  <path d="M25.287 22.2488C25.2873 22.725 25.1466 23.1906 24.8826 23.5867C24.6185 23.9828 24.2431 24.2916 23.8038 24.474C23.3645 24.6565 22.8809 24.7044 22.4144 24.6117C21.9478 24.519 21.5192 24.2899 21.1828 23.9533C20.8463 23.6167 20.6172 23.1878 20.5242 22.7208C20.4313 22.2538 20.4789 21.7697 20.6608 21.3297C20.8427 20.8898 21.1509 20.5137 21.5464 20.2491C21.9418 19.9846 22.4068 19.8433 22.8824 19.8433C23.5196 19.8451 24.1302 20.0993 24.5807 20.5504C25.0313 21.0014 25.2852 21.6127 25.287 22.2505" fill="#000000" />
  <path d="M29.9755 10.0933H1.96225C1.80331 10.0942 1.65116 10.1579 1.53898 10.2707C1.4268 10.3834 1.36368 10.5359 1.36338 10.6951V21.9479C1.36368 22.1071 1.4268 22.2596 1.53898 22.3723C1.65116 22.4851 1.80331 22.5488 1.96225 22.5497H5.57075V22.3089C5.57075 20.3822 7.13358 18.8789 9.05754 18.8789C9.50755 18.8786 9.95318 18.9672 10.369 19.1395C10.7848 19.3118 11.1626 19.5644 11.4808 19.883C11.799 20.2016 12.0513 20.5798 12.2234 20.996C12.3955 21.4123 12.484 21.8584 12.4838 22.3089V22.5497H19.4562V22.2488C19.4562 20.3222 21.0191 18.8188 22.9425 18.8188C23.3925 18.8186 23.8381 18.9071 24.2539 19.0794C24.6697 19.2517 25.0475 19.5044 25.3657 19.8229C25.6839 20.1415 25.9362 20.5197 26.1083 20.9359C26.2804 21.3522 26.3689 21.7983 26.3687 22.2488V22.5497H30.0378C30.1971 22.5494 30.3498 22.4859 30.4625 22.3731C30.5752 22.2603 30.6386 22.1074 30.6389 21.9479V10.6951C30.5766 10.3942 30.2761 10.0933 29.9755 10.0933ZM8.51641 17.4344H2.68622V12.5611H8.51641V17.4344ZM15.4289 17.4344H9.59868V12.5611H15.4289V17.4344ZM22.3413 17.4344H16.5094V12.5611H22.3396L22.3413 17.4344ZM29.2544 17.4344H23.4242V12.5611H29.2544V17.4344Z" fill="#000000" />
  <path d="M11.4615 22.3089C11.4612 22.785 11.3199 23.2502 11.0554 23.6459C10.791 24.0415 10.4153 24.3498 9.97586 24.5317C9.53642 24.7136 9.05298 24.761 8.58664 24.6679C8.1203 24.5748 7.69202 24.3453 7.35593 24.0086C7.01984 23.6718 6.79105 23.2428 6.69847 22.7759C6.60589 22.3089 6.65369 21.825 6.83582 21.3852C7.01795 20.9455 7.32623 20.5697 7.72169 20.3053C8.11715 20.0409 8.58203 19.8999 9.05756 19.9C9.69463 19.9019 10.305 20.1562 10.7555 20.6072C11.2059 21.0583 11.4597 21.6694 11.4615 22.3072" fill="#000000" />
</svg>