<?xml version="1.0" encoding="utf-8"?>
<!-- Generator: Adobe Illustrator 26.5.0, SVG Export Plug-In . SVG Version: 6.00 Build 0)  -->
<svg version="1.1" id="Layer_1" xmlns="http://www.w3.org/2000/svg" xmlns:xlink="http://www.w3.org/1999/xlink" x="0px" y="0px"
	viewBox="0 0 568 144" style="enable-background:new 0 0 568 144;">
	<rect y="0" fill="#D5D7D9" width="216" height="12" />
	<rect y="20" fill="#D5D7D9" width="216" height="12" />
	<rect y="52" fill="#D5D7D9" width="192" height="12" />
	<rect y="72" fill="#D5D7D9" width="64" height="12" />
	<rect y="132" fill="#D5D7D9" width="64" height="12" />
	<rect y="92" fill="#D5D7D9" width="120" height="12" />
	<rect y="112" fill="#D5D7D9" width="120" height="12" />
	<path fill="none" stroke="#005686" stroke-width="3" stroke-miterlimit="10" d="M381.8,1.6h169.8c7.9,0,14.5,6.5,14.5,14.5v112c0,7.9-6.5,14.5-14.5,14.5H381.8c-7.9,0-14.5-6.5-14.5-14.5V16
	C367.4,8.1,373.7,1.6,381.8,1.6z" />
	<path fill="none" stroke="#005686" stroke-width="3" stroke-miterlimit="10" d="M418.7,31.4h124.6c1.4,0,2.7,1.3,2.7,2.7v12.6c0,1.4-1.3,2.7-2.7,2.7H418.7c-1.4,0-2.7-1.3-2.7-2.7V34.1
	C416.2,32.6,417.3,31.4,418.7,31.4z" />
</svg>