<svg width="223" height="186" viewBox="0 0 223 186" fill="none" xmlns="http://www.w3.org/2000/svg">
<path d="M166.546 75.3251C166.416 75.3251 166.286 75.3066 166.165 75.2601C165.784 75.13 165.487 74.8234 165.384 74.4331L165.134 73.4854C165.096 73.3367 164.976 73.2159 164.827 73.1788C164.678 73.1323 164.52 73.1788 164.409 73.281L163.907 73.7641C163.684 74.0057 163.368 74.1265 163.034 74.0986C162.699 74.0708 162.411 73.8849 162.235 73.5969L161.138 71.8036C161.073 71.6921 161.11 71.5527 161.212 71.4877C161.324 71.4226 161.463 71.4505 161.528 71.562L162.625 73.3553C162.718 73.5133 162.885 73.6155 163.071 73.6341C163.257 73.6526 163.433 73.5783 163.563 73.4482L163.573 73.4389L164.074 72.9558C164.307 72.7328 164.632 72.6491 164.938 72.7328C165.245 72.8164 165.487 73.058 165.57 73.3646L165.821 74.3124C165.886 74.5539 166.063 74.7398 166.304 74.8234C166.546 74.907 166.797 74.8606 166.992 74.7026L169.073 73.0766C169.175 73.0022 169.324 73.0115 169.398 73.1137C169.482 73.2159 169.463 73.3646 169.361 73.4389L167.28 75.065C167.075 75.2322 166.815 75.3251 166.546 75.3251Z" fill="#005566"/>
<path d="M180.91 72.2606C180.603 72.2606 180.287 72.1584 180.036 71.9447L178.568 70.7367C178.466 70.6531 178.457 70.5044 178.54 70.4115C178.624 70.3093 178.773 70.3 178.866 70.3837L180.334 71.5916C180.659 71.861 181.133 71.8703 181.467 71.6102L183.084 70.3837C183.53 70.0492 184.134 70.0584 184.561 70.4208L185.193 70.9597C185.509 71.2199 185.955 71.2385 186.28 70.9969L186.987 70.4673C187.089 70.3929 187.237 70.4115 187.312 70.5137C187.386 70.6159 187.367 70.7646 187.265 70.8389L186.559 71.3779C186.057 71.7495 185.37 71.7217 184.896 71.3221L184.264 70.7832C184.004 70.5602 183.632 70.5509 183.363 70.7646L181.746 71.9911C181.495 72.1677 181.198 72.2606 180.91 72.2606Z" fill="#005566"/>
<path d="M142.22 52.3083H127.502C127.372 52.3083 127.27 52.2061 127.27 52.076C127.27 51.9459 127.372 51.8437 127.502 51.8437H142.22C142.843 51.8437 143.428 51.6021 143.865 51.1561C144.302 50.7101 144.534 50.1248 144.525 49.5022C144.506 48.0063 144.46 46.5103 144.404 45.0515C144.227 40.6751 143.837 34.617 142.973 30.6123C142.945 30.4915 143.029 30.3614 143.149 30.3335C143.28 30.3056 143.4 30.3893 143.428 30.5101C144.302 34.5426 144.692 40.6287 144.868 45.0236C144.924 46.4824 144.971 47.9877 144.989 49.4836C145.008 50.227 144.72 50.9331 144.199 51.4628C143.67 52.0203 142.964 52.3083 142.22 52.3083Z" fill="#005566"/>
<path d="M76.144 52.3129H65.4865C64.8639 52.3129 64.26 52.1643 63.7489 51.8762L61.3238 50.5847C60.1159 49.9436 59.3633 48.6892 59.3633 47.314V29.7528C59.3633 27.7086 61.0265 26.0547 63.0706 26.0547H140.87C141.799 26.0547 142.533 27.1418 143.128 29.3718C143.165 29.4926 143.091 29.6227 142.961 29.6599C142.84 29.697 142.71 29.6227 142.673 29.4926C142.162 27.5785 141.52 26.5193 140.861 26.5193H63.0706C61.2774 26.5193 59.8279 27.9688 59.8279 29.7528V47.314C59.8279 48.5126 60.4876 49.6091 61.5468 50.1759L63.9719 51.4674C64.4179 51.7183 64.9476 51.8484 65.4958 51.8484H76.1533C76.2834 51.8484 76.3856 51.9506 76.3856 52.0806C76.3856 52.2107 76.2741 52.3129 76.144 52.3129Z" fill="#005566"/>
<path d="M118.358 52.3161H85.494C85.364 52.3161 85.2617 52.2139 85.2617 52.0839C85.2617 51.9538 85.364 51.8516 85.494 51.8516H118.368C118.498 51.8516 118.6 51.9538 118.6 52.0839C118.6 52.2139 118.488 52.3161 118.358 52.3161Z" fill="#005566"/>
<path d="M80.7071 55.4455C77.8825 55.4455 75.5781 53.1412 75.5781 50.3165C75.5781 47.4918 77.8825 45.1875 80.7071 45.1875C83.5318 45.1875 85.8361 47.4918 85.8361 50.3165C85.8361 53.1505 83.5318 55.4455 80.7071 55.4455ZM80.7071 45.6614C78.1333 45.6614 76.0427 47.752 76.0427 50.3258C76.0427 52.8996 78.1333 54.9902 80.7071 54.9902C83.2809 54.9902 85.3715 52.8996 85.3715 50.3258C85.3715 47.752 83.2809 45.6614 80.7071 45.6614Z" fill="#005566"/>
<path d="M122.93 55.4455C120.105 55.4455 117.801 53.1412 117.801 50.3165C117.801 47.4918 120.105 45.1875 122.93 45.1875C125.754 45.1875 128.059 47.4918 128.059 50.3165C128.059 53.1505 125.764 55.4455 122.93 55.4455ZM122.93 45.6614C120.356 45.6614 118.265 47.752 118.265 50.3258C118.265 52.8996 120.356 54.9902 122.93 54.9902C125.504 54.9902 127.594 52.8996 127.594 50.3258C127.594 47.752 125.504 45.6614 122.93 45.6614Z" fill="#005566"/>
<path d="M94.0141 40.5244H62.1437C61.9021 40.5244 61.707 40.3293 61.707 40.0877V29.2258C61.707 28.9842 61.9021 28.7891 62.1437 28.7891H94.0048C94.2464 28.7891 94.4415 28.9842 94.4415 29.2258V40.0877C94.4508 40.3293 94.2557 40.5244 94.0141 40.5244ZM62.1808 40.0599H93.9862V29.2536H62.1808V40.0599Z" fill="#005566"/>
<path d="M128.023 40.5244H108.91C108.668 40.5244 108.473 40.3293 108.473 40.0877V29.2258C108.473 28.9842 108.668 28.7891 108.91 28.7891H128.023C128.264 28.7891 128.459 28.9842 128.459 29.2258V40.0877C128.459 40.3293 128.264 40.5244 128.023 40.5244ZM108.938 40.0599H127.985V29.2536H108.938V40.0599Z" fill="#005566"/>
<path d="M137.963 50.5554H129.888C129.758 50.5554 129.656 50.4532 129.656 50.3231V29.5841C129.656 29.3704 129.823 29.2031 130.037 29.2031H137.814C138.028 29.2031 138.195 29.3704 138.195 29.5841V50.3231C138.195 50.4439 138.093 50.5554 137.963 50.5554ZM130.121 50.0908H137.73V29.6584H130.121V50.0908Z" fill="#005566"/>
<path d="M144.059 45.3085C142.833 45.3085 140.417 45.0298 140.017 42.8555C139.515 40.133 139.19 26.846 139.172 26.2885C139.172 26.1584 139.274 26.0562 139.395 26.0469C139.525 26.0469 139.627 26.1491 139.636 26.2699C139.636 26.4093 139.98 40.0773 140.472 42.7626C140.658 43.794 141.42 44.4537 142.721 44.7138C143.734 44.9183 144.691 44.8068 144.7 44.7975C144.83 44.7789 144.942 44.8718 144.96 45.0019C144.979 45.132 144.886 45.2435 144.756 45.262C144.765 45.2806 144.486 45.3085 144.059 45.3085Z" fill="#005566"/>
<path d="M106.995 50.5594H96.0214C95.8913 50.5594 95.7891 50.4572 95.7891 50.3271V29.2072C95.7891 28.9749 95.9749 28.7891 96.2072 28.7891H106.818C107.05 28.7891 107.236 28.9749 107.236 29.2072V50.3271C107.227 50.4479 107.125 50.5594 106.995 50.5594ZM96.2537 50.0949H106.762V29.2536H96.2537V50.0949Z" fill="#005566"/>
<path d="M80.7063 53.7018C78.8387 53.7018 77.3242 52.1873 77.3242 50.3197C77.3242 48.452 78.8387 46.9375 80.7063 46.9375C82.574 46.9375 84.0885 48.452 84.0885 50.3197C84.0885 52.1873 82.574 53.7018 80.7063 53.7018ZM80.7063 47.3928C79.0989 47.3928 77.7888 48.7029 77.7888 50.3104C77.7888 51.9178 79.0989 53.228 80.7063 53.228C82.3138 53.228 83.6239 51.9178 83.6239 50.3104C83.6239 48.7029 82.3138 47.3928 80.7063 47.3928Z" fill="#005566"/>
<path d="M122.929 53.7018C121.061 53.7018 119.547 52.1873 119.547 50.3197C119.547 48.452 121.061 46.9375 122.929 46.9375C124.796 46.9375 126.311 48.452 126.311 50.3197C126.311 52.1873 124.796 53.7018 122.929 53.7018ZM122.929 47.3928C121.321 47.3928 120.011 48.7029 120.011 50.3104C120.011 51.9178 121.321 53.228 122.929 53.228C124.536 53.228 125.846 51.9178 125.846 50.3104C125.846 48.7029 124.546 47.3928 122.929 47.3928Z" fill="#005566"/>
<path d="M153.005 54.2771H126.087C125.957 54.2771 125.855 54.1749 125.855 54.0448C125.855 53.9147 125.957 53.8125 126.087 53.8125H153.014C153.144 53.8125 153.246 53.9147 153.246 54.0448C153.246 54.1749 153.135 54.2771 153.005 54.2771Z" fill="#005566"/>
<path d="M119.778 54.2771H83.8846C83.7545 54.2771 83.6523 54.1749 83.6523 54.0448C83.6523 53.9147 83.7545 53.8125 83.8846 53.8125H119.778C119.908 53.8125 120.01 53.9147 120.01 54.0448C120.01 54.1749 119.908 54.2771 119.778 54.2771Z" fill="#005566"/>
<path d="M77.53 54.2771H59.5878C59.4577 54.2771 59.3555 54.1749 59.3555 54.0448C59.3555 53.9147 59.4577 53.8125 59.5878 53.8125H77.53C77.6601 53.8125 77.7623 53.9147 77.7623 54.0448C77.7623 54.1749 77.6601 54.2771 77.53 54.2771Z" fill="#005566"/>
<path d="M146.315 32.8298C146.148 32.8298 145.99 32.7648 145.86 32.6347C145.841 32.6161 145.822 32.5882 145.804 32.5511L145.516 31.8077L145.172 30.8042H139.662C139.597 30.8042 139.532 30.7764 139.495 30.7299C139.448 30.6835 139.43 30.6184 139.43 30.5534L139.523 29.4012C139.532 29.2804 139.634 29.1875 139.755 29.1875H145.98C146.575 29.1875 147.077 29.6335 147.142 30.2282L147.3 31.6033C147.356 32.0958 147.012 32.5697 146.649 32.7462C146.529 32.802 146.417 32.8298 146.315 32.8298ZM146.213 32.3374C146.25 32.3652 146.315 32.3931 146.436 32.3374C146.64 32.2352 146.854 31.9285 146.826 31.6684L146.668 30.2932C146.631 29.9401 146.324 29.6707 145.971 29.6707H139.959L139.904 30.3583H145.321C145.423 30.3583 145.507 30.4233 145.544 30.5162L145.943 31.6684L146.213 32.3374Z" fill="#005566"/>
<path d="M47.5345 72.8893C46.7261 72.8893 46.0664 72.2296 46.0664 71.4212C46.0664 70.6128 46.7261 69.9531 47.5345 69.9531C48.3429 69.9531 49.0026 70.6128 49.0026 71.4212C49.0026 72.2296 48.3429 72.8893 47.5345 72.8893ZM47.5345 70.4177C46.977 70.4177 46.531 70.8637 46.531 71.4212C46.531 71.9787 46.977 72.4247 47.5345 72.4247C48.092 72.4247 48.538 71.9787 48.538 71.4212C48.538 70.8637 48.092 70.4177 47.5345 70.4177Z" fill="#005566"/>
<path d="M47.5345 69.4675C46.7261 69.4675 46.0664 68.8078 46.0664 67.9994C46.0664 67.1911 46.7261 66.5312 47.5345 66.5312C48.3428 66.5312 49.0026 67.1911 49.0026 67.9994C49.0026 68.8078 48.3428 69.4675 47.5345 69.4675ZM47.5345 66.9958C46.977 66.9958 46.531 67.4419 46.531 67.9994C46.531 68.5569 46.977 69.0029 47.5345 69.0029C48.092 69.0029 48.538 68.5569 48.538 67.9994C48.538 67.4419 48.092 66.9958 47.5345 66.9958Z" fill="#005566"/>
<path d="M47.5345 66.0377C46.7261 66.0377 46.0664 65.378 46.0664 64.5696C46.0664 63.7613 46.7261 63.1016 47.5345 63.1016C48.3429 63.1016 49.0026 63.7613 49.0026 64.5696C49.0026 65.378 48.3429 66.0377 47.5345 66.0377ZM47.5345 63.5661C46.977 63.5661 46.531 64.0121 46.531 64.5696C46.531 65.1271 46.977 65.5731 47.5345 65.5731C48.092 65.5731 48.538 65.1271 48.538 64.5696C48.538 64.0121 48.092 63.5661 47.5345 63.5661Z" fill="#005566"/>
<path d="M129.889 50.5583H127.826C127.696 50.5583 127.594 50.4561 127.594 50.326C127.594 50.196 127.696 50.0938 127.826 50.0938H129.889C130.019 50.0938 130.122 50.196 130.122 50.326C130.122 50.4561 130.019 50.5583 129.889 50.5583Z" fill="#005566"/>
<path d="M96.0194 50.5583H85.6034C85.4733 50.5583 85.3711 50.4561 85.3711 50.326C85.3711 50.196 85.4733 50.0938 85.6034 50.0938H96.0287C96.1588 50.0938 96.261 50.196 96.261 50.326C96.261 50.4561 96.1495 50.5583 96.0194 50.5583Z" fill="#005566"/>
<path d="M158.831 106.567C158.125 106.567 157.019 106.065 156.536 105.805C156.424 105.74 156.378 105.6 156.443 105.489C156.508 105.377 156.647 105.331 156.759 105.396C157.26 105.665 158.264 106.102 158.831 106.102C160.698 106.102 162.223 104.578 162.223 102.711C162.223 101.438 161.516 100.276 160.373 99.6909C160.299 99.6537 160.243 99.5701 160.243 99.4864C160.243 99.4679 160.243 99.4586 160.243 99.44C160.243 98.2414 159.425 97.21 158.245 96.9405C158.152 96.9219 158.088 96.8476 158.07 96.764C157.875 95.8069 157.029 95.1194 156.062 95.1194C155.077 95.1194 154.231 95.8162 154.046 96.7733C154.027 96.8662 153.962 96.9312 153.869 96.9591C152.717 97.2379 151.918 98.2599 151.908 99.44C151.908 99.4586 151.908 99.4679 151.908 99.4864C151.908 99.5701 151.863 99.6537 151.779 99.6909C150.618 100.267 149.901 101.428 149.901 102.72C149.901 104.588 151.426 106.111 153.294 106.111C153.861 106.111 154.417 105.972 154.91 105.703C155.021 105.638 155.162 105.684 155.227 105.795C155.292 105.907 155.244 106.046 155.133 106.111C154.575 106.418 153.935 106.576 153.294 106.576C151.166 106.576 149.438 104.848 149.438 102.72C149.438 101.308 150.2 100.025 151.445 99.3471C151.491 98.0462 152.364 96.9219 153.609 96.5503C153.888 95.4446 154.892 94.6641 156.044 94.6641C157.187 94.6641 158.191 95.4446 158.479 96.541C159.761 96.8941 160.652 98.0276 160.689 99.3656C161.906 100.044 162.66 101.326 162.66 102.729C162.688 104.838 160.959 106.567 158.831 106.567Z" fill="#005566"/>
<path d="M156.957 108.037C156.92 108.037 156.883 108.027 156.845 108.009C156.734 107.944 156.697 107.804 156.752 107.693C156.79 107.628 157.682 106.03 159.02 106.104C159.15 106.113 159.243 106.225 159.243 106.346C159.233 106.466 159.131 106.569 159.01 106.569H159.001C157.96 106.513 157.171 107.907 157.161 107.925C157.115 107.99 157.031 108.037 156.957 108.037Z" fill="#005566"/>
<path d="M156.751 106.652C156.724 106.652 156.686 106.643 156.659 106.633C156.584 106.596 156.528 106.531 156.519 106.447L156.417 105.63C156.398 105.5 156.491 105.388 156.621 105.37C156.751 105.351 156.863 105.444 156.882 105.574L156.937 106.011L157.207 105.825C157.309 105.751 157.458 105.778 157.532 105.881C157.606 105.983 157.578 106.131 157.476 106.206L156.891 106.615C156.844 106.633 156.807 106.652 156.751 106.652Z" fill="#005566"/>
<path d="M154.52 112.153H135.361C130.892 112.153 127.259 108.52 127.259 104.051C127.259 99.8418 123.83 96.4132 119.621 96.4132H83.4952C83.4302 96.4132 83.3745 96.3853 83.328 96.3481L69.9015 82.9124L53.9199 82.9403H48.3077C48.1776 82.9403 48.0754 82.8381 48.0754 82.708V74.0853C48.0754 73.9552 48.1776 73.853 48.3077 73.853H49.3205C49.5156 73.853 49.6643 73.6951 49.6643 73.5092V62.6287C49.6643 62.4336 49.5063 62.2849 49.3205 62.2849H45.641C45.4459 62.2849 45.2972 62.4429 45.2972 62.6287V73.5092C45.2972 73.7044 45.4552 73.853 45.641 73.853H46.8582C46.9883 73.853 47.0905 73.9552 47.0905 74.0853V82.708C47.0905 82.8381 46.9883 82.9403 46.8582 82.9403H24.1958V97.1194C24.1958 103.512 29.3992 108.715 35.7918 108.715H40.1403C40.2704 108.715 40.3726 108.818 40.3726 108.948C40.3726 109.078 40.2704 109.18 40.1403 109.18H35.7918C29.139 109.18 23.7312 103.772 23.7312 97.1194V82.9403H14.5139C9.17123 82.9403 4.83203 78.5918 4.83203 73.2584V71.5115C4.83203 66.1688 9.18053 61.8296 14.5139 61.8296C19.8566 61.8296 24.1958 66.1781 24.1958 71.5115V82.485H46.6259V74.3269H45.641C45.195 74.3269 44.8326 73.9645 44.8326 73.5185V62.6287C44.8326 62.1827 45.195 61.8203 45.641 61.8203H49.3205C49.7665 61.8203 50.1289 62.1827 50.1289 62.6287V73.5092C50.1289 73.9552 49.7665 74.3176 49.3205 74.3176H48.54V82.4757H53.9199L69.9945 82.4478C70.0595 82.4478 70.1152 82.4757 70.1617 82.5129L83.5975 95.9486H119.63C124.1 95.9486 127.733 99.5817 127.733 104.051C127.733 108.26 131.161 111.689 135.37 111.689H154.372C155.106 109.895 155.041 107.684 154.846 106.077C152.188 105.333 152.216 103.308 152.216 103.289C152.216 103.159 152.328 103.066 152.448 103.066C152.448 103.066 152.448 103.066 152.458 103.066C152.588 103.066 152.69 103.178 152.681 103.308C152.681 103.391 152.69 105.073 155.115 105.677C155.208 105.696 155.273 105.779 155.292 105.872C155.524 107.591 155.617 110.044 154.743 112.023C154.697 112.098 154.613 112.153 154.52 112.153ZM14.5046 62.2849C9.42211 62.2849 5.28732 66.4197 5.28732 71.5022V73.2491C5.28732 78.3316 9.42211 82.4664 14.5046 82.4664H23.722V71.5022C23.7312 66.4197 19.5965 62.2849 14.5046 62.2849Z" fill="#005566"/>
<path d="M155.198 102.346C155.058 102.346 154.965 102.235 154.965 102.105C154.965 102.077 155.105 99.1406 158.496 99.1406C158.626 99.1406 158.729 99.2428 158.729 99.3729C158.729 99.503 158.626 99.6052 158.496 99.6052C155.542 99.6052 155.43 102.021 155.43 102.123C155.43 102.244 155.328 102.346 155.198 102.346Z" fill="#005566"/>
<path d="M155.086 107.333C154.863 107.333 154.557 107.194 154.269 107.036C154.073 106.933 153.888 106.822 153.767 106.72C153.674 106.655 153.414 106.441 153.535 106.209C153.59 106.097 153.739 106.051 153.85 106.116C153.915 106.153 153.962 106.218 153.971 106.292C154.129 106.469 154.826 106.841 155.058 106.868C155.123 106.831 155.207 106.831 155.272 106.868C155.384 106.924 155.43 107.073 155.365 107.184C155.309 107.287 155.216 107.333 155.086 107.333Z" fill="#005566"/>
<path d="M94.1971 155.767C94.1507 155.767 94.1042 155.749 94.067 155.73C94.002 155.684 93.9648 155.619 93.9648 155.535V144.571C93.9648 144.478 94.0299 144.385 94.1135 144.357L98.9637 142.555C99.0381 142.527 99.1124 142.536 99.1775 142.583C99.2425 142.629 99.2797 142.694 99.2797 142.778V142.88C99.2797 142.917 99.2704 142.945 99.2611 142.973C99.0845 143.354 99.0009 143.763 99.0009 144.181C99.0009 144.59 99.0938 145.036 99.2704 145.519C99.2797 145.547 99.289 145.575 99.289 145.602V153.742C99.289 153.835 99.2239 153.928 99.1403 153.956L94.29 155.749C94.2529 155.767 94.225 155.767 94.1971 155.767ZM94.4294 144.738V155.201L98.8151 153.575V145.64C98.6292 145.119 98.5363 144.627 98.5363 144.181C98.5363 143.828 98.5921 143.484 98.6943 143.149L94.4294 144.738Z" fill="#005566"/>
<path d="M103.89 157.57C103.844 157.57 103.788 157.552 103.751 157.524L98.9093 153.928C98.8535 153.882 98.8164 153.816 98.8164 153.742V145.603C98.8164 145.491 98.9 145.398 99.0115 145.37C99.123 145.352 99.2345 145.417 99.2717 145.519C99.8942 147.192 101.419 148.827 101.92 149.338C102.255 148.976 103.035 148.093 103.704 147.071C103.76 146.987 103.862 146.95 103.964 146.978C104.067 147.006 104.132 147.099 104.132 147.201V157.338C104.132 157.422 104.085 157.505 104.002 157.542C103.964 157.561 103.927 157.57 103.89 157.57ZM99.281 153.621L103.658 156.873V147.944C102.877 149.013 102.125 149.793 102.088 149.84C101.995 149.933 101.855 149.933 101.762 149.849C101.688 149.784 100.211 148.372 99.281 146.662V153.621Z" fill="#005566"/>
<path d="M103.889 157.572C103.796 157.572 103.703 157.517 103.675 157.424C103.629 157.303 103.694 157.173 103.815 157.126L108.507 155.379V144.917L104.595 146.367C104.475 146.413 104.344 146.348 104.298 146.227C104.252 146.106 104.317 145.976 104.437 145.93L108.665 144.36C108.739 144.332 108.814 144.341 108.879 144.387C108.944 144.434 108.981 144.499 108.981 144.583V155.547C108.981 155.64 108.925 155.733 108.832 155.76L103.991 157.563C103.945 157.563 103.917 157.572 103.889 157.572Z" fill="#005566"/>
<path d="M101.919 141.031C100.674 141.031 99.5965 141.756 99.0855 142.806C99.0762 142.834 99.0576 142.862 99.0483 142.88C98.8624 143.28 98.7695 143.717 98.7695 144.19C98.7695 144.655 98.881 145.138 99.0483 145.612C99.8288 147.703 101.919 149.682 101.919 149.682C101.919 149.682 102.997 148.576 103.889 147.21C104.112 146.866 104.326 146.513 104.502 146.151C104.837 145.482 105.069 144.804 105.069 144.19C105.069 142.444 103.657 141.031 101.919 141.031ZM103.071 145.77C102.746 146.012 102.347 146.151 101.91 146.151C100.823 146.151 99.9403 145.268 99.9403 144.181C99.9403 143.958 99.9775 143.735 100.052 143.54C100.321 142.769 101.055 142.211 101.919 142.211C103.006 142.211 103.889 143.094 103.889 144.181C103.889 144.832 103.573 145.408 103.071 145.77Z" stroke="#005566" stroke-width="0.464583" stroke-miterlimit="10" stroke-linecap="round" stroke-linejoin="round"/>
<path d="M101.921 146.374C100.704 146.374 99.7188 145.39 99.7188 144.172C99.7188 143.931 99.7558 143.68 99.8395 143.448C100.147 142.556 100.983 141.961 101.921 141.961C103.139 141.961 104.123 142.946 104.123 144.163C104.123 144.869 103.78 145.538 103.213 145.947C102.841 146.226 102.386 146.374 101.921 146.374ZM101.921 142.426C101.178 142.426 100.518 142.899 100.277 143.596C100.212 143.782 100.184 143.968 100.184 144.163C100.184 145.12 100.964 145.901 101.921 145.901C102.293 145.901 102.646 145.789 102.943 145.566C103.399 145.241 103.668 144.711 103.668 144.154C103.659 143.206 102.878 142.426 101.921 142.426Z" fill="#005566"/>
<path d="M149.344 75.3311C149.047 75.3311 148.759 75.2103 148.554 75.0059L147.699 74.1511C147.606 74.0582 147.606 73.9095 147.699 73.8259C147.792 73.733 147.941 73.733 148.025 73.8259L148.879 74.6807C149 74.8015 149.167 74.8758 149.344 74.8758C149.521 74.8758 149.688 74.8108 149.809 74.6807L150.403 74.086C150.84 73.6493 151.555 73.6493 151.992 74.086C152.113 74.2068 152.28 74.2812 152.457 74.2812C152.633 74.2812 152.8 74.2161 152.921 74.086L153.711 73.2963C153.804 73.2033 153.953 73.2033 154.036 73.2963C154.129 73.3892 154.129 73.5378 154.036 73.6215L153.246 74.4113C153.033 74.625 152.754 74.7365 152.457 74.7365C152.159 74.7365 151.871 74.6157 151.667 74.4113C151.407 74.1511 150.998 74.1511 150.738 74.4113L150.143 75.0059C149.929 75.2196 149.641 75.3311 149.344 75.3311Z" fill="#005566"/>
<path d="M86.6344 131.859H81.3846C81.2545 131.859 81.1523 131.756 81.1523 131.626V129.935C81.1523 129.805 81.2545 129.703 81.3846 129.703H86.6344C86.7645 129.703 86.8667 129.805 86.8667 129.935V131.626C86.8667 131.747 86.7645 131.859 86.6344 131.859ZM81.6169 131.394H86.4021V130.168H81.6169V131.394Z" fill="#005566"/>
<path d="M84.8408 123.089H83.1776C83.0475 123.089 82.9453 122.987 82.9453 122.856V108.826C82.9453 108.696 83.0475 108.594 83.1776 108.594H84.8408C84.9709 108.594 85.0731 108.696 85.0731 108.826V122.856C85.0731 122.987 84.9709 123.089 84.8408 123.089ZM83.4099 122.624H84.6085V109.058H83.4099V122.624Z" fill="#005566"/>
<path d="M85.484 130.168H82.5292C82.3991 130.168 82.2969 130.066 82.2969 129.936V128.765C82.2969 128.635 82.3991 128.533 82.5292 128.533H82.938V122.865C82.938 122.735 83.0402 122.633 83.1703 122.633H84.8335C84.9636 122.633 85.0658 122.735 85.0658 122.865V128.533H85.4747C85.6047 128.533 85.707 128.635 85.707 128.765V129.936C85.7162 130.066 85.614 130.168 85.484 130.168ZM82.7708 129.704H85.2609V128.998H84.8521C84.722 128.998 84.6198 128.895 84.6198 128.765V123.097H83.4212V128.765C83.4212 128.895 83.319 128.998 83.1889 128.998H82.7801V129.704H82.7708Z" fill="#005566"/>
<path d="M118.032 123.089H116.369C116.239 123.089 116.137 122.987 116.137 122.856V108.826C116.137 108.696 116.239 108.594 116.369 108.594H118.032C118.162 108.594 118.264 108.696 118.264 108.826V122.856C118.264 122.987 118.162 123.089 118.032 123.089ZM116.601 122.624H117.8V109.058H116.601V122.624Z" fill="#005566"/>
<path d="M119.826 131.852H114.577C114.446 131.852 114.344 131.749 114.344 131.619V129.928C114.344 129.798 114.446 129.696 114.577 129.696H115.496V128.758C115.496 128.627 115.599 128.525 115.729 128.525H116.138V122.857C116.138 122.727 116.24 122.625 116.37 122.625H118.033C118.163 122.625 118.265 122.727 118.265 122.857V128.525H118.674C118.804 128.525 118.906 128.627 118.906 128.758V129.696H119.826C119.956 129.696 120.059 129.798 120.059 129.928V131.619C120.059 131.749 119.956 131.852 119.826 131.852ZM114.809 131.387H119.594V130.161H118.674C118.544 130.161 118.442 130.058 118.442 129.928V128.99H118.033C117.903 128.99 117.801 128.888 117.801 128.758V123.09H116.602V128.758C116.602 128.888 116.5 128.99 116.37 128.99H115.961V129.928C115.961 130.058 115.859 130.161 115.729 130.161H114.809V131.387Z" fill="#005566"/>
<path d="M138.168 163.906H90.6413C86.395 163.906 82.9478 160.459 82.9478 156.213V145.174C82.9478 140.928 86.395 137.481 90.6413 137.481H113.053C117.299 137.481 120.746 140.928 120.746 145.174V148.073C120.746 152.32 117.299 155.767 113.053 155.767H108.741C108.611 155.767 108.509 155.665 108.509 155.535C108.509 155.405 108.611 155.302 108.741 155.302H113.053C117.039 155.302 120.282 152.06 120.282 148.073V145.174C120.282 141.188 117.039 137.945 113.053 137.945H90.6413C86.6552 137.945 83.4124 141.188 83.4124 145.174V156.213C83.4124 160.199 86.6552 163.442 90.6413 163.442H138.168C142.154 163.442 145.397 160.199 145.397 156.213V138.076C145.397 129.815 138.679 123.097 130.419 123.097H55.5839C55.4538 123.097 55.3516 122.995 55.3516 122.865C55.3516 122.735 55.4538 122.633 55.5839 122.633H130.419C138.939 122.633 145.862 129.564 145.862 138.076V156.213C145.862 160.459 142.414 163.906 138.168 163.906Z" fill="#005566"/>
<path d="M100.879 118.202C97.1804 118.202 91.9306 117.598 87.9074 114.746C85.4822 113.027 84.6646 111.308 84.6274 111.243C84.5716 111.122 84.6274 110.992 84.7389 110.936C84.8504 110.88 84.9898 110.936 85.0455 111.047C85.0548 111.066 85.8632 112.739 88.1954 114.392C90.3604 115.926 94.3093 117.747 100.869 117.747C100.999 117.747 101.102 117.849 101.102 117.979C101.102 118.109 100.999 118.202 100.879 118.202Z" fill="#005566"/>
<path d="M100.881 123.087C100.751 123.087 100.648 122.985 100.648 122.855V117.958C100.648 117.828 100.751 117.726 100.881 117.726C104.495 117.726 109.578 117.149 113.276 114.381C115.478 112.736 116.156 111.063 116.156 111.045C116.203 110.924 116.342 110.868 116.453 110.915C116.574 110.961 116.63 111.091 116.584 111.212C116.556 111.286 115.868 113.005 113.573 114.734C109.856 117.54 104.783 118.172 101.104 118.199V122.864C101.113 122.985 101.001 123.087 100.881 123.087Z" fill="#005566"/>
<path d="M130.224 123.086C130.196 123.086 130.159 123.077 130.131 123.068C125.987 121.274 122.865 118.152 120.979 115.848C118.934 113.358 117.847 111.258 117.829 111.23C117.773 111.119 117.819 110.979 117.931 110.914C118.042 110.858 118.182 110.905 118.247 111.016C118.293 111.1 122.558 119.267 130.317 122.631C130.437 122.677 130.484 122.817 130.437 122.938C130.4 123.04 130.307 123.086 130.224 123.086Z" fill="#005566"/>
<path d="M70.9892 123.085C70.8963 123.085 70.8127 123.029 70.7755 122.945C70.7291 122.825 70.7755 122.695 70.8963 122.639C78.6549 119.275 82.929 111.108 82.9662 111.024C83.022 110.913 83.1613 110.866 83.2821 110.922C83.3936 110.978 83.4401 111.117 83.3843 111.238C83.375 111.256 82.2879 113.356 80.2345 115.856C78.339 118.16 75.217 121.282 71.0822 123.075C71.0543 123.085 71.0264 123.085 70.9892 123.085Z" fill="#005566"/>
<path d="M78.4784 123.093C78.3483 123.093 78.2461 122.991 78.2461 122.861V117.49C78.2461 117.36 78.3483 117.258 78.4784 117.258C78.6085 117.258 78.7107 117.36 78.7107 117.49V122.861C78.7107 122.991 78.6085 123.093 78.4784 123.093Z" fill="#005566"/>
<path d="M122.733 123.093C122.603 123.093 122.5 122.991 122.5 122.861V117.49C122.5 117.36 122.603 117.258 122.733 117.258C122.863 117.258 122.965 117.36 122.965 117.49V122.861C122.965 122.991 122.863 123.093 122.733 123.093Z" fill="#005566"/>
<path d="M91.7635 123.087C91.6334 123.087 91.5312 122.985 91.5312 122.855V116.49C91.5312 116.36 91.6334 116.258 91.7635 116.258C91.8936 116.258 91.9958 116.36 91.9958 116.49V122.855C91.9958 122.985 91.8936 123.087 91.7635 123.087Z" fill="#005566"/>
<path d="M109.455 123.087C109.325 123.087 109.223 122.985 109.223 122.855V116.49C109.223 116.36 109.325 116.258 109.455 116.258C109.585 116.258 109.687 116.36 109.687 116.49V122.855C109.687 122.985 109.585 123.087 109.455 123.087Z" fill="#005566"/>
<path d="M118.683 130.168H115.729C115.599 130.168 115.496 130.065 115.496 129.935C115.496 129.805 115.599 129.703 115.729 129.703H118.683C118.814 129.703 118.916 129.805 118.916 129.935C118.916 130.065 118.804 130.168 118.683 130.168Z" fill="#005566"/>
<path d="M114.417 96.4231H87.619C87.4889 96.4231 87.3867 96.3209 87.3867 96.1908V86.5646C87.3867 86.4345 87.4889 86.3323 87.619 86.3323H94.1511L100.851 79.633C100.934 79.5494 101.092 79.5494 101.176 79.633L107.875 86.3323H114.407C114.537 86.3323 114.64 86.4345 114.64 86.5646V96.1815C114.649 96.3209 114.547 96.4231 114.417 96.4231ZM87.8513 95.9585H114.175V86.8062H107.782C107.717 86.8062 107.662 86.7783 107.615 86.7412L101.018 80.1441L94.4205 86.7412C94.3741 86.7876 94.3183 86.8062 94.2533 86.8062H87.8606V95.9585H87.8513Z" fill="#005566"/>
<path d="M101.018 88.4108C99.8565 88.4108 98.918 87.4723 98.918 86.3109C98.918 85.1494 99.8565 84.2109 101.018 84.2109C102.179 84.2109 103.118 85.1494 103.118 86.3109C103.118 87.4723 102.179 88.4108 101.018 88.4108ZM101.018 84.6755C100.117 84.6755 99.3826 85.4096 99.3826 86.3109C99.3826 87.2121 100.117 87.9462 101.018 87.9462C101.919 87.9462 102.653 87.2121 102.653 86.3109C102.653 85.4096 101.919 84.6755 101.018 84.6755Z" fill="#005566"/>
<path d="M100.194 87.2994C100.138 87.2994 100.073 87.2808 100.027 87.2343C99.9338 87.1414 99.9338 86.9927 100.027 86.909L100.789 86.1472V85.0135C100.789 84.8835 100.891 84.7812 101.021 84.7812C101.151 84.7812 101.253 84.8835 101.253 85.0135V86.2401C101.253 86.3052 101.225 86.3609 101.188 86.4074L100.361 87.2343C100.315 87.2715 100.25 87.2994 100.194 87.2994Z" fill="#005566"/>
<path d="M87.6207 86.7923C87.5743 86.7923 87.5278 86.783 87.4906 86.7552C87.3884 86.6808 87.3606 86.5415 87.4256 86.43L90.0737 82.5553C90.1202 82.4903 90.1852 82.4531 90.2688 82.4531H97.9623C98.0924 82.4531 98.1946 82.5553 98.1946 82.6854C98.1946 82.8155 98.0924 82.9177 97.9623 82.9177H90.3896L87.8158 86.6901C87.7694 86.7645 87.6951 86.7923 87.6207 86.7923Z" fill="#005566"/>
<path d="M114.418 86.7923C114.343 86.7923 114.269 86.7552 114.222 86.6901L111.649 82.9177H104.076C103.946 82.9177 103.844 82.8155 103.844 82.6854C103.844 82.5553 103.946 82.4531 104.076 82.4531H111.769C111.844 82.4531 111.918 82.4903 111.965 82.5553L114.613 86.43C114.687 86.5322 114.659 86.6808 114.548 86.7552C114.501 86.783 114.464 86.7923 114.418 86.7923Z" fill="#005566"/>
<path d="M107.784 86.7984H106.251C106.186 86.7984 106.13 86.7705 106.093 86.7334L101.029 81.7809L96.0861 86.7334C96.0397 86.7798 95.9839 86.7984 95.9189 86.7984H94.2557C94.1256 86.7984 94.0234 86.6962 94.0234 86.5661C94.0234 86.436 94.1256 86.3338 94.2557 86.3338H95.8167L100.853 81.2884C100.946 81.1955 101.085 81.1955 101.178 81.2884L106.344 86.3338H107.784C107.914 86.3338 108.017 86.436 108.017 86.5661C108.017 86.6962 107.914 86.7984 107.784 86.7984Z" fill="#005566"/>
<path d="M103.228 96.4228H101.017C100.887 96.4228 100.785 96.3206 100.785 96.1905V90.662C100.785 90.5319 100.887 90.4297 101.017 90.4297H103.228C103.359 90.4297 103.461 90.5319 103.461 90.662V96.1905C103.461 96.3206 103.349 96.4228 103.228 96.4228ZM101.249 95.9582H102.996V90.8943H101.249V95.9582Z" fill="#005566"/>
<path d="M100.99 96.4228H98.7792C98.6491 96.4228 98.5469 96.3206 98.5469 96.1905V90.662C98.5469 90.5319 98.6491 90.4297 98.7792 90.4297H100.99C101.12 90.4297 101.222 90.5319 101.222 90.662V96.1905C101.222 96.3206 101.111 96.4228 100.99 96.4228ZM99.0115 95.9582H100.758V90.8943H99.0115V95.9582Z" fill="#005566"/>
<path d="M92.4248 93.7363H90.1112C89.9811 93.7363 89.8789 93.6341 89.8789 93.504V89.8895C89.8789 89.6201 90.0926 89.4062 90.3621 89.4062H92.1739C92.4434 89.4062 92.6571 89.6201 92.6571 89.8895V93.504C92.6571 93.6341 92.5456 93.7363 92.4248 93.7363ZM90.3342 93.2717H92.1832V89.8895C92.1832 89.8802 92.1739 89.8708 92.1646 89.8708H90.3435C90.3342 89.8708 90.3249 89.8802 90.3249 89.8895V93.2717H90.3342Z" fill="#005566"/>
<path d="M95.8428 93.7363H93.5292C93.3991 93.7363 93.2969 93.6341 93.2969 93.504V89.8895C93.2969 89.6201 93.5106 89.4062 93.7801 89.4062H95.6013C95.8707 89.4062 96.0844 89.6201 96.0844 89.8895V93.504C96.0751 93.6341 95.9636 93.7363 95.8428 93.7363ZM93.7522 93.2717H95.6013V89.8895C95.6013 89.8802 95.592 89.8708 95.5827 89.8708H93.7615C93.7522 89.8708 93.7429 89.8802 93.7429 89.8895V93.2717H93.7522Z" fill="#005566"/>
<path d="M108.34 93.7363H106.017C105.887 93.7363 105.785 93.6341 105.785 93.504V89.8895C105.785 89.6201 105.998 89.4062 106.268 89.4062H108.089C108.358 89.4062 108.572 89.6201 108.572 89.8895V93.504C108.572 93.6341 108.461 93.7363 108.34 93.7363ZM106.249 93.2717H108.098V89.8895C108.098 89.8802 108.089 89.8708 108.08 89.8708H106.259C106.249 89.8708 106.24 89.8802 106.24 89.8895V93.2717H106.249Z" fill="#005566"/>
<path d="M111.761 93.7363H109.448C109.317 93.7363 109.215 93.6341 109.215 93.504V89.8895C109.215 89.6201 109.429 89.4062 109.698 89.4062H111.52C111.789 89.4062 112.003 89.6201 112.003 89.8895V93.504C111.993 93.6341 111.882 93.7363 111.761 93.7363ZM109.671 93.2717H111.52V89.8895C111.52 89.8802 111.51 89.8708 111.501 89.8708H109.68C109.671 89.8708 109.661 89.8802 109.661 89.8895V93.2717H109.671Z" fill="#005566"/>
<path d="M101.017 80.0289C100.887 80.0289 100.785 79.9267 100.785 79.7966V79.2391V77.5759C100.785 77.4459 100.887 77.3438 101.017 77.3438H104.139C104.241 77.3438 104.325 77.4087 104.362 77.5016C104.399 77.5945 104.362 77.6967 104.288 77.7618L103.451 78.4401L104.288 79.0998C104.362 79.1648 104.399 79.267 104.362 79.3599C104.325 79.4529 104.241 79.5179 104.139 79.5179L101.249 79.4807V79.8059C101.249 79.9267 101.147 80.0289 101.017 80.0289ZM101.249 79.007L103.461 79.0347L102.931 78.6166C102.875 78.5701 102.847 78.5051 102.847 78.4401C102.847 78.3657 102.875 78.3007 102.931 78.2542L103.489 77.799H101.249V79.007Z" fill="#005566"/>
<path d="M52.8503 109.182H42.2206C42.0906 109.182 41.9883 109.079 41.9883 108.949V99.0722C41.9883 98.2266 42.6759 97.5391 43.5215 97.5391H51.5495C52.395 97.5391 53.0826 98.2266 53.0826 99.0722V108.949C53.0826 109.079 52.9804 109.182 52.8503 109.182ZM42.4529 108.717H52.618V99.0722C52.618 98.4775 52.1348 98.0036 51.5495 98.0036H43.5215C42.9268 98.0036 42.4529 98.4868 42.4529 99.0722V108.717Z" fill="#005566"/>
<path d="M54.9402 109.178H40.1385C40.0084 109.178 39.9062 109.075 39.9062 108.945V97.3957C39.9062 96.2714 40.8262 95.3516 41.9505 95.3516H53.1283C54.2525 95.3516 55.1725 96.2714 55.1725 97.3957V108.945C55.1725 109.075 55.0703 109.178 54.9402 109.178ZM40.3708 108.713H54.7079V97.3957C54.7079 96.5223 54.0017 95.8161 53.1283 95.8161H41.9505C41.0771 95.8161 40.3708 96.5223 40.3708 97.3957V108.713Z" fill="#005566"/>
<path d="M42.2212 109.179C42.1655 109.179 42.1005 109.16 42.054 109.114C41.9611 109.021 41.9611 108.872 42.054 108.788L45.7056 105.137C45.7521 105.09 45.8079 105.072 45.873 105.072L49.1901 105.062C49.2551 105.062 49.3108 105.09 49.3572 105.127L53.0182 108.788C53.1111 108.881 53.1111 109.03 53.0182 109.114C52.9252 109.206 52.7767 109.206 52.693 109.114L49.0971 105.519L45.9752 105.527L42.3885 109.114C42.342 109.151 42.277 109.179 42.2212 109.179Z" fill="#005566"/>
<path d="M49.1356 105.525H45.9393C45.8092 105.525 45.707 105.423 45.707 105.293V101.966C45.707 101.623 45.9858 101.344 46.3296 101.344H48.7454C49.0892 101.344 49.3679 101.623 49.3679 101.966V105.293C49.3679 105.414 49.2657 105.525 49.1356 105.525ZM46.1716 105.061H48.9034V101.966C48.9034 101.883 48.829 101.808 48.7454 101.808H46.3296C46.2459 101.808 46.1716 101.883 46.1716 101.966V105.061Z" fill="#005566"/>
<path d="M47.537 108.548C47.4069 108.548 47.3047 108.445 47.3047 108.315V107.545C47.3047 107.415 47.4069 107.312 47.537 107.312C47.6671 107.312 47.7693 107.415 47.7693 107.545V108.315C47.7693 108.445 47.6671 108.548 47.537 108.548Z" fill="#005566"/>
<path d="M47.537 107.254C47.4069 107.254 47.3047 107.152 47.3047 107.022V106.529C47.3047 106.399 47.4069 106.297 47.537 106.297C47.6671 106.297 47.7693 106.399 47.7693 106.529V107.022C47.7693 107.152 47.6671 107.254 47.537 107.254Z" fill="#005566"/>
<path d="M47.537 106.312C47.4069 106.312 47.3047 106.209 47.3047 106.079V105.912C47.3047 105.782 47.4069 105.68 47.537 105.68C47.6671 105.68 47.7693 105.782 47.7693 105.912V106.079C47.7693 106.209 47.6671 106.312 47.537 106.312Z" fill="#005566"/>
<path d="M55.5814 123.092H43.5858C41.5509 123.092 39.9062 121.438 39.9062 119.412V119.301C39.9062 117.266 41.5602 115.621 43.5858 115.621H65.0031C66.7778 115.621 68.2179 114.181 68.2179 112.406C68.2179 110.631 66.7778 109.191 65.0031 109.191H54.9402C54.8101 109.191 54.7079 109.089 54.7079 108.959C54.7079 108.829 54.8101 108.727 54.9402 108.727H65.0031C67.038 108.727 68.6825 110.381 68.6825 112.406C68.6825 114.432 67.0287 116.086 65.0031 116.086H43.5858C41.8111 116.086 40.3708 117.526 40.3708 119.301V119.412C40.3708 121.187 41.8111 122.627 43.5858 122.627H55.5814C55.7114 122.627 55.8135 122.729 55.8135 122.859C55.8135 122.989 55.7114 123.092 55.5814 123.092Z" fill="#005566"/>
<path d="M179.795 132.234C176.608 132.234 174.015 129.642 174.015 126.455V112.201H161.444L157.625 112.155C157.532 112.155 157.448 112.099 157.411 112.016C156.909 110.882 156.677 109.46 156.714 107.806C156.714 107.676 156.816 107.583 156.947 107.583C156.947 107.583 156.947 107.583 156.956 107.583C157.086 107.583 157.188 107.695 157.179 107.825C157.142 109.349 157.346 110.659 157.783 111.709L161.444 111.755H174.015V106.013C174.015 96.9444 166.638 89.5668 157.569 89.5668H135.297C133.336 89.5668 131.738 87.9687 131.738 86.0081C131.738 84.0476 133.336 82.4494 135.297 82.4494H137.536C138.846 82.4494 140.695 81.6317 141.569 80.6561L149.746 71.5875C150.071 71.2251 150.535 71.0207 151.018 71.0207C151.502 71.0207 151.966 71.2251 152.291 71.5875L155.46 75.0904C155.711 75.3692 156.055 75.5271 156.426 75.5364C156.798 75.5457 157.151 75.4156 157.42 75.1555L163.386 69.3946C164.064 68.7442 165.142 68.7628 165.802 69.4318L171.934 75.7687C172.231 76.0753 172.64 76.2426 173.068 76.224C173.495 76.2054 173.885 76.0103 174.155 75.6851L181.402 66.9416C181.681 66.5978 182.22 66.3655 182.833 66.3098C183.428 66.254 183.957 66.3841 184.283 66.6629C184.561 66.9045 184.747 67.1553 184.998 67.5084L194.28 79.6991C194.29 79.7177 194.299 79.727 194.308 79.7455C194.346 79.8292 195.265 81.7711 198.322 81.864H198.415C200.181 81.9198 201.835 82.6445 203.07 83.9175C204.306 85.1905 204.984 86.863 204.984 88.6284V105.409C204.984 108.912 207.837 111.765 211.34 111.765C214.843 111.765 217.695 108.912 217.695 105.409V80.2845C217.695 73.3343 214.992 66.8115 210.076 61.8962C205.161 56.981 198.638 54.2771 191.688 54.2771H152.988C152.858 54.2771 152.756 54.1749 152.756 54.0448C152.756 53.9147 152.858 53.8125 152.988 53.8125H191.688C198.759 53.8125 205.403 56.5628 210.401 61.5617C215.4 66.5607 218.151 73.2042 218.151 80.2752V105.372C218.151 109.135 215.094 112.192 211.331 112.192C207.568 112.192 204.511 109.135 204.511 105.372V88.6005C204.511 86.9559 203.879 85.3949 202.736 84.2148C201.593 83.0348 200.051 82.3565 198.406 82.31H198.313C195.117 82.2171 194.03 80.2101 193.9 79.9407L184.636 67.7686C184.636 67.7686 184.636 67.7593 184.626 67.7593C184.394 67.4155 184.236 67.2018 183.995 66.9974C183.762 66.8022 183.344 66.7093 182.889 66.7558C182.406 66.8022 181.969 66.9788 181.774 67.2204L174.526 75.9638C174.173 76.3912 173.653 76.6514 173.095 76.67C172.538 76.6886 171.999 76.4749 171.618 76.0753L165.486 69.7384C165.012 69.246 164.222 69.2367 163.729 69.7105L157.764 75.4714C157.402 75.8152 156.937 76.001 156.436 75.9824C155.934 75.9638 155.478 75.7501 155.144 75.3785L151.976 71.8755C151.734 71.6153 151.399 71.4574 151.046 71.4574C150.693 71.4574 150.349 71.606 150.117 71.8755L141.941 80.9442C140.974 82.022 139.004 82.8954 137.555 82.8954H135.316C133.606 82.8954 132.221 84.2799 132.221 85.9895C132.221 87.6992 133.606 89.0837 135.316 89.0837H157.588C166.917 89.0837 174.499 96.6749 174.499 105.995V111.737H180.129C183.14 111.737 185.593 114.19 185.593 117.2V126.455C185.574 129.642 182.982 132.234 179.795 132.234ZM174.48 112.201V126.455C174.48 129.382 176.868 131.77 179.795 131.77C182.722 131.77 185.11 129.382 185.11 126.455V117.2C185.11 114.45 182.87 112.201 180.111 112.201H174.48Z" fill="#005566"/>
</svg>
