<?xml version="1.0" encoding="utf-8"?>
<!-- Generator: Adobe Illustrator 26.4.1, SVG Export Plug-In . SVG Version: 6.00 Build 0)  -->
<svg version="1.1" id="Layer_1" xmlns="http://www.w3.org/2000/svg" xmlns:xlink="http://www.w3.org/1999/xlink" x="0px"
     y="0px"
     height="320" width="267" viewBox="0 0 2400 2000" style="enable-background:new 0 0 2400 2000;">
    <g>
        <g>
            <path fill="#FFFFFF" d="M1792.4,810.7c-1.4,0-2.8-0.2-4.1-0.7c-4.1-1.4-7.3-4.7-8.4-8.9l-2.7-10.2c-0.4-1.6-1.7-2.9-3.3-3.3
			c-1.6-0.5-3.3,0-4.5,1.1l-5.4,5.2c-2.4,2.6-5.8,3.9-9.4,3.6c-3.6-0.3-6.7-2.3-8.6-5.4l-11.8-19.3c-0.7-1.2-0.3-2.7,0.8-3.4
			c1.2-0.7,2.7-0.4,3.4,0.8l11.8,19.3c1,1.7,2.8,2.8,4.8,3c2,0.2,3.9-0.6,5.3-2c0,0,0.1-0.1,0.1-0.1l5.4-5.2c2.5-2.4,6-3.3,9.3-2.4
			c3.3,0.9,5.9,3.5,6.8,6.8l2.7,10.2c0.7,2.6,2.6,4.6,5.2,5.5c2.6,0.9,5.3,0.4,7.4-1.3l22.4-17.5c1.1-0.8,2.7-0.7,3.5,0.4
			c0.9,1.1,0.7,2.7-0.4,3.5l-22.4,17.5C1798.1,809.7,1795.3,810.7,1792.4,810.7z"/>
        </g>
        <g>
            <path fill="#FFFFFF" d="M1947,777.6c-3.3,0-6.7-1.1-9.4-3.4l-15.8-13c-1.1-0.9-1.2-2.5-0.3-3.5c0.9-1.1,2.5-1.2,3.5-0.3l15.8,13
			c3.5,2.9,8.6,3,12.2,0.2l17.4-13.2c4.8-3.6,11.3-3.5,15.9,0.4l6.8,5.8c3.4,2.8,8.2,3,11.7,0.4l7.6-5.7c1.1-0.8,2.7-0.6,3.5,0.5
			c0.8,1.1,0.6,2.7-0.5,3.5l-7.6,5.8c-5.4,4-12.8,3.7-17.9-0.6l-6.8-5.8c-2.8-2.4-6.8-2.5-9.7-0.2l-17.4,13.2
			C1953.3,776.6,1950.1,777.6,1947,777.6z"/>
        </g>
        <g>
            <path fill="#FFFFFF" d="M1530.6,563h-158.4c-1.4,0-2.5-1.1-2.5-2.5s1.1-2.5,2.5-2.5h158.4c6.7,0,13-2.6,17.7-7.4
			c4.7-4.8,7.2-11.1,7.1-17.8c-0.2-16.1-0.7-32.2-1.3-47.9c-1.9-47.1-6.1-112.3-15.4-155.4c-0.3-1.3,0.6-2.7,1.9-3
			c1.4-0.3,2.7,0.6,3,1.9c9.4,43.4,13.6,108.9,15.5,156.2c0.6,15.7,1.1,31.9,1.3,48c0.2,8-2.9,15.6-8.5,21.3
			C1546.2,559.9,1538.6,563,1530.6,563z"/>
        </g>
        <g>
            <path fill="#FFFFFF" d="M819.5,563H704.8c-6.7,0-13.2-1.6-18.7-4.7L660,544.4c-13-6.9-21.1-20.4-21.1-35.2v-189
			c0-22,17.9-39.8,39.9-39.8h837.3c10,0,17.9,11.7,24.3,35.7c0.4,1.3-0.4,2.7-1.8,3.1c-1.3,0.4-2.7-0.4-3.1-1.8
			c-5.5-20.6-12.4-32-19.5-32H678.8c-19.3,0-34.9,15.6-34.9,34.8v189c0,12.9,7.1,24.7,18.5,30.8l26.1,13.9
			c4.8,2.7,10.5,4.1,16.4,4.1h114.7c1.4,0,2.5,1.1,2.5,2.5S820.9,563,819.5,563z"/>
        </g>
        <g>
            <path fill="#FFFFFF" d="M1273.8,563H920.1c-1.4,0-2.5-1.1-2.5-2.5s1.1-2.5,2.5-2.5h353.8c1.4,0,2.5,1.1,2.5,2.5
			S1275.2,563,1273.8,563z"/>
        </g>
        <g>
            <path fill="#FFFFFF" d="M868.6,596.7c-30.4,0-55.2-24.8-55.2-55.2c0-30.4,24.8-55.2,55.2-55.2c30.4,0,55.2,24.8,55.2,55.2
			C923.8,572,899,596.7,868.6,596.7z M868.6,491.4c-27.7,0-50.2,22.5-50.2,50.2s22.5,50.2,50.2,50.2s50.2-22.5,50.2-50.2
			S896.3,491.4,868.6,491.4z"/>
        </g>
        <g>
            <path fill="#FFFFFF" d="M1323,596.7c-30.4,0-55.2-24.8-55.2-55.2c0-30.4,24.8-55.2,55.2-55.2s55.2,24.8,55.2,55.2
			C1378.2,572,1353.5,596.7,1323,596.7z M1323,491.4c-27.7,0-50.2,22.5-50.2,50.2s22.5,50.2,50.2,50.2s50.2-22.5,50.2-50.2
			S1350.7,491.4,1323,491.4z"/>
        </g>
        <g>
            <path fill="#FFFFFF" d="M1011.8,436.1H668.8c-2.6,0-4.7-2.1-4.7-4.7V314.5c0-2.6,2.1-4.7,4.7-4.7h342.9c2.6,0,4.7,2.1,4.7,4.7v116.9
			C1016.5,434,1014.4,436.1,1011.8,436.1z M669.2,431.1h342.3V314.8H669.2V431.1z"/>
        </g>
        <g>
            <path fill="#FFFFFF" d="M1377.8,436.1h-205.7c-2.6,0-4.7-2.1-4.7-4.7V314.5c0-2.6,2.1-4.7,4.7-4.7h205.7c2.6,0,4.7,2.1,4.7,4.7v116.9
			C1382.5,434,1380.4,436.1,1377.8,436.1z M1172.4,431.1h205V314.8h-205V431.1z"/>
        </g>
        <g>
            <path fill="#FFFFFF" d="M1484.8,544.1h-86.9c-1.4,0-2.5-1.1-2.5-2.5V318.4c0-2.3,1.8-4.1,4.1-4.1h83.7c2.3,0,4.1,1.8,4.1,4.1v223.2
			C1487.3,542.9,1486.2,544.1,1484.8,544.1z M1400.4,539.1h81.9V319.2h-81.9V539.1z"/>
        </g>
        <g>
            <path fill="#FFFFFF" d="M1550.4,487.6c-13.2,0-39.2-3-43.5-26.4c-5.4-29.3-8.9-172.3-9.1-178.3c0-1.4,1.1-2.5,2.4-2.6
			c1.4,0,2.5,1.1,2.6,2.4c0,1.5,3.7,148.6,9,177.5c2,11.1,10.2,18.2,24.2,21c10.9,2.2,21.2,1,21.3,0.9c1.4-0.2,2.6,0.8,2.8,2.2
			c0.2,1.4-0.8,2.6-2.2,2.8C1558,487.3,1555,487.6,1550.4,487.6z"/>
        </g>
        <g>
            <path fill="#FFFFFF" d="M1151.5,544.1h-118.1c-1.4,0-2.5-1.1-2.5-2.5V314.3c0-2.5,2-4.5,4.5-4.5h114.2c2.5,0,4.5,2,4.5,4.5v227.3
			C1154,542.9,1152.9,544.1,1151.5,544.1z M1035.9,539.1H1149V314.8h-113.1V539.1z"/>
        </g>
        <g>
            <path fill="#FFFFFF" d="M868.6,578c-20.1,0-36.4-16.3-36.4-36.4s16.3-36.4,36.4-36.4s36.4,16.3,36.4,36.4S888.7,578,868.6,578z
			 M868.6,510.1c-17.3,0-31.4,14.1-31.4,31.4s14.1,31.4,31.4,31.4c17.3,0,31.4-14.1,31.4-31.4S885.9,510.1,868.6,510.1z"/>
        </g>
        <g>
            <path fill="#FFFFFF" d="M1323,578c-20.1,0-36.4-16.3-36.4-36.4s16.3-36.4,36.4-36.4c20.1,0,36.4,16.3,36.4,36.4S1343.1,578,1323,578z
			 M1323,510.1c-17.3,0-31.4,14.1-31.4,31.4s14.1,31.4,31.4,31.4s31.4-14.1,31.4-31.4S1340.4,510.1,1323,510.1z"/>
        </g>
        <g>
            <path fill="#FFFFFF" d="M1646.7,584.1H1357c-1.4,0-2.5-1.1-2.5-2.5s1.1-2.5,2.5-2.5h289.8c1.4,0,2.5,1.1,2.5,2.5
			S1648.1,584.1,1646.7,584.1z"/>
        </g>
        <g>
            <path fill="#FFFFFF" d="M1289.1,584.1H902.8c-1.4,0-2.5-1.1-2.5-2.5s1.1-2.5,2.5-2.5h386.3c1.4,0,2.5,1.1,2.5,2.5
			S1290.5,584.1,1289.1,584.1z"/>
        </g>
        <g>
            <path fill="#FFFFFF" d="M834.4,584.1H641.3c-1.4,0-2.5-1.1-2.5-2.5s1.1-2.5,2.5-2.5h193.1c1.4,0,2.5,1.1,2.5,2.5
			S835.8,584.1,834.4,584.1z"/>
        </g>
        <g>
            <path fill="#FFFFFF" d="M1574.7,353.3c-1.8,0-3.5-0.7-4.9-2.1c-0.2-0.2-0.4-0.5-0.6-0.9l-3.1-8l-3.7-10.8h-59.3
			c-0.7,0-1.4-0.3-1.8-0.8c-0.5-0.5-0.7-1.2-0.7-1.9l1-12.4c0.1-1.3,1.2-2.3,2.5-2.3h67c6.4,0,11.8,4.8,12.5,11.2l1.7,14.8
			c0.6,5.3-3.1,10.4-7,12.3C1577,353,1575.8,353.3,1574.7,353.3z M1573.6,348c0.4,0.3,1.1,0.6,2.4,0c2.2-1.1,4.5-4.4,4.2-7.2
			l-1.7-14.8c-0.4-3.8-3.7-6.7-7.5-6.7h-64.7l-0.6,7.4h58.3c1.1,0,2,0.7,2.4,1.7l4.3,12.4L1573.6,348z"/>
        </g>
        <g>
            <path fill="#FFFFFF" d="M511.6,784.5c-8.7,0-15.8-7.1-15.8-15.8s7.1-15.8,15.8-15.8c8.7,0,15.8,7.1,15.8,15.8
			S520.3,784.5,511.6,784.5z M511.6,757.9c-6,0-10.8,4.8-10.8,10.8s4.8,10.8,10.8,10.8s10.8-4.8,10.8-10.8S517.6,757.9,511.6,757.9z
			"/>
        </g>
        <g>
            <path fill="#FFFFFF" d="M511.6,747.6c-8.7,0-15.8-7.1-15.8-15.8s7.1-15.8,15.8-15.8c8.7,0,15.8,7.1,15.8,15.8
			S520.3,747.6,511.6,747.6z M511.6,721c-6,0-10.8,4.8-10.8,10.8s4.8,10.8,10.8,10.8s10.8-4.8,10.8-10.8S517.6,721,511.6,721z"/>
        </g>
        <g>
            <path fill="#FFFFFF" d="M511.6,710.7c-8.7,0-15.8-7.1-15.8-15.8c0-8.7,7.1-15.8,15.8-15.8c8.7,0,15.8,7.1,15.8,15.8
			C527.4,703.6,520.3,710.7,511.6,710.7z M511.6,684.1c-6,0-10.8,4.8-10.8,10.8s4.8,10.8,10.8,10.8s10.8-4.8,10.8-10.8
			S517.6,684.1,511.6,684.1z"/>
        </g>
        <g>
            <path fill="#FFFFFF" d="M1397.9,544.1h-22.2c-1.4,0-2.5-1.1-2.5-2.5s1.1-2.5,2.5-2.5h22.2c1.4,0,2.5,1.1,2.5,2.5
			S1399.3,544.1,1397.9,544.1z"/>
        </g>
        <g>
            <path fill="#FFFFFF" d="M1033.4,544.1H921.3c-1.4,0-2.5-1.1-2.5-2.5s1.1-2.5,2.5-2.5h112.2c1.4,0,2.5,1.1,2.5,2.5
			S1034.8,544.1,1033.4,544.1z"/>
        </g>
        <g>
            <path fill="none" stroke="#FFFFFF" stroke-width="5" stroke-linecap="round" stroke-linejoin="round"
                  stroke-miterlimit="10" d="M993.3,433.6"/>
        </g>
        <g>
            <path fill="#FFFFFF" d="M1709.4,1146.9c-7.6,0-19.5-5.4-24.7-8.2c-1.2-0.7-1.7-2.2-1-3.4c0.7-1.2,2.2-1.7,3.4-1
			c5.4,2.9,16.2,7.6,22.3,7.6c20.1,0,36.5-16.4,36.5-36.5c0-13.7-7.6-26.2-19.9-32.5c-0.8-0.4-1.4-1.3-1.4-2.2c0-0.2,0-0.3,0-0.5
			c0-12.9-8.8-24-21.5-26.9c-1-0.2-1.7-1-1.9-1.9c-2.1-10.3-11.2-17.7-21.6-17.7c-10.6,0-19.7,7.5-21.7,17.8c-0.2,1-0.9,1.7-1.9,2
			c-12.4,3-21,14-21.1,26.7c0,0.2,0,0.3,0,0.5c0,0.9-0.5,1.8-1.4,2.2c-12.5,6.2-20.2,18.7-20.2,32.6c0,20.1,16.4,36.5,36.5,36.5
			c6.1,0,12.1-1.5,17.4-4.4c1.2-0.7,2.7-0.2,3.4,1c0.7,1.2,0.2,2.7-1,3.4c-6,3.3-12.9,5-19.8,5c-22.9,0-41.5-18.6-41.5-41.5
			c0-15.2,8.2-29,21.6-36.3c0.5-14,9.9-26.1,23.3-30.1c3-11.9,13.8-20.3,26.2-20.3c12.3,0,23.1,8.4,26.2,20.2
			c13.8,3.8,23.4,16,23.8,30.4c13.1,7.3,21.2,21.1,21.2,36.2C1750.9,1128.3,1732.3,1146.9,1709.4,1146.9z"/>
        </g>
        <g>
            <path fill="none" stroke="#FFFFFF" stroke-width="5" stroke-linecap="round" stroke-linejoin="round"
                  stroke-miterlimit="10" d="M1623.9,1108"/>
        </g>
        <g>
            <path fill="#FFFFFF" d="M1689.2,1162.7c-0.4,0-0.8-0.1-1.2-0.3c-1.2-0.7-1.6-2.2-1-3.4c0.4-0.7,10-17.9,24.4-17.1
			c1.4,0.1,2.4,1.3,2.4,2.6c-0.1,1.3-1.2,2.4-2.5,2.4c0,0-0.1,0-0.1,0c-11.2-0.6-19.7,14.4-19.8,14.6
			C1690.9,1162.2,1690,1162.7,1689.2,1162.7z"/>
        </g>
        <g>
            <path fill="none" stroke="#FFFFFF" stroke-width="5" stroke-linecap="round" stroke-linejoin="round"
                  stroke-miterlimit="10" d="M1661.3,1142.7"/>
        </g>
        <g>
            <path fill="#FFFFFF" d="M1687,1147.8c-0.3,0-0.7-0.1-1-0.2c-0.8-0.4-1.4-1.1-1.5-2l-1.1-8.8c-0.2-1.4,0.8-2.6,2.2-2.8
			c1.4-0.2,2.6,0.8,2.8,2.2l0.6,4.7l2.9-2c1.1-0.8,2.7-0.5,3.5,0.6c0.8,1.1,0.5,2.7-0.6,3.5l-6.3,4.4
			C1688,1147.6,1687.6,1147.8,1687,1147.8z"/>
        </g>
        <g>
            <path fill="#FFFFFF" d="M1663,1207h-206.2c-48.1,0-87.2-39.1-87.2-87.2c0-45.3-36.9-82.2-82.2-82.2H898.6c-0.7,0-1.3-0.3-1.8-0.7
			L752.3,892.3l-172,0.3h-60.4c-1.4,0-2.5-1.1-2.5-2.5v-92.8c0-1.4,1.1-2.5,2.5-2.5h10.9c2.1,0,3.7-1.7,3.7-3.7V674
			c0-2.1-1.7-3.7-3.7-3.7h-39.6c-2.1,0-3.7,1.7-3.7,3.7v117.1c0,2.1,1.7,3.7,3.7,3.7h13.1c1.4,0,2.5,1.1,2.5,2.5v92.8
			c0,1.4-1.1,2.5-2.5,2.5H260.4v152.6c0,68.8,56,124.8,124.8,124.8H432c1.4,0,2.5,1.1,2.5,2.5s-1.1,2.5-2.5,2.5h-46.8
			c-71.6,0-129.8-58.2-129.8-129.8V892.6h-99.2c-57.5,0-104.2-46.8-104.2-104.2v-18.8c0-57.5,46.8-104.2,104.2-104.2
			c57.5,0,104.2,46.8,104.2,104.2v118.1h241.4v-87.8h-10.6c-4.8,0-8.7-3.9-8.7-8.7V674c0-4.8,3.9-8.7,8.7-8.7h39.6
			c4.8,0,8.7,3.9,8.7,8.7v117.1c0,4.8-3.9,8.7-8.7,8.7h-8.4v87.8h57.9l173-0.3c0,0,0,0,0,0c0.7,0,1.3,0.3,1.8,0.7l144.6,144.6h387.8
			c48.1,0,87.2,39.1,87.2,87.2c0,45.3,36.9,82.2,82.2,82.2h204.5c7.9-19.3,7.2-43.1,5.1-60.4c-28.6-8-28.3-29.8-28.3-30
			c0-1.4,1.2-2.4,2.5-2.4c0,0,0,0,0.1,0c1.4,0,2.5,1.2,2.4,2.6c0,0.9,0.1,19,26.2,25.5c1,0.2,1.7,1.1,1.9,2.1
			c2.5,18.5,3.5,44.9-5.9,66.2C1664.9,1206.4,1664,1207,1663,1207z M156.1,670.3c-54.7,0-99.2,44.5-99.2,99.2v18.8
			c0,54.7,44.5,99.2,99.2,99.2h99.2V769.5C255.4,714.8,210.9,670.3,156.1,670.3z"/>
        </g>
        <g>
            <path fill="#FFFFFF" d="M1670.3,1101.5C1670.3,1101.5,1670.3,1101.5,1670.3,1101.5c-1.5,0-2.5-1.2-2.5-2.6c0-0.3,1.5-31.9,38-31.9
			c1.4,0,2.5,1.1,2.5,2.5s-1.1,2.5-2.5,2.5c-31.8,0-33,26-33,27.1C1672.8,1100.4,1671.7,1101.5,1670.3,1101.5z"/>
        </g>
        <g>
            <path fill="none" stroke="#FFFFFF" stroke-width="5" stroke-linecap="round" stroke-linejoin="round"
                  stroke-miterlimit="10" d="M1654.6,1144.1"/>
        </g>
        <g>
            <path fill="#FFFFFF" d="M1669.1,1155.1c-2.4,0-5.7-1.5-8.8-3.2c-2.1-1.1-4.1-2.3-5.4-3.4c-1-0.7-3.8-3-2.5-5.5c0.6-1.2,2.2-1.7,3.4-1
			c0.7,0.4,1.2,1.1,1.3,1.9c1.7,1.9,9.2,5.9,11.7,6.2c0.7-0.4,1.6-0.4,2.3,0c1.2,0.6,1.7,2.2,1,3.4
			C1671.5,1154.6,1670.5,1155.1,1669.1,1155.1z M1656.8,1145.3C1656.8,1145.3,1656.8,1145.3,1656.8,1145.3
			C1656.8,1145.3,1656.8,1145.3,1656.8,1145.3z"/>
        </g>
        <g>
            <path fill="#FFFFFF" d="M1013.8,1676.4c-0.5,0-1-0.2-1.4-0.4c-0.7-0.5-1.1-1.2-1.1-2.1v-118c0-1,0.7-2,1.6-2.3l52.2-19.4
			c0.8-0.3,1.6-0.2,2.3,0.3c0.7,0.5,1.1,1.2,1.1,2.1v1.1c0,0.4-0.1,0.7-0.2,1c-1.9,4.1-2.8,8.5-2.8,13c0,4.4,1,9.2,2.9,14.4
			c0.1,0.3,0.2,0.6,0.2,0.9v87.6c0,1-0.7,2-1.6,2.3l-52.2,19.3C1014.4,1676.4,1014.1,1676.4,1013.8,1676.4z M1016.3,1557.7v112.6
			l47.2-17.5v-85.4c-2-5.6-3-10.9-3-15.7c0-3.8,0.6-7.5,1.7-11.1L1016.3,1557.7z"/>
        </g>
        <g>
            <path fill="#FFFFFF" d="M1118.1,1695.8c-0.5,0-1.1-0.2-1.5-0.5l-52.1-38.7c-0.6-0.5-1-1.2-1-2V1567c0-1.2,0.9-2.2,2.1-2.5
			c1.2-0.2,2.4,0.5,2.8,1.6c6.7,18,23.1,35.6,28.5,41.1c3.6-3.9,12-13.4,19.2-24.4c0.6-0.9,1.7-1.3,2.8-1c1.1,0.3,1.8,1.3,1.8,2.4
			v109.1c0,0.9-0.5,1.8-1.4,2.2C1118.9,1695.7,1118.5,1695.8,1118.1,1695.8z M1068.5,1653.3l47.1,35v-96.1
			c-8.4,11.5-16.5,19.9-16.9,20.4c-1,1-2.5,1-3.5,0.1c-0.8-0.7-16.7-15.9-26.7-34.3V1653.3z"/>
        </g>
        <g>
            <path fill="#FFFFFF" d="M1118.1,1695.8c-1,0-2-0.6-2.3-1.6c-0.5-1.3,0.2-2.7,1.5-3.2l50.5-18.8v-112.6l-42.1,15.6
			c-1.3,0.5-2.7-0.2-3.2-1.5c-0.5-1.3,0.2-2.7,1.5-3.2l45.5-16.9c0.8-0.3,1.6-0.2,2.3,0.3c0.7,0.5,1.1,1.2,1.1,2.1v118
			c0,1-0.6,2-1.6,2.3l-52.1,19.4C1118.7,1695.7,1118.4,1695.8,1118.1,1695.8z"/>
        </g>
        <g>
            <path fill="none" stroke="#FFFFFF" stroke-width="5" stroke-linecap="round" stroke-linejoin="round"
                  stroke-miterlimit="10" d="M1096.9,1517.8c-13.4,0-25,7.8-30.5,19.1c-0.1,0.3-0.3,0.6-0.4,0.8c-2,4.3-3,9-3,14.1c0,5,1.2,10.2,3,15.3
			c8.4,22.5,30.9,43.8,30.9,43.8s11.6-11.9,21.2-26.6c2.4-3.7,4.7-7.5,6.6-11.4c3.6-7.2,6.1-14.5,6.1-21.1
			C1130.8,1533,1115.6,1517.8,1096.9,1517.8z M1109.3,1568.8c-3.5,2.6-7.8,4.1-12.5,4.1c-11.7,0-21.2-9.5-21.2-21.2
			c0-2.4,0.4-4.8,1.2-6.9c2.9-8.3,10.8-14.3,20.1-14.3c11.7,0,21.2,9.5,21.2,21.2C1118.1,1558.7,1114.7,1564.9,1109.3,1568.8z"/>
        </g>
        <g>
            <path fill="#FFFFFF" d="M1096.9,1575.3c-13.1,0-23.7-10.6-23.7-23.7c0-2.6,0.4-5.3,1.3-7.8c3.3-9.6,12.3-16,22.4-16
			c13.1,0,23.7,10.6,23.7,23.7c0,7.6-3.7,14.8-9.8,19.2C1106.8,1573.7,1101.9,1575.3,1096.9,1575.3z M1096.9,1532.8
			c-8,0-15.1,5.1-17.7,12.6c-0.7,2-1,4-1,6.1c0,10.3,8.4,18.7,18.7,18.7c4,0,7.8-1.2,11-3.6c4.9-3.5,7.8-9.2,7.8-15.2
			C1115.6,1541.2,1107.2,1532.8,1096.9,1532.8z"/>
        </g>
        <g>
            <path fill="#FFFFFF" d="M1607.3,810.7c-3.2,0-6.3-1.3-8.5-3.5l-9.2-9.2c-1-1-1-2.6,0-3.5c1-1,2.6-1,3.5,0l9.2,9.2
			c1.3,1.3,3.1,2.1,5,2.1s3.7-0.7,5-2.1l6.4-6.4c4.7-4.7,12.4-4.7,17.1,0c1.3,1.3,3.1,2.1,5,2.1s3.7-0.7,5-2.1l8.5-8.5
			c1-1,2.6-1,3.5,0c1,1,1,2.6,0,3.5l-8.5,8.5c-2.3,2.3-5.3,3.5-8.5,3.5c-3.2,0-6.3-1.3-8.5-3.5c-2.8-2.8-7.2-2.8-10,0l-6.4,6.4
			C1613.6,809.5,1610.5,810.7,1607.3,810.7z"/>
        </g>
        <g>
            <path fill="#FFFFFF" d="M932.4,1419.1h-56.5c-1.4,0-2.5-1.1-2.5-2.5v-18.2c0-1.4,1.1-2.5,2.5-2.5h56.5c1.4,0,2.5,1.1,2.5,2.5v18.2
			C934.9,1417.9,933.8,1419.1,932.4,1419.1z M878.4,1414.1h51.5v-13.2h-51.5V1414.1z"/>
        </g>
        <g>
            <path fill="#FFFFFF" d="M913.1,1324.7h-17.9c-1.4,0-2.5-1.1-2.5-2.5v-151c0-1.4,1.1-2.5,2.5-2.5h17.9c1.4,0,2.5,1.1,2.5,2.5v151
			C915.6,1323.6,914.5,1324.7,913.1,1324.7z M897.7,1319.7h12.9v-146h-12.9V1319.7z"/>
        </g>
        <g>
            <path fill="#FFFFFF" d="M920,1400.9h-31.8c-1.4,0-2.5-1.1-2.5-2.5v-12.6c0-1.4,1.1-2.5,2.5-2.5h4.4v-61c0-1.4,1.1-2.5,2.5-2.5h17.9
			c1.4,0,2.5,1.1,2.5,2.5v61h4.4c1.4,0,2.5,1.1,2.5,2.5v12.6C922.5,1399.8,921.4,1400.9,920,1400.9z M890.8,1395.9h26.8v-7.6h-4.4
			c-1.4,0-2.5-1.1-2.5-2.5v-61h-12.9v61c0,1.4-1.1,2.5-2.5,2.5h-4.4V1395.9z"/>
        </g>
        <g>
            <path fill="#FFFFFF" d="M1270.3,1324.7h-17.9c-1.4,0-2.5-1.1-2.5-2.5v-151c0-1.4,1.1-2.5,2.5-2.5h17.9c1.4,0,2.5,1.1,2.5,2.5v151
			C1272.8,1323.6,1271.7,1324.7,1270.3,1324.7z M1254.9,1319.7h12.9v-146h-12.9V1319.7z"/>
        </g>
        <g>
            <path fill="#FFFFFF" d="M1289.6,1419h-56.5c-1.4,0-2.5-1.1-2.5-2.5v-18.2c0-1.4,1.1-2.5,2.5-2.5h9.9v-10.1c0-1.4,1.1-2.5,2.5-2.5h4.4
			v-61c0-1.4,1.1-2.5,2.5-2.5h17.9c1.4,0,2.5,1.1,2.5,2.5v61h4.4c1.4,0,2.5,1.1,2.5,2.5v10.1h9.9c1.4,0,2.5,1.1,2.5,2.5v18.2
			C1292.1,1417.9,1291,1419,1289.6,1419z M1235.6,1414h51.5v-13.2h-9.9c-1.4,0-2.5-1.1-2.5-2.5v-10.1h-4.4c-1.4,0-2.5-1.1-2.5-2.5
			v-61h-12.9v61c0,1.4-1.1,2.5-2.5,2.5h-4.4v10.1c0,1.4-1.1,2.5-2.5,2.5h-9.9V1414z"/>
        </g>
        <g>
            <path fill="#FFFFFF" d="M1487,1764H975.5c-45.7,0-82.8-37.1-82.8-82.8v-118.8c0-45.7,37.1-82.8,82.8-82.8h241.2
			c45.7,0,82.8,37.1,82.8,82.8v31.2c0,45.7-37.1,82.8-82.8,82.8h-46.4c-1.4,0-2.5-1.1-2.5-2.5s1.1-2.5,2.5-2.5h46.4
			c42.9,0,77.8-34.9,77.8-77.8v-31.2c0-42.9-34.9-77.8-77.8-77.8H975.5c-42.9,0-77.8,34.9-77.8,77.8v118.8
			c0,42.9,34.9,77.8,77.8,77.8H1487c42.9,0,77.8-34.9,77.8-77.8V1486c0-88.9-72.3-161.2-161.2-161.2H598.2c-1.4,0-2.5-1.1-2.5-2.5
			s1.1-2.5,2.5-2.5h805.4c91.7,0,166.2,74.6,166.2,166.2v195.2C1569.8,1726.9,1532.7,1764,1487,1764z"/>
        </g>
        <g>
            <path fill="#FFFFFF" d="M1085.7,1272.1c-39.8,0-96.3-6.5-139.6-37.2c-26.1-18.5-34.9-37-35.3-37.7c-0.6-1.3,0-2.7,1.2-3.3
			c1.2-0.6,2.7,0,3.3,1.2l0,0c0.1,0.2,8.8,18.2,33.9,36c23.3,16.5,65.8,36.1,136.4,36.1c1.4,0,2.5,1.1,2.5,2.5
			S1087,1272.1,1085.7,1272.1z"/>
        </g>
        <g>
            <path fill="#FFFFFF" d="M1085.7,1324.7c-1.4,0-2.5-1.1-2.5-2.5v-52.7c0-1.4,1.1-2.5,2.5-2.5c38.9,0,93.6-6.2,133.4-36
			c23.7-17.7,31-35.7,31-35.9c0.5-1.3,2-1.9,3.2-1.4c1.3,0.5,1.9,1.9,1.4,3.2c-0.3,0.8-7.7,19.3-32.4,37.9
			c-40,30.2-94.6,37-134.2,37.3v50.2C1088.2,1323.6,1087,1324.7,1085.7,1324.7z"/>
        </g>
        <g>
            <path fill="#FFFFFF" d="M1401.5,1324.7c-0.3,0-0.7-0.1-1-0.2c-44.6-19.3-78.2-52.9-98.5-77.7c-22-26.8-33.7-49.4-33.9-49.7
			c-0.6-1.2-0.1-2.7,1.1-3.4c1.2-0.6,2.7-0.1,3.4,1.1c0.5,0.9,46.4,88.8,129.9,125c1.3,0.5,1.8,2,1.3,3.3
			C1403.4,1324.2,1402.4,1324.7,1401.5,1324.7z"/>
        </g>
        <g>
            <path fill="#FFFFFF" d="M764,1324.7c-1,0-1.9-0.6-2.3-1.5c-0.5-1.3,0-2.7,1.3-3.3c83.5-36.2,129.5-124.1,129.9-125
			c0.6-1.2,2.1-1.7,3.4-1.1c1.2,0.6,1.7,2.1,1.1,3.4c-0.1,0.2-11.8,22.8-33.9,49.7c-20.4,24.8-54,58.4-98.5,77.7
			C764.7,1324.7,764.4,1324.7,764,1324.7z"/>
        </g>
        <g>
            <path fill="#FFFFFF" d="M844.6,1324.7c-1.4,0-2.5-1.1-2.5-2.5v-57.8c0-1.4,1.1-2.5,2.5-2.5s2.5,1.1,2.5,2.5v57.8
			C847.1,1323.6,846,1324.7,844.6,1324.7z"/>
        </g>
        <g>
            <path fill="#FFFFFF" d="M1320.9,1324.7c-1.4,0-2.5-1.1-2.5-2.5v-57.8c0-1.4,1.1-2.5,2.5-2.5s2.5,1.1,2.5,2.5v57.8
			C1323.4,1323.6,1322.3,1324.7,1320.9,1324.7z"/>
        </g>
        <g>
            <path fill="#FFFFFF" d="M987.6,1324.7c-1.4,0-2.5-1.1-2.5-2.5v-68.5c0-1.4,1.1-2.5,2.5-2.5s2.5,1.1,2.5,2.5v68.5
			C990.1,1323.6,989,1324.7,987.6,1324.7z"/>
        </g>
        <g>
            <path fill="#FFFFFF" d="M1178,1324.7c-1.4,0-2.5-1.1-2.5-2.5v-68.5c0-1.4,1.1-2.5,2.5-2.5s2.5,1.1,2.5,2.5v68.5
			C1180.5,1323.6,1179.4,1324.7,1178,1324.7z"/>
        </g>
        <g>
            <path fill="#FFFFFF" d="M1277.3,1400.9h-31.8c-1.4,0-2.5-1.1-2.5-2.5s1.1-2.5,2.5-2.5h31.8c1.4,0,2.5,1.1,2.5,2.5
			S1278.6,1400.9,1277.3,1400.9z"/>
        </g>
        <g>
            <path fill="#FFFFFF" d="M1231.4,1037.7H943c-1.4,0-2.5-1.1-2.5-2.5V931.6c0-1.4,1.1-2.5,2.5-2.5h70.3l72.1-72.1
			c0.9-0.9,2.6-0.9,3.5,0l72.1,72.1h70.3c1.4,0,2.5,1.1,2.5,2.5v103.5C1233.9,1036.6,1232.8,1037.7,1231.4,1037.7z M945.5,1032.7
			h283.3v-98.5H1160c-0.7,0-1.3-0.3-1.8-0.7l-71-71l-71,71c-0.5,0.5-1.1,0.7-1.8,0.7h-68.8V1032.7z"/>
        </g>
        <g>
            <path fill="#FFFFFF" d="M1087.2,951.5c-12.5,0-22.6-10.1-22.6-22.6s10.1-22.6,22.6-22.6s22.6,10.1,22.6,22.6
			S1099.7,951.5,1087.2,951.5z M1087.2,911.3c-9.7,0-17.6,7.9-17.6,17.6s7.9,17.6,17.6,17.6s17.6-7.9,17.6-17.6
			S1096.9,911.3,1087.2,911.3z"/>
        </g>
        <g>
            <path fill="#FFFFFF" d="M1078.3,939.5c-0.6,0-1.3-0.2-1.8-0.7c-1-1-1-2.6,0-3.5l8.2-8.2v-12.2c0-1.4,1.1-2.5,2.5-2.5s2.5,1.1,2.5,2.5
			v13.2c0,0.7-0.3,1.3-0.7,1.8l-8.9,8.9C1079.6,939.2,1078.9,939.5,1078.3,939.5z"/>
        </g>
        <g>
            <path fill="#FFFFFF" d="M943,934.1c-0.5,0-1-0.1-1.4-0.4c-1.1-0.8-1.4-2.3-0.7-3.5l28.5-41.7c0.5-0.7,1.2-1.1,2.1-1.1h82.8
			c1.4,0,2.5,1.1,2.5,2.5s-1.1,2.5-2.5,2.5h-81.5l-27.7,40.6C944.6,933.8,943.8,934.1,943,934.1z"/>
        </g>
        <g>
            <path fill="#FFFFFF" d="M1231.4,934.1c-0.8,0-1.6-0.4-2.1-1.1l-27.7-40.6h-81.5c-1.4,0-2.5-1.1-2.5-2.5s1.1-2.5,2.5-2.5h82.8
			c0.8,0,1.6,0.4,2.1,1.1l28.5,41.7c0.8,1.1,0.5,2.7-0.7,3.5C1232.3,934,1231.9,934.1,1231.4,934.1z"/>
        </g>
        <g>
            <path fill="#FFFFFF" d="M1160,934.1h-16.5c-0.7,0-1.3-0.3-1.7-0.7l-54.5-53.3l-53.2,53.3c-0.5,0.5-1.1,0.7-1.8,0.7h-17.9
			c-1.4,0-2.5-1.1-2.5-2.5s1.1-2.5,2.5-2.5h16.8l54.2-54.3c1-1,2.5-1,3.5,0l55.6,54.3h15.5c1.4,0,2.5,1.1,2.5,2.5
			S1161.4,934.1,1160,934.1z"/>
        </g>
        <g>
            <path fill="#FFFFFF" d="M1111,1037.7h-23.8c-1.4,0-2.5-1.1-2.5-2.5v-59.5c0-1.4,1.1-2.5,2.5-2.5h23.8c1.4,0,2.5,1.1,2.5,2.5v59.5
			C1113.5,1036.6,1112.3,1037.7,1111,1037.7z M1089.7,1032.7h18.8v-54.5h-18.8V1032.7z"/>
        </g>
        <g>
            <path fill="#FFFFFF" d="M1086.9,1037.7h-23.8c-1.4,0-2.5-1.1-2.5-2.5v-59.5c0-1.4,1.1-2.5,2.5-2.5h23.8c1.4,0,2.5,1.1,2.5,2.5v59.5
			C1089.4,1036.6,1088.2,1037.7,1086.9,1037.7z M1065.6,1032.7h18.8v-54.5h-18.8V1032.7z"/>
        </g>
        <g>
            <path fill="#FFFFFF" d="M994.7,1008.8h-24.9c-1.4,0-2.5-1.1-2.5-2.5v-38.9c0-2.9,2.3-5.2,5.2-5.2H992c2.9,0,5.2,2.3,5.2,5.2v38.9
			C997.2,1007.7,996,1008.8,994.7,1008.8z M972.2,1003.8h19.9v-36.4c0-0.1-0.1-0.2-0.2-0.2h-19.6c-0.1,0-0.2,0.1-0.2,0.2V1003.8z"/>
        </g>
        <g>
            <path fill="#FFFFFF" d="M1031.5,1008.8h-24.9c-1.4,0-2.5-1.1-2.5-2.5v-38.9c0-2.9,2.3-5.2,5.2-5.2h19.6c2.9,0,5.2,2.3,5.2,5.2v38.9
			C1034,1007.7,1032.8,1008.8,1031.5,1008.8z M1009,1003.8h19.9v-36.4c0-0.1-0.1-0.2-0.2-0.2h-19.6c-0.1,0-0.2,0.1-0.2,0.2V1003.8z"
            />
        </g>
        <g>
            <path fill="#FFFFFF" d="M1166,1008.8H1141c-1.4,0-2.5-1.1-2.5-2.5v-38.9c0-2.9,2.3-5.2,5.2-5.2h19.6c2.9,0,5.2,2.3,5.2,5.2v38.9
			C1168.5,1007.7,1167.3,1008.8,1166,1008.8z M1143.5,1003.8h19.9v-36.4c0-0.1-0.1-0.2-0.2-0.2h-19.6c-0.1,0-0.2,0.1-0.2,0.2V1003.8
			z"/>
        </g>
        <g>
            <path fill="#FFFFFF" d="M1202.8,1008.8h-24.9c-1.4,0-2.5-1.1-2.5-2.5v-38.9c0-2.9,2.3-5.2,5.2-5.2h19.6c2.9,0,5.2,2.3,5.2,5.2v38.9
			C1205.3,1007.7,1204.1,1008.8,1202.8,1008.8z M1180.3,1003.8h19.9v-36.4c0-0.1-0.1-0.2-0.2-0.2h-19.6c-0.1,0-0.2,0.1-0.2,0.2
			V1003.8z"/>
        </g>
        <g>
            <path fill="#FFFFFF" d="M1087.2,861.3c-1.4,0-2.5-1.1-2.5-2.5v-6c0,0,0,0,0,0v-17.9c0-1.4,1.1-2.5,2.5-2.5h33.6c1.1,0,2,0.7,2.4,1.7
			s0,2.1-0.8,2.8l-9,7.3l9,7.1c0.8,0.7,1.2,1.8,0.8,2.8s-1.3,1.7-2.4,1.7l-31.1-0.4v3.5C1089.7,860.2,1088.6,861.3,1087.2,861.3z
			 M1089.7,850.3l23.8,0.3l-5.7-4.5c-0.6-0.5-0.9-1.2-0.9-1.9c0-0.8,0.3-1.5,0.9-2l6-4.9h-24.1V850.3z"/>
        </g>
        <g>
            <path fill="#FFFFFF" d="M568.8,1175H454.4c-1.4,0-2.5-1.1-2.5-2.5v-106.3c0-9.1,7.4-16.5,16.5-16.5h86.4c9.1,0,16.5,7.4,16.5,16.5
			v106.3C571.3,1173.9,570.2,1175,568.8,1175z M456.9,1170h109.4v-103.8c0-6.4-5.2-11.5-11.5-11.5h-86.4c-6.4,0-11.5,5.2-11.5,11.5
			V1170z"/>
        </g>
        <g>
            <path fill="#FFFFFF" d="M591.3,1175H432c-1.4,0-2.5-1.1-2.5-2.5v-124.3c0-12.1,9.9-22,22-22h120.3c12.1,0,22,9.9,22,22v124.3
			C593.8,1173.9,592.7,1175,591.3,1175z M434.5,1170h154.3v-121.8c0-9.4-7.6-17-17-17H451.5c-9.4,0-17,7.6-17,17V1170z"/>
        </g>
        <g>
            <path fill="#FFFFFF" d="M454.4,1175c-0.6,0-1.3-0.2-1.8-0.7c-1-1-1-2.6,0-3.5l39.3-39.3c0.5-0.5,1.1-0.7,1.8-0.7l35.7-0.1
			c0,0,0,0,0,0c0.7,0,1.3,0.3,1.8,0.7l39.4,39.4c1,1,1,2.6,0,3.5c-1,1-2.6,1-3.5,0l-38.7-38.7l-33.6,0.1l-38.6,38.6
			C455.7,1174.7,455,1175,454.4,1175z"/>
        </g>
        <g>
            <path fill="#FFFFFF" d="M528.8,1135.6h-34.4c-1.4,0-2.5-1.1-2.5-2.5v-35.8c0-3.7,3-6.7,6.7-6.7h26c3.7,0,6.7,3,6.7,6.7v35.8
			C531.3,1134.4,530.2,1135.6,528.8,1135.6z M496.9,1130.6h29.4v-33.3c0-0.9-0.8-1.7-1.7-1.7h-26c-0.9,0-1.7,0.8-1.7,1.7V1130.6z"/>
        </g>
        <g>
            <path fill="#FFFFFF" d="M511.6,1168.2c-1.4,0-2.5-1.1-2.5-2.5v-8.3c0-1.4,1.1-2.5,2.5-2.5s2.5,1.1,2.5,2.5v8.3
			C514.1,1167.1,513,1168.2,511.6,1168.2z"/>
        </g>
        <g>
            <path fill="#FFFFFF" d="M511.6,1154.3c-1.4,0-2.5-1.1-2.5-2.5v-5.3c0-1.4,1.1-2.5,2.5-2.5s2.5,1.1,2.5,2.5v5.3
			C514.1,1153.2,513,1154.3,511.6,1154.3z"/>
        </g>
        <g>
            <path fill="#FFFFFF" d="M511.6,1144.1c-1.4,0-2.5-1.1-2.5-2.5v-1.8c0-1.4,1.1-2.5,2.5-2.5s2.5,1.1,2.5,2.5v1.8
			C514.1,1143,513,1144.1,511.6,1144.1z"/>
        </g>
        <g>
            <path fill="#FFFFFF" d="M598.2,1324.7H469.1c-21.9,0-39.6-17.8-39.6-39.6v-1.2c0-21.9,17.8-39.6,39.6-39.6h230.5
			c19.1,0,34.6-15.5,34.6-34.6s-15.5-34.6-34.6-34.6H591.3c-1.4,0-2.5-1.1-2.5-2.5s1.1-2.5,2.5-2.5h108.3
			c21.9,0,39.6,17.8,39.6,39.6s-17.8,39.6-39.6,39.6H469.1c-19.1,0-34.6,15.5-34.6,34.6v1.2c0,19.1,15.5,34.6,34.6,34.6h129.1
			c1.4,0,2.5,1.1,2.5,2.5S599.6,1324.7,598.2,1324.7z"/>
        </g>
        <g>
            <path fill="#FFFFFF" d="M1935,1423.1c-34.3,0-62.2-27.9-62.2-62.2v-153.4h-135.3l-41.1-0.5c-1,0-1.9-0.6-2.3-1.5
			c-5.4-12.2-7.9-27.5-7.5-45.3c0-1.4,1.1-2.4,2.5-2.4c0,0,0,0,0.1,0c1.4,0,2.5,1.2,2.4,2.6c-0.4,16.4,1.8,30.5,6.5,41.8l39.4,0.5
			h135.3v-61.8c0-97.6-79.4-177-177-177h-239.7c-21.1,0-38.3-17.2-38.3-38.3c0-21.1,17.2-38.3,38.3-38.3h24.1
			c14.1,0,34-8.8,43.4-19.3l88-97.6c3.5-3.9,8.5-6.1,13.7-6.1c0,0,0,0,0,0c5.2,0,10.2,2.2,13.7,6.1l34.1,37.7
			c2.7,3,6.4,4.7,10.4,4.8c4,0.1,7.8-1.3,10.7-4.1l64.2-62c7.3-7,18.9-6.8,26,0.4l66,68.2c3.2,3.3,7.6,5.1,12.2,4.9
			c4.6-0.2,8.8-2.3,11.7-5.8l78-94.1c3-3.7,8.8-6.2,15.4-6.8c6.4-0.6,12.1,0.8,15.6,3.8c3,2.6,5,5.3,7.7,9.1l99.9,131.2
			c0.1,0.2,0.2,0.3,0.3,0.5c0.4,0.9,10.3,21.8,43.2,22.8l1,0c19,0.6,36.8,8.4,50.1,22.1s20.6,31.7,20.6,50.7v180.6
			c0,37.7,30.7,68.4,68.4,68.4s68.4-30.7,68.4-68.4V864c0-74.8-29.1-145-82-197.9c-52.9-52.9-123.1-82-197.9-82h-416.5
			c-1.4,0-2.5-1.1-2.5-2.5s1.1-2.5,2.5-2.5h416.5c76.1,0,147.6,29.6,201.4,83.4s83.4,125.3,83.4,201.4v270.1
			c0,40.5-32.9,73.4-73.4,73.4s-73.4-32.9-73.4-73.4V953.5c0-17.7-6.8-34.5-19.1-47.2s-28.9-20-46.6-20.5l-1,0
			c-34.4-1-46.1-22.6-47.5-25.5l-99.7-131c0,0,0-0.1-0.1-0.1c-2.5-3.7-4.2-6-6.8-8.2c-2.5-2.1-7-3.1-11.9-2.6c-5.2,0.5-9.9,2.4-12,5
			l-78,94.1c-3.8,4.6-9.4,7.4-15.4,7.6c-6,0.2-11.8-2.1-15.9-6.4l-66-68.2c-5.1-5.3-13.6-5.4-18.9-0.3l-64.2,62
			c-3.9,3.7-8.9,5.7-14.3,5.5c-5.4-0.2-10.3-2.5-13.9-6.5l-34.1-37.7c-2.6-2.8-6.2-4.5-10-4.5c0,0,0,0,0,0c-3.8,0-7.5,1.6-10,4.5
			l-88,97.6c-10.4,11.6-31.6,21-47.2,21h-24.1c-18.4,0-33.3,14.9-33.3,33.3s14.9,33.3,33.3,33.3h239.7c100.4,0,182,81.7,182,182
			v61.8h60.6c32.4,0,58.8,26.4,58.8,58.8v99.6C1997.2,1395.2,1969.3,1423.1,1935,1423.1z M1877.8,1207.5v153.4
			c0,31.5,25.7,57.2,57.2,57.2s57.2-25.7,57.2-57.2v-99.6c0-29.6-24.1-53.8-53.8-53.8H1877.8z"/>
        </g>
    </g>
</svg>