<?xml version="1.0" encoding="UTF-8" standalone="no"?>
<!DOCTYPE svg PUBLIC "-//W3C//DTD SVG 20010904//EN" "http://www.w3.org/TR/2001/REC-SVG-20010904/DTD/svg10.dtd">
<svg version="1.0" xmlns="http://www.w3.org/2000/svg" width="400.000000pt" height="400.000000pt"
     viewBox="0 0 400.000000 400.000000" preserveAspectRatio="xMidYMid meet">
    <style>
        path {
            fill: #000;
        }
        @media (prefers-color-scheme: dark) {
            path {
                fill: #fff;
            }
        }
    </style>
    <g transform="translate(0.000000,400.000000) scale(0.100000,-0.100000)" stroke="none">
        <path d="M1050 3909 c-128 -13 -214 -34 -312 -75 -339 -141 -577 -438 -643 -800 -21 -117 -19 -2717 2 -2781 19 -57 82 -126 140 -154 l48 -23 1695 0 c932 0 1712 4 1733 7 21 4 50 13 65 21 41 22 99 86 121 136 20 45 20 59 21 1745 0 1192 -3 1712 -11 1739 -6 21 -20 53 -31 70 -26 39 -96 93 -140 108 -36 12 -2569 18 -2688 7z m2609 -208 c20 -1 22 -5 17 -26 -11 -43 -75 -143 -132 -204 -158 -172 -393 -286 -809 -395 -84 -23 -293 -69 -360 -81 -16 -2 -41 -7 -55 -10 -13 -2 -42 -7 -65 -10 -61 -9 -97 -15 -125 -20 -14 -3 -45 -7 -69 -10 -23 -3 -55 -7 -70 -9 -14 -3 -55 -7 -91 -11 -36 -4 -76 -8 -90 -10 -14 -2 -54 -6 -90 -10 -36 -4 -76 -8 -90 -10 -14 -2 -54 -6 -90 -10 -36 -4 -76 -8 -90 -10 -14 -2 -50 -6 -80 -10 -30 -3 -80 -10 -110 -15 -30 -5 -73 -12 -95 -16 -84 -13 -254 -54 -350 -84 -138 -44 -281 -115 -413 -204 l-112 -75 4 252 c4 258 5 272 32 367 95 334 401 583 744 606 47 4 86 7 87 8 1 1 2454 -2 2502 -3z m32 -3394 c-19 -19 -60 -19 -1691 -19 -1543 0 -1673 1 -1688 16 -16 15 -17 88 -17 859 l0 842 50 46 c174 162 358 283 520 344 121 45 366 99 540 120 28 3 66 7 85 10 53 6 230 26 407 45 56 6 110 12 120 14 10 2 44 7 77 11 32 3 68 8 80 10 11 2 39 6 61 10 89 12 278 48 405 76 436 96 769 221 1000 375 l65 44 3 -1392 c2 -1357 2 -1393 -17 -1411z"/>
        <path d="M897 1967 c-8 -29 -25 -95 -37 -147 -12 -52 -44 -187 -71 -300 -43 -178 -57 -233 -74 -310 -2 -8 -20 -81 -39 -162 -90 -372 -106 -441 -102 -446 4 -4 313 -6 367 -3 13 1 20 25 34 113 10 62 21 118 26 123 6 8 245 13 280 6 5 -1 11 -30 35 -186 10 -64 -3 -60 204 -59 104 0 192 3 195 5 2 3 -5 43 -16 90 -11 46 -22 91 -24 99 -2 8 -17 71 -35 140 -18 69 -33 132 -35 140 -2 8 -22 91 -44 184 -23 93 -40 171 -37 173 4 4 222 7 276 4 13 -1 15 -40 15 -303 -1 -417 8 -461 99 -507 l48 -24 547 0 c563 1 598 3 688 43 97 43 166 130 192 245 48 209 -26 391 -181 443 l-58 19 41 12 c74 22 149 121 165 218 38 225 -67 396 -262 431 -28 5 -191 9 -363 9 l-311 1 -1 -21 c0 -12 0 -277 0 -589 l1 -568 -30 -1 c-17 0 -48 -1 -70 -1 -86 0 -99 3 -121 21 l-23 19 -1 276 -1 276 31 1 c16 1 46 1 66 0 22 0 39 4 41 11 4 11 3 191 -1 224 -1 7 -26 10 -66 9 -40 -1 -66 3 -66 9 -1 6 -2 76 -3 156 l-1 145 -174 3 c-108 1 -177 -1 -181 -7 -3 -6 -5 -74 -5 -151 0 -88 -3 -144 -10 -148 -5 -4 -85 -7 -177 -7 l-168 0 -9 27 c-6 16 -9 28 -7 28 1 0 -14 64 -33 143 l-36 142 -232 2 -232 1 -14 -51z m2025 -228 c65 -30 89 -143 47 -218 -25 -46 -57 -60 -131 -59 l-48 1 -1 38 c0 22 0 68 0 104 0 36 0 83 0 105 l1 40 55 0 c30 0 64 -5 77 -11z m-1772 -55 c0 -4 9 -61 20 -128 12 -67 23 -134 26 -151 3 -16 7 -37 9 -45 2 -8 6 -37 10 -63 3 -26 10 -71 15 -99 6 -28 10 -56 10 -62 0 -7 -33 -11 -100 -11 l-99 0 4 25 c2 14 11 68 20 120 8 52 17 104 19 115 2 11 14 84 27 163 12 78 26 142 31 142 4 0 8 -3 8 -6z m1797 -494 c53 -32 68 -64 68 -150 0 -125 -43 -170 -165 -175 l-59 -2 -3 141 c-2 78 -2 156 0 174 l3 32 62 0 c44 0 71 -6 94 -20z"/>
    </g>
</svg>
