<svg width="40" height="40" viewBox="0 0 40 40" fill="none" xmlns="http://www.w3.org/2000/svg">
<path d="M20.0049 34.585C19.3149 34.585 18.7549 34.025 18.7549 33.335V6.66504C18.7549 5.97504 19.3149 5.41504 20.0049 5.41504C20.6949 5.41504 21.2549 5.97504 21.2549 6.66504V33.335C21.2549 34.025 20.6949 34.585 20.0049 34.585Z" fill="black"/>
<path d="M28.3351 16.2551C28.0151 16.2551 27.695 16.1351 27.455 15.8851L20.005 8.43512L12.5551 15.8851C12.0651 16.3751 11.275 16.3751 10.785 15.8851C10.295 15.3951 10.295 14.6051 10.785 14.1151L19.1151 5.78512C19.5851 5.31512 20.4149 5.31512 20.8849 5.78512L29.215 14.1151C29.705 14.6051 29.705 15.3951 29.215 15.8851C28.975 16.1251 28.6551 16.2551 28.3351 16.2551Z" fill="black"/>
</svg>
