<svg width="40" height="40" viewBox="0 0 40 40" fill="none" xmlns="http://www.w3.org/2000/svg">
<path d="M15.0001 29.5786C14.6801 29.5786 14.3602 29.4586 14.1202 29.2086L5.79011 20.8786C5.30011 20.3886 5.30011 19.5986 5.79011 19.1086L14.1202 10.7786C14.6102 10.2886 15.4 10.2886 15.89 10.7786C16.38 11.2686 16.38 12.0586 15.89 12.5486L8.44001 19.9986L15.89 27.4486C16.38 27.9386 16.38 28.7286 15.89 29.2186C15.65 29.4586 15.3301 29.5886 15.0101 29.5886L15.0001 29.5786Z" fill="black"/>
<path d="M33.3301 21.2485H6.66992C5.97992 21.2485 5.41992 20.6885 5.41992 19.9985C5.41992 19.3085 5.97992 18.7485 6.66992 18.7485H33.3301C34.0201 18.7485 34.5801 19.3085 34.5801 19.9985C34.5801 20.6885 34.0201 21.2485 33.3301 21.2485Z" fill="black"/>
</svg>
