<svg width="40" height="40" viewBox="0 0 40 40" fill="none" xmlns="http://www.w3.org/2000/svg">
<path d="M24.9963 29.5886C24.6763 29.5886 24.3565 29.4686 24.1165 29.2186C23.6265 28.7286 23.6265 27.9386 24.1165 27.4486L31.5664 19.9986L24.1165 12.5486C23.6265 12.0586 23.6265 11.2686 24.1165 10.7786C24.6065 10.2886 25.3962 10.2886 25.8862 10.7786L34.2163 19.1086C34.7063 19.5986 34.7063 20.3886 34.2163 20.8786L25.8862 29.2086C25.6462 29.4486 25.3264 29.5786 25.0064 29.5786L24.9963 29.5886Z" fill="black"/>
<path d="M33.3264 21.2588H6.6662C5.9762 21.2588 5.4162 20.6988 5.4162 20.0088C5.4162 19.3188 5.9762 18.7588 6.6662 18.7588H33.3264C34.0164 18.7588 34.5764 19.3188 34.5764 20.0088C34.5764 20.6988 34.0164 21.2588 33.3264 21.2588Z" fill="black"/>
</svg>
