<svg width="40" height="40" viewBox="0 0 40 40" fill="none" xmlns="http://www.w3.org/2000/svg">
<path d="M28.325 34.585C27.635 34.585 27.075 34.025 27.075 33.335V6.66504C27.075 5.97504 27.635 5.41504 28.325 5.41504C29.015 5.41504 29.575 5.97504 29.575 6.66504V33.335C29.575 34.025 29.015 34.585 28.325 34.585Z" fill="black"/>
<path d="M28.325 34.585C28.005 34.585 27.685 34.4646 27.445 34.2146L22.445 29.2146C21.955 28.7246 21.955 27.9346 22.445 27.4446C22.935 26.9546 23.725 26.9546 24.215 27.4446L28.3351 31.5646L32.455 27.4446C32.945 26.9546 33.735 26.9546 34.225 27.4446C34.715 27.9346 34.715 28.7246 34.225 29.2146L29.225 34.2146C28.985 34.4546 28.6651 34.5846 28.3451 34.5846L28.325 34.585Z" fill="black"/>
<path d="M16.6649 12.925C16.3449 12.925 16.025 12.805 15.785 12.555L11.6649 8.43498L7.54505 12.555C7.05505 13.045 6.26503 13.045 5.77503 12.555C5.28503 12.065 5.28503 11.275 5.77503 10.785L10.775 5.78498C11.265 5.29498 12.0551 5.29498 12.5451 5.78498L17.5451 10.785C18.0351 11.275 18.0351 12.065 17.5451 12.555C17.3051 12.795 16.9849 12.925 16.6649 12.925Z" fill="black"/>
<path d="M11.6649 34.585C10.9749 34.585 10.4149 34.025 10.4149 33.335V6.66504C10.4149 5.97504 10.9749 5.41504 11.6649 5.41504C12.3549 5.41504 12.9149 5.97504 12.9149 6.66504V33.335C12.9149 34.025 12.3549 34.585 11.6649 34.585Z" fill="black"/>
</svg>
