<svg width="40" height="40" viewBox="0 0 40 40" fill="none" xmlns="http://www.w3.org/2000/svg">
<path d="M19.9899 34.585C19.2999 34.585 18.7399 34.025 18.7399 33.335V6.66504C18.7399 5.97504 19.2999 5.41504 19.9899 5.41504C20.6799 5.41504 21.2399 5.97504 21.2399 6.66504V33.335C21.2399 34.025 20.6799 34.585 19.9899 34.585Z" fill="black"/>
<path d="M19.9899 34.585C19.6599 34.585 19.3401 34.4546 19.1101 34.2146L10.78 25.8846C10.29 25.3946 10.29 24.6046 10.78 24.1146C11.27 23.6246 12.0601 23.6246 12.5501 24.1146L20 31.5646L27.45 24.1146C27.94 23.6246 28.73 23.6246 29.22 24.1146C29.71 24.6046 29.71 25.3946 29.22 25.8846L20.8899 34.2146C20.6599 34.4446 20.34 34.5846 20.01 34.5846L19.9899 34.585Z" fill="black"/>
</svg>
