<svg width="40" height="40" viewBox="0 0 40 40" fill="none" xmlns="http://www.w3.org/2000/svg">
<path d="M9.99628 22.9241C9.30628 22.9241 8.74628 22.3641 8.74628 21.6741V10.0042C8.74628 9.31415 9.30628 8.75415 9.99628 8.75415H21.6662C22.3562 8.75415 22.9162 9.31415 22.9162 10.0042C22.9162 10.6942 22.3562 11.2542 21.6662 11.2542H11.2463V21.6741C11.2463 22.3641 10.6863 22.9241 9.99628 22.9241Z" fill="black"/>
<path d="M29.9963 31.2538C29.6763 31.2538 29.3565 31.1338 29.1165 30.8838L9.11646 10.8838C8.62646 10.3938 8.62646 9.60384 9.11646 9.11384C9.60646 8.62384 10.3962 8.62384 10.8862 9.11384L30.8862 29.1138C31.3762 29.6038 31.3762 30.3938 30.8862 30.8838C30.6462 31.1238 30.3264 31.2538 30.0064 31.2538H29.9963Z" fill="black"/>
</svg>
