<svg width="20" height="20" viewBox="0 0 40 40" fill="none" xmlns="http://www.w3.org/2000/svg">
<path d="M31.6649 36.2498H8.32507C5.79507 36.2498 3.745 34.1898 3.745 31.6698V8.33977C3.745 5.80977 5.79507 3.75977 8.32507 3.75977H17.495C18.185 3.75977 18.745 4.31977 18.745 5.00977C18.745 5.69977 18.185 6.25977 17.495 6.25977H8.32507C7.17507 6.25977 6.245 7.18977 6.245 8.33977V31.6698C6.245 32.8198 7.17507 33.7498 8.32507 33.7498H31.6649C32.8149 33.7498 33.745 32.8198 33.745 31.6698V22.4998C33.745 21.8098 34.305 21.2498 34.995 21.2498C35.685 21.2498 36.245 21.8098 36.245 22.4998V31.6698C36.245 34.1998 34.1949 36.2498 31.6649 36.2498Z" fill="black"/>
<path d="M18.3251 22.92C18.0051 22.92 17.685 22.8 17.445 22.55C16.955 22.06 16.955 21.27 17.445 20.78L31.9851 6.25H25.0051C24.3151 6.25 23.7551 5.69 23.7551 5C23.7551 4.31 24.3151 3.75 25.0051 3.75H35.0051C35.6951 3.75 36.2551 4.31 36.2551 5V15C36.2551 15.69 35.6951 16.25 35.0051 16.25C34.3151 16.25 33.7551 15.69 33.7551 15V8.02L19.215 22.55C18.975 22.79 18.6552 22.92 18.3352 22.92H18.3251Z" fill="black"/>
</svg>
