<svg width="40" height="40" viewBox="0 0 40 40" fill="none" xmlns="http://www.w3.org/2000/svg">
<path d="M19.9949 17.9242C19.6949 17.9242 19.3848 17.8142 19.1548 17.5942L9.15483 8.42424C8.64483 7.95424 8.615 7.16424 9.075 6.65424C9.545 6.14424 10.335 6.11424 10.845 6.57424L20.0049 14.9642L29.1648 6.57424C29.6748 6.10424 30.4649 6.14424 30.9349 6.65424C31.4049 7.16424 31.365 7.95424 30.855 8.42424L20.855 17.5942C20.615 17.8142 20.3149 17.9242 20.0149 17.9242H19.9949Z" fill="black"/>
<path d="M29.995 33.7545C29.695 33.7545 29.3949 33.6445 29.1549 33.4245L19.995 25.0345L10.8351 33.4245C10.3251 33.8945 9.53504 33.8545 9.06504 33.3445C8.59504 32.8345 8.63487 32.0445 9.14487 31.5745L19.1449 22.4045C19.6249 21.9645 20.3551 21.9645 20.8351 22.4045L30.8351 31.5745C31.3451 32.0445 31.3749 32.8345 30.9149 33.3445C30.6649 33.6145 30.335 33.7545 29.995 33.7545Z" fill="black"/>
</svg>
