<svg width="40" height="40" viewBox="0 0 40 40" fill="none" xmlns="http://www.w3.org/2000/svg">
<path d="M29.995 17.9251C29.695 17.9251 29.3949 17.8151 29.1549 17.5951L19.995 9.20512L10.8351 17.5951C10.3251 18.0651 9.53504 18.0251 9.06504 17.5151C8.59504 17.0051 8.63487 16.2151 9.14487 15.7451L19.1449 6.57512C19.6249 6.13512 20.3551 6.13512 20.8351 6.57512L30.8351 15.7451C31.3451 16.2151 31.3749 17.0051 30.9149 17.5151C30.6649 17.7851 30.335 17.9251 29.995 17.9251Z" fill="black"/>
<path d="M19.9949 33.755C19.6949 33.755 19.3848 33.645 19.1548 33.425L9.15483 24.255C8.64483 23.785 8.615 22.995 9.075 22.485C9.545 21.975 10.335 21.9451 10.845 22.4051L20.0049 30.795L29.1648 22.4051C29.6748 21.9351 30.4649 21.975 30.9349 22.485C31.4049 22.995 31.365 23.785 30.855 24.255L20.855 33.425C20.615 33.645 20.3149 33.755 20.0149 33.755H19.9949Z" fill="black"/>
</svg>
