<svg width="40" height="40" viewBox="0 0 40 40" fill="none" xmlns="http://www.w3.org/2000/svg">
<path d="M20 37.9201C10.12 37.9201 2.08008 29.8801 2.08008 20.0001C2.08008 10.1201 10.12 2.08008 20 2.08008C29.88 2.08008 37.9199 10.1201 37.9199 20.0001C37.9199 29.8801 29.88 37.9201 20 37.9201ZM20 4.58008C11.5 4.58008 4.58008 11.5001 4.58008 20.0001C4.58008 28.5001 11.5 35.4201 20 35.4201C28.5 35.4201 35.4199 28.5001 35.4199 20.0001C35.4199 11.5001 28.5 4.58008 20 4.58008Z" fill="black"/>
<path d="M18.3299 26.2501C17.9999 26.2501 17.68 26.1201 17.45 25.8801L12.45 20.8801C11.96 20.3901 11.96 19.6001 12.45 19.1101C12.94 18.6201 13.73 18.6201 14.22 19.1101L18.2498 23.1401L25.7098 14.1901C26.1498 13.6601 26.94 13.5901 27.47 14.0301C28 14.4701 28.0697 15.2601 27.6297 15.7901L19.2899 25.7901C19.0599 26.0601 18.74 26.2201 18.39 26.2401C18.37 26.2401 18.3499 26.2401 18.3299 26.2401V26.2501Z" fill="black"/>
</svg>
