<svg width="40" height="40" viewBox="0 0 40 40" fill="none" xmlns="http://www.w3.org/2000/svg">
<path d="M32.7465 36.25H7.26603C5.40603 36.25 3.7363 35.28 2.7963 33.65C1.8463 31.99 1.8463 30.02 2.7963 28.37L15.536 6.34C16.476 4.72 18.1465 3.75 19.9965 3.75C21.8465 3.75 23.5165 4.72 24.4565 6.34L37.1962 28.37C38.1562 30.02 38.1562 32 37.1962 33.65C36.2562 35.28 34.5865 36.25 32.7265 36.25H32.7465ZM20.0063 6.25C19.0563 6.25 18.1965 6.75 17.7065 7.59L4.96622 29.62C4.46622 30.49 4.45622 31.53 4.96622 32.4C5.45622 33.24 6.31603 33.75 7.26603 33.75H32.7465C33.7065 33.75 34.5563 33.25 35.0463 32.4C35.5463 31.53 35.5463 30.49 35.0463 29.62L22.3061 7.59C21.8161 6.75 20.9563 6.25 20.0063 6.25Z" fill="black"/>
<path d="M20.0159 28.3302C19.0959 28.3302 18.346 27.5802 18.346 26.6602C18.346 25.7402 19.0862 24.9902 20.0062 24.9902C20.9262 24.9902 21.6761 25.7402 21.6761 26.6602C21.6761 27.5802 20.9262 28.3302 20.0062 28.3302H20.0159Z" fill="black"/>
<path d="M20.0062 22.92C19.3162 22.92 18.7562 22.36 18.7562 21.67V15C18.7562 14.31 19.3162 13.75 20.0062 13.75C20.6962 13.75 21.2562 14.31 21.2562 15V21.67C21.2562 22.36 20.6962 22.92 20.0062 22.92Z" fill="black"/>
</svg>
