<svg width="40" height="40" viewBox="0 0 40 40" fill="none" xmlns="http://www.w3.org/2000/svg">
<path d="M20 37.9201C10.12 37.9201 2.08008 29.8801 2.08008 20.0001C2.08008 10.1201 10.12 2.08008 20 2.08008C29.88 2.08008 37.9199 10.1201 37.9199 20.0001C37.9199 29.8801 29.88 37.9201 20 37.9201ZM20 4.58008C11.5 4.58008 4.58008 11.5001 4.58008 20.0001C4.58008 28.5001 11.5 35.4201 20 35.4201C28.5 35.4201 35.4199 28.5001 35.4199 20.0001C35.4199 11.5001 28.5 4.58008 20 4.58008Z" fill="black"/>
<path d="M20.8301 28.7498C20.1401 28.7498 19.5801 28.1898 19.5801 27.4998V20.1698C19.5801 19.9698 19.5801 19.7598 19.5801 19.5898C19.4501 19.5898 19.3099 19.5898 19.1699 19.5898C18.4799 19.5898 17.9199 19.0298 17.9199 18.3398C17.9199 17.6498 18.4799 17.0898 19.1699 17.0898C20.0999 17.0898 20.91 17.0898 21.52 17.7798C22.08 18.3998 22.0801 19.1498 22.0801 20.1798V27.5098C22.0801 28.1998 21.5201 28.7598 20.8301 28.7598V28.7498Z" fill="black"/>
<path d="M20.0098 15.0002C19.0898 15.0002 18.3398 14.2502 18.3398 13.3302C18.3398 12.4102 19.08 11.6602 20 11.6602C20.92 11.6602 21.6699 12.4102 21.6699 13.3302C21.6699 14.2502 20.92 15.0002 20 15.0002H20.0098Z" fill="black"/>
</svg>
