<svg width="40" height="40" viewBox="0 0 40 40" fill="none" xmlns="http://www.w3.org/2000/svg">
<path fill-rule="evenodd" clip-rule="evenodd" d="M2.07996 20.0101C2.07996 10.1101 10.0999 2.09009 19.9999 2.09009C29.8999 2.09009 37.92 10.1101 37.92 20.0101C37.92 21.5501 37.7199 23.0601 37.3499 24.4901C37.2699 24.8201 37.0499 25.1001 36.7599 25.2601C36.4699 25.4301 36.12 25.4701 35.79 25.3701L30.9899 23.9701C30.3499 23.7801 29.9599 23.1201 30.1199 22.4701C30.3099 21.6801 30.42 20.8501 30.42 20.0001C30.42 14.2501 25.7499 9.58009 19.9999 9.58009C14.2499 9.58009 9.57996 14.2401 9.57996 20.0001C9.57996 25.7601 14.2499 30.4201 19.9999 30.4201C21.9699 30.4201 23.7999 29.8801 25.3699 28.9301C25.8199 28.6501 26.4 28.7001 26.81 29.0401L30.8 32.3701C31.1 32.6101 31.2599 32.9801 31.2499 33.3601C31.2399 33.7401 31.0599 34.1001 30.7499 34.3301C27.7599 36.5801 24.0299 37.9101 19.9999 37.9101C10.0999 37.9101 2.07996 29.8901 2.07996 19.9901V20.0101Z" fill="black"/>
</svg>
