<svg width="40" height="40" viewBox="0 0 40 40" fill="none" xmlns="http://www.w3.org/2000/svg">
<path d="M20 37.9201C10.12 37.9201 2.08008 29.8801 2.08008 20.0001C2.08008 10.1201 10.12 2.08008 20 2.08008C29.88 2.08008 37.9199 10.1201 37.9199 20.0001C37.9199 29.8801 29.88 37.9201 20 37.9201ZM20 4.58008C11.5 4.58008 4.58008 11.5001 4.58008 20.0001C4.58008 28.5001 11.5 35.4201 20 35.4201C28.5 35.4201 35.4199 28.5001 35.4199 20.0001C35.4199 11.5001 28.5 4.58008 20 4.58008Z" fill="black"/>
<path d="M20.0098 29.1701C19.0898 29.1701 18.3398 28.4201 18.3398 27.5001C18.3398 26.5801 19.08 25.8301 20 25.8301C20.92 25.8301 21.6699 26.5801 21.6699 27.5001C21.6699 28.4201 20.92 29.1701 20 29.1701H20.0098Z" fill="black"/>
<path d="M20 23.7498C19.31 23.7498 18.75 23.1898 18.75 22.4998C18.75 20.7498 19.8498 19.3998 20.8198 18.1998C21.1698 17.7698 21.4998 17.3598 21.7598 16.9598C21.9698 16.6298 22.0801 16.2398 22.0801 15.8398C22.0801 14.6898 21.15 13.7598 20 13.7598C18.85 13.7598 17.9199 14.6898 17.9199 15.8398C17.9199 16.5298 17.3599 17.0898 16.6699 17.0898C15.9799 17.0898 15.4199 16.5298 15.4199 15.8398C15.4199 13.3098 17.47 11.2598 20 11.2598C22.53 11.2598 24.5801 13.3198 24.5801 15.8398C24.5801 16.7198 24.3301 17.5798 23.8701 18.3098C23.5401 18.8298 23.15 19.3098 22.77 19.7698C21.99 20.7298 21.2598 21.6398 21.2598 22.4998C21.2598 23.1898 20.6998 23.7498 20.0098 23.7498H20Z" fill="black"/>
</svg>
