<svg width="40" height="40" viewBox="0 0 40 40" fill="none" xmlns="http://www.w3.org/2000/svg">
<path d="M20 37.9201C10.12 37.9201 2.08008 29.8801 2.08008 20.0001C2.08008 10.1201 10.12 2.08008 20 2.08008C29.88 2.08008 37.9199 10.1201 37.9199 20.0001C37.9199 29.8801 29.88 37.9201 20 37.9201ZM20 4.58008C11.5 4.58008 4.58008 11.5001 4.58008 20.0001C4.58008 28.5001 11.5 35.4201 20 35.4201C28.5 35.4201 35.4199 28.5001 35.4199 20.0001C35.4199 11.5001 28.5 4.58008 20 4.58008Z" fill="black"/>
<path d="M20 22.0802C19.31 22.0802 18.75 21.5202 18.75 20.8302V14.1602C18.75 13.4702 19.31 12.9102 20 12.9102C20.69 12.9102 21.25 13.4702 21.25 14.1602V20.8302C21.25 21.5202 20.69 22.0802 20 22.0802Z" fill="black"/>
<path d="M20.0098 27.5002C19.0898 27.5002 18.3398 26.7502 18.3398 25.8302C18.3398 24.9102 19.08 24.1602 20 24.1602C20.92 24.1602 21.6699 24.9102 21.6699 25.8302C21.6699 26.7502 20.92 27.5002 20 27.5002H20.0098Z" fill="black"/>
</svg>
