<svg width="81" height="54" viewBox="0 0 81 54" fill="none" xmlns="http://www.w3.org/2000/svg">
<g clip-path="url(#clip0_4710_702)">
<path fill-rule="evenodd" clip-rule="evenodd" d="M27.4703 4.40096C27.2535 5.58183 26.1259 6.36433 24.9518 6.14871C23.7776 5.93309 23.0016 4.80102 23.2185 3.62014L10.4628 1.2777C8.11457 0.84647 5.85935 2.41146 5.42564 4.7732L0.713825 30.4311C0.280114 32.7929 1.83216 35.057 4.1804 35.4882L16.9654 37.8361C16.9674 37.7166 16.9792 37.5957 17.0015 37.4743C17.2183 36.2935 18.346 35.511 19.5201 35.7266C20.6942 35.9422 21.4702 37.0743 21.2534 38.2551C21.2311 38.3766 21.1991 38.4938 21.1585 38.6061L52.3684 44.3375C54.7166 44.7687 56.9719 43.2037 57.4056 40.842L62.1174 15.1841C62.5511 12.8223 60.9991 10.5582 58.6508 10.1269L27.4703 4.40096ZM23.7084 12.9195C24.8825 13.1352 26.0101 12.3527 26.227 11.1718C26.4438 9.99092 25.6678 8.85885 24.4937 8.64323C23.3195 8.42761 22.1919 9.21011 21.9751 10.391C21.7582 11.5719 22.5342 12.7039 23.7084 12.9195ZM24.9836 17.9426C24.7667 19.1235 23.6391 19.906 22.465 19.6904C21.2908 19.4748 20.5148 18.3427 20.7317 17.1618C20.9485 15.9809 22.0761 15.1984 23.2503 15.4141C24.4244 15.6297 25.2004 16.7618 24.9836 17.9426ZM21.2216 26.4612C22.3957 26.6768 23.5233 25.8943 23.7402 24.7135C23.957 23.5326 23.181 22.4005 22.0069 22.1849C20.8327 21.9693 19.7051 22.7518 19.4883 23.9327C19.2714 25.1135 20.0474 26.2456 21.2216 26.4612ZM22.4968 31.4843C22.2799 32.6652 21.1523 33.4477 19.9782 33.2321C18.804 33.0164 18.028 31.8844 18.2449 30.7035C18.4617 29.5226 19.5894 28.7401 20.7635 28.9557C21.9376 29.1714 22.7136 30.3034 22.4968 31.4843Z" fill="#A6D1D9"/>
<rect x="30.1519" y="13.7344" width="27.3789" height="2.89855" rx="1.44928" transform="rotate(10.4058 30.1519 13.7344)" fill="#75B8C4"/>
<rect x="28.8428" y="20.8616" width="27.3789" height="2.89855" rx="1.44928" transform="rotate(10.4058 28.8428 20.8616)" fill="#75B8C4"/>
<rect x="27.5342" y="27.9888" width="27.3789" height="2.89855" rx="1.44928" transform="rotate(10.4058 27.5342 27.9888)" fill="#75B8C4"/>
<ellipse cx="39.9788" cy="52.3851" rx="31.8182" ry="0.871622" fill="black" fill-opacity="0.05"/>
<rect width="7.50558" height="1.73747" rx="0.868734" transform="matrix(0.49834 -0.866982 0.865064 0.501662 49.4668 27.4466)" fill="#006678"/>
<path fill-rule="evenodd" clip-rule="evenodd" d="M59.6484 50.0608C64.9202 50.0608 69.1938 45.7682 69.1938 40.473C69.1938 35.1778 64.9202 30.8851 59.6484 30.8851C54.3766 30.8851 50.1029 35.1778 50.1029 40.473C50.1029 45.7682 54.3766 50.0608 59.6484 50.0608ZM59.6484 52.0946C66.0384 52.0946 71.2186 46.8914 71.2186 40.473C71.2186 34.0545 66.0384 28.8513 59.6484 28.8513C53.2583 28.8513 48.0781 34.0545 48.0781 40.473C48.0781 46.8914 53.2583 52.0946 59.6484 52.0946Z" fill="#002329"/>
<rect width="3.62543" height="1.73747" rx="0.868734" transform="matrix(0.49834 -0.866982 0.865064 0.501662 27.7534 24.4557)" fill="#006678"/>
<path fill-rule="evenodd" clip-rule="evenodd" d="M19.7309 50.0608C25.0027 50.0608 29.2764 45.7682 29.2764 40.473C29.2764 35.1778 25.0027 30.8851 19.7309 30.8851C14.4591 30.8851 10.1854 35.1778 10.1854 40.473C10.1854 45.7682 14.4591 50.0608 19.7309 50.0608ZM19.7309 52.0946C26.121 52.0946 31.3011 46.8914 31.3011 40.473C31.3011 34.0545 26.121 28.8513 19.7309 28.8513C13.3408 28.8513 8.16064 34.0545 8.16064 40.473C8.16064 46.8914 13.3408 52.0946 19.7309 52.0946Z" fill="#002329"/>
<path fill-rule="evenodd" clip-rule="evenodd" d="M59.6485 29.2872C53.498 29.2872 48.5121 34.2952 48.5121 40.473H46.4873C46.4873 33.172 52.3798 27.2534 59.6485 27.2534C66.9172 27.2534 72.8096 33.172 72.8096 40.473C72.8096 40.8022 72.4875 41.0351 72.1749 40.9319L71.4713 40.6996C71.0616 40.5643 70.7893 40.1805 70.7619 39.7499C70.3909 33.9091 65.5571 29.2872 59.6485 29.2872Z" fill="#006678"/>
<path fill-rule="evenodd" clip-rule="evenodd" d="M31.0133 40.6808C30.5846 40.5577 30.2938 40.1645 30.2643 39.7194C29.895 34.1438 25.4584 29.6859 19.9081 29.3125C19.4622 29.2825 19.0684 28.9906 18.9461 28.5608L18.7325 27.8099C18.6532 27.5308 18.8627 27.2534 19.1528 27.2534C26.4215 27.2534 32.3139 33.172 32.3139 40.473C32.3139 40.764 32.0352 40.974 31.7554 40.8938L31.0133 40.6808Z" fill="#006678"/>
<mask id="path-12-inside-1_4710_702" fill="white">
<ellipse cx="59.6484" cy="40.473" rx="2.89256" ry="2.90541"/>
</mask>
<ellipse cx="59.6484" cy="40.473" rx="2.89256" ry="2.90541" fill="#002329"/>
<path d="M59.041 40.473C59.041 40.1592 59.2983 39.8784 59.6484 39.8784V46.8784C63.1935 46.8784 66.041 43.9959 66.041 40.473H59.041ZM59.6484 39.8784C59.9985 39.8784 60.2559 40.1592 60.2559 40.473H53.2559C53.2559 43.9959 56.1033 46.8784 59.6484 46.8784V39.8784ZM60.2559 40.473C60.2559 40.7867 59.9985 41.0676 59.6484 41.0676V34.0676C56.1033 34.0676 53.2559 36.95 53.2559 40.473H60.2559ZM59.6484 41.0676C59.2983 41.0676 59.041 40.7867 59.041 40.473H66.041C66.041 36.95 63.1935 34.0676 59.6484 34.0676V41.0676Z" fill="#002329" mask="url(#path-12-inside-1_4710_702)"/>
<mask id="path-14-inside-2_4710_702" fill="white">
<ellipse cx="19.7309" cy="40.473" rx="2.89256" ry="2.90541"/>
</mask>
<ellipse cx="19.7309" cy="40.473" rx="2.89256" ry="2.90541" fill="#002329"/>
<path d="M19.1235 40.473C19.1235 40.1592 19.3809 39.8784 19.7309 39.8784V46.8784C23.2761 46.8784 26.1235 43.9959 26.1235 40.473H19.1235ZM19.7309 39.8784C20.081 39.8784 20.3384 40.1592 20.3384 40.473H13.3384C13.3384 43.9959 16.1858 46.8784 19.7309 46.8784V39.8784ZM20.3384 40.473C20.3384 40.7867 20.081 41.0676 19.7309 41.0676V34.0676C16.1858 34.0676 13.3384 36.95 13.3384 40.473H20.3384ZM19.7309 41.0676C19.3809 41.0676 19.1235 40.7867 19.1235 40.473H26.1235C26.1235 36.95 23.2761 34.0676 19.7309 34.0676V41.0676Z" fill="#002329" mask="url(#path-14-inside-2_4710_702)"/>
<rect width="19.367" height="4.05409" rx="1" transform="matrix(0.49834 0.866982 -0.865064 0.501662 35.7612 25.591)" fill="#007C92"/>
<rect width="8.29774" height="4.06637" rx="1" transform="matrix(0.965638 0.259891 -0.257751 0.966211 28.2222 23.7954)" fill="#007C92"/>
<path d="M49.814 21.6215C49.814 21.1215 50.2193 20.7162 50.7192 20.7162L56.2173 20.7162C56.8344 20.7162 57.3346 21.2165 57.3346 21.8335C57.3346 22.4846 56.7803 22.9977 56.1312 22.9476L50.6495 22.524C50.178 22.4876 49.814 22.0944 49.814 21.6215Z" fill="#004E5C"/>
<rect width="18.2955" height="2.89578" rx="1" transform="matrix(0.49834 -0.866982 0.865064 0.501662 41.1362 40.778)" fill="#007C92"/>
<path d="M45.7496 41.6351C45.7496 42.9224 44.7127 43.9527 43.45 43.9527C42.1873 43.9527 41.1504 42.9224 41.1504 41.6351C41.1504 40.3479 42.1873 39.3176 43.45 39.3176C44.7127 39.3176 45.7496 40.3479 45.7496 41.6351Z" stroke="#004E5C" stroke-width="3.5"/>
<rect width="20.6021" height="2.89578" rx="1" transform="matrix(0.498339 -0.866982 0.865064 0.501662 17.6172 40.9288)" fill="#007C92"/>
<path d="M28.6383 22.1749C28.2382 21.9428 28.0484 21.4661 28.1793 21.0221L28.3078 20.5862L30.5406 21.8811C30.8293 22.0485 30.9285 22.4187 30.7622 22.7081C30.5959 22.9974 30.2271 23.0962 29.9384 22.9288L28.6383 22.1749Z" fill="#006678"/>
<rect width="5.80909" height="1.15737" rx="0.578685" transform="matrix(-0.257751 -0.966211 0.965638 -0.259891 22.3853 22.6381)" fill="#006678"/>
<rect x="27.252" y="22.662" width="8.13513" height="1.15702" rx="0.578512" transform="rotate(-90 27.252 22.662)" fill="#006678"/>
<path d="M28.2793 22.0808C28.2793 22.4017 28.0192 22.6619 27.6982 22.6619L22.839 22.6619C22.5181 22.6619 22.2579 22.4017 22.2579 22.0808C22.2579 21.7599 22.5181 21.4997 22.839 21.4997L27.6982 21.4997C28.0192 21.4997 28.2793 21.7599 28.2793 22.0808Z" fill="#006678"/>
<ellipse cx="1.44671" cy="1.45227" rx="1.44671" ry="1.45227" transform="matrix(0.965638 0.259891 -0.257751 0.966211 27.1538 13.7432)" fill="#003943"/>
<ellipse cx="19.7309" cy="40.473" rx="0.578512" ry="0.581081" fill="#004E5C"/>
<rect width="16.9666" height="1.70373" rx="0.851867" transform="matrix(-0.653441 -0.756977 0.754104 -0.656755 59.7568 41.0704)" fill="#007C92"/>
<rect x="60.8057" y="41.6351" width="16.7769" height="2.32433" rx="1" transform="rotate(180 60.8057 41.6351)" fill="#007C92"/>
<path d="M43.4499 37.5676H57.6234V40.473L46.3424 42.5068L42.5821 44.8311L40.2681 41.3446L43.4499 37.5676Z" fill="#004E5C"/>
<ellipse cx="57.6235" cy="39.0203" rx="1.44628" ry="1.4527" fill="#004E5C"/>
<ellipse cx="59.6483" cy="40.473" rx="0.578512" ry="0.581081" fill="#004E5C"/>
<path d="M44.0288 47.446C44.0288 47.7669 43.7686 48.027 43.4477 48.027L40.5603 48.027C40.2394 48.027 39.9792 47.7669 39.9792 47.446C39.9792 47.125 40.2394 46.8649 40.5603 46.8649L43.4477 46.8649C43.7686 46.8649 44.0288 47.125 44.0288 47.446Z" fill="#007C92"/>
<path d="M41.8542 47.6719C41.5456 47.5889 41.3622 47.2712 41.4446 46.9624L42.8087 41.8488C42.8911 41.54 43.208 41.357 43.5167 41.44C43.8253 41.5231 44.0087 41.8408 43.9263 42.1496L42.5622 47.2632C42.4798 47.572 42.1628 47.755 41.8542 47.6719Z" fill="#007C92"/>
</g>
<defs>
<clipPath id="clip0_4710_702">
<rect width="80" height="54" fill="white" transform="translate(0.425293)"/>
</clipPath>
</defs>
</svg>
