<svg width="82" height="54" viewBox="0 0 82 54" fill="none" xmlns="http://www.w3.org/2000/svg">
<g clip-path="url(#clip0_4710_774)">
<path fill-rule="evenodd" clip-rule="evenodd" d="M27.4703 4.40096C27.2535 5.58183 26.1259 6.36433 24.9518 6.14871C23.7776 5.93309 23.0016 4.80102 23.2185 3.62014L10.4628 1.2777C8.11457 0.84647 5.85935 2.41146 5.42564 4.7732L0.713825 30.4311C0.280114 32.7929 1.83216 35.057 4.1804 35.4882L16.9654 37.8361C16.9674 37.7166 16.9792 37.5957 17.0015 37.4743C17.2183 36.2935 18.346 35.511 19.5201 35.7266C20.6942 35.9422 21.4702 37.0743 21.2534 38.2551C21.2311 38.3766 21.1991 38.4938 21.1585 38.6061L52.3684 44.3375C54.7166 44.7687 56.9719 43.2037 57.4056 40.842L62.1174 15.1841C62.5511 12.8223 60.9991 10.5582 58.6508 10.1269L27.4703 4.40096ZM23.7084 12.9195C24.8825 13.1352 26.0101 12.3527 26.227 11.1718C26.4438 9.99092 25.6678 8.85885 24.4937 8.64323C23.3195 8.42761 22.1919 9.21011 21.9751 10.391C21.7582 11.5719 22.5342 12.7039 23.7084 12.9195ZM24.9836 17.9426C24.7667 19.1235 23.6391 19.906 22.465 19.6904C21.2908 19.4748 20.5148 18.3427 20.7317 17.1618C20.9485 15.9809 22.0761 15.1984 23.2503 15.4141C24.4244 15.6297 25.2004 16.7618 24.9836 17.9426ZM21.2216 26.4612C22.3957 26.6768 23.5233 25.8943 23.7402 24.7135C23.957 23.5326 23.181 22.4005 22.0069 22.1849C20.8327 21.9693 19.7051 22.7518 19.4883 23.9327C19.2714 25.1135 20.0474 26.2456 21.2216 26.4612ZM22.4968 31.4843C22.2799 32.6652 21.1523 33.4477 19.9782 33.2321C18.804 33.0164 18.028 31.8844 18.2449 30.7035C18.4617 29.5226 19.5894 28.7401 20.7635 28.9557C21.9376 29.1714 22.7136 30.3034 22.4968 31.4843Z" fill="#A6D1D9"/>
<rect x="30.1519" y="13.7344" width="27.3789" height="2.89855" rx="1.44928" transform="rotate(10.4058 30.1519 13.7344)" fill="#75B8C4"/>
<rect x="28.8428" y="20.8616" width="27.3789" height="2.89855" rx="1.44928" transform="rotate(10.4058 28.8428 20.8616)" fill="#75B8C4"/>
<rect x="27.5342" y="27.9888" width="27.3789" height="2.89855" rx="1.44928" transform="rotate(10.4058 27.5342 27.9888)" fill="#75B8C4"/>
<path d="M4.42529 51.9998C4.42529 52.552 21.4385 52.9998 42.4253 52.9998C63.4121 52.9998 80.4253 52.552 80.4253 51.9998C80.4253 51.4475 63.4121 50.9998 42.4253 50.9998C21.4385 50.9998 4.42529 51.4475 4.42529 51.9998Z" fill="black" fill-opacity="0.05"/>
<path d="M11.0378 46.7554L24.5469 48.2934V39.373H11.0378V46.7554Z" fill="#37424A"/>
<path d="M58.3195 48.601H71.8286V39.373H58.3195V48.601Z" fill="#37424A"/>
<path d="M23.0487 27.4599L24.2762 27.826L20.0201 29.1556L19.6836 28.5523C19.5988 28.4002 19.538 28.236 19.5033 28.0654L19.4126 27.6194C19.3571 27.3467 19.5574 27.0884 19.8353 27.0742C20.9207 27.0189 22.0075 27.1493 23.0487 27.4599Z" fill="#007C92"/>
<path d="M79.9022 48.7319C80.2097 48.6549 80.4254 48.3785 80.4254 48.0615V47.831C80.4254 47.5767 80.2192 47.3705 79.9649 47.3705C79.8801 47.3705 79.8114 47.3017 79.8114 47.217V45.6784C79.8114 45.5936 79.8801 45.5249 79.9649 45.5249C80.2192 45.5249 80.4254 45.3187 80.4254 45.0643V41.4185C80.4254 40.1533 79.7481 38.9851 78.6501 38.3565C76.9814 37.4011 75.1561 36.7499 73.2595 36.4332L63.8874 34.8682C62.2401 34.5932 60.5538 34.6606 58.9337 35.0664L50.3189 30.7509C47.0767 29.1268 43.597 28.0279 40.0099 27.4955C38.0959 27.2114 36.1636 27.0688 34.2286 27.0688H29.0917C26.8844 27.0688 24.6809 27.2515 22.5038 27.615L21.7896 27.7343C17.1152 28.5148 12.6167 30.1198 8.50395 32.4744L7.13188 33.2599C6.50952 33.6162 6.12556 34.2784 6.12556 34.9956V39.0705C6.12556 39.2677 6.06729 39.4604 5.95809 39.6245L5.2324 40.7151C5.01399 41.0433 4.89746 41.4288 4.89746 41.8231V42.1817C4.89746 44.5012 6.49263 46.5161 8.75022 47.0483L10.1169 47.3705L10.5481 47.4155C11.1382 47.4771 11.6519 47.0142 11.6519 46.4209C11.6519 46.3287 11.6519 46.2351 11.6519 46.1401C11.6519 42.7424 14.4011 39.988 17.7924 39.988C21.1837 39.988 23.9328 42.7424 23.9328 46.1401L23.9329 47.9113C23.9329 48.4234 24.3198 48.8527 24.8291 48.9059L24.854 48.9085L57.9272 49.1223C58.482 49.1258 58.9336 48.6771 58.9336 48.1223L58.9336 46.1401C58.9336 42.7424 61.6828 39.988 65.0741 39.988C68.4654 39.988 71.2146 42.7424 71.2146 46.1401L71.2146 48.2146C71.2146 48.7644 71.6584 49.211 72.2082 49.2146L72.4428 49.2161H77.2871C77.7401 49.2161 78.1915 49.1604 78.6309 49.0503L79.9022 48.7319Z" fill="#429EAE"/>
<path fill-rule="evenodd" clip-rule="evenodd" d="M36.3091 34.7977L34.7766 28.3492L35.1947 28.2494L36.7325 34.7201L37.9638 44.2807V46.7671L53.6665 47.1018C54.9227 47.1286 55.9554 46.1157 55.9554 44.8569V36.9621C55.9554 36.4738 55.6436 36.0404 55.1813 35.886L55.3172 35.4775C55.955 35.6905 56.3853 36.2885 56.3853 36.9621V44.8569C56.3853 46.3571 55.1544 47.5643 53.6573 47.5324L28.5773 46.9978C27.71 46.9793 26.9056 46.5399 26.4202 45.8195L19.2627 35.1958C18.9647 34.7535 18.8055 34.2321 18.8055 33.6985V31.3753H19.2353V33.6985C19.2353 34.1462 19.3689 34.5837 19.6189 34.9548L26.7765 45.5785C27.1837 46.183 27.8587 46.5517 28.5865 46.5672L37.534 46.758V44.3084L36.3091 34.7977Z" fill="#007C92"/>
<path d="M33.7605 28.0995C34.9928 28.0269 36.2292 28.0851 37.4492 28.2731L40.7833 28.787C42.7009 29.0826 44.5561 29.6956 46.273 30.6009L55.3921 35.4095C55.5189 35.4763 55.5827 35.6221 55.5458 35.7608C55.509 35.8995 55.3813 35.9942 55.2382 35.9891L38.0333 35.3735L22.5081 33.6452C21.7621 33.5622 21.0428 33.3189 20.3992 32.932L19.2075 32.2156C18.5842 31.841 18.6193 30.9246 19.2694 30.5989L19.3019 30.5827C19.4448 30.5111 19.5926 30.4497 19.7442 30.3991L22.9064 29.3431C24.3639 28.8563 25.8791 28.564 27.4128 28.4736L33.7605 28.0995Z" fill="#37424A"/>
<ellipse cx="5.52644" cy="5.53682" rx="5.52644" ry="5.53682" transform="matrix(-1 0 0 1 70.6006 40.6034)" fill="black"/>
<ellipse cx="5.52644" cy="5.53682" rx="5.52644" ry="5.53682" transform="matrix(-1 0 0 1 23.3188 40.6034)" fill="black"/>
<ellipse cx="4.29834" cy="4.30642" rx="4.29834" ry="4.30642" transform="matrix(-1 0 0 1 69.3726 41.8338)" fill="#429EAE"/>
<ellipse cx="4.29834" cy="4.30642" rx="4.29834" ry="4.30642" transform="matrix(-1 0 0 1 22.0908 41.8338)" fill="#429EAE"/>
<ellipse cx="1.53512" cy="1.53801" rx="1.53512" ry="1.53801" transform="matrix(-1 0 0 1 17.1782 34.4513)" fill="#007C92"/>
<path d="M7.11099 33.2717C6.89693 33.3977 6.71175 33.5601 6.56152 33.7485L11.2985 32.7993C11.9407 32.6707 12.563 32.4568 13.1488 32.1633L16.5856 30.4417C16.8299 30.3193 16.8299 29.97 16.5856 29.8476C16.5715 29.8406 16.557 29.8345 16.5421 29.8296L15.2578 29.4007C12.9538 30.2006 10.7234 31.2111 8.59557 32.4218L7.11099 33.2717Z" fill="#37424A"/>
<path d="M9.40687 36.8061L12.544 35.2346C13.1218 34.9452 13.0618 34.1019 12.4489 33.8972C12.3288 33.8571 12.2004 33.8491 12.0763 33.8739L9.19545 34.4512L7.49629 34.8768C7.05134 34.9882 6.73926 35.3881 6.73926 35.8468V35.912C6.73926 36.4643 7.18697 36.912 7.73926 36.912H8.95899C9.11449 36.912 9.26784 36.8758 9.40687 36.8061Z" fill="#C76B89"/>
<path d="M71.9286 38.7976L77.4254 41.0005C77.7423 41.1275 78.1048 41.0148 78.2939 40.7306L78.4365 40.5164C78.7836 39.9947 78.6713 39.3133 78.2196 38.9241C78.0683 38.7938 77.8692 38.7409 77.6723 38.708L72.2094 37.7958C71.7075 37.712 71.3935 38.3214 71.7529 38.6816C71.803 38.7318 71.8628 38.7712 71.9286 38.7976Z" fill="#E3E5E6"/>
<path d="M78.5831 45.3629V45.1236C78.5831 44.6657 78.2119 44.2945 77.7539 44.2945C77.5018 44.2945 77.2634 44.4092 77.106 44.6062L76.1955 45.7465C75.6726 46.4014 76.1389 47.3705 76.977 47.3705H77.2478C77.6785 47.3705 78.0608 47.0948 78.1967 46.6862L78.5319 45.6786C78.5658 45.5768 78.5831 45.4702 78.5831 45.3629Z" fill="#006678"/>
<path d="M58.9343 35.0662L50.3191 30.7509C49.4262 30.3036 48.5153 29.8962 47.5891 29.5294H47.2674C46.9615 29.5294 46.8641 29.9426 47.1377 30.0797L57.0922 35.0662H58.9343Z" fill="#37424A"/>
<path d="M80.4252 44.2944V41.1579C80.4252 40.859 80.3819 40.5663 80.2998 40.2875L79.7242 40.4523C79.4239 40.5383 79.2359 40.8363 79.2872 41.145L79.7256 43.7803C79.775 44.077 80.0312 44.2944 80.3313 44.2944H80.4252Z" fill="#006678"/>
<path d="M4.89746 43.0641V44.2234C4.89746 45.6509 5.49828 46.3711 6.88515 46.6981L9.64428 47.2591C9.62025 47.1779 9.57928 47.101 9.52182 47.0338L6.30936 43.2789C6.1927 43.1425 6.02239 43.0641 5.84314 43.0641H4.89746Z" fill="#006678"/>
<path d="M33.1782 28.1338L33.7608 28.0995C34.5373 28.0537 35.3154 28.0599 36.0901 28.1178L39.1712 35.4142L38.0336 35.3735L33.697 34.8907L33.1782 28.1338Z" fill="black"/>
<path d="M22.7905 29.3818L23.2728 33.7303L22.5081 33.6452C21.7621 33.5622 21.0428 33.3189 20.3992 32.932L19.2075 32.2156C18.5842 31.841 18.6193 30.9246 19.2694 30.5989L19.3019 30.5827C19.4448 30.5111 19.5926 30.4498 19.7442 30.3991L22.7905 29.3818Z" fill="black"/>
</g>
<defs>
<clipPath id="clip0_4710_774">
<rect width="81" height="54" fill="white" transform="translate(0.425293)"/>
</clipPath>
</defs>
</svg>
