<svg width="121" height="74" viewBox="0 0 121 74" fill="none" xmlns="http://www.w3.org/2000/svg">
<ellipse cx="58" cy="69.5" rx="55" ry="1.5" fill="#F1F2F2"/>
<rect x="74.4004" y="26.5825" width="12.9308" height="3" rx="1" transform="rotate(-60 74.4004 26.5825)" fill="#007C92"/>
<circle cx="92" cy="49" r="18.25" stroke="#002329" stroke-width="3.5"/>
<rect x="36.8672" y="21.4355" width="6.246" height="3" rx="1" transform="rotate(-60 36.8672 21.4355)" fill="#429EAE"/>
<circle cx="23" cy="49" r="18.25" stroke="#002329" stroke-width="3.5"/>
<path fill-rule="evenodd" clip-rule="evenodd" d="M92 29.75C81.3685 29.75 72.75 38.3685 72.75 49H69.25C69.25 36.4355 79.4355 26.25 92 26.25C104.564 26.25 114.75 36.4355 114.75 49C114.75 49.567 114.196 49.9682 113.657 49.7912L111.938 49.226C111.527 49.0912 111.253 48.7067 111.237 48.275C110.855 37.9795 102.389 29.75 92 29.75Z" fill="#007C92"/>
<path fill-rule="evenodd" clip-rule="evenodd" d="M41.9753 49.2072C41.546 49.0846 41.2526 48.691 41.2354 48.2448C40.8485 38.2139 32.7861 30.1515 22.7552 29.7645C22.309 29.7473 21.9154 29.454 21.7927 29.0247L21.2747 27.2116C21.137 26.7297 21.4988 26.25 22 26.25C34.5645 26.25 44.75 36.4355 44.75 49C44.75 49.5011 44.2703 49.863 43.7885 49.7253L41.9753 49.2072Z" fill="#007C92"/>
<circle cx="92" cy="49" r="3.25" fill="#002329" stroke="#002329" stroke-width="3.5"/>
<circle cx="23" cy="49" r="3.25" fill="#002329" stroke="#002329" stroke-width="3.5"/>
<rect x="50.709" y="23.3892" width="33.366" height="7" rx="1" transform="rotate(60 50.709 23.3892)" fill="#75B8C4"/>
<rect x="37.6777" y="20.2988" width="14.339" height="7" rx="1" transform="rotate(15 37.6777 20.2988)" fill="#75B8C4"/>
<path d="M75 16.5576C75 15.6974 75.6974 15 76.5576 15L86.0768 15C87.139 15 88 15.861 88 16.9232C88 18.0435 87.0463 18.9266 85.9293 18.8407L76.4381 18.1106C75.6266 18.0482 75 17.3715 75 16.5576Z" fill="#006678"/>
<rect x="60" y="49.5249" width="31.52" height="5" rx="1" transform="rotate(-60 60 49.5249)" fill="#75B8C4"/>
<circle cx="64" cy="51" r="5.25" stroke="#006678" stroke-width="3.5"/>
<rect x="19.3457" y="49.7842" width="35.494" height="5" rx="1" transform="rotate(-60 19.3457 49.7842)" fill="#75B8C4"/>
<path d="M37.8999 17.2232C37.4995 16.9921 37.3097 16.5166 37.441 16.0733L37.8252 14.776L41.7223 17.026C42.2006 17.3022 42.3645 17.9138 42.0883 18.3921L42.0473 18.4631C41.7712 18.9414 41.1596 19.1052 40.6813 18.8291L37.8999 17.2232Z" fill="#429EAE"/>
<rect x="27.5879" y="18.3076" width="10" height="2" rx="1" transform="rotate(-105 27.5879 18.3076)" fill="#429EAE"/>
<rect x="36" y="18.3486" width="14" height="2" rx="1" transform="rotate(-90 36 18.3486)" fill="#429EAE"/>
<path d="M37.7764 17.3486C37.7764 17.9009 37.3287 18.3486 36.7764 18.3486L28.368 18.3486C27.8157 18.3486 27.368 17.9009 27.368 17.3486C27.368 16.7963 27.8157 16.3486 28.368 16.3486L36.7764 16.3486C37.3287 16.3486 37.7764 16.7963 37.7764 17.3486Z" fill="#429EAE"/>
<circle cx="37.5988" cy="6.06186" r="2.5" transform="rotate(15 37.5988 6.06186)" fill="#003943"/>
<circle cx="23" cy="49" r="1" fill="#004E5C"/>
<rect x="92.1875" y="50.0283" width="29.2538" height="2.93942" rx="1" transform="rotate(-130.927 92.1875 50.0283)" fill="#75B8C4"/>
<rect x="94" y="51" width="29" height="4" rx="1" transform="rotate(180 94 51)" fill="#75B8C4"/>
<path d="M64 44H88.5V49L69 52.5L62.5 56.5L58.5 50.5L64 44Z" fill="#006678"/>
<circle cx="88.5" cy="46.5" r="2.5" fill="#006678"/>
<circle cx="92" cy="49" r="1" fill="#004E5C"/>
<path d="M65 61C65 61.5523 64.5523 62 64 62L59 62C58.4477 62 58 61.5523 58 61C58 60.4477 58.4477 60 59 60L64 60C64.5523 60 65 60.4477 65 61Z" fill="#429EAE"/>
<path d="M61.2413 61.3887C60.7079 61.2458 60.3913 60.6974 60.5342 60.164L62.8902 51.3711C63.0332 50.8377 63.5815 50.5211 64.115 50.664C64.6485 50.807 64.965 51.3553 64.8221 51.8888L62.4661 60.6816C62.3231 61.2151 61.7748 61.5316 61.2413 61.3887Z" fill="#429EAE"/>
</svg>
