<svg width="93" height="92" viewBox="0 0 93 92" fill="none" xmlns="http://www.w3.org/2000/svg">
<ellipse cx="46.0186" cy="87.5" rx="44" ry="1.5" fill="#202323"/>
<path fill-rule="evenodd" clip-rule="evenodd" d="M75.0186 83.5C77.5038 83.5 79.5186 81.4853 79.5186 79C79.5186 76.5147 77.5038 74.5 75.0186 74.5C72.5333 74.5 70.5186 76.5147 70.5186 79C70.5186 81.4853 72.5333 83.5 75.0186 83.5ZM75.0186 87C79.4368 87 83.0186 83.4183 83.0186 79C83.0186 74.5817 79.4368 71 75.0186 71C70.6003 71 67.0186 74.5817 67.0186 79C67.0186 83.4183 70.6003 87 75.0186 87Z" fill="#1F4D5B"/>
<path fill-rule="evenodd" clip-rule="evenodd" d="M17.0186 83.5C19.5038 83.5 21.5186 81.4853 21.5186 79C21.5186 76.5147 19.5038 74.5 17.0186 74.5C14.5333 74.5 12.5186 76.5147 12.5186 79C12.5186 81.4853 14.5333 83.5 17.0186 83.5ZM17.0186 87C21.4368 87 25.0186 83.4183 25.0186 79C25.0186 74.5817 21.4368 71 17.0186 71C12.6003 71 9.01855 74.5817 9.01855 79C9.01855 83.4183 12.6003 87 17.0186 87Z" fill="#1F4D5B"/>
<path fill-rule="evenodd" clip-rule="evenodd" d="M19.0186 72H12.7993C12.3405 72 11.9405 71.6877 11.8292 71.2425L11.3292 69.2425C11.1714 68.6114 11.6488 68 12.2993 68H19.0186C23.6517 68 27.4671 71.5009 27.9638 76.0016C28.0244 76.5506 27.5708 77 27.0186 77H25.0186C24.4663 77 24.029 76.5478 23.9198 76.0064C23.459 73.721 21.4398 72 19.0186 72Z" fill="#007C92"/>
<path fill-rule="evenodd" clip-rule="evenodd" d="M73.0186 72H81.2378C81.6966 72 82.0966 71.6877 82.2079 71.2425L82.7079 69.2425C82.8657 68.6114 82.3883 68 81.7378 68H73.0186C68.048 68 64.0186 72.0294 64.0186 77H68.0186C68.0186 74.2386 70.2571 72 73.0186 72Z" fill="#007C92"/>
<rect x="34.0186" y="76" width="44" height="5" rx="1" fill="#5C9CAC"/>
<rect x="25.2185" y="55" width="26.6391" height="5" transform="rotate(60 25.2185 55)" fill="#5C9CAC"/>
<path d="M24.7843 44.1901L34.3606 8.45087L28.5651 6.89795L29.3415 4.00017L35.1371 5.55309L38.0349 6.32955L27.6821 44.9666L24.7843 44.1901Z" fill="#007C92"/>
<circle cx="28.5186" cy="5.5" r="2.5" fill="#1F4D5B"/>
<rect x="14.0186" y="80.5361" width="56.46" height="5" rx="1" transform="rotate(-75 14.0186 80.5361)" fill="#5C9CAC"/>
<circle cx="17.0186" cy="79" r="1" fill="#004E5C"/>
<circle cx="75.0186" cy="79" r="1" fill="#004E5C"/>
</svg>
