<svg width="40" height="40" viewBox="0 0 40 40" fill="none" xmlns="http://www.w3.org/2000/svg">
<rect x="10" y="10" width="20" height="20" fill="white"/>
<path fill-rule="evenodd" clip-rule="evenodd" d="M2.08008 20.0001C2.08008 10.1001 10.1001 2.08008 20.0001 2.08008C29.9001 2.08008 37.92 10.1001 37.92 20.0001C37.92 29.9001 29.9001 37.9201 20.0001 37.9201C10.1001 37.9201 2.08008 29.9001 2.08008 20.0001ZM20.3301 16.7201C20.7701 16.7901 21.3501 16.9601 21.8301 17.4801C22.2801 17.9801 22.4101 18.5501 22.4601 18.9601C22.5001 19.3101 22.5001 19.7301 22.5001 20.1001V27.5001C22.5001 28.4201 21.7501 29.1701 20.8301 29.1701C19.9101 29.1701 19.16 28.4201 19.16 27.5001V20.0001C18.24 20.0001 17.4901 19.2501 17.4901 18.3301C17.4901 17.4101 18.24 16.6601 19.16 16.6601H19.23C19.56 16.6601 19.9701 16.6601 20.3201 16.7101L20.3301 16.7201ZM20.0001 11.6701C19.0801 11.6701 18.3301 12.4201 18.3301 13.3401C18.3301 14.2601 19.0801 15.0101 20.0001 15.0101C20.9201 15.0101 21.67 14.2601 21.67 13.3401C21.67 12.4201 20.9201 11.6701 20.0001 11.6701Z" fill="#0A4C4F"/>
</svg>
