<svg width="40" height="40" viewBox="0 0 40 40" fill="none" xmlns="http://www.w3.org/2000/svg">
<path fill-rule="evenodd" clip-rule="evenodd" d="M17.7953 4.92404C18.8868 2.80315 21.9465 2.80315 23.038 4.92404L26.7155 12.0706C26.7765 12.1892 26.8912 12.2717 27.0238 12.2926L35.0177 13.5535C37.3887 13.9274 38.3335 16.8047 36.638 18.4884L30.9153 24.1709C30.8205 24.265 30.7768 24.3982 30.7978 24.5295L32.0592 32.4604C32.433 34.8109 29.9582 36.5899 27.8175 35.5099L20.6075 31.8724C20.4877 31.8119 20.3457 31.8119 20.2258 31.8724L13.0159 35.5099C10.8751 36.5899 8.40041 34.8109 8.77423 32.4604L10.0356 24.5295C10.0565 24.3982 10.0128 24.265 9.91799 24.1709L4.19531 18.4884C2.49989 16.8047 3.44469 13.9274 5.81569 13.5535L13.8095 12.2926C13.9422 12.2717 14.0568 12.1892 14.1178 12.0706L17.7953 4.92404Z" fill="black"/>
</svg>
