<svg width="40" height="40" viewBox="0 0 40 40" fill="none" xmlns="http://www.w3.org/2000/svg">
<path fill-rule="evenodd" clip-rule="evenodd" d="M20.3713 6.46055C20.2167 6.15719 19.7833 6.15719 19.6287 6.46055L15.9829 13.6145C15.5594 14.4455 14.764 15.0239 13.843 15.1706L5.91818 16.4327C5.58237 16.4862 5.44858 16.8977 5.68868 17.1384L11.362 22.8269C12.0198 23.4864 12.3229 24.4203 12.178 25.3404L10.9275 33.2794C10.8746 33.6155 11.2251 33.8701 11.5284 33.7156C12.741 33.098 18.2007 30.3165 18.6761 30.0743C19.5079 29.6505 20.4921 29.6505 21.3239 30.0743C21.7993 30.3165 27.2589 33.098 28.4716 33.7156C28.775 33.8701 29.1253 33.6155 29.0724 33.2795L27.8221 25.3405C27.6771 24.4205 27.9801 23.4865 28.6379 22.8269L34.3113 17.1384C34.5515 16.8976 34.4176 16.4861 34.0819 16.4327L26.1571 15.1706C25.236 15.0238 24.4406 14.4455 24.0171 13.6145L20.3713 6.46055ZM17.4013 5.32531C18.4834 3.20227 21.5166 3.20227 22.5987 5.32531L26.2445 12.4794C26.305 12.5981 26.4187 12.6807 26.5503 12.7017L34.4751 13.9638C36.8257 14.3382 37.7622 17.2186 36.0814 18.9038L30.4081 24.5923C30.3142 24.6864 30.2709 24.8197 30.2916 24.9514L31.5419 32.8904C31.9127 35.2434 29.4593 37.0241 27.3371 35.9433C26.1241 35.3256 20.6643 32.544 20.1891 32.3019C20.0702 32.2414 19.9298 32.2414 19.8109 32.3019C19.3356 32.544 13.8758 35.3256 12.6629 35.9433C10.5407 37.0242 8.08738 35.2434 8.45798 32.8905L9.70845 24.9515C9.72918 24.8199 9.68581 24.6865 9.5919 24.5923L3.91857 18.9038C2.23776 17.2186 3.17441 14.3382 5.52496 13.9638L13.4498 12.7017C13.5814 12.6807 13.695 12.5981 13.7555 12.4794L17.4013 5.32531Z" fill="black"/>
</svg>
