<svg width="40" height="40" viewBox="0 0 40 40" fill="none" xmlns="http://www.w3.org/2000/svg">
<path d="M31.2001 32.3999C30.8901 32.3999 30.5902 32.2799 30.3502 32.0499L7.95016 9.64991C7.48016 9.17991 7.48016 8.41991 7.95016 7.94991C8.42016 7.47991 9.18015 7.47991 9.65015 7.94991L32.0501 30.3499C32.5201 30.8199 32.5201 31.5799 32.0501 32.0499C31.8201 32.2799 31.5101 32.3999 31.2001 32.3999Z" fill="black"/>
<path d="M20.0001 37.2001C10.5201 37.2001 2.80005 29.48 2.80005 20C2.80005 10.52 10.5201 2.80005 20.0001 2.80005C29.4801 2.80005 37.2 10.52 37.2 20C37.2 29.48 29.4801 37.2001 20.0001 37.2001ZM20.0001 5.20005C11.8401 5.20005 5.20006 11.84 5.20006 20C5.20006 28.16 11.8401 34.8 20.0001 34.8C28.1601 34.8 34.8 28.16 34.8 20C34.8 11.84 28.1601 5.20005 20.0001 5.20005Z" fill="black"/>
</svg>
