<svg width="40" height="40" viewBox="0 0 40 40" fill="none" xmlns="http://www.w3.org/2000/svg">
<path d="M26.436 37.8125H14.0356C10.8556 37.8125 7.82598 36.4825 5.93598 34.2525C4.37598 32.4125 3.7259 30.1025 4.1059 27.7525C5.1459 21.2325 10.6155 14.6825 12.9155 12.1725C14.0455 10.9725 15.5758 10.3125 17.2358 10.3125H23.2358C24.8958 10.3125 26.4254 10.9725 27.5454 12.1625C29.8554 14.6825 35.3257 21.2325 36.3657 27.7625C36.7457 30.1125 36.0956 32.4125 34.5356 34.2525C32.6356 36.4825 29.606 37.8125 26.436 37.8125ZM17.2358 12.8125C16.2558 12.8125 15.3956 13.1825 14.7456 13.8725C12.6056 16.2025 7.50587 22.2925 6.56587 28.1525C6.22587 30.2225 7.0654 31.7325 7.8354 32.6325C9.2654 34.3125 11.5756 35.3125 14.0356 35.3125H26.436C28.886 35.3125 31.2062 34.3125 32.6362 32.6325C33.3962 31.7325 34.2457 30.2225 33.9057 28.1625C32.9757 22.3125 27.8663 16.2225 25.7163 13.8725C25.0763 13.1925 24.2158 12.8225 23.2358 12.8225H17.2358V12.8125Z" fill="black"/>
<path d="M25.136 12.8125C24.926 12.8125 24.7051 12.7625 24.5051 12.6425C23.9051 12.2925 23.7059 11.5325 24.0559 10.9325L26.1155 7.4025L25.4456 7.5125C24.0556 7.7625 22.5658 7.2925 21.4758 6.2525L20.2356 5.0025L19.0256 6.2225C17.9056 7.2825 16.4159 7.7525 15.0159 7.5025L14.3557 7.3925L16.4153 10.9225C16.7653 11.5225 16.5661 12.2825 15.9661 12.6325C15.3761 12.9825 14.6051 12.7825 14.2551 12.1825L10.8557 6.3525C10.6157 5.9325 10.6355 5.4125 10.9055 5.0125C11.1755 4.6125 11.656 4.4025 12.136 4.4925L15.4358 5.0425C16.0658 5.1525 16.7659 4.9225 17.2659 4.4425L19.3352 2.3525C19.8052 1.8825 20.6455 1.8825 21.1155 2.3525L23.2161 4.4725C23.6961 4.9325 24.3851 5.1625 25.0051 5.0525L28.3157 4.5025C28.7957 4.4225 29.2752 4.6225 29.5452 5.0225C29.8152 5.4225 29.8459 5.9425 29.5959 6.3625L26.1956 12.1925C25.9656 12.5925 25.5455 12.8125 25.1155 12.8125H25.136Z" fill="black"/>
</svg>
