<svg width="40" height="40" viewBox="0 0 40 40" fill="none" xmlns="http://www.w3.org/2000/svg">
<path d="M20.7303 24.4998C20.4403 24.4998 20.1404 24.4698 19.8504 24.3998C18.7404 24.1398 17.8201 23.4098 17.3201 22.3898L12.1199 12.1498C11.8599 11.6298 11.9902 10.9898 12.4402 10.6198C12.8902 10.2498 13.5398 10.2398 13.9998 10.5998L23.1004 17.7298C24.0204 18.5098 24.5403 19.6498 24.5203 20.8098C24.5003 21.9298 23.9802 22.9798 23.1102 23.6698C22.4102 24.2198 21.5695 24.4998 20.7195 24.4998H20.7303ZM16.91 16.0398L19.5604 21.2698C19.5604 21.2698 19.5601 21.2898 19.5701 21.2898C19.7901 21.7498 20.19 21.9098 20.41 21.9598C20.81 22.0498 21.2301 21.9598 21.5701 21.6998C21.9401 21.4098 22.0301 21.0298 22.0301 20.7598C22.0301 20.3398 21.8499 19.9298 21.5399 19.6698L16.91 16.0398Z" fill="black"/>
<path d="M19.9502 37.84C10.0502 37.84 2 29.8 2 19.92C2 15.05 3.90988 10.51 7.37988 7.12C7.87988 6.64 8.67039 6.65 9.15039 7.14C9.63039 7.63 9.61988 8.43 9.12988 8.91C6.14988 11.82 4.50977 15.73 4.50977 19.92C4.50977 28.42 11.44 35.34 19.96 35.34C28.48 35.34 35.4102 28.42 35.4102 19.92C35.4102 11.42 29.15 5.19 21.21 4.55V7.42C21.21 8.11 20.65 8.67 19.96 8.67C19.27 8.67 18.71 8.11 18.71 7.42V3.25C18.71 2.56 19.27 2 19.96 2C29.86 2 37.9102 10.04 37.9102 19.92C37.9102 29.8 29.86 37.84 19.96 37.84H19.9502Z" fill="black"/>
</svg>
