<svg width="40" height="40" viewBox="0 0 40 40" fill="none" xmlns="http://www.w3.org/2000/svg">
<path d="M21.6006 36.58V37.83C22.3006 37.83 22.8008 37.27 22.8008 36.58H21.6006ZM3.2002 36.58H2C2 37.27 2.5002 37.83 3.2002 37.83V36.58ZM21.6006 35.33H3.2002V37.83H21.6006V35.33ZM4.5 36.58C4.5 32.78 7.90039 29.5 12.4004 29.5V27C6.80039 27 2 31.18 2 36.58H4.5ZM12.4004 29.49C16.9004 29.49 20.3008 32.77 20.3008 36.57H22.8008C22.8008 31.17 18.0004 26.99 12.4004 26.99V29.49ZM15.3008 19.91C15.3008 21.52 14.0004 22.83 12.4004 22.83V25.33C15.4004 25.33 17.8008 22.9 17.8008 19.91H15.3008ZM12.4004 22.83C10.8004 22.83 9.5 21.52 9.5 19.91H7C7 22.9 9.40039 25.33 12.4004 25.33V22.83ZM9.5 19.91C9.5 18.3 10.8004 16.99 12.4004 16.99V14.49C9.40039 14.49 7 16.92 7 19.91H9.5ZM12.4004 16.99C14.0004 16.99 15.3008 18.3 15.3008 19.91H17.8008C17.8008 16.92 15.4004 14.49 12.4004 14.49V16.99Z" fill="black"/>
<path d="M22.6602 21.16C22.2602 21.16 21.8607 21.12 21.4707 21.05C21.0507 20.97 20.7 20.68 20.54 20.29C20.38 19.89 20.4307 19.44 20.6807 19.1C20.9407 18.74 21.2904 18.2 21.3604 17.7C21.3604 17.67 21.3601 17.65 21.3701 17.62C21.3601 17.64 21.33 17.6 21.29 17.55C19.59 15.82 18.6406 13.56 18.6406 11.22C18.6406 6.14 22.9204 2 28.1904 2C33.4604 2 37.8408 6.14 37.8408 11.22C37.8408 16.3 33.5104 20.44 28.1904 20.44H28.1699C27.6299 20.44 27.0709 20.39 26.3809 20.27C26.2609 20.25 26.1608 20.23 26.0908 20.22C26.0008 20.26 25.89 20.32 25.75 20.39C24.77 20.9 23.7104 21.16 22.6504 21.16H22.6602ZM23.8301 18.08C23.8101 18.23 23.7802 18.37 23.7402 18.51C24.0402 18.43 24.3301 18.31 24.6201 18.16C25.1601 17.89 25.3804 17.78 25.6504 17.72C25.9804 17.65 26.2603 17.7 26.8203 17.8C27.3603 17.89 27.8302 17.93 28.2002 17.93C32.1502 17.93 35.3506 14.91 35.3506 11.21C35.3506 7.51 32.1402 4.49 28.2002 4.49C24.2602 4.49 21.1504 7.51 21.1504 11.21C21.1504 12.89 21.8408 14.52 23.0908 15.8C23.7208 16.46 23.9901 17.29 23.8301 18.08ZM28.21 16.16C27.52 16.16 26.96 15.6 26.96 14.91C26.96 14.22 27.51 13.66 28.21 13.66C28.9 13.66 29.46 14.22 29.46 14.91C29.46 15.6 28.9 16.16 28.21 16.16ZM28.2002 12.83C27.5102 12.83 26.9502 12.27 26.9502 11.58V8.25C26.9502 7.56 27.5102 7 28.2002 7C28.8902 7 29.4502 7.56 29.4502 8.25V11.58C29.4502 12.27 28.8902 12.83 28.2002 12.83Z" fill="black"/>
</svg>
