<svg width="40" height="40" viewBox="0 0 40 40" fill="none" xmlns="http://www.w3.org/2000/svg">
<path d="M12.0498 16.17C11.3598 16.17 10.7998 15.61 10.7998 14.92V10.75C10.7998 5.93 14.7198 2 19.5498 2C23.0998 2 26.0499 4.17 27.4199 7.81C27.6599 8.46 27.3395 9.18 26.6895 9.42C26.0395 9.66 25.3201 9.34 25.0801 8.69C24.4901 7.12 22.9798 4.5 19.5498 4.5C16.1198 4.5 13.2998 7.3 13.2998 10.75V14.92C13.2998 15.61 12.7398 16.17 12.0498 16.17Z" fill="black"/>
<path d="M29.5498 37.8399H9.5498C7.0398 37.8399 5 35.7799 5 33.2599V18.2599C5 15.7299 7.0398 13.6799 9.5498 13.6799H29.5498C32.0598 13.6799 34.0996 15.7399 34.0996 18.2599V33.2599C34.0996 35.7899 32.0598 37.8399 29.5498 37.8399ZM9.5498 16.1699C8.4398 16.1699 7.5 17.1199 7.5 18.2499V33.2499C7.5 34.3999 8.4198 35.3299 9.5498 35.3299H29.5498C30.6598 35.3299 31.5996 34.3799 31.5996 33.2499V18.2499C31.5996 17.0999 30.6798 16.1699 29.5498 16.1699H9.5498Z" fill="black"/>
<path d="M19.5498 28.6698C18.8598 28.6698 18.2998 28.1098 18.2998 27.4198V24.0898C18.2998 23.3998 18.8598 22.8398 19.5498 22.8398C20.2398 22.8398 20.7998 23.3998 20.7998 24.0898V27.4198C20.7998 28.1098 20.2398 28.6698 19.5498 28.6698Z" fill="black"/>
</svg>
