<svg width="136" height="185" viewBox="0 0 136 185" fill="none" xmlns="http://www.w3.org/2000/svg">
<path d="M117.933 69.8219H15.2719L15.2843 69.8006C6.76969 69.3657 0 62.3242 0 53.7016C0 44.7986 7.2171 37.5812 16.1203 37.5812C19.8418 37.5812 23.2682 38.8421 25.9967 40.9599C25.6408 39.3246 25.4531 37.6264 25.4531 35.8844C25.4531 22.7641 36.0892 12.1281 49.2094 12.1281C57.6739 12.1281 65.1043 16.5551 69.3121 23.2199C73.6508 17.511 80.5137 13.825 88.2375 13.825C100.568 13.825 110.705 23.2197 111.88 35.2419C113.769 34.5595 115.808 34.1875 117.933 34.1875C127.773 34.1875 135.75 42.1645 135.75 52.0047C135.75 61.8448 127.773 69.8219 117.933 69.8219Z" fill="#D4E9EC"/>
<g clip-path="url(#clip0_1958_368)">
<path fill-rule="evenodd" clip-rule="evenodd" d="M58.875 80.8219C59.4273 80.8219 59.875 81.2696 59.875 81.8219V105.822C59.875 106.374 59.4273 106.822 58.875 106.822C58.3227 106.822 57.875 106.374 57.875 105.822V81.8219C57.875 81.2696 58.3227 80.8219 58.875 80.8219Z" fill="#429EAE"/>
<path fill-rule="evenodd" clip-rule="evenodd" d="M51.1679 98.1148C51.5584 97.7242 52.1916 97.7242 52.5821 98.1148L58.875 104.408L65.1679 98.1148C65.5584 97.7242 66.1916 97.7242 66.5821 98.1148C66.9726 98.5053 66.9726 99.1385 66.5821 99.529L59.5821 106.529C59.1916 106.92 58.5584 106.92 58.1679 106.529L51.1679 99.529C50.7774 99.1385 50.7774 98.5053 51.1679 98.1148Z" fill="#429EAE"/>
</g>
<g clip-path="url(#clip1_1958_368)">
<path fill-rule="evenodd" clip-rule="evenodd" d="M76.875 106.822C76.3227 106.822 75.875 106.374 75.875 105.822V81.8219C75.875 81.2696 76.3227 80.8219 76.875 80.8219C77.4273 80.8219 77.875 81.2696 77.875 81.8219V105.822C77.875 106.374 77.4273 106.822 76.875 106.822Z" fill="#429EAE"/>
<path fill-rule="evenodd" clip-rule="evenodd" d="M84.5821 89.529C84.1916 89.9195 83.5584 89.9195 83.1679 89.529L76.875 83.2361L70.5821 89.529C70.1916 89.9195 69.5584 89.9195 69.1679 89.529C68.7774 89.1385 68.7774 88.5053 69.1679 88.1148L76.1679 81.1148C76.5584 80.7242 77.1916 80.7242 77.5821 81.1148L84.5821 88.1148C84.9726 88.5053 84.9726 89.1385 84.5821 89.529Z" fill="#429EAE"/>
</g>
<path fill-rule="evenodd" clip-rule="evenodd" d="M56.4062 117.822C56.4062 119.722 54.8658 121.263 52.9656 121.263C51.0654 121.263 49.525 119.722 49.525 117.822H28.8813C25.0808 117.822 22 120.903 22 124.703V165.991C22 169.791 25.0808 172.872 28.8813 172.872H49.5726C49.5413 172.685 49.525 172.494 49.525 172.298C49.525 170.398 51.0654 168.858 52.9656 168.858C54.8658 168.858 56.4062 170.398 56.4062 172.298C56.4062 172.494 56.39 172.685 56.3587 172.872H106.869C110.669 172.872 113.75 169.791 113.75 165.991V124.703C113.75 120.903 110.669 117.822 106.869 117.822H56.4062ZM52.9656 132.158C54.8658 132.158 56.4062 130.617 56.4062 128.717C56.4062 126.817 54.8658 125.277 52.9656 125.277C51.0654 125.277 49.525 126.817 49.525 128.717C49.525 130.617 51.0654 132.158 52.9656 132.158ZM56.4062 139.613C56.4062 141.513 54.8658 143.053 52.9656 143.053C51.0654 143.053 49.525 141.513 49.525 139.613C49.525 137.712 51.0654 136.172 52.9656 136.172C54.8658 136.172 56.4062 137.712 56.4062 139.613ZM52.9656 153.948C54.8658 153.948 56.4062 152.408 56.4062 150.508C56.4062 148.608 54.8658 147.067 52.9656 147.067C51.0654 147.067 49.525 148.608 49.525 150.508C49.525 152.408 51.0654 153.948 52.9656 153.948ZM56.4062 161.403C56.4062 163.303 54.8658 164.844 52.9656 164.844C51.0654 164.844 49.525 163.303 49.525 161.403C49.525 159.503 51.0654 157.963 52.9656 157.963C54.8658 157.963 56.4062 159.503 56.4062 161.403Z" fill="#D4E9EC"/>
<rect x="63.2876" y="131.584" width="43.5812" height="4.5875" rx="2.29375" fill="#A6D1D9"/>
<rect x="63.2876" y="143.053" width="43.5812" height="4.5875" rx="2.29375" fill="#A6D1D9"/>
<rect x="63.2876" y="154.522" width="43.5812" height="4.5875" rx="2.29375" fill="#A6D1D9"/>
<defs>
<clipPath id="clip0_1958_368">
<rect width="16" height="26" fill="white" transform="translate(50.875 80.8219)"/>
</clipPath>
<clipPath id="clip1_1958_368">
<rect width="16" height="26" fill="white" transform="translate(84.875 106.822) rotate(-180)"/>
</clipPath>
</defs>
</svg>
