<svg width="44" height="24" viewBox="0 0 44 24" fill="none" xmlns="http://www.w3.org/2000/svg">
<path d="M39.4282 10.9019H27.3019L27.3034 10.8995C26.2977 10.8502 25.498 10.0514 25.498 9.07326C25.498 8.06331 26.3505 7.24458 27.4022 7.24458C27.8417 7.24458 28.2465 7.38761 28.5688 7.62785C28.5267 7.44234 28.5045 7.24969 28.5045 7.05208C28.5045 5.56373 29.7609 4.35718 31.3106 4.35718C32.3104 4.35718 33.1881 4.85937 33.6851 5.61543C34.1976 4.96781 35.0083 4.54967 35.9206 4.54967C37.3771 4.54967 38.5744 5.6154 38.7132 6.9792C38.9364 6.90179 39.1772 6.85959 39.4282 6.85959C40.5905 6.85959 41.5327 7.7645 41.5327 8.88077C41.5327 9.99703 40.5905 10.9019 39.4282 10.9019Z" fill="#A6D1D9"/>
<path d="M11.7541 22.0281L2.20702 22.0036C2.20702 22.0036 -0.284575 21.692 0.0269556 18.9409C0.0269556 18.9409 0.13069 10.9992 0.64969 9.18236C0.64969 9.18236 0.805452 8.61133 1.79175 8.61133L29.4765 9.38492C29.4765 9.38492 31.8414 9.33027 34.3376 10.7917C34.3376 10.7917 38.4273 13.6462 39.5693 16.1378C39.5693 16.1378 44.8229 16.5014 43.8887 21.2251L42.9024 22.0036C42.9024 22.0036 41.86 22.0281 41.2055 22.0281C40.551 22.0281 41.4141 19.2096 38.8188 19.2096C38.8188 19.2096 36.5564 19.0175 36.2969 22.0281H16.6626C16.6626 22.0281 16.7407 19.2525 14.1453 19.2004" fill="#C75B12"/>
<path d="M12.4673 21.1847C10.4809 21.5961 8.00534 21.9656 5.507 21.9705C5.42047 21.9707 5.33539 21.9709 5.25182 21.971C4.42869 21.9724 3.75116 21.9736 3.25593 22.0039C3.24839 22.0044 3.24057 22.0051 3.23247 22.0062L2.20702 22.0036C2.20702 22.0036 -0.284575 21.6921 0.0269556 18.941C0.0269556 18.941 0.0382108 18.0793 0.0718551 16.8587C0.30107 16.9561 0.542548 17.0666 0.627883 17.1196C1.11232 17.3412 1.38516 17.421 1.89072 17.5689C1.90322 17.5725 1.91586 17.5762 1.92865 17.58C8.71918 19.567 17.8488 16.0167 17.8488 16.0167C22.2318 14.5396 25.3835 13.6878 25.3835 13.6878C30.3869 12.3684 35.4788 14.991 35.4788 14.991C40.2788 17.611 42.1787 18.1482 43.5307 18.2965C43.9462 19.0123 44.1383 19.9631 43.8887 21.2251L42.9024 22.0036C42.9024 22.0036 41.86 22.0281 41.2055 22.0281C40.9867 22.0281 40.9375 21.7132 40.872 21.2938C40.7416 20.4587 40.5465 19.2096 38.8188 19.2096C38.8188 19.2096 37.2831 19.0792 36.5971 20.717C35.898 20.2808 34.9959 19.7478 33.803 19.0967C33.803 19.0967 29.2514 16.4274 24.248 17.7469C24.248 17.7469 21.0966 18.5987 16.7133 20.0758C16.7133 20.0758 16.5211 20.1411 16.1717 20.2475C15.8156 19.6944 15.2021 19.2217 14.1453 19.2005L12.4673 21.1847Z" fill="#97450E"/>
<path d="M1.33594 16.168L1.68969 9.87524L28.2794 10.4112C28.2794 10.4112 32.2063 10.4112 33.6789 11.393C35.1514 12.3747 36.624 13.3564 38.2602 16.4652L33.6789 16.4645V12.2111H29.752V16.1379L1.33594 16.168Z" fill="#37424A"/>
<path d="M15.9513 4.35566H9.02201C9.02201 4.35566 9.70921 4.35569 9.02285 4.35409C8.33649 4.35249 7.99121 3.80281 7.99121 3.16702C7.99121 2.51055 8.47834 1.97837 9.07928 1.97837C9.33046 1.97837 9.56174 2.07134 9.7459 2.2275C9.72188 2.10692 9.70921 1.9817 9.70921 1.85325C9.70921 0.885819 10.4271 0.101562 11.3127 0.101562C11.884 0.101562 12.3855 0.427988 12.6695 0.919428C12.9624 0.498475 13.4256 0.226683 13.9469 0.226683C14.7792 0.226683 15.4634 0.919409 15.5427 1.80588C15.6703 1.75556 15.8079 1.72813 15.9513 1.72813C16.6155 1.72813 17.1539 2.31632 17.1539 3.0419C17.1539 3.76747 16.6155 4.35566 15.9513 4.35566Z" fill="#A6D1D9"/>
<path d="M33.6794 10.4111C33.4835 10.4025 33.3692 10.6291 33.4926 10.7814L33.7631 11.1156C33.7631 11.1156 37.1402 13.0738 38.3065 16.1492L39.5697 16.1378C38.4761 13.9016 35.9356 11.4829 33.6794 10.4111Z" fill="#D5D7D9"/>
<path d="M41.4643 17.3909L41.2568 17.7714L41.9143 18.8441L43.3675 19.1557C43.3675 19.1557 43.0216 17.4602 41.4643 17.3909Z" fill="#F1F2F2"/>
<path d="M34.0059 12.2109V16.18H37.6055C37.6055 16.18 36.1329 13.6835 34.0059 12.2109Z" fill="#F1F2F2"/>
<path fill-rule="evenodd" clip-rule="evenodd" d="M29.7129 12.144H33.7706V21.4376H29.7129V12.144ZM29.8438 12.2749V21.3067H33.6398V12.2749H29.8438Z" fill="#37424A"/>
<path d="M30.4336 13.191C30.4336 13.0103 30.5801 12.8638 30.7608 12.8638H32.7243C32.905 12.8638 33.0515 13.0103 33.0515 13.191V15.8089C33.0515 15.9896 32.905 16.1362 32.7243 16.1362H30.7608C30.5801 16.1362 30.4336 15.9896 30.4336 15.8089V13.191Z" fill="#F1F2F2"/>
<path d="M11.4268 21.0447V22.0264H16.6626V21.0447C16.6626 19.9604 15.7835 19.0813 14.6991 19.0813H13.3902C12.3058 19.0813 11.4268 19.9604 11.4268 21.0447Z" fill="#242B30"/>
<path d="M35.9696 21.0447V22.0264H41.2055V21.0447C41.2055 19.9604 40.3264 19.0813 39.242 19.0813H37.9331C36.8487 19.0813 35.9696 19.9604 35.9696 21.0447Z" fill="#242B30"/>
<path d="M14.0556 23.8983C15.145 23.8983 16.0282 23.0152 16.0282 21.9257C16.0282 20.8363 15.145 19.9531 14.0556 19.9531C12.9662 19.9531 12.083 20.8363 12.083 21.9257C12.083 23.0152 12.9662 23.8983 14.0556 23.8983Z" fill="#C7CACC" stroke="#37424A" stroke-width="0.1601" stroke-miterlimit="10"/>
<path d="M14.0551 23.0678C14.6859 23.0678 15.1972 22.5565 15.1972 21.9258C15.1972 21.295 14.6859 20.7837 14.0551 20.7837C13.4244 20.7837 12.9131 21.295 12.9131 21.9258C12.9131 22.5565 13.4244 23.0678 14.0551 23.0678Z" fill="#37424A"/>
<path d="M38.5966 23.8983C39.686 23.8983 40.5692 23.0152 40.5692 21.9257C40.5692 20.8363 39.686 19.9531 38.5966 19.9531C37.5072 19.9531 36.624 20.8363 36.624 21.9257C36.624 23.0152 37.5072 23.8983 38.5966 23.8983Z" fill="#C7CACC" stroke="#37424A" stroke-width="0.1601" stroke-miterlimit="10"/>
<path d="M38.5971 23.0678C39.2279 23.0678 39.7392 22.5565 39.7392 21.9258C39.7392 21.295 39.2279 20.7837 38.5971 20.7837C37.9664 20.7837 37.4551 21.295 37.4551 21.9258C37.4551 22.5565 37.9664 23.0678 38.5971 23.0678Z" fill="#37424A"/>
<path d="M2.61816 11.8823C2.61816 11.5208 2.91118 11.2278 3.27264 11.2278H6.21779C6.57924 11.2278 6.87226 11.5208 6.87226 11.8823V14.8274C6.87226 15.1889 6.57924 15.4819 6.21779 15.4819H3.27264C2.91118 15.4819 2.61816 15.1889 2.61816 14.8274V11.8823Z" fill="#F1F2F2"/>
<path d="M7.52674 11.8823C7.52674 11.5208 7.81976 11.2278 8.18122 11.2278H11.1264C11.4878 11.2278 11.7808 11.5208 11.7808 11.8823V14.8274C11.7808 15.1889 11.4878 15.4819 11.1264 15.4819H8.18122C7.81976 15.4819 7.52674 15.1889 7.52674 14.8274V11.8823Z" fill="#F1F2F2"/>
<path d="M12.4353 11.8823C12.4353 11.5208 12.7283 11.2278 13.0898 11.2278H18.9801C19.3415 11.2278 19.6346 11.5208 19.6346 11.8823V14.8274C19.6346 15.1889 19.3415 15.4819 18.9801 15.4819H13.0898C12.7283 15.4819 12.4353 15.1889 12.4353 14.8274V11.8823Z" fill="#F1F2F2"/>
<path d="M20.289 11.8823C20.289 11.5208 20.5821 11.2278 20.9435 11.2278H26.8338C27.1953 11.2278 27.4883 11.5208 27.4883 11.8823V14.8274C27.4883 15.1889 27.1953 15.4819 26.8338 15.4819H20.9435C20.5821 15.4819 20.289 15.1889 20.289 14.8274V11.8823Z" fill="#F1F2F2"/>
</svg>
