<svg width="42" height="32" viewBox="0 0 42 32" fill="none" xmlns="http://www.w3.org/2000/svg">
<path d="M32.5063 13.5H18.1375L18.1392 13.497C16.9475 13.4367 16 12.4603 16 11.2647C16 10.0302 17.0101 9.02941 18.2563 9.02941C18.7771 9.02941 19.2567 9.20425 19.6386 9.4979C19.5888 9.27115 19.5625 9.03567 19.5625 8.79412C19.5625 6.97482 21.0512 5.5 22.8875 5.5C24.0722 5.5 25.1122 6.11386 25.7011 7.03803C26.3084 6.24641 27.269 5.73529 28.35 5.73529C30.0759 5.73529 31.4946 7.03799 31.6591 8.70503C31.9235 8.61041 32.2089 8.55882 32.5063 8.55882C33.8835 8.55882 35 9.66495 35 11.0294C35 12.3939 33.8835 13.5 32.5063 13.5Z" fill="#D4E9EC"/>
<path d="M15.5562 5.5H7.2375L7.23851 5.49816C6.54856 5.46046 6 4.85022 6 4.10294C6 3.33137 6.58481 2.70588 7.30625 2.70588C7.6078 2.70588 7.88546 2.81515 8.10654 2.99869C8.07771 2.85697 8.0625 2.70979 8.0625 2.55882C8.0625 1.42177 8.92436 0.5 9.9875 0.5C10.6734 0.5 11.2755 0.88366 11.6165 1.46127C11.968 0.966506 12.5241 0.647059 13.15 0.647059C14.1492 0.647059 14.9706 1.46125 15.0658 2.50315C15.2189 2.44401 15.3841 2.41176 15.5562 2.41176C16.3536 2.41176 17 3.10309 17 3.95588C17 4.80867 16.3536 5.5 15.5562 5.5Z" fill="#D4E9EC"/>
<path d="M0.238641 14.6619H15.5796V26.0141H8.14773C8.18182 25.8096 8.21592 25.6391 8.21592 25.4346C8.21592 24.071 7.1591 22.9801 5.86365 22.9801C4.5341 23.0141 3.54546 23.7641 3.47728 25.2301C3.47728 25.4346 3.47728 25.9119 3.47728 26.0482H1.05682C0.477275 26.0482 0 25.571 0 24.9914V14.8664C0.0340909 14.7641 0.136368 14.6619 0.238641 14.6619Z" fill="#C75B12"/>
<path d="M41.7954 14.696C41.8977 14.696 41.9999 14.7982 41.9999 14.9005V25.0596C41.9999 25.6391 41.5227 26.1164 40.9431 26.1164H38.5227C38.5227 25.9801 38.5568 25.5028 38.5227 25.2982C38.4545 23.8323 37.4659 23.0823 36.1363 23.0482C34.8409 23.0141 33.784 24.1391 33.784 25.5028C33.784 25.7073 33.8181 25.9119 33.8522 26.0823L14.9658 26.0482V14.6619L41.7954 14.696Z" fill="#C75B12"/>
<path d="M37.7725 20.7283H30.0679C29.9656 20.7283 29.8975 20.6601 29.8975 20.5578V15.751C29.8975 15.6487 29.9656 15.5806 30.0679 15.5806H37.7725C37.8748 15.5806 37.9429 15.6487 37.9429 15.751V20.5578C37.977 20.6601 37.8748 20.7283 37.7725 20.7283Z" fill="black"/>
<path d="M29.0459 20.7283H21.3414C21.2391 20.7283 21.1709 20.6601 21.1709 20.5578V15.751C21.1709 15.6487 21.2391 15.5806 21.3414 15.5806H29.0459C29.1482 15.5806 29.2164 15.6487 29.2164 15.751V20.5578C29.2164 20.6601 29.1482 20.7283 29.0459 20.7283Z" fill="black"/>
<path d="M20.3184 20.7283H12.6138C12.5115 20.7283 12.4434 20.6601 12.4434 20.5578V15.751C12.4434 15.6487 12.5115 15.5806 12.6138 15.5806H20.3184C20.4206 15.5806 20.4888 15.6487 20.4888 15.751V20.5578C20.4888 20.6601 20.3866 20.7283 20.3184 20.7283Z" fill="black"/>
<path d="M11.5566 20.7283H3.8521C3.74982 20.7283 3.68164 20.6601 3.68164 20.5578V15.751C3.68164 15.6487 3.74982 15.5806 3.8521 15.5806H11.5566C11.6589 15.5806 11.7271 15.6487 11.7271 15.751V20.5578C11.7271 20.6601 11.6589 20.7283 11.5566 20.7283Z" fill="black"/>
<path d="M36.1706 27.4126C37.2814 27.4126 38.1819 26.5121 38.1819 25.4013C38.1819 24.2904 37.2814 23.3899 36.1706 23.3899C35.0597 23.3899 34.1592 24.2904 34.1592 25.4013C34.1592 26.5121 35.0597 27.4126 36.1706 27.4126Z" fill="black"/>
<path d="M5.79554 27.4126C6.90639 27.4126 7.80691 26.5121 7.80691 25.4013C7.80691 24.2904 6.90639 23.3899 5.79554 23.3899C4.6847 23.3899 3.78418 24.2904 3.78418 25.4013C3.78418 26.5121 4.6847 27.4126 5.79554 27.4126Z" fill="black"/>
<path d="M39.0974 22.6311L41.9951 22.6311L41.9951 15.4038L39.0974 15.4038L39.0974 22.6311Z" fill="black"/>
<path d="M23.6246 13.8084C23.8632 13.3993 24.3064 13.1606 24.7836 13.1606H28.0223H33.545H36.7837C37.2609 13.1606 37.67 13.3993 37.9428 13.8084L38.4882 14.6947H33.545H28.0223H23.0791L23.6246 13.8084Z" fill="#C75B12"/>
</svg>
