<svg width="254" height="141" viewBox="0 0 254 141" fill="none" xmlns="http://www.w3.org/2000/svg">
<path d="M16 94H238V132C238 136.418 234.418 140 230 140H24C19.5817 140 16 136.418 16 132V94Z" fill="white"/>
<path fill-rule="evenodd" clip-rule="evenodd" d="M149.812 116.807H138.917V115.445H149.812V116.807Z" fill="black" fill-opacity="0.2"/>
<path d="M179.775 120.508C181.584 120.508 182.674 118.96 182.674 116.481V116.47C182.674 113.991 181.584 112.448 179.775 112.448C177.966 112.448 176.875 113.991 176.875 116.47V116.481C176.875 118.96 177.966 120.508 179.775 120.508ZM179.775 119.396C178.812 119.396 178.259 118.3 178.259 116.481V116.47C178.259 114.651 178.812 113.565 179.775 113.565C180.738 113.565 181.291 114.651 181.291 116.47V116.481C181.291 118.3 180.738 119.396 179.775 119.396Z" fill="black" fill-opacity="0.2"/>
<path fill-rule="evenodd" clip-rule="evenodd" d="M214.504 115.445V111.359H215.866V115.445H219.952V116.807H215.866V120.893H214.504V116.807H210.418V115.445H214.504Z" fill="black"/>
<path d="M34 110H124V124H34V110Z" fill="#F1F2F2"/>
<path d="M16 8C16 3.58172 19.5817 0 24 0H230C234.418 0 238 3.58172 238 8V46H16V8Z" fill="white"/>
<path fill-rule="evenodd" clip-rule="evenodd" d="M149.812 22.807H138.917V21.445H149.812V22.807Z" fill="black" fill-opacity="0.2"/>
<path d="M179.775 26.5079C181.584 26.5079 182.674 24.9598 182.674 22.4806V22.47C182.674 19.9908 181.584 18.448 179.775 18.448C177.966 18.448 176.875 19.9908 176.875 22.47V22.4806C176.875 24.9598 177.966 26.5079 179.775 26.5079ZM179.775 25.396C178.812 25.396 178.259 24.3001 178.259 22.4806V22.47C178.259 20.6505 178.812 19.5652 179.775 19.5652C180.738 19.5652 181.291 20.6505 181.291 22.47V22.4806C181.291 24.3001 180.738 25.396 179.775 25.396Z" fill="black" fill-opacity="0.2"/>
<path fill-rule="evenodd" clip-rule="evenodd" d="M214.504 21.445V17.3592H215.866V21.445H219.952V22.807H215.866V26.8927H214.504V22.807H210.418V21.445H214.504Z" fill="black"/>
<path d="M34 16H124V30H34V16Z" fill="#F1F2F2"/>
<rect y="47" width="254" height="46" fill="white"/>
<path fill-rule="evenodd" clip-rule="evenodd" d="M165.475 70.8338H154.579V69.4719H165.475V70.8338Z" fill="black"/>
<path d="M207.694 70.1528C207.694 76.9224 202.207 82.4102 195.437 82.4102C188.668 82.4102 183.18 76.9224 183.18 70.1528C183.18 63.3833 188.668 57.8954 195.437 57.8954C202.207 57.8954 207.694 63.3833 207.694 70.1528Z" fill="white"/>
<path d="M207.694 70.1528C207.694 76.9224 202.207 82.4102 195.437 82.4102C188.668 82.4102 183.18 76.9224 183.18 70.1528C183.18 63.3833 188.668 57.8954 195.437 57.8954C202.207 57.8954 207.694 63.3833 207.694 70.1528Z" fill="#007C92" fill-opacity="0.1"/>
<path d="M195.442 74.3432H196.815V66.6664H195.448L193.442 68.0762V69.3689L195.352 68.0176H195.442V74.3432Z" fill="black"/>
<path fill-rule="evenodd" clip-rule="evenodd" d="M230.166 69.4719V65.3861H231.528V69.4719H235.614V70.8338H231.528V74.9196H230.166V70.8338H226.081V69.4719H230.166Z" fill="black"/>
<path d="M18 64.0134H134V78.0134H18V64.0134Z" fill="#F1F2F2"/>
</svg>
