<svg width="58" height="115" viewBox="0 0 58 115" fill="none" xmlns="http://www.w3.org/2000/svg">
<path d="M0 8C0 3.58172 3.58172 0 8 0H50C54.4183 0 58 3.58172 58 8V107C58 111.418 54.4183 115 50 115H8C3.58172 115 0 111.418 0 107V8Z" fill="#D4E9EC"/>
<path fill-rule="evenodd" clip-rule="evenodd" d="M50 2H8C4.68629 2 2 4.68629 2 8V107C2 110.314 4.68629 113 8 113H50C53.3137 113 56 110.314 56 107V8C56 4.68629 53.3137 2 50 2ZM8 0C3.58172 0 0 3.58172 0 8V107C0 111.418 3.58172 115 8 115H50C54.4183 115 58 111.418 58 107V8C58 3.58172 54.4183 0 50 0H8Z" fill="#429EAE"/>
<path fill-rule="evenodd" clip-rule="evenodd" d="M57.4664 15H0V13H57.4664V15Z" fill="#429EAE"/>
<path fill-rule="evenodd" clip-rule="evenodd" d="M57.4664 100H0V98H57.4664V100Z" fill="#429EAE"/>
<path fill-rule="evenodd" clip-rule="evenodd" d="M21.2668 7.70499C21.2668 7.23544 21.6475 6.8548 22.117 6.8548H35.8833C36.3529 6.8548 36.7335 7.23544 36.7335 7.70499C36.7335 8.17453 36.3529 8.55518 35.8833 8.55518H22.117C21.6475 8.55518 21.2668 8.17453 21.2668 7.70499Z" fill="#429EAE"/>
<path d="M56 98V15L11 98H56Z" fill="#A6D1D9"/>
</svg>
