<svg width="119" height="86" viewBox="0 0 119 86" fill="none" xmlns="http://www.w3.org/2000/svg">
<rect x="4.75" y="4" width="110" height="78" rx="8" fill="#D4E9EC"/>
<rect x="31.75" y="20.5" width="72" height="10" rx="1.5" fill="#429EAE"/>
<g clip-path="url(#clip0_1958_403)">
<rect x="71.75" y="36.5" width="32" height="31" rx="1.5" fill="white"/>
<path d="M79.5106 60.8239C79.6523 60.8239 79.7898 60.8072 79.9315 60.7822V60.1654C79.7981 60.1779 79.7273 60.1821 79.5981 60.1821C79.1314 60.1821 78.948 59.9696 78.948 59.4403V56.8983H79.9315V56.2982H78.948V55.1356H78.1979V56.2982H77.4895V56.8983H78.1979V59.6237C78.1979 60.4821 78.5855 60.8239 79.5106 60.8239Z" fill="#007C92"/>
<path d="M81.6067 57.6068C81.9068 57.6068 82.1485 57.3609 82.1485 57.065C82.1485 56.765 81.9068 56.5233 81.6067 56.5233C81.3108 56.5233 81.065 56.765 81.065 57.065C81.065 57.3609 81.3108 57.6068 81.6067 57.6068ZM81.6067 60.8322C81.9068 60.8322 82.1485 60.5863 82.1485 60.2904C82.1485 59.9904 81.9068 59.7487 81.6067 59.7487C81.3108 59.7487 81.065 59.9904 81.065 60.2904C81.065 60.5863 81.3108 60.8322 81.6067 60.8322Z" fill="#007C92"/>
<path d="M83.5903 60.7905H84.3154V59.0861L84.7363 58.6777L86.4199 60.7905H87.3325L85.2447 58.186L87.2033 56.2982H86.324L84.3821 58.261H84.3154V54.5147H83.5903V60.7905Z" fill="#007C92"/>
<path d="M89.8203 60.8697C91.0997 60.8697 91.8914 59.9862 91.8914 58.5485V58.5402C91.8914 57.0984 91.0997 56.2191 89.8203 56.2191C88.541 56.2191 87.7492 57.0984 87.7492 58.5402V58.5485C87.7492 59.9862 88.541 60.8697 89.8203 60.8697ZM89.8203 60.2279C88.9702 60.2279 88.491 59.607 88.491 58.5485V58.5402C88.491 57.4776 88.9702 56.8608 89.8203 56.8608C90.6704 56.8608 91.1497 57.4776 91.1497 58.5402V58.5485C91.1497 59.607 90.6704 60.2279 89.8203 60.2279Z" fill="#007C92"/>
<path d="M93.0166 60.7905H93.7417V58.0068C93.7417 57.3484 94.2334 56.9108 94.9252 56.9108C95.0835 56.9108 95.2211 56.9275 95.3711 56.9525V56.2482C95.3002 56.2357 95.146 56.2191 95.0085 56.2191C94.4001 56.2191 93.9792 56.4941 93.8084 56.965H93.7417V56.2982H93.0166V60.7905Z" fill="#007C92"/>
<path d="M97.9464 60.8239C98.0881 60.8239 98.2256 60.8072 98.3673 60.7822V60.1654C98.234 60.1779 98.1631 60.1821 98.0339 60.1821C97.5672 60.1821 97.3838 59.9696 97.3838 59.4403V56.8983H98.3673V56.2982H97.3838V55.1356H96.6337V56.2982H95.9253V56.8983H96.6337V59.6237C96.6337 60.4821 97.0213 60.8239 97.9464 60.8239Z" fill="#007C92"/>
</g>
<rect x="72.1056" y="36.8556" width="31.2888" height="30.2888" rx="1.1444" stroke="#429EAE" stroke-width="0.711207"/>
<defs>
<clipPath id="clip0_1958_403">
<rect x="71.75" y="36.5" width="32" height="31" rx="1.5" fill="white"/>
</clipPath>
</defs>
</svg>
