<svg width="200" height="160" viewBox="0 0 200 160" fill="none" xmlns="http://www.w3.org/2000/svg">
<path d="M32.933 115.174C41.9465 115.761 48.6214 119.071 49.0517 121.565C49.8604 126.245 49.4799 132.194 49.2949 136.93C48.9956 144.599 49.4238 154.084 41.2522 157.846C34.596 160.91 19.7267 159.755 15.0827 153.433C11.684 148.806 12.5446 133.343 12.8252 127.438C12.9084 125.679 13.9789 119.652 15.2823 118.436C16.4776 117.322 22.0923 114.467 32.933 115.172V115.174Z" fill="#008099"/>
<path d="M176.116 115.402C187.108 115.402 193.001 120.911 193.105 121.374C193.446 122.89 193.515 134.318 193.38 137.611C193.016 146.495 193.184 156.367 182.599 158.96C175.787 160.628 161.502 159.387 158.38 151.964C156.012 146.335 156.725 136.517 156.912 130.382C156.995 127.637 156.725 124.745 157.149 122.025C157.619 119.012 165.897 115.402 176.114 115.402H176.116Z" fill="#008099"/>
<path d="M197.433 124.81C193.261 125.741 189.077 126.615 184.844 127.281C158.598 131.422 132.079 131.829 105.598 131.378C88.7372 131.092 71.3879 132.086 54.6165 131.385C44.7403 130.972 33.276 129.277 23.3831 127.963C17.4608 127.177 11.4823 126.229 5.66382 125.071L5.78231 107.07C6.71775 94.9247 6.60342 82.0052 12.8605 71.1728C16.623 64.658 21.876 61.7783 28.7838 59.2533C32.4548 41.8605 34.7976 19.3949 51.3487 9.1912C69.1013 -1.7532 104.207 -0.518714 124.361 2.30712C130.373 3.14948 137.442 4.14329 143.011 6.52927C161.924 14.6354 165.897 39.8895 171.06 57.4503C173.42 58.2843 175.866 59.0416 178.126 60.1205C197.184 69.2225 196.188 95.0617 197.238 112.95L197.431 124.808L197.433 124.81Z" fill="#86B200"/>
<path d="M6.87157 33.0867C15.3259 31.9497 27.4783 45.3112 22.2003 53.5854C17.7663 60.5358 4.86765 53.6559 1.67883 48.1018C-1.48088 42.5995 -0.412397 34.0659 6.87365 33.0867H6.87157Z" fill="#86B200"/>
<path d="M188.345 31.7339C192.669 31.2463 199.41 32.9538 199.951 38.1138C201.204 50.0914 178.153 58.6996 174.916 47.2739C172.813 39.8462 181.508 32.5078 188.345 31.7339Z" fill="#86B200"/>
<path d="M98.8608 8.67462C108.265 8.54598 119.607 9.45473 128.859 11.1602C145.56 14.2412 151.312 22.3058 156.058 37.8292C157.174 41.4788 158.694 46.5765 158.939 50.3297C159.082 52.5331 158.646 53.8091 156.112 53.8299C151.478 53.8713 144.223 52.0207 139.316 51.3754C115.162 48.1989 89.2923 47.7321 65.0665 50.4667C59.3 51.1181 52.7706 52.6618 47.1393 52.9232C45.9668 52.9771 43.1979 53.0829 42.7718 51.6347C42.4309 50.4832 43.4266 45.5764 43.6677 44.0307C46.553 25.5425 50.6752 15.4591 70.3153 11.3843C79.6032 9.45681 89.3962 8.80118 98.8608 8.67047V8.67462Z" fill="#C2E8F0"/>
<path d="M168.865 68.8203C180.828 67.7269 187.561 79.9888 177.976 88.3169C171.875 93.618 154.659 98.7136 149.84 89.7112C144.423 79.5904 160.323 69.6004 168.865 68.8203Z" fill="#C1DB70"/>
<path d="M32.0268 69.9506C41.2253 69.0356 59.4372 79.8804 53.9452 90.6962C49.1017 100.232 30.0977 94.4536 24.3769 88.082C17.5357 80.4614 22.346 70.9133 32.0268 69.9527V69.9506Z" fill="#C1DB70"/>
<path d="M97.9545 99.3466C111.77 99.1205 125.558 99.5001 139.338 100.193C142.078 100.33 147.184 99.9483 149.591 101.268C151.46 102.293 151.083 106.772 151.025 108.673C150.907 112.499 150.585 119.173 149.734 122.76C148.697 127.138 146.011 126.097 142.284 126.18C119.264 126.684 96.0836 126.453 72.9575 126.63C68.3094 126.665 63.3411 127.31 58.6868 126.875C56.5748 126.678 56.0967 125.52 55.8909 123.559C55.6352 121.107 55.7391 118.364 55.6456 115.889C55.5021 112.127 54.8785 106.484 55.735 102.882C56.3835 100.152 59.3333 100.762 61.41 100.633C73.4439 99.886 85.8686 99.5416 97.9545 99.3445V99.3466Z" fill="#D7FAFF"/>
<path d="M79.4246 111.49C79.6762 110.581 80.3975 110.131 80.5368 109.098C80.8985 106.407 78.5723 104.658 76.0695 104.531C75.6018 104.509 73.8515 104.826 73.6374 105.15C73.232 105.76 73.9242 110.72 73.9845 111.833C74.0947 113.887 73.9783 116.397 74.209 118.391C74.4626 120.584 77.9342 120.09 79.4745 119.569C84.2598 117.953 84.952 112.021 79.4246 111.49ZM75.3461 111.15C75.107 109.839 75.3939 107.722 75.1174 106.289C78.5744 105.99 80.6261 108.459 77.3646 110.907C76.8262 111.31 75.5602 112.326 75.3461 111.15ZM79.3519 117.864C78.5349 118.196 76.0009 118.816 75.7972 117.71C75.7265 117.316 75.4895 113.731 75.6018 113.557C77.1255 112.965 80.9608 112.451 81.5886 114.42C82.1104 116.057 80.7301 117.308 79.3519 117.864Z" fill="#0C1B21"/>
<path d="M73.4896 118.68C73.2693 116.551 70.9889 109.499 70.0805 107.362C69.6252 106.289 69.2365 104.984 67.8001 105.428C66.9561 105.689 65.9105 109.509 65.5987 110.47C65.237 111.588 63.0273 118.97 63.1478 119.474C63.2164 119.756 63.6051 120.09 63.9045 120.09C65.0811 120.094 65.2557 116.484 65.8169 115.661C66.0373 115.505 69.7167 115.486 70.2613 115.549C71.6666 115.711 71.415 118.393 72.0719 119.391C72.6956 120.337 73.5998 119.738 73.4896 118.68ZM66.2826 113.978C66.532 113.188 67.8957 107.75 68.2117 107.646C68.6565 107.499 68.7813 108.48 68.8893 108.777C69.486 110.412 70.0389 112.287 70.3611 113.978H66.2826Z" fill="#0C1B21"/>
<path d="M134.93 110.587C144.072 107.05 143.361 123.246 135.16 120.42C134.433 120.169 133.106 119.613 133.377 118.665C133.749 117.349 135.638 119.073 136.657 119.171C140.715 119.555 141.519 110.99 136.684 111.772C135.836 111.909 134.138 113.401 133.551 112.471C133.212 111.934 133.21 106.303 133.551 105.764C133.709 105.515 134.096 105.444 134.374 105.409C135.541 105.253 139.542 104.807 140.488 104.923C141.631 105.064 141.473 106.305 140.898 106.486C139.515 106.917 137.05 106.693 135.497 106.973C135.306 107.009 134.927 107.145 134.927 107.309V110.587H134.93Z" fill="#0C1B22"/>
<path d="M110.801 106.743C110.652 106.749 110.419 107.073 109.947 106.942C109.433 106.799 109.122 106.052 109.429 105.6C109.839 105 115.759 104.965 116.26 105.364C118.033 106.766 113.778 108.762 114.314 109.229C121.386 109.633 117.692 121.057 111.814 119.526C111.18 119.36 110.005 118.574 110.558 117.808C111.038 117.144 112.327 118.096 113.061 118.065C115.605 117.962 117.909 112.974 115.755 111.295C114.512 110.328 111.221 111.281 110.941 110.443C110.435 108.943 113.502 107.903 114.088 106.741C112.999 106.776 111.895 106.693 110.803 106.741L110.801 106.743Z" fill="#0C1B21"/>
<path d="M122.922 111.49C124.224 111.897 125.396 111.395 126.743 111.459C127.373 111.069 126.627 106.998 127.203 106.195C127.462 105.834 128.587 106.12 128.587 106.403L128.423 110.614C128.423 110.729 128.423 111.017 128.36 111.49C129.046 111.43 130.285 111.542 130.188 112.502C130.086 113.498 128.531 113.125 128.348 113.444C127.837 114.332 128.094 118.654 127.893 119.955C127.691 121.248 126.44 121.129 126.313 120.609C126.018 119.393 126.889 113.59 126.677 113.291C126.334 112.812 125.305 113.075 124.758 113.073C123.966 113.071 121.338 113.195 121.338 112.054V105.496C121.338 104.898 122.924 105.208 122.924 105.722V111.488L122.922 111.49Z" fill="#0D1C22"/>
<path d="M101.626 118.272C102.966 118.527 104.548 117.801 105.818 118.048C106.627 118.204 106.883 119.332 105.997 119.585C104.588 119.513 103.095 120.019 101.738 120.079C100.035 120.154 99.1705 120.046 99.6944 118.04C100.056 116.658 102.11 113.867 102.8 112.324C103.326 111.145 105.101 106.724 102.428 107.193C101.256 107.398 101.116 109.371 100.187 109.187C99.9542 109.141 99.6923 108.84 99.6237 108.614C99.0832 106.772 103.183 103.807 104.9 106.527C107.016 109.878 102.551 115.133 101.626 118.274V118.272Z" fill="#0C1B22"/>
<path d="M94.6015 118.503C94.7117 118.613 96.0338 118.327 96.4288 118.6C96.7572 118.829 96.7614 119.744 96.4246 119.98C95.9901 120.285 91.1071 120.75 90.9679 120.163C90.5521 118.412 92.9656 118.98 93.0321 118.596L93.2441 107.648C92.475 107.951 91.7578 109.75 90.8515 109.023C90.2424 108.534 90.6436 108.011 90.9824 107.536C91.6892 106.548 94.5122 103.903 94.8427 106.395C95.0734 108.129 94.1754 118.076 94.6036 118.503H94.6015Z" fill="#0D1D23"/>
</svg>
