<svg width="200" height="200" viewBox="0 0 200 200" fill="none" xmlns="http://www.w3.org/2000/svg">
<g clip-path="url(#clip0_8963_1043)">
<path d="M35.7858 47.2981C36.8922 52.3819 37.5278 58.3896 38.3013 63.627C42.9222 94.8965 46.5351 126.386 51.5249 157.568C52.3771 162.898 53.4048 168.223 54.1156 173.571C54.0815 173.75 53.9795 173.795 53.8488 173.852C52.3288 174.524 49.6916 174.354 48.0516 175.049L47.6864 174.726C45.1619 158.792 42.5784 142.863 40.5392 126.825C38.1831 108.297 30.6224 55.5108 29.9062 47.7627C29.8095 46.7245 35.6068 46.4797 35.784 47.2963L35.7858 47.2981Z" fill="#008099"/>
<path d="M0.868297 18.7964C1.74379 17.1203 8.58656 16.0088 19.9035 14.3952C26.2396 13.491 35.9702 12.1687 39.0246 11.6487C41.0728 11.3002 48.3971 10.1852 50.7013 9.94396C51.285 9.8832 52.9232 9.53475 53.6948 11.5951C54.2928 13.1908 55.0412 18.5623 56.3929 25.1043C57.6408 31.1405 58.7311 38.9315 59.5117 43.6061C60.2279 47.8912 61.8338 57.3333 60.6898 58.2554C59.3667 59.3204 53.8774 59.8279 52.1515 60.1656C42.0109 62.1509 26.5368 65.0279 19.4183 66.0267C17.1642 66.343 17.1714 66.3913 10.4414 67.5349C10.1388 67.5867 8.68145 67.5689 8.21417 67.1507C7.7988 66.779 7.58217 66.184 7.38523 65.1083C6.29669 59.1649 5.98874 57.3208 5.64857 54.5296C5.07387 49.8354 3.60219 40.5916 2.92722 36.2029C2.33282 32.3342 2.33461 31.5283 1.34274 25.1025C1.09209 23.4817 0.408173 19.6774 0.868297 18.7946V18.7964Z" fill="#99D9E5"/>
<path d="M10.069 62.6762C8.76565 55.6286 7.73977 48.4683 6.94306 42.8824C6.14635 37.2965 4.68541 28.8103 4.11428 23.3798C3.89407 21.2856 4.11965 20.0633 6.4901 19.5165C8.86054 18.9697 24.417 16.4805 31.9043 15.3762C36.7365 14.6632 42.4299 13.6036 48.8788 12.7208C51.2296 12.3992 51.4623 15.0242 51.8437 16.9308C53.668 26.062 57.8038 50.341 57.5209 53.6004C57.3401 55.675 57.5352 55.6857 53.9062 56.4488C48.9271 57.4959 42.1775 59.072 36.9657 60.0101C29.7165 61.3146 21.5507 62.4832 14.3695 63.7269C12.9014 63.9807 10.4504 64.7437 10.069 62.678V62.6762Z" fill="#22A8C3"/>
<path d="M42.7629 29.7647C42.7217 29.3466 42.3422 26.4285 39.884 24.2216C38.6844 23.1459 36.9496 22.2828 34.9032 22.0452C32.0225 21.711 29.9063 21.5931 25.083 22.3954C23.3518 22.6831 18.2617 23.8017 17.5438 24.6934C17.141 25.1973 21.377 52.9269 21.9409 55.6823C22.1647 56.7795 29.4068 55.3053 29.294 54.6638C28.3809 49.4459 27.8169 46.544 27.2888 42.3286C27.2243 41.8229 27.5699 41.3547 28.0729 41.2654C29.43 41.0259 31.0933 40.6918 32.9714 40.2754C37.3148 39.3123 39.918 37.7094 41.3861 35.9743C43.3519 33.6495 42.8041 30.1703 42.7629 29.7647ZM34.726 34.2374C33.1272 34.8575 28.8535 35.6044 25.6416 35.9743C25.1708 33.1295 23.9426 28.194 24.3526 27.5042C24.7912 26.7662 30.8212 25.8996 33.0806 26.2998C35.3239 26.6965 36.5521 27.1647 37.3488 29.3448C38.4034 32.2342 36.1565 33.6817 34.726 34.2374Z" fill="#99D9E5"/>
<path d="M41.3253 160.705C49.0884 161.211 54.8372 164.061 55.2078 166.209C55.9043 170.241 55.5767 175.364 55.4173 179.443C55.1595 186.048 55.5283 194.218 48.4904 197.457C42.7576 200.097 29.9511 199.101 25.9515 193.656C23.0242 189.672 23.7654 176.354 24.0071 171.268C24.0787 169.753 25.0008 164.562 26.1233 163.515C27.1528 162.555 31.9886 160.096 41.3253 160.704V160.705Z" fill="#008099"/>
<path d="M164.644 160.902C174.111 160.902 179.187 165.647 179.277 166.045C179.57 167.351 179.629 177.194 179.513 180.03C179.2 187.681 179.345 196.183 170.228 198.417C164.361 199.854 152.058 198.785 149.368 192.392C147.329 187.544 147.943 179.088 148.104 173.804C148.176 171.44 147.943 168.949 148.309 166.606C148.713 164.012 155.842 160.902 164.642 160.902H164.644Z" fill="#008099"/>
<path d="M183.004 169.004C179.411 169.807 175.807 170.559 172.162 171.132C149.557 174.699 126.717 175.049 103.909 174.662C89.3877 174.415 74.4454 175.271 60.0007 174.667C51.4947 174.311 41.6208 172.851 33.1004 171.72C27.9997 171.043 22.8506 170.226 17.8394 169.229L17.9414 153.726C18.7471 143.265 18.6486 132.138 24.0376 122.809C27.2782 117.198 31.8024 114.717 37.7518 112.543C40.9136 97.5628 42.9313 78.2139 57.1862 69.4258C72.476 59.9997 102.712 61.0629 120.069 63.4967C125.247 64.2222 131.336 65.0782 136.132 67.1331C152.421 74.1147 155.843 95.8652 160.29 110.99C162.322 111.708 164.429 112.36 166.375 113.29C182.789 121.129 181.932 143.383 182.836 158.79L183.002 169.002L183.004 169.004Z" fill="#86B200"/>
<path d="M18.8794 90.0059C26.1609 89.0267 36.6273 100.535 32.0816 107.661C28.2627 113.647 17.1535 107.722 14.4071 102.938C11.6857 98.199 12.606 90.8493 18.8812 90.0059H18.8794Z" fill="#86B200"/>
<path d="M175.177 88.841C178.901 88.4211 184.707 89.8917 185.172 94.3358C186.252 104.652 166.399 112.066 163.611 102.225C161.799 95.8279 169.288 89.5075 175.177 88.841Z" fill="#86B200"/>
<path d="M98.1068 68.9811C106.206 68.8703 115.975 69.6529 123.944 71.1218C138.327 73.7754 143.281 80.7212 147.369 94.091C148.33 97.2342 149.639 101.625 149.85 104.857C149.974 106.755 149.598 107.854 147.415 107.872C143.425 107.908 137.176 106.314 132.949 105.758C112.147 103.022 89.8657 102.62 69.0008 104.975C64.0343 105.536 58.4108 106.866 53.5607 107.091C52.5509 107.137 50.1662 107.228 49.7991 105.981C49.5055 104.989 50.3631 100.763 50.5708 99.4321C53.0558 83.5088 56.6061 74.8243 73.5215 71.3148C81.5208 69.6547 89.9553 69.0901 98.1068 68.9775V68.9811Z" fill="#C2E8F0"/>
<path d="M158.399 120.783C168.703 119.841 174.502 130.402 166.246 137.574C160.992 142.14 146.164 146.529 142.014 138.775C137.348 130.058 151.043 121.454 158.399 120.783Z" fill="#C1DB70"/>
<path d="M40.5447 121.756C48.467 120.968 64.1524 130.308 59.4223 139.623C55.2507 147.836 38.8832 142.859 33.9561 137.372C28.064 130.808 32.2069 122.585 40.5447 121.757V121.756Z" fill="#C1DB70"/>
<path d="M97.3261 147.073C109.225 146.878 121.1 147.205 132.969 147.802C135.328 147.92 139.726 147.591 141.799 148.728C143.408 149.61 143.084 153.468 143.034 155.105C142.932 158.4 142.655 164.149 141.922 167.238C141.029 171.009 138.716 170.112 135.506 170.183C115.679 170.617 95.7148 170.419 75.797 170.571C71.7937 170.601 67.5147 171.157 63.5061 170.782C61.6871 170.612 61.2753 169.615 61.0981 167.926C60.8779 165.814 60.9674 163.452 60.8868 161.32C60.7633 158.08 60.2262 153.22 60.9638 150.118C61.5224 147.766 64.0629 148.292 65.8515 148.181C76.2159 147.537 86.9169 147.241 97.3261 147.071V147.073Z" fill="#D7FAFF"/>
<path d="M81.3669 157.531C81.5835 156.749 82.2048 156.361 82.3247 155.471C82.6362 153.153 80.6328 151.647 78.4772 151.538C78.0744 151.518 76.5669 151.792 76.3825 152.071C76.0334 152.596 76.6296 156.869 76.6815 157.826C76.7764 159.595 76.6761 161.758 76.8748 163.475C77.0933 165.364 80.0832 164.938 81.4098 164.49C85.5313 163.098 86.1275 157.989 81.3669 157.531ZM77.8542 157.238C77.6483 156.109 77.8954 154.286 77.6572 153.052C80.6346 152.794 82.4017 154.921 79.5926 157.029C79.1289 157.376 78.0386 158.252 77.8542 157.238ZM81.3042 163.021C80.6006 163.307 78.4181 163.841 78.2427 162.889C78.1818 162.549 77.9777 159.461 78.0744 159.311C79.3867 158.802 82.69 158.359 83.2306 160.055C83.68 161.465 82.4912 162.542 81.3042 163.021Z" fill="#0C1B21"/>
<path d="M76.2554 163.723C76.0656 161.89 74.1016 155.816 73.3192 153.976C72.9271 153.052 72.5923 151.928 71.3552 152.31C70.6283 152.535 69.7277 155.825 69.4592 156.652C69.1476 157.616 67.2445 163.973 67.3483 164.408C67.4074 164.651 67.7422 164.938 68 164.938C69.0134 164.942 69.1638 161.833 69.6472 161.123C69.8369 160.989 73.0059 160.973 73.475 161.027C74.6853 161.166 74.4686 163.477 75.0344 164.336C75.5715 165.151 76.3503 164.635 76.2554 163.723ZM70.0482 159.674C70.263 158.993 71.4375 154.31 71.7097 154.22C72.0928 154.093 72.2002 154.939 72.2933 155.194C72.8072 156.602 73.2834 158.218 73.5609 159.674H70.0482Z" fill="#0C1B21"/>
<path d="M129.171 156.754C137.045 153.707 136.433 167.656 129.37 165.222C128.744 165.006 127.601 164.527 127.834 163.711C128.155 162.578 129.782 164.063 130.659 164.147C134.154 164.477 134.847 157.101 130.683 157.774C129.952 157.892 128.489 159.177 127.984 158.377C127.693 157.914 127.691 153.064 127.984 152.6C128.121 152.385 128.454 152.324 128.693 152.294C129.698 152.16 133.144 151.776 133.959 151.876C134.944 151.997 134.808 153.066 134.312 153.221C133.121 153.593 130.998 153.4 129.66 153.641C129.496 153.672 129.17 153.79 129.17 153.931V156.754H129.171Z" fill="#0C1B22"/>
<path d="M108.391 153.443C108.262 153.448 108.061 153.727 107.655 153.615C107.213 153.491 106.944 152.848 107.209 152.459C107.562 151.942 112.661 151.912 113.092 152.255C114.619 153.463 110.954 155.182 111.416 155.584C117.507 155.932 114.326 165.771 109.263 164.452C108.717 164.309 107.705 163.632 108.181 162.973C108.595 162.401 109.705 163.221 110.337 163.194C112.528 163.105 114.512 158.809 112.657 157.364C111.586 156.531 108.752 157.351 108.511 156.629C108.076 155.337 110.716 154.442 111.221 153.441C110.283 153.472 109.332 153.4 108.392 153.441L108.391 153.443Z" fill="#0C1B21"/>
<path d="M118.83 157.532C119.951 157.882 120.961 157.45 122.121 157.505C122.663 157.169 122.021 153.663 122.517 152.972C122.74 152.661 123.709 152.907 123.709 153.15L123.568 156.778C123.568 156.876 123.568 157.125 123.514 157.532C124.105 157.48 125.172 157.577 125.088 158.404C125 159.262 123.661 158.94 123.503 159.215C123.063 159.98 123.285 163.702 123.111 164.823C122.937 165.936 121.86 165.834 121.75 165.386C121.496 164.338 122.246 159.34 122.064 159.083C121.768 158.67 120.882 158.897 120.411 158.895C119.729 158.894 117.466 159.001 117.466 158.018V152.37C117.466 151.855 118.832 152.121 118.832 152.564V157.53L118.83 157.532Z" fill="#0D1C22"/>
<path d="M100.488 163.373C101.643 163.593 103.005 162.968 104.099 163.18C104.796 163.314 105.016 164.286 104.253 164.504C103.039 164.442 101.754 164.878 100.585 164.93C99.1183 164.994 98.3735 164.901 98.8246 163.173C99.1362 161.983 100.905 159.579 101.499 158.25C101.952 157.235 103.481 153.427 101.179 153.831C100.169 154.008 100.049 155.707 99.2489 155.548C99.0484 155.509 98.8228 155.25 98.7638 155.055C98.2983 153.468 101.829 150.915 103.308 153.257C105.13 156.143 101.285 160.67 100.488 163.375V163.373Z" fill="#0C1B22"/>
<path d="M94.4384 163.572C94.5333 163.666 95.6719 163.42 96.0121 163.656C96.295 163.852 96.2986 164.64 96.0085 164.844C95.6343 165.107 91.4288 165.507 91.3088 165.001C90.9507 163.493 93.0294 163.983 93.0867 163.652L93.2693 154.222C92.6068 154.483 91.9892 156.033 91.2086 155.407C90.684 154.985 91.0295 154.535 91.3214 154.126C91.9301 153.275 94.3614 150.997 94.6461 153.143C94.8448 154.637 94.0714 163.203 94.4402 163.572H94.4384Z" fill="#0D1D23"/>
<path opacity="0.53" d="M147.781 40.8447C148.001 40.8528 148.303 40.8825 148.667 40.9287C149.39 41.0209 150.315 41.1758 151.232 41.3428C152.147 41.5094 153.047 41.6865 153.718 41.8223C153.985 41.8761 154.215 41.9235 154.396 41.9609L144.035 168.247L144.034 168.251C143.96 169.239 143.595 169.867 143.078 170.29C142.542 170.728 141.795 170.986 140.9 171.124C140.008 171.261 139.02 171.272 138.038 171.257C137.074 171.242 136.092 171.201 135.285 171.243C115.478 172.276 95.3846 172.143 75.4917 172.377L71.5161 172.429C70.4909 172.443 68.2312 172.516 66.0376 172.496C64.9421 172.486 63.8747 172.454 62.9985 172.38C62.5603 172.343 62.1776 172.296 61.8667 172.238C61.5466 172.179 61.3389 172.116 61.228 172.06L61.2271 172.059C60.7023 171.793 60.2491 171.25 59.896 170.56C59.5467 169.877 59.3231 169.105 59.229 168.464C58.6094 164.255 58.504 156.831 58.7837 152.145L58.8452 151.245C58.943 149.985 59.2042 148.774 59.9351 147.861C63.7898 143.256 67.5496 138.567 71.314 133.892C75.0797 129.214 78.8507 124.55 82.731 119.984C84.0483 118.434 85.4291 116.935 86.8169 115.425C87.856 114.294 88.8987 113.157 89.9136 111.992L90.9185 110.818C98.2988 102.013 105.191 92.6578 112.398 83.752C124.034 69.3742 135.889 55.1643 147.599 40.8467C147.645 40.845 147.705 40.842 147.781 40.8447Z" fill="#E4F0C2" stroke="#E4F0C2"/>
<path d="M197.426 70.9349C196.125 71.2851 192.642 71.9025 188.943 72.3957C186.64 72.7031 184.13 73.1319 181.985 72.0044C179.085 70.4783 179.362 67.1922 179.513 64.3492C179.882 57.3533 181.199 49.9537 181.851 42.9239C182.189 39.2786 182.426 35.6082 182.599 31.9521L170.731 25.8837C169.997 29.0394 169.429 32.2452 168.645 35.392C167.415 40.3257 167.256 43.778 160.778 42.0483V48.9619C160.778 49.0209 160.37 49.9304 160.284 50.0269C159.618 50.79 157.955 50.3093 157.069 50.1324C153.264 49.3711 146.352 47.2072 142.726 45.7526C140.889 45.0164 138.841 44.1444 139.657 41.7088L144.192 36.1103C142.282 34.9792 138.812 34.6093 138.968 31.6877C139.09 29.4022 142.864 23.3534 144.158 21.0787C147.093 15.918 150.289 10.2249 153.477 5.25719C155.087 2.75013 156.206 0.116194 159.616 0.65406C162.13 1.05076 167.408 3.29336 169.997 4.31548C175.832 6.61883 175.207 7.83931 173.986 13.6522C173.784 14.6171 172.455 18.9486 172.774 19.4597L186.404 26.6968C189.229 28.7643 189.199 31.3285 189.081 34.5593C189.016 36.2854 188.817 38.2511 188.681 40.0023C187.999 48.7439 186.617 57.4516 185.953 66.1969C185.953 66.1969 197.111 63.2538 198.953 63.47C200.796 63.6862 199.317 70.3326 198.953 70.4801C198.59 70.6276 198.727 70.5846 197.426 70.9349Z" fill="#008099"/>
</g>
<defs>
<clipPath id="clip0_8963_1043">
<rect width="200" height="199.616" fill="white" transform="translate(0 0.176758)"/>
</clipPath>
</defs>
</svg>
