<svg width="272" height="221" viewBox="0 0 272 221" fill="none" xmlns="http://www.w3.org/2000/svg">
<g clip-path="url(#clip0_7072_30)">
<path d="M219.877 19.1984L80.404 56.9842C81.6223 61.4924 78.9591 66.1194 74.4631 67.3448C69.9644 68.5606 65.3304 65.9096 64.1024 61.4039L17.6364 73.989C10.6096 75.8925 6.46219 83.1327 8.36312 90.1498L36.1324 192.666C38.0333 199.683 45.2664 203.843 52.2932 201.939L98.7592 189.354C97.5409 184.846 100.204 180.219 104.7 178.993C109.199 177.777 113.833 180.428 115.061 184.934L254.533 147.148C261.56 145.245 265.708 138.005 263.807 130.988L236.037 28.4717C234.137 21.4546 226.903 17.2949 219.877 19.1984ZM102.181 169.709C97.6827 170.925 93.046 168.264 91.8206 163.768C90.6049 159.269 93.2655 154.633 97.7615 153.407C102.258 152.182 106.897 154.852 108.122 159.348C109.338 163.847 106.677 168.483 102.181 169.709ZM95.2498 144.111C90.7512 145.326 86.1171 142.675 84.8891 138.17C83.6734 133.671 86.334 129.034 90.83 127.809C95.3261 126.584 99.9653 129.254 101.191 133.75C102.409 138.258 99.7458 142.885 95.2498 144.111ZM88.3235 118.532C83.8248 119.747 79.1882 117.087 77.9628 112.591C76.7374 108.095 79.4077 103.455 83.9037 102.23C88.3998 101.005 93.0364 103.665 94.2644 108.171C95.4801 112.67 92.8195 117.306 88.3235 118.532ZM81.392 92.9334C76.8933 94.1491 72.2567 91.4885 71.0313 86.9925C69.8156 82.4939 72.4762 77.8573 76.9722 76.6318C81.4708 75.4161 86.1075 78.0767 87.3329 82.5727C88.5486 87.0714 85.888 91.708 81.392 92.9334Z" fill="#ED5D15"/>
<path d="M211.486 53.5045L110.468 80.8747C107.787 81.6012 106.202 84.3638 106.929 87.0451L107.25 88.2323C107.977 90.9136 110.739 92.4983 113.421 91.7718L214.438 64.4016C217.12 63.6751 218.704 60.9125 217.978 58.2312L217.656 57.044C216.93 54.3627 214.167 52.778 211.486 53.5045Z" fill="white"/>
<path d="M219.255 82.1803L118.238 109.551C115.556 110.277 113.972 113.04 114.698 115.721L115.02 116.908C115.746 119.589 118.509 121.174 121.19 120.448L222.208 93.0775C224.889 92.351 226.474 89.5884 225.748 86.9071L225.426 85.7199C224.699 83.0386 221.937 81.4539 219.255 82.1803Z" fill="white"/>
<path d="M227.028 110.866L126.01 138.236C123.329 138.963 121.744 141.725 122.47 144.406L122.792 145.594C123.518 148.275 126.281 149.86 128.962 149.133L229.98 121.763C232.661 121.036 234.246 118.274 233.52 115.593L233.198 114.405C232.472 111.724 229.709 110.139 227.028 110.866Z" fill="white"/>
</g>
<defs>
<clipPath id="clip0_7072_30">
<rect width="236.16" height="133.14" fill="white" transform="translate(4.79395 76.8296) rotate(-15)"/>
</clipPath>
</defs>
</svg>
