<svg width="40" height="40" viewBox="0 0 40 40" fill="none" xmlns="http://www.w3.org/2000/svg">
<path d="M25.7422 13.9553C24.5938 18.4121 20 22 20 22C20 22 14 17.3137 14 12C14 11.3367 14.1076 10.6986 14.3064 10.1021C15.1005 7.71855 17.3496 6 20 6C23.3137 6 26 8.68629 26 12C26 12.651 25.9099 13.2926 25.7519 13.9173C25.7487 13.93 25.7455 13.9426 25.7422 13.9553Z" fill="black"/>
<path d="M18.7689 23.5762C18.3674 23.2626 18.371 23.2653 18.4221 23.303C18.463 23.3333 18.5344 23.3861 18.4519 23.3164C18.2666 23.1599 18.0084 22.9352 17.7015 22.6503C17.0904 22.0827 16.2732 21.264 15.4513 20.2581C13.8637 18.3151 12 15.3613 12 12C12 11.5789 12.0325 11.1654 12.0952 10.7619L4 14V34L14 30L26 34L36 30V10L27.9178 13.2329C27.5411 16.0797 25.9391 18.5565 24.5487 20.2581C23.7268 21.264 22.9096 22.0827 22.2985 22.6503C21.9916 22.9352 21.7334 23.1599 21.5481 23.3164C21.4656 23.386 21.5369 23.3334 21.5778 23.3031C21.6288 23.2654 21.6325 23.2627 21.2311 23.5762C20.5076 24.1413 19.4924 24.1413 18.7689 23.5762Z" fill="black"/>
<path fill-rule="evenodd" clip-rule="evenodd" d="M20 4C24.1028 4 27.4843 7.08854 27.9462 11.0675L35.2572 8.14306C35.8734 7.89658 36.5717 7.97182 37.1213 8.34387C37.6708 8.71593 38 9.33636 38 10V30C38 30.8178 37.5021 31.5532 36.7428 31.857L26.7428 35.857C26.3036 36.0326 25.8163 36.047 25.3675 35.8974L14.0626 32.129L4.74278 35.857C4.1266 36.1034 3.42829 36.0282 2.87874 35.6561C2.3292 35.2841 2 34.6637 2 34V14C2 13.1822 2.4979 12.4468 3.25722 12.1431L12.9159 8.27958C14.255 5.73504 16.9249 4 20 4ZM18.7689 23.5762C18.3674 23.2626 18.371 23.2653 18.4221 23.303C18.463 23.3333 18.5344 23.3861 18.4519 23.3164C18.2666 23.1599 18.0084 22.9352 17.7015 22.6503C17.0904 22.0827 16.2732 21.264 15.4513 20.2581C13.8637 18.3151 12 15.3613 12 12C12 11.5789 12.0325 11.1654 12.0952 10.7619L4 14V34L14 30L26 34L36 30V10L27.9178 13.2329C27.5411 16.0797 25.9391 18.5565 24.5487 20.2581C23.7268 21.264 22.9096 22.0827 22.2985 22.6503C21.9916 22.9352 21.7334 23.1599 21.5481 23.3164C21.4656 23.3861 21.537 23.3333 21.5779 23.303C21.629 23.2653 21.6326 23.2626 21.2311 23.5762C20.5076 24.1413 19.4924 24.1413 18.7689 23.5762ZM26 12C26 17.3137 20 22 20 22C20 22 14 17.3137 14 12C14 8.68629 16.6863 6 20 6C23.3137 6 26 8.68629 26 12Z" fill="white"/>
</svg>
