<svg width="1024" height="711" viewBox="0 0 1024 711" fill="none" xmlns="http://www.w3.org/2000/svg">
<g clip-path="url(#clip0_69_12438)">
<path opacity="0.2" d="M390.163 210.724L349.551 321.08L331.721 528.128L476.341 474.527L502.096 369.424L390.163 210.724Z" fill="#0D6569"/>
<path opacity="0.3" d="M228.703 393.074L390.163 210.724L349.551 321.08L331.721 528.128L228.703 393.074Z" fill="#0D6569"/>
<path opacity="0.2" d="M228.703 393.074L0 0V516.566L31.5868 601.695L71.4574 508.814L228.703 393.074Z" fill="#0D6569"/>
<path opacity="0.3" d="M105.632 559.656L31.5869 601.695L71.4574 508.814L228.703 393.074L270.161 447.424L105.632 559.656Z" fill="#0D6569"/>
<path opacity="0.3" d="M105.631 559.656L228.703 393.074L270.161 447.424L105.631 559.656Z" fill="#0D6569"/>
<path opacity="0.4" d="M105.632 559.656L31.5869 601.695L99.7685 660.726L130.202 577.491L105.632 559.656Z" fill="#0D6569"/>
<path opacity="0.5" d="M31.5868 601.695L0 700.489L99.7684 660.726L31.5868 601.695Z" fill="#0D6569"/>
<path opacity="0.2" d="M180.974 614.309L130.202 577.491L74.6761 637.429L0 700.489L99.7684 660.726L180.974 614.309Z" fill="#0D6569"/>
<path opacity="0.3" d="M105.632 559.656L99.7686 660.726L180.974 614.309L105.632 559.656Z" fill="#0D6569"/>
<path opacity="0.3" d="M99.7686 660.726L130.202 577.491L102.886 606.976L99.7686 660.726Z" fill="#0D6569"/>
<path opacity="0.3" d="M99.7686 660.726L309.435 711L476.342 474.527L331.721 528.128L99.7686 660.726Z" fill="#0D6569"/>
<path opacity="0.4" d="M0 700.489L205.948 686.186L99.7684 660.726L0 700.489Z" fill="#0D6569"/>
<path opacity="0.4" d="M105.631 559.656L270.161 447.424L331.721 528.128L180.974 614.309L105.631 559.656Z" fill="#0D6569"/>
<path opacity="0.3" d="M390.163 210.724L610.065 0H1024V186.296L502.096 369.424L390.163 210.724Z" fill="#0D6569"/>
<path opacity="0.1" d="M502.096 369.424L476.341 474.527L1024 421.978V186.296L502.096 369.424Z" fill="#0D6569"/>
</g>
<defs>
<clipPath id="clip0_69_12438">
<rect width="1024" height="711" fill="white"/>
</clipPath>
</defs>
</svg>
