<svg xmlns="http://www.w3.org/2000/svg" width="184" height="146" viewBox="0 0 184 146" fill="none">
    <path fill="#ffffff"
          d="M48.194 82.593a.213.213 0 0 1-.206-.17c-.949-4.39-1.376-11.022-1.566-15.808-.063-1.588-.11-3.223-.137-4.86a2.935 2.935 0 0 1 .85-2.13 2.95 2.95 0 0 1 2.118-.893H65.28a.212.212 0 0 1 0 .422H49.253c-.69 0-1.333.27-1.818.766-.48.49-.739 1.14-.728 1.83.026 1.631.069 3.261.137 4.85.19 4.77.617 11.376 1.555 15.74a.212.212 0 0 1-.163.253h-.042ZM135.429 87.273h-84.71c-.986 0-1.777-1.171-2.42-3.583a.212.212 0 0 1 .148-.258.212.212 0 0 1 .258.147c.57 2.137 1.265 3.267 2.014 3.267h84.71a3.582 3.582 0 0 0 3.58-3.573V64.13a3.56 3.56 0 0 0-1.893-3.15l-2.641-1.409a3.463 3.463 0 0 0-1.676-.416h-11.604a.212.212 0 0 1-.211-.212c0-.116.095-.21.211-.21h11.604a3.91 3.91 0 0 1 1.876.469l2.636 1.409a3.982 3.982 0 0 1 2.114 3.524V83.28c.006 2.2-1.792 3.994-3.996 3.994ZM111.015 59.158H75.223a.212.212 0 0 1 0-.422h35.792c.116 0 .211.095.211.211a.212.212 0 0 1-.211.211Z"/>
    <path fill="#ffffff"
          d="M116.223 66.415a5.55 5.55 0 0 1-5.54-5.545c0-3.055 2.483-5.546 5.54-5.546a5.55 5.55 0 0 1 5.541 5.546 5.55 5.55 0 0 1-5.541 5.545Zm0-10.669a5.13 5.13 0 0 0-5.119 5.124 5.13 5.13 0 0 0 5.119 5.123 5.13 5.13 0 0 0 5.119-5.123 5.126 5.126 0 0 0-5.119-5.124ZM70.246 66.415a5.55 5.55 0 0 1-5.54-5.545 5.55 5.55 0 0 1 5.54-5.546 5.55 5.55 0 0 1 5.541 5.546 5.55 5.55 0 0 1-5.54 5.545Zm0-10.669a5.13 5.13 0 0 0-5.119 5.124 5.13 5.13 0 0 0 5.12 5.123 5.123 5.123 0 0 0 0-10.247ZM136.542 84.292h-34.906a.329.329 0 0 1-.327-.328v-12.05c0-.18.148-.328.327-.328h34.906c.179 0 .327.148.327.327v12.052a.333.333 0 0 1-.327.327Zm-34.811-.422h34.71V72.008h-34.71V83.87ZM85.625 84.292h-21.02a.329.329 0 0 1-.326-.328v-12.05c0-.18.147-.328.326-.328h21.02c.18 0 .327.148.327.327v12.052a.332.332 0 0 1-.327.327ZM64.7 83.87h20.825V72.008H64.7V83.87ZM62.592 83.843h-8.625a.295.295 0 0 1-.296-.296V60.87c0-.116.095-.21.211-.21h8.794c.116 0 .21.094.21.21v22.678a.295.295 0 0 1-.294.296Zm-8.499-.422h8.372V61.08h-8.372v22.34ZM52.306 87.273a.21.21 0 0 1-.21-.206c-.006-.147-.37-15.054-.908-17.982-.21-1.14-1.044-1.868-2.478-2.163a7.437 7.437 0 0 0-2.182-.095.213.213 0 0 1-.053-.422c.048-.006 1.134-.138 2.31.1 1.602.327 2.577 1.192 2.815 2.5.542 2.96.901 17.434.917 18.052 0 .116-.09.216-.211.216ZM99.443 84.29H87.702a.317.317 0 0 1-.316-.316v-23.11c0-.117.095-.212.21-.212h11.952c.116 0 .211.095.211.211v23.111a.317.317 0 0 1-.316.317Zm-11.635-.421h11.53v-22.79h-11.53v22.79Z"/>
    <path fill="#ffffff"
          d="M116.223 64.517a3.65 3.65 0 0 1-3.643-3.646 3.65 3.65 0 0 1 3.643-3.646 3.649 3.649 0 0 1 3.643 3.646 3.649 3.649 0 0 1-3.643 3.646Zm0-6.87a3.226 3.226 0 0 0-3.221 3.224 3.226 3.226 0 0 0 3.221 3.224 3.226 3.226 0 0 0 3.222-3.224 3.226 3.226 0 0 0-3.222-3.224ZM70.246 64.517a3.649 3.649 0 0 1-3.642-3.646 3.649 3.649 0 0 1 3.642-3.646 3.645 3.645 0 0 1 0 7.292Zm0-6.87a3.226 3.226 0 0 0-3.22 3.224 3.226 3.226 0 0 0 3.22 3.224 3.226 3.226 0 0 0 3.222-3.224 3.226 3.226 0 0 0-3.222-3.224ZM51.932 83.844h-6.775c-.627 0-1.154-.47-1.223-1.092l-.169-1.493c-.052-.46.259-.998.686-1.203.295-.143.59-.1.806.116a.22.22 0 0 1 .048.074l.31.812v.005l.386 1.114h6.026c.057 0 .115.026.152.068.043.043.058.1.058.159l-.095 1.25c-.005.106-.1.19-.21.19Zm-7.144-3.45a.32.32 0 0 0-.153.042c-.242.116-.485.464-.448.775l.169 1.493c.047.412.39.718.801.718h6.58l.063-.828h-5.942a.216.216 0 0 1-.2-.143l-.432-1.25-.296-.76a.208.208 0 0 0-.142-.048ZM64.922 61.08h-2.246a.212.212 0 0 1-.211-.21c0-.117.095-.212.21-.212h2.247c.116 0 .21.095.21.211a.212.212 0 0 1-.21.211ZM110.893 61.08H99.548a.212.212 0 0 1-.21-.21c0-.117.094-.212.21-.212h11.345c.116 0 .211.095.211.211a.212.212 0 0 1-.211.211ZM166.776 87.274H20.916a.212.212 0 0 1 0-.422h145.86c.116 0 .211.094.211.21a.212.212 0 0 1-.211.212Z"/>
</svg>