<svg width="159" height="186" viewBox="0 0 159 186" fill="none" xmlns="http://www.w3.org/2000/svg">
<path d="M89.3329 68.7575C89.183 68.7575 89.0331 68.731 88.8833 68.6869C88.4249 68.5371 88.0811 68.1668 87.9577 67.6996L87.6492 66.5272C87.5874 66.3157 87.4288 66.157 87.2172 66.0953C87.0057 66.0424 86.7853 66.0953 86.6266 66.2451L86.0095 66.8357C85.7451 67.1266 85.366 67.2677 84.987 67.2324C84.5991 67.1972 84.2553 66.9856 84.0438 66.6506L82.6862 64.4204C82.6245 64.3146 82.6598 64.1824 82.7567 64.1207C82.8625 64.059 82.9947 64.0854 83.0565 64.1912L84.414 66.4126C84.5462 66.633 84.7666 66.7652 85.0222 66.7917C85.2691 66.8181 85.5159 66.7211 85.6834 66.5272L85.6922 66.5184L86.3181 65.919C86.5913 65.6633 86.9704 65.5664 87.3318 65.6633C87.6932 65.7603 87.9665 66.0336 88.0723 66.4038L88.3808 67.585C88.469 67.9024 88.707 68.158 89.0243 68.2638C89.3417 68.3696 89.6766 68.3079 89.9323 68.1051L92.5151 66.0865C92.6121 66.0071 92.7531 66.0247 92.8237 66.1217C92.903 66.2187 92.8854 66.3597 92.7884 66.4302L90.2056 68.4489C89.9499 68.6517 89.6414 68.7575 89.3329 68.7575Z" fill="#FFFFFF"/>
<path d="M107.157 64.931C106.787 64.931 106.408 64.8076 106.108 64.5608L104.283 63.0622C104.186 62.9829 104.178 62.8418 104.257 62.7537C104.336 62.6567 104.477 62.6479 104.565 62.7272L106.39 64.2258C106.822 64.5784 107.448 64.5961 107.88 64.2523L109.89 62.7272C110.41 62.3306 111.133 62.3482 111.644 62.7713L112.429 63.4413C112.834 63.7851 113.433 63.8115 113.857 63.4942L114.729 62.8242C114.826 62.7537 114.967 62.7713 115.038 62.8683C115.108 62.9652 115.091 63.1063 114.994 63.1768L114.121 63.8468C113.53 64.2875 112.702 64.2611 112.138 63.7851L111.353 63.1151C111.009 62.8242 110.516 62.8154 110.154 63.0887L108.144 64.6137C107.853 64.8252 107.51 64.931 107.157 64.931Z" fill="#FFFFFF"/>
<path d="M127.591 49.3914H108.797C108.673 49.3914 108.576 49.2944 108.576 49.171C108.576 49.0476 108.673 48.9506 108.797 48.9506H127.591C128.402 48.9506 129.169 48.6333 129.742 48.0515C130.315 47.4697 130.614 46.7028 130.597 45.8918C130.579 44.6488 130.535 42.6566 130.447 40.2148C130.226 34.626 129.724 26.8951 128.622 21.7735C128.596 21.6589 128.675 21.5355 128.79 21.509C128.913 21.4826 129.028 21.5619 129.054 21.6765C130.156 26.8334 130.658 34.5907 130.888 40.1972C130.985 42.6478 131.02 44.64 131.046 45.8829C131.064 46.8085 130.711 47.6901 130.059 48.36C129.398 49.0211 128.525 49.3914 127.591 49.3914Z" fill="#FFFFFF"/>
<path d="M43.2385 49.3918H29.6367C28.8433 49.3918 28.0852 49.1979 27.4505 48.8453L24.3564 47.1968C22.8313 46.3858 21.8881 44.8079 21.8881 43.089V20.6632C21.8881 18.098 23.9773 16.0176 26.5425 16.0176H125.863C126.991 16.0176 127.935 17.4192 128.675 20.1872C128.71 20.3017 128.64 20.4252 128.516 20.4604C128.402 20.4957 128.278 20.4252 128.243 20.3017C127.573 17.7894 126.753 16.4583 125.854 16.4583H26.5513C24.2241 16.4583 22.3377 18.3448 22.3377 20.6632V43.0801C22.3377 44.6404 23.1928 46.0685 24.5679 46.8001L27.6621 48.4486C28.235 48.7747 28.9138 48.9422 29.6367 48.9422H43.2385C43.3619 48.9422 43.4588 49.0392 43.4588 49.1626C43.4588 49.286 43.3619 49.3918 43.2385 49.3918Z" fill="#FFFFFF"/>
<path d="M97.1342 49.3919H55.1741C55.0506 49.3919 54.9537 49.295 54.9537 49.1716C54.9537 49.0481 55.0506 48.9512 55.1741 48.9512H97.1342C97.2577 48.9512 97.3546 49.0481 97.3546 49.1716C97.3546 49.295 97.2488 49.3919 97.1342 49.3919Z" fill="#FFFFFF"/>
<path d="M49.0652 53.4036C45.4951 53.4036 42.5949 50.5034 42.5949 46.9332C42.5949 43.3631 45.4951 40.4629 49.0652 40.4629C52.6354 40.4629 55.5356 43.3631 55.5356 46.9332C55.5356 50.5034 52.6354 53.4036 49.0652 53.4036ZM49.0652 40.8948C45.7419 40.8948 43.0357 43.6011 43.0357 46.9244C43.0357 50.2477 45.7419 52.954 49.0652 52.954C52.3886 52.954 55.0948 50.2477 55.0948 46.9244C55.0948 43.6011 52.3886 40.8948 49.0652 40.8948Z" fill="#FFFFFF"/>
<path d="M102.97 53.4036C99.3998 53.4036 96.4996 50.5034 96.4996 46.9332C96.4996 43.3631 99.3998 40.4629 102.97 40.4629C106.54 40.4629 109.44 43.3631 109.44 46.9332C109.44 50.5034 106.531 53.4036 102.97 53.4036ZM102.97 40.8948C99.6467 40.8948 96.9404 43.6011 96.9404 46.9244C96.9404 50.2477 99.6467 52.954 102.97 52.954C106.293 52.954 109 50.2477 109 46.9244C109 43.6011 106.293 40.8948 102.97 40.8948Z" fill="#FFFFFF"/>
<path d="M66.052 34.3359H25.3612C25.0967 34.3359 24.8763 34.1244 24.8763 33.8511V19.9848C24.8763 19.7204 25.0879 19.5 25.3612 19.5H66.0343C66.2988 19.5 66.5192 19.7116 66.5192 19.9848V33.8511C66.528 33.9745 66.4839 34.0979 66.3958 34.1861C66.3076 34.283 66.1842 34.3359 66.052 34.3359ZM25.3612 19.9496C25.3435 19.9496 25.3171 19.9672 25.3171 19.9936V33.8511C25.3171 33.8687 25.3347 33.8952 25.3612 33.8952H66.052C66.0696 33.8952 66.0784 33.8864 66.0784 33.8864C66.0872 33.8775 66.0872 33.8775 66.0872 33.8775C66.0872 33.8687 66.0872 33.8687 66.0872 33.8599V19.9848C66.0872 19.9672 66.0696 19.9408 66.0432 19.9408H25.3612V19.9496Z" fill="#FFFFFF"/>
<path d="M109.467 34.3359H85.0663C84.8018 34.3359 84.5814 34.1244 84.5814 33.8511V19.9848C84.5814 19.7204 84.8018 19.5 85.0663 19.5H109.467C109.731 19.5 109.951 19.7116 109.951 19.9848V33.8511C109.951 34.1244 109.731 34.3359 109.467 34.3359ZM85.0663 19.9496C85.0486 19.9496 85.0222 19.9672 85.0222 19.9936V33.8511C85.0222 33.8687 85.0398 33.8952 85.0663 33.8952H109.467C109.484 33.8952 109.511 33.8775 109.511 33.8511V19.9848C109.511 19.9672 109.493 19.9408 109.467 19.9408H85.0663V19.9496Z" fill="#FFFFFF"/>
<path d="M122.161 47.1418H111.856C111.732 47.1418 111.635 47.0448 111.635 46.9214V20.4495C111.635 20.2203 111.812 20.0352 112.05 20.0352H121.976C122.205 20.0352 122.39 20.2115 122.39 20.4495V46.9302C122.381 47.0448 122.284 47.1418 122.161 47.1418ZM112.067 46.701H121.931V20.4759H112.067V46.701Z" fill="#FFFFFF"/>
<path d="M129.9 40.4542C129.416 40.4542 128.79 40.419 128.146 40.2867C126.277 39.9077 125.14 38.9028 124.858 37.3777C124.206 33.9134 123.8 16.9618 123.783 16.239C123.783 16.1155 123.88 16.0186 123.994 16.0098C124.118 16.0098 124.215 16.1067 124.223 16.2213C124.223 16.3976 124.647 33.8605 125.29 37.2896C125.898 40.5336 130.738 39.9606 130.791 39.9606C130.914 39.9429 131.02 40.0311 131.038 40.1545C131.055 40.2779 130.967 40.3837 130.844 40.4013C130.817 40.4101 130.447 40.4542 129.9 40.4542Z" fill="#FFFFFF"/>
<path d="M82.6332 47.1434H68.6171C68.4937 47.1434 68.3967 47.0464 68.3967 46.923V19.9662C68.3967 19.7106 68.5995 19.5078 68.8551 19.5078H82.404C82.6597 19.5078 82.8624 19.7106 82.8624 19.9662V46.9318C82.8536 47.0464 82.7566 47.1434 82.6332 47.1434ZM68.8375 46.7026H82.4217V19.9662C82.4217 19.9574 82.4128 19.9486 82.404 19.9486H68.8463C68.8375 19.9486 68.8287 19.9574 68.8287 19.9662V46.7026H68.8375Z" fill="#FFFFFF"/>
<path d="M49.0652 51.1696C46.7292 51.1696 44.8251 49.2656 44.8251 46.9296C44.8251 44.5935 46.7292 42.6895 49.0652 42.6895C51.4012 42.6895 53.3053 44.5935 53.3053 46.9296C53.3053 49.2656 51.4012 51.1696 49.0652 51.1696ZM49.0652 43.1214C46.9672 43.1214 45.2659 44.8227 45.2659 46.9207C45.2659 49.0187 46.9672 50.7201 49.0652 50.7201C51.1632 50.7201 52.8646 49.0187 52.8646 46.9207C52.8646 44.8227 51.1632 43.1214 49.0652 43.1214Z" fill="#FFFFFF"/>
<path d="M102.97 51.1696C100.634 51.1696 98.7299 49.2656 98.7299 46.9296C98.7299 44.5935 100.634 42.6895 102.97 42.6895C105.306 42.6895 107.21 44.5935 107.21 46.9296C107.21 49.2656 105.306 51.1696 102.97 51.1696ZM102.97 43.1214C100.872 43.1214 99.1706 44.8227 99.1706 46.9207C99.1706 49.0187 100.872 50.7201 102.97 50.7201C105.068 50.7201 106.769 49.0187 106.769 46.9207C106.769 44.8227 105.059 43.1214 102.97 43.1214Z" fill="#FFFFFF"/>
<path d="M141.36 51.8939H106.998C106.875 51.8939 106.778 51.7969 106.778 51.6735C106.778 51.5501 106.875 51.4531 106.998 51.4531H141.36C141.483 51.4531 141.58 51.5501 141.58 51.6735C141.58 51.7969 141.483 51.8939 141.36 51.8939Z" fill="#FFFFFF"/>
<path d="M98.9415 51.8939H53.1202C52.9968 51.8939 52.8998 51.7969 52.8998 51.6735C52.8998 51.5501 52.9968 51.4531 53.1202 51.4531H98.9415C99.0649 51.4531 99.1618 51.5501 99.1618 51.6735C99.1618 51.7969 99.0649 51.8939 98.9415 51.8939Z" fill="#FFFFFF"/>
<path d="M45.0101 51.8939H22.0995C21.9761 51.8939 21.8792 51.7969 21.8792 51.6735C21.8792 51.5501 21.9761 51.4531 22.0995 51.4531H45.0013C45.1247 51.4531 45.2217 51.5501 45.2217 51.6735C45.2217 51.7969 45.1336 51.8939 45.0101 51.8939Z" fill="#FFFFFF"/>
<path d="M132.827 24.5221C132.633 24.5221 132.448 24.4428 132.298 24.2929C132.28 24.2753 132.263 24.2489 132.245 24.2136L131.875 23.2616L131.417 21.9305H124.338C124.276 21.9305 124.215 21.904 124.179 21.8599C124.135 21.8159 124.118 21.7542 124.118 21.6925L124.223 20.2203C124.232 20.1057 124.329 20.0176 124.444 20.0176H132.395C133.109 20.0176 133.717 20.5641 133.797 21.2781L133.999 23.0324C134.07 23.623 133.647 24.2048 133.215 24.4163C133.083 24.4869 132.95 24.5221 132.827 24.5221ZM132.642 24.0108C132.704 24.0637 132.818 24.1254 133.021 24.0285C133.312 23.8874 133.603 23.4731 133.559 23.0941L133.356 21.3399C133.294 20.8462 132.88 20.4672 132.386 20.4672H124.647L124.576 21.4985H131.575C131.672 21.4985 131.752 21.5602 131.787 21.6484L132.298 23.1205L132.642 24.0108Z" fill="#FFFFFF"/>
<path d="M27.9617 75.6354C26.9921 75.6354 26.2075 74.8508 26.2075 73.8812C26.2075 72.9115 26.9921 72.127 27.9617 72.127C28.9314 72.127 29.716 72.9115 29.716 73.8812C29.716 74.8508 28.9314 75.6354 27.9617 75.6354ZM27.9617 72.5589C27.2389 72.5589 26.6483 73.1495 26.6483 73.8724C26.6483 74.5952 27.2389 75.1946 27.9617 75.1946C28.6846 75.1946 29.2752 74.604 29.2752 73.8812C29.2752 73.1583 28.6934 72.5589 27.9617 72.5589Z" fill="#FFFFFF"/>
<path d="M27.9617 71.3659C26.9921 71.3659 26.2075 70.5813 26.2075 69.6116C26.2075 68.642 26.9921 67.8574 27.9617 67.8574C28.9314 67.8574 29.716 68.642 29.716 69.6116C29.716 70.5813 28.9314 71.3659 27.9617 71.3659ZM27.9617 68.2894C27.2389 68.2894 26.6483 68.88 26.6483 69.6028C26.6483 70.3257 27.2389 70.9163 27.9617 70.9163C28.6846 70.9163 29.2752 70.3257 29.2752 69.6028C29.2752 68.88 28.6934 68.2894 27.9617 68.2894Z" fill="#FFFFFF"/>
<path d="M27.9617 67.1002C26.9921 67.1002 26.2075 66.3157 26.2075 65.346C26.2075 64.3763 26.9921 63.5918 27.9617 63.5918C28.9314 63.5918 29.716 64.3763 29.716 65.346C29.716 66.3157 28.9314 67.1002 27.9617 67.1002ZM27.9617 64.0237C27.2389 64.0237 26.6483 64.6144 26.6483 65.3372C26.6483 66.06 27.2389 66.6507 27.9617 66.6507C28.6846 66.6507 29.2752 66.06 29.2752 65.3372C29.2752 64.6144 28.6934 64.0237 27.9617 64.0237Z" fill="#FFFFFF"/>
<path d="M111.847 47.1439H109.22C109.096 47.1439 109 47.0469 109 46.9235C109 46.8001 109.096 46.7031 109.22 46.7031H111.856C111.979 46.7031 112.076 46.8001 112.076 46.9235C112.076 47.0469 111.97 47.1439 111.847 47.1439Z" fill="#FFFFFF"/>
<path d="M68.6173 47.1439H55.3152C55.1918 47.1439 55.0948 47.0469 55.0948 46.9235C55.0948 46.8001 55.1918 46.7031 55.3152 46.7031H68.6085C68.7319 46.7031 68.8289 46.8001 68.8289 46.9235C68.8289 47.0469 68.7319 47.1439 68.6173 47.1439Z" fill="#FFFFFF"/>
<path d="M132.651 105.917C131.822 105.917 130.456 105.335 129.742 104.947C129.636 104.885 129.592 104.753 129.654 104.647C129.715 104.542 129.847 104.498 129.953 104.559C130.606 104.912 131.901 105.476 132.651 105.476C135.093 105.476 137.076 103.493 137.076 101.051C137.076 99.376 136.15 97.8686 134.669 97.1105C134.599 97.0752 134.546 96.9959 134.546 96.9166V96.8548C134.546 95.2946 133.444 93.9194 131.928 93.5756C131.84 93.558 131.778 93.4875 131.76 93.4081C131.505 92.1475 130.385 91.2396 129.107 91.2396C127.811 91.2396 126.7 92.1564 126.454 93.4169C126.436 93.5051 126.374 93.5668 126.286 93.5932C124.77 93.9635 123.712 95.3034 123.712 96.8548V96.8901C123.712 96.9694 123.668 97.0488 123.589 97.084C122.072 97.8421 121.138 99.3495 121.138 101.033C121.138 103.475 123.122 105.458 125.563 105.458C126.304 105.458 127.035 105.273 127.67 104.93C127.776 104.868 127.908 104.912 127.97 105.018C128.032 105.123 127.987 105.256 127.882 105.317C127.176 105.705 126.374 105.908 125.563 105.908C122.883 105.908 120.697 103.722 120.697 101.042C120.697 99.2438 121.685 97.6129 123.271 96.7579C123.315 95.083 124.435 93.6549 126.048 93.1965C126.383 91.7949 127.652 90.7988 129.107 90.7988C130.553 90.7988 131.813 91.7949 132.166 93.1877C133.788 93.6197 134.951 95.1006 134.987 96.7843C136.547 97.6306 137.517 99.2526 137.517 101.051C137.517 103.731 135.331 105.917 132.651 105.917Z" fill="#FFFFFF"/>
<path d="M130.244 107.791C130.209 107.791 130.174 107.782 130.138 107.764C130.033 107.702 129.997 107.57 130.05 107.464C130.094 107.376 131.223 105.375 132.889 105.472C133.012 105.481 133.1 105.587 133.1 105.701C133.091 105.825 132.986 105.922 132.871 105.913C131.478 105.842 130.456 107.667 130.447 107.685C130.394 107.755 130.323 107.791 130.244 107.791Z" fill="#FFFFFF"/>
<path d="M129.98 106.02C129.953 106.02 129.918 106.012 129.891 106.003C129.821 105.967 129.768 105.906 129.759 105.826L129.627 104.769C129.609 104.645 129.697 104.539 129.821 104.522C129.944 104.504 130.05 104.592 130.068 104.716L130.156 105.412L130.605 105.095C130.702 105.024 130.843 105.051 130.914 105.148C130.984 105.245 130.958 105.386 130.861 105.456L130.112 105.976C130.068 106.012 130.024 106.02 129.98 106.02Z" fill="#FFFFFF"/>
<path d="M127.996 100.503C127.987 100.503 127.987 100.503 127.996 100.503C127.864 100.494 127.776 100.397 127.776 100.274C127.776 100.238 127.952 96.5449 132.228 96.5449C132.351 96.5449 132.448 96.6419 132.448 96.7653C132.448 96.8887 132.351 96.9857 132.228 96.9857C128.384 96.9857 128.225 100.15 128.217 100.291C128.208 100.415 128.111 100.503 127.996 100.503Z" fill="#FFFFFF"/>
<path d="M127.864 106.892C127.423 106.892 126.163 106.213 125.951 105.86C125.863 105.719 125.898 105.605 125.934 105.552C125.995 105.446 126.127 105.402 126.233 105.464C126.304 105.508 126.348 105.578 126.348 105.658C126.533 105.887 127.547 106.433 127.838 106.451C127.908 106.407 127.987 106.398 128.067 106.442C128.173 106.504 128.217 106.636 128.155 106.742C128.12 106.795 128.04 106.883 127.864 106.892Z" fill="#FFFFFF"/>
<path d="M65.8227 167.258C65.7787 167.258 65.7346 167.241 65.6993 167.223C65.6376 167.179 65.6024 167.117 65.6024 167.038V149.152C65.6024 149.064 65.6552 148.976 65.7434 148.949L73.6506 146.005C73.7211 145.979 73.7916 145.987 73.8533 146.032C73.9151 146.076 73.9503 146.137 73.9503 146.217V146.384C73.9503 146.419 73.9415 146.446 73.9327 146.481C73.6418 147.098 73.5007 147.786 73.5007 148.526C73.5007 149.196 73.6418 149.928 73.9415 150.774C73.9503 150.801 73.9503 150.818 73.9503 150.845V164.12C73.9503 164.208 73.8886 164.297 73.8093 164.323L65.9021 167.25C65.8756 167.25 65.8492 167.258 65.8227 167.258ZM66.0431 149.311V166.721L73.5184 163.962V150.88C73.2098 150.007 73.06 149.231 73.06 148.526C73.06 147.83 73.1834 147.178 73.4126 146.578L66.0431 149.311Z" fill="#FFFFFF"/>
<path d="M81.6284 170.185C81.5843 170.185 81.5314 170.167 81.4962 170.141L73.5978 164.279C73.5449 164.235 73.5096 164.173 73.5096 164.103V150.827C73.5096 150.721 73.589 150.633 73.6948 150.607C73.8005 150.589 73.9063 150.651 73.9416 150.748C75.0258 153.657 77.7321 156.469 78.4109 157.147C78.8693 156.663 80.2621 155.129 81.4433 153.313C81.4962 153.233 81.5931 153.189 81.6901 153.225C81.7871 153.251 81.8488 153.339 81.8488 153.436V169.973C81.8488 170.053 81.8047 170.132 81.7254 170.167C81.6989 170.176 81.6637 170.185 81.6284 170.185ZM73.9592 163.988L81.4168 169.524V154.15C80.0593 156.098 78.596 157.597 78.5784 157.615C78.4902 157.703 78.358 157.703 78.2698 157.623C78.1464 157.5 75.4225 154.908 73.9592 151.894V163.988Z" fill="#FFFFFF"/>
<path d="M81.6284 170.184C81.5402 170.184 81.4521 170.131 81.4256 170.043C81.3815 169.929 81.4432 169.805 81.5578 169.761L89.324 166.879V149.477L82.7214 151.91C82.6068 151.954 82.4834 151.893 82.4394 151.778C82.3953 151.664 82.457 151.54 82.5716 151.496L89.465 148.948C89.5356 148.922 89.6061 148.931 89.6678 148.975C89.7295 149.019 89.7648 149.081 89.7648 149.16V167.028C89.7648 167.117 89.7119 167.205 89.6237 167.231L81.7165 170.175C81.6812 170.175 81.6548 170.184 81.6284 170.184Z" fill="#FFFFFF"/>
<path d="M78.4196 157.695C78.3668 157.695 78.3139 157.678 78.2698 157.634C78.1288 157.501 74.8054 154.328 73.5361 150.917C73.2187 150.026 73.0688 149.242 73.0688 148.519C73.0688 147.717 73.2275 146.967 73.5449 146.289C73.5537 146.271 73.5625 146.253 73.5713 146.245C73.5801 146.227 73.5978 146.209 73.5978 146.192C73.5978 146.183 73.6066 146.174 73.6066 146.165C74.4969 144.332 76.3922 143.15 78.4285 143.15C81.3815 143.15 83.7881 145.557 83.7881 148.528C83.7881 149.471 83.4796 150.546 82.8361 151.825C82.5892 152.336 82.2631 152.9 81.8223 153.57C80.3678 155.791 78.596 157.616 78.5783 157.634C78.5343 157.678 78.4725 157.695 78.4196 157.695ZM74.0033 146.35C73.9856 146.394 73.968 146.43 73.9504 146.465C73.9415 146.474 73.9415 146.483 73.9415 146.483C73.6595 147.1 73.5096 147.787 73.5096 148.519C73.5096 149.189 73.6506 149.92 73.9504 150.767C75.0346 153.667 77.7409 156.488 78.4196 157.167C78.878 156.682 80.2708 155.139 81.4521 153.332C81.884 152.671 82.1925 152.124 82.4394 151.631C83.0388 150.432 83.3385 149.392 83.3385 148.528C83.3385 145.804 81.1347 143.591 78.4196 143.591C76.5508 143.591 74.8231 144.667 74.0033 146.35ZM78.402 151.939C76.5068 151.939 74.9729 150.396 74.9729 148.51C74.9729 148.113 75.0434 147.725 75.1669 147.382C75.6517 146.007 76.9563 145.072 78.4196 145.072C80.3149 145.072 81.8488 146.615 81.8488 148.501C81.8488 149.603 81.3287 150.617 80.4207 151.269C79.8389 151.71 79.1425 151.939 78.402 151.939ZM78.4196 145.513C77.1414 145.513 76.0043 146.324 75.5812 147.532C75.4666 147.822 75.4137 148.157 75.4137 148.501C75.4137 150.15 76.7536 151.49 78.402 151.49C79.0455 151.49 79.6538 151.287 80.1651 150.908C80.9584 150.335 81.408 149.462 81.408 148.492C81.408 146.853 80.0681 145.513 78.4196 145.513Z" fill="#FFFFFF"/>
<path d="M78.4022 151.938C76.507 151.938 74.9731 150.395 74.9731 148.509C74.9731 148.112 75.0437 147.724 75.1671 147.381C75.6519 146.005 76.9566 145.071 78.4199 145.071C79.3278 145.053 80.1741 145.397 80.8264 146.041C81.4876 146.693 81.849 147.566 81.849 148.491C81.849 149.593 81.3201 150.633 80.4209 151.277C79.8479 151.709 79.1427 151.938 78.4022 151.938ZM78.4728 145.512C78.4551 145.512 78.4375 145.512 78.4199 145.512C77.1417 145.512 76.0045 146.323 75.5814 147.53C75.4668 147.821 75.4139 148.156 75.4139 148.5C75.4139 150.148 76.7538 151.488 78.4022 151.488C79.0458 151.488 79.654 151.286 80.1653 150.907C80.9498 150.351 81.4082 149.443 81.4082 148.474C81.4082 147.663 81.0909 146.905 80.5091 146.34C79.9625 145.811 79.2397 145.512 78.4728 145.512Z" fill="#FFFFFF"/>
<path d="M68.0001 68.7591C67.6475 68.7591 67.3125 68.6269 67.0657 68.3712L66.0079 67.3134C65.9197 67.2252 65.9197 67.0842 66.0079 67.0049C66.096 66.9167 66.2371 66.9167 66.3164 67.0049L67.3742 68.0627C67.5417 68.2302 67.7621 68.3183 68.0001 68.3183C68.2381 68.3183 68.4585 68.2302 68.626 68.0627L69.3665 67.3222C69.6133 67.0754 69.9483 66.9343 70.3009 66.9343C70.6535 66.9343 70.9885 67.0666 71.2353 67.3222C71.4028 67.4897 71.6231 67.5779 71.8612 67.5779C72.0992 67.5779 72.3195 67.4897 72.487 67.3222L73.2275 66.5817C73.3157 66.4936 73.4567 66.4936 73.536 66.5817C73.6242 66.6699 73.6242 66.8109 73.536 66.8903L72.7956 67.6307C72.5487 67.8776 72.2138 68.0186 71.8612 68.0186C71.5086 68.0186 71.1736 67.8864 70.9267 67.6307C70.7593 67.4633 70.5389 67.3751 70.3009 67.3751C70.0629 67.3751 69.8425 67.4633 69.675 67.6307L68.9345 68.3712C68.6877 68.6269 68.3527 68.7591 68.0001 68.7591Z" fill="#FFFFFF"/>
<path d="M64.2008 134.035H58.8676C58.7442 134.035 58.6472 133.938 58.6472 133.814V132.095C58.6472 131.972 58.7442 131.875 58.8676 131.875H64.2008C64.3242 131.875 64.4212 131.972 64.4212 132.095V133.814C64.4212 133.929 64.3242 134.035 64.2008 134.035ZM59.088 133.594H63.9804V132.316H59.088V133.594Z" fill="#FFFFFF"/>
<path d="M62.3761 125.115H60.6836C60.5602 125.115 60.4633 125.018 60.4633 124.894V110.64C60.4633 110.517 60.5602 110.42 60.6836 110.42H62.3761C62.4996 110.42 62.5965 110.517 62.5965 110.64V124.894C62.5965 125.018 62.4996 125.115 62.3761 125.115ZM60.904 124.674H62.1558V110.861H60.904V124.674Z" fill="#FFFFFF"/>
<path d="M63.0284 132.315H60.0312C59.9078 132.315 59.8109 132.218 59.8109 132.094V130.904C59.8109 130.781 59.9078 130.684 60.0312 130.684H60.4632V124.91C60.4632 124.786 60.5601 124.689 60.6836 124.689H62.3761C62.4995 124.689 62.5964 124.786 62.5964 124.91V130.684H63.0284C63.1518 130.684 63.2488 130.781 63.2488 130.904V132.094C63.2488 132.209 63.1518 132.315 63.0284 132.315ZM60.2516 131.874H62.808V131.125H62.3761C62.2527 131.125 62.1557 131.028 62.1557 130.904V125.13H60.9039V130.904C60.9039 131.028 60.807 131.125 60.6836 131.125H60.2516V131.874Z" fill="#FFFFFF"/>
<path d="M96.1028 125.115H94.4103C94.2869 125.115 94.1899 125.018 94.1899 124.894V110.64C94.1899 110.517 94.2869 110.42 94.4103 110.42H96.1028C96.2262 110.42 96.3232 110.517 96.3232 110.64V124.894C96.3232 125.018 96.2262 125.115 96.1028 125.115ZM94.6307 124.674H95.8824V110.861H94.6307V124.674Z" fill="#FFFFFF"/>
<path d="M97.9277 134.016H92.5945C92.4711 134.016 92.3741 133.919 92.3741 133.796V132.085C92.3741 131.962 92.4711 131.865 92.5945 131.865H93.5466V130.895C93.5466 130.772 93.6435 130.675 93.7669 130.675H94.1989V124.892C94.1989 124.769 94.2958 124.672 94.4193 124.672H96.1118C96.2352 124.672 96.3322 124.769 96.3322 124.892V130.675H96.7729C96.8963 130.675 96.9933 130.772 96.9933 130.895V131.865H97.9365C98.0599 131.865 98.1569 131.962 98.1569 132.085V133.796C98.1481 133.919 98.0511 134.016 97.9277 134.016ZM92.8149 133.575H97.7073V132.315H96.7641C96.6407 132.315 96.5437 132.218 96.5437 132.094V131.125H96.103C95.9795 131.125 95.8826 131.028 95.8826 130.904V125.121H94.6308V130.904C94.6308 131.028 94.5339 131.125 94.4104 131.125H93.9785V132.094C93.9785 132.218 93.8815 132.315 93.7581 132.315H92.8061L92.8149 133.575Z" fill="#FFFFFF"/>
<path d="M121.429 125.112H32.6426C32.5192 125.112 32.4222 125.015 32.4222 124.892C32.4222 124.768 32.5192 124.671 32.6426 124.671H121.429C122.813 124.671 123.932 123.552 123.932 122.168C123.932 120.784 122.813 119.664 121.429 119.664H115.796C113.857 119.664 112.288 118.087 112.288 116.156C112.288 114.225 113.866 112.648 115.796 112.648H126.974C127.961 110.303 127.873 107.403 127.6 105.313C124.197 104.388 124.232 101.823 124.232 101.796C124.232 101.673 124.338 101.576 124.461 101.585C124.585 101.585 124.682 101.69 124.673 101.814C124.673 101.911 124.664 104.132 127.855 104.925C127.943 104.943 128.005 105.022 128.023 105.111C128.322 107.306 128.446 110.444 127.326 112.965C127.291 113.044 127.212 113.097 127.124 113.097H115.796C114.104 113.097 112.728 114.472 112.728 116.165C112.728 117.857 114.104 119.232 115.796 119.232H121.429C123.051 119.232 124.373 120.555 124.373 122.177C124.373 123.799 123.06 125.112 121.429 125.112Z" fill="#FFFFFF"/>
<path d="M78.6753 120.15C74.92 120.15 69.5869 119.542 65.5054 116.642C63.046 114.896 62.2174 113.16 62.1821 113.089C62.1292 112.974 62.1821 112.851 62.2879 112.798C62.4025 112.745 62.5259 112.798 62.5788 112.904C62.5876 112.922 63.4074 114.623 65.7875 116.307C67.9913 117.858 72.011 119.718 78.6753 119.718C78.7987 119.718 78.8957 119.815 78.8957 119.938C78.8957 120.062 78.7987 120.15 78.6753 120.15Z" fill="#FFFFFF"/>
<path d="M78.6665 125.131C78.5431 125.131 78.4462 125.034 78.4462 124.911V119.939C78.4462 119.816 78.5431 119.719 78.6665 119.719C82.3425 119.719 87.517 119.128 91.281 116.316C93.5201 114.641 94.2077 112.94 94.2165 112.922C94.2606 112.807 94.3928 112.755 94.4986 112.799C94.6132 112.843 94.6661 112.966 94.622 113.081C94.5956 113.151 93.8992 114.897 91.572 116.651C87.7902 119.498 82.6334 120.142 78.8869 120.168V124.928C78.8869 125.025 78.79 125.131 78.6665 125.131Z" fill="#FFFFFF"/>
<path d="M108.488 125.131C108.462 125.131 108.427 125.122 108.4 125.114C104.195 123.289 101.022 120.124 99.1001 117.779C97.0197 115.249 95.9178 113.116 95.9002 113.09C95.8473 112.984 95.8913 112.852 95.9971 112.79C96.1029 112.737 96.2351 112.781 96.2968 112.887C96.3057 112.905 97.3987 115.011 99.4527 117.506C101.339 119.807 104.46 122.919 108.576 124.699C108.691 124.743 108.735 124.876 108.691 124.99C108.656 125.078 108.576 125.131 108.488 125.131Z" fill="#FFFFFF"/>
<path d="M48.2983 125.132C48.2102 125.132 48.1308 125.079 48.0955 125C48.0515 124.885 48.0956 124.762 48.2102 124.709C52.3356 122.92 55.4474 119.808 57.3338 117.516C59.3878 115.021 60.472 112.923 60.4897 112.897C60.5426 112.791 60.6748 112.747 60.7894 112.8C60.8952 112.853 60.9392 112.985 60.8864 113.099C60.8775 113.117 59.7668 115.259 57.6865 117.789C55.7647 120.125 52.5913 123.299 48.3865 125.123C48.36 125.123 48.3247 125.132 48.2983 125.132Z" fill="#FFFFFF"/>
<path d="M55.9057 125.113C55.7823 125.113 55.6853 125.016 55.6853 124.893V119.445C55.6853 119.322 55.7823 119.225 55.9057 119.225C56.0291 119.225 56.1261 119.322 56.1261 119.445V124.893C56.1261 125.016 56.0291 125.113 55.9057 125.113Z" fill="#FFFFFF"/>
<path d="M100.881 125.113C100.757 125.113 100.66 125.016 100.66 124.893V119.445C100.66 119.322 100.757 119.225 100.881 119.225C101.004 119.225 101.101 119.322 101.101 119.445V124.893C101.101 125.016 101.004 125.113 100.881 125.113Z" fill="#FFFFFF"/>
<path d="M69.4107 125.115C69.2873 125.115 69.1903 125.018 69.1903 124.895V118.433C69.1903 118.31 69.2873 118.213 69.4107 118.213C69.5341 118.213 69.6311 118.31 69.6311 118.433V124.895C69.6311 125.018 69.5341 125.115 69.4107 125.115Z" fill="#FFFFFF"/>
<path d="M87.3848 125.115C87.2614 125.115 87.1644 125.018 87.1644 124.895V118.433C87.1644 118.31 87.2614 118.213 87.3848 118.213C87.5082 118.213 87.6052 118.31 87.6052 118.433V124.895C87.6052 125.018 87.5082 125.115 87.3848 125.115Z" fill="#FFFFFF"/>
<path d="M96.7641 132.316H93.7581C93.6347 132.316 93.5377 132.219 93.5377 132.095C93.5377 131.972 93.6347 131.875 93.7581 131.875H96.7641C96.8875 131.875 96.9844 131.972 96.9844 132.095C96.9844 132.219 96.8875 132.316 96.7641 132.316Z" fill="#FFFFFF"/>
<path d="M94.5515 102.026H81.2847C81.1613 102.026 81.0643 101.929 81.0643 101.806V95.4591H78.6666C78.6578 95.4591 78.6578 95.4591 78.649 95.4591C78.6402 95.4591 78.6402 95.4591 78.6314 95.4591H76.2336V101.806C76.2336 101.929 76.1367 102.026 76.0133 102.026H62.7729C62.6495 102.026 62.5525 101.929 62.5525 101.806V90.3904C62.5525 90.267 62.6495 90.17 62.7729 90.17H70.5478L78.5079 82.2099C78.5873 82.1306 78.7371 82.1306 78.8165 82.2099L86.7766 90.17H94.5515C94.675 90.17 94.7719 90.267 94.7719 90.3904V101.806C94.7719 101.929 94.675 102.026 94.5515 102.026ZM81.5051 101.586H94.3312V90.6108H86.6884C86.6267 90.6108 86.5738 90.5843 86.5297 90.549L78.6666 82.6859L70.8035 90.549C70.7594 90.5931 70.7065 90.6108 70.6448 90.6108H63.0021V101.586H75.7929V95.2387C75.7929 95.1153 75.8898 95.0183 76.0133 95.0183H78.6314C78.6402 95.0183 78.6402 95.0183 78.649 95.0183C78.6578 95.0183 78.6578 95.0183 78.6666 95.0183H81.2847C81.4081 95.0183 81.5051 95.1153 81.5051 95.2387V101.586Z" fill="#FFFFFF"/>
<path d="M78.6665 92.5242C77.3266 92.5242 76.2335 91.4311 76.2335 90.0912C76.2335 88.7513 77.3266 87.6582 78.6665 87.6582C80.0064 87.6582 81.0995 88.7513 81.0995 90.0912C81.0995 91.4311 80.0064 92.5242 78.6665 92.5242ZM78.6665 88.099C77.5646 88.099 76.6743 88.9893 76.6743 90.0912C76.6743 91.1931 77.5646 92.0834 78.6665 92.0834C79.7684 92.0834 80.6587 91.1931 80.6587 90.0912C80.6587 88.9893 79.7596 88.099 78.6665 88.099Z" fill="#FFFFFF"/>
<path d="M77.6882 91.2029C77.6353 91.2029 77.5736 91.1852 77.5295 91.1412C77.4413 91.053 77.4413 90.912 77.5295 90.8326L78.4463 89.9159V88.5407C78.4463 88.4173 78.5432 88.3203 78.6667 88.3203C78.7901 88.3203 78.887 88.4173 78.887 88.5407V90.004C78.887 90.0657 78.8606 90.1186 78.8253 90.1627L77.8468 91.1412C77.7939 91.1852 77.7411 91.2029 77.6882 91.2029Z" fill="#FFFFFF"/>
<path d="M62.7728 90.6106C62.7287 90.6106 62.6846 90.6018 62.6494 90.5753C62.5524 90.5048 62.526 90.3726 62.5965 90.2668L65.7347 85.6829C65.7788 85.6212 65.8405 85.5859 65.9198 85.5859H75.0523C75.1757 85.5859 75.2727 85.6829 75.2727 85.8063C75.2727 85.9297 75.1757 86.0267 75.0523 86.0267H66.0344L62.9579 90.5136C62.9138 90.5753 62.8433 90.6106 62.7728 90.6106Z" fill="#FFFFFF"/>
<path d="M94.5514 90.6106C94.4809 90.6106 94.4104 90.5753 94.3663 90.5136L91.2898 86.0267H82.2895C82.1661 86.0267 82.0692 85.9297 82.0692 85.8063C82.0692 85.6829 82.1661 85.5859 82.2895 85.5859H91.4132C91.4837 85.5859 91.5543 85.6212 91.5983 85.6829L94.7365 90.2668C94.8071 90.3638 94.7806 90.5048 94.6837 90.5753C94.6396 90.6018 94.5955 90.6106 94.5514 90.6106Z" fill="#FFFFFF"/>
<path d="M86.6884 90.6106H84.8724C84.8107 90.6106 84.7578 90.5841 84.7226 90.5488L78.6754 84.6427L72.778 90.5488C72.7339 90.5929 72.6811 90.6106 72.6194 90.6106H70.6448C70.5213 90.6106 70.4244 90.5136 70.4244 90.3902C70.4244 90.2668 70.5213 90.1698 70.6448 90.1698H72.5224L78.5079 84.1755C78.596 84.0873 78.7283 84.0873 78.8164 84.1755L84.9518 90.1698H86.6795C86.803 90.1698 86.8999 90.2668 86.8999 90.3902C86.8999 90.5136 86.8118 90.6106 86.6884 90.6106Z" fill="#FFFFFF"/>
<path d="M68.4762 98.845H65.7347C65.6112 98.845 65.5143 98.748 65.5143 98.6246V94.3404C65.5143 94.0583 65.7435 93.8203 66.0344 93.8203H68.1853C68.4674 93.8203 68.7054 94.0495 68.7054 94.3404V98.6246C68.6966 98.7392 68.5908 98.845 68.4762 98.845ZM65.9462 98.4042H68.247V94.3404C68.247 94.2963 68.2117 94.2611 68.1676 94.2611H66.0256C65.9815 94.2611 65.9462 94.2963 65.9462 94.3404V98.4042Z" fill="#FFFFFF"/>
<path d="M72.5399 98.845H69.7896C69.6662 98.845 69.5692 98.748 69.5692 98.6246V94.3404C69.5692 94.0583 69.7984 93.8203 70.0893 93.8203H72.249C72.5311 93.8203 72.7691 94.0495 72.7691 94.3404V98.6246C72.7603 98.7392 72.6633 98.845 72.5399 98.845ZM70.0012 98.4042H72.3107V94.3404C72.3107 94.2963 72.2755 94.2611 72.2314 94.2611H70.0805C70.0364 94.2611 70.0012 94.2963 70.0012 94.3404V98.4042Z" fill="#FFFFFF"/>
<path d="M87.3496 98.845H84.5992C84.4758 98.845 84.3788 98.748 84.3788 98.6246V94.3404C84.3788 94.0583 84.608 93.8203 84.8989 93.8203H87.0587C87.3407 93.8203 87.5787 94.0495 87.5787 94.3404V98.6246C87.5699 98.7392 87.4642 98.845 87.3496 98.845ZM84.8108 98.4042H87.1204V94.3404C87.1204 94.2963 87.0851 94.2611 87.041 94.2611H84.8901C84.846 94.2611 84.8108 94.2963 84.8108 94.3404V98.4042Z" fill="#FFFFFF"/>
<path d="M91.4133 98.845H88.663C88.5396 98.845 88.4426 98.748 88.4426 98.6246V94.3404C88.4426 94.0583 88.6718 93.8203 88.9627 93.8203H91.1224C91.4045 93.8203 91.6425 94.0495 91.6425 94.3404V98.6246C91.6337 98.7392 91.5368 98.845 91.4133 98.845ZM88.8746 98.4042H91.1841V94.3404C91.1841 94.2963 91.1489 94.2611 91.1048 94.2611H88.9451C88.901 94.2611 88.8658 94.2963 88.8658 94.3404V98.4042H88.8746Z" fill="#FFFFFF"/>
<path d="M78.6665 82.5892C78.5431 82.5892 78.4462 82.4922 78.4462 82.3688V81.7077V79.7243C78.4462 79.6009 78.5431 79.5039 78.6665 79.5039H82.3689C82.4659 79.5039 82.5452 79.5656 82.5805 79.6538C82.6157 79.7419 82.5805 79.8389 82.51 79.9006L81.4698 80.7557L82.51 81.5843C82.5805 81.646 82.6157 81.743 82.5805 81.8311C82.5452 81.9193 82.4659 81.981 82.3689 81.981L78.8869 81.9369V82.3776C78.8869 82.4922 78.79 82.5892 78.6665 82.5892ZM78.8869 81.4873L81.7254 81.5226L80.9673 80.9231C80.9144 80.8791 80.888 80.8174 80.888 80.7557C80.888 80.6939 80.9144 80.6234 80.9673 80.5794L81.743 79.9447H78.8781L78.8869 81.4873Z" fill="#FFFFFF"/>
<path d="M30.9941 113.133H18.4765C18.3531 113.133 18.2562 113.036 18.2562 112.913V101.285C18.2562 100.316 19.0407 99.5312 20.0104 99.5312H29.4602C30.4299 99.5312 31.2145 100.316 31.2145 101.285V112.913C31.2145 113.027 31.1175 113.133 30.9941 113.133ZM18.6969 112.692H30.7737V101.285C30.7737 100.563 30.1831 99.972 29.4602 99.972H20.0104C19.2875 99.972 18.6969 100.563 18.6969 101.285V112.692Z" fill="#FFFFFF"/>
<path d="M33.4536 113.134H16.026C15.9026 113.134 15.8056 113.037 15.8056 112.913V99.3204C15.8056 98.0246 16.8634 96.9668 18.1593 96.9668H31.3203C32.6161 96.9668 33.6739 98.0246 33.6739 99.3204V112.913C33.6739 113.028 33.577 113.134 33.4536 113.134ZM16.2464 112.693H33.2332V99.3204C33.2332 98.2626 32.3781 97.4076 31.3203 97.4076H18.1593C17.1014 97.4076 16.2464 98.2626 16.2464 99.3204V112.693Z" fill="#FFFFFF"/>
<path d="M18.4767 113.135C18.4238 113.135 18.3621 113.118 18.318 113.073C18.2299 112.985 18.2299 112.844 18.318 112.765L22.6198 108.454C22.6639 108.41 22.7168 108.393 22.7785 108.393H26.6836C26.7453 108.393 26.7982 108.419 26.8423 108.454L31.1529 112.765C31.241 112.853 31.241 112.994 31.1529 113.073C31.0647 113.162 30.9237 113.162 30.8444 113.073L26.5954 108.825H22.8754L18.6442 113.073C18.5913 113.109 18.5384 113.135 18.4767 113.135Z" fill="#FFFFFF"/>
<path d="M26.6218 108.825H22.8578C22.7344 108.825 22.6374 108.728 22.6374 108.604V104.69C22.6374 104.311 22.9459 104.012 23.3162 104.012H26.1635C26.5425 104.012 26.8422 104.32 26.8422 104.69V108.604C26.8422 108.728 26.7364 108.825 26.6218 108.825ZM23.0781 108.384H26.4015V104.69C26.4015 104.558 26.2957 104.452 26.1635 104.452H23.3162C23.1839 104.452 23.0781 104.558 23.0781 104.69V108.384Z" fill="#FFFFFF"/>
<path d="M24.7354 112.384C24.612 112.384 24.515 112.287 24.515 112.164V111.256C24.515 111.132 24.612 111.035 24.7354 111.035C24.8588 111.035 24.9558 111.132 24.9558 111.256V112.164C24.9558 112.287 24.8588 112.384 24.7354 112.384Z" fill="#FFFFFF"/>
<path d="M24.7354 110.868C24.612 110.868 24.515 110.771 24.515 110.648V110.066C24.515 109.943 24.612 109.846 24.7354 109.846C24.8588 109.846 24.9558 109.943 24.9558 110.066V110.648C24.9558 110.771 24.8588 110.868 24.7354 110.868Z" fill="#FFFFFF"/>
<path d="M24.7354 109.75C24.612 109.75 24.515 109.653 24.515 109.53V109.336C24.515 109.212 24.612 109.115 24.7354 109.115C24.8588 109.115 24.9558 109.212 24.9558 109.336V109.53C24.9558 109.653 24.8588 109.75 24.7354 109.75Z" fill="#FFFFFF"/>
<path d="M32.6425 125.132H18.5559C17.0397 125.132 15.8144 123.897 15.8144 122.39V120.495C15.8144 118.979 17.0485 117.753 18.5559 117.753H44.3755C45.6449 117.753 46.6763 116.722 46.6763 115.452C46.6763 114.183 45.6449 113.152 44.3755 113.152H33.4535C33.3301 113.152 33.2332 113.055 33.2332 112.931C33.2332 112.808 33.3301 112.711 33.4535 112.711H44.3755C45.8917 112.711 47.117 113.945 47.117 115.452C47.117 116.96 45.8829 118.194 44.3755 118.194H18.5559C17.2865 118.194 16.2552 119.225 16.2552 120.495V122.39C16.2552 123.659 17.2865 124.691 18.5559 124.691H32.6425C32.766 124.691 32.8629 124.788 32.8629 124.911C32.8629 125.035 32.766 125.132 32.6425 125.132Z" fill="#FFFFFF"/>
<path d="M138.081 176.223H52.1065C49.1181 176.223 46.6763 173.79 46.6763 170.792V145.678C46.6763 142.69 49.1093 140.248 52.1065 140.248H104.01C106.999 140.248 109.44 142.681 109.44 145.678V161.827C109.44 164.816 107.007 167.258 104.01 167.258H89.5445C89.4211 167.258 89.3241 167.161 89.3241 167.037C89.3241 166.914 89.4211 166.817 89.5445 166.817H104.01C106.761 166.817 109 164.578 109 161.827V145.678C109 142.928 106.761 140.689 104.01 140.689H52.1065C49.3561 140.689 47.1171 142.928 47.1171 145.678V170.792C47.1171 173.543 49.3561 175.782 52.1065 175.782H138.081C140.831 175.782 143.07 173.543 143.07 170.792V118.104C143.07 115.354 140.831 113.115 138.081 113.115H136.018L135.401 113.106C133.946 113.088 132.58 112.507 131.566 111.458C130.561 110.417 130.015 109.051 130.041 107.605V107.552C130.041 107.429 130.138 107.332 130.262 107.332C130.385 107.332 130.482 107.438 130.482 107.552V107.605C130.456 108.928 130.958 110.188 131.884 111.14C132.818 112.101 134.07 112.639 135.41 112.656L136.027 112.665H138.081C141.069 112.665 143.511 115.098 143.511 118.095V170.784C143.502 173.79 141.069 176.223 138.081 176.223Z" fill="#FFFFFF"/>
<path d="M143.511 86.8108C139.958 86.8108 137.076 83.9194 137.076 80.3757C137.076 78.789 135.78 77.4843 134.193 77.4755L128.781 77.4314C124.805 77.308 123.5 74.8221 123.359 74.5224L111.856 59.4044C111.856 59.4044 111.856 59.3956 111.847 59.3956C111.547 58.9636 111.344 58.6816 111.045 58.4347C110.736 58.1791 110.207 58.0645 109.608 58.1174C108.991 58.1703 108.444 58.4083 108.18 58.7168L99.1882 69.5683C98.7563 70.0884 98.1304 70.3969 97.4604 70.4234C96.7905 70.4498 96.147 70.1853 95.6798 69.7093L88.0723 61.8462C87.4552 61.2115 86.4327 61.1939 85.798 61.8021L78.3932 68.9512C77.9613 69.3655 77.3883 69.5859 76.7889 69.5683C76.1894 69.5507 75.6341 69.295 75.2286 68.8543L71.3147 64.4908C70.9973 64.147 70.5742 63.9618 70.107 63.9618C69.6398 63.9618 69.2166 64.147 68.8993 64.4996L58.753 75.7389C57.563 77.0524 55.1476 78.1278 53.367 78.1278C53.2436 78.1278 53.1466 78.0308 53.1466 77.9074C53.1466 77.784 53.2436 77.6871 53.367 77.6871C55.0419 77.6871 57.3074 76.6821 58.4269 75.4392L68.5731 64.191C68.9698 63.7591 69.5252 63.5123 70.107 63.5123C70.6888 63.5123 71.2441 63.7591 71.6408 64.191L75.5724 68.5369C75.8985 68.8895 76.3393 69.0923 76.8153 69.1099C77.3002 69.1275 77.7497 68.9512 78.1023 68.6163L85.5071 61.4672C86.3181 60.6826 87.6139 60.709 88.3985 61.52L96.0059 69.3832C96.385 69.771 96.9139 69.9826 97.4516 69.965C97.9982 69.9473 98.5094 69.6917 98.8621 69.2686L107.854 58.4171C108.188 58.0116 108.832 57.7295 109.581 57.659C110.304 57.5973 110.939 57.7472 111.336 58.0733C111.67 58.3554 111.891 58.6551 112.217 59.1135L123.73 74.2491C123.738 74.2668 123.747 74.2756 123.756 74.2932C123.8 74.399 124.955 76.8408 128.798 76.9642H128.904L134.211 77.0083C136.036 77.0259 137.525 78.5245 137.525 80.3492C137.525 83.6549 140.214 86.3435 143.52 86.3435C146.825 86.3435 149.514 83.6549 149.514 80.3492V60.0391C149.514 55.5434 145.856 51.8939 141.369 51.8939C141.245 51.8939 141.148 51.7969 141.148 51.6735C141.148 51.5501 141.245 51.4531 141.369 51.4531C146.103 51.4531 149.955 55.3053 149.955 60.0391V80.3669C149.955 83.9194 147.063 86.8108 143.511 86.8108Z" fill="#FFFFFF"/>
<path d="M16.0172 113.146H14.642C12.4558 113.146 10.6752 111.365 10.6752 109.179V88.137H7.76617C5.91499 88.137 4.40759 86.6296 4.40759 84.7784V81.5697C4.40759 79.7185 5.91499 78.2111 7.76617 78.2111C9.61736 78.2111 11.1247 79.7185 11.1247 81.5697V87.6962H26.9039V77.4089H25.6081C25.088 77.4089 24.6737 76.9858 24.6737 76.4745V62.9344C24.6737 62.4143 25.0968 62 25.6081 62H30.1831C30.7032 62 31.1175 62.4231 31.1175 62.9344V76.4745C31.1175 76.9946 30.6944 77.4089 30.1831 77.4089H29.1429V87.6962H40.0385C42.6742 87.6962 44.8163 85.5541 44.8163 82.9184C44.8163 80.0358 47.1611 77.6998 50.0349 77.6998H53.3582C53.4816 77.6998 53.5786 77.7968 53.5786 77.9202C53.5786 78.0436 53.4816 78.1406 53.3582 78.1406H50.0349C47.3992 78.1406 45.2571 80.2827 45.2571 82.9184C45.2571 85.8009 42.9122 88.137 40.0385 88.137H28.9226C28.7992 88.137 28.7022 88.04 28.7022 87.9166V77.1885C28.7022 77.0651 28.7992 76.9682 28.9226 76.9682H30.1831C30.4564 76.9682 30.6768 76.7478 30.6768 76.4745V62.9344C30.6768 62.6611 30.4564 62.4408 30.1831 62.4408H25.6081C25.3348 62.4408 25.1144 62.6611 25.1144 62.9344V76.4745C25.1144 76.7478 25.3348 76.9682 25.6081 76.9682H27.1243C27.2477 76.9682 27.3447 77.0651 27.3447 77.1885V87.9166C27.3447 88.04 27.2477 88.137 27.1243 88.137H11.1159V109.179C11.1159 111.127 12.6938 112.705 14.642 112.705H16.0172C16.1406 112.705 16.2375 112.802 16.2375 112.925C16.2375 113.049 16.1406 113.146 16.0172 113.146ZM7.76617 78.6607C6.16181 78.6607 4.84835 79.9653 4.84835 81.5785V84.7872C4.84835 86.3916 6.153 87.705 7.76617 87.705H10.684V81.5785C10.6752 79.9653 9.37053 78.6607 7.76617 78.6607Z" fill="#FFFFFF"/>
<path d="M78.6313 120.152C78.5079 120.152 78.4109 120.055 78.4109 119.931V95.2399C78.4109 95.1165 78.5079 95.0195 78.6313 95.0195C78.7547 95.0195 78.8516 95.1165 78.8516 95.2399V119.931C78.8516 120.055 78.7547 120.152 78.6313 120.152Z" fill="#FFFFFF"/>
</svg>
