<svg width="223" height="186" viewBox="0 0 223 186" fill="none" xmlns="http://www.w3.org/2000/svg">
<path d="M166.544 75.329C166.414 75.329 166.284 75.3105 166.163 75.264C165.782 75.1339 165.485 74.8273 165.382 74.437L165.132 73.4893C165.094 73.3406 164.974 73.2198 164.825 73.1827C164.676 73.1362 164.518 73.1827 164.407 73.2849L163.905 73.768C163.682 74.0096 163.366 74.1304 163.032 74.1025C162.697 74.0747 162.409 73.8888 162.233 73.6008L161.136 71.8075C161.071 71.696 161.108 71.5566 161.21 71.4916C161.322 71.4265 161.461 71.4544 161.526 71.5659L162.623 73.3592C162.716 73.5172 162.883 73.6194 163.069 73.638C163.255 73.6565 163.431 73.5822 163.561 73.4521L163.571 73.4428L164.072 72.9597C164.305 72.7367 164.63 72.653 164.936 72.7367C165.243 72.8203 165.485 73.0619 165.568 73.3685L165.819 74.3163C165.884 74.5578 166.061 74.7437 166.302 74.8273C166.544 74.9109 166.795 74.8645 166.99 74.7065L169.071 73.0805C169.173 73.0061 169.322 73.0154 169.396 73.1176C169.48 73.2198 169.461 73.3685 169.359 73.4428L167.278 75.0689C167.073 75.2361 166.813 75.329 166.544 75.329Z" fill="white"/>
<path d="M180.909 72.2567C180.602 72.2567 180.286 72.1545 180.035 71.9408L178.567 70.7328C178.465 70.6492 178.456 70.5005 178.539 70.4076C178.623 70.3054 178.772 70.2961 178.865 70.3798L180.333 71.5877C180.658 71.8571 181.132 71.8664 181.466 71.6063L183.083 70.3798C183.529 70.0453 184.133 70.0545 184.56 70.4169L185.192 70.9558C185.508 71.216 185.954 71.2346 186.279 70.993L186.986 70.4634C187.088 70.389 187.236 70.4076 187.311 70.5098C187.385 70.612 187.366 70.7607 187.264 70.835L186.558 71.374C186.056 71.7456 185.369 71.7178 184.895 71.3182L184.263 70.7793C184.003 70.5563 183.631 70.547 183.362 70.7607L181.745 71.9872C181.494 72.1638 181.197 72.2567 180.909 72.2567Z" fill="white"/>
<path d="M142.218 52.3122H127.5C127.37 52.3122 127.268 52.21 127.268 52.0799C127.268 51.9498 127.37 51.8476 127.5 51.8476H142.218C142.841 51.8476 143.426 51.606 143.863 51.16C144.3 50.714 144.532 50.1287 144.523 49.5061C144.504 48.0102 144.458 46.5142 144.402 45.0554C144.225 40.679 143.835 34.6209 142.971 30.6162C142.943 30.4954 143.027 30.3653 143.147 30.3374C143.278 30.3095 143.398 30.3932 143.426 30.514C144.3 34.5465 144.69 40.6326 144.866 45.0275C144.922 46.4863 144.969 47.9916 144.987 49.4875C145.006 50.2309 144.718 50.937 144.197 51.4667C143.668 52.0242 142.962 52.3122 142.218 52.3122Z" fill="white"/>
<path d="M76.1452 52.3129H65.4877C64.8651 52.3129 64.2612 52.1643 63.7501 51.8762L61.325 50.5847C60.1171 49.9436 59.3645 48.6892 59.3645 47.314V29.7528C59.3645 27.7086 61.0277 26.0547 63.0718 26.0547H140.871C141.8 26.0547 142.534 27.1418 143.129 29.3718C143.166 29.4926 143.092 29.6227 142.962 29.6599C142.841 29.697 142.711 29.6227 142.674 29.4926C142.163 27.5785 141.521 26.5193 140.862 26.5193H63.0718C61.2786 26.5193 59.8291 27.9688 59.8291 29.7528V47.314C59.8291 48.5126 60.4888 49.6091 61.548 50.1759L63.9731 51.4674C64.4191 51.7183 64.9488 51.8484 65.497 51.8484H76.1545C76.2846 51.8484 76.3868 51.9506 76.3868 52.0806C76.3868 52.2107 76.2753 52.3129 76.1452 52.3129Z" fill="white"/>
<path d="M118.357 52.3161H85.4926C85.3626 52.3161 85.2603 52.2139 85.2603 52.0839C85.2603 51.9538 85.3626 51.8516 85.4926 51.8516H118.367C118.497 51.8516 118.599 51.9538 118.599 52.0839C118.599 52.2139 118.487 52.3161 118.357 52.3161Z" fill="white"/>
<path d="M80.7074 55.4455C77.8828 55.4455 75.5784 53.1412 75.5784 50.3165C75.5784 47.4918 77.8828 45.1875 80.7074 45.1875C83.5321 45.1875 85.8364 47.4918 85.8364 50.3165C85.8364 53.1505 83.5321 55.4455 80.7074 55.4455ZM80.7074 45.6614C78.1336 45.6614 76.043 47.752 76.043 50.3258C76.043 52.8996 78.1336 54.9902 80.7074 54.9902C83.2812 54.9902 85.3718 52.8996 85.3718 50.3258C85.3718 47.752 83.2812 45.6614 80.7074 45.6614Z" fill="white"/>
<path d="M122.929 55.4455C120.104 55.4455 117.8 53.1412 117.8 50.3165C117.8 47.4918 120.104 45.1875 122.929 45.1875C125.753 45.1875 128.058 47.4918 128.058 50.3165C128.058 53.1505 125.763 55.4455 122.929 55.4455ZM122.929 45.6614C120.355 45.6614 118.264 47.752 118.264 50.3258C118.264 52.8996 120.355 54.9902 122.929 54.9902C125.503 54.9902 127.593 52.8996 127.593 50.3258C127.593 47.752 125.503 45.6614 122.929 45.6614Z" fill="white"/>
<path d="M94.0131 40.5244H62.1427C61.9011 40.5244 61.706 40.3293 61.706 40.0877V29.2258C61.706 28.9842 61.9011 28.7891 62.1427 28.7891H94.0038C94.2454 28.7891 94.4405 28.9842 94.4405 29.2258V40.0877C94.4498 40.3293 94.2547 40.5244 94.0131 40.5244ZM62.1798 40.0599H93.9852V29.2536H62.1798V40.0599Z" fill="white"/>
<path d="M128.021 40.5244H108.908C108.666 40.5244 108.471 40.3293 108.471 40.0877V29.2258C108.471 28.9842 108.666 28.7891 108.908 28.7891H128.021C128.262 28.7891 128.457 28.9842 128.457 29.2258V40.0877C128.457 40.3293 128.262 40.5244 128.021 40.5244ZM108.936 40.0599H127.983V29.2536H108.936V40.0599Z" fill="white"/>
<path d="M137.963 50.5554H129.888C129.758 50.5554 129.656 50.4532 129.656 50.3231V29.5841C129.656 29.3704 129.823 29.2031 130.037 29.2031H137.814C138.028 29.2031 138.195 29.3704 138.195 29.5841V50.3231C138.195 50.4439 138.093 50.5554 137.963 50.5554ZM130.121 50.0908H137.73V29.6584H130.121V50.0908Z" fill="white"/>
<path d="M144.058 45.3085C142.832 45.3085 140.416 45.0298 140.016 42.8555C139.514 40.133 139.189 26.846 139.171 26.2885C139.171 26.1584 139.273 26.0562 139.394 26.0469C139.524 26.0469 139.626 26.1491 139.635 26.2699C139.635 26.4093 139.979 40.0773 140.471 42.7626C140.657 43.794 141.419 44.4537 142.72 44.7138C143.733 44.9183 144.69 44.8068 144.699 44.7975C144.829 44.7789 144.941 44.8718 144.959 45.0019C144.978 45.132 144.885 45.2435 144.755 45.262C144.764 45.2806 144.485 45.3085 144.058 45.3085Z" fill="white"/>
<path d="M106.994 50.5594H96.0201C95.89 50.5594 95.7878 50.4572 95.7878 50.3271V29.2072C95.7878 28.9749 95.9736 28.7891 96.2059 28.7891H106.817C107.049 28.7891 107.235 28.9749 107.235 29.2072V50.3271C107.226 50.4479 107.124 50.5594 106.994 50.5594ZM96.2524 50.0949H106.761V29.2536H96.2524V50.0949Z" fill="white"/>
<path d="M80.7074 53.7057C78.8398 53.7057 77.3253 52.1912 77.3253 50.3236C77.3253 48.4559 78.8398 46.9414 80.7074 46.9414C82.5751 46.9414 84.0896 48.4559 84.0896 50.3236C84.0896 52.1912 82.5751 53.7057 80.7074 53.7057ZM80.7074 47.3967C79.1 47.3967 77.7899 48.7068 77.7899 50.3143C77.7899 51.9217 79.1 53.2319 80.7074 53.2319C82.3149 53.2319 83.625 51.9217 83.625 50.3143C83.625 48.7068 82.3149 47.3967 80.7074 47.3967Z" fill="white"/>
<path d="M122.929 53.7057C121.061 53.7057 119.547 52.1912 119.547 50.3236C119.547 48.4559 121.061 46.9414 122.929 46.9414C124.796 46.9414 126.311 48.4559 126.311 50.3236C126.311 52.1912 124.796 53.7057 122.929 53.7057ZM122.929 47.3967C121.321 47.3967 120.011 48.7068 120.011 50.3143C120.011 51.9217 121.321 53.2319 122.929 53.2319C124.536 53.2319 125.846 51.9217 125.846 50.3143C125.846 48.7068 124.546 47.3967 122.929 47.3967Z" fill="white"/>
<path d="M153.006 54.2732H126.088C125.958 54.2732 125.856 54.171 125.856 54.0409C125.856 53.9108 125.958 53.8086 126.088 53.8086H153.015C153.145 53.8086 153.247 53.9108 153.247 54.0409C153.247 54.171 153.136 54.2732 153.006 54.2732Z" fill="white"/>
<path d="M119.779 54.2732H83.8852C83.7551 54.2732 83.6529 54.171 83.6529 54.0409C83.6529 53.9108 83.7551 53.8086 83.8852 53.8086H119.779C119.909 53.8086 120.011 53.9108 120.011 54.0409C120.011 54.171 119.909 54.2732 119.779 54.2732Z" fill="white"/>
<path d="M77.5297 54.2732H59.5875C59.4574 54.2732 59.3552 54.171 59.3552 54.0409C59.3552 53.9108 59.4574 53.8086 59.5875 53.8086H77.5297C77.6598 53.8086 77.762 53.9108 77.762 54.0409C77.762 54.171 77.6598 54.2732 77.5297 54.2732Z" fill="white"/>
<path d="M146.316 32.8298C146.149 32.8298 145.991 32.7648 145.861 32.6347C145.842 32.6161 145.823 32.5882 145.805 32.5511L145.517 31.8077L145.173 30.8042H139.663C139.598 30.8042 139.533 30.7764 139.496 30.7299C139.449 30.6835 139.431 30.6184 139.431 30.5534L139.524 29.4012C139.533 29.2804 139.635 29.1875 139.756 29.1875H145.981C146.576 29.1875 147.078 29.6335 147.143 30.2282L147.301 31.6033C147.357 32.0958 147.013 32.5697 146.65 32.7462C146.53 32.802 146.418 32.8298 146.316 32.8298ZM146.214 32.3374C146.251 32.3652 146.316 32.3931 146.437 32.3374C146.641 32.2352 146.855 31.9285 146.827 31.6684L146.669 30.2932C146.632 29.9401 146.325 29.6707 145.972 29.6707H139.96L139.905 30.3583H145.322C145.424 30.3583 145.508 30.4233 145.545 30.5162L145.944 31.6684L146.214 32.3374Z" fill="white"/>
<path d="M47.5362 72.8932C46.7278 72.8932 46.0681 72.2335 46.0681 71.4251C46.0681 70.6167 46.7278 69.957 47.5362 69.957C48.3446 69.957 49.0043 70.6167 49.0043 71.4251C49.0043 72.2335 48.3446 72.8932 47.5362 72.8932ZM47.5362 70.4216C46.9787 70.4216 46.5327 70.8676 46.5327 71.4251C46.5327 71.9826 46.9787 72.4286 47.5362 72.4286C48.0937 72.4286 48.5397 71.9826 48.5397 71.4251C48.5397 70.8676 48.0937 70.4216 47.5362 70.4216Z" fill="white"/>
<path d="M47.5362 69.4674C46.7278 69.4674 46.0681 68.8077 46.0681 67.9993C46.0681 67.191 46.7278 66.5312 47.5362 66.5312C48.3445 66.5312 49.0043 67.191 49.0043 67.9993C49.0043 68.8077 48.3445 69.4674 47.5362 69.4674ZM47.5362 66.9958C46.9787 66.9958 46.5327 67.4418 46.5327 67.9993C46.5327 68.5568 46.9787 69.0028 47.5362 69.0028C48.0937 69.0028 48.5397 68.5568 48.5397 67.9993C48.5397 67.4418 48.0937 66.9958 47.5362 66.9958Z" fill="white"/>
<path d="M47.5362 66.0338C46.7278 66.0338 46.0681 65.3741 46.0681 64.5657C46.0681 63.7574 46.7278 63.0977 47.5362 63.0977C48.3446 63.0977 49.0043 63.7574 49.0043 64.5657C49.0043 65.3741 48.3446 66.0338 47.5362 66.0338ZM47.5362 63.5622C46.9787 63.5622 46.5327 64.0082 46.5327 64.5657C46.5327 65.1232 46.9787 65.5692 47.5362 65.5692C48.0937 65.5692 48.5397 65.1232 48.5397 64.5657C48.5397 64.0082 48.0937 63.5622 47.5362 63.5622Z" fill="white"/>
<path d="M129.888 50.5583H127.825C127.695 50.5583 127.593 50.4561 127.593 50.326C127.593 50.196 127.695 50.0938 127.825 50.0938H129.888C130.018 50.0938 130.121 50.196 130.121 50.326C130.121 50.4561 130.018 50.5583 129.888 50.5583Z" fill="white"/>
<path d="M96.0201 50.5583H85.6041C85.474 50.5583 85.3718 50.4561 85.3718 50.326C85.3718 50.196 85.474 50.0938 85.6041 50.0938H96.0294C96.1595 50.0938 96.2617 50.196 96.2617 50.326C96.2617 50.4561 96.1502 50.5583 96.0201 50.5583Z" fill="white"/>
<path d="M158.832 106.567C158.126 106.567 157.02 106.065 156.537 105.805C156.425 105.74 156.379 105.6 156.444 105.489C156.509 105.377 156.648 105.331 156.76 105.396C157.261 105.665 158.265 106.102 158.832 106.102C160.699 106.102 162.223 104.578 162.223 102.711C162.223 101.438 161.517 100.276 160.374 99.6909C160.3 99.6537 160.244 99.5701 160.244 99.4864C160.244 99.4679 160.244 99.4586 160.244 99.44C160.244 98.2414 159.426 97.21 158.246 96.9405C158.153 96.9219 158.088 96.8476 158.07 96.764C157.875 95.8069 157.029 95.1194 156.063 95.1194C155.078 95.1194 154.232 95.8162 154.047 96.7733C154.028 96.8662 153.963 96.9312 153.87 96.9591C152.718 97.2379 151.919 98.2599 151.909 99.44C151.909 99.4586 151.909 99.4679 151.909 99.4864C151.909 99.5701 151.863 99.6537 151.779 99.6909C150.618 100.267 149.902 101.428 149.902 102.72C149.902 104.588 151.426 106.111 153.294 106.111C153.861 106.111 154.418 105.972 154.911 105.703C155.022 105.638 155.162 105.684 155.227 105.795C155.292 105.907 155.245 106.046 155.134 106.111C154.576 106.418 153.935 106.576 153.294 106.576C151.166 106.576 149.438 104.848 149.438 102.72C149.438 101.308 150.2 100.025 151.445 99.3471C151.491 98.0462 152.365 96.9219 153.61 96.5503C153.889 95.4446 154.892 94.6641 156.044 94.6641C157.187 94.6641 158.191 95.4446 158.479 96.541C159.761 96.8941 160.653 98.0276 160.69 99.3656C161.907 100.044 162.66 101.326 162.66 102.729C162.688 104.838 160.96 106.567 158.832 106.567Z" fill="white"/>
<path d="M156.955 108.037C156.918 108.037 156.881 108.027 156.843 108.009C156.732 107.944 156.695 107.804 156.75 107.693C156.788 107.628 157.68 106.03 159.018 106.104C159.148 106.113 159.241 106.225 159.241 106.346C159.231 106.466 159.129 106.569 159.008 106.569H158.999C157.958 106.513 157.169 107.907 157.159 107.925C157.113 107.99 157.029 108.037 156.955 108.037Z" fill="white"/>
<path d="M156.75 106.652C156.723 106.652 156.685 106.643 156.658 106.633C156.583 106.596 156.527 106.531 156.518 106.447L156.416 105.63C156.397 105.5 156.49 105.388 156.62 105.37C156.75 105.351 156.862 105.444 156.881 105.574L156.936 106.011L157.206 105.825C157.308 105.751 157.457 105.778 157.531 105.881C157.605 105.983 157.577 106.131 157.475 106.206L156.89 106.615C156.843 106.633 156.806 106.652 156.75 106.652Z" fill="white"/>
<path d="M154.52 112.153H135.361C130.892 112.153 127.259 108.52 127.259 104.051C127.259 99.8418 123.83 96.4132 119.621 96.4132H83.4949C83.4299 96.4132 83.3742 96.3853 83.3277 96.3481L69.9012 82.9124L53.9196 82.9403H48.3074C48.1773 82.9403 48.0751 82.8381 48.0751 82.708V74.0853C48.0751 73.9552 48.1773 73.853 48.3074 73.853H49.3202C49.5153 73.853 49.664 73.6951 49.664 73.5092V62.6287C49.664 62.4336 49.506 62.2849 49.3202 62.2849H45.6407C45.4456 62.2849 45.2969 62.4429 45.2969 62.6287V73.5092C45.2969 73.7044 45.4549 73.853 45.6407 73.853H46.8579C46.988 73.853 47.0902 73.9552 47.0902 74.0853V82.708C47.0902 82.8381 46.988 82.9403 46.8579 82.9403H24.1955V97.1194C24.1955 103.512 29.3989 108.715 35.7915 108.715H40.14C40.2701 108.715 40.3723 108.818 40.3723 108.948C40.3723 109.078 40.2701 109.18 40.14 109.18H35.7915C29.1387 109.18 23.7309 103.772 23.7309 97.1194V82.9403H14.5136C9.1709 82.9403 4.8317 78.5918 4.8317 73.2584V71.5115C4.8317 66.1688 9.1802 61.8296 14.5136 61.8296C19.8563 61.8296 24.1955 66.1781 24.1955 71.5115V82.485H46.6256V74.3269H45.6407C45.1947 74.3269 44.8323 73.9645 44.8323 73.5185V62.6287C44.8323 62.1827 45.1947 61.8203 45.6407 61.8203H49.3202C49.7662 61.8203 50.1286 62.1827 50.1286 62.6287V73.5092C50.1286 73.9552 49.7662 74.3176 49.3202 74.3176H48.5397V82.4757H53.9196L69.9942 82.4478C70.0592 82.4478 70.1149 82.4757 70.1614 82.5129L83.5972 95.9486H119.63C124.1 95.9486 127.733 99.5817 127.733 104.051C127.733 108.26 131.161 111.689 135.37 111.689H154.372C155.106 109.895 155.041 107.684 154.846 106.077C152.188 105.333 152.216 103.308 152.216 103.289C152.216 103.159 152.328 103.066 152.448 103.066C152.448 103.066 152.448 103.066 152.458 103.066C152.588 103.066 152.69 103.178 152.681 103.308C152.681 103.391 152.69 105.073 155.115 105.677C155.208 105.696 155.273 105.779 155.292 105.872C155.524 107.591 155.617 110.044 154.743 112.023C154.697 112.098 154.613 112.153 154.52 112.153ZM14.5043 62.2849C9.42178 62.2849 5.28699 66.4197 5.28699 71.5022V73.2491C5.28699 78.3316 9.42178 82.4664 14.5043 82.4664H23.7217V71.5022C23.7309 66.4197 19.5962 62.2849 14.5043 62.2849Z" fill="white"/>
<path d="M155.199 102.346C155.059 102.346 154.966 102.235 154.966 102.105C154.966 102.077 155.106 99.1406 158.497 99.1406C158.627 99.1406 158.73 99.2428 158.73 99.3729C158.73 99.503 158.627 99.6052 158.497 99.6052C155.543 99.6052 155.431 102.021 155.431 102.123C155.431 102.244 155.329 102.346 155.199 102.346Z" fill="white"/>
<path d="M155.087 107.329C154.864 107.329 154.558 107.19 154.27 107.032C154.074 106.929 153.889 106.818 153.768 106.716C153.675 106.651 153.415 106.437 153.536 106.205C153.591 106.093 153.74 106.047 153.851 106.112C153.916 106.149 153.963 106.214 153.972 106.288C154.13 106.465 154.827 106.837 155.059 106.864C155.124 106.827 155.208 106.827 155.273 106.864C155.385 106.92 155.431 107.069 155.366 107.18C155.31 107.283 155.217 107.329 155.087 107.329Z" fill="white"/>
<path d="M94.1989 155.767C94.1525 155.767 94.106 155.749 94.0688 155.73C94.0038 155.684 93.9666 155.619 93.9666 155.535V144.571C93.9666 144.478 94.0317 144.385 94.1153 144.357L98.9655 142.555C99.0399 142.527 99.1142 142.536 99.1793 142.583C99.2443 142.629 99.2815 142.694 99.2815 142.778V142.88C99.2815 142.917 99.2722 142.945 99.2629 142.973C99.0863 143.354 99.0027 143.763 99.0027 144.181C99.0027 144.59 99.0956 145.036 99.2722 145.519C99.2815 145.547 99.2908 145.575 99.2908 145.602V153.742C99.2908 153.835 99.2257 153.928 99.1421 153.956L94.2918 155.749C94.2547 155.767 94.2268 155.767 94.1989 155.767ZM94.4312 144.738V155.201L98.8169 153.575V145.64C98.631 145.119 98.5381 144.627 98.5381 144.181C98.5381 143.828 98.5939 143.484 98.6961 143.149L94.4312 144.738Z" fill="white"/>
<path d="M103.89 157.57C103.844 157.57 103.788 157.552 103.751 157.524L98.9098 153.928C98.854 153.882 98.8169 153.816 98.8169 153.742V145.603C98.8169 145.491 98.9005 145.398 99.012 145.37C99.1235 145.352 99.235 145.417 99.2722 145.519C99.8947 147.192 101.419 148.827 101.92 149.338C102.255 148.976 103.035 148.093 103.704 147.071C103.76 146.987 103.862 146.95 103.964 146.978C104.067 147.006 104.132 147.099 104.132 147.201V157.338C104.132 157.422 104.085 157.505 104.002 157.542C103.964 157.561 103.927 157.57 103.89 157.57ZM99.2815 153.621L103.658 156.873V147.944C102.877 149.013 102.125 149.793 102.088 149.84C101.995 149.933 101.855 149.933 101.762 149.849C101.688 149.784 100.211 148.372 99.2815 146.662V153.621Z" fill="white"/>
<path d="M103.89 157.568C103.797 157.568 103.704 157.513 103.676 157.42C103.63 157.299 103.695 157.169 103.816 157.122L108.508 155.375V144.913L104.596 146.363C104.476 146.409 104.345 146.344 104.299 146.223C104.253 146.102 104.318 145.972 104.438 145.926L108.666 144.356C108.74 144.328 108.815 144.337 108.88 144.383C108.945 144.43 108.982 144.495 108.982 144.579V155.543C108.982 155.636 108.926 155.729 108.833 155.756L103.992 157.559C103.946 157.559 103.918 157.568 103.89 157.568Z" fill="white"/>
<path d="M101.92 141.031C100.675 141.031 99.5974 141.756 99.0864 142.806C99.0771 142.834 99.0585 142.862 99.0492 142.88C98.8633 143.28 98.7704 143.717 98.7704 144.19C98.7704 144.655 98.8819 145.138 99.0492 145.612C99.8297 147.703 101.92 149.682 101.92 149.682C101.92 149.682 102.998 148.576 103.89 147.21C104.113 146.866 104.327 146.513 104.503 146.151C104.838 145.482 105.07 144.804 105.07 144.19C105.07 142.444 103.658 141.031 101.92 141.031ZM103.072 145.77C102.747 146.012 102.348 146.151 101.911 146.151C100.824 146.151 99.9412 145.268 99.9412 144.181C99.9412 143.958 99.9784 143.735 100.053 143.54C100.322 142.769 101.056 142.211 101.92 142.211C103.007 142.211 103.89 143.094 103.89 144.181C103.89 144.832 103.574 145.408 103.072 145.77Z" stroke="white" stroke-width="0.464583" stroke-miterlimit="10" stroke-linecap="round" stroke-linejoin="round"/>
<path d="M101.92 146.374C100.703 146.374 99.7182 145.39 99.7182 144.172C99.7182 143.931 99.7553 143.68 99.839 143.448C100.146 142.556 100.982 141.961 101.92 141.961C103.138 141.961 104.122 142.946 104.122 144.163C104.122 144.869 103.779 145.538 103.212 145.947C102.84 146.226 102.385 146.374 101.92 146.374ZM101.92 142.426C101.177 142.426 100.517 142.899 100.276 143.596C100.211 143.782 100.183 143.968 100.183 144.163C100.183 145.12 100.963 145.901 101.92 145.901C102.292 145.901 102.645 145.789 102.942 145.566C103.398 145.241 103.667 144.711 103.667 144.154C103.658 143.206 102.877 142.426 101.92 142.426Z" fill="white"/>
<path d="M149.345 75.3311C149.048 75.3311 148.76 75.2103 148.555 75.0059L147.7 74.1511C147.607 74.0582 147.607 73.9095 147.7 73.8259C147.793 73.733 147.942 73.733 148.026 73.8259L148.88 74.6807C149.001 74.8015 149.168 74.8758 149.345 74.8758C149.522 74.8758 149.689 74.8108 149.81 74.6807L150.404 74.086C150.841 73.6493 151.556 73.6493 151.993 74.086C152.114 74.2068 152.281 74.2812 152.458 74.2812C152.634 74.2812 152.801 74.2161 152.922 74.086L153.712 73.2963C153.805 73.2033 153.954 73.2033 154.037 73.2963C154.13 73.3892 154.13 73.5378 154.037 73.6215L153.247 74.4113C153.034 74.625 152.755 74.7365 152.458 74.7365C152.16 74.7365 151.872 74.6157 151.668 74.4113C151.408 74.1511 150.999 74.1511 150.739 74.4113L150.144 75.0059C149.93 75.2196 149.642 75.3311 149.345 75.3311Z" fill="white"/>
<path d="M86.6355 131.863H81.3857C81.2556 131.863 81.1534 131.76 81.1534 131.63V129.939C81.1534 129.809 81.2556 129.707 81.3857 129.707H86.6355C86.7656 129.707 86.8678 129.809 86.8678 129.939V131.63C86.8678 131.751 86.7656 131.863 86.6355 131.863ZM81.618 131.398H86.4032V130.172H81.618V131.398Z" fill="white"/>
<path d="M84.8422 123.089H83.179C83.0489 123.089 82.9467 122.987 82.9467 122.856V108.826C82.9467 108.696 83.0489 108.594 83.179 108.594H84.8422C84.9723 108.594 85.0745 108.696 85.0745 108.826V122.856C85.0745 122.987 84.9723 123.089 84.8422 123.089ZM83.4113 122.624H84.6099V109.058H83.4113V122.624Z" fill="white"/>
<path d="M85.4834 130.168H82.5286C82.3985 130.168 82.2963 130.066 82.2963 129.936V128.765C82.2963 128.635 82.3985 128.533 82.5286 128.533H82.9374V122.865C82.9374 122.735 83.0396 122.633 83.1697 122.633H84.8329C84.963 122.633 85.0652 122.735 85.0652 122.865V128.533H85.4741C85.6041 128.533 85.7064 128.635 85.7064 128.765V129.936C85.7156 130.066 85.6134 130.168 85.4834 130.168ZM82.7702 129.704H85.2603V128.998H84.8515C84.7214 128.998 84.6192 128.895 84.6192 128.765V123.097H83.4206V128.765C83.4206 128.895 83.3184 128.998 83.1883 128.998H82.7795V129.704H82.7702Z" fill="white"/>
<path d="M118.032 123.089H116.369C116.239 123.089 116.137 122.987 116.137 122.856V108.826C116.137 108.696 116.239 108.594 116.369 108.594H118.032C118.162 108.594 118.264 108.696 118.264 108.826V122.856C118.264 122.987 118.162 123.089 118.032 123.089ZM116.601 122.624H117.8V109.058H116.601V122.624Z" fill="white"/>
<path d="M119.825 131.852H114.576C114.445 131.852 114.343 131.749 114.343 131.619V129.928C114.343 129.798 114.445 129.696 114.576 129.696H115.495V128.758C115.495 128.627 115.598 128.525 115.728 128.525H116.137V122.857C116.137 122.727 116.239 122.625 116.369 122.625H118.032C118.162 122.625 118.264 122.727 118.264 122.857V128.525H118.673C118.803 128.525 118.905 128.627 118.905 128.758V129.696H119.825C119.955 129.696 120.058 129.798 120.058 129.928V131.619C120.058 131.749 119.955 131.852 119.825 131.852ZM114.808 131.387H119.593V130.161H118.673C118.543 130.161 118.441 130.058 118.441 129.928V128.99H118.032C117.902 128.99 117.8 128.888 117.8 128.758V123.09H116.601V128.758C116.601 128.888 116.499 128.99 116.369 128.99H115.96V129.928C115.96 130.058 115.858 130.161 115.728 130.161H114.808V131.387Z" fill="white"/>
<path d="M138.167 163.906H90.6402C86.3939 163.906 82.9467 160.459 82.9467 156.213V145.174C82.9467 140.928 86.3939 137.481 90.6402 137.481H113.052C117.298 137.481 120.745 140.928 120.745 145.174V148.073C120.745 152.32 117.298 155.767 113.052 155.767H108.74C108.61 155.767 108.508 155.665 108.508 155.535C108.508 155.405 108.61 155.302 108.74 155.302H113.052C117.038 155.302 120.281 152.06 120.281 148.073V145.174C120.281 141.188 117.038 137.945 113.052 137.945H90.6402C86.6541 137.945 83.4113 141.188 83.4113 145.174V156.213C83.4113 160.199 86.6541 163.442 90.6402 163.442H138.167C142.153 163.442 145.396 160.199 145.396 156.213V138.076C145.396 129.815 138.678 123.097 130.418 123.097H55.5828C55.4527 123.097 55.3505 122.995 55.3505 122.865C55.3505 122.735 55.4527 122.633 55.5828 122.633H130.418C138.938 122.633 145.861 129.564 145.861 138.076V156.213C145.861 160.459 142.413 163.906 138.167 163.906Z" fill="white"/>
<path d="M100.88 118.202C97.1815 118.202 91.9317 117.598 87.9085 114.746C85.4833 113.027 84.6657 111.308 84.6285 111.243C84.5727 111.122 84.6285 110.992 84.74 110.936C84.8515 110.88 84.9909 110.936 85.0466 111.047C85.0559 111.066 85.8643 112.739 88.1965 114.392C90.3615 115.926 94.3104 117.747 100.87 117.747C101 117.747 101.103 117.849 101.103 117.979C101.103 118.109 101 118.202 100.88 118.202Z" fill="white"/>
<path d="M100.88 123.087C100.75 123.087 100.647 122.985 100.647 122.855V117.958C100.647 117.828 100.75 117.726 100.88 117.726C104.494 117.726 109.577 117.149 113.275 114.381C115.477 112.736 116.155 111.063 116.155 111.045C116.202 110.924 116.341 110.868 116.452 110.915C116.573 110.961 116.629 111.091 116.583 111.212C116.555 111.286 115.867 113.005 113.572 114.734C109.855 117.54 104.782 118.172 101.103 118.199V122.864C101.112 122.985 101 123.087 100.88 123.087Z" fill="white"/>
<path d="M130.223 123.09C130.195 123.09 130.158 123.081 130.13 123.072C125.986 121.278 122.864 118.156 120.978 115.852C118.933 113.362 117.846 111.262 117.828 111.234C117.772 111.123 117.818 110.983 117.93 110.918C118.041 110.862 118.181 110.909 118.246 111.02C118.292 111.104 122.557 119.271 130.316 122.635C130.436 122.681 130.483 122.821 130.436 122.942C130.399 123.044 130.306 123.09 130.223 123.09Z" fill="white"/>
<path d="M70.9883 123.089C70.8954 123.089 70.8118 123.033 70.7746 122.949C70.7282 122.829 70.7746 122.699 70.8954 122.643C78.654 119.279 82.9281 111.112 82.9653 111.028C83.0211 110.917 83.1604 110.87 83.2812 110.926C83.3927 110.982 83.4392 111.121 83.3834 111.242C83.3741 111.26 82.287 113.36 80.2336 115.86C78.3381 118.164 75.2161 121.286 71.0813 123.079C71.0534 123.089 71.0255 123.089 70.9883 123.089Z" fill="white"/>
<path d="M78.4774 123.089C78.3473 123.089 78.2451 122.987 78.2451 122.857V117.486C78.2451 117.356 78.3473 117.254 78.4774 117.254C78.6075 117.254 78.7097 117.356 78.7097 117.486V122.857C78.7097 122.987 78.6075 123.089 78.4774 123.089Z" fill="white"/>
<path d="M122.734 123.089C122.604 123.089 122.501 122.987 122.501 122.857V117.486C122.501 117.356 122.604 117.254 122.734 117.254C122.864 117.254 122.966 117.356 122.966 117.486V122.857C122.966 122.987 122.864 123.089 122.734 123.089Z" fill="white"/>
<path d="M91.7645 123.087C91.6344 123.087 91.5322 122.985 91.5322 122.855V116.49C91.5322 116.36 91.6344 116.258 91.7645 116.258C91.8946 116.258 91.9968 116.36 91.9968 116.49V122.855C91.9968 122.985 91.8946 123.087 91.7645 123.087Z" fill="white"/>
<path d="M109.456 123.087C109.326 123.087 109.224 122.985 109.224 122.855V116.49C109.224 116.36 109.326 116.258 109.456 116.258C109.586 116.258 109.688 116.36 109.688 116.49V122.855C109.688 122.985 109.586 123.087 109.456 123.087Z" fill="white"/>
<path d="M118.682 130.172H115.728C115.598 130.172 115.495 130.069 115.495 129.939C115.495 129.809 115.598 129.707 115.728 129.707H118.682C118.813 129.707 118.915 129.809 118.915 129.939C118.915 130.069 118.803 130.172 118.682 130.172Z" fill="white"/>
<path d="M114.418 96.4231H87.6204C87.4903 96.4231 87.3881 96.3209 87.3881 96.1908V86.5646C87.3881 86.4345 87.4903 86.3323 87.6204 86.3323H94.1525L100.852 79.633C100.935 79.5494 101.093 79.5494 101.177 79.633L107.876 86.3323H114.408C114.538 86.3323 114.641 86.4345 114.641 86.5646V96.1815C114.65 96.3209 114.548 96.4231 114.418 96.4231ZM87.8527 95.9585H114.176V86.8062H107.783C107.718 86.8062 107.663 86.7783 107.616 86.7412L101.019 80.1441L94.4219 86.7412C94.3755 86.7876 94.3197 86.8062 94.2547 86.8062H87.862V95.9585H87.8527Z" fill="white"/>
<path d="M101.019 88.4108C99.8576 88.4108 98.9191 87.4723 98.9191 86.3109C98.9191 85.1494 99.8576 84.2109 101.019 84.2109C102.18 84.2109 103.119 85.1494 103.119 86.3109C103.119 87.4723 102.18 88.4108 101.019 88.4108ZM101.019 84.6755C100.118 84.6755 99.3837 85.4096 99.3837 86.3109C99.3837 87.2121 100.118 87.9462 101.019 87.9462C101.92 87.9462 102.654 87.2121 102.654 86.3109C102.654 85.4096 101.92 84.6755 101.019 84.6755Z" fill="white"/>
<path d="M100.192 87.2993C100.136 87.2993 100.071 87.2807 100.025 87.2342C99.9319 87.1413 99.9319 86.9927 100.025 86.909L100.787 86.1471V85.0135C100.787 84.8835 100.889 84.7812 101.019 84.7812C101.149 84.7812 101.251 84.8835 101.251 85.0135V86.24C101.251 86.3051 101.223 86.3608 101.186 86.4073L100.359 87.2342C100.313 87.2714 100.248 87.2993 100.192 87.2993Z" fill="white"/>
<path d="M87.6204 86.7923C87.574 86.7923 87.5275 86.783 87.4903 86.7552C87.3881 86.6808 87.3603 86.5415 87.4253 86.43L90.0734 82.5553C90.1199 82.4903 90.1849 82.4531 90.2685 82.4531H97.962C98.0921 82.4531 98.1943 82.5553 98.1943 82.6854C98.1943 82.8155 98.0921 82.9177 97.962 82.9177H90.3893L87.8155 86.6901C87.7691 86.7645 87.6948 86.7923 87.6204 86.7923Z" fill="white"/>
<path d="M114.418 86.7923C114.343 86.7923 114.269 86.7552 114.222 86.6901L111.649 82.9177H104.076C103.946 82.9177 103.844 82.8155 103.844 82.6854C103.844 82.5553 103.946 82.4531 104.076 82.4531H111.769C111.844 82.4531 111.918 82.4903 111.965 82.5553L114.613 86.43C114.687 86.5322 114.659 86.6808 114.548 86.7552C114.501 86.783 114.464 86.7923 114.418 86.7923Z" fill="white"/>
<path d="M107.783 86.7984H106.25C106.185 86.7984 106.129 86.7705 106.092 86.7334L101.028 81.7809L96.0851 86.7334C96.0387 86.7798 95.9829 86.7984 95.9179 86.7984H94.2547C94.1246 86.7984 94.0224 86.6962 94.0224 86.5661C94.0224 86.436 94.1246 86.3338 94.2547 86.3338H95.8157L100.852 81.2884C100.945 81.1955 101.084 81.1955 101.177 81.2884L106.343 86.3338H107.783C107.913 86.3338 108.016 86.436 108.016 86.5661C108.016 86.6962 107.913 86.7984 107.783 86.7984Z" fill="white"/>
<path d="M103.23 96.4228H101.019C100.889 96.4228 100.787 96.3206 100.787 96.1905V90.662C100.787 90.5319 100.889 90.4297 101.019 90.4297H103.23C103.361 90.4297 103.463 90.5319 103.463 90.662V96.1905C103.463 96.3206 103.351 96.4228 103.23 96.4228ZM101.251 95.9582H102.998V90.8943H101.251V95.9582Z" fill="white"/>
<path d="M100.991 96.4228H98.7797C98.6496 96.4228 98.5474 96.3206 98.5474 96.1905V90.662C98.5474 90.5319 98.6496 90.4297 98.7797 90.4297H100.991C101.121 90.4297 101.223 90.5319 101.223 90.662V96.1905C101.223 96.3206 101.112 96.4228 100.991 96.4228ZM99.012 95.9582H100.759V90.8943H99.012V95.9582Z" fill="white"/>
<path d="M92.4242 93.7362H90.1106C89.9805 93.7362 89.8783 93.634 89.8783 93.5039V89.8894C89.8783 89.62 90.092 89.4062 90.3615 89.4062H92.1733C92.4428 89.4062 92.6565 89.62 92.6565 89.8894V93.5039C92.6565 93.634 92.545 93.7362 92.4242 93.7362ZM90.3336 93.2716H92.1826V89.8894C92.1826 89.8801 92.1733 89.8708 92.164 89.8708H90.3429C90.3336 89.8708 90.3243 89.8801 90.3243 89.8894V93.2716H90.3336Z" fill="white"/>
<path d="M95.8435 93.7362H93.5299C93.3998 93.7362 93.2976 93.634 93.2976 93.5039V89.8894C93.2976 89.62 93.5113 89.4062 93.7808 89.4062H95.602C95.8714 89.4062 96.0851 89.62 96.0851 89.8894V93.5039C96.0758 93.634 95.9643 93.7362 95.8435 93.7362ZM93.7529 93.2716H95.602V89.8894C95.602 89.8801 95.5927 89.8708 95.5834 89.8708H93.7622C93.7529 89.8708 93.7436 89.8801 93.7436 89.8894V93.2716H93.7529Z" fill="white"/>
<path d="M108.341 93.7362H106.018C105.888 93.7362 105.786 93.634 105.786 93.5039V89.8894C105.786 89.62 105.999 89.4062 106.269 89.4062H108.09C108.359 89.4062 108.573 89.62 108.573 89.8894V93.5039C108.573 93.634 108.462 93.7362 108.341 93.7362ZM106.25 93.2716H108.099V89.8894C108.099 89.8801 108.09 89.8708 108.081 89.8708H106.26C106.25 89.8708 106.241 89.8801 106.241 89.8894V93.2716H106.25Z" fill="white"/>
<path d="M111.76 93.7362H109.447C109.316 93.7362 109.214 93.634 109.214 93.5039V89.8894C109.214 89.62 109.428 89.4062 109.697 89.4062H111.519C111.788 89.4062 112.002 89.62 112.002 89.8894V93.5039C111.992 93.634 111.881 93.7362 111.76 93.7362ZM109.67 93.2716H111.519V89.8894C111.519 89.8801 111.509 89.8708 111.5 89.8708H109.679C109.67 89.8708 109.66 89.8801 109.66 89.8894V93.2716H109.67Z" fill="white"/>
<path d="M101.019 80.029C100.889 80.029 100.787 79.9268 100.787 79.7967V79.2392V77.576C100.787 77.446 100.889 77.3438 101.019 77.3438H104.141C104.243 77.3438 104.327 77.4088 104.364 77.5017C104.401 77.5946 104.364 77.6968 104.29 77.7619L103.453 78.4402L104.29 79.0999C104.364 79.1649 104.401 79.2671 104.364 79.36C104.327 79.453 104.243 79.518 104.141 79.518L101.251 79.4808V79.806C101.251 79.9268 101.149 80.029 101.019 80.029ZM101.251 79.007L103.463 79.0348L102.933 78.6167C102.877 78.5702 102.849 78.5052 102.849 78.4402C102.849 78.3658 102.877 78.3008 102.933 78.2543L103.491 77.799H101.251V79.007Z" fill="white"/>
<path d="M52.851 109.178H42.2213C42.0913 109.178 41.989 109.075 41.989 108.945V99.0683C41.989 98.2227 42.6766 97.5352 43.5222 97.5352H51.5502C52.3957 97.5352 53.0833 98.2227 53.0833 99.0683V108.945C53.0833 109.075 52.9811 109.178 52.851 109.178ZM42.4536 108.713H52.6187V99.0683C52.6187 98.4736 52.1355 97.9997 51.5502 97.9997H43.5222C42.9275 97.9997 42.4536 98.4829 42.4536 99.0683V108.713Z" fill="white"/>
<path d="M54.9416 109.178H40.14C40.0099 109.178 39.9077 109.075 39.9077 108.945V97.3957C39.9077 96.2714 40.8276 95.3516 41.9519 95.3516H53.1298C54.254 95.3516 55.1739 96.2714 55.1739 97.3957V108.945C55.1739 109.075 55.0717 109.178 54.9416 109.178ZM40.3723 108.713H54.7093V97.3957C54.7093 96.5223 54.0032 95.8161 53.1298 95.8161H41.9519C41.0785 95.8161 40.3723 96.5223 40.3723 97.3957V108.713Z" fill="white"/>
<path d="M42.2213 109.183C42.1656 109.183 42.1006 109.164 42.0541 109.118C41.9612 109.025 41.9612 108.876 42.0541 108.792L45.7057 105.141C45.7522 105.094 45.8079 105.076 45.873 105.076L49.1901 105.066C49.2551 105.066 49.3109 105.094 49.3573 105.131L53.0183 108.792C53.1112 108.885 53.1112 109.034 53.0183 109.118C52.9253 109.21 52.7767 109.21 52.693 109.118L49.0972 105.522L45.9752 105.531L42.3886 109.118C42.3421 109.155 42.2771 109.183 42.2213 109.183Z" fill="white"/>
<path d="M49.1343 105.521H45.938C45.8079 105.521 45.7057 105.419 45.7057 105.289V101.962C45.7057 101.619 45.9845 101.34 46.3283 101.34H48.7441C49.0879 101.34 49.3666 101.619 49.3666 101.962V105.289C49.3666 105.41 49.2644 105.521 49.1343 105.521ZM46.1703 105.057H48.9021V101.962C48.9021 101.879 48.8277 101.804 48.7441 101.804H46.3283C46.2446 101.804 46.1703 101.879 46.1703 101.962V105.057Z" fill="white"/>
<path d="M47.5362 108.544C47.4061 108.544 47.3039 108.442 47.3039 108.312V107.541C47.3039 107.411 47.4061 107.309 47.5362 107.309C47.6663 107.309 47.7685 107.411 47.7685 107.541V108.312C47.7685 108.442 47.6663 108.544 47.5362 108.544Z" fill="white"/>
<path d="M47.5362 107.254C47.4061 107.254 47.3039 107.152 47.3039 107.022V106.529C47.3039 106.399 47.4061 106.297 47.5362 106.297C47.6663 106.297 47.7685 106.399 47.7685 106.529V107.022C47.7685 107.152 47.6663 107.254 47.5362 107.254Z" fill="white"/>
<path d="M47.5362 106.308C47.4061 106.308 47.3039 106.205 47.3039 106.075V105.908C47.3039 105.778 47.4061 105.676 47.5362 105.676C47.6663 105.676 47.7685 105.778 47.7685 105.908V106.075C47.7685 106.205 47.6663 106.308 47.5362 106.308Z" fill="white"/>
<path d="M55.5828 123.088H43.5872C41.5523 123.088 39.9077 121.434 39.9077 119.408V119.297C39.9077 117.262 41.5616 115.617 43.5872 115.617H65.0045C66.7792 115.617 68.2194 114.177 68.2194 112.402C68.2194 110.627 66.7792 109.187 65.0045 109.187H54.9416C54.8115 109.187 54.7093 109.085 54.7093 108.955C54.7093 108.825 54.8115 108.723 54.9416 108.723H65.0045C67.0394 108.723 68.684 110.377 68.684 112.402C68.684 114.428 67.0301 116.082 65.0045 116.082H43.5872C41.8125 116.082 40.3723 117.522 40.3723 119.297V119.408C40.3723 121.183 41.8125 122.623 43.5872 122.623H55.5828C55.7128 122.623 55.815 122.725 55.815 122.855C55.815 122.985 55.7128 123.088 55.5828 123.088Z" fill="white"/>
<path d="M179.794 132.23C176.607 132.23 174.014 129.638 174.014 126.451V112.197H161.443L157.624 112.151C157.531 112.151 157.447 112.095 157.41 112.012C156.908 110.878 156.676 109.456 156.713 107.802C156.713 107.672 156.815 107.579 156.946 107.579C156.946 107.579 156.946 107.579 156.955 107.579C157.085 107.579 157.187 107.691 157.178 107.821C157.141 109.345 157.345 110.655 157.782 111.705L161.443 111.751H174.014V106.009C174.014 96.9405 166.637 89.5629 157.568 89.5629H135.296C133.335 89.5629 131.737 87.9648 131.737 86.0042C131.737 84.0437 133.335 82.4455 135.296 82.4455H137.535C138.845 82.4455 140.694 81.6278 141.568 80.6522L149.745 71.5836C150.07 71.2212 150.534 71.0168 151.017 71.0168C151.501 71.0168 151.965 71.2212 152.29 71.5836L155.459 75.0865C155.71 75.3653 156.054 75.5232 156.425 75.5325C156.797 75.5418 157.15 75.4117 157.419 75.1516L163.385 69.3907C164.063 68.7403 165.141 68.7589 165.801 69.4279L171.933 75.7648C172.23 76.0714 172.639 76.2387 173.067 76.2201C173.494 76.2015 173.884 76.0064 174.154 75.6812L181.401 66.9377C181.68 66.5939 182.219 66.3616 182.832 66.3059C183.427 66.2501 183.956 66.3802 184.282 66.659C184.56 66.9006 184.746 67.1514 184.997 67.5045L194.279 79.6952C194.289 79.7138 194.298 79.7231 194.307 79.7416C194.345 79.8253 195.264 81.7672 198.321 81.8601H198.414C200.18 81.9159 201.834 82.6406 203.069 83.9136C204.305 85.1866 204.983 86.8591 204.983 88.6245V105.405C204.983 108.908 207.836 111.761 211.339 111.761C214.842 111.761 217.694 108.908 217.694 105.405V80.2806C217.694 73.3304 214.991 66.8076 210.075 61.8923C205.16 56.9771 198.637 54.2732 191.687 54.2732H152.987C152.857 54.2732 152.755 54.171 152.755 54.0409C152.755 53.9108 152.857 53.8086 152.987 53.8086H191.687C198.758 53.8086 205.402 56.5589 210.4 61.5578C215.399 66.5568 218.15 73.2003 218.15 80.2713V105.368C218.15 109.131 215.093 112.188 211.33 112.188C207.567 112.188 204.51 109.131 204.51 105.368V88.5966C204.51 86.952 203.878 85.391 202.735 84.2109C201.592 83.0309 200.05 82.3526 198.405 82.3061H198.312C195.116 82.2132 194.029 80.2062 193.899 79.9368L184.635 67.7647C184.635 67.7647 184.635 67.7554 184.625 67.7554C184.393 67.4116 184.235 67.1979 183.994 66.9935C183.761 66.7983 183.343 66.7054 182.888 66.7519C182.405 66.7983 181.968 66.9749 181.773 67.2165L174.525 75.9599C174.172 76.3873 173.652 76.6475 173.094 76.6661C172.537 76.6847 171.998 76.471 171.617 76.0714L165.485 69.7345C165.011 69.2421 164.221 69.2328 163.728 69.7066L157.763 75.4675C157.401 75.8113 156.936 75.9971 156.435 75.9785C155.933 75.9599 155.477 75.7462 155.143 75.3746L151.975 71.8716C151.733 71.6114 151.398 71.4535 151.045 71.4535C150.692 71.4535 150.348 71.6021 150.116 71.8716L141.94 80.9403C140.973 82.0181 139.003 82.8915 137.554 82.8915H135.315C133.605 82.8915 132.22 84.276 132.22 85.9856C132.22 87.6953 133.605 89.0798 135.315 89.0798H157.587C166.916 89.0798 174.498 96.671 174.498 105.991V111.733H180.128C183.139 111.733 185.592 114.186 185.592 117.196V126.451C185.573 129.638 182.981 132.23 179.794 132.23ZM174.479 112.197V126.451C174.479 129.378 176.867 131.766 179.794 131.766C182.721 131.766 185.109 129.378 185.109 126.451V117.196C185.109 114.446 182.869 112.197 180.11 112.197H174.479Z" fill="white"/>
</svg>
