<svg width="53" height="80" viewBox="0 0 516 777" fill="none" xmlns="http://www.w3.org/2000/svg">
<path d="M308.016 626.905C305.59 613.918 289.893 610.065 279.619 615.06C279.619 615.06 257.072 602.358 250.651 598.362C242.232 570.818 264.921 472.059 267.347 450.081C269.773 428.103 259.641 379.438 253.505 347.041C142.628 244.572 162.891 316.358 165.317 316.929C142.628 356.603 147.337 342.903 148.193 381.864C149.763 451.223 140.059 466.351 140.059 466.351C105.526 523.579 98.9621 599.218 100.389 639.178C100.389 642.033 121.366 642.318 121.366 642.318C121.937 648.312 120.51 655.162 120.51 661.156C120.51 667.15 124.933 668.007 152.617 679.995C169.883 687.416 193.286 685.133 197.424 678.568C199.137 675.856 198.994 671.004 198.423 667.579C197.995 664.296 196.425 661.299 194 659.158C189.005 655.02 183.012 653.45 178.731 652.594C177.589 652.879 176.448 653.022 175.021 653.164C175.021 653.164 157.183 629.474 157.041 621.91C156.327 595.222 168.171 548.983 196.854 494.608C199.85 488.9 210.838 457.36 210.838 457.36C210.125 459.929 188.434 557.974 197.71 613.347C198.28 616.772 220.827 615.916 220.827 615.916C216.261 628.189 216.689 637.608 219.257 640.177C244.515 643.745 279.476 646.457 302.023 639.606C309.015 637.466 308.729 630.901 308.016 626.905Z" fill="#8A98E4"/>
<path d="M443.723 547.984C447.861 549.839 451.286 553.407 452.998 557.688C454.14 560.685 454.853 563.825 456.566 566.537C460.561 572.959 465.698 570.818 467.981 572.673C470.265 574.529 472.12 577.24 467.553 580.951C461.417 586.088 454.71 578.667 452.855 576.241C448.146 569.962 447.005 560.542 444.008 560.4C444.579 574.243 450.715 579.952 457.707 583.948C462.416 586.659 454.71 594.509 446.719 592.796C440.583 591.512 436.017 585.232 435.874 572.673C435.874 568.963 438.3 553.978 432.735 554.691C428.739 555.119 427.74 552.408 429.738 548.412C431.736 544.559 440.298 546.557 443.58 547.984H443.723Z" fill="white"/>
<path d="M417.751 651.309C416.895 647.884 416.467 646.029 411.615 644.316C405.337 642.175 403.053 640.32 403.339 633.755C403.339 633.755 406.335 632.614 406.621 630.758C412.472 596.364 417.894 563.968 415.754 543.56C413.899 524.721 409.332 503.457 399.771 488.044C399.343 503.029 401.198 546.842 396.775 558.259C394.92 563.111 385.787 567.25 381.078 567.678C366.237 568.963 355.963 565.823 347.829 560.685C341.408 583.52 343.12 598.219 341.408 629.902C341.408 630.758 344.261 633.327 348.828 634.183L331.276 640.177C329.706 640.748 327.423 641.747 327.566 643.46C327.851 647.17 332.56 652.736 338.982 653.164C342.121 653.307 352.395 653.735 355.249 653.45C362.099 652.594 365.096 649.597 364.239 642.889L362.812 635.325C367.236 634.897 371.802 632.471 372.088 629.188C373.229 615.773 372.373 599.504 375.37 592.083C375.37 592.083 375.37 618.77 380.364 631.044C381.506 633.327 383.361 633.613 387.071 634.754L385.501 650.025C385.359 651.88 386.358 653.593 388.07 654.306C398.344 658.588 406.621 659.872 413.328 658.302C416.895 657.16 418.75 656.019 417.751 651.309Z" fill="#ED5D15"/>
<path d="M407.905 643.317C410.188 643.745 404.338 644.316 402.768 647.884C402.34 648.883 400.628 647.741 400.913 647.028C402.911 642.889 407.477 643.317 407.905 643.317Z" fill="white"/>
<path d="M342.692 636.324C344.69 636.324 346.545 637.038 346.545 639.464C345.546 637.894 342.406 637.038 339.695 637.038C336.984 637.038 341.55 636.181 342.549 636.324H342.692Z" fill="white"/>
<path d="M432.449 546.271C430.023 542.846 427.455 540.134 423.174 540.563C418.893 540.991 414.041 546.414 413.613 550.41C413.042 555.119 416.039 561.113 417.609 560.971C420.891 560.685 419.892 554.691 419.892 554.691C419.892 554.691 425.6 565.966 426.171 567.25C426.741 568.82 428.454 570.533 429.881 570.39C431.308 570.247 431.165 569.676 430.594 566.965C430.023 564.253 429.167 561.97 429.167 561.97C429.167 561.97 430.023 561.684 430.88 560.828C431.593 560.114 431.736 558.83 431.736 558.83C433.734 558.402 434.732 555.976 433.734 553.835C433.734 553.835 434.732 553.121 434.59 551.694C434.447 550.267 433.448 547.841 432.307 546.271H432.449Z" fill="#FDEEE7"/>
<path d="M426.741 552.693C428.026 555.548 428.739 558.545 429.453 560.971C430.166 563.397 430.737 566.537 430.737 566.537C429.881 563.968 427.883 556.404 426.599 553.121C426.599 552.836 426.884 552.55 426.884 552.55L426.741 552.693Z" fill="#F09060"/>
<path d="M419.892 552.55C417.894 552.693 416.895 554.548 415.896 555.976C414.184 558.544 416.61 559.543 418.179 557.831C418.75 557.26 420.035 554.834 420.32 555.548C420.605 556.261 422.603 558.687 423.459 562.255C424.316 565.823 427.169 569.391 428.311 569.962C424.315 563.254 425.885 551.98 419.892 552.55Z" fill="#F09060"/>
<path d="M430.309 551.409C431.45 553.692 432.449 556.975 432.164 558.83C431.879 560.685 431.593 560.257 431.736 560.114C432.449 557.546 431.022 554.548 430.023 551.837C430.023 551.551 430.023 551.266 430.309 551.552V551.409Z" fill="#F09060"/>
<path d="M173.308 201.901C174.735 204.898 177.304 211.462 177.875 214.317C175.163 221.31 179.016 231.728 173.308 244.001C171.453 248.14 162.035 259.129 159.609 256.418C159.181 253.421 177.875 244.287 175.306 215.887C174.592 208.751 169.17 199.617 173.308 201.901Z" fill="white"/>
<path d="M400.77 458.644C396.775 464.353 382.362 455.79 367.379 468.634C356.391 466.779 321.858 436.809 313.439 415.259C313.011 414.26 313.153 412.976 313.439 411.977C314.723 409.122 320.003 406.982 324.997 405.554C329.849 404.27 334.415 403.699 334.558 404.127C344.69 423.251 358.96 462.069 400.628 458.644H400.77Z" fill="#F09060"/>
<path d="M261.211 131.114C263.351 124.692 263.779 123.122 263.494 119.697C263.209 116.272 262.495 116.414 261.496 115.415C260.783 114.702 264.35 116.414 264.635 115.415C264.921 114.416 268.06 107.138 265.064 100.573C264.493 99.2887 263.066 103.856 261.782 104.141C248.082 106.567 241.518 103.713 228.39 98.4324C227.248 98.0042 225.964 98.4324 225.393 99.4314L211.409 122.123C211.266 122.408 210.981 122.551 210.838 122.837C209.839 123.55 208.269 127.118 207.984 124.406C207.699 121.695 208.698 109.707 197.282 111.99C196.283 112.133 195.569 112.847 195.284 113.846C194.285 118.983 200.136 126.833 202.276 129.687C202.847 130.4 202.847 131.257 202.561 132.113L193.857 152.093C191.431 155.518 184.011 156.089 182.869 156.375C181.157 156.66 189.861 174.357 189.005 174.642C178.588 178.495 197.139 175.498 197.71 175.498C208.983 176.497 225.536 220.025 230.388 228.874C231.672 231.3 235.24 186.059 237.808 172.501C237.951 171.645 249.081 163.082 257.072 149.524C257.358 148.953 259.498 147.241 259.641 146.527C260.497 141.39 258.499 138.963 261.068 131.114H261.211Z" fill="#E5E9F9"/>
<path d="M263.637 114.131C267.204 117.413 263.637 119.84 263.494 120.125C262.638 117.128 259.07 115.701 259.213 113.988C259.356 112.276 261.068 111.705 263.637 113.988V114.131Z" fill="#0020C2"/>
<path d="M242.945 109.992C249.224 110.991 243.944 112.133 239.235 113.703C234.526 115.273 234.098 117.128 232.528 116.843C224.252 115.701 238.807 109.279 242.945 109.992Z" fill="#0020C2"/>
<path d="M239.235 121.267C243.088 122.123 241.661 131.97 238.664 131.828C234.383 131.542 239.092 125.12 238.521 124.406C237.951 123.693 233.812 126.262 233.527 124.121C233.242 121.98 235.382 120.41 239.235 121.124V121.267Z" fill="#0020C2"/>
<path d="M260.783 127.832C262.21 131.97 260.212 135.538 258.642 135.538C257.358 135.538 256.216 132.684 258.357 129.972C258.642 129.544 258.642 129.116 258.357 128.831C257.072 127.546 255.217 128.831 255.075 128.26C254.932 127.689 255.075 127.118 255.931 126.404C257.643 125.12 260.212 125.976 260.925 127.974L260.783 127.832Z" fill="#0020C2"/>
<path d="M254.647 131.828C252.363 132.256 261.639 142.531 252.363 140.961C248.653 140.105 247.94 140.39 248.796 140.819C259.07 145.386 260.497 138.678 254.504 131.828H254.647Z" fill="#8A98E4"/>
<path d="M237.665 179.066C241.661 177.924 248.653 188.485 236.952 180.351C236.238 180.208 237.38 179.066 237.665 179.066Z" fill="black"/>
<path d="M266.919 211.034C266.491 224.592 262.78 227.875 266.205 211.748L266.491 211.462L266.776 211.177L266.919 211.034Z" fill="#282525"/>
<path d="M287.467 178.21C279.619 166.507 240.234 164.081 227.248 163.082C240.805 173.643 229.246 208.18 229.96 225.734C229.96 225.734 227.248 197.191 206.272 177.924C203.703 175.641 182.869 156.089 182.869 156.089C180.015 156.089 177.589 157.516 173.736 162.226L173.451 165.794C171.31 167.221 96.3935 179.922 93.1114 193.908C79.555 251.993 95.68 362.169 154.472 440.52C155.614 442.089 164.746 411.977 185.723 417.4C177.018 402.843 172.595 377.725 168.456 355.89C209.268 375.156 242.517 356.603 253.22 346.899L258.785 314.788C262.923 342.332 284.899 383.719 289.75 394.708C293.318 402.843 309.3 389.999 317.577 387.002C323.855 384.861 331.989 378.439 326.709 370.589C275.623 295.093 306.874 206.896 287.325 177.924L287.467 178.21Z" fill="#ED5D15"/>
<path d="M331.847 542.132C331.847 542.132 341.265 567.536 374.799 568.249C398.059 568.677 403.482 552.408 403.482 552.408L399.914 487.901C399.914 487.901 411.901 531.571 410.474 544.416C409.047 557.26 434.304 545.272 434.59 539.849C436.588 500.888 412.186 458.644 400.913 458.502C377.796 458.216 369.947 465.495 369.947 465.495C344.119 495.465 330.277 539.135 331.847 541.99V542.132Z" fill="#F09060"/>
<path d="M155.328 659.729C154.329 660.728 155.328 662.584 156.755 662.298C158.182 662.013 159.752 661.442 161.464 660.015C165.174 656.875 174.593 651.452 188.292 655.59C188.292 655.59 182.298 651.309 173.451 652.165C165.888 653.022 158.325 656.732 155.328 659.729Z" fill="white"/>
<path d="M270.486 620.625C270.486 620.625 277.05 615.488 282.901 613.775C274.767 614.489 268.346 616.772 264.35 620.768C262.067 623.052 266.633 623.908 270.486 620.483V620.625Z" fill="white"/>
<path d="M369.091 497.748C374.656 496.178 374.799 504.884 371.66 506.168C364.382 509.165 367.236 498.176 369.091 497.748Z" fill="#ED5D15"/>
<path d="M372.944 483.477C377.938 481.193 377.082 492.753 373.657 493.324C368.663 494.037 371.945 484.047 372.944 483.477Z" fill="#ED5D15"/>
<path d="M430.166 391.711C426.884 388.429 423.174 387.572 419.036 386.859C419.036 386.431 419.036 386.002 419.036 385.574C417.894 379.58 412.472 377.297 406.906 379.009C404.338 368.306 392.922 374.585 389.212 375.727C384.788 377.154 378.795 369.448 373.229 378.01C370.233 382.72 371.089 393.138 377.082 395.279C379.08 393.281 381.934 390.569 384.645 389.428C375.513 398.276 389.497 397.848 391.209 390.712C391.209 390.712 392.779 398.99 400.77 401.558C408.904 404.127 407.049 396.706 408.761 397.134C415.896 399.275 409.76 414.831 410.331 427.818C410.759 426.105 411.615 425.963 412.9 425.249C415.611 423.822 420.177 423.394 422.032 426.533C424.458 424.678 428.739 420.539 429.881 417.685C436.16 401.416 421.604 399.846 429.881 391.568L430.166 391.711Z" fill="#ED5D15"/>
<path d="M411.33 435.096C413.756 436.952 420.605 434.24 422.175 431.528C423.031 430.101 423.887 425.392 423.174 423.251C421.604 418.97 411.615 423.251 410.616 427.818C409.903 414.831 416.182 399.275 409.047 397.134C407.334 396.563 409.332 403.699 401.198 401.13C393.207 398.561 391.352 390.712 391.352 390.712C389.64 397.705 375.655 398.276 384.788 389.428C382.077 390.569 379.223 393.281 377.225 395.279C376.226 396.278 374.942 398.847 375.227 399.132C371.374 403.985 371.232 406.982 371.374 408.266C372.088 407.981 370.661 408.837 369.662 411.12C369.091 414.117 365.524 416.115 363.811 419.255C360.101 426.105 361.243 438.807 383.932 446.799C386.072 451.651 389.069 461.784 387.785 464.496C387.642 464.924 371.945 474.2 376.797 475.627C381.649 477.054 387.642 472.488 400.628 458.644C399.201 445.657 411.187 435.096 411.187 435.096" fill="#FDEEE7"/>
<path d="M401.341 458.644C397.345 466.208 383.789 477.768 376.939 475.627C379.651 474.628 382.362 473.487 385.644 471.203C391.923 467.064 393.064 465.78 400.627 458.644C400.627 458.644 401.056 458.644 401.341 458.644Z" fill="#EF7B3B"/>
<path d="M371.945 405.126C371.945 404.841 370.375 403.128 374.942 401.416C378.652 399.989 379.936 401.273 375.513 403.271C371.089 405.269 373.657 404.555 371.945 405.126Z" fill="#ED5D15"/>
<path d="M375.227 406.411C374.942 406.411 373.515 406.696 373.943 407.552C374.371 408.409 375.227 407.981 375.227 407.981C374.799 409.693 372.088 410.121 369.805 411.12C367.521 412.119 370.09 408.551 370.233 408.123C371.517 404.698 374.942 404.698 375.227 406.411Z" fill="#0020C2"/>
<path d="M391.352 402.415C392.351 401.416 400.057 406.982 399.486 409.265C398.487 413.404 396.917 408.123 394.206 405.84C391.495 403.556 389.212 404.555 391.352 402.272V402.415Z" fill="#ED5D15"/>
<path d="M368.806 432.67C361.243 422.68 372.801 426.391 382.219 428.246L380.222 432.099C380.222 432.099 368.235 434.525 368.806 432.527V432.67Z" fill="white"/>
<path d="M366.237 426.105C365.666 427.247 365.809 431.528 368.52 434.097C372.659 437.665 379.223 434.954 381.934 431.528L384.788 428.389C371.374 423.536 367.236 424.393 366.094 426.105H366.237ZM367.093 427.532C367.093 424.964 375.941 426.962 380.079 428.531C379.651 428.531 375.513 430.529 369.805 430.529C368.52 430.529 367.379 430.244 367.236 429.102C367.093 427.961 367.236 427.532 367.236 427.532H367.093Z" fill="#F09060"/>
<path d="M391.352 411.977C390.496 413.546 389.783 411.263 390.639 410.692C390.639 410.692 390.781 410.692 390.924 410.692C390.496 409.693 389.497 409.122 388.07 409.408C387.071 409.55 384.931 411.834 385.073 412.976C386.929 413.689 387.214 420.968 390.353 416.258C391.067 415.116 391.495 413.546 391.352 412.119V411.977Z" fill="#0020C2"/>
<path d="M376.654 421.538C374.799 421.11 373.515 419.826 373.8 418.684C373.8 418.399 374.085 418.113 374.228 417.971C373.229 418.113 372.373 418.684 372.23 419.398C371.945 420.539 373.229 421.824 375.084 422.252C376.511 422.537 377.796 422.252 378.509 421.681C377.938 421.681 377.225 421.681 376.654 421.681V421.538Z" fill="#F09060"/>
<path d="M397.916 622.338C402.197 620.483 404.908 615.345 401.626 604.927C398.344 594.509 393.492 583.805 398.487 573.387C400.77 579.666 408.19 583.662 414.041 578.81C414.041 578.81 411.044 583.377 409.047 588.086C404.908 598.219 405.051 620.768 409.76 626.619C415.611 633.898 424.03 630.045 422.746 619.341C421.319 607.353 408.333 595.508 419.749 574.386C424.03 566.679 426.028 559.686 421.319 555.119C418.75 552.693 409.047 553.55 400.77 564.11C393.35 573.53 387.071 586.945 385.073 601.93C382.79 619.484 392.351 624.764 398.059 622.195L397.916 622.338Z" fill="white"/>
<path d="M412.471 618.199C413.613 624.479 417.18 626.762 419.178 623.765C420.891 621.339 419.036 613.347 415.753 607.353C412.9 602.072 411.615 589.942 414.041 583.948C416.467 577.954 414.041 582.949 413.613 583.52C408.333 590.798 406.763 614.203 411.901 622.338L412.329 618.199H412.471Z" fill="#FDEEE7"/>
<path d="M394.063 618.77C401.912 616.201 392.351 599.218 391.923 585.09C384.645 604.213 386.072 612.348 389.497 617.914C393.065 623.622 391.495 614.203 391.495 614.203C393.065 615.06 394.206 616.344 394.206 618.77H394.063Z" fill="#FDEEE7"/>
<path d="M407.763 566.251C407.334 566.965 407.763 567.393 407.763 567.393C408.048 567.964 408.761 568.249 409.332 567.964L410.759 567.393C410.046 566.251 408.333 565.68 407.763 566.394V566.251Z" fill="#8A98E4"/>
<path d="M404.766 568.106C404.766 568.106 404.195 567.25 403.481 567.536C402.768 567.821 401.912 569.248 403.053 569.819C404.195 570.39 404.052 569.819 404.338 569.391C404.623 569.105 404.908 568.535 404.766 568.106Z" fill="#0020C2"/>
<path d="M412.757 569.819C411.615 569.819 411.045 570.961 411.33 571.817C411.615 572.673 412.329 572.531 412.9 572.245C413.471 571.96 413.756 571.532 413.756 570.961C413.756 570.39 413.328 569.819 412.757 569.819Z" fill="#0020C2"/>
<path d="M408.904 567.107L411.045 563.825C410.046 564.681 409.189 565.823 408.904 567.107Z" fill="#8A98E4"/>
<path d="M411.044 563.54C409.76 563.111 408.19 563.825 408.904 563.825C409.332 563.825 410.188 563.682 410.902 563.825C411.615 563.968 412.186 564.824 412.329 565.109C412.757 565.823 412.186 563.825 411.044 563.397V563.54Z" fill="#0020C2"/>
<mask id="mask0_6968_7357" style="mask-type:luminance" maskUnits="userSpaceOnUse" x="88" y="156" width="241" height="285">
<path d="M287.467 178.21C279.619 166.507 240.234 164.081 227.248 163.082C240.805 173.643 229.246 208.18 229.96 225.734C229.96 225.734 227.248 197.191 206.272 177.924C203.703 175.641 182.869 156.089 182.869 156.089C180.015 156.089 177.589 157.516 173.736 162.226L173.451 165.794C171.31 167.221 96.3935 179.922 93.1114 193.909C79.555 251.993 95.68 362.169 154.472 440.52C155.614 442.089 164.746 411.977 185.723 417.4C177.018 402.843 172.595 377.725 168.456 355.89C209.268 375.156 242.517 356.603 253.22 346.899L258.785 314.788C262.923 342.332 284.899 383.719 289.75 394.708C293.318 402.843 309.3 389.999 317.577 387.002C323.855 384.861 331.989 378.439 326.709 370.589C275.623 295.093 306.874 206.896 287.325 177.924L287.467 178.21Z" fill="white"/>
</mask>
<g mask="url(#mask0_6968_7357)">
<path d="M136.064 367.164C138.632 377.582 144.198 392.425 154.472 379.295C159.324 373.872 161.607 373.586 165.317 381.436C165.888 382.435 168.314 387.715 167.743 385.146C165.888 378.153 162.463 367.735 157.183 361.884C151.333 355.89 146.623 363.596 141.629 364.738C139.06 364.881 137.348 362.169 135.921 360.599C135.35 360.028 135.065 359.743 134.922 360.171C134.779 361.456 135.636 365.166 135.921 366.451V367.164H136.064Z" fill="#F09060"/>
<path d="M88.1169 194.051C90.8282 195.764 93.9675 196.62 96.6788 197.334C106.382 199.903 109.094 197.619 104.67 189.484C101.959 184.204 96.108 181.635 90.6855 179.922C86.9753 178.781 80.9819 176.64 80.9819 180.208C80.9819 185.203 83.2651 190.769 87.4034 193.623L87.9742 194.051H88.1169Z" fill="#F09060"/>
<path d="M86.9753 212.89C85.8337 212.89 85.8337 216.172 87.4034 220.882C89.6866 228.588 97.2496 235.153 105.526 233.44C110.093 233.012 116.229 229.73 118.654 235.153C120.081 237.865 121.651 243.002 122.793 243.431C123.506 243.716 123.649 242.717 123.792 242.003C125.219 235.439 118.797 224.164 111.805 221.595C106.953 219.454 102.387 220.739 98.6766 221.024C93.9675 221.881 91.5417 217.314 88.8304 214.317C88.4023 213.889 87.6888 213.175 87.118 213.032H86.9753V212.89Z" fill="#F09060"/>
<path d="M109.807 267.549C112.804 268.834 115.658 269.405 118.512 269.975C122.507 270.689 125.504 271.403 125.504 268.12C125.219 263.411 122.65 258.558 118.512 256.275C113.089 253.135 106.382 252.422 104.242 256.275C102.672 260.414 105.526 265.409 109.236 267.264L109.807 267.549Z" fill="#F09060"/>
<path d="M107.239 283.962C106.953 283.533 106.382 284.961 105.954 288.1C104.242 298.09 108.237 315.501 121.223 315.073C127.074 314.217 130.927 306.939 135.636 305.369C142.628 304.084 142.342 321.353 142.771 325.634C142.913 328.774 142.913 330.344 143.912 328.631C148.907 318.784 151.475 302.086 137.205 297.377C130.213 294.808 122.935 301.23 117.513 304.227C106.953 309.507 108.523 289.527 107.239 284.104V283.962Z" fill="#F09060" stroke="#F09060" stroke-width="1.5" stroke-miterlimit="10"/>
<path d="M144.055 347.47C140.63 352.179 131.355 347.47 131.497 342.189C131.497 338.621 136.349 335.481 139.916 336.338C144.483 337.194 146.481 343.331 144.34 347.184L144.055 347.612V347.47Z" fill="#F09060"/>
<path d="M163.747 331.771C165.888 334.911 170.026 336.623 173.451 338.05C177.589 339.906 180.728 340.334 180.586 337.48C180.015 333.055 177.161 328.203 172.737 326.633C169.598 325.349 166.601 324.635 164.603 325.349C161.321 326.348 161.607 329.202 163.177 331.2L163.605 331.771H163.747Z" fill="#F09060"/>
<path d="M134.351 223.022C137.205 225.734 141.344 227.018 144.911 227.446C148.907 227.732 150.334 225.591 148.621 220.882C147.052 216.315 142.2 213.46 137.633 212.319C130.07 210.749 130.356 218.598 133.781 222.594L134.209 223.165L134.351 223.022Z" fill="#F09060"/>
<path d="M115.087 168.933C112.661 174.357 114.659 186.059 121.794 190.198C128.501 195.336 138.49 189.627 144.34 196.049C146.623 198.475 148.193 202.186 148.479 198.333C148.907 194.194 146.338 183.205 141.486 179.637C137.491 175.784 131.355 176.069 126.646 174.642C123.364 173.643 120.367 170.789 118.654 168.933C117.37 167.506 116.086 166.65 115.23 168.648V168.933H115.087Z" fill="#F09060"/>
<path d="M157.04 308.08C158.325 313.218 172.737 316.643 172.595 309.079C172.167 304.37 165.602 301.23 161.036 302.372C158.467 302.8 155.899 304.941 156.898 307.652V308.223L157.04 308.08Z" fill="#F09060"/>
<path d="M132.068 267.121C135.778 275.541 143.341 281.25 150.762 277.397C155.756 274.542 157.897 268.406 161.321 264.124C165.032 258.701 169.313 263.696 170.882 268.691C172.737 273.401 172.88 280.108 172.737 285.246C172.737 287.672 172.452 289.67 172.737 291.525C172.737 291.954 172.88 292.096 173.023 292.096C174.735 290.098 176.162 284.961 176.733 277.539C176.876 272.544 175.734 267.407 173.308 262.982C169.598 255.133 157.754 245.143 151.903 246.285C143.769 246.713 146.909 270.546 138.775 267.121C132.496 262.412 132.211 251.993 132.354 244.572C132.354 238.436 132.354 236.009 131.925 238.721C129.928 247.569 128.501 257.987 132.068 266.408L132.354 267.121H132.068Z" fill="#F09060"/>
<path d="M116.514 387.43C118.369 396.135 123.792 421.253 127.93 404.984C129.785 398.419 130.498 389.999 134.637 384.29C136.92 381.578 134.351 381.293 132.068 380.722C128.786 380.008 123.506 378.296 120.224 379.438C116.086 380.865 115.372 382.863 116.371 387.002V387.572L116.514 387.43Z" fill="#F09060"/>
<path d="M287.895 254.99C286.896 254.99 287.182 256.703 287.039 257.559C286.754 261.841 289.465 271.117 295.173 273.829C301.309 277.825 308.158 272.972 314.437 273.115C316.15 273.401 317.006 274.542 317.862 276.255C319.717 280.251 321.001 285.959 325.282 288.243C328.279 289.813 332.988 290.098 335.128 289.242C341.55 286.245 319.003 269.69 315.293 268.406C309.728 265.551 304.591 265.266 299.026 263.839C294.745 262.697 292.462 259.7 290.321 257.131C289.75 256.418 288.894 255.419 288.181 255.133L287.895 254.99Z" fill="#F09060"/>
<path d="M76.9863 302.943C79.5549 306.368 89.8292 312.79 93.3967 308.08C94.8237 304.655 92.9686 299.089 90.8281 296.235C89.1157 293.952 86.2618 293.952 83.6932 294.808C80.6965 295.807 74.7031 298.661 76.8436 302.514L77.129 302.943H76.9863Z" fill="#F09060"/>
<path d="M80.9819 325.634C80.9819 330.629 83.9786 339.335 90.5428 339.192C94.9664 339.478 100.96 335.767 105.098 336.623C111.234 337.622 113.232 348.611 118.797 348.611C121.794 346.328 119.225 341.761 116.086 338.193C110.093 330.915 101.388 328.917 92.5405 328.917C87.9742 328.488 85.5483 326.062 83.5505 323.922C81.41 321.353 81.1246 322.923 81.1246 325.206V325.634H80.9819Z" fill="#F09060"/>
<path d="M117.656 360.171C112.946 354.034 101.531 358.03 106.668 365.88C111.662 372.159 123.506 369.162 118.084 360.742L117.656 360.171Z" fill="#F09060"/>
<path d="M284.471 340.477C283.757 337.194 286.183 328.203 280.19 328.06C276.48 327.775 270.344 330.201 265.064 329.773C252.506 328.774 252.221 313.075 254.789 305.226C255.217 303.799 256.216 300.802 256.787 304.227C257.643 307.367 257.073 311.791 258.928 314.502C260.212 315.787 261.782 315.644 264.065 315.359C267.061 314.931 270.914 313.789 274.767 314.645C286.754 316.929 289.465 333.341 285.327 341.19C284.613 342.475 284.613 341.19 284.471 340.619V340.334V340.477Z" fill="#F09060"/>
<path d="M275.195 294.951C273.34 295.807 269.773 295.236 267.347 294.38C263.636 293.095 259.356 291.383 258.071 287.387C257.072 284.818 256.93 280.822 259.784 279.68C261.924 278.824 263.922 279.395 266.205 280.394C270.343 282.106 275.909 286.959 276.479 292.096C276.765 293.238 276.194 294.38 275.338 294.808H274.91L275.195 294.951Z" fill="#F09060"/>
<path d="M268.203 366.165C269.773 364.31 273.34 364.881 277.05 366.308C280.618 367.45 283.9 369.733 284.613 373.729C284.899 376.155 285.612 380.151 282.758 381.007C277.764 381.864 264.778 372.445 267.918 366.451L268.203 366.165Z" fill="#F09060"/>
<path d="M280.047 268.263C279.191 271.403 278.192 273.115 277.764 272.687C276.194 268.834 278.905 260.271 272.769 259.129C266.491 257.845 256.644 262.412 251.507 255.704C248.368 252.136 247.369 247.141 247.654 242.574C247.512 241.004 250.223 228.16 250.508 232.727C250.794 249.995 251.365 248.283 267.775 245.857C279.762 245.286 283.329 257.702 280.19 267.835V268.406L280.047 268.263Z" fill="#F09060"/>
<path d="M256.644 212.033C251.079 215.316 257.929 224.878 263.922 224.592C267.204 224.735 269.63 222.023 269.202 219.026C268.346 214.031 261.924 210.463 257.215 211.891L256.787 212.176L256.644 212.033Z" fill="#F09060"/>
<path d="M272.912 201.044C272.341 199.046 272.199 195.907 269.915 195.193C266.776 194.194 258.214 197.476 251.935 194.194C248.368 192.339 245.657 188.914 244.087 185.06C241.946 179.78 241.661 173.072 242.803 168.077C243.088 167.221 243.231 166.507 243.944 166.65C244.8 167.221 245.371 168.648 246.085 169.504C252.221 183.49 269.63 173.5 273.626 191.054C275.195 196.335 274.054 209.179 272.912 201.33V201.044Z" fill="#F09060"/>
<path d="M270.772 356.461C272.912 358.887 277.05 358.173 278.049 355.462C278.905 353.035 278.049 350.038 276.337 348.183C270.629 342.617 266.919 351.751 270.343 356.032L270.772 356.603V356.461Z" fill="#F09060"/>
<path d="M215.69 387.287C211.837 386.859 206.414 385.004 202.99 382.72C199.279 379.866 195.569 370.018 201.848 369.448C208.698 369.876 216.689 375.87 217.259 383.005C217.259 385.003 217.545 386.716 215.975 387.287H215.69Z" fill="#F09060"/>
<path d="M208.698 359.886C205.986 362.026 199.993 362.312 197.71 359.743C196.14 357.745 196.283 354.748 197.995 352.893C200.278 350.752 204.274 350.609 206.985 352.036C210.125 353.749 211.123 357.317 208.983 359.458L208.555 359.886H208.698Z" fill="#F09060"/>
<path d="M207.984 341.761C205.273 340.191 200.849 338.336 197.567 336.623C192.573 334.625 189.29 325.777 189.576 322.066C189.576 317.642 195.569 322.352 197.995 323.065C201.991 324.778 208.269 326.776 210.695 331.771C213.121 336.195 216.546 346.756 208.555 342.046L208.127 341.761H207.984Z" fill="#F09060"/>
<path d="M212.265 307.509C210.553 305.94 209.696 301.23 208.127 299.089C203.703 291.954 193.001 300.945 186.579 293.238C183.154 289.527 181.585 283.676 180.871 278.966C179.73 271.688 181.442 272.259 184.296 279.537C185.438 282.962 187.435 284.247 191.003 283.105C195.569 281.821 200.421 279.823 205.13 282.249C212.55 285.389 214.405 297.519 213.549 303.799C213.264 305.369 213.549 307.081 212.55 307.509H212.265Z" fill="#F09060"/>
<path d="M191.859 265.123C187.293 264.98 180.443 261.983 176.876 258.273C173.451 254.134 170.597 246.285 176.876 247.141C181.157 248.14 186.294 247.569 190.717 250.138C195.854 253.278 200.278 263.839 192.43 265.123H191.859Z" fill="#F09060"/>
<path d="M194 236.295C191.716 233.012 193.429 212.89 184.581 217.171C180.728 218.884 175.877 224.449 170.311 225.306C163.462 226.305 157.326 220.739 154.615 214.888C151.333 208.323 152.046 199.332 153.188 194.908C153.473 194.051 154.472 190.198 155.328 192.053C157.611 197.905 156.184 216.029 167.029 208.751C170.454 206.753 174.164 203.47 178.16 202.329C185.58 199.903 192.144 206.896 194.57 213.318C197.567 220.596 196.425 229.873 195.284 233.869C194.998 234.725 194.713 236.295 193.857 236.438L194 236.295Z" fill="#F09060"/>
<path d="M161.321 182.777C166.601 186.63 174.735 181.064 171.453 174.927C169.598 171.36 163.747 169.504 160.608 171.502C156.612 173.786 157.754 180.065 160.893 182.349L161.464 182.777H161.321Z" fill="#F09060"/>
<path d="M328.707 366.165C327.708 364.453 326.424 360.599 325.568 358.173C324.711 355.747 323.427 351.751 320.288 353.749C317.434 355.319 312.867 360.742 308.301 359.886C300.167 357.888 295.886 342.617 295.601 335.91C295.744 335.339 296.172 335.624 296.742 336.338C301.88 344.044 304.591 343.188 313.153 342.046C324.283 340.334 328.136 356.175 329.278 364.595C329.278 365.737 329.42 367.45 328.85 366.451L328.707 366.165Z" fill="#F09060"/>
<path d="M308.444 324.064C303.735 327.204 291.891 324.635 293.461 317.785C294.317 315.073 296.743 312.933 299.311 311.934C305.162 309.079 315.293 318.498 309.015 323.779L308.444 324.207V324.064Z" fill="#F09060"/>
<path d="M222.111 230.158C216.26 229.587 210.552 236.437 207.27 231.585C205.701 229.016 203.988 222.309 203.275 222.737C202.847 223.022 202.989 223.45 202.847 224.164C202.847 227.732 203.56 231.728 204.844 235.296C208.84 247.712 223.966 242.717 231.529 250.852C235.525 255.133 236.381 255.561 236.096 250.424C235.667 242.574 231.101 231.442 222.682 230.301H222.111V230.158Z" fill="#F09060"/>
<path d="M306.874 173.5C305.019 176.212 301.737 177.782 298.598 177.211C293.46 176.64 291.177 168.933 294.887 165.223C299.454 159.942 311.298 165.936 307.302 172.929L306.874 173.5Z" fill="#F09060"/>
<path d="M255.36 383.434C253.505 382.149 252.363 379.58 248.938 376.869C245.086 373.729 239.378 372.873 235.382 369.733C230.673 366.451 228.961 355.747 228.818 352.607C228.818 349.896 229.959 353.606 230.245 354.463C234.383 370.732 249.509 350.181 255.503 364.167C257.5 369.448 257.643 376.441 256.644 381.864C256.359 382.863 256.216 383.576 255.503 383.576H255.36V383.434Z" fill="#F09060"/>
<path d="M233.955 215.744C231.957 211.891 236.381 190.912 226.107 196.62C222.111 198.761 217.545 202.614 212.55 203.042C205.13 204.041 196.853 196.049 196.425 187.915C195.997 183.49 196.853 178.353 198.566 174.499C199.85 171.788 201.42 168.933 201.705 173.5C202.419 177.782 201.42 184.489 203.56 188.485C205.13 190.483 208.697 189.056 213.121 186.773C215.975 185.488 218.829 184.204 222.111 184.347C235.667 184.918 240.947 200.902 236.381 212.176C235.382 214.888 234.526 216.315 233.955 215.887V215.744Z" fill="#F09060"/>
<path d="M221.968 261.983C224.68 262.269 229.246 264.695 231.815 266.978C234.526 269.833 239.092 277.539 232.528 278.396C229.531 278.538 224.394 276.826 221.683 274.257C218.972 271.688 216.403 262.84 221.54 261.983H221.826H221.968Z" fill="#F09060"/>
<path d="M232.385 331.057C235.525 330.201 239.663 330.772 242.66 332.342C247.083 334.911 245.086 340.048 241.09 341.618C237.38 343.331 232.814 342.046 230.245 338.336C228.247 335.624 228.818 332.199 231.815 331.343L232.385 331.057Z" fill="#F09060"/>
<path d="M220.827 295.093C222.967 310.935 240.376 285.389 247.511 307.509C248.51 311.934 248.938 317.785 247.654 321.924C247.226 321.924 246.513 315.787 245.371 312.219C242.232 303.085 228.104 318.213 221.255 305.369C217.973 298.947 218.972 289.956 219.257 286.245C219.257 285.96 219.257 286.245 219.542 286.673C219.828 288.814 220.399 292.382 220.684 294.522V295.093H220.827Z" fill="#F09060"/>
<path d="M282.187 188.913C281.616 198.047 284.899 209.179 294.459 210.463C299.739 211.034 306.018 209.75 311.012 210.463C312.725 210.606 314.009 210.749 315.436 210.749C322.571 211.32 317.434 194.194 315.436 190.055C312.297 182.777 306.589 180.779 299.454 181.492C294.887 181.92 288.038 180.065 284.613 180.636C281.902 181.635 282.187 185.631 281.902 188.2V188.913H282.187Z" fill="#F09060"/>
<path d="M297.884 236.58C300.453 240.434 306.161 242.146 310.727 241.147C315.722 240.434 319.86 235.438 316.292 231.014C310.87 223.022 292.604 225.306 297.456 236.152L297.742 236.723L297.884 236.58Z" fill="#F09060"/>
<path d="M301.024 253.278C298.74 253.991 298.027 255.704 299.026 259.129C301.024 268.834 313.296 273.686 321.715 275.684C330.42 277.254 327.28 266.693 324.854 262.269C320.288 255.276 309.157 251.708 301.309 253.135H300.881L301.024 253.278Z" fill="#F09060"/>
<path d="M329.849 294.808C329.563 301.23 319.146 299.803 316.863 295.093C315.151 291.954 317.862 288.243 321.144 287.815C324.997 287.101 329.278 290.669 329.849 294.237V294.808Z" fill="#F09060"/>
<path d="M321.43 320.211C327.28 331.914 331.561 327.061 341.265 327.632C344.832 328.346 347.115 330.058 345.546 325.92C344.832 323.922 342.977 320.068 341.265 317.928C337.697 312.219 330.705 310.935 325.14 309.793C316.863 307.938 318.718 314.788 321.001 319.497L321.287 320.211H321.43Z" fill="#F09060"/>
<path d="M326.281 367.45C331.418 374.871 343.12 366.593 344.404 373.015C344.832 375.299 345.117 380.008 345.831 379.58C349.398 373.729 346.687 363.739 341.265 360.028C337.412 357.174 332.56 358.887 328.279 359.172C324.854 359.458 325.14 355.604 324.997 353.035C324.854 349.896 324.997 347.184 324.426 347.898C322.428 353.892 321.857 361.598 325.71 367.021L325.996 367.45H326.281Z" fill="#F09060"/>
</g>
<path d="M261.211 302.229C265.492 281.25 266.633 260.414 266.491 230.443C273.055 243.573 269.773 273.686 266.633 289.956C263.494 306.225 261.068 302.372 261.068 302.372L261.211 302.229Z" fill="white"/>
<path d="M265.92 103.142C266.633 105.996 266.205 109.421 266.205 109.279C285.184 108.565 281.331 77.8815 266.776 73.1719C258.071 70.3176 243.373 78.4523 233.242 78.3096C223.824 78.3096 210.838 71.8874 202.989 79.8795C195.569 87.4433 195.569 102.143 199.137 111.562C204.131 111.419 206.272 114.274 206.842 117.128C208.269 122.979 208.983 129.259 208.269 131.97C203.703 148.953 204.845 170.931 223.824 178.495C235.382 183.062 258.357 160.656 259.926 146.385C245.514 146.67 226.82 138.535 217.402 129.687C213.406 125.976 212.693 119.982 215.547 115.273L226.535 97.2907C241.804 103.427 250.223 111.134 265.92 102.857V103.142Z" fill="#0020C2"/>
<path d="M220.256 138.963C228.818 145.243 247.226 149.81 245.657 154.377C244.087 159.086 222.397 165.08 220.256 138.963Z" fill="#FDEEE7"/>
<path d="M224.394 144.101C229.531 150.095 235.81 151.665 243.231 153.806C237.237 154.377 226.107 149.952 224.394 144.101Z" fill="#0020C2"/>
<path d="M252.221 77.596C255.075 76.3116 248.225 82.0202 242.945 82.7338C228.247 84.7318 210.695 72.4583 201.562 91.0112C207.413 67.606 229.96 87.0152 252.221 77.596Z" fill="white"/>
<path d="M238.236 184.347C250.651 203.613 235.525 225.306 232.956 224.164C237.38 211.462 238.664 197.762 238.236 184.347Z" fill="white"/>
<path d="M214.405 198.618C218.686 204.898 230.53 230.015 227.106 230.015C227.106 230.015 215.832 204.469 200.278 188.057C196.853 188.485 189.861 190.912 189.861 190.912C189.861 190.912 173.879 167.364 173.594 166.079C173.308 164.795 173.594 162.511 173.879 162.511C175.449 162.226 183.012 170.361 189.861 186.345C190.575 183.776 193.143 179.637 195.284 178.067C199.422 175.07 201.42 175.641 204.274 180.065C207.984 185.917 213.549 197.619 214.405 198.761V198.618Z" fill="white"/>
<path d="M193.857 423.536C201.705 427.247 207.413 421.11 203.132 418.256C199.279 415.687 195.712 411.834 194.285 406.696C193.001 402.272 190.575 399.275 187.578 397.134C183.154 394.137 180.015 389.713 178.16 384.718C172.452 369.019 162.32 338.621 155.899 306.939C154.044 297.662 152.617 291.097 154.9 307.367C158.753 334.768 165.46 374.728 173.594 392.71C161.75 392.71 148.764 402.7 146.053 415.116C143.341 427.532 145.625 426.105 148.907 431.671C152.617 437.951 156.042 443.659 161.464 448.369C167.172 453.364 175.734 456.932 178.017 457.36C179.872 457.645 180.729 453.792 178.017 452.365C172.595 449.511 172.167 448.654 169.741 446.371C166.031 442.66 163.034 437.665 162.891 437.523C162.748 435.382 167.172 442.518 170.74 446.085C173.451 448.797 177.304 451.08 181.585 452.936C184.153 453.935 186.151 454.648 191.574 456.075C194.856 456.932 195.284 451.651 191.003 450.367C188.577 449.511 186.151 448.512 184.153 447.37C177.018 443.088 172.309 437.665 168.742 433.098C168.314 432.67 168.742 432.242 169.027 432.67C174.45 438.093 177.875 442.375 186.151 447.084C189.148 448.797 195.712 451.223 199.279 451.509C200.136 451.509 200.992 451.366 201.277 450.51C202.561 447.37 199.993 445.657 198.28 445.086C194.285 443.945 188.006 440.662 185.58 438.664C183.297 436.952 180.586 434.097 175.306 426.533C175.021 426.105 175.734 425.534 176.019 425.963C179.302 430.101 182.584 434.811 186.865 438.093C190.717 441.09 200.849 445.657 202.561 443.945C204.559 441.376 202.847 437.522 199.565 435.953C195.569 433.955 188.149 431.814 185.723 420.968C185.152 418.399 192.002 423.108 193.714 423.822L193.857 423.536Z" fill="#E5E9F9"/>
<path d="M324.997 367.307C320.145 359.458 302.736 358.459 295.458 366.022C286.611 375.299 287.467 388.714 293.889 399.989C295.744 403.271 297.313 406.553 297.884 409.408C299.454 417.114 304.591 412.547 305.162 409.122L305.447 390.855C305.447 390.855 309.015 400.988 311.869 407.552C310.156 408.123 306.874 410.692 306.446 413.404C305.447 419.255 307.445 421.253 309.871 419.683C312.297 418.113 312.154 418.256 313.296 417.114C311.013 422.823 315.579 423.965 316.863 422.395C319.004 419.969 320.573 418.113 320.573 418.113C319.717 419.826 319.717 422.395 322 422.109C324.284 421.824 329.278 418.97 331.276 414.26C331.276 414.26 333.702 416.686 335.414 412.119C337.555 406.268 338.411 399.418 336.698 390.141C334.558 379.438 324.997 367.164 324.997 367.164V367.307Z" fill="#E5E9F9"/>
<path d="M312.011 407.695C312.011 407.695 308.301 407.695 305.447 405.84C302.593 403.985 303.449 400.988 304.163 399.846C304.163 399.846 300.738 398.704 302.022 395.136C302.022 395.136 300.167 394.565 300.31 392.425C300.31 390.284 302.451 388.143 305.162 387.144C307.302 386.431 310.299 386.145 312.011 387.572C313.724 388.999 312.011 390.855 312.011 390.855C312.011 390.855 313.866 391.426 314.295 392.71C314.723 393.852 314.152 394.708 312.439 395.85C312.439 395.85 315.008 395.993 315.293 397.848C315.579 399.703 314.295 401.987 310.299 403.414C310.299 403.414 311.155 405.84 312.011 407.695Z" fill="#FDEEE7"/>
<path d="M304.306 399.989V399.703C303.021 399.275 301.88 397.991 302.023 396.563C302.023 396.135 302.023 395.707 302.308 395.136V394.851C302.308 394.851 300.596 394.28 300.738 392.282H300.31C300.31 394.137 301.452 394.851 302.023 395.136C301.309 396.992 302.308 399.132 304.163 399.846C302.736 402.415 303.022 404.698 305.162 405.84C305.447 412.262 299.882 414.974 299.026 411.691C298.17 408.123 296.885 404.698 294.888 401.558C291.177 395.564 288.894 387.715 289.18 380.579C289.18 380.294 288.752 380.294 288.752 380.579C287.182 389.57 289.893 395.85 296.172 405.983C297.742 408.551 297.884 413.261 299.169 413.832C303.592 414.545 306.446 410.121 306.446 406.125C303.592 404.698 303.164 401.987 304.591 399.703L304.306 399.989Z" fill="#F09060"/>
<path d="M313.011 395.707C313.296 395.564 313.724 395.279 314.009 394.994C315.864 393.424 314.152 391.426 312.44 390.855C313.867 389.57 313.296 387.572 311.441 386.716C307.16 385.003 300.596 387.43 300.025 392.425H300.453C300.881 389.428 304.02 387.572 306.732 387.144C309.158 386.573 313.439 387.287 311.869 390.427C310.157 390.712 308.444 389.856 304.02 392.853C303.164 393.424 303.735 393.709 304.02 393.424C307.445 390.712 311.869 390.855 313.011 391.711C314.437 392.853 314.152 393.995 312.297 395.564C308.587 395.993 308.016 396.278 306.304 397.562C305.305 398.133 305.447 398.847 306.446 397.991C307.445 397.277 311.155 395.564 313.011 396.278C316.293 397.705 313.867 400.845 312.582 401.701C311.869 402.272 311.013 402.843 310.157 403.414C314.437 403.128 317.862 396.135 312.868 395.564L313.011 395.707Z" fill="#F09060"/>
<path d="M331.847 414.688C332.988 410.407 334.843 403.985 334.701 402.557C334.701 400.274 333.844 404.413 333.844 404.413C332.417 409.55 331.561 412.547 330.848 414.688C330.134 416.829 330.277 415.973 329.849 416.543C328.564 418.256 326.852 419.54 325.14 420.682C322.571 422.395 320.003 422.966 320.431 420.111C322 418.399 324.569 415.116 326.281 411.12C327.28 408.837 327.423 406.982 327.423 406.982C327.423 406.982 323.713 416.686 316.72 422.395C315.579 423.679 313.296 422.537 313.153 420.968C313.01 419.826 313.153 418.541 313.581 417.542C313.724 417.257 313.438 417.114 313.296 417.4C312.582 417.971 311.869 418.541 311.155 418.97C309.871 419.826 308.159 421.11 307.16 419.112C305.447 414.545 307.588 409.979 312.011 408.266C312.154 408.266 312.297 408.123 312.154 407.981C312.154 407.981 312.011 407.838 311.869 407.981C310.156 408.694 308.587 409.979 307.445 411.406C304.591 414.974 305.162 425.106 311.441 419.683C312.011 419.255 312.44 418.827 312.868 418.399C312.582 419.255 312.297 420.254 312.439 421.253C312.439 423.394 315.579 424.821 317.149 423.108C317.149 423.108 317.434 422.823 317.434 422.68C318.147 422.252 319.004 421.681 319.004 421.681C319.004 421.681 319.289 421.396 319.86 420.825C319.86 422.395 321.001 423.536 323.285 422.395C325.568 421.253 331.133 417.4 331.704 415.259C333.416 416.258 334.986 414.26 335.414 412.547C334.843 414.117 333.416 415.973 331.847 414.974V414.688Z" fill="#F09060"/>
</svg>
