<svg width="266" height="209" viewBox="0 0 266 209" fill="none" xmlns="http://www.w3.org/2000/svg">
<g clip-path="url(#clip0_6968_7205)">
<path d="M205.36 1.06L67.83 59.68C69.66 63.97 67.66 68.93 63.37 70.76C59.08 72.59 54.12 70.6 52.29 66.3L8.00999 85.18C1.30999 88.03 -1.80001 95.78 1.05999 102.47L42.71 200.17C45.56 206.86 53.3 209.98 60 207.12L104.28 188.24C102.45 183.95 104.45 178.99 108.74 177.16C113.03 175.33 117.99 177.32 119.82 181.62L257.35 123C264.05 120.15 267.16 112.4 264.3 105.71L222.65 8.01C219.8 1.32 212.06 -1.8 205.36 1.06ZM104.96 168.31C100.67 170.14 95.71 168.14 93.88 163.85C92.05 159.56 94.05 154.6 98.34 152.77C102.63 150.94 107.59 152.94 109.42 157.23C111.25 161.52 109.25 166.48 104.96 168.31ZM94.56 143.92C90.27 145.75 85.31 143.76 83.48 139.46C81.65 135.17 83.65 130.21 87.94 128.38C92.23 126.55 97.19 128.55 99.02 132.84C100.85 137.13 98.85 142.09 94.56 143.92ZM84.17 119.54C79.88 121.37 74.92 119.37 73.09 115.08C71.26 110.79 73.26 105.83 77.55 104C81.84 102.17 86.8 104.16 88.63 108.46C90.46 112.76 88.46 117.71 84.17 119.54ZM73.77 95.15C69.48 96.98 64.52 94.98 62.69 90.69C60.86 86.4 62.86 81.44 67.15 79.61C71.44 77.78 76.4 79.78 78.23 84.07C80.06 88.36 78.06 93.32 73.77 95.15Z" fill="#D1D5D7"/>
<path d="M251 86L248 108.5H254L251 86Z" fill="white"/>
<path d="M275 108.5L251 105.688V111.312L275 108.5Z" fill="white"/>
<path d="M251 131L254 108.5H248L251 131Z" fill="white"/>
<path d="M227 108.5L251 111.312V105.688L227 108.5Z" fill="white"/>
<path d="M208.56 33.2802L101.145 79.0747C98.4571 80.2205 97.2073 83.328 98.3531 86.0155L98.6315 86.6686C99.7773 89.3562 102.885 90.606 105.572 89.4602L212.988 43.6658C215.675 42.52 216.925 39.4125 215.779 36.7249L215.501 36.0718C214.355 33.3843 211.248 32.1344 208.56 33.2802Z" fill="#E9EBEC"/>
<path d="M220.209 60.6212L112.793 106.416C110.106 107.561 108.856 110.669 110.002 113.356L110.28 114.01C111.426 116.697 114.534 117.947 117.221 116.801L224.637 71.0067C227.324 69.8609 228.574 66.7534 227.428 64.0659L227.15 63.4128C226.004 60.7252 222.897 59.4754 220.209 60.6212Z" fill="#E9EBEC"/>
<path d="M231.864 87.9529L124.448 133.747C121.761 134.893 120.511 138.001 121.657 140.688L121.935 141.341C123.081 144.029 126.189 145.279 128.876 144.133L236.292 98.3384C238.979 97.1927 240.229 94.0852 239.083 91.3976L238.805 90.7445C237.659 88.057 234.551 86.8071 231.864 87.9529Z" fill="#E9EBEC"/>
<path d="M17 67L13 99H21L17 67Z" fill="white"/>
<path d="M49 99L17 95V103L49 99Z" fill="white"/>
<path d="M17 131L21 99H13L17 131Z" fill="white"/>
<path d="M-15 99L17 103V95L-15 99Z" fill="white"/>
</g>
<defs>
<clipPath id="clip0_6968_7205">
<rect width="265.35" height="208.18" fill="white"/>
</clipPath>
</defs>
</svg>
