<svg width="200" height="305" viewBox="0 0 200 305" fill="none" xmlns="http://www.w3.org/2000/svg">
<g clip-path="url(#clip0_7674_1016)">
<path d="M38.573 26.3419C67.0649 22.4813 97.1938 64.7022 108.983 86.5834C120.677 108.29 131.631 134.738 139.535 158.126C146.339 178.258 158.849 204.335 131.694 213.934C109.878 221.646 102.855 208.646 97.0465 190.71C84.0406 150.563 82.439 113.212 53.2132 79.116C46.0813 70.7973 24.7104 54.8257 22.5222 45.8113C20.0995 35.842 29.4249 27.5779 38.5784 26.3365L38.573 26.3419Z" fill="#E8AA7D"/>
<path d="M79.6345 240.082C78.0493 239.926 63.7911 228.838 61.6029 226.915C41.6152 209.369 3.51141 158.139 1.43515 131.658C-1.64786 92.3237 60.5089 103.706 83.2659 109.253C107.562 115.173 163.337 148.574 162.816 152.06C162.344 155.223 147.976 206.128 144.222 210.474C136.67 219.221 81.1705 240.237 79.6317 240.087L79.6345 240.082Z" fill="#E8AA7D"/>
<path d="M175.865 113.209C189.911 111.337 201.061 123.162 195.703 136.853C193.155 143.365 180.517 152.189 175.311 158.365C167.497 167.642 162.516 179.701 161.585 191.875C160.437 206.872 167.427 220.833 146.713 222.713C128.09 224.405 103.125 211.622 107.062 189.921C111.61 164.851 149.188 116.761 175.865 113.206V113.209Z" fill="#E8AA7D"/>
<path d="M159.138 10.0919C167.847 12.4765 175.167 18.015 174.119 27.8452C164.223 73.6565 163.105 125.964 152.074 171C149.695 180.716 147.572 186.544 136.52 186.334C120.3 186.012 76.2648 179.469 60.4078 175.349C45.713 171.522 42.128 166.226 42.6682 151.498C44.2615 107.327 58.6835 58.2824 61.9875 13.6688C63.237 4.87539 69.7768 0.190852 78.3192 0.0107819C93.3796 -0.283877 144.626 6.13042 159.149 10.0947L159.14 10.0919H159.138Z" fill="#00151A"/>
<path d="M160.346 58.1679V58.1761C159.787 61.0353 159.299 63.2999 158.99 64.5303L153.16 100.989L151.272 112.775C148.664 128.518 146.65 154.17 141.897 168.373L141.889 168.381C138.604 178.19 132.99 177.756 124.237 177.093C107.592 175.808 88.6324 171.415 71.9514 167.942C71.1329 167.776 70.3308 167.607 69.5259 167.44C65.5262 166.616 57.3767 166.532 53.9772 161.874C51.0824 157.918 54.1736 140.19 55.6824 132.632C55.696 132.528 55.7178 132.43 55.7397 132.332C61.4719 103.712 71.7904 16.6946 71.7904 16.6946C72.4479 11.9691 76.6987 8.55598 81.4296 9.06072C85.2465 9.45906 89.2162 10.0948 90.9514 10.4031C96.2007 11.3525 90.9924 20.5743 95.977 23.2317C98.0178 24.3093 134.602 29.0539 138.222 28.9366C146.8 28.6419 141.606 18.6399 145.515 17.5349C148.047 16.801 158.595 18.3043 162.595 22.716C165.781 26.2328 162.545 46.8699 160.344 58.1733L160.346 58.1679Z" fill="#99D9E5"/>
<path d="M160.507 57.8867C160.409 58.2987 155.474 87.0307 153.245 100.539C153.223 100.691 153.195 100.839 153.16 100.986C151.397 110.131 140.604 114.437 132.594 115.716C100.555 122.365 81.8197 139.235 71.9541 167.939C71.1356 167.773 70.3334 167.604 69.5286 167.437C65.5289 166.613 57.3793 166.529 53.9798 161.871C51.0851 157.915 54.1763 140.187 55.6851 132.629C62.9779 115.403 78.8458 100.73 96.2171 96.2688C117.539 90.8013 140.274 89.7809 154.625 67.9133C156.352 65.2914 157.891 62.503 160.344 58.1759V58.1677C160.401 58.0777 160.447 57.9849 160.505 57.8894L160.507 57.8867Z" fill="#70C9DB"/>
<path d="M76.8514 129.009C81.8279 137.846 75.5827 149.654 65.7362 151.029C49.8437 153.247 37.0233 140.476 23.1334 135.101C25.2015 148.525 45.6885 204.982 43.072 204.311C32.5025 192.56 22.4731 180.285 14.5255 166.564C5.27921 150.604 -9.81117 119.992 8.98155 105.826C12.0236 103.535 18.8554 102.25 18.8554 102.25C18.8554 102.25 19.1091 91.3581 20.1077 87.8795C30.6336 51.2353 95.9988 80.0929 92.0891 115.67C91.3006 122.854 84.4444 130.049 76.8487 129.009H76.8514Z" fill="#E8AA7D"/>
<path d="M167.678 197.362C172.665 208.392 180.269 219.829 189.534 227.692C191.248 229.147 199.113 234.044 199.427 234.557C201.754 238.366 196.366 251.393 194.358 255.415C183.164 277.828 160.701 294.247 137.148 301.824C122.734 306.459 118.74 305.941 106.148 298.124C82.9412 283.716 65.6627 260.334 52.062 237.113C57.1885 231.193 64.2685 226.257 71.2858 222.249C100.198 205.737 134.343 197.061 167.675 197.362H167.678Z" fill="#C1DB70"/>
<path d="M76.8514 130.406C76.4094 130.406 75.9729 130.196 75.7001 129.806C70.3962 122.158 63.8182 115.637 56.1461 110.421C49.1562 105.668 41.4623 102.149 33.2773 99.955C32.5325 99.7558 32.0878 98.9891 32.2897 98.2416C32.4916 97.494 33.2555 97.0493 34.003 97.2539C42.4909 99.5266 50.4712 103.177 57.7204 108.107C65.6789 113.517 72.5025 120.281 78 128.21C78.4393 128.842 78.2811 129.716 77.6481 130.155C77.4053 130.324 77.127 130.403 76.8514 130.403V130.406Z" fill="#00151A"/>
<path d="M51.6527 151.218C51.3417 151.218 51.0279 151.114 50.7687 150.901C47.4538 148.186 40.3165 143.237 34.8353 140.727C28.762 137.944 24.4622 137.019 17.123 135.999C16.3591 135.893 15.8243 135.186 15.9307 134.422C16.0371 133.655 16.7465 133.115 17.5077 133.23C25.1279 134.288 29.6078 135.254 36.0003 138.184C41.7052 140.798 49.1072 145.927 52.5394 148.737C53.1369 149.226 53.2242 150.107 52.7359 150.705C52.4603 151.043 52.0592 151.218 51.6527 151.218Z" fill="#00151A"/>
</g>
<defs>
<clipPath id="clip0_7674_1016">
<rect width="200" height="304.779" fill="white"/>
</clipPath>
</defs>
</svg>
