<svg width="40" height="40" viewBox="0 0 40 40" fill="none" xmlns="http://www.w3.org/2000/svg">
<path d="M10.5114 3.33195L10.5039 3.33524L10.4964 3.33866C9.77501 3.66654 8.96949 4.13055 8.07446 4.64614C7.9456 4.72036 7.81489 4.79566 7.68231 4.87177L7.6823 4.87176L7.67756 4.87452L5.53043 6.12284C5.52996 6.12311 5.52949 6.12338 5.52902 6.12365C4.7545 6.5705 4.05459 6.98273 3.49031 7.38423L3.48883 7.38529C2.85194 7.84021 2.27528 8.38002 1.83271 9.15136L1.83269 9.15135L1.83005 9.15601C1.39987 9.91515 1.22366 10.7028 1.15494 11.4707C1.08004 12.1637 1.08006 12.9863 1.08008 13.8672L1.08008 13.909V27.639L1.08008 27.6832C1.08006 28.8657 1.08005 29.9085 1.16524 30.7498C1.25027 31.5894 1.4435 32.6351 2.15406 33.5096L2.15474 33.5104C2.86949 34.3882 3.86854 34.9993 5.00324 35.2032C6.13914 35.4082 7.14088 35.053 7.90627 34.7129L7.91102 34.7107C8.67735 34.3653 9.68419 33.7868 10.7007 33.1947C10.8087 33.1326 10.9116 33.0731 11.0103 33.016C11.359 32.8144 11.6548 32.6433 11.9364 32.4988L11.9387 32.4976C11.9578 32.4878 11.9776 32.4776 11.9981 32.4671C12.1153 32.407 12.252 32.3369 12.3606 32.2698C12.5007 32.1833 12.7177 32.0307 12.8739 31.7629C13.0121 31.526 13.0516 31.2933 13.067 31.1281C13.0802 30.9866 13.0801 30.8268 13.0801 30.695L13.0801 30.669V5.07903V5.06902C13.0801 5.05373 13.0801 5.03821 13.0801 5.02251C13.0803 4.78994 13.0805 4.51534 13.0448 4.28266C13.0021 4.00369 12.888 3.63266 12.5469 3.34443C12.4564 3.26401 12.3448 3.18922 12.2154 3.13407C11.824 2.95143 11.4521 2.99632 11.1894 3.0684C10.986 3.12418 10.7593 3.22348 10.5778 3.30294C10.5549 3.31297 10.5328 3.32268 10.5114 3.33195ZM19.015 4.51344L19.014 4.51299C18.9592 4.48581 18.9047 4.45877 18.8504 4.43189C17.8286 3.92531 16.9141 3.47196 16.1119 3.16672L16.0996 3.16184C15.8887 3.07833 15.6205 2.97213 15.3687 2.92345C15.0888 2.86935 14.7314 2.8653 14.3772 3.05413C14.3693 3.0578 14.3614 3.06162 14.3535 3.06558C14.2619 3.1113 14.194 3.16299 14.1548 3.19585C13.7973 3.47713 13.6685 3.85289 13.6198 4.14701C13.5796 4.38972 13.5799 4.67527 13.5801 4.91135C13.5801 4.92748 13.5801 4.94338 13.5801 4.95902V30.439L13.5801 30.467C13.58 30.6114 13.5799 30.7847 13.5951 30.9362C13.6128 31.1124 13.6591 31.3701 13.8281 31.6237C13.9944 31.8731 14.2131 32.0167 14.359 32.1003C14.4994 32.1808 14.6682 32.2575 14.8178 32.3255L14.8226 32.3277C14.8232 32.328 14.8238 32.3282 14.8244 32.3285C15.0607 32.4371 15.331 32.5692 15.6768 32.7381C15.8529 32.8242 16.0487 32.9198 16.2695 33.0267C16.271 33.0275 16.2726 33.0282 16.2742 33.029L22.613 36.1835C22.6133 36.1836 22.6137 36.1838 22.6141 36.184C23.6064 36.6792 24.7501 35.9534 24.7501 34.859V8.59902C24.7501 8.59024 24.7501 8.58123 24.7501 8.57201C24.7502 8.44693 24.7504 8.28318 24.734 8.13621C24.7143 7.95835 24.6647 7.72932 24.5186 7.49942C24.3819 7.27652 24.2063 7.13257 24.055 7.03425C23.9195 6.94622 23.7638 6.87058 23.6395 6.81072L19.015 4.51344ZM33.9715 7.87907L33.9687 7.87868C32.8993 7.72897 31.5915 7.72899 30.1512 7.72902L30.0901 7.72902H26.5402H25.5402V8.22414C25.3589 8.44629 25.2501 8.72996 25.2501 9.03902V35.929C25.2501 36.5817 25.7783 37.109 26.4302 37.109H30.0901H30.1511C31.5901 37.1091 32.8968 37.1091 33.9657 36.9598C35.1297 36.8042 36.3297 36.4294 37.2963 35.427C38.2704 34.4374 38.6179 33.2308 38.7711 32.073C38.9202 30.9947 38.9202 29.6685 38.9202 28.1812V28.119V16.719V16.6572C38.9202 15.1793 38.9202 13.8433 38.7711 12.7651C38.6178 11.6064 38.2699 10.3989 37.2941 9.40893C36.3278 8.41818 35.1296 8.04452 33.9715 7.87907Z" fill="black" stroke="white" stroke-width="2"/>
</svg>
