<svg width="40" height="40" viewBox="0 0 40 40" fill="none" xmlns="http://www.w3.org/2000/svg">
<path d="M4 12L13 8.4V28.4L4 32V12Z" fill="black"/>
<path d="M15 28.3333L25 31.6667V11.6667L15 8.33333V28.3333Z" fill="black"/>
<path d="M27 11.6V31.6L36 28V8L27 11.6Z" fill="black"/>
<path fill-rule="evenodd" clip-rule="evenodd" d="M4.74278 33.857L14.0626 30.129L25.3675 33.8974C25.8163 34.047 26.3036 34.0326 26.7428 33.857L36.7428 29.857C37.5021 29.5532 38 28.8178 38 28V8.00001C38 7.33636 37.6708 6.71593 37.1213 6.34387C36.5717 5.97181 35.8734 5.89658 35.2572 6.14306L25.9374 9.87097L14.6325 6.10264C14.1837 5.95305 13.6964 5.96737 13.2572 6.14306L3.25722 10.1431C2.4979 10.4468 2 11.1822 2 12V32C2 32.6637 2.3292 33.2841 2.87874 33.6561C3.42829 34.0282 4.1266 34.1034 4.74278 33.857ZM13 8.40001L4 12V32L13 28.4V8.40001ZM15 8.33334V28.3333L25 31.6667V11.6667L15 8.33334ZM27 11.6V31.6L36 28V8.00001L27 11.6Z" fill="white"/>
</svg>
