<svg width="40" height="40" viewBox="0 0 40 40" fill="none" xmlns="http://www.w3.org/2000/svg">
<g clip-path="url(#clip0_545_100)">
<path d="M17.4861 30.7151C17.4861 30.7151 17.486 30.7141 17.486 30.7122L17.4861 30.7151ZM18.3663 30.0034C18.3663 30.0034 18.3654 30.0032 18.3635 30.0027C18.3654 30.0031 18.3663 30.0034 18.3663 30.0034ZM19.4607 30.3885C19.4183 30.1002 19.3179 29.7411 19.2149 29.3759C18.7509 27.6119 18.773 25.6033 19.7098 23.4016C20.5793 21.3737 22.074 19.7562 23.8947 18.6882C23.9011 18.6847 23.9081 18.6809 23.9155 18.6769C24.0548 18.6011 24.3608 18.4347 24.5581 18.119L24.5833 18.0787L24.6045 18.0362C24.7594 17.7263 24.753 17.3871 24.7506 17.2602C24.7503 17.2476 24.7501 17.2371 24.7501 17.229V6.79898C24.7501 6.79019 24.7501 6.78118 24.7501 6.77195C24.7502 6.64687 24.7504 6.48312 24.734 6.33616C24.7143 6.15831 24.6647 5.92931 24.5186 5.69942C24.382 5.4765 24.2063 5.33254 24.055 5.23421C23.9195 5.14616 23.7637 5.07051 23.6394 5.01064L19.015 2.71339L19.0141 2.71294C18.9592 2.68578 18.9047 2.65875 18.8505 2.63187C17.8286 2.12527 16.9141 1.67191 16.1118 1.36667C16.1078 1.36505 16.1037 1.36343 16.0995 1.36179C15.8887 1.27828 15.6205 1.17208 15.3687 1.1234C15.1479 1.08072 14.8788 1.06918 14.6011 1.15897H14.4526L14.1841 1.36354C13.8055 1.65202 13.67 2.03875 13.6194 2.34942C13.5796 2.59332 13.5799 2.88009 13.5801 3.12104C13.5801 3.13723 13.5801 3.15322 13.5801 3.16897V28.629V28.649L13.5801 28.657C13.58 28.8014 13.5799 28.9747 13.5951 29.1262C13.6128 29.3024 13.6591 29.5601 13.8281 29.8137C13.9944 30.0631 14.2131 30.2066 14.3589 30.2902C14.4994 30.3708 14.6682 30.4475 14.8178 30.5155L14.8226 30.5177C14.8232 30.5179 14.8238 30.5182 14.8244 30.5185C15.0607 30.6271 15.3311 30.7592 15.6768 30.9281C15.8517 31.0135 16.046 31.1084 16.2648 31.2144L16.7456 31.4597L16.7456 31.4598L16.7581 31.466L16.7887 31.4811C17.1002 31.6346 17.4105 31.7875 17.6645 31.8777C17.7972 31.9247 17.986 31.9818 18.1973 31.9912C18.4269 32.0016 18.7456 31.9568 19.0307 31.7251L19.0308 31.7251L19.0359 31.7209C19.3153 31.4908 19.4281 31.1916 19.4665 30.9549C19.5015 30.7388 19.4824 30.5354 19.4607 30.3885Z" fill="black" stroke="white" stroke-width="2"/>
<path d="M37.9195 18.7845C37.9208 18.7852 37.9214 18.7856 37.9215 18.7856C37.9215 18.7856 37.9209 18.7853 37.9195 18.7845C37.9195 18.7845 37.9195 18.7845 37.9195 18.7845ZM35.9665 19.7756L35.9665 19.7756L35.9713 19.7797C35.9903 19.796 36.0094 19.8123 36.0285 19.8285C36.2913 20.0528 36.5493 20.2729 36.766 20.4199C36.8835 20.4997 37.0543 20.6045 37.2591 20.6676C37.4815 20.7362 37.8039 20.7721 38.139 20.6167C38.7748 20.325 38.863 19.6648 38.8873 19.4703C38.9202 19.2068 38.9201 18.8696 38.9201 18.5403C38.92 18.5231 38.92 18.5059 38.92 18.4887V14.9187V14.8565C38.9201 13.3691 38.9201 12.0429 38.771 10.9646C38.6178 9.80689 38.2702 8.60037 37.2963 7.6109C36.3297 6.60836 35.1295 6.23353 33.9654 6.07792C32.8965 5.92865 31.5898 5.92868 30.1509 5.92871L30.09 5.92871H26.54C25.8279 5.92871 25.25 6.50626 25.25 7.21871V15.7487C25.25 15.7602 25.25 15.772 25.25 15.7841C25.2498 15.946 25.2497 16.1557 25.274 16.3361C25.3019 16.543 25.3854 16.9199 25.7298 17.2069C26.07 17.4904 26.4518 17.5096 26.6692 17.5003C26.8715 17.4916 27.0976 17.448 27.2825 17.412C27.9112 17.3014 28.5397 17.2387 29.17 17.2387C31.6569 17.2387 34.0957 18.1604 35.9665 19.7756Z" fill="black" stroke="white" stroke-width="2"/>
<path d="M10.5114 1.51153L10.5039 1.51482L10.4964 1.51824C9.77501 1.84612 8.96949 2.31013 8.07446 2.82572C7.9456 2.89994 7.81489 2.97524 7.68231 3.05135L7.6823 3.05134L7.67756 3.05409L5.53043 4.30242C5.52996 4.30269 5.52949 4.30296 5.52902 4.30323C4.7545 4.75008 4.05459 5.16231 3.49031 5.56381L3.48883 5.56487C2.85194 6.01979 2.27528 6.5596 1.83271 7.33094L1.83269 7.33093L1.83005 7.33559C1.39987 8.09473 1.22365 8.88235 1.15494 9.6503C1.08004 10.3433 1.08006 11.1659 1.08008 12.0467L1.08008 12.0886V25.8186L1.08008 25.8628C1.08006 27.0453 1.08005 28.0881 1.16524 28.9293C1.25027 29.7689 1.4435 30.8147 2.15406 31.6892L2.15474 31.69C2.86949 32.5678 3.86854 33.1788 5.00324 33.3828C6.13915 33.5878 7.14089 33.2326 7.90627 32.8924L7.91102 32.8903C8.67735 32.5449 9.68419 31.9664 10.7007 31.3743C10.8086 31.3123 10.9115 31.2528 11.0101 31.1957C11.3588 30.994 11.6547 30.8229 11.9364 30.6784L11.9387 30.6772C11.9578 30.6674 11.9776 30.6572 11.9981 30.6467C12.1153 30.5866 12.252 30.5165 12.3606 30.4494C12.5007 30.3629 12.7177 30.2103 12.8739 29.9425C13.0121 29.7056 13.0516 29.4729 13.067 29.3076C13.0802 29.1662 13.0801 29.0064 13.0801 28.8745L13.0801 28.8486V3.2586V3.2486C13.0801 3.23331 13.0801 3.21779 13.0801 3.20209C13.0803 2.96952 13.0805 2.69492 13.0448 2.46224C13.0021 2.18327 12.888 1.81224 12.5469 1.52402C12.4564 1.4436 12.3448 1.3688 12.2154 1.31365C11.824 1.13102 11.4521 1.1759 11.1894 1.24798C10.986 1.30376 10.7593 1.40306 10.5778 1.48252C10.5549 1.49255 10.5327 1.50226 10.5114 1.51153Z" fill="black" stroke="white" stroke-width="2"/>
<path d="M28.17 17.729V17.7904C24.7371 18.1435 21.5809 20.2947 20.1708 23.5851C18.7136 26.9851 19.5543 29.9216 21.1055 32.2701L21.1063 32.2715C22.3243 34.1092 24.0782 35.729 25.5014 37.0435L25.5015 37.0436L25.5528 37.0911C25.8052 37.3248 26.0408 37.5429 26.2674 37.7604L26.5576 38.039H26.6024C27.3351 38.6039 28.2402 38.909 29.17 38.909C30.244 38.909 31.2658 38.5025 32.0489 37.7732C32.169 37.6631 32.3114 37.5295 32.4519 37.3977C32.5703 37.2867 32.6873 37.177 32.7882 37.0838L32.7886 37.0834C32.8242 37.0505 32.86 37.0175 32.896 36.9842C34.3056 35.682 36.0359 34.0836 37.235 32.2592C38.7874 29.9083 39.6144 26.9738 38.1702 23.5777L38.1691 23.5751C36.6226 19.9667 32.967 17.729 29.17 17.729H28.17ZM26.8299 27.489C26.8299 26.1994 27.8742 25.159 29.15 25.159H29.18C30.4557 25.159 31.4999 26.1993 31.4999 27.489C31.4999 28.7787 30.4557 29.819 29.18 29.819H29.15C27.8742 29.819 26.8299 28.7787 26.8299 27.489Z" fill="black" stroke="white" stroke-width="2"/>
</g>
<defs>
<clipPath id="clip0_545_100">
<rect width="40" height="40" fill="white"/>
</clipPath>
</defs>
</svg>
