<svg width="40" height="40" viewBox="0 0 40 40" fill="none" xmlns="http://www.w3.org/2000/svg">
<path d="M20.995 1.12403V1.08496H19.995C13.2481 1.08496 6.78165 5.07274 4.07533 11.4123C1.54 17.3395 2.93784 22.4052 5.74073 26.6463L5.74101 26.6467C8.00251 30.0648 11.2746 33.0878 14.1393 35.7344L14.1651 35.7582C14.1655 35.7586 14.1659 35.7589 14.1662 35.7593C14.405 35.9807 14.6469 36.2068 14.8874 36.4314C15.1847 36.7092 15.4797 36.9848 15.7638 37.2471C16.9107 38.321 18.4348 38.915 19.995 38.915C21.556 38.915 23.0792 38.3205 24.225 37.2583L24.2295 37.254C24.715 36.7982 25.221 36.3319 25.7311 35.8619L25.7313 35.8617C28.6336 33.1979 31.9702 30.1263 34.2598 26.6556C37.0624 22.4147 38.4603 17.3386 35.9242 11.421C33.3423 5.39663 27.382 1.4952 20.995 1.12403ZM14.325 18.345C14.325 15.2082 16.8663 12.675 19.995 12.675C23.1237 12.675 25.6651 15.2082 25.6651 18.345C25.6651 21.4817 23.1237 24.015 19.995 24.015C16.8663 24.015 14.325 21.4817 14.325 18.345Z" fill="black" stroke="white" stroke-width="2"/>
</svg>
