<svg width="40" height="40" viewBox="0 0 40 40" fill="none" xmlns="http://www.w3.org/2000/svg">
<path d="M23.381 36.3418L23.3843 36.3387C23.8788 35.8739 24.3937 35.3985 24.9126 34.9195L24.917 34.9155L24.9177 34.9149L24.9631 34.873C28.1054 31.9778 31.6046 28.7537 33.7917 25.0498C36.0289 21.2611 36.9228 16.9202 34.7788 11.9069L34.7788 11.9068C32.2729 6.04894 26.2877 2.33008 19.9994 2.33008C13.7111 2.33008 7.72591 6.04894 5.22001 11.9068L5.21986 11.9071C3.08688 16.8984 3.96388 21.2156 6.17837 24.9865C8.34054 28.6682 11.805 31.875 14.9245 34.7625L14.979 34.8129C14.9791 34.813 14.9793 34.8131 14.9794 34.8133C15.5384 35.3324 16.0875 35.8415 16.6267 36.3407C17.5356 37.1972 18.751 37.6701 19.9994 37.6701C21.2622 37.6701 22.4657 37.1943 23.381 36.3418ZM19.2923 17.2672L19.9994 17.9743L20.7065 17.2672L23.9465 14.0272C24.046 13.9277 24.2028 13.9277 24.3023 14.0272C24.4018 14.1267 24.4018 14.2835 24.3023 14.383L21.0623 17.623L20.3552 18.3301L21.0623 19.0372L24.3023 22.2772C24.4018 22.3767 24.4018 22.5335 24.3023 22.633C24.2028 22.7324 24.046 22.7324 23.9465 22.633L20.7065 19.393L19.9994 18.6859L19.2923 19.393L16.0523 22.633C15.9528 22.7324 15.796 22.7324 15.6965 22.633C15.597 22.5335 15.597 22.3767 15.6965 22.2772L18.9365 19.0372L19.6436 18.3301L18.9365 17.623L15.6965 14.383C15.597 14.2835 15.597 14.1267 15.6965 14.0272C15.796 13.9277 15.9528 13.9277 16.0523 14.0272L19.2923 17.2672Z" fill="black" stroke="white" stroke-width="2"/>
</svg>
