<svg width="40" height="40" viewBox="0 0 40 40" fill="none" xmlns="http://www.w3.org/2000/svg">
<path d="M23.381 36.3418L23.3843 36.3387C23.8788 35.8739 24.3937 35.3985 24.9126 34.9195L24.917 34.9155L24.9177 34.9149L24.9631 34.873C28.1054 31.9778 31.6046 28.7537 33.7917 25.0498C36.0289 21.2611 36.9228 16.9202 34.7788 11.9069L34.7788 11.9068C32.2729 6.04894 26.2877 2.33008 19.9994 2.33008C13.7111 2.33008 7.72591 6.04894 5.22001 11.9068L5.21986 11.9071C3.08688 16.8984 3.96388 21.2156 6.17837 24.9865C8.34054 28.6682 11.805 31.875 14.9245 34.7625L14.979 34.8129C14.9791 34.813 14.9793 34.8131 14.9794 34.8133C15.5384 35.3324 16.0875 35.8415 16.6267 36.3407C17.5356 37.1972 18.751 37.6701 19.9994 37.6701C21.2622 37.6701 22.4657 37.1943 23.381 36.3418ZM26.7487 14.4029L26.0693 14.6328V14.7272C25.2893 15.096 24.4918 15.648 23.7192 16.2919L23.716 16.2945C22.7273 17.1255 21.7711 18.1038 20.9371 19.0612C20.1039 20.0077 19.3964 20.9205 18.9049 21.586L18.9049 21.586L18.9006 21.5919C18.7496 21.7995 18.6074 21.9988 18.4949 22.1565C18.4371 22.2374 18.3872 22.3074 18.3479 22.3619C18.3015 22.4224 18.2577 22.4841 18.2278 22.5269C18.2107 22.5515 18.1962 22.5727 18.1858 22.5881L18.1732 22.6067L18.1694 22.6123L18.1682 22.6141L18.1677 22.6148L18.1676 22.615L18.1675 22.6152L18.1675 22.6152L18.1684 22.6158L18.1684 22.6159L18.1674 22.6153L18.1543 22.6349L18.1487 22.6442L18.138 22.6597C18.0846 22.7366 17.9958 22.7818 17.9057 22.7814C17.8004 22.7704 17.7285 22.7108 17.6993 22.6538L17.6993 22.6537L17.6951 22.6458C16.9873 21.2955 16.2943 20.64 15.7904 20.3154C15.6495 20.2204 15.5161 20.1546 15.4203 20.1127C15.3692 20.0903 15.325 20.0731 15.2908 20.0606C15.2736 20.0543 15.2587 20.0491 15.2465 20.045L15.2301 20.0395L15.2234 20.0374L15.2205 20.0365L15.2191 20.036L15.2184 20.0358L15.2181 20.0357C15.218 20.0357 15.2178 20.0356 14.9194 20.9901L15.2178 20.0356L15.0721 19.9901H14.9603C14.8909 19.9795 14.842 19.9493 14.8111 19.9167C14.7793 19.8833 14.7494 19.83 14.7494 19.7401C14.7494 19.6024 14.8617 19.4901 14.9994 19.4901H15.0094H15.0194H15.0394H15.0396H15.0397H15.0398H15.0399H15.04H15.0401H15.0403H15.0404H15.0405H15.0406H15.0407H15.0408H15.0409H15.0411H15.0412H15.0413H15.0414H15.0415H15.0416H15.0417H15.0418H15.042H15.0421H15.0422H15.0423H15.0424H15.0425H15.0426H15.0427H15.0429H15.043H15.0431H15.0432H15.0433H15.0434H15.0435H15.0436H15.0437H15.0438H15.044H15.0441H15.0442H15.0443H15.0444H15.0445H15.0446H15.0447H15.0448H15.0449H15.045H15.0451H15.0452H15.0453H15.0455H15.0456H15.0457H15.0458H15.0459H15.046H15.0461H15.0462H15.0463H15.0464H15.0465H15.0466H15.0467H15.0468H15.0469H15.047H15.0471H15.0472H15.0473H15.0474H15.0475H15.0476H15.0477H15.0478H15.0479H15.048H15.0482H15.0483H15.0484H15.0485H15.0486H15.0487H15.0488H15.0489H15.049H15.0491H15.0492H15.0493H15.0494H15.0495H15.0496H15.0496C15.0706 19.4925 15.1046 19.4959 15.146 19.4981C15.188 19.5035 15.2406 19.5133 15.3046 19.5316L15.3207 19.5362L15.3368 19.5402C15.4999 19.581 15.7419 19.6741 16.0438 19.8646C16.3817 20.0798 16.7729 20.414 17.1937 20.9312L17.9932 21.9139L18.7634 20.908C19.2475 20.2757 19.852 19.5059 20.5603 18.7005L20.5644 18.6959C21.4026 17.731 22.374 16.723 23.3996 15.8683C24.4253 15.0152 25.5158 14.3011 26.5902 13.9372L26.5903 13.9373L26.603 13.9328C26.7099 13.895 26.855 13.9513 26.9022 14.0907C26.9455 14.2187 26.8745 14.3603 26.7487 14.4029ZM18.7598 23.0103L18.9994 23.1701L18.7599 23.0103L18.7598 23.0103Z" fill="black" stroke="white" stroke-width="2"/>
</svg>
