<svg width="40" height="40" viewBox="0 0 40 40" fill="none" xmlns="http://www.w3.org/2000/svg">
  <path fill-rule="evenodd" clip-rule="evenodd" d="M38 15.4582V9C38 7.89543 37.1046 7 36 7H4C2.89543 7 2 7.89543 2 9V15.7439C2 16.2277 2.46354 16.5789 2.94737 16.5789C4.9821 16.5789 6.63158 18.2284 6.63158 20.2632C6.63158 22.2979 4.9821 23.9474 2.94737 23.9474C2.46354 23.9474 2 24.2986 2 24.7824V31.5263C2 32.6309 2.89543 33.5263 4 33.5263H36C37.1046 33.5263 38 32.6309 38 31.5263V25.0681L38 25.0627V24.7824C38 24.2986 37.5365 23.9474 37.0526 23.9474C35.0179 23.9474 33.3684 22.2979 33.3684 20.2632C33.3684 18.2284 35.0179 16.5789 37.0526 16.5789C37.5365 16.5789 38 16.2277 38 15.7439V15.4636L38 15.4582ZM36 9H4V14.6762C6.63639 15.1699 8.63158 17.4835 8.63158 20.2632C8.63158 23.0428 6.63639 25.3564 4 25.8501V31.5263H36V25.8501C33.3636 25.3564 31.3684 23.0428 31.3684 20.2632C31.3684 17.4835 33.3636 15.1699 36 14.6762V9Z" fill="#ffffff"/>
</svg>