<svg width="200" height="96" viewBox="0 0 200 96" fill="none" xmlns="http://www.w3.org/2000/svg">
<g clip-path="url(#clip0_7601_3562)">
<path d="M199.746 55.7571H199.751C199.665 59.205 199.459 62.2031 199.339 63.2765C199.253 64.0192 199.177 65.033 199.079 66.1661C198.77 69.896 198.299 74.927 197.068 75.8757C193.175 78.9225 179.486 78.0388 173.913 78.0659H173.843C157.899 78.1635 142.052 78.9388 126.032 78.6406C99.0389 78.1256 72.1544 79.1231 45.1615 78.6406C35.1591 78.4563 25.2542 78.0443 15.241 78.3533C12.9044 78.4237 8.43177 78.2123 5.9759 77.9629C1.67676 77.5401 0.478643 71.5928 0.202154 66.2094C0.0178277 62.6313 0.240103 59.2918 0.218418 57.9852C0.207575 57.3293 0.180468 56.5594 0.14794 55.73C-0.0201218 51.4417 -0.264083 45.3426 1.24848 42.0356C1.30811 41.8892 1.37317 41.7591 1.44364 41.629C4.84283 35.3673 12.1671 35.8119 18.2661 35.7631C21.3454 35.7414 25.4223 35.7468 28.2089 35.6493V35.6384C29.9925 32.9223 32.1448 30.3526 34.1941 27.8208C39.3172 21.4941 44.6193 14.506 50.1274 8.59127C50.1437 8.575 50.16 8.55874 50.1708 8.54247C55.0175 3.37592 58.2486 1.09896 65.6542 0.616455C93.4928 1.43508 148.498 0.952576 159.319 0.909205H161.178C163.396 1.07727 165.049 1.2887 166.378 1.63025C169.717 2.47598 171.045 4.16202 174.222 8.1684C174.336 8.30393 174.445 8.45573 174.564 8.59668C176.629 11.2098 178.565 13.7741 180.424 16.3438C180.782 16.8317 181.14 17.3142 181.487 17.8076C182.799 19.64 184.089 21.467 185.374 23.3157C187.77 26.742 190.166 30.2116 192.742 33.8223C193.127 34.3644 193.587 34.9607 194.086 35.595C195.788 37.7636 197.881 40.3116 198.765 42.491C198.808 42.5886 198.846 42.6916 198.879 42.8C199.762 45.3806 199.865 51.0025 199.746 55.7571Z" fill="#008099"/>
<path d="M199.757 55.7515C195.376 55.2528 192.986 53.0571 192.796 48.9044C192.611 44.8329 195.17 43.6131 198.884 42.7891C199.773 45.3696 199.876 50.9916 199.757 55.7461V55.7515Z" fill="#C1DB70"/>
<path d="M0.142516 55.73C-0.0255463 51.4471 -0.269507 45.3481 1.24305 42.0356C3.87241 42.6049 6.4855 43.0711 7.03848 45.5433C7.74326 48.6389 5.03258 54.7325 0.142516 55.73Z" fill="#C1DB70"/>
<path d="M188.892 18.4148V18.4256H188.887L188.892 18.4148Z" fill="#B24A00"/>
<path d="M188.892 18.4417V18.4255C188.892 18.4255 188.898 18.4363 188.903 18.4417H188.892Z" fill="#B24A00"/>
<path d="M194.092 35.5896C190.047 35.6872 183.471 35.5733 181.254 35.3781C178.988 35.1775 177.556 34.4999 176.32 32.7488C175.122 31.0465 173.707 27.5389 172.748 25.8745C171.3 23.3427 166.524 13.4162 166.887 10.9712C167.267 8.41231 171.219 8.13582 174.228 8.16835C174.336 8.30388 174.45 8.45568 174.569 8.59663C181.259 17.0323 186.475 25.0396 192.747 33.8168C193.137 34.3643 193.593 34.9553 194.092 35.5896Z" fill="#99D9E5"/>
<path d="M160.382 13.5301C162.198 16.9997 165.819 26.0914 167.256 29.7182C168.725 33.4156 167.234 34.9824 164.599 35.08C160.907 35.2155 154.906 35.6167 151.062 35.66C144.931 35.7305 138.631 35.66 132.424 35.6492C125.967 35.6384 117.715 36.2672 111.497 35.6492C105.046 35.0041 106.434 32.6024 106.238 24.3945C105.935 11.8223 105.241 8.54242 112.912 8.59122C126.086 8.68338 140.409 8.72133 153.366 8.59122C158.744 8.537 159.053 10.9875 160.382 13.5355V13.5301Z" fill="#99D9E5"/>
<path d="M86.3963 35.7577C76.1228 36.0775 65.703 35.7089 55.397 35.6493C54.1826 35.4324 53.4128 35.1234 52.9845 33.9361C52.0466 31.361 54.6272 26.0209 55.7006 23.4133C57.0885 20.0195 59.5552 13.8608 61.4743 10.9658C62.6182 9.24183 64.1958 8.60211 66.218 8.59126C75.3747 8.53705 84.7645 8.1684 94.4199 8.60211C97.2499 8.7268 98.2203 10.3315 98.513 13.053C98.9901 17.4931 99.1365 24.8011 98.8492 29.2629C98.7407 30.9218 98.4642 33.5458 96.9896 34.5216C94.8536 35.9257 89.1287 35.6872 86.4126 35.7685H86.4017V35.7577H86.3963Z" fill="#99D9E5"/>
<path d="M53.7164 11.4483C53.3857 13.3891 49.6937 19.5803 48.5281 21.7977C47.2921 24.1722 42.9712 32.9874 41.4478 34.3644C40.5208 35.2047 38.8402 35.53 37.5661 35.6384C34.6386 35.8932 31.3262 35.6601 28.2035 35.6384C29.9871 32.9223 32.1394 30.358 34.1886 27.8208C39.3118 21.4941 44.6139 14.5059 50.122 8.59124C50.1383 8.57498 50.1545 8.55872 50.16 8.54245C52.09 8.37439 54.0471 9.43697 53.7055 11.4429H53.7164V11.4483Z" fill="#99D9E5"/>
<path d="M102.433 59.1834C102.048 59.1834 101.739 58.8744 101.739 58.4895V9.41537C101.739 9.03045 102.048 8.72144 102.433 8.72144C102.818 8.72144 103.127 9.03045 103.127 9.41537V58.4895C103.127 58.8744 102.818 59.1834 102.433 59.1834Z" fill="#00151A"/>
<path d="M97.548 41.6508H91.2592C90.8743 41.6508 90.5653 41.3418 90.5653 40.9569C90.5653 40.572 90.8743 40.2629 91.2592 40.2629H97.548C97.9329 40.2629 98.2419 40.572 98.2419 40.9569C98.2419 41.3418 97.9329 41.6508 97.548 41.6508Z" fill="#00151A"/>
<path d="M113.227 41.526H106.938C106.553 41.526 106.244 41.217 106.244 40.8321C106.244 40.4472 106.553 40.1382 106.938 40.1382H113.227C113.611 40.1382 113.921 40.4472 113.921 40.8321C113.921 41.217 113.611 41.526 113.227 41.526Z" fill="#00151A"/>
<path d="M157.047 50.6285C170.2 51.7995 174.97 58.5382 178.093 66.3287C182.425 77.128 174.461 90.3128 163.905 93.7933C138.772 102.083 121.521 66.4046 145.836 53.5994C148.59 52.1519 152.933 50.2598 157.042 50.623H157.047V50.6285Z" fill="#00151A"/>
<path d="M41.7623 50.6284C53.2067 49.7664 65.7409 60.9995 64.5536 72.7909C62.8568 89.7055 44.2236 100.7 29.5208 90.188C12.7851 78.2231 22.5544 52.0651 41.7623 50.6284Z" fill="#00151A"/>
</g>
<defs>
<clipPath id="clip0_7601_3562">
<rect width="200" height="95" fill="white" transform="translate(0 0.471191)"/>
</clipPath>
</defs>
</svg>
