<svg width="201" height="139" viewBox="0 0 201 139" fill="none" xmlns="http://www.w3.org/2000/svg">
<path d="M157.836 53.7556C190.161 55.6345 210.818 93.8602 192.131 121.131C173.673 148.07 134.335 139.963 121.256 112.077C108.442 84.7572 126.436 51.9314 157.836 53.7556ZM126.305 112.852C138.272 134.701 168.85 141.899 186.247 122.045C206.577 98.8427 188.874 60.0297 158.808 57.8336C128.517 55.6209 112.385 87.4359 126.305 112.852Z" fill="#00151A"/>
<path d="M40.7433 53.7557C77.7397 55.8926 96.1293 105.688 66.8155 129.415C43.7923 148.049 11.3247 133.283 2.93656 106.896C-5.36816 80.7764 12.032 52.0969 40.7433 53.7557ZM10.572 114.018C23.8122 136.754 56.4315 141.825 71.4656 118.142C86.445 94.5447 69.8007 59.8841 41.7146 57.8337C10.9772 55.5891 -3.94002 89.0963 10.572 114.018Z" fill="#00151A"/>
<path d="M149.084 56.0536L156.241 95.246L122.385 74.1003C121.965 74.2384 121.937 74.8758 122.262 75.1505L155.464 96.5209C154.886 97.2873 154.221 99.4803 153.379 99.8598C143.748 102.042 134.015 103.879 124.431 106.252C123.668 106.442 121.57 106.811 121.045 107.088C120.571 107.339 120.694 108.083 121.235 108.227L152.745 101.267C152.893 101.406 151.059 104.504 150.837 104.891C146.393 112.634 141.379 120.051 136.718 127.664C136.009 129.172 137.091 129.253 137.991 127.967C141.304 123.227 144.537 117.676 147.583 112.705C149.931 108.875 152.183 104.985 154.402 101.078L157.405 100.295L164.627 136.276C164.795 136.786 165.63 136.794 165.757 136.115C165.894 135.395 165.449 133.347 165.306 132.49C163.514 121.619 160.294 110.992 158.651 100.092C158.835 99.8461 160.948 99.5395 161.3 99.9963C167.348 103.801 173.516 107.419 179.527 111.282C181.142 112.32 191.811 119.831 192.623 119.681C192.845 119.64 193.141 119.269 193.142 119.031C193.145 118.485 190.482 117.166 189.928 116.803C180.907 110.896 171.998 104.818 162.651 99.4227C162.817 99.1495 163.066 99.192 163.32 99.1206C166.278 98.2966 170.011 97.8291 173.1 97.2494C181.06 95.7545 189.041 94.3673 197.029 93.0226C197.606 92.8663 197.933 92.7646 197.78 92.0635C197.678 91.7569 197.395 91.7417 197.128 91.7432C195.601 91.7554 192.646 92.5051 190.964 92.7828C180.996 94.4325 171.086 96.4571 161.154 98.295C159.811 97.5833 157.163 96.8305 157.745 94.9197C163.094 85.4297 168.129 75.7743 173.295 66.1871C174.162 64.5799 175.788 62.3201 176.416 60.766C176.584 60.3486 176.921 59.3136 176.144 59.3197C175.716 59.3227 175.344 60.0815 175.115 60.4336C170.705 67.2298 167.498 75.3994 163.265 82.3686L157.214 93.1091C154.818 81.502 153.182 69.7112 150.515 58.1601C150.285 57.1615 150.353 55.5907 149.083 56.0521L149.084 56.0536Z" fill="#00151A"/>
<path d="M39.9252 94.2762L35.398 91.3288C26.4225 84.8059 17.2436 78.5288 8.73248 71.3942C7.94177 70.8751 7.51985 71.3411 7.71867 72.2092C17.8507 80.4957 28.6504 87.9793 39.3227 95.5707C39.3607 96.407 38.957 96.4783 38.2543 96.583C28.441 98.0476 18.2665 98.5712 8.39404 99.7367C7.06456 99.8946 3.38419 100.153 2.40225 100.54C1.89383 100.74 1.72538 101.396 2.08962 101.626C2.53886 101.91 11.2943 100.631 12.6435 100.491C21.2882 99.5956 29.9435 98.8534 38.5654 97.7729C34.5436 108.075 29.5914 118.216 25.7972 128.594C25.5954 129.145 24.6559 131.122 25.1537 131.47C25.5164 131.723 26.0613 131.544 26.1781 131.112C30.5521 119.829 35.3176 108.7 40.0497 97.5695L40.675 97.6029C43.6193 110.283 46.946 122.884 49.567 135.645C51.0741 136.159 50.4609 134.396 50.3167 133.491C49.7097 129.674 48.661 125.631 47.7898 121.843C45.9291 113.745 43.6299 105.742 42.0591 97.5771L66.7349 113.578L74.6906 118.441C75.4085 118.803 75.9093 118.272 75.5587 117.571C65.9002 111.491 56.0581 105.592 46.6576 99.0933C45.8988 98.5681 44.9412 97.9823 44.2461 97.4375C44.0882 97.313 43.8879 97.442 44.0017 96.9943C52.7906 96.1277 61.5339 94.8301 70.3136 93.8891C73.4598 93.5522 76.6803 93.4794 79.8127 93.0908C80.9434 92.9512 80.8402 91.7507 79.6564 91.769C76.6347 91.816 72.8193 92.4034 69.7308 92.7251C60.7159 93.6615 51.7267 94.9591 42.7284 96.0321C41.5658 96.1383 41.0923 95.1094 41.3716 94.0834L55.7713 58.9447C56.0414 58.3467 55.3205 58.1464 55.2583 57.5833L40.7008 92.1408C38.1951 80.1845 35.1901 68.3437 32.4112 56.4512C32.4219 55.7864 31.4035 55.5436 31.2047 56.1552L39.9207 94.2746L39.9252 94.2762Z" fill="#00151A"/>
<path d="M6.37103 65.8713C6.5668 65.2278 10.5871 62.1667 11.4021 61.5824C22.1472 53.8711 35.3723 50.3 48.5062 53.1745C50.4155 53.5933 52.2458 54.2247 54.1095 54.7802L60.1225 36.0293H43.422C43.0456 37.4726 43.0942 40.9845 41.1728 41.0619C32.8059 39.5715 23.9138 39.3955 15.5833 37.9431C14.1339 37.6896 13.4768 37.5409 13.1459 35.9139C12.8803 27.5849 11.264 18.9661 10.9984 10.6887C10.9741 9.95868 10.8512 8.95702 11.4734 8.45164C12.4311 7.67155 13.7196 8.44405 13.8623 9.57016L15.9384 34.8683L39.9966 37.9825C43.0805 26.1841 45.5984 14.2082 48.4774 2.34603C49.1755 0.559723 51.8739 1.47489 51.1348 3.45242L44.2006 33.1138H62.3565C63.1047 33.1138 63.4675 34.2597 63.4052 34.9351C63.1867 37.339 61.2577 40.8783 60.7372 43.3612L60.8024 43.9743L103.328 99.1266L118.7 27.9052C118.869 25.4951 121.839 25.5649 121.666 27.9431L115.853 54.9441L116.53 56.0262L125.464 65.3416C135.939 55.0215 151.591 49.8143 166.185 52.7814C175.171 54.6087 184.736 61.0664 190.413 68.1645C197.865 77.4785 202.137 94.0272 200.682 105.797C200.474 107.487 200.085 109.237 199.785 110.919C199.404 111.86 197.514 111.708 197.252 110.835C196.696 108.975 198.2 105.449 197.991 103.399H103.328C102.941 103.399 101.986 102.103 101.686 101.742C87.3162 84.5478 74.5176 65.372 60.3092 47.9734L59.5412 47.2889L56.8246 56.014C76.4572 64.8272 85.9488 87.9049 82.8891 108.592C82.1607 109.907 80.2742 109.438 80.1482 107.97L80.5094 103.98H34.1976C34.1187 103.98 33.8591 103.669 33.9032 103.507L52.8468 57.9718L52.9287 57.3906C39.467 52.5264 24.92 55.5466 13.454 63.6312C11.6025 64.9379 9.94061 66.4723 8.12547 67.823C6.82027 68.163 5.99768 67.0976 6.36951 65.8683L6.37103 65.8713ZM116.823 100.489H154.883L125.466 69.6185C121.037 74.8559 118.454 81.2909 117.272 88.0278C116.565 92.0648 116.109 96.4342 116.823 100.489Z" fill="#A1122A"/>
<path d="M159.963 72.1893C153.907 73.1561 153.534 84.0089 160.887 83.2122C167.478 82.4958 167.799 70.9403 159.963 72.1893ZM160.233 80.3802C157.172 80.5016 157.824 75.1655 160.943 74.8999C163.972 74.6419 163.561 80.2497 160.233 80.3802Z" fill="#EADADB"/>
<path d="M170.247 67.7182C171.268 67.4101 171.485 67.9944 172.191 68.2175C173.481 68.6257 174.639 68.82 176.015 68.6303C177.061 68.4876 178.201 67.2219 179.137 68.4542C180.612 70.3953 177.22 71.4289 175.835 71.5564C174.229 71.7036 170.203 71.2847 169.432 69.6137C169.137 68.9748 169.609 67.9094 170.247 67.7167V67.7182Z" fill="#EADADB"/>
<path d="M158.014 67.7182C158.777 67.5467 164.352 67.5467 165.117 67.7182C166.61 68.0521 166.851 70.315 165.146 70.5775C164.127 70.7354 158.928 70.7657 157.976 70.5851C156.603 70.3241 156.425 68.0749 158.013 67.7182H158.014Z" fill="#EADADB"/>
<path d="M172.584 73.1607C166.528 74.1259 166.155 84.9788 173.508 84.1805C180.099 83.4642 180.421 71.9086 172.584 73.1607ZM172.854 81.3516C169.794 81.4715 170.445 76.1353 173.564 75.8697C176.593 75.6117 176.182 81.2211 172.854 81.3516Z" fill="#EADADB"/>
<path d="M107.566 24.8016C110.379 26.509 115.22 27.8384 120.283 28.2862C127.242 28.8993 134.616 27.843 137.703 23.8029C139.318 21.6888 138.626 19.3486 135.901 18.995C134.101 18.7612 130.383 19.2089 128.38 19.3349C126.339 19.4624 124.299 19.6202 122.258 19.7902C117.316 20.197 112.374 20.6644 107.422 20.9027C104.399 21.6615 105.586 23.5981 107.566 24.8016Z" fill="#00151A"/>
<path d="M50.8571 1.20694C48.6967 1.07276 47.606 2.42729 49.5296 4.04804C51.4531 5.66879 61.2123 6.04151 61.2123 6.04151C62.983 6.0479 63.4931 3.78182 61.6784 3.03853C59.8637 2.29524 52.9985 1.33898 50.8571 1.20694Z" fill="#01242A"/>
</svg>
