<svg width="200" height="218" viewBox="0 0 200 218" fill="none" xmlns="http://www.w3.org/2000/svg">
<g clip-path="url(#clip0_7555_3658)">
<path d="M197.23 190.265C192.131 208.368 173.489 219.626 154.998 217.625C141.613 216.178 129.859 209.854 120.163 201.045C119.585 200.518 119.015 199.985 118.452 199.442C113.814 194.978 109.678 189.947 106.095 184.633C105.466 183.7 104.853 182.759 104.261 181.813C104.181 181.685 104.101 181.558 104.023 181.431C90.2855 159.192 87.4572 126.286 107.356 107.623C108.081 106.944 108.837 106.282 109.624 105.641C110.846 104.645 112.139 103.698 113.51 102.804C115.39 101.579 115.16 101.958 117.095 101.46C120.659 100.546 123.065 99.3101 127.055 99.0006C127.08 99.0006 127.105 98.9965 127.129 98.9945C127.857 98.9412 128.586 98.9064 129.318 98.892C149.042 98.517 170.669 112.767 182.49 127.437C197.761 146.387 204.053 166.027 197.226 190.267L197.23 190.265Z" fill="#22A8C3"/>
<path d="M144.249 44.8184C144.249 44.8184 144.247 44.8348 144.243 44.8676C144.243 44.8778 144.24 44.888 144.238 44.9003C144.222 45.0827 144.171 45.5623 144.093 46.2899C143.935 47.7553 143.671 50.227 143.345 53.2602C143.257 54.0821 143.162 54.947 143.066 55.8446C142.238 63.5118 141.144 73.5584 140.344 80.4919C140.129 82.3856 139.932 84.0457 139.771 85.3635C139.348 88.7903 138.932 92.1207 138.518 95.3589C132.718 140.815 127.773 167.638 126.139 177.82C125.871 179.503 124.711 185.319 122.735 194.569C122.364 196.305 121.768 198.35 120.575 200.385C120.05 201.281 119.411 202.174 118.624 203.037C118.491 203.16 118.357 203.281 118.226 203.402C114.939 206.349 111.233 208.337 105.593 210.055C104.898 210.27 104.175 210.475 103.419 210.682C101.111 211.305 98.4998 211.905 95.5137 212.516C92.9641 213.035 90.3162 213.441 87.6027 213.732C86.8853 213.809 86.1557 213.879 85.4261 213.939C80.2491 214.377 74.8835 214.41 69.5897 214.055C68.8621 214.006 68.1345 213.951 67.4069 213.885C63.4432 213.539 59.5389 212.967 55.8068 212.184C55.0649 212.028 54.3312 211.864 53.6056 211.692C49.1398 210.633 44.9588 209.255 41.2677 207.567C40.9582 207.427 40.6549 207.284 40.3598 207.14C39.5236 206.737 38.7407 206.323 38.0295 205.884C35.857 204.554 34.3056 203.009 33.7235 200.869C28.5239 182.288 26.2572 162.115 24.0294 149.148C20.5534 128.934 14.7923 89.3867 11.2241 67.1394C11.0294 65.922 10.8409 64.7579 10.6605 63.6512C10.3183 61.5607 9.65423 57.8716 9.29147 55.0146C9.17875 54.1354 9.09472 53.3361 9.05783 52.6864C8.80779 48.3435 9.79565 47.4827 9.79565 47.4827C9.88787 47.8537 10.0108 48.3005 10.1851 48.7944C10.3634 49.3006 10.5929 49.8581 10.8921 50.4422C11.1278 50.9115 11.4106 51.3993 11.7468 51.8891C12.2427 52.6146 12.7879 53.2541 13.3638 53.8177C15.2862 55.7155 17.5325 56.7813 19.2746 57.433C19.8156 57.638 20.3096 57.8019 20.7297 57.9372C21.0023 58.0253 21.2728 58.1114 21.5434 58.1954C23.5826 58.8431 25.5788 59.4251 27.5074 59.9477C32.6024 61.3332 37.2261 62.3108 40.9582 62.9871C41.7329 63.1265 42.4687 63.2536 43.1594 63.3704C47.6211 64.1103 50.347 64.3541 50.347 64.3541C52.378 64.5386 54.2512 64.7087 56.0036 64.8624C58.7478 65.1002 61.1929 65.301 63.4719 65.4527C64.2138 65.5019 64.9373 65.549 65.6464 65.5859C66.2264 65.6187 66.7962 65.6453 67.3639 65.6699C67.8476 65.6925 68.3251 65.7089 68.8006 65.7253C69.8704 65.7601 70.9239 65.7826 71.9835 65.7888C73.0963 65.797 74.2154 65.7867 75.3569 65.7581H75.359C76.7281 65.7253 78.1299 65.6658 79.6035 65.5777C82.2924 65.4199 84.7867 65.1944 87.2358 64.9034C87.9654 64.8214 88.6889 64.7292 89.4144 64.6308C94.45 63.9565 99.5205 63.0035 106.028 61.7718H106.03C106.22 61.7369 106.409 61.7 106.599 61.6632C107.651 61.4644 108.774 61.2471 109.977 60.995C110.686 60.8475 111.42 60.6897 112.184 60.5134H112.186C113.494 60.2203 114.888 59.8821 116.378 59.4927H116.38C117.304 59.2509 118.265 58.9886 119.263 58.7016C123.731 57.4146 127.301 56.3714 130.798 54.7584C131.361 54.4981 131.925 54.2214 132.491 53.9263C132.493 53.9263 132.495 53.9243 132.497 53.9222C132.683 53.8259 132.87 53.7255 133.056 53.625C133.347 53.4672 133.643 53.3033 133.936 53.1332C134.313 52.918 134.692 52.6925 135.073 52.4548C136.909 51.3214 138.514 50.1327 139.902 48.9788C141.431 47.7082 142.693 46.4785 143.701 45.4127C143.703 45.4086 143.708 45.4066 143.71 45.4025C143.853 45.2488 143.992 45.0991 144.126 44.9536C144.169 44.9065 144.208 44.8614 144.249 44.8184Z" fill="#22A8C3"/>
<path d="M143.915 44.3447C144.072 44.5046 144.208 44.7464 144.249 44.8182C142.336 46.9189 139.324 49.8251 135.071 52.4566C130.05 55.5637 125.541 56.8938 119.261 58.7015C114.113 60.1832 109.973 61.0235 106.597 61.665C95.6633 63.735 88.7955 65.0344 79.5994 65.5796C70.1041 66.1411 63.517 65.5468 50.3428 64.356C50.3428 64.356 36.8244 63.1366 20.7276 57.937C18.5593 57.2361 14.4131 55.7973 11.7447 51.8889C10.5826 50.1879 10.0539 48.536 9.79358 47.4825C10.06 47.1116 10.6339 46.5766 10.7917 46.4311C11.4434 45.8409 12.0009 45.4679 12.3186 45.2281C13.3105 44.4841 14.823 43.4655 17.1513 42.1251C20.7686 40.0408 23.7015 38.8542 25.6218 38.0876C26.622 37.688 31.2088 35.8783 37.5663 34.3944C41.0791 33.5747 43.8541 33.1525 45.8483 32.8532C48.6704 32.429 51.1667 32.1564 53.9581 31.9146C62.9411 31.1296 70.8316 31.0087 71.7929 30.9964C79.6486 30.8878 88.3425 30.7709 99.9119 31.9146C99.9119 31.9146 114.113 33.3205 126.273 36.5936C128.156 37.0998 130.755 38.0405 135.952 39.9219C135.952 39.9219 137.606 40.5183 142.002 42.9081C142.199 43.0146 143.062 43.4901 143.913 44.3447H143.915Z" fill="#008099"/>
<path d="M40.3577 207.14C39.5215 206.734 38.7407 206.32 38.0274 205.884C37.2322 199.038 36.3756 192.109 35.4799 185.229C34.0391 174.164 33.0308 167.337 31.9609 160.11C31.1821 154.837 30.3746 149.383 29.3499 141.944C27.6693 129.72 26.454 119.473 24.0355 99.0559C22.4083 85.3099 20.8055 71.318 19.2725 57.4307C19.8156 57.6377 20.3096 57.7996 20.7297 57.9348C21.0002 58.0209 21.2728 58.109 21.5413 58.1931C23.0415 71.7464 24.6033 85.3878 26.1916 98.7997C28.608 119.202 29.8213 129.442 31.5019 141.646C32.5246 149.074 33.328 154.523 34.1088 159.793C35.1807 167.029 36.1891 173.862 37.6319 184.948C38.5931 192.341 39.5092 199.793 40.3557 207.138L40.3577 207.14Z" fill="#00151A"/>
<path d="M55.8068 212.184C55.0649 212.029 54.3332 211.865 53.6056 211.692C53.329 206.638 53.0031 201.535 52.6362 196.473C51.6422 182.758 50.6011 172.943 49.5948 163.456C49.4513 162.097 49.3099 160.75 49.1664 159.4C47.3772 142.354 46.3012 130.047 44.6719 111.417V111.394C43.2885 95.5907 42.0403 79.3177 40.9603 62.9873C41.735 63.1267 42.4687 63.2558 43.1614 63.3706C44.2333 79.5062 45.4671 95.5845 46.8341 111.206V111.228C48.4635 129.846 49.5394 142.147 51.3287 159.172C51.4701 160.521 51.6135 161.869 51.755 163.226C52.7633 172.734 53.8044 182.565 54.8026 196.317C55.1858 201.597 55.524 206.919 55.8089 212.186L55.8068 212.184Z" fill="#00151A"/>
<path d="M69.5897 214.056C68.8601 214.007 68.1325 213.951 67.409 213.886C66.6548 199.226 66.0154 184.262 65.505 169.348C65.1115 157.828 64.798 146.246 64.4844 131.799C64.0192 110.378 63.6789 88.0713 63.474 65.4551C64.2139 65.5043 64.9373 65.5494 65.6465 65.5862C65.8514 88.1409 66.1916 110.386 66.6548 131.75C66.9684 146.189 67.284 157.762 67.6775 169.27C68.1899 184.27 68.8314 199.318 69.5917 214.054L69.5897 214.056Z" fill="#00151A"/>
<path d="M87.4429 140.889C86.9284 159.307 86.8772 161.232 87.0842 166.708C87.1191 167.62 87.16 168.631 87.2072 169.741C87.5453 177.937 88.1131 191.657 87.697 210.067C87.6704 211.285 87.6396 212.51 87.6027 213.73C86.8834 213.808 86.1558 213.877 85.4262 213.939C85.4631 212.633 85.4958 211.324 85.5266 210.018C85.9406 191.675 85.377 178.001 85.0388 169.829C84.9917 168.717 84.9507 167.704 84.9158 166.79C84.7047 161.244 84.758 159.309 85.2745 140.825C85.4467 134.636 85.6619 126.931 85.9365 116.602C86.3915 99.6486 86.826 82.271 87.2379 64.9015C87.9675 64.8175 88.691 64.7252 89.4165 64.6289C89.0046 82.107 88.5639 99.5953 88.109 116.659C87.8343 126.991 87.6191 134.695 87.4449 140.887L87.4429 140.889Z" fill="#00151A"/>
<path d="M112.184 60.5156C111.604 69.1665 111.065 78.006 110.58 86.8352C110.112 95.3386 109.809 101.745 109.629 105.639C108.842 106.279 108.085 106.943 107.36 107.621C107.384 107.076 107.413 106.529 107.438 105.975L107.448 105.748C107.63 101.87 107.934 95.3837 108.411 86.7164C108.885 78.0921 109.409 69.4555 109.977 60.9952C110.684 60.8497 111.418 60.6898 112.184 60.5156Z" fill="#00151A"/>
<path d="M106.099 184.631C105.913 190.733 105.778 196.772 105.677 203.448C105.644 205.655 105.616 207.864 105.593 210.053C104.898 210.266 104.175 210.473 103.419 210.678C103.441 208.274 103.472 205.843 103.507 203.413C103.624 195.582 103.792 188.626 104.027 181.426C104.105 181.555 104.185 181.68 104.265 181.807C104.859 182.756 105.47 183.695 106.099 184.627V184.631Z" fill="#00151A"/>
<path d="M133.054 53.6271C132.546 60.747 131.997 67.9715 131.417 75.1324C130.722 83.7116 130.195 89.6162 129.322 98.8922C128.591 98.9065 127.861 98.9414 127.133 98.9947C128.021 89.5527 128.552 83.6153 129.253 74.9561C129.798 68.2318 130.314 61.452 130.796 54.7563C131.548 54.41 132.298 54.0349 133.054 53.625V53.6271Z" fill="#00151A"/>
<path d="M120.165 201.045C119.727 201.719 119.216 202.388 118.622 203.039C118.491 203.162 118.357 203.283 118.224 203.402C118.298 202.086 118.376 200.766 118.454 199.442C119.017 199.985 119.587 200.518 120.165 201.045Z" fill="#00151A"/>
<path d="M160.653 177.064C160.306 177.064 159.966 176.893 159.761 176.582C159.442 176.09 159.579 175.432 160.071 175.112C162.573 173.481 164.942 171.737 167.115 169.927C168.273 168.962 169.195 168.113 169.646 166.736C170.031 165.556 169.943 163.508 168.535 161.305C165.348 156.317 155.898 143.21 152.9 141.183C152.078 140.628 151.057 140.044 149.727 139.931C148.43 139.822 147.399 140.191 145.573 141.058C143.115 142.226 140.662 143.573 138.281 145.059C137.782 145.37 137.127 145.219 136.817 144.721C136.506 144.222 136.659 143.567 137.155 143.257C139.607 141.728 142.129 140.343 144.661 139.142C146.45 138.291 147.973 137.654 149.905 137.818C151.733 137.972 153.1 138.759 154.088 139.427C155.681 140.503 158.544 143.79 162.6 149.197C165.746 153.392 168.929 157.979 170.326 160.168C171.511 162.022 172.485 164.898 171.667 167.402C171.044 169.312 169.802 170.462 168.476 171.567C166.242 173.428 163.805 175.221 161.233 176.898C161.054 177.014 160.852 177.07 160.653 177.07V177.064Z" fill="#00151A"/>
<path d="M126.459 205.966C126.246 205.966 126.029 205.902 125.84 205.771C122.627 203.537 119.587 201.012 116.804 198.266C115.431 196.911 110.553 191.847 105.452 183.567C99.293 173.571 96.5426 164.605 95.6449 161.215C94.5402 157.036 93.0256 151.312 92.5645 144.68C92.0173 136.82 93.122 129.401 95.8457 122.633C97.264 119.108 101.033 109.744 110.317 103.725C115.156 100.587 120.143 99.2055 122.682 98.6624C126.547 97.8344 130.509 97.6192 134.458 98.0229C135.055 98.0844 135.489 98.6173 135.428 99.2137C135.366 99.8101 134.835 100.243 134.237 100.183C130.515 99.8019 126.781 100.005 123.137 100.786C120.743 101.298 116.046 102.597 111.498 105.547C102.789 111.193 99.334 119.778 97.8584 123.445C91.8492 138.377 95.5383 152.326 97.7436 160.662C98.6167 163.959 101.293 172.682 107.3 182.429C112.274 190.502 117.001 195.411 118.331 196.723C121.026 199.381 123.971 201.828 127.082 203.992C127.574 204.334 127.695 205.011 127.353 205.503C127.142 205.806 126.803 205.968 126.461 205.968L126.459 205.966Z" fill="#00151A"/>
<path d="M27.1426 213.537C25.1218 214.516 21.5762 210.938 20.1928 209.61C18.3953 207.884 16.7721 205.988 15.0711 204.172C14.8374 204.062 14.5628 204.201 14.3353 204.263C12.5584 204.752 10.4474 205.824 8.60491 206.451C6.86079 207.046 3.12661 208.548 1.61614 206.976C0.327003 205.634 2.27402 202.022 2.79459 200.567L6.28488 193.548C4.67398 191.964 3.06923 190.148 1.78419 188.285C-0.253005 185.333 -1.44171 182.089 3.54471 182.011C6.6251 181.964 9.86535 182.702 12.9109 183.141C12.9109 183.141 16.7455 178.226 17.9957 176.566C20.5391 173.184 22.935 171.428 24.5602 176.615C25.4559 179.476 25.6506 182.694 26.2183 185.637C29.1675 186.809 32.7685 187.389 35.5537 188.906C38.1238 190.306 37.3573 192.058 35.3672 193.548C33.1189 195.23 30.225 196.302 27.8271 197.77C27.8989 200.826 28.4543 203.855 28.6018 206.902C28.6859 208.665 28.9871 212.643 27.1446 213.537H27.1426Z" fill="#C2E8F0"/>
<path d="M144.761 44.3837C144.589 44.5579 144.415 44.73 144.238 44.9001C144.24 44.8878 144.243 44.8776 144.243 44.8673C144.247 44.8346 144.249 44.8182 144.249 44.8182C144.208 44.8612 144.169 44.9063 144.126 44.9514C143.992 45.0989 143.853 45.2485 143.71 45.4023C143.708 45.4064 143.703 45.4084 143.701 45.4125C141.799 47.1833 139.674 48.7983 137.496 50.3661C137.5 50.3354 137.502 50.3231 137.502 50.3231C137.465 50.362 137.43 50.401 137.393 50.4399H137.391C135.764 51.6102 134.108 52.7558 132.497 53.922C132.495 53.9241 132.493 53.9261 132.491 53.9261C131.925 54.2212 131.361 54.4979 130.798 54.7582C127.301 56.3712 123.731 57.4144 119.263 58.7014C118.265 58.9884 117.304 59.2507 116.38 59.4925H116.378C114.888 59.8819 113.494 60.2201 112.186 60.5132H112.184C111.42 60.6894 110.686 60.8473 109.977 60.9948C108.774 61.2469 107.651 61.4641 106.599 61.663C106.409 61.6998 106.22 61.7367 106.03 61.7716H106.028C99.5205 63.0033 94.45 63.9563 89.4144 64.6306C88.6889 64.729 87.9654 64.8212 87.2358 64.9032C84.7867 65.1942 82.2924 65.4197 79.6035 65.5775C78.1299 65.6656 76.728 65.7251 75.359 65.7578H75.3569C74.2154 65.7865 73.0963 65.7968 71.9835 65.7886L75.5188 54.8176C71.1186 51.6225 66.6466 47.8801 62.9185 43.9061C57.0099 37.6121 53.0174 30.3118 64.8615 28.3382C72.1802 27.1228 80.1589 27.7131 87.5637 27.6659C87.5637 27.6659 94.9296 14.5881 97.3091 10.1878C102.154 1.2254 107.225 -3.81431 112.955 7.94774C116.115 14.4426 117.73 22.0278 120.14 28.8321C127.584 30.5619 136.362 30.652 143.537 33.2631C150.157 35.6754 148.965 40.1187 144.761 44.3837Z" fill="#C2E8F0"/>
<path d="M144.249 44.8184C144.249 44.8184 144.247 44.8348 144.242 44.8676C144.242 44.8778 144.24 44.888 144.238 44.9003C144.064 45.0705 143.888 45.2385 143.71 45.4025C143.853 45.2488 143.992 45.0991 144.126 44.9536C144.169 44.9065 144.208 44.8614 144.249 44.8184Z" fill="#028099"/>
<path d="M144.249 44.8184C144.249 44.8184 144.249 44.8348 144.242 44.8676C144.204 44.8962 144.165 44.9249 144.126 44.9516C144.169 44.9065 144.208 44.8634 144.249 44.8184Z" fill="#028099"/>
<path d="M64.3594 55.2248C62.0926 58.6864 58.7478 61.6787 56.0036 64.8616C54.2513 64.7079 52.378 64.5377 50.347 64.3533C50.347 64.3533 47.6211 64.1094 43.1594 63.3695C42.4687 63.2527 41.7329 63.1256 40.9582 62.9863C37.2261 62.3099 32.6024 61.3323 27.5074 59.9469C25.5788 59.4243 23.5826 58.8422 21.5434 58.1946C21.2728 58.1105 21.0023 58.0244 20.7297 57.9363C20.3096 57.8011 19.8156 57.6371 19.2746 57.4321C17.5325 56.7804 15.2863 55.7147 13.3638 53.8168C16.8111 52.9745 20.4038 52.4355 23.7773 51.7366C23.7773 51.7366 26.952 41.979 27.9521 38.708C29.9893 32.0492 32.707 27.9871 38.134 35.0988C41.1263 39.0236 43.2332 43.8891 45.7643 48.1254C50.9844 48.2812 56.8808 47.156 62.0434 47.9389C66.8024 48.6624 66.6015 51.8001 64.3594 55.2248Z" fill="#C2E8F0"/>
</g>
<defs>
<clipPath id="clip0_7555_3658">
<rect width="200" height="217.064" fill="white" transform="translate(0 0.799805)"/>
</clipPath>
</defs>
</svg>
