<svg width="200" height="177" viewBox="0 0 200 177" fill="none" xmlns="http://www.w3.org/2000/svg">
<path d="M37.5616 37.2461C40.6794 36.8346 43.0174 38.7825 43.4343 41.8482C44.1926 47.4118 39.1268 58.5389 37.3621 64.2678C33.3638 77.2369 30.2765 93.8125 32.5192 107.213C33.0781 110.559 34.5103 117.079 35.1716 118.462C39.0657 126.622 27.4211 129.519 21.6239 130.197C19.4639 130.45 13.7332 131.32 13.3235 128.95C9.01243 103.984 9.95945 79.5478 18.7738 59.9747C21.6922 53.4929 29.8866 38.256 37.5616 37.2443V37.2461Z" fill="#E8AA7D"/>
<path d="M98.3708 83.9524C98.1103 84.5939 97.2585 85.1366 96.6044 85.3181C94.6924 85.85 90.5556 85.9003 88.4405 85.9686C59.1312 86.8977 31.9226 78.8237 6.73022 64.4512C3.69866 62.7206 -0.684265 61.1698 0.225025 56.8983L4.43004 42.497C5.05361 41.4691 6.66912 42.0082 7.74014 41.8914C14.4161 41.1654 20.2402 36.592 18.9535 29.3123C18.2868 25.5368 15.789 22.9653 13.1312 20.4458C12.7826 20.1152 11.9901 19.8187 11.9649 19.2832C11.9452 18.8806 13.0881 15.8383 13.3217 15.1572C14.301 12.2946 17.0217 3.82165 18.6175 1.84852C19.1476 1.19441 19.8538 0.558265 20.7164 0.421691C21.6994 0.265351 22.1864 0.547482 23.0256 0.957201C25.9152 2.36966 29.4175 5.30778 32.3395 7.11557C47.9987 16.8033 64.9715 23.0982 83.7395 22.5142C85.2077 22.4675 86.958 22.1494 88.4244 22.1063C92.703 21.9769 95.2063 21.9769 95.7742 26.9151C96.13 30.0078 96.6565 40.2274 96.333 41.178C96.1893 41.5967 93.5459 42.3568 92.9025 42.6444C80.9883 47.9599 80.8086 59.6711 93.6231 63.5347C94.5737 63.8222 97.4454 64.0828 97.6934 64.9489C97.8946 65.6462 97.9719 74.3707 98.1193 77.6448C98.1858 79.1256 98.8524 82.7663 98.3708 83.9524Z" fill="#86B200"/>
<path d="M51.4921 94.5763C57.2354 86.9677 69.5251 82.5075 78.9433 84.2847C84.2697 85.2893 89.2654 90.3317 86.2194 95.8899C82.7584 102.206 73.971 99.1856 69.0489 103.396C64.0317 107.687 60.6299 117.716 61.4458 124.223C61.3685 124.955 46.7552 122.256 41.6732 122.069C41.1143 121.97 44.0794 104.393 51.4921 94.5763Z" fill="#E8AA7D"/>
<path d="M35.5184 123.99C31.2793 122.112 30.0771 116.691 29.777 112.497C28.4561 93.955 34.4941 60.748 48.8649 47.7663C52.7123 44.2909 59.9956 39.642 65.0937 43.1031C72.0014 47.7933 62.9193 59.8099 60.2939 64.678C54.2469 75.8896 51.5334 87.8883 51.1147 100.543C51.0033 103.912 51.643 124.851 51.3376 125.245C49.7328 127.306 40.2697 126.093 35.5184 123.989V123.99Z" fill="#E8AA7D"/>
<path d="M63.4207 120.076C64.4234 125.133 65.259 129.897 67.6958 134.506C68.0875 135.249 70.4919 138.683 70.5189 138.945C70.6429 140.176 66.1575 147.481 65.1871 148.888C59.0539 157.781 50.2539 165.958 39.8061 169.334C38.1708 169.863 31.4392 171.627 30.1723 171.052C29.6979 170.837 27.5397 168.308 27.0401 167.722C18.8655 158.108 13.0719 145.143 11.2048 132.637C11.0359 131.504 10.3099 129.126 11.424 128.614C20.4145 125.148 29.7931 121.737 39.3371 120.1C47.3194 118.73 55.4401 118.721 63.4207 120.076Z" fill="#C1DB70"/>
<path d="M18.7882 82.1211C18.7361 82.1211 18.6858 82.1175 18.6319 82.1085C18.0928 82.024 17.7244 81.5173 17.8106 80.9782C18.1035 79.1201 18.4737 77.2512 18.9068 75.4236C19.25 73.9788 19.6418 72.5268 20.0731 71.1036C20.2312 70.5806 20.7811 70.2859 21.3058 70.4441C21.8288 70.6022 22.1235 71.1539 21.9653 71.6768C21.5466 73.0605 21.1639 74.4766 20.8314 75.8818C20.4091 77.6609 20.0497 79.4795 19.764 81.2873C19.6867 81.7742 19.2662 82.1211 18.7882 82.1211Z" fill="#00151A"/>
<path d="M31.7788 82.3244C31.7213 82.3244 31.662 82.319 31.6027 82.3082C31.0654 82.2112 30.7078 81.6972 30.8049 81.1599C30.9324 80.4537 31.0708 79.7403 31.2164 79.0376C31.4248 78.0331 31.6548 77.0196 31.901 76.024C32.0322 75.4939 32.5677 75.1705 33.0978 75.3016C33.628 75.4328 33.9514 75.9683 33.8202 76.4985C33.5794 77.4688 33.3548 78.459 33.1518 79.4384C33.0098 80.123 32.875 80.8203 32.751 81.5103C32.6648 81.9883 32.2479 82.3244 31.7788 82.3244Z" fill="#00151A"/>
<path d="M23.2196 64.8445C23.1621 64.8445 23.1046 64.8391 23.0471 64.8301C22.5098 64.7349 22.1504 64.2228 22.2457 63.6854C23.748 55.1945 25.987 46.7791 28.9018 38.6746C31.2649 32.1047 34.1078 25.6372 37.355 19.4483C37.6083 18.9649 38.2068 18.778 38.6902 19.0332C39.1735 19.2866 39.3604 19.885 39.1071 20.3684C35.903 26.4764 33.096 32.8612 30.7635 39.3449C27.8883 47.3434 25.6762 55.6492 24.1936 64.0305C24.1092 64.5103 23.6923 64.8463 23.2214 64.8463L23.2196 64.8445Z" fill="#E4F0C2"/>
<path d="M189.352 45.0861C191.449 44.919 196.114 44.5075 197.129 46.7879C197.931 48.5885 198.377 54.2635 198.596 56.4846C201.033 81.296 199.489 104.21 185.948 125.698C183.111 130.202 175.722 140.641 169.371 137.609C164.49 135.278 167.755 126.052 168.972 122.236C170.28 118.133 171.951 114.135 173.19 110.002C177.199 96.612 179.619 80.065 179.021 66.0717C178.976 65.015 175.713 58.2385 175.062 56.9087C170.986 48.5957 183.517 45.5516 189.354 45.0843L189.352 45.0861Z" fill="#E8AA7D"/>
<path d="M157.374 82.0457C150.883 88.6497 137.947 93.7065 129.019 90.418C122.415 87.9848 120.834 80.0384 127.373 76.3294C132.151 73.6195 137.129 75.722 141.607 71.5673C144.964 68.4513 147.65 60.7097 148.572 56.2513C148.978 54.289 148.856 51.0059 148.856 51.0059C148.856 51.0059 167.831 53.2575 167.958 53.4354C168.188 53.7571 167.962 71.2708 157.372 82.0457H157.374Z" fill="#E8AA7D"/>
<path d="M183.084 115.305C182.728 118.139 181.183 121.699 179.413 124.964C178.058 127.462 176.57 129.787 175.382 131.48C174.873 132.204 174.137 133.29 173.376 134.416C171.853 136.675 170.244 139.099 170.244 139.099C170.244 139.099 179.511 159.566 178.784 164.241C178.013 169.189 172.442 168.083 168.88 167.332C163.302 166.153 150.037 161.393 150.037 161.393C150.037 161.393 140.047 169.196 135.195 172.529C133.086 173.979 128.234 176.857 125.721 176.722C124.897 176.677 123.822 176.116 123.295 175.469C122.038 173.926 121.441 169.848 121.234 167.839C120.602 161.699 120.868 155.269 120.251 149.102C116.706 146.685 112.803 144.715 109.183 142.345C106.574 140.638 100.588 136.745 99.2963 134.079C98.1049 131.615 99.1813 129.049 101.359 127.564C106.283 124.206 121.831 120.793 122.095 120.455C123.103 116.434 123.676 112.263 124.647 108.2C125.524 104.534 128.034 94.2351 130.543 91.8738C131.474 90.9987 132.2 90.7849 133.485 90.8963C137.474 91.2449 145.192 100.435 147.692 103.677C149.8 106.413 151.647 109.344 153.658 112.15C156.389 111.734 174.654 109.639 179.251 109.961C180.971 110.081 182.042 110.73 182.617 111.745C183.145 112.669 183.262 113.898 183.084 115.305Z" fill="#C2E8F0"/>
<path d="M163.676 52.5084C180.795 44.8333 180.958 61.2329 180.385 73.1345C179.515 91.2215 173.236 122.233 155.838 131.626C149.706 134.936 141.934 134.05 142.804 125.447C143.305 120.491 147.323 115.44 149.668 111.161C158.639 94.7886 159.847 77.6468 159.241 59.2184C159.263 58.4871 163.676 52.5102 163.676 52.5102V52.5084Z" fill="#E8AA7D"/>
<path d="M178.189 4.35191C178.866 4.2944 179.688 4.12548 180.295 4.4777C189.97 14.7602 196.872 28.3618 198.955 42.4163C199.117 43.5053 199.834 46.2278 198.846 46.7471C183.533 52.9666 168.077 57.6298 151.298 55.9945C150.589 55.9245 147.251 55.5669 146.894 55.3081C146.457 54.99 145.681 49.5882 145.424 48.5531C144.308 44.0606 142.267 40.0946 139.654 36.3154C142.897 28.8219 148.003 21.7398 153.94 16.1385C160.256 10.1778 169.382 5.09587 178.189 4.35191Z" fill="#008099"/>
<path d="M186.804 106.947C186.387 108.384 184.647 112.167 183.084 115.305C183.262 113.898 183.145 112.669 182.617 111.745C183.686 109.491 184.629 107.348 184.906 106.395C185.059 105.87 185.607 105.569 186.132 105.723C186.655 105.874 186.957 106.424 186.804 106.947Z" fill="#00151A"/>
<path d="M173.118 110.164C172.949 110.164 172.78 110.121 172.624 110.031C172.151 109.758 171.989 109.152 172.264 108.679C172.6 108.097 173.021 107.102 173.231 106.474C173.526 105.599 173.824 104.652 174.009 103.659C174.11 103.123 174.625 102.769 175.163 102.87C175.7 102.97 176.052 103.486 175.952 104.023C175.743 105.136 175.421 106.162 175.103 107.107C174.859 107.835 174.392 108.949 173.973 109.671C173.79 109.988 173.457 110.166 173.118 110.166V110.164Z" fill="#00151A"/>
</svg>
