<svg width="200" height="201" viewBox="0 0 200 201" fill="none" xmlns="http://www.w3.org/2000/svg">
<path d="M74.1409 65.2345C74.0495 65.8593 75.1614 67.9308 75.3834 68.8654C75.4568 69.1715 75.5212 69.4759 75.5785 69.7802C74.4058 70.5841 73.2492 71.4113 72.107 72.2617C67.4807 75.701 63.1068 79.4966 59.0892 83.6108C59.1877 84.0727 59.2647 84.5454 59.3166 85.0288C58.7813 85.0628 58.2442 85.07 57.7053 85.0556C54.9445 87.9918 52.3664 91.082 50.0049 94.3136C46.9792 94.3065 44.1934 94.0182 41.6332 93.5026C40.8186 93.3397 40.0254 93.1517 39.2574 92.9422C32.4576 91.0981 27.4159 87.5514 23.8495 83.3136C21.0511 79.9889 19.1605 76.2381 18.0433 72.5481C16.1742 66.3678 16.4732 60.3575 18.3083 56.8001C22.974 47.7552 32.7709 39.011 43.2767 38.2573C45.9605 38.0657 48.5458 38.3217 51.1221 39.079C54.1371 39.9653 56.2408 41.693 58.2907 43.5066C60.9602 45.8717 63.5437 48.3836 67.939 49.3844C71.3586 50.1614 76.6599 49.2394 77.8415 53.3339C78.7528 56.4868 77.7395 59.5913 76.1317 62.3305C75.7934 62.907 74.1856 64.923 74.1409 65.2345Z" fill="#E8AA7D"/>
<path d="M58.7061 41.2005C58.6524 41.9345 58.5091 42.7098 58.2907 43.5065C57.1126 47.7962 53.7271 52.6678 50.277 54.6229C48.5099 55.6255 45.042 56.936 43.6151 54.7786C42.0879 52.4655 44.555 49.8139 44.8773 47.567C36.7526 49.8694 41.5615 56.2772 41.9858 61.5247C42.1309 63.3222 41.0047 65.4564 38.9189 66.6649C38.2637 67.0426 37.5135 67.3309 36.6774 67.4884C31.2275 68.5143 33.3169 78.8358 38.8276 84.3071C39.2645 84.7422 39.7228 85.1468 40.2008 85.512C41.7782 86.7205 42.3618 88.4554 42.2992 90.3048C42.2651 91.3576 42.0199 92.4497 41.6331 93.5024C41.1211 94.8918 40.3584 96.2166 39.4954 97.3052C37.9521 99.2513 35.9308 100.707 33.7502 98.596L33.7394 98.5853C33.0895 97.9408 32.1173 95.2409 31.6859 95.411C24.3436 98.3257 19.1175 96.3617 17.3952 93.8784C15.8501 91.653 19.1873 89.8823 19.9017 87.5674C16.5215 88.4357 8.71368 88.8188 6.43992 85.7108C4.22882 82.6868 12.1601 76.4403 12.1601 76.4403C12.1601 76.4403 10.6437 76.4403 8.72264 76.1323C5.79539 75.665 1.54506 72.4943 2.19138 70.1453C2.50649 69.0049 4.36489 68.8455 7.86326 67.1859C11.6911 65.3686 12.6149 63.2417 12.8745 62.2964C13.0285 61.7378 4.79278 61.0592 5.31557 57.6611C6.05678 52.845 14.9316 46.2046 19.1372 44.0328C20.2311 43.4671 22.1701 42.5164 23.9962 41.8092C23.9962 41.4941 20.9526 41.1951 20.4495 41.068C15.1107 39.7306 17.5796 35.8419 20.8935 33.8242C26.8053 30.2291 35.4761 31.212 41.9858 32.3561C41.1659 29.7672 35.7178 28.0664 36.6201 24.9654C37.4258 22.1904 41.8229 22.1617 44.1038 22.6809C48.5243 23.6835 53.0002 28.2669 52.6833 33.0239C52.6296 33.8403 51.7022 35.8025 51.7129 35.9565C51.7219 36.089 53.8076 35.6683 54.5363 35.6665C57.537 35.6575 58.8959 38.5525 58.7061 41.2005Z" fill="#E4F0C2"/>
<path d="M38.7614 84.3752C34.1225 88.8887 25.1081 85.3742 21.3644 81.1293C13.639 72.3708 20.1756 57.8241 32.8818 62.3913C37.2825 63.974 41.6546 68.6397 41.95 73.4217C42.1684 76.981 41.4201 81.7899 38.7614 84.3752Z" fill="#E8AA7D"/>
<path d="M72.1069 72.2612C67.4806 75.7005 63.1068 79.496 59.0892 83.6103C58.9818 83.7195 58.8743 83.8287 58.7687 83.9397C57.5477 77.242 51.0325 72.9129 44.3419 74.9037L43.7082 74.6871C42.3761 68.0216 47.0937 64.0953 53.4603 66.5929C57.5244 68.1881 58.6738 69.3232 63.5096 69.026C66.8343 68.8219 70.0588 67.0995 71.7757 71.3015C71.9082 71.6256 72.0174 71.9443 72.1069 72.2612Z" fill="#00151A"/>
<path d="M59.0892 83.61C58.9817 83.7192 58.8743 83.8284 58.7687 83.9394C58.4106 84.3082 58.0561 84.6806 57.7052 85.0548C51.3351 84.8704 45.0258 81.2861 43.7081 74.6868C50.9072 72.3557 57.5924 76.5774 59.0892 83.61Z" fill="#D97126"/>
<path d="M196.976 159.565C193.904 170.125 186.365 180.766 176.96 186.573C162.54 195.478 136.503 194.889 119.911 194.289C100.738 193.594 79.9434 192.828 61.7533 186.301C61.4883 186.206 61.2269 186.107 60.9655 186.005C64.2222 179.925 66.3903 172.853 65.9499 165.908C65.8979 165.11 65.8066 161.984 65.1764 161.803C55.3652 158.996 45.2568 154.244 35.2558 148.468H35.254C35.1932 148.083 35.1341 147.7 35.0822 147.317C34.5092 143.332 34.3284 139.389 34.5379 135.665C35.3973 120.413 41.1819 106.388 50.0049 94.3133C52.3664 91.0817 54.9445 87.9915 57.7052 85.0553C58.0561 84.6811 58.4106 84.3087 58.7687 83.9399C58.8743 83.8289 58.9818 83.7197 59.0892 83.6105C63.1068 79.4962 67.4806 75.7007 72.1069 72.2632C73.2492 71.4109 74.4058 70.5838 75.5785 69.7799C83.8052 64.1259 92.7123 59.5766 101.754 56.3432C103.648 55.6647 106.201 55.2171 107.904 54.492C109.744 53.7114 108.439 52.0213 108.109 50.7734C104.674 37.727 108.095 20.5574 118.737 11.6682C119.53 11.0058 121.521 9.36044 122.536 9.5162C121.337 14.5561 120.329 20.9907 124.876 24.6412C127.368 26.6428 130.895 27.1674 133.644 28.7519C141.469 33.2636 139.487 40.7115 144.581 46.498C145.573 47.6241 146.728 48.4191 147.902 49.3214C134.995 43.2431 114.53 48.4531 124.065 66.2332C132.483 81.9311 145.016 88.022 159.276 96.297C159.948 96.6873 160.624 97.0812 161.303 97.4823C163.296 98.6585 165.287 99.8957 167.252 101.194C187.138 114.33 204.496 133.71 196.976 159.565Z" fill="#22A8C3"/>
<path d="M151.127 46.203C150.566 47.2181 149.125 49.4203 147.902 49.3218C146.728 48.4195 145.573 47.6245 144.581 46.4984C139.487 40.7119 141.469 33.264 133.644 28.7523C130.895 27.1678 127.368 26.6432 124.876 24.6416C120.329 20.9911 121.337 14.5565 122.536 9.5166C123.131 9.60791 123.881 10.6624 124.423 11.0438C130.946 15.6325 140.037 15.9601 146.149 21.1235C153.06 26.9637 155.567 38.1517 151.127 46.203Z" fill="#008099"/>
<path d="M78.3285 165.669C81.134 165.808 86.4801 165.649 88.7682 167.285C90.6283 168.616 91.5593 172.556 88.0466 174.3C91.4841 174.275 93.7597 177.65 91.5933 180.622C90.426 182.224 86.6322 184.118 85.8857 184.423C88.5784 185.787 89.6096 187.889 87.8425 190.335C83.9521 195.72 69.6273 194.563 63.0746 193.324C58.955 192.546 53.976 190.868 53.4854 186.96C52.8265 181.71 58.3695 162.568 61.3702 162.301C63.0979 162.147 65.0619 162.244 66.829 162.1C69.3785 161.895 73.7524 161.177 76.1658 162.134C78.2927 162.978 78.6597 164.405 78.3303 165.669H78.3285Z" fill="#E8AA7D"/>
<path d="M110.389 98.9303C110.811 98.8211 111.647 98.8264 112.086 98.8963C114.369 99.2579 117.063 104.826 118.021 106.813C119.371 109.61 120.531 113.602 122.001 116.102C122.148 116.351 122.28 116.583 122.54 116.734L132.193 117.226C135.522 117.908 142.814 117.172 141.607 122.538C141.26 124.085 137.932 127.336 136.689 128.547C134.521 130.656 132.118 132.584 129.841 134.575L129.556 135.087C131.168 140.286 133.359 145.421 134.883 150.636C135.511 152.784 136.677 156.963 135.754 159.026C134.43 161.992 130.117 160.467 127.932 159.538C122.393 157.183 117.185 153.173 112.093 149.999C111.722 149.959 111.518 150.163 111.234 150.31C108.371 151.807 104.821 155.048 101.84 156.915C99.3635 158.465 93.0686 162.741 91.1153 158.696C89.9498 156.285 91.5844 148.905 92.1537 146.056C92.7535 143.048 93.5878 140.066 94.2216 137.065C91.6023 135.194 88.8505 133.497 86.3493 131.461C84.806 130.204 81.1537 127.1 80.6792 125.229C79.7465 121.555 82.7471 120.52 85.6207 119.817C90.426 118.642 95.5984 118.562 100.495 117.91C102.339 113.855 103.823 109.604 105.725 105.578C106.482 103.972 108.632 99.3797 110.392 98.9285L110.389 98.9303Z" fill="#C2E8F0"/>
<path d="M60.9655 186.005C60.8205 186.279 60.6719 186.549 60.5215 186.818C59.8483 188.023 56.7707 192.955 55.6643 193.286C55.0627 193.465 52.4953 192.971 51.7541 192.787C40.9295 190.098 26.0964 182.333 18.5321 174.106C8.49169 163.188 6.72818 151.83 9.51936 140.846C11.3312 129.852 19.3861 117.12 25.2889 109.049C27.8348 105.569 30.6958 101.963 33.7394 98.5848L33.7502 98.5955C35.9308 100.706 37.9522 99.2508 39.4955 97.3047C40.3584 96.2161 41.1211 94.8913 41.6332 93.502C44.1934 94.0176 46.9792 94.3058 50.0049 94.313C41.182 106.387 35.3973 120.413 34.5379 135.665C34.3285 139.389 34.5093 143.331 35.0822 147.317C35.0554 147.782 35.0858 148.201 35.2541 148.468H35.2559C45.2569 154.244 55.3653 158.995 65.1765 161.803C65.8067 161.983 65.898 165.109 65.9499 165.908C66.3903 172.853 64.2222 179.925 60.9655 186.005Z" fill="#86B200"/>
<path d="M167.997 97.8068C167.952 98.378 167.675 99.975 167.252 101.194C165.287 99.8962 163.296 98.659 161.303 97.4828C160.624 97.0817 159.948 96.6878 159.276 96.2975C152.888 86.8194 145.594 70.2119 145.594 70.2119C145.594 70.2119 148.566 70.5736 150.742 71.4544C165.571 77.4629 168.694 88.889 167.997 97.8068Z" fill="#86B200"/>
<path d="M136.585 96.5406C135.071 96.8772 133.952 97.2513 132.478 96.4528C129.135 94.6446 130.843 89.816 132.26 87.2378C132.944 85.9935 133.846 85.0088 134.99 83.6983C133.764 83.8684 130.702 84.3518 129.461 84.4395C126.987 84.6167 122.074 84.2712 121.161 81.4299C119.75 77.0399 126.761 75.5378 129.556 74.3884C136.899 71.368 142.835 67.4042 150.62 72.265C156.358 75.8475 167.093 86.4733 161.033 97.323C159.616 96.4779 153.318 93.1389 152.099 92.6519C151.739 92.5087 149.696 93.6545 148.117 94.7251C144.968 96.861 143.46 100.168 139.629 99.6451C137.837 99.4016 136.628 96.8449 136.587 96.5406H136.585Z" fill="#E8AA7D"/>
<path d="M52.3987 57.4051C52.2859 57.4051 52.1713 57.3818 52.0621 57.3317C51.6575 57.1455 51.4802 56.6675 51.6664 56.2628C52.0997 55.3211 53.378 53.1816 55.1236 51.8299C56.4915 50.77 57.8002 50.0771 59.1251 49.7137C59.5548 49.5955 59.997 49.848 60.1152 50.2758C60.2333 50.7055 59.9809 51.1478 59.553 51.2659C58.434 51.5739 57.3079 52.1736 56.1101 53.1028C54.7208 54.1788 53.5678 55.9835 53.1309 56.9342C52.9949 57.2296 52.703 57.4033 52.3987 57.4033V57.4051Z" fill="#00151A"/>
<path d="M54.7405 62.4392C54.5793 62.4392 54.4164 62.3909 54.275 62.2906C53.9115 62.0328 53.8256 61.5297 54.0834 61.168C54.6635 60.3516 56.3232 58.3679 59.2236 57.6195C62.2636 56.8336 64.7612 57.8738 65.6939 58.3589C66.0896 58.5648 66.2436 59.05 66.0377 59.4457C65.8318 59.8414 65.3466 59.9953 64.9509 59.7894C64.1829 59.3902 62.1275 58.5344 59.6264 59.1807C57.2416 59.7984 55.8738 61.4294 55.3975 62.1026C55.24 62.3246 54.9911 62.4428 54.7405 62.4428V62.4392Z" fill="#00151A"/>
<path d="M135.151 84.0082C134.969 84.0082 134.786 83.9473 134.636 83.822C134.294 83.5373 134.247 83.0289 134.532 82.6869C135.398 81.6467 136.313 80.7479 137.33 79.9423C139.029 78.5941 140.603 77.6828 142.588 76.8933C143.002 76.7286 143.471 76.9309 143.634 77.3445C143.797 77.758 143.596 78.2271 143.183 78.39C141.351 79.1187 139.899 79.9602 138.331 81.2045C137.404 81.9403 136.566 82.7621 135.771 83.7182C135.611 83.9097 135.382 84.0082 135.151 84.0082Z" fill="#00151A"/>
<path d="M136.771 96.9994C136.718 96.9994 136.664 96.9941 136.609 96.9833C136.174 96.8938 135.892 96.4677 135.982 96.0326C136.43 93.8466 137.959 90.8388 139.876 88.3699C141.344 86.4792 143.063 84.7963 144.986 83.364C145.344 83.0972 145.847 83.1724 146.114 83.5287C146.379 83.885 146.305 84.3899 145.949 84.6566C144.142 86.0012 142.528 87.5821 141.151 89.3581C139.375 91.6462 137.966 94.3927 137.563 96.3549C137.484 96.7362 137.149 96.9994 136.775 96.9994H136.771Z" fill="#00151A"/>
<path d="M76.4612 167.162C75.9205 167.162 75.3816 167.146 74.8462 167.114C73.5536 167.035 72.2574 166.859 70.988 166.593C70.5529 166.501 70.2736 166.073 70.365 165.638C70.4563 165.203 70.8842 164.924 71.3192 165.015C72.5098 165.266 73.7291 165.431 74.9429 165.506C75.9491 165.567 76.9714 165.567 77.9794 165.506C78.4234 165.477 78.8047 165.817 78.8334 166.261C78.8602 166.705 78.5219 167.087 78.0779 167.114C77.5407 167.146 77.0018 167.162 76.4612 167.162Z" fill="#00151A"/>
<path d="M80.3642 176.319C79.2452 176.319 78.1263 176.248 77.0162 176.106C76.574 176.049 76.2625 175.646 76.3198 175.206C76.3753 174.764 76.7799 174.454 77.2203 174.509C79.0053 174.739 80.8172 174.771 82.6058 174.608C83.9235 174.488 85.8911 174.205 87.7781 173.543C88.1971 173.396 88.6572 173.616 88.8058 174.035C88.9544 174.454 88.7324 174.914 88.3134 175.063C86.2706 175.781 84.1616 176.085 82.7526 176.212C81.9594 176.284 81.1609 176.321 80.3642 176.321V176.319Z" fill="#00151A"/>
<path d="M79.4726 185.937C78.1495 185.937 76.8228 185.862 75.5123 185.712C75.0701 185.662 74.7532 185.262 74.8033 184.82C74.8534 184.378 75.2509 184.059 75.6949 184.111C77.2937 184.294 78.9212 184.36 80.5325 184.308C82.117 184.258 83.7104 184.092 85.2698 183.814C85.7066 183.737 86.1256 184.029 86.2044 184.466C86.2831 184.903 85.9895 185.322 85.5527 185.4C83.9181 185.69 82.2459 185.864 80.5844 185.918C80.2156 185.93 79.845 185.936 79.4744 185.936L79.4726 185.937Z" fill="#00151A"/>
<path d="M123.016 59.7111C120.377 59.7111 116.906 59.3136 112.954 58.1606C110.478 57.4373 108.5 56.4956 107.073 55.3605C106.613 54.9953 106.244 54.6354 105.947 54.2916C101.072 54.7983 96.1463 55.9083 91.699 57.0291C91.2675 57.1383 90.8289 56.8769 90.7215 56.4455C90.6123 56.014 90.8737 55.5753 91.3051 55.4679C95.1473 54.4993 99.3457 53.5379 103.58 52.956C101.072 51.5273 98.3574 49.5382 95.4767 47.0174C95.1419 46.7238 95.1079 46.2153 95.4015 45.8805C95.6951 45.5457 96.2036 45.5117 96.5384 45.8053C99.4943 48.3942 102.257 50.3958 104.776 51.778C104.726 51.0439 104.958 50.3904 105.436 49.9733C107.499 48.1704 113.42 48.1919 118.635 50.0216C121.297 50.9562 123.165 52.2417 123.759 53.5468C123.872 53.7957 123.929 54.0231 123.951 54.2236C126.001 54.861 127.381 55.5986 128.065 56.424C128.602 57.0721 128.654 57.6898 128.604 58.0926C128.577 58.3146 128.459 58.6333 128.052 58.9C127.404 59.3262 125.612 59.7093 123.014 59.7111H123.016ZM113.903 56.7552C120.681 58.6422 125.73 58.157 126.962 57.6611C126.935 57.602 126.892 57.534 126.824 57.4534C126.298 56.8179 125.002 56.2234 123.303 55.7132C122.318 56.5386 120.211 56.9056 116.61 56.9127C115.62 56.9092 114.734 56.859 113.901 56.757L113.903 56.7552ZM109.735 54.0303C111.765 54.8091 113.765 55.2996 116.564 55.2996H116.608C118.494 55.296 119.763 55.1832 120.615 55.0382C118.347 54.562 115.787 54.2218 113.466 54.0786C112.242 54.0034 110.994 53.9909 109.735 54.0303ZM111.108 52.3974C111.934 52.3974 112.754 52.4207 113.567 52.4708C116.268 52.6373 119.358 53.0796 121.829 53.6543C121.854 53.6596 121.881 53.6668 121.906 53.6722C121.376 53.1064 120.273 52.3025 118.103 51.5416C113.198 49.8193 107.93 49.9339 106.498 51.1854C106.4 51.2713 106.335 51.5202 106.416 51.8836C106.443 52.0071 106.518 52.2596 106.715 52.5997C108.188 52.4708 109.658 52.3974 111.108 52.3974Z" fill="#00151A"/>
</svg>
