<svg width="200" height="221" viewBox="0 0 200 221" fill="none" xmlns="http://www.w3.org/2000/svg">
<g clip-path="url(#clip0_7555_3680)">
<path d="M151.733 39.4978C159.378 38.7286 158.684 44.6097 160.155 50.1309C164.769 67.454 196.658 146.57 197.366 149.127C197.817 150.759 196.794 150.872 195.606 151.475C183.383 157.678 168.302 163.644 155.435 168.632C148.64 171.266 147.258 171.311 140.137 169.719C129.262 167.287 118.516 164.182 107.822 161.085C104.282 160.579 81.0959 176.579 72.8754 182.626C67.4511 186.615 65.432 186.874 62.7644 180.281C57.1265 166.34 31.1973 96.5195 24.9206 75.6468C24.715 75.0279 25.156 74.5019 25.595 74.136C34.7607 67.4026 59.9701 48.2187 62.9839 47.3011C68.0502 45.7587 99.6213 51.6457 108.354 52.148C115.422 52.5554 145.923 40.0832 151.735 39.4978H151.733Z" fill="#86B200"/>
<path d="M19.4489 101.505V100.805C19.4568 101.04 19.4686 101.275 19.4489 101.505Z" fill="#88BDC9"/>
<path d="M19.4489 101.505V100.805C19.4568 101.04 19.4686 101.275 19.4489 101.505Z" fill="#90BFCA"/>
<path d="M64.4551 144.895C62.4282 148.038 54.2867 146.015 51.1682 145.322C47.1163 144.423 43.1672 143.131 39.1746 142.018C38.7454 142.062 38.4765 142.497 38.2076 142.783C36.1015 145.018 34.0271 148.368 31.9487 150.858C29.9831 153.213 25.9687 158.582 22.4586 157.652C19.4607 156.857 19.1067 150.035 18.5886 147.516L17.4812 134.507C13.8189 133.645 9.96468 132.453 6.52578 130.914C1.07377 128.48 -3.42508 124.891 3.60301 120.465C7.94564 117.732 13.194 115.976 17.9044 113.967C17.9044 113.967 19.1087 103.654 19.4488 100.211C20.143 93.1991 22.0295 88.6291 28.8302 94.6012C32.5815 97.8977 35.6407 102.306 38.9966 106.002C44.2073 105.116 49.8314 102.826 55.1074 102.573C59.9741 102.341 60.4012 105.495 58.8588 109.34C57.1166 113.68 53.9249 117.708 51.7852 121.871C54.532 126.156 57.9432 129.985 60.7888 134.195C62.4341 136.631 66.3041 142.028 64.4551 144.895Z" fill="#C2E8F0"/>
<path d="M187.174 36.7967C189.638 37.7953 192.626 38.7623 195.03 39.8994C198.655 41.6139 202.869 43.6448 197.318 47.149C194.465 48.9505 190.526 50.926 187.269 52.1283C187.52 57.2521 187.846 59.9277 187.552 65.615C187.465 67.2781 187.328 70.4579 185.26 70.7111C181.409 71.1817 172.433 59.0793 171.451 57.784C167.581 58.4683 163.736 60.2401 159.835 60.7424C151.703 61.7885 155.015 56.2139 157.345 52.0038C158.808 49.3598 160.586 46.878 162.079 44.2499C161.417 43.4747 157.345 37.6055 156.479 35.7031C151.735 25.2539 166.665 30.6881 171.458 32.0803L178.93 23.8064C184.771 18.1507 185.803 23.1142 186.474 28.5524C186.62 29.735 186.871 36.4961 187.174 36.7967Z" fill="#C2E8F0"/>
<path d="M114.028 192.418C115.524 189.673 116.966 186.436 118.754 183.891C119.8 182.404 121.269 180.392 123.114 182.216C124.916 183.995 126.891 192.906 127.419 193.213C130.119 193.691 133.024 193.927 135.66 194.67C144.24 197.091 132.964 202.331 130.488 204.868C131.03 208.614 132.749 212.751 133.024 216.488C133.783 226.824 121.789 214.898 118.88 212.747C115.774 213.846 110.132 218.39 106.855 217.872C106.384 217.797 105.92 217.532 105.682 217.107C104.33 214.696 108.152 206.6 108.682 203.781C108.599 203.187 107.035 202.315 106.517 201.833C105.457 200.846 103.976 199.47 103.066 198.388C96.5245 190.614 110.005 192.819 114.029 192.42L114.028 192.418Z" fill="#C2E8F0"/>
<path d="M140.354 1.71941C141.094 4.28227 141.147 6.48325 141.408 9.08763C141.586 9.36844 148.745 11.9254 148.745 13.4639C148.745 15.2555 143.388 16.9858 141.966 17.6621C141.622 20.3852 143.803 32.013 137.981 27.259C136.951 26.4186 134.083 23.1497 132.871 21.3621C130.54 22.0601 126.183 23.4286 124.346 23.0054C124.054 22.9382 123.684 22.7859 123.581 22.4794C122.871 20.3852 126.593 15.8626 127.431 13.8792C126.818 12.2714 122.383 7.85564 124.178 6.12334C125.481 4.86762 130.455 6.23012 132.666 6.86293C133.975 5.66851 137.309 1.05892 138.841 0.734608C139.769 0.538834 140.156 1.03321 140.354 1.71743V1.71941Z" fill="#C2E8F0"/>
<path d="M101.33 150.979C100.747 150.979 100.203 150.607 100.013 150.021C94.5806 133.298 89.5162 119.884 83.6529 104.353C82.7116 101.857 81.7485 99.3081 80.7618 96.6839C78.013 89.377 75.4086 82.5249 72.8893 75.9003C70.7595 70.3019 68.5585 64.5137 66.2468 58.3834C65.9778 57.6676 66.3378 56.8686 67.0536 56.5997C67.7695 56.3288 68.5684 56.6907 68.8373 57.4065C71.1491 63.5329 73.35 69.3211 75.4778 74.9174C77.9992 81.5461 80.6036 88.3982 83.3543 95.711C84.3411 98.3352 85.3021 100.882 86.2434 103.376C92.1186 118.939 97.1929 132.382 102.647 149.167C102.882 149.895 102.485 150.676 101.759 150.911C101.617 150.957 101.472 150.979 101.332 150.979H101.33Z" fill="#00151A"/>
<path d="M146.034 156.114C145.432 156.114 144.879 155.721 144.705 155.114C139.82 138.222 135.197 124.65 129.842 108.935C128.981 106.409 128.103 103.833 127.202 101.177C124.694 93.7848 122.313 86.8536 120.011 80.1498C118.066 74.4843 116.054 68.6249 113.941 62.4214C113.693 61.6976 114.081 60.9106 114.805 60.6654C115.528 60.4182 116.315 60.8058 116.561 61.5296C118.673 67.7291 120.684 73.5865 122.628 79.2521C124.93 85.9578 127.31 92.891 129.822 100.287C130.722 102.941 131.6 105.517 132.46 108.041C137.825 123.788 142.458 137.389 147.361 154.342C147.572 155.076 147.149 155.843 146.415 156.057C146.287 156.094 146.158 156.112 146.03 156.112L146.034 156.114Z" fill="#00151A"/>
</g>
<defs>
<clipPath id="clip0_7555_3680">
<rect width="200" height="219.955" fill="white" transform="translate(0 0.691406)"/>
</clipPath>
</defs>
</svg>
