<svg width="40" height="30" viewBox="0 0 24 18" fill="#000000" xmlns="http://www.w3.org/2000/svg">
  <path fill-rule="evenodd" clip-rule="evenodd" d="M12.9375 12.2746C12.9375 12.5133 12.7687 12.7187 12.5345 12.7651C12.2888 12.8137 11.8686 12.8499 11.4427 12.8499C10.6027 12.8499 9.90107 12.7375 9.40395 12.3929C8.86021 12.016 8.66146 11.4388 8.66146 10.7779V8.69141H8.28125C8.00511 8.69141 7.78125 8.46756 7.78125 8.19141V6.70481C7.78125 6.42866 8.00511 6.20481 8.28125 6.20481H8.66146V5.46429C8.66146 5.18815 8.88532 4.96429 9.16146 4.96429H11.2969C11.573 4.96429 11.7969 5.18815 11.7969 5.46429V6.20481H12.4375C12.7136 6.20481 12.9375 6.42866 12.9375 6.70481V8.19141C12.9375 8.46756 12.7136 8.69141 12.4375 8.69141H11.7969V10.3209C11.7969 10.3311 11.7973 10.3395 11.7978 10.3464C11.7984 10.3465 11.7989 10.3467 11.7995 10.3468C11.8287 10.3549 11.8793 10.3633 11.9583 10.3633C12.1688 10.3633 12.2737 10.3543 12.3777 10.3418C12.5197 10.3247 12.6622 10.3692 12.7692 10.4641C12.8762 10.559 12.9375 10.6951 12.9375 10.8382V12.2746ZM12.4375 12.2746C12.2344 12.3147 11.849 12.3499 11.4427 12.3499C9.80729 12.3499 9.16146 11.8929 9.16146 10.7779V8.19141H8.28125V6.70481H9.16146V5.46429H11.2969V6.70481H12.4375V8.19141H11.2969V10.3209C11.2969 10.6719 11.5038 10.8574 11.9375 10.8632C11.9444 10.8632 11.9513 10.8633 11.9583 10.8633C12.1875 10.8633 12.3125 10.8532 12.4375 10.8382V12.2746ZM20 0.500012L4 0.5C2.04971 0.499999 0.500001 2.02003 0.5 3.85714V14.1429C0.5 15.98 2.04971 17.5 4 17.5H20C21.9503 17.5 23.5 15.98 23.5 14.1429V3.85715C23.5 2.02004 21.9503 0.500013 20 0.500012ZM16.0312 9.21917C15.724 9.51344 15.3052 9.66574 14.8454 9.66574C14.3856 9.66574 13.9668 9.51344 13.6597 9.21917C13.3515 8.92388 13.1892 8.51721 13.1892 8.0759C13.1892 7.63459 13.3515 7.22792 13.6597 6.93263C13.9668 6.63836 14.3856 6.48606 14.8454 6.48606C15.3052 6.48606 15.724 6.63836 16.0312 6.93263C16.3394 7.22792 16.5017 7.63459 16.5017 8.0759C16.5017 8.51721 16.3394 8.92388 16.0312 9.21917ZM16.0312 12.6042C15.724 12.8985 15.3052 13.0508 14.8454 13.0508C14.3856 13.0508 13.9668 12.8985 13.6597 12.6042C13.3515 12.3089 13.1892 11.9023 13.1892 11.4609C13.1892 11.0196 13.3515 10.613 13.6597 10.3177C13.9668 10.0234 14.3856 9.8711 14.8454 9.8711C15.3052 9.8711 15.724 10.0234 16.0312 10.3177C16.3394 10.613 16.5017 11.0196 16.5017 11.4609C16.5017 11.9023 16.3394 12.3089 16.0312 12.6042ZM20 1.14952e-05L4 0C1.79086 0 0 1.7269 0 3.85714V14.1429C0 16.2731 1.79086 18 4 18H20C22.2091 18 24 16.2731 24 14.1429V3.85715C24 1.72691 22.2091 1.30823e-05 20 1.14952e-05ZM14.8454 9.16574C15.5433 9.16574 16.0017 8.70871 16.0017 8.0759C16.0017 7.44309 15.5433 6.98606 14.8454 6.98606C14.1475 6.98606 13.6892 7.44309 13.6892 8.0759C13.6892 8.70871 14.1475 9.16574 14.8454 9.16574ZM14.8454 12.5508C15.5433 12.5508 16.0017 12.0938 16.0017 11.4609C16.0017 10.8281 15.5433 10.3711 14.8454 10.3711C14.1475 10.3711 13.6892 10.8281 13.6892 11.4609C13.6892 12.0938 14.1475 12.5508 14.8454 12.5508Z" ></path>
</svg>