<svg width="185" height="186" viewBox="0 0 185 186" fill="none" xmlns="http://www.w3.org/2000/svg">
    <g clip-path="url(#clip0_7967_70316)">
        <rect x="159.132" y="97.8262" width="1.63362" height="5.55411" transform="rotate(41.1181 159.132 97.8262)" fill="#007C92"/>
        <rect x="178.966" y="93.239" width="1.63362" height="20.2562" rx="0.81681" transform="rotate(41.1181 178.966 93.239)" fill="#37424A"/>
        <rect width="0.816805" height="3.92056" rx="0.408403" transform="matrix(0.907802 0.419398 -0.419383 0.907809 162.426 82.3101)" fill="#37424A"/>
        <rect x="171.303" y="98.0425" width="5.2276" height="2.94041" rx="1.4702" transform="rotate(41.1181 171.303 98.0425)" fill="#37424A"/>
        <rect width="1.63358" height="16.8262" transform="matrix(0.946193 -0.323604 0.323633 0.946183 148.215 88.2231)" fill="#007C92"/>
        <ellipse cx="154.698" cy="104.147" rx="3.92069" ry="3.92055" transform="rotate(41.1181 154.698 104.147)" fill="#2C353B"/>
        <path fill-rule="evenodd" clip-rule="evenodd" d="M154.824 76.935L151.312 73.8696L136.668 61.9538L139.647 52.7944C140.106 51.3847 139.679 49.8373 138.562 48.8624L138.287 48.6226C135.786 46.4389 131.988 46.6966 129.804 49.1983L129.222 49.8651C125.847 53.7316 125.492 59.3838 128.357 63.6421L140.185 81.2227C141.546 83.2447 143.164 85.0802 145 86.6828L163.128 102.507C165.149 104.271 168.217 104.063 169.98 102.042L172.671 98.9602C174.435 96.9397 174.226 93.8719 172.206 92.1082L163.061 84.1254C161.708 85.4781 158.901 85.0474 156.686 83.1146C154.472 81.1818 153.666 78.4586 154.824 76.935Z" fill="#71D6E0"/>
        <path d="M148.313 82.7714C148.595 82.8569 148.856 83.0013 149.077 83.1949L162.894 95.2556C163.506 95.7895 163.569 96.7183 163.035 97.33C162.501 97.9417 161.572 98.0047 160.96 97.4707L144.32 82.9448C143.756 82.4532 144.262 81.5412 144.977 81.7584L148.313 82.7714Z" fill="#007C92"/>
        <path d="M128.575 57.7715C128.88 57.8539 129.163 58.0049 129.401 58.213L136.24 64.1827C136.58 64.4794 136.615 64.9953 136.318 65.3352C136.022 65.675 135.506 65.71 135.166 65.4134L127.706 58.9013C127.151 58.4175 127.632 57.5172 128.343 57.7089L128.575 57.7715Z" fill="#007C92"/>
        <ellipse cx="137.199" cy="87.6868" rx="3.14337" ry="3.14337" fill="#C4C4C4"/>
        <ellipse cx="130.351" cy="86.3396" rx="5.38863" ry="5.38864" fill="#C4C4C4"/>
        <ellipse cx="124.85" cy="81.3999" rx="6.62353" ry="6.62353" fill="#C4C4C4"/>
        <ellipse cx="117.217" cy="78.9301" rx="6.73579" ry="6.7358" fill="#C4C4C4"/>
        <ellipse cx="114.634" cy="71.8576" rx="6.7358" ry="6.7358" fill="#C4C4C4"/>
        <ellipse cx="104.531" cy="63.8869" rx="10.1037" ry="10.1037" fill="#C4C4C4"/>
        <ellipse cx="100.321" cy="50.6959" rx="11.507" ry="11.507" fill="#C4C4C4"/>
        <path d="M99.7842 63.5157H7.51579C7.57817 38.0896 28.2093 17.497 53.65 17.497C79.0908 17.497 99.7219 38.0896 99.7842 63.5157Z" fill="white" stroke="#C3C6C9" stroke-width="0.23125"/>
        <path d="M53.65 17.3813C28.1069 17.3813 7.40002 38.0882 7.40002 63.6314H99.9C99.9 38.0882 79.1932 17.3813 53.65 17.3813Z" fill="white" stroke="#C3C6C9" stroke-width="0.4625"/>
        <path d="M53.65 17.3813C34.4926 17.3813 18.9625 38.0882 18.9625 63.6314H88.3375C88.3375 38.0882 72.8074 17.3813 53.65 17.3813Z" fill="white" stroke="#C3C6C9" stroke-width="0.4625"/>
        <path d="M53.6499 17.3813C47.2641 17.3813 42.0874 38.0882 42.0874 63.6314H65.2124C65.2124 38.0882 60.0357 17.3813 53.6499 17.3813Z" fill="white" stroke="#C3C6C9" stroke-width="0.4625"/>
        <path d="M7.40002 63.6313L53.65 133.006L99.9 63.6313" stroke="white" stroke-width="0.4625" stroke-linecap="round" stroke-linejoin="round"/>
        <path d="M18.9625 63.6313L53.65 133.006L88.3375 63.6313" stroke="white" stroke-width="0.4625" stroke-linecap="round" stroke-linejoin="round"/>
        <path d="M42.0874 63.6313L53.6499 133.006L65.2124 63.6313" stroke="white" stroke-width="0.4625" stroke-linecap="round" stroke-linejoin="round"/>
        <path d="M48.9563 165.537L48.7308 166.626L50.0588 169.321L49.692 169.837L45.4863 166.023L47.5704 164.26L48.9563 165.537Z" fill="#D5D7D9"/>
        <path d="M53.9836 125.111L52.135 125.004L52.5722 122.125L54.4746 122.301L53.9836 125.111Z" fill="#D5D7D9"/>
        <path d="M52.0274 125.027C52.0274 125.027 50.6697 125.173 50.4856 127.493C50.4472 127.953 50.7157 132.057 50.7157 132.057L50.1404 138.566L54.6892 138.75L56.3691 132.34L56.7756 131.957C57.3202 131.444 57.4429 130.633 57.0901 129.974L54.4437 125.112L52.0274 125.027Z" fill="#D5D7D9"/>
        <path d="M56.5153 121.174C56.6809 119.389 55.6218 117.831 54.1496 117.695C52.6774 117.559 51.3498 118.896 51.1842 120.681C51.0185 122.467 52.0777 124.024 53.5499 124.16C55.022 124.297 56.3497 122.959 56.5153 121.174Z" fill="#D5D7D9"/>
        <path d="M50.9751 118.772C51.4656 117.975 51.3396 117.009 50.6937 116.612C50.0477 116.215 49.1264 116.539 48.6359 117.335C48.1454 118.131 48.2714 119.098 48.9174 119.495C49.5633 119.892 50.4846 119.568 50.9751 118.772Z" fill="#D5D7D9"/>
        <path d="M48.8903 165.995L46.1902 166.018C46.1902 166.018 49.3966 154.693 50.133 153.398C50.8156 152.204 51.5597 151.247 51.5597 151.247L49.8107 142.793L55.6098 149.884L48.8903 165.995Z" fill="#D5D7D9"/>
        <path d="M50.8462 137.662L50.432 138.037C49.3888 139.446 49.105 141.277 49.6879 142.931L55.6941 151.951C55.6941 151.951 55.1341 153.107 54.9807 154.785C54.835 156.37 55.4026 166.524 55.4026 166.524L57.2129 166.539L58.9849 152.112L54.7046 137.295L50.8462 137.662Z" fill="#D5D7D9"/>
        <path d="M57.2269 166.016L57.0637 167.116L59.2194 170.307L58.9841 170.718L54.0622 166.69L56.1532 165.138L57.2269 166.016Z" fill="#D5D7D9"/>
        <path d="M52.6106 123.825C52.6106 123.825 48.6371 124.078 49.7647 118.289C49.7647 118.289 52.6029 115.739 55.7402 118.082C55.7402 118.082 54.045 119.981 53.347 120.563C53.347 120.563 51.7284 120.525 52.787 121.918L52.6106 123.825Z" fill="#D5D7D9"/>
        <path d="M55.4179 124.744L55.0574 126.383C55.0574 126.383 56.7296 128.512 57.4967 130.426C58.2638 132.34 60.1961 154.653 60.1961 154.653C59.3754 154.653 46.4368 151.939 46.4368 151.939C46.5058 150.622 49.0589 141.529 49.0589 141.529L49.5651 133.137L49.826 128.512C49.987 128.297 50.6544 126.207 50.6544 126.207L51.4138 124.177C53.1474 125.632 55.4179 124.744 55.4179 124.744Z" fill="#007C92"/>
        <path d="M49.5531 119.822C50.9064 122.195 51.2166 123.863 51.1833 124.482L51.5778 124.038C51.5855 124.125 52.2713 124.431 53.0898 124.674C53.997 124.943 55.3262 124.569 55.509 124.641C55.4602 125.085 55.8329 126.149 54.9042 126.149C54.1482 126.149 51.105 126.456 50.8218 125.848C50.4278 124.985 49.6777 121.826 48.8351 120.678C47.0895 118.298 45.4788 118.873 42.1701 115.934C40.6996 114.628 38.2716 107.973 37.4191 105.321L39.7513 105.96L41.9442 105.027C41.96 106.997 42.3547 111.568 43.8069 114.101C45.6221 117.266 47.8614 116.857 49.5531 119.822Z" fill="#A2AD00"/>
        <path d="M63.3078 121.749C63.3078 121.749 64.3258 118.932 63.0352 118.194L61.9744 119.574L61.5552 122.617L62.4719 123.497L63.3078 121.749Z" fill="#D5D7D9"/>
        <path d="M60.4776 130.152C59.686 130.559 56.4791 131.401 56.4791 131.401L54.9935 128.079C55.4555 127.98 59.0051 127.612 59.0051 127.612C59.1884 127.246 61.4819 121.457 61.4819 121.457C61.6543 121.571 63.4023 122.111 63.4023 122.111C63.1639 122.934 60.4776 130.152 60.4776 130.152Z" fill="#007C92"/>
        <path d="M43.3124 120.625C43.3124 120.625 42.1603 117.861 43.4137 117.061L44.5396 118.388L45.1045 121.407L44.2313 122.331L43.3124 120.625Z" fill="#D5D7D9"/>
        <path d="M46.5429 128.882C47.3531 129.249 50.5964 129.934 50.5964 129.934L51.9206 126.544C51.4543 126.467 47.8915 126.272 47.8915 126.272C47.6908 125.915 45.1219 120.245 45.1219 120.245C44.9552 120.367 43.2353 120.991 43.2353 120.991C43.5129 121.802 46.5429 128.882 46.5429 128.882Z" fill="#007C92"/>
        <path d="M54.3594 122.355L55.464 122.056C55.464 122.056 55.6097 122.248 55.4487 122.424C55.2952 122.6 54.3594 122.355 54.3594 122.355Z" fill="white"/>
        <path d="M54.3672 122.355C54.3672 122.355 55.1266 122.707 55.3414 122.745C55.3414 122.745 55.6252 122.653 55.4488 122.424L54.3672 122.355Z" fill="white"/>
    </g>
    <defs>
        <clipPath id="clip0_7967_70316">
            <rect width="185" height="185" fill="white" transform="translate(0 0.5)"/>
        </clipPath>
    </defs>
</svg>
