<svg width="269" height="205" viewBox="0 0 269 205" fill="none" xmlns="http://www.w3.org/2000/svg">
    <path d="M244.508 0.869621L11.7356 23.4825C7.13341 23.9296 3.76445 28.0287 4.21084 32.6381L17.3688 168.508C17.8151 173.117 21.9078 176.492 26.51 176.045L259.283 153.432C263.885 152.985 267.254 148.886 266.807 144.276L253.65 8.40618C253.203 3.79677 249.11 0.422537 244.508 0.869621Z" fill="#555E65"/>
    <path d="M5.92968 40.2448L267.2 53.9588L261.322 166.307C261.08 170.932 257.14 174.484 252.523 174.242L7.97349 161.405C3.35602 161.163 -0.191003 157.217 0.050988 152.593L5.92968 40.2448Z" fill="#242B30"/>
    <path d="M244.467 61.1623L27.7867 49.7888C24.7084 49.6272 22.0821 51.9956 21.9208 55.0787L19.2553 106.019C19.094 109.102 21.4586 111.733 24.5369 111.894L241.217 123.268C244.296 123.429 246.922 121.061 247.083 117.978L249.749 67.0374C249.91 63.9542 247.545 61.3239 244.467 61.1623Z" fill="white"/>
    <path d="M29.5925 68.6833L30.4498 68.7283L30.6058 65.7469L33.6492 65.9067L33.6892 65.1435L30.6457 64.9837L30.7696 62.6177L34.0845 62.7917L34.1249 62.0189L29.9527 61.7999L29.5925 68.6833Z" fill="black"/>
    <path d="M34.9651 68.9654L35.7938 69.0089L35.9605 65.8224C36 65.0687 36.5882 64.5974 37.3788 64.6388C37.5598 64.6483 37.716 64.6756 37.8859 64.7133L37.9281 63.9071C37.8479 63.8885 37.6726 63.8602 37.5154 63.852C36.8201 63.8155 36.3226 64.1051 36.0991 64.6338L36.0229 64.6298L36.0629 63.8666L35.2341 63.8231L34.9651 68.9654Z" fill="black"/>
    <path d="M39.9814 69.3196C40.6719 69.3558 41.2259 69.0836 41.5784 68.552L41.6546 68.556L41.615 69.3145L42.4437 69.3579L42.6279 65.8375C42.6837 64.769 42.0173 64.0883 40.7647 64.0225C39.6693 63.965 38.8598 64.4679 38.6842 65.267L38.678 65.2953L39.5067 65.3389L39.5122 65.3248C39.6665 64.9311 40.0834 64.7234 40.6977 64.7556C41.4645 64.7959 41.8324 65.1596 41.7992 65.7941L41.7747 66.2615L40.2982 66.2749C39.0991 66.2837 38.395 66.7777 38.3471 67.6936L38.3466 67.7031C38.2977 68.6381 39.005 69.2683 39.9814 69.3196ZM39.1954 67.7285L39.1959 67.719C39.2226 67.2086 39.58 66.9499 40.3635 66.9432L41.7397 66.9293L41.7153 67.3968C41.6769 68.1314 41.0335 68.6525 40.1904 68.6083C39.5951 68.577 39.1681 68.2485 39.1954 67.7285Z" fill="black"/>
    <path d="M56.3911 69.8439L57.3056 69.8921L57.6199 63.8842L57.6798 63.8873L59.8475 70.0255L60.6749 70.0689L63.4713 64.1914L63.5311 64.1945L63.2168 70.2023L64.1312 70.2505L64.5429 62.3834L63.4053 62.3238L60.3729 68.7464L60.2858 68.7418L57.9404 62.0369L56.8027 61.9772L56.3911 69.8439Z" fill="black"/>
    <path d="M66.6662 63.3532C67.0254 63.3721 67.3348 63.0931 67.3536 62.7333C67.3724 62.3735 67.0939 62.0636 66.7346 62.0448C66.3754 62.026 66.066 62.3049 66.0472 62.6647C66.0284 63.0245 66.3069 63.3344 66.6662 63.3532ZM65.8203 70.3386L66.7674 70.3889L67.0749 64.5117L66.1278 64.462L65.8203 70.3386Z" fill="black"/>
    <path d="M68.3359 70.4707L69.2832 70.521L69.4653 67.0426C69.5191 66.0122 70.1456 65.411 71.0819 65.4601C72.0181 65.5092 72.427 66.0391 72.3712 67.0967L72.1842 70.6734L73.1316 70.723L73.3305 66.9175C73.4037 65.5219 72.7095 64.7037 71.3923 64.6346C70.5265 64.5891 69.9579 64.9255 69.6314 65.5316L69.5442 65.527L69.5909 64.6439L68.6435 64.5941L68.3359 70.4707Z" fill="black"/>
    <path d="M77.447 72.9171L78.3938 72.9667L78.5452 70.0773L78.6324 70.0822C78.9205 70.7258 79.6015 71.166 80.4073 71.2086C81.8989 71.2869 82.9301 70.1437 83.0264 68.301L83.027 68.2901C83.1226 66.4584 82.2115 65.2025 80.7254 65.1244C79.9091 65.0816 79.2359 65.4344 78.8424 66.0697L78.7552 66.0651L78.804 65.1274L77.8573 65.0778L77.447 72.9171ZM80.2335 70.3575C79.1668 70.3016 78.557 69.4275 78.6282 68.0702L78.6289 68.0593C78.7001 66.7018 79.397 65.8966 80.4638 65.9525C81.5361 66.0089 82.1298 66.8709 82.058 68.2393L82.0573 68.2502C81.9861 69.6189 81.3059 70.4141 80.2335 70.3575Z" fill="black"/>
    <path d="M86.5433 71.5307C88.2143 71.6181 89.3089 70.5168 89.4073 68.636L89.408 68.6251C89.5064 66.7389 88.5324 65.5342 86.8615 65.4466C85.1905 65.3588 84.0959 66.4548 83.9975 68.3411L83.9968 68.352C83.8984 70.2331 84.8724 71.4427 86.5433 71.5307ZM86.5873 70.6908C85.4766 70.6328 84.8933 69.7873 84.9659 68.4028L84.9666 68.3919C85.0391 67.0018 85.7075 66.2278 86.8175 66.2861C87.9282 66.3443 88.5122 67.184 88.4389 68.5742L88.4382 68.5851C88.3664 69.9697 87.6973 70.7495 86.5873 70.6908Z" fill="black"/>
    <path d="M92.5169 71.8439C93.8501 71.9144 94.9064 71.2422 94.9608 70.1955L94.9615 70.185C95.0055 69.3453 94.4969 68.8376 93.4064 68.5125L92.5141 68.2469C91.8318 68.0417 91.5506 67.7755 91.5715 67.3775L91.5722 67.3666C91.5994 66.8487 92.1297 66.5157 92.8267 66.5523C93.5341 66.5895 93.9743 66.9351 94.0755 67.4051L95.0062 67.4539C94.926 66.4876 94.1034 65.8267 92.8734 65.7621C91.6267 65.6967 90.652 66.3835 90.6011 67.3594V67.3648C90.5564 68.2098 91.0266 68.7155 92.1129 69.0349L93.0101 69.3008C93.7253 69.5135 94.0099 69.8069 93.989 70.2052L93.9883 70.2157C93.9604 70.7503 93.3799 71.0969 92.5908 71.0557C91.8394 71.0158 91.3887 70.6699 91.2562 70.171L90.2871 70.12C90.3457 71.0962 91.2108 71.7754 92.5169 71.8439Z" fill="black"/>
    <path d="M96.9947 64.9451C97.354 64.964 97.6631 64.6851 97.6819 64.3253C97.7008 63.9654 97.4224 63.6556 97.0631 63.6368C96.7038 63.6179 96.394 63.8969 96.3752 64.2566C96.357 64.6164 96.6354 64.9263 96.9947 64.9451ZM96.1484 71.9311L97.0959 71.9807L97.4036 66.1036L96.4561 66.054L96.1484 71.9311Z" fill="black"/>
    <path d="M100.673 72.2722C102.007 72.3421 103.063 71.6705 103.117 70.6238L103.118 70.6133C103.162 69.7734 102.654 69.2657 101.563 68.9406L100.671 68.6751C99.9883 68.4698 99.7071 68.2036 99.7281 67.8056L99.7288 67.7947C99.756 67.2768 100.286 66.9439 100.983 66.9805C101.691 67.0176 102.131 67.3632 102.232 67.8332L103.163 67.8821C103.082 66.9157 102.26 66.2549 101.03 66.1902C99.7832 66.1248 98.8085 66.8116 98.7576 67.7875V67.793C98.7129 68.6379 99.1832 69.1437 100.269 69.4631L101.167 69.7286C101.882 69.9411 102.166 70.2353 102.146 70.6329L102.145 70.644C102.117 71.1779 101.536 71.5252 100.747 71.4833C99.9967 71.4441 99.5453 71.0975 99.4127 70.5986L98.4443 70.5483C98.5022 71.5245 99.3674 72.2037 100.673 72.2722Z" fill="black"/>
    <path d="M105.14 65.3728C105.5 65.3916 105.809 65.1127 105.827 64.7529C105.846 64.3931 105.568 64.0832 105.209 64.0644C104.849 64.0455 104.54 64.3245 104.521 64.6843C104.503 65.0441 104.781 65.354 105.14 65.3728ZM103.34 74.3307C104.57 74.3957 105.169 73.908 105.232 72.6977L105.555 66.5316L104.607 66.4818L104.284 72.6641C104.25 73.3126 103.999 73.5236 103.362 73.4901L103.22 73.4831L103.176 74.3223L103.34 74.3307Z" fill="black"/>
    <path d="M109.228 72.7214C110.899 72.8088 111.993 71.7075 112.092 69.8264L112.093 69.8159C112.191 67.9295 111.217 66.7249 109.546 66.6372C107.875 66.5495 106.78 67.6455 106.682 69.5315L106.681 69.5427C106.583 71.4238 107.557 72.6334 109.228 72.7214ZM109.272 71.8815C108.161 71.8235 107.578 70.978 107.65 69.5937V69.5825C107.724 68.1925 108.391 67.4185 109.502 67.4768C110.613 67.5351 111.196 68.3748 111.123 69.7649L111.123 69.7761C111.05 71.1604 110.382 71.9402 109.272 71.8815Z" fill="black"/>
    <path d="M113.192 72.8255L114.139 72.8752L114.321 69.397C114.376 68.3667 115.001 67.7655 115.938 67.8146C116.874 67.8637 117.283 68.3936 117.228 69.4512L117.041 73.0275L117.988 73.0771L118.187 69.272C118.26 67.8763 117.566 67.0582 116.249 66.989C115.383 66.9436 114.814 67.28 114.488 67.8861L114.401 67.8815L114.447 66.9983L113.5 66.9486L113.192 72.8255Z" fill="black"/>
    <path fill-rule="evenodd" clip-rule="evenodd" d="M239.56 70.9061C239.752 71.1185 239.794 71.426 239.668 71.6824L234.977 81.2318C234.849 81.4925 234.573 81.6462 234.285 81.6189C233.997 81.5924 233.755 81.3891 233.678 81.1095L232.597 77.1866L228.814 75.699C228.544 75.5927 228.368 75.3314 228.371 75.0407C228.375 74.7507 228.556 74.4929 228.828 74.393L238.801 70.7181C239.069 70.6189 239.37 70.6937 239.56 70.9061ZM231.032 75.0701L233.431 76.0134C233.636 76.0938 233.791 76.2657 233.849 76.4774L234.535 78.9657L237.646 72.6328L231.032 75.0701Z" fill="black"/>
    <path d="M248.435 92.1591L20.6069 80.2004L20.5704 80.8983L248.398 92.8569L248.435 92.1591Z" fill="#F1F2F2"/>
    <path d="M30.1512 100.444L31.0085 100.49L31.3283 94.3791L33.543 94.4951L33.5834 93.7222L28.2967 93.4448L28.2563 94.2177L30.471 94.3337L30.1512 100.444Z" fill="black"/>
    <path d="M35.0029 94.5475C35.3172 94.5643 35.5879 94.3204 35.6043 94.0053C35.6208 93.6908 35.3771 93.4197 35.0627 93.4029C34.7484 93.3861 34.4777 93.6307 34.4613 93.9452C34.4448 94.2603 34.6885 94.5314 35.0029 94.5475ZM34.2627 100.66L35.0915 100.704L35.3605 95.5614L34.5318 95.5181L34.2627 100.66Z" fill="black"/>
    <path d="M36.5962 100.783L37.425 100.827L37.8009 93.6425L36.9721 93.5985L36.5962 100.783Z" fill="black"/>
    <path d="M57.1117 101.564C58.8644 101.656 60.0608 100.8 60.1378 99.3285L60.1381 99.3229C60.1974 98.1888 59.5843 97.4949 57.965 97.0442L57.1044 96.8017C56.0498 96.5117 55.642 96.0638 55.6748 95.437L55.6751 95.4314C55.7182 94.6083 56.499 94.1841 57.479 94.2302C58.5026 94.2785 59.129 94.8256 59.2017 95.5237L59.2088 95.5949L60.1886 95.6467L60.1871 95.5698C60.1668 94.3931 59.1212 93.4092 57.5536 93.3267C55.9316 93.2415 54.7457 94.1031 54.6721 95.4063L54.6718 95.4112C54.6122 96.5509 55.2547 97.3118 56.8095 97.743L57.6704 97.9798C58.7356 98.2761 59.164 98.7471 59.1297 99.4011L59.1294 99.4067C59.0875 100.208 58.2803 100.718 57.2135 100.662C56.0813 100.602 55.2908 100.063 55.2611 99.2747L55.2588 99.2139L54.2791 99.1629L54.2814 99.223C54.3286 100.51 55.3916 101.474 57.1117 101.564Z" fill="black"/>
    <path d="M63.4022 101.752C63.5873 101.762 63.7681 101.749 63.9548 101.726L63.997 100.92C63.822 100.927 63.7292 100.927 63.5604 100.918C62.9508 100.886 62.7259 100.595 62.7621 99.9037L62.9361 96.5775L64.2206 96.6453L64.2617 95.8606L62.9772 95.7928L63.0568 94.2716L62.077 94.2206L61.9974 95.7411L61.0721 95.6929L61.031 96.4776L61.9563 96.5265L61.7698 100.092C61.711 101.215 62.1938 101.688 63.4022 101.752Z" fill="black"/>
    <path d="M65.1538 101.8L66.101 101.85L66.2915 98.2076C66.3366 97.3467 67.0088 96.808 67.9124 96.8555C68.1192 96.866 68.2977 96.8974 68.4919 96.9408L68.5401 96.0191C68.4485 95.9981 68.2482 95.9653 68.0686 95.9562C67.2739 95.9143 66.7053 96.2455 66.4499 96.8499L66.3628 96.845L66.4084 95.973L65.4613 95.9233L65.1538 101.8Z" fill="black"/>
    <path d="M70.0507 95.0268C70.41 95.0456 70.719 94.7668 70.7379 94.407C70.7567 94.0471 70.4783 93.7375 70.119 93.7187C69.7597 93.6998 69.4507 93.9786 69.4318 94.3385C69.413 94.6983 69.6914 95.0079 70.0507 95.0268ZM69.2051 102.012L70.1518 102.062L70.4595 96.1853L69.5121 96.1357L69.2051 102.012Z" fill="black"/>
    <path d="M71.7219 102.144L72.6687 102.194L72.8508 98.7163C72.9045 97.6856 73.531 97.0847 74.4673 97.1336C75.4036 97.1832 75.8124 97.7129 75.7573 98.7701L75.5696 102.346L76.5171 102.397L76.7159 98.5912C76.7892 97.1958 76.095 96.3775 74.7777 96.3084C73.9126 96.2629 73.3433 96.599 73.0168 97.2056L72.9303 97.2007L72.9763 96.3174L72.0289 96.2678L71.7219 102.144Z" fill="black"/>
    <path d="M80.1765 102.692C80.9935 102.735 81.6668 102.383 82.0603 101.747L82.1475 101.752L82.0979 102.69L83.0454 102.739L83.4752 94.5286L82.5277 94.479L82.3575 97.7395L82.2703 97.7346C81.9814 97.091 81.3005 96.6508 80.4954 96.6082C79.0037 96.5299 77.9726 97.6731 77.8756 99.5157V99.5269C77.7793 101.358 78.6905 102.614 80.1765 102.692ZM80.4382 101.864C79.3658 101.808 78.7728 100.946 78.844 99.5772L78.8447 99.5668C78.9165 98.1986 79.5968 97.4034 80.6691 97.4593C81.7359 97.5152 82.3449 98.3893 82.2738 99.7463L82.2731 99.7575C82.2026 101.115 81.5056 101.92 80.4382 101.864Z" fill="black"/>
    <path d="M84.7019 102.826L85.6494 102.875L85.8307 99.3977C85.8852 98.367 86.5117 97.766 87.4473 97.8149C88.3835 97.8646 88.7924 98.3942 88.7373 99.4515L88.5503 103.028L89.497 103.078L89.6966 99.2726C89.7698 97.8771 89.0756 97.0589 87.7584 96.9897C86.8926 96.9443 86.324 97.2804 85.9975 97.8869L85.9103 97.882L86.0784 94.6656L85.1317 94.616L84.7019 102.826Z" fill="black"/>
    <path d="M93.385 103.386C94.7678 103.458 95.6469 102.718 95.8904 101.932L95.9037 101.889L94.9562 101.839L94.9318 101.887C94.7553 102.233 94.246 102.583 93.4513 102.542C92.4062 102.487 91.7741 101.743 91.8104 100.526L96.0341 100.748L96.0537 100.377C96.1451 98.6214 95.2388 97.3825 93.6439 97.2986C92.049 97.2147 90.9495 98.4034 90.8546 100.219V100.224C90.7583 102.067 91.7092 103.298 93.385 103.386ZM93.5944 98.1434C94.4595 98.1888 95.0734 98.773 95.1104 99.9393L91.8662 99.7695C92.0281 98.657 92.723 98.0973 93.5944 98.1434Z" fill="black"/>
    <path d="M98.016 96.4949C98.3746 96.5137 98.6843 96.2349 98.7032 95.8751C98.722 95.5152 98.4436 95.2049 98.0843 95.1861C97.725 95.1672 97.4153 95.4467 97.3964 95.8066C97.3776 96.1658 97.6567 96.476 98.016 96.4949ZM97.1697 103.48L98.1171 103.53L98.4241 97.6534L97.4773 97.6038L97.1697 103.48Z" fill="black"/>
    <path d="M99.6865 103.613L100.634 103.662L100.824 100.02C100.868 99.1922 101.485 98.5521 102.253 98.5919C102.993 98.6311 103.448 99.109 103.411 99.8064L103.203 103.797L104.15 103.847L104.348 100.069C104.387 99.3222 104.958 98.7345 105.774 98.7771C106.602 98.8204 106.977 99.2719 106.931 100.139L106.73 103.982L107.677 104.032L107.89 99.9706C107.954 98.7387 107.321 98.0162 106.123 97.9533C105.312 97.9106 104.621 98.2845 104.273 98.8896L104.186 98.8847C103.946 98.26 103.412 97.8114 102.617 97.7695C101.85 97.729 101.276 98.0651 100.981 98.6842L100.894 98.6793L100.941 97.7856L99.9942 97.736L99.6865 103.613Z" fill="black"/>
    <path d="M108.826 106.099L109.528 106.135L110.545 103.078L109.462 103.021L108.826 106.099Z" fill="black"/>
    <path d="M117.343 104.539L118.323 104.591L118.688 97.6075L121.22 97.7403L121.266 96.857L115.224 96.5398L115.178 97.423L117.709 97.5558L117.343 104.539Z" fill="black"/>
    <path d="M121.215 104.743L122.163 104.792L122.353 101.151C122.398 100.289 123.07 99.7506 123.974 99.7981C124.181 99.8086 124.36 99.8401 124.553 99.8834L124.602 98.9617C124.51 98.9407 124.31 98.9086 124.13 98.8988C123.335 98.8569 122.767 99.1881 122.511 99.7925L122.424 99.7876L122.47 98.9156L121.523 98.866L121.215 104.743Z" fill="black"/>
    <path d="M127.488 105.176C129.159 105.263 130.253 104.162 130.352 102.282L130.353 102.27C130.451 100.384 129.477 99.1797 127.806 99.0916C126.135 99.0043 125.04 100.1 124.942 101.987L124.941 101.997C124.843 103.878 125.816 105.088 127.488 105.176ZM127.532 104.336C126.421 104.278 125.838 103.433 125.91 102.048V102.037C125.984 100.647 126.651 99.8729 127.762 99.9316C128.872 99.9896 129.456 100.829 129.383 102.219L129.383 102.231C129.31 103.615 128.642 104.395 127.532 104.336Z" fill="black"/>
    <path d="M131.452 105.28L132.399 105.33L132.581 101.852C132.635 100.821 133.261 100.22 134.198 100.269C135.134 100.318 135.543 100.848 135.488 101.906L135.301 105.482L136.247 105.532L136.447 101.727C136.519 100.331 135.825 99.513 134.508 99.4438C133.643 99.3984 133.074 99.7345 132.748 100.34L132.661 100.336L132.707 99.4529L131.759 99.4033L131.452 105.28Z" fill="black"/>
    <path d="M139.907 105.828C140.724 105.87 141.397 105.518 141.79 104.882L141.877 104.887L141.828 105.825L142.775 105.875L143.205 97.6641L142.258 97.6145L142.087 100.875L142 100.87C141.712 100.227 141.03 99.7863 140.225 99.7437C138.734 99.6654 137.703 100.809 137.606 102.651L137.606 102.662C137.509 104.494 138.421 105.75 139.907 105.828ZM140.168 105C139.097 104.943 138.503 104.081 138.575 102.713V102.702C138.647 101.333 139.327 100.538 140.399 100.595C141.466 100.651 142.075 101.525 142.004 102.882V102.893C141.933 104.25 141.236 105.056 140.168 105Z" fill="black"/>
    <path d="M144.431 105.961L145.379 106.011L145.561 102.533C145.615 101.502 146.241 100.901 147.177 100.95C148.113 100.999 148.523 101.53 148.467 102.587L148.28 106.163L149.227 106.213L149.426 102.408C149.499 101.012 148.805 100.194 147.488 100.125C146.622 100.08 146.053 100.416 145.727 101.022L145.64 101.017L145.808 97.801L144.861 97.7513L144.431 105.961Z" fill="black"/>
    <path d="M153.116 106.521C154.498 106.594 155.378 105.852 155.621 105.067L155.634 105.024L154.686 104.975L154.662 105.022C154.486 105.369 153.976 105.719 153.182 105.677C152.136 105.622 151.504 104.878 151.541 103.662L155.764 103.883L155.784 103.512C155.876 101.757 154.969 100.518 153.374 100.434C151.779 100.35 150.68 101.539 150.585 103.354V103.36C150.489 105.202 151.439 106.433 153.116 106.521ZM153.325 101.279C154.19 101.324 154.804 101.908 154.841 103.075L151.596 102.904C151.758 101.792 152.454 101.233 153.325 101.279Z" fill="black"/>
    <path d="M157.746 99.6304C158.106 99.6492 158.415 99.3697 158.434 99.0099C158.452 98.6507 158.174 98.3404 157.815 98.3216C157.456 98.3027 157.146 98.5815 157.128 98.9414C157.109 99.3013 157.387 99.6115 157.746 99.6304ZM156.9 106.616L157.848 106.666L158.155 100.789L157.208 100.739L156.9 106.616Z" fill="black"/>
    <path d="M159.416 106.748L160.364 106.798L160.554 103.156C160.597 102.327 161.215 101.688 161.982 101.727C162.723 101.767 163.178 102.244 163.141 102.942L162.933 106.933L163.88 106.982L164.077 103.204C164.117 102.458 164.688 101.869 165.504 101.913C166.332 101.956 166.706 102.407 166.661 103.275L166.46 107.118L167.407 107.167L167.62 103.106C167.684 101.873 167.05 101.152 165.853 101.089C165.042 101.046 164.351 101.42 164.003 102.025L163.916 102.02C163.676 101.396 163.142 100.947 162.347 100.905C161.58 100.864 161.006 101.201 160.711 101.82L160.624 101.815L160.671 100.921L159.724 100.871L159.416 106.748Z" fill="black"/>
    <path d="M235.828 102.198C235.57 101.911 235.129 101.888 234.842 102.146L231.909 104.791L232.843 105.83L234.524 104.313L234.137 111.7L235.531 111.774L235.918 104.387L237.431 106.07L238.468 105.135L235.828 102.198Z" fill="black"/>
    <path d="M229.002 103.034L228.616 110.421L227.102 108.737L226.065 109.672L228.706 112.61C228.964 112.897 229.405 112.92 229.691 112.662L232.625 110.017L231.69 108.978L230.01 110.494L230.396 103.107L229.002 103.034Z" fill="black"/>
    <path d="M42.5532 138.03L44.0228 138.107L44.7824 136.108L47.689 136.261L48.2413 138.329L49.7109 138.406L47.3357 130.393L45.7517 130.31L42.5532 138.03ZM46.4209 131.809L46.5135 131.814L47.3975 135.157L45.193 135.042L46.4209 131.809ZM51.5742 138.504L53.0602 138.581L55.4785 132.733L54.0523 132.658L52.4436 137.221L52.3511 137.216L51.2165 132.51L49.7686 132.433L51.5742 138.504ZM56.0937 138.74L57.4491 138.812L57.6302 135.35C57.6748 134.5 58.2963 133.991 59.1998 134.038C59.4339 134.051 59.6553 134.095 59.8708 134.15L59.9344 132.934C59.8057 132.89 59.5949 132.851 59.388 132.84C58.6043 132.799 58.0403 133.147 57.8055 133.774L57.713 133.769L57.7609 132.853L56.4055 132.782L56.0937 138.74ZM62.9041 139.218C64.5206 139.303 65.3641 138.413 65.5949 137.654L65.6138 137.606L64.3237 137.538L64.3054 137.576C64.1605 137.841 63.7219 138.19 62.9872 138.151C62.0673 138.103 61.5228 137.451 61.5624 136.382L65.7209 136.6L65.7444 136.153C65.8385 134.354 64.8556 133.11 63.1628 133.022C61.47 132.933 60.3226 134.103 60.2244 135.978L60.2241 135.984C60.1249 137.881 61.135 139.125 62.9041 139.218ZM63.1235 134.086C63.88 134.126 64.4044 134.639 64.4459 135.62L61.6209 135.472C61.774 134.529 62.3668 134.046 63.1235 134.086ZM67.783 132.379C68.2239 132.402 68.6071 132.067 68.6305 131.62C68.6535 131.178 68.3077 130.799 67.8668 130.776C67.4205 130.753 67.037 131.093 67.0139 131.535C66.9905 131.982 67.3366 132.355 67.783 132.379ZM66.7386 139.299L68.0939 139.371L68.4057 133.412L67.0504 133.341L66.7386 139.299ZM71.785 139.685C73.2494 139.761 74.3504 139.059 74.4097 137.926L74.4104 137.915C74.4557 137.048 73.9318 136.523 72.7806 136.2L71.8283 135.937C71.1941 135.756 70.9548 135.53 70.9729 135.181V135.176C70.9966 134.729 71.4473 134.457 72.0515 134.489C72.6885 134.523 73.0645 134.848 73.1427 135.23L73.1476 135.246L74.4208 135.313L74.4215 135.302C74.3853 134.333 73.5571 133.567 72.1094 133.491C70.705 133.418 69.6864 134.108 69.6306 135.182L69.6299 135.187C69.5838 136.065 70.0952 136.627 71.2143 136.938L72.1659 137.207C72.8113 137.388 73.0611 137.631 73.0422 137.98V137.991C73.0185 138.437 72.5343 138.718 71.8597 138.682C71.1843 138.648 70.8027 138.337 70.6827 137.916L70.6778 137.905L69.3334 137.834L69.3327 137.845C69.3941 138.859 70.2717 139.606 71.785 139.685ZM78.0083 140.012C79.6248 140.096 80.4683 139.206 80.6992 138.447L80.7181 138.399L79.4281 138.331L79.4099 138.368C79.2648 138.634 78.8267 138.983 78.0913 138.945C77.1718 138.896 76.6276 138.244 76.6667 137.175L80.8255 137.393L80.8485 136.946C80.9427 135.147 79.9604 133.904 78.2671 133.815C76.5746 133.726 75.4269 134.896 75.3292 136.771L75.3285 136.776C75.2294 138.673 76.2397 139.919 78.0083 140.012ZM78.2281 134.878C78.9843 134.918 79.509 135.432 79.5502 136.413L76.7253 136.265C76.8787 135.322 77.4711 134.839 78.2281 134.878ZM84.5825 140.236L85.9381 140.307L86.1195 136.834C86.1662 135.941 86.6972 135.4 87.5023 135.442C88.3241 135.485 88.6758 135.974 88.6269 136.901L88.4421 140.438L89.7969 140.51L89.9986 136.655C90.0732 135.238 89.3909 134.399 88.0632 134.329C87.203 134.284 86.6114 134.641 86.2946 135.264L86.2025 135.259L86.25 134.349L84.8944 134.277L84.5825 140.236ZM93.9412 133.943C94.6598 133.981 95.2765 133.456 95.3135 132.753L95.3142 132.747C95.3505 132.043 94.7916 131.462 94.073 131.424C93.3495 131.387 92.7328 131.907 92.6958 132.609V132.615C92.6588 133.318 93.2177 133.905 93.9412 133.943ZM93.9753 133.3C93.6265 133.282 93.3579 132.994 93.376 132.651V132.645C93.3942 132.308 93.6851 132.055 94.0395 132.074C94.3877 132.092 94.657 132.373 94.6388 132.711V132.717C94.6207 133.061 94.3235 133.318 93.9753 133.3ZM92.7984 140.766C93.5825 140.807 94.2314 140.502 94.5879 139.941L94.6807 139.946L94.6381 140.764L95.977 140.834L96.1898 136.762C96.2561 135.502 95.4349 134.716 93.9049 134.636C92.49 134.561 91.4972 135.176 91.3137 136.172L91.306 136.221L92.5849 136.288L92.5919 136.267C92.7481 135.881 93.1625 135.679 93.7835 135.711C94.5126 135.75 94.8823 136.097 94.8509 136.692L94.8244 137.204L93.2895 137.216C91.8377 137.228 90.9942 137.806 90.9383 138.87L90.9377 138.88C90.8811 139.965 91.666 140.706 92.7984 140.766ZM92.28 138.885L92.2807 138.875C92.3065 138.384 92.6749 138.124 93.4339 138.115L94.7777 138.098L94.7526 138.578C94.7149 139.286 94.0828 139.789 93.2665 139.746C92.6679 139.715 92.2535 139.392 92.28 138.885ZM102.055 143.138L103.274 143.201C102.523 142.129 102.025 139.944 102.127 138.003C102.228 136.073 102.951 133.935 103.81 132.958L102.591 132.894C101.431 134.194 100.841 135.874 100.734 137.93C100.626 139.979 101.038 141.712 102.055 143.138ZM104.735 141.294L110.064 141.573L110.124 140.407L106.69 140.227L106.697 140.101L108.283 138.665C109.744 137.358 110.205 136.672 110.252 135.778L110.253 135.762C110.323 134.437 109.299 133.448 107.796 133.37C106.197 133.285 105.027 134.252 104.945 135.718L104.949 135.734L106.255 135.808L106.257 135.787C106.299 134.975 106.872 134.453 107.667 134.494C108.451 134.535 108.897 135.084 108.859 135.808L108.858 135.825C108.826 136.43 108.517 136.813 107.415 137.838L104.784 140.346L104.735 141.294ZM111.834 141.666L117.163 141.946L117.224 140.779L113.789 140.599L113.796 140.474L115.383 139.037C116.843 137.731 117.305 137.045 117.352 136.151L117.352 136.134C117.422 134.809 116.399 133.821 114.896 133.742C113.296 133.658 112.126 134.625 112.044 136.091L112.049 136.108L113.355 136.182L113.356 136.159C113.399 135.347 113.971 134.825 114.766 134.867C115.55 134.908 115.996 135.456 115.958 136.182L115.958 136.198C115.926 136.803 115.617 137.186 114.515 138.21L111.884 140.718L111.834 141.666ZM119.995 136.984C120.496 137.01 120.881 136.648 120.906 136.168C120.932 135.683 120.586 135.287 120.085 135.261C119.59 135.235 119.201 135.592 119.175 136.077C119.15 136.557 119.5 136.958 119.995 136.984ZM119.784 141.029C120.285 141.055 120.668 140.698 120.694 140.213C120.719 139.728 120.375 139.332 119.874 139.306C119.378 139.28 118.988 139.637 118.963 140.122C118.938 140.607 119.288 141.003 119.784 141.029ZM125.013 142.517C126.722 142.607 127.942 141.703 128.015 140.318L128.016 140.307C128.073 139.217 127.358 138.491 126.242 138.323L126.244 138.295C127.162 138.147 127.882 137.534 127.933 136.558L127.934 136.548C127.998 135.315 127.019 134.416 125.43 134.333C123.878 134.252 122.787 135.091 122.601 136.448L122.593 136.508L123.899 136.576L123.907 136.522C124.01 135.822 124.577 135.409 125.372 135.451C126.177 135.493 126.623 135.943 126.585 136.662L126.585 136.674C126.549 137.36 125.968 137.822 125.129 137.778L124.264 137.732L124.209 138.779L125.108 138.826C126.071 138.877 126.635 139.366 126.592 140.195L126.591 140.205C126.553 140.936 125.949 141.413 125.073 141.366C124.191 141.32 123.628 140.815 123.592 140.146L123.59 140.086L122.245 140.016L122.247 140.081C122.28 141.433 123.336 142.429 125.013 142.517ZM132.094 142.927C133.945 143.024 135.144 141.496 135.276 138.956L135.277 138.945C135.41 136.404 134.377 134.764 132.526 134.667C130.675 134.57 129.477 136.093 129.344 138.634L129.343 138.644C129.211 141.185 130.243 142.83 132.094 142.927ZM132.154 141.787C131.169 141.735 130.661 140.583 130.759 138.718V138.708C130.857 136.843 131.481 135.761 132.466 135.813C133.451 135.864 133.959 137.006 133.862 138.87V138.882C133.764 140.746 133.139 141.839 132.154 141.787ZM137.189 144.982C138.35 143.67 138.94 141.99 139.047 139.941C139.155 137.885 138.743 136.153 137.726 134.738L136.506 134.674C137.259 135.736 137.755 137.938 137.654 139.868C137.552 141.808 136.83 143.93 135.971 144.918L137.189 144.982Z" fill="white"/>
    <path fill-rule="evenodd" clip-rule="evenodd" d="M145.368 139.228C145.509 136.531 147.807 134.458 150.501 134.6C153.194 134.741 155.263 137.043 155.122 139.741C154.981 142.438 152.683 144.51 149.989 144.369C147.296 144.228 145.227 141.926 145.368 139.228ZM150.573 133.204C147.111 133.023 144.156 135.687 143.975 139.156C143.793 142.624 146.453 145.583 149.916 145.765C153.379 145.946 156.334 143.282 156.515 139.814C156.697 136.345 154.036 133.386 150.573 133.204ZM149.731 135.959L149.548 139.448C149.528 139.833 149.824 140.162 150.208 140.182L153.692 140.365L153.765 138.97L150.978 138.823L151.124 136.032L149.731 135.959Z" fill="white"/>
    <path d="M176.644 128.974L24.0621 120.965C21.3686 120.824 19.0706 122.896 18.9295 125.594L18.1992 139.55C18.058 142.248 20.1271 144.55 22.8206 144.691L175.403 152.7C178.096 152.842 180.394 150.769 180.535 148.071L181.266 134.115C181.407 131.417 179.338 129.116 176.644 128.974Z" stroke="white" stroke-width="2"/>
    <path d="M196.615 146.117L198.02 146.19L198.188 142.979L201.481 143.153L201.54 142.007L198.247 141.835L198.369 139.506L201.973 139.696L202.034 138.513L197.027 138.25L196.615 146.117ZM203.883 139.523C204.324 139.546 204.707 139.211 204.73 138.764C204.754 138.322 204.408 137.943 203.967 137.92C203.52 137.896 203.137 138.237 203.114 138.679C203.091 139.126 203.437 139.499 203.883 139.523ZM202.839 146.443L204.194 146.514L204.506 140.556L203.151 140.485L202.839 146.443ZM205.698 146.593L207.053 146.665L207.486 138.4L206.13 138.329L205.698 146.593ZM210.891 146.893C211.152 146.907 211.404 146.899 211.602 146.871L211.657 145.824C211.493 145.832 211.389 145.832 211.198 145.822C210.632 145.792 210.411 145.529 210.442 144.935L210.6 141.931L211.857 141.997L211.912 140.945L210.655 140.879L210.731 139.418L209.354 139.345L209.278 140.806L208.352 140.758L208.297 141.81L209.223 141.859L209.048 145.184C208.988 146.334 209.525 146.822 210.891 146.893ZM215.22 147.214C216.837 147.298 217.68 146.408 217.911 145.649L217.93 145.601L216.64 145.533L216.622 145.57C216.477 145.837 216.039 146.185 215.303 146.147C214.384 146.098 213.84 145.447 213.879 144.377L218.038 144.596L218.061 144.148C218.155 142.349 217.173 141.106 215.479 141.017C213.787 140.928 212.639 142.098 212.541 143.974L212.541 143.979C212.442 145.876 213.452 147.121 215.22 147.214ZM215.44 142.081C216.196 142.121 216.721 142.635 216.762 143.615L213.937 143.467C214.091 142.524 214.683 142.042 215.44 142.081ZM219.039 147.294L220.394 147.365L220.575 143.903C220.62 143.053 221.241 142.544 222.145 142.592C222.379 142.604 222.6 142.648 222.816 142.703L222.88 141.487C222.751 141.443 222.54 141.404 222.333 141.393C221.549 141.352 220.985 141.7 220.751 142.327L220.658 142.322L220.706 141.406L219.351 141.335L219.039 147.294Z" fill="white"/>
    <path d="M229.51 141.406L231.33 141.501C231.506 141.845 231.854 142.089 232.267 142.111C232.883 142.143 233.408 141.669 233.44 141.053C233.472 140.436 232.999 139.91 232.384 139.877C231.971 139.856 231.599 140.061 231.389 140.385L229.567 140.29L229.51 141.406Z" fill="white"/>
    <path d="M229.363 144.197L234.529 144.468C234.704 144.812 235.053 145.055 235.465 145.077C236.081 145.11 236.607 144.636 236.639 144.019C236.671 143.403 236.198 142.876 235.582 142.844C235.169 142.823 234.797 143.028 234.587 143.352L229.422 143.081L229.363 144.197Z" fill="white"/>
    <path d="M231.039 147.084L229.218 146.988L229.276 145.872L231.097 145.967C231.307 145.644 231.68 145.438 232.092 145.46C232.708 145.492 233.181 146.018 233.148 146.635C233.116 147.252 232.591 147.725 231.976 147.693C231.563 147.672 231.215 147.428 231.039 147.084Z" fill="white"/>
    <path d="M233.969 141.64L238.428 141.874L238.486 140.757L234.028 140.524L233.969 141.64Z" fill="white"/>
    <path d="M238.282 144.665L237.167 144.607L237.226 143.49L238.34 143.549L238.282 144.665Z" fill="white"/>
    <path d="M233.677 147.222L238.136 147.456L238.194 146.34L233.735 146.106L233.677 147.222Z" fill="white"/>
    <path d="M240.743 132.339L196.153 129.998C193.46 129.857 191.162 131.929 191.021 134.627L190.29 148.583C190.149 151.281 192.218 153.583 194.912 153.724L239.502 156.065C242.195 156.206 244.493 154.134 244.635 151.436L245.365 137.48C245.506 134.782 243.437 132.48 240.743 132.339Z" stroke="white" stroke-width="2"/>
    <path d="M7.53606 9.54105C7.77801 4.91639 11.7174 1.36381 16.3349 1.60618L263.671 14.5888C266.749 14.7504 269.114 17.3808 268.953 20.4639L267.2 53.9589L5.92944 40.2448L7.53606 9.54105Z" fill="#242B30"/>
    <path fill-rule="evenodd" clip-rule="evenodd" d="M37.5734 19.4384C37.5978 18.972 37.24 18.5746 36.7749 18.5502L27.4557 18.0651C25.3721 17.9559 23.5944 19.559 23.4852 21.646L23.0009 30.9759C22.9766 31.4429 23.335 31.8393 23.7994 31.8637L36.0446 32.5064C36.5088 32.5308 36.907 32.1742 36.9315 31.707L37.5734 19.4384ZM34.954 20.8507C35.886 20.4697 36.5499 19.9599 36.8668 19.1911L27.4229 18.6973C25.6889 18.6063 24.2096 19.9404 24.1187 21.6771L24.0414 23.1652C24.2521 23.0154 24.4628 22.8807 24.6728 22.7619L24.7034 22.7438C25.0135 22.5553 25.3435 22.4019 25.712 22.2749C26.815 21.8944 28.0681 21.8269 29.3946 21.7556L29.3986 21.7554C29.6705 21.7408 29.9513 21.7257 30.2359 21.7075C31.5001 21.6264 33.3323 21.4176 34.8835 20.8827L34.954 20.8507ZM29.4745 23.0419H29.4745C29.7473 23.0272 30.0291 23.0121 30.3178 22.9935C31.6605 22.9074 33.6148 22.6828 35.301 22.1014C35.8707 21.9048 36.3117 21.6855 36.8387 21.3427L36.2982 31.6729C36.2922 31.7887 36.1935 31.8781 36.0778 31.872L23.8327 31.2292C23.7171 31.2232 23.6283 31.124 23.6343 31.0082L23.9513 24.9026C24.2854 24.5907 24.7675 24.187 25.3077 23.882L25.3568 23.8533L25.3654 23.8481C25.5973 23.7068 25.8472 23.5908 26.1295 23.4935C27.0628 23.1715 28.2288 23.1088 29.4634 23.0424L29.4745 23.0419ZM33.7296 29.3257C33.627 29.4251 33.5128 29.4715 33.3867 29.4648L33.0082 29.445L33.0746 28.1766L33.453 28.1964C33.5792 28.2031 33.6879 28.2625 33.7794 28.3743C33.8709 28.4863 33.9113 28.6444 33.9006 28.8485C33.8892 29.0672 33.8322 29.2263 33.7296 29.3257ZM33.7786 27.1353C33.7003 27.236 33.5908 27.2826 33.4502 27.2752L33.1226 27.258L33.1783 26.1938L33.5059 26.211C33.6465 26.2184 33.7505 26.2775 33.8177 26.3882C33.885 26.499 33.9147 26.6271 33.907 26.7729C33.8997 26.914 33.8569 27.0347 33.7786 27.1353ZM26.6462 28.1534L27.133 25.9642L27.1475 25.965L27.4031 28.1931L26.6462 28.1534ZM29.6634 30.1173C29.7495 30.1901 29.9134 30.2625 30.227 30.279L31.5777 30.3494L33.6485 30.4581C33.9298 30.4728 34.172 30.4478 34.375 30.3829C34.5778 30.3181 34.7447 30.2208 34.8756 30.0912C35.0064 29.9616 35.106 29.8036 35.1741 29.6172C35.2422 29.4307 35.2821 29.2256 35.2938 29.002C35.3009 28.8661 35.2898 28.7303 35.2604 28.5946C35.231 28.4592 35.1804 28.3334 35.1086 28.2174C35.0368 28.1017 34.9422 28.003 34.825 27.9211C34.7075 27.8396 34.5643 27.7869 34.3953 27.7634L34.396 27.7489C34.5431 27.7273 34.6696 27.6828 34.7753 27.6152C34.881 27.5477 34.9694 27.4635 35.0402 27.3624C35.1113 27.2614 35.1658 27.1473 35.2042 27.0201C35.2424 26.893 35.2652 26.7614 35.2723 26.6252C35.2929 26.2317 35.194 25.911 34.9759 25.6632C34.7578 25.4154 34.4059 25.2788 33.9209 25.2533L31.8811 25.1462L31.6566 29.4764L31.067 29.4454C30.9602 29.4397 30.8825 29.4126 30.834 29.3637C30.7855 29.3149 30.7642 29.2347 30.7701 29.1228L30.8685 27.2421L31.3852 27.2692L31.4313 26.3872L30.9146 26.36L30.9752 25.201L29.6651 25.1322L29.6045 26.2913L28.29 26.2222L28.0474 24.945L26.3443 24.8556L24.8275 29.9951L26.2466 30.0695L26.4326 29.1655L27.5098 29.2221L27.6004 30.1406L29.0414 30.2162L28.4552 27.1154L29.5583 27.1733L29.4485 29.2727C29.4371 29.4914 29.4484 29.6687 29.4826 29.8044C29.517 29.9403 29.5772 30.0446 29.6634 30.1173Z" fill="white"/>
    <path d="M113.284 34.6649L114.927 34.7512L115.078 31.8727L116.423 31.9432L117.736 34.8986L119.598 34.9963L118.106 31.7856C119.023 31.4784 119.591 30.639 119.644 29.6305L119.644 29.6196C119.725 28.0713 118.751 27.0636 116.966 26.9699L113.695 26.7981L113.284 34.6649ZM115.141 30.6733L115.271 28.171L116.697 28.2459C117.519 28.289 118 28.8062 117.96 29.564L117.96 29.5749C117.919 30.349 117.41 30.7925 116.589 30.7493L115.141 30.6733Z" fill="white"/>
    <path d="M123.082 35.3048C124.835 35.3968 125.661 34.4234 125.885 33.6808L125.899 33.6268L124.418 33.5491L124.4 33.581C124.279 33.8042 123.873 34.1547 123.177 34.118C122.333 34.0738 121.835 33.4736 121.87 32.4861L125.996 32.7026L126.022 32.2065C126.117 30.3911 125.091 29.1346 123.344 29.0429C121.597 28.9512 120.417 30.1192 120.317 32.0273L120.316 32.0328C120.216 33.9572 121.258 35.2091 123.082 35.3048ZM123.309 30.2382C124 30.2745 124.472 30.7475 124.524 31.625L121.939 31.4893C122.082 30.6439 122.617 30.2019 123.309 30.2382Z" fill="white"/>
    <path d="M128.117 28.5008C128.606 28.5266 129.03 28.1552 129.056 27.6646C129.082 27.1684 128.699 26.7548 128.209 26.729C127.72 26.7033 127.291 27.0744 127.265 27.5705C127.239 28.0612 127.627 28.4751 128.117 28.5008ZM126.954 35.3825L128.544 35.4659L128.858 29.4636L127.268 29.3802L126.954 35.3825Z" fill="white"/>
    <path d="M132.306 35.7891C133.841 35.8697 134.976 35.1529 135.038 33.9645L135.038 33.959C135.085 33.0704 134.55 32.5394 133.366 32.2203L132.382 31.9554C131.768 31.7865 131.554 31.5895 131.571 31.2678L131.572 31.2624C131.593 30.859 131.998 30.6233 132.548 30.6522C133.141 30.6833 133.479 31.0017 133.55 31.3279L133.554 31.3555L135.029 31.4329L135.029 31.4111C135.015 30.4427 134.185 29.612 132.612 29.5294C131.115 29.4508 130.074 30.1506 130.015 31.2791V31.2845C129.968 32.1841 130.504 32.7753 131.634 33.0807L132.625 33.3458C133.228 33.5141 133.457 33.7284 133.44 34.0501L133.439 34.061C133.418 34.4589 132.991 34.6989 132.382 34.6669C131.755 34.634 131.405 34.3477 131.299 33.9705L131.289 33.9481L129.727 33.8661L129.731 33.8882C129.792 34.9246 130.679 35.7036 132.306 35.7891Z" fill="white"/>
    <path d="M138.654 36.1223C140.407 36.2143 141.233 35.2408 141.457 34.4983L141.471 34.4443L139.991 34.3666L139.973 34.3985C139.852 34.6217 139.446 34.9721 138.749 34.9356C137.906 34.8913 137.407 34.2911 137.443 33.3035L141.568 33.5201L141.595 33.024C141.69 31.2086 140.664 29.9521 138.917 29.8604C137.17 29.7686 135.989 30.9367 135.889 32.8448V32.8502C135.788 34.7747 136.831 36.0266 138.654 36.1223ZM138.882 31.0557C139.572 31.092 140.045 31.565 140.097 32.4424L137.511 32.3067C137.654 31.4614 138.19 31.0194 138.882 31.0557Z" fill="white"/>
    <path d="M144.895 36.4497C146.429 36.5302 147.564 35.8136 147.626 34.6251L147.627 34.6197C147.673 33.731 147.138 33.2 145.954 32.881L144.969 32.6161C144.356 32.4472 144.142 32.2501 144.159 31.9285L144.16 31.923C144.181 31.5196 144.586 31.2839 145.136 31.3128C145.729 31.344 146.067 31.6624 146.138 31.9886L146.141 32.0161L147.617 32.0935L147.618 32.0717C147.603 31.1034 146.773 30.2726 145.2 30.1901C143.703 30.1115 142.662 30.8112 142.603 31.9397L142.603 31.9452C142.556 32.8447 143.092 33.4359 144.223 33.7412L145.213 34.0065C145.815 34.1748 146.044 34.389 146.028 34.7107V34.7216C146.007 35.1196 145.579 35.3595 144.969 35.3275C144.343 35.2947 143.992 35.0084 143.887 34.6311L143.877 34.6088L142.315 34.5267L142.319 34.5488C142.379 35.5851 143.267 36.3643 144.895 36.4497Z" fill="white"/>
    <path d="M151.264 36.7841C153.094 36.88 154.255 35.7657 154.356 33.814L154.357 33.8031C154.398 33.0071 154.243 32.3266 153.922 31.7959L154.658 31.0583L154.032 30.4186L153.324 31.1248C152.872 30.7787 152.288 30.5676 151.592 30.531C149.785 30.4362 148.601 31.5658 148.5 33.4957L148.499 33.5066C148.458 34.3134 148.608 34.9936 148.929 35.5244L148.203 36.2516L148.83 36.8914L149.527 36.1954C149.973 36.5413 150.562 36.7472 151.264 36.7841ZM150.061 33.594L150.062 33.5831C150.124 32.4001 150.667 31.7179 151.527 31.7631C151.859 31.7806 152.137 31.8989 152.344 32.1067L150.103 34.3506C150.061 34.1242 150.047 33.872 150.061 33.594ZM151.328 35.5575C150.992 35.5397 150.714 35.4213 150.506 35.2136L152.758 32.9648C152.801 33.1911 152.815 33.4488 152.8 33.7268L152.799 33.7377C152.737 34.9262 152.205 35.6035 151.328 35.5575Z" fill="white"/>
    <path d="M155.366 36.8736L156.955 36.957L157.06 34.9454L157.52 34.5048L159.138 37.0716L161.016 37.1701L158.736 33.5847L161.172 31.1596L159.37 31.0651L157.243 33.3314L157.146 33.3262L157.39 28.6596L155.8 28.5762L155.366 36.8736Z" fill="white"/>
    <path d="M240.222 34.0462C240.282 32.89 241.267 32.0019 242.422 32.0625L249.389 32.4282C250.543 32.4888 251.429 33.4752 251.369 34.6314L251.15 38.8183C251.089 39.9745 250.104 40.8626 248.95 40.8019L247.845 40.744L245.342 43.0016L245.467 40.6192L241.983 40.4363C240.829 40.3757 239.942 39.3893 240.003 38.2331L240.222 34.0462Z" fill="white"/>
    <path d="M194.713 153.121C194.686 153.34 194.6 153.54 194.471 153.71C194.42 153.837 194.353 153.962 194.271 154.081L189.021 161.634C188.511 162.366 187.584 162.608 186.951 162.174C186.317 161.739 186.216 160.792 186.725 160.06L190.903 154.05L183.763 153.176C182.874 153.067 182.229 152.364 182.324 151.605C182.418 150.846 183.216 150.319 184.105 150.428L193.273 151.55C194.163 151.659 194.808 152.362 194.713 153.121Z" fill="#A2AD00"/>
    <path d="M152.771 194.723C152.267 195.552 151.185 195.837 150.354 195.36C149.522 194.882 149.257 193.823 149.76 192.994C150.397 191.946 150.754 190.634 150.732 189.109C150.719 188.153 151.496 187.35 152.468 187.315C153.44 187.281 154.239 188.028 154.252 188.984C154.282 191.071 153.793 193.041 152.771 194.723Z" fill="#A2AD00"/>
    <path d="M144.315 196.113C145.283 196.005 146.14 196.687 146.229 197.638C146.317 198.588 145.604 199.447 144.636 199.555C143.729 199.657 142.775 199.677 141.78 199.612C140.257 199.513 138.851 199.099 137.623 198.403C136.789 197.93 136.519 196.872 137.018 196.041C137.517 195.209 138.598 194.919 139.432 195.392C140.181 195.817 141.07 196.089 142.089 196.155C142.892 196.207 143.633 196.19 144.315 196.113Z" fill="#A2AD00"/>
    <path d="M151.628 180.631C152.12 181.445 151.839 182.512 151.001 183.015C150.163 183.518 149.085 183.265 148.593 182.451C148.213 181.823 147.78 181.188 147.29 180.551C147.277 180.534 147.265 180.518 147.252 180.501C147.22 180.459 147.188 180.418 147.155 180.375L147.153 180.373C146.706 179.789 146.192 179.119 145.566 178.394C144.944 177.672 145.045 176.578 145.791 175.949C146.538 175.321 147.648 175.396 148.27 176.117C148.964 176.921 149.535 177.666 149.98 178.247C150.017 178.295 150.053 178.342 150.088 178.387C150.097 178.399 150.106 178.411 150.115 178.423C150.677 179.155 151.182 179.893 151.628 180.631Z" fill="#A2AD00"/>
    <path d="M180.022 156.124C180.964 155.869 181.921 156.41 182.159 157.332C182.398 158.255 181.826 159.208 180.884 159.463C178.997 159.974 177.101 160.514 175.215 161.085C174.28 161.367 173.306 160.855 173.04 159.941C172.774 159.027 173.315 158.057 174.25 157.775C176.172 157.193 178.102 156.643 180.022 156.124Z" fill="#A2AD00"/>
    <path d="M136.714 187.28C136.51 188.22 135.575 188.836 134.624 188.658C133.674 188.478 133.068 187.571 133.271 186.631C133.763 184.353 134.804 181.946 136.45 179.518C136.995 178.715 138.089 178.483 138.894 179.002C139.699 179.521 139.91 180.592 139.365 181.397C137.94 183.499 137.1 185.494 136.714 187.28Z" fill="#A2AD00"/>
    <path d="M165.114 160.809C166.031 160.474 167.035 160.928 167.356 161.824C167.676 162.72 167.193 163.718 166.275 164.054C164.4 164.739 162.572 165.453 160.81 166.193C159.909 166.572 158.883 166.166 158.518 165.288C158.154 164.409 158.588 163.39 159.489 163.012C161.31 162.246 163.192 161.512 165.114 160.809Z" fill="#A2AD00"/>
    <path d="M150.723 167.238C151.576 166.76 152.645 167.043 153.113 167.872C153.58 168.7 153.267 169.76 152.415 170.238C151.554 170.722 150.73 171.213 149.946 171.709C148.917 172.362 147.956 173.022 147.059 173.684C146.273 174.265 145.173 174.119 144.6 173.359C144.028 172.598 144.2 171.511 144.986 170.931C145.954 170.215 146.987 169.507 148.087 168.809C148.93 168.274 149.81 167.751 150.723 167.238Z" fill="#A2AD00"/>
    <path d="M140.514 170.072C141.381 170.484 141.73 171.518 141.291 172.381C140.853 173.245 139.794 173.61 138.926 173.198C137.473 172.507 135.799 171.945 133.867 171.615C132.913 171.452 132.291 170.556 132.478 169.612C132.665 168.67 133.59 168.038 134.544 168.201C136.804 168.587 138.783 169.248 140.514 170.072Z" fill="#A2AD00"/>
    <path d="M124.657 168.272C125.619 168.118 126.51 168.758 126.645 169.702C126.781 170.646 126.111 171.537 125.148 171.692C123.459 171.963 121.641 172.382 119.682 172.979C118.748 173.263 117.773 172.753 117.505 171.839C117.236 170.926 117.776 169.955 118.71 169.67C120.814 169.03 122.794 168.572 124.657 168.272Z" fill="#A2AD00"/>
    <path d="M109.714 173.216C110.596 172.796 111.642 173.152 112.049 174.012C112.457 174.871 112.071 175.908 111.189 176.328C109.559 177.104 107.858 177.983 106.082 178.976C105.228 179.453 104.159 179.167 103.694 178.338C103.228 177.508 103.542 176.45 104.395 175.973C106.237 174.943 108.008 174.027 109.714 173.216Z" fill="#A2AD00"/>
</svg>
