<svg width="239" height="320" viewBox="0 0 239 320" fill="none" xmlns="http://www.w3.org/2000/svg">
<rect x="0.142578" y="20.7563" width="215" height="256.04" rx="8" transform="rotate(-5.54 0.142578 20.7563)" fill="#555E65"/>
<g clip-path="url(#clip0_1185_4679)">
<path d="M222.671 11.6633L23.9873 0.450754C19.576 0.20181 15.7982 3.57603 15.5492 7.98729L2.02662 247.606C1.77767 252.017 5.15189 255.795 9.56315 256.044L208.247 267.257C212.658 267.506 216.436 264.131 216.685 259.72L230.208 20.1013C230.457 15.6901 227.082 11.9122 222.671 11.6633Z" fill="#EDE7DB"/>
<path d="M54.8658 221.996C67.3518 222.701 78.0449 213.15 78.7495 200.664C79.4541 188.178 69.9035 177.485 57.4175 176.78C44.9315 176.076 34.2384 185.627 33.5337 198.113C32.8291 210.599 42.3798 221.292 54.8658 221.996Z" fill="#C9CF6B"/>
<path d="M14.3259 84.4375C12.1742 86.7254 11.5603 90.0607 12.7564 92.9647L30.0573 134.972C31.4952 138.463 35.1782 140.473 38.8924 139.795L68.3787 134.407C73.3223 133.504 76.2186 128.32 74.3962 123.636L70.9437 114.764C69.501 111.056 71.002 106.851 74.4667 104.896L146.276 64.3619C150.248 62.1201 151.545 57.0169 149.125 53.151L112.523 -5.33315C109.741 -9.77826 103.507 -10.3897 99.9141 -6.56973L14.3259 84.4375Z" fill="#C9CF6B"/>
<path d="M106.995 -14.0974L227.814 178.542" stroke="white" stroke-width="4" stroke-linecap="round" stroke-linejoin="round"/>
<path d="M153.566 60.2471L74.4662 104.896C71.0015 106.852 69.5005 111.056 70.9432 114.764L74.3957 123.636C76.2181 128.32 73.3218 133.504 68.3782 134.407L32.5226 140.959" stroke="white" stroke-width="4" stroke-linecap="round" stroke-linejoin="round"/>
<path d="M70.0003 134L199.783 133.847" stroke="white" stroke-width="4" stroke-linecap="round" stroke-linejoin="round"/>
<path d="M-3.74707 -46.675L84.207 10.1328" stroke="white" stroke-width="4" stroke-linecap="round" stroke-linejoin="round"/>
<path d="M-43.6351 184.756L38.9996 159" stroke="white" stroke-width="4" stroke-linecap="round" stroke-linejoin="round"/>
<path d="M128.5 134.5L130.922 189.416C130.947 189.994 131.035 190.567 131.185 191.126L167.091 325.668" stroke="white" stroke-width="4" stroke-linecap="round" stroke-linejoin="round"/>
<path d="M276.275 -18.6941L131.386 24.7917" stroke="white" stroke-width="4" stroke-linecap="round" stroke-linejoin="round"/>
<path d="M184.943 8.71729L204.732 103.023" stroke="white" stroke-width="4" stroke-linecap="round" stroke-linejoin="round"/>
<path d="M-239.211 185.216C-239.211 185.216 -239.211 185.216 -239.211 185.216C-233.115 186.166 -227.062 187.511 -221.137 189.303C-215.212 191.093 -209.412 193.314 -203.828 195.959C-198.251 198.617 -192.879 201.66 -187.752 205.016C-182.642 208.393 -177.758 212.053 -173.106 215.92L-171.374 217.382C-171.087 217.627 -170.794 217.867 -170.511 218.116L-169.661 218.859L-167.96 220.347L-166.289 221.857L-165.453 222.612L-164.63 223.377L-162.986 224.907L-161.365 226.453C-160.825 226.969 -160.283 227.483 -159.755 228.006L-158.159 229.568C-157.627 230.089 -157.107 230.616 -156.581 231.139C-155.524 232.184 -154.497 233.245 -153.457 234.297C-151.394 236.412 -149.35 238.532 -147.334 240.654L-144.316 243.832L-141.321 246.993C-139.357 249.058 -137.375 251.1 -135.372 253.117C-133.368 255.131 -131.347 257.125 -129.298 259.082C-127.251 261.043 -125.186 262.978 -123.095 264.879C-114.739 272.488 -106.034 279.618 -97.018 286.103C-92.5077 289.34 -87.9221 292.419 -83.2539 295.283C-78.5887 298.152 -73.8375 300.798 -69.014 303.177C-67.8055 303.765 -66.5958 304.346 -65.3792 304.9L-64.4672 305.316L-63.552 305.72C-62.9425 305.993 -62.3295 306.249 -61.7179 306.513C-59.2675 307.549 -56.7978 308.495 -54.3125 309.35C-51.8272 310.207 -49.3232 310.951 -46.811 311.596C-46.1833 311.764 -45.5532 311.905 -44.9247 312.058C-44.6106 312.137 -44.2947 312.2 -43.9801 312.27C-43.6654 312.338 -43.35 312.411 -43.0351 312.476L-42.0892 312.665L-41.6162 312.761L-41.1428 312.847L-40.1959 313.019C-39.8805 313.075 -39.5646 313.123 -39.249 313.175C-37.9857 313.386 -36.7222 313.547 -35.4582 313.698C-34.1948 313.829 -32.9309 313.952 -31.6693 314.02C-30.4069 314.105 -29.1475 314.134 -27.8893 314.155C-26.6326 314.154 -25.3762 314.143 -24.1254 314.075C-22.8729 314.024 -21.627 313.917 -20.3831 313.8L-19.4522 313.692C-19.1421 313.655 -18.8307 313.626 -18.5227 313.578C-17.9052 313.489 -17.285 313.413 -16.6708 313.305C-14.2081 312.903 -11.7634 312.383 -9.35702 311.698C-6.9492 311.019 -4.57116 310.211 -2.23236 309.269C0.107122 308.33 2.40441 307.248 4.65946 306.054C9.16884 303.664 13.4978 300.796 17.6212 297.551C21.7437 294.306 25.6672 290.696 29.3846 286.811C31.2392 284.863 33.0495 282.855 34.8111 280.789L35.47 280.012C35.6894 279.752 35.9104 279.495 36.1248 279.23L37.4204 277.649C38.2697 276.58 39.1249 275.516 39.9525 274.423L40.5783 273.609C40.7886 273.338 40.9888 273.059 41.1957 272.786L42.4248 271.133L44.9652 267.618C46.8065 265.092 48.7332 262.633 50.7398 260.244C52.7505 257.859 54.8478 255.553 57.0125 253.316C59.1797 251.083 61.4129 248.917 63.7212 246.841C72.9524 238.531 83.224 231.49 94.1333 225.812C96.8609 224.393 99.6239 223.048 102.426 221.795C105.228 220.543 108.064 219.375 110.926 218.282L112.001 217.877C112.359 217.743 112.716 217.604 113.078 217.478L115.24 216.705L117.414 215.968L117.957 215.784L118.504 215.609L119.596 215.261C122.512 214.338 125.451 213.494 128.408 212.732C134.325 211.222 140.314 210.012 146.349 209.162L147.48 208.999L148.613 208.852L149.747 208.707L150.313 208.634L150.88 208.571L153.151 208.32L155.425 208.105C158.458 207.839 161.496 207.651 164.538 207.542C167.578 207.435 170.621 207.415 173.661 207.467L174.801 207.491C175.181 207.498 175.561 207.505 175.941 207.521L178.22 207.607C179.738 207.686 181.257 207.761 182.773 207.878C185.804 208.1 188.831 208.388 191.845 208.775C194.86 209.158 197.865 209.61 200.857 210.141C206.746 211.199 212.63 212.449 218.49 213.988C221.419 214.758 224.342 215.602 227.253 216.529L228.345 216.879L229.433 217.244C230.16 217.481 230.885 217.736 231.609 217.989L232.153 218.178L232.694 218.375L233.777 218.769C234.5 219.032 235.219 219.313 235.94 219.582C240.044 221.114 242.13 225.681 240.599 229.786C239.068 233.889 234.5 235.975 230.395 234.444C230.341 234.424 230.287 234.402 230.234 234.382L230.059 234.311C229.43 234.057 228.804 233.798 228.171 233.552L227.221 233.186L226.745 233.004L226.265 232.829C225.625 232.595 224.987 232.358 224.34 232.136L223.373 231.8L222.399 231.476C219.801 230.615 217.16 229.836 214.49 229.127C209.149 227.708 203.686 226.57 198.165 225.634C195.448 225.182 192.719 224.803 189.983 224.497L187.929 224.28L185.872 224.101L185.357 224.057L184.842 224.021L183.812 223.948L182.782 223.876L181.751 223.821C180.377 223.738 179.001 223.695 177.627 223.646L175.563 223.605C175.219 223.595 174.875 223.595 174.531 223.594L173.5 223.591C170.748 223.592 167.997 223.652 165.251 223.805C162.505 223.959 159.765 224.182 157.033 224.476L154.986 224.71L152.943 224.977L152.432 225.044L151.923 225.119L150.904 225.27L149.886 225.422L148.871 225.59C143.451 226.475 138.092 227.684 132.816 229.152C122.276 232.133 112.083 236.259 102.581 241.545C93.0702 246.808 84.2491 253.216 76.4468 260.617C74.4945 262.466 72.6176 264.386 70.8014 266.357C68.9878 268.33 67.2389 270.359 65.5679 272.447C63.8995 274.536 62.3048 276.678 60.7867 278.871L58.3233 282.46C57.8883 283.084 57.4447 283.704 57.0054 284.327C56.5695 284.951 56.1157 285.565 55.6644 286.181C54.7704 287.418 53.8386 288.634 52.9121 289.853L51.4941 291.665C51.2598 291.968 51.0162 292.266 50.7743 292.565L50.0487 293.461C48.1041 295.845 46.092 298.192 43.9941 300.478C41.8937 302.764 39.709 304.993 37.4399 307.155C35.1691 309.316 32.812 311.411 30.3552 313.414C25.4465 317.421 20.1465 321.076 14.4621 324.195C13.0438 324.978 11.5955 325.717 10.1326 326.43C9.951 326.521 9.76695 326.608 9.58121 326.694L9.02745 326.952L7.91818 327.467L6.7953 327.958L6.23348 328.203L5.95216 328.324L5.66851 328.441C2.64911 329.699 -0.448112 330.804 -3.60661 331.728C-3.99995 331.849 -4.39778 331.955 -4.79399 332.064L-5.98519 332.39L-7.1837 332.688C-7.58367 332.786 -7.98232 332.891 -8.38517 332.977C-9.18939 333.154 -9.99168 333.344 -10.8016 333.496L-12.0144 333.735L-13.2326 333.946C-14.044 334.094 -14.8596 334.205 -15.6748 334.328C-16.0818 334.392 -16.4911 334.437 -16.9001 334.49C-17.3088 334.54 -17.7169 334.594 -18.1264 334.641C-19.7634 334.813 -21.4029 334.966 -23.0444 335.046C-24.6852 335.144 -26.3264 335.172 -27.9649 335.181C-29.6021 335.169 -31.2391 335.138 -32.868 335.041C-34.4987 334.961 -36.1203 334.814 -37.7376 334.651C-39.3511 334.47 -40.9609 334.269 -42.557 334.012C-42.9558 333.948 -43.3557 333.888 -43.7534 333.82L-44.9443 333.609L-45.5401 333.502L-46.1327 333.386L-47.317 333.151C-47.7114 333.071 -48.1026 332.982 -48.495 332.899C-48.8864 332.812 -49.2816 332.732 -49.6699 332.637C-50.4492 332.452 -51.2318 332.275 -52.0049 332.073C-55.1059 331.29 -58.1592 330.382 -61.1511 329.354C-64.1439 328.328 -67.0881 327.206 -69.9679 325.974C-70.6854 325.663 -71.4088 325.361 -72.1184 325.035L-73.1864 324.554L-74.2467 324.061C-75.6623 323.405 -77.0547 322.715 -78.4414 322.017C-83.9709 319.198 -89.2797 316.068 -94.3727 312.693C-99.4705 309.325 -104.355 305.714 -109.067 301.941C-118.487 294.387 -127.201 286.177 -135.485 277.669C-139.628 273.414 -143.659 269.078 -147.613 264.693C-149.589 262.499 -151.546 260.295 -153.484 258.078L-156.342 254.816C-157.292 253.737 -158.244 252.66 -159.196 251.592C-160.148 250.519 -161.107 249.464 -162.063 248.404C-162.539 247.872 -163.024 247.355 -163.504 246.829C-163.987 246.308 -164.465 245.779 -164.949 245.262C-165.917 244.227 -166.885 243.189 -167.864 242.173C-168.353 241.665 -168.838 241.148 -169.33 240.645L-170.808 239.136C-171.298 238.63 -171.797 238.137 -172.294 237.642C-172.792 237.148 -173.287 236.651 -173.787 236.16L-175.297 234.703L-176.052 233.974L-176.816 233.26L-178.344 231.832L-179.891 230.434L-180.664 229.736C-180.922 229.503 -181.186 229.28 -181.447 229.052L-183.017 227.689C-183.276 227.459 -183.545 227.243 -183.809 227.02L-184.605 226.358L-185.402 225.695C-185.535 225.585 -185.666 225.473 -185.8 225.365L-186.204 225.043L-187.82 223.755L-188.224 223.433C-188.359 223.325 -188.497 223.224 -188.634 223.12L-189.454 222.498L-190.274 221.875C-190.549 221.67 -190.818 221.454 -191.098 221.258L-192.766 220.057C-193.044 219.858 -193.32 219.654 -193.6 219.458L-194.446 218.881L-196.14 217.727C-200.693 214.72 -205.421 212.036 -210.314 209.733C-220.11 205.158 -230.588 202.18 -241.352 200.93C-245.704 200.425 -248.821 196.488 -248.316 192.136C-247.811 187.785 -243.874 184.668 -239.522 185.173C-239.43 185.184 -239.339 185.196 -239.249 185.21L-239.211 185.215C-239.211 185.215 -239.211 185.216 -239.211 185.216V185.216Z" fill="#A6D1D9"/>
<path d="M-32.5223 402.216L46.2657 221.906" stroke="white" stroke-width="4" stroke-linecap="round" stroke-linejoin="round"/>
<path d="M80.5478 196.419L284.516 171.682" stroke="white" stroke-width="4" stroke-linecap="round" stroke-linejoin="round"/>
<path d="M10.7923 88.1952L170.86 -82.0045" stroke="white" stroke-width="4" stroke-linecap="round" stroke-linejoin="round"/>
<path d="M54.7565 223.932C68.3113 224.697 79.9198 214.328 80.6847 200.774C81.4497 187.219 71.0814 175.61 57.5266 174.845C43.9718 174.08 32.3633 184.449 31.5983 198.003C30.8334 211.558 41.2016 223.167 54.7565 223.932Z" stroke="white" stroke-width="4" stroke-linecap="round" stroke-linejoin="round"/>
<path d="M-84.5166 138.237L27.275 265.369" stroke="white" stroke-width="4" stroke-linecap="round" stroke-linejoin="round"/>
<path d="M-24.4746 0.763672L46.8948 176.606" stroke="white" stroke-width="4" stroke-linecap="round" stroke-linejoin="round"/>
<path d="M57.7973 73.1098C59.3925 81.0283 71.9952 84.2361 81.6659 80.1929C90.0244 76.6987 94.3509 66.5243 102.145 62.9047C109.938 59.2851 131.891 54.9643 126.46 44.8622C121.03 34.7601 95.8023 22.0406 84.9774 32.4608C78.7783 38.4278 75.4686 52.3979 68.1383 57.1909C60.8079 61.9839 56.1428 64.8975 57.7973 73.1098Z" fill="#A6D1D9"/>
<path d="M187.026 113.506L235.761 84.6532" stroke="white" stroke-width="4" stroke-linecap="round" stroke-linejoin="round"/>
</g>
<rect x="155.895" y="200.313" width="44" height="44" rx="8" transform="rotate(3.23 155.895 200.313)" fill="white"/>
<mask id="path-24-outside-1_1185_4679" maskUnits="userSpaceOnUse" x="167.19" y="214.914" width="18.8729" height="16.9888" fill="black">
<rect fill="white" x="167.19" y="214.914" width="18.8729" height="16.9888"/>
<path d="M181.994 225.91C181.979 225.91 181.966 225.913 181.951 225.912L180.768 217.419C180.692 216.951 180.31 216.605 179.838 216.579L178.242 216.488C177.966 216.473 177.73 216.685 177.714 216.962C177.699 217.239 177.909 217.476 178.185 217.492L179.781 217.582L180.456 222.953L177.273 227.423C177.173 227.564 177.01 227.642 176.838 227.632L173.343 227.435C173.176 226.278 172.216 225.359 171.011 225.29C169.635 225.213 168.452 226.275 168.374 227.658C168.295 229.041 169.352 230.229 170.728 230.307C171.933 230.375 172.991 229.569 173.287 228.438L176.782 228.635C177.298 228.665 177.785 228.43 178.086 228.007L180.684 224.358L180.964 226.076C180.072 226.419 179.414 227.259 179.356 228.278C179.278 229.661 180.334 230.849 181.711 230.927C183.087 231.004 184.27 229.942 184.348 228.559C184.426 227.176 183.37 225.988 181.994 225.91ZM170.785 229.304C169.959 229.257 169.325 228.544 169.372 227.714C169.419 226.884 170.128 226.247 170.954 226.294C171.604 226.33 172.13 226.782 172.303 227.376L170.898 227.297C170.622 227.281 170.386 227.494 170.37 227.77C170.355 228.047 170.565 228.285 170.841 228.3L172.247 228.38C172.007 228.951 171.435 229.34 170.785 229.304ZM181.767 229.923C180.941 229.877 180.308 229.164 180.354 228.334C180.385 227.798 180.694 227.345 181.131 227.102L181.358 228.5C181.397 228.737 181.595 228.907 181.823 228.92C181.859 228.922 181.896 228.92 181.933 228.914C182.205 228.869 182.39 228.611 182.346 228.337L182.119 226.943C182.852 227.076 183.393 227.736 183.35 228.503C183.303 229.333 182.593 229.97 181.767 229.923Z"/>
</mask>
<path d="M181.994 225.91C181.979 225.91 181.966 225.913 181.951 225.912L180.768 217.419C180.692 216.951 180.31 216.605 179.838 216.579L178.242 216.488C177.966 216.473 177.73 216.685 177.714 216.962C177.699 217.239 177.909 217.476 178.185 217.492L179.781 217.582L180.456 222.953L177.273 227.423C177.173 227.564 177.01 227.642 176.838 227.632L173.343 227.435C173.176 226.278 172.216 225.359 171.011 225.29C169.635 225.213 168.452 226.275 168.374 227.658C168.295 229.041 169.352 230.229 170.728 230.307C171.933 230.375 172.991 229.569 173.287 228.438L176.782 228.635C177.298 228.665 177.785 228.43 178.086 228.007L180.684 224.358L180.964 226.076C180.072 226.419 179.414 227.259 179.356 228.278C179.278 229.661 180.334 230.849 181.711 230.927C183.087 231.004 184.27 229.942 184.348 228.559C184.426 227.176 183.37 225.988 181.994 225.91ZM170.785 229.304C169.959 229.257 169.325 228.544 169.372 227.714C169.419 226.884 170.128 226.247 170.954 226.294C171.604 226.33 172.13 226.782 172.303 227.376L170.898 227.297C170.622 227.281 170.386 227.494 170.37 227.77C170.355 228.047 170.565 228.285 170.841 228.3L172.247 228.38C172.007 228.951 171.435 229.34 170.785 229.304ZM181.767 229.923C180.941 229.877 180.308 229.164 180.354 228.334C180.385 227.798 180.694 227.345 181.131 227.102L181.358 228.5C181.397 228.737 181.595 228.907 181.823 228.92C181.859 228.922 181.896 228.92 181.933 228.914C182.205 228.869 182.39 228.611 182.346 228.337L182.119 226.943C182.852 227.076 183.393 227.736 183.35 228.503C183.303 229.333 182.593 229.97 181.767 229.923Z" fill="black"/>
<path d="M181.994 225.91C181.979 225.91 181.966 225.913 181.951 225.912L180.768 217.419C180.692 216.951 180.31 216.605 179.838 216.579L178.242 216.488C177.966 216.473 177.73 216.685 177.714 216.962C177.699 217.239 177.909 217.476 178.185 217.492L179.781 217.582L180.456 222.953L177.273 227.423C177.173 227.564 177.01 227.642 176.838 227.632L173.343 227.435C173.176 226.278 172.216 225.359 171.011 225.29C169.635 225.213 168.452 226.275 168.374 227.658C168.295 229.041 169.352 230.229 170.728 230.307C171.933 230.375 172.991 229.569 173.287 228.438L176.782 228.635C177.298 228.665 177.785 228.43 178.086 228.007L180.684 224.358L180.964 226.076C180.072 226.419 179.414 227.259 179.356 228.278C179.278 229.661 180.334 230.849 181.711 230.927C183.087 231.004 184.27 229.942 184.348 228.559C184.426 227.176 183.37 225.988 181.994 225.91ZM170.785 229.304C169.959 229.257 169.325 228.544 169.372 227.714C169.419 226.884 170.128 226.247 170.954 226.294C171.604 226.33 172.13 226.782 172.303 227.376L170.898 227.297C170.622 227.281 170.386 227.494 170.37 227.77C170.355 228.047 170.565 228.285 170.841 228.3L172.247 228.38C172.007 228.951 171.435 229.34 170.785 229.304ZM181.767 229.923C180.941 229.877 180.308 229.164 180.354 228.334C180.385 227.798 180.694 227.345 181.131 227.102L181.358 228.5C181.397 228.737 181.595 228.907 181.823 228.92C181.859 228.922 181.896 228.92 181.933 228.914C182.205 228.869 182.39 228.611 182.346 228.337L182.119 226.943C182.852 227.076 183.393 227.736 183.35 228.503C183.303 229.333 182.593 229.97 181.767 229.923Z" stroke="black" stroke-width="0.4" mask="url(#path-24-outside-1_1185_4679)"/>
<rect x="155.895" y="200.313" width="44" height="44" rx="8" transform="rotate(3.23 155.895 200.313)" stroke="#A9AEB1" stroke-width="3"/>
<path d="M152.083 241.83C152.104 242.092 152.052 242.344 151.942 242.574C151.913 242.734 151.865 242.895 151.798 243.053L147.496 253.1C147.078 254.075 146.057 254.579 145.216 254.224C144.374 253.87 144.03 252.793 144.447 251.818L147.87 243.823L139.352 244.515C138.291 244.602 137.372 243.937 137.3 243.032C137.229 242.126 138.031 241.322 139.092 241.235L150.031 240.347C151.092 240.26 152.011 240.925 152.083 241.83Z" fill="#A2AD00"/>
<path d="M113.227 300.29C112.84 301.375 111.648 301.966 110.567 301.609C109.485 301.253 108.922 300.083 109.31 298.998C109.8 297.626 109.902 296.014 109.511 294.244C109.266 293.135 109.978 292.014 111.101 291.741C112.225 291.468 113.333 292.146 113.578 293.255C114.112 295.678 114.014 298.088 113.227 300.29Z" fill="#A2AD00"/>
<path d="M103.719 303.932C104.82 303.574 105.98 304.163 106.311 305.248C106.641 306.333 106.017 307.504 104.917 307.861C103.885 308.197 102.78 308.448 101.606 308.611C99.8106 308.86 98.0744 308.716 96.479 308.199C95.3954 307.848 94.827 306.682 95.2088 305.594C95.5912 304.507 96.7795 303.91 97.8632 304.261C98.8368 304.577 99.9371 304.68 101.138 304.513C102.085 304.382 102.944 304.184 103.719 303.932Z" fill="#A2AD00"/>
<path d="M108.524 284.162C109.291 284.992 109.22 286.301 108.365 287.087C107.511 287.873 106.195 287.837 105.427 287.007C104.834 286.367 104.179 285.732 103.456 285.107C103.437 285.091 103.418 285.075 103.399 285.058C103.352 285.018 103.305 284.977 103.257 284.935L103.254 284.933C102.594 284.361 101.835 283.704 100.933 283.01C100.036 282.319 99.8915 281.021 100.61 280.111C101.329 279.2 102.638 279.022 103.535 279.712C104.535 280.482 105.378 281.212 106.035 281.782C106.089 281.829 106.142 281.875 106.194 281.919C106.208 281.931 106.221 281.943 106.235 281.954C107.064 282.673 107.828 283.41 108.524 284.162Z" fill="#A2AD00"/>
<path d="M135.703 248.842C136.739 248.32 137.982 248.721 138.48 249.737C138.978 250.753 138.542 252 137.506 252.522C135.432 253.568 133.355 254.651 131.296 255.766C130.276 256.319 129.02 255.956 128.491 254.956C127.962 253.956 128.36 252.697 129.381 252.145C131.479 251.009 133.594 249.905 135.703 248.842Z" fill="#A2AD00"/>
<path d="M92.7574 295.471C92.7456 296.613 91.8051 297.555 90.6556 297.575C89.5065 297.593 88.5842 296.683 88.5959 295.54C88.6234 292.771 89.2585 289.721 90.5923 286.501C91.034 285.435 92.2521 284.904 93.3134 285.315C94.3742 285.726 94.8762 286.923 94.4347 287.989C93.2792 290.777 92.7791 293.3 92.7574 295.471Z" fill="#A2AD00"/>
<path d="M119.474 257.864C120.461 257.254 121.739 257.542 122.327 258.509C122.914 259.475 122.59 260.752 121.602 261.362C119.585 262.609 117.627 263.878 115.754 265.161C114.796 265.817 113.505 265.591 112.87 264.655C112.235 263.72 112.497 262.43 113.455 261.774C115.391 260.447 117.405 259.143 119.474 257.864Z" fill="#A2AD00"/>
<path d="M104.265 268.792C105.142 268.03 106.455 268.105 107.198 268.957C107.939 269.81 107.829 271.117 106.952 271.878C106.065 272.647 105.224 273.416 104.431 274.181C103.39 275.188 102.428 276.185 101.544 277.171C100.768 278.035 99.4523 278.128 98.6037 277.381C97.7552 276.633 97.6961 275.326 98.4711 274.462C99.4266 273.397 100.46 272.326 101.572 271.251C102.425 270.427 103.325 269.607 104.265 268.792Z" fill="#A2AD00"/>
<path d="M93.0608 274.534C94.1693 274.806 94.822 275.926 94.5181 277.036C94.2149 278.145 93.0702 278.824 91.9618 278.552C90.1046 278.096 88.0224 277.842 85.6943 277.921C84.5453 277.959 83.6071 277.065 83.5985 275.922C83.5903 274.781 84.5151 273.824 85.6648 273.785C88.3871 273.693 90.8491 273.989 93.0608 274.534Z" fill="#A2AD00"/>
<path d="M74.1751 276.235C75.2578 275.825 76.4474 276.357 76.8315 277.423C77.2156 278.489 76.649 279.687 75.5656 280.097C73.6647 280.817 71.6483 281.74 69.5114 282.904C68.4923 283.458 67.2359 283.098 66.7047 282.099C66.1737 281.1 66.5694 279.841 67.5882 279.286C69.8842 278.037 72.0785 277.03 74.1751 276.235Z" fill="#A2AD00"/>
<path d="M57.9667 285.566C58.8935 284.866 60.1955 285.03 60.8756 285.933C61.5555 286.836 61.355 288.136 60.4288 288.835C58.7179 290.128 56.9487 291.559 55.1188 293.14C54.2397 293.899 52.9269 293.823 52.1865 292.969C51.4456 292.115 51.5579 290.807 52.4368 290.048C54.3334 288.409 56.1763 286.919 57.9667 285.566Z" fill="#A2AD00"/>
<defs>
<clipPath id="clip0_1185_4679">
<rect x="16" width="215" height="256" rx="8" transform="rotate(3.23 16 0)" fill="white"/>
</clipPath>
</defs>
</svg>
