<svg width="247" height="185" viewBox="0 0 247 185" fill="none" xmlns="http://www.w3.org/2000/svg">
<path d="M69.5 73.5912H9L9.00732 73.5783C3.9895 73.3164 0 69.075 0 63.8812C0 58.5186 4.25317 54.1713 9.5 54.1713C11.6931 54.1713 13.7124 54.9307 15.3203 56.2064C15.1106 55.2213 15 54.1984 15 53.1492C15 45.2463 21.2681 38.8398 29 38.8398C33.9883 38.8398 38.3672 41.5063 40.8469 45.5209C43.4038 42.0821 47.4482 39.8619 52 39.8619C59.2668 39.8619 65.2405 45.5207 65.9329 52.7622C67.0464 52.3512 68.2478 52.1271 69.5 52.1271C75.2991 52.1271 80 56.932 80 62.8591C80 68.7863 75.2991 73.5912 69.5 73.5912Z" fill="#D4F3F6"/>
<path fill-rule="evenodd" clip-rule="evenodd" d="M163 80C185.091 80 203 62.0914 203 40C203 17.9086 185.091 0 163 0C149.443 0 137.461 6.74438 130.227 17.0609C129.49 17.0205 128.747 17 128 17C105.909 17 88 34.9086 88 57C88 79.0914 105.909 97 128 97C141.557 97 153.539 90.2556 160.773 79.9391C161.51 79.9795 162.253 80 163 80Z" fill="#B3D8DE"/>
<path d="M132.783 73.0712C130.994 69.0803 130 64.6563 130 60C130 42.3269 144.327 28 162 28C177.43 28 190.309 38.9204 193.33 53.4539C199.03 48.2053 206.641 45 215 45C232.673 45 247 59.3269 247 77C247 92.9818 235.284 106.227 219.972 108.616C219.991 109.075 220 109.536 220 110C220 128.778 204.778 144 186 144C175.103 144 165.404 138.874 159.181 130.901C153.018 137.136 144.46 141 135 141C116.222 141 101 125.778 101 107C101 88.9673 115.038 74.2134 132.783 73.0712Z" fill="#99CBD3"/>
<path fill-rule="evenodd" clip-rule="evenodd" d="M157.5 107.5L108 32.5L109 31L157.5 96V107.5ZM157.271 142.262L117.5 101L118.5 99L157.346 131.533L158 38L164 35V78.4423L188.5 53L190.5 55L164 88.125V115.817L217 74L218.5 60.5H220.5L221.5 70L228.5 65L231 68L223.5 74L239.5 71L240.5 74L214.5 82L164 125.702V181H157L157.271 142.262Z" fill="#006678"/>
<path d="M185.751 83.939L184.755 83.7188C184.427 83.6461 184.084 83.7273 183.824 83.9394L176.11 90.2281C175.828 90.4581 175.678 90.8136 175.71 91.1776L175.789 92.0615L160.94 104.167C160.846 104.244 160.832 104.383 160.91 104.478L166.367 111.172C166.637 111.503 167.124 111.554 167.454 111.285L169.148 109.904C168.98 109.794 168.825 109.656 168.691 109.491C167.995 108.638 168.119 107.386 168.967 106.694C169.815 106.003 171.067 106.134 171.763 106.987C171.897 107.151 172 107.331 172.074 107.518L188.861 93.8328C188.692 93.7227 188.537 93.585 188.403 93.4204C187.707 92.5672 187.831 91.315 188.68 90.6233C189.528 89.9317 190.779 90.0626 191.475 90.9158C191.609 91.0804 191.713 91.2599 191.787 91.4473L193.566 89.9963C193.896 89.7274 193.944 89.2404 193.674 88.9086L188.217 82.2148C188.139 82.12 188 82.1055 187.906 82.1823L185.751 83.939Z" fill="#A2AD00"/>
<path d="M163.664 102.804C163.57 102.88 163.556 103.019 163.634 103.114L166.152 106.204C166.23 106.299 166.369 106.313 166.463 106.236L171.327 102.271C171.421 102.194 171.435 102.055 171.358 101.96L168.839 98.8704C168.762 98.7756 168.623 98.7611 168.528 98.8379L163.664 102.804Z" fill="#EAF7F8"/>
<path d="M169.351 98.453C169.274 98.3582 169.288 98.219 169.382 98.1422L174.246 94.1766C174.34 94.0998 174.479 94.1143 174.556 94.2091L177.075 97.2985C177.152 97.3933 177.139 97.5325 177.044 97.6093L172.18 101.575C172.086 101.652 171.947 101.637 171.87 101.542L169.351 98.453Z" fill="#EAF7F8"/>
<path d="M175.099 93.4809C175.005 93.5577 174.991 93.6969 175.068 93.7917L177.587 96.8811C177.664 96.9759 177.804 96.9904 177.898 96.9136L182.762 92.948C182.856 92.8711 182.87 92.732 182.793 92.6372L180.274 89.5478C180.197 89.453 180.058 89.4384 179.963 89.5153L175.099 93.4809Z" fill="#EAF7F8"/>
<path d="M180.786 89.1303C180.709 89.0356 180.722 88.8964 180.817 88.8196L185.681 84.854C185.775 84.7771 185.914 84.7917 185.991 84.8865L188.51 87.9759C188.587 88.0707 188.574 88.2098 188.479 88.2867L183.615 92.2523C183.521 92.3291 183.382 92.3146 183.305 92.2198L180.786 89.1303Z" fill="#EAF7F8"/>
<path d="M186.759 84.2603C186.682 84.1655 186.696 84.0264 186.79 83.9495L188.497 82.5581L192.345 87.2781L190.638 88.6695C190.544 88.7464 190.405 88.7318 190.328 88.637L186.759 84.2603Z" fill="#EAF7F8"/>
<ellipse cx="170.226" cy="108.239" rx="1.65152" ry="1.66086" transform="rotate(-39.1897 170.226 108.239)" fill="#37424A"/>
<ellipse cx="189.939" cy="92.1681" rx="1.65152" ry="1.66086" transform="rotate(-39.1897 189.939 92.1681)" fill="#37424A"/>
<path d="M173 43C171.895 43 171 43.8954 171 45V57C171 58.1046 171.895 59 173 59L173 70H175V59C176.105 59 177 58.1046 177 57V45C177 43.8954 176.105 43 175 43H173Z" fill="#37424A"/>
<circle cx="174" cy="56" r="2" fill="#878E92"/>
<circle cx="174" cy="51" r="2" fill="#AFB3B7"/>
<circle cx="174" cy="46" r="2" fill="#C3C6C9"/>
<ellipse cx="113.884" cy="33.0709" rx="2.08528" ry="2.1579" transform="rotate(53.5068 113.884 33.0709)" fill="#37424A"/>
<ellipse cx="145.658" cy="76.0217" rx="2.08527" ry="2.1579" transform="rotate(53.5068 145.658 76.0217)" fill="#37424A"/>
<path d="M110.79 25.6105C114.913 22.5603 120.729 23.4301 123.779 27.5532L153.787 68.1171C156.837 72.2402 155.967 78.0553 151.844 81.1055C150.813 81.8681 149.36 81.6506 148.597 80.6199L110.305 28.8576C109.542 27.8268 109.759 26.3731 110.79 25.6105Z" fill="#37424A"/>
<path d="M155.654 73.4568L157.001 75.2777C157.183 75.5234 157.134 75.871 156.894 76.0712L156.873 76.0431C156.826 75.9793 156.734 75.9672 156.668 76.016L155.412 76.9454C155.346 76.9942 155.331 77.0856 155.378 77.1495L155.463 77.2651C155.511 77.329 155.603 77.3411 155.669 77.2922L156.925 76.3629C156.981 76.3215 157 76.2496 156.976 76.1898C157.285 75.9411 157.351 75.4999 157.121 75.1892L155.774 73.3682L155.654 73.4568Z" fill="#37424A"/>
<path d="M150.534 81.6056C149.831 81.6417 149.134 81.3461 148.695 80.752L110.207 28.7254C109.498 27.7677 109.727 26.3968 110.719 25.6636L111.078 25.3981C111.402 25.158 111.737 24.9425 112.08 24.7512L152.041 78.7688C151.887 79.4619 151.391 80.8622 150.534 81.6056Z" fill="#A2AD00"/>
<rect x="120.174" y="28.0603" width="4.17055" height="3.42287" transform="rotate(53.5068 120.174 28.0603)" fill="#EAF7F8"/>
<rect x="131.977" y="44.0151" width="4.17056" height="3.42287" transform="rotate(53.5068 131.977 44.0151)" fill="#EAF7F8"/>
<rect x="143.78" y="59.9699" width="4.17055" height="3.42287" transform="rotate(53.5068 143.78 59.9699)" fill="#EAF7F8"/>
<rect x="123.167" y="32.1069" width="4.17055" height="3.42287" transform="rotate(53.5068 123.167 32.1069)" fill="#EAF7F8"/>
<rect x="134.97" y="48.0617" width="4.17056" height="3.42287" transform="rotate(53.5068 134.97 48.0617)" fill="#EAF7F8"/>
<rect x="146.773" y="64.0165" width="4.17055" height="3.42287" transform="rotate(53.5068 146.773 64.0165)" fill="#EAF7F8"/>
<rect x="126.161" y="36.1533" width="4.17055" height="3.42287" transform="rotate(53.5068 126.161 36.1533)" fill="#EAF7F8"/>
<rect x="137.964" y="52.1081" width="4.17055" height="3.42287" transform="rotate(53.5068 137.964 52.1081)" fill="#EAF7F8"/>
<rect x="149.767" y="68.063" width="4.17054" height="3.42287" transform="rotate(53.5068 149.767 68.063)" fill="#EAF7F8"/>
<path d="M152.599 72.2284C152.688 72.1627 152.814 72.1814 152.879 72.2702L154.116 73.9416C154.591 74.5838 154.638 75.447 154.236 76.1373L153.176 77.9579C153.104 78.0821 152.928 78.0918 152.843 77.9762L150.127 74.3059C150.062 74.2171 150.08 74.0919 150.169 74.0262L152.599 72.2284Z" fill="#EAF7F8"/>
<rect x="143.53" y="54.2517" width="3.88293" height="11.608" transform="rotate(53.5068 143.53 54.2517)" fill="#AFB3B7"/>
<rect x="131.727" y="38.2969" width="3.88293" height="11.608" transform="rotate(53.5068 131.727 38.2969)" fill="#AFB3B7"/>
<ellipse cx="152.362" cy="79.5153" rx="0.179764" ry="0.186027" transform="rotate(53.5068 152.362 79.5153)" fill="#E4D700"/>
<path d="M87.9637 120.459L92.1552 124.507C92.1552 124.507 83.4422 131.816 83.4261 131.72C83.4097 131.624 80.1875 126.968 80.1875 126.968L87.9637 120.459Z" fill="#8D9398"/>
<path d="M87.0638 121.838L90.3094 125.385L84.1224 130.543L81.1916 126.877L87.0638 121.838Z" fill="#D5D7D9"/>
<path fill-rule="evenodd" clip-rule="evenodd" d="M48.7308 179.097L48.2163 181.719L51.0452 182.592L53.1023 184.077L60.2153 184.164C60.2153 184.164 60.2163 183.379 59.1873 183.029C58.1592 182.68 54.8163 182.156 54.3877 181.719C53.9591 181.281 53.0498 179.676 53.0498 179.676L48.7217 179.097" fill="#977000"/>
<path d="M63.4116 181.097L67.3544 180.333L70.3113 182.232C70.3113 182.232 73.1716 182.396 74.5211 182.723C75.8716 183.051 75.7427 184.132 75.7427 184.132L68.797 184.078L66.0995 183.59L62.9507 183.51C63.0376 182.179 63.3429 181.285 63.402 181.123C63.4086 181.106 63.4116 181.097 63.4116 181.097Z" fill="#977000"/>
<path fill-rule="evenodd" clip-rule="evenodd" d="M54.8108 131.23L53.052 130.73L56.4672 146.058L55.8334 146.593L56.491 147.368L55.4715 147.912L56.773 148.805L48.499 179.601L53.0559 180.319H53.059L53.1878 179.914L53.051 179.676L59.8425 158.831L62.9187 181.095L67.5262 181.354L65.9856 134.405C64.3527 133.941 62.7985 133.5 61.2594 133.063C59.1366 132.46 57.0427 131.865 54.8108 131.23Z" fill="#5F686E"/>
<path d="M57.6823 136.314L63.0884 148.868L59.8425 158.83L58.8883 151.924C56.8436 144.409 54.9904 137.594 53.1294 130.751C53.6992 130.914 54.2582 131.073 54.8087 131.229L55.5862 131.45L57.6823 136.314Z" fill="#37424A"/>
<path d="M77.7361 122.472L80.8966 126.425L83.9998 127.251L86.9998 129.296L83.4998 131.34L80.4998 129.807L76.0308 125.191L77.7361 122.472Z" fill="#EEDDD9"/>
<path d="M69.4201 96.8488L70.7388 94.9281L75.3125 96.2862L76.9314 91.772L78.2541 91.1166C78.3997 91.0445 78.4411 90.8518 78.3375 90.7251L76.6736 88.6725L77.2337 86.8652L75.9964 83.6698L71.7654 81.7682L67.6395 83.3829L66.0539 90.231L64.623 93.5278L69.4201 96.8488Z" fill="#EEDDD9"/>
<path d="M77.4934 86.5915C77.4934 86.5915 77.8483 87.7425 77.596 87.6971C77.3448 87.6523 75.4333 87.4364 75.4333 87.4364L75.2554 86.777L77.4934 86.5915Z" fill="#5F686E"/>
<path d="M76.7825 92.4097L72.3777 91.3355L71.1772 91.7657L71.3779 95.2006L73.4527 96.9528L75.4472 96.6797L76.7825 92.4097Z" fill="#5F686E"/>
<path d="M71.7652 81.768H71.7657L71.7667 81.768L75.9967 83.6691L75.9957 83.6696L73.8264 85.7582L72.2712 91.9381H72.2691L71.1723 91.7666C71.1723 91.7666 70.9783 89.1689 70.771 88.7969C70.5982 88.4868 70.2525 88.3987 69.9719 88.3987C69.8714 88.3987 69.7789 88.41 69.7061 88.4265C69.2153 88.5383 68.6315 88.985 69.2012 90.4513L65.8506 90.1906C65.8506 90.1906 67.1612 83.2049 67.236 83.1241C67.3098 83.0437 71.5768 81.8218 71.7597 81.7695L71.7597 81.7695L71.7647 81.768L71.7652 81.768Z" fill="#242B30"/>
<path d="M64.2891 93.5407L60.7187 98.7C60.5155 98.9947 60.3553 99.3172 60.2436 99.6588L50.3462 129.961L66.6884 134.604L67.0316 116.17L76.5995 126.457L78.8815 122.427L70.3543 111.725L69.3682 97.0797L64.2891 93.5407Z" fill="#71D6E0"/>
<path d="M62.126 110.939L62.2119 111.812L63.24 115.831L64.1619 113.549L62.126 110.939Z" fill="#5F686E"/>
<path d="M64.2502 93.5221L65.0002 93.5221L56.7686 122.388L66.3492 124.359L66.5002 115.497L68.0002 117.214L68.3488 124.756L70.0002 125.207L67.7813 140.529L49.5002 135.428L53.4543 122.052L64.2502 93.5221Z" fill="#007C92"/>
<path d="M70.8157 96.0992L65.4985 91.2717L64.2036 93.5942L69.3247 97.364L70.8157 96.0992Z" fill="#A2AD00"/>
</svg>
