<svg width="20" height="20" viewBox="0 0 40 40" fill="none" xmlns="http://www.w3.org/2000/svg">
<path fill-rule="evenodd" clip-rule="evenodd" d="M9.58008 21.6661C6.82008 21.6661 4.58008 23.9061 4.58008 26.6661C4.58008 29.4261 6.82008 31.6661 9.58008 31.6661C12.3401 31.6661 14.5801 29.4261 14.5801 26.6661C14.5801 23.9061 12.3401 21.6661 9.58008 21.6661ZM1.25 26.6661C1.25 22.0661 4.98008 18.3361 9.58008 18.3361C14.1801 18.3361 17.9102 22.0661 17.9102 26.6661C17.9102 31.2661 14.1801 34.9961 9.58008 34.9961C4.98008 34.9961 1.25 31.2661 1.25 26.6661Z" fill="black"/>
<path fill-rule="evenodd" clip-rule="evenodd" d="M30.4102 21.6661C27.6502 21.6661 25.4102 23.9061 25.4102 26.6661C25.4102 29.4261 27.6502 31.6661 30.4102 31.6661C33.1702 31.6661 35.4102 29.4261 35.4102 26.6661C35.4102 23.9061 33.1802 21.6661 30.4102 21.6661ZM22.0801 26.6661C22.0801 22.0661 25.8102 18.3361 30.4102 18.3361C35.0102 18.3361 38.75 22.0661 38.75 26.6661C38.75 31.2661 35.0102 34.9961 30.4102 34.9961C25.8102 34.9961 22.0801 31.2661 22.0801 26.6661Z" fill="black"/>
<path fill-rule="evenodd" clip-rule="evenodd" d="M27.1299 11.9259C27.9099 12.4159 28.1502 13.4459 27.6602 14.2259L19.3301 27.5559C19.0201 28.0459 18.4902 28.3359 17.9102 28.3359H9.58008C8.66008 28.3359 7.91016 27.5859 7.91016 26.6659C7.91016 25.7459 8.66008 24.9959 9.58008 24.9959H16.9902L24.8301 12.4559C25.3201 11.6759 26.3499 11.4359 27.1299 11.9259Z" fill="black"/>
<path fill-rule="evenodd" clip-rule="evenodd" d="M6.25 11.6662C6.25 10.7462 6.99016 9.99622 7.91016 9.99622H16.25C17.17 9.99622 17.9102 10.7462 17.9102 11.6662C17.9102 12.5862 17.17 13.3362 16.25 13.3362H14.8398L21.6904 21.4162C22.2804 22.1162 22.1902 23.1662 21.4902 23.7662C20.7902 24.3562 19.7396 24.2762 19.1396 23.5662L10.4697 13.3262H7.91016C6.99016 13.3262 6.25 12.5762 6.25 11.6562V11.6662Z" fill="black"/>
<path fill-rule="evenodd" clip-rule="evenodd" d="M26.8398 8.43628C27.5798 8.47628 28.2897 8.55628 28.9697 8.73628C30.1797 9.05628 30.9498 9.62628 31.2998 10.8263C31.5498 11.7063 32.4803 12.2263 33.3603 11.9663C34.2503 11.7163 34.76 10.7863 34.5 9.90628C33.74 7.24628 31.7801 6.03628 29.8301 5.51628C28.3801 5.12628 26.7398 5.07628 25.5098 5.03628C25.2098 5.03628 24.9402 5.01628 24.7002 5.00628C23.4902 4.94628 22.6802 6.09628 22.9902 7.15628L28.8105 27.1363C29.0705 28.0163 29.9999 28.5263 30.8799 28.2663C31.7599 28.0063 32.2698 27.0863 32.0098 26.1963L26.8398 8.42628V8.43628Z" fill="black"/>
</svg>
