<svg width="40" height="40" viewBox="0 0 40 40" fill="none" xmlns="http://www.w3.org/2000/svg">
<path d="M10 34.5861C5.63 34.5861 2.07996 31.0361 2.07996 26.6761C2.07996 22.3161 5.63 18.7661 10 18.7661C14.37 18.7661 17.92 22.3161 17.92 26.6761C17.92 31.0361 14.37 34.5861 10 34.5861ZM10 21.2561C7.01 21.2561 4.57996 23.6861 4.57996 26.6661C4.57996 29.6461 7.01 32.0761 10 32.0761C12.99 32.0761 15.42 29.6461 15.42 26.6661C15.42 23.6861 12.99 21.2561 10 21.2561Z" fill="black"/>
<path d="M30 34.5861C25.63 34.5861 22.08 31.0361 22.08 26.6761C22.08 22.3161 25.63 18.7661 30 18.7661C34.37 18.7661 37.92 22.3161 37.92 26.6761C37.92 31.0361 34.37 34.5861 30 34.5861ZM30 21.2561C27.01 21.2561 24.58 23.6861 24.58 26.6661C24.58 29.6461 27.01 32.0761 30 32.0761C32.99 32.0761 35.42 29.6461 35.42 26.6661C35.42 23.6861 32.99 21.2561 30 21.2561Z" fill="black"/>
<path d="M18.3298 27.9261H9.99988C9.30988 27.9261 8.74988 27.3661 8.74988 26.6761C8.74988 25.9861 9.30988 25.4261 9.99988 25.4261H17.6399L25.6099 12.6861C25.9799 12.0961 26.7498 11.9261 27.3298 12.2861C27.9098 12.6561 28.0899 13.4261 27.7299 14.0061L19.3899 27.3361C19.1599 27.7061 18.7598 27.9261 18.3298 27.9261Z" fill="black"/>
<path d="M20.8297 23.756C20.4697 23.756 20.1198 23.606 19.8698 23.316L11.0797 12.926H8.3197C7.6297 12.926 7.0697 12.366 7.0697 11.676C7.0697 10.986 7.6297 10.426 8.3197 10.426H16.6598C17.3498 10.426 17.9098 10.986 17.9098 11.676C17.9098 12.366 17.3498 12.926 16.6598 12.926H14.3497L21.7698 21.696C22.2198 22.226 22.1497 23.016 21.6198 23.456C21.3798 23.656 21.0998 23.756 20.8098 23.756H20.8297Z" fill="black"/>
<path d="M29.9999 27.9261C29.4399 27.9261 28.9299 27.5461 28.7899 26.9761L23.7999 6.98607C23.7799 6.88607 23.7599 6.78607 23.7599 6.68607C23.7599 6.34607 23.9099 6.00607 24.1499 5.76607C24.3999 5.52607 24.7398 5.39607 25.0798 5.41607C25.3798 5.43607 25.6899 5.44607 26.0099 5.45607C28.8999 5.55607 33.2699 5.70607 34.5199 10.0361C34.7099 10.6961 34.3299 11.3961 33.6699 11.5861C33.0099 11.7761 32.3099 11.3961 32.1199 10.7361C31.4799 8.50607 29.4399 8.12607 26.6099 7.98607L31.1998 26.3761C31.3698 27.0461 30.9599 27.7261 30.2899 27.8961C30.1899 27.9261 30.0899 27.9361 29.9899 27.9361L29.9999 27.9261Z" fill="black"/>
</svg>
