<svg width="40" height="40" viewBox="0 0 40 40" fill="none" xmlns="http://www.w3.org/2000/svg">
<path fill-rule="evenodd" clip-rule="evenodd" d="M9.58008 21.6659C6.82008 21.6659 4.58008 23.9059 4.58008 26.6659C4.58008 29.4259 6.82008 31.6659 9.58008 31.6659C12.3401 31.6659 14.5801 29.4259 14.5801 26.6659C14.5801 23.9059 12.3401 21.6659 9.58008 21.6659ZM1.25 26.6659C1.25 22.0659 4.98008 18.3359 9.58008 18.3359C14.1801 18.3359 17.9102 22.0659 17.9102 26.6659C17.9102 31.2659 14.1801 34.9959 9.58008 34.9959C4.98008 34.9959 1.25 31.2659 1.25 26.6659Z" fill="black"/>
<path fill-rule="evenodd" clip-rule="evenodd" d="M30.4102 21.6659C27.6502 21.6659 25.4102 23.9059 25.4102 26.6659C25.4102 29.4259 27.6502 31.6659 30.4102 31.6659C33.1702 31.6659 35.4102 29.4259 35.4102 26.6659C35.4102 23.9059 33.1802 21.6659 30.4102 21.6659ZM22.0801 26.6659C22.0801 22.0659 25.8102 18.3359 30.4102 18.3359C35.0102 18.3359 38.75 22.0659 38.75 26.6659C38.75 31.2659 35.0102 34.9959 30.4102 34.9959C25.8102 34.9959 22.0801 31.2659 22.0801 26.6659Z" fill="black"/>
<path fill-rule="evenodd" clip-rule="evenodd" d="M27.1299 11.9258C27.9099 12.4158 28.1502 13.4458 27.6602 14.2258L19.3301 27.5558C19.0201 28.0458 18.4902 28.3358 17.9102 28.3358H9.58008C8.66008 28.3358 7.91016 27.5858 7.91016 26.6658C7.91016 25.7458 8.66008 24.9958 9.58008 24.9958H16.9902L24.8301 12.4558C25.3201 11.6758 26.3499 11.4358 27.1299 11.9258Z" fill="black"/>
<path fill-rule="evenodd" clip-rule="evenodd" d="M6.25 11.6661C6.25 10.7461 6.99016 9.99609 7.91016 9.99609H16.25C17.17 9.99609 17.9102 10.7461 17.9102 11.6661C17.9102 12.5861 17.17 13.3361 16.25 13.3361H14.8398L21.6904 21.4161C22.2804 22.1161 22.1902 23.1661 21.4902 23.7661C20.7902 24.3561 19.7396 24.2761 19.1396 23.5661L10.4697 13.3261H7.91016C6.99016 13.3261 6.25 12.5761 6.25 11.6561V11.6661Z" fill="black"/>
<path fill-rule="evenodd" clip-rule="evenodd" d="M26.8398 8.43616C27.5798 8.47616 28.2897 8.55616 28.9697 8.73616C30.1797 9.05616 30.9498 9.62616 31.2998 10.8262C31.5498 11.7062 32.4803 12.2262 33.3603 11.9662C34.2503 11.7162 34.76 10.7862 34.5 9.90616C33.74 7.24616 31.7801 6.03616 29.8301 5.51616C28.3801 5.12616 26.7398 5.07616 25.5098 5.03616C25.2098 5.03616 24.9402 5.01616 24.7002 5.00616C23.4902 4.94616 22.6802 6.09616 22.9902 7.15616L28.8105 27.1362C29.0705 28.0162 29.9999 28.5262 30.8799 28.2662C31.7599 28.0062 32.2698 27.0862 32.0098 26.1962L26.8398 8.42616V8.43616Z" fill="black"/>
</svg>
