<svg width="40" height="40" viewBox="0 0 40 40" fill="none" xmlns="http://www.w3.org/2000/svg">
<path d="M35.3818 37.92C33.9618 37.92 32.6818 36.74 31.8718 36C31.1218 35.31 30.2618 34.52 29.6918 34.59C29.2818 34.64 28.7418 35.15 28.1718 36.01C27.5018 37.02 26.7118 37.59 25.8218 37.72C24.3618 37.93 23.1418 36.92 22.0618 36.03C21.2518 35.36 20.3518 34.6 19.7018 34.7C19.2518 34.77 18.7218 35.24 18.1718 36.08C17.6018 36.95 16.9018 37.47 16.0818 37.61C14.6618 37.86 13.4218 36.94 12.2318 36.05C11.3318 35.38 10.3018 34.6 9.59177 34.74C9.04177 34.84 8.51179 35.48 8.17179 36.01C7.13179 37.56 6.00178 37.89 5.22178 37.89H5.20179C4.43179 37.89 3.29177 37.56 2.28177 36.01C1.90177 35.43 2.07179 34.66 2.64179 34.28C3.22179 33.9 3.99177 34.07 4.37177 34.64C4.73177 35.19 5.0618 35.41 5.2118 35.39C5.3818 35.39 5.70179 35.19 6.08179 34.63C6.98179 33.26 7.9818 32.48 9.1518 32.28C10.9318 31.96 12.4818 33.12 13.7218 34.05C14.3418 34.51 15.2818 35.22 15.6318 35.15C15.7118 35.14 15.8718 35.01 16.0718 34.7C17.0618 33.2 18.1318 32.39 19.3318 32.22C21.0818 31.96 22.5018 33.15 23.6518 34.1C24.2318 34.58 25.1018 35.3 25.4518 35.24C25.5618 35.22 25.7918 35.05 26.0818 34.63C27.0918 33.09 28.1718 32.26 29.3718 32.11C31.0918 31.89 32.4618 33.15 33.5518 34.16C35.2118 35.69 35.3518 35.55 35.7518 35.12C36.2218 34.62 37.0118 34.59 37.5218 35.06C38.0218 35.53 38.0518 36.32 37.5818 36.83C36.8318 37.62 36.0818 37.92 35.3718 37.92H35.3818Z" fill="black"/>
<path d="M5.9618 29.5798C5.4118 29.5798 4.90178 29.2098 4.75178 28.6498L2.13178 18.6498C2.03178 18.2698 2.11178 17.8798 2.35178 17.5698C2.59178 17.2598 2.95177 17.0798 3.34177 17.0798H36.6718C37.3618 17.0798 37.9218 17.6398 37.9218 18.3298C37.9218 22.2198 36.2618 29.5798 30.0018 29.5798C29.3118 29.5798 28.7518 29.0198 28.7518 28.3298C28.7518 27.6398 29.3118 27.0798 30.0018 27.0798C34.0918 27.0798 35.1018 21.9998 35.3418 19.5798H4.9618L7.17179 28.0098C7.35179 28.6798 6.95178 29.3598 6.28177 29.5398C6.17177 29.5698 6.0718 29.5798 5.9618 29.5798Z" fill="black"/>
<path d="M30.0118 19.58C29.6718 19.58 29.3318 19.44 29.0818 19.17L23.0718 12.49C22.3618 11.7 21.3418 11.25 20.2818 11.25H11.6718C11.4418 11.25 11.2518 11.44 11.2518 11.67V18.34C11.2518 19.03 10.6918 19.59 10.0018 19.59C9.31179 19.59 8.75179 19.03 8.75179 18.34V11.67C8.75179 10.06 10.0618 8.75 11.6718 8.75H20.2818C22.0518 8.75 23.7418 9.5 24.9318 10.82L30.9418 17.5C31.4018 18.01 31.3618 18.8 30.8518 19.27C30.6118 19.48 30.3118 19.59 30.0118 19.59V19.58Z" fill="black"/>
<path d="M16.6817 11.2498C15.9917 11.2498 15.4317 10.6898 15.4317 9.99983V4.99983C15.4317 4.76983 15.2417 4.57983 15.0117 4.57983H11.6817C10.9917 4.57983 10.4317 4.01983 10.4317 3.32983C10.4317 2.63983 10.9917 2.07983 11.6817 2.07983H15.0117C16.6217 2.07983 17.9317 3.38983 17.9317 4.99983V9.99983C17.9317 10.6898 17.3717 11.2498 16.6817 11.2498Z" fill="black"/>
</svg>
