<svg width="40" height="40" viewBox="0 0 40 40" fill="none" xmlns="http://www.w3.org/2000/svg">
<g clip-path="url(#clip0_261_205)">
<path fill-rule="evenodd" clip-rule="evenodd" d="M-0.236074 32L-2.44722 30.8944L-1.55279 29.1056L0.658354 30.2111C1.50294 30.6334 2.49705 30.6334 3.34163 30.2111L3.76393 30C5.17156 29.2962 6.82842 29.2962 8.23606 30L8.65835 30.2111C9.50294 30.6334 10.4971 30.6334 11.3416 30.2111L11.7639 30C13.1716 29.2962 14.8284 29.2962 16.2361 30L16.6584 30.2111C17.5029 30.6334 18.4971 30.6334 19.3416 30.2111L19.7639 30C21.1716 29.2962 22.8284 29.2962 24.2361 30L24.6584 30.2111C25.5029 30.6334 26.4971 30.6334 27.3416 30.2111L27.7639 30C29.1716 29.2962 30.8284 29.2962 32.2361 30L32.6584 30.2111C33.5029 30.6334 34.4971 30.6334 35.3416 30.2111L35.7639 30C37.1716 29.2962 38.8284 29.2962 40.2361 30L42.4472 31.1056L41.5528 32.8944L39.3416 31.7889C38.4971 31.3666 37.5029 31.3666 36.6584 31.7889L36.2361 32C34.8284 32.7038 33.1716 32.7038 31.7639 32L31.3416 31.7889C30.4971 31.3666 29.5029 31.3666 28.6584 31.7889L28.2361 32C26.8284 32.7038 25.1716 32.7038 23.7639 32L23.3416 31.7889C22.4971 31.3666 21.5029 31.3666 20.6584 31.7889L20.2361 32C18.8284 32.7038 17.1716 32.7038 15.7639 32L15.3416 31.7889C14.4971 31.3666 13.5029 31.3666 12.6584 31.7889L12.2361 32C10.8284 32.7038 9.17156 32.7038 7.76393 32L7.34163 31.7889C6.49705 31.3666 5.50294 31.3666 4.65835 31.7889L4.23606 32C2.82842 32.7038 1.17156 32.7038 -0.236074 32Z" fill="black"/>
<path d="M12 11C12 9.34315 13.3431 8 15 8H27.3874L25.4972 13.6707C25.3398 14.1428 25.5536 14.6587 25.9987 14.8813L37.9653 20.8646C39.7968 21.7804 40.1929 24.2213 38.745 25.6692L35.9435 27.9146C35.8832 27.9418 35.8234 27.9703 35.7639 28L35.3416 28.2111C34.4971 28.6334 33.5029 28.6334 32.6584 28.2111L32.2361 28C30.8284 27.2962 29.1716 27.2962 27.7639 28L27.3416 28.2111C26.4971 28.6334 25.5029 28.6334 24.6584 28.2111L24.2361 28C22.8284 27.2962 21.1716 27.2962 19.7639 28L19.3416 28.2111C18.4971 28.6334 17.5029 28.6334 16.6584 28.2111L16.2361 28C14.8284 27.2962 13.1716 27.2962 11.7639 28L11.3416 28.2111C10.4971 28.6334 9.50294 28.6334 8.65835 28.2111L8.23606 28C6.82842 27.2962 5.17156 27.2962 3.76393 28L3.34163 28.2111C2.49705 28.6334 1.50294 28.6334 0.658353 28.2111L-6.19888e-06 27.882V22H35.7639L25.1042 16.6702C24.0685 16.1523 23.4504 15.1049 23.4455 14H21C20.4477 14 20 13.5523 20 13C20 12.4477 20.4477 12 21 12H23.9459L24.6126 10H15C14.4477 10 14 10.4477 14 11V12H17C17.5523 12 18 12.4477 18 13C18 13.5523 17.5523 14 17 14H-6.19888e-06V12H12V11Z" fill="black"/>
<path d="M6.99999 17H-6.19888e-06V19H6.99999C7.55228 19 7.99999 18.5523 7.99999 18C7.99999 17.4477 7.55228 17 6.99999 17Z" fill="black"/>
<path d="M9.99999 18C9.99999 17.4477 10.4477 17 11 17H19C19.5523 17 20 17.4477 20 18C20 18.5523 19.5523 19 19 19H11C10.4477 19 9.99999 18.5523 9.99999 18Z" fill="black"/>
</g>
<defs>
<clipPath id="clip0_261_205">
<rect width="40" height="40" fill="white"/>
</clipPath>
</defs>
</svg>
