<svg width="40" height="40" viewBox="0 0 40 40" fill="none" xmlns="http://www.w3.org/2000/svg">
<path fill-rule="evenodd" clip-rule="evenodd" d="M0 12C0 10.8954 0.895431 10 2 10H36.3057C37.2834 10 38.1178 10.7068 38.2785 11.6712L39.9728 21.8367C39.9909 21.9454 40 22.0554 40 22.1655V26C40 27.1046 39.1046 28 38 28H35.9C35.4367 25.7178 33.419 24 31 24C28.581 24 26.5633 25.7178 26.1 28H13.9C13.4367 25.7178 11.419 24 9 24C6.58104 24 4.56329 25.7178 4.10002 28H2C0.895431 28 0 27.1046 0 26V12ZM2 15C2 14.4477 2.44772 14 3 14H5C5.55228 14 6 14.4477 6 15V19C6 19.5523 5.55228 20 5 20H3C2.44772 20 2 19.5523 2 19V15ZM33 14C32.4477 14 32 14.4477 32 15V19C32 19.5523 32.4477 20 33 20H36.3195C36.9375 20 37.4075 19.4451 37.3059 18.8356L36.6393 14.8356C36.5589 14.3534 36.1417 14 35.6529 14H33ZM8 15C8 14.4477 8.44771 14 9 14H17C17.5523 14 18 14.4477 18 15V19C18 19.5523 17.5523 20 17 20H9C8.44772 20 8 19.5523 8 19V15ZM21 14C20.4477 14 20 14.4477 20 15V19C20 19.5523 20.4477 20 21 20H29C29.5523 20 30 19.5523 30 19V15C30 14.4477 29.5523 14 29 14H21Z" fill="black"/>
<path d="M34 29C34 30.6569 32.6569 32 31 32C29.3431 32 28 30.6569 28 29C28 27.3431 29.3431 26 31 26C32.6569 26 34 27.3431 34 29Z" fill="black"/>
<path d="M9 32C10.6569 32 12 30.6569 12 29C12 27.3431 10.6569 26 9 26C7.34315 26 6 27.3431 6 29C6 30.6569 7.34315 32 9 32Z" fill="black"/>
</svg>
