<svg width="40" height="40" viewBox="0 0 40 40" fill="none" xmlns="http://www.w3.org/2000/svg">
<path fill-rule="evenodd" clip-rule="evenodd" d="M38 19.25H3V16.75H38V19.25Z" fill="black"/>
<path fill-rule="evenodd" clip-rule="evenodd" d="M9.75 17.5V9H12.25V17.5H9.75Z" fill="black"/>
<path fill-rule="evenodd" clip-rule="evenodd" d="M17.75 17.5V9H20.25V17.5H17.75Z" fill="black"/>
<path fill-rule="evenodd" clip-rule="evenodd" d="M25.75 17.5V9H28.25V17.5H25.75Z" fill="black"/>
<path fill-rule="evenodd" clip-rule="evenodd" d="M11 29.5C12.3807 29.5 13.5 28.3807 13.5 27C13.5 25.6193 12.3807 24.5 11 24.5C9.61929 24.5 8.5 25.6193 8.5 27C8.5 28.3807 9.61929 29.5 11 29.5ZM11 32C13.7614 32 16 29.7614 16 27C16 24.2386 13.7614 22 11 22C8.23858 22 6 24.2386 6 27C6 29.7614 8.23858 32 11 32Z" fill="black"/>
<path fill-rule="evenodd" clip-rule="evenodd" d="M30 29.5C31.3807 29.5 32.5 28.3807 32.5 27C32.5 25.6193 31.3807 24.5 30 24.5C28.6193 24.5 27.5 25.6193 27.5 27C27.5 28.3807 28.6193 29.5 30 29.5ZM30 32C32.7614 32 35 29.7614 35 27C35 24.2386 32.7614 22 30 22C27.2386 22 25 24.2386 25 27C25 29.7614 27.2386 32 30 32Z" fill="black"/>
<path d="M28 10.5H5C4.72386 10.5 4.5 10.7239 4.5 11V25C4.5 25.2761 4.72386 25.5 5 25.5H6.2289C6.08018 25.9735 6 26.4774 6 27C6 27.3425 6.03443 27.6769 6.10002 28H5C3.34315 28 2 26.6569 2 25V11C2 9.34315 3.34315 8 5 8H28C34.0751 8 39 12.9249 39 19V25C39 26.6569 37.6569 28 36 28H34.9C34.9656 27.6769 35 27.3425 35 27C35 26.4774 34.9198 25.9735 34.7711 25.5H36C36.2761 25.5 36.5 25.2761 36.5 25V19C36.5 14.3056 32.6944 10.5 28 10.5Z" fill="black"/>
<path d="M25.2289 25.5H15.7711C15.9198 25.9735 16 26.4774 16 27C16 27.3425 15.9656 27.6769 15.9 28H25.1C25.0344 27.6769 25 27.3425 25 27C25 26.4774 25.0802 25.9735 25.2289 25.5Z" fill="black"/>
</svg>
