<svg width="40" height="40" viewBox="0 0 40 40" fill="none" xmlns="http://www.w3.org/2000/svg">
<path fill-rule="evenodd" clip-rule="evenodd" d="M2 10.5C2 8.84314 3.34315 7.5 5 7.5H30C34.9706 7.5 39 11.5294 39 16.5V24.5C39 26.1569 37.6569 27.5 36 27.5C36 24.1863 33.3137 21.5 30 21.5C26.6863 21.5 24 24.1863 24 27.5H17C17 24.1863 14.3137 21.5 11 21.5C7.68629 21.5 5 24.1863 5 27.5C3.34315 27.5 2 26.1569 2 24.5V10.5ZM5 11.5C5 10.9478 5.44772 10.5 6 10.5H8.99579C9.54807 10.5 9.99579 10.9478 9.99579 11.5V16.5C9.99579 17.0522 9.54807 17.5 8.99579 17.5H6C5.5 17.5 5 17 5 16.5V11.5ZM13.0109 10.5C12.4586 10.5 12.0109 10.9478 12.0109 11.5L12 16.5C12 17 12.5 17.5 13 17.5H17.0109C17.5632 17.5 18.0109 17.0522 18.0109 16.5V11.5C18.0109 10.9478 17.5632 10.5 17.0109 10.5H13.0109ZM20.0259 11.5C20.0259 10.9478 20.4736 10.5 21.0259 10.5H25.0259C25.5782 10.5 26.0259 10.9478 26.0259 11.5V16.5C26.0259 17.0522 25.5782 17.5 25.0259 17.5H22.0259C20.9213 17.5 20 17.6046 20 16.5L20.0259 11.5ZM29.0409 10.5C28.4886 10.5 28.0409 10.9478 28.0409 11.5V16.5C28.0409 17.0522 28.4886 17.5 29.0409 17.5H35.0409C35.5932 17.5 36.0409 17.0522 36.0409 16.5C36.0409 13.1863 33.3546 10.5 30.0409 10.5H29.0409Z" fill="black"/>
<path d="M15 27.5C15 29.7091 13.2091 31.5 11 31.5C8.79086 31.5 7 29.7091 7 27.5C7 25.2909 8.79086 23.5 11 23.5C13.2091 23.5 15 25.2909 15 27.5Z" fill="black"/>
<path d="M34 27.5C34 29.7091 32.2091 31.5 30 31.5C27.7909 31.5 26 29.7091 26 27.5C26 25.2909 27.7909 23.5 30 23.5C32.2091 23.5 34 25.2909 34 27.5Z" fill="black"/>
</svg>
