<svg width="40" height="40" viewBox="0 0 40 40" fill="none" xmlns="http://www.w3.org/2000/svg">
<path d="M15.0051 10.415C14.3151 10.415 13.7551 9.85496 13.7551 9.16496C13.7551 8.47496 14.3151 7.91496 15.0051 7.91496H19.2751L21.1752 4.58496H6.66516C5.97516 4.58496 5.41516 4.02496 5.41516 3.33496C5.41516 2.64496 5.97516 2.08496 6.66516 2.08496H33.3251C34.0151 2.08496 34.5751 2.64496 34.5751 3.33496C34.5751 4.02496 34.0151 4.58496 33.3251 4.58496H24.0552L22.1552 7.91496H25.0051C25.6951 7.91496 26.2551 8.47496 26.2551 9.16496C26.2551 9.85496 25.6951 10.415 25.0051 10.415H15.0051Z" fill="black"/>
<path d="M33.3348 27.915H6.67493C5.98493 27.915 5.42493 27.355 5.42493 26.665C5.42493 25.975 5.98493 25.415 6.67493 25.415H18.7549V13.335C18.7549 12.645 19.3149 12.085 20.0049 12.085C20.6949 12.085 21.2549 12.645 21.2549 13.335V25.415H33.3348C34.0248 25.415 34.5848 25.975 34.5848 26.665C34.5848 27.355 34.0248 27.915 33.3348 27.915Z" fill="black"/>
<path d="M28.0049 37.9149H12.0049C9.60488 37.9149 7.58486 36.575 6.85486 34.485C6.20486 32.625 5.42493 29.615 5.42493 25.825C5.42493 22.035 6.22491 18.405 6.90491 16.085C7.60491 13.685 9.84484 12.075 12.4648 12.075H27.5449C30.1649 12.075 32.4049 13.685 33.1049 16.085C33.7749 18.395 34.5848 21.965 34.5848 25.825C34.5848 29.685 33.8049 32.625 33.1549 34.485C32.4249 36.565 30.4049 37.905 28.0049 37.905V37.9149ZM12.4648 14.575C10.9648 14.575 9.69493 15.465 9.30493 16.785C8.67493 18.945 7.92493 22.265 7.92493 25.825C7.92493 29.385 8.62484 31.985 9.21484 33.655C9.58484 34.725 10.6849 35.405 12.0049 35.405H28.0049C29.3249 35.405 30.4249 34.715 30.7949 33.655C31.3849 31.975 32.0848 29.255 32.0848 25.825C32.0848 22.395 31.3348 18.945 30.7048 16.785C30.3148 15.465 29.0449 14.575 27.5449 14.575H12.4648Z" fill="black"/>
</svg>
