<svg width="40" height="40" viewBox="0 0 40 40" fill="none" xmlns="http://www.w3.org/2000/svg">
<path fill-rule="evenodd" clip-rule="evenodd" d="M5 3.67C5 2.75 5.74992 2 6.66992 2H33.3301C34.2501 2 35 2.75 35 3.67C35 4.59 34.2501 5.34 33.3301 5.34H24.2695L22.9502 7.53H25C25.92 7.53 26.6699 8.28 26.6699 9.2C26.6699 10.12 25.92 10.87 25 10.87H20.0303C20.0303 10.87 19.9897 10.87 19.9697 10.87H15C14.08 10.87 13.3301 10.12 13.3301 9.2C13.3301 8.28 14.08 7.53 15 7.53H19.0596L20.3799 5.34H6.66992C5.74992 5.34 5 4.59 5 3.67Z" fill="black"/>
<path fill-rule="evenodd" clip-rule="evenodd" d="M12.46 15.3398C11.11 15.3398 10.0202 16.1298 9.7002 17.2498C9.1002 19.3098 8.44961 22.2098 8.34961 25.3398H18.3301V15.3398H12.46ZM12.46 12.0098C9.81996 12.0098 7.29 13.5998 6.5 16.3198C5.79 18.7398 5 22.3098 5 26.1698C5 26.3798 5.01953 27.1098 5.01953 27.3198C5.14953 30.5498 5.81996 33.1598 6.45996 34.9698C7.31996 37.4298 9.69 38.6698 12 38.6698H28C30.31 38.6698 32.68 37.4298 33.54 34.9698C34.19 33.1398 34.8605 30.4898 34.9805 27.2198C34.9805 27.1798 34.9805 27.2598 34.9805 27.2198C34.9805 27.2198 35 26.4198 35 26.1698C35 22.2998 34.21 18.7398 33.5 16.3198C32.71 13.5998 30.18 12.0098 27.54 12.0098H12.46ZM21.6602 15.3398V25.3398H31.6504C31.5504 22.2098 30.8998 19.3098 30.2998 17.2498C29.9798 16.1298 28.89 15.3398 27.54 15.3398H21.6602Z" fill="black"/>
</svg>
