<svg width="40" height="40" viewBox="0 0 40 40" fill="none" xmlns="http://www.w3.org/2000/svg">
<path d="M12 29C12 30.6569 10.6569 32 9 32C7.34315 32 6 30.6569 6 29C6 27.3431 7.34315 26 9 26C10.6569 26 12 27.3431 12 29Z" fill="black"/>
<path fill-rule="evenodd" clip-rule="evenodd" d="M0 22C0 19.7909 1.79086 18 4 18H36C38.2091 18 40 19.7909 40 22V26C40 27.1046 39.1046 28 38 28H35.9C35.4367 25.7178 33.419 24 31 24C28.581 24 26.5633 25.7178 26.1 28H13.9C13.4367 25.7178 11.419 24 9 24C6.58104 24 4.56329 25.7178 4.10002 28H2C0.895431 28 0 27.1046 0 26V22Z" fill="black"/>
<path d="M34 29C34 30.6569 32.6569 32 31 32C29.3431 32 28 30.6569 28 29C28 27.3431 29.3431 26 31 26C32.6569 26 34 27.3431 34 29Z" fill="black"/>
<path fill-rule="evenodd" clip-rule="evenodd" d="M8.56155 12C8.10268 12 7.7027 12.3123 7.59141 12.7575L5.72761 20.2127L3.78732 19.7276L5.65113 12.2724C5.985 10.9369 7.18495 10 8.56155 10H23.7639C24.9002 10 25.939 10.642 26.4472 11.6584L30.3416 19.4472L28.5528 20.3416L24.6584 12.5528C24.489 12.214 24.1427 12 23.7639 12H14V20H12V12H8.56155Z" fill="black"/>
</svg>
