<svg width="40" height="40" viewBox="0 0 40 40" fill="none" xmlns="http://www.w3.org/2000/svg">
<path d="M34.995 29.585H31.665C30.975 29.585 30.415 29.025 30.415 28.335C30.415 27.645 30.975 27.085 31.665 27.085H34.995C35.225 27.085 35.415 26.895 35.415 26.665V22.055C35.415 21.265 34.975 20.545 34.265 20.195L29.445 17.785C29.255 17.695 29.095 17.555 28.985 17.385L24.145 10.475C23.755 9.91496 23.115 9.58496 22.435 9.58496H7.48502L4.58502 16.105V25.645C4.58502 25.805 4.67503 25.945 4.81503 26.015L6.87503 27.045C6.93503 27.075 6.99503 27.085 7.06503 27.085H8.33502C9.02502 27.085 9.58502 27.645 9.58502 28.335C9.58502 29.025 9.02502 29.585 8.33502 29.585H7.06503C6.61503 29.585 6.16501 29.475 5.76501 29.275L3.70502 28.245C2.71502 27.745 2.09503 26.745 2.09503 25.635V15.835C2.09503 15.665 2.13502 15.485 2.20502 15.325L4.75504 9.58496H3.34503C2.65503 9.58496 2.09503 9.02496 2.09503 8.33496C2.09503 7.64496 2.65503 7.08496 3.34503 7.08496H22.445C23.935 7.08496 25.345 7.81496 26.195 9.04496L30.855 15.695L35.3951 17.965C36.9551 18.745 37.925 20.315 37.925 22.065V26.675C37.925 28.285 36.615 29.595 35.005 29.595L34.995 29.585ZM24.995 29.585H14.995C14.305 29.585 13.745 29.025 13.745 28.335C13.745 27.645 14.305 27.085 14.995 27.085H24.995C25.685 27.085 26.245 27.645 26.245 28.335C26.245 29.025 25.685 29.585 24.995 29.585Z" fill="black"/>
<path d="M11.665 32.9149C9.13504 32.9149 7.08502 30.8549 7.08502 28.3349C7.08502 25.8149 9.14504 23.7549 11.665 23.7549C14.185 23.7549 16.245 25.8149 16.245 28.3349C16.245 30.8549 14.185 32.9149 11.665 32.9149ZM11.665 26.2549C10.515 26.2549 9.58502 27.185 9.58502 28.335C9.58502 29.485 10.525 30.4149 11.665 30.4149C12.805 30.4149 13.745 29.485 13.745 28.335C13.745 27.185 12.815 26.2549 11.665 26.2549Z" fill="black"/>
<path d="M28.3249 32.9149C25.7949 32.9149 23.7449 30.8549 23.7449 28.3349C23.7449 25.8149 25.8049 23.7549 28.3249 23.7549C30.8449 23.7549 32.9049 25.8149 32.9049 28.3349C32.9049 30.8549 30.8449 32.9149 28.3249 32.9149ZM28.3249 26.2549C27.1749 26.2549 26.245 27.185 26.245 28.335C26.245 29.485 27.1749 30.4149 28.3249 30.4149C29.4749 30.4149 30.4049 29.4849 30.4049 28.3349C30.4049 27.1849 29.4649 26.2549 28.3249 26.2549Z" fill="black"/>
<path d="M29.995 17.9148H3.32501C2.63501 17.9148 2.07501 17.3548 2.07501 16.6648C2.07501 15.9748 2.63501 15.4148 3.32501 15.4148H29.995C30.685 15.4148 31.245 15.9748 31.245 16.6648C31.245 17.3548 30.685 17.9148 29.995 17.9148Z" fill="black"/>
<path d="M14.9949 17.915C14.3049 17.915 13.7449 17.355 13.7449 16.665V8.33496C13.7449 7.64496 14.3049 7.08496 14.9949 7.08496C15.6849 7.08496 16.2449 7.64496 16.2449 8.33496V16.665C16.2449 17.355 15.6849 17.915 14.9949 17.915Z" fill="black"/>
<path d="M29.995 17.9148H3.32501C2.63501 17.9148 2.07501 17.3548 2.07501 16.6648C2.07501 15.9748 2.63501 15.4148 3.32501 15.4148H29.995C30.685 15.4148 31.245 15.9748 31.245 16.6648C31.245 17.3548 30.685 17.9148 29.995 17.9148Z" fill="black"/>
<path d="M14.9949 17.915C14.3049 17.915 13.7449 17.355 13.7449 16.665V8.33496C13.7449 7.64496 14.3049 7.08496 14.9949 7.08496C15.6849 7.08496 16.2449 7.64496 16.2449 8.33496V16.665C16.2449 17.355 15.6849 17.915 14.9949 17.915Z" fill="black"/>
</svg>
