<svg width="40" height="40" viewBox="0 0 40 40" fill="none" xmlns="http://www.w3.org/2000/svg">
<path d="M11.6699 32.7101C13.9699 32.7101 15.8301 30.8401 15.8301 28.5401C15.8301 26.2401 13.9699 24.3701 11.6699 24.3701C9.36992 24.3701 7.5 26.2401 7.5 28.5401C7.5 30.8401 9.36992 32.7101 11.6699 32.7101Z" fill="black"/>
<path d="M28.3301 32.7101C30.6301 32.7101 32.5 30.8401 32.5 28.5401C32.5 26.2401 30.6301 24.3701 28.3301 24.3701C26.0301 24.3701 24.1699 26.2401 24.1699 28.5401C24.1699 30.8401 26.0301 32.7101 28.3301 32.7101Z" fill="black"/>
<path fill-rule="evenodd" clip-rule="evenodd" d="M2.08008 16.8701C2.08008 16.1801 2.64008 15.6201 3.33008 15.6201H30C30.69 15.6201 31.25 16.1801 31.25 16.8701C31.25 17.5601 30.69 18.1201 30 18.1201H3.33008C2.64008 18.1201 2.08008 17.5601 2.08008 16.8701Z" fill="black"/>
<path fill-rule="evenodd" clip-rule="evenodd" d="M15 7.29004C15.69 7.29004 16.25 7.85004 16.25 8.54004V16.87C16.25 17.56 15.69 18.12 15 18.12C14.31 18.12 13.75 17.56 13.75 16.87V8.54004C13.75 7.85004 14.31 7.29004 15 7.29004Z" fill="black"/>
<path fill-rule="evenodd" clip-rule="evenodd" d="M2.08008 8.54004C2.08008 7.85004 2.64008 7.29004 3.33008 7.29004H22.4302C23.9302 7.29004 25.3299 8.02004 26.1899 9.25004L30.8398 15.9L35.3799 18.17C36.9399 18.95 37.9199 20.53 37.9199 22.27V26.88C37.9199 28.49 36.61 29.8 35 29.8H34.54C34.62 29.4 34.6699 28.98 34.6699 28.55C34.6699 25.05 31.8301 22.22 28.3301 22.22C24.8301 22.22 22 25.06 22 28.55C22 28.98 22.0401 29.4 22.1201 29.8H17.8799C17.9599 29.4 18 28.98 18 28.55C18 25.05 15.1599 22.22 11.6699 22.22C8.17992 22.22 5.33008 25.06 5.33008 28.55C5.33008 28.8 5.34988 29.06 5.37988 29.3L3.7002 28.46C2.7102 27.97 2.08008 26.96 2.08008 25.85V16.05C2.08008 15.88 2.11994 15.7 2.18994 15.54L4.74023 9.80004H3.33008C2.64008 9.80004 2.08008 9.24004 2.08008 8.55004V8.54004ZM7.47998 9.79004L4.89014 15.62H13.75V9.79004H7.47998ZM16.25 9.79004V15.62H27.6001L24.1401 10.68C23.7501 10.12 23.1102 9.79004 22.4302 9.79004H16.25Z" fill="black"/>
</svg>
