<svg width="40" height="40" viewBox="0 0 40 40" fill="none" xmlns="http://www.w3.org/2000/svg">
<path d="M31.6846 25.415H26.6846C25.9946 25.415 25.4346 24.855 25.4346 24.165C25.4346 23.475 25.9946 22.915 26.6846 22.915H31.6846C32.3746 22.915 32.9346 23.475 32.9346 24.165C32.9346 24.855 32.3746 25.415 31.6846 25.415ZM13.3446 25.415H8.34464C7.65463 25.415 7.09464 24.855 7.09464 24.165C7.09464 23.475 7.65463 22.915 8.34464 22.915H13.3446C14.0346 22.915 14.5946 23.475 14.5946 24.165C14.5946 24.855 14.0346 25.415 13.3446 25.415Z" fill="black"/>
<path d="M30.0146 29.5751C29.8646 29.5751 29.7046 29.5451 29.5546 29.4851C28.9146 29.2251 28.6047 28.5051 28.8547 27.8651L31.8246 20.4451C32.2446 19.3951 31.7646 18.2151 30.7346 17.7651L20.1846 13.1051C20.0746 13.0551 19.9547 13.0551 19.8547 13.1051L9.30462 17.7651C8.27462 18.2251 7.79465 19.3951 8.21465 20.4451L11.1846 27.8651C11.4446 28.5051 11.1246 29.2351 10.4846 29.4851C9.84461 29.7451 9.11461 29.4251 8.86461 28.7851L5.89464 21.3651C4.97464 19.0651 6.02467 16.4751 8.29467 15.4651L18.8447 10.8051C19.5947 10.4751 20.4546 10.4751 21.2046 10.8051L31.7546 15.4651C34.0246 16.4651 35.0847 19.0551 34.1547 21.3651L31.1846 28.7851C30.9846 29.2751 30.5146 29.5751 30.0246 29.5751H30.0146Z" fill="black"/>
<path d="M30.0146 17.075C29.3746 17.075 28.8346 16.585 28.7746 15.935L28.2146 9.79502C28.1146 8.71502 27.2246 7.90502 26.1446 7.90502H13.8946C12.8146 7.90502 11.9146 8.71502 11.8246 9.79502L11.2646 15.935C11.2046 16.625 10.5946 17.135 9.90457 17.065C9.21457 17.005 8.71456 16.395 8.77456 15.705L9.33456 9.56502C9.55456 7.18502 11.5146 5.39502 13.8946 5.39502H26.1446C28.5346 5.39502 30.4946 7.18502 30.7046 9.56502L31.2646 15.695C31.3246 16.385 30.8245 16.995 30.1345 17.055C30.0945 17.055 30.0546 17.055 30.0246 17.055L30.0146 17.075Z" fill="black"/>
<path d="M20.0146 7.91496C19.3246 7.91496 18.7646 7.35496 18.7646 6.66496V3.33496C18.7646 2.64496 19.3246 2.08496 20.0146 2.08496C20.7046 2.08496 21.2646 2.64496 21.2646 3.33496V6.66496C21.2646 7.35496 20.7046 7.91496 20.0146 7.91496Z" fill="black"/>
<path d="M35.3845 37.9151C33.9645 37.9151 32.6845 36.7351 31.8745 35.9951C31.1245 35.3051 30.2745 34.5151 29.6945 34.5851C29.2845 34.6351 28.7445 35.1451 28.1745 36.0051C27.5045 37.0151 26.7145 37.5851 25.8245 37.7151C24.3645 37.9251 23.1445 36.9151 22.0645 36.0251C21.2545 35.3551 20.3545 34.5951 19.7045 34.6951C19.2545 34.7651 18.7245 35.2351 18.1745 36.0751C17.6045 36.9451 16.9045 37.4651 16.0845 37.6051C14.6645 37.8551 13.4245 36.9351 12.2345 36.0451C11.3345 35.3751 10.3045 34.5951 9.59454 34.7351C9.04454 34.8351 8.5145 35.4751 8.1745 36.0051C7.1345 37.5551 6.00455 37.8851 5.22455 37.8851H5.20453C4.43453 37.8851 3.29454 37.5551 2.28454 36.0051C1.90454 35.4251 2.07453 34.6551 2.64453 34.2751C3.22453 33.8951 3.99451 34.0651 4.37451 34.6351C4.73451 35.1851 5.04454 35.3851 5.21454 35.3851C5.38454 35.3851 5.70453 35.1851 6.08453 34.6251C6.98453 33.2551 7.98454 32.4751 9.15454 32.2751C10.9345 31.9551 12.4845 33.1151 13.7245 34.0451C14.3445 34.5051 15.2845 35.2151 15.6345 35.1451C15.7145 35.1351 15.8745 35.0051 16.0745 34.6951C17.0645 33.1951 18.1345 32.3851 19.3345 32.2151C21.0745 31.9551 22.5045 33.1451 23.6545 34.0951C24.2245 34.5751 25.1045 35.2951 25.4545 35.2351C25.5645 35.2151 25.7945 35.0451 26.0845 34.6251C27.0945 33.0851 28.1745 32.2551 29.3745 32.1051C31.0945 31.8851 32.4645 33.1451 33.5545 34.1551C35.2145 35.6851 35.3545 35.5451 35.7545 35.1151C36.2245 34.6151 37.0145 34.5851 37.5245 35.0551C38.0245 35.5251 38.0545 36.3151 37.5845 36.8251C36.8345 37.6151 36.0845 37.9151 35.3745 37.9151H35.3845Z" fill="black"/>
</svg>
