<svg width="40" height="40" viewBox="0 0 40 40" fill="none" xmlns="http://www.w3.org/2000/svg">
<path fill-rule="evenodd" clip-rule="evenodd" d="M18.8165 10.8085C19.5665 10.4785 20.4269 10.4785 21.1769 10.8085L31.7369 15.4785C33.9969 16.4785 35.0566 19.0685 34.1466 21.3585L33.5367 22.9085C33.5367 22.9085 33.4769 22.9085 33.4469 22.9085H29.5665C28.8765 22.9085 28.3165 23.4685 28.3165 24.1585C28.3165 24.8485 28.8765 25.4085 29.5665 25.4085H32.5465L31.0065 29.2885C30.6965 29.2185 30.3665 29.1785 30.0265 29.1685C27.8565 29.0785 26.1866 30.0785 24.9366 31.3785C24.1366 30.7285 22.4465 29.4385 20.2565 29.2785C18.0765 29.1285 16.3365 30.0585 15.0265 31.3785L14.9567 31.3285C14.1767 30.7485 12.3966 29.4485 10.1466 29.3085C9.75661 29.2885 9.37672 29.2985 9.01672 29.3385L7.45666 25.4085H10.4166C11.1066 25.4085 11.6666 24.8485 11.6666 24.1585C11.6666 23.4685 11.1066 22.9085 10.4166 22.9085H6.46692L5.85657 21.3585C4.94657 19.0685 6.00672 16.4685 8.26672 15.4785L18.8165 10.8085Z" fill="black"/>
<path fill-rule="evenodd" clip-rule="evenodd" d="M8.89649 9.53877C9.12649 6.95877 11.2865 4.98877 13.8765 4.98877H26.1167C28.7067 4.98877 30.8667 6.95877 31.0967 9.53877L31.6567 15.6788C31.7367 16.5988 31.0665 17.4088 30.1465 17.4888C29.2265 17.5688 28.4164 16.8988 28.3364 15.9788L27.7764 9.83877C27.6964 8.97877 26.9767 8.31877 26.1167 8.31877H13.8765C13.0165 8.31877 12.2968 8.97877 12.2168 9.83877L11.6567 15.9788C11.5767 16.8988 10.7667 17.5688 9.84669 17.4888C8.92669 17.4088 8.25643 16.5988 8.33643 15.6788L8.89649 9.53877Z" fill="black"/>
<path fill-rule="evenodd" clip-rule="evenodd" d="M19.996 1.65869C20.916 1.65869 21.6659 2.40869 21.6659 3.32869V6.65869C21.6659 7.57869 20.916 8.32869 19.996 8.32869C19.076 8.32869 18.326 7.57869 18.326 6.65869V3.32869C18.326 2.40869 19.076 1.65869 19.996 1.65869Z" fill="black"/>
<path fill-rule="evenodd" clip-rule="evenodd" d="M35.2758 34.9786C35.2758 34.9786 35.3662 34.9086 35.4462 34.8286C36.0762 34.1586 37.1361 34.1286 37.8061 34.7586C38.4761 35.3886 38.5059 36.4386 37.8759 37.1186C37.3059 37.7286 36.606 38.1786 35.766 38.3086C34.936 38.4286 34.2059 38.1986 33.6459 37.9086C33.0959 37.6286 32.616 37.2386 32.226 36.8986C32.026 36.7286 31.7658 36.4886 31.5258 36.2686C31.3558 36.1186 31.2061 35.9786 31.0961 35.8786C30.3161 35.1786 29.946 35.0186 29.766 35.0086C29.766 35.0086 29.6663 35.0086 29.4863 35.1286C29.2663 35.2786 28.936 35.5986 28.516 36.2386H28.5058C28.0158 36.9786 27.4059 37.5986 26.6259 37.9186C25.7959 38.2686 24.9861 38.1986 24.3061 37.9686C23.6761 37.7586 23.126 37.3886 22.686 37.0686C22.376 36.8386 22.046 36.5586 21.746 36.3186C21.646 36.2286 21.5362 36.1486 21.4462 36.0686C20.5862 35.3686 20.1361 35.1286 19.8461 35.1086H19.8359C19.8359 35.1086 19.3458 35.0586 18.5058 36.3086C18.0558 37.0086 17.4559 37.5986 16.6459 37.8886C15.8259 38.1886 15.046 38.0786 14.416 37.8686C13.816 37.6586 13.2759 37.3286 12.8359 37.0186C12.5359 36.8186 12.2162 36.5786 11.9262 36.3586C11.7962 36.2586 11.6658 36.1586 11.5458 36.0786C10.6558 35.4286 10.1458 35.1686 9.79583 35.1486C9.69583 35.1486 9.25581 35.1186 8.52581 36.2386H8.51605C7.78605 37.3386 6.68601 38.3086 5.22601 38.3086C3.76601 38.3086 2.65622 37.3386 1.94622 36.2386C1.43622 35.4686 1.6562 34.4386 2.4262 33.9286C3.1962 33.4286 4.23626 33.6386 4.73626 34.4186C4.97626 34.7886 5.14601 34.9186 5.22601 34.9586C5.30601 34.9186 5.48626 34.7886 5.73626 34.4086C6.86626 32.6886 8.28579 31.7186 10.0058 31.8186C11.4658 31.9086 12.7158 32.7886 13.5258 33.3886C13.7058 33.5186 13.866 33.6386 14.016 33.7486C14.266 33.9386 14.4963 34.1086 14.7363 34.2686C15.1063 34.5186 15.346 34.6586 15.516 34.7086C15.526 34.7086 15.5358 34.7086 15.5458 34.7086C15.5858 34.6686 15.646 34.5886 15.726 34.4686C16.896 32.6986 18.3261 31.6486 20.0761 31.7686C21.5661 31.8786 22.7958 32.8586 23.5458 33.4686C23.6958 33.5886 23.8262 33.6986 23.9462 33.7986C24.2162 34.0186 24.446 34.2086 24.686 34.3886C25.026 34.6486 25.2459 34.7586 25.3759 34.8086C25.4359 34.7586 25.556 34.6486 25.726 34.3986C26.836 32.7086 28.196 31.5886 29.916 31.6686C31.416 31.7386 32.5959 32.7386 33.3159 33.3786C33.5459 33.5886 33.7161 33.7386 33.8661 33.8886C34.0361 34.0486 34.1959 34.1886 34.416 34.3786C34.746 34.6786 34.9962 34.8486 35.1762 34.9486C35.2262 34.9686 35.2558 34.9886 35.2758 34.9986V34.9786Z" fill="black"/>
</svg>
