<svg width="40" height="40" viewBox="0 0 40 40" fill="none" xmlns="http://www.w3.org/2000/svg">
<g clip-path="url(#clip0_10_293)">
<path fill-rule="evenodd" clip-rule="evenodd" d="M-0.236058 32L-2.4472 30.8944L-1.55278 29.1056L0.658369 30.2111C1.50295 30.6334 2.49707 30.6334 3.34165 30.2111L3.76394 30C5.17158 29.2962 6.82844 29.2962 8.23608 30L8.65837 30.2111C9.50295 30.6334 10.4971 30.6334 11.3416 30.2111L11.7639 30C13.1716 29.2962 14.8284 29.2962 16.2361 30L16.6584 30.2111C17.503 30.6334 18.4971 30.6334 19.3417 30.2111L19.7639 30C21.1716 29.2962 22.8284 29.2962 24.2361 30L24.6584 30.2111C25.503 30.6334 26.4971 30.6334 27.3417 30.2111L27.7639 30C29.1716 29.2962 30.8284 29.2962 32.2361 30L32.6584 30.2111C33.5029 30.6334 34.4971 30.6334 35.3416 30.2111L35.7639 30C37.1716 29.2962 38.8284 29.2962 40.2361 30L42.4472 31.1056L41.5528 32.8944L39.3416 31.7889C38.4971 31.3666 37.5029 31.3666 36.6584 31.7889L36.2361 32C34.8284 32.7038 33.1716 32.7038 31.7639 32L31.3416 31.7889C30.4971 31.3666 29.503 31.3666 28.6584 31.7889L28.2361 32C26.8284 32.7038 25.1716 32.7038 23.7639 32L23.3417 31.7889C22.4971 31.3666 21.503 31.3666 20.6584 31.7889L20.2361 32C18.8284 32.7038 17.1716 32.7038 15.7639 32L15.3417 31.7889C14.4971 31.3666 13.503 31.3666 12.6584 31.7889L12.2361 32C10.8284 32.7038 9.17158 32.7038 7.76394 32L7.34165 31.7889C6.49707 31.3666 5.50295 31.3666 4.65837 31.7889L4.23608 32C2.82844 32.7038 1.17158 32.7038 -0.236058 32Z" fill="black"/>
<path fill-rule="evenodd" clip-rule="evenodd" d="M38.6126 23H1.38743C0.704874 23 0.222907 23.6687 0.43875 24.3162L1.77208 28.3162C1.79685 28.3905 1.82975 28.4604 1.86961 28.525C2.37239 28.5469 2.87941 28.4423 3.34165 28.2111L3.76394 28C5.17158 27.2962 6.82844 27.2962 8.23607 28L8.65837 28.2111C9.50295 28.6334 10.4971 28.6334 11.3416 28.2111L11.7639 28C13.1716 27.2962 14.8284 27.2962 16.2361 28L16.6584 28.2111C17.5029 28.6334 18.4971 28.6334 19.3416 28.2111L19.7639 28C21.1716 27.2962 22.8284 27.2962 24.2361 28L24.6584 28.2111C25.5029 28.6334 26.4971 28.6334 27.3416 28.2111L27.7639 28C29.1716 27.2962 30.8284 27.2962 32.2361 28L32.6584 28.2111C33.5029 28.6334 34.4971 28.6334 35.3416 28.2111L35.7639 28C36.6213 27.5713 37.5712 27.4037 38.5009 27.4973L39.5613 24.3162C39.7771 23.6687 39.2951 23 38.6126 23Z" fill="black"/>
<path fill-rule="evenodd" clip-rule="evenodd" d="M16.4472 15.1056C16.9412 15.3526 17.1414 15.9532 16.8944 16.4472L15.1708 19.8944C14.832 20.572 14.1395 21 13.382 21H5.61804L3.89444 24.4472C3.64745 24.9412 3.04677 25.1414 2.5528 24.8944C2.05882 24.6474 1.85859 24.0468 2.10558 23.5528L3.82919 20.1056C4.16797 19.428 4.8605 19 5.61804 19H13.382L15.1056 15.5528C15.3526 15.0588 15.9532 14.8586 16.4472 15.1056ZM23.5528 15.1056C24.0468 14.8586 24.6474 15.0588 24.8944 15.5528L26.618 19H34.382C35.1395 19 35.832 19.428 36.1708 20.1056L37.8944 23.5528C38.1414 24.0468 37.9412 24.6474 37.4472 24.8944C36.9532 25.1414 36.3526 24.9412 36.1056 24.4472L34.382 21H26.618C25.8605 21 25.168 20.572 24.8292 19.8944L23.1056 16.4472C22.8586 15.9532 23.0588 15.3526 23.5528 15.1056Z" fill="black"/>
<path fill-rule="evenodd" clip-rule="evenodd" d="M14.2587 12.3922C14.0111 11.1546 14.9577 10 16.2198 10H23.7802C25.0423 10 25.9889 11.1547 25.7414 12.3922L24.9806 16.1961C24.8723 16.7377 24.3455 17.0889 23.8039 16.9806C23.2623 16.8723 22.9111 16.3454 23.0194 15.8039L23.7802 12H16.2198L16.9806 15.8039C17.0889 16.3454 16.7377 16.8723 16.1961 16.9806C15.6546 17.0889 15.1277 16.7377 15.0194 16.1961L14.2587 12.3922Z" fill="black"/>
<path d="M21 15C21 14.4477 21.4477 14 22 14H24V16H22C21.4477 16 21 15.5523 21 15Z" fill="black"/>
<path d="M19 15C19 14.4477 18.5523 14 18 14H16V16H18C18.5523 16 19 15.5523 19 15Z" fill="black"/>
</g>
<defs>
<clipPath id="clip0_10_293">
<rect width="40" height="40" fill="white"/>
</clipPath>
</defs>
</svg>
