<svg width="40" height="40" viewBox="0 0 40 40" fill="none" xmlns="http://www.w3.org/2000/svg">
<path fill-rule="evenodd" clip-rule="evenodd" d="M3.61062 14.9052C4.12062 14.1352 5.16019 13.9352 5.92019 14.4452L8.42019 16.1152C9.19019 16.6252 9.39991 17.6652 8.88991 18.4252C8.37991 19.1952 7.34034 19.3952 6.58034 18.8852L4.08034 17.2152C3.31034 16.7052 3.10062 15.6652 3.61062 14.9052Z" fill="black"/>
<path fill-rule="evenodd" clip-rule="evenodd" d="M36.3899 14.905C36.8999 15.675 36.6902 16.705 35.9202 17.215L33.4202 18.885C32.6602 19.395 31.6206 19.185 31.1106 18.425C30.6006 17.655 30.8103 16.625 31.5803 16.115L34.0803 14.445C34.8403 13.935 35.8799 14.145 36.3899 14.905Z" fill="black"/>
<path d="M4.71973 33.975C5.56973 34.315 6.5598 34.675 7.5498 34.965C8.4898 35.235 9.67008 35.505 10.8301 35.505V36.475C10.8301 37.105 10.4701 37.685 9.87012 37.875C9.19012 38.095 8.20008 38.335 7.08008 38.335C5.96008 38.335 4.98004 38.095 4.29004 37.875C3.69004 37.685 3.33008 37.105 3.33008 36.475V33.395C3.75008 33.575 4.21973 33.775 4.71973 33.975Z" fill="black"/>
<path d="M29.1699 35.4948V36.4648C29.1699 37.0948 29.5199 37.6748 30.1299 37.8648C30.8099 38.0848 31.7999 38.3248 32.9199 38.3248C34.0399 38.3248 35.02 38.0848 35.71 37.8648C36.31 37.6748 36.6699 37.0948 36.6699 36.4648V33.3848C36.2499 33.5648 35.7803 33.7648 35.2803 33.9648C34.4303 34.3048 33.4402 34.6648 32.4502 34.9548C31.5102 35.2248 30.3299 35.4948 29.1699 35.4948Z" fill="black"/>
<path fill-rule="evenodd" clip-rule="evenodd" d="M7.5 15.8252C7.01 15.8252 6.53973 16.0452 6.21973 16.4252L3.20996 20.0352C2.20996 21.2352 1.66992 22.7452 1.66992 24.3052V29.1652C1.66992 29.7952 2.01984 30.3752 2.58984 30.6552C2.58984 30.6552 2.76008 30.7352 2.83008 30.7752C2.98008 30.8452 3.18996 30.9452 3.45996 31.0752C3.97996 31.3152 4.71027 31.6452 5.53027 31.9652C6.34027 32.2852 7.26039 32.6252 8.15039 32.8752C9.02039 33.1252 9.98008 33.3252 10.8301 33.3252H29.1699C30.0199 33.3252 30.9796 33.1152 31.8496 32.8752C32.7396 32.6152 33.6597 32.2852 34.4697 31.9652C35.2897 31.6352 36.02 31.3152 36.54 31.0752C36.81 30.9552 37.0199 30.8552 37.1699 30.7752C37.2499 30.7352 37.3702 30.6752 37.4102 30.6552C37.9802 30.3752 38.3301 29.7952 38.3301 29.1652V24.3052C38.3301 22.7452 37.79 21.2352 36.79 20.0352L33.7803 16.4252C33.4603 16.0452 32.99 15.8252 32.5 15.8252H7.5ZM6.13965 21.2852C5.46965 21.1152 4.79012 21.5252 4.62012 22.1952C4.45012 22.8652 4.86027 23.5452 5.53027 23.7152L8.86035 24.5452C9.53035 24.7152 10.2099 24.3052 10.3799 23.6352C10.5499 22.9652 10.1397 22.2852 9.46973 22.1152L6.13965 21.2852ZM35.3799 22.1952C35.5499 22.8652 35.1397 23.5452 34.4697 23.7152L31.1396 24.5452C30.4696 24.7152 29.7901 24.3052 29.6201 23.6352C29.4501 22.9652 29.8603 22.2852 30.5303 22.1152L33.8604 21.2852C34.5303 21.1152 35.2099 21.5252 35.3799 22.1952ZM25.3701 27.8052L26.0996 29.9952H13.8799L14.6104 27.8052C14.8404 27.1252 15.4804 26.6652 16.1904 26.6652H23.79C24.51 26.6652 25.1401 27.1252 25.3701 27.8052Z" fill="black"/>
<path fill-rule="evenodd" clip-rule="evenodd" d="M13.24 9.16519C12.52 9.16519 11.8802 9.62519 11.6502 10.3052L9.07984 18.0252C8.78984 18.8952 7.84949 19.3752 6.96949 19.0752C6.09949 18.7852 5.62968 17.8352 5.91968 16.9652L8.49 9.24519C9.17 7.20519 11.08 5.8252 13.24 5.8252H26.7595C28.9195 5.8252 30.8295 7.20519 31.5095 9.24519L34.0798 16.9652C34.3698 17.8352 33.9 18.7852 33.03 19.0752C32.15 19.3652 31.2097 18.8952 30.9197 18.0252L28.3494 10.3052C28.1194 9.62519 27.4795 9.16519 26.7595 9.16519H13.24Z" fill="black"/>
<path d="M13.0997 4.34504C13.4097 2.78504 14.7802 1.66504 16.3702 1.66504H23.63C25.22 1.66504 26.5905 2.78504 26.9005 4.34504L27.4699 7.17504C27.6499 8.07504 27.0603 8.95504 26.1603 9.13504H13.84C12.94 8.95504 12.3504 8.07504 12.5304 7.17504L13.0997 4.34504Z" fill="black"/>
</svg>
