<svg width="40" height="40" viewBox="0 0 40 40" fill="none" xmlns="http://www.w3.org/2000/svg">
<path d="M7.49499 24.5752C7.39499 24.5752 7.295 24.5652 7.195 24.5352L3.86498 23.7052C3.19498 23.5352 2.78501 22.8552 2.95501 22.1852C3.12501 21.5152 3.80497 21.1152 4.47497 21.2752L7.80499 22.1052C8.47499 22.2752 8.88496 22.9552 8.71496 23.6252C8.57496 24.1952 8.065 24.5752 7.505 24.5752H7.49499Z" fill="black"/>
<path d="M32.4949 24.575C31.9349 24.575 31.4248 24.195 31.2848 23.625C31.1148 22.955 31.5249 22.275 32.1949 22.105L35.5249 21.275C36.1949 21.105 36.8748 21.515 37.0448 22.185C37.2149 22.855 36.8049 23.535 36.1349 23.705L32.8049 24.535C32.7049 24.565 32.6049 24.575 32.5049 24.575H32.4949Z" fill="black"/>
<path d="M7.49495 18.745C7.25495 18.745 7.01495 18.675 6.80495 18.535L4.30495 16.865C3.73495 16.485 3.57497 15.705 3.95497 15.135C4.33497 14.565 5.11495 14.405 5.68495 14.785L8.18495 16.455C8.75495 16.835 8.91493 17.615 8.53493 18.185C8.29493 18.545 7.89495 18.745 7.49495 18.745Z" fill="black"/>
<path d="M32.4949 18.7451C32.0949 18.7451 31.6949 18.5451 31.4549 18.1851C31.0749 17.6151 31.2248 16.8351 31.8048 16.4551L34.3048 14.7851C34.8748 14.4051 35.6548 14.5551 36.0348 15.1351C36.4148 15.7151 36.2649 16.4851 35.6849 16.8651L33.1849 18.5351C32.9749 18.6751 32.7348 18.7451 32.4949 18.7451Z" fill="black"/>
<path d="M7.07501 37.915C5.77501 37.915 4.63502 37.635 3.89502 37.395C2.80502 37.045 2.07501 35.995 2.07501 34.805V28.335C2.07501 27.645 2.63501 27.085 3.32501 27.085C4.01501 27.085 4.57501 27.645 4.57501 28.335V34.805C4.57501 34.905 4.61498 35.005 4.66498 35.015C5.22498 35.195 6.10501 35.415 7.07501 35.415C8.04501 35.415 8.91499 35.195 9.48499 35.015C9.53499 34.995 9.57501 34.905 9.57501 34.805V31.665C9.57501 30.975 10.135 30.415 10.825 30.415C11.515 30.415 12.075 30.975 12.075 31.665V34.805C12.075 36.005 11.345 37.045 10.255 37.395C9.525 37.635 8.37501 37.915 7.07501 37.915Z" fill="black"/>
<path d="M32.9149 37.915C31.6149 37.915 30.4749 37.635 29.7349 37.395C28.6449 37.045 27.9149 35.995 27.9149 34.805V31.665C27.9149 30.975 28.4749 30.415 29.1649 30.415C29.8549 30.415 30.4149 30.975 30.4149 31.665V34.805C30.4149 34.905 30.4549 35.005 30.5049 35.015C31.0649 35.195 31.9449 35.415 32.9149 35.415C33.8849 35.415 34.7549 35.195 35.3249 35.015C35.3749 34.995 35.4149 34.905 35.4149 34.805V28.335C35.4149 27.645 35.9749 27.085 36.6649 27.085C37.3549 27.085 37.9149 27.645 37.9149 28.335V34.805C37.9149 36.005 37.1848 37.045 36.0948 37.395C35.3648 37.635 34.2149 37.915 32.9149 37.915Z" fill="black"/>
<path d="M10.835 32.9151C8.12502 32.9151 3.31502 30.5551 2.77502 30.2851C2.35502 30.0751 2.08502 29.6451 2.08502 29.1651V24.3051C2.08502 22.8451 2.59497 21.4251 3.53497 20.3051L6.54498 16.6951C6.78498 16.4051 7.135 16.2451 7.505 16.2451H32.505C32.875 16.2451 33.225 16.4051 33.465 16.6951L36.475 20.3051C37.405 21.4251 37.925 22.8451 37.925 24.3051V29.1651C37.925 29.6351 37.655 30.0751 37.235 30.2851C36.695 30.5551 31.885 32.9151 29.175 32.9151H10.835ZM4.57501 28.3751C6.23501 29.1451 9.27501 30.415 10.825 30.415L29.155 30.4151C30.575 30.4151 33.485 29.2751 35.405 28.3751V24.3051C35.405 23.4251 35.095 22.5751 34.535 21.9051L31.905 18.7451H8.07501L5.44501 21.9051C4.88501 22.5751 4.57501 23.4351 4.57501 24.3051V28.3751Z" fill="black"/>
<path d="M26.6651 32.915C26.1451 32.915 25.6551 32.585 25.4751 32.065L24.1851 28.205C24.1251 28.035 23.9651 27.915 23.7851 27.915H16.1851C16.0051 27.915 15.8451 28.025 15.7851 28.195L14.4951 32.055C14.2751 32.705 13.5651 33.065 12.9151 32.845C12.2651 32.625 11.9051 31.915 12.1251 31.265L13.4151 27.405C13.8151 26.215 14.9251 25.415 16.1851 25.415H23.7851C25.0451 25.415 26.1551 26.215 26.5551 27.415L27.8451 31.275C28.0651 31.935 27.7051 32.635 27.0551 32.855C26.9251 32.895 26.7951 32.915 26.6551 32.915H26.6651Z" fill="black"/>
<path d="M32.4949 18.7451C31.9748 18.7451 31.485 18.4151 31.305 17.8951L28.735 10.1751C28.455 9.32513 27.655 8.75513 26.755 8.75513H13.225C12.325 8.75513 11.535 9.32513 11.245 10.1751L8.67501 17.8951C8.45501 18.5451 7.745 18.9051 7.095 18.6851C6.445 18.4651 6.08502 17.7551 6.30502 17.1051L8.87503 9.38513C9.49503 7.51513 11.245 6.25513 13.225 6.25513H26.755C28.735 6.25513 30.475 7.51513 31.105 9.38513L33.675 17.1051C33.895 17.7651 33.535 18.4651 32.885 18.6851C32.755 18.7251 32.625 18.7451 32.485 18.7451L32.4949 18.7451Z" fill="black"/>
<path d="M25.825 8.74496C25.245 8.74496 24.715 8.33496 24.605 7.74496L24.035 4.91496C23.9949 4.72496 23.825 4.58496 23.625 4.58496H16.355C16.155 4.58496 15.985 4.72496 15.945 4.91496L15.375 7.74496C15.235 8.42496 14.5849 8.85496 13.9049 8.72496C13.2249 8.58496 12.785 7.93496 12.925 7.25496L13.495 4.42496C13.765 3.06496 14.965 2.08496 16.355 2.08496H23.625C25.015 2.08496 26.215 3.07496 26.485 4.43496L27.055 7.26496C27.195 7.94496 26.755 8.60496 26.075 8.73496C25.995 8.75496 25.905 8.75496 25.825 8.75496V8.74496Z" fill="black"/>
</svg>
