<svg width="40" height="40" viewBox="0 0 40 40" fill="none" xmlns="http://www.w3.org/2000/svg">
<path fill-rule="evenodd" clip-rule="evenodd" d="M17 9C17 8.5 16.5 8 16 8L15 8.00006C14.5 8 14 8.5 14 9V11H11.524C10.8677 11 10.2532 11.322 9.87962 11.8616L5.98003 17.4943H2C0.895431 17.4943 0 18.3898 0 19.4943V25C0 26.1046 0.895431 27 2 27H4.10002C4.56329 24.7178 6.58104 23 9 23C11.419 23 13.4367 24.7178 13.9 27H26.1C26.5633 24.7178 28.581 23 31 23C33.419 23 35.4367 24.7178 35.9 27H38C39.1046 27 40 26.1046 40 25V19.1655C39.8393 18.2011 39.0049 17.4943 38.0272 17.4943H31.4666L26.0296 11.6391C25.6511 11.2316 25.1201 11 24.564 11H17V9ZM26.4441 17.4943C27.3172 17.4943 27.771 16.4537 27.1769 15.8139L24.8607 13.3195C24.6715 13.1158 24.406 13 24.1279 13H21.5C20.9478 13 20.5 13.4477 20.5 14V16.4943C20.5 17.0466 20.9478 17.4943 21.5 17.4943H26.4441ZM17.5 17.4943C18.0523 17.4943 18.5 17.0466 18.5 16.4943V14C18.5 13.4477 18.0523 13 17.5 13H12.048C11.7198 13 11.4125 13.161 11.2258 13.4308L9.49892 15.9251C9.03976 16.5883 9.51445 17.4943 10.3211 17.4943H17.5Z" fill="black"/>
<path d="M34 28C34 29.6568 32.6569 31 31 31C29.3431 31 28 29.6568 28 28C28 26.3431 29.3431 25 31 25C32.6569 25 34 26.3431 34 28Z" fill="black"/>
<path d="M12 28C12 29.6568 10.6569 31 9 31C7.34315 31 6 29.6568 6 28C6 26.3431 7.34315 25 9 25C10.6569 25 12 26.3431 12 28Z" fill="black"/>
</svg>
