<svg width="40" height="40" viewBox="0 0 40 40" fill="none" xmlns="http://www.w3.org/2000/svg">
<path d="M26.672 32.9149H13.3319C8.97191 32.9149 5.422 29.365 5.422 24.995V9.99495C5.422 5.62495 8.97191 2.07495 13.3319 2.07495H26.672C31.032 2.07495 34.5819 5.62495 34.5819 9.99495V24.995C34.5819 29.365 31.032 32.9149 26.672 32.9149ZM13.3319 4.57495C10.3519 4.57495 7.922 7.00495 7.922 9.99495V24.995C7.922 27.985 10.3519 30.415 13.3319 30.415H26.672C29.652 30.415 32.0819 27.985 32.0819 24.995V9.99495C32.0819 7.00495 29.652 4.57495 26.672 4.57495H13.3319Z" fill="black"/>
<path d="M19.172 22.9151C14.902 22.9151 10.4619 22.3251 6.34194 21.205C5.67194 21.025 5.28194 20.3351 5.46194 19.6751C5.64194 19.0051 6.32197 18.615 6.99197 18.795C10.902 19.855 15.112 20.4151 19.162 20.4151C23.212 20.4151 29.072 19.7251 33.032 18.7851C33.702 18.6251 34.382 19.035 34.542 19.715C34.702 20.385 34.292 21.0651 33.612 21.225C29.482 22.215 23.402 22.9251 19.162 22.9251L19.172 22.9151Z" fill="black"/>
<path d="M31.6721 37.915C31.2721 37.915 30.8721 37.715 30.6321 37.355L27.2921 32.355C26.9121 31.785 27.0621 31.005 27.6321 30.625C28.2021 30.245 28.9821 30.395 29.3621 30.965L32.702 35.965C33.082 36.535 32.9321 37.315 32.3621 37.695C32.1521 37.835 31.9121 37.905 31.6721 37.905V37.915ZM8.33204 37.915C8.09204 37.915 7.8521 37.845 7.6421 37.705C7.0721 37.325 6.91214 36.545 7.30214 35.975L10.6421 30.975C11.0221 30.405 11.8021 30.245 12.3721 30.635C12.9421 31.015 13.102 31.795 12.712 32.365L9.37208 37.365C9.13208 37.725 8.73204 37.925 8.33204 37.925V37.915Z" fill="black"/>
<path d="M10.8319 27.075C11.5219 27.075 12.0819 26.515 12.0819 25.825C12.0819 25.135 11.5219 24.575 10.8319 24.575V27.075ZM29.172 24.575C28.482 24.575 27.922 25.135 27.922 25.825C27.922 26.515 28.482 27.075 29.172 27.075V24.575ZM6.672 27.075H10.8319V24.575H6.672V27.075ZM29.172 27.075H33.3319V24.575H29.172V27.075Z" fill="black"/>
</svg>
