<svg width="40" height="40" viewBox="0 0 40 40" fill="none" xmlns="http://www.w3.org/2000/svg">
<path fill-rule="evenodd" clip-rule="evenodd" d="M12.5902 28.6097C13.3602 29.1197 13.5602 30.1597 13.0502 30.9197L9.7201 35.9197C9.2101 36.6897 8.17053 36.8897 7.41053 36.3797C6.64053 35.8697 6.44057 34.8297 6.95057 34.0697L10.2806 29.0697C10.7906 28.2997 11.8202 28.0997 12.5902 28.6097ZM27.4105 28.6097C28.1705 28.0997 29.2101 28.3097 29.7201 29.0697L33.0502 34.0697C33.5602 34.8397 33.3602 35.8697 32.5902 36.3797C31.8202 36.8897 30.7906 36.6797 30.2806 35.9197L26.9506 30.9197C26.4406 30.1497 26.6405 29.1197 27.4105 28.6097Z" fill="black"/>
<path fill-rule="evenodd" clip-rule="evenodd" d="M35 22.91V8.33C35 3.73 31.2699 0 26.6699 0H13.3301C8.73008 0 5 3.73 5 8.33V22.91H9.16992C9.85992 22.91 10.4199 23.47 10.4199 24.16C10.4199 24.85 9.85992 25.41 9.16992 25.41H5.25977C6.18977 29 9.45008 31.66 13.3301 31.66H26.6699C30.5499 31.66 33.8102 29 34.7402 25.41H30.8301C30.1401 25.41 29.5801 24.85 29.5801 24.16C29.5801 23.47 30.1401 22.91 30.8301 22.91H35ZM13.3301 3.33C10.5701 3.33 8.33008 5.57 8.33008 8.33V17.04C11.8501 17.89 15.5699 18.33 19.1699 18.33C22.7699 18.33 27.8299 17.78 31.6699 16.99V8.33C31.6699 5.57 29.4299 3.33 26.6699 3.33H13.3301Z" fill="black"/>
</svg>
