<svg width="40" height="40" viewBox="0 0 40 40" fill="none" xmlns="http://www.w3.org/2000/svg">
<path fill-rule="evenodd" clip-rule="evenodd" d="M20 2.5C29.665 2.5 37.5 10.335 37.5 20C37.5 29.665 29.665 37.5 20 37.5C10.335 37.5 2.5 29.665 2.5 20C2.5 10.335 10.335 2.5 20 2.5ZM20 5.5C11.9919 5.5 5.5 11.9919 5.5 20C5.5 28.0081 11.9919 34.5 20 34.5C28.0081 34.5 34.5 28.0081 34.5 20C34.5 11.9919 28.0081 5.5 20 5.5Z" fill="black"/>
<path d="M13.9575 15.665C13.1525 15.665 12.5 15.0125 12.5 14.2075C12.5 13.4025 13.1525 12.75 13.9575 12.75H26.03C26.835 12.75 27.4875 13.4025 27.4875 14.2075C27.4875 15.0125 26.835 15.665 26.03 15.665H21.45V28.79C21.45 29.5963 20.7963 30.25 19.99 30.25C19.1837 30.25 18.53 29.5963 18.53 28.79V15.665H13.9575Z" fill="black"/>
</svg>
