<svg width="40" height="40" viewBox="0 0 40 40" fill="none" xmlns="http://www.w3.org/2000/svg">
<path d="M13.9673 15.415C13.1623 15.415 12.5098 14.7625 12.5098 13.9575C12.5098 13.1525 13.1623 12.5 13.9673 12.5H26.0398C26.8447 12.5 27.4973 13.1525 27.4973 13.9575C27.4973 14.7625 26.8447 15.415 26.0398 15.415H21.4598V28.54C21.4598 29.3463 20.8061 30 19.9998 30C19.1934 30 18.5398 29.3463 18.5398 28.54V15.415H13.9673Z" fill="black"/>
<path fill-rule="evenodd" clip-rule="evenodd" d="M2.5 20C2.5 10.35 10.35 2.5 20 2.5C29.65 2.5 37.5 10.35 37.5 20C37.5 29.65 29.65 37.5 20 37.5C10.35 37.5 2.5 29.65 2.5 20ZM35 20C35 11.73 28.27 5 20 5C11.7275 5 5 11.73 5 20C5 28.27 11.7275 35 20 35C28.27 35 35 28.27 35 20Z" fill="black"/>
</svg>
