<svg width="40" height="40" viewBox="0 0 40 40" fill="none" xmlns="http://www.w3.org/2000/svg">
<path fill-rule="evenodd" clip-rule="evenodd" d="M17.5291 3.41105C17.8291 3.80105 17.869 4.33105 17.639 4.76105C16.669 6.58105 16.109 8.66105 16.109 10.8811C16.109 18.0711 21.939 23.8911 29.129 23.8911C31.339 23.8911 33.419 23.3411 35.239 22.3611C35.679 22.1311 36.209 22.1711 36.589 22.4711C36.979 22.771 37.1591 23.2711 37.0491 23.7511C35.2591 31.3911 28.399 37.0811 20.209 37.0811C10.659 37.0811 2.91907 29.3411 2.91907 19.7911C2.91907 11.6011 8.60902 4.74105 16.249 2.95105C16.729 2.84105 17.2291 3.02105 17.5291 3.41105Z" fill="black"/>
</svg>
