<svg width="20" height="20" viewBox="0 0 20 20" fill="none" xmlns="http://www.w3.org/2000/svg">
<path fill-rule="evenodd" clip-rule="evenodd" d="M8.76447 1.70546C8.91447 1.90046 8.93446 2.16546 8.81946 2.38046C8.33446 3.29046 8.05444 4.33046 8.05444 5.44046C8.05444 9.03547 10.9695 11.9455 14.5645 11.9455C15.6695 11.9455 16.7094 11.6705 17.6194 11.1805C17.8394 11.0655 18.1044 11.0855 18.2944 11.2355C18.4894 11.3855 18.5795 11.6355 18.5245 11.8755C17.6295 15.6955 14.1994 18.5405 10.1044 18.5405C5.32943 18.5405 1.45947 14.6705 1.45947 9.89547C1.45947 5.80047 4.30445 2.37046 8.12445 1.47546C8.36445 1.42046 8.61447 1.51046 8.76447 1.70546Z" fill="white"/>
</svg>
