<svg width="40" height="40" viewBox="0 0 40 40" fill="none" xmlns="http://www.w3.org/2000/svg">
<path d="M20.2091 37.0811C10.6791 37.0811 2.91907 29.3211 2.91907 19.7911C2.91907 11.7211 8.39915 4.79105 16.2491 2.95105C16.7291 2.84105 17.2289 3.02105 17.5289 3.41105C17.8289 3.80105 17.8693 4.33105 17.6393 4.76105C16.6393 6.64105 16.109 8.75105 16.109 10.8811C16.109 18.0511 21.949 23.8911 29.129 23.8911C31.259 23.8911 33.3694 23.3611 35.2394 22.3611C35.6694 22.1311 36.199 22.1711 36.589 22.4711C36.979 22.7711 37.159 23.2711 37.049 23.7511C35.209 31.6011 28.2891 37.0811 20.2091 37.0811ZM14.3292 6.20105C8.96922 8.50105 5.41907 13.7711 5.41907 19.7911C5.41907 27.9511 12.0491 34.5811 20.2091 34.5811C26.2291 34.5811 31.499 31.0211 33.799 25.6611C32.299 26.1311 30.719 26.381 29.129 26.381C20.569 26.381 13.609 19.421 13.609 10.871C13.609 9.29105 13.8592 7.71105 14.3292 6.20105Z" fill="black"/>
</svg>
