<svg width="40" height="40" viewBox="0 0 40 40" fill="none" xmlns="http://www.w3.org/2000/svg">
<path fill-rule="evenodd" clip-rule="evenodd" d="M23.3294 7.05546C26.0036 3.31258 31.4515 2.55368 34.9335 4.64245C35.1095 4.74799 35.2567 4.89523 35.3623 5.07115C37.4767 8.59434 36.546 13.2834 33.403 15.9422C33.403 15.9422 33.403 15.9422 33.403 15.9422L30.9588 18.0099L33.2312 26.6434C33.2312 26.6434 33.2312 26.6434 33.2312 26.6434C33.6479 28.2263 33.1922 29.9115 32.0346 31.0688L29.8403 33.2626C29.5734 33.5295 29.2002 33.6615 28.8248 33.6217C28.4495 33.5819 28.1122 33.3747 27.9071 33.0578L22.2277 24.2825L19.0046 27.505L19.5309 32.2406C19.5728 32.618 19.4409 32.9941 19.1723 33.2626L16.8018 35.6328C16.5176 35.9169 16.1143 36.047 15.7177 35.9827C15.3211 35.9183 14.9797 35.6673 14.8 35.3079L11.4303 28.5701L4.6911 25.2012C4.33166 25.0216 4.08052 24.68 4.01615 24.2834C3.95179 23.8867 4.08204 23.4833 4.36622 23.1992L6.73685 20.829C7.00535 20.5606 7.3813 20.4287 7.75865 20.4706L12.4956 20.9968L15.7184 17.7746L6.94168 12.0968C6.6247 11.8917 6.41738 11.5544 6.3776 11.1789C6.33783 10.8035 6.46987 10.4302 6.73686 10.1633L8.9312 7.96937C8.9312 7.96937 8.9312 7.96937 8.9312 7.96937C10.0887 6.81206 11.7739 6.35661 13.3569 6.7731L21.9213 9.02643L23.3294 7.05546ZM25.3636 8.50882C25.3636 8.50883 25.3636 8.50881 25.3636 8.50882L23.4543 11.1813C23.1525 11.6037 22.6211 11.7956 22.1191 11.6636L12.7208 9.19082C11.9975 9.00051 11.2276 9.20866 10.6988 9.73731L9.59812 10.8378L18.3748 16.5156C18.6918 16.7207 18.8991 17.058 18.9389 17.4335C18.9787 17.8089 18.8466 18.1822 18.5796 18.4491L13.8384 23.1895C13.5699 23.4579 13.194 23.5898 12.8166 23.5479L8.07966 23.0217L7.3605 23.7407L12.9209 26.5202C13.1628 26.6412 13.359 26.8373 13.4799 27.0792L16.2603 32.6389L16.9798 31.9195L16.4535 27.1839C16.4115 26.8064 16.5435 26.4304 16.8121 26.1618L21.5534 21.4215C21.8203 21.1546 22.1935 21.0227 22.5689 21.0624C22.9442 21.1022 23.2815 21.3095 23.4866 21.6263L29.166 30.4017L30.2671 29.3009C30.2671 29.3009 30.2671 29.3008 30.2671 29.3009C30.7958 28.7722 31.0038 28.0026 30.8135 27.2799L28.3404 17.8833C28.2177 17.4172 28.3739 16.9221 28.7418 16.6108L31.7883 14.0335C33.974 12.1846 34.6126 9.01088 33.3733 6.6336C30.9148 5.36504 27.1589 5.9961 25.3636 8.50882Z" fill="black"/>
</svg>
