<svg width="40" height="40" viewBox="0 0 40 40" fill="none" xmlns="http://www.w3.org/2000/svg">
<path fill-rule="evenodd" clip-rule="evenodd" d="M23.3295 7.0555C26.0035 3.31257 31.4515 2.55368 34.9335 4.64245C35.1095 4.748 35.2567 4.89523 35.3623 5.07115C37.4767 8.59435 36.5458 13.2834 33.403 15.9422L30.9588 18.01L33.2312 26.6433C33.6478 28.2263 33.1922 29.9115 32.0347 31.0688L29.8403 33.2627C29.5733 33.5295 29.2002 33.6615 28.8248 33.6217C28.4495 33.582 28.1122 33.3747 27.9072 33.0578L22.2278 24.2825L19.0047 27.505L19.531 32.2407C19.5728 32.618 19.441 32.9942 19.1723 33.2627L16.8017 35.6328C16.5176 35.9168 16.1143 36.047 15.7177 35.9827C15.3211 35.9183 14.9797 35.6673 14.8 35.308L11.4303 28.5702L4.69109 25.2012C4.33165 25.0215 4.08052 24.68 4.01615 24.2833C3.95179 23.8867 4.08205 23.4832 4.36622 23.1992L6.73685 20.829C7.00535 20.5605 7.3813 20.4287 7.75867 20.4707L12.4956 20.9968L15.7185 17.7747L6.94169 12.0968C6.6247 11.8917 6.41739 11.5543 6.3776 11.1789C6.33784 10.8035 6.46987 10.4302 6.73685 10.1633L8.9312 7.96937C10.0888 6.81205 11.7739 6.3566 13.3569 6.7731L21.9213 9.02643L23.3295 7.0555Z" fill="black"/>
</svg>
