<svg width="40" height="40" viewBox="0 0 40 40" fill="none" xmlns="http://www.w3.org/2000/svg">
<path fill-rule="evenodd" clip-rule="evenodd" d="M6.66992 28.33C5.74992 28.33 5 29.08 5 30C5 30.92 5.74992 31.67 6.66992 31.67C7.58992 31.67 8.33008 30.92 8.33008 30C8.33008 29.08 7.58992 28.33 6.66992 28.33ZM1.66992 30C1.66992 27.24 3.90992 25 6.66992 25C9.42992 25 11.6699 27.24 11.6699 30C11.6699 32.76 9.42992 35 6.66992 35C3.90992 35 1.66992 32.76 1.66992 30Z" fill="black"/>
<path fill-rule="evenodd" clip-rule="evenodd" d="M33.3301 28.33C32.4101 28.33 31.6699 29.08 31.6699 30C31.6699 30.92 32.4101 31.67 33.3301 31.67C34.2501 31.67 35 30.92 35 30C35 29.08 34.2501 28.33 33.3301 28.33ZM28.3301 30C28.3301 27.24 30.5701 25 33.3301 25C36.0901 25 38.3301 27.24 38.3301 30C38.3301 32.76 36.0901 35 33.3301 35C30.5701 35 28.3301 32.76 28.3301 30Z" fill="black"/>
<path fill-rule="evenodd" clip-rule="evenodd" d="M23.3298 6.67C23.3298 5.75 24.0797 5 24.9997 5H26.6296C28.8796 5 30.8499 6.5 31.4499 8.66L34.9402 21.22C35.0802 21.72 34.9799 22.26 34.6599 22.67C34.3499 23.08 33.8498 23.33 33.3298 23.33C31.1498 23.33 29.2197 24.37 27.9997 26C27.1597 27.11 26.6696 28.5 26.6696 30C26.6696 30.92 25.9197 31.67 24.9997 31.67H9.99972C9.55972 31.67 9.13004 31.5 8.82004 31.18C8.51004 30.87 8.33008 30.44 8.33008 30C8.33008 29.08 7.58992 28.33 6.66992 28.33C5.74992 28.33 5.03972 27.63 4.99972 26.73C4.95972 25.84 5.64 25.07 6.53 25L25.82 23.39C27.21 21.82 29.0799 20.68 31.1999 20.22L28.24 9.55C28.04 8.83 27.3796 8.33 26.6296 8.33H24.9997C24.0797 8.33 23.3298 7.58 23.3298 6.66V6.67Z" fill="black"/>
</svg>
