<svg width="40" height="40" viewBox="0 0 40 40" fill="none" xmlns="http://www.w3.org/2000/svg">
<path d="M6.67017 34.585C4.14017 34.585 2.08008 32.525 2.08008 30.005C2.08008 27.485 4.14017 25.425 6.67017 25.425C9.20017 25.425 11.2501 27.485 11.2501 30.005C11.2501 32.525 9.20017 34.585 6.67017 34.585ZM6.67017 27.925C5.52017 27.925 4.58008 28.855 4.58008 30.005C4.58008 31.155 5.52017 32.085 6.67017 32.085C7.82017 32.085 8.75012 31.155 8.75012 30.005C8.75012 28.855 7.82017 27.925 6.67017 27.925Z" fill="black"/>
<path d="M33.33 34.585C30.8 34.585 28.75 32.525 28.75 30.005C28.75 27.485 30.8 25.425 33.33 25.425C35.86 25.425 37.92 27.485 37.92 30.005C37.92 32.525 35.86 34.585 33.33 34.585ZM33.33 27.925C32.18 27.925 31.25 28.855 31.25 30.005C31.25 31.155 32.18 32.085 33.33 32.085C34.48 32.085 35.42 31.155 35.42 30.005C35.42 28.855 34.48 27.925 33.33 27.925Z" fill="black"/>
<path d="M25 31.255H10.86C10.17 31.255 9.61002 30.695 9.61002 30.005C9.61002 29.315 10.17 28.755 10.86 28.755H23.83C23.94 27.945 24.1401 27.175 24.4301 26.445L6.77005 27.915C6.07005 27.975 5.48008 27.465 5.42008 26.775C5.36008 26.085 5.87009 25.485 6.56009 25.425L26.0201 23.805C27.4501 22.125 29.45 20.945 31.71 20.555L28.62 9.44504C28.37 8.54504 27.55 7.91504 26.61 7.91504H24.98C24.29 7.91504 23.73 7.35504 23.73 6.66504C23.73 5.97504 24.29 5.41504 24.98 5.41504H26.61C28.66 5.41504 30.4801 6.79504 31.0201 8.77504L34.51 21.335C34.61 21.715 34.5401 22.115 34.3001 22.425C34.0601 22.735 33.7001 22.915 33.3001 22.915C31.0001 22.915 28.9501 24.015 27.6601 25.725C27.6501 25.735 27.64 25.755 27.63 25.765C26.75 26.945 26.23 28.405 26.23 29.995C26.23 30.685 25.67 31.245 24.98 31.245L25 31.255Z" fill="black"/>
</svg>
