<svg width="40" height="40" viewBox="0 0 40 40" fill="none" xmlns="http://www.w3.org/2000/svg">
<path fill-rule="evenodd" clip-rule="evenodd" d="M1.66992 5.00008C1.66992 4.08008 2.41008 3.33008 3.33008 3.33008H15.5601C18.8001 3.33008 21.9601 4.38008 24.5601 6.33008L34.3301 13.6601C36.8501 15.5501 38.3301 18.5101 38.3301 21.6601C38.3301 24.4201 36.1001 26.6601 33.3301 26.6601H3.33008C2.41008 26.6601 1.66992 25.9101 1.66992 24.9901V21.2401H13.3398C14.0298 21.2401 14.5898 20.6801 14.5898 19.9901C14.5898 15.6201 11.0399 12.0701 6.66992 12.0701H1.66992V4.99008V5.00008ZM1.66992 14.5801V18.7501H11.9399C11.3799 16.3601 9.22992 14.5801 6.66992 14.5801H1.66992ZM32.3301 16.3301C32.6401 16.5601 32.9199 16.8101 33.1699 17.0801H28.3301C24.4201 17.0801 21.25 13.9101 21.25 10.0001V8.15008C21.7 8.40008 22.1401 8.69008 22.5601 9.00008L32.3301 16.3301Z" fill="black"/>
<path fill-rule="evenodd" clip-rule="evenodd" d="M1.66992 31.67C1.66992 30.75 2.41008 30 3.33008 30H36.6699C37.5899 30 38.3301 30.75 38.3301 31.67C38.3301 32.59 37.5899 33.34 36.6699 33.34H3.33008C2.41008 33.34 1.66992 32.59 1.66992 31.67Z" fill="black"/>
<path fill-rule="evenodd" clip-rule="evenodd" d="M10 30C10.92 30 11.6699 30.75 11.6699 31.67V35C11.6699 35.92 10.92 36.67 10 36.67C9.08 36.67 8.33008 35.92 8.33008 35V31.67C8.33008 30.75 9.08 30 10 30ZM20 30C20.92 30 21.6699 30.75 21.6699 31.67V35C21.6699 35.92 20.92 36.67 20 36.67C19.08 36.67 18.3301 35.92 18.3301 35V31.67C18.3301 30.75 19.08 30 20 30ZM30 30C30.92 30 31.6699 30.75 31.6699 31.67V35C31.6699 35.92 30.92 36.67 30 36.67C29.08 36.67 28.3301 35.92 28.3301 35V31.67C28.3301 30.75 29.08 30 30 30Z" fill="black"/>
</svg>
