<svg width="40" height="40" viewBox="0 0 40 40" fill="none" xmlns="http://www.w3.org/2000/svg">
<path d="M33.33 26.25H3.33002C2.64002 26.25 2.08002 25.69 2.08002 25C2.08002 24.31 2.64002 23.75 3.33002 23.75H33.33C34.48 23.75 35.41 22.82 35.41 21.67C35.41 19.45 34.35 17.33 32.58 16L22.8 8.67C20.72 7.11 18.15 6.25 15.55 6.25H3.33002C2.64002 6.25 2.08002 5.69 2.08002 5C2.08002 4.31 2.64002 3.75 3.33002 3.75H15.55C18.68 3.75 21.79 4.79 24.3 6.67L34.08 14C36.48 15.8 37.91 18.67 37.91 21.67C37.91 24.2 35.85 26.25 33.33 26.25Z" fill="black"/>
<path d="M13.33 21.2498H3.33002C2.64002 21.2498 2.08002 20.6898 2.08002 19.9998C2.08002 19.3098 2.64002 18.7498 3.33002 18.7498H11.93C11.36 16.3598 9.21997 14.5798 6.65997 14.5798H3.33002C2.64002 14.5798 2.08002 14.0198 2.08002 13.3298C2.08002 12.6398 2.64002 12.0798 3.33002 12.0798H6.65997C11.02 12.0798 14.58 15.6298 14.58 19.9998C14.58 20.6898 14.02 21.2498 13.33 21.2498Z" fill="black"/>
<path d="M35.83 19.5798H28.33C23.05 19.5798 18.7499 15.2798 18.7499 9.99983V5.82983C18.7499 5.13983 19.3099 4.57983 19.9999 4.57983C20.6899 4.57983 21.2499 5.13983 21.2499 5.82983V9.99983C21.2499 13.9098 24.43 17.0798 28.33 17.0798H35.83C36.52 17.0798 37.08 17.6398 37.08 18.3298C37.08 19.0198 36.52 19.5798 35.83 19.5798Z" fill="black"/>
<path d="M36.67 32.9199H3.34003C2.65003 32.9199 2.09003 32.3599 2.09003 31.6699C2.09003 30.9799 2.65003 30.4199 3.34003 30.4199H36.67C37.36 30.4199 37.92 30.9799 37.92 31.6699C37.92 32.3599 37.36 32.9199 36.67 32.9199Z" fill="black"/>
<path d="M29.9999 36.2499C29.3099 36.2499 28.7499 35.6899 28.7499 34.9999V31.6699C28.7499 30.9799 29.3099 30.4199 29.9999 30.4199C30.6899 30.4199 31.2499 30.9799 31.2499 31.6699V34.9999C31.2499 35.6899 30.6899 36.2499 29.9999 36.2499ZM19.9999 36.2499C19.3099 36.2499 18.7499 35.6899 18.7499 34.9999V31.6699C18.7499 30.9799 19.3099 30.4199 19.9999 30.4199C20.6899 30.4199 21.2499 30.9799 21.2499 31.6699V34.9999C21.2499 35.6899 20.6899 36.2499 19.9999 36.2499ZM9.99994 36.2499C9.30994 36.2499 8.74994 35.6899 8.74994 34.9999V31.6699C8.74994 30.9799 9.30994 30.4199 9.99994 30.4199C10.6899 30.4199 11.2499 30.9799 11.2499 31.6699V34.9999C11.2499 35.6899 10.6899 36.2499 9.99994 36.2499Z" fill="black"/>
</svg>
