<svg width="40" height="40" viewBox="0 0 40 40" fill="none" xmlns="http://www.w3.org/2000/svg">
<path fill-rule="evenodd" clip-rule="evenodd" d="M24.6863 10H0V28H34.9296C35.5983 28 36.2228 27.6658 36.5937 27.1094L38.181 24.7285C39.2387 23.142 39.0295 21.0295 37.6812 19.6812L30.3431 12.3431C28.8429 10.8429 26.808 10 24.6863 10ZM27.4142 14C26.5233 14 26.0771 15.0771 26.7071 15.7071L27.7071 16.7071C27.8946 16.8946 28.149 17 28.4142 17H29.5858C30.4767 17 30.9229 15.9229 30.2929 15.2929L29.2929 14.2929C29.1054 14.1054 28.851 14 28.5858 14H27.4142Z" fill="black"/>
<path d="M0 30H36V32H0V30Z" fill="black"/>
<path fill-rule="evenodd" clip-rule="evenodd" d="M17 7C17 6.44772 17.4477 6 18 6H24C24.4045 6 24.7691 6.24364 24.9239 6.61732C25.0787 6.99099 24.9931 7.42111 24.7071 7.70711L20.7071 11.7071C20.3166 12.0976 19.6834 12.0976 19.2929 11.7071C18.9024 11.3166 18.9024 10.6834 19.2929 10.2929L21.5858 8H18C17.4477 8 17 7.55228 17 7Z" fill="black"/>
</svg>
