<svg width="40" height="40" viewBox="0 0 40 40" fill="none" xmlns="http://www.w3.org/2000/svg">
<path fill-rule="evenodd" clip-rule="evenodd" d="M14.75 7.75C14.75 7.05964 15.3096 6.5 16 6.5H24C24.4936 6.5 24.941 6.79051 25.1419 7.24145C25.3427 7.69239 25.2593 8.21929 24.9291 8.58621L22.0817 11.75H29C34.5228 11.75 39 16.2272 39 21.75V26.75C39 28.4069 37.6569 29.75 36 29.75H5C3.34315 29.75 2 28.4069 2 26.75V14.75C2 13.0931 3.34315 11.75 5 11.75H18.7183L21.1933 9H16C15.3096 9 14.75 8.44036 14.75 7.75ZM2.75 32.75C2.75 32.0596 3.30964 31.5 4 31.5L37 31.5C37.6904 31.5 38.25 32.0596 38.25 32.75C38.25 33.4404 37.6904 34 37 34L4 34C3.30964 34 2.75 33.4404 2.75 32.75ZM12.25 14.25H17.75V20.5H12.25V14.25ZM20.25 20.5V14.25H25.75V20.5H20.25ZM28.25 20.5H36.3963C35.8012 16.9529 32.7162 14.25 29 14.25H28.25V20.5ZM9.75 14.25H5C4.72386 14.25 4.5 14.4739 4.5 14.75V20.5H9.75L9.75 14.25ZM4.5 23H36.5V26.75C36.5 27.0261 36.2761 27.25 36 27.25H5C4.72386 27.25 4.5 27.0261 4.5 26.75V23Z" fill="black"/>
</svg>
