<svg width="40" height="40" viewBox="0 0 40 40" fill="none" xmlns="http://www.w3.org/2000/svg">
<path fill-rule="evenodd" clip-rule="evenodd" d="M2 14.75C2 13.0931 3.34315 11.75 5 11.75H30C34.9706 11.75 39 15.7794 39 20.75V26.75C39 28.4069 37.6636 29.75 36.0067 29.75C26.2304 29.75 7.68998 29.75 5 29.75C3.34315 29.75 2 28.4069 2 26.75V14.75ZM5 15.75C5 15.1978 5.44772 14.75 6 14.75H8.99579C9.54807 14.75 9.99579 15.1978 9.99579 15.75V20.75C9.99579 21.3022 9.54807 21.75 8.99579 21.75H6C5.5 21.75 5 21.25 5 20.75V15.75ZM13.0109 14.75C12.4586 14.75 12.0109 15.1978 12.0109 15.75L12 20.75C12 21.25 12.5 21.75 13 21.75H17.0109C17.5632 21.75 18.0109 21.3022 18.0109 20.75V15.75C18.0109 15.1978 17.5632 14.75 17.0109 14.75H13.0109ZM20.0259 15.75C20.0259 15.1978 20.4736 14.75 21.0259 14.75H25.0259C25.5782 14.75 26.0259 15.1978 26.0259 15.75V20.75C26.0259 21.3022 25.5782 21.75 25.0259 21.75H22.0259C20.9213 21.75 20 21.8546 20 20.75L20.0259 15.75ZM29.0409 14.75C28.4886 14.75 28.0409 15.1978 28.0409 15.75V20.75C28.0409 21.3022 28.4886 21.75 29.0409 21.75H35.0409C35.5932 21.75 36.0409 21.3022 36.0409 20.75C36.0409 17.4363 33.3546 14.75 30.0409 14.75H29.0409Z" fill="black"/>
<path fill-rule="evenodd" clip-rule="evenodd" d="M2.75 32.75C2.75 32.0596 3.30964 31.5 4 31.5L37 31.5C37.6904 31.5 38.25 32.0596 38.25 32.75C38.25 33.4404 37.6904 34 37 34L4 34C3.30964 34 2.75 33.4404 2.75 32.75Z" fill="black"/>
<path fill-rule="evenodd" clip-rule="evenodd" d="M14.75 7.75C14.75 7.05964 15.3096 6.5 16 6.5H24C24.4936 6.5 24.941 6.79051 25.1419 7.24145C25.3427 7.69239 25.2593 8.21929 24.9291 8.58621L20.4291 13.5862C19.9673 14.0993 19.1769 14.1409 18.6638 13.6791C18.1507 13.2173 18.1091 12.4269 18.5709 11.9138L21.1933 9H16C15.3096 9 14.75 8.44036 14.75 7.75Z" fill="black"/>
</svg>
