<svg width="40" height="40" viewBox="0 0 40 40" fill="none" xmlns="http://www.w3.org/2000/svg">
<path fill-rule="evenodd" clip-rule="evenodd" d="M1.72146 11.6712C1.88219 10.7068 2.71657 10 3.69424 10H36.3057C37.2834 10 38.1178 10.7068 38.2785 11.6712L39.9183 21.51C39.972 21.8318 39.9461 22.1618 39.8429 22.4713L38.4558 26.6325C38.1836 27.4491 37.4193 28 36.5585 28H3.44151C2.58065 28 1.81637 27.4491 1.54414 26.6325L0.157077 22.4713C0.0539197 22.1618 0.0280268 21.8318 0.0816558 21.51L1.72146 11.6712ZM31 15C31 14.4477 31.4477 14 32 14H35.6529C36.1417 14 36.5589 14.3534 36.6393 14.8356L37.3059 18.8356C37.4075 19.4451 36.9375 20 36.3195 20H32C31.4477 20 31 19.5523 31 19V15ZM4.34712 14C3.85828 14 3.44109 14.3534 3.36072 14.8356L2.69406 18.8356C2.59247 19.4451 3.06251 20 3.68045 20H7.99999C8.55227 20 8.99999 19.5523 8.99999 19V15C8.99999 14.4477 8.55227 14 7.99999 14H4.34712ZM21 15C21 14.4477 21.4477 14 22 14H28C28.5523 14 29 14.4477 29 15V19C29 19.5523 28.5523 20 28 20H22C21.4477 20 21 19.5523 21 19V15ZM12 14C11.4477 14 11 14.4477 11 15V19C11 19.5523 11.4477 20 12 20H18C18.5523 20 19 19.5523 19 19V15C19 14.4477 18.5523 14 18 14H12Z" fill="black"/>
<path d="M1.99999 30H38V32H1.99999V30Z" fill="black"/>
<path fill-rule="evenodd" clip-rule="evenodd" d="M17 7C17 6.44772 17.4477 6 18 6H24C24.4045 6 24.7691 6.24364 24.9239 6.61732C25.0787 6.99099 24.9931 7.42111 24.7071 7.70711L20.7071 11.7071C20.3166 12.0976 19.6834 12.0976 19.2929 11.7071C18.9024 11.3166 18.9024 10.6834 19.2929 10.2929L21.5858 8H18C17.4477 8 17 7.55228 17 7Z" fill="black"/>
</svg>
