<svg width="40" height="40" viewBox="0 0 40 40" fill="none" xmlns="http://www.w3.org/2000/svg">
<path d="M29.9999 28.75H9.99994C9.70994 28.75 9.41995 28.65 9.19995 28.46L4.79993 24.79C4.12993 24.24 3.74994 23.42 3.74994 22.55V22.44C3.74994 21.57 4.12993 20.76 4.79993 20.2L9.19995 16.53C9.41995 16.34 9.70994 16.24 9.99994 16.24H29.9999C30.2899 16.24 30.5799 16.34 30.7999 16.53L35.2 20.2C35.8699 20.76 36.2499 21.57 36.2499 22.44V22.55C36.2499 23.42 35.8699 24.24 35.2 24.79L30.7999 28.46C30.5799 28.65 30.2899 28.75 29.9999 28.75ZM10.45 26.25H29.5499L33.5999 22.87C33.6899 22.79 33.7499 22.67 33.7499 22.55V22.44C33.7499 22.32 33.6999 22.2 33.5999 22.12L29.5499 18.74H10.45L6.39996 22.12C6.29996 22.2 6.24994 22.32 6.24994 22.44V22.55C6.24994 22.67 6.29996 22.79 6.39996 22.87L10.45 26.25Z" fill="black"/>
<path d="M26.67 23.75H26.65C25.96 23.75 25.4 23.19 25.4 22.5C25.4 21.81 25.96 21.25 26.65 21.25C27.34 21.25 27.91 21.81 27.91 22.5C27.91 23.19 27.36 23.75 26.67 23.75ZM20.01 23.75H19.99C19.3 23.75 18.74 23.19 18.74 22.5C18.74 21.81 19.3 21.25 19.99 21.25C20.68 21.25 21.25 21.81 21.25 22.5C21.25 23.19 20.7 23.75 20.01 23.75ZM13.35 23.75H13.33C12.64 23.75 12.08 23.19 12.08 22.5C12.08 21.81 12.64 21.25 13.33 21.25C14.02 21.25 14.59 21.81 14.59 22.5C14.59 23.19 14.04 23.75 13.35 23.75Z" fill="black"/>
<path d="M29.9999 18.75C29.3099 18.75 28.7499 18.19 28.7499 17.5C28.7499 12.68 24.8299 8.75 19.9999 8.75C15.1699 8.75 11.2499 12.67 11.2499 17.5C11.2499 18.19 10.6899 18.75 9.99994 18.75C9.30994 18.75 8.74994 18.19 8.74994 17.5C8.74994 11.3 13.7999 6.25 19.9999 6.25C26.1999 6.25 31.2499 11.3 31.2499 17.5C31.2499 18.19 30.6899 18.75 29.9999 18.75Z" fill="black"/>
<path d="M35 33.7501H32.87C31.61 33.7501 30.5 32.9501 30.1 31.7501L28.81 27.8901C28.59 27.2301 28.95 26.5301 29.6 26.3101C30.25 26.0901 30.96 26.4501 31.18 27.1001L32.47 30.9601C32.53 31.1301 32.69 31.2501 32.87 31.2501H35C35.69 31.2501 36.25 31.8101 36.25 32.5001C36.25 33.1901 35.69 33.7501 35 33.7501Z" fill="black"/>
<path d="M7.12994 33.7501H4.99994C4.30994 33.7501 3.74994 33.1901 3.74994 32.5001C3.74994 31.8101 4.30994 31.2501 4.99994 31.2501H7.12994C7.30994 31.2501 7.46997 31.1401 7.52997 30.9701L8.81995 27.1101C9.03995 26.4601 9.73996 26.1001 10.4 26.3201C11.05 26.5401 11.4099 27.2501 11.1899 27.9001L9.89996 31.7601C9.49996 32.9501 8.38994 33.7501 7.12994 33.7501Z" fill="black"/>
</svg>
