<svg width="40" height="40" viewBox="0 0 40 40" fill="none" xmlns="http://www.w3.org/2000/svg">
<path fill-rule="evenodd" clip-rule="evenodd" d="M10 15.835C9.61 15.835 9.22969 15.975 8.92969 16.225L4.53027 19.895C3.77027 20.525 3.33008 21.465 3.33008 22.455V22.565C3.33008 23.555 3.77027 24.495 4.53027 25.125L8.92969 28.795C9.22969 29.045 9.61 29.185 10 29.185H30C30.39 29.185 30.7703 29.045 31.0703 28.795L35.4697 25.125C36.2297 24.495 36.6699 23.555 36.6699 22.565V22.455C36.6699 21.465 36.2297 20.525 35.4697 19.895L31.0703 16.225C30.7703 15.975 30.39 15.835 30 15.835H10ZM13.3301 20.835C12.4101 20.835 11.6699 21.585 11.6699 22.505C11.6699 23.425 12.4101 24.175 13.3301 24.175H13.3496C14.2696 24.175 15.0195 23.425 15.0195 22.505C15.0195 21.585 14.2696 20.835 13.3496 20.835H13.3301ZM19.9902 20.835C19.0702 20.835 18.3203 21.585 18.3203 22.505C18.3203 23.425 19.0702 24.175 19.9902 24.175H20.0098C20.9298 24.175 21.6797 23.425 21.6797 22.505C21.6797 21.585 20.9298 20.835 20.0098 20.835H19.9902ZM26.6504 20.835C25.7304 20.835 24.9805 21.585 24.9805 22.505C24.9805 23.425 25.7304 24.175 26.6504 24.175H26.6699C27.5899 24.175 28.3301 23.425 28.3301 22.505C28.3301 21.585 27.5899 20.835 26.6699 20.835H26.6504Z" fill="black"/>
<path fill-rule="evenodd" clip-rule="evenodd" d="M20 9.1652C15.4 9.1652 11.6699 12.8952 11.6699 17.4952C11.6699 18.4152 10.92 19.1652 10 19.1652C9.08 19.1652 8.33008 18.4152 8.33008 17.4952C8.33008 11.0552 13.56 5.8252 20 5.8252C26.44 5.8252 31.6699 11.0452 31.6699 17.4952C31.6699 18.4152 30.92 19.1652 30 19.1652C29.08 19.1652 28.3301 18.4152 28.3301 17.4952C28.3301 12.8952 24.6 9.1652 20 9.1652Z" fill="black"/>
<path fill-rule="evenodd" clip-rule="evenodd" d="M29.4695 25.925C30.3495 25.635 31.2898 26.105 31.5798 26.975L32.8699 30.835H34.9998C35.9198 30.835 36.6697 31.585 36.6697 32.505C36.6697 33.425 35.9198 34.175 34.9998 34.175H32.8699C31.4299 34.175 30.1597 33.255 29.7097 31.895L28.4197 28.035C28.1297 27.165 28.5995 26.215 29.4695 25.925Z" fill="black"/>
<path fill-rule="evenodd" clip-rule="evenodd" d="M10.5303 25.925C11.4003 26.215 11.8701 27.165 11.5801 28.035L10.29 31.895C9.84004 33.255 8.56988 34.175 7.12988 34.175H5C4.08 34.175 3.33008 33.425 3.33008 32.505C3.33008 31.585 4.08 30.835 5 30.835H7.12988L8.41992 26.975C8.70992 26.105 9.65027 25.625 10.5303 25.925Z" fill="black"/>
</svg>
