<svg width="40" height="40" viewBox="0 0 40 40" fill="none" xmlns="http://www.w3.org/2000/svg">
<path d="M24.5 7C24.5 8.65685 23.1569 10 21.5 10C19.8432 10 18.5 8.65685 18.5 7C18.5 5.34315 19.8432 4 21.5 4C23.1569 4 24.5 5.34315 24.5 7Z" fill="black"/>
<path d="M13.2112 12.1056C13.55 11.428 14.2425 11 15 11H20C20.4448 11 20.8769 11.1482 21.2279 11.4213L25.3729 14.6452L29.4339 15.5476L28.5662 19.4524L24.0662 18.4524C23.7771 18.3881 23.5059 18.2605 23.2722 18.0787L21.1957 16.4637L20.2822 20.1177L25.1094 23.3359C25.6074 23.6679 25.9306 24.2055 25.9901 24.801L26.9901 34.801L23.01 35.199L22.104 26.1397L16.8906 22.6641C16.1874 22.1953 15.8548 21.3349 16.0598 20.5149L17.4385 15H16.2361L13.7889 19.8944L10.2112 18.1056L13.2112 12.1056Z" fill="black"/>
<path d="M15.3359 23.8906L9.33594 32.8906L12.6641 35.1094L18.6641 26.1094L15.3359 23.8906Z" fill="black"/>
</svg>
