<svg width="40" height="40" viewBox="0 0 40 40" fill="none" xmlns="http://www.w3.org/2000/svg">
<path fill-rule="evenodd" clip-rule="evenodd" d="M19.2314 2.71549C21.1839 2.02514 23.3265 3.04836 24.0169 5.001C24.7073 6.95364 23.684 9.0962 21.7314 9.78654C19.7788 10.4769 17.6362 9.45367 16.9459 7.50104C16.2555 5.5484 17.2788 3.40583 19.2314 2.71549ZM18.1006 13.2671C18.3384 13.9152 18.0057 14.6334 17.3576 14.8712C14.7661 15.8221 13.1774 16.8836 12.1812 18.0351C11.2006 19.1686 10.7058 20.4914 10.4896 22.146C10.4002 22.8305 9.77272 23.3129 9.08818 23.2235C8.40365 23.134 7.92123 22.5066 8.01068 21.8221C8.2715 19.826 8.90629 17.9995 10.2905 16.3995C11.659 14.8175 13.6703 13.5612 16.4965 12.5242C17.1446 12.2864 17.8628 12.619 18.1006 13.2671ZM21.8215 12.8427C22.4024 12.4695 23.1757 12.6379 23.5488 13.2187C23.6005 13.2992 23.6637 13.4064 23.7395 13.5351C24.4504 14.742 26.2747 17.8389 30.2025 18.4936C30.8835 18.6071 31.3435 19.2511 31.23 19.9321C31.1165 20.613 30.4725 21.0731 29.7915 20.9596C24.5927 20.0931 22.1884 15.8695 21.568 14.7797C21.5137 14.6843 21.4731 14.613 21.4455 14.57C21.0723 13.9891 21.2407 13.2158 21.8215 12.8427ZM18.8563 23.5326C19.3044 23.0074 20.0934 22.9449 20.6186 23.393L23.3522 25.7254C24.6057 26.7949 25.4943 28.229 25.894 29.8276L27.043 34.4234C27.2105 35.0931 26.8033 35.7718 26.1335 35.9392C25.4638 36.1067 24.7851 35.6995 24.6177 35.0298L23.4686 30.434C23.1951 29.3402 22.5872 28.359 21.7295 27.6272L18.9959 25.2948C18.4707 24.8467 18.4082 24.0577 18.8563 23.5326ZM16.2256 26.0415C16.8806 26.2598 17.2345 26.9677 17.0162 27.6226L16.6064 28.8521C16.2902 29.8008 15.8489 30.703 15.2942 31.535L12.7037 35.4207C12.3208 35.9951 11.5447 36.1503 10.9703 35.7674C10.3959 35.3844 10.2407 34.6084 10.6236 34.0339L13.2141 30.1482C13.6455 29.5011 13.9887 28.7994 14.2347 28.0616L14.6445 26.832C14.8628 26.1771 15.5707 25.8232 16.2256 26.0415Z" fill="black"/>
<path fill-rule="evenodd" clip-rule="evenodd" d="M22.0399 11.8488C22.6597 12.1403 23.1576 12.6098 23.5488 13.2187C23.7368 13.5114 23.7944 13.8691 23.7077 14.206L21.0178 24.6555C20.931 24.9924 20.7078 25.2779 20.4018 25.4434C20.0958 25.6089 19.7347 25.6394 19.4053 25.5275L19.3481 25.5081C18.3843 25.1808 17.5768 24.9066 16.9398 24.6189C16.2709 24.3168 15.6771 23.9525 15.2066 23.3852C14.8383 22.941 14.557 22.4313 14.3778 21.8827C14.149 21.1822 14.1575 20.4856 14.2588 19.7586C14.3552 19.0666 14.5538 18.2375 14.7909 17.248L15.7115 13.4064C15.8089 12.9997 16.104 12.6685 16.4965 12.5242L16.5008 12.5226C17.7348 12.069 19.0297 11.593 20.1784 11.5255C20.7886 11.4896 21.4279 11.561 22.0399 11.8488Z" fill="black"/>
</svg>
