<svg width="40" height="40" viewBox="0 0 40 40" fill="none" xmlns="http://www.w3.org/2000/svg">
<path d="M19.6879 2.59995C17.6539 3.04195 16.3619 5.08095 16.8369 7.09595C17.0869 8.15995 17.8449 9.12295 18.8019 9.59295C20.3279 10.342 22.0329 10.03 23.2089 8.78895C23.8702 8.09122 24.2334 7.1632 24.2214 6.20197C24.2095 5.24074 23.8233 4.32203 23.1449 3.64095C22.2119 2.70295 20.9549 2.32495 19.6879 2.59995ZM21.0689 5.16795C21.3889 5.33095 21.6449 5.69995 21.7059 6.08395C21.8029 6.69795 21.3079 7.37895 20.6989 7.46995C20.1379 7.55395 19.6019 7.28595 19.3749 6.80695C19.2419 6.52695 19.2339 5.95495 19.3609 5.71295C19.4629 5.51795 19.7539 5.22795 19.9669 5.11095C20.1889 4.98795 20.7769 5.01895 21.0689 5.16795ZM19.6329 11.594C18.9129 11.711 18.2719 11.894 17.0199 12.339C11.9009 14.159 9.31089 16.498 8.33689 20.181C8.04689 21.28 7.95089 22.035 8.06089 22.35C8.31289 23.07 9.09489 23.414 9.77389 23.106C10.1909 22.917 10.3919 22.604 10.5119 21.954C10.7859 20.48 11.1429 19.508 11.7349 18.625C12.3149 17.762 13.5059 16.742 14.7569 16.035C15.0869 15.85 15.1419 15.835 15.1079 15.941C15.0049 16.27 14.3939 18.94 14.3029 19.461C14.1719 20.209 14.1709 21.092 14.2999 21.603C14.4449 22.178 14.8899 23.025 15.2719 23.454C15.8759 24.131 16.5649 24.518 18.2479 25.125L19.1959 25.467L20.8639 26.89C21.7809 27.672 22.6089 28.404 22.7029 28.516C23.0549 28.934 23.2089 29.407 23.8989 32.178C24.2859 33.73 24.6509 35.111 24.7099 35.246C25.0839 36.105 26.3229 36.216 26.8389 35.437C27.1679 34.94 27.1539 34.834 26.3359 31.567C25.5189 28.307 25.3379 27.807 24.6869 27C24.5089 26.78 23.6599 25.995 22.7989 25.256C21.6619 24.279 21.2389 23.878 21.2549 23.789C21.2759 23.665 22.9079 17.297 22.9719 17.087C22.9989 17 23.2009 17.167 23.8209 17.787C25.2919 19.257 26.6999 20.117 28.5439 20.669C29.2509 20.882 29.9879 20.996 30.2859 20.94C30.5599 20.889 30.9559 20.579 31.0949 20.307C31.3459 19.815 31.2669 19.305 30.8759 18.885C30.6439 18.637 30.5659 18.603 29.7399 18.392C28.2919 18.021 27.4129 17.591 26.3439 16.73C25.4469 16.006 24.7129 15.116 23.8329 13.684C23.3169 12.843 22.9399 12.411 22.4439 12.09C21.6959 11.607 20.6699 11.426 19.6329 11.594ZM20.9639 14.111C21.0729 14.16 21.1239 14.228 21.1029 14.294C21.0859 14.353 20.6049 16.215 20.0349 18.433C19.6806 19.8183 19.3222 21.2027 18.9599 22.586C18.9159 22.727 18.8599 22.715 18.0949 22.39C17.4319 22.108 17.1509 21.882 16.9069 21.435C16.5619 20.8 16.6209 20.329 17.5229 16.578C17.7949 15.445 18.0149 14.664 18.0719 14.627C18.1989 14.544 19.3679 14.178 19.7379 14.106C20.1749 14.02 20.7699 14.023 20.9639 14.111ZM15.2789 26.14C14.8359 26.36 14.7089 26.58 14.2979 27.833C14.1239 28.365 13.8929 28.977 13.7849 29.192C13.6769 29.408 12.9269 30.576 12.1189 31.788C10.5889 34.082 10.4029 34.401 10.4029 34.733C10.4029 35.166 10.8069 35.739 11.2209 35.896C11.6279 36.05 12.1559 35.957 12.4589 35.679C12.6909 35.466 15.7489 30.865 16.0309 30.304C16.3529 29.665 17.0669 27.545 17.0669 27.228C17.0669 26.729 16.7899 26.32 16.2999 26.093C15.9359 25.925 15.6879 25.936 15.2789 26.14Z" fill="black"/>
</svg>
