<svg width="801" height="800" viewBox="0 0 801 800" fill="none" xmlns="http://www.w3.org/2000/svg">
<g clip-path="url(#clip0_1958_150)">
<rect x="688.889" y="420.87" width="7.0643" height="24.0178" transform="rotate(41.1181 688.889 420.87)" fill="#007C92"/>
<rect x="774.658" y="401.033" width="7.0643" height="87.5944" rx="3.53215" transform="rotate(41.1181 774.658 401.033)" fill="#37424A"/>
<rect width="3.53213" height="16.9538" rx="1.76607" transform="matrix(0.907802 0.419398 -0.419383 0.907809 703.131 353.774)" fill="#37424A"/>
<rect x="741.522" y="421.805" width="22.6058" height="12.7153" rx="6.35764" transform="rotate(41.1181 741.522 421.805)" fill="#37424A"/>
<rect width="7.06413" height="72.7618" transform="matrix(0.946193 -0.323604 0.323633 0.946183 641.681 379.343)" fill="#007C92"/>
<ellipse cx="669.716" cy="448.205" rx="16.9543" ry="16.9537" transform="rotate(41.1181 669.716 448.205)" fill="#2C353B"/>
<path fill-rule="evenodd" clip-rule="evenodd" d="M670.258 330.53L655.072 317.274L591.745 265.746L604.63 226.138C606.614 220.042 604.767 213.351 599.937 209.135L598.749 208.098C587.932 198.655 571.507 199.77 562.064 210.587L559.547 213.471C544.952 230.191 543.417 254.633 555.806 273.047L606.956 349.072C612.839 357.815 619.839 365.752 627.778 372.683L706.17 441.112C714.908 448.739 728.174 447.839 735.801 439.102L747.435 425.774C755.062 417.037 754.162 403.771 745.424 396.144L705.878 361.624C700.026 367.473 687.888 365.61 678.313 357.252C668.738 348.894 665.253 337.119 670.258 330.53Z" fill="#71D6E0"/>
<path d="M642.106 355.768C643.324 356.138 644.45 356.762 645.409 357.599L705.157 409.753C707.802 412.062 708.075 416.079 705.765 418.724C703.456 421.369 699.44 421.641 696.795 419.332L624.835 356.518C622.4 354.392 624.586 350.448 627.679 351.387L642.106 355.768Z" fill="#007C92"/>
<path d="M556.749 247.66C558.07 248.017 559.292 248.67 560.323 249.569L589.896 275.384C591.366 276.667 591.517 278.898 590.235 280.368C588.952 281.838 586.721 281.989 585.251 280.706L552.991 252.546C550.594 250.454 552.674 246.561 555.745 247.389L556.749 247.66Z" fill="#007C92"/>
<ellipse cx="594.044" cy="377.024" rx="13.593" ry="13.593" fill="#C4C4C4"/>
<ellipse cx="564.431" cy="371.198" rx="23.3022" ry="23.3022" fill="#C4C4C4"/>
<ellipse cx="540.643" cy="349.838" rx="28.6423" ry="28.6423" fill="#C4C4C4"/>
<ellipse cx="507.632" cy="339.158" rx="29.1278" ry="29.1278" fill="#C4C4C4"/>
<ellipse cx="496.466" cy="308.574" rx="29.1278" ry="29.1278" fill="#C4C4C4"/>
<ellipse cx="452.775" cy="274.106" rx="43.6916" ry="43.6917" fill="#C4C4C4"/>
<ellipse cx="434.57" cy="217.064" rx="49.7599" ry="49.7599" fill="#C4C4C4"/>
<path d="M432.249 272.5H33.2506C33.5203 162.549 122.736 73.5 232.75 73.5C342.764 73.5 431.98 162.549 432.249 272.5Z" fill="white" stroke="#C3C6C9"/>
<path d="M232.75 73C122.293 73 32.75 162.543 32.75 273H432.75C432.75 162.543 343.207 73 232.75 73Z" fill="white" stroke="#C3C6C9" stroke-width="2"/>
<path d="M232.75 73C149.907 73 82.75 162.543 82.75 273H382.75C382.75 162.543 315.593 73 232.75 73Z" fill="white" stroke="#C3C6C9" stroke-width="2"/>
<path d="M232.75 73C205.136 73 182.75 162.543 182.75 273H282.75C282.75 162.543 260.364 73 232.75 73Z" fill="white" stroke="#C3C6C9" stroke-width="2"/>
<path d="M32.75 273L232.75 573L432.75 273" stroke="#37424A" stroke-width="2" stroke-linecap="round" stroke-linejoin="round"/>
<path d="M82.75 273L232.75 573L382.75 273" stroke="#37424A" stroke-width="2" stroke-linecap="round" stroke-linejoin="round"/>
<path d="M182.75 273L232.75 573L282.75 273" stroke="#37424A" stroke-width="2" stroke-linecap="round" stroke-linejoin="round"/>
<path d="M212.453 713.675L211.478 718.385L217.221 730.037L215.635 732.269L197.448 715.777L206.46 708.151L212.453 713.675Z" fill="#323E48"/>
<path d="M234.192 538.861L226.198 538.397L228.089 525.946L236.315 526.708L234.192 538.861Z" fill="#323E48"/>
<path d="M225.734 538.496C225.734 538.496 219.863 539.125 219.066 549.159C218.901 551.146 220.062 568.895 220.062 568.895L217.574 597.041L237.244 597.836L244.509 570.12L246.266 568.464C248.622 566.246 249.152 562.735 247.626 559.888L236.183 538.86L225.734 538.496Z" fill="#323E48"/>
<path d="M245.14 521.833C245.857 514.113 241.276 507.377 234.91 506.788C228.544 506.2 222.803 511.981 222.087 519.702C221.371 527.423 225.951 534.159 232.317 534.748C238.683 535.336 244.424 529.554 245.14 521.833Z" fill="#323E48"/>
<path d="M221.182 511.444C223.303 508.002 222.758 503.82 219.965 502.105C217.172 500.39 213.188 501.791 211.067 505.234C208.946 508.676 209.49 512.858 212.284 514.573C215.077 516.288 219.061 514.887 221.182 511.444Z" fill="#323E48"/>
<path d="M212.167 715.654L200.491 715.754C200.491 715.754 214.357 666.779 217.541 661.182C220.493 656.017 223.711 651.877 223.711 651.877L216.148 615.32L241.225 645.983L212.167 715.654Z" fill="#323E48"/>
<path d="M220.626 593.134L218.835 594.756C214.323 600.849 213.096 608.764 215.617 615.916L241.59 654.924C241.59 654.924 239.168 659.924 238.505 667.176C237.874 674.031 240.329 717.939 240.329 717.939L248.158 718.006L255.82 655.619L237.311 591.544L220.626 593.134Z" fill="#323E48"/>
<path d="M248.218 715.743L247.512 720.5L256.834 734.303L255.816 736.08L234.532 718.66L243.574 711.947L248.218 715.743Z" fill="#323E48"/>
<path d="M228.255 533.297C228.255 533.297 211.072 534.39 215.948 509.356C215.948 509.356 228.222 498.329 241.788 508.462C241.788 508.462 234.458 516.674 231.439 519.191C231.439 519.191 224.44 519.025 229.018 525.052L228.255 533.297Z" fill="#323E48"/>
<path d="M240.395 537.271L238.836 544.357C238.836 544.357 246.067 553.563 249.384 561.842C252.701 570.12 261.058 666.609 261.058 666.609C257.508 666.609 201.558 654.87 201.558 654.87C201.856 649.174 212.896 609.857 212.896 609.857L215.086 573.563L216.214 553.563C216.91 552.636 219.796 543.596 219.796 543.596L223.08 534.82C230.577 541.112 240.395 537.271 240.395 537.271Z" fill="#D7282F"/>
<path d="M215.033 515.989C220.885 526.247 222.227 533.463 222.083 536.139L223.788 534.217C223.822 534.595 226.788 535.917 230.327 536.967C234.25 538.131 239.998 536.515 240.788 536.826C240.577 538.747 242.189 543.348 238.173 543.348C234.904 543.348 221.744 544.675 220.519 542.044C218.816 538.313 215.572 524.654 211.928 519.687C204.38 509.396 197.414 511.882 183.107 499.174C176.748 493.526 166.248 464.748 162.562 453.279L172.647 456.042L182.13 452.011C182.198 460.526 183.905 480.295 190.185 491.246C198.034 504.934 207.718 503.167 215.033 515.989Z" fill="#A2AD00"/>
<path d="M274.513 524.319C274.513 524.319 278.915 512.139 273.335 508.946L268.747 514.915L266.934 528.072L270.899 531.88L274.513 524.319Z" fill="#323E48"/>
<path d="M262.275 560.659C258.852 562.418 244.985 566.058 244.985 566.058L238.56 551.692C240.558 551.264 255.907 549.671 255.907 549.671C256.7 548.09 266.618 523.059 266.618 523.059C267.364 523.55 274.923 525.884 274.923 525.884C273.892 529.445 262.275 560.659 262.275 560.659Z" fill="#D7282F"/>
<path d="M188.046 519.46C188.046 519.46 183.064 507.507 188.484 504.047L193.353 509.786L195.796 522.84L192.02 526.837L188.046 519.46Z" fill="#323E48"/>
<path d="M202.016 555.164C205.52 556.755 219.545 559.717 219.545 559.717L225.271 545.054C223.255 544.723 207.848 543.879 207.848 543.879C206.98 542.338 195.871 517.817 195.871 517.817C195.15 518.344 187.713 521.043 187.713 521.043C188.914 524.55 202.016 555.164 202.016 555.164Z" fill="#D7282F"/>
<path d="M235.817 526.94L240.594 525.649C240.594 525.649 241.224 526.476 240.528 527.238C239.864 528 235.817 526.94 235.817 526.94Z" fill="white"/>
<path d="M235.851 526.94C235.851 526.94 239.135 528.463 240.063 528.629C240.063 528.629 241.291 528.231 240.528 527.238L235.851 526.94Z" fill="white"/>
</g>
<defs>
<clipPath id="clip0_1958_150">
<rect width="800" height="800" fill="white" transform="translate(0.75)"/>
</clipPath>
</defs>
</svg>
