<svg width="321" height="160" viewBox="0 0 321 160" fill="none" xmlns="http://www.w3.org/2000/svg">
<path d="M33.594 133.25C20.3867 141.635 8.77029 151.714 0.767274 160L0.75 116.892C5.86018 112.844 10.9902 109.178 16.1229 105.914L16.8713 105.419C24.4359 100.269 32.5461 95.9744 41.6618 92.2922C68.9491 81.2659 100.429 77.9148 133.753 74.3706L133.857 74.3596C140.687 73.6333 147.742 72.8828 154.887 72.0474C186.629 68.3401 232.514 60.6687 270.887 45.168L272.619 44.2688C295.598 33.4556 313.78 19.7549 320.75 0L320.75 54.1558C307.924 63.4724 297.104 69.573 283.009 75.2683C241.296 92.1199 192.356 100.349 158.642 104.287C151.471 105.126 144.465 105.871 137.681 106.593L137.529 106.609L137.457 106.616L137.181 106.646C106.165 109.945 76.8741 113.062 53.7842 122.394C46.8012 125.214 40.6579 128.461 35.0019 132.321L34.7927 132.463L33.594 133.25Z" fill="white" fill-opacity="0.2"/>
</svg>
