<svg width="128" height="110" viewBox="0 0 128 110" fill="none" xmlns="http://www.w3.org/2000/svg">
<g filter="url(#filter0_d_1958_396)">
<path fill-rule="evenodd" clip-rule="evenodd" d="M4.71723 52.5299C4.18304 51.5631 4.53375 50.3463 5.50056 49.8121L93.9041 0.967225C94.8709 0.433041 96.0877 0.783753 96.6218 1.75056L103.438 14.0871C103.956 15.0249 103.628 16.1917 102.818 16.8932C98.801 20.3738 97.6195 26.3017 100.293 31.1406C102.967 35.9794 108.614 38.1343 113.699 36.5858C114.724 36.2737 115.886 36.6168 116.404 37.5545L123.221 49.8911C123.755 50.8579 123.404 52.0747 122.437 52.6089L34.0337 101.454C33.0669 101.988 31.8501 101.637 31.3159 100.67L23.8148 87.0943C23.683 86.8556 23.7771 86.556 24.0158 86.4241C29.5749 83.3525 31.5915 76.356 28.52 70.7968C25.4484 65.2376 18.4518 63.221 12.8927 66.2926C12.654 66.4245 12.3502 66.3447 12.2183 66.106L4.71723 52.5299Z" fill="#75B8C4"/>
</g>
<g filter="url(#filter1_d_1958_396)">
<path fill-rule="evenodd" clip-rule="evenodd" d="M11.75 45C11.75 43.8955 12.6454 43 13.75 43H114.75C115.855 43 116.75 43.8955 116.75 45V59.0944C116.75 60.1658 115.898 61.0283 114.85 61.2508C109.651 62.3544 105.75 66.9717 105.75 72.5C105.75 78.0284 109.651 82.6456 114.85 83.7493C115.898 83.9718 116.75 84.8343 116.75 85.9056V100C116.75 101.105 115.855 102 114.75 102H13.75C12.6454 102 11.75 101.105 11.75 100V84.4895C11.75 84.2168 11.9773 84 12.25 84C18.6013 84 23.75 78.8513 23.75 72.5C23.75 66.1488 18.6013 61 12.25 61C11.9773 61 11.75 60.7833 11.75 60.5106V45Z" fill="#007C92"/>
</g>
<path d="M8.25 41C8.25 40.1716 8.92157 39.5 9.75 39.5H110.75C111.578 39.5 112.25 40.1716 112.25 41V55.0944C112.25 55.8815 111.614 56.5775 110.747 56.7616C105.321 57.9133 101.25 62.7307 101.25 68.5C101.25 74.2693 105.321 79.0867 110.747 80.2384C111.614 80.4225 112.25 81.1185 112.25 81.9056V96C112.25 96.8284 111.578 97.5 110.75 97.5H9.75C8.92157 97.5 8.25 96.8284 8.25 96V80.5C14.8774 80.5 20.25 75.1274 20.25 68.5C20.25 61.8726 14.8774 56.5 8.25 56.5V41Z" stroke="white"/>
<path d="M57.3687 78.2901C60.5913 78.2901 62.8579 76.378 62.8579 73.7139V73.6924C62.8579 71.5225 61.3755 70.1475 59.1733 69.9434V69.8897C60.9995 69.4922 62.3423 68.2032 62.3423 66.2803V66.2588C62.3423 63.8633 60.3657 62.209 57.3364 62.209C54.3823 62.209 52.3628 63.9385 52.1265 66.5489L52.1157 66.667H54.3823L54.3931 66.5596C54.5327 65.0987 55.6929 64.1856 57.3364 64.1856C59.0337 64.1856 60.0005 65.0664 60.0005 66.5703V66.5918C60.0005 68.0313 58.8403 69.0733 57.1323 69.0733H55.3813V70.9424H57.1968C59.1841 70.9424 60.4087 71.92 60.4087 73.6709V73.6924C60.4087 75.2178 59.1948 76.2813 57.3579 76.2813C55.5103 76.2813 54.2749 75.293 54.1245 73.8858L54.1138 73.7784H51.8042L51.8149 73.9073C52.019 76.4746 54.1245 78.2901 57.3687 78.2901Z" fill="white"/>
<path d="M71.1846 78.376C74.7403 78.376 76.878 75.25 76.878 70.2549V70.2334C76.878 65.2383 74.7403 62.1231 71.1846 62.1231C67.629 62.1231 65.4913 65.2383 65.4913 70.2334V70.2549C65.4913 75.25 67.629 78.376 71.1846 78.376ZM71.1846 76.378C69.1114 76.378 67.919 74.0469 67.919 70.2549V70.2334C67.919 66.4414 69.1114 64.1319 71.1846 64.1319C73.2471 64.1319 74.461 66.4414 74.461 70.2334V70.2549C74.461 74.0469 73.2471 76.378 71.1846 76.378Z" fill="white"/>
<defs>
<filter id="filter0_d_1958_396" x="0.467285" y="0.717419" width="127.003" height="108.986" filterUnits="userSpaceOnUse" color-interpolation-filters="sRGB">
<feFlood flood-opacity="0" result="BackgroundImageFix"/>
<feColorMatrix in="SourceAlpha" type="matrix" values="0 0 0 0 0 0 0 0 0 0 0 0 0 0 0 0 0 0 127 0" result="hardAlpha"/>
<feOffset dy="4"/>
<feGaussianBlur stdDeviation="2"/>
<feComposite in2="hardAlpha" operator="out"/>
<feColorMatrix type="matrix" values="0 0 0 0 0 0 0 0 0 0 0 0 0 0 0 0 0 0 0.25 0"/>
<feBlend mode="normal" in2="BackgroundImageFix" result="effect1_dropShadow_1958_396"/>
<feBlend mode="normal" in="SourceGraphic" in2="effect1_dropShadow_1958_396" result="shape"/>
</filter>
<filter id="filter1_d_1958_396" x="7.75" y="43" width="113" height="67" filterUnits="userSpaceOnUse" color-interpolation-filters="sRGB">
<feFlood flood-opacity="0" result="BackgroundImageFix"/>
<feColorMatrix in="SourceAlpha" type="matrix" values="0 0 0 0 0 0 0 0 0 0 0 0 0 0 0 0 0 0 127 0" result="hardAlpha"/>
<feOffset dy="4"/>
<feGaussianBlur stdDeviation="2"/>
<feComposite in2="hardAlpha" operator="out"/>
<feColorMatrix type="matrix" values="0 0 0 0 0 0 0 0 0 0 0 0 0 0 0 0 0 0 0.25 0"/>
<feBlend mode="normal" in2="BackgroundImageFix" result="effect1_dropShadow_1958_396"/>
<feBlend mode="normal" in="SourceGraphic" in2="effect1_dropShadow_1958_396" result="shape"/>
</filter>
</defs>
</svg>
