<svg width="122" height="103" viewBox="0 0 122 103" fill="none" xmlns="http://www.w3.org/2000/svg">
    <path fill-rule="evenodd" clip-rule="evenodd" d="M1.71723 52.5299C1.18304 51.5631 1.53375 50.3463 2.50056 49.8121L90.9041 0.967225C91.8709 0.433041 93.0877 0.783753 93.6218 1.75056L100.438 14.0871C100.956 15.0249 100.628 16.1917 99.8182 16.8932C95.801 20.3738 94.6195 26.3017 97.2931 31.1406C99.9667 35.9794 105.614 38.1343 110.699 36.5858C111.724 36.2737 112.886 36.6168 113.404 37.5545L120.221 49.8911C120.755 50.8579 120.404 52.0747 119.437 52.6089L31.0337 101.454C30.0669 101.988 28.8501 101.637 28.3159 100.67L20.8148 87.0943C20.683 86.8556 20.7771 86.556 21.0158 86.4241C26.5749 83.3525 28.5915 76.356 25.52 70.7968C22.4484 65.2376 15.4518 63.221 9.89267 66.2926C9.65398 66.4245 9.35019 66.3447 9.21831 66.106L1.71723 52.5299Z" fill="#75B8C4"/>
    <path fill-rule="evenodd" clip-rule="evenodd" d="M8.75 45C8.75 43.8955 9.64543 43 10.75 43H111.75C112.855 43 113.75 43.8955 113.75 45V59.0944C113.75 60.1658 112.898 61.0283 111.85 61.2508C106.651 62.3544 102.75 66.9717 102.75 72.5C102.75 78.0284 106.651 82.6456 111.85 83.7493C112.898 83.9718 113.75 84.8343 113.75 85.9056V100C113.75 101.105 112.855 102 111.75 102H10.75C9.64543 102 8.75 101.105 8.75 100V84.4895C8.75 84.2168 8.9773 84 9.25 84C15.6013 84 20.75 78.8513 20.75 72.5C20.75 66.1488 15.6013 61 9.25 61C8.9773 61 8.75 60.7833 8.75 60.5106V45Z" fill="#007C92"/>
    <path d="M5.25 41C5.25 40.1716 5.92157 39.5 6.75 39.5H107.75C108.578 39.5 109.25 40.1716 109.25 41V55.0944C109.25 55.8815 108.614 56.5775 107.747 56.7616C102.321 57.9133 98.25 62.7307 98.25 68.5C98.25 74.2693 102.321 79.0867 107.747 80.2384C108.614 80.4225 109.25 81.1185 109.25 81.9056V96C109.25 96.8284 108.578 97.5 107.75 97.5H6.75C5.92157 97.5 5.25 96.8284 5.25 96V80.5C11.8774 80.5 17.25 75.1274 17.25 68.5C17.25 61.8726 11.8774 56.5 5.25 56.5V41Z" stroke="white"/>
    <path d="M54.3687 78.2901C57.5913 78.2901 59.8579 76.378 59.8579 73.7139V73.6924C59.8579 71.5225 58.3755 70.1475 56.1733 69.9434V69.8897C57.9995 69.4922 59.3423 68.2032 59.3423 66.2803V66.2588C59.3423 63.8633 57.3657 62.209 54.3364 62.209C51.3823 62.209 49.3628 63.9385 49.1265 66.5489L49.1157 66.667H51.3823L51.3931 66.5596C51.5327 65.0987 52.6929 64.1856 54.3364 64.1856C56.0337 64.1856 57.0005 65.0664 57.0005 66.5703V66.5918C57.0005 68.0313 55.8403 69.0733 54.1323 69.0733H52.3813V70.9424H54.1968C56.1841 70.9424 57.4087 71.92 57.4087 73.6709V73.6924C57.4087 75.2178 56.1948 76.2813 54.3579 76.2813C52.5103 76.2813 51.2749 75.293 51.1245 73.8858L51.1138 73.7784H48.8042L48.8149 73.9073C49.019 76.4746 51.1245 78.2901 54.3687 78.2901Z" fill="white"/>
    <path d="M68.1846 78.376C71.7403 78.376 73.878 75.25 73.878 70.2549V70.2334C73.878 65.2383 71.7403 62.1231 68.1846 62.1231C64.629 62.1231 62.4913 65.2383 62.4913 70.2334V70.2549C62.4913 75.25 64.629 78.376 68.1846 78.376ZM68.1846 76.378C66.1114 76.378 64.919 74.0469 64.919 70.2549V70.2334C64.919 66.4414 66.1114 64.1319 68.1846 64.1319C70.2471 64.1319 71.461 66.4414 71.461 70.2334V70.2549C71.461 74.0469 70.2471 76.378 68.1846 76.378Z" fill="white"/>
</svg>

