<svg width="321" height="160" viewBox="0 0 321 160" fill="none" xmlns="http://www.w3.org/2000/svg">
<path fill-rule="evenodd" clip-rule="evenodd" d="M153.706 28.5291C152.848 31.7299 149.558 33.6294 146.357 32.7718C143.156 31.9141 141.257 28.6241 142.114 25.4233L107.341 16.1058C100.94 14.3905 94.3595 18.1895 92.6442 24.5911L74.0092 94.1378C72.2939 100.539 76.0929 107.119 82.4945 108.835L117.348 118.174C117.379 117.845 117.438 117.515 117.527 117.186C118.384 113.985 121.674 112.086 124.875 112.944C128.076 113.801 129.975 117.091 129.118 120.292C129.03 120.621 128.916 120.937 128.779 121.237L213.86 144.034C220.262 145.749 226.842 141.95 228.557 135.549L247.192 66.0022C248.908 59.6006 245.109 53.0205 238.707 51.3052L153.706 28.5291ZM141.44 51.1244C144.64 51.982 147.93 50.0825 148.788 46.8817C149.646 43.6809 147.746 40.3909 144.545 39.5333C141.345 38.6756 138.055 40.5751 137.197 43.7759C136.339 46.9767 138.239 50.2667 141.44 51.1244ZM143.87 65.2343C143.013 68.4351 139.723 70.3346 136.522 69.477C133.321 68.6193 131.422 65.3293 132.279 62.1285C133.137 58.9277 136.427 57.0282 139.628 57.8859C142.829 58.7435 144.728 62.0335 143.87 65.2343ZM131.604 87.8296C134.805 88.6872 138.095 86.7877 138.953 83.5869C139.811 80.3861 137.911 77.0961 134.71 76.2384C131.509 75.3808 128.219 77.2803 127.362 80.4811C126.504 83.6819 128.404 86.9719 131.604 87.8296ZM134.035 101.94C133.178 105.14 129.888 107.04 126.687 106.182C123.486 105.324 121.587 102.034 122.444 98.8337C123.302 95.6329 126.592 93.7334 129.793 94.591C132.993 95.4487 134.893 98.7387 134.035 101.94Z" fill="#DBDDDE"/>
<rect x="159.085" y="54.8172" width="76" height="8" rx="4" transform="rotate(15 159.085 54.8172)" fill="#CFD2D3"/>
<rect x="153.909" y="74.1357" width="76" height="8" rx="4" transform="rotate(15 153.909 74.1357)" fill="#CFD2D3"/>
<rect x="148.732" y="93.4542" width="76" height="8" rx="4" transform="rotate(15 148.732 93.4542)" fill="#CFD2D3"/>
<path d="M88.75 0L84.75 32H92.75L88.75 0Z" fill="white"/>
<path d="M120.75 32L88.75 28V36L120.75 32Z" fill="white"/>
<path d="M88.75 64L92.75 32H84.75L88.75 64Z" fill="white"/>
<path d="M56.75 32L88.75 36V28L56.75 32Z" fill="white"/>
<path d="M224.75 124L222.75 140H226.75L224.75 124Z" fill="white"/>
<path d="M240.75 140L224.75 138V142L240.75 140Z" fill="white"/>
<path d="M224.75 156L226.75 140H222.75L224.75 156Z" fill="white"/>
<path d="M208.75 140L224.75 142V138L208.75 140Z" fill="white"/>
</svg>
