
<svg width="186" height="185" viewBox="0 0 186 185" fill="none" xmlns="http://www.w3.org/2000/svg">
    <g clip-path="url(#clip0_2411_247)">
        <rect x="159.882" y="97.3262" width="1.63362" height="5.55411" transform="rotate(41.1181 159.882 97.3262)" fill="#007C92"/>
        <rect x="179.716" y="92.7389" width="1.63362" height="20.2562" rx="0.81681" transform="rotate(41.1181 179.716 92.7389)" fill="#37424A"/>
        <rect width="0.816805" height="3.92056" rx="0.408403" transform="matrix(0.907802 0.419398 -0.419383 0.907809 163.176 81.8102)" fill="#37424A"/>
        <rect x="172.054" y="97.5425" width="5.2276" height="2.94041" rx="1.4702" transform="rotate(41.1181 172.054 97.5425)" fill="#37424A"/>
        <rect width="1.63358" height="16.8262" transform="matrix(0.946193 -0.323604 0.323633 0.946183 148.965 87.7232)" fill="#007C92"/>
        <ellipse cx="155.449" cy="103.647" rx="3.92069" ry="3.92055" transform="rotate(41.1181 155.449 103.647)" fill="#2C353B"/>
        <path fill-rule="evenodd" clip-rule="evenodd" d="M155.574 76.4351L152.062 73.3696L137.418 61.4538L140.397 52.2945C140.856 50.8847 140.429 49.3373 139.312 48.3624L139.037 48.1226C136.536 45.939 132.738 46.1967 130.554 48.6983L129.972 49.3652C126.597 53.2317 126.242 58.8839 129.107 63.1421L140.935 80.7228C142.296 82.7447 143.914 84.5803 145.75 86.1828L163.878 102.007C165.899 103.771 168.967 103.563 170.73 101.542L173.421 98.4602C175.185 96.4397 174.976 93.372 172.956 91.6082L163.811 83.6255C162.458 84.9781 159.651 84.5474 157.436 82.6146C155.222 80.6818 154.416 77.9587 155.574 76.4351Z" fill="#71D6E0"/>
        <path d="M149.279 82.3366C149.419 82.3791 149.548 82.4508 149.658 82.547L163.644 94.7554C164.256 95.2894 164.319 96.2182 163.785 96.8299V96.8299C163.251 97.4416 162.322 97.5046 161.711 96.9706L147.866 84.8853C146.656 83.8293 147.742 81.87 149.279 82.3366V82.3366Z" fill="#007C92"/>
        <path d="M129.661 57.3621C129.745 57.3849 129.823 57.4266 129.889 57.4841L136.99 63.6826C137.33 63.9793 137.365 64.4953 137.068 64.8351V64.8351C136.772 65.1749 136.256 65.2099 135.916 64.9133L128.899 58.7881C128.236 58.2095 128.811 57.1328 129.661 57.3621V57.3621Z" fill="#007C92"/>
        <ellipse cx="137.949" cy="87.1867" rx="3.14337" ry="3.14337" fill="#C4C4C4"/>
        <ellipse cx="131.101" cy="85.8396" rx="5.38863" ry="5.38864" fill="#C4C4C4"/>
        <ellipse cx="125.6" cy="80.9" rx="6.62353" ry="6.62353" fill="#C4C4C4"/>
        <ellipse cx="117.966" cy="78.4302" rx="6.73579" ry="6.7358" fill="#C4C4C4"/>
        <ellipse cx="115.384" cy="71.3576" rx="6.7358" ry="6.7358" fill="#C4C4C4"/>
        <ellipse cx="105.281" cy="63.3869" rx="10.1037" ry="10.1037" fill="#C4C4C4"/>
        <ellipse cx="101.071" cy="50.196" rx="11.507" ry="11.507" fill="#C4C4C4"/>
        <path d="M8.26567 63.0156C8.32804 37.5895 28.9591 16.9969 54.3999 16.9969C79.8407 16.9969 100.472 37.5895 100.534 63.0156H8.26567Z" fill="white" stroke="#C3C6C9" stroke-width="0.23125"/>
        <path d="M54.3999 16.8813C28.8567 16.8813 8.1499 37.5881 8.1499 63.1313H100.65C100.65 37.5881 79.9431 16.8813 54.3999 16.8813Z" fill="white" stroke="#C3C6C9" stroke-width="0.4625"/>
        <path d="M54.3999 16.8813C35.2425 16.8813 19.7124 37.5881 19.7124 63.1313H89.0874C89.0874 37.5881 73.5573 16.8813 54.3999 16.8813Z" fill="white" stroke="#C3C6C9" stroke-width="0.4625"/>
        <path d="M54.3999 16.8813C48.0141 16.8813 42.8374 37.5881 42.8374 63.1313H65.9624C65.9624 37.5881 60.7857 16.8813 54.3999 16.8813Z" fill="white" stroke="#C3C6C9" stroke-width="0.4625"/>
        <path d="M8.1499 63.1313L54.3999 132.506L100.65 63.1313" stroke="white" stroke-width="0.4625" stroke-linecap="round" stroke-linejoin="round"/>
        <path d="M19.7124 63.1313L54.3999 132.506L89.0874 63.1313" stroke="white" stroke-width="0.4625" stroke-linecap="round" stroke-linejoin="round"/>
        <path d="M42.8374 63.1313L54.3999 132.506L65.9624 63.1313" stroke="white" stroke-width="0.4625" stroke-linecap="round" stroke-linejoin="round"/>
        <path d="M49.7066 165.037L49.481 166.127L50.809 168.821L50.4423 169.337L46.2366 165.523L48.3207 163.76L49.7066 165.037Z" fill="#D5D7D9"/>
        <path d="M54.7334 124.611L52.8848 124.504L53.322 121.625L55.2243 121.801L54.7334 124.611Z" fill="#D5D7D9"/>
        <path d="M52.7776 124.527C52.7776 124.527 51.4199 124.673 51.2358 126.993C51.1975 127.452 51.4659 131.557 51.4659 131.557L50.8906 138.066L55.4394 138.25L57.1193 131.84L57.5258 131.457C58.0704 130.944 58.1932 130.133 57.8403 129.474L55.1939 124.611L52.7776 124.527Z" fill="#D5D7D9"/>
        <path d="M57.2653 120.674C57.4309 118.889 56.3718 117.331 54.8996 117.195C53.4274 117.059 52.0998 118.396 51.9342 120.181C51.7685 121.967 52.8277 123.524 54.2999 123.66C55.772 123.797 57.0997 122.459 57.2653 120.674Z" fill="#D5D7D9"/>
        <path d="M51.7248 118.271C52.2153 117.475 52.0893 116.508 51.4434 116.112C50.7975 115.715 49.8762 116.039 49.3857 116.835C48.8952 117.631 49.0212 118.598 49.6671 118.995C50.3131 119.392 51.2343 119.068 51.7248 118.271Z" fill="#D5D7D9"/>
        <path d="M49.6401 165.495L46.9399 165.518C46.9399 165.518 50.1463 154.193 50.8827 152.898C51.5654 151.704 52.3095 150.747 52.3095 150.747L50.5605 142.293L56.3596 149.384L49.6401 165.495Z" fill="#D5D7D9"/>
        <path d="M51.5962 137.162L51.182 137.537C50.1388 138.946 49.855 140.777 50.4379 142.431L56.4441 151.451C56.4441 151.451 55.8841 152.607 55.7307 154.284C55.585 155.87 56.1526 166.023 56.1526 166.023L57.9629 166.039L59.7349 151.612L55.4546 136.795L51.5962 137.162Z" fill="#D5D7D9"/>
        <path d="M57.9767 165.516L57.8134 166.616L59.9692 169.807L59.7339 170.219L54.8119 166.19L56.9029 164.638L57.9767 165.516Z" fill="#D5D7D9"/>
        <path d="M53.3603 123.325C53.3603 123.325 49.3869 123.578 50.5145 117.789C50.5145 117.789 53.3527 115.239 56.49 117.582C56.49 117.582 54.7948 119.481 54.0967 120.063C54.0967 120.063 52.4782 120.025 53.5367 121.418L53.3603 123.325Z" fill="#D5D7D9"/>
        <path d="M56.1677 124.244L55.8072 125.883C55.8072 125.883 57.4794 128.012 58.2464 129.926C59.0135 131.84 60.9459 154.153 60.9459 154.153C60.1251 154.153 47.1865 151.439 47.1865 151.439C47.2556 150.121 49.8086 141.029 49.8086 141.029L50.3149 132.637L50.5757 128.012C50.7368 127.797 51.4042 125.706 51.4042 125.706L52.1636 123.677C53.8971 125.132 56.1677 124.244 56.1677 124.244Z" fill="#007C92"/>
        <path d="M50.3031 119.322C51.6564 121.695 51.9666 123.363 51.9333 123.982L52.3278 123.538C52.3355 123.625 53.0213 123.931 53.8398 124.174C54.747 124.443 56.0762 124.069 56.259 124.141C56.2102 124.585 56.5829 125.649 55.6542 125.649C54.8982 125.649 51.855 125.956 51.5718 125.348C51.1778 124.485 50.4277 121.326 49.5851 120.178C47.8395 117.798 46.2288 118.373 42.9201 115.434C41.4496 114.128 39.0216 107.473 38.1691 104.821L40.5013 105.46L42.6942 104.527C42.71 106.497 43.1047 111.068 44.5569 113.601C46.3721 116.766 48.6114 116.357 50.3031 119.322Z" fill="#A2AD00"/>
        <path d="M64.0578 121.249C64.0578 121.249 65.0758 118.432 63.7852 117.694L62.7244 119.074L62.3052 122.117L63.2219 122.997L64.0578 121.249Z" fill="#D5D7D9"/>
        <path d="M61.2276 129.652C60.436 130.059 57.2291 130.901 57.2291 130.901L55.7435 127.579C56.2055 127.48 59.7551 127.112 59.7551 127.112C59.9384 126.746 62.2319 120.957 62.2319 120.957C62.4043 121.071 64.1523 121.611 64.1523 121.611C63.9139 122.434 61.2276 129.652 61.2276 129.652Z" fill="#007C92"/>
        <path d="M44.0622 120.125C44.0622 120.125 42.91 117.361 44.1635 116.561L45.2893 117.888L45.8543 120.907L44.9811 121.831L44.0622 120.125Z" fill="#D5D7D9"/>
        <path d="M47.2926 128.382C48.1028 128.75 51.3462 129.434 51.3462 129.434L52.6703 126.044C52.2041 125.967 48.6412 125.772 48.6412 125.772C48.4406 125.416 45.8717 119.745 45.8717 119.745C45.7049 119.867 43.9851 120.491 43.9851 120.491C44.2627 121.302 47.2926 128.382 47.2926 128.382Z" fill="#007C92"/>
        <path d="M55.1094 121.855L56.214 121.556C56.214 121.556 56.3597 121.748 56.1987 121.924C56.0452 122.1 55.1094 121.855 55.1094 121.855Z" fill="white"/>
        <path d="M55.1172 121.855C55.1172 121.855 55.8766 122.207 56.0914 122.245C56.0914 122.245 56.3752 122.153 56.1988 121.924L55.1172 121.855Z" fill="white"/>
    </g>
    <defs>
        <clipPath id="clip0_2411_247">
            <rect width="185" height="185" fill="white" transform="translate(0.75)"/>
        </clipPath>
    </defs>
</svg>
