<svg width="40" height="40" viewBox="0 0 40 40" fill="none" xmlns="http://www.w3.org/2000/svg">
<path fill-rule="evenodd" clip-rule="evenodd" d="M2 19.9166C2 10.0216 10.0216 2 19.9166 2C29.8118 2 37.8333 10.0216 37.8333 19.9166C37.8333 29.8118 29.8118 37.8333 19.9166 37.8333C17.0606 37.8333 14.5897 37.1005 12.3026 35.9206C11.7082 35.614 11.0725 35.5416 10.5224 35.7066L6.57391 36.8913C4.34915 37.5586 2.27467 35.4843 2.94213 33.2595L4.12668 29.311C4.29167 28.7609 4.21933 28.1251 3.91273 27.5307C2.73293 25.2436 2 22.7729 2 19.9166ZM19.9166 4.5C11.4023 4.5 4.5 11.4023 4.5 19.9166C4.5 22.3134 5.1075 24.3937 6.13453 26.3846C6.69328 27.4678 6.89867 28.7711 6.52128 30.0293L5.3367 33.9778C5.24136 34.2956 5.53767 34.592 5.85557 34.4967L9.80402 33.312C11.0621 32.9347 12.3654 33.14 13.4486 33.6987C15.4396 34.7258 17.52 35.3333 19.9166 35.3333C28.4311 35.3333 35.3333 28.4311 35.3333 19.9166C35.3333 11.4023 28.4311 4.5 19.9166 4.5Z" fill="black"/>
<path fill-rule="evenodd" clip-rule="evenodd" d="M19.9166 12C20.607 12 21.1666 12.5596 21.1666 13.25V14.5H24.0575C24.0737 14.4997 24.0901 14.4997 24.1064 14.5H26.5833C27.2736 14.5 27.8333 15.0596 27.8333 15.75C27.8333 16.4404 27.2736 17 26.5833 17H25.0786C24.4356 19.4809 23.3104 21.6622 21.8507 23.5815C22.2542 23.9774 22.7019 24.3775 23.1975 24.7739C23.7365 25.2052 23.8239 25.9918 23.3927 26.5309C22.9614 27.0699 22.1748 27.1573 21.6357 26.7261C21.1231 26.3159 20.652 25.8995 20.2202 25.4828C18.8469 26.9126 17.283 28.1748 15.61 29.29C15.0356 29.673 14.2595 29.5178 13.8766 28.9434C13.4937 28.3689 13.6489 27.5929 14.2233 27.2099C15.8258 26.1416 17.2829 24.9539 18.5346 23.6286C17.1401 21.868 16.4278 20.282 16.2039 19.3865C16.0365 18.7168 16.4437 18.0381 17.1134 17.8706C17.7831 17.7032 18.4618 18.1104 18.6293 18.7801C18.7467 19.2498 19.2015 20.3339 20.1689 21.6502C21.1755 20.2418 21.9644 18.6973 22.4816 17H13.25C12.5596 17 12 16.4404 12 15.75C12 15.0596 12.5596 14.5 13.25 14.5H18.6666V13.25C18.6666 12.5596 19.2262 12 19.9166 12Z" fill="black"/>
</svg>
