<svg width="40" height="40" viewBox="0 0 40 40" fill="none" xmlns="http://www.w3.org/2000/svg">
<path d="M19.5753 36.1548C19.0653 36.1548 18.5553 36.0647 18.0553 35.8947L7.93515 32.3547C5.43515 31.4847 3.74521 29.1148 3.74521 26.4548V13.5448C3.74521 10.8948 5.42515 8.52475 7.93515 7.64475L18.0553 4.10475C19.2253 3.69475 20.4853 3.77475 21.5953 4.31475C22.7053 4.85475 23.5354 5.80475 23.9254 6.97475L24.5152 8.77475C24.7352 9.43475 24.3754 10.1348 23.7154 10.3548C23.0554 10.5748 22.3553 10.2148 22.1353 9.55475L21.545 7.76475C21.365 7.23475 20.9954 6.80475 20.4854 6.55475C19.9754 6.30475 19.4051 6.27475 18.8751 6.45475L8.75497 9.99475C7.25497 10.5148 6.24521 11.9448 6.24521 13.5348V26.4448C6.24521 28.0348 7.25497 29.4548 8.75497 29.9848L18.8751 33.5248C19.4051 33.7048 19.9754 33.6747 20.4854 33.4247C20.9954 33.1747 21.365 32.7447 21.545 32.2147L22.1353 30.4247C22.3553 29.7647 23.0554 29.4148 23.7154 29.6248C24.3754 29.8448 24.7252 30.5448 24.5152 31.2048L23.9254 32.9948C23.5354 34.1748 22.7053 35.1148 21.5953 35.6648C20.9553 35.9748 20.2653 36.1348 19.5753 36.1348V36.1548Z" fill="black"/>
<path d="M20.8251 25.4144C20.5051 25.4144 20.1852 25.2944 19.9452 25.0444L15.7851 20.8744C15.2951 20.3844 15.2951 19.5944 15.7851 19.1044L19.9452 14.9344C20.4352 14.4444 21.2252 14.4444 21.7152 14.9344C22.2052 15.4244 22.2052 16.2144 21.7152 16.7044L19.685 18.7344H35.0048C35.6948 18.7344 36.2548 19.2944 36.2548 19.9844C36.2548 20.6744 35.6948 21.2344 35.0048 21.2344H19.685L21.7152 23.2644C22.2052 23.7544 22.2052 24.5444 21.7152 25.0344C21.4752 25.2744 21.1549 25.4044 20.8349 25.4044L20.8251 25.4144Z" fill="black"/>
</svg>
