<svg width="40" height="40" viewBox="0 0 40 40" fill="none" xmlns="http://www.w3.org/2000/svg">
<path d="M14 10C14 6.68629 16.6863 4 20 4H30C33.3137 4 36 6.68629 36 10V30C36 33.3137 33.3137 36 30 36H20C16.6863 36 14 33.3137 14 30V26H18V30C18 31.1046 18.8954 32 20 32H30C31.1046 32 32 31.1046 32 30V10C32 8.89543 31.1046 8 30 8H20C18.8954 8 18 8.89543 18 10V14H14V10Z" fill="black"/>
<path d="M22.6642 28.4146L29.6642 21.4146C30.4453 20.6335 30.4453 19.3672 29.6642 18.5861L22.6642 11.5861L19.8358 14.4145L23.4216 18.0003L7.25 18.0003L7.25 22.0003L23.4216 22.0003L19.8358 25.5861L22.6642 28.4146Z" fill="black"/>
</svg>
