<svg width="40" height="40" viewBox="0 0 40 40" fill="none" xmlns="http://www.w3.org/2000/svg">
<path d="M19.5752 36.1499C19.0652 36.1499 18.5552 36.0599 18.0552 35.8899L7.93506 32.3499C5.43506 31.4699 3.74512 29.0999 3.74512 26.4499V13.5499C3.74512 10.8999 5.42506 8.52988 7.93506 7.64988L18.0552 4.10988C19.2252 3.69988 20.4852 3.77988 21.5952 4.31988C22.7052 4.85988 23.5353 5.80988 23.9253 6.97988L24.5151 8.77988C24.7351 9.43988 24.3753 10.1399 23.7153 10.3599C23.0553 10.5799 22.3553 10.2199 22.1353 9.55988L21.5449 7.76988C21.3649 7.23988 20.9954 6.80988 20.4854 6.55988C19.9754 6.30988 19.405 6.27988 18.875 6.45988L8.75488 9.99988C7.25488 10.5199 6.24512 11.9499 6.24512 13.5399V26.4399C6.24512 28.0299 7.25488 29.4499 8.75488 29.9799L18.875 33.5199C19.405 33.7099 19.9754 33.6699 20.4854 33.4199C20.9954 33.1699 21.3649 32.7399 21.5449 32.2099L22.1353 30.4199C22.3553 29.7599 23.0553 29.4099 23.7153 29.6199C24.3753 29.8399 24.7251 30.5399 24.5151 31.1999L23.9253 32.9899C23.5353 34.1699 22.7052 35.1099 21.5952 35.6599C20.9552 35.9699 20.2652 36.1299 19.5752 36.1299V36.1499Z" fill="black"/>
<path d="M30.8252 25.4095C30.5052 25.4095 30.1853 25.2895 29.9453 25.0395C29.4553 24.5495 29.4553 23.7595 29.9453 23.2695L31.9751 21.2395H16.665C15.975 21.2395 15.415 20.6795 15.415 19.9895C15.415 19.2995 15.975 18.7395 16.665 18.7395H31.9751L29.9453 16.7095C29.4553 16.2195 29.4553 15.4295 29.9453 14.9395C30.4353 14.4495 31.2253 14.4495 31.7153 14.9395L35.8853 19.1095C36.1153 19.3395 36.2549 19.6595 36.2549 19.9895C36.2549 20.3195 36.1253 20.6395 35.8853 20.8695L31.7153 25.0395C31.4753 25.2795 31.155 25.4095 30.835 25.4095H30.8252Z" fill="black"/>
</svg>
