<svg width="40" height="40" viewBox="0 0 40 40" fill="none" xmlns="http://www.w3.org/2000/svg">
  <path d="M14 10C14 6.68629 16.6863 4 20 4H30C33.3137 4 36 6.68629 36 10V30C36 33.3137 33.3137 36 30 36H20C16.6863 36 14 33.3137 14 30V26H18V30C18 31.1046 18.8954 32 20 32H30C31.1046 32 32 31.1046 32 30V10C32 8.89543 31.1046 8 30 8H20C18.8954 8 18 8.89543 18 10V14H14V10Z" fill="black"/>
  <path d="M9.58579 11.5858L2.58579 18.5858C1.80474 19.3668 1.80474 20.6332 2.58579 21.4142L9.58579 28.4142L12.4142 25.5858L8.82843 22H25V18H8.82843L12.4142 14.4142L9.58579 11.5858Z" fill="black"/>
</svg>