<svg width="40" height="40" viewBox="0 0 40 40" fill="none" xmlns="http://www.w3.org/2000/svg">
<path d="M33.3301 34.5799H6.66992C4.13992 34.5799 2.08008 32.5199 2.08008 29.9999V9.99992C2.08008 7.46992 4.13992 5.41992 6.66992 5.41992H33.3301C35.8601 5.41992 37.9199 7.47992 37.9199 9.99992V29.9999C37.9199 32.5299 35.8601 34.5799 33.3301 34.5799ZM6.66992 7.91992C5.51992 7.91992 4.58008 8.84992 4.58008 9.99992V29.9999C4.58008 31.1499 5.51992 32.0799 6.66992 32.0799H33.3301C34.4801 32.0799 35.4199 31.1499 35.4199 29.9999V9.99992C35.4199 8.84992 34.4801 7.91992 33.3301 7.91992H6.66992Z" fill="black"/>
<path d="M20 20.85C19.3 20.85 18.5902 20.69 17.9502 20.37L2.77002 12.78L3.89014 10.54L19.0698 18.13C19.6598 18.42 20.3402 18.43 20.9302 18.13L36.1099 10.54L37.23 12.78L22.0498 20.37C21.4098 20.69 20.7 20.85 20 20.85Z" fill="black"/>
</svg>
