<svg width="40" height="40" viewBox="0 0 40 40" fill="none" xmlns="http://www.w3.org/2000/svg">
  <path fill-rule="evenodd" clip-rule="evenodd" d="M2 12C2 8.68629 4.68629 6 8 6H32C35.3137 6 38 8.68629 38 12V28C38 31.3137 35.3137 34 32 34H8C4.68629 34 2 31.3137 2 28V12ZM6 27.1715V12.8285L13.1715 20L6 27.1715ZM8.8284 30H31.1716L23.9932 22.8216C21.722 24.8504 18.278 24.8504 16.0068 22.8216L8.8284 30ZM26.8285 20L34 27.1715V12.8285L26.8285 20ZM8.8284 10H31.1716L21.4142 19.7574C20.6332 20.5384 19.3668 20.5384 18.5858 19.7574L8.8284 10Z" fill="black"/>
</svg>