<svg width="40" height="40" viewBox="0 0 40 40" fill="none" xmlns="http://www.w3.org/2000/svg">
<path fill-rule="evenodd" clip-rule="evenodd" d="M18.8672 27.8069C19.1119 28.6942 18.591 29.612 17.7036 29.8567L17.6891 29.8607C16.8018 30.1054 15.8841 29.5844 15.6393 28.6971C15.3946 27.8098 15.9156 26.892 16.8029 26.6473L16.8174 26.6433C17.7048 26.3986 18.6225 26.9195 18.8672 27.8069Z" fill="black"/>
<path fill-rule="evenodd" clip-rule="evenodd" d="M14.3294 3.25C14.3294 2.55964 14.889 2 15.5794 2H25.5794C26.2697 2 26.8294 2.55964 26.8294 3.25C26.8294 3.94036 26.2697 4.5 25.5794 4.5H15.5794C14.889 4.5 14.3294 3.94036 14.3294 3.25Z" fill="black"/>
<path fill-rule="evenodd" clip-rule="evenodd" d="M17.1263 20.7598C18.3119 21.2024 19.5883 21.9559 20.835 22.7113C22.5761 23.7663 23.7695 23.7781 24.514 23.5412C25.2892 23.2945 25.8317 22.6989 26.1081 22.0911C26.3939 21.4627 27.135 21.1849 27.7634 21.4707C28.3919 21.7564 28.6697 22.4975 28.3839 23.126C27.876 24.243 26.8498 25.4214 25.2721 25.9235C23.6637 26.4353 21.7198 26.1706 19.5394 24.8494C18.2607 24.0746 17.1814 23.4489 16.2519 23.1019C15.3103 22.7504 14.8039 22.7924 14.4979 22.9546C13.8879 23.2778 13.1314 23.0453 12.8081 22.4353C12.4849 21.8252 12.7174 21.0687 13.3275 20.7455C14.5845 20.0795 15.9527 20.3216 17.1263 20.7598Z" fill="black"/>
<path fill-rule="evenodd" clip-rule="evenodd" d="M17.246 2C17.9364 2 18.496 2.55964 18.496 3.25V14.9167C18.496 15.1143 18.4492 15.309 18.3593 15.485L8.55296 34.6948L8.54987 34.7008C8.47139 34.8526 8.48256 35.016 8.55898 35.1492C8.63416 35.2802 8.73989 35.3333 8.84944 35.3333H32.3092C32.4188 35.3333 32.5246 35.2801 32.5997 35.1491C32.6761 35.016 32.6873 34.8526 32.6088 34.7009L32.6057 34.6948L22.7994 15.485C22.7095 15.309 22.6627 15.1143 22.6627 14.9167V3.25C22.6627 2.55964 23.2223 2 23.9127 2C24.603 2 25.1627 2.55964 25.1627 3.25V14.6161L34.8292 33.5521C34.8298 33.5532 34.8303 33.5542 34.8309 33.5553C35.7946 35.4235 34.5381 37.8333 32.3092 37.8333H8.84944C6.62052 37.8333 5.36429 35.4235 6.32769 33.5555C6.32826 33.5544 6.32883 33.5533 6.3294 33.5521L15.996 14.6161V3.25C15.996 2.55964 16.5557 2 17.246 2Z" fill="black"/>
<path fill-rule="evenodd" clip-rule="evenodd" d="M27.2052 31.1573C27.4404 32.0472 26.9098 32.9594 26.0199 33.1946L26.0054 33.1985C25.1155 33.4337 24.2033 32.9031 23.9681 32.0132C23.7328 31.1233 24.2634 30.2111 25.1533 29.9759L25.1678 29.972C26.0577 29.7368 26.9699 30.2674 27.2052 31.1573Z" fill="black"/>
</svg>
