<svg width="40" height="40" viewBox="0 0 40 40" fill="none" xmlns="http://www.w3.org/2000/svg">
<path fill-rule="evenodd" clip-rule="evenodd" d="M5.33333 15.75C5.33333 8.15608 11.4894 2 19.0833 2C26.6772 2 32.8333 8.15607 32.8333 15.75V20.2027C32.8333 20.7551 33.0528 21.285 33.4436 21.6758L35.8005 24.0328C36.035 24.2672 36.1667 24.5851 36.1667 24.9167V27.22C36.1667 28.3118 35.5514 29.3619 34.4899 29.8301C31.7064 31.0572 26.3389 32.8333 19.0833 32.8333C11.8277 32.8333 6.46029 31.0572 3.67698 29.8301C2.61512 29.362 2 28.3118 2 27.22V24.9167C2 24.5851 2.1317 24.2672 2.36612 24.0328L4.72311 21.6758C4.7231 21.6758 4.72312 21.6758 4.72311 21.6758C5.11384 21.285 5.33333 20.7551 5.33333 20.2027V15.75ZM19.0833 4.5C12.8701 4.5 7.83333 9.53679 7.83333 15.75V20.2027C7.83333 21.4182 7.35044 22.584 6.49092 23.4435L4.5 25.4344V27.22C4.5 27.3906 4.59205 27.5014 4.68549 27.5426C7.21123 28.6561 12.2352 30.3333 19.0833 30.3333C25.9313 30.3333 30.9552 28.6562 33.4811 27.5426C33.5746 27.5014 33.6667 27.3905 33.6667 27.22V25.4344L31.6758 23.4436C30.8162 22.584 30.3333 21.4182 30.3333 20.2027V15.75C30.3333 9.53679 25.2965 4.5 19.0833 4.5Z" fill="black"/>
<path fill-rule="evenodd" clip-rule="evenodd" d="M14.5 31.5833C14.5 33.4938 16.3239 35.3333 19.0365 35.3333C21.7769 35.3333 23.6667 33.47 23.6667 31.5833H26.1667C26.1667 35.2197 22.7571 37.8333 19.0365 37.8333C15.2881 37.8333 12 35.1959 12 31.5833H14.5Z" fill="black"/>
</svg>
