<svg width="40" height="40" viewBox="0 0 40 40" fill="none" xmlns="http://www.w3.org/2000/svg">
  <path d="M22 21C22 19.8954 21.1046 19 20 19C18.8954 19 18 19.8954 18 21V22.5359L16.6699 21.7679C15.7133 21.2157 14.4901 21.5434 13.9378 22.5C13.3855 23.4566 13.7133 24.6798 14.6699 25.232L16 26L14.6699 26.7679C13.7133 27.3202 13.3855 28.5434 13.9378 29.5C14.4901 30.4566 15.7133 30.7843 16.6699 30.232L18 29.4641V31C18 32.1046 18.8954 33 20 33C21.1046 33 22 32.1046 22 31V29.4641L23.3301 30.232C24.2867 30.7843 25.5099 30.4566 26.0622 29.5C26.6145 28.5434 26.2867 27.3202 25.3301 26.7679L24 26L25.3301 25.232C26.2867 24.6798 26.6145 23.4566 26.0622 22.5C25.5099 21.5434 24.2867 21.2157 23.3301 21.7679L22 22.5359V21Z" fill="black"/>
  <path fill-rule="evenodd" clip-rule="evenodd" d="M10 8C10 4.68629 12.6863 2 16 2H24C27.3137 2 30 4.68629 30 8V14.3414C32.3304 15.1651 34 17.3876 34 20V32C34 35.3137 31.3137 38 28 38H12C8.68629 38 6 35.3137 6 32V20C6 17.3876 7.66962 15.1651 10 14.3414V8ZM26 8V14H14V8C14 6.89543 14.8954 6 16 6H24C25.1046 6 26 6.89543 26 8ZM12 18C10.8954 18 10 18.8954 10 20V32C10 33.1046 10.8954 34 12 34H28C29.1046 34 30 33.1046 30 32V20C30 18.8954 29.1046 18 28 18H12Z" fill="black"/>
</svg>