<svg width="40" height="40" viewBox="0 0 40 40" fill="none" xmlns="http://www.w3.org/2000/svg">
<path d="M30 37.9198H10C7.47 37.9198 5.41992 35.8598 5.41992 33.3398V18.3398C5.41992 15.8098 7.47 13.7598 10 13.7598H30C32.53 13.7598 34.5801 15.8198 34.5801 18.3398V33.3398C34.5801 35.8698 32.53 37.9198 30 37.9198ZM10 16.2498C8.85 16.2498 7.91992 17.1798 7.91992 18.3298V33.3298C7.91992 34.4798 8.85 35.4098 10 35.4098H30C31.15 35.4098 32.0801 34.4798 32.0801 33.3298V18.3298C32.0801 17.1798 31.15 16.2498 30 16.2498H10Z" fill="black"/>
<path d="M27.5 16.2501C26.81 16.2501 26.25 15.6901 26.25 15.0001V10.8301C26.25 7.38008 23.45 4.58008 20 4.58008C16.55 4.58008 13.75 7.38008 13.75 10.8301V15.0001C13.75 15.6901 13.19 16.2501 12.5 16.2501C11.81 16.2501 11.25 15.6901 11.25 15.0001V10.8301C11.25 6.01008 15.18 2.08008 20 2.08008C24.82 2.08008 28.75 6.01008 28.75 10.8301V15.0001C28.75 15.6901 28.19 16.2501 27.5 16.2501Z" fill="black"/>
<path d="M26.6699 27.5002C25.7499 27.5002 25 26.7502 25 25.8302C25 24.9102 25.7499 24.1602 26.6699 24.1602C27.5899 24.1602 28.3398 24.9002 28.3398 25.8202V25.8401C28.3398 26.7601 27.5899 27.5102 26.6699 27.5102V27.5002Z" fill="black"/>
<path d="M20 27.5002C19.08 27.5002 18.3301 26.7502 18.3301 25.8302C18.3301 24.9102 19.08 24.1602 20 24.1602C20.92 24.1602 21.6699 24.9002 21.6699 25.8202V25.8401C21.6699 26.7601 20.92 27.5102 20 27.5102V27.5002Z" fill="black"/>
<path d="M13.3301 27.5002C12.4101 27.5002 11.6602 26.7502 11.6602 25.8302C11.6602 24.9102 12.4101 24.1602 13.3301 24.1602C14.2501 24.1602 15 24.9002 15 25.8202V25.8401C15 26.7601 14.2501 27.5102 13.3301 27.5102V27.5002Z" fill="black"/>
</svg>
