<svg width="40" height="40" viewBox="0 0 40 40" fill="none" xmlns="http://www.w3.org/2000/svg">
<path fill-rule="evenodd" clip-rule="evenodd" d="M18.4395 2.51024C19.7243 1.82992 21.2756 1.82992 22.5605 2.51023C24.5514 3.56427 28.6292 5.46115 33.5154 6.31053C35.4413 6.64529 37 8.29348 37 10.3721V18.5852C37 24.4954 33.9855 29.0006 30.6858 32.1531C27.3913 35.3006 23.6972 37.2171 22.0162 37.9966C21.0481 38.4455 19.9521 38.4455 18.9839 37.9967C17.3029 37.2172 13.6087 35.3006 10.3142 32.1531C7.01447 29.0006 4 24.4954 4 18.5852V10.3721C4 8.29346 5.55875 6.64529 7.48459 6.31053C12.3708 5.46116 16.4486 3.56427 18.4395 2.51024ZM21.1567 5.16154C20.75 4.94616 20.25 4.94616 19.8433 5.16154C17.7028 6.29477 13.3125 8.34245 7.99837 9.26621C7.39298 9.37144 7 9.86737 7 10.3721V18.5852C7 23.389 9.43355 27.1627 12.3865 29.9839C15.3446 32.81 18.7079 34.5618 20.2457 35.275C20.4136 35.3528 20.5864 35.3528 20.7543 35.275C22.2922 34.5618 25.6554 32.81 28.6135 29.9839C31.5665 27.1627 34 23.389 34 18.5852V10.3721C34 9.86736 33.607 9.37144 33.0016 9.26621C27.6875 8.34245 23.2972 6.29476 21.1567 5.16154ZM20.5013 12.5C19.7176 12.5 19.0833 13.1349 19.0833 13.9167C19.0833 14.6984 19.7176 15.3333 20.5013 15.3333C21.2852 15.3333 21.9193 14.6985 21.9193 13.9167C21.9193 13.1349 21.2852 12.5 20.5013 12.5ZM16.0833 13.9167C16.0833 11.4767 18.0621 9.5 20.5013 9.5C22.9408 9.5 24.9193 11.4768 24.9193 13.9167C24.9193 16.3565 22.9408 18.3333 20.5013 18.3333C18.0621 18.3333 16.0833 16.3566 16.0833 13.9167ZM16.167 25.3333H24.833C24.8108 23.7648 23.5322 22.5 21.9583 22.5H19.0417C17.4678 22.5 16.1892 23.7648 16.167 25.3333ZM13.1667 25.375C13.1667 22.1304 15.797 19.5 19.0417 19.5H21.9583C25.2029 19.5 27.8333 22.1304 27.8333 25.375C27.8333 27.0088 26.5088 28.3333 24.875 28.3333H16.125C14.4911 28.3333 13.1667 27.0087 13.1667 25.375Z" fill="#141B34"/>
</svg>
