<svg width="40" height="40" viewBox="0 0 40 40" fill="none" xmlns="http://www.w3.org/2000/svg">
<path fill-rule="evenodd" clip-rule="evenodd" d="M19.6333 2.10829C18.9767 2.18996 18.5783 2.33329 17.2667 2.96662C14.3183 4.38996 11.3033 5.47662 8.80001 6.01996L7.21168 6.36329C6.25001 6.57162 5.70168 6.81496 5.15835 7.27329C4.65668 7.69829 4.36335 8.06496 4.12335 8.57329C3.72501 9.41162 3.72168 9.46996 3.75168 14.9316C3.77168 18.3066 3.80501 20.0716 3.86001 20.4333C4.48668 24.6366 6.27501 28.0733 9.53335 31.335C11.8167 33.6216 14.5183 35.5533 17.655 37.14C19.7367 38.1933 20.2633 38.1933 22.345 37.14C25.4833 35.5516 28.1867 33.62 30.4667 31.335C33.7267 28.07 35.5133 24.635 36.14 20.4333C36.195 20.0716 36.2283 18.3066 36.2483 14.9316C36.2783 9.46996 36.275 9.41162 35.8767 8.57329C35.64 8.06996 35.38 7.74329 34.86 7.29329C34.3133 6.82162 33.7633 6.57496 32.7883 6.36329L31.2 6.01996C29.5933 5.67162 27.08 4.86496 25.2333 4.10329C24.4381 3.76303 23.6512 3.40348 22.8733 3.02496C22.0883 2.64329 21.2783 2.28996 21.0733 2.23829C20.6583 2.13496 19.94 2.06996 19.6333 2.10829ZM21.7417 5.26496C25.19 6.92829 28.6283 8.09996 31.9333 8.73662C32.875 8.91829 33.2367 9.08496 33.5 9.45996L33.7 9.74496V14.855C33.6983 20.425 33.7033 20.3416 33.2967 21.9466C32.3083 25.845 29.4567 29.53 25.0217 32.6416C23.26 33.8783 20.4883 35.4 20 35.4C19.675 35.4 18.355 34.7466 16.79 33.8083C11.4017 30.58 7.82668 26.3766 6.70335 21.9466C6.29668 20.3416 6.30168 20.425 6.30001 14.855V9.74496L6.50001 9.45996C6.76335 9.08496 7.12501 8.91829 8.06668 8.73662C11.3733 8.09996 14.8233 6.92496 18.26 5.26329C20.0817 4.38329 19.915 4.38329 21.7417 5.26496ZM19.0283 9.69829C18.28 9.86162 17.3683 10.4266 16.8183 11.0666C16.1824 11.795 15.8386 12.7331 15.8533 13.7C15.85 14.49 15.9767 15.0416 16.3133 15.6816C16.6083 16.245 17.215 16.9116 17.7533 17.265C18.9817 18.07 20.76 18.1216 22.05 17.39C22.8117 16.9566 23.5617 16.09 23.8867 15.265C24.3233 14.16 24.2217 12.6966 23.6383 11.7016C23.0583 10.7133 21.99 9.91829 20.9417 9.69496C20.309 9.58021 19.6607 9.58134 19.0283 9.69829ZM20.7367 12.27C21.0367 12.42 21.3583 12.7483 21.5133 13.06C21.6867 13.4083 21.6733 14.1483 21.4867 14.5C21.3437 14.7703 21.1298 14.9966 20.8678 15.1544C20.6059 15.3122 20.3058 15.3956 20 15.3956C19.6942 15.3956 19.3942 15.3122 19.1322 15.1544C18.8703 14.9966 18.6563 14.7703 18.5133 14.5C18.315 14.1283 18.315 13.4066 18.5117 13.0316C18.955 12.1916 19.9233 11.86 20.7367 12.27ZM17.7 19.645C16.4992 19.8419 15.3923 20.4163 14.54 21.285C14.0167 21.8183 13.79 22.145 13.4633 22.8333C13.0717 23.6583 12.9733 24.1083 12.97 25.0666C12.9667 25.865 12.975 25.9183 13.175 26.3333C13.4017 26.8083 13.8617 27.3133 14.3017 27.5716C14.89 27.9166 15.1267 27.9316 20 27.9316C24.8733 27.9316 25.11 27.9166 25.6983 27.5716C26.1793 27.2687 26.5687 26.8406 26.825 26.3333C27.025 25.9183 27.0333 25.865 27.03 25.0666C27.0267 24.1083 26.9283 23.6583 26.5367 22.8333C26.2915 22.2662 25.9376 21.7526 25.495 21.3216C25.005 20.8162 24.4273 20.404 23.79 20.105C22.8233 19.6583 22.7383 19.6483 20.2 19.63C19.3667 19.6168 18.5331 19.6218 17.7 19.645ZM21.9467 22.1333C22.1917 22.17 22.5667 22.28 22.78 22.3783C23.2967 22.62 24.0467 23.37 24.2883 23.8866C24.4717 24.28 24.63 25.1083 24.5583 25.2966C24.5233 25.3883 24.0233 25.4 20 25.4C15.9767 25.4 15.4767 25.3883 15.4417 25.2966C15.37 25.1083 15.5283 24.28 15.7117 23.8866C15.955 23.3666 16.7033 22.6216 17.2267 22.3766C17.4715 22.266 17.729 22.1859 17.9933 22.1383C18.525 22.06 21.4133 22.0566 21.9467 22.1333Z" fill="black"/>
</svg>
