<svg width="40" height="40" viewBox="0 0 40 40" fill="none" xmlns="http://www.w3.org/2000/svg">
<path fill-rule="evenodd" clip-rule="evenodd" d="M20 15.4167C17.4687 15.4167 15.4167 17.4687 15.4167 20C15.4167 22.5313 17.4687 24.5833 20 24.5833C22.5313 24.5833 24.5833 22.5313 24.5833 20C24.5833 17.4687 22.5313 15.4167 20 15.4167ZM12.9167 20C12.9167 16.088 16.088 12.9167 20 12.9167C23.912 12.9167 27.0833 16.088 27.0833 20C27.0833 23.912 23.912 27.0833 20 27.0833C16.088 27.0833 12.9167 23.912 12.9167 20Z" fill="black"/>
<path fill-rule="evenodd" clip-rule="evenodd" d="M14.5451 3.99434C14.9421 2.80333 16.0566 2 17.3122 2H21.5762C22.8317 2 23.9462 2.80332 24.3432 3.99432L25.489 7.43184L27.2613 8.55276L30.9972 7.62836C32.2452 7.31963 33.5481 7.86425 34.205 8.96935L36.5218 12.8669C37.2047 14.0157 37.0194 15.4814 36.0724 16.4242L33.4299 19.0551L33.4292 20.7787L36.0713 23.4092C37.018 24.3519 37.2033 25.8177 36.5205 26.9664M36.5205 26.9664L34.2038 30.8638C33.547 31.9689 32.2441 32.5138 30.996 32.2049L27.2228 31.2713L25.6394 32.1597L24.6062 35.7278C24.2451 36.9749 23.103 37.8333 21.8047 37.8333H17.085C15.7865 37.8333 14.6445 36.9749 14.2834 35.7278L13.2502 32.1599L11.6657 31.2712L7.89228 32.2049C6.64421 32.5138 5.34122 31.9688 4.68444 30.8639L2.41072 27.0386C1.69379 25.8325 1.93725 24.2867 2.99033 23.3594L5.54905 21.1062V18.7273L2.98956 16.474C1.93622 15.5468 1.69258 14.0008 2.40956 12.7946L4.68324 8.96938C5.34011 7.86428 6.64304 7.3196 7.89096 7.62835L11.627 8.55277L13.3993 7.43184L14.5451 3.99434M17.3122 4.5C17.1327 4.5 16.9735 4.61477 16.9168 4.78489L15.63 8.64529C15.5388 8.91877 15.356 9.15234 15.1123 9.30643L12.5126 10.9507C12.2247 11.1328 11.8749 11.1895 11.5442 11.1077L7.29054 10.0552C7.11223 10.0111 6.92609 10.0889 6.83227 10.2468L4.55861 14.0719C4.45618 14.2442 4.49101 14.4651 4.64144 14.5975L7.62502 17.2241C7.89458 17.4614 8.04905 17.8032 8.04905 18.1623V21.671C8.04905 22.0301 7.89464 22.3718 7.62515 22.6091L4.64254 25.2356C4.49217 25.368 4.45731 25.5889 4.55968 25.7611L6.83347 29.5865C6.92736 29.7444 7.11352 29.8222 7.29163 29.7781L11.5454 28.7256C11.8539 28.6493 12.1799 28.6933 12.4571 28.8487L14.9199 30.2299C15.2062 30.3905 15.4178 30.6572 15.5091 30.9725L16.6847 35.0325C16.7363 35.2107 16.8995 35.3333 17.085 35.3333H21.8047C21.99 35.3333 22.1532 35.2107 22.2048 35.0325L23.3805 30.9725C23.4718 30.6573 23.6833 30.3906 23.9695 30.23L26.431 28.8489C26.7082 28.6933 27.0343 28.6492 27.3429 28.7256L31.5966 29.7781C31.7748 29.8222 31.9609 29.7445 32.0548 29.5865L34.3715 25.689C34.469 25.525 34.4426 25.3154 34.3074 25.1808L31.297 22.1837C31.0613 21.9489 30.9288 21.63 30.929 21.2973L30.9301 18.535C30.9303 18.2027 31.0627 17.8841 31.2982 17.6497L34.3085 14.6525C34.4438 14.5178 34.4703 14.3084 34.3728 14.1444L32.056 10.2468C31.9622 10.089 31.7761 10.0111 31.5977 10.0552L27.3441 11.1077C27.0133 11.1895 26.6636 11.1328 26.3756 10.9507L23.776 9.30643C23.5323 9.15233 23.3495 8.91877 23.2583 8.6453L21.9715 4.78491C21.9148 4.61481 21.7556 4.5 21.5762 4.5H17.3122Z" fill="black"/>
</svg>
