<svg width="40" height="40" viewBox="0 0 40 40" fill="none" xmlns="http://www.w3.org/2000/svg">
<path fill-rule="evenodd" clip-rule="evenodd" d="M19.9167 2C10.0215 2 2 10.0215 2 19.9167C2 29.8115 10.0215 37.8333 19.9167 37.8333C29.8118 37.8333 37.8333 29.8115 37.8333 19.9167C37.8333 10.0215 29.8118 2 19.9167 2ZM34.5758 19.9175C34.5758 28.0133 28.0127 34.5767 19.9167 34.5767V28.25C24.519 28.25 28.25 24.5188 28.25 19.9167C28.25 15.3143 24.519 11.5833 19.9167 11.5833V5.25847C28.0127 5.25847 34.5758 11.8215 34.5758 19.9175ZM19.9167 11.5833C15.3143 11.5833 11.5833 15.3143 11.5833 19.9167C11.5833 24.5188 15.3143 28.25 19.9167 28.25V11.5833Z" fill="black"/>
</svg>
