<svg width="40" height="40" viewBox="0 0 40 40" fill="none" xmlns="http://www.w3.org/2000/svg">
<path fill-rule="evenodd" clip-rule="evenodd" d="M16.5833 4.5C13.5918 4.5 11.1667 6.92512 11.1667 9.91667C11.1667 12.9082 13.5918 15.3333 16.5833 15.3333C19.5748 15.3333 22 12.9082 22 9.91667C22 6.92513 19.5748 4.5 16.5833 4.5ZM8.66667 9.91667C8.66667 5.54441 12.2111 2 16.5833 2C20.9555 2 24.5 5.5444 24.5 9.91667C24.5 14.2889 20.9555 17.8333 16.5833 17.8333C12.2111 17.8333 8.66667 14.2889 8.66667 9.91667ZM4.57423 32C5.19176 26.8364 9.58673 22.8333 14.9167 22.8333H18.25C20.1494 22.8333 21.9265 23.3406 23.4574 24.2262C24.055 24.5719 24.8197 24.3677 25.1653 23.7701C25.511 23.1725 25.3068 22.4078 24.7092 22.0622C22.8081 20.9624 20.6006 20.3333 18.25 20.3333H14.9167C7.783 20.3333 2 26.1163 2 33.25C2 33.9404 2.55964 34.5 3.25 34.5H18.25C18.9404 34.5 19.5 33.9404 19.5 33.25C19.5 32.5596 18.9404 32 18.25 32H4.57423Z" fill="black"/>
<path fill-rule="evenodd" clip-rule="evenodd" d="M31.5328 22.3661C32.0209 21.878 32.8124 21.878 33.3006 22.3661L37.4672 26.5328C37.9554 27.0209 37.9554 27.8124 37.4672 28.3006L28.3006 37.4672C28.0661 37.7016 27.7482 37.8333 27.4167 37.8333H23.25C22.5596 37.8333 22 37.2737 22 36.5833V32.4167C22 32.0851 22.1317 31.7672 22.3661 31.5328L31.5328 22.3661ZM24.5 32.9344V35.3333H26.8989L34.8156 27.4167L32.4167 25.0178L24.5 32.9344Z" fill="black"/>
</svg>
