<svg width="40" height="40" viewBox="0 0 40 40" fill="none" xmlns="http://www.w3.org/2000/svg">
<path d="M29.9697 20.44C29.2797 20.44 28.64 20.14 28.21 19.63C27.6 18.85 26.8906 18.15 26.1406 17.42C24.2106 15.52 22.0098 13.36 22.0098 9.98C22.0098 5.58 25.58 2 29.96 2C34.34 2 37.9102 5.58 37.9102 9.98C37.9102 13.41 35.6301 15.67 33.6201 17.66C32.9301 18.34 32.2797 18.98 31.7197 19.66C31.2897 20.17 30.6497 20.46 29.9697 20.46V20.44ZM29.9502 4.48C26.9502 4.48 24.5 6.94 24.5 9.96C24.5 12.29 26.0699 13.84 27.8799 15.62C28.5899 16.32 29.32 17.04 29.96 17.83C30.55 17.14 31.2106 16.49 31.8506 15.86C33.6806 14.05 35.4004 12.35 35.4004 9.96C35.4004 6.94 32.9502 4.48 29.9502 4.48Z" fill="black"/>
<path d="M29.9502 11.5699C29.8402 11.5699 29.7299 11.5599 29.6299 11.5299C29.5199 11.5099 29.4105 11.4799 29.3105 11.4399C29.2105 11.3999 29.1103 11.3499 29.0303 11.2899C28.9303 11.2299 28.8505 11.1599 28.7705 11.0799C28.4605 10.7699 28.2803 10.3399 28.2803 9.89994C28.2803 9.45994 28.4605 9.02994 28.7705 8.71994C28.8505 8.64994 28.9303 8.57994 29.0303 8.51994C29.1103 8.45994 29.2105 8.39994 29.3105 8.35994C29.4105 8.31994 29.5199 8.28994 29.6299 8.26994C30.1699 8.15994 30.7399 8.32994 31.1299 8.71994C31.4399 9.02994 31.6201 9.45994 31.6201 9.89994C31.6201 10.0099 31.6198 10.1199 31.5898 10.2299C31.5598 10.3299 31.5302 10.4399 31.4902 10.5399C31.4502 10.6399 31.3998 10.7299 31.3398 10.8299C31.2798 10.9199 31.2099 10.9999 31.1299 11.0799C30.8199 11.3899 30.3902 11.5699 29.9502 11.5699Z" fill="black"/>
<path d="M8.25 37.8198C4.8 37.8198 2 35.0198 2 31.5698C2 28.1198 4.8 25.3198 8.25 25.3198C11.7 25.3198 14.5 28.1198 14.5 31.5698C14.5 35.0198 11.7 37.8198 8.25 37.8198ZM8.25 27.8198C6.22 27.8198 4.5 29.5398 4.5 31.5698C4.5 33.5998 6.22 35.3198 8.25 35.3198C10.28 35.3198 12 33.6698 12 31.5698C12 29.4698 10.35 27.8198 8.25 27.8198Z" fill="black"/>
<path d="M20.75 32.8198H18.25C17.56 32.8198 17 32.2598 17 31.5698C17 30.8798 17.56 30.3198 18.25 30.3198H20.75C23.31 30.3198 25.4004 28.6398 25.4004 26.5698C25.4004 24.4998 23.31 22.8198 20.75 22.8198H15.75C11.86 22.8198 8.7002 20.0198 8.7002 16.5698C8.7002 13.1198 11.86 10.3198 15.75 10.3198H18.25C18.94 10.3198 19.5 10.8798 19.5 11.5698C19.5 12.2598 18.94 12.8198 18.25 12.8198H15.75C13.24 12.8198 11.2002 14.4998 11.2002 16.5698C11.2002 18.6398 13.24 20.3198 15.75 20.3198H20.75C24.69 20.3198 27.9004 23.1198 27.9004 26.5698C27.9004 30.0198 24.76 32.8198 20.75 32.8198Z" fill="black"/>
</svg>
