<svg width="40" height="40" viewBox="0 0 40 40" fill="none" xmlns="http://www.w3.org/2000/svg">
<path d="M19.6504 37.84C19.4404 37.84 19.2198 37.84 19.0098 37.83C18.3198 37.81 17.7798 37.23 17.7998 36.54C17.8198 35.85 18.3998 35.29 19.0898 35.33C19.4598 35.34 19.8302 35.34 20.2002 35.33C20.8802 35.29 21.4702 35.85 21.4902 36.54C21.5102 37.23 20.9703 37.81 20.2803 37.83C20.0703 37.83 19.8506 37.84 19.6406 37.84H19.6504ZM25.3506 36.79C24.8106 36.79 24.3204 36.44 24.1504 35.91C23.9504 35.25 24.3205 34.55 24.9805 34.35C25.2905 34.25 25.5305 34.15 25.8105 34.02C26.4305 33.72 27.1797 33.99 27.4697 34.62C27.7597 35.24 27.5001 35.99 26.8701 36.28C26.5501 36.43 26.1802 36.59 25.7002 36.74C25.5802 36.78 25.4501 36.79 25.3301 36.79H25.3506ZM13.8506 36.78C13.7006 36.78 13.5406 36.75 13.3906 36.69C13.0706 36.57 12.7507 36.43 12.4307 36.29C11.8007 36.01 11.5198 35.27 11.7998 34.64C12.0798 34.01 12.8202 33.73 13.4502 34.01C13.7302 34.14 14.01 34.26 14.29 34.37C14.93 34.62 15.25 35.35 15 35.99C14.81 36.48 14.3398 36.78 13.8398 36.78H13.8506ZM30.75 33.44C30.41 33.44 30.0603 33.3 29.8203 33.02C29.3603 32.51 29.3999 31.72 29.9199 31.26C30.2099 31 30.5 30.74 30.79 30.46C31.29 29.98 32.0805 30 32.5605 30.5C33.0405 31 33.0205 31.79 32.5205 32.27C32.2105 32.57 31.8998 32.85 31.5898 33.13C31.3498 33.34 31.0498 33.45 30.7598 33.45L30.75 33.44ZM8.4502 33.41C8.1002 33.41 7.75977 33.27 7.50977 32.99C7.43977 32.91 7.36051 32.83 7.27051 32.76C7.10051 32.6 6.92027 32.43 6.78027 32.26C6.34027 31.73 6.41043 30.94 6.94043 30.5C7.47043 30.06 8.2602 30.13 8.7002 30.66C8.7802 30.75 8.86973 30.84 8.96973 30.93C9.11973 31.07 9.25988 31.2 9.37988 31.34C9.83988 31.86 9.79051 32.65 9.27051 33.1C9.03051 33.31 8.74043 33.41 8.44043 33.41H8.4502ZM34.4502 28.34C34.2502 28.34 34.0404 28.29 33.8604 28.19C33.2504 27.86 33.0304 27.1 33.3604 26.5C33.5104 26.22 33.68 25.9 33.75 25.65C33.92 24.98 34.6105 24.58 35.2705 24.75C35.9405 24.92 36.3399 25.61 36.1699 26.27C36.0299 26.81 35.7705 27.29 35.5605 27.68C35.3305 28.1 34.9 28.33 34.46 28.33L34.4502 28.34ZM4.75 28.25C4.33 28.25 3.93043 28.04 3.69043 27.67C3.40043 27.21 3.26039 26.76 3.15039 26.39C2.95039 25.73 3.32047 25.03 3.98047 24.83C4.65047 24.63 5.34004 25 5.54004 25.66C5.62004 25.92 5.6898 26.15 5.7998 26.33C6.1698 26.91 5.99016 27.69 5.41016 28.05C5.20016 28.18 4.97 28.24 4.75 28.24V28.25ZM3.25 22.01C2.56 22.01 2 21.45 2 20.76V19.72C2 19.03 2.56 18.47 3.25 18.47C3.94 18.47 4.5 19.03 4.5 19.72V20.76C4.5 21.45 3.94 22.01 3.25 22.01ZM4.35059 15.73C4.23059 15.73 4.11047 15.71 3.98047 15.67C3.32047 15.47 2.95039 14.77 3.15039 14.11C3.26039 13.75 3.40043 13.31 3.69043 12.84C4.06043 12.26 4.83992 12.09 5.41992 12.45C5.99992 12.82 6.18055 13.59 5.81055 14.18C5.70055 14.36 5.6298 14.58 5.5498 14.84C5.3798 15.38 4.89059 15.72 4.35059 15.72V15.73ZM7.75 10.3C7.48 10.3 7.21047 10.21 6.98047 10.04C6.44047 9.62001 6.33977 8.83001 6.75977 8.29001C6.89977 8.11001 7.07 7.93001 7.25 7.76001C7.33 7.68001 7.42023 7.59001 7.49023 7.51001C7.93023 6.98001 8.72 6.91001 9.25 7.35001C9.78 7.79001 9.85016 8.58001 9.41016 9.11001C9.29016 9.25001 9.15977 9.39001 9.00977 9.53001C8.90977 9.63001 8.81047 9.72002 8.73047 9.82001C8.48047 10.14 8.12023 10.3 7.74023 10.3H7.75ZM12.8506 6.61001C12.3506 6.61001 11.8804 6.31001 11.6904 5.82001C11.4404 5.18002 11.7504 4.45001 12.4004 4.20001L12.7705 4.05001C13.0305 3.94001 13.2705 3.84001 13.5605 3.74001C14.2205 3.52001 14.9206 3.88001 15.1406 4.53001C15.3606 5.19001 15.0006 5.89001 14.3506 6.11001C14.1206 6.19001 13.9402 6.27001 13.7402 6.35001C13.6102 6.41001 13.4703 6.46001 13.3203 6.52001C13.1703 6.58001 13.0104 6.61001 12.8604 6.61001H12.8506Z" fill="black"/>
<path d="M19.9502 23.6699C17.8802 23.6699 16.2002 21.9899 16.2002 19.9199C16.2002 18.2899 17.2402 16.8999 18.7002 16.3799V9.91992C18.7002 9.22992 19.2602 8.66992 19.9502 8.66992C20.6402 8.66992 21.2002 9.22992 21.2002 9.91992V16.3799C22.2602 16.7599 23.1102 17.5999 23.4902 18.6699H26.6504C27.3404 18.6699 27.9004 19.2299 27.9004 19.9199C27.9004 20.6099 27.3404 21.1699 26.6504 21.1699H23.4902C22.9702 22.6299 21.5802 23.6699 19.9502 23.6699ZM19.9502 18.6699C19.2502 18.6699 18.7002 19.2199 18.7002 19.9199C18.7002 20.6199 19.2502 21.1699 19.9502 21.1699C20.6502 21.1699 21.2002 20.6199 21.2002 19.9199C21.2002 19.2199 20.6502 18.6699 19.9502 18.6699Z" fill="black"/>
<path d="M36.6504 21.17C35.9604 21.17 35.4004 20.61 35.4004 19.92C35.4004 11.42 28.4702 4.5 19.9502 4.5C19.2602 4.5 18.7002 3.94 18.7002 3.25C18.7002 2.56 19.2602 2 19.9502 2C29.8502 2 37.9004 10.04 37.9004 19.92C37.9004 20.61 37.3404 21.17 36.6504 21.17Z" fill="black"/>
</svg>
