<svg width="40" height="40" viewBox="0 0 40 40" fill="none" xmlns="http://www.w3.org/2000/svg">
<path d="M31.6877 20.8484C31.4685 21.0676 31.1715 21.1949 30.8392 21.202L9.1608 21.202C8.49612 21.202 7.95871 20.6646 7.95871 19.9999C7.95871 19.3352 8.49611 18.7978 9.16079 18.7978L30.8392 18.7978C31.5038 18.7978 32.0413 19.3352 32.0413 19.9999C32.0413 20.3252 31.9069 20.6292 31.6877 20.8484Z" fill="black"/>
<path d="M32.1623 32.1623C25.4589 38.8657 14.5411 38.8657 7.83777 32.1623C1.1344 25.4589 1.13441 14.5412 7.83778 7.83782C14.5412 1.13444 25.4589 1.13446 32.1622 7.83783C38.8656 14.5412 38.8656 25.4589 32.1623 32.1623ZM9.53484 9.53487C3.76485 15.3049 3.76484 24.6952 9.53484 30.4652C15.3048 36.2352 24.6952 36.2352 30.4652 30.4652C36.2352 24.6952 36.2352 15.3049 30.4652 9.53488C24.6952 3.76489 15.3048 3.76488 9.53484 9.53487Z" fill="black"/>
</svg>
