<svg width="40" height="40" viewBox="0 0 40 40" fill="none" xmlns="http://www.w3.org/2000/svg">
<path fill-rule="evenodd" clip-rule="evenodd" d="M20.5141 6.25C14.5412 6.25 9.12065 9.74421 6.65448 15.1842L5.30408 18.1629C5.25129 18.2794 5.32898 18.4132 5.4563 18.425L13.2612 19.1517C14.4331 19.2608 15.5081 19.8484 16.2326 20.7759L16.9465 21.6898L18.9557 21.1753C19.3127 21.0839 19.5982 20.8161 19.7123 20.4656C20.2563 18.7944 21.9338 17.7661 23.6699 18.0396L26.4374 18.4757C28.0081 18.7231 29.3383 19.767 29.9521 21.2338L31.2905 24.432C31.6188 25.2166 32.4638 25.6516 33.2931 25.4628L33.7476 25.3594C34.2038 25.2556 34.5438 24.8737 34.5943 24.4085L34.8244 22.2873C35.1894 18.9236 34.5657 15.5264 33.0299 12.5116C31.0724 8.66926 27.1249 6.25 22.8127 6.25H20.5141ZM4.37753 14.1519C7.24886 7.81826 13.56 3.75 20.5141 3.75H22.8127C28.065 3.75 32.8733 6.69672 35.2575 11.3767C37.014 14.8247 37.7272 18.7099 37.3098 22.557L37.0797 24.6782C36.9142 26.2039 35.7987 27.4565 34.3023 27.7971L33.8479 27.9005C32.4534 28.2178 31.0408 27.8092 30.0389 26.8953L28.7799 28.1314C27.3454 29.5398 26.2002 31.2152 25.4088 33.0632L24.7883 34.5124C24.3369 35.5665 23.3006 36.25 22.1539 36.25C20.6837 36.25 19.4519 35.1373 19.3029 33.6746L18.919 29.9046C18.817 28.9033 18.6411 27.9109 18.3927 26.9355L17.6671 24.0859L16.9315 24.2742C16.3552 24.4218 15.7461 24.2142 15.3798 23.7453L14.2625 22.3149C13.9618 21.93 13.5157 21.6862 13.0295 21.6409L5.22454 20.9142C3.3866 20.7431 2.26498 18.8119 3.02714 17.1307L4.37753 14.1519ZM20.0793 23.4276L20.8154 26.3186C21.0942 27.4134 21.2916 28.5274 21.4061 29.6513L21.7901 33.4213C21.8091 33.608 21.9663 33.75 22.1539 33.75C22.3003 33.75 22.4325 33.6628 22.4901 33.5282L23.1107 32.0791C24.0304 29.9314 25.3613 27.9843 27.0285 26.3475L28.6966 24.7097L27.6459 22.1989C27.3669 21.5322 26.7623 21.0577 26.0483 20.9452L23.2808 20.5091C22.7582 20.4268 22.2533 20.7363 22.0896 21.2394C21.7659 22.2338 21.027 23.0278 20.0793 23.4276Z" fill="black"/>
<path fill-rule="evenodd" clip-rule="evenodd" d="M30.0267 15.3451C30.0267 14.7467 30.5117 14.2617 31.11 14.2617H35.6554V16.4284H31.11C30.5117 16.4284 30.0267 15.9434 30.0267 15.3451ZM32.0469 19.483C32.0469 18.8847 32.5319 18.3997 33.1302 18.3997H36.6655V20.5663H33.1302C32.5319 20.5663 32.0469 20.0813 32.0469 19.483Z" fill="black"/>
</svg>
