<svg width="40" height="40" viewBox="0 0 40 40" fill="none" xmlns="http://www.w3.org/2000/svg">
<path d="M10.0666 2.30499C9.0083 2.53333 8.00997 3.32499 7.56497 4.28999C7.24698 4.94649 7.13956 5.68519 7.2574 6.40506C7.37524 7.12493 7.71259 7.79082 8.2233 8.31166L8.66497 8.77999L8.40664 9.80666C7.8533 12.0083 7.6383 13.8033 7.63997 16.2C7.64164 17.7583 7.67164 18.2517 7.89164 20.39C8.0283 21.7233 8.13164 22.8217 8.11997 22.83C8.10997 22.84 6.77997 23.3633 5.16663 23.995C3.5533 24.6267 2.11663 25.2083 1.9733 25.2883C1.6033 25.4933 1.44997 25.7317 1.41497 26.155C1.37663 26.615 1.5283 26.9517 1.88163 27.185C2.3683 27.5067 2.46663 27.4817 5.5333 26.2733C7.05497 25.675 8.31664 25.175 8.3383 25.1617C8.3683 25.145 8.7383 28.585 8.7333 28.8333C8.7333 28.8717 8.49497 28.905 8.18164 28.9117C6.3433 28.9483 4.7433 30.1317 4.1083 31.925C3.92163 32.45 3.90497 32.5733 3.90497 33.3333C3.90497 34.0717 3.92664 34.2283 4.09163 34.7C4.30232 35.3326 4.64994 35.9109 5.10972 36.3937C5.56951 36.8765 6.13013 37.252 6.75164 37.4933C8.4183 38.1517 10.4066 37.6717 11.635 36.3133C12.0033 35.9067 12.6 34.845 12.6 34.595C12.6 34.4767 12.79 34.4717 18.15 34.4517C23.4016 34.4317 23.7183 34.425 24.0333 34.305C24.5133 34.1233 24.885 33.85 25.16 33.475C25.2933 33.295 25.685 32.5583 26.0316 31.84C26.7966 30.2517 27.1016 29.77 27.815 29.0233C28.7133 28.0833 29.5133 27.5467 30.7366 27.0617C31.9866 26.5667 32.2866 26.37 32.5583 25.87C32.7833 25.4583 32.84 25.0133 32.7333 24.4967C32.3872 23.1058 32.0288 21.7179 31.6583 20.3333C31.1116 18.2617 30.6716 16.525 30.6816 16.475C30.6916 16.4217 32.2283 15.7817 34.3866 14.9333C36.645 14.045 38.14 13.4217 38.2433 13.325C38.7933 12.8117 38.7133 11.9833 38.0716 11.5517C37.6266 11.2517 37.5383 11.2767 33.7283 12.775C31.8066 13.5317 30.1883 14.1633 30.1333 14.1783C30.06 14.1983 29.9933 14.0717 29.8783 13.69C29.605 12.7883 29.3533 12.35 28.7683 11.76C28.355 11.3417 28.12 11.165 27.7333 10.9833C27.0783 10.6733 26.7033 10.6017 25.5 10.555C24.295 10.5083 24.0433 10.5617 23.7116 10.93C23.3133 11.37 23.3033 11.9417 23.685 12.3783C24.0033 12.74 24.2116 12.8 25.155 12.8C25.5465 12.7961 25.9379 12.8179 26.3266 12.865C26.7666 12.9483 27.2183 13.2583 27.425 13.6183C27.585 13.8933 27.96 14.995 27.9133 15.0433C27.8683 15.0867 18.3816 18.8033 18.3616 18.785C18.3214 18.4811 18.2913 18.1759 18.2716 17.87C18.08 15.4833 18.2916 13.0283 18.9083 10.4583L19.1416 9.48333L19.5366 9.43833C20.2319 9.35503 20.8895 9.07693 21.4336 8.63607C21.9776 8.19522 22.386 7.60957 22.6116 6.94666C22.8267 6.22001 22.8267 5.44664 22.6116 4.71999C22.4066 4.11706 22.0492 3.57738 21.5741 3.15336C21.0989 2.72933 20.5222 2.43536 19.9 2.29999C19.6585 2.24805 19.4133 2.21517 19.1666 2.20166C18.7266 2.20166 17.995 2.38499 17.5333 2.60999C16.9 2.91999 16.1983 3.63999 15.8983 4.28999C15.5803 4.94649 15.4729 5.68519 15.5907 6.40506C15.7086 7.12493 16.0459 7.79082 16.5566 8.31166L16.9983 8.77999L16.74 9.80666C16.075 12.46 15.8183 15.255 16.005 17.8C16.055 18.4783 16.0966 19.1833 16.0983 19.365L16.1 19.6967L13.2433 20.82C11.6733 21.4383 10.3733 21.9283 10.355 21.91C10.29 21.845 9.9333 18.0183 9.89164 16.9333C9.80997 14.865 10.0416 12.6767 10.575 10.4583L10.8083 9.48333L11.2033 9.43833C11.8986 9.35503 12.5562 9.07693 13.1002 8.63607C13.6443 8.19522 14.0527 7.60957 14.2783 6.94666C14.4933 6.22001 14.4933 5.44664 14.2783 4.71999C14.0733 4.11706 13.7159 3.57738 13.2407 3.15336C12.7656 2.72933 12.1889 2.43536 11.5666 2.29999C11.0736 2.17999 10.5588 2.1817 10.0666 2.30499ZM11.4733 4.65166C11.7157 4.75742 11.9092 4.95091 12.015 5.19333C12.2516 5.64833 12.255 5.99666 12.025 6.45833C11.7933 6.92333 11.455 7.14999 10.9316 7.18666C9.74164 7.27333 9.04164 5.95833 9.7583 4.98333C9.9433 4.72999 10.495 4.46666 10.8383 4.46666C11.015 4.46666 11.25 4.53499 11.4733 4.65166ZM19.8066 4.65166C20.0491 4.75742 20.2425 4.95091 20.3483 5.19333C20.585 5.64833 20.5883 5.99666 20.3583 6.45833C20.1266 6.92333 19.7883 7.14999 19.265 7.18666C18.075 7.27333 17.375 5.95833 18.0916 4.98333C18.2766 4.72999 18.8283 4.46666 19.1716 4.46666C19.3483 4.46666 19.5833 4.53499 19.8066 4.65166ZM28.5333 17.2967C28.5333 17.3133 28.97 18.9817 29.505 21.005C30.04 23.0267 30.4533 24.705 30.4216 24.735C30.3916 24.7633 30.1566 24.8683 29.9 24.97C28.6772 25.444 27.557 26.1484 26.6 27.045L26.005 27.61L22.6533 27.865C20.8083 28.005 19.295 28.115 19.2883 28.11C19.26 28.085 18.595 21.25 18.615 21.19C18.6366 21.125 28.27 17.29 28.45 17.2733C28.4966 17.27 28.5333 17.28 28.5333 17.2967ZM16.7066 25.1283C16.9183 27.2467 16.9933 28.23 16.945 28.26C16.87 28.3067 11.0616 28.7517 11.025 28.7133C10.9766 28.665 10.5733 24.3383 10.6116 24.2983C10.6616 24.25 16.36 22.0067 16.3816 22.0267C16.39 22.035 16.535 23.43 16.7066 25.1283ZM31.0333 28.93C30.46 29.0217 30.1166 29.1367 29.59 29.41C28.5805 29.9452 27.8125 30.8443 27.4416 31.925C27.26 32.44 27.2383 32.5833 27.2366 33.3C27.2333 34.0067 27.2566 34.1683 27.425 34.6867C28.095 36.7283 30.0983 38.0167 32.1916 37.7517C33.9816 37.5267 35.4383 36.2733 35.9716 34.5C36.1383 33.9467 36.1383 32.72 35.9716 32.1667C35.5133 30.6417 34.28 29.415 32.8333 29.0417C32.33 28.9117 31.4683 28.8583 31.0333 28.93ZM23.99 30.8833C23.826 31.2565 23.6481 31.6234 23.4566 31.9833L23.3216 32.2H17.9616C12.8666 32.2 12.6 32.1933 12.6 32.0817C12.6 32.0167 12.495 31.7417 12.365 31.4717C12.235 31.2017 12.1466 30.9633 12.1683 30.9433C12.2033 30.9083 23.45 30.0283 24.1116 30.0083L24.3916 30L23.99 30.8833ZM9.21164 31.3167C9.6483 31.51 10.0983 31.9483 10.315 32.39C10.4733 32.7117 10.5 32.8483 10.5 33.3333C10.5 33.8183 10.4733 33.955 10.3133 34.28C9.65997 35.61 7.91997 35.945 6.85497 34.9483C5.3533 33.545 6.3933 31.0467 8.4333 31.1533C8.7133 31.1683 9.02497 31.2333 9.21164 31.3167ZM32.545 31.3167C32.9816 31.51 33.4316 31.9483 33.6483 32.39C33.8066 32.7117 33.8333 32.8483 33.8333 33.3333C33.8333 33.8183 33.8066 33.955 33.6466 34.28C32.9933 35.61 31.2533 35.945 30.1883 34.9483C28.6866 33.545 29.7266 31.0467 31.7666 31.1533C32.0466 31.1683 32.3583 31.2333 32.545 31.3167Z" fill="black"/>
</svg>
