<svg width="40" height="40" viewBox="0 0 40 40" fill="none" xmlns="http://www.w3.org/2000/svg">
<path fill-rule="evenodd" clip-rule="evenodd" d="M29.7667 2.10998C29.6934 2.12832 28.0967 2.43832 26.2184 2.80165C24.9377 3.04325 23.6599 3.29938 22.385 3.56998C21.4767 3.80498 20.5367 4.46498 20.18 5.11998C20.05 5.35998 19.0667 8.53165 19.0667 8.71165C19.0667 8.72332 18.5201 8.73498 17.85 8.73665C17.18 8.73832 15.7934 8.76498 14.7667 8.79665C14.1392 8.82099 13.5113 8.83488 12.8834 8.83832C12.8299 8.68109 12.7838 8.52147 12.745 8.35998C12.3084 6.70165 11.1267 5.25998 9.53005 4.43498C8.04005 3.66498 6.15005 3.55498 4.53338 4.14165C3.33062 4.57758 2.29179 5.37426 1.55885 6.42281C0.8259 7.47137 0.434589 8.72066 0.438382 9.99998C0.438382 13.295 2.91005 15.94 6.26672 16.2383C7.29505 16.3283 8.69338 16.0167 9.71172 15.4683L10.19 15.2116L10.92 16.0883C11.3217 16.5716 12.1634 17.5483 12.7917 18.2617C13.42 18.9733 13.9234 19.565 13.91 19.5783C13.8984 19.59 11.1767 20.6667 7.86338 21.9683C3.50338 23.6817 1.78505 24.385 1.64505 24.5183C0.883382 25.2317 1.34172 26.55 2.38672 26.65C2.67672 26.6783 3.21171 26.48 9.10172 24.1633C11.2735 23.3017 13.4508 22.4539 15.6334 21.62C15.7384 21.6 16.1167 21.9883 17.3801 23.4133C18.0067 24.1299 18.6456 24.8356 19.2967 25.53L19.6 25.8283V35.4L18.9501 35.4016C17.9417 35.4033 17.6084 35.5216 17.2884 35.9916C16.8417 36.6466 17.2067 37.6467 17.9684 37.8583C18.3317 37.96 23.3351 37.96 23.6984 37.8583C24.4601 37.6467 24.8251 36.6466 24.3784 35.9916C24.0584 35.5216 23.725 35.4033 22.7167 35.4016L22.0667 35.4V25.8267L22.3067 25.5967C22.625 25.2933 29.5684 17.4883 30.5417 16.34L31.3001 15.445L34.6351 14.135C36.4684 13.415 38.0601 12.7717 38.1717 12.7066C38.675 12.4083 38.8784 11.6733 38.6084 11.12C38.3651 10.62 37.7567 10.3266 37.2417 10.46C37.09 10.4983 36.0667 10.885 34.9667 11.3183L32.9667 12.1067L32.8851 11.6383C32.6284 10.16 31.5401 9.28332 29.5667 8.96498C28.8284 8.84665 25.9017 8.73832 23.3167 8.73498C22.4084 8.73498 21.6667 8.72665 21.6684 8.71665C21.6684 8.70832 21.8267 8.15998 22.0184 7.49998L22.3667 6.29998L22.7334 6.12165C23.0184 5.98332 23.9117 5.78665 26.76 5.23498C28.7717 4.84498 30.5017 4.48498 30.6017 4.43165C31.2234 4.11165 31.4401 3.24165 31.0434 2.65498C30.7984 2.28998 30.1567 2.01665 29.7667 2.10998ZM7.59338 6.36832C8.12406 6.50054 8.61972 6.74635 9.04616 7.08876C9.4726 7.43118 9.81966 7.86206 10.0634 8.35165C10.2117 8.65332 10.35 9.02165 10.3734 9.17165C10.4134 9.43998 10.4084 9.44665 10.0784 9.65832C9.07838 10.3 8.60838 11.3667 8.82005 12.5066C8.93172 13.105 8.94672 13.0766 8.36671 13.3633C7.84736 13.6142 7.27678 13.7409 6.70005 13.7333C5.63672 13.7333 4.77005 13.3783 4.03338 12.6383C3.47453 12.0942 3.10312 11.3865 2.9728 10.6174C2.84248 9.84841 2.96 9.05786 3.30838 8.35998C4.07838 6.77832 5.84672 5.95665 7.59338 6.36832ZM28.04 11.3316C29.6901 11.4333 30.34 11.625 30.3884 12.0216C30.4084 12.1933 30.0617 12.9333 29.8151 13.2466C29.7351 13.3483 27.7484 14.1583 23.1334 15.9717C20.9236 16.8473 18.7086 17.7096 16.4884 18.5583C16.4117 18.5667 15.39 17.445 13.73 15.5317C12.5067 14.1233 11.8967 13.34 11.56 12.7533C11.2234 12.1633 11.2 11.92 11.4667 11.7233C11.7 11.55 12.4884 11.3983 13.4667 11.3383C14.6734 11.2633 26.8484 11.2583 28.04 11.3316ZM26.1201 17.5833C25.9251 17.8117 21.0484 23.3017 20.9401 23.4167C20.8334 23.5283 20.7584 23.4566 19.5467 22.0917C18.8434 21.2983 18.2667 20.63 18.2667 20.6067C18.2667 20.5683 26.035 17.4833 26.16 17.4717C26.1934 17.4683 26.1751 17.52 26.1201 17.5833Z" fill="black"/>
</svg>
