<svg width="40" height="40" viewBox="0 0 40 40" fill="none" xmlns="http://www.w3.org/2000/svg">
<path d="M11.8896 33.547C11.4096 33.547 10.9302 33.427 10.4902 33.177C9.57023 32.667 9 31.687 9 30.627V9.92696C9 8.86696 9.57023 7.88696 10.4902 7.36696C11.4202 6.85696 12.5002 6.87696 13.4102 7.43696L30.2998 17.787C31.1498 18.347 31.6504 19.267 31.6504 20.267C31.6504 21.267 31.1601 22.197 30.3301 22.737L13.4004 33.107C12.9304 33.397 12.4096 33.547 11.8896 33.547ZM11.8896 9.50696C11.8196 9.50696 11.76 9.52696 11.71 9.55696C11.63 9.59696 11.5 9.70696 11.5 9.92696V30.627C11.5 30.847 11.63 30.957 11.71 30.997C11.8 31.047 11.9298 31.087 12.0898 30.987L28.9902 20.637C29.1302 20.547 29.1396 20.357 29.1396 20.287C29.1396 20.217 29.12 20.017 28.96 19.917L12.0898 9.58696C12.0098 9.53696 11.9399 9.51696 11.8799 9.51696L11.8896 9.50696Z" fill="black"/>
</svg>
