<svg width="200" height="306" viewBox="0 0 200 306" fill="none" xmlns="http://www.w3.org/2000/svg">
<g clip-path="url(#clip0_7674_1018)">
<path d="M38.573 27.1207C67.0649 23.2602 97.1938 65.481 108.983 87.3622C120.677 109.069 131.631 135.517 139.535 158.904C146.339 179.037 158.849 205.114 131.694 214.712C109.878 222.425 102.855 209.425 97.0465 191.489C84.0406 151.341 82.439 113.991 53.2132 79.8948C46.0813 71.5761 24.7104 55.6045 22.5222 46.5901C20.0995 36.6208 29.4249 28.3567 38.5784 27.1153L38.573 27.1207Z" fill="#E8AA7D"/>
<path d="M79.6345 240.861C78.0493 240.705 63.7911 229.617 61.6029 227.694C41.6152 210.148 3.51141 158.918 1.43515 132.437C-1.64786 93.1025 60.5089 104.485 83.2659 110.032C107.562 115.952 163.337 149.352 162.816 152.839C162.344 156.001 147.976 206.906 144.222 211.253C136.67 220 81.1705 241.016 79.6317 240.866L79.6345 240.861Z" fill="#E8AA7D"/>
<path d="M175.865 113.988C189.911 112.116 201.061 123.941 195.703 137.631C193.155 144.144 180.517 152.967 175.311 159.144C167.497 168.421 162.516 180.48 161.585 192.654C160.437 207.651 167.427 221.612 146.713 223.492C128.09 225.183 103.125 212.401 107.062 190.7C111.61 165.63 149.188 117.54 175.865 113.985V113.988Z" fill="#E8AA7D"/>
<path d="M159.138 10.8708C167.847 13.2553 175.167 18.7938 174.119 28.624C164.223 74.4353 163.105 126.743 152.074 171.779C149.695 181.495 147.572 187.323 136.52 187.112C120.3 186.791 76.2648 180.248 60.4078 176.128C45.713 172.3 42.128 167.005 42.6682 152.277C44.2615 108.106 58.6835 59.0612 61.9875 14.4476C63.237 5.6542 69.7768 0.96966 78.3192 0.789591C93.3796 0.494931 144.626 6.90923 159.149 10.8735L159.14 10.8708H159.138Z" fill="#008099"/>
<path d="M160.346 58.9467V58.9549C159.787 61.8142 159.299 64.0787 158.99 65.3091L153.16 101.768L151.272 113.554C148.664 129.297 146.65 154.948 141.897 169.152L141.889 169.16C138.604 178.969 132.99 178.535 124.237 177.872C107.592 176.587 88.6324 172.194 71.9514 168.721C71.1329 168.554 70.3308 168.385 69.5259 168.219C65.5262 167.395 57.3767 167.31 53.9772 162.653C51.0824 158.697 54.1736 140.968 55.6824 133.411C55.696 133.307 55.7178 133.209 55.7397 133.111C61.4719 104.491 71.7904 17.4734 71.7904 17.4734C72.4479 12.7479 76.6987 9.33479 81.4296 9.83953C85.2465 10.2379 89.2162 10.8736 90.9514 11.1819C96.2007 12.1313 90.9924 21.3531 95.977 24.0105C98.0178 25.0881 134.602 29.8327 138.222 29.7154C146.8 29.4207 141.606 19.4187 145.515 18.3137C148.047 17.5798 158.595 19.0831 162.595 23.4948C165.781 27.0116 162.545 47.6487 160.344 58.9521L160.346 58.9467Z" fill="#C2E8F0"/>
<path d="M160.507 58.6655C160.409 59.0775 155.474 87.8095 153.245 101.317C153.223 101.47 153.195 101.618 153.16 101.765C151.397 110.91 140.604 115.216 132.594 116.495C100.555 123.144 81.8197 140.013 71.9541 168.718C71.1356 168.552 70.3334 168.382 69.5286 168.216C65.5289 167.392 57.3793 167.308 53.9798 162.65C51.0851 158.694 54.1763 140.966 55.6851 133.408C62.9779 116.181 78.8458 101.508 96.2171 97.0476C117.539 91.5801 140.274 90.5597 154.625 68.6921C156.352 66.0702 157.891 63.2819 160.344 58.9547V58.9465C160.401 58.8565 160.447 58.7637 160.505 58.6683L160.507 58.6655Z" fill="#99D9E5"/>
<path d="M76.8514 129.788C81.8279 138.625 75.5827 150.433 65.7362 151.808C49.8437 154.026 37.0233 141.255 23.1334 135.88C25.2015 149.304 45.6885 205.761 43.072 205.09C32.5025 193.339 22.4731 181.064 14.5255 167.343C5.27921 151.383 -9.81117 120.771 8.98155 106.605C12.0236 104.313 18.8554 103.028 18.8554 103.028C18.8554 103.028 19.1091 92.1369 20.1077 88.6583C30.6336 52.0142 95.9988 80.8717 92.0891 116.449C91.3006 123.633 84.4444 130.827 76.8487 129.788H76.8514Z" fill="#E8AA7D"/>
<path d="M167.678 198.14C172.665 209.171 180.269 220.608 189.534 228.471C191.248 229.925 199.113 234.823 199.427 235.336C201.754 239.144 196.366 252.172 194.358 256.194C183.164 278.607 160.701 295.026 137.148 302.603C122.734 307.238 118.74 306.72 106.148 298.903C82.9412 284.495 65.6627 261.113 52.062 237.892C57.1885 231.972 64.2685 227.036 71.2858 223.028C100.198 206.516 134.343 197.84 167.675 198.14H167.678Z" fill="#86B200"/>
<path d="M76.8514 131.185C76.4094 131.185 75.9729 130.975 75.7001 130.584C70.3962 122.937 63.8182 116.416 56.1461 111.2C49.1562 106.447 41.4623 102.927 33.2773 100.734C32.5325 100.535 32.0878 99.7679 32.2897 99.0204C32.4916 98.2728 33.2555 97.8281 34.003 98.0327C42.4909 100.305 50.4712 103.956 57.7204 108.886C65.6789 114.296 72.5025 121.06 78 128.988C78.4393 129.621 78.2811 130.494 77.6481 130.934C77.4053 131.103 77.127 131.182 76.8514 131.182V131.185Z" fill="#00151A"/>
<path d="M51.6527 151.996C51.3417 151.996 51.0279 151.893 50.7687 151.68C47.4538 148.965 40.3165 144.016 34.8353 141.506C28.762 138.723 24.4622 137.798 17.123 136.778C16.3591 136.671 15.8243 135.965 15.9307 135.201C16.0371 134.434 16.7465 133.894 17.5077 134.009C25.1279 135.067 29.6078 136.033 36.0003 138.963C41.7052 141.577 49.1072 146.706 52.5394 149.516C53.1369 150.005 53.2242 150.886 52.7359 151.483C52.4603 151.822 52.0592 151.996 51.6527 151.996Z" fill="#00151A"/>
</g>
<defs>
<clipPath id="clip0_7674_1018">
<rect width="200" height="304.779" fill="white" transform="translate(0 0.778809)"/>
</clipPath>
</defs>
</svg>
