<svg width="40" height="40" viewBox="0 0 40 40" fill="none" xmlns="http://www.w3.org/2000/svg">
<rect width="40" height="40" rx="20" fill="#D4E9EC"/>
<path d="M12.3624 25.7928C11.8825 26.2727 11.8727 27.1247 12.3722 27.6242C12.8814 28.1236 13.7334 28.1138 14.2035 27.6438L20.0012 21.8461L25.7891 27.634C26.2788 28.1236 27.121 28.1236 27.6205 27.6242C28.12 27.1149 28.12 26.2825 27.6303 25.7928L21.8424 20.0049L27.6303 14.2072C28.12 13.7175 28.1298 12.8753 27.6205 12.3758C27.121 11.8764 26.2788 11.8764 25.7891 12.366L20.0012 18.1539L14.2035 12.366C13.7334 11.8862 12.8716 11.8666 12.3722 12.3758C11.8727 12.8753 11.8825 13.7371 12.3624 14.2072L18.1503 20.0049L12.3624 25.7928Z" fill="black"/>
</svg>
