<svg width="200" height="300" viewBox="0 0 200 300" fill="none" xmlns="http://www.w3.org/2000/svg">
<g clip-path="url(#clip0_7655_1060)">
<path d="M132.186 144.383C148.538 163.984 124.126 178.175 105.963 168.734C104.257 192.346 119.053 211.117 128.076 231.495C129.059 237.632 122.276 241.186 117.826 243.853C98.6601 255.34 66.8012 263.177 44.5686 260.577C38.7788 259.9 33.6856 251.007 30.8457 246.193C18.5628 225.398 -1.58985 175.908 0.100098 152.353C1.81671 128.415 24.0026 91.0525 45.0386 79.2384C63.4747 68.8844 101.83 68.391 122.066 73.4447C141.959 78.4117 143.219 94.1494 126.579 104.553C136.179 110.16 153.802 115.817 154.722 128.878C155.702 142.756 144.325 147.9 132.182 144.386L132.186 144.383Z" fill="#E8AA7D"/>
<path d="M187.904 98.4331C158.205 124.028 121.033 145.71 90.0603 170.178C77.2774 176.308 72.2142 173.635 63.4811 164.694C63.2745 164.487 63.0678 164.274 62.8612 164.057C58.778 159.827 48.1517 147.043 37.9587 133.665C26.6724 118.851 15.9161 103.327 15.1628 97.9197C13.2962 84.5255 20.5026 79.7718 29.6389 72.2747C59.5246 47.743 91.7935 25.2082 124.529 4.68684C137.259 -3.29036 148.108 -0.556846 156.285 8.90045C159.251 12.3307 166.668 22.5514 174.311 33.5054C182.917 45.8696 191.82 59.1671 194.95 64.7308C195.32 65.3942 195.673 66.0376 196 66.6643C203.486 80.9453 200.28 87.769 187.904 98.4297V98.4331Z" fill="#008099"/>
<path d="M159.661 95.7297C158.011 95.583 156.961 94.5596 156.441 94.0496C155.888 93.5096 154.528 91.5861 154.848 89.1893C155.105 87.2758 156.138 86.3157 156.571 85.9924C156.971 85.6957 158.055 85.0023 159.528 84.9957C161.495 84.9857 162.755 86.4124 163.168 86.8791C163.615 87.3825 164.658 88.7726 164.655 90.7594C164.655 91.3794 164.655 93.0229 163.358 94.3563C162.085 95.6664 160.471 95.7497 160.008 95.743C159.888 95.743 159.775 95.7364 159.661 95.7264V95.7297ZM158.088 88.0259C157.951 88.1292 157.491 88.5426 157.358 89.526C157.175 90.8894 157.998 92.0261 158.211 92.2361C158.628 92.6428 159.198 93.1995 160.038 93.2129C160.131 93.2129 160.945 93.2062 161.541 92.5928C162.121 91.9961 162.121 91.1961 162.121 90.7627C162.121 89.6426 161.528 88.8526 161.271 88.5659C160.998 88.2559 160.358 87.5425 159.538 87.5358C158.805 87.5358 158.245 87.9125 158.091 88.0259H158.088Z" fill="#99D9E5"/>
<path d="M143.672 95.1996C143.939 94.9063 144.295 94.7996 144.669 94.8396C145.122 94.8863 145.465 95.1663 145.662 95.5863C145.958 96.2164 145.538 96.8031 145.505 96.8464C145.275 97.1564 144.805 97.4931 144.335 97.3565C143.679 97.1698 143.415 96.5864 143.355 96.2497C143.322 96.0664 143.385 95.5163 143.672 95.1996Z" fill="#99D9E5"/>
<path d="M149.088 100.833C149.138 100.84 149.908 100.963 150.212 101.667C150.282 101.823 150.438 102.273 150.222 102.73C149.962 103.28 149.368 103.404 149.215 103.434C149.092 103.46 148.435 103.597 147.922 103.14C147.545 102.804 147.418 102.287 147.592 101.777C147.772 101.25 148.222 100.693 149.085 100.83L149.088 100.833Z" fill="#99D9E5"/>
<path d="M184.207 82.9087C184.057 82.682 180.521 77.165 179.197 75.3349C177.021 72.2914 173.238 67.481 169.894 63.2441C167.901 60.7239 166.024 58.3438 164.694 56.5936C160.465 51.0499 147.875 34.1788 147.745 34.0121C147.382 33.5121 146.708 33.3588 146.155 33.6421C145.905 33.7654 140.012 36.7756 138.035 37.9057C133.019 40.7826 123.346 46.8697 118.683 49.9899C114.739 52.63 103.587 60.7673 103.113 61.1106C102.56 61.5106 102.423 62.2807 102.807 62.8407C102.85 62.9141 107.253 69.4912 108.75 71.6513C113.093 77.9184 121.346 89.6192 125.539 95.2695C129.106 100.06 140.222 114.194 140.339 114.341C140.569 114.624 140.885 114.788 141.222 114.818C141.525 114.844 141.829 114.771 142.082 114.581C142.165 114.521 150.142 108.68 152.822 106.804C154.585 105.567 157.165 103.85 159.898 102.03C163.101 99.9032 166.401 97.7064 168.504 96.2029C172.391 93.4328 183.794 84.6855 183.91 84.6022C184.43 84.1988 184.554 83.4621 184.204 82.9054L184.207 82.9087ZM167.034 94.1395C164.968 95.6196 161.675 97.8097 158.501 99.9199C155.751 101.747 153.155 103.47 151.372 104.724C149.235 106.217 143.818 110.177 141.575 111.811C139.005 108.534 130.582 97.7964 127.589 93.7528C123.403 88.1257 115.173 76.465 110.843 70.2145C109.706 68.5778 106.893 64.3808 105.596 62.4474C108.473 60.3506 116.873 54.2501 120.096 52.1C124.732 49.0031 134.335 42.9594 139.299 40.1059C140.765 39.2758 144.572 37.3024 146.358 36.3856C148.992 39.9125 158.995 53.3034 162.685 58.1371C164.024 59.8939 165.908 62.284 167.901 64.8142C171.228 69.0311 175.001 73.8148 177.144 76.805C178.097 78.1384 180.337 81.5953 181.441 83.2987C178.637 85.4456 170.241 91.8493 167.034 94.1395Z" fill="#99D9E5"/>
<path d="M178.411 84.4153C177.581 85.2421 176.911 85.7354 176.414 85.8854C176.101 85.9754 175.744 85.9788 175.414 85.9488C174.934 85.9054 174.537 85.7954 174.471 85.7788C174.024 85.6454 173.161 85.2454 172.688 84.8387C171.641 83.922 170.184 81.9352 168.881 79.9784L167.931 80.6317C167.911 80.6484 167.894 80.6618 167.868 80.6684C167.691 80.9318 167.421 81.1218 167.101 81.1951C166.644 81.2918 166.101 81.4451 165.961 81.5185C165.674 81.6718 165.334 81.9718 165.151 82.2452C165.051 82.4219 164.831 83.0652 164.651 83.762L169.198 89.759C169.614 90.3124 169.511 91.1124 168.948 91.5291C168.691 91.7258 168.381 91.8092 168.078 91.7825C167.731 91.7525 167.398 91.5858 167.178 91.2858L162.238 84.7687C162.238 84.7687 162.231 84.7587 162.231 84.752L160.521 82.5052C160.105 81.9518 160.208 81.1518 160.771 80.7351C161.328 80.3084 162.125 80.4117 162.541 80.9751L162.791 81.3118C162.885 81.1151 162.978 80.9451 163.064 80.8084C163.474 80.2084 164.111 79.635 164.761 79.2783C165.134 79.075 165.788 78.895 166.238 78.7883C166.304 78.6916 166.398 78.6149 166.498 78.5383L167.511 77.8482C166.594 76.4015 165.908 75.2347 165.731 74.9414C165.378 74.3413 165.581 73.5613 166.181 73.2079C166.791 72.8546 167.561 73.0512 167.914 73.658C168.298 74.3047 168.898 75.2981 169.598 76.4148L171.114 75.3781C171.694 74.978 172.478 75.1247 172.878 75.7048C173.267 76.2815 173.121 77.0682 172.544 77.4649L170.981 78.5416C172.224 80.4084 173.527 82.1952 174.361 82.9319C174.494 83.0386 174.974 83.2819 175.184 83.3353C175.324 83.3819 175.551 83.4086 175.694 83.4219C175.901 83.2786 176.307 82.9319 176.621 82.6219C177.114 82.1218 177.914 82.1252 178.411 82.6219C178.901 83.1152 178.907 83.922 178.411 84.412V84.4153Z" fill="#99D9E5"/>
<path d="M159.628 97.3564C159.565 98.0565 158.951 98.5698 158.251 98.5098L152.911 98.0365L154.661 100.237C155.098 100.783 155.008 101.583 154.461 102.02C154.195 102.233 153.875 102.323 153.561 102.297C153.225 102.267 152.908 102.103 152.678 101.82L149.095 97.3164L142.832 89.4425C142.388 88.8925 142.485 88.0958 143.032 87.6591C143.578 87.2224 144.378 87.3124 144.815 87.8591L149.635 93.9228L151.615 88.2325C151.845 87.5658 152.571 87.2224 153.228 87.4491C153.888 87.6758 154.238 88.3958 154.011 89.0625L151.805 95.3863L158.475 95.9763C159.175 96.0397 159.688 96.653 159.628 97.3531V97.3564Z" fill="#99D9E5"/>
<path d="M147.325 105.427C146.348 106.19 145.925 106.297 145.778 106.327C145.518 106.397 145.109 106.42 144.689 106.384C144.319 106.35 143.925 106.264 143.635 106.114C142.125 105.327 140.125 103.093 138.369 100.867L136.515 102.257C136.259 102.453 135.949 102.53 135.652 102.503C135.299 102.473 134.966 102.297 134.746 102C134.319 101.443 134.442 100.65 134.996 100.223L136.842 98.8399C135.585 97.1164 134.636 95.673 134.402 95.323C134.022 94.7296 134.186 93.9462 134.769 93.5629C135.356 93.1828 136.145 93.3462 136.529 93.9295C137.172 94.9129 137.992 96.1064 138.879 97.3198L140.452 96.153C141.015 95.7363 141.812 95.8497 142.229 96.4131C142.645 96.9764 142.532 97.7631 141.969 98.1898L140.415 99.3499C142.079 101.467 143.749 103.314 144.805 103.864C144.832 103.857 145.015 103.874 145.145 103.867C145.289 103.777 145.552 103.597 145.762 103.43C146.318 103.003 147.115 103.1 147.542 103.647C147.975 104.204 147.882 104.994 147.332 105.427H147.325Z" fill="#99D9E5"/>
<path d="M94.4635 106.184C101.63 104.967 107.783 106.387 112.49 112.071C122.186 123.782 111.94 135.169 108.5 146.453C101.653 168.915 107.216 186.929 113.476 208.517C111.316 231.002 72.3443 236.872 64.4579 215.391C59.348 201.477 61.468 159.394 65.1912 144.37C68.4144 131.362 79.8973 108.657 94.4635 106.187V106.184Z" fill="#E8AA7D"/>
<path d="M146.835 249.116C139.722 237.329 133.522 225.005 128.079 212.331C126.073 210.014 122.423 210.064 119.579 210.127C92.0904 210.727 45.8186 232.472 28.3858 253.923C26.9325 255.714 24.3859 258.174 25.5626 260.434C34.4789 273.211 43.0153 286.332 52.4617 298.74C52.4617 298.74 68.0945 302.833 91.2704 296.246C102.273 293.119 116.186 285.799 126.353 276.762C143.692 261.347 146.835 249.113 146.835 249.113V249.116Z" fill="#86B200"/>
</g>
<defs>
<clipPath id="clip0_7655_1060">
<rect width="200" height="300" fill="white"/>
</clipPath>
</defs>
</svg>
