<svg width="40" height="40" viewBox="0 0 40 40" fill="none" xmlns="http://www.w3.org/2000/svg">
<path d="M34.7761 8H5.22397C5.10089 8 4.97759 8 4.85473 8.00075C4.75087 8.00152 4.64726 8.00272 4.54364 8.00566C4.31766 8.01203 4.08975 8.02591 3.8666 8.06768C3.63989 8.11016 3.42892 8.17947 3.2231 8.28859C3.02076 8.39575 2.83552 8.5359 2.67499 8.70314C2.51439 8.87038 2.37981 9.06296 2.27693 9.27389C2.17212 9.48822 2.10552 9.70798 2.065 9.94426C2.02468 10.1767 2.01126 10.414 2.00517 10.6491C2.00239 10.757 2.00119 10.8649 2.00052 10.9727C1.9998 11.101 2.00004 11.2291 2.00004 11.3575V28.6427C2.00004 28.7712 1.9998 28.8991 2.00052 29.0275C2.00119 29.1354 2.00239 29.2433 2.00517 29.3512C2.01126 29.5861 2.02468 29.8234 2.065 30.0557C2.10552 30.2921 2.17212 30.5118 2.27693 30.7261C2.37981 30.9371 2.51439 31.1299 2.67499 31.2969C2.83552 31.4644 3.02076 31.6045 3.2231 31.7114C3.42892 31.8208 3.63989 31.8902 3.8666 31.9326C4.08975 31.9741 4.31766 31.9882 4.54364 31.9946C4.64726 31.9971 4.75087 31.9985 4.85473 31.999C4.97759 32 5.10089 32 5.22397 32H34.7761C34.8989 32 35.0222 32 35.1451 31.999C35.2487 31.9985 35.3523 31.9971 35.4564 31.9946C35.6819 31.9882 35.9098 31.9741 36.1335 31.9326C36.3599 31.8902 36.5709 31.8208 36.7767 31.7114C36.9793 31.6045 37.164 31.4644 37.3248 31.2969C37.4852 31.1299 37.6198 30.9371 37.7229 30.7261C37.8279 30.5118 37.8945 30.2921 37.9348 30.0557C37.9751 29.8234 37.9882 29.5861 37.9943 29.3512C37.9972 29.2433 37.9986 29.1354 37.999 29.0275C38 28.8991 38 28.7712 38 28.6427V11.3575C38 11.2291 38 11.101 37.999 10.9727C37.9986 10.8649 37.9972 10.757 37.9943 10.6491C37.9882 10.414 37.9751 10.1767 37.9348 9.94426C37.8945 9.70798 37.8279 9.48822 37.7229 9.27389C37.6198 9.06296 37.4852 8.87038 37.3248 8.70314C37.164 8.5359 36.9793 8.39575 36.7767 8.28859C36.5709 8.17947 36.3599 8.11016 36.1335 8.06768C35.9098 8.02591 35.6819 8.01203 35.4564 8.00566C35.3523 8.00272 35.2487 8.00152 35.1451 8.00075C35.0222 8 34.8989 8 34.7761 8Z" fill="black"/>
<path d="M34.7761 8.79996L35.1396 8.80069C35.2381 8.80141 35.3366 8.80252 35.4356 8.80533C35.6079 8.81018 35.8094 8.81989 35.9972 8.85495C36.1605 8.88557 36.2974 8.93214 36.4288 9.00181C36.5586 9.07046 36.6774 9.16042 36.7812 9.26834C36.8854 9.37699 36.9719 9.50097 37.0387 9.63757C37.1052 9.77335 37.1496 9.91526 37.1789 10.0865C37.2125 10.28 37.2217 10.4904 37.2265 10.6709C37.2291 10.7728 37.2304 10.8747 37.2309 10.979C37.2318 11.1051 37.2318 11.2311 37.2318 11.3575V28.6427C37.2318 28.7691 37.2318 28.8949 37.2309 29.0238C37.2304 29.1256 37.2291 29.2275 37.2264 29.3295C37.2217 29.5098 37.2125 29.7201 37.1785 29.9158C37.1496 30.0847 37.1052 30.2267 37.0383 30.3631C36.9717 30.4994 36.8854 30.6232 36.7816 30.7312C36.6773 30.8399 36.5588 30.9296 36.4275 30.9989C36.2971 31.0682 36.1604 31.1147 35.9987 31.145C35.8071 31.1806 35.5971 31.1904 35.439 31.1949C35.3395 31.1972 35.2405 31.1986 35.1391 31.1991C35.0183 31.2001 34.897 31.2 34.7761 31.2H5.21916C5.09967 31.2 4.97994 31.2 4.85827 31.1991C4.75907 31.1986 4.66009 31.1972 4.56439 31.1949C4.40266 31.1904 4.19258 31.1806 4.00252 31.1453C3.83946 31.1147 3.70276 31.0682 3.57061 30.998C3.44058 30.9293 3.32219 30.8397 3.21777 30.7308C3.11416 30.6231 3.02805 30.4996 2.96148 30.3632C2.89484 30.2268 2.85025 30.0845 2.82093 29.9135C2.78704 29.7182 2.77774 29.5087 2.77308 29.3297C2.77043 29.2272 2.76932 29.1248 2.76869 29.0229L2.76821 28.7221V11.2781L2.76867 10.978C2.76932 10.8755 2.77043 10.773 2.77308 10.6707C2.77774 10.4915 2.78704 10.2819 2.82121 10.0849C2.85027 9.91554 2.89484 9.77316 2.96182 9.63616C3.02788 9.50074 3.11414 9.37713 3.2183 9.26868C3.32204 9.1606 3.44081 9.07075 3.57168 9.00145C3.70242 8.93212 3.83937 8.88557 4.00243 8.85502C4.1903 8.81987 4.39194 8.81018 4.56463 8.80531C4.66307 8.80252 4.76151 8.80141 4.85921 8.80071L5.22397 8.79996H34.7761Z" fill="white"/>
<path d="M11.8278 16.0722C12.136 15.6707 12.3452 15.1316 12.29 14.5808C11.8388 14.6041 11.2882 14.8908 10.9694 15.2926C10.6831 15.6366 10.4298 16.1983 10.4958 16.7261C11.0024 16.7718 11.5084 16.4624 11.8278 16.0722Z" fill="black"/>
<path d="M12.2843 16.8291C11.5487 16.7835 10.9232 17.2639 10.572 17.2639C10.2205 17.2639 9.68255 16.8521 9.10074 16.8632C8.34347 16.8748 7.64081 17.3207 7.25653 18.0298C6.46613 19.4485 7.04795 21.5528 7.81657 22.7082C8.18983 23.2798 8.63967 23.9092 9.23241 23.8866C9.79244 23.8637 10.012 23.509 10.6927 23.509C11.373 23.509 11.5707 23.8866 12.1635 23.8752C12.7783 23.8637 13.1626 23.3033 13.5359 22.7311C13.9641 22.0795 14.1394 21.4503 14.1504 21.4158C14.1394 21.4043 12.9649 20.9351 12.9541 19.5283C12.943 18.3503 13.8761 17.79 13.92 17.7553C13.3931 16.9436 12.5697 16.8521 12.2843 16.8291Z" fill="black"/>
<path d="M18.6892 15.2349C20.288 15.2349 21.4013 16.3826 21.4013 18.0535C21.4013 19.7303 20.2651 20.8839 18.6491 20.8839H16.879V23.8154H15.6V15.2349L18.6892 15.2349ZM16.879 19.766H18.3465C19.46 19.766 20.0937 19.1417 20.0937 18.0594C20.0937 16.9773 19.46 16.3588 18.3522 16.3588H16.879V19.766Z" fill="black"/>
<path d="M21.7355 22.0375C21.7355 20.9433 22.5406 20.2714 23.9683 20.1882L25.6126 20.0871V19.6055C25.6126 18.9098 25.1615 18.4936 24.4079 18.4936C23.694 18.4936 23.2486 18.8503 23.1402 19.4093H21.9754C22.0439 18.2794 22.9688 17.447 24.4535 17.447C25.9096 17.447 26.8403 18.2497 26.8403 19.5044V23.8154H25.6582V22.7867H25.6298C25.2816 23.4825 24.522 23.9224 23.7341 23.9224C22.5578 23.9224 21.7355 23.1613 21.7355 22.0375ZM25.6126 21.4726V20.9791L24.1337 21.0742C23.3971 21.1278 22.9803 21.4667 22.9803 22.0019C22.9803 22.5488 23.4142 22.9056 24.0766 22.9056C24.9388 22.9056 25.6126 22.2872 25.6126 21.4726Z" fill="black"/>
<path d="M27.9562 26.1167V25.076C28.0474 25.0998 28.2529 25.0998 28.3558 25.0998C28.9268 25.0998 29.2352 24.8501 29.4235 24.2079C29.4235 24.196 29.5321 23.8273 29.5321 23.8214L27.3623 17.5599H28.6983L30.2174 22.65H30.2401L31.7591 17.5599H33.061L30.811 24.1424C30.2974 25.6588 29.7035 26.1464 28.4587 26.1464C28.3558 26.1464 28.0474 26.1344 27.9562 26.1167Z" fill="black"/>
</svg>
