<svg width="40" height="40" viewBox="0 0 40 40" fill="none" xmlns="http://www.w3.org/2000/svg">
<path d="M16 20C16 23.3137 13.3137 26 10 26C6.68629 26 4 23.3137 4 20C4 16.6863 6.68629 14 10 14C13.3137 14 16 16.6863 16 20Z" fill="black"/>
<path d="M36 20C36 23.3137 33.3137 26 30 26C26.6863 26 24 23.3137 24 20C24 16.6863 26.6863 14 30 14C33.3137 14 36 16.6863 36 20Z" fill="black" fill-opacity="0.6"/>
<path fill-rule="evenodd" clip-rule="evenodd" d="M30 25C32.7614 25 35 22.7614 35 20C35 17.2386 32.7614 15 30 15C27.2386 15 25 17.2386 25 20C25 22.7614 27.2386 25 30 25ZM30 26C33.3137 26 36 23.3137 36 20C36 16.6863 33.3137 14 30 14C26.6863 14 24 16.6863 24 20C24 23.3137 26.6863 26 30 26Z" fill="black"/>
</svg>
