<svg width="40" height="40" viewBox="0 0 40 40" fill="none" xmlns="http://www.w3.org/2000/svg">
<path d="M24.8676 11.3794H15.1331V28.8726H24.8676V11.3794Z" fill="#FF5F00"/>
<path d="M15.751 20.1251C15.7495 18.4404 16.1312 16.7774 16.8674 15.2621C17.6036 13.7467 18.6749 12.4187 20.0002 11.3786C18.359 10.0885 16.388 9.28631 14.3124 9.06354C12.2368 8.84077 10.1404 9.20644 8.26288 10.1188C6.38532 11.0311 4.80231 12.4533 3.69481 14.2228C2.58731 15.9923 2 18.0377 2 20.1251C2 22.2126 2.58731 24.258 3.69481 26.0275C4.80231 27.797 6.38532 29.2192 8.26288 30.1315C10.1404 31.0439 12.2368 31.4095 14.3124 31.1868C16.388 30.964 18.359 30.1617 20.0002 28.8717C18.6749 27.8316 17.6036 26.5036 16.8674 24.9882C16.1313 23.4728 15.7495 21.8099 15.751 20.1251Z" fill="#EB001B"/>
<path d="M38.0001 20.1251C38.0002 22.2126 37.4129 24.258 36.3055 26.0275C35.1981 27.7969 33.6151 29.2191 31.7376 30.1315C29.86 31.0438 27.7637 31.4095 25.6882 31.1868C23.6126 30.964 21.6416 30.1617 20.0005 28.8717C21.3246 27.8305 22.3951 26.5023 23.1311 24.9872C23.8672 23.4721 24.2496 21.8096 24.2496 20.1251C24.2496 18.4407 23.8672 16.7782 23.1311 15.2631C22.3951 13.748 21.3246 12.4197 20.0005 11.3786C21.6416 10.0885 23.6126 9.28631 25.6882 9.06354C27.7637 8.84077 29.86 9.20646 31.7376 10.1188C33.6151 11.0312 35.1981 12.4534 36.3055 14.2228C37.4129 15.9923 38.0002 18.0377 38.0001 20.1251Z" fill="#F79E1B"/>
</svg>
