<svg width="40" height="40" viewBox="0 0 40 40" fill="none" xmlns="http://www.w3.org/2000/svg">
<path d="M35.375 8H4.625C3.17525 8 2 9.17525 2 10.625V29.375C2 30.8247 3.17525 32 4.625 32H35.375C36.8247 32 38 30.8247 38 29.375V10.625C38 9.17525 36.8247 8 35.375 8Z" fill="#FF5B24"/>
<path fill-rule="evenodd" clip-rule="evenodd" d="M22.898 17.1968C23.9308 17.1968 24.8158 16.4127 24.8158 15.2858H24.816C24.816 14.1585 23.9308 13.3748 22.898 13.3748C21.8655 13.3748 20.9806 14.1585 20.9806 15.2858C20.9806 16.4127 21.8655 17.1968 22.898 17.1968ZM25.4058 20.2844C24.127 21.9502 22.7748 23.1019 20.3898 23.1019H20.3902C17.9569 23.1019 16.0633 21.6317 14.5883 19.4757C13.998 18.5935 13.0884 18.3976 12.4245 18.8631C11.8099 19.3043 11.6628 20.2353 12.2279 21.044C14.2683 24.1558 17.0956 25.9686 20.3898 25.9686C23.4142 25.9686 25.7746 24.4988 27.6182 22.0484C28.3064 21.142 28.2819 20.2109 27.6182 19.6963C27.0034 19.2058 26.0938 19.3781 25.4058 20.2844Z" fill="white"/>
</svg>
