<svg width="40" height="40" viewBox="0 0 40 40" fill="none" xmlns="http://www.w3.org/2000/svg">
<path d="M31.6649 36.2449H8.33487C5.80487 36.2449 3.75488 34.1849 3.75488 31.6649V8.33488C3.75488 5.80488 5.81487 3.75488 8.33487 3.75488H31.6649C34.1949 3.75488 36.2449 5.81488 36.2449 8.33488V31.6649C36.2449 34.1949 34.1849 36.2449 31.6649 36.2449ZM8.32486 6.24488C7.17486 6.24488 6.24487 7.17489 6.24487 8.32489V31.6549C6.24487 32.8049 7.17486 33.7349 8.32486 33.7349H31.6549C32.8049 33.7349 33.7349 32.8049 33.7349 31.6549V8.32489C33.7349 7.17489 32.8049 6.24488 31.6549 6.24488H8.32486Z" fill="#007C92"/>
</svg>
