<svg width="40" height="40" viewBox="0 0 40 40" fill="none" xmlns="http://www.w3.org/2000/svg">
<path fill-rule="evenodd" clip-rule="evenodd" d="M7.49994 2.91992C4.96994 2.91992 2.91992 4.96992 2.91992 7.49992V32.4999C2.91992 35.0299 4.96994 37.0799 7.49994 37.0799H32.4999C35.0299 37.0799 37.0799 35.0299 37.0799 32.4999V7.49992C37.0799 4.96992 35.0299 2.91992 32.4999 2.91992H7.49994ZM27.9399 16.0699C28.5299 15.3599 28.4299 14.3099 27.7299 13.7199C27.0199 13.1299 25.9699 13.2299 25.3799 13.9299L18.2099 22.5299L15.3299 19.6499C14.6799 18.9999 13.6199 18.9999 12.9699 19.6499C12.3199 20.2999 12.3199 21.3599 12.9699 22.0099L17.1399 26.1799C17.4699 26.5099 17.9299 26.6899 18.3899 26.6699C18.8599 26.6499 19.2899 26.4299 19.5899 26.0699L27.9199 16.0699H27.9399Z" fill="#007C92"/>
</svg>
