<svg width="40" height="40" viewBox="0 0 40 40" fill="none" xmlns="http://www.w3.org/2000/svg">
<path d="M20.0001 37.9201C10.1201 37.9201 2.08008 29.8801 2.08008 20.0001C2.08008 10.1201 10.1201 2.08008 20.0001 2.08008C29.8801 2.08008 37.92 10.1201 37.92 20.0001C37.92 29.8801 29.8801 37.9201 20.0001 37.9201ZM20.0001 4.58008C11.5001 4.58008 4.58008 11.5001 4.58008 20.0001C4.58008 28.5001 11.5001 35.4201 20.0001 35.4201C28.5001 35.4201 35.42 28.5001 35.42 20.0001C35.42 11.5001 28.5001 4.58008 20.0001 4.58008Z" fill="#007C92"/>
<path d="M20.0002 32C26.6302 32 32.0002 26.63 32.0002 20C32.0002 13.37 26.6302 8 20.0002 8C13.3702 8 8.00024 13.37 8.00024 20C8.00024 26.63 13.3702 32 20.0002 32Z" fill="#007C92"/>
<path d="M20.0002 33.25C12.6902 33.25 6.75024 27.31 6.75024 20C6.75024 12.69 12.6902 6.75 20.0002 6.75C27.3102 6.75 33.2502 12.69 33.2502 20C33.2502 27.31 27.3102 33.25 20.0002 33.25ZM20.0002 9.25C14.0702 9.25 9.25024 14.07 9.25024 20C9.25024 25.93 14.0702 30.75 20.0002 30.75C25.9302 30.75 30.7502 25.93 30.7502 20C30.7502 14.07 25.9302 9.25 20.0002 9.25Z" fill="#007C92"/>
</svg>
