<svg xmlns="http://www.w3.org/2000/svg" width="320" height="106" fill="none">
  <path stroke="#000" stroke-linecap="round" stroke-linejoin="round" stroke-width="3.2"
    d="M97.76 95.595h-6.768V67.963a8.127 8.127 0 0 1 8.127-8.127h56.889v35.759h-6.381M133.255 95.594H113.75" />
  <path stroke="#000" stroke-width="3.2"
    d="M105.627 102.097a6.502 6.502 0 1 0-.001-13.003 6.502 6.502 0 0 0 .001 13.003ZM141.384 102.097a6.502 6.502 0 1 0 0-13.004 6.502 6.502 0 0 0 0 13.004Z" />
  <path stroke="#000" stroke-linecap="round" stroke-linejoin="round" stroke-width="3.2"
    d="M154.752 73.531h-43.323L91.949 79.6" />
  <path stroke="#000" stroke-width="3.2"
    d="M112.863 73.378V60.375M127.488 73.378V60.375M142.117 73.378V60.375" />
  <path stroke="#000" stroke-linecap="round" stroke-linejoin="round" stroke-width="3.2"
    d="M221.03 104.199H1.602M30.055 101.725V61.352M30.055 84.344s2.09-14.913 12.144-11.457M30.056 80.262s-4.527-9.933-9.158-5.205" />
  <path stroke="#000" stroke-linecap="round" stroke-linejoin="round" stroke-width="3.2"
    d="M26.338 86.57c-6.22 4.829-14.986.005-14.986-8.406 0-3.848 1.941-7.197 4.814-8.971-2.79-10.132 4.207-20.255 13.865-20.255 7.2 0 13.155 5.719 14.273 13.202 5.656 1.568 9.846 7.127 9.846 13.764 0 7.854-5.857 14.22-13.082 14.22-2.768 0-5.332-.935-7.444-2.53M198.724 79.633l5.851-25.82 9.13 41.875h-18.26l1.157-5.34" />
  <path stroke="#000" stroke-linecap="round" stroke-linejoin="round" stroke-width="3.2"
    d="M179.798 91.14c-7.381 3.966-12.971-8.005-5.919-12.42-1.872-6.895 2.826-13.782 9.306-13.782 4.83 0 8.827 3.891 9.579 8.983 3.795 1.067 6.607 4.85 6.607 9.366 0 7.697-7.757 12.26-13.54 8.128M204.574 101.934V89.301M182.844 101.934v-26.57" />
  <path stroke="#000" stroke-linecap="round" stroke-linejoin="round" stroke-width="3.2"
    d="M182.93 89.089s1.401-10.009 8.148-7.69M182.927 86.349s-3.039-6.666-6.146-3.493" />
  <path stroke="#000" stroke-linecap="round" stroke-linejoin="round" stroke-width="3.2"
    d="M81.066 9.8c-1.047-3.523-4.32-6.067-8.8-5.494C66.13-1.04 57.012 2.633 55.69 10.948c-6.881 4.392-3.292 13.608 3.63 13.608h22.626c4.175 0 7.703-3.394 7.703-7.4 0-4.124-3.808-7.835-8.582-7.356Z"
    clip-rule="evenodd" />
  <path stroke="#000" stroke-linecap="round" stroke-linejoin="round" stroke-width="3.2"
    d="M102.948 25.204c-.724-2.433-2.984-4.19-6.077-3.794-4.239-3.693-10.534-1.155-11.448 4.586-4.752 3.033-2.274 9.398 2.506 9.398h15.625c2.884 0 5.32-2.344 5.32-5.11 0-2.848-2.63-5.411-5.926-5.08ZM230.612 11.265c-.813-2.736-3.353-4.713-6.835-4.268-4.768-4.154-11.851-1.3-12.878 5.16-5.346 3.412-2.559 10.572 2.819 10.572h17.577c3.245 0 5.984-2.637 5.984-5.749 0-3.204-2.958-6.087-6.667-5.715Z"
    clip-rule="evenodd" />
  <path stroke="#000" stroke-linecap="square" stroke-width="3.2" d="M72.305 101.288V74.457" />
  <path stroke="#000" stroke-linecap="round" stroke-linejoin="round" stroke-width="3.2"
    d="M73.93 101.081V87.836M70.68 101.081V87.836" />
  <path stroke="#000" stroke-width="3.2"
    d="M72.306 72.839a5.689 5.689 0 1 0 0-11.378 5.689 5.689 0 0 0 0 11.378Z" />
  <path stroke="#000" stroke-linecap="round" stroke-width="3.2"
    d="M259.225 104.201c-21.131-7.314-21.131-25.193-21.131-25.193h76.393" />
  <path stroke="#000" stroke-linecap="round" stroke-width="3.2"
    d="m251.914 79.009 8.941-25.194h16.253l4.876-11.377h27.632l5.688 11.377" />
  <path fill="#000"
    d="M271.415 70.064a3.251 3.251 0 1 0 0-6.502 3.251 3.251 0 0 0 0 6.502ZM284.419 70.064a3.25 3.25 0 1 0 0-6.5 3.25 3.25 0 0 0 0 6.5ZM295.794 44.056a3.251 3.251 0 1 0 0-6.502 3.251 3.251 0 0 0 0 6.502ZM297.419 70.064a3.251 3.251 0 1 0 0-6.502 3.251 3.251 0 0 0 0 6.502ZM310.427 70.064a3.25 3.25 0 1 0 0-6.5 3.25 3.25 0 0 0 0 6.5Z" />
  <path stroke="#000" stroke-linecap="round" stroke-linejoin="round" stroke-width="3.2"
    d="M243.781 99.324a4.876 4.876 0 1 0 9.752 0" />
  <path stroke="#000" stroke-linecap="round" stroke-linejoin="round" stroke-width="3.2"
    d="M234.031 99.324a4.876 4.876 0 1 0 9.752 0" />
  <path stroke="#000" stroke-linecap="round" stroke-linejoin="round" stroke-width="3.2"
    d="M234.033 99.324a4.877 4.877 0 0 1-4.877 4.876M253.539 99.324a4.877 4.877 0 0 0 9.752 0" />
  <path stroke="#000" stroke-linecap="round" stroke-linejoin="round" stroke-width="3.2"
    d="M263.289 99.324a4.877 4.877 0 0 0 9.752 0M273.043 99.324a4.875 4.875 0 1 0 9.752 0" />
  <path stroke="#000" stroke-linecap="round" stroke-linejoin="round" stroke-width="3.2"
    d="M282.793 99.324a4.875 4.875 0 1 0 9.752 0" />
  <path stroke="#000" stroke-linecap="round" stroke-linejoin="round" stroke-width="3.2"
    d="M292.543 99.324a4.877 4.877 0 0 0 9.752 0M302.301 99.324a4.877 4.877 0 0 0 9.753 0" />
  <path stroke="#000" stroke-linecap="round" stroke-linejoin="round" stroke-width="3.2"
    d="M312.051 99.324a4.875 4.875 0 0 0 4.875 4.876" />
</svg>