<svg width="320" height="320" viewBox="0 0 320 320" fill="none" xmlns="http://www.w3.org/2000/svg">
<path d="M314.429 90.314C314.435 83.8949 312.967 77.5615 310.139 71.8106C307.311 66.0596 303.2 61.0475 298.129 57.1672C300.861 52.7594 302.32 47.6707 302.341 42.473C302.346 36.8865 300.711 31.4234 297.641 26.773C294.571 22.1226 290.204 18.493 285.09 16.342C279.977 14.1911 274.347 13.6152 268.909 14.6869C263.472 15.7586 258.471 18.43 254.537 22.3641C251.499 19.033 247.712 16.4869 243.494 14.9401C239.276 13.3934 234.752 12.8913 230.302 13.4761C225.851 14.061 221.605 15.7157 217.922 18.3009C214.238 20.8861 211.224 24.326 209.135 28.3309C204.622 26.6946 199.862 25.8612 195.067 25.8677C187.354 25.8672 179.79 28.0155 173.211 32.0753C166.632 36.1351 161.294 41.9487 157.784 48.8746C154.275 55.8005 152.731 63.5694 153.323 71.324C153.916 79.0786 156.621 86.5174 161.141 92.8196C155.602 96.9239 151.75 102.937 150.316 109.716C148.883 116.495 149.969 123.569 153.367 129.595C156.765 135.62 162.24 140.178 168.751 142.402C175.262 144.625 182.356 144.361 188.686 141.659C190.596 147.486 193.97 152.716 198.482 156.836C202.993 160.957 208.486 163.828 214.426 165.169C220.366 166.51 226.549 166.276 232.372 164.489C238.195 162.702 243.459 159.423 247.651 154.973C252.031 159.901 257.987 163.123 264.481 164.078C270.975 165.033 277.595 163.66 283.188 160.198C288.781 156.737 292.992 151.406 295.088 145.135C297.183 138.864 297.03 132.05 294.654 125.881C300.697 122.159 305.689 116.932 309.152 110.704C312.614 104.475 314.432 97.4542 314.429 90.314Z" fill="#99CBD3"/>
<path d="M226.824 266.994L226.592 172.809L216.295 156.416L219.159 153.996L227.308 164.846L227.54 144.589L184.475 93.1804L188.055 90.2925L210.314 114.181L197.215 69.2918L202.227 68.5698L208.524 90.1014L214.441 63.8557L216.589 64.7688L211.935 95.3463L216.063 114.181L225.939 127.028L259.844 50.4781H261.824L251.589 80.5035L260.581 76.5327L261.655 78.3376L250.515 87.3834L238.322 129.746L270.268 118.513L267.025 104.774L269.194 104.052L274.206 117.791L287.852 112.737L288.21 116.347L239.754 145.311L239.038 266.994H226.824Z" fill="#2D565A"/>
<path d="M31.0965 110.939H59.6897C59.9571 110.935 60.2124 110.827 60.4003 110.637C60.5883 110.447 60.6937 110.191 60.6936 109.924V86.4167C60.6936 85.1451 60.4425 83.8859 59.9547 82.7113C59.4668 81.5366 58.7518 80.4695 57.8505 79.5709C56.9492 78.6723 55.8792 77.9599 54.7019 77.4744C53.5245 76.9889 52.2629 76.7399 50.989 76.7415H31.1585C30.8922 76.7415 30.6369 76.8471 30.4486 77.035C30.2603 77.223 30.1545 77.4779 30.1545 77.7437V109.912C30.1545 110.179 30.2599 110.435 30.4478 110.625C30.6357 110.815 30.8911 110.923 31.1585 110.926" fill="#455560"/>
<path d="M28.7169 231.953V78.3376" stroke="#455560" stroke-width="4.21511" stroke-miterlimit="10" stroke-linecap="round"/>
<path d="M54.3976 94.7806C47.618 93.333 39.599 90.772 34.567 86.12V85.39C34.5283 85.1981 34.5358 84.9999 34.5888 84.8115C34.6418 84.6231 34.7389 84.4499 34.8719 84.3062C35.005 84.1625 35.1703 84.0523 35.3543 83.9848C35.5383 83.9173 35.7357 83.8943 35.9304 83.9177H48.5104C49.2709 83.8533 50.0365 83.9493 50.7575 84.1996C51.4784 84.4499 52.1385 84.8488 52.6949 85.3704C53.2513 85.892 53.6916 86.5246 53.987 87.2271C54.2825 87.9296 54.4266 88.6864 54.41 89.4481L54.3976 94.7806Z" fill="#EAE611"/>
<path d="M54.3974 101.709V102.34C54.4338 102.531 54.4246 102.728 54.3706 102.915C54.3166 103.101 54.2192 103.273 54.0864 103.415C53.9536 103.557 53.7892 103.666 53.6063 103.733C53.4235 103.8 53.2274 103.823 53.034 103.8H35.9674C35.7734 103.816 35.5784 103.789 35.3963 103.72C35.2142 103.652 35.0496 103.544 34.9144 103.404C34.7792 103.264 34.6768 103.097 34.6145 102.912C34.5523 102.728 34.5317 102.533 34.5544 102.34V94.9166C39.8839 98.2695 47.7418 100.447 54.385 101.783" fill="#EAE611"/>
<path d="M191.775 255.479L192.047 257.644L189.184 258.325L188.788 255.479H191.775Z" fill="#64747F"/>
<path d="M194.811 256.184L195.654 259.698L198.133 258.424V256.283L194.811 256.184Z" fill="#64747F"/>
<path d="M191.775 228.148V237.823L192.717 238.43L192.246 239.036L192.717 255.479H186.42V239.209L185.392 237.564L184.859 227.257L191.775 228.148Z" fill="#8FB4BE"/>
<path d="M192.407 227.629L192.667 237.527L193.101 238.479L193.956 256.048C196.009 256.336 198.08 256.476 200.153 256.469L198.43 237.7L200.029 226.268C200.029 226.268 194.204 227.295 192.394 227.592" fill="#8FB4BE"/>
<path d="M194.006 261.158L192.766 259.092V256.902L188.837 257.892L189.407 260.366L188.837 263.632C188.837 263.632 186.842 263.051 186.581 263.249C186.408 264.058 186.522 264.902 186.904 265.637C186.904 265.637 191.551 266.342 191.861 266.082C192.163 265.006 192.362 263.904 192.456 262.791C193.047 262.313 193.599 261.787 194.105 261.22" fill="#455560"/>
<path d="M198.48 257.359L194.291 258.597L195.332 260.465L194.551 264.177C194.551 264.177 193.311 263.793 193.126 263.917C192.902 264.456 192.902 265.061 193.126 265.599C193.126 265.599 196.497 266.552 197.649 266.107L198.753 262.63C199.32 262.245 199.815 261.763 200.215 261.207L198.815 258.98L198.48 257.359Z" fill="#455560"/>
<path d="M192.667 195.325L192.221 194.174L185.701 195.955L185.912 197.675C185.912 197.675 188.564 199.766 190.176 199.172C191.787 198.578 192.655 195.325 192.655 195.325" fill="#64747F"/>
<path d="M207.404 222.432L207.131 225.068C207.379 225.266 208.085 224.103 208.37 223.83C208.655 223.558 209.436 224.412 209.436 224.412C209.436 224.412 208.197 226.33 208.407 226.466C208.618 226.602 210.886 224.56 210.886 223.744L209.399 220.96L207.404 222.432Z" fill="#64747F"/>
<path d="M137.935 263.236L140.128 262.469C139.084 260.418 138.481 258.172 138.356 255.875L132.159 256.543L132.667 262.729L137.935 263.236Z" fill="#64747F"/>
<path d="M144.776 260.564L145.842 257.323L151.419 257.026L151.147 259.092L153.439 261.752L148.37 265.34L144.776 260.564Z" fill="#64747F"/>
<path d="M138.852 259.042C139.164 259.435 139.415 259.873 139.595 260.341C139.935 261.162 140.168 262.023 140.289 262.902C140.343 263.669 140.343 264.438 140.289 265.204L140.438 265.971C140.438 265.971 138.703 266.144 135.617 268.928C134.774 269.682 132.493 272.033 130.919 272.095C129.345 272.157 124.921 271.699 124.499 271.254C124.078 270.808 124.574 269.373 124.574 269.373L129.606 266.33L131.539 262.902C131.539 262.902 131.093 260.032 133.398 259.871C135.703 259.71 137.116 263.236 137.116 263.236L139.372 261.096L138.852 259.042Z" fill="#455560"/>
<path d="M145.309 258.993C144.366 259.729 143.645 260.712 143.227 261.832C142.809 262.953 142.71 264.167 142.942 265.34L142.756 266.515C144.723 267.292 146.846 267.598 148.953 267.406C154.084 268.197 159.311 268.13 164.421 267.208C164.421 267.208 164.706 265.971 164.421 265.463C164.421 265.463 156.984 263.546 156.241 263.41L153.613 261.368L149.201 262.878L144.962 260.18L145.309 258.993Z" fill="#455560"/>
<path d="M152.919 259.624C151.705 259.916 150.619 260.597 149.827 261.561C149.035 262.526 148.58 263.722 148.531 264.968L153.588 261.368L152.919 259.624Z" fill="#455560"/>
<path d="M153.551 185.859L125.367 186.107C125.367 186.107 125.082 218.547 125.057 219.97C125.032 221.393 131.081 258.473 131.081 258.473C131.081 258.473 138.195 258.089 139.459 255.182L135.84 220.539L136.497 219.599L135.555 218.795L140.004 192.875L146.028 223.274L144.02 224.511L144.751 225.946L144.169 227.567L142.929 257.434L151.469 256.988L154.629 226.305L155.224 224.672L153.551 185.859Z" fill="#B6CDD3"/>
<path d="M130.994 141.777L134.043 190.029L149.201 190.276C149.201 190.276 151.742 169.243 150.725 166.286C149.709 163.329 147.887 142.593 147.887 142.593C147.887 142.593 138.876 150.017 130.994 141.789" fill="white"/>
<path d="M137.513 124.097C137.513 124.097 137.228 119.816 137.278 119.235C137.327 118.653 136.385 113.556 136.385 113.556C136.385 113.556 146.524 114.706 147.453 114.904C147.937 116.056 148.303 117.254 148.544 118.48L148.197 120.299C149.238 121.263 150.18 122.328 151.01 123.478C151.085 123.899 148.631 124.715 148.631 124.715C148.631 124.715 145.383 128.885 140.748 128.353C139.323 128.192 137.513 124.122 137.513 124.122" fill="#64747F"/>
<path d="M132.915 143.014C133.921 139.983 134.68 136.876 135.183 133.722C135.319 132.485 134.477 124.233 134.477 124.233C135.11 124.225 135.737 124.117 136.336 123.911C136.336 123.911 138.17 127.957 139.67 128.971C141.28 129.451 142.948 129.71 144.627 129.738L144.95 134.613C145.81 138.064 146.485 141.558 146.97 145.08C146.97 145.08 138.356 146.132 132.903 143.014" fill="#64747F"/>
<path d="M131.676 124.641C130.506 122.602 129.947 120.27 130.064 117.923C130.143 116.785 130.511 115.686 131.134 114.729C131.756 113.772 132.612 112.99 133.621 112.455C134.997 111.824 143.388 109.3 147.552 114.929C147.552 114.929 140.339 113.964 139.645 114.793C138.182 116.5 139.757 117.267 139.571 119.47C139.451 121.208 138.947 122.898 138.096 124.419L134.824 126.411L135.047 129.318C133.822 127.843 132.696 126.289 131.676 124.666" fill="#64747F"/>
<path d="M148.445 124.455C147.747 125.102 146.931 125.606 146.04 125.94C144.801 126.361 143.252 127.685 141.863 127.474C140.988 127.361 140.164 126.999 139.489 126.431C138.814 125.862 138.318 125.112 138.058 124.27L136.1 124.493C136.348 126.1 136.793 127.671 137.426 129.169C137.781 129.946 138.316 130.629 138.986 131.16C139.656 131.691 140.442 132.056 141.281 132.225C143.468 132.611 145.702 132.644 147.899 132.324C148.928 132.114 149.932 131.57 149.982 130.444C150.031 129.318 149.312 129.206 149.312 129.206C149.312 129.206 150.341 128.192 149.102 127.623C149.102 127.623 149.82 126.819 149.659 126.225L148.445 124.455Z" fill="#64747F"/>
<path d="M132.915 113.32C132.79 112.81 132.505 112.352 132.101 112.014C131.698 111.676 131.197 111.475 130.672 111.44C130.265 111.338 129.841 111.33 129.431 111.417C129.021 111.504 128.637 111.683 128.307 111.941C127.977 112.199 127.71 112.528 127.527 112.905C127.344 113.281 127.25 113.694 127.251 114.112C127.139 115.448 128.788 116.896 130.969 116.686C131.359 115.433 132.024 114.284 132.915 113.32Z" fill="#64747F"/>
<path d="M133.782 135.986C133.782 135.986 122.057 139.29 120.372 141.43C120.372 141.43 124.474 149.831 125.181 154.805C125.887 159.778 123.941 175.207 123.47 180.787C123.213 183.708 123.184 186.645 123.384 189.571C123.384 189.571 133.596 189.979 136.757 188.037C136.757 188.037 133.881 156.03 133.101 150.079C133.101 150.079 133.522 137.558 133.782 135.986Z" fill="#8FB4BE"/>
<path d="M136.038 188.309L136.633 191.266C136.633 191.266 125.392 193.135 124.958 193.122C124.602 191.963 124.373 190.768 124.276 189.559C128.207 189.398 132.123 188.984 136.001 188.322" fill="#5698A6"/>
<path d="M135.245 133.784C135.245 133.784 128.589 133.982 126.767 136.556C129.429 141.427 131.557 146.571 133.113 151.898C133.113 151.898 133.373 149.423 133.659 145.711C133.931 142.284 135.146 136.222 135.171 135.603L135.245 133.784Z" fill="#5698A6"/>
<path d="M136.063 122.587C136.063 122.587 136.063 121.35 135.047 121.066C134.825 121.027 134.598 121.032 134.379 121.081C134.159 121.131 133.952 121.223 133.768 121.353C133.585 121.483 133.429 121.648 133.311 121.839C133.192 122.03 133.112 122.242 133.076 122.464C132.932 123.09 132.935 123.741 133.086 124.366C133.236 124.99 133.53 125.572 133.944 126.064C134.735 126.624 135.666 126.953 136.633 127.017L136.063 122.587Z" fill="#64747F"/>
<path d="M185.181 197.452C185.181 197.452 184.35 227.146 184.598 228.656C184.598 228.656 193.212 231.749 201.194 228.223L195.518 196.129L192.407 195.473C192.407 195.473 190.548 197.688 188.502 197.688C185.788 197.688 185.912 196.945 185.912 196.945C185.912 196.945 185.689 197.118 185.181 197.452Z" fill="#8FB4BE"/>
<path d="M188.193 224.672L187.325 203.057C187.325 203.057 184.697 199.346 181.921 198.665L177.682 203.231L174.757 197.453L174.063 197.762V196.525L170.097 198.764L170.444 199.63L169.577 200.36C169.577 200.36 173.493 209.268 176.034 209.268C176.48 209.268 182.566 205.557 182.566 205.557L181.016 225.439C181.016 225.439 185.763 226.305 188.193 224.585" fill="#5698A6"/>
<path d="M194.501 224.956L195.121 204.69L198.158 197.502C198.158 197.502 200.401 198.269 200.748 198.875C200.748 198.875 209.548 218.584 209.548 219.018C209.548 219.451 208.594 219.797 208.594 219.797L209.548 221.034C209.119 221.606 208.555 222.063 207.906 222.365C207.258 222.668 206.544 222.805 205.83 222.766L205.235 221.381L204.107 221.64L198.827 205.631L202.025 224.189C202.025 224.189 199.732 226.948 194.501 225.043" fill="#5698A6"/>
<path d="M173.295 196.982L171.832 194.607L169.589 196.141L170.704 198.442L173.295 196.982Z" fill="#64747F"/>
<path d="M166.59 192.38C166.59 192.38 165.115 191.143 164.917 190.45C164.917 190.45 165.437 186.738 165.437 186.28C164.765 184.902 163.986 183.578 163.107 182.321L166.59 179.661L169.069 183.979C169.069 183.979 173.208 187.27 173.667 187.468C173.667 187.468 173.01 192.899 172.948 193.58C172.886 194.26 169.069 199.148 168.87 199.247C168.672 199.346 167.705 199.482 167.966 198.121C168.226 196.76 169.205 189.992 169.205 189.992C169.205 189.992 166.726 191.081 166.615 192.38" fill="#64747F"/>
<path d="M169.304 193.394C169.304 193.394 168.722 194.891 168.337 195.027C167.953 195.164 166.85 193.864 166.59 192.38C166.59 192.38 166.912 190.4 167.941 189.905C168.265 189.727 168.622 189.615 168.99 189.577C169.358 189.538 169.731 189.574 170.085 189.683C170.407 189.856 169.874 192.157 169.304 193.332" fill="#64747F"/>
<path d="M156.142 141.43L160.033 162.81H161.174L160.665 163.49L168.858 180.28L168.325 181.517L168.858 182.754L165.14 185.823L164.111 184.585H162.215L156.501 177.162L156.179 164.047C156.179 164.047 152.175 149.2 156.179 141.48" fill="#5698A6"/>
<path d="M156.216 165.198L155.794 151.588C155.794 151.588 155.608 149.188 155.311 146.416L156.129 141.467L153.737 138.362C153.737 138.362 148.296 136.358 145.433 135.133C145.433 135.133 147.775 163.861 147.503 168.105C147.23 172.349 146.809 189.027 146.053 190.759C149.891 191.885 153.925 192.189 157.889 191.65L158.038 189.905L158.918 189.497L156.216 165.198Z" fill="#8FB4BE"/>
<path d="M158.038 190.128C158.038 190.128 149.598 191.266 146.549 188.792L146.003 190.969C149.861 191.988 153.873 192.29 157.84 191.86L158.038 190.128Z" fill="#5698A6"/>
<path d="M144.962 134.168C144.962 134.168 146.363 143.15 146.871 146.058C146.871 146.058 145.842 137.966 150.502 143.237C150.502 143.237 151.06 134.651 144.962 134.168Z" fill="#5698A6"/>
<path d="M185.33 196.054C185.33 196.054 181.611 197.972 181.611 198.529C181.611 199.086 186.098 200.88 187.362 203.032C187.314 202.417 187.206 201.808 187.04 201.214C186.573 199.701 186.249 198.147 186.073 196.574C185.786 196.499 185.535 196.323 185.367 196.079" fill="#008294"/>
<path d="M192.407 194.743C192.407 194.743 197.91 196.091 198.604 196.178C198.796 196.782 198.796 197.43 198.604 198.034C198.257 198.801 195.109 204.133 195.047 205.21C195.047 205.21 194.65 203.626 194.427 202.587C194.204 201.548 194.427 197.997 192.333 195.485L192.407 194.743Z" fill="#008294"/>
<path d="M184.747 187.765C184.504 187.302 184.151 186.905 183.719 186.61C183.286 186.315 182.789 186.129 182.268 186.07C181.653 186.075 181.046 186.208 180.485 186.459C179.924 186.71 179.421 187.075 179.009 187.53L178.885 187.901L180.124 187.122L178.748 188.359C178.749 189.144 178.94 189.918 179.305 190.613C179.669 191.309 180.197 191.907 180.843 192.355C180.843 192.355 181.425 188.049 184.053 188.186L184.747 187.765Z" fill="#64747F"/>
<path d="M195.728 189.72C195.648 189.499 195.507 189.306 195.322 189.163C195.136 189.019 194.913 188.932 194.68 188.91C194.446 188.887 194.211 188.932 194.001 189.038C193.792 189.145 193.617 189.308 193.497 189.509C193.497 189.509 191.118 186.961 191.118 185.501L184.648 184.598C183.967 185.901 183.407 187.263 182.975 188.668C182.91 189.217 182.995 189.773 183.223 190.277C182.987 190.704 182.842 191.174 182.797 191.66C182.753 192.145 182.809 192.635 182.962 193.097C183.317 194.098 183.944 194.98 184.772 195.646C185.074 196.003 185.455 196.284 185.886 196.467C186.316 196.649 186.784 196.729 187.251 196.698C189.019 196.519 190.719 195.921 192.208 194.953C193.035 194.213 193.654 193.271 194.006 192.219C194.246 192.304 194.509 192.292 194.741 192.185C194.972 192.079 195.153 191.887 195.245 191.65C195.381 191.242 196.001 190.413 195.79 189.72" fill="#64747F"/>
<path d="M190.424 185.624C190.306 186.237 190.007 186.8 189.565 187.241C189.123 187.682 188.559 187.981 187.945 188.099C186.004 188.248 184.055 187.938 182.256 187.196C182.256 187.196 182.975 182.667 186.098 181.38C189.221 180.094 190.634 181.158 190.634 181.158C191.287 181.009 191.965 181.004 192.62 181.143C193.274 181.281 193.891 181.561 194.427 181.962C196.311 183.348 197.625 184.634 197.749 187.356C197.904 188.742 197.546 190.136 196.743 191.275C195.939 192.415 194.745 193.222 193.386 193.543L194.018 192.206C194.276 192.214 194.53 192.147 194.75 192.013C194.97 191.879 195.147 191.684 195.257 191.452C195.617 190.499 195.406 189.818 194.613 189.868C194.354 189.903 194.106 189.998 193.891 190.147C193.675 190.295 193.498 190.492 193.374 190.722C193.374 190.722 190.089 188.532 190.411 185.612" fill="#64747F"/>
<path d="M197.736 187.146C197.724 187.834 197.637 188.519 197.476 189.188C197.476 189.188 200.549 191.922 200.537 193.667C200.783 193.038 200.813 192.347 200.624 191.699L201.144 193.37C202.004 192.537 202.757 191.602 203.388 190.586L201.838 189.349L203.945 190.475C204.214 189.39 204.214 188.256 203.945 187.171C203.448 186.625 202.824 186.209 202.128 185.959C201.433 185.709 200.687 185.632 199.955 185.736C198.095 186.02 197.773 187.171 197.773 187.171" fill="#64747F"/>
<path d="M185.937 193.32H185.677C185.431 193.32 185.193 193.242 184.995 193.097C184.995 193.097 185.453 194.397 185.912 194.335C186.594 194.248 187.065 193.196 187.065 193.196C186.695 193.28 186.316 193.317 185.937 193.308" fill="white"/>
<path d="M120.372 141.43L115.7 160.843L114.919 161.251L115.774 161.585C115.774 161.585 125.069 162.575 125.751 162.154C125.751 162.154 125.838 155.226 124.735 151.601C123.545 148.104 122.086 144.703 120.372 141.43Z" fill="#5698A6"/>
<path d="M136.249 154.681C136.249 154.681 138.505 151.118 139.001 150.586C139.496 150.054 142.248 148.112 142.248 148.112C142.248 148.112 142.892 149.225 142.248 149.868C141.603 150.512 140.438 151.489 140.438 151.489L137.959 155.919L136.249 154.681Z" fill="#64747F"/>
<path d="M143.326 147.233C143.487 147.666 143.016 148.26 142.248 148.544C141.479 148.829 140.748 148.693 140.587 148.247C140.426 147.802 140.897 147.22 141.653 146.936C142.409 146.651 143.165 146.787 143.326 147.233Z" fill="white"/>
<path d="M147.602 145.051L143.884 143.637C143.244 143.393 142.528 143.714 142.284 144.352L139.394 151.925C139.15 152.564 139.471 153.278 140.11 153.522L143.828 154.936C144.468 155.179 145.184 154.859 145.428 154.22L148.318 146.648C148.562 146.009 148.241 145.294 147.602 145.051Z" fill="black"/>
<path d="M139.905 152.12L144.863 150.536C146.06 150.61 147.241 150.852 148.37 151.254C149.312 151.774 148.234 156.203 147.49 156.834C146.747 157.465 140.463 158.319 140.463 158.319L134.415 160.929L134.278 156.116L139.905 152.12Z" fill="#64747F"/>
<path d="M135.121 155.387L134.167 156.03L132.159 155.263L125.478 157.007L116.927 160.422L116.084 161.239L115.7 161.622C115.7 161.622 112.898 166.967 119.418 169.38L135.989 163.02L136.447 161.239L137.873 160.336L135.121 155.387Z" fill="#5698A6"/>
<path d="M65.3668 241.721C66.9579 239.787 68.4353 237.763 69.7915 235.658L69.3454 230.314L75.5424 230.413L75.4309 237.527L75.8399 241.399C74.4687 241.555 73.1103 241.808 71.7746 242.154C71.2912 242.451 67.573 245.136 66.7302 245.222C65.8874 245.309 61.1652 245.222 61.1652 245.222" fill="#455560"/>
<path d="M83.3384 231.526C83.3384 231.526 83.9209 236.834 83.797 237.452C83.6731 238.071 83.4376 241.028 83.4376 241.028L87.0071 241.684C87.0071 241.684 93.7371 243.837 94.7782 243.985C96.1429 244.136 97.5212 244.115 98.8806 243.923C98.8401 243.547 98.7397 243.179 98.5832 242.834C97.0182 242.088 95.4031 241.451 93.7495 240.929L89.4115 235.782L89.0769 230.314L83.3384 231.526Z" fill="#455560"/>
<path d="M67.0774 162.736L66.2222 172.027L68.825 196.45L68.1805 196.834L68.7506 197.094C68.7506 197.094 67.945 228.779 68.3292 229.522C68.7134 230.264 69.0853 230.598 69.7917 230.611L75.4558 230.462C76.0007 230.257 76.4448 229.849 76.6952 229.324C77.0547 228.483 76.5217 197.886 76.5217 197.886H77.1414L76.7324 195.758L78.542 169.627L79.0997 169.553L81.8636 195.3L81.5166 196.141C81.5166 196.141 81.9132 229.707 82.2974 230.623C82.3671 230.872 82.5134 231.094 82.7157 231.256C82.918 231.418 83.1662 231.512 83.4253 231.526L89.1637 230.289C89.6322 230.014 90.0511 229.663 90.4031 229.25C90.9485 228.594 89.9693 196.067 89.9693 196.067L90.7006 195.498L89.8578 194.768L91.94 171.471L92.3118 161.573L67.0774 162.748" fill="#007C8D"/>
<path d="M92.4604 178.622C93.9105 179.463 97.2569 179.29 98.4963 178.053C99.934 176.642 104.222 170.815 103.764 164.245C103.471 159.802 101.484 155.64 98.2113 152.615L95.4226 154.434L92.2373 156.624C92.2373 156.624 88.5191 176.419 92.4604 178.684" fill="#64747F"/>
<path d="M92.6218 158.183C92.6218 158.257 92.6218 158.331 92.6218 158.405C93.6753 162.847 96.6499 175.417 96.6623 176.655C96.6623 178.152 94.2702 178.3 94.2702 178.3C94.4848 178.314 94.7001 178.314 94.9147 178.3H95.0882C95.5239 178.35 95.9644 178.266 96.3516 178.061C96.7388 177.855 97.0546 177.538 97.2572 177.149C97.275 177.043 97.275 176.934 97.2572 176.828C97.2572 174.353 93.7745 162.179 92.6094 158.121" fill="#546571"/>
<path d="M99.4508 178.622C99.2029 179.005 93.8114 159.853 92.5225 156.574C92.5225 156.574 94.7658 156.438 99.2153 153.172C99.2153 153.172 103.789 157.688 105.908 168.711C105.908 168.711 101.657 175.355 99.4508 178.609" fill="#64747F"/>
<path d="M92.6962 156.995C93.6257 160.113 98.4222 176.32 98.3975 178.139C98.3975 178.139 98.3975 178.139 98.3975 178.077L98.9304 177.471L98.8561 177.224C98.3851 175.788 97.6166 173.351 96.8358 170.629L92.6342 157.019" fill="#2C404C"/>
<path d="M96.8853 170.642C97.7033 173.364 98.447 175.801 98.9179 177.236L96.8853 170.642Z" fill="#2C404C"/>
<path d="M83.2756 117.231L74.3408 117.385L74.5843 131.451L83.5191 131.297L83.2756 117.231Z" fill="#64747F"/>
<path d="M85.6065 112.64C85.7057 118.146 81.4421 121.993 79.1244 122.055C76.8067 122.117 72.5307 118.344 72.444 112.863C72.3572 107.382 74.9228 102.965 78.7774 102.841C82.6319 102.717 85.5074 107.134 85.6065 112.64Z" fill="#64747F"/>
<path d="M74.4394 121.387L66.3956 127.066C66.3956 127.066 68.0068 167.759 68.2175 167.759L88.0481 167.487L91.6672 127.375L83.5862 121.684C83.5862 121.684 82.8921 129.392 78.988 129.602C76.2737 129.739 74.303 126.447 74.4889 121.437" fill="#008294"/>
<path d="M74.4642 122.451L64.0532 126.336L66.3956 127.066C66.3956 127.066 64.4126 141.913 64.7224 143.744C64.7224 143.744 65.6272 150.784 65.59 152.256C65.5528 153.728 63.0492 162.476 64.6729 167.734L75.9515 168.031C75.9515 168.031 74.489 124.257 74.4642 122.451Z" fill="#008294"/>
<path d="M77.885 142.717L74.6625 131.755C74.6625 131.755 74.9723 161.535 75.9887 168.266L77.885 142.717Z" fill="#008294"/>
<path d="M81.0083 168.6L91.3326 168.996C91.3326 168.996 91.6672 165.841 92.0142 163.762C93.9477 152.207 92.2249 125.656 92.2249 125.656L83.3384 122.253L80.9711 168.6" fill="#008294"/>
<path d="M74.8237 131.879C74.8237 131.879 66.0733 125.817 66.0609 124.79C66.0486 123.763 69.2835 120.125 74.3899 120.039C74.3899 120.039 74.8981 130.481 74.8237 131.879Z" fill="#008294"/>
<path d="M77.6247 102.432C77.6247 102.432 75.4433 103.905 80.5745 106.985C82.682 108.49 84.4091 110.464 85.6189 112.751L85.7429 114.619C86.2453 114.186 86.6363 113.638 86.8831 113.023C87.4868 111.332 87.5411 109.494 87.0382 107.77C86.5353 106.047 85.5009 104.525 84.082 103.422C80.3638 100.478 77.6247 102.469 77.6247 102.469" fill="#64747F"/>
<path d="M72.506 112.702C72.4681 111.061 72.8979 109.444 73.7454 108.037C75.2451 105.563 78.8393 105.155 78.8393 105.155L78.0089 102.272C78.0089 102.272 75.5301 100.948 72.5184 104.561C70.275 107.295 69.9032 111.984 71.7375 113.753L72.506 112.702Z" fill="#64747F"/>
<path d="M74.365 118.999C74.6501 119.432 76.8438 122.711 78.8393 122.711C80.5868 122.711 82.5575 120.422 83.3012 119.519V119.507L82.9665 119.791C82.0194 121.022 80.6436 121.852 79.1119 122.117C77.5672 121.901 76.1672 121.093 75.2078 119.865C74.7864 119.482 74.5013 119.16 74.4022 119.061" fill="#2C404C"/>
<path d="M82.979 119.729C81.8845 120.769 80.5032 121.458 79.0129 121.708H78.8642C77.4411 121.522 76.1269 120.849 75.1459 119.803C76.1053 121.031 77.5053 121.838 79.0501 122.055C80.5817 121.79 81.9575 120.959 82.9046 119.729" fill="#2C404C"/>
<path d="M66.3956 127.066C65.6614 126.693 64.8695 126.446 64.0531 126.336C63.421 126.41 56.3812 143.224 55.1541 146.132C54.113 148.606 55.0178 149.646 56.9389 151.254C58.1783 152.318 65.3545 160.038 70.6468 157.131C70.6468 157.131 70.3122 155.312 70.151 154.063C69.7231 152.322 68.8664 150.715 67.6586 149.388C66.4509 148.062 64.9304 147.057 63.2351 146.466C63.2351 146.466 65.1438 143.868 65.1686 142.198L66.3956 127.066Z" fill="#008294"/>
<path d="M79.1367 117.539C78.4431 116.833 77.5208 116.394 76.5339 116.302L79.1367 117.539Z" fill="white"/>
<path d="M76.5339 116.327C76.5339 116.327 76.7694 118.801 79.1367 117.564C78.8072 117.195 78.4073 116.896 77.9603 116.683C77.5134 116.471 77.0284 116.35 76.5339 116.327Z" fill="white"/>
<path d="M71.8862 114.842C71.8862 114.842 68.9984 117.923 68.9488 119.581C68.8992 121.238 71.7251 122.575 75.7532 121.078L75.6664 119.63C75.6664 119.63 73.1876 117.576 72.853 116.166C72.5956 116.041 72.3728 115.855 72.2042 115.624C72.0357 115.393 71.9265 115.125 71.8862 114.842Z" fill="#64747F"/>
<path d="M89.9071 126.695C90.5656 126.191 91.3144 125.817 92.1133 125.594C92.7454 125.594 99.8225 140.441 100.789 142.284C101.497 143.615 101.874 145.097 101.889 146.604C101.904 148.111 101.557 149.6 100.876 150.945C100.033 152.392 95.4473 158.529 88.6057 158.059C88.6057 158.059 86.7714 153.32 86.8334 152.071C88.5888 149.159 91.1794 146.84 94.2699 145.414C93.4432 143.996 92.5023 142.647 91.4564 141.381L89.9071 126.695Z" fill="#008294"/>
<path d="M82.7435 132.188C82.7435 132.188 89.4116 128.662 89.9197 124.765C90.18 122.711 85.8792 119.581 83.2765 119.717C83.2765 119.717 83.1525 121.709 83.0906 122.365C82.7807 125.977 82.7435 132.262 82.7435 132.262" fill="#008294"/>
<path d="M84.9994 116.351C84.9994 116.351 88.9779 117.712 85.9289 121.399C83.6608 124.134 86.1396 127.412 86.1396 127.412C86.1396 127.412 81.2687 125.631 83.1403 119.642C83.8926 118.626 84.517 117.52 84.9994 116.351Z" fill="#64747F"/>
<path d="M72.667 112.33C72.667 112.33 71.7746 111.093 71.4276 111.341C71.0805 111.588 71.6507 115.337 72.8405 115.943C72.6433 114.75 72.5726 113.539 72.6298 112.33" fill="#64747F"/>
<path d="M85.0239 112.145C85.0239 112.145 85.8667 110.908 86.1889 111.106C86.5112 111.304 86.0898 115.114 84.9495 115.758C85.1049 114.56 85.1381 113.35 85.0487 112.145" fill="#64747F"/>
<path d="M78.0088 102.272C78.0088 102.272 76.4967 103.039 76.4967 104.227C76.5997 105.434 77.1131 106.569 77.9518 107.445C78.7905 108.32 79.904 108.883 81.1073 109.039L80.5372 107.691C81.7789 109.512 83.24 111.174 84.8875 112.64L84.5777 107.245L78.0088 102.272Z" fill="#64747F"/>
</svg>
