<svg width="87" height="97" viewBox="0 0 87 97" fill="none" xmlns="http://www.w3.org/2000/svg">
<path d="M75 26.0234C75.0024 23.8561 74.4754 21.7177 73.4604 19.776C72.4454 17.8342 70.9701 16.1419 69.1499 14.8318C70.1304 13.3435 70.6539 11.6254 70.6616 9.87044C70.6635 7.98421 70.0765 6.13968 68.9746 4.56951C67.8728 2.99934 66.3054 1.77385 64.4702 1.04761C62.635 0.321373 60.6142 0.126919 58.6626 0.488774C56.7111 0.850629 54.9162 1.75259 53.5043 3.08088C52.414 1.95619 51.0546 1.09651 49.5408 0.574269C48.027 0.0520233 46.4031 -0.117502 44.8058 0.0799735C43.2085 0.277449 41.6846 0.836142 40.3625 1.70899C39.0404 2.58185 37.9588 3.7433 37.2087 5.09552C35.5892 4.54304 33.8809 4.26164 32.1598 4.26386C29.3914 4.26369 26.6768 4.98901 24.3155 6.35977C21.9542 7.73053 20.038 9.69343 18.7784 12.0319C17.5188 14.3703 16.9648 16.9934 17.1774 19.6117C17.3901 22.2299 18.3611 24.7416 19.9835 26.8694C17.9952 28.2552 16.6126 30.2853 16.0982 32.5743C15.5838 34.8633 15.9735 37.2517 17.1932 39.2862C18.4129 41.3206 20.3777 42.8593 22.7146 43.6102C25.0514 44.3611 27.5976 44.2718 29.8697 43.3594C30.5549 45.3271 31.7661 47.0927 33.3852 48.484C35.0044 49.8752 36.9761 50.8445 39.1079 51.2974C41.2398 51.7502 43.459 51.6711 45.5489 51.0677C47.6389 50.4643 49.5283 49.3573 51.0328 47.8547C52.6047 49.5186 54.7423 50.6066 57.0731 50.929C59.4038 51.2515 61.78 50.7879 63.7874 49.6191C65.7948 48.4503 67.3063 46.6504 68.0583 44.5331C68.8104 42.4157 68.7553 40.1152 67.9028 38.0324C70.0715 36.7754 71.8633 35.0107 73.1061 32.9078C74.3489 30.8049 75.0011 28.4342 75 26.0234Z" fill="#D4F3F6"/>
<path d="M43.5577 91.0797L43.4746 53.877L39.7786 48.3421L40.8065 47.5248L43.7315 51.1884L43.8147 44.3487L28.358 26.9912L29.6429 26.0161L37.632 34.0819L32.9308 18.9255L34.7296 18.6817L36.9896 25.9516L39.1134 17.0901L39.8844 17.3983L38.214 27.7225L39.6954 34.0819L43.2402 38.4194L55.409 12.5732H56.1195L52.4462 22.711L55.6736 21.3703L56.059 21.9797L52.0607 25.0339L47.6845 39.3372L59.1504 35.5445L57.9864 30.9058L58.7649 30.662L60.5638 35.3007L65.4615 33.5943L65.59 34.8132L48.1985 44.5924L47.9415 91.0797H43.5577Z" fill="#5AABB3"/>
<g clip-path="url(#clip0_10710_49898)">
<path d="M20.4843 93.9685L21.2871 93.7064C20.905 93.0056 20.6841 92.2383 20.6385 91.4534L18.371 91.6816L18.5569 93.7952L20.4843 93.9685Z" fill="#64747F"/>
<path d="M22.9878 93.0556L23.3778 91.9481L25.4186 91.8467L25.3189 92.5526L26.1579 93.4614L24.303 94.6873L22.9878 93.0556Z" fill="#64747F"/>
<path d="M20.82 92.5354C20.9343 92.6696 21.0261 92.8193 21.0921 92.9792C21.2164 93.2596 21.3018 93.5537 21.3461 93.8542C21.3657 94.116 21.3657 94.3787 21.3461 94.6405L21.4005 94.9026C21.4005 94.9026 20.7656 94.9617 19.6364 95.9128C19.328 96.1707 18.4935 96.9738 17.9175 96.995C17.3416 97.0161 15.7225 96.8597 15.5683 96.7075C15.4142 96.5553 15.5956 96.065 15.5956 96.065L17.4368 95.0251L18.1443 93.8542C18.1443 93.8542 17.981 92.8736 18.8246 92.8186C19.6681 92.7637 20.1851 93.9684 20.1851 93.9684L21.0105 93.2371L20.82 92.5354Z" fill="#455560"/>
<path d="M23.1825 92.5188C22.8373 92.7704 22.5736 93.1062 22.4207 93.489C22.2678 93.8718 22.2317 94.2865 22.3163 94.6873L22.2483 95.0889C22.9681 95.3544 23.7449 95.4587 24.5159 95.3932C26.3934 95.6634 28.3062 95.6406 30.1757 95.3256C30.1757 95.3256 30.28 94.9029 30.1757 94.7296C30.1757 94.7296 27.4546 94.0744 27.1825 94.0279L26.2211 93.3304L24.6066 93.8461L23.0555 92.9246L23.1825 92.5188Z" fill="#455560"/>
<path d="M25.9674 92.7344C25.523 92.8344 25.1257 93.0668 24.836 93.3964C24.5462 93.726 24.3798 94.1347 24.3619 94.5605L26.2123 93.3304L25.9674 92.7344Z" fill="#455560"/>
<path d="M26.1986 67.5325L15.8857 67.617C15.8857 67.617 15.7814 78.7004 15.7724 79.1865C15.7633 79.6726 17.9764 92.3412 17.9764 92.3412C17.9764 92.3412 20.5796 92.2102 21.0422 91.2168L19.7179 79.381L19.9583 79.0597L19.6136 78.785L21.2417 69.9292L23.4458 80.3152L22.7111 80.7379L22.9787 81.2282L22.7656 81.7819L22.312 91.9861L25.4367 91.8339L26.5932 81.3508L26.8109 80.7928L26.1986 67.5325Z" fill="#B6CDD3"/>
<path d="M17.9446 52.4712L19.0602 68.9568L24.6067 69.0413C24.6067 69.0413 25.5364 61.8553 25.1645 60.845C24.7926 59.8348 24.126 52.7502 24.126 52.7502C24.126 52.7502 20.8289 55.2864 17.9446 52.4754" fill="white"/>
<path d="M20.3302 46.4311C20.3302 46.4311 20.2259 44.9685 20.244 44.7698C20.2622 44.5711 19.9175 42.8296 19.9175 42.8296C19.9175 42.8296 23.6272 43.2227 23.9674 43.2903C24.1446 43.6839 24.2783 44.0932 24.3665 44.512L24.2395 45.1333C24.6204 45.4628 24.9652 45.8267 25.2689 46.2197C25.2962 46.3634 24.3982 46.6424 24.3982 46.6424C24.3982 46.6424 23.21 48.0669 21.5139 47.8852C20.9923 47.8302 20.3302 46.4395 20.3302 46.4395" fill="#64747F"/>
<path d="M18.648 52.894C19.0162 51.8585 19.2937 50.7969 19.4779 49.7195C19.5278 49.2968 19.2194 46.4773 19.2194 46.4773C19.451 46.4747 19.6806 46.4376 19.8997 46.3674C19.8997 46.3674 20.5709 47.7497 21.1196 48.0963C21.7087 48.2603 22.319 48.3485 22.9337 48.3584L23.0516 50.0239C23.3666 51.2027 23.6133 52.3964 23.7908 53.6C23.7908 53.6 20.6389 53.9593 18.6434 52.894" fill="#64747F"/>
<path d="M18.1942 46.6168C17.7662 45.92 17.5616 45.1234 17.6046 44.3215C17.6336 43.9327 17.7682 43.5571 17.9959 43.2303C18.2237 42.9034 18.5369 42.6359 18.9062 42.4531C19.4096 42.2375 22.4799 41.3752 24.0037 43.2985C24.0037 43.2985 21.3643 42.9688 21.1103 43.252C20.5751 43.8354 21.1511 44.0975 21.0831 44.8499C21.0393 45.4437 20.855 46.0211 20.5434 46.5407L19.3461 47.2213L19.4278 48.2146C18.9795 47.7107 18.5674 47.1798 18.1942 46.6252" fill="#64747F"/>
<path d="M24.3299 46.5534C24.0747 46.7741 23.7759 46.9464 23.45 47.0606C22.9965 47.2044 22.4296 47.6567 21.9217 47.5848C21.6014 47.5461 21.2997 47.4223 21.0529 47.2282C20.806 47.0341 20.6242 46.7778 20.5294 46.49L19.8129 46.5661C19.9036 47.1152 20.0666 47.6519 20.2981 48.1639C20.428 48.4294 20.6236 48.6624 20.8687 48.8439C21.1139 49.0254 21.4017 49.1502 21.7086 49.208C22.5087 49.3398 23.3263 49.3512 24.1303 49.2418C24.5067 49.17 24.8741 48.984 24.8922 48.5993C24.9104 48.2146 24.6473 48.1766 24.6473 48.1766C24.6473 48.1766 25.0237 47.83 24.5702 47.6355C24.5702 47.6355 24.8333 47.3608 24.7743 47.1579L24.3299 46.5534Z" fill="#64747F"/>
<path d="M18.6476 42.7491C18.6018 42.5746 18.4975 42.4182 18.3499 42.3027C18.2023 42.1872 18.0191 42.1185 17.8268 42.1066C17.6781 42.0718 17.5228 42.0691 17.3728 42.0988C17.2228 42.1285 17.0821 42.1897 16.9614 42.2778C16.8406 42.3659 16.7431 42.4785 16.6761 42.607C16.6092 42.7356 16.5746 42.8767 16.5751 43.0196C16.5343 43.4761 17.1374 43.9707 17.9356 43.8988C18.0783 43.471 18.3216 43.0782 18.6476 42.7491Z" fill="#64747F"/>
<path d="M18.9649 50.4929C18.9649 50.4929 14.6746 51.6215 14.0579 52.3528C14.0579 52.3528 15.559 55.223 15.8175 56.9223C16.076 58.6216 15.364 63.8928 15.1916 65.7992C15.0975 66.7973 15.0869 67.8007 15.1599 68.8004C15.1599 68.8004 18.8969 68.9399 20.0533 68.2762C20.0533 68.2762 19.0012 57.3408 18.7154 55.3076C18.7154 55.3076 18.8696 51.0298 18.9649 50.4929Z" fill="#8FB4BE"/>
<path d="M19.7905 68.3694L20.0082 69.3797C20.0082 69.3797 15.8949 70.0179 15.7361 70.0137C15.6059 69.6175 15.5223 69.2093 15.4867 68.7963C16.925 68.7412 18.358 68.6 19.7769 68.3736" fill="#5698A6"/>
<path d="M19.5002 49.7405C19.5002 49.7405 17.0649 49.8081 16.3982 50.6873C17.3721 52.3517 18.1506 54.109 18.7202 55.9289C18.7202 55.9289 18.8154 55.0835 18.9197 53.8154C19.0195 52.6445 19.464 50.5732 19.473 50.3619L19.5002 49.7405Z" fill="#5698A6"/>
<path d="M19.7994 45.9152C19.7994 45.9152 19.7994 45.4925 19.4275 45.3953C19.3465 45.3819 19.2634 45.3838 19.1831 45.4007C19.1028 45.4175 19.0269 45.4491 18.9598 45.4935C18.8927 45.538 18.8358 45.5944 18.7923 45.6595C18.7488 45.7247 18.7196 45.7972 18.7064 45.8729C18.6538 46.0869 18.655 46.3093 18.7101 46.5227C18.7652 46.7361 18.8726 46.9348 19.0239 47.103C19.3133 47.2942 19.654 47.4069 20.008 47.4285L19.7994 45.9152Z" fill="#64747F"/>
<path d="M30.9694 69.76C30.9694 69.76 30.4298 69.3373 30.3572 69.1006C30.3572 69.1006 30.5477 67.8324 30.5477 67.676C30.3017 67.2051 30.0166 66.7529 29.6951 66.3234L30.9694 65.4146L31.8765 66.8898C31.8765 66.8898 33.3912 68.0142 33.559 68.0818C33.559 68.0818 33.3186 69.9375 33.296 70.17C33.2733 70.4025 31.8765 72.0722 31.8039 72.106C31.7313 72.1398 31.3776 72.1863 31.4728 71.7214C31.5681 71.2564 31.9264 68.9442 31.9264 68.9442C31.9264 68.9442 31.0193 69.3161 30.9785 69.76" fill="#64747F"/>
<path d="M31.9627 70.1067C31.9627 70.1067 31.7495 70.6182 31.6089 70.6647C31.4683 70.7112 31.0647 70.2674 30.9695 69.7601C30.9695 69.7601 31.0874 69.0838 31.4638 68.9147C31.5824 68.8537 31.713 68.8155 31.8478 68.8024C31.9826 68.7894 32.1188 68.8017 32.2484 68.8386C32.3663 68.8978 32.1713 69.684 31.9627 70.0856" fill="#64747F"/>
<path d="M27.1462 52.353L28.5703 59.6574H28.9875L28.8016 59.8899L31.7993 65.6261L31.6043 66.0488L31.7993 66.4715L30.4387 67.5198L30.0623 67.0971H29.3684L27.2777 64.5608L27.1598 60.0801C27.1598 60.0801 25.695 55.0076 27.1598 52.3699" fill="#5698A6"/>
<path d="M27.1738 60.4732L27.0196 55.8234C27.0196 55.8234 26.9516 55.0034 26.8428 54.0565L27.1421 52.3657L26.2668 51.3047C26.2668 51.3047 24.2759 50.6199 23.2283 50.2014C23.2283 50.2014 24.0854 60.0167 23.9856 61.4666C23.8859 62.9165 23.7317 68.6146 23.455 69.2064C24.8596 69.5912 26.3355 69.6949 27.7861 69.5107L27.8405 68.9147L28.1625 68.7752L27.1738 60.4732Z" fill="#8FB4BE"/>
<path d="M27.8404 68.9909C27.8404 68.9909 24.752 69.3798 23.6363 68.5344L23.4368 69.2784C24.8482 69.6263 26.3163 69.7295 27.7678 69.5827L27.8404 68.9909Z" fill="#5698A6"/>
<path d="M23.0555 49.8718C23.0555 49.8718 23.568 52.9407 23.754 53.934C23.754 53.934 23.3775 51.1695 25.0827 52.9703C25.0827 52.9703 25.2868 50.0367 23.0555 49.8718Z" fill="#5698A6"/>
<path d="M14.0583 52.353L12.3486 58.9853L12.0629 59.1248L12.3758 59.2389C12.3758 59.2389 15.7771 59.5771 16.0266 59.4334C16.0266 59.4334 16.0583 57.0662 15.6547 55.8277C15.2193 54.6329 14.6856 53.4712 14.0583 52.353Z" fill="#5698A6"/>
<path d="M19.8677 56.8803C19.8677 56.8803 20.6931 55.6629 20.8745 55.4812C21.0559 55.2994 22.0627 54.6357 22.0627 54.6357C22.0627 54.6357 22.2985 55.0162 22.0627 55.236C21.8269 55.4558 21.4006 55.7897 21.4006 55.7897L20.4935 57.303L19.8677 56.8803Z" fill="#64747F"/>
<path d="M22.4572 54.3355C22.5161 54.4834 22.3438 54.6863 22.0626 54.7835C21.7814 54.8808 21.5139 54.8343 21.4549 54.6821C21.396 54.5299 21.5683 54.3312 21.8449 54.234C22.1216 54.1368 22.3982 54.1833 22.4572 54.3355Z" fill="white"/>
<path d="M24.0217 53.59L22.6613 53.1068C22.4273 53.0237 22.1652 53.1331 22.0761 53.3513L21.0183 55.9386C20.9291 56.1567 21.0465 56.4009 21.2806 56.4841L22.641 56.9672C22.875 57.0504 23.137 56.9409 23.2262 56.7228L24.284 54.1355C24.3732 53.9174 24.2557 53.6731 24.0217 53.59Z" fill="black"/>
<path d="M21.2057 56.0052L23.0197 55.4641C23.4578 55.4892 23.8898 55.5718 24.3032 55.7093C24.6479 55.8868 24.2533 57.4001 23.9812 57.6157C23.7091 57.8313 21.4098 58.1229 21.4098 58.1229L19.1966 59.0149L19.1467 57.3705L21.2057 56.0052Z" fill="#64747F"/>
<path d="M19.4551 57.1211L19.1059 57.3409L18.3712 57.0789L15.9268 57.6749L12.7975 58.8416L12.4892 59.1205L12.3486 59.2516C12.3486 59.2516 11.3236 61.0777 13.7091 61.902L19.7726 59.7292L19.9404 59.1205L20.4619 58.812L19.4551 57.1211Z" fill="#5698A6"/>
</g>
<defs>
<clipPath id="clip0_10710_49898">
<rect width="21.8077" height="55.5587" fill="white" transform="translate(12 41.4414)"/>
</clipPath>
</defs>
</svg>
