<svg width="200" height="172" viewBox="0 0 200 172" fill="none" xmlns="http://www.w3.org/2000/svg">
<g clip-path="url(#clip0_7555_2009)">
<g clip-path="url(#clip1_7555_2009)">
<path d="M25.6702 168.767C36.771 167.139 57.346 169.087 68.8938 170.487C72.5486 170.93 76.8076 170.508 78.1776 174.367C79.9905 179.474 80.9301 190.27 81.7082 196.072C82.8092 204.275 83.4218 212.578 84.5351 220.793C92.1675 277.062 100.917 333.288 107.457 389.65C107.031 392.248 105.855 393.829 103.421 394.74C101.104 395.605 73.2067 396.258 65.2888 397.751C64.2043 397.954 63.687 399.13 62.6646 399.674C59.2375 401.496 11.49 402.04 5.78641 400.859C1.70534 400.011 0.289799 395.79 0.0249023 392.012C6.24583 324.5 14.4866 257.111 20.3516 189.57C20.8276 184.083 20.5378 177.994 21.2994 172.591C21.6885 169.842 23.1288 169.133 25.6661 168.762L25.6702 168.767Z" fill="#C1DB70"/>
<path d="M179.975 33.2989C187.761 28.0865 191.271 34.8213 187.649 42.0367C190.604 41.6277 193.001 43.2555 193.104 46.4056C193.249 50.9011 187.318 56.8936 185.029 60.7607C180.766 67.9551 179.33 75.6302 173.639 82.2806C171.913 84.3006 163.929 91.4485 161.789 92.2835C161.093 92.5534 160.679 92.6884 159.901 92.6673C157.198 92.5956 146.089 85.3928 143.85 83.2168C142.331 81.7408 140.891 80.463 142.025 78.1309C149.086 67.0442 161.164 32.0886 171.822 26.1467C177.504 22.9754 180.749 27.6564 179.975 33.2989Z" fill="#E8AA7D"/>
<path d="M179.654 0.886692C183.435 0.581385 187.116 1.75173 188.1 5.8581C190.711 25.7336 197.718 46.9524 199.771 66.6803C200.215 70.9342 200.205 73.5904 195.811 75.1068C189.358 77.3304 171.029 81.0857 164.177 81.7268C157.825 82.3171 155.657 80.7041 153.774 74.6997C148.116 56.6866 146.832 34.8572 141.783 16.4166C141.024 12.697 142.942 9.86271 146.293 8.54989C152.201 6.24482 173.362 1.39554 179.659 0.886692H179.654Z" fill="#006A80"/>
<path d="M195.371 67.0978C195.471 71.5247 193.189 72.1658 189.638 73.1683C182.551 75.1579 173.986 76.1399 166.649 77.2187L156.446 65.3626L156.207 65.0878L146.088 16.2133C145.674 14.2186 146.867 12.229 148.81 11.7406C150.373 11.3487 152.036 11.0282 152.766 10.901C154.978 10.5193 154.229 14.987 156.576 15.333C157.535 15.4704 172.662 12.0764 174.076 11.5014C177.427 10.1377 173.946 6.86582 175.334 5.85322C176.228 5.19172 180.613 4.26562 182.821 5.46141C185.028 6.65719 187.076 20.1416 187.35 22.8181L191.166 43.3551C192.38 50.0718 195.236 60.6914 195.376 67.0978H195.371Z" fill="#99D9E5"/>
<path d="M186.996 19.9268C187.016 20.1099 189.158 32.3884 190.202 38.1485C190.956 42.1684 187.236 45.5471 184.204 47.2517C172.138 54.7979 167.319 61.9929 167.833 75.5944L166.689 76.7952C164.402 77.1311 160.836 79.0443 159.033 76.5459C158.084 75.228 156.441 67.0967 156.336 65.1376C155.887 56.3855 160.152 49.4855 167.059 44.7024C174.705 39.4104 183.54 35.7009 186.097 24.8168C186.412 23.4836 186.626 22.1046 186.991 19.9268H186.996Z" fill="#70C9DB"/>
<path d="M154.17 40.3472C160.039 38.9809 161.736 44.3408 161.541 49.2369C161.454 51.4846 160.486 53.7872 160.61 56.1023C160.821 60.0158 167.883 63.8386 167.883 74.4156C168.346 81.9474 161.905 92.8304 154.169 93.8636C149.145 94.5341 134.836 87.2541 136.798 79.6886C140.08 70.7905 144.795 61.846 148.197 53.1209C149.505 49.764 150.506 41.1991 154.17 40.3472Z" fill="#E8AA7D"/>
<path d="M96.6623 50.4173C98.5704 65.232 93.8147 74.7627 80.4001 80.5401C77.5608 81.7631 74.1461 82.3535 71.3854 83.7788C69.4442 84.7783 68.2232 86.4609 67.2381 88.3713C66.609 89.5985 66.0709 90.9184 65.5039 92.2131C64.0097 95.5994 62.2754 98.7749 57.9502 99.534C57.826 99.555 57.706 99.5761 57.5859 99.5888C54.9701 95.4602 45.0654 88.852 45.0158 88.5821C44.4529 85.2127 44.4198 81.586 44.5191 78.4737C30.3802 69.7064 25.8894 53.4663 27.1394 37.3106C28.8654 15.0611 50.7359 2.59957 71.0253 8.22519C79.2247 10.494 101.795 26.1437 105.611 33.7092C109.518 41.4686 105.04 49.7805 96.6623 50.4173Z" fill="#E8AA7D"/>
<path d="M49.5727 44.5847C48.9478 44.028 39.9537 69.9927 42.2798 72.4766C43.1366 73.3917 44.3949 73.3242 45.351 73.9484C49.3699 76.5756 51.6878 80.8307 49.7259 85.6255C47.971 89.9101 43.9561 88.8896 40.2393 90.218C30.3222 93.7688 24.5773 108.204 21.5972 117.688C19.6601 123.858 18.6171 130.209 16.9781 136.442C8.33582 128.762 1.29951 118.359 0.500682 106.306C-0.49268 91.268 10.5792 79.2535 9.01877 63.5827C8.50967 58.4885 6.41533 53.5502 6.40705 48.2957C6.38222 21.728 40.8477 -6.28627 66.2033 2.55278C75.752 5.88007 78.7279 11.7292 74.2536 21.3737C71.0045 28.3699 64.974 29.9429 60.806 35.2733C58.6248 38.065 55.9468 47.4902 52.2507 47.0812C50.6861 46.9083 50.3136 45.2467 49.5686 44.5847H49.5727Z" fill="#E4F0C2"/>
<path d="M170.691 93.4982C169.096 96.0514 165.178 102.106 163.22 104.999C153.411 119.531 139.298 143.679 126.467 154.622C117.101 162.605 109.622 156.638 100.764 151.354C93.9761 147.306 84.5185 141.929 78.0451 136.426C81.8116 155.086 86.9812 173.882 90.2386 192.458C90.996 195.258 88.8396 196.865 86.4803 197.603L39.366 201.2C38.6831 207.307 37.9298 213.4 37.0606 219.469C36.5557 223.007 36.477 227.254 31.8993 227.076C26.4606 226.866 17.8018 224.774 12.1521 223.699C9.09333 223.121 -8.22427 219.966 -9.23004 218.326C-9.52391 217.849 -9.48667 217.36 -9.35008 216.846C-0.0166187 183.598 7.47084 149.773 16.8788 116.559C20.1652 104.974 23.6792 89.3922 37.8718 87.8023C40.4339 87.5156 43.5754 87.6126 45.7484 88.4476C51.8162 90.7838 54.9742 95.4522 57.5901 99.5807C57.7101 99.5681 57.8301 99.547 57.9543 99.5259C62.2837 98.7668 64.0138 95.5871 65.508 92.205C66.075 90.9146 66.6131 89.5946 67.2422 88.3632C71.1246 90.3874 74.8332 92.884 77.8381 94.6636C86.53 99.8211 98.4876 109.47 107.101 113.151C112.32 115.378 113.417 110.853 115.702 106.843C122.274 95.3257 132.71 72.5135 139.883 61.8906C140.33 61.2369 141.721 59.5796 142.387 59.3772C143.521 59.0272 144.718 59.3561 145.703 59.9549C154.378 66.1752 165.317 71.0248 173.732 77.4011C175.677 78.8729 177.213 79.6826 176.816 82.4869C176.816 82.4869 172.286 90.945 170.691 93.4982Z" fill="#86B200"/>
<path d="M35.6038 35.8177C52.5778 33.2833 53.8899 53.5844 49.2666 65.3796C46.0465 73.603 43.0995 74.0374 34.6973 72.38C15.9021 68.6732 19.4989 38.2215 35.5996 35.8177H35.6038Z" fill="#E8AA7D"/>
<path d="M91.2858 58.8141C90.7809 62.1667 88.1112 63.9969 87.0723 64.7096C83.3845 67.2441 79.291 66.7718 76.8987 66.4977C76.0957 66.4049 74.7215 66.232 73.0742 65.7259C71.162 65.1397 68.8814 64.0981 66.7208 62.2046C65.3136 60.9732 62.1265 58.1857 61.3443 53.4499C61.2118 52.6613 60.6779 49.4395 62.0686 46.3104C62.379 45.5977 62.7929 44.8934 63.331 44.2187C63.8608 43.5524 65.5205 41.4818 68.4178 40.9968C68.989 40.904 71.2406 40.6004 73.2687 41.8318C74.0096 42.283 74.0386 42.5192 76.075 44.3916C76.075 44.3916 77.4119 45.6188 78.5874 46.5929C80.7604 48.3978 82.7222 49.5069 83.7942 50.11C88.0202 52.48 88.91 51.9022 90.1062 53.509C91.6915 55.6302 91.3562 58.2827 91.2776 58.8141H91.2858Z" fill="#00151A"/>
<path d="M73.157 64.0556C73.1321 64.6671 73.1073 65.2196 73.0784 65.7256C71.1661 65.1394 68.8855 64.0978 66.725 62.2043C65.3177 60.9729 62.1307 58.1854 61.3484 53.4496C61.216 52.661 60.682 49.4391 62.0727 46.3101C63.3434 46.9047 64.7051 47.8999 66.0255 48.8614C67.9005 50.232 70.3011 51.9863 71.8739 55.3557C73.3971 58.624 73.2687 61.5296 73.157 64.0514V64.0556Z" fill="#C2570A"/>
<path d="M84.0255 39.2535C85.0394 39.1695 85.7595 37.8255 85.6338 36.2516C85.5082 34.6777 84.5844 33.4699 83.5705 33.5539C82.5567 33.6379 81.8366 34.9819 81.9622 36.5558C82.0879 38.1297 83.0117 39.3375 84.0255 39.2535Z" fill="#00151A"/>
<path d="M77.5609 31.0358C77.2712 31.0611 76.9732 30.9598 76.7497 30.7363C76.3399 30.3273 76.3358 29.661 76.7372 29.2435C77.9665 27.9657 79.3738 26.8946 80.9176 26.0638C81.6999 25.6421 82.1221 25.4228 82.5608 25.2457C83.0906 25.0306 83.6949 25.2921 83.906 25.8318C84.1171 26.3716 83.8605 26.9873 83.3307 27.2024C82.9747 27.3458 82.5981 27.544 81.8862 27.9277C80.5327 28.6573 79.2952 29.5977 78.2149 30.7195C78.0328 30.9092 77.801 31.0104 77.5609 31.0315V31.0358Z" fill="#00151A"/>
<path d="M77.5816 137.855C77.0808 137.855 76.642 137.484 76.5593 136.965L72.6603 111.865C72.5693 111.292 72.9583 110.748 73.5212 110.659C74.0841 110.57 74.6181 110.963 74.705 111.536L78.6039 136.636C78.695 137.21 78.3059 137.754 77.743 137.842C77.6892 137.851 77.6354 137.855 77.5816 137.855Z" fill="#00151A"/>
<path d="M38.7536 202.356C38.7163 202.356 38.6832 202.356 38.6459 202.352C38.0789 202.293 37.665 201.774 37.7229 201.192L46.4563 115.72C46.5142 115.142 47.0233 114.716 47.5945 114.779C48.1615 114.838 48.5754 115.357 48.5175 115.939L39.7842 201.411C39.7304 201.955 39.2792 202.356 38.7536 202.356Z" fill="#00151A"/>
</g>
</g>
<defs>
<clipPath id="clip0_7555_2009">
<rect width="200" height="171.296" fill="white" transform="translate(0 0.472168)"/>
</clipPath>
<clipPath id="clip1_7555_2009">
<rect width="237.963" height="451.481" fill="white" transform="translate(-37.963 0.564941)"/>
</clipPath>
</defs>
</svg>
