<svg width="200" height="200" viewBox="0 0 200 200" fill="none" xmlns="http://www.w3.org/2000/svg">
<path d="M167.075 171.027C166.583 179.631 174.94 186.094 181.701 189.763C181.998 189.951 181.982 190.148 181.706 190.341C181.366 190.577 178.107 191.403 177.45 191.548C168.683 193.492 158.775 192.208 150.171 188.456C145.193 186.286 140.653 183.291 137.018 179.615C136.632 179.223 136.317 178.398 135.751 178.342C132.347 179.262 128.982 180.279 125.519 180.983C119.426 182.222 113.149 182.99 106.795 183.287C95.0326 183.84 83.0014 182.784 71.3729 180.123C54.6778 176.305 38.8115 169.175 25.749 158.754C24.0947 157.436 22.4852 156.063 20.924 154.638C-11.2883 125.211 -3.28892 77.0288 30.7137 54.2536C32.7171 52.9126 34.8101 51.6593 36.9907 50.5028C44.4476 46.5496 52.9608 43.4362 61.8589 41.1445C76.1317 37.4653 91.3946 35.8952 104.869 36.3499C109.268 36.4985 113.731 36.8906 118.204 37.528C129.093 39.0784 140.041 42.0809 150.269 46.5604C165.555 53.2546 179.234 63.2484 188.696 76.6206C205.625 100.551 202.761 126.303 184.148 148.101C179.393 153.671 167.492 163.731 167.075 171.027Z" fill="#C2E8F0"/>
<path d="M47.4447 16.1546C48.92 14.1995 51.7953 9.68781 54.6975 11.6501C57.8593 13.7878 53.6787 21.651 54.2123 22.2687C54.8944 22.1452 55.4387 21.4881 56.119 21.3574C61.6638 20.2832 59.8 28.3219 59.2575 31.3047C58.989 32.7871 32.4253 37.5012 32.1192 37.4868C31.4102 37.4546 30.6707 38.1636 30.4684 36.7546C29.6878 31.2886 29.7505 19.6548 32.2606 14.7581C33.5747 12.1925 36.6148 9.36913 38.9906 12.5524C39.8553 10.4451 40.7971 7.37108 43.4271 6.83218C48.954 5.70067 48.2396 12.8084 47.4465 16.151L47.4447 16.1546Z" fill="#E8AA7D"/>
<path d="M150.171 188.456C145.193 186.286 140.653 183.29 137.019 179.615C136.632 179.223 136.317 178.397 135.751 178.342C132.347 179.262 128.982 180.279 125.519 180.983C119.426 182.222 113.149 182.99 106.795 183.287C95.0327 183.84 83.0014 182.784 71.373 180.123C71.3945 177.995 71.4124 175.859 71.5216 173.748C71.5556 173.105 71.5896 172.459 71.629 171.809C72.0945 164.026 72.9754 155.737 74.5831 148.217C75.4264 144.275 76.7441 140.411 77.539 136.492C71.4804 130.593 65.6367 124.479 60.4715 117.768C47.5522 100.989 35.6606 77.0126 30.7138 54.2534C30.1068 51.4623 29.6037 48.689 29.217 45.9497C28.7104 42.3654 28.4006 38.8384 28.3147 35.4045C28.3004 34.7993 28.1947 34.2103 28.739 33.8451C29.2689 33.487 32.0941 32.6007 32.898 32.3573C38.1617 30.7603 45.3321 29.5804 50.8303 29.319C54.1586 29.1615 57.7447 29.1489 60.9441 30.1318C60.9799 32.5184 61.1285 34.8853 61.3702 37.236C61.5045 38.5448 61.6674 39.8464 61.859 41.1444C63.8517 54.701 68.7877 67.7152 73.9296 80.3534C78.6186 91.8744 85.7299 108.249 96.1338 115.529C96.6762 115.908 99.2275 117.588 99.6536 117.713C100.307 117.906 101.081 116.318 101.532 115.847C104.994 112.233 111.93 114.25 115.839 116.152C128.31 122.228 141.887 140.732 148.753 152.731C151 156.655 153.955 163.999 156.41 170.545C159.001 177.452 156.097 184.9 150.171 188.456Z" fill="#86B200"/>
<path d="M108.559 101.263C107.481 102.284 105.961 102.926 105.01 103.752C104.103 104.54 103.009 109.689 102.894 111.053C102.729 113.008 103.168 115.93 102.819 117.679C102.626 118.658 94.2968 124.393 92.8108 123.637C88.8845 121.641 86.2831 119.068 84.6754 114.902C74.5455 114.322 64.7862 108.326 61.483 98.8659C60.8492 97.054 60.4535 95.1169 60.3371 93.0651C60.2906 92.263 60.2852 91.4001 60.3174 90.487C60.4607 86.2438 61.3863 80.93 62.6897 75.6645C62.8991 74.8177 63.1176 73.9708 63.3449 73.1312C64.8739 67.4969 66.7646 62.1312 68.5119 58.443C80.1529 33.8595 114.626 42.0952 117.35 69.4394C118.472 80.6901 117.255 93.0275 108.555 101.263H108.559Z" fill="#E8AA7D"/>
<path d="M124.595 87.1692C125.191 88.4869 126.124 89.6166 126.804 90.8914C128.663 94.3736 130.851 100.151 128.683 103.854C126.824 107.028 123.408 105.318 121.51 103.137C122.595 108.72 121.834 115.217 115.615 117.131C111.884 118.28 102.488 117.935 101.92 112.775C101.371 107.773 105.352 103.197 107.202 98.8907C108.867 95.0181 109.631 90.4456 108.394 86.3349C107.581 83.6368 106.557 83.9698 105.03 82.0971C101.367 77.6015 102.06 71.3155 103.204 66.0375C103.37 65.2712 103.913 64.0824 103.94 63.4236C103.981 62.3475 101.242 60.1454 100.28 59.705C93.0077 56.3677 87.9321 66.836 82.1886 66.238C78.8639 65.8925 77.5587 62.4335 78.8173 59.5904C78.6257 59.6781 78.436 59.7694 78.2462 59.8643C74.2125 62.6555 69.5754 64.4638 64.5338 63.0619C59.279 61.601 57.0733 56.3086 59.2916 51.3977C60.5466 48.6136 63.0281 46.6783 66.0037 45.4393C66.1379 45.3713 66.2704 45.3086 66.4011 45.2495C68.8127 44.1646 71.4124 43.7456 74.0388 43.708C74.0442 43.708 74.0496 43.708 74.0549 43.708C76.1425 43.5935 78.1799 43.708 79.9828 44.0196C75.0611 38.7469 81.5566 36.7381 86.5212 37.055C93.2781 37.4901 102.328 39.2142 108.195 43.538C110.104 44.947 111.509 46.5225 112.542 48.064C115.198 52.0279 115.396 55.7536 115.412 55.7626C115.676 55.9237 118.929 55.4922 120.946 56.9854C120.946 56.9854 120.948 56.9854 120.946 56.9872C125.455 60.3209 125.193 64.0806 126.416 69.8259C127.41 74.4916 129.871 76.0295 131.334 79.689C133.309 84.6179 129.657 88.5478 124.592 87.171L124.595 87.1692Z" fill="#008099"/>
<path d="M121.294 79.7608C121.113 80.5987 120.458 83.5814 119.745 83.8983C118.601 84.405 114.843 85.7102 114.503 84.3924C114.377 83.9037 120.021 65.1156 115.412 55.7645C115.396 55.7555 115.197 52.0298 112.542 48.0659C116.073 50.2126 118.562 52.8193 120.443 56.0456C120.628 56.3607 120.798 56.674 120.948 56.9873C120.948 56.9873 120.95 56.9873 120.948 56.9891C121.159 57.4188 121.338 57.8449 121.485 58.2674C123.514 64.104 122.781 72.8231 121.294 79.7626V79.7608Z" fill="#00151A"/>
<path d="M61.4848 98.8659C58.9192 99.6913 55.4441 98.891 54.1783 96.2072C53.8811 95.5752 53.5034 94.1626 53.5034 94.1626C53.5034 94.1626 52.2197 93.1582 51.7524 92.596C48.3417 88.4979 49.518 81.6014 53.3583 78.2588C55.8756 76.0674 60.6917 73.7668 63.3504 73.1294C63.123 73.9709 62.9046 74.8177 62.6951 75.6628C61.5278 76.0978 60.2351 76.5633 59.9773 76.6797C57.2488 77.9025 54.3967 79.6069 52.8749 82.2979C51.4426 84.8277 51.3263 88.2132 52.866 90.7323C53.4711 91.7223 54.13 92.093 54.13 92.093C54.13 92.093 54.9553 91.4198 55.9329 90.9382C57.2094 90.3115 58.8333 90.1576 60.3229 90.4852C62.1437 90.8827 63.7568 91.9981 64.2778 93.8421C65.0226 96.4794 63.5509 98.1981 61.4866 98.8641L61.4848 98.8659Z" fill="#00151A"/>
<path d="M112.526 80.0813C126.88 78.6597 126.212 101.467 114.027 105.263C105.596 107.889 100.407 99.7771 101.763 92.1627C102.656 87.1478 107.087 80.6202 112.524 80.0813H112.526Z" fill="#E8AA7D"/>
<path d="M99.4835 100.577L98.8444 100.688C92.1842 97.4639 84.2403 101.612 82.339 108.593L81.8377 108.987C77.0395 108.099 70.2504 104.448 69.665 98.991C69.3212 95.7756 70.3346 92.4365 73.7756 91.5986C76.8336 90.852 80.366 92.4455 83.6603 92.2217C88.65 91.8815 95.0237 86.4853 99.2812 91.5968C101.589 94.3683 101.072 97.6447 99.4835 100.577Z" fill="#00151A"/>
<path d="M99.4835 100.577C96.234 106.579 88.5139 110.224 81.8376 108.988C83.6012 101.308 92.3167 96.7225 99.4835 100.577Z" fill="#D97126"/>
<path d="M87.5883 130.111C87.2428 129.232 88.197 127.329 88.5998 126.429C91.5969 119.724 100.554 112.292 108.237 112.962C115.69 113.61 122.595 119.767 127.44 125.05C128.72 126.447 131.612 129.637 132.435 131.164C133.171 132.527 88.0126 131.195 87.5883 130.111Z" fill="#86B200"/>
<path d="M94.6512 183.29C93.2261 183.264 90.2237 183.011 90.2129 183.011C89.5057 186.168 89.2372 192.495 85.6851 193.809C82.7614 194.888 80.7687 193.086 79.1055 190.948C78.6669 191.44 78.4019 191.718 78.0062 192.036C76.0225 193.639 73.7183 193.623 71.645 192.146C71.0023 191.687 69.4017 189.664 69.4017 189.664C69.4017 189.664 68.1306 190.916 67.631 191.234C66.2005 192.147 64.027 191.811 62.6878 190.88C57.2129 187.082 59.9074 175.513 63.9966 171.544C65.5596 170.026 68.3669 169.438 71.176 169.284C73.4086 169.164 75.6465 169.317 77.2596 169.499C83.1267 170.158 88.188 171.827 92.1859 176.424C93.7596 178.231 94.8804 182.741 94.6494 183.292L94.6512 183.29Z" fill="#E8AA7D"/>
<path d="M77.0574 74.4323C79.4118 74.0367 79.1146 79.3075 76.9626 79.2896C74.7711 79.2699 75.3996 74.7116 77.0574 74.4323Z" fill="#00151A"/>
<path d="M91.5505 79.9521C90.5658 79.1429 91.1566 75.7824 92.6551 75.5639C94.6209 75.2775 94.3148 79.594 93.1135 80.1849C92.494 80.4892 91.8996 80.2386 91.5505 79.9521Z" fill="#00151A"/>
<path d="M98.0172 74.0763C97.788 74.0745 97.5643 73.9617 97.4282 73.7576C96.9466 73.0325 96.4739 72.4202 95.1687 71.6843C94.3631 71.2296 93.4518 70.9467 92.4617 70.8464C92.0678 70.807 91.7814 70.4561 91.8208 70.0623C91.8601 69.6684 92.2129 69.3837 92.6049 69.4213C93.7937 69.5413 94.893 69.8832 95.8742 70.4364C97.4497 71.3263 98.0727 72.1391 98.6206 72.9644C98.839 73.2939 98.7513 73.7379 98.4218 73.9581C98.2983 74.0404 98.1569 74.0798 98.019 74.078L98.0172 74.0763Z" fill="#00151A"/>
<path d="M71.9459 71.9672C71.774 71.9672 71.6022 71.9027 71.4679 71.7774C71.1778 71.5088 71.1599 71.0559 71.4285 70.7658L71.5323 70.6513C72.1196 70.0121 72.85 69.2154 74.5097 68.5995C75.6985 68.1573 76.9052 68.1591 77.9275 68.2181C78.3232 68.2414 78.624 68.5798 78.6007 68.9755C78.5774 69.3711 78.239 69.6755 77.8434 69.6486C76.9697 69.5985 75.9492 69.5931 75.0074 69.9423C73.67 70.4382 73.1186 71.0398 72.5869 71.6198L72.4794 71.738C72.3362 71.892 72.1411 71.9708 71.9459 71.9672Z" fill="#00151A"/>
<path d="M86.5732 87.1639C86.2814 87.1603 86.0092 86.9795 85.9054 86.6876C85.7192 86.1649 85.3396 85.429 84.5895 84.8901C82.9495 83.7085 80.8924 84.5141 80.8046 84.5499C80.1673 84.806 79.589 85.2339 79.1271 85.7889C78.8746 86.0932 78.4235 86.1344 78.1191 85.882C77.8147 85.6295 77.7736 85.1784 78.026 84.874C78.6383 84.1364 79.4135 83.5652 80.2711 83.2197C80.5629 83.1015 83.1912 82.1186 85.4256 83.7264C86.4747 84.4819 86.9975 85.4917 87.2535 86.206C87.386 86.5784 87.1927 86.9884 86.8203 87.1209C86.7379 87.1496 86.6556 87.1639 86.5732 87.1621V87.1639Z" fill="#00151A"/>
<path d="M120.715 168.251L113.067 170.953C112.986 170.982 112.902 170.994 112.822 170.994C112.53 170.991 112.256 170.808 112.154 170.516C112.021 170.142 112.217 169.734 112.591 169.601L116.531 168.21L106.113 150.226C105.915 149.884 106.031 149.447 106.373 149.247C106.715 149.05 107.152 149.164 107.352 149.506L117.906 167.725L120.241 166.901C120.613 166.769 121.023 166.964 121.156 167.338C121.287 167.711 121.091 168.121 120.719 168.251H120.715Z" fill="#00151A"/>
</svg>
