<svg width="143" height="200" viewBox="0 0 143 200" fill="none" xmlns="http://www.w3.org/2000/svg">
<g clip-path="url(#clip0_7555_3360)">
<path d="M69.1409 105.173C85.8546 106.673 104.227 106.114 115.291 114.809C121.405 119.614 127.873 131.855 131.359 150.186C133.314 160.473 134.427 177.191 133.545 187.518C133.091 192.836 126.314 195.35 122.032 196.295C99.7818 201.205 57.6637 201.045 34.5137 196.914C21.5955 194.609 7.75002 189.082 2.5682 186.441C1.27275 185.782 0.531839 184.382 0.709112 182.936C1.33184 177.923 2.80002 166.355 3.65456 162.236C9.23184 135.368 17.2409 114.359 30.4364 106.995C40.4227 101.423 56.4591 104.032 69.1409 105.168V105.173Z" fill="#C2E8F0"/>
<path d="M120.964 98.023C120.927 98.4548 120.905 98.7548 120.895 98.923C121.164 99.0912 121.414 99.2548 121.655 99.4184C125.605 102.109 126.123 104.655 123.591 115.459C121.191 115.905 118.614 116.25 115.891 116.518C115.114 116.596 114.323 116.664 113.514 116.728C93.6045 118.287 67.1272 115.814 49.4727 112.8C45.4727 112.118 28.2818 109.041 20.8227 105.978C20.1772 105.714 19.6 105.45 19.1181 105.182C18.3045 104.741 17.7318 104.305 17.4863 103.878C17.9 90.8548 22.9227 89.2957 24.4772 89.1275C24.7681 89.0912 24.9363 89.1093 24.9363 89.1093C24.9363 89.1093 24.9818 88.823 25.0681 88.2866C25.3681 86.2957 26.1681 80.8457 27.0545 73.623C30.0636 49.1048 31.4227 34.7775 35.5636 14.0275C36.8045 7.81843 37.2454 7.07752 45.0727 6.75479C69.65 5.75933 93.0818 8.22752 112.95 12.5412C125.164 15.1866 126.632 16.1821 126.491 22.6684C126.273 32.773 125.582 44.9639 124.736 55.3048C123.673 68.2957 121.405 92.7048 120.964 98.0275V98.023Z" fill="#86B200"/>
<path d="M102.964 101.15C102.473 101.15 102.068 100.754 102.059 100.259C102.05 99.7588 102.45 99.3497 102.95 99.3406C109.264 99.2452 115.259 98.8043 120.768 98.0315C121.264 97.9588 121.723 98.3088 121.791 98.7997C121.859 99.2952 121.514 99.7543 121.023 99.8225C115.436 100.604 109.368 101.054 102.977 101.15H102.964Z" fill="#00151A"/>
<path d="M71.6182 99.3002C71.5818 99.3002 71.5455 99.3002 71.5136 99.2956C63.3773 98.3456 55.0318 97.0547 46.7046 95.4592C38.25 93.8411 30.3546 91.5274 25.1273 89.9956C24.6455 89.8547 24.3727 89.3502 24.5136 88.8729C24.6546 88.3911 25.1591 88.1183 25.6364 88.2592C30.8273 89.782 38.6773 92.082 47.0455 93.682C55.3318 95.2683 63.6318 96.5502 71.7273 97.4956C72.2227 97.5547 72.5773 98.0047 72.5227 98.5002C72.4682 98.9592 72.0773 99.3002 71.6273 99.3002H71.6182Z" fill="#00151A"/>
<path d="M120.473 10.1045C120.014 10.1045 119.623 9.75904 119.573 9.29086L118.723 0.99995C118.673 0.504496 119.032 0.059041 119.532 0.00904099C120.032 -0.040959 120.473 0.318132 120.523 0.818132L121.373 9.10904C121.423 9.6045 121.064 10.0499 120.564 10.0999C120.532 10.0999 120.5 10.1045 120.468 10.1045H120.473Z" fill="#C2E8F0"/>
<path d="M129.555 12.059C129.386 12.059 129.218 12.0135 129.064 11.9135C128.645 11.6408 128.523 11.0817 128.791 10.6635L134.073 2.46806C134.345 2.04987 134.905 1.92715 135.323 2.19533C135.741 2.46806 135.864 3.02715 135.595 3.44533L130.314 11.6408C130.141 11.909 129.85 12.0544 129.55 12.0544L129.555 12.059Z" fill="#C2E8F0"/>
<path d="M133.25 19.0408C132.782 19.0408 132.386 18.6772 132.35 18.2045C132.314 17.7045 132.686 17.2727 133.182 17.2318L141.25 16.6227C141.75 16.5818 142.182 16.959 142.223 17.4545C142.259 17.9545 141.886 18.3863 141.391 18.4272L133.323 19.0363C133.3 19.0363 133.277 19.0363 133.255 19.0363L133.25 19.0408Z" fill="#C2E8F0"/>
<path d="M119.909 110.146C118.659 112.346 117.318 114.473 115.891 116.518C109.682 125.405 101.823 132.818 92.8546 138.2C86.5 142.014 74.6364 149.132 60.1637 149.132C56.5727 149.132 52.8182 148.691 48.95 147.659C32.3591 143.218 24.9773 133.664 21.7091 126.427C18.1182 118.468 18.2182 110.709 19.1182 105.173C19.6046 105.441 20.1773 105.705 20.8227 105.968C20.05 111.205 20.0591 118.364 23.3591 125.682C26.4637 132.559 33.5091 141.65 49.4182 145.905C68.1409 150.914 84.2 141.277 91.9227 136.641C100.255 131.641 107.605 124.841 113.514 116.718C115.014 114.659 116.423 112.514 117.732 110.291L113.286 109.227C112.8 109.109 112.505 108.627 112.618 108.136C112.736 107.65 113.223 107.355 113.709 107.468L119.332 108.814C119.609 108.882 119.836 109.073 119.95 109.332C120.064 109.596 120.045 109.891 119.905 110.136L119.909 110.146Z" fill="#00151A"/>
<path d="M10.5364 190.027C10.4909 190.027 10.4455 190.027 10.4 190.018C9.90454 189.946 9.56363 189.482 9.63636 188.991C11.0955 179.214 12.9045 167.909 15.2773 158.168C16.7227 152.236 18.2955 146.514 20.0727 140.677C20.2182 140.2 20.7227 139.927 21.2 140.077C21.6773 140.223 21.9455 140.727 21.8 141.205C20.0318 147.014 18.4682 152.7 17.0318 158.6C14.6727 168.268 12.8727 179.523 11.4227 189.259C11.3545 189.709 10.9682 190.032 10.5273 190.032L10.5364 190.027Z" fill="#00151A"/>
<path d="M104.764 198.055C104.264 198.055 103.859 197.65 103.859 197.155C103.832 188.518 103.795 177.773 102.555 166.518C101.655 158.364 100.532 151.718 98.9091 144.968C98.7909 144.482 99.0909 143.995 99.5773 143.877C100.064 143.759 100.55 144.059 100.668 144.545C102.309 151.373 103.445 158.091 104.355 166.323C105.609 177.673 105.641 188.473 105.673 197.155C105.673 197.655 105.273 198.059 104.773 198.064L104.764 198.055Z" fill="#00151A"/>
<path d="M61.6773 129.841C62.7166 129.841 63.5591 128.998 63.5591 127.959C63.5591 126.92 62.7166 126.077 61.6773 126.077C60.638 126.077 59.7955 126.92 59.7955 127.959C59.7955 128.998 60.638 129.841 61.6773 129.841Z" fill="#00151A"/>
<path d="M57.6682 160.5C58.7075 160.5 59.55 159.657 59.55 158.618C59.55 157.579 58.7075 156.736 57.6682 156.736C56.6289 156.736 55.7864 157.579 55.7864 158.618C55.7864 159.657 56.6289 160.5 57.6682 160.5Z" fill="#00151A"/>
<path d="M54.9227 191.159C55.962 191.159 56.8045 190.317 56.8045 189.277C56.8045 188.238 55.962 187.396 54.9227 187.396C53.8834 187.396 53.0409 188.238 53.0409 189.277C53.0409 190.317 53.8834 191.159 54.9227 191.159Z" fill="#00151A"/>
</g>
<defs>
<clipPath id="clip0_7555_3360">
<rect width="143" height="200" fill="white"/>
</clipPath>
</defs>
</svg>
