<svg width="200" height="200" viewBox="0 0 200 200" fill="none" xmlns="http://www.w3.org/2000/svg">
<g clip-path="url(#clip0_7555_3304)">
<path d="M28.9629 132.759C47.5278 131.521 72.4392 134.033 90.2969 139.297C95.6268 140.868 107.847 144.616 99.3093 151.373C90.767 158.134 65.7917 156.946 55.066 156.491C42.9051 155.975 11.5505 154.169 2.4804 146.447C-0.474241 143.932 -1.12166 140.55 2.36906 138.159C6.74225 135.165 23.2185 133.138 28.9608 132.757L28.9629 132.759Z" fill="#00404D"/>
<path d="M67.1485 43.46C66.8103 43.693 64.3464 41.4415 63.6454 41.0126C47.2784 30.992 25.2907 47.8868 35.4433 66.4992C40.233 75.2827 50.3217 77.5074 59.6289 75.8414C62.1361 86.5157 67.1526 96.8002 74.5485 104.907C69.4784 114.421 64.5876 124.365 58.2413 133.105C55.2433 137.233 51.7959 143.606 46.5567 138.109C41.5237 132.827 35.7773 123.788 31.7485 117.516C20.3732 99.8105 9.67836 78.7961 13.4763 57.0085C17.8309 32.027 47.4577 12.2518 71.2103 26.2971C72.4309 27.0188 76.3835 29.4105 75.8371 30.8456C72.7382 34.8662 69.0949 38.6909 67.1485 43.46Z" fill="#86B200"/>
<path d="M98.0577 16.3281C118.693 14.5858 142.641 31.1054 149.528 50.4311C152.732 59.4188 152.773 72.3281 150.713 81.594C150.369 83.1466 148.229 89.2538 148.654 90.1012C148.911 90.6167 152.81 93.1074 153.631 93.6476C166.967 102.398 184.039 111.048 196.26 120.8C200.66 124.312 200.713 126.858 198.794 132.07C197.165 136.493 188.592 148.312 183.909 149.196C181.392 149.672 179.687 147.802 177.804 146.411C169.107 139.98 159.847 131.472 151.557 124.322C145.291 118.918 139.274 113.2 132.965 107.839C127.229 112.079 121.078 115.926 114.122 117.848C74.2495 128.864 38.8557 91.6023 52.4247 52.3899C58.9113 33.6456 78.1443 18.0085 98.0577 16.3281Z" fill="#22A8C3"/>
<path d="M95.7092 109.142C84.9938 108.487 74.4412 103.355 66.6804 92.4497C65.1319 90.2765 63.8639 87.9734 62.8639 85.5878C56.0721 69.4662 61.3092 49.4084 73.6103 37.3631C78.4144 32.66 84.2948 29.1816 90.9546 27.6353C92.4886 27.2786 94.0618 27.027 95.6742 26.8827C115.806 25.0992 137.707 39.6992 140.631 60.3548C144.746 89.4332 119.812 110.613 95.7092 109.142Z" fill="#C2E8F0"/>
<path d="M98.4 104.846C98.0309 105.472 96.835 107.406 95.7072 109.142C84.9917 108.487 74.4391 103.355 66.6783 92.4497C65.1299 90.2765 63.8618 87.9734 62.8618 85.5878C77.2845 79.794 82.5752 63.2023 79.1732 48.627C78.2556 44.6992 76.369 40.5383 73.6082 37.3631C78.4123 32.66 84.2927 29.1816 90.9525 27.6353C98.7876 37.1198 104.616 52.3878 105.903 63.0847C107.637 77.5033 105.81 92.2311 98.3979 104.846H98.4Z" fill="#608000"/>
<path d="M171.338 86.6597C171.503 86.802 172.928 86.6638 173.474 86.738C178.629 87.4514 183.245 89.4391 185.557 94.3978C186.012 95.3752 186.606 98.3958 186.773 98.6288C187.082 99.0597 188.505 98.9442 189.249 99.2164C197.13 102.086 197.783 112.072 195.899 118.959C189.903 140.87 162.99 169.884 143.282 180.717C139.619 182.732 136.693 184.152 132.336 183.719C125.408 183.031 110.153 173.13 109.039 165.827C108.394 161.59 112.212 151.416 113.276 146.618C115.431 136.899 116.033 127.272 115.87 117.317C122.219 115.179 127.485 111.691 132.965 107.837C133.986 108.616 135.569 110.303 136.773 110.884C137.6 111.284 139.14 109.206 139.825 108.489C144.13 103.969 147.783 98.6947 150.81 93.2473C151.297 91.2947 148.353 90.4989 148.322 90.0886C149.006 87.169 150.262 80.538 151.429 79.5834C152.334 78.8453 156.27 77.936 157.522 77.8514C162.816 77.4927 168.305 80.2576 170.808 84.9772C171.062 85.4556 171.27 86.602 171.336 86.6597H171.338Z" fill="#E8AA7D"/>
<path d="M132.548 114.365C132.144 114.365 131.757 114.14 131.567 113.755C131.301 113.212 131.524 112.559 132.064 112.291C135.188 110.752 140.417 108.177 146.225 99.3958C150.118 93.5112 150.625 90.7813 151.392 86.6494L151.495 86.0947C151.606 85.5009 152.177 85.1112 152.771 85.2205C153.365 85.3318 153.755 85.903 153.643 86.4968L153.54 87.0494C152.753 91.2865 152.184 94.3483 148.045 100.602C141.909 109.878 136.348 112.616 133.027 114.251C132.872 114.328 132.707 114.365 132.544 114.365H132.548Z" fill="#00151A"/>
<path d="M163.26 111.4C163.017 111.4 162.773 111.319 162.571 111.154C162.103 110.773 162.031 110.086 162.412 109.616C165.47 105.853 167.72 101.604 169.099 96.9854C170.515 92.239 170.4 89.841 170.264 87.0637L170.247 86.7091C170.219 86.107 170.685 85.5936 171.287 85.5647C171.887 85.5359 172.402 86.0019 172.431 86.6039L172.447 86.9565C172.586 89.8101 172.718 92.507 171.192 97.6101C169.73 102.505 167.346 107.008 164.107 110.994C163.891 111.26 163.575 111.398 163.258 111.398L163.26 111.4Z" fill="#00151A"/>
<path d="M178.388 122.056C178.144 122.056 177.899 121.975 177.697 121.808C177.229 121.427 177.161 120.738 177.542 120.27L177.705 120.072C179.858 117.439 181.718 115.165 183.67 109.926C185.656 104.596 185.839 102.439 186.118 99.1774C186.155 98.7444 186.194 98.2969 186.237 97.8206C186.293 97.2206 186.825 96.7794 187.427 96.833C188.029 96.8887 188.47 97.4207 188.415 98.0227C188.371 98.4928 188.332 98.9361 188.297 99.3629C188.012 102.683 187.808 105.078 185.72 110.689C183.641 116.268 181.582 118.788 179.398 121.456L179.237 121.654C179.021 121.918 178.707 122.056 178.39 122.056H178.388Z" fill="#00151A"/>
</g>
<defs>
<clipPath id="clip0_7555_3304">
<rect width="200" height="200" fill="white"/>
</clipPath>
</defs>
</svg>
