<svg width="200" height="110" viewBox="0 0 200 110" fill="none" xmlns="http://www.w3.org/2000/svg">
<g clip-path="url(#clip0_7584_1173)">
<path d="M199.719 55.6962C199.685 60.4978 199.524 74.7841 199.503 77.049C199.483 79.077 199.462 84.0528 199.385 85.1539C198.876 92.0461 196.737 92.297 191.19 92.7221C177.99 93.7117 97.555 93.2169 53.4068 92.9173C51.5671 92.9033 49.79 92.8964 48.0826 92.8824C37.1553 92.7988 29.1271 92.743 25.9493 92.7361H24.6461C23.775 92.75 22.8899 92.757 21.9979 92.7639C14.6805 92.8058 7.07044 92.6176 4.71494 91.6071C2.7288 90.7569 1.73224 89.2237 1.24442 87.4327C0.70781 85.4535 0.805374 79.3697 0.826281 78.5055H0.83325C0.721747 75.7319 0.638121 72.6447 0.610245 69.641C0.547524 63.8847 0.707809 58.3584 1.4047 55.6614C2.98665 49.5496 16.4646 50.1768 25.0781 50.2047C28.7159 40.2113 32.2561 30.1342 36.0333 20.1826C37.678 15.8479 39.4481 10.3006 41.5248 6.26562C43.2043 3.01113 44.7932 2.04942 48.4171 1.45009C55.4278 0.272343 64.5641 0.822886 71.8048 0.829855C91.8614 0.843793 135.006 0.850761 164.087 0.913482C164.722 0.92045 165.349 0.920452 165.969 0.920452C166.255 0.920452 169.927 0.976204 174.506 1.04589C182.513 1.1783 193.266 1.35949 193.406 1.36646C194.423 1.44312 195.336 1.55462 196.165 1.90307C196.925 2.22364 197.622 2.74631 198.235 3.63136C199.991 6.13321 199.441 11.0672 199.58 14.1196C199.671 16.1615 199.719 20.524 199.747 25.6811C199.81 38.2948 199.719 55.6962 199.719 55.6962Z" fill="#C2570A"/>
<path d="M199.747 25.6811C189.747 46.6784 172.764 68.9511 146.491 74.5402C129.048 78.2477 109.054 72.1708 90.2794 70.2543C69.728 68.1497 60.8008 74.798 54.2709 90.7848C53.9434 91.5792 53.6577 92.2901 53.4068 92.9173C51.567 92.9033 49.7899 92.8964 48.0825 92.8824C37.1553 92.7988 29.127 92.743 25.9492 92.7361C34.3537 74.8468 49.9502 57.3618 69.958 53.5568C88.0563 50.1211 122.65 59.0134 138.874 55.4035C152.191 52.4348 161.502 38.1624 167.377 25.6044C169.711 20.5937 173.063 10.5027 174.506 1.0459C182.513 1.17831 193.266 1.3595 193.406 1.36647C194.423 1.44313 195.336 1.55463 196.165 1.90307C196.925 2.22364 197.622 2.74632 198.235 3.63137C199.991 6.13321 199.441 11.0672 199.58 14.1196C199.671 16.1615 199.719 20.524 199.747 25.6811Z" fill="#B24A00"/>
<path d="M199.712 55.703C199.678 60.5046 199.636 65.1389 199.594 69.2506C194.061 70.8256 190.186 66.8812 190.73 60.9715C191.273 55.0619 196.312 55.703 199.712 55.703Z" fill="#E8AA7D"/>
<path d="M7.24461 64.7909C5.86477 68.2475 4.39432 69.4601 0.603226 69.6413C0.540505 63.8849 0.70079 58.3586 1.39768 55.6616C8.0112 55.1877 9.50952 59.1321 7.25158 64.7909H7.24461Z" fill="#E4F0C2"/>
<path d="M99.7711 12.7118C115.932 12.0428 186.255 12.8233 191.001 13.3878C194.033 13.7502 193.761 16.4123 193.907 18.6006C194.207 23.1304 194.068 31.5628 193.789 36.1204C193.698 37.6327 193.392 40.8314 192.507 41.9743C191.503 43.2636 188.116 43.5842 186.506 43.6887C170.541 44.7062 118.246 43.6469 106.817 43.5842C104.663 43.5702 99.1369 43.5981 96.9417 43.1382C94.1123 42.5458 93.959 39.5631 93.8057 37.1379C93.499 32.3851 93.4572 23.207 93.8196 18.4891C94.1611 14.0708 95.3946 12.9 99.7571 12.7188H99.7711V12.7118Z" fill="#99D9E5"/>
<path d="M79.819 13.0391C83.2338 13.4085 83.2129 15.98 83.4011 18.8791C83.7356 24.1337 83.7913 34.0435 83.4011 39.2562C83.1223 43.0264 81.6867 43.6745 78.1047 43.9533C73.331 44.3227 49.0861 44.4829 41.2321 43.9533C37.0159 43.6676 34.6604 43.3749 35.866 38.5942C36.8556 34.6568 42.0893 19.123 44.0824 15.8894C44.5563 15.1159 46.2427 13.4433 48.2916 13.3667C57.2885 13.0531 75.0383 12.5234 79.819 13.0322V13.0391Z" fill="#99D9E5"/>
<path d="M84.4394 52.7412H77.3451C77.129 52.7412 76.9478 52.567 76.9478 52.344C76.9478 52.121 77.1221 51.9468 77.3451 51.9468H84.4394C84.6555 51.9468 84.8367 52.121 84.8367 52.344C84.8367 52.567 84.6624 52.7412 84.4394 52.7412Z" fill="#00151A"/>
<path d="M99.4575 52.7412H92.3631C92.1471 52.7412 91.9659 52.567 91.9659 52.344C91.9659 52.121 92.1401 51.9468 92.3631 51.9468H99.4575C99.6735 51.9468 99.8547 52.121 99.8547 52.344C99.8547 52.567 99.6805 52.7412 99.4575 52.7412Z" fill="#00151A"/>
<path d="M88.6069 74.4844C88.3908 74.4844 88.2096 74.3102 88.2096 74.0872V9.50612C88.2096 9.29008 88.3839 9.10889 88.6069 9.10889C88.8299 9.10889 89.0041 9.28311 89.0041 9.50612V74.0872C89.0041 74.3032 88.8299 74.4844 88.6069 74.4844Z" fill="#00151A"/>
<path d="M160.136 66.9161C169.823 68.2053 175.196 73.2578 177.489 81.0839C180.645 91.8579 173.99 104.221 163.802 107.58C139.557 115.573 124.232 81.286 147.689 68.9301C150.345 67.5363 157.153 66.5119 160.136 66.9091V66.9161Z" fill="#006A80"/>
<path d="M41.469 67.6898C52.4939 66.8605 64.5501 77.6902 63.4212 89.0286C61.7904 105.315 43.8385 115.908 29.6846 105.789C13.5654 94.2693 22.9805 69.0696 41.469 67.6898Z" fill="#006A80"/>
</g>
<defs>
<clipPath id="clip0_7584_1173">
<rect width="200" height="109.524" fill="white" transform="translate(0 0.473633)"/>
</clipPath>
</defs>
</svg>
