<svg width="200" height="159" viewBox="0 0 200 159" fill="none" xmlns="http://www.w3.org/2000/svg">
<g clip-path="url(#clip0_7552_6752)">
<path d="M102.636 129.925C102.636 129.925 114.643 138.9 115.346 139.749C115.756 140.241 112.496 146.731 112.496 146.731C112.496 146.731 113.226 148.767 112.725 150.203C112.324 151.35 111.232 151.299 111.232 151.299C111.232 151.299 111.431 153.415 110.38 154.664C109.748 155.415 108.274 155.083 108.274 155.083C108.274 155.083 107.877 157.878 105.553 157.878C104.47 157.878 103.643 156.818 103.643 156.818C103.643 156.818 99.8434 157.679 96.6905 156.111C91.7939 153.674 91.2442 150.122 89.3178 145.849C88.6571 144.384 87.087 142.905 86.4299 141.33C87.0888 140.728 97.8399 130.061 97.8399 130.061L100.422 132.208L102.638 129.923L102.636 129.925Z" fill="#E8AA7D"/>
<path d="M112.967 150.971C112.653 151.388 112.184 151.696 111.597 151.87C111.622 152.462 111.558 153.089 111.341 153.744C111.189 154.193 110.911 155.03 110.063 155.527C109.665 155.764 109.196 155.887 108.7 155.887C108.636 155.887 108.571 155.884 108.507 155.88C108.5 155.88 108.491 155.88 108.484 155.876C108.407 156.138 108.296 156.405 108.14 156.662C107.619 157.532 106.942 158.053 106.128 158.216C105.966 158.249 105.811 158.261 105.655 158.261C104.332 158.261 103.293 157.183 102.982 156.822C102.144 155.841 101.455 154.779 101.183 154.039C101.179 154.032 101.179 154.031 101.175 154.023C101.166 153.995 101.156 153.968 101.152 153.939C101 153.218 100.977 152.496 101.091 151.8C101.279 150.602 101.856 149.689 102.803 148.178C103.039 147.802 103.227 147.517 103.388 147.275C103.741 146.747 103.934 146.457 104.165 145.881C104.395 145.301 104.627 144.518 104.441 144.049C104.221 143.509 103.7 143.26 103.6 143.215C102.971 142.943 102.321 143.176 102.008 143.29C101.038 143.636 99.9329 144.876 98.7334 146.973C98.0244 148.212 97.4103 149.53 96.909 150.888C96.8177 151.141 96.5402 151.27 96.2877 151.177C96.0353 151.084 95.9064 150.804 95.9995 150.555C96.5169 149.141 97.1543 147.775 97.8919 146.491C99.8792 143.022 101.235 142.536 101.682 142.375C101.695 142.372 101.705 142.368 101.718 142.363C101.693 142.282 101.689 142.191 101.711 142.101C101.747 141.958 101.911 141.212 101.449 140.558C101.34 140.402 101.029 140.024 100.533 139.894C100.355 139.845 99.8183 139.702 98.6045 140.474C97.8185 140.972 96.8141 141.804 95.3138 144.189C94.6245 145.283 93.9997 146.445 93.4554 147.635C93.3712 147.813 93.1958 147.92 93.0114 147.92C92.9433 147.92 92.8753 147.907 92.8109 147.875C92.5656 147.766 92.4581 147.478 92.5709 147.234C93.1313 146.001 93.7777 144.805 94.4902 143.675C96.0962 141.122 97.2062 140.209 98.0817 139.656C98.1533 139.611 98.2249 139.568 98.2912 139.53C98.0584 139.197 97.609 138.709 96.9323 138.524C96.4202 138.385 95.7614 138.488 94.9718 138.836C93.9889 139.269 92.8484 140.363 91.7689 141.92C91.0957 142.887 90.4941 143.885 89.9373 146.296C89.8854 146.52 89.6849 146.672 89.4647 146.672C89.4288 146.672 89.393 146.669 89.3554 146.663C89.0958 146.602 88.9311 146.339 88.9938 146.081C89.59 143.505 90.2685 142.382 90.9739 141.369C92.1717 139.645 93.4196 138.46 94.5851 137.948C95.5949 137.504 96.4489 137.387 97.1901 137.588C98.241 137.88 98.882 138.653 99.1702 139.095C99.7664 138.868 100.293 138.827 100.782 138.959C101.584 139.172 102.069 139.758 102.241 139.998C102.817 140.814 102.771 141.69 102.697 142.137C103.082 142.101 103.53 142.134 103.988 142.33C104.215 142.431 104.989 142.823 105.342 143.689C105.594 144.314 105.503 145.152 105.066 146.246C104.801 146.916 104.574 147.256 104.199 147.818C104.04 148.054 103.856 148.332 103.626 148.699C102.644 150.265 102.203 150.996 102.051 151.957C101.96 152.523 101.976 153.112 102.096 153.708V153.715C102.328 154.344 102.962 155.318 103.72 156.197C103.981 156.501 104.907 157.475 105.94 157.271C106.473 157.164 106.933 156.795 107.306 156.174C107.859 155.244 107.658 154.222 107.467 153.232C107.254 152.122 106.794 151.073 106.108 150.11C105.952 149.889 106.004 149.585 106.224 149.429C106.441 149.274 106.745 149.325 106.901 149.546C107.667 150.623 108.179 151.802 108.419 153.048C108.528 153.613 108.656 154.251 108.632 154.915C108.885 154.927 109.241 154.892 109.57 154.698C110.104 154.381 110.292 153.816 110.419 153.443C110.629 152.813 110.663 152.194 110.611 151.612C110.607 151.572 110.604 151.535 110.598 151.495C110.557 151.094 110.475 150.713 110.389 150.357C109.948 148.582 109.175 146.846 108.088 145.195C107.943 144.971 108.004 144.67 108.228 144.522C108.455 144.377 108.752 144.438 108.901 144.662C110.047 146.405 110.865 148.244 111.33 150.124C111.391 150.369 111.447 150.625 111.492 150.89C111.796 150.774 112.032 150.606 112.197 150.389C112.575 149.891 112.55 149.091 112.093 147.539C111.617 145.915 111.067 144.273 109.597 142.101C108.491 140.467 107.134 139.027 105.562 137.829C105.352 137.668 105.309 137.36 105.471 137.149C105.632 136.936 105.94 136.893 106.151 137.056C107.807 138.322 109.237 139.836 110.403 141.557C111.95 143.842 112.546 145.632 113.024 147.265C113.5 148.887 113.654 150.074 112.965 150.976L112.967 150.971Z" fill="#00151A"/>
<path d="M100.202 21.617C100.202 21.617 101.63 23.0565 101.507 24.897C101.442 25.8638 100.022 26.8664 100.022 26.8664C100.022 26.8664 100.903 29.4714 99.1201 30.2269C96.6978 31.2528 94.6567 29.0488 94.6567 29.0488C94.6567 29.0488 93.7454 29.953 92.9398 30.0711C90.6696 30.4041 86.8561 26.3651 84.9243 25.042C83.6979 24.2023 82.3068 23.7476 81.1431 22.8273C81.8091 22.1953 86.1991 9.04865 87.66 8.91795C88.2956 8.86066 92.5656 11.3833 93.4554 11.924C95.9924 13.4655 102.447 17.4634 101.197 21.0262C101.005 21.5723 100.205 21.6152 100.205 21.6152L100.202 21.617Z" fill="#E8AA7D"/>
<path d="M93.1296 136.928C92.8396 137.429 90.4065 140.156 89.9553 139.742C90.4709 138.435 91.726 137.246 93.1296 136.928Z" fill="#F7E0D1"/>
<path d="M44.4567 122.818C44.206 126.187 43.9214 129.299 44.4424 132.677C32.6134 135.664 20.6502 133.85 9.65555 128.875C8.14627 128.191 0.43516 124.084 0.0788773 122.922C-0.438539 121.237 1.70274 115.975 2.66954 114.342C2.93809 113.889 42.618 122.642 44.4567 122.818Z" fill="#E4F0C2"/>
<path d="M95.6003 127.755C96.2413 127.17 99.122 130.137 98.9644 130.566C96.2789 134.45 95.8205 135.678 91.939 139.327C90.2865 140.881 86.883 142.959 86.883 142.959C86.883 142.959 84.1455 139.914 83.2611 138.863C84.1187 137.887 94.6192 128.454 95.5985 127.755H95.6003Z" fill="#E4F0C2"/>
<path d="M84.2351 7.90804C84.0686 7.61621 82.9926 7.67529 83.2558 6.78369C84.6666 7.10596 88.5678 7.80241 88.5624 9.40658C88.5553 11.3706 84.8403 24.1252 83.4438 24.3347C81.9345 23.5469 79.9418 23.6346 78.676 22.4762C79.3027 21.4665 80.1352 22.5353 80.9122 22.2775C82.2174 21.8442 85.03 9.3099 84.2351 7.90804Z" fill="#E4F0C2"/>
<path d="M74.1373 60.3552C73.3675 63.329 71.5073 66.1077 68.4458 68.6822C64.2169 72.2397 60.6863 73.4303 55.5963 70.648C54.275 71.8995 54.4755 75.26 52.5813 75.7613C52.5133 75.7792 52.3199 75.815 52.0299 75.8634C51.9619 75.8759 51.8885 75.8884 51.8097 75.9028H51.8079C51.5501 75.7452 51.2959 75.6056 51.0506 75.4874C47.1368 73.6003 42.4801 73.842 38.4768 75.5751C38.33 75.1043 38.2136 74.7068 38.194 74.5904C38.0382 73.6917 38.0203 72.3954 38.0973 71.4841C38.2208 70.0304 39.4991 67.8228 39.449 67.3215C39.4007 66.8184 38.2602 65.4237 37.9397 64.6163C35.068 57.394 37.3203 49.2012 44.1612 45.5167C44.5569 45.3036 44.9669 45.1067 45.393 44.924C46.1682 44.5946 48.741 44.0217 48.8932 43.8266C49.117 43.5383 47.8566 39.245 50.4383 36.9193C52.9949 34.6187 53.8901 36.8405 55.5784 38.16C57.1092 39.356 58.7527 40.4517 60.4464 41.4042C61.3022 41.8858 63.3432 42.7881 65.4791 43.7549C67.5434 44.6877 69.6972 45.6778 70.9577 46.4029C70.4653 46.8738 69.9944 47.3733 69.5451 47.8943C66.6303 51.2691 64.5678 55.6036 63.0908 60.3677C62.8455 61.1573 61.6245 65.3951 63.0299 67.4433C64.02 68.8863 64.8865 69.3267 65.66 68.786C65.8605 68.6947 66.4173 68.2364 67.1173 67.6169C68.854 66.1005 71.459 63.6244 71.6577 63.4329C72.5475 62.5645 73.3836 61.5118 74.1373 60.3552Z" fill="#E8AA7D"/>
<path d="M78.103 80.6292C76.5597 85.4292 72.782 90.7126 68.1933 93.9979C65.7889 100.535 69.2425 107.306 67.4807 113.919C65.5722 121.097 57.7036 126.002 50.5851 126.651C48.6533 126.826 41.5724 125.669 42.2545 122.812C42.5141 121.734 42.2258 112.661 42.7916 108.981C44.0055 101.059 48.0409 91.2157 51.8007 84.1348C52.2966 83.2092 54.9553 79.4977 55.0073 79.2095C55.163 78.3644 51.2887 75.8633 49.9817 76.3073C49.2853 76.54 49.3443 77.8613 48.3382 77.6698C48.2468 75.5374 50.7193 73.6307 52.8552 74.0067C53.2044 74.0675 56.3107 75.4211 56.4449 75.5625C57.5299 76.7119 53.4264 75.5983 52.9215 75.9116C56.4646 80.1082 56.171 76.5239 58.5808 75.7308C59.1538 75.5428 61.3863 75.84 62.8688 75.4533C63.8391 75.1973 65.5131 74.1266 66.3671 73.6611C68.3831 74.5348 72.3935 75.797 78.6652 74.499C79.0573 76.2733 78.8245 78.3984 78.1012 80.631L78.103 80.6292Z" fill="#008099"/>
<path d="M74.1374 60.3551C73.3836 61.5117 72.5475 62.5644 71.6577 63.4328C71.459 63.6243 68.854 66.1004 67.1174 67.6168C66.4173 68.2363 65.8605 68.6946 65.66 68.786C64.8866 69.3266 64.02 68.8862 63.03 67.4432C61.6245 65.395 62.8456 61.1572 63.0908 60.3677C64.5679 55.6035 66.6304 51.269 69.5451 47.8942C69.9945 47.3732 70.4653 46.8737 70.9577 46.4028C69.6973 45.6777 67.5435 44.6876 65.4792 43.7548C65.9912 43.0333 67.8729 42.72 69.4341 42.6735C71.3014 42.5123 73.321 42.6036 74.0586 42.9581C75.3047 43.5597 75.9188 44.5623 76.2912 45.6705C76.583 45.8317 76.8641 46.0089 77.1398 46.2094C77.5964 46.6499 77.8989 47.2944 77.9867 48.2003C78.2946 51.4588 76.6654 56.4897 74.1374 60.3551Z" fill="#008099"/>
<path d="M83.3291 72.6887C82.0472 75.53 80.5165 77.7858 78.103 80.6307C78.8246 78.3981 79.0573 76.2712 78.667 74.4987C72.3954 75.7967 68.3849 74.5345 66.369 73.6608C66.2616 73.6125 66.1613 73.5677 66.0682 73.5248C64.4336 72.7764 66.5606 72.78 67.0135 72.5508C70.0912 70.9789 67.3501 68.9289 67.1174 67.6183C68.8558 66.1001 71.4608 63.6258 71.6577 63.4343C75.5178 59.6602 78.3895 52.4342 77.9885 48.2018C77.9007 47.2959 77.5964 46.6514 77.1398 46.2109C80.742 48.7801 83.0391 54.2855 84.1366 58.2744C85.8714 64.5855 86.0165 66.7303 83.3309 72.6887H83.3291Z" fill="#C2E8F0"/>
<path d="M60.9568 64.7199C72.9898 63.5615 72.7571 77.5389 63.9341 80.3945C50.5726 84.7201 47.1691 66.0466 60.9568 64.7199Z" fill="#E8AA7D"/>
<path d="M56.6258 65.3272C56.2857 66.1257 55.6161 66.8938 54.8659 67.3879C54.3736 67.7048 53.8526 67.9089 53.3584 67.9322C46.8701 68.2204 43.848 64.9512 41.9932 62.1529C41.9162 62.0365 41.841 61.9201 41.7658 61.8038C39.7212 58.6008 38.6398 55.0594 40.4069 51.5772C41.8142 48.8039 45.0046 47.2606 47.8369 48.3742C50.3184 49.3518 49.9299 51.6971 50.6424 53.6809C52.1016 57.7486 58.7331 60.3929 56.6258 65.3272Z" fill="#00151A"/>
<path d="M54.8641 67.3878C54.3718 67.7047 53.8508 67.9088 53.3567 67.9321C46.8684 68.2203 43.8462 64.9511 41.9914 62.1528C41.9144 62.0364 41.8392 61.92 41.764 61.8037C46.5372 60.0079 52.9126 62.5896 54.8641 67.3896V67.3878Z" fill="#D97126"/>
<path d="M97.2134 127.261C97.2134 127.277 97.2116 127.295 97.2116 127.311C97.2098 127.338 97.2062 127.367 97.2027 127.396C97.1937 127.444 97.183 127.494 97.1704 127.544C97.1651 127.566 97.1597 127.587 97.1525 127.609C97.1436 127.646 97.131 127.686 97.1167 127.723C97.1006 127.773 97.0809 127.827 97.0594 127.881C97.0379 127.934 97.0147 127.99 96.9878 128.045C96.9359 128.16 96.875 128.278 96.8088 128.402C96.7747 128.464 96.7389 128.527 96.7013 128.591C96.6781 128.631 96.653 128.672 96.628 128.713C96.6047 128.754 96.5796 128.796 96.551 128.837C96.5259 128.88 96.499 128.921 96.4704 128.964C96.4435 129.009 96.4149 129.052 96.3845 129.095C96.2376 129.311 96.0747 129.539 95.8993 129.775C95.8277 129.87 95.7542 129.965 95.679 130.061C95.6021 130.158 95.5251 130.255 95.4445 130.353C95.4069 130.403 95.3657 130.453 95.3228 130.504C95.2404 130.604 95.1563 130.704 95.0703 130.806C95.0166 130.869 94.9629 130.931 94.9092 130.996C94.7212 131.213 94.5261 131.433 94.3237 131.657C94.2432 131.746 94.1608 131.836 94.0785 131.925C93.9943 132.015 93.9102 132.104 93.826 132.195C90.6248 135.588 86.0236 139.361 83.9432 139.984H83.9396C83.9074 139.994 83.8752 140.001 83.8429 140.01C83.7928 140.021 83.7463 140.03 83.6997 140.037C83.2539 140.105 82.4375 139.652 81.5477 139.019C81.5423 139.015 81.5352 139.01 81.528 139.004C80.3822 138.156 79.0483 137.008 78.3107 136.358C78.2874 136.337 78.2642 136.317 78.2409 136.297C78.1317 136.199 78.0368 136.115 77.9598 136.047C77.7127 135.828 77.4639 135.603 77.2132 135.375C76.9626 135.146 76.7083 134.913 76.4541 134.677C76.071 134.321 75.6842 133.957 75.2939 133.587C74.9054 133.216 74.5133 132.836 74.1195 132.455C73.5949 131.945 73.0685 131.426 72.5421 130.899C71.4894 129.848 70.442 128.778 69.4233 127.721C69.2962 127.589 69.1691 127.456 69.0402 127.324C68.7895 127.061 68.5389 126.798 68.29 126.538C67.4217 125.625 66.582 124.731 65.7907 123.879C65.6116 123.688 65.4308 123.491 65.2482 123.288C59.5459 117.029 51.2296 106.124 49.8725 103.351C49.817 103.594 49.7615 103.843 49.7078 104.094C49.2799 104.074 49.5037 104.205 49.4017 104.651C48.2988 109.529 47.699 114.688 47.3213 119.688C47.3087 119.851 47.2962 120.014 47.2837 120.175C47.2801 120.227 47.2765 120.281 47.2747 120.338C47.2461 120.839 47.2675 121.314 47.2998 121.761V121.767C47.3374 122.576 47.3929 123.448 47.3606 124.142C47.2479 124.807 46.922 125.372 46.1307 125.845C46.1307 125.845 46.1289 125.847 46.1271 125.847C45.9463 125.954 45.7404 126.058 45.5076 126.157C34.3017 130.887 18.4713 127.052 8.51508 120.846C7.31016 120.096 0.664322 115.303 0.417252 114.455C0.198827 113.699 1.43597 111.266 1.83343 110.346C5.00954 103 11.1326 93.8996 16.1044 87.5831C18.6485 84.3515 25.2246 78.3144 25.6775 74.5779C26.0141 71.8118 24.4332 68.4585 23.8209 65.6852C20.8883 52.3935 15.9111 24.2615 24.8808 13.1254C34.8872 0.702057 66.7288 -0.150157 80.7026 4.57104C85.7443 6.27547 85.3934 6.48494 84.6235 11.8525C84.3657 13.6464 81.9326 23.1837 80.7886 23.8998C80.0545 24.3582 74.6852 22.4801 73.3156 22.1882C65.9482 20.6163 58.9067 20.192 51.4337 21.3396C49.7902 21.5903 44.9132 22.6663 43.6367 23.4164C42.8149 23.898 42.754 25.1244 42.6824 25.9892C42.1417 32.4972 42.8991 39.0177 44.1613 45.5167C37.3203 49.2013 35.068 57.394 37.9397 64.6163C38.2602 65.4238 39.4007 66.8185 39.449 67.3216C39.4991 67.8229 38.2208 70.0304 38.0973 71.4842C38.0203 72.3955 38.0382 73.6917 38.194 74.5905C38.2137 74.7068 38.33 75.1043 38.4769 75.5752C42.4801 73.8421 47.1369 73.6004 51.0506 75.4874C51.2959 75.6056 51.5501 75.7452 51.8079 75.9028H51.8097C53.8686 77.1543 56.2946 79.5784 58.7886 82.4609C60.3283 84.6004 61.7498 86.8759 63.3647 88.9205C66.0109 92.2757 68.7394 95.561 71.527 98.7944C71.7383 99.0576 71.9424 99.3083 72.1393 99.5428C75.9528 104.105 80.0151 108.461 84.1025 112.788C86.9725 115.882 89.8657 118.954 92.759 122.026C94.2575 123.664 95.7363 125.319 97.1848 126.996C97.1901 127.014 97.1937 127.032 97.1973 127.052C97.2098 127.118 97.217 127.188 97.2134 127.261Z" fill="#86B200"/>
<path d="M99.7431 21.8965C99.6106 21.8965 99.4763 21.8428 99.3814 21.7353C98.6402 20.9064 97.8166 20.1437 96.934 19.4669C96.1784 18.8869 95.371 18.3623 94.5313 17.9093C94.295 17.7822 94.2073 17.4868 94.3344 17.2523C94.4615 17.0159 94.7569 16.9282 94.9914 17.0553C95.8759 17.5333 96.7263 18.0848 97.523 18.6971C98.4522 19.4097 99.3205 20.2153 100.101 21.089C100.28 21.2895 100.262 21.5957 100.064 21.7747C99.9704 21.8571 99.8559 21.8983 99.7395 21.8983L99.7431 21.8965Z" fill="#00151A"/>
<path d="M99.6984 27.1962C99.5695 27.1962 99.4424 27.1461 99.3475 27.0458C98.4541 26.1059 97.4641 25.2501 96.4042 24.5035C95.4642 23.8411 94.458 23.2556 93.416 22.765C93.1743 22.6505 93.0687 22.3622 93.1833 22.1187C93.2979 21.8752 93.5861 21.7714 93.8296 21.886C94.9235 22.4016 95.9781 23.0139 96.9645 23.7104C98.0746 24.4945 99.1148 25.3915 100.051 26.3762C100.236 26.5696 100.228 26.8775 100.033 27.0619C99.9401 27.1514 99.8184 27.1962 99.6984 27.1962Z" fill="#00151A"/>
<path d="M94.3075 29.2065C94.1643 29.2065 94.0229 29.1438 93.928 29.0239C93.2333 28.1502 92.4312 27.3624 91.5468 26.6856C90.5119 25.8943 89.3697 25.2569 88.1505 24.7897C87.8998 24.693 87.7745 24.4137 87.8712 24.163C87.966 23.9124 88.2471 23.787 88.4978 23.8837C89.8047 24.385 91.0294 25.069 92.1376 25.9158C93.0865 26.6409 93.9441 27.4842 94.6889 28.4205C94.8554 28.63 94.8214 28.9361 94.6119 29.1026C94.5224 29.1743 94.4167 29.2083 94.3093 29.2083L94.3075 29.2065Z" fill="#00151A"/>
<path d="M8.91787 111.991C8.84983 111.991 8.78001 111.977 8.71555 111.946C8.47206 111.834 8.36643 111.545 8.47743 111.302C11.6159 104.495 15.5082 98.0389 20.0468 92.1128C23.2408 87.943 26.7929 83.9881 30.6046 80.3608C30.7979 80.1764 31.1059 80.1835 31.2903 80.3769C31.4747 80.5703 31.4675 80.8782 31.2742 81.0626C27.4983 84.6559 23.9802 88.5714 20.8166 92.7018C16.321 98.5706 12.4664 104.964 9.3583 111.707C9.27594 111.884 9.10048 111.989 8.91787 111.989V111.991Z" fill="#00151A"/>
<path d="M30.2912 77.897C29.4891 77.897 28.7336 77.7234 28.1929 77.2328C28.0783 77.129 27.5144 76.4021 27.7919 75.6913C28.2126 74.6153 29.6216 74.3092 31.6591 74.8499C32.5489 75.0862 34.4001 75.9384 34.4789 75.9742C34.6508 76.053 34.7618 76.2266 34.7618 76.4164C34.7618 76.6062 34.649 76.7781 34.4771 76.8568C34.1602 77.0001 32.1102 77.8953 30.293 77.8953L30.2912 77.897ZM28.8661 76.5346C29.7165 77.2633 31.6519 76.8461 33.0054 76.3896C32.4504 76.1532 31.8059 75.8972 31.4084 75.7916C30.3163 75.5015 28.9502 75.3941 28.696 76.0476C28.6512 76.1604 28.7766 76.4164 28.8661 76.5364V76.5346Z" fill="#00151A"/>
<path d="M59.0517 47.6761C58.6668 47.5991 58.4179 47.6958 58.2819 47.7781C58.0706 47.907 57.8719 48.1344 57.931 48.5784C57.9793 48.9311 58.2765 49.1764 58.5254 49.3787C58.7671 49.5757 59.4402 49.966 60.1098 49.7977C60.2799 49.7547 60.6004 49.6025 60.7007 49.2606C60.8099 48.881 60.6398 48.6268 60.5628 48.5337C60.3426 48.2705 60.0436 47.8748 59.0535 47.6779L59.0517 47.6761Z" fill="#00151A"/>
<path d="M62.6754 53.2116C62.5089 53.2116 62.3496 53.1185 62.2726 52.9592C62.1652 52.7372 62.2565 52.4686 62.4803 52.3612C62.9673 52.1249 63.875 51.5609 64.4748 50.4491C65.0799 49.3283 65.0477 48.2487 64.9725 47.7062C64.9385 47.4609 65.1103 47.2354 65.3556 47.2031C65.6009 47.1709 65.8265 47.341 65.8587 47.5863C65.9464 48.2362 65.9858 49.5288 65.2607 50.8734C64.5428 52.2054 63.4543 52.8804 62.8688 53.1651C62.8061 53.1955 62.7399 53.2098 62.6737 53.2098L62.6754 53.2116Z" fill="#00151A"/>
<path d="M123.811 23.8854L113.167 30.5312C111.531 31.1632 110.252 30.277 109.884 28.6496C107.382 31.5625 101.301 32.8122 104.061 27.2405C102.031 27.1886 101.566 25.3714 102.033 23.6186C102.192 23.0189 103.302 21.9804 103.3 21.7656C103.295 21.3628 101.705 21.1175 102.573 18.8706C103.254 17.1089 107.569 13.6767 109.234 12.4843C110.136 11.838 116.064 8.1624 116.583 8.19999C116.676 8.20715 123.17 23.4127 123.809 23.8854H123.811Z" fill="#E8AA7D"/>
<path d="M150.969 104.477L117.108 142.037C115.994 142.554 113.767 141.414 112.641 140.866C109.241 139.21 102.319 133.83 101.653 129.957C101.419 128.593 103.012 127.041 103.882 125.986C117.686 109.246 136.875 93.7239 149.148 76.0261C159.998 60.3819 162.007 43.5095 161.52 23.4073C149.333 20.2437 134.836 20.2527 122.982 25.067C117.496 20.4908 115.065 12.5523 116.109 5.60389L116.649 5.08648C132.596 -0.542435 151.52 -0.848587 167.378 5.36398C176.084 8.77463 179.667 14.2657 181.475 23.2838C184.912 40.4193 181.976 59.7643 178.625 76.651C181.862 80.7044 183.623 82.0579 186.524 86.3798C192.378 95.1007 199.611 114.703 199.993 125.12C200.07 127.249 199.257 127.848 197.692 129.159C189.797 135.771 170.849 140.966 160.825 138.884C159.813 138.675 157.156 138.155 156.959 137.106C156.881 129.286 156.766 120.871 155.096 113.223C154.226 109.236 153.45 110.419 152.014 107.841C151.459 106.845 151.092 105.614 150.965 104.48L150.969 104.477Z" fill="#22A8C3"/>
<path d="M151.671 103.066C153.212 110.299 159.103 109.422 158.338 101.866C157.502 93.6091 149.112 87.597 141.804 85.257L146.362 79.2629C151.302 80.2314 160.531 82.1257 164.368 77.8431C169 72.6707 157.899 67.4948 153.792 67.4393C154.208 66.8324 154.906 63.8317 155.241 63.59C156.066 62.9938 166.454 67.3945 168.028 68.1984C186.948 77.8735 195.827 97.5282 199.255 117.639C193.8 122.629 187.564 126.529 180.497 128.607C174.636 130.329 167.492 131.141 161.384 130.217C159.183 129.884 153.826 128.407 153.241 126.015C152.831 118.925 152.342 111.781 150.353 104.935L151.673 103.066H151.671Z" fill="#C2E8F0"/>
<path d="M164.996 73.1833C164.484 75.688 160.884 77.3441 158.553 77.3441C157.507 77.3405 156.245 76.7031 155.366 76.7712C154.677 76.8267 153.286 77.7577 152.113 77.9296C145.045 78.9787 139.029 73.7849 136.589 67.5383C136.277 66.7451 135.735 63.988 135.735 63.988C135.735 63.988 133.438 63.2987 132.657 63.0068C129.8 61.9416 128.767 58.9553 129.715 56.9447C130.195 55.926 133.527 55.0934 134.852 54.32C137.701 52.6603 139.457 50.2809 141.185 48.0358C141.813 47.2194 142.438 46.4209 143.109 45.6761C143.113 45.6725 143.113 45.6689 143.113 45.6689C143.113 45.6689 147.293 46.9705 148.43 47.2319C149.85 47.5596 151.263 47.8084 152.734 47.6921C148.715 52.8447 154.437 53.6629 158.376 51.5682C158.166 53.3317 158.771 56.1963 160.583 56.9465C162.787 57.8631 162.289 56.3735 163.412 59.41C164.871 63.3542 164.01 67.6009 165.079 71.6597C165.104 72.204 165.091 72.7267 164.998 73.1815L164.996 73.1833Z" fill="#E8AA7D"/>
<path d="M171.669 61.1836C171.426 62.9883 170.194 66.2951 168.146 69.0398C167.404 70.0334 166.21 71.1238 165.081 71.6716C165.081 71.668 165.077 71.6644 165.077 71.6627C164.01 67.6039 164.869 63.3589 163.41 59.413C162.288 56.3783 162.785 57.8661 160.581 56.9494C158.769 56.1993 158.164 53.3347 158.374 51.5712C154.435 53.6641 148.715 52.8459 152.732 47.695C151.261 47.8114 149.848 47.5625 148.428 47.2349C147.293 46.9735 143.111 45.6719 143.111 45.6719C143.111 45.6719 143.111 45.6755 143.107 45.6791C142.434 46.4239 141.809 47.2224 141.183 48.0388C140.032 47.7541 139.015 46.2556 139.255 44.7355C139.507 43.1368 140.846 42.6193 140.846 42.6193C140.846 42.6193 139.292 39.633 140.73 37.9859C142.81 35.6065 146.176 37.1802 148.496 38.1703C147.884 34.2601 152.088 31.9595 155.02 34.6486C156.503 36.0111 159.554 42.2702 161.26 42.2702C161.713 40.4834 162.374 39.7297 162.807 39.2803C165.183 36.8114 169.981 38.9562 167.544 43.1063C171.615 42.6444 173.356 46.8804 168.962 48.2268C172.392 51.4763 172.269 56.731 171.667 61.189L171.669 61.1836Z" fill="#008099"/>
<path d="M158.463 60.6668C157.81 59.6051 159.425 56.5632 160.141 55.6305C163.231 51.6021 170.994 52.0784 172.913 56.9625C176.496 66.0808 164.712 73.4267 160.184 64.0488C159.731 63.1088 159.627 61.7571 159.228 61.109C159.076 60.8619 158.555 60.8154 158.463 60.6668Z" fill="#E8AA7D"/>
<path d="M158.771 65.1906C158.198 69.355 154.603 71.7667 153.959 72.1964C153.202 72.7048 151.642 73.6197 149.587 74.0207C148.473 74.241 147.211 74.3126 145.856 74.0816C145.211 73.9742 141.215 73.2992 139.643 70.2431C139.391 69.7471 138.673 68.3524 139.219 67.0168C139.611 66.05 140.488 65.538 140.986 65.2497C141.811 64.7681 142.125 64.8773 143.908 64.3957C145.17 64.0556 146.241 63.7619 147.442 63.1174C148.387 62.6089 149.041 62.0844 149.574 61.6547C151.198 60.3513 151.374 59.73 152.62 59.1571C153.105 58.9369 153.766 58.6325 154.628 58.6719C156.603 58.7597 157.831 60.5482 158.039 60.8633C158.327 61.2966 158.521 61.7442 158.651 62.181C159.017 63.4146 158.859 64.573 158.771 65.1906Z" fill="#00151A"/>
<path d="M158.771 65.1906C158.198 69.355 154.603 71.7666 153.959 72.1963C153.201 72.7048 151.642 73.6196 149.587 74.0207C149.567 72.6654 150.011 71.0916 150.176 70.5062C151.046 67.416 153.06 65.5898 154.424 64.3867C155.627 63.325 157.343 62.4513 158.651 62.1792C159.017 63.4128 158.859 64.5711 158.771 65.1888V65.1906Z" fill="#D97126"/>
<path d="M148.536 51.6843C148.444 51.6843 148.353 51.6592 148.271 51.6055C147.54 51.131 146.765 50.7121 145.967 50.3648C145.111 49.9924 144.217 49.6934 143.306 49.4785C143.045 49.4159 142.884 49.1545 142.946 48.8949C143.009 48.6335 143.267 48.4723 143.532 48.535C144.497 48.7642 145.447 49.0811 146.355 49.4767C147.204 49.8456 148.027 50.2896 148.803 50.7944C149.028 50.9413 149.091 51.242 148.944 51.4658C148.851 51.6091 148.695 51.686 148.538 51.686L148.536 51.6843Z" fill="#00151A"/>
<path d="M147.349 54.6992C147.225 54.6992 147.1 54.6527 147.005 54.5578C146.747 54.3018 145.374 53.0378 143.492 53.3242C142.508 53.4746 141.799 53.9831 141.378 54.3841C141.185 54.5685 140.877 54.5614 140.692 54.368C140.508 54.1746 140.515 53.8667 140.708 53.6823C141.229 53.1846 142.112 52.5544 143.346 52.3664C145.687 52.0101 147.376 53.5588 147.691 53.8739C147.881 54.0636 147.881 54.3698 147.691 54.5596C147.596 54.6545 147.472 54.7028 147.347 54.7028L147.349 54.6992Z" fill="#00151A"/>
<path d="M103.626 21.8047C103.508 21.8047 103.388 21.7617 103.295 21.674C103.1 21.4914 103.089 21.1834 103.272 20.9883C103.999 20.2113 104.781 19.4736 105.603 18.7987C106.58 17.993 107.631 17.2554 108.725 16.6073C108.956 16.4712 109.253 16.5464 109.389 16.7773C109.526 17.0083 109.45 17.3055 109.219 17.4416C108.168 18.0628 107.16 18.7718 106.221 19.5453C105.433 20.1952 104.679 20.9023 103.983 21.6489C103.888 21.751 103.757 21.8029 103.628 21.8029L103.626 21.8047Z" fill="#00151A"/>
<path d="M104.221 27.333C104.119 27.333 104.015 27.3008 103.927 27.2346C103.714 27.0734 103.671 26.7673 103.834 26.5542C104.469 25.7163 105.18 24.9268 105.945 24.2088C106.996 23.2224 108.163 22.354 109.414 21.6289C109.647 21.4947 109.943 21.5734 110.079 21.8062C110.213 22.0389 110.134 22.3343 109.901 22.4704C108.714 23.1579 107.606 23.9815 106.609 24.9178C105.884 25.5982 105.211 26.3465 104.607 27.1415C104.512 27.2668 104.367 27.333 104.221 27.333Z" fill="#00151A"/>
<path d="M110.068 28.6115C109.975 28.6115 109.882 28.5847 109.799 28.5292C109.576 28.3806 109.517 28.078 109.665 27.856C110.358 26.8194 111.234 25.9439 112.267 25.2546C113.165 24.6548 114.154 24.218 115.205 23.953C115.466 23.8868 115.727 24.0461 115.794 24.3057C115.858 24.5653 115.701 24.8303 115.441 24.8947C114.497 25.1311 113.611 25.5232 112.806 26.0621C111.88 26.6797 111.094 27.4657 110.473 28.3949C110.38 28.5345 110.226 28.6097 110.068 28.6097V28.6115Z" fill="#00151A"/>
<path d="M167.558 82.4784C167.838 82.26 168.298 82.4498 168.441 82.5089C169.028 82.7506 169.25 83.3074 169.293 83.4219C169.372 83.6332 169.576 84.1757 169.263 84.5785C169.086 84.8077 168.774 84.9491 168.471 84.9133C168.128 84.8739 167.929 84.6233 167.771 84.4263C167.494 84.0772 167.435 83.7138 167.406 83.5133C167.356 83.1641 167.286 82.6915 167.558 82.4784Z" fill="#00151A"/>
<path d="M173.527 93.4121C173.816 93.294 174.149 93.5267 174.38 93.6861C174.528 93.7899 174.757 93.9528 174.897 94.2644C174.956 94.3986 175.105 94.7281 174.958 95.0861C174.936 95.1398 174.804 95.4478 174.471 95.5731C174.007 95.7468 173.583 95.4066 173.527 95.3601C173.098 95.0056 173.125 94.4434 173.132 94.2948C173.139 94.1534 173.166 93.559 173.527 93.4121Z" fill="#00151A"/>
<path d="M178.431 104.804C178.906 104.572 179.464 105.05 179.497 105.078C179.998 105.519 179.939 106.196 179.923 106.326C179.905 106.487 179.831 107.132 179.375 107.3C178.85 107.494 178.31 106.879 178.279 106.844C177.869 106.366 177.957 105.775 177.975 105.657C178.007 105.436 178.075 104.978 178.431 104.804Z" fill="#00151A"/>
<path d="M181.416 117.901C181.754 117.666 182.25 117.847 182.512 118.023C182.968 118.329 183.052 118.85 183.09 119.088C183.124 119.292 183.217 119.877 182.846 120.305C182.773 120.391 182.564 120.631 182.268 120.64C181.763 120.654 181.425 119.985 181.325 119.788C181.249 119.641 181.126 119.351 181.112 118.966C181.099 118.64 181.079 118.134 181.416 117.901Z" fill="#00151A"/>
</g>
<defs>
<clipPath id="clip0_7552_6752">
<rect width="200" height="157.447" fill="white" transform="translate(0 0.79834)"/>
</clipPath>
</defs>
</svg>
