<svg width="200" height="159" viewBox="0 0 200 159" fill="none" xmlns="http://www.w3.org/2000/svg">
<g clip-path="url(#clip0_7552_6752)">
<path d="M102.636 129.749C102.636 129.749 114.643 138.724 115.346 139.573C115.756 140.065 112.496 146.556 112.496 146.556C112.496 146.556 113.226 148.591 112.725 150.027C112.324 151.175 111.232 151.123 111.232 151.123C111.232 151.123 111.431 153.239 110.38 154.489C109.748 155.239 108.274 154.908 108.274 154.908C108.274 154.908 107.877 157.702 105.553 157.702C104.47 157.702 103.643 156.642 103.643 156.642C103.643 156.642 99.8434 157.504 96.6905 155.935C91.7939 153.499 91.2442 149.946 89.3178 145.673C88.6571 144.208 87.087 142.73 86.4299 141.154C87.0888 140.552 97.8399 129.885 97.8399 129.885L100.422 132.032L102.638 129.748L102.636 129.749Z" fill="#E8AA7D"/>
<path d="M112.967 150.795C112.653 151.212 112.184 151.52 111.597 151.694C111.622 152.286 111.558 152.913 111.341 153.568C111.189 154.018 110.911 154.854 110.063 155.351C109.665 155.588 109.196 155.711 108.7 155.711C108.636 155.711 108.571 155.708 108.507 155.704C108.5 155.704 108.491 155.704 108.484 155.701C108.407 155.962 108.296 156.229 108.14 156.487C107.619 157.357 106.942 157.878 106.128 158.041C105.966 158.073 105.811 158.085 105.655 158.085C104.332 158.085 103.293 157.008 102.982 156.646C102.144 155.665 101.455 154.603 101.183 153.864C101.179 153.857 101.179 153.855 101.175 153.848C101.166 153.819 101.156 153.792 101.152 153.763C101 153.042 100.977 152.32 101.091 151.624C101.279 150.426 101.856 149.513 102.803 148.002C103.039 147.626 103.227 147.341 103.388 147.1C103.741 146.572 103.934 146.281 104.165 145.705C104.395 145.125 104.627 144.343 104.441 143.873C104.221 143.333 103.7 143.084 103.6 143.039C102.971 142.767 102.321 143 102.008 143.114C101.038 143.46 99.9329 144.701 98.7334 146.797C98.0244 148.036 97.4103 149.354 96.909 150.713C96.8177 150.965 96.5402 151.094 96.2877 151.001C96.0353 150.908 95.9064 150.628 95.9995 150.38C96.5169 148.965 97.1543 147.599 97.8919 146.316C99.8792 142.846 101.235 142.361 101.682 142.199C101.695 142.196 101.705 142.192 101.718 142.187C101.693 142.106 101.689 142.015 101.711 141.926C101.747 141.782 101.911 141.036 101.449 140.382C101.34 140.226 101.029 139.849 100.533 139.718C100.355 139.67 99.8183 139.526 98.6045 140.298C97.8185 140.796 96.8141 141.628 95.3138 144.013C94.6245 145.107 93.9997 146.269 93.4554 147.46C93.3712 147.637 93.1958 147.744 93.0114 147.744C92.9433 147.744 92.8753 147.732 92.8109 147.699C92.5656 147.59 92.4581 147.302 92.5709 147.059C93.1313 145.825 93.7777 144.629 94.4902 143.499C96.0962 140.946 97.2062 140.033 98.0817 139.48C98.1533 139.435 98.2249 139.392 98.2912 139.355C98.0584 139.022 97.609 138.533 96.9323 138.348C96.4202 138.209 95.7614 138.313 94.9718 138.66C93.9889 139.093 92.8484 140.187 91.7689 141.745C91.0957 142.712 90.4941 143.709 89.9373 146.12C89.8854 146.344 89.6849 146.496 89.4647 146.496C89.4288 146.496 89.393 146.493 89.3554 146.487C89.0958 146.427 88.9311 146.163 88.9938 145.906C89.59 143.329 90.2685 142.207 90.9739 141.193C92.1717 139.469 93.4196 138.284 94.5851 137.772C95.5949 137.328 96.4489 137.211 97.1901 137.412C98.241 137.704 98.882 138.477 99.1702 138.92C99.7664 138.692 100.293 138.651 100.782 138.783C101.584 138.996 102.069 139.582 102.241 139.822C102.817 140.638 102.771 141.514 102.697 141.961C103.082 141.926 103.53 141.958 103.988 142.155C104.215 142.255 104.989 142.647 105.342 143.514C105.594 144.138 105.503 144.976 105.066 146.07C104.801 146.74 104.574 147.08 104.199 147.642C104.04 147.879 103.856 148.156 103.626 148.523C102.644 150.09 102.203 150.82 102.051 151.781C101.96 152.347 101.976 152.936 102.096 153.532V153.54C102.328 154.168 102.962 155.142 103.72 156.021C103.981 156.325 104.907 157.299 105.94 157.095C106.473 156.988 106.933 156.619 107.306 155.998C107.859 155.069 107.658 154.046 107.467 153.056C107.254 151.946 106.794 150.897 106.108 149.934C105.952 149.714 106.004 149.409 106.224 149.254C106.441 149.098 106.745 149.15 106.901 149.37C107.667 150.448 108.179 151.626 108.419 152.872C108.528 153.438 108.656 154.075 108.632 154.739C108.885 154.752 109.241 154.716 109.57 154.523C110.104 154.206 110.292 153.64 110.419 153.267C110.629 152.637 110.663 152.018 110.611 151.436C110.607 151.397 110.604 151.359 110.598 151.32C110.557 150.919 110.475 150.537 110.389 150.181C109.948 148.407 109.175 146.67 108.088 145.019C107.943 144.795 108.004 144.495 108.228 144.346C108.455 144.201 108.752 144.262 108.901 144.486C110.047 146.23 110.865 148.068 111.33 149.948C111.391 150.193 111.447 150.449 111.492 150.714C111.796 150.598 112.032 150.43 112.197 150.213C112.575 149.715 112.55 148.915 112.093 147.363C111.617 145.739 111.067 144.097 109.597 141.926C108.491 140.291 107.134 138.851 105.562 137.654C105.352 137.493 105.309 137.185 105.471 136.973C105.632 136.76 105.94 136.717 106.151 136.88C107.807 138.146 109.237 139.661 110.403 141.381C111.95 143.666 112.546 145.456 113.024 147.089C113.5 148.711 113.654 149.898 112.965 150.8L112.967 150.795Z" fill="#00151A"/>
<path d="M100.202 21.4412C100.202 21.4412 101.63 22.8807 101.507 24.7212C101.442 25.688 100.022 26.6906 100.022 26.6906C100.022 26.6906 100.903 29.2956 99.1201 30.0511C96.6978 31.077 94.6567 28.873 94.6567 28.873C94.6567 28.873 93.7454 29.7772 92.9398 29.8953C90.6696 30.2284 86.8561 26.1893 84.9243 24.8662C83.6979 24.0265 82.3068 23.5718 81.1431 22.6515C81.8091 22.0195 86.1991 8.87287 87.66 8.74217C88.2956 8.68488 92.5656 11.2075 93.4554 11.7482C95.9924 13.2897 102.447 17.2876 101.197 20.8504C101.005 21.3965 100.205 21.4394 100.205 21.4394L100.202 21.4412Z" fill="#E8AA7D"/>
<path d="M93.1296 136.752C92.8396 137.253 90.4065 139.98 89.9553 139.566C90.4709 138.259 91.726 137.071 93.1296 136.752Z" fill="#F7E0D1"/>
<path d="M44.4567 122.642C44.206 126.011 43.9214 129.123 44.4424 132.502C32.6134 135.488 20.6502 133.674 9.65555 128.699C8.14627 128.015 0.43516 123.908 0.0788773 122.746C-0.438539 121.061 1.70274 115.799 2.66954 114.166C2.93809 113.713 42.618 122.467 44.4567 122.642Z" fill="#C1DB70"/>
<path d="M95.6003 127.58C96.2413 126.994 99.122 129.961 98.9644 130.39C96.2789 134.274 95.8205 135.502 91.939 139.151C90.2865 140.705 86.883 142.783 86.883 142.783C86.883 142.783 84.1455 139.738 83.2611 138.687C84.1187 137.711 94.6192 128.278 95.5985 127.58H95.6003Z" fill="#C1DB70"/>
<path d="M84.2351 7.73226C84.0686 7.44043 82.9926 7.49951 83.2558 6.60791C84.6666 6.93018 88.5678 7.62663 88.5624 9.2308C88.5553 11.1948 84.8403 23.9494 83.4438 24.1589C81.9345 23.3711 79.9418 23.4588 78.676 22.3005C79.3027 21.2907 80.1352 22.3595 80.9122 22.1017C82.2174 21.6685 85.03 9.13412 84.2351 7.73226Z" fill="#C1DB70"/>
<path d="M74.1373 60.1794C73.3675 63.1532 71.5073 65.9319 68.4458 68.5064C64.2169 72.0639 60.6863 73.2545 55.5963 70.4723C54.275 71.7237 54.4755 75.0842 52.5813 75.5855C52.5133 75.6034 52.3199 75.6392 52.0299 75.6876C51.9619 75.7001 51.8885 75.7127 51.8097 75.727H51.8079C51.5501 75.5694 51.2959 75.4298 51.0506 75.3116C47.1368 73.4246 42.4801 73.6663 38.4768 75.3993C38.33 74.9285 38.2136 74.531 38.194 74.4146C38.0382 73.5159 38.0203 72.2197 38.0973 71.3084C38.2208 69.8546 39.4991 67.647 39.449 67.1457C39.4007 66.6427 38.2602 65.248 37.9397 64.4405C35.068 57.2182 37.3203 49.0254 44.1612 45.3409C44.5569 45.1278 44.9669 44.9309 45.393 44.7483C46.1682 44.4188 48.741 43.8459 48.8932 43.6508C49.117 43.3625 47.8566 39.0692 50.4383 36.7435C52.9949 34.4429 53.8901 36.6648 55.5784 37.9843C57.1092 39.1802 58.7527 40.2759 60.4464 41.2284C61.3022 41.71 63.3432 42.6124 65.4791 43.5792C67.5434 44.5119 69.6972 45.502 70.9577 46.2271C70.4653 46.698 69.9944 47.1975 69.5451 47.7185C66.6303 51.0933 64.5678 55.4278 63.0908 60.192C62.8455 60.9815 61.6245 65.2193 63.0299 67.2675C64.02 68.7105 64.8865 69.151 65.66 68.6103C65.8605 68.519 66.4173 68.0606 67.1173 67.4412C68.854 65.9247 71.459 63.4486 71.6577 63.2571C72.5475 62.3887 73.3836 61.336 74.1373 60.1794Z" fill="#E8AA7D"/>
<path d="M78.103 80.4535C76.5597 85.2534 72.782 90.5368 68.1933 93.8221C65.7889 100.359 69.2425 107.13 67.4807 113.744C65.5722 120.921 57.7036 125.827 50.5851 126.475C48.6533 126.65 41.5724 125.494 42.2545 122.636C42.5141 121.558 42.2258 112.485 42.7916 108.806C44.0055 100.883 48.0409 91.0399 51.8007 83.959C52.2966 83.0334 54.9553 79.3219 55.0073 79.0337C55.163 78.1886 51.2887 75.6875 49.9817 76.1315C49.2853 76.3643 49.3443 77.6856 48.3382 77.494C48.2468 75.3617 50.7193 73.4549 52.8552 73.8309C53.2044 73.8918 56.3107 75.2453 56.4449 75.3867C57.5299 76.5361 53.4264 75.4225 52.9215 75.7358C56.4646 79.9325 56.171 76.3481 58.5808 75.555C59.1538 75.367 61.3863 75.6642 62.8688 75.2775C63.8391 75.0215 65.5131 73.9508 66.3671 73.4854C68.3831 74.3591 72.3935 75.6213 78.6652 74.3232C79.0573 76.0975 78.8245 78.2227 78.1012 80.4552L78.103 80.4535Z" fill="#006A80"/>
<path d="M74.1374 60.1793C73.3836 61.3359 72.5475 62.3887 71.6577 63.257C71.459 63.4486 68.854 65.9246 67.1174 67.4411C66.4173 68.0605 65.8605 68.5189 65.66 68.6102C64.8866 69.1509 64.02 68.7104 63.03 67.2674C61.6245 65.2192 62.8456 60.9814 63.0908 60.1919C64.5679 55.4277 66.6304 51.0932 69.5451 47.7184C69.9945 47.1974 70.4653 46.6979 70.9577 46.227C69.6973 45.5019 67.5435 44.5118 65.4792 43.5791C65.9912 42.8576 67.8729 42.5442 69.4341 42.4977C71.3014 42.3366 73.321 42.4279 74.0586 42.7824C75.3047 43.3839 75.9188 44.3865 76.2912 45.4948C76.583 45.6559 76.8641 45.8331 77.1398 46.0337C77.5964 46.4741 77.8989 47.1186 77.9867 48.0245C78.2946 51.283 76.6654 56.3139 74.1374 60.1793Z" fill="#006A80"/>
<path d="M83.3291 72.5129C82.0472 75.3542 80.5165 77.6101 78.103 80.4549C78.8246 78.2224 79.0573 76.0954 78.667 74.3229C72.3954 75.621 68.3849 74.3588 66.369 73.4851C66.2616 73.4367 66.1613 73.392 66.0682 73.349C64.4336 72.6006 66.5606 72.6042 67.0135 72.375C70.0912 70.8031 67.3501 68.7531 67.1174 67.4426C68.8558 65.9243 71.4608 63.4501 71.6577 63.2585C75.5178 59.4844 78.3895 52.2585 77.9885 48.026C77.9007 47.1201 77.5964 46.4756 77.1398 46.0352C80.742 48.6043 83.0391 54.1097 84.1366 58.0986C85.8714 64.4097 86.0165 66.5545 83.3309 72.5129H83.3291Z" fill="#99D9E5"/>
<path d="M60.9568 64.5441C72.9898 63.3857 72.7571 77.3631 63.9341 80.2188C50.5726 84.5443 47.1691 65.8708 60.9568 64.5441Z" fill="#E8AA7D"/>
<path d="M56.6258 65.1514C56.2857 65.9499 55.6161 66.718 54.8659 67.2121C54.3736 67.529 53.8526 67.7331 53.3584 67.7564C46.8701 68.0446 43.848 64.7754 41.9932 61.9771C41.9162 61.8607 41.841 61.7443 41.7658 61.628C39.7212 58.425 38.6398 54.8837 40.4069 51.4014C41.8142 48.6281 45.0046 47.0848 47.8369 48.1984C50.3184 49.176 49.9299 51.5214 50.6424 53.5051C52.1016 57.5728 58.7331 60.2172 56.6258 65.1514Z" fill="#00151A"/>
<path d="M54.8641 67.212C54.3718 67.5289 53.8508 67.733 53.3567 67.7563C46.8684 68.0446 43.8462 64.7753 41.9914 61.977C41.9144 61.8606 41.8392 61.7442 41.764 61.6279C46.5372 59.8321 52.9126 62.4138 54.8641 67.2138V67.212Z" fill="#C2570A"/>
<path d="M97.2134 127.085C97.2134 127.102 97.2116 127.119 97.2116 127.136C97.2098 127.162 97.2062 127.191 97.2027 127.22C97.1937 127.268 97.183 127.318 97.1704 127.368C97.1651 127.39 97.1597 127.411 97.1525 127.433C97.1436 127.47 97.131 127.51 97.1167 127.547C97.1006 127.598 97.0809 127.651 97.0594 127.705C97.0379 127.759 97.0147 127.814 96.9878 127.87C96.9359 127.984 96.875 128.102 96.8088 128.226C96.7747 128.289 96.7389 128.351 96.7013 128.416C96.6781 128.455 96.653 128.496 96.628 128.537C96.6047 128.579 96.5796 128.62 96.551 128.661C96.5259 128.704 96.499 128.745 96.4704 128.788C96.4435 128.833 96.4149 128.876 96.3845 128.919C96.2376 129.135 96.0747 129.363 95.8993 129.599C95.8277 129.694 95.7542 129.789 95.679 129.886C95.6021 129.982 95.5251 130.079 95.4445 130.177C95.4069 130.228 95.3657 130.278 95.3228 130.328C95.2404 130.428 95.1563 130.528 95.0703 130.63C95.0166 130.693 94.9629 130.756 94.9092 130.82C94.7212 131.037 94.5261 131.257 94.3237 131.481C94.2432 131.57 94.1608 131.66 94.0785 131.749C93.9943 131.839 93.9102 131.928 93.826 132.02C90.6248 135.412 86.0236 139.185 83.9432 139.808H83.9396C83.9074 139.819 83.8752 139.826 83.8429 139.835C83.7928 139.845 83.7463 139.854 83.6997 139.861C83.2539 139.93 82.4375 139.477 81.5477 138.843C81.5423 138.839 81.5352 138.834 81.528 138.828C80.3822 137.98 79.0483 136.832 78.3107 136.182C78.2874 136.161 78.2642 136.141 78.2409 136.121C78.1317 136.023 78.0368 135.939 77.9598 135.871C77.7127 135.652 77.4639 135.427 77.2132 135.199C76.9626 134.97 76.7083 134.737 76.4541 134.501C76.071 134.145 75.6842 133.781 75.2939 133.411C74.9054 133.04 74.5133 132.661 74.1195 132.279C73.5949 131.769 73.0685 131.25 72.5421 130.723C71.4894 129.673 70.442 128.602 69.4233 127.546C69.2962 127.413 69.1691 127.281 69.0402 127.148C68.7895 126.885 68.5389 126.622 68.29 126.362C67.4217 125.449 66.582 124.556 65.7907 123.703C65.6116 123.512 65.4308 123.315 65.2482 123.113C59.5459 116.854 51.2296 105.948 49.8725 103.175C49.817 103.419 49.7615 103.667 49.7078 103.918C49.2799 103.898 49.5037 104.029 49.4017 104.475C48.2988 109.354 47.699 114.512 47.3213 119.512C47.3087 119.675 47.2962 119.838 47.2837 119.999C47.2801 120.051 47.2765 120.105 47.2747 120.162C47.2461 120.663 47.2675 121.138 47.2998 121.585V121.591C47.3374 122.4 47.3929 123.272 47.3606 123.967C47.2479 124.631 46.922 125.197 46.1307 125.669C46.1307 125.669 46.1289 125.671 46.1271 125.671C45.9463 125.778 45.7404 125.882 45.5076 125.981C34.3017 130.711 18.4713 126.876 8.51508 120.671C7.31016 119.92 0.664322 115.128 0.417252 114.279C0.198827 113.523 1.43597 111.09 1.83343 110.17C5.00954 102.824 11.1326 93.7238 16.1044 87.4074C18.6485 84.1758 25.2246 78.1386 25.6775 74.4021C26.0141 71.636 24.4332 68.2827 23.8209 65.5094C20.8883 52.2177 15.9111 24.0857 24.8808 12.9496C34.8872 0.526276 66.7288 -0.325938 80.7026 4.39526C85.7443 6.09969 85.3934 6.30916 84.6235 11.6767C84.3657 13.4706 81.9326 23.0079 80.7886 23.724C80.0545 24.1824 74.6852 22.3043 73.3156 22.0125C65.9482 20.4405 58.9067 20.0162 51.4337 21.1638C49.7902 21.4145 44.9132 22.4905 43.6367 23.2406C42.8149 23.7223 42.754 24.9487 42.6824 25.8134C42.1417 32.3214 42.8991 38.8419 44.1613 45.3409C37.3203 49.0255 35.068 57.2182 37.9397 64.4405C38.2602 65.248 39.4007 66.6427 39.449 67.1458C39.4991 67.6471 38.2208 69.8546 38.0973 71.3084C38.0203 72.2197 38.0382 73.5159 38.194 74.4147C38.2137 74.5311 38.33 74.9285 38.4769 75.3994C42.4801 73.6663 47.1369 73.4246 51.0506 75.3117C51.2959 75.4298 51.5501 75.5695 51.8079 75.727H51.8097C53.8686 76.9785 56.2946 79.4026 58.7886 82.2851C60.3283 84.4246 61.7498 86.7002 63.3647 88.7448C66.0109 92.0999 68.7394 95.3852 71.527 98.6186C71.7383 98.8818 71.9424 99.1325 72.1393 99.367C75.9528 103.929 80.0151 108.285 84.1025 112.612C86.9725 115.706 89.8657 118.778 92.759 121.85C94.2575 123.489 95.7363 125.143 97.1848 126.82C97.1901 126.838 97.1937 126.856 97.1973 126.876C97.2098 126.942 97.217 127.012 97.2134 127.085Z" fill="#86B200"/>
<path d="M99.7431 21.7207C99.6106 21.7207 99.4763 21.667 99.3814 21.5596C98.6402 20.7306 97.8166 19.9679 96.934 19.2912C96.1784 18.7111 95.371 18.1865 94.5313 17.7335C94.295 17.6064 94.2073 17.311 94.3344 17.0765C94.4615 16.8402 94.7569 16.7524 94.9914 16.8795C95.8759 17.3576 96.7263 17.909 97.523 18.5213C98.4522 19.2339 99.3205 20.0395 100.101 20.9132C100.28 21.1138 100.262 21.4199 100.064 21.5989C99.9704 21.6813 99.8559 21.7225 99.7395 21.7225L99.7431 21.7207Z" fill="#00151A"/>
<path d="M99.6984 27.0204C99.5695 27.0204 99.4424 26.9703 99.3475 26.87C98.4541 25.9301 97.4641 25.0743 96.4042 24.3277C95.4642 23.6653 94.458 23.0798 93.416 22.5893C93.1743 22.4747 93.0687 22.1864 93.1833 21.9429C93.2979 21.6994 93.5861 21.5956 93.8296 21.7102C94.9235 22.2258 95.9781 22.8381 96.9645 23.5346C98.0746 24.3188 99.1148 25.2157 100.051 26.2004C100.236 26.3938 100.228 26.7017 100.033 26.8861C99.9401 26.9757 99.8184 27.0204 99.6984 27.0204Z" fill="#00151A"/>
<path d="M94.3075 29.0307C94.1643 29.0307 94.0229 28.968 93.928 28.8481C93.2333 27.9744 92.4312 27.1866 91.5468 26.5099C90.5119 25.7185 89.3697 25.0812 88.1505 24.6139C87.8998 24.5172 87.7745 24.2379 87.8712 23.9872C87.966 23.7366 88.2471 23.6113 88.4978 23.7079C89.8047 24.2092 91.0294 24.8932 92.1376 25.74C93.0865 26.4651 93.9441 27.3084 94.6889 28.2447C94.8554 28.4542 94.8214 28.7604 94.6119 28.9269C94.5224 28.9985 94.4167 29.0325 94.3093 29.0325L94.3075 29.0307Z" fill="#00151A"/>
<path d="M8.91787 111.815C8.84983 111.815 8.78001 111.801 8.71555 111.771C8.47206 111.658 8.36643 111.37 8.47743 111.126C11.6159 104.319 15.5082 97.8631 20.0468 91.937C23.2408 87.7672 26.7929 83.8123 30.6046 80.185C30.7979 80.0006 31.1059 80.0078 31.2903 80.2011C31.4747 80.3945 31.4675 80.7024 31.2742 80.8868C27.4983 84.4801 23.9802 88.3956 20.8166 92.526C16.321 98.3948 12.4664 104.788 9.3583 111.531C9.27594 111.708 9.10048 111.814 8.91787 111.814V111.815Z" fill="#00151A"/>
<path d="M30.2912 77.7213C29.4891 77.7213 28.7336 77.5476 28.1929 77.057C28.0783 76.9532 27.5144 76.2263 27.7919 75.5155C28.2126 74.4395 29.6216 74.1334 31.6591 74.6741C32.5489 74.9104 34.4001 75.7626 34.4789 75.7984C34.6508 75.8772 34.7618 76.0509 34.7618 76.2406C34.7618 76.4304 34.649 76.6023 34.4771 76.6811C34.1602 76.8243 32.1102 77.7195 30.293 77.7195L30.2912 77.7213ZM28.8661 76.3588C29.7165 77.0875 31.6519 76.6703 33.0054 76.2138C32.4504 75.9775 31.8059 75.7214 31.4084 75.6158C30.3163 75.3258 28.9502 75.2183 28.696 75.8718C28.6512 75.9846 28.7766 76.2406 28.8661 76.3606V76.3588Z" fill="#00151A"/>
<path d="M59.0517 47.5003C58.6668 47.4233 58.4179 47.52 58.2819 47.6024C58.0706 47.7313 57.8719 47.9586 57.931 48.4026C57.9793 48.7553 58.2765 49.0006 58.5254 49.2029C58.7671 49.3999 59.4402 49.7902 60.1098 49.6219C60.2799 49.5789 60.6004 49.4267 60.7007 49.0848C60.8099 48.7052 60.6398 48.451 60.5628 48.3579C60.3426 48.0947 60.0436 47.699 59.0535 47.5021L59.0517 47.5003Z" fill="#00151A"/>
<path d="M62.6754 53.0358C62.5089 53.0358 62.3496 52.9427 62.2726 52.7834C62.1652 52.5614 62.2565 52.2928 62.4803 52.1854C62.9673 51.9491 63.875 51.3851 64.4748 50.2733C65.0799 49.1525 65.0477 48.0729 64.9725 47.5304C64.9385 47.2852 65.1103 47.0596 65.3556 47.0274C65.6009 46.9951 65.8265 47.1652 65.8587 47.4105C65.9464 48.0604 65.9858 49.353 65.2607 50.6976C64.5428 52.0296 63.4543 52.7046 62.8688 52.9893C62.8061 53.0197 62.7399 53.034 62.6737 53.034L62.6754 53.0358Z" fill="#00151A"/>
<path d="M123.811 23.7096L113.167 30.3554C111.531 30.9874 110.252 30.1012 109.884 28.4738C107.382 31.3867 101.301 32.6364 104.061 27.0648C102.031 27.0128 101.566 25.1956 102.033 23.4428C102.192 22.8431 103.302 21.8047 103.3 21.5898C103.295 21.187 101.705 20.9417 102.573 18.6948C103.254 16.9331 107.569 13.5009 109.234 12.3086C110.136 11.6622 116.064 7.98661 116.583 8.02421C116.676 8.03137 123.17 23.237 123.809 23.7096H123.811Z" fill="#E8AA7D"/>
<path d="M150.969 104.301L117.108 141.861C115.994 142.379 113.767 141.238 112.641 140.69C109.241 139.034 102.319 133.654 101.653 129.782C101.419 128.417 103.012 126.865 103.882 125.811C117.686 109.071 136.875 93.5481 149.148 75.8504C159.998 60.2062 162.007 43.3337 161.52 23.2315C149.333 20.0679 134.836 20.0769 122.982 24.8912C117.496 20.315 115.065 12.3765 116.109 5.42811L116.649 4.91069C132.596 -0.718216 151.52 -1.02437 167.378 5.1882C176.084 8.59885 179.667 14.0899 181.475 23.108C184.912 40.2436 181.976 59.5885 178.625 76.4752C181.862 80.5286 183.623 81.8821 186.524 86.204C192.378 94.9249 199.611 114.528 199.993 124.944C200.07 127.073 199.257 127.673 197.692 128.983C189.797 135.595 170.849 140.791 160.825 138.708C159.813 138.499 157.156 137.98 156.959 136.93C156.881 129.11 156.766 120.695 155.096 113.047C154.226 109.06 153.45 110.243 152.014 107.665C151.459 106.67 151.092 105.438 150.965 104.305L150.969 104.301Z" fill="#0095B2"/>
<path d="M151.671 102.89C153.212 110.123 159.103 109.246 158.338 101.69C157.502 93.4333 149.112 87.4212 141.804 85.0812L146.362 79.0871C151.302 80.0557 160.531 81.9499 164.368 77.6673C169 72.495 157.899 67.319 153.792 67.2635C154.208 66.6566 154.906 63.6559 155.241 63.4142C156.066 62.818 166.454 67.2187 168.028 68.0226C186.948 77.6978 195.827 97.3524 199.255 117.464C193.8 122.453 187.564 126.353 180.497 128.431C174.636 130.154 167.492 130.965 161.384 130.041C159.183 129.708 153.826 128.231 153.241 125.839C152.831 118.749 152.342 111.605 150.353 104.759L151.673 102.89H151.671Z" fill="#99D9E5"/>
<path d="M164.996 73.0075C164.484 75.5122 160.884 77.1683 158.553 77.1683C157.507 77.1647 156.245 76.5274 155.366 76.5954C154.677 76.6509 153.286 77.5819 152.113 77.7538C145.045 78.8029 139.029 73.6091 136.589 67.3625C136.277 66.5694 135.735 63.8122 135.735 63.8122C135.735 63.8122 133.438 63.1229 132.657 62.8311C129.8 61.7658 128.767 58.7795 129.715 56.7689C130.195 55.7502 133.527 54.9177 134.852 54.1442C137.701 52.4845 139.457 50.1051 141.185 47.86C141.813 47.0436 142.438 46.2451 143.109 45.5003C143.113 45.4967 143.113 45.4932 143.113 45.4932C143.113 45.4932 147.293 46.7948 148.43 47.0562C149.85 47.3838 151.263 47.6327 152.734 47.5163C148.715 52.669 154.437 53.4872 158.376 51.3924C158.166 53.1559 158.771 56.0205 160.583 56.7707C162.787 57.6874 162.289 56.1978 163.412 59.2342C164.871 63.1784 164.01 67.4251 165.079 71.4839C165.104 72.0282 165.091 72.551 164.998 73.0057L164.996 73.0075Z" fill="#E8AA7D"/>
<path d="M171.669 61.0079C171.426 62.8125 170.194 66.1194 168.146 68.864C167.404 69.8576 166.21 70.948 165.081 71.4958C165.081 71.4922 165.077 71.4887 165.077 71.4869C164.01 67.4281 164.869 63.1832 163.41 59.2372C162.288 56.2025 162.785 57.6903 160.581 56.7736C158.769 56.0235 158.164 53.1589 158.374 51.3954C154.435 53.4883 148.715 52.6701 152.732 47.5192C151.261 47.6356 149.848 47.3868 148.428 47.0591C147.293 46.7977 143.111 45.4961 143.111 45.4961C143.111 45.4961 143.111 45.4997 143.107 45.5033C142.434 46.2481 141.809 47.0466 141.183 47.863C140.032 47.5783 139.015 46.0798 139.255 44.5598C139.507 42.961 140.846 42.4436 140.846 42.4436C140.846 42.4436 139.292 39.4572 140.73 37.8101C142.81 35.4307 146.176 37.0044 148.496 37.9945C147.884 34.0843 152.088 31.7837 155.02 34.4728C156.503 35.8353 159.554 42.0944 161.26 42.0944C161.713 40.3076 162.374 39.5539 162.807 39.1045C165.183 36.6356 169.981 38.7805 167.544 42.9305C171.615 42.4686 173.356 46.7046 168.962 48.051C172.392 51.3005 172.269 56.5552 171.667 61.0132L171.669 61.0079Z" fill="#006A80"/>
<path d="M158.463 60.491C157.81 59.4293 159.425 56.3875 160.141 55.4547C163.231 51.4263 170.994 51.9026 172.913 56.7867C176.496 65.905 164.712 73.2509 160.184 63.873C159.731 62.933 159.627 61.5813 159.228 60.9332C159.076 60.6861 158.555 60.6396 158.463 60.491Z" fill="#E8AA7D"/>
<path d="M158.771 65.0149C158.198 69.1793 154.603 71.5909 153.959 72.0206C153.202 72.529 151.642 73.4439 149.587 73.845C148.473 74.0652 147.211 74.1368 145.856 73.9058C145.211 73.7984 141.215 73.1234 139.643 70.0673C139.391 69.5713 138.673 68.1767 139.219 66.841C139.611 65.8742 140.488 65.3622 140.986 65.0739C141.811 64.5923 142.125 64.7016 143.908 64.2199C145.17 63.8798 146.241 63.5862 147.442 62.9416C148.387 62.4332 149.041 61.9086 149.574 61.4789C151.198 60.1755 151.374 59.5543 152.62 58.9813C153.105 58.7611 153.766 58.4568 154.628 58.4961C156.603 58.5839 157.831 60.3724 158.039 60.6876C158.327 61.1208 158.521 61.5684 158.651 62.0053C159.017 63.2388 158.859 64.3972 158.771 65.0149Z" fill="#00151A"/>
<path d="M158.771 65.0148C158.198 69.1792 154.603 71.5908 153.959 72.0205C153.201 72.529 151.642 73.4439 149.587 73.8449C149.567 72.4896 150.011 70.9159 150.176 70.3304C151.046 67.2402 153.06 65.4141 154.424 64.2109C155.627 63.1493 157.343 62.2756 158.651 62.0034C159.017 63.237 158.859 64.3953 158.771 65.013V65.0148Z" fill="#C2570A"/>
<path d="M148.536 51.5085C148.444 51.5085 148.353 51.4834 148.271 51.4297C147.54 50.9553 146.765 50.5363 145.967 50.189C145.111 49.8166 144.217 49.5176 143.306 49.3027C143.045 49.2401 142.884 48.9787 142.946 48.7191C143.009 48.4577 143.267 48.2966 143.532 48.3592C144.497 48.5884 145.447 48.9053 146.355 49.301C147.204 49.6698 148.027 50.1138 148.803 50.6187C149.028 50.7655 149.091 51.0663 148.944 51.2901C148.851 51.4333 148.695 51.5103 148.538 51.5103L148.536 51.5085Z" fill="#00151A"/>
<path d="M147.349 54.5234C147.225 54.5234 147.1 54.4769 147.005 54.382C146.747 54.126 145.374 52.862 143.492 53.1484C142.508 53.2988 141.799 53.8073 141.378 54.2083C141.185 54.3927 140.877 54.3856 140.692 54.1922C140.508 53.9989 140.515 53.6909 140.708 53.5065C141.229 53.0088 142.112 52.3786 143.346 52.1906C145.687 51.8343 147.376 53.383 147.691 53.6981C147.881 53.8879 147.881 54.194 147.691 54.3838C147.596 54.4787 147.472 54.527 147.347 54.527L147.349 54.5234Z" fill="#00151A"/>
<path d="M103.626 21.6289C103.508 21.6289 103.388 21.5859 103.295 21.4982C103.1 21.3156 103.089 21.0077 103.272 20.8125C103.999 20.0355 104.781 19.2979 105.603 18.6229C106.58 17.8172 107.631 17.0796 108.725 16.4315C108.956 16.2954 109.253 16.3706 109.389 16.6016C109.526 16.8325 109.45 17.1297 109.219 17.2658C108.168 17.887 107.16 18.596 106.221 19.3695C105.433 20.0194 104.679 20.7266 103.983 21.4732C103.888 21.5752 103.757 21.6271 103.628 21.6271L103.626 21.6289Z" fill="#00151A"/>
<path d="M104.221 27.1573C104.119 27.1573 104.015 27.125 103.927 27.0588C103.714 26.8977 103.671 26.5915 103.834 26.3784C104.469 25.5406 105.18 24.751 105.945 24.0331C106.996 23.0466 108.163 22.1782 109.414 21.4531C109.647 21.3189 109.943 21.3976 110.079 21.6304C110.213 21.8631 110.134 22.1586 109.901 22.2946C108.714 22.9821 107.606 23.8057 106.609 24.7421C105.884 25.4224 105.211 26.1708 104.607 26.9657C104.512 27.091 104.367 27.1573 104.221 27.1573Z" fill="#00151A"/>
<path d="M110.068 28.4358C109.975 28.4358 109.882 28.4089 109.799 28.3534C109.576 28.2048 109.517 27.9022 109.665 27.6802C110.358 26.6436 111.234 25.7681 112.267 25.0788C113.165 24.479 114.154 24.0422 115.205 23.7772C115.466 23.711 115.727 23.8703 115.794 24.1299C115.858 24.3895 115.701 24.6545 115.441 24.719C114.497 24.9553 113.611 25.3474 112.806 25.8863C111.88 26.5039 111.094 27.2899 110.473 28.2191C110.38 28.3588 110.226 28.434 110.068 28.434V28.4358Z" fill="#00151A"/>
<path d="M167.558 82.3026C167.838 82.0842 168.298 82.274 168.441 82.3331C169.028 82.5748 169.25 83.1316 169.293 83.2462C169.372 83.4574 169.576 83.9999 169.263 84.4027C169.086 84.6319 168.774 84.7733 168.471 84.7375C168.128 84.6981 167.929 84.4475 167.771 84.2506C167.494 83.9014 167.435 83.538 167.406 83.3375C167.356 82.9884 167.286 82.5157 167.558 82.3026Z" fill="#00151A"/>
<path d="M173.527 93.2364C173.816 93.1182 174.149 93.3509 174.38 93.5103C174.528 93.6141 174.757 93.7771 174.897 94.0886C174.956 94.2229 175.105 94.5523 174.958 94.9104C174.936 94.9641 174.804 95.272 174.471 95.3973C174.007 95.571 173.583 95.2308 173.527 95.1843C173.098 94.8298 173.125 94.2676 173.132 94.119C173.139 93.9776 173.166 93.3832 173.527 93.2364Z" fill="#00151A"/>
<path d="M178.431 104.629C178.906 104.396 179.464 104.874 179.497 104.903C179.998 105.343 179.939 106.02 179.923 106.15C179.905 106.312 179.831 106.956 179.375 107.124C178.85 107.318 178.31 106.704 178.279 106.668C177.869 106.19 177.957 105.599 177.975 105.481C178.007 105.261 178.075 104.802 178.431 104.629Z" fill="#00151A"/>
<path d="M181.416 117.725C181.754 117.49 182.25 117.671 182.512 117.847C182.968 118.153 183.052 118.674 183.09 118.912C183.124 119.116 183.217 119.702 182.846 120.129C182.773 120.215 182.564 120.455 182.268 120.464C181.763 120.479 181.425 119.809 181.325 119.612C181.249 119.465 181.126 119.175 181.112 118.79C181.099 118.464 181.079 117.958 181.416 117.725Z" fill="#00151A"/>
</g>
<defs>
<clipPath id="clip0_7552_6752">
<rect width="200" height="157.447" fill="white" transform="translate(0 0.622559)"/>
</clipPath>
</defs>
</svg>
