<svg width="200" height="216" viewBox="0 0 200 216" fill="none" xmlns="http://www.w3.org/2000/svg">
<g clip-path="url(#clip0_7767_31452)">
<path d="M146.999 46.056C155.857 45.1647 155.053 51.9792 156.757 58.3767C162.103 78.449 199.054 170.122 199.874 173.085C200.396 174.975 199.212 175.106 197.835 175.804C183.672 182.992 166.198 189.906 151.288 195.684C143.415 198.736 141.813 198.789 133.562 196.945C120.962 194.126 108.511 190.529 96.1188 186.94C92.0173 186.354 65.151 204.893 55.6258 211.9C49.3406 216.522 47.0012 216.822 43.9101 209.183C37.3774 193.029 7.33308 112.127 0.0602978 87.9421C-0.178004 87.2249 0.332969 86.6154 0.841652 86.1915C11.4621 78.3895 40.6724 56.1609 44.1644 55.0977C50.0349 53.3105 86.6165 60.1319 96.7352 60.7139C104.925 61.1859 140.266 46.7343 147.001 46.056H146.999Z" fill="#86B200"/>
<path d="M19.4487 101.495V100.795C19.4566 101.031 19.4685 101.266 19.4487 101.495Z" fill="#88BDC9"/>
<path d="M19.4487 101.495V100.795C19.4566 101.031 19.4685 101.266 19.4487 101.495Z" fill="#90BFCA"/>
<path d="M88.5961 175.229C87.9202 175.229 87.2901 174.798 87.0701 174.12C80.7757 154.742 74.9075 139.2 68.1137 121.203C67.023 118.311 65.9071 115.358 64.7637 112.317C61.5787 103.851 58.561 95.9111 55.6418 88.235C53.174 81.7482 50.6237 75.0413 47.9451 67.9381C47.6335 67.1086 48.0505 66.1829 48.88 65.8713C49.7094 65.5574 50.6351 65.9767 50.9468 66.8062C53.6254 73.9048 56.1757 80.6116 58.6412 87.0962C61.5627 94.7768 64.5804 102.716 67.7677 111.19C68.9111 114.231 70.0247 117.182 71.1153 120.071C77.923 138.104 83.8026 153.681 90.1222 173.13C90.3949 173.973 89.9343 174.878 89.0934 175.151C88.9284 175.204 88.7611 175.229 88.5984 175.229H88.5961Z" fill="#00151A"/>
<path d="M140.395 181.179C139.698 181.179 139.056 180.723 138.855 180.02C133.195 160.447 127.838 144.721 121.633 126.512C120.636 123.586 119.619 120.6 118.574 117.523C115.668 108.958 112.91 100.927 110.242 93.1588C107.988 86.594 105.657 79.8047 103.208 72.6167C102.922 71.7781 103.371 70.8661 104.209 70.582C105.048 70.2956 105.96 70.7447 106.244 71.5833C108.691 78.7668 111.022 85.5538 113.274 92.1185C115.941 99.8885 118.7 107.922 121.61 116.492C122.652 119.567 123.67 122.552 124.667 125.476C130.883 143.722 136.252 159.482 141.932 179.126C142.177 179.976 141.687 180.865 140.837 181.113C140.688 181.156 140.539 181.177 140.39 181.177L140.395 181.179Z" fill="#00151A"/>
<path d="M175.195 29.5782C176.649 15.067 165.72 1.7945 148.974 0.779168C134.309 -0.104802 122.41 10.3549 120.124 24.9841C116.78 46.3934 133.087 101.01 139.053 102.044C144.598 103.004 171.989 61.6562 175.2 29.5777L175.195 29.5782ZM143.988 40.5091C126.226 37.6767 132.226 13.0593 144.553 11.9415C168.812 9.73393 167.681 44.2898 143.988 40.5091Z" fill="#C2E8F0"/>
</g>
<defs>
<clipPath id="clip0_7767_31452">
<rect width="200" height="216" fill="white"/>
</clipPath>
</defs>
</svg>
