<svg width="200" height="251" viewBox="0 0 200 251" fill="none" xmlns="http://www.w3.org/2000/svg">
<g clip-path="url(#clip0_7605_3362)">
<path d="M189.973 115.835C189.77 116.614 189.342 117.249 189.021 117.63C179.295 129.207 151.349 128.457 135.775 126.696C121.383 125.066 111.267 123.706 91.8999 118.566C87.8223 117.482 80.4717 115.136 73.138 110.661C71.3766 109.585 70.1105 108.56 69.7845 107.172C69.7803 107.163 69.7803 107.155 69.7803 107.146C69.7337 106.871 69.6913 106.609 69.704 106.363C69.8734 103.06 79.7858 99.025 95.5922 99.3637C130.635 100.113 145.857 101.629 169.132 105.652C176.309 106.892 185.231 109.437 187.86 111.351C190.05 112.943 190.299 114.577 189.973 115.835Z" fill="#0095B2"/>
<path d="M197.794 100.744C203.9 84.2898 197.218 67.1581 178.994 62.1024C167.773 58.9945 157.213 67.4249 152.191 77.0832C139.853 100.816 140.746 117.554 144.066 143.764C145.759 157.127 190.731 119.769 197.794 100.744ZM179.015 99.7025C167.574 103.107 157.056 88.6384 165.864 78.5821C167.689 76.4988 173.282 73.8143 176.055 74.1954C190.858 76.2448 192.505 95.6842 179.015 99.7025Z" fill="#86B200"/>
<path d="M108.333 69.7576C101.457 56.9829 86.298 46.7064 72.2192 54.489C57.2892 62.7373 57.0013 81.6389 63.4543 95.7897C69.8268 109.78 94.2457 134.613 107.012 143.666C109.62 145.521 113.452 148.951 115.993 145.25C118.821 120.945 120.388 92.1694 108.329 69.7619L108.333 69.7576ZM86.027 83.9211C75.3017 89.7813 65.7069 73.0773 74.7512 66.7047C87.4794 57.7366 98.2936 77.2141 86.027 83.9211Z" fill="#86B200"/>
<path d="M106.11 85.1449C98.717 90.5647 93.4877 102.366 95.4355 111.952C98.1878 125.531 115.684 151.051 126.519 159.862C131.215 163.677 133.755 160.764 136.093 156.513C141.813 146.092 148.596 120.132 146.708 107.972C143.371 86.4702 124.512 71.6588 106.11 85.1449ZM130.719 101.857C130.465 106.443 128.069 111.588 124.906 112.689C122.759 113.434 118.499 114.827 113.194 111.368C110.573 109.661 108.058 103.792 108.269 100.613C108.494 97.2887 111.678 92.6141 116.547 91.1363C117.703 90.7891 122.814 89.2351 126.985 92.7199C129.284 94.6423 130.961 97.5258 130.715 101.857H130.719Z" fill="#C1DB70"/>
<path d="M174.391 26.2677C176.716 14.649 168.929 3.05138 155.469 0.904619C143.68 -0.971148 133.23 6.54462 130.224 18.193C125.825 35.2401 134.687 80.6946 139.429 82.003C143.837 83.2182 169.259 51.9526 174.396 26.2677H174.391ZM148.291 32.636C134.153 28.9395 140.954 9.50859 151.01 9.58057C170.801 9.71607 167.151 37.5689 148.291 32.636Z" fill="#C1DB70"/>
<path d="M189.973 115.835C189.351 119.544 167.866 142.218 153.648 167.975C152.369 170.3 151.145 172.65 150.002 175.012C149.401 176.249 148.825 177.494 148.27 178.739C143.591 189.286 140.7 199.978 141.415 209.788C141.944 217.063 145.184 230.536 147.186 237.379C147.36 237.98 147.525 238.53 147.682 239.021C149.227 243.95 147.356 245.517 142.063 247.388C131.244 251.208 117.178 251.119 106.292 247.575C102.854 246.461 96.6211 244.179 97.2308 240.487C97.7304 239.259 98.2513 237.954 98.7848 236.583C104.442 221.991 111.403 199.965 110.645 185.717C109.764 169.097 100.5 152.465 90.1639 137.535C84.744 129.702 79.0236 122.33 74.0695 115.682C73.1803 114.488 69.7802 109.915 69.704 106.363C70.0301 107.701 71.3765 109.496 73.138 110.529C80.4717 114.84 87.8223 117.097 91.8999 118.142C111.267 123.092 121.383 124.401 135.775 125.972C151.349 127.665 179.256 128.609 188.983 117.465C189.304 117.097 189.77 116.584 189.973 115.835Z" fill="#99D9E5"/>
<path d="M167.964 211.74C167.477 212.35 165.182 214.738 165.182 214.738C165.182 214.738 166.444 217.317 166.677 218.236C168.057 223.672 164.957 229.24 160.495 232.192C156.895 234.571 152.331 236.257 147.186 237.379C132.794 240.52 113.871 239.259 98.7848 236.583C93.3141 235.613 88.3516 234.457 84.291 233.255C79.591 231.861 75.272 230.248 71.258 227.365C63.6872 213.354 62.0189 196.946 61.7775 181.224C71.855 182.02 86.1921 182.439 87.564 169.398C88.1949 163.407 86.6833 159.249 84.8626 153.752C83.3044 149.057 79.1591 143.307 84.6255 139.225C86.442 137.87 88.3177 137.391 90.1639 137.535C96.2315 138.001 102.032 145.17 104.776 149.992C106.351 152.766 107.77 155.988 108.625 159.066C111.369 168.941 107.202 177.261 122.446 179.395C131.401 180.653 145.721 180.267 148.207 178.861C148.228 178.823 148.249 178.781 148.27 178.739C148.8 177.693 149.405 176.372 150.002 175.013C151.145 172.65 152.369 170.3 153.648 167.975C155.367 168.496 160.058 169.987 162.239 171.443C170.699 177.1 172.164 186.712 165.61 194.367C172.058 198.733 172.477 206.05 167.964 211.74Z" fill="#E8AA7D"/>
<path d="M8.59974 159.155C10.0436 158.944 11.4155 159.473 12.762 159.862C28.9071 164.554 41.3854 169.254 58.7839 170.143C63.8566 170.401 70.6483 169.449 75.361 170.177C78.2953 170.63 79.7307 173.518 80.5733 176.041C84.5535 187.965 82.4576 218.769 77.6898 230.604C75.6277 235.727 73.0279 238.475 67.1042 238.475C51.3952 238.475 16.8523 230.807 6.16505 218.617C-0.893423 210.563 -0.732522 183.13 0.999282 172.823C1.71063 168.606 3.47208 159.909 8.59974 159.16V159.155Z" fill="#86B200"/>
<path d="M135.394 181.19C132.189 181.19 128.89 181.067 125.626 180.822C125.041 180.779 124.605 180.271 124.647 179.687C124.69 179.103 125.211 178.671 125.782 178.709C130.995 179.103 136.304 179.179 141.14 178.929C145.484 178.705 149.706 177.705 153.03 176.117C153.559 175.863 154.19 176.088 154.44 176.613C154.694 177.142 154.469 177.773 153.944 178.023C150.375 179.734 145.865 180.805 141.246 181.042C139.353 181.139 137.388 181.186 135.39 181.186L135.394 181.19Z" fill="#0E2328"/>
<path d="M144.21 203.551C141.868 203.551 139.696 203.339 137.926 203.119C137.346 203.047 136.935 202.518 137.007 201.938C137.079 201.358 137.608 200.947 138.189 201.019C141.838 201.472 147.258 201.891 152.153 200.333C157.327 198.69 161.371 196.209 164.623 194.214L165.224 193.846C165.724 193.541 166.376 193.698 166.681 194.197C166.986 194.697 166.829 195.349 166.329 195.654L165.732 196.022C162.383 198.076 158.217 200.629 152.797 202.353C149.943 203.259 146.958 203.551 144.214 203.551H144.21Z" fill="#0E2328"/>
<path d="M144.019 222.355C141.466 222.355 139.378 222.076 137.812 221.75C137.24 221.631 136.872 221.072 136.99 220.497C137.109 219.925 137.672 219.557 138.244 219.675C141.064 220.26 145.7 220.683 151.802 219.379C156.751 218.32 160.791 216.779 164.513 214.522C165.008 214.217 165.665 214.378 165.965 214.878C166.27 215.377 166.109 216.03 165.61 216.33C161.735 218.68 157.361 220.353 152.242 221.445C149.138 222.106 146.382 222.347 144.023 222.347L144.019 222.355Z" fill="#06272D"/>
</g>
<defs>
<clipPath id="clip0_7605_3362">
<rect width="200" height="249.621" fill="white" transform="translate(0 0.621094)"/>
</clipPath>
</defs>
</svg>
