<svg width="165" height="131" viewBox="0 0 165 131" fill="none" xmlns="http://www.w3.org/2000/svg">
  <path d="M156.189 43.4173C156.192 40.4832 155.509 37.5883 154.193 34.9596C152.877 32.3309 150.965 30.0398 148.606 28.2662C149.877 26.2514 150.555 23.9254 150.565 21.5496C150.568 18.996 149.807 16.4989 148.379 14.3732C146.951 12.2475 144.919 10.5885 142.54 9.60529C140.162 8.62212 137.542 8.35887 135.013 8.84875C132.483 9.33862 130.157 10.5597 128.327 12.3579C126.914 10.8353 125.152 9.6715 123.19 8.96449C121.228 8.25748 119.123 8.02798 117.053 8.29532C114.982 8.56266 113.007 9.31901 111.293 10.5007C109.58 11.6823 108.178 13.2547 107.206 15.0853C105.107 14.3374 102.892 13.9564 100.662 13.9594C97.0733 13.9592 93.5548 14.9411 90.4942 16.7969C87.4336 18.6526 84.95 21.3099 83.3174 24.4757C81.6848 27.6415 80.9666 31.1926 81.2422 34.7372C81.5179 38.2818 82.7765 41.682 84.8792 44.5626C82.3021 46.4387 80.5101 49.1871 79.8434 52.2859C79.1767 55.3847 79.6817 58.6181 81.2626 61.3723C82.8435 64.1265 85.3902 66.2097 88.4191 67.2262C91.4481 68.2427 94.7483 68.1219 97.6932 66.8866C98.5813 69.5505 100.151 71.9408 102.25 73.8243C104.348 75.7077 106.904 77.02 109.667 77.633C112.43 78.246 115.307 78.1389 118.016 77.3221C120.725 76.5052 123.174 75.0066 125.124 72.9723C127.161 75.225 129.932 76.6979 132.953 77.1344C135.974 77.5709 139.053 76.9433 141.655 75.361C144.257 73.7787 146.216 71.342 147.191 68.4756C148.166 65.6091 148.095 62.4947 146.99 59.675C149.801 57.9733 152.123 55.5843 153.734 52.7374C155.345 49.8904 156.19 46.6811 156.189 43.4173Z" fill="#A2AD00"/>
  <path d="M115.434 122.812L115.327 81.1249L110.536 73.6319L111.868 72.5254L115.66 77.4852L115.767 68.2256L95.7334 44.7272L97.3988 43.4072L107.754 54.3265L101.66 33.8079L103.992 33.4778L106.921 43.3198L109.674 31.3231L110.673 31.7405L108.508 45.7172L110.428 54.3265L115.023 60.1986L130.795 25.2083H131.716L126.955 38.9327L131.138 37.1176L131.638 37.9426L126.455 42.0774L120.783 61.441L135.645 56.3065L134.136 50.0267L135.145 49.6967L137.477 55.9765L143.825 53.6665L143.991 55.3165L121.449 68.5556L121.116 122.812H115.434Z" fill="#294D51"/>
  <path d="M45.5605 62.1967H32.1317C32.0062 62.1952 31.8862 62.1441 31.798 62.0546C31.7097 61.9651 31.6602 61.8444 31.6602 61.7186V50.6398C31.6602 50.0405 31.7782 49.4471 32.0073 48.8935C32.2364 48.3399 32.5722 47.837 32.9955 47.4135C33.4188 46.99 33.9213 46.6543 34.4743 46.4255C35.0272 46.1966 35.6198 46.0793 36.218 46.08H45.5314C45.6565 46.08 45.7764 46.1298 45.8648 46.2184C45.9533 46.3069 46.0029 46.4271 46.0029 46.5523V61.7127C46.0029 61.8385 45.9535 61.9593 45.8652 62.0488C45.7769 62.1383 45.657 62.1893 45.5314 62.1909" fill="#555E65"/>
  <path fill-rule="evenodd" clip-rule="evenodd" d="M46.6781 45.3458C45.8548 45.3458 45.1873 46.0114 45.1873 46.8324V119.229C45.1873 120.05 45.8548 120.716 46.6781 120.716C47.5015 120.716 48.1689 120.05 48.1689 119.229V46.8324C48.1689 46.0114 47.5015 45.3458 46.6781 45.3458Z" fill="#555E65"/>
  <path d="M34.6165 54.582C37.8006 53.8998 41.5667 52.6928 43.93 50.5003V50.1563C43.9481 50.0659 43.9446 49.9725 43.9197 49.8837C43.8948 49.7949 43.8493 49.7133 43.7868 49.6455C43.7243 49.5778 43.6466 49.5259 43.5602 49.4941C43.4738 49.4622 43.3811 49.4514 43.2897 49.4624H37.3815C37.0243 49.4321 36.6647 49.4774 36.3261 49.5953C35.9875 49.7133 35.6775 49.9013 35.4162 50.1471C35.1549 50.3929 34.9481 50.691 34.8094 51.0221C34.6706 51.3532 34.6029 51.7098 34.6107 52.0689L34.6165 54.582Z" fill="#A2AD00"/>
  <path d="M34.617 57.8473V58.1447C34.5999 58.2347 34.6042 58.3275 34.6296 58.4155C34.6549 58.5035 34.7007 58.5843 34.763 58.6513C34.8254 58.7183 34.9026 58.7697 34.9885 58.8012C35.0744 58.8327 35.1665 58.8435 35.2573 58.8327H43.2726C43.3637 58.8403 43.4553 58.8275 43.5408 58.7952C43.6264 58.7629 43.7037 58.712 43.7672 58.6462C43.8307 58.5804 43.8788 58.5012 43.908 58.4145C43.9372 58.3278 43.9469 58.2356 43.9362 58.1447V54.6461C41.4332 56.2263 37.7428 57.2526 34.6228 57.8823" fill="#A2AD00"/>
  <path d="M89.4751 115.123L89.599 116.11L88.2983 116.42L88.1182 115.123H89.4751Z" fill="#6F777D"/>
  <path d="M90.8545 115.445L91.2374 117.046L92.3634 116.465V115.49L90.8545 115.445Z" fill="#6F777D"/>
  <path d="M89.4748 102.664V107.075L89.9027 107.351L89.6887 107.628L89.9027 115.123H87.0424V107.707L86.5751 106.957L86.333 102.258L89.4748 102.664Z" fill="#E5E8B8"/>
  <path d="M89.7625 102.426L89.8807 106.939L90.0778 107.373L90.4663 115.382C91.3989 115.513 92.3397 115.577 93.2815 115.574L92.4988 107.018L93.2252 101.806C93.2252 101.806 90.5789 102.274 89.7568 102.41" fill="#E5E8B8"/>
  <path d="M90.4887 117.712L89.9256 116.77V115.772L88.1408 116.223L88.3998 117.351L88.1408 118.84C88.1408 118.84 87.2343 118.575 87.116 118.665C87.0372 119.034 87.0889 119.419 87.2624 119.753C87.2624 119.753 89.3738 120.075 89.5146 119.957C89.6516 119.466 89.7421 118.964 89.7849 118.456C90.0535 118.238 90.3039 117.999 90.5337 117.74" fill="#555E65"/>
  <path d="M92.521 115.98L90.618 116.544L91.0909 117.396L90.7362 119.088C90.7362 119.088 90.1732 118.913 90.0887 118.969C89.9874 119.215 89.9874 119.491 90.0887 119.736C90.0887 119.736 91.6202 120.171 92.1438 119.968L92.6449 118.383C92.9026 118.207 93.1275 117.988 93.3093 117.734L92.6731 116.719L92.521 115.98Z" fill="#555E65"/>
  <path d="M89.8801 87.7009L89.6774 87.1764L86.7158 87.9885L86.8115 88.7725C86.8115 88.7725 88.0165 89.7257 88.7484 89.455C89.4804 89.1842 89.8745 87.7009 89.8745 87.7009" fill="#6F777D"/>
  <path d="M96.575 100.058L96.4512 101.26C96.5638 101.35 96.8847 100.82 97.0142 100.696C97.1437 100.572 97.4984 100.961 97.4984 100.961C97.4984 100.961 96.9354 101.835 97.0311 101.897C97.1268 101.959 98.1572 101.028 98.1572 100.656L97.4815 99.3871L96.575 100.058Z" fill="#6F777D"/>
  <path d="M65.0164 118.659L66.0129 118.31C65.5386 117.375 65.2644 116.351 65.2078 115.304L62.3926 115.608L62.6234 118.428L65.0164 118.659Z" fill="#6F777D"/>
  <path d="M68.124 117.441L68.6082 115.964L71.1419 115.828L71.018 116.77L72.0597 117.983L69.7568 119.618L68.124 117.441Z" fill="#6F777D"/>
  <path d="M65.4331 116.748C65.575 116.927 65.6889 117.127 65.7709 117.34C65.9252 117.714 66.0311 118.106 66.0862 118.507C66.1105 118.857 66.1105 119.207 66.0862 119.556L66.1538 119.906C66.1538 119.906 65.3655 119.985 63.9635 121.254C63.5807 121.598 62.5447 122.67 61.8296 122.698C61.1145 122.726 59.1045 122.518 58.9131 122.315C58.7216 122.111 58.9468 121.457 58.9468 121.457L61.2328 120.07L62.1111 118.507C62.1111 118.507 61.9084 117.199 62.9557 117.126C64.0029 117.052 64.6448 118.66 64.6448 118.66L65.6695 117.684L65.4331 116.748Z" fill="#555E65"/>
  <path d="M68.3669 116.725C67.9383 117.06 67.611 117.508 67.4211 118.019C67.2313 118.53 67.1864 119.083 67.2915 119.618L67.207 120.154C68.1007 120.508 69.065 120.647 70.0222 120.56C72.3533 120.92 74.7279 120.89 77.049 120.47C77.049 120.47 77.1785 119.906 77.049 119.674C77.049 119.674 73.6707 118.8 73.3329 118.738L72.1393 117.807L70.1348 118.496L68.2092 117.266L68.3669 116.725Z" fill="#555E65"/>
  <path d="M71.8232 117.012C71.2715 117.146 70.7783 117.456 70.4186 117.896C70.0589 118.335 69.8522 118.881 69.8301 119.449L72.1273 117.808L71.8232 117.012Z" fill="#555E65"/>
  <path d="M72.1113 83.3858L59.3078 83.4986C59.3078 83.4986 59.1783 98.2869 59.167 98.9355C59.1558 99.5841 61.9034 116.487 61.9034 116.487C61.9034 116.487 65.1352 116.313 65.7095 114.987L64.0655 99.195L64.3639 98.7663L63.936 98.3997L65.9573 86.5837L68.6937 100.441L67.7815 101.005L68.1137 101.66L67.8491 102.399L67.2861 116.014L71.1654 115.811L72.6012 101.823L72.8714 101.079L72.1113 83.3858Z" fill="#C7CACC"/>
  <path d="M61.8633 63.2898L63.2484 85.2862L70.1343 85.399C70.1343 85.399 71.2886 75.8108 70.8269 74.4628C70.3652 73.1148 69.5375 63.662 69.5375 63.662C69.5375 63.662 65.4442 67.0461 61.8633 63.2954" fill="#F1F2F2"/>
  <path d="M64.8249 55.2303C64.8249 55.2303 64.6954 53.2788 64.7179 53.0138C64.7404 52.7487 64.3125 50.425 64.3125 50.425C64.3125 50.425 68.9182 50.9495 69.3404 51.0397C69.5604 51.5648 69.7265 52.1109 69.8359 52.6697L69.6783 53.4988C70.1511 53.9384 70.5793 54.424 70.9564 54.9483C70.9902 55.1401 69.8753 55.5123 69.8753 55.5123C69.8753 55.5123 68.4002 57.413 66.2944 57.1705C65.6469 57.0972 64.8249 55.2416 64.8249 55.2416" fill="#6F777D"/>
  <path d="M62.7361 63.8543C63.1933 62.4726 63.5378 61.0561 63.7665 59.6186C63.8284 59.0546 63.4455 55.2926 63.4455 55.2926C63.733 55.2892 64.0182 55.2396 64.2901 55.146C64.2901 55.146 65.1234 56.9903 65.8047 57.4528C66.536 57.6716 67.2937 57.7893 68.0568 57.8025L68.2032 60.0247C68.5942 61.5976 68.9006 63.1904 69.121 64.7962C69.121 64.7962 65.2078 65.2756 62.7305 63.8543" fill="#6F777D"/>
  <path d="M62.1735 55.4792C61.6421 54.5495 61.3881 53.4866 61.4416 52.4167C61.4775 51.8979 61.6447 51.3968 61.9274 50.9607C62.2101 50.5245 62.599 50.1677 63.0575 49.9237C63.6825 49.6361 67.4942 48.4855 69.386 51.0518C69.386 51.0518 66.1092 50.6118 65.7939 50.9897C65.1295 51.768 65.8445 52.1177 65.7601 53.1217C65.7057 53.914 65.4769 54.6844 65.0901 55.3777L63.6036 56.2858L63.705 57.6112C63.1485 56.9388 62.6369 56.2304 62.1735 55.4905" fill="#6F777D"/>
  <path d="M69.7915 55.3941C69.4747 55.6886 69.1037 55.9185 68.6992 56.0709C68.1361 56.2627 67.4323 56.8662 66.8017 56.7703C66.404 56.7187 66.0296 56.5535 65.723 56.2945C65.4165 56.0354 65.1909 55.6935 65.0732 55.3095L64.1836 55.411C64.2962 56.1438 64.4986 56.8598 64.786 57.543C64.9473 57.8972 65.1901 58.2081 65.4945 58.4503C65.7988 58.6924 66.1561 58.8589 66.5371 58.9361C67.5305 59.1119 68.5455 59.1271 69.5437 58.9812C70.011 58.8853 70.4671 58.6371 70.4896 58.1239C70.5122 57.6106 70.1856 57.5599 70.1856 57.5599C70.1856 57.5599 70.6529 57.0974 70.0899 56.838C70.0899 56.838 70.4164 56.4713 70.3432 56.2006L69.7915 55.3941Z" fill="#6F777D"/>
  <path d="M62.7366 50.3183C62.6797 50.0855 62.5503 49.8768 62.367 49.7227C62.1838 49.5685 61.9563 49.4769 61.7175 49.461C61.5329 49.4146 61.3402 49.4111 61.154 49.4507C60.9678 49.4903 60.793 49.5719 60.6431 49.6894C60.4933 49.807 60.3721 49.9572 60.289 50.1287C60.2059 50.3003 60.163 50.4886 60.1636 50.6792C60.1129 51.2884 60.8617 51.9483 61.8527 51.8524C62.0298 51.2816 62.3318 50.7575 62.7366 50.3183Z" fill="#6F777D"/>
  <path d="M63.1302 60.6506C63.1302 60.6506 57.8038 62.1565 57.0381 63.1322C57.0381 63.1322 58.9017 66.9618 59.2227 69.2291C59.5436 71.4965 58.6596 78.5297 58.4457 81.0733C58.3288 82.4051 58.3157 83.744 58.4063 85.0778C58.4063 85.0778 63.0457 85.2639 64.4815 84.3784C64.4815 84.3784 63.1752 69.7875 62.8205 67.0746C62.8205 67.0746 63.0119 61.3668 63.1302 60.6506Z" fill="#E5E8B8"/>
  <path d="M64.1548 84.5029L64.425 85.8509C64.425 85.8509 59.3183 86.7025 59.1212 86.6969C58.9595 86.1683 58.8557 85.6236 58.8115 85.0726C60.5972 84.999 62.3763 84.8106 64.1379 84.5085" fill="#909A00"/>
  <path d="M63.7945 59.6467C63.7945 59.6467 60.771 59.737 59.9434 60.9101C61.1525 63.1308 62.119 65.4755 62.8261 67.9038C62.8261 67.9038 62.9444 66.7758 63.0739 65.0838C63.1977 63.5215 63.7495 60.7578 63.7608 60.4758L63.7945 59.6467Z" fill="#909A00"/>
  <path d="M64.1666 54.5431C64.1666 54.5431 64.1666 53.9791 63.7049 53.8493C63.6042 53.8316 63.5011 53.834 63.4014 53.8565C63.3017 53.8791 63.2075 53.9212 63.1242 53.9805C63.0409 54.0398 62.9702 54.1151 62.9162 54.202C62.8622 54.2888 62.826 54.3856 62.8096 54.4867C62.7442 54.7721 62.7458 55.0689 62.8142 55.3537C62.8826 55.6385 63.0159 55.9035 63.2038 56.1279C63.5631 56.3831 63.986 56.5334 64.4256 56.5622L64.1666 54.5431Z" fill="#6F777D"/>
  <path d="M86.48 88.6711C86.48 88.6711 86.1027 102.207 86.2153 102.895C86.2153 102.895 90.1285 104.305 93.7544 102.698L91.1757 88.0676L89.7625 87.7687C89.7625 87.7687 88.9179 88.7783 87.9889 88.7783C86.7558 88.7783 86.8121 88.4399 86.8121 88.4399C86.8121 88.4399 86.7108 88.5189 86.48 88.6711Z" fill="#E5E8B8"/>
  <path d="M87.8485 101.079L87.4543 91.2258C87.4543 91.2258 86.2607 89.5337 84.9995 89.2235L83.0739 91.3047L81.7451 88.6708L81.4298 88.8118V88.2478L79.6281 89.2686L79.7857 89.6634L79.3916 89.9962C79.3916 89.9962 81.1708 94.0571 82.325 94.0571C82.5277 94.0571 85.2923 92.3651 85.2923 92.3651L84.5885 101.429C84.5885 101.429 86.7449 101.823 87.8485 101.04" fill="#909A00"/>
  <path d="M90.7139 101.209L90.9954 91.9702L92.3748 88.6933C92.3748 88.6933 93.3939 89.043 93.5516 89.3193C93.5516 89.3193 97.5492 98.304 97.5492 98.5014C97.5492 98.6988 97.1156 98.8567 97.1156 98.8567L97.5492 99.4207C97.3542 99.6814 97.098 99.8898 96.8034 100.028C96.5087 100.165 96.1847 100.228 95.86 100.21L95.5898 99.5787L95.0774 99.6971L92.6789 92.3988L94.1315 100.859C94.1315 100.859 93.0899 102.117 90.7139 101.248" fill="#909A00"/>
  <path d="M81.08 88.4563L80.4156 87.3734L79.3965 88.0728L79.9032 89.1219L81.08 88.4563Z" fill="#6F777D"/>
  <path d="M78.0333 86.3583C78.0333 86.3583 77.3633 85.7943 77.2732 85.4784C77.2732 85.4784 77.5097 83.7864 77.5097 83.5777C77.2043 82.9494 76.8504 82.346 76.4512 81.7729L78.0333 80.5603L79.1594 82.5287C79.1594 82.5287 81.0399 84.0289 81.2483 84.1192C81.2483 84.1192 80.9499 86.5952 80.9217 86.9054C80.8936 87.2156 79.1594 89.4434 79.0693 89.4886C78.9792 89.5337 78.54 89.5957 78.6583 88.9753C78.7765 88.3549 79.2213 85.2698 79.2213 85.2698C79.2213 85.2698 78.0952 85.7661 78.0446 86.3583" fill="#6F777D"/>
  <path d="M79.2672 86.8207C79.2672 86.8207 79.0026 87.5032 78.8281 87.5652C78.6535 87.6272 78.1524 87.035 78.0342 86.3582C78.0342 86.3582 78.1806 85.4558 78.6479 85.2302C78.7952 85.1488 78.9573 85.0978 79.1246 85.0804C79.292 85.063 79.4611 85.0794 79.622 85.1287C79.7684 85.2076 79.5263 86.2567 79.2672 86.7925" fill="#6F777D"/>
  <path d="M73.2875 63.1321L75.0554 72.8782H75.5734L75.3426 73.1884L79.0643 80.842L78.8222 81.406L79.0643 81.97L77.3752 83.3688L76.9078 82.8048H76.0464L73.4508 79.4207L73.3044 73.4422C73.3044 73.4422 71.4857 66.6741 73.3044 63.1547" fill="#909A00"/>
  <path d="M73.3213 73.9672L73.1299 67.7631C73.1299 67.7631 73.0454 66.669 72.9103 65.4056L73.2819 63.1495L72.1952 61.7339C72.1952 61.7339 69.7235 60.8202 68.4229 60.2618C68.4229 60.2618 69.487 73.3581 69.3631 75.2927C69.2393 77.2272 69.0478 84.8301 68.7044 85.6197C70.4481 86.1332 72.2805 86.2715 74.0814 86.0258L74.149 85.2305L74.5487 85.0444L73.3213 73.9672Z" fill="#E5E8B8"/>
  <path d="M74.1497 85.3323C74.1497 85.3323 70.3154 85.8512 68.9304 84.7232L68.6826 85.7158C70.435 86.1801 72.2576 86.3178 74.0597 86.1219L74.1497 85.3323Z" fill="#909A00"/>
  <path d="M68.209 59.8219C68.209 59.8219 68.8452 63.9166 69.0761 65.2421C69.0761 65.2421 68.6087 61.5534 70.7258 63.9561C70.7258 63.9561 70.9791 60.0419 68.209 59.8219Z" fill="#909A00"/>
  <path d="M86.5475 88.0334C86.5475 88.0334 84.8584 88.9076 84.8584 89.1614C84.8584 89.4152 86.8966 90.233 87.4709 91.2144C87.4489 90.9339 87.3999 90.6563 87.3245 90.3853C87.1123 89.6956 86.9653 88.9875 86.8853 88.2702C86.7548 88.236 86.641 88.1559 86.5644 88.0446" fill="#909A00"/>
  <path d="M89.7623 87.4358C89.7623 87.4358 92.2622 88.0506 92.5775 88.0901C92.6647 88.3653 92.6647 88.6609 92.5775 88.9361C92.4198 89.2858 90.9897 91.7167 90.9616 92.2074C90.9616 92.2074 90.7814 91.4854 90.6801 91.0116C90.5787 90.5379 90.6801 88.9192 89.7285 87.7742L89.7623 87.4358Z" fill="#909A00"/>
  <path d="M86.2817 84.2544C86.1712 84.0434 86.0108 83.8626 85.8145 83.7279C85.6182 83.5933 85.3921 83.5087 85.1557 83.4817C84.8763 83.4841 84.6005 83.5445 84.3457 83.6591C84.0908 83.7736 83.8624 83.9398 83.6749 84.1472L83.6186 84.3165L84.1816 83.9611L83.5566 84.5251C83.557 84.8831 83.6438 85.2357 83.8094 85.5529C83.9751 85.8701 84.2148 86.1425 84.5082 86.3469C84.5082 86.3469 84.7728 84.3841 85.9664 84.4462L86.2817 84.2544Z" fill="#6F777D"/>
  <path d="M91.2707 85.1458C91.2344 85.0453 91.1703 84.9573 91.0859 84.8919C91.0016 84.8265 90.9005 84.7864 90.7943 84.7764C90.6881 84.7663 90.5812 84.7867 90.4861 84.8351C90.3911 84.8835 90.3117 84.958 90.2572 85.0499C90.2572 85.0499 89.1762 83.888 89.1762 83.2225L86.2371 82.8108C85.928 83.4049 85.6735 84.026 85.477 84.6664C85.4474 84.9165 85.4863 85.1699 85.5896 85.3996C85.4825 85.5942 85.4168 85.8089 85.3964 86.0302C85.3761 86.2515 85.4016 86.4746 85.4714 86.6855C85.6327 87.1416 85.9172 87.5439 86.2934 87.8474C86.4305 88.01 86.6039 88.1382 86.7995 88.2214C86.9951 88.3047 87.2074 88.3408 87.4195 88.3268C88.2227 88.2452 88.9949 87.9726 89.6717 87.5315C90.047 87.1939 90.3284 86.7644 90.4881 86.2851C90.5972 86.3237 90.717 86.3182 90.8221 86.2697C90.9272 86.2213 91.0094 86.1337 91.0511 86.0256C91.113 85.8395 91.3946 85.4616 91.2989 85.1458" fill="#6F777D"/>
  <path d="M88.8618 83.2791C88.8083 83.5584 88.6724 83.8152 88.4717 84.0163C88.2709 84.2174 88.0145 84.3535 87.7357 84.4071C86.8539 84.4751 85.9686 84.3341 85.1514 83.9954C85.1514 83.9954 85.4779 81.9311 86.8968 81.3446C88.3157 80.758 88.9575 81.243 88.9575 81.243C89.2541 81.1752 89.5618 81.1728 89.8593 81.2361C90.1569 81.2994 90.437 81.4269 90.6804 81.6096C91.5362 82.2413 92.1331 82.8279 92.1894 84.0687C92.2601 84.7002 92.0975 85.3357 91.7323 85.8553C91.3672 86.3748 90.8248 86.7425 90.2075 86.8888L90.4946 86.2796C90.6117 86.2833 90.7273 86.2528 90.8273 86.1916C90.9273 86.1305 91.0074 86.0416 91.0577 85.9356C91.2209 85.5013 91.1252 85.1911 90.7649 85.2137C90.6471 85.2295 90.5346 85.273 90.4368 85.3407C90.3389 85.4083 90.2584 85.4981 90.2018 85.6028C90.2018 85.6028 88.7098 84.6045 88.8562 83.2735" fill="#6F777D"/>
  <path d="M92.1837 83.9728C92.1782 84.2864 92.1385 84.5985 92.0654 84.9034C92.0654 84.9034 93.4618 86.1499 93.4561 86.9451C93.5677 86.6588 93.5816 86.3435 93.4956 86.0484L93.732 86.8098C94.1224 86.4303 94.4647 86.0041 94.7511 85.5408L94.0473 84.9767L95.0045 85.49C95.1264 84.9955 95.1264 84.4786 95.0045 83.9841C94.7784 83.7353 94.495 83.5456 94.179 83.4316C93.8631 83.3176 93.5241 83.2826 93.1915 83.3298C92.3469 83.4596 92.2006 83.9841 92.2006 83.9841" fill="#6F777D"/>
  <path d="M86.8224 86.7865H86.7042C86.5928 86.7866 86.4844 86.751 86.3945 86.6849C86.3945 86.6849 86.6029 87.2777 86.8112 87.2495C87.1209 87.2099 87.3348 86.7301 87.3348 86.7301C87.1668 86.7681 86.9947 86.7851 86.8224 86.7809" fill="#F1F2F2"/>
  <path d="M57.0389 63.1321L54.9162 71.9814L54.5615 72.1676L54.95 72.3198C54.95 72.3198 59.1728 72.7711 59.4825 72.5793C59.4825 72.5793 59.5219 69.4208 59.0208 67.7683C58.4802 66.1741 57.8177 64.6241 57.0389 63.1321Z" fill="#909A00"/>
  <path d="M64.251 69.1725C64.251 69.1725 65.2757 67.5482 65.5009 67.3057C65.7261 67.0632 66.9761 66.1777 66.9761 66.1777C66.9761 66.1777 67.2689 66.6853 66.9761 66.9785C66.6833 67.2718 66.1541 67.7174 66.1541 67.7174L65.028 69.7365L64.251 69.1725Z" fill="#6F777D"/>
  <path d="M67.4657 65.7778C67.5389 65.9752 67.3249 66.2459 66.9758 66.3756C66.6268 66.5054 66.2946 66.4433 66.2214 66.2403C66.1482 66.0372 66.3621 65.7721 66.7056 65.6424C67.049 65.5127 67.3925 65.5747 67.4657 65.7778Z" fill="#F1F2F2"/>
  <path d="M69.4074 64.7831L67.7185 64.1384C67.4279 64.0275 67.1026 64.1735 66.9919 64.4646L65.6787 67.9167C65.568 68.2078 65.7138 68.5337 66.0043 68.6446L67.6932 69.2893C67.9838 69.4002 68.3091 69.2541 68.4198 68.9631L69.7331 65.5109C69.8438 65.2199 69.698 64.894 69.4074 64.7831Z" fill="#122224"/>
  <path d="M65.9117 68.0052L68.1638 67.2833C68.7077 67.3168 69.2441 67.4269 69.7572 67.6104C70.1851 67.8473 69.6953 69.8665 69.3575 70.1541C69.0197 70.4418 66.165 70.8309 66.165 70.8309L63.4174 72.021L63.3555 69.827L65.9117 68.0052Z" fill="#6F777D"/>
  <path d="M63.7382 69.4949L63.3047 69.7882L62.3925 69.4385L59.3577 70.2338L55.4728 71.7904L55.0899 72.1627L54.9154 72.3375C54.9154 72.3375 53.6429 74.774 56.6045 75.8739L64.1323 72.9749L64.3407 72.1627L64.9882 71.751L63.7382 69.4949Z" fill="#909A00"/>
  <path d="M101.201 7.30687C101.391 4.64531 98.2811 2.30178 97.1147 4.67076C95.9481 7.03975 98.1193 12.7777 98.1193 12.7777C98.1193 12.7777 104.066 11.7234 105.565 9.90524C107.063 8.08707 105.331 6.28316 101.201 7.30687ZM4.13584 58.0995C3.43131 57.3344 1.93493 57.5857 2.29545 58.5481C2.65596 59.5106 4.86474 60.4315 4.86474 60.4315C4.86474 60.4315 6.15516 58.4713 6.0396 57.5626C5.92404 56.6538 4.94924 56.6603 4.13584 58.0995ZM11.3559 38.2212C11.3487 38.2788 11.3272 38.3337 11.2934 38.3809C11.2596 38.428 11.2145 38.4661 11.1622 38.4915C11.1132 38.5171 11.0592 38.5319 11.004 38.5347C10.9648 38.5397 10.925 38.5361 10.8875 38.524C10.8499 38.5119 10.8155 38.4916 10.7867 38.4646C10.758 38.4377 10.7355 38.4047 10.7211 38.3681C10.7066 38.3315 10.7004 38.2921 10.7031 38.2528C10.7575 37.6193 10.8383 36.9829 10.9434 36.3613C10.9623 36.2772 11.01 36.2022 11.0782 36.1491C11.1464 36.0961 11.2309 36.0682 11.3173 36.0703C11.3566 36.0683 11.3959 36.0752 11.4322 36.0903C11.4685 36.1054 11.5009 36.1285 11.5271 36.1577C11.5533 36.187 11.5726 36.2217 11.5836 36.2594C11.5946 36.2971 11.597 36.3367 11.5906 36.3754C11.4879 36.9819 11.409 37.603 11.3559 38.2212ZM11.9821 34.5347C11.9684 34.5828 11.9448 34.6275 11.9129 34.666C11.8809 34.7045 11.8412 34.7359 11.7964 34.7583C11.7323 34.7921 11.6597 34.8067 11.5874 34.8002C11.5482 34.7989 11.5098 34.7887 11.4751 34.7704C11.4404 34.7522 11.4103 34.7263 11.387 34.6949C11.3637 34.6634 11.3478 34.627 11.3406 34.5886C11.3334 34.5501 11.335 34.5105 11.3453 34.4728C11.5067 33.8447 11.6977 33.2146 11.9129 32.6C11.9443 32.5194 12.0025 32.4518 12.0777 32.4087C12.1529 32.3655 12.2407 32.3493 12.3264 32.3628C12.3653 32.3678 12.4025 32.3816 12.4352 32.403C12.468 32.4244 12.4954 32.453 12.5155 32.4865C12.5356 32.5201 12.5477 32.5578 12.5511 32.5967C12.5544 32.6356 12.5489 32.6748 12.5348 32.7112C12.3253 33.3096 12.1394 33.9231 11.9821 34.5347ZM14.1238 29.1674C13.8077 29.7406 13.5135 30.3296 13.2498 30.918C13.2149 30.9931 13.1556 31.0543 13.0816 31.0918C13.0015 31.1347 12.9082 31.1464 12.82 31.1246C12.7818 31.1157 12.7462 31.0983 12.7157 31.0738C12.6853 31.0492 12.6608 31.018 12.6442 30.9826C12.6276 30.9473 12.6193 30.9086 12.6199 30.8695C12.6204 30.8305 12.6299 30.792 12.6475 30.7572C12.9186 30.1525 13.2208 29.5473 13.5457 28.9582C13.5883 28.8829 13.6555 28.8244 13.7362 28.7926C13.8168 28.7609 13.906 28.7577 13.9887 28.7836C14.0258 28.7964 14.0595 28.8174 14.0873 28.845C14.1151 28.8726 14.1363 28.9061 14.1493 28.943C14.1623 28.9799 14.1667 29.0192 14.1623 29.0581C14.1579 29.097 14.1447 29.1343 14.1238 29.1674ZM14.5096 54.0998C14.4911 54.0635 14.48 54.0238 14.477 53.9832C14.474 53.9425 14.4791 53.9017 14.4921 53.8631C14.5051 53.8244 14.5256 53.7887 14.5526 53.7581C14.5795 53.7274 14.6123 53.7024 14.649 53.6845C14.7178 53.6375 14.8023 53.6189 14.8846 53.6325C14.9669 53.6462 15.0407 53.6911 15.0906 53.7578C15.1487 53.8516 15.2073 53.945 15.2664 54.038C15.4161 53.9867 15.5665 53.937 15.7175 53.8891C15.7547 53.8736 15.7947 53.866 15.835 53.8668C15.8754 53.8675 15.9151 53.8765 15.9517 53.8933C15.9884 53.9101 16.0212 53.9342 16.048 53.9642C16.0748 53.9943 16.0951 54.0295 16.1077 54.0677C16.1212 54.1509 16.1031 54.2362 16.057 54.3068C16.0108 54.3774 15.94 54.4283 15.8582 54.4497C15.7692 54.4779 15.6804 54.5068 15.592 54.5363C15.7524 54.7759 15.9157 55.0109 16.0819 55.2415C16.103 55.2762 16.1168 55.3147 16.1225 55.3548C16.1283 55.3949 16.1258 55.4358 16.1153 55.4749C16.1048 55.514 16.0864 55.5506 16.0614 55.5825C16.0363 55.6144 16.005 55.6408 15.9694 55.6603C15.9579 55.668 15.9459 55.6751 15.9336 55.6814C15.8677 55.7207 15.7899 55.7353 15.7142 55.7226C15.6384 55.7099 15.5697 55.6708 15.5202 55.6122C15.3221 55.3375 15.1271 55.055 14.9369 54.7673C14.5929 54.8955 14.2543 55.0327 13.9239 55.1777C13.888 55.197 13.8486 55.2089 13.808 55.2128C13.7674 55.2167 13.7264 55.2124 13.6875 55.2003C13.6485 55.1882 13.6124 55.1684 13.5812 55.1422C13.55 55.116 13.5244 55.0838 13.5059 55.0476C13.4809 54.968 13.4876 54.8819 13.5247 54.8072C13.5618 54.7325 13.6264 54.6749 13.705 54.6465C14.0035 54.5156 14.3077 54.391 14.6176 54.2729C14.5815 54.2153 14.5455 54.1576 14.5096 54.0998ZM11.3295 41.8881C11.3305 41.9531 11.3128 42.017 11.2785 42.0723C11.2441 42.1275 11.1945 42.1717 11.1357 42.1997C11.1003 42.2181 11.0623 42.2309 11.023 42.2378C10.9845 42.2481 10.9443 42.2499 10.905 42.2433C10.8657 42.2367 10.8284 42.2217 10.7954 42.1993C10.7625 42.177 10.7348 42.1478 10.7141 42.1139C10.6935 42.0799 10.6805 42.0419 10.6759 42.0024C10.6329 41.3804 10.6129 40.7525 10.6168 40.1364C10.6234 40.051 10.66 39.9707 10.7203 39.9098C10.7806 39.8488 10.8605 39.8111 10.946 39.8034C10.9849 39.7956 11.025 39.7963 11.0635 39.8056C11.102 39.8149 11.1381 39.8324 11.1691 39.857C11.2001 39.8816 11.2254 39.9127 11.2431 39.9481C11.2608 39.9834 11.2705 40.0222 11.2716 40.0617C11.2679 40.6649 11.2873 41.2793 11.3295 41.8881ZM12.2678 47.2155C12.4291 47.7868 12.6116 48.3615 12.81 48.9238C12.8299 48.9978 12.8228 49.0765 12.7898 49.1457C12.7568 49.215 12.7002 49.2702 12.6301 49.3016C12.6179 49.308 12.6054 49.3136 12.5926 49.3186C12.5562 49.3366 12.5165 49.347 12.4759 49.3493C12.4354 49.3516 12.3948 49.3456 12.3566 49.3319C12.3184 49.3181 12.2833 49.2967 12.2536 49.2691C12.2239 49.2414 12.2001 49.2081 12.1837 49.1711C11.9818 48.5987 11.7962 48.0139 11.632 47.4325C11.6163 47.3499 11.6321 47.2645 11.6764 47.193C11.7208 47.1215 11.7904 47.0692 11.8715 47.0464C11.9085 47.0301 11.9484 47.0216 11.9888 47.0214C12.0293 47.0212 12.0693 47.0293 12.1065 47.0451C12.1436 47.061 12.1771 47.0843 12.2049 47.1136C12.2326 47.1429 12.254 47.1776 12.2678 47.2155ZM13.4587 50.5905C13.6973 51.1492 13.9516 51.6934 14.2149 52.2081C14.2461 52.2844 14.246 52.3698 14.2148 52.4461C14.1835 52.5224 14.1235 52.5834 14.0476 52.6161L14.0454 52.6172C13.9747 52.6603 13.8897 52.6738 13.8089 52.6548C13.7282 52.6357 13.6583 52.5856 13.6145 52.5154C13.346 51.9907 13.0867 51.4361 12.8438 50.8672C12.8181 50.788 12.8239 50.702 12.8602 50.627C12.8965 50.5521 12.9603 50.494 13.0384 50.4648C13.0742 50.4452 13.1136 50.4329 13.1542 50.4286C13.1948 50.4243 13.2358 50.4281 13.275 50.4398C13.3141 50.4515 13.3505 50.4709 13.382 50.4968C13.4135 50.5226 13.4396 50.5545 13.4587 50.5905ZM16.3176 25.8417C15.9052 26.3745 15.5123 26.923 15.1498 27.472C15.1141 27.5255 15.0653 27.569 15.0081 27.5985C14.9608 27.6244 14.9082 27.6392 14.8543 27.6418C14.8004 27.6444 14.7467 27.6347 14.6971 27.6136C14.6615 27.5969 14.63 27.5726 14.6051 27.5422C14.5802 27.5119 14.5624 27.4764 14.5531 27.4383C14.5438 27.4002 14.5431 27.3604 14.5512 27.3221C14.5593 27.2837 14.5759 27.2476 14.5999 27.2165C14.972 26.6528 15.3752 26.0897 15.7986 25.543C15.8504 25.4742 15.9246 25.4257 16.0085 25.4059C16.0923 25.386 16.1805 25.3961 16.2577 25.4343C16.2915 25.4546 16.3204 25.4821 16.3423 25.5149C16.3642 25.5477 16.3785 25.5849 16.3842 25.6238C16.3899 25.6628 16.3869 25.7025 16.3754 25.7402C16.3639 25.7779 16.3442 25.8125 16.3176 25.8417ZM11.836 45.4703C11.8461 45.5407 11.8332 45.6124 11.7992 45.6749C11.7652 45.7374 11.7119 45.7873 11.6472 45.8172C11.6239 45.8293 11.5995 45.8391 11.5743 45.8464C11.5368 45.8608 11.4967 45.8672 11.4565 45.8653C11.4163 45.8634 11.377 45.8531 11.341 45.8351C11.305 45.8172 11.2732 45.7919 11.2476 45.761C11.222 45.7301 11.2031 45.6942 11.1922 45.6555C11.0644 45.0547 10.9562 44.4452 10.8708 43.8441C10.8656 43.7594 10.8916 43.6758 10.9438 43.6088C10.9961 43.5418 11.071 43.4961 11.1546 43.4802C11.1926 43.4677 11.2328 43.4634 11.2726 43.4676C11.3124 43.4718 11.3509 43.4844 11.3855 43.5045C11.4201 43.5245 11.45 43.5517 11.4732 43.5842C11.4965 43.6167 11.5126 43.6537 11.5205 43.6928C11.6044 44.2825 11.7105 44.8806 11.836 45.4703ZM66.3878 23.4032C66.4558 23.3548 66.5398 23.3339 66.6226 23.345C66.7055 23.356 66.781 23.3981 66.8338 23.4627C67.1673 23.9575 67.4916 24.4751 67.798 25.0011C67.8155 25.038 67.8256 25.078 67.8275 25.1188C67.8295 25.1596 67.8234 25.2004 67.8095 25.2388C67.7956 25.2772 67.7743 25.3125 67.7467 25.3426C67.7191 25.3728 67.6857 25.3972 67.6487 25.4145L67.637 25.4209C67.5678 25.463 67.4852 25.4772 67.4059 25.4607C67.3267 25.4441 67.2567 25.398 67.2104 25.3318C66.9092 24.8149 66.5907 24.3065 66.2631 23.8206C66.2431 23.7852 66.2305 23.7462 66.226 23.7058C66.2215 23.6654 66.2252 23.6245 66.2369 23.5856C66.2485 23.5467 66.2678 23.5105 66.2938 23.4792C66.3197 23.4478 66.3517 23.422 66.3878 23.4032ZM65.2146 22.3747C64.8459 21.9022 64.4581 21.4408 64.062 21.0033C64.0371 20.9717 64.0191 20.9353 64.009 20.8964C63.999 20.8575 63.9971 20.8169 64.0036 20.7773C64.0101 20.7377 64.0248 20.6998 64.0468 20.6661C64.0687 20.6324 64.0975 20.6037 64.1312 20.5817C64.195 20.5263 64.2771 20.4964 64.3617 20.4979C64.4462 20.4994 64.5272 20.5322 64.589 20.5898C64.9933 21.0363 65.389 21.5071 65.765 21.989C65.7874 22.0227 65.8027 22.0605 65.8099 22.1003C65.8172 22.14 65.8162 22.1808 65.807 22.2202C65.7979 22.2595 65.7807 22.2966 65.7567 22.3291C65.7327 22.3616 65.7022 22.3889 65.6672 22.4093C65.6529 22.4193 65.6379 22.4284 65.6224 22.4365C65.5577 22.4747 65.4817 22.4894 65.4074 22.4781C65.3331 22.4668 65.265 22.4303 65.2146 22.3747ZM57.2192 15.4444C57.1835 15.4969 57.1353 15.5396 57.0788 15.5687C57.0312 15.5948 56.9782 15.6096 56.9239 15.6121C56.8697 15.6145 56.8155 15.6045 56.7658 15.5829C56.2034 15.3159 55.62 15.0662 55.0317 14.8406C54.9949 14.827 54.9617 14.8052 54.9345 14.777C54.9073 14.7488 54.8868 14.7148 54.8747 14.6776C54.8625 14.6404 54.8588 14.6009 54.8641 14.5622C54.8693 14.5234 54.8832 14.4863 54.9048 14.4536C54.9486 14.379 55.0167 14.3216 55.0978 14.2911C55.1789 14.2606 55.2681 14.2589 55.3503 14.2862C55.9526 14.5173 56.5499 14.773 57.1254 15.0462C57.1609 15.0632 57.1921 15.0879 57.2168 15.1184C57.2414 15.149 57.2589 15.1847 57.2679 15.2229C57.2768 15.2611 57.2771 15.3009 57.2687 15.3392C57.2603 15.3775 57.2434 15.4135 57.2192 15.4444ZM29.2975 54.6822C29.3431 54.6088 29.4127 54.5533 29.4945 54.5251C29.5764 54.4969 29.6655 54.4978 29.7468 54.5275C30.3391 54.7772 30.9176 55.0583 31.4797 55.3697C31.5138 55.3894 31.5431 55.4164 31.5655 55.4488C31.5879 55.4812 31.6027 55.5182 31.6091 55.557C31.6154 55.5959 31.6129 55.6356 31.602 55.6734C31.591 55.7112 31.5717 55.746 31.5456 55.7755C31.5112 55.8207 31.4672 55.8577 31.4166 55.8838C31.3664 55.9115 31.3101 55.9266 31.2526 55.9276C31.1952 55.9286 31.1384 55.9156 31.0872 55.8896C30.543 55.5881 29.983 55.316 29.4096 55.0744C29.3734 55.0592 29.341 55.0362 29.315 55.0069C29.2889 54.9776 29.2698 54.9428 29.259 54.9052C29.2482 54.8675 29.2461 54.8279 29.2527 54.7893C29.2594 54.7507 29.2747 54.7141 29.2975 54.6822ZM59.8002 19.209C59.7778 19.7985 59.7813 20.4142 59.8106 21.0391C59.8103 21.1032 59.7918 21.1658 59.7575 21.2198C59.7231 21.2739 59.6742 21.3172 59.6163 21.3449C59.579 21.3644 59.5388 21.3776 59.4972 21.3841C59.4586 21.3936 59.4184 21.3947 59.3793 21.3873C59.3403 21.3799 59.3033 21.3641 59.2709 21.3411C59.2385 21.3181 59.2115 21.2884 59.1917 21.254C59.1719 21.2196 59.1598 21.1813 59.1562 21.1418C59.1262 20.5018 59.1227 19.8709 59.1457 19.2666C59.1547 19.1813 59.1936 19.1019 59.2555 19.0423C59.3174 18.9828 59.3983 18.9469 59.4841 18.941C59.5231 18.9343 59.5632 18.9362 59.6013 18.9466C59.6395 18.957 59.6749 18.9757 59.7051 19.0012C59.7353 19.0268 59.7594 19.0587 59.7758 19.0946C59.7923 19.1305 59.8006 19.1696 59.8002 19.209ZM63.266 19.6955C63.2421 19.7166 63.2156 19.7347 63.1873 19.7494C63.1277 19.7836 63.059 19.7987 62.9906 19.7927C62.9221 19.7866 62.8571 19.7597 62.8045 19.7156C62.3665 19.3003 61.9082 18.8984 61.4424 18.5211C61.4126 18.4947 61.389 18.4622 61.373 18.4258C61.357 18.3894 61.349 18.35 61.3497 18.3103C61.3503 18.2706 61.3595 18.2314 61.3766 18.1956C61.3937 18.1597 61.4184 18.1279 61.4489 18.1024C61.5074 18.0402 61.5863 18.001 61.6713 17.992C61.7563 17.983 61.8417 18.0047 61.912 18.0533C62.3884 18.4389 62.8568 18.8499 63.3045 19.2744C63.3319 19.3036 63.3528 19.3382 63.3658 19.3759C63.3788 19.4137 63.3836 19.4538 63.38 19.4936C63.3764 19.5333 63.3643 19.5719 63.3447 19.6067C63.325 19.6415 63.2982 19.6718 63.266 19.6955ZM22.6885 61.3366C23.224 61.6506 23.7783 61.9417 24.3361 62.2019C24.3717 62.2186 24.403 62.2431 24.4279 62.2735C24.4527 62.3039 24.4704 62.3395 24.4797 62.3776C24.4889 62.4157 24.4895 62.4554 24.4813 62.4937C24.4732 62.5321 24.4565 62.5682 24.4325 62.5992C24.3968 62.6525 24.3482 62.6959 24.2911 62.7252C24.2437 62.7511 24.1911 62.7659 24.1371 62.7685C24.0831 62.7711 24.0293 62.7614 23.9797 62.7401C23.4058 62.4725 22.8357 62.1731 22.2852 61.8503C22.2516 61.8296 22.223 61.8018 22.2014 61.7688C22.1799 61.7358 22.1659 61.6985 22.1605 61.6595C22.1551 61.6205 22.1584 61.5808 22.1702 61.5432C22.182 61.5056 22.202 61.4711 22.2288 61.4421C22.2809 61.3737 22.3555 61.3257 22.4395 61.3064C22.5235 61.2871 22.6116 61.2978 22.6885 61.3366ZM19.2497 59.2506C19.3092 59.1896 19.3888 59.1521 19.4738 59.145C19.5588 59.1378 19.6436 59.1615 19.7124 59.2117C20.1744 59.6073 20.6567 59.9852 21.1458 60.3351C21.1772 60.3594 21.2029 60.3901 21.2211 60.4253C21.2394 60.4604 21.2497 60.4991 21.2514 60.5387C21.2532 60.5782 21.2463 60.6176 21.2312 60.6543C21.2161 60.6909 21.1932 60.7237 21.1641 60.7506C21.1334 60.7841 21.097 60.8119 21.0567 60.8328C21.0021 60.8635 20.9401 60.8787 20.8775 60.8768C20.8148 60.8749 20.7539 60.8559 20.7013 60.822C20.1997 60.4633 19.7053 60.0758 19.2318 59.6703C19.2029 59.6429 19.1802 59.6096 19.1653 59.5727C19.1504 59.5358 19.1435 59.4961 19.1452 59.4564C19.1469 59.4166 19.1571 59.3777 19.1751 59.3422C19.1932 59.3067 19.2186 59.2754 19.2497 59.2506ZM17.7819 53.347C18.4708 53.2027 19.1732 53.0916 19.8697 53.0168C19.9086 53.0093 19.9487 53.0103 19.9872 53.0199C20.0256 53.0294 20.0615 53.0472 20.0923 53.0721C20.1231 53.0969 20.1481 53.1282 20.1655 53.1637C20.1829 53.1992 20.1924 53.2381 20.1931 53.2776C20.1894 53.3387 20.1694 53.3979 20.1352 53.4488C20.101 53.4997 20.0538 53.5406 19.9984 53.5673C19.9558 53.5895 19.9094 53.6035 19.8615 53.6088C19.1895 53.6811 18.5118 53.7881 17.8474 53.9274C17.8092 53.9389 17.7689 53.9423 17.7294 53.9371C17.6898 53.9319 17.6517 53.9184 17.6178 53.8974C17.5839 53.8764 17.5548 53.8484 17.5326 53.8153C17.5103 53.7822 17.4955 53.7448 17.4889 53.7055C17.4861 53.6205 17.5142 53.5374 17.5681 53.4715C17.6219 53.4056 17.6979 53.3613 17.7819 53.347ZM18.339 58.4015C18.317 58.42 18.2931 58.436 18.2675 58.4492C18.2068 58.4843 18.1365 58.4993 18.0667 58.4921C17.9969 58.485 17.9311 58.456 17.8788 58.4094C17.4542 57.9795 17.0381 57.523 16.6422 57.0526C16.6185 57.02 16.6018 56.9829 16.5931 56.9435C16.5845 56.9042 16.584 56.8635 16.5919 56.824C16.5997 56.7844 16.6156 56.747 16.6386 56.7138C16.6616 56.6807 16.6912 56.6527 16.7255 56.6315C16.7904 56.5776 16.8731 56.5499 16.9574 56.5538C17.0417 56.5577 17.1215 56.5929 17.1811 56.6526C17.5685 57.1129 17.9755 57.5595 18.3908 57.98C18.4171 58.0102 18.4368 58.0456 18.4486 58.0839C18.4603 58.1222 18.4638 58.1625 18.4589 58.2022C18.4541 58.242 18.4409 58.2802 18.4202 58.3146C18.3995 58.3489 18.3719 58.3785 18.339 58.4015ZM85.5114 4.81057C85.5544 4.73545 85.6219 4.67734 85.7027 4.64597C85.7835 4.61461 85.8726 4.61189 85.9552 4.63829C86.5626 4.86186 87.1576 5.11779 87.7375 5.40498C87.7726 5.42273 87.8033 5.44807 87.8273 5.47917C87.8514 5.51027 87.8681 5.54632 87.8764 5.5847C87.8846 5.62309 87.8842 5.66282 87.8751 5.70101C87.8659 5.7392 87.8484 5.77487 87.8236 5.80542C87.7883 5.85596 87.7412 5.89713 87.6863 5.92536C87.6379 5.95188 87.584 5.96676 87.5289 5.96882C87.4738 5.97089 87.4189 5.96007 87.3687 5.93723C86.8075 5.65935 86.2318 5.41171 85.644 5.19538C85.607 5.18234 85.5734 5.16113 85.5458 5.13335C85.5182 5.10556 85.4972 5.0719 85.4845 5.0349C85.4717 4.9979 85.4675 4.9585 85.4722 4.91966C85.4769 4.88081 85.4903 4.84352 85.5114 4.81057ZM10.9085 56.1713C11.1922 55.9823 11.4826 55.7989 11.7806 55.6247C11.8497 55.5783 11.934 55.5601 12.0162 55.5741C12.0983 55.588 12.1719 55.6329 12.2217 55.6995C12.2401 55.7359 12.251 55.7756 12.2538 55.8163C12.2566 55.8569 12.2513 55.8978 12.2382 55.9364C12.2251 55.975 12.2044 56.0106 12.1774 56.0412C12.1503 56.0717 12.1175 56.0967 12.0807 56.1145C11.771 56.2954 11.4692 56.486 11.1763 56.6834L10.9085 56.1713ZM17.1516 24.3604C17.1199 24.3367 17.0938 24.3064 17.075 24.2715C17.0563 24.2367 17.0454 24.1982 17.0431 24.1587C17.0408 24.1193 17.0472 24.0798 17.0618 24.043C17.0764 24.0062 17.0988 23.9731 17.1276 23.9459C17.5833 23.4354 18.0693 22.9256 18.572 22.4308C18.6308 22.3691 18.7099 22.3304 18.7949 22.3219C18.8799 22.3134 18.9651 22.3356 19.035 22.3845C19.0645 22.4112 19.0879 22.444 19.1036 22.4805C19.1193 22.517 19.1269 22.5565 19.126 22.5962C19.1251 22.6359 19.1156 22.675 19.0983 22.7107C19.0809 22.7465 19.056 22.7781 19.0254 22.8035C18.534 23.2871 18.0592 23.7851 17.6142 24.2838C17.583 24.3187 17.5456 24.3476 17.5039 24.3691C17.4499 24.3994 17.3886 24.4146 17.3266 24.413C17.2646 24.4115 17.2042 24.3933 17.1516 24.3604ZM31.1857 14.7239C31.8494 14.4928 32.5303 14.2746 33.2098 14.0754C33.2473 14.0608 33.2874 14.0541 33.3276 14.0558C33.3678 14.0575 33.4072 14.0676 33.4433 14.0853C33.4794 14.1031 33.5114 14.1282 33.5373 14.1589C33.5631 14.1897 33.5822 14.2255 33.5934 14.2641C33.604 14.3346 33.5914 14.4067 33.5574 14.4695C33.5234 14.5323 33.47 14.5825 33.4051 14.6124C33.3823 14.6242 33.3585 14.6338 33.3339 14.641C32.6669 14.8366 31.9984 15.0507 31.3471 15.2775C31.3102 15.294 31.2703 15.3028 31.2298 15.3032C31.1894 15.3037 31.1493 15.2959 31.112 15.2804C31.0747 15.2648 31.041 15.2417 31.013 15.2126C30.985 15.1836 30.9633 15.1491 30.9491 15.1113C30.9326 15.0289 30.9477 14.9433 30.9916 14.8715C31.0354 14.7997 31.1047 14.747 31.1857 14.7239ZM27.2353 16.3377C27.8677 16.0379 28.5257 15.7482 29.1913 15.4768C29.2276 15.4584 29.2672 15.4475 29.3078 15.4448C29.3484 15.442 29.3891 15.4475 29.4275 15.4607C29.466 15.474 29.5013 15.4949 29.5315 15.5222C29.5616 15.5494 29.586 15.5824 29.603 15.6192C29.6241 15.6936 29.6177 15.773 29.585 15.843C29.5522 15.913 29.4952 15.969 29.4245 16.0006C29.4137 16.0062 29.4025 16.0113 29.3911 16.016C28.739 16.2819 28.0943 16.5656 27.4752 16.8592C27.4397 16.8795 27.4005 16.8926 27.3599 16.8978C27.3193 16.9029 27.2781 16.9 27.2386 16.8892C27.1991 16.8784 27.1622 16.8599 27.1299 16.8348C27.0976 16.8097 27.0706 16.7785 27.0505 16.743C27.023 16.6647 27.0269 16.5788 27.0613 16.5033C27.0958 16.4278 27.1581 16.3685 27.2353 16.3377ZM23.4927 18.411C24.0707 18.0358 24.689 17.6662 25.33 17.3124C25.3998 17.2673 25.4845 17.2511 25.5661 17.2673C25.6477 17.2835 25.7197 17.3307 25.7669 17.3991C25.784 17.4362 25.7936 17.4763 25.7951 17.5172C25.7967 17.558 25.7901 17.5988 25.7759 17.6371C25.7616 17.6754 25.7399 17.7106 25.712 17.7405C25.6842 17.7705 25.6506 17.7947 25.6134 17.8117C24.9888 18.1564 24.3868 18.5162 23.8244 18.8813C23.8135 18.8884 23.8023 18.8949 23.791 18.9008C23.7247 18.9403 23.6464 18.9548 23.5703 18.9417C23.4942 18.9286 23.4253 18.8888 23.3761 18.8294C23.3554 18.7945 23.342 18.7558 23.3367 18.7156C23.3313 18.6754 23.3342 18.6346 23.3451 18.5955C23.356 18.5564 23.3746 18.5199 23.4 18.4882C23.4254 18.4565 23.4569 18.4303 23.4927 18.411ZM35.256 13.5304C35.9393 13.3663 36.633 13.2179 37.3177 13.0892C37.3561 13.0784 37.3964 13.076 37.4358 13.0821C37.4752 13.0883 37.5128 13.1027 37.5461 13.1246C37.5795 13.1464 37.6077 13.1751 37.6289 13.2088C37.6502 13.2424 37.6639 13.2802 37.6693 13.3196C37.6712 13.3853 37.6539 13.4501 37.6195 13.5062C37.5852 13.5622 37.5352 13.6071 37.4757 13.6353C37.4417 13.653 37.4053 13.6656 37.3677 13.6727C36.6953 13.799 36.0142 13.9447 35.3432 14.1058C35.3052 14.1185 35.265 14.1231 35.2251 14.1192C35.1853 14.1153 35.1467 14.1031 35.1119 14.0833C35.0771 14.0634 35.047 14.0365 35.0234 14.0042C34.9998 13.972 34.9833 13.9351 34.975 13.896C34.9692 13.8114 34.9945 13.7276 35.0463 13.6603C35.098 13.593 35.1726 13.5468 35.256 13.5304ZM51.5895 13.1528C52.2356 13.2984 52.8788 13.4672 53.5014 13.6546C53.5392 13.6649 53.5742 13.6836 53.6037 13.7093C53.6332 13.735 53.6565 13.767 53.6718 13.803C53.6871 13.839 53.694 13.878 53.692 13.917C53.69 13.956 53.6791 13.9941 53.6602 14.0283C53.6247 14.0993 53.5673 14.1571 53.4964 14.1932C53.4134 14.2378 53.3162 14.2487 53.2253 14.2234C52.6165 14.0402 51.9878 13.8752 51.3562 13.733C51.3176 13.7259 51.2812 13.7102 51.2497 13.687C51.2181 13.6639 51.1923 13.6339 51.174 13.5993C51.1558 13.5648 51.1457 13.5265 51.1444 13.4875C51.1432 13.4485 51.1509 13.4097 51.1668 13.374C51.2014 13.2946 51.2622 13.2293 51.3391 13.1891C51.416 13.1488 51.5044 13.136 51.5895 13.1528ZM47.6214 12.5351C48.2965 12.5961 48.9709 12.6786 49.6258 12.7805C49.6648 12.7845 49.7023 12.7972 49.7357 12.8178C49.769 12.8383 49.7972 12.8661 49.8182 12.8991C49.8392 12.9321 49.8524 12.9694 49.8569 13.0083C49.8613 13.0471 49.8568 13.0864 49.8438 13.1233C49.8128 13.2127 49.748 13.2864 49.6633 13.3289C49.5935 13.366 49.5136 13.3799 49.4353 13.3686C48.7944 13.269 48.1343 13.1882 47.4733 13.1284C47.4341 13.1273 47.3956 13.1174 47.3608 13.0995C47.3259 13.0815 47.2956 13.0559 47.272 13.0246C47.2485 12.9933 47.2323 12.9571 47.2248 12.9187C47.2172 12.8803 47.2185 12.8407 47.2284 12.8029C47.2531 12.72 47.3057 12.6482 47.3772 12.5994C47.4488 12.5506 47.535 12.5279 47.6214 12.5351ZM43.5303 12.4123C44.2185 12.393 44.9103 12.3936 45.5864 12.4135C45.6257 12.4119 45.6648 12.4191 45.701 12.4346C45.7371 12.45 45.7693 12.4734 45.7952 12.5029C45.8211 12.5324 45.84 12.5673 45.8506 12.605C45.8612 12.6428 45.8632 12.6824 45.8564 12.7211C45.8453 12.7736 45.8223 12.8229 45.7893 12.8654C45.7563 12.9078 45.7141 12.9422 45.6658 12.966C45.6086 12.996 45.5446 13.011 45.4799 13.0095C44.8173 12.9898 44.1394 12.9893 43.4645 13.0082C43.4253 13.0123 43.3857 13.0077 43.3484 12.9947C43.3112 12.9817 43.2774 12.9606 43.2494 12.9329C43.2213 12.9053 43.1998 12.8718 43.1864 12.8348C43.1729 12.7978 43.1679 12.7584 43.1717 12.7192C43.1863 12.6344 43.2301 12.5574 43.2956 12.5014C43.361 12.4453 43.444 12.4138 43.5303 12.4123ZM20.1167 20.9997C20.637 20.545 21.1858 20.0914 21.7481 19.6514C21.812 19.5962 21.8942 19.5665 21.9787 19.5681C22.0633 19.5697 22.1442 19.6024 22.206 19.66C22.2308 19.6916 22.2488 19.7281 22.2588 19.767C22.2688 19.8059 22.2705 19.8464 22.264 19.886C22.2574 19.9257 22.2427 19.9635 22.2207 19.9971C22.1987 20.0308 22.1699 20.0595 22.1362 20.0815C21.5849 20.513 21.0467 20.9577 20.5369 21.403C20.5134 21.4237 20.4874 21.4414 20.4596 21.4559C20.3998 21.4902 20.3308 21.5053 20.2621 21.499C20.1933 21.4927 20.1282 21.4655 20.0756 21.4209C20.0484 21.3915 20.0278 21.3568 20.015 21.3189C20.0023 21.281 19.9977 21.2409 20.0015 21.2011C20.0054 21.1614 20.0177 21.1229 20.0375 21.0881C20.0574 21.0534 20.0843 21.0233 20.1167 20.9997ZM39.3887 12.7537C40.0792 12.6598 40.7768 12.5836 41.4619 12.5269C41.5009 12.5204 41.5409 12.5226 41.579 12.5332C41.6171 12.5438 41.6524 12.5627 41.6824 12.5884C41.7123 12.6142 41.7362 12.6462 41.7524 12.6822C41.7686 12.7182 41.7766 12.7573 41.7759 12.7968C41.7707 12.8565 41.75 12.9138 41.7159 12.9631C41.6819 13.0124 41.6355 13.0521 41.5815 13.0782C41.5362 13.1019 41.4866 13.1163 41.4357 13.1206C40.7633 13.1763 40.0787 13.2512 39.401 13.3432C39.3622 13.3519 39.3221 13.3521 39.2832 13.3438C39.2444 13.3354 39.2079 13.3188 39.1761 13.295C39.1444 13.2712 39.1182 13.2408 39.0995 13.2059C39.0807 13.171 39.0697 13.1325 39.0673 13.093C39.0719 13.0076 39.1067 12.9266 39.1655 12.8645C39.2244 12.8023 39.3035 12.763 39.3887 12.7537ZM29.8289 63.8014C30.4815 63.8817 31.1391 63.9153 31.7966 63.9021C31.8358 63.8981 31.8754 63.9029 31.9126 63.916C31.9497 63.9292 31.9835 63.9504 32.0114 63.9782C32.0392 64.006 32.0606 64.0396 32.0739 64.0766C32.0871 64.1136 32.092 64.1531 32.088 64.1923C32.0795 64.2483 32.0575 64.3014 32.0239 64.3471C31.9903 64.3928 31.946 64.4297 31.895 64.4546C31.8434 64.4816 31.7863 64.4965 31.7281 64.4981C31.0376 64.5121 30.347 64.4769 29.6615 64.3928C29.6224 64.3904 29.5843 64.3792 29.5501 64.36C29.5159 64.3409 29.4865 64.3142 29.4641 64.2822C29.4417 64.2501 29.4269 64.2133 29.4207 64.1747C29.4145 64.1361 29.4172 64.0966 29.4285 64.0591C29.4556 63.9769 29.5101 63.9065 29.5829 63.8596C29.6558 63.8126 29.7426 63.7921 29.8289 63.8014ZM35.1183 59.6317C35.0869 59.5716 35.054 59.5114 35.0195 59.4511C35.0024 59.414 34.9927 59.3738 34.9911 59.333C34.9895 59.2922 34.9959 59.2514 35.0101 59.2131C35.0243 59.1747 35.046 59.1396 35.0738 59.1096C35.1017 59.0796 35.1352 59.0554 35.1724 59.0383C35.2421 58.993 35.3268 58.9766 35.4085 58.9927C35.4902 59.0088 35.5623 59.056 35.6095 59.1243C35.647 59.19 35.6828 59.2554 35.7167 59.3207C35.9839 59.8152 36.1602 60.3533 36.2374 60.9096C36.2418 60.9768 36.2258 61.0438 36.1914 61.1019C36.1571 61.1599 36.1061 61.2063 36.045 61.2351C36.0143 61.251 35.9817 61.2628 35.9479 61.2702C35.9098 61.2821 35.8695 61.2858 35.8299 61.281C35.7902 61.2762 35.752 61.2631 35.7178 61.2424C35.6836 61.2218 35.6542 61.1941 35.6315 61.1613C35.6089 61.1284 35.5935 61.0911 35.5865 61.0519C35.5164 60.5545 35.3579 60.0735 35.1183 59.6317ZM82.1083 3.6551C82.7726 3.75636 83.4334 3.8905 84.0722 4.0537C84.1104 4.06208 84.1463 4.07901 84.177 4.10322C84.2078 4.12743 84.2326 4.15828 84.2496 4.19345C84.2667 4.22861 84.2755 4.26718 84.2754 4.30624C84.2753 4.3453 84.2664 4.38383 84.2492 4.41893C84.2127 4.4975 84.1503 4.56124 84.0725 4.59957C83.9946 4.6379 83.9059 4.64851 83.8212 4.62962C83.2027 4.47153 82.5631 4.34163 81.9196 4.24358C81.8806 4.23974 81.843 4.22712 81.8096 4.20669C81.7762 4.18625 81.7479 4.15853 81.7268 4.12561C81.7057 4.09268 81.6923 4.05542 81.6878 4.01661C81.6832 3.9778 81.6875 3.93846 81.7003 3.90155C81.7298 3.82016 81.7864 3.7513 81.8606 3.70646C81.9349 3.66162 82.0223 3.64349 82.1083 3.6551ZM21.5888 53.1986C21.6054 53.1141 21.651 53.0379 21.7178 52.9833C21.7846 52.9286 21.8684 52.8988 21.9547 52.899C22.6414 52.8951 23.3278 52.9284 24.0108 52.9988C24.05 53.0005 24.0883 53.0109 24.1228 53.0294C24.1574 53.048 24.1873 53.074 24.2103 53.1057C24.2333 53.1373 24.2489 53.1738 24.2558 53.2123C24.2627 53.2508 24.2608 53.2903 24.2502 53.328C24.2364 53.3756 24.2127 53.4199 24.1809 53.458C24.149 53.4961 24.1095 53.5272 24.065 53.5493C24.0002 53.5836 23.9268 53.5982 23.8538 53.5911C23.1956 53.5235 22.5343 53.4914 21.8726 53.4951C21.8334 53.4982 21.7939 53.4926 21.7571 53.4786C21.7203 53.4647 21.6871 53.4427 21.6599 53.4143C21.6327 53.3858 21.6122 53.3518 21.5999 53.3144C21.5876 53.2771 21.5838 53.2376 21.5888 53.1986ZM25.7743 53.9052C25.7358 53.8981 25.6994 53.8823 25.6679 53.8591C25.6364 53.8359 25.6106 53.8059 25.5925 53.7713C25.5743 53.7367 25.5643 53.6984 25.5631 53.6594C25.5619 53.6204 25.5697 53.5816 25.5857 53.546C25.6204 53.4666 25.6812 53.4014 25.7582 53.3613C25.8351 53.3212 25.9235 53.3085 26.0086 53.3255C26.1106 53.3486 26.2119 53.3727 26.3127 53.3976C26.8612 53.5338 27.4006 53.6866 27.9158 53.8514C27.9533 53.8625 27.9879 53.8819 28.0169 53.9082C28.0459 53.9345 28.0685 53.9671 28.083 54.0034C28.0976 54.0397 28.1037 54.0788 28.1009 54.1178C28.0981 54.1567 28.0865 54.1946 28.067 54.2285C28.0312 54.2973 27.9747 54.3532 27.9055 54.3884C27.8208 54.4341 27.7215 54.4444 27.6292 54.4171C27.1271 54.2564 26.601 54.1074 26.0657 53.9745C25.9692 53.9504 25.872 53.9274 25.7743 53.9052ZM32.6151 56.462C32.6721 56.3982 32.75 56.3568 32.8348 56.345C32.9196 56.3333 33.0058 56.352 33.0781 56.3978C33.5821 56.7704 34.0533 57.1851 34.4868 57.6373C34.5125 57.6682 34.5314 57.704 34.5424 57.7426C34.5534 57.7811 34.5561 57.8216 34.5505 57.8612C34.5449 57.9009 34.5311 57.939 34.5098 57.973C34.4886 58.0071 34.4604 58.0363 34.4272 58.0589C34.4064 58.0758 34.3839 58.0905 34.3601 58.1029C34.2987 58.1385 34.2274 58.1536 34.1568 58.1458C34.0862 58.138 34.02 58.1078 33.9679 58.0597C33.5547 57.6287 33.1056 57.2336 32.6252 56.8786C32.5943 56.8537 32.5693 56.8223 32.5518 56.7867C32.5343 56.7512 32.5247 56.7122 32.5237 56.6726C32.5228 56.633 32.5305 56.5936 32.5462 56.5573C32.562 56.5209 32.5855 56.4884 32.6151 56.462ZM33.7544 63.6472C33.8584 63.6185 33.9579 63.5874 34.0502 63.5547C34.5346 63.3994 34.9553 63.0915 35.2492 62.6773C35.2973 62.6057 35.3688 62.5528 35.4515 62.5278C35.5342 62.5028 35.6231 62.5071 35.703 62.5399C35.7384 62.5571 35.7695 62.5819 35.794 62.6126C35.8186 62.6432 35.8359 62.679 35.8448 62.7173C35.8536 62.7555 35.8538 62.7952 35.8452 62.8335C35.8367 62.8718 35.8196 62.9077 35.7954 62.9386C35.5149 63.3469 35.1356 63.6778 34.6925 63.9007C34.5384 63.9804 34.3791 64.0493 34.2154 64.107C34.1058 64.1459 33.9884 64.1826 33.8666 64.2162C33.8289 64.2302 33.7887 64.2362 33.7486 64.2338C33.7085 64.2314 33.6694 64.2206 33.6337 64.2022C33.598 64.1838 33.5666 64.1581 33.5415 64.1268C33.5163 64.0956 33.498 64.0594 33.4878 64.0207C33.4784 63.9366 33.5004 63.8521 33.5496 63.7832C33.5988 63.7143 33.6717 63.6658 33.7544 63.6472ZM25.6401 63.0929C25.682 63.0172 25.7489 62.9582 25.8293 62.9259C25.9097 62.8935 25.9988 62.8897 26.0817 62.9151C26.6837 63.1271 27.2963 63.308 27.917 63.457C27.9554 63.4647 27.9916 63.4809 28.0228 63.5046C28.0539 63.5282 28.0793 63.5586 28.097 63.5934C28.1147 63.6283 28.1242 63.6667 28.1248 63.7058C28.1255 63.7448 28.1172 63.7835 28.1006 63.8189C28.0652 63.8979 28.0037 63.9625 27.9263 64.0019C27.849 64.0412 27.7604 64.0529 27.6755 64.0351C27.034 63.8813 26.4009 63.6943 25.7788 63.475C25.7416 63.4627 25.7077 63.4421 25.6796 63.4148C25.6515 63.3875 25.63 63.3542 25.6167 63.3175C25.6033 63.2807 25.5985 63.2414 25.6025 63.2025C25.6066 63.1636 25.6194 63.1261 25.6401 63.0929ZM66.0421 7.41167C66.6289 6.99885 67.2364 6.61607 67.8622 6.2648C67.9318 6.21929 68.0164 6.20253 68.0981 6.21807C68.1799 6.23362 68.2524 6.28025 68.3003 6.34811C68.3177 6.38504 68.3277 6.42505 68.3296 6.46583C68.3316 6.50662 68.3254 6.54738 68.3114 6.58578C68.2975 6.62417 68.2761 6.65945 68.2485 6.68958C68.2209 6.71972 68.1876 6.74411 68.1505 6.76137C67.5481 7.09939 66.9633 7.46783 66.3986 7.86525C66.384 7.8755 66.3688 7.88478 66.353 7.89302C66.2884 7.93109 66.2126 7.9458 66.1385 7.93467C66.0643 7.92355 65.9962 7.88728 65.9457 7.83196C65.9232 7.79841 65.9078 7.76062 65.9004 7.72091C65.8931 7.68121 65.8939 7.64043 65.903 7.60107C65.912 7.56171 65.929 7.5246 65.9529 7.49203C65.9769 7.45946 66.0072 7.43211 66.0421 7.41167ZM60.8485 13.9344C60.7656 13.9791 60.6686 13.99 60.5778 13.9649C60.54 13.9547 60.505 13.936 60.4754 13.9104C60.4458 13.8847 60.4225 13.8527 60.4071 13.8168C60.3918 13.7808 60.3848 13.7419 60.3867 13.7029C60.3886 13.6638 60.3994 13.6257 60.4182 13.5915C60.6341 13.143 60.8846 12.7119 61.1674 12.302C61.2785 12.1417 61.3917 11.9834 61.5071 11.8273C61.5576 11.7576 61.631 11.7075 61.7145 11.6859C61.7981 11.6643 61.8866 11.6724 61.9648 11.7088C61.9991 11.7281 62.0288 11.7547 62.0516 11.7868C62.0743 11.8189 62.0897 11.8556 62.0965 11.8943C62.1033 11.9331 62.1014 11.9728 62.0909 12.0107C62.0804 12.0486 62.0616 12.0837 62.0358 12.1135C61.9247 12.2637 61.8156 12.4161 61.7085 12.5706C61.4458 12.9516 61.2131 13.3523 61.0125 13.7691C60.9771 13.8404 60.9195 13.8983 60.8485 13.9344ZM62.8403 10.2138C63.3199 9.69393 63.827 9.19999 64.3594 8.73408C64.4208 8.67549 64.5016 8.64131 64.5866 8.63798C64.6715 8.63465 64.7548 8.6624 64.8207 8.716C64.8479 8.74534 64.8685 8.78007 64.8813 8.81792C64.8941 8.85577 64.8987 8.89589 64.8949 8.93565C64.891 8.97541 64.8788 9.01391 64.859 9.04863C64.8392 9.08335 64.8123 9.1135 64.7799 9.13711C64.2679 9.58521 63.7802 10.0603 63.3191 10.5604C63.2886 10.5933 63.2527 10.6207 63.2128 10.6414C63.158 10.6722 63.0958 10.6874 63.0329 10.6853C62.97 10.6833 62.9089 10.664 62.8562 10.6297C62.825 10.6052 62.7995 10.5743 62.7815 10.539C62.7634 10.5037 62.7533 10.465 62.7518 10.4254C62.7503 10.3858 62.7574 10.3464 62.7727 10.3099C62.788 10.2733 62.8111 10.2405 62.8403 10.2138ZM68.7294 28.5388C68.5358 27.9797 68.3104 27.432 68.0544 26.8984C68.0257 26.8207 68.0282 26.735 68.0614 26.6592C68.0947 26.5833 68.156 26.5232 68.2326 26.4914C68.2679 26.4707 68.307 26.457 68.3476 26.4514C68.3882 26.4457 68.4295 26.448 68.4692 26.4582C68.5089 26.4685 68.5462 26.4864 68.5789 26.511C68.6117 26.5356 68.6392 26.5664 68.6601 26.6016C68.9242 27.1519 69.1568 27.7168 69.3566 28.2935C69.3761 28.3674 69.3687 28.4459 69.3356 28.5149C69.3026 28.5839 69.2461 28.639 69.1762 28.6704C69.1636 28.6769 69.1507 28.6828 69.1375 28.688C69.101 28.7058 69.0613 28.7161 69.0208 28.7182C68.9802 28.7203 68.9396 28.7142 68.9015 28.7003C68.8634 28.6863 68.8285 28.6648 68.7989 28.6371C68.7693 28.6093 68.7457 28.5759 68.7294 28.5388ZM73.8521 3.97326C74.5374 3.81817 75.2379 3.69331 75.9343 3.6023C75.9731 3.59381 76.0132 3.59384 76.052 3.6024C76.0907 3.61095 76.1272 3.62782 76.1587 3.65183C76.1903 3.67584 76.2162 3.70642 76.2348 3.74143C76.2533 3.77645 76.2639 3.81507 76.266 3.85461C76.2638 3.91714 76.2446 3.97789 76.2102 4.03027C76.1759 4.08265 76.1279 4.12466 76.0713 4.15174C76.0312 4.17268 75.9878 4.18647 75.9429 4.19248C75.2694 4.28036 74.5921 4.40105 73.9296 4.55102C73.8915 4.56323 73.8513 4.56724 73.8115 4.56278C73.7718 4.55831 73.7334 4.54548 73.699 4.52513C73.6646 4.50478 73.6349 4.47738 73.6119 4.44473C73.5889 4.41208 73.5732 4.37494 73.5657 4.33576C73.5611 4.25096 73.5877 4.16742 73.6404 4.10072C73.6931 4.03401 73.7683 3.98871 73.8521 3.97326ZM69.7898 5.30577C70.4403 5.02112 71.1151 4.76376 71.7955 4.54106C71.8326 4.52525 71.8726 4.51726 71.913 4.51758C71.9533 4.5179 71.9932 4.52652 72.0301 4.54291C72.0669 4.5593 72.1 4.5831 72.1272 4.61283C72.1545 4.64255 72.1752 4.67756 72.1883 4.71566C72.202 4.78755 72.1911 4.86195 72.1574 4.92696C72.1237 4.99197 72.0692 5.04386 72.0024 5.07434C71.9834 5.08427 71.9635 5.09265 71.9431 5.09938C71.2865 5.31444 70.6354 5.56272 70.0078 5.83721C69.9719 5.85647 69.9325 5.86838 69.8919 5.87223C69.8513 5.87607 69.8103 5.87179 69.7714 5.85962C69.7324 5.84746 69.6964 5.82765 69.6652 5.80138C69.6341 5.7751 69.6085 5.74289 69.59 5.70662C69.5651 5.62702 69.5719 5.54087 69.6091 5.46618C69.6463 5.39148 69.7111 5.33401 69.7898 5.30577ZM78.0187 3.42701C78.7074 3.40109 79.4021 3.4073 80.0835 3.44537C80.1228 3.44492 80.1616 3.45329 80.1972 3.46985C80.2328 3.48641 80.2642 3.51074 80.2891 3.54104C80.314 3.57134 80.3318 3.60683 80.341 3.6449C80.3503 3.68296 80.3509 3.72261 80.3427 3.76093C80.3305 3.81173 80.3073 3.85924 80.2747 3.9001C80.242 3.94097 80.2008 3.97419 80.1539 3.99741C80.094 4.02895 80.0267 4.04384 79.959 4.04053C79.2992 4.00362 78.6268 3.99768 77.9599 4.02279C77.9207 4.02735 77.881 4.02318 77.8436 4.01058C77.8062 3.99799 77.7721 3.97728 77.7437 3.94996C77.7153 3.92264 77.6934 3.88937 77.6794 3.85257C77.6655 3.81576 77.6599 3.77633 77.6631 3.73712C77.6768 3.65219 77.7198 3.57472 77.7848 3.51809C77.8497 3.46147 77.9324 3.42925 78.0187 3.42701ZM69.2266 30.2516C69.2142 30.1681 69.2334 30.0831 69.2804 30.0129C69.3274 29.9428 69.3989 29.8926 69.481 29.8721C69.5183 29.857 69.5584 29.8499 69.5987 29.8511C69.639 29.8523 69.6785 29.8619 69.7149 29.8791C69.7513 29.8964 69.7837 29.921 69.81 29.9514C69.8364 29.9818 69.8561 30.0174 69.8679 30.0558C70.0094 30.6556 70.1197 31.2623 70.1986 31.8735C70.2032 31.9409 70.1873 32.0081 70.153 32.0664C70.1187 32.1246 70.0675 32.1712 70.0062 32.1999C69.9759 32.2157 69.9437 32.2275 69.9103 32.2348C69.8722 32.2469 69.832 32.2507 69.7923 32.246C69.7526 32.2414 69.7143 32.2284 69.68 32.2079C69.6457 32.1873 69.6162 32.1598 69.5935 32.127C69.5707 32.0943 69.5551 32.057 69.5479 32.0178C69.4712 31.424 69.3639 30.8345 69.2266 30.2516ZM64.4949 36.0986C64.5607 36.0462 64.6438 36.0204 64.7278 36.0263C64.8118 36.0323 64.8904 36.0694 64.9482 36.1305C65.3088 36.597 65.717 37.025 66.1662 37.4075C66.1957 37.4343 66.219 37.4671 66.2346 37.5037C66.2502 37.5402 66.2577 37.5797 66.2567 37.6195C66.2557 37.6592 66.2461 37.6983 66.2287 37.734C66.2112 37.7697 66.1862 37.8013 66.1555 37.8266C66.128 37.8536 66.0966 37.8763 66.0623 37.894C66.0051 37.9264 65.9398 37.9416 65.8741 37.9377C65.8085 37.9338 65.7454 37.911 65.6925 37.872C65.2158 37.4668 64.7826 37.0134 64.3999 36.5189C64.3772 36.4855 64.3616 36.4478 64.3542 36.4081C64.3467 36.3684 64.3474 36.3277 64.3563 36.2883C64.3652 36.2489 64.3821 36.2118 64.4059 36.1792C64.4298 36.1465 64.46 36.1191 64.4949 36.0986ZM61.6493 29.8404C61.855 30.4067 62.0766 30.9664 62.3077 31.5036C62.333 31.5789 62.3293 31.661 62.2971 31.7337C62.2649 31.8064 62.2067 31.8645 62.1338 31.8967L62.114 31.9062C62.0782 31.9259 62.0389 31.9383 61.9983 31.9426C61.9577 31.947 61.9166 31.9432 61.8775 31.9316C61.8383 31.92 61.8019 31.9007 61.7703 31.8749C61.7387 31.8491 61.7125 31.8173 61.6934 31.7814C61.4584 31.2356 61.2335 30.6672 61.0244 30.0919C61.0031 30.0111 61.0133 29.9252 61.0531 29.8517C61.0929 29.7781 61.1592 29.7224 61.2387 29.6959C61.275 29.6777 61.3146 29.667 61.3552 29.6644C61.3958 29.6618 61.4365 29.6675 61.4748 29.681C61.5131 29.6945 61.5484 29.7155 61.5783 29.7429C61.6083 29.7703 61.6324 29.8035 61.6493 29.8404ZM60.9003 28.5061C60.8842 28.5145 60.8676 28.5217 60.8505 28.5278C60.8137 28.5446 60.7738 28.5536 60.7333 28.5545C60.6929 28.5553 60.6527 28.5478 60.6152 28.5326C60.5777 28.5173 60.5438 28.4946 60.5154 28.4658C60.4871 28.4369 60.4649 28.4026 60.4504 28.365C60.2744 27.7831 60.1129 27.191 59.97 26.6047C59.957 26.5214 59.9757 26.4363 60.0222 26.3659C60.0688 26.2955 60.1399 26.2449 60.2219 26.224C60.2592 26.2088 60.2992 26.2014 60.3395 26.2024C60.3798 26.2033 60.4195 26.2126 60.456 26.2296C60.4925 26.2466 60.5251 26.271 60.5517 26.3012C60.5783 26.3314 60.5984 26.3668 60.6106 26.4051C60.7511 26.9825 60.9103 27.5659 61.0838 28.139C61.1001 28.2119 61.0907 28.2882 61.0573 28.355C61.0239 28.4219 60.9685 28.4752 60.9003 28.5061ZM62.6343 33.0177C62.7051 32.9746 62.7901 32.9612 62.8707 32.9803C62.9514 32.9995 63.0212 33.0496 63.065 33.1198C63.1012 33.1905 63.1374 33.2606 63.1737 33.3302C63.4208 33.803 63.6771 34.2547 63.9354 34.6727C63.9538 34.709 63.9649 34.7487 63.9678 34.7893C63.9708 34.83 63.9656 34.8708 63.9526 34.9094C63.9396 34.9481 63.9191 34.9837 63.8921 35.0144C63.8652 35.045 63.8324 35.07 63.7957 35.0879L63.7773 35.0981C63.709 35.1394 63.6277 35.1537 63.5494 35.1382C63.4711 35.1227 63.4014 35.0785 63.3541 35.0143C63.0897 34.5864 62.8276 34.1243 62.5751 33.6412C62.5381 33.5703 62.5012 33.4988 62.4644 33.4267C62.4332 33.3499 62.4334 33.264 62.4652 33.1875C62.497 33.1109 62.5577 33.0499 62.6343 33.0177ZM59.5871 24.8123C59.4748 24.2001 59.382 23.5874 59.311 22.9912C59.3077 22.9063 59.3354 22.823 59.389 22.7569C59.4425 22.6908 59.5182 22.6462 59.6022 22.6315C59.6403 22.6197 59.6806 22.6162 59.7202 22.6212C59.7599 22.6261 59.798 22.6395 59.8321 22.6603C59.8662 22.6811 59.8954 22.7089 59.9178 22.7419C59.9403 22.7748 59.9554 22.8122 59.9623 22.8514C60.0321 23.4372 60.1234 24.0391 60.2337 24.6409C60.2419 24.7103 60.2279 24.7806 60.1937 24.8416C60.1596 24.9027 60.107 24.9514 60.0435 24.9809C60.0178 24.9943 59.9907 25.0047 59.9627 25.0122C59.925 25.0258 59.8848 25.0314 59.8448 25.0285C59.8047 25.0257 59.7657 25.0144 59.7303 24.9956C59.6949 24.9767 59.6639 24.9507 59.6392 24.9191C59.6145 24.8875 59.5968 24.8511 59.5871 24.8123ZM59.3674 17.0242C59.0551 16.8242 58.7373 16.6313 58.4173 16.4473C58.3835 16.427 58.3546 16.3995 58.3327 16.3668C58.3108 16.334 58.2965 16.2968 58.2907 16.2579C58.285 16.2189 58.2879 16.1792 58.2994 16.1415C58.3109 16.1039 58.3306 16.0692 58.3571 16.0401C58.4089 15.9713 58.4831 15.9228 58.567 15.903C58.6509 15.8831 58.7391 15.8931 58.8163 15.9312C59.0449 16.0626 59.272 16.1982 59.4976 16.3381C59.5612 16.0398 59.633 15.7497 59.7128 15.4678C59.7397 15.3855 59.7942 15.315 59.8671 15.2681C59.94 15.2212 60.0268 15.2007 60.1131 15.2101C60.1522 15.2124 60.1903 15.2236 60.2245 15.2428C60.2587 15.2619 60.2881 15.2885 60.3105 15.3206C60.3329 15.3527 60.3477 15.3895 60.3538 15.4281C60.36 15.4667 60.3573 15.5062 60.3459 15.5436C60.2407 15.9153 60.1497 16.3045 60.0735 16.7067C60.1879 16.7823 60.3015 16.8587 60.4143 16.936C60.4461 16.9595 60.4725 16.9896 60.4915 17.0243C60.5104 17.059 60.5216 17.0974 60.5241 17.1369C60.5266 17.1763 60.5205 17.2159 60.5061 17.2527C60.4918 17.2895 60.4695 17.3228 60.4409 17.3501C60.4093 17.3856 60.3716 17.415 60.3294 17.4369C60.2755 17.467 60.2146 17.4821 60.1528 17.4807C60.0911 17.4793 60.0309 17.4615 59.9784 17.429L59.9541 17.4124C59.9286 17.4871 59.8804 17.552 59.8161 17.5979C59.7519 17.6439 59.6748 17.6687 59.5957 17.6688C59.5564 17.6718 59.517 17.6659 59.4803 17.6517C59.4436 17.6375 59.4105 17.6153 59.3835 17.5867C59.3565 17.5582 59.3362 17.5239 59.3242 17.4866C59.3121 17.4492 59.3086 17.4096 59.3138 17.3707C59.3305 17.2544 59.3483 17.1389 59.3674 17.0242ZM69.676 33.822C69.6813 33.7366 69.7169 33.6559 69.7763 33.5943C69.8357 33.5326 69.9152 33.494 70.0005 33.4853C70.0393 33.477 70.0794 33.4772 70.1181 33.4859C70.1568 33.4946 70.1932 33.5116 70.2246 33.5357C70.2561 33.5599 70.2819 33.5905 70.3002 33.6256C70.3186 33.6607 70.329 33.6993 70.3309 33.7388C70.3408 34.3781 70.2974 35.0171 70.2012 35.6492C70.1909 35.7028 70.1682 35.7533 70.1351 35.7967C70.1019 35.8401 70.059 35.8753 70.0099 35.8994C69.9545 35.9285 69.8926 35.9435 69.8299 35.9429C69.7906 35.9453 69.7513 35.9388 69.7149 35.9241C69.6784 35.9093 69.6457 35.8866 69.6192 35.8576C69.5927 35.8286 69.573 35.7941 69.5616 35.7565C69.5502 35.719 69.5473 35.6793 69.5533 35.6405C69.6446 35.0388 69.6856 34.4305 69.676 33.822ZM67.6895 38.1589C67.8324 38.1735 67.9768 38.1654 68.1171 38.1346C68.3105 38.0767 68.4894 37.9787 68.6422 37.8471C68.795 37.7154 68.9182 37.5532 69.0038 37.3708C69.0476 37.2963 69.1158 37.239 69.1969 37.2087C69.2781 37.1783 69.3672 37.1767 69.4494 37.204C69.4861 37.2177 69.5193 37.2395 69.5465 37.2678C69.5736 37.296 69.594 37.3301 69.6061 37.3673C69.6183 37.4045 69.6218 37.444 69.6165 37.4828C69.6112 37.5215 69.5972 37.5586 69.5755 37.5913C69.3593 37.9958 69.0307 38.3297 68.6292 38.553C68.4915 38.6247 68.345 38.6784 68.1935 38.7127C67.9784 38.7605 67.757 38.7737 67.5377 38.752C67.4985 38.7507 67.4601 38.7405 67.4254 38.7223C67.3907 38.7041 67.3605 38.6784 67.3372 38.6469C67.3138 38.6155 67.2979 38.5792 67.2906 38.5407C67.2833 38.5023 67.2848 38.4627 67.2951 38.4249C67.3202 38.3421 67.3731 38.2705 67.4449 38.2221C67.5168 38.1736 67.6031 38.1513 67.6895 38.1589Z" fill="#A51140"/>
</svg>