<svg width="66" height="52" viewBox="0 0 66 52" fill="none" xmlns="http://www.w3.org/2000/svg">
<g clip-path="url(#clip0_955_6405)">
<path d="M33.87 42.6471C33.87 42.6471 37.832 45.6113 38.0642 45.8916C38.1995 46.0542 37.1236 48.1977 37.1236 48.1977C37.1236 48.1977 37.3647 48.87 37.1992 49.3442C37.0669 49.7232 36.7065 49.7061 36.7065 49.7061C36.7065 49.7061 36.7721 50.405 36.4253 50.8177C36.2167 51.0655 35.7305 50.9561 35.7305 50.9561C35.7305 50.9561 35.5993 51.8791 34.8324 51.8791C34.475 51.8791 34.202 51.5291 34.202 51.5291C34.202 51.5291 32.9483 51.8135 31.9078 51.2955C30.2919 50.4907 30.1106 49.3176 29.4748 47.9061C29.2568 47.4225 28.7387 46.934 28.5219 46.4137C28.7393 46.215 32.2872 42.692 32.2872 42.692L33.1391 43.401L33.8706 42.6465L33.87 42.6471Z" fill="#E8AA7D"/>
<path d="M37.279 49.5971C37.1756 49.7349 37.0208 49.8366 36.827 49.8939C36.8353 50.0896 36.814 50.2966 36.7425 50.513C36.6923 50.6614 36.6007 50.9376 36.3207 51.1019C36.1895 51.18 36.0347 51.2208 35.8711 51.2208C35.8498 51.2208 35.8285 51.2196 35.8073 51.2184C35.8049 51.2184 35.802 51.2184 35.7996 51.2173C35.7742 51.3036 35.7376 51.3917 35.6862 51.4768C35.5142 51.7642 35.2909 51.9363 35.0221 51.9901C34.9689 52.0007 34.9175 52.0049 34.8661 52.0049C34.4295 52.0049 34.0868 51.6489 33.984 51.5295C33.7075 51.2054 33.48 50.8548 33.3902 50.6106C33.389 50.6082 33.389 50.6076 33.3879 50.6053C33.3849 50.5958 33.3814 50.5869 33.3802 50.5775C33.33 50.3392 33.3223 50.1009 33.3601 49.8709C33.4221 49.4753 33.6124 49.1737 33.9249 48.6746C34.0029 48.5505 34.0649 48.4564 34.1181 48.3766C34.2345 48.2022 34.2983 48.1064 34.3745 47.916C34.4502 47.7244 34.527 47.466 34.4655 47.3111C34.3929 47.1325 34.2209 47.0503 34.1878 47.0355C33.9805 46.9457 33.766 47.0225 33.6626 47.0604C33.3424 47.1745 32.9778 47.5843 32.582 48.2767C32.348 48.6859 32.1454 49.1211 31.9799 49.5699C31.9498 49.6532 31.8582 49.6958 31.7749 49.6651C31.6916 49.6343 31.6491 49.5421 31.6798 49.4599C31.8506 48.9928 32.0609 48.5416 32.3043 48.1176C32.9601 46.9717 33.4074 46.8114 33.5551 46.7582C33.5592 46.757 33.5628 46.7559 33.5669 46.7541C33.5586 46.7275 33.5574 46.6973 33.5645 46.6678C33.5763 46.6205 33.6307 46.3739 33.4783 46.1581C33.4422 46.1066 33.3394 45.9818 33.1758 45.9387C33.1173 45.9227 32.94 45.8754 32.5394 46.1303C32.2801 46.2946 31.9486 46.5696 31.4535 47.3572C31.2261 47.7185 31.0199 48.1023 30.8402 48.4955C30.8125 48.554 30.7546 48.5895 30.6937 48.5895C30.6713 48.5895 30.6488 48.5854 30.6276 48.5747C30.5466 48.5386 30.5112 48.4434 30.5484 48.363C30.7333 47.9556 30.9466 47.5606 31.1817 47.1875C31.7117 46.3443 32.078 46.0427 32.3669 45.86C32.3906 45.8452 32.4142 45.8311 32.4361 45.8186C32.3592 45.7087 32.2109 45.5472 31.9876 45.4863C31.8186 45.4402 31.6012 45.4745 31.3407 45.5892C31.0163 45.7323 30.64 46.0936 30.2837 46.608C30.0615 46.9273 29.863 47.2567 29.6793 48.0532C29.6621 48.1271 29.596 48.1774 29.5233 48.1774C29.5115 48.1774 29.4997 48.1762 29.4873 48.1744C29.4016 48.1543 29.3472 48.0674 29.3679 47.9822C29.5647 47.1313 29.7886 46.7606 30.0214 46.4259C30.4166 45.8565 30.8284 45.465 31.2131 45.2959C31.5463 45.1493 31.8281 45.1108 32.0727 45.1771C32.4195 45.2735 32.631 45.5289 32.7261 45.675C32.9229 45.5999 33.0966 45.5863 33.2579 45.63C33.5226 45.7004 33.6827 45.8937 33.7394 45.973C33.9296 46.2426 33.9143 46.5318 33.8901 46.6796C34.0171 46.6678 34.1648 46.6784 34.316 46.7434C34.3911 46.7766 34.6463 46.9061 34.7627 47.1922C34.846 47.3986 34.8159 47.6753 34.6717 48.0366C34.5843 48.2578 34.5092 48.3701 34.3858 48.5558C34.3332 48.6338 34.2723 48.7255 34.1967 48.8467C33.8723 49.3641 33.727 49.6054 33.6768 49.9229C33.6466 50.1097 33.652 50.3043 33.6915 50.5012V50.5035C33.7684 50.7111 33.9775 51.0328 34.2274 51.3231C34.3137 51.4236 34.6191 51.7453 34.96 51.6779C35.1361 51.6424 35.2879 51.5206 35.4108 51.3154C35.5934 51.0085 35.5272 50.6709 35.464 50.3439C35.3937 49.9773 35.2419 49.6308 35.0156 49.3127C34.9642 49.2399 34.9813 49.1394 35.054 49.088C35.1255 49.0365 35.2259 49.0537 35.2773 49.1264C35.5302 49.4824 35.6992 49.8714 35.7783 50.283C35.8144 50.4698 35.8563 50.6803 35.8486 50.8997C35.9319 50.9039 36.0495 50.892 36.1582 50.8282C36.3343 50.7235 36.3963 50.5367 36.4383 50.4137C36.5074 50.2055 36.5186 50.0009 36.5015 49.8088C36.5003 49.7958 36.4991 49.7833 36.4974 49.7703C36.4838 49.6379 36.4566 49.5119 36.4282 49.3943C36.2829 48.8083 36.0277 48.2347 35.669 47.6895C35.6212 47.6156 35.6413 47.5163 35.7151 47.4672C35.7901 47.4193 35.8882 47.4394 35.9373 47.5133C36.3154 48.0893 36.5854 48.6965 36.739 49.3174C36.7591 49.3984 36.7774 49.483 36.7922 49.5705C36.8926 49.532 36.9706 49.4765 37.025 49.4049C37.1496 49.2405 37.1414 48.9762 36.9907 48.4635C36.8335 47.9272 36.6522 47.385 36.1671 46.6678C35.802 46.1279 35.3541 45.6525 34.8354 45.2569C34.7663 45.2037 34.7521 45.102 34.8052 45.0322C34.8584 44.9618 34.96 44.9476 35.0298 45.0015C35.5763 45.4195 36.0483 45.9198 36.433 46.488C36.9434 47.2425 37.1402 47.8338 37.2979 48.3731C37.4551 48.9088 37.5059 49.3008 37.2784 49.5989L37.279 49.5971Z" fill="#00151A"/>
<path d="M33.0664 6.87413C33.0664 6.87413 33.5379 7.34954 33.4971 7.9574C33.4758 8.2767 33.0073 8.60783 33.0073 8.60783C33.0073 8.60783 33.298 9.46818 32.7095 9.71771C31.9102 10.0565 31.2366 9.32863 31.2366 9.32863C31.2366 9.32863 30.9359 9.62724 30.67 9.66627C29.9209 9.77625 28.6624 8.44227 28.0249 8.00529C27.6202 7.72797 27.1611 7.57778 26.7771 7.27385C26.9969 7.06512 28.4456 2.72317 28.9277 2.68C29.1374 2.66108 30.5465 3.49423 30.8402 3.6728C31.6774 4.18192 33.8073 5.5023 33.3949 6.679C33.3317 6.85935 33.0676 6.87354 33.0676 6.87354L33.0664 6.87413Z" fill="#E8AA7D"/>
<path d="M30.7327 44.959C30.637 45.1246 29.8341 46.0251 29.6852 45.8885C29.8553 45.4569 30.2695 45.0642 30.7327 44.959Z" fill="#F7E0D1"/>
<path d="M14.6707 40.299C14.5879 41.4118 14.494 42.4395 14.6659 43.5553C10.7624 44.5416 6.81452 43.9426 3.18629 42.2994C2.68823 42.0735 0.14356 40.717 0.0259868 40.3333C-0.14476 39.7769 0.561861 38.039 0.880905 37.4998C0.969528 37.3502 14.0639 40.241 14.6707 40.299Z" fill="#C1DB70"/>
<path d="M31.548 41.9295C31.7595 41.7361 32.7102 42.7159 32.6582 42.8578C31.7719 44.1404 31.6207 44.546 30.3398 45.7511C29.7945 46.2643 28.6713 46.9508 28.6713 46.9508C28.6713 46.9508 27.7679 45.945 27.4761 45.5979C27.7591 45.2757 31.2242 42.1601 31.5474 41.9295H31.548Z" fill="#C1DB70"/>
<path d="M27.7975 2.3479C27.7426 2.25152 27.3875 2.27103 27.4743 1.97656C27.9399 2.083 29.2273 2.31301 29.2255 2.84282C29.2232 3.49148 27.9972 7.70394 27.5364 7.77312C27.0383 7.51295 26.3807 7.54192 25.963 7.15935C26.1698 6.82585 26.4445 7.17886 26.7009 7.09371C27.1317 6.95062 28.0598 2.81089 27.7975 2.3479Z" fill="#C1DB70"/>
<path d="M24.4653 19.6692C24.2113 20.6514 23.5974 21.5691 22.5871 22.4194C21.1916 23.5943 20.0265 23.9875 18.3468 23.0686C17.9108 23.4819 17.9769 24.5918 17.3518 24.7574C17.3294 24.7633 17.2656 24.7751 17.1699 24.7911C17.1474 24.7952 17.1232 24.7994 17.0972 24.8041H17.0966C17.0115 24.7521 16.9276 24.7059 16.8467 24.6669C15.5552 24.0437 14.0184 24.1235 12.6974 24.6959C12.6489 24.5404 12.6105 24.4091 12.604 24.3707C12.5526 24.0738 12.5467 23.6457 12.5721 23.3448C12.6129 22.8646 13.0347 22.1355 13.0182 21.97C13.0022 21.8038 12.6259 21.3432 12.5201 21.0765C11.5724 18.6912 12.3157 15.9854 14.5732 14.7685C14.7038 14.6981 14.8391 14.6331 14.9797 14.5728C15.2355 14.464 16.0845 14.2747 16.1348 14.2103C16.2086 14.1151 15.7927 12.6971 16.6446 11.929C17.4883 11.1692 17.7837 11.903 18.3409 12.3388C18.846 12.7338 19.3884 13.0957 19.9473 13.4103C20.2297 13.5693 20.9033 13.8673 21.6081 14.1866C22.2893 14.4947 23.0001 14.8217 23.416 15.0612C23.2536 15.2167 23.0982 15.3817 22.9499 15.5537C21.988 16.6683 21.3074 18.0999 20.82 19.6734C20.739 19.9341 20.3361 21.3337 20.7999 22.0102C21.1266 22.4868 21.4126 22.6322 21.6678 22.4537C21.734 22.4235 21.9177 22.2721 22.1487 22.0675C22.7218 21.5667 23.5815 20.7489 23.647 20.6857C23.9407 20.3989 24.2166 20.0512 24.4653 19.6692Z" fill="#E8AA7D"/>
<path d="M25.7739 26.3658C25.2646 27.9511 24.018 29.696 22.5037 30.7811C21.7103 32.9399 22.85 35.1762 22.2686 37.3605C21.6388 39.7311 19.0421 41.3512 16.693 41.5653C16.0555 41.6232 13.7188 41.2413 13.9439 40.2975C14.0296 39.9416 13.9345 36.9448 14.1212 35.7297C14.5218 33.1132 15.8535 29.8622 17.0942 27.5236C17.2578 27.2179 18.1352 25.9921 18.1523 25.8969C18.2037 25.6178 16.9252 24.7918 16.4939 24.9384C16.2641 25.0153 16.2836 25.4517 15.9515 25.3884C15.9214 24.6841 16.7373 24.0544 17.4422 24.1786C17.5574 24.1987 18.5825 24.6457 18.6268 24.6924C18.9848 25.072 17.6307 24.7042 17.464 24.8077C18.6333 26.1937 18.5364 25.0099 19.3316 24.748C19.5207 24.6859 20.2574 24.7841 20.7466 24.6563C21.0669 24.5718 21.6193 24.2182 21.9011 24.0645C22.5664 24.353 23.8898 24.7699 25.9595 24.3412C26.0888 24.9272 26.012 25.629 25.7733 26.3664L25.7739 26.3658Z" fill="#006A80"/>
<path d="M24.4653 19.6698C24.2166 20.0518 23.9407 20.3994 23.647 20.6862C23.5815 20.7495 22.7218 21.5673 22.1487 22.0681C21.9177 22.2727 21.734 22.4241 21.6678 22.4542C21.4126 22.6328 21.1266 22.4873 20.7999 22.0107C20.3361 21.3343 20.739 19.9347 20.82 19.6739C21.3074 18.1005 21.988 16.6689 22.9499 15.5543C23.0982 15.3822 23.2536 15.2172 23.416 15.0617C23.0001 14.8223 22.2893 14.4953 21.6081 14.1872C21.7771 13.9489 22.3981 13.8454 22.9132 13.83C23.5295 13.7768 24.1959 13.807 24.4393 13.9241C24.8506 14.1227 25.0532 14.4539 25.1761 14.8199C25.2724 14.8731 25.3652 14.9317 25.4561 14.9979C25.6068 15.1433 25.7067 15.3562 25.7356 15.6554C25.8372 16.7316 25.2996 18.3931 24.4653 19.6698Z" fill="#006A80"/>
<path d="M27.4985 23.7429C27.0755 24.6813 26.5704 25.4263 25.7739 26.3659C26.012 25.6285 26.0889 24.9261 25.9601 24.3407C23.8904 24.7694 22.567 24.3525 21.9017 24.0639C21.8663 24.048 21.8332 24.0332 21.8024 24.019C21.263 23.7718 21.9649 23.773 22.1144 23.6973C23.13 23.1782 22.2255 22.5011 22.1487 22.0683C22.7224 21.5669 23.582 20.7497 23.647 20.6864C24.9208 19.4399 25.8685 17.0534 25.7361 15.6556C25.7072 15.3564 25.6067 15.1435 25.4561 14.998C26.6448 15.8466 27.4028 17.6648 27.765 18.9823C28.3375 21.0666 28.3854 21.775 27.4991 23.7429H27.4985Z" fill="#99D9E5"/>
<path d="M20.1157 21.1104C24.0866 20.7278 24.0098 25.3441 21.0982 26.2872C16.6889 27.7158 15.5657 21.5485 20.1157 21.1104Z" fill="#E8AA7D"/>
<path d="M18.6864 21.3112C18.5742 21.575 18.3532 21.8286 18.1056 21.9918C17.9432 22.0965 17.7712 22.1639 17.6082 22.1716C15.467 22.2668 14.4697 21.1871 13.8576 20.2628C13.8322 20.2244 13.8074 20.186 13.7826 20.1475C13.1079 19.0897 12.751 17.9201 13.3342 16.77C13.7986 15.8541 14.8514 15.3444 15.7861 15.7122C16.605 16.035 16.4767 16.8096 16.7119 17.4648C17.1934 18.8082 19.3818 19.6816 18.6864 21.3112Z" fill="#00151A"/>
<path d="M18.1051 21.9924C17.9427 22.0971 17.7707 22.1645 17.6077 22.1722C15.4665 22.2674 14.4692 21.1876 13.8571 20.2634C13.8317 20.225 13.8069 20.1866 13.7821 20.1481C15.3572 19.5551 17.4611 20.4077 18.1051 21.993V21.9924Z" fill="#C2570A"/>
<path d="M32.0803 41.7661C32.0803 41.7715 32.0797 41.7774 32.0797 41.7827C32.0792 41.7916 32.078 41.801 32.0768 41.8105C32.0738 41.8264 32.0703 41.843 32.0662 41.8596C32.0644 41.8667 32.0626 41.8738 32.0603 41.8808C32.0573 41.8933 32.0532 41.9063 32.0484 41.9187C32.0431 41.9352 32.0366 41.953 32.0295 41.9707C32.0224 41.9885 32.0148 42.0068 32.0059 42.0251C31.9888 42.063 31.9687 42.102 31.9468 42.1428C31.9356 42.1635 31.9238 42.1842 31.9114 42.2055C31.9037 42.2185 31.8954 42.2321 31.8871 42.2457C31.8795 42.2593 31.8712 42.2729 31.8617 42.2865C31.8535 42.3007 31.8446 42.3143 31.8352 42.3285C31.8263 42.3432 31.8168 42.3574 31.8068 42.3716C31.7583 42.4432 31.7046 42.5183 31.6467 42.5963C31.623 42.6277 31.5988 42.659 31.574 42.6909C31.5486 42.7229 31.5232 42.7548 31.4966 42.7873C31.4842 42.8039 31.4706 42.8204 31.4564 42.837C31.4293 42.8701 31.4015 42.9032 31.3731 42.9369C31.3554 42.9576 31.3377 42.9783 31.32 42.9996C31.2579 43.0711 31.1935 43.1439 31.1268 43.2178C31.1002 43.2473 31.073 43.2769 31.0458 43.3065C31.018 43.336 30.9903 43.3656 30.9625 43.3958C29.9061 44.5163 28.3877 45.7622 27.7012 45.9679H27.7C27.6894 45.9715 27.6787 45.9739 27.6681 45.9768C27.6515 45.9804 27.6362 45.9833 27.6208 45.9857C27.4737 46.0082 27.2043 45.8586 26.9107 45.6492C26.9089 45.648 26.9065 45.6463 26.9042 45.6445C26.526 45.3642 26.0859 44.9852 25.8425 44.7706C25.8348 44.7635 25.8271 44.7569 25.8194 44.7504C25.7834 44.7179 25.7521 44.6901 25.7267 44.6677C25.6451 44.5955 25.563 44.521 25.4803 44.4459C25.3976 44.3702 25.3137 44.2934 25.2298 44.2153C25.1033 44.0976 24.9757 43.9776 24.8469 43.8552C24.7187 43.7328 24.5893 43.6075 24.4593 43.4815C24.2862 43.313 24.1125 43.1415 23.9388 42.9677C23.5914 42.6206 23.2458 42.267 22.9096 41.9181C22.8677 41.8743 22.8257 41.8306 22.7832 41.7868C22.7005 41.6999 22.6178 41.613 22.5356 41.5272C22.2491 41.2257 21.972 40.9306 21.7108 40.6492C21.6518 40.5859 21.5921 40.5208 21.5318 40.454C19.6501 38.3868 16.9057 34.7852 16.4579 33.8693C16.4395 33.9497 16.4212 34.0319 16.4035 34.1146C16.2623 34.1081 16.3361 34.1513 16.3025 34.2985C15.9385 35.9099 15.7406 37.6134 15.6159 39.2649C15.6118 39.3187 15.6077 39.3725 15.6035 39.4257C15.6023 39.4429 15.6012 39.4606 15.6006 39.4796C15.5911 39.6451 15.5982 39.8018 15.6088 39.9496V39.9514C15.6213 40.2187 15.6396 40.5067 15.6289 40.7361C15.5917 40.9555 15.4842 41.1423 15.223 41.2984C15.223 41.2984 15.2225 41.299 15.2219 41.299C15.1622 41.3345 15.0942 41.3688 15.0174 41.4013C11.3195 42.9635 6.09545 41.6969 2.8099 39.6475C2.41227 39.3997 0.219148 37.8168 0.137615 37.5365C0.0655348 37.287 0.473792 36.4834 0.604954 36.1795C1.65307 33.7534 3.67368 30.7478 5.31439 28.6616C6.15394 27.5943 8.32403 25.6005 8.4735 24.3664C8.58458 23.4528 8.06288 22.3453 7.86082 21.4294C6.89306 17.0395 5.25058 7.74838 8.21059 4.07046C11.5127 -0.0326 22.0204 -0.314061 26.6318 1.24521C28.2955 1.80813 28.1797 1.87731 27.9257 3.65004C27.8406 4.24253 27.0377 7.39241 26.6601 7.62893C26.4179 7.78031 24.646 7.16003 24.1941 7.06365C21.7628 6.54448 19.4391 6.40434 16.9731 6.78337C16.4307 6.86615 14.8213 7.22152 14.4 7.46928C14.1288 7.62834 14.1088 8.03339 14.0851 8.31899C13.9067 10.4684 14.1566 12.6219 14.5731 14.7683C12.3156 15.9852 11.5724 18.6911 12.52 21.0764C12.6258 21.3431 13.0021 21.8037 13.0181 21.9698C13.0346 22.1354 12.6128 22.8645 12.572 23.3446C12.5466 23.6456 12.5525 24.0737 12.6039 24.3705C12.6104 24.409 12.6488 24.5402 12.6973 24.6958C14.0184 24.1234 15.5551 24.0435 16.8466 24.6668C16.9276 24.7058 17.0115 24.7519 17.0965 24.804H17.0971C17.7766 25.2173 18.5771 26.0179 19.4001 26.9699C19.9082 27.6765 20.3774 28.4281 20.9103 29.1033C21.7835 30.2114 22.6839 31.2965 23.6038 32.3644C23.6736 32.4513 23.7409 32.5341 23.8059 32.6116C25.0643 34.1182 26.4049 35.5568 27.7538 36.986C28.7008 38.0078 29.6556 39.0225 30.6104 40.0372C31.1049 40.5782 31.5929 41.1246 32.0709 41.6786C32.0727 41.6845 32.0738 41.6904 32.075 41.697C32.0792 41.7188 32.0815 41.7419 32.0803 41.7661Z" fill="#86B200"/>
<path d="M32.9152 6.96774C32.8715 6.96774 32.8271 6.95 32.7958 6.91452C32.5512 6.64074 32.2795 6.38885 31.9882 6.16534C31.7389 5.97375 31.4724 5.8005 31.1953 5.6509C31.1173 5.60892 31.0884 5.51135 31.1303 5.43389C31.1723 5.35584 31.2697 5.32687 31.3471 5.36885C31.639 5.52673 31.9196 5.70885 32.1826 5.91107C32.4892 6.14641 32.7757 6.4125 33.0333 6.70106C33.0924 6.76728 33.0865 6.8684 33.0209 6.92753C32.9902 6.95473 32.9524 6.96833 32.914 6.96833L32.9152 6.96774Z" fill="#00151A"/>
<path d="M32.9004 8.71842C32.8579 8.71842 32.8159 8.70187 32.7846 8.66875C32.4898 8.35832 32.163 8.07568 31.8133 7.8291C31.5031 7.61032 31.1711 7.41696 30.8272 7.25495C30.7474 7.2171 30.7126 7.1219 30.7504 7.04148C30.7882 6.96107 30.8833 6.92677 30.9637 6.96461C31.3247 7.13491 31.6727 7.33714 31.9982 7.56715C32.3645 7.82615 32.7078 8.12239 33.0168 8.44761C33.0776 8.51147 33.0753 8.61317 33.0109 8.67408C32.9802 8.70364 32.94 8.71842 32.9004 8.71842Z" fill="#00151A"/>
<path d="M31.1215 9.38201C31.0742 9.38201 31.0275 9.36132 30.9962 9.3217C30.767 9.03314 30.5023 8.77297 30.2104 8.54946C29.8689 8.2881 29.492 8.0776 29.0896 7.92327C29.0069 7.89134 28.9656 7.79909 28.9975 7.71631C29.0288 7.63353 29.1215 7.59214 29.2043 7.62407C29.6356 7.78963 30.0397 8.01551 30.4054 8.2952C30.7185 8.53468 31.0015 8.81318 31.2473 9.12243C31.3023 9.19161 31.291 9.29273 31.2219 9.34772C31.1924 9.37137 31.1575 9.38261 31.1221 9.38261L31.1215 9.38201Z" fill="#00151A"/>
<path d="M2.94285 36.7232C2.9204 36.7232 2.89736 36.7184 2.87609 36.7084C2.79573 36.6711 2.76088 36.5759 2.79751 36.4955C3.83322 34.2474 5.11766 32.1151 6.61539 30.1579C7.66942 28.7808 8.8416 27.4746 10.0995 26.2766C10.1633 26.2157 10.2649 26.2181 10.3257 26.2819C10.3866 26.3458 10.3842 26.4475 10.3204 26.5084C9.07439 27.6951 7.91342 28.9883 6.86944 30.3525C5.38589 32.2908 4.11386 34.4023 3.08819 36.6292C3.06101 36.6877 3.00311 36.7226 2.94285 36.7226V36.7232Z" fill="#00151A"/>
<path d="M9.99608 25.4639C9.73139 25.4639 9.48207 25.4065 9.30364 25.2445C9.26583 25.2102 9.07972 24.9701 9.1713 24.7354C9.31014 24.38 9.77511 24.2789 10.4475 24.4575C10.7411 24.5355 11.352 24.817 11.378 24.8288C11.4347 24.8548 11.4714 24.9122 11.4714 24.9748C11.4714 25.0375 11.4341 25.0943 11.3774 25.1203C11.2728 25.1676 10.5964 25.4633 9.99667 25.4633L9.99608 25.4639ZM9.52579 25.0139C9.80643 25.2545 10.4451 25.1168 10.8918 24.966C10.7086 24.8879 10.4959 24.8034 10.3648 24.7685C10.0044 24.6727 9.55356 24.6372 9.46966 24.853C9.45489 24.8903 9.49625 24.9748 9.52579 25.0145V25.0139Z" fill="#00151A"/>
<path d="M19.487 15.4819C19.36 15.4565 19.2778 15.4885 19.2329 15.5157C19.1632 15.5582 19.0976 15.6333 19.1171 15.78C19.1331 15.8965 19.2312 15.9775 19.3133 16.0443C19.393 16.1093 19.6152 16.2382 19.8362 16.1826C19.8923 16.1685 19.998 16.1182 20.0311 16.0053C20.0672 15.8799 20.011 15.7959 19.9856 15.7652C19.913 15.6783 19.8143 15.5476 19.4876 15.4825L19.487 15.4819Z" fill="#00151A"/>
<path d="M20.6828 17.3099C20.6279 17.3099 20.5753 17.2792 20.5499 17.2266C20.5144 17.1532 20.5446 17.0645 20.6184 17.0291C20.7791 16.951 21.0787 16.7647 21.2766 16.3975C21.4763 16.0274 21.4656 15.6708 21.4408 15.4917C21.4296 15.4107 21.4863 15.3362 21.5673 15.3255C21.6482 15.3149 21.7226 15.371 21.7333 15.4521C21.7622 15.6667 21.7752 16.0936 21.5359 16.5377C21.299 16.9776 20.9398 17.2005 20.7466 17.2946C20.7259 17.3046 20.7041 17.3093 20.6822 17.3093L20.6828 17.3099Z" fill="#00151A"/>
<path d="M40.8576 7.62583L37.3452 9.82075C36.8052 10.0295 36.3833 9.73679 36.2616 9.19929C35.4362 10.1613 33.4292 10.5741 34.3403 8.73393C33.6703 8.71678 33.5167 8.11661 33.6709 7.53772C33.7234 7.33964 34.0898 6.99668 34.0892 6.92572C34.0874 6.79268 33.5627 6.71167 33.8493 5.96958C34.0738 5.38774 35.4977 4.25421 36.0471 3.8604C36.3449 3.64694 38.3011 2.43299 38.4725 2.44541C38.5032 2.44777 40.6461 7.46972 40.857 7.62583H40.8576Z" fill="#E8AA7D"/>
<path d="M49.8198 34.2425L38.6456 46.6475C38.2781 46.8184 37.5431 46.4417 37.1715 46.2608C36.0495 45.7138 33.7654 43.937 33.5457 42.658C33.4683 42.2074 33.9941 41.6947 34.2812 41.3465C38.8364 35.8178 45.1689 30.6912 49.2189 24.8461C52.7993 19.6793 53.4622 14.1068 53.3015 7.46767C49.2798 6.42284 44.4959 6.4258 40.5841 8.01581C38.7738 6.50444 37.9715 3.88259 38.3159 1.58774L38.4944 1.41685C43.7568 -0.442209 50.0018 -0.543322 55.2347 1.50851C58.1078 2.63494 59.2901 4.44847 59.8868 7.42687C61.0212 13.0862 60.0522 19.4753 58.9462 25.0525C60.0144 26.3912 60.5958 26.8382 61.5529 28.2656C63.4849 31.1459 65.8718 37.6201 65.9977 41.0603C66.0231 41.7633 65.7548 41.9614 65.2385 42.3943C62.6329 44.5779 56.3803 46.2939 53.0723 45.6062C52.7385 45.537 51.8617 45.3656 51.7967 45.0191C51.7707 42.4362 51.7329 39.6571 51.1816 37.1311C50.8945 35.8142 50.6387 36.2051 50.1648 35.3536C49.9817 35.0248 49.8606 34.618 49.8186 34.2437L49.8198 34.2425Z" fill="#0095B2"/>
<path d="M50.0514 33.7767C50.5601 36.1655 52.5039 35.8758 52.2516 33.3805C51.9757 30.6534 49.2071 28.6678 46.7954 27.8949L48.2996 25.9153C49.9297 26.2352 52.9754 26.8608 54.2415 25.4464C55.77 23.7381 52.1069 22.0286 50.7515 22.0103C50.8886 21.8098 51.119 20.8188 51.2295 20.739C51.5019 20.5421 54.9298 21.9955 55.4492 22.261C61.693 25.4564 64.6228 31.9477 65.7543 38.5899C63.954 40.2378 61.8962 41.5257 59.5642 42.2122C57.6299 42.781 55.2725 43.0489 53.2566 42.7438C52.5305 42.6338 50.7628 42.146 50.5696 41.356C50.4343 39.0144 50.273 36.6551 49.6166 34.394L50.052 33.7767H50.0514Z" fill="#99D9E5"/>
<path d="M54.4489 23.9075C54.2799 24.7347 53.0918 25.2817 52.3225 25.2817C51.9775 25.2805 51.5609 25.07 51.2708 25.0925C51.0434 25.1108 50.5843 25.4183 50.1973 25.475C47.8648 25.8215 45.8796 24.1062 45.0743 22.0431C44.9715 21.7812 44.7925 20.8705 44.7925 20.8705C44.7925 20.8705 44.0345 20.6429 43.7769 20.5465C42.8339 20.1947 42.493 19.2084 42.8062 18.5443C42.9645 18.2079 44.064 17.9329 44.5012 17.6775C45.4412 17.1294 46.0208 16.3435 46.591 15.602C46.7983 15.3324 47.0045 15.0687 47.2261 14.8227C47.2273 14.8215 47.2273 14.8203 47.2273 14.8203C47.2273 14.8203 48.6068 15.2502 48.982 15.3365C49.4505 15.4447 49.9167 15.5269 50.4023 15.4885C49.0759 17.1903 50.9642 17.4605 52.264 16.7687C52.1949 17.3511 52.3946 18.2972 52.9925 18.5449C53.7198 18.8477 53.5556 18.3557 53.926 19.3586C54.4075 20.6612 54.1233 22.0638 54.476 23.4043C54.4843 23.584 54.4802 23.7567 54.4495 23.9069L54.4489 23.9075Z" fill="#E8AA7D"/>
<path d="M56.6509 19.9432C56.5705 20.5392 56.164 21.6313 55.4881 22.5378C55.2435 22.866 54.8495 23.2261 54.4767 23.407C54.4767 23.4058 54.4755 23.4047 54.4755 23.4041C54.1233 22.0636 54.4069 20.6616 53.9254 19.3584C53.555 18.3561 53.7192 18.8475 52.9919 18.5447C52.394 18.297 52.1943 17.3509 52.2634 16.7685C50.9636 17.4597 49.076 17.1895 50.4018 15.4883C49.9161 15.5267 49.4499 15.4445 48.9814 15.3363C48.6068 15.25 47.2267 14.8201 47.2267 14.8201C47.2267 14.8201 47.2267 14.8213 47.2255 14.8225C47.0034 15.0684 46.7972 15.3322 46.5904 15.6018C46.2105 15.5078 45.8749 15.0129 45.9541 14.5108C46.0374 13.9828 46.4793 13.8119 46.4793 13.8119C46.4793 13.8119 45.9665 12.8256 46.4409 12.2816C47.1274 11.4958 48.2382 12.0155 49.0039 12.3425C48.8018 11.0511 50.1891 10.2913 51.1568 11.1794C51.646 11.6294 52.6528 13.6966 53.2158 13.6966C53.3653 13.1065 53.5833 12.8576 53.7263 12.7091C54.5103 11.8937 56.0937 12.6021 55.2896 13.9728C56.6331 13.8202 57.2074 15.2192 55.7576 15.6639C56.8896 16.7371 56.8488 18.4726 56.6503 19.9449L56.6509 19.9432Z" fill="#006A80"/>
<path d="M52.293 19.7734C52.0773 19.4227 52.6103 18.4181 52.8466 18.1101C53.8663 16.7796 56.4281 16.9369 57.0615 18.55C58.2437 21.5615 54.355 23.9876 52.8608 20.8904C52.7113 20.5799 52.677 20.1335 52.5453 19.9194C52.495 19.8378 52.3231 19.8225 52.293 19.7734Z" fill="#E8AA7D"/>
<path d="M52.3946 21.2674C52.2055 22.6427 51.0192 23.4392 50.8065 23.5811C50.5565 23.7491 50.0419 24.0512 49.3637 24.1837C48.9962 24.2564 48.5797 24.2801 48.1324 24.2038C47.9197 24.1683 46.601 23.9454 46.0823 22.936C45.9989 22.7722 45.762 22.3116 45.9422 21.8705C46.0716 21.5512 46.3611 21.3821 46.5254 21.2869C46.7977 21.1278 46.9011 21.1639 47.4896 21.0048C47.9061 20.8925 48.2594 20.7955 48.6559 20.5826C48.9678 20.4147 49.1835 20.2415 49.3595 20.0995C49.8954 19.6691 49.9533 19.4639 50.3645 19.2747C50.5246 19.2019 50.7426 19.1014 51.0274 19.1144C51.6791 19.1434 52.0844 19.7341 52.1529 19.8382C52.2481 19.9813 52.3119 20.1291 52.355 20.2734C52.4755 20.6808 52.4235 21.0634 52.3946 21.2674Z" fill="#00151A"/>
<path d="M52.3946 21.268C52.2056 22.6434 51.0192 23.4399 50.8065 23.5818C50.5566 23.7497 50.042 24.0519 49.3637 24.1843C49.3572 23.7367 49.5038 23.217 49.5581 23.0236C49.8453 22.003 50.5099 21.3999 50.9601 21.0025C51.3572 20.6519 51.9232 20.3633 52.3551 20.2734C52.4756 20.6808 52.4236 21.0634 52.3946 21.2674V21.268Z" fill="#C2570A"/>
<path d="M49.0169 16.8063C48.9867 16.8063 48.9566 16.798 48.9294 16.7803C48.6884 16.6236 48.4325 16.4852 48.169 16.3705C47.8866 16.2475 47.5918 16.1488 47.2911 16.0778C47.2048 16.0571 47.1516 15.9708 47.1723 15.885C47.193 15.7987 47.2781 15.7455 47.3655 15.7662C47.684 15.8419 47.9977 15.9465 48.2972 16.0772C48.5773 16.199 48.8491 16.3457 49.1049 16.5124C49.1793 16.5609 49.2 16.6602 49.1516 16.7341C49.1208 16.7815 49.0694 16.8069 49.0174 16.8069L49.0169 16.8063Z" fill="#00151A"/>
<path d="M48.6252 17.8016C48.5844 17.8016 48.5431 17.7862 48.5118 17.7549C48.4267 17.6703 47.9735 17.2529 47.3526 17.3475C47.0276 17.3972 46.7937 17.5651 46.6548 17.6975C46.591 17.7584 46.4894 17.7561 46.4285 17.6922C46.3677 17.6284 46.37 17.5267 46.4339 17.4658C46.6058 17.3014 46.8971 17.0932 47.3041 17.0311C48.0769 16.9135 48.6341 17.425 48.7381 17.529C48.8007 17.5917 48.8007 17.6928 48.7381 17.7555C48.7067 17.7868 48.666 17.8028 48.6246 17.8028L48.6252 17.8016Z" fill="#00151A"/>
<path d="M34.1967 6.93814C34.1577 6.93814 34.1181 6.92395 34.0874 6.89497C34.023 6.83466 34.0195 6.73296 34.0797 6.6685C34.3196 6.41188 34.5778 6.16826 34.849 5.94534C35.1716 5.67925 35.5184 5.43563 35.8794 5.22158C35.9556 5.17664 36.0537 5.20148 36.0986 5.27776C36.1435 5.35403 36.1187 5.45219 36.0425 5.49713C35.6956 5.70231 35.363 5.93647 35.0528 6.19191C34.7929 6.40656 34.5441 6.64012 34.3143 6.8867C34.283 6.9204 34.2399 6.93755 34.1973 6.93755L34.1967 6.93814Z" fill="#00151A"/>
<path d="M34.3928 8.76489C34.3592 8.76489 34.3249 8.75425 34.2959 8.73237C34.2256 8.67915 34.2115 8.57804 34.2652 8.50767C34.475 8.23094 34.7095 7.97018 34.9618 7.73306C35.3086 7.40725 35.6938 7.12047 36.1068 6.88099C36.1836 6.83664 36.2811 6.86266 36.326 6.93953C36.3703 7.0164 36.3443 7.11397 36.2675 7.15891C35.8758 7.38597 35.5101 7.65797 35.181 7.96722C34.9417 8.19191 34.7196 8.43908 34.5205 8.70162C34.4891 8.74301 34.4413 8.76489 34.3928 8.76489Z" fill="#00151A"/>
<path d="M36.3225 9.18611C36.2918 9.18611 36.2611 9.17724 36.2339 9.15891C36.1601 9.10983 36.1406 9.0099 36.1896 8.93658C36.4182 8.59422 36.7072 8.30507 37.0481 8.07742C37.3447 7.87933 37.6708 7.73505 38.0176 7.64754C38.1039 7.62566 38.1901 7.67828 38.212 7.76402C38.2332 7.84976 38.1813 7.93728 38.0956 7.95856C37.7842 8.03661 37.4918 8.16611 37.2259 8.34409C36.9204 8.54809 36.6611 8.80768 36.4561 9.11456C36.4253 9.16069 36.3745 9.18552 36.3225 9.18552V9.18611Z" fill="#00151A"/>
<path d="M55.2943 26.9772C55.3865 26.9051 55.5383 26.9677 55.5856 26.9872C55.7794 27.0671 55.8526 27.251 55.8668 27.2888C55.8928 27.3586 55.9602 27.5377 55.8568 27.6708C55.7983 27.7465 55.6955 27.7932 55.5956 27.7814C55.4822 27.7684 55.4166 27.6856 55.3646 27.6205C55.273 27.5052 55.2535 27.3852 55.2441 27.319C55.2276 27.2037 55.2045 27.0476 55.2943 26.9772Z" fill="#00151A"/>
<path d="M57.2641 30.5888C57.3593 30.5498 57.4691 30.6266 57.5454 30.6792C57.5944 30.7135 57.67 30.7674 57.7161 30.8702C57.7356 30.9146 57.7846 31.0234 57.7362 31.1416C57.7291 31.1594 57.6854 31.2611 57.5755 31.3025C57.4225 31.3598 57.2824 31.2475 57.2641 31.2321C57.1223 31.115 57.1312 30.9294 57.1336 30.8803C57.1359 30.8336 57.1448 30.6373 57.2641 30.5888Z" fill="#00151A"/>
<path d="M58.8824 34.3511C59.039 34.2742 59.2233 34.4321 59.234 34.4416C59.3994 34.587 59.3799 34.8106 59.3746 34.8537C59.3687 34.9069 59.3444 35.1198 59.1938 35.1754C59.0207 35.2392 58.8422 35.0364 58.8322 35.0246C58.6969 34.8667 58.7258 34.6716 58.7318 34.6326C58.7424 34.5598 58.7648 34.4085 58.8824 34.3511Z" fill="#00151A"/>
<path d="M59.8673 38.6756C59.9789 38.5981 60.1426 38.6578 60.2288 38.7158C60.3795 38.8169 60.4073 38.989 60.4197 39.0676C60.4309 39.135 60.4616 39.3284 60.3393 39.4697C60.3151 39.4981 60.246 39.5773 60.1485 39.5803C59.9819 39.585 59.8702 39.3638 59.8371 39.2988C59.8123 39.2503 59.7715 39.1545 59.7668 39.0274C59.7627 38.9198 59.7562 38.7524 59.8673 38.6756Z" fill="#00151A"/>
</g>
<defs>
<clipPath id="clip0_955_6405">
<rect width="66" height="52" fill="white"/>
</clipPath>
</defs>
</svg>
