<svg width="46" height="64" viewBox="0 0 46 64" fill="none" xmlns="http://www.w3.org/2000/svg">
<g clip-path="url(#clip0_972_60655)">
<path d="M22.2411 33.6555C27.6175 34.1355 33.5276 33.9566 37.0866 36.7392C39.0532 38.2766 41.1339 42.1937 42.2554 48.0599C42.8841 51.3515 43.2423 56.7013 42.9587 60.0061C42.8125 61.7079 40.6323 62.5122 39.255 62.8148C32.0976 64.3857 18.5491 64.3348 11.1023 63.0126C6.94678 62.2751 2.493 60.5064 0.826121 59.6613C0.409401 59.4504 0.171067 59.0024 0.228092 58.5399C0.42841 56.9355 0.900692 53.2337 1.17558 51.9159C2.96967 43.3181 5.54602 36.5952 9.79071 34.2388C13.0031 32.4555 18.1617 33.2904 22.2411 33.6541V33.6555Z" fill="#C2E8F0"/>
<path d="M38.9114 31.3679C38.8997 31.5061 38.8924 31.6021 38.8895 31.6559C38.9757 31.7097 39.0561 31.7621 39.1336 31.8144C40.4043 32.6755 40.571 33.4901 39.7565 36.9475C38.9845 37.0901 38.1555 37.2006 37.2796 37.2864C37.0296 37.3112 36.7752 37.333 36.5149 37.3533C30.1106 37.8523 21.5934 37.061 15.9143 36.0966C14.6276 35.8784 9.09766 34.8937 6.69824 33.9133C6.49061 33.829 6.30491 33.7446 6.14992 33.6588C5.88819 33.5177 5.70396 33.3781 5.625 33.2413C5.75806 29.0741 7.37376 28.5752 7.87382 28.5213C7.9674 28.5097 8.0215 28.5155 8.0215 28.5155C8.0215 28.5155 8.03613 28.4239 8.06391 28.2523C8.16041 27.6152 8.41775 25.8712 8.70288 23.5599C9.67084 15.7141 10.108 11.1294 11.4401 4.48935C11.8392 2.50244 11.9811 2.26535 14.4989 2.16208C22.4049 1.84353 29.9424 2.63335 36.3336 4.01372C40.2624 4.86026 40.7347 5.17881 40.6894 7.25444C40.6192 10.4879 40.397 14.389 40.125 17.6981C39.7828 21.8552 39.0532 29.6661 38.9114 31.3693V31.3679Z" fill="#86B200"/>
<path d="M33.1212 32.3681C32.9632 32.3681 32.8331 32.2415 32.8302 32.083C32.8273 31.923 32.9559 31.7921 33.1168 31.7892C35.1477 31.7586 37.0763 31.6175 38.8485 31.3703C39.0079 31.347 39.1556 31.459 39.1775 31.6161C39.1994 31.7746 39.0883 31.9215 38.9304 31.9433C37.1334 32.1935 35.1814 32.3375 33.1256 32.3681H33.1212Z" fill="#00151A"/>
<path d="M23.038 31.7774C23.0263 31.7774 23.0146 31.7774 23.0044 31.7759C20.3871 31.4719 17.7026 31.0588 15.0239 30.5483C12.3042 30.0305 9.76442 29.2901 8.08292 28.7999C7.92793 28.7548 7.8402 28.5934 7.88552 28.4407C7.93085 28.2865 8.09315 28.1992 8.24668 28.2443C9.91648 28.7316 12.4417 29.4676 15.1335 29.9796C17.7991 30.4872 20.469 30.8974 23.0731 31.1999C23.2325 31.2188 23.3466 31.3628 23.329 31.5214C23.3115 31.6683 23.1857 31.7774 23.041 31.7774H23.038Z" fill="#00151A"/>
<path d="M38.7535 3.23399C38.6058 3.23399 38.48 3.12344 38.4639 2.97362L38.1905 0.320531C38.1744 0.161985 38.2899 0.01944 38.4508 0.00343999C38.6116 -0.01256 38.7535 0.102349 38.7695 0.262349L39.043 2.91544C39.0591 3.07399 38.9435 3.21653 38.7827 3.23253C38.7725 3.23253 38.7622 3.23399 38.752 3.23399H38.7535Z" fill="#C2E8F0"/>
<path d="M41.6749 3.86004C41.6208 3.86004 41.5667 3.8455 41.517 3.8135C41.3825 3.72622 41.343 3.54731 41.4293 3.4135L43.1283 0.79095C43.216 0.657132 43.3959 0.617859 43.5304 0.703677C43.6649 0.79095 43.7044 0.969859 43.6181 1.10368L41.9191 3.72622C41.8635 3.81204 41.7699 3.85859 41.6734 3.85859L41.6749 3.86004Z" fill="#C2E8F0"/>
<path d="M42.8637 6.09315C42.7131 6.09315 42.5858 5.97679 42.5742 5.82551C42.5625 5.66551 42.6824 5.52733 42.8417 5.51424L45.4371 5.31933C45.5979 5.30624 45.7368 5.42697 45.75 5.58551C45.7617 5.74551 45.6418 5.88369 45.4824 5.89679L42.8871 6.09169C42.8797 6.09169 42.8724 6.09169 42.8651 6.09169L42.8637 6.09315Z" fill="#C2E8F0"/>
<path d="M38.5722 35.2475C38.1701 35.9515 37.7387 36.6322 37.2796 37.2868C35.2823 40.1304 32.7542 42.5028 29.8693 44.225C27.8252 45.4453 24.0089 47.7232 19.3533 47.7232C18.1982 47.7232 16.9905 47.5821 15.7462 47.2519C10.4092 45.8308 8.03466 42.7733 6.98335 40.4577C5.82824 37.9108 5.8604 35.4279 6.14991 33.6562C6.30637 33.7421 6.4906 33.8264 6.69823 33.9108C6.44966 35.5864 6.45259 37.8773 7.51412 40.2192C8.51279 42.4199 10.7792 45.329 15.8968 46.6904C21.9195 48.2933 27.0853 45.2097 29.5696 43.7261C32.2497 42.1261 34.6141 39.9501 36.5149 37.3508C36.9974 36.6919 37.4507 36.0053 37.8718 35.2941L36.4418 34.9537C36.2853 34.9159 36.1903 34.7617 36.2268 34.6046C36.2649 34.449 36.4213 34.3544 36.5778 34.3908L38.3865 34.8213C38.4757 34.8432 38.5488 34.9042 38.5853 34.9872C38.6219 35.0715 38.616 35.1661 38.5707 35.2446L38.5722 35.2475Z" fill="#00151A"/>
<path d="M3.38933 60.8097C3.37471 60.8097 3.36009 60.8097 3.34547 60.8068C3.18609 60.7835 3.07643 60.6351 3.09982 60.4781C3.56918 57.3493 4.15113 53.7319 4.91438 50.6148C5.37935 48.7166 5.88527 46.8853 6.45698 45.0177C6.50377 44.865 6.66607 44.7777 6.8196 44.8257C6.97312 44.8722 7.05939 45.0337 7.0126 45.1864C6.44382 47.0453 5.94083 48.865 5.47878 50.753C4.71991 53.8468 4.14089 57.4482 3.67446 60.5639C3.65253 60.7079 3.52824 60.8111 3.38641 60.8111L3.38933 60.8097Z" fill="#00151A"/>
<path d="M33.7002 63.3782C33.5394 63.3782 33.4092 63.2487 33.4092 63.0902C33.4005 60.3265 33.3888 56.888 32.9896 53.2865C32.7001 50.6771 32.3389 48.5505 31.8169 46.3905C31.7789 46.2349 31.8754 46.0793 32.0319 46.0414C32.1883 46.0036 32.3448 46.0996 32.3828 46.2553C32.9106 48.44 33.2762 50.5898 33.5686 53.224C33.9722 56.856 33.9824 60.312 33.9927 63.0902C33.9927 63.2502 33.864 63.3796 33.7031 63.3811L33.7002 63.3782Z" fill="#00151A"/>
<path d="M19.8403 41.5501C20.1746 41.5501 20.4456 41.2805 20.4456 40.9479C20.4456 40.6153 20.1746 40.3457 19.8403 40.3457C19.5059 40.3457 19.2349 40.6153 19.2349 40.9479C19.2349 41.2805 19.5059 41.5501 19.8403 41.5501Z" fill="#00151A"/>
<path d="M18.5506 51.3606C18.8849 51.3606 19.1559 51.091 19.1559 50.7584C19.1559 50.4259 18.8849 50.1562 18.5506 50.1562C18.2163 50.1562 17.9453 50.4259 17.9453 50.7584C17.9453 51.091 18.2163 51.3606 18.5506 51.3606Z" fill="#00151A"/>
<path d="M17.6675 61.1712C18.0018 61.1712 18.2728 60.9016 18.2728 60.569C18.2728 60.2364 18.0018 59.9668 17.6675 59.9668C17.3332 59.9668 17.0621 60.2364 17.0621 60.569C17.0621 60.9016 17.3332 61.1712 17.6675 61.1712Z" fill="#00151A"/>
</g>
<defs>
<clipPath id="clip0_972_60655">
<rect width="46" height="64" fill="white"/>
</clipPath>
</defs>
</svg>
