<svg width="200" height="215" viewBox="0 0 200 215" fill="none" xmlns="http://www.w3.org/2000/svg">
<g clip-path="url(#clip0_7555_3486)">
<path d="M117.446 30.8505C120.855 31.2726 122.758 35.328 124.36 38.11C129.318 46.7086 133.834 55.9681 138.609 64.7121C150.979 87.3764 115.574 105.916 96.8996 106.719C94.4602 106.823 89.8685 105.982 88.1176 106.328C82.7439 107.387 79.0346 123.529 70.8996 121.494C64.9654 120.01 56.4913 111.778 52.6539 107.003C50.2456 104.006 43.2041 93.4179 43.2699 89.9335C43.3252 87.0304 49.1834 83.2968 51.1349 80.5218C56.5813 72.7709 54.3045 64.1134 59.1522 55.8332C62.0761 50.8401 73.6297 38.8747 78.9654 36.8989C82.609 35.5494 88.6851 37.4353 92.9861 37.3072C96.647 37.1965 100.394 36.2311 103.855 35.1065C107.388 33.9577 113.903 30.4076 117.45 30.847L117.446 30.8505Z" fill="#DEA076"/>
<path d="M192.74 184.916C192.74 184.916 172.121 201.407 134.931 209.771C95.5675 218.622 79.5709 212.587 79.5709 212.587C91.1488 200.871 102.059 182.259 117.626 177.342C133.952 172.189 158.557 170.684 159.91 170.618C166.574 170.293 176.913 177.964 184.017 178.947C186.055 179.234 191.159 183.567 192.744 184.916H192.74Z" fill="#47BAD1"/>
<path d="M141.183 199.521C151.081 199.521 159.104 191.498 159.104 181.601C159.104 171.704 151.081 163.681 141.183 163.681C131.286 163.681 123.263 171.704 123.263 181.601C123.263 191.498 131.286 199.521 141.183 199.521Z" fill="#008099"/>
<path d="M192.74 184.916C170.073 176.086 151.353 176.408 132.419 182.141C107.685 189.629 91.1488 200.875 79.5709 212.587C79.2283 211.992 78.8408 211.515 78.9896 210.76C79.3598 208.871 82.4671 201.902 83.5501 199.013C92.7751 174.48 84.5086 159.127 86.9308 136.006C88.2076 123.792 93.1245 113.612 100.09 107.214C96.7993 99.7501 77.1488 35.5529 72.9792 21.5148C67.2906 2.35911 103.36 -7.60283 107.156 10.2657C114.958 46.9785 121.391 93.1965 122.052 100.273C128.772 101.39 135.83 105.245 142.654 112.491C160.564 131.508 164.121 160.698 185.716 175.418C189.125 177.74 193.872 180.425 192.744 184.92L192.74 184.916Z" fill="#C2E8F0"/>
<path d="M97.4256 20.5357C103.46 21.3073 104.689 27.3004 103.505 32.3108C102.142 38.0755 98.654 41.9232 93.7474 44.9301C91.9654 46.0236 88.8581 46.3731 88.0899 48.5184C87.3425 50.6014 89.0311 59.4457 88.9792 62.6153C88.8131 72.5634 85.7751 80.7225 78.6194 87.7883C72.4671 93.8644 65.0104 94.5807 58.1003 89.0132C56.3841 87.6326 52.7474 82.4942 52.872 80.3488C52.9446 79.072 55.0484 75.6083 55.4636 73.5045C56.4083 68.7018 55.0692 62.6879 56.5225 57.2969C58.3149 50.6568 66.6713 36.1481 71.8616 31.5772C75.6886 28.2104 84.0346 25.8229 88.9481 23.7987C91.3287 22.8194 94.8927 20.2104 97.4256 20.5357Z" fill="#DEA076"/>
<path d="M136.851 44.8469C142.879 47.9473 144.813 54.2483 142.069 60.3867C141.433 61.8089 138.581 64.8331 138.54 65.1238C138.46 65.7016 140.474 68.9992 140.779 70.366C143.976 84.6566 118.374 94.4386 110.017 81.02C107.346 76.7328 108.097 72.7224 111.135 68.8642C112.232 67.4732 110.848 66.9265 111.467 65.3833C104.512 62.9334 102.886 55.2518 108.173 50.4871C102.118 48.1307 100.17 39.6843 102.955 34.2103C107.419 25.4352 136.63 22.8089 139.249 34.8885C140.128 38.9369 139.318 41.5978 136.848 44.8435L136.851 44.8469Z" fill="#DEA076"/>
<path d="M73.9758 129.57C73.9343 129.615 73.8893 129.663 73.8408 129.708C67.2111 136.656 61.2561 141.279 58.1453 143.563C57.9308 143.719 57.7301 143.864 57.5467 143.999C53.5779 146.878 49.9758 149.117 47.1903 150.722C45.0138 151.978 43.3287 152.854 42.3529 153.348C36.0138 156.56 38.1765 156.037 28.2699 159.549C27.9516 159.66 27.6401 159.767 27.3391 159.867C24.346 160.861 21.9931 161.255 19.1384 160.591C16.8201 160.051 15.263 159.207 13.9619 157.795C2.8962 145.788 -0.809685 118.909 0.491353 111.802C0.629762 111.04 1.30104 105.476 2.5571 103.971C3.29758 103.089 4.22492 102.698 7.06575 101.584C9.01384 100.822 11.8616 99.7221 16.1661 97.8813C16.4221 97.774 16.6782 97.6702 16.9308 97.563C21.1523 95.7775 24.3529 93.8606 26.5398 92.4038C26.5675 92.3865 26.5952 92.3657 26.6228 92.3484C29.5087 90.4246 32.3841 88.6426 35.4256 85.4142C35.5294 85.3035 35.6298 85.1927 35.7301 85.0855C38.218 82.39 39.1523 81.0924 41.346 78.8813C42.7786 77.4384 46.1799 78.5076 48.7336 79.4384C59.6782 83.4349 67.5363 91.2031 72.4083 96.5803C77.1142 101.771 82.0346 110.521 82.3841 118.93C82.5017 121.712 79.0346 124.252 73.9723 129.566L73.9758 129.57Z" fill="#86B200"/>
<path d="M58.0796 187.331C57.8858 187.272 57.6989 187.172 57.5363 187.03C56.955 186.511 56.9066 185.618 57.4256 185.04C59.3702 182.867 60.865 180.379 61.8616 177.646C62.7751 175.148 63.2422 172.532 63.2491 169.867C63.2491 169.089 63.8858 168.459 64.6643 168.462C65.4429 168.462 66.0726 169.099 66.0692 169.878C66.0588 172.871 65.5363 175.812 64.5086 178.618C63.3875 181.687 61.7093 184.483 59.5225 186.926C59.1488 187.345 58.5813 187.487 58.0726 187.338L58.0796 187.331Z" fill="#C2E8F0"/>
<path d="M68.1419 197.4C67.9723 197.352 67.8097 197.269 67.6643 197.151C67.0519 196.667 66.9515 195.781 67.4325 195.172C70.5121 191.282 72.7924 186.909 74.2076 182.172C75.5017 177.84 76.0277 173.352 75.7682 168.829C75.7232 168.051 76.3183 167.386 77.0969 167.341C77.8754 167.296 78.5398 167.891 78.5848 168.67C78.8616 173.521 78.2976 178.338 76.91 182.981C75.391 188.061 72.9481 192.753 69.6436 196.923C69.2768 197.386 68.6747 197.559 68.1419 197.4Z" fill="#C2E8F0"/>
<path d="M199.111 150.712C199.28 150.601 199.429 150.449 199.543 150.266C199.948 149.601 199.737 148.733 199.073 148.328C196.581 146.813 194.433 144.864 192.682 142.539C191.086 140.415 189.879 138.044 189.097 135.494C188.869 134.75 188.08 134.332 187.336 134.56C186.588 134.788 186.173 135.577 186.401 136.321C187.28 139.186 188.633 141.847 190.426 144.235C192.391 146.847 194.803 149.034 197.602 150.74C198.083 151.03 198.668 151.003 199.107 150.716L199.111 150.712Z" fill="#C2E8F0"/>
<path d="M192.398 163.265C192.547 163.168 192.678 163.044 192.785 162.888C193.228 162.248 193.069 161.369 192.433 160.926C188.36 158.096 184.91 154.57 182.183 150.449C179.692 146.681 177.886 142.535 176.824 138.13C176.64 137.373 175.879 136.909 175.121 137.092C174.363 137.276 173.9 138.037 174.083 138.795C175.225 143.521 177.159 147.964 179.834 152.006C182.758 156.428 186.457 160.21 190.827 163.245C191.311 163.58 191.938 163.57 192.405 163.265H192.398Z" fill="#C2E8F0"/>
<path d="M139.304 64.2169C139.201 64.812 138.626 65.2065 138.035 65.1027C134.059 64.3968 130.031 64.0508 126.073 64.0889C119.727 64.1442 116.803 64.2515 114.035 66.2515C112.782 67.1546 109.83 69.6909 109.429 73.7186C109.173 76.3449 110.024 78.9262 111.979 81.3761C114.668 84.7498 118.412 85.5491 120.214 85.9297C122.142 86.3449 124.128 86.4072 126.118 86.1269C126.713 86.0404 127.273 86.4556 127.36 87.0508C127.443 87.6529 127.024 88.2065 126.429 88.293C125.516 88.4176 124.602 88.4833 123.692 88.4833C122.367 88.4833 121.052 88.3449 119.754 88.0716C117.865 87.6667 113.443 86.7186 110.266 82.7325C107.945 79.819 106.931 76.7117 107.249 73.4902C107.543 70.5075 108.958 68.2169 110.36 66.6425C108.488 65.1546 104.716 61.639 104.502 57.4453C104.377 54.9712 105.159 52.6114 106.841 50.4107C105.751 49.8017 104.789 49.037 103.962 48.1269C101.152 45.0231 100.969 41.3449 100.903 39.9539C100.734 36.5421 101.779 33.8778 102.682 32.2307C102.976 31.7013 103.64 31.5075 104.17 31.7982C104.699 32.0923 104.893 32.7567 104.602 33.2861C103.83 34.6806 102.945 36.947 103.086 39.8155C103.145 41.0197 103.301 44.1338 105.588 46.6529C106.356 47.4972 107.273 48.1961 108.325 48.7152C111.436 45.6598 115.398 44.511 120.37 43.729C123.747 43.1996 128.588 43.511 133.311 43.9262C133.913 43.9816 134.363 44.511 134.308 45.1131C134.253 45.7152 133.727 46.165 133.121 46.1096C128.533 45.7048 123.851 45.3968 120.709 45.8916C115.021 46.7844 112.021 48.037 109.63 50.511C108.858 51.3103 106.509 53.7394 106.695 57.3276C106.872 60.7532 110.439 63.9124 111.945 65.0958C112.253 64.8397 112.526 64.6321 112.754 64.466C116.208 61.9712 119.913 61.9435 126.059 61.8882C130.166 61.8501 134.315 62.2065 138.419 62.9332C139.014 63.0439 139.408 63.6114 139.304 64.203V64.2169Z" fill="#00151A"/>
</g>
<defs>
<clipPath id="clip0_7555_3486">
<rect width="200" height="213.841" fill="white" transform="translate(0 0.84082)"/>
</clipPath>
</defs>
</svg>
