<?xml version="1.0" encoding="iso-8859-1"?>
<svg width="247" height="181" viewBox="0 0 247 181" fill="none" xmlns="http://www.w3.org/2000/svg">
  <path d="M234.5 39H174L174.007 38.9875C168.99 38.7311 165 34.5815 165 29.5C165 24.2533 169.253 20 174.5 20C176.693 20 178.712 20.743 180.32 21.9911C180.111 21.0274 180 20.0266 180 19C180 11.268 186.268 5 194 5C198.988 5 203.367 7.60889 205.847 11.5366C208.404 8.17224 212.448 6 217 6C224.267 6 230.24 11.5365 230.933 18.6214C232.046 18.2192 233.248 18 234.5 18C240.299 18 245 22.701 245 28.5C245 34.299 240.299 39 234.5 39Z" fill="#D4F3F6"/>
  <path d="M69.5 72H9L9.00732 71.9875C3.9895 71.7311 0 67.5815 0 62.5C0 57.2533 4.25317 53 9.5 53C11.6931 53 13.7124 53.743 15.3203 54.9911C15.1106 54.0274 15 53.0266 15 52C15 44.268 21.2681 38 29 38C33.9883 38 38.3672 40.6089 40.8469 44.5366C43.4038 41.1722 47.4482 39 52 39C59.2668 39 65.2405 44.5365 65.9329 51.6214C67.0464 51.2192 68.2478 51 69.5 51C75.2991 51 80 55.701 80 61.5C80 67.299 75.2991 72 69.5 72Z" fill="#D4F3F6"/>
  <path fill-rule="evenodd" clip-rule="evenodd" d="M163 80C185.091 80 203 62.0914 203 40C203 17.9086 185.091 0 163 0C149.443 0 137.461 6.74438 130.227 17.0609C129.49 17.0205 128.747 17 128 17C105.909 17 88 34.9086 88 57C88 79.0914 105.909 97 128 97C141.557 97 153.539 90.2556 160.773 79.9391C161.51 79.9795 162.253 80 163 80Z" fill="#B3D8DE"/>
  <path d="M132.783 73.0712C130.994 69.0803 130 64.6563 130 60C130 42.3269 144.327 28 162 28C177.43 28 190.309 38.9204 193.33 53.4539C199.03 48.2053 206.641 45 215 45C232.673 45 247 59.3269 247 77C247 92.9818 235.284 106.227 219.972 108.616C219.991 109.075 220 109.536 220 110C220 128.778 204.778 144 186 144C175.103 144 165.404 138.874 159.181 130.901C153.018 137.136 144.46 141 135 141C116.222 141 101 125.778 101 107C101 88.9673 115.038 74.2134 132.783 73.0712Z" fill="#99CBD3"/>
  <path fill-rule="evenodd" clip-rule="evenodd" d="M157.5 107.5L108 32.5L109 31L157.5 96V107.5ZM157.271 142.262L117.5 101L118.5 99L157.346 131.533L158 38L164 35V78.4423L188.5 53L190.5 55L164 88.125V115.817L217 74L218.5 60.5H220.5L221.5 70L228.5 65L231 68L223.5 74L239.5 71L240.5 74L214.5 82L164 125.702V181H157L157.271 142.262Z" fill="#007C92"/>
  <path d="M185.751 83.939L184.755 83.7188C184.427 83.6461 184.084 83.7273 183.824 83.9394L176.11 90.2281C175.828 90.4581 175.678 90.8136 175.71 91.1776L175.789 92.0615L160.94 104.167C160.846 104.244 160.832 104.383 160.91 104.478L166.367 111.172C166.637 111.503 167.124 111.554 167.454 111.285L169.148 109.904C168.98 109.794 168.825 109.656 168.691 109.491C167.995 108.638 168.119 107.386 168.967 106.694C169.815 106.003 171.067 106.134 171.763 106.987C171.897 107.151 172 107.331 172.074 107.518L188.861 93.8328C188.692 93.7227 188.537 93.585 188.403 93.4204C187.707 92.5672 187.831 91.315 188.68 90.6233C189.528 89.9317 190.779 90.0626 191.475 90.9158C191.609 91.0804 191.713 91.2599 191.787 91.4473L193.566 89.9963C193.896 89.7274 193.944 89.2404 193.674 88.9086L188.217 82.2148C188.139 82.12 188 82.1055 187.906 82.1823L185.751 83.939Z" fill="#A2AD00"/>
  <path d="M163.664 102.803C163.57 102.88 163.556 103.019 163.633 103.114L166.152 106.204C166.229 106.298 166.368 106.313 166.462 106.236L171.327 102.271C171.421 102.194 171.435 102.055 171.357 101.96L168.839 98.8704C168.761 98.7756 168.622 98.761 168.528 98.8379L163.664 102.803Z" fill="#EAF7F8"/>
  <path d="M169.351 98.453C169.273 98.3582 169.287 98.219 169.381 98.1422L174.245 94.1766C174.34 94.0997 174.479 94.1143 174.556 94.2091L177.075 97.2985C177.152 97.3933 177.138 97.5324 177.044 97.6093L172.18 101.575C172.086 101.652 171.947 101.637 171.869 101.542L169.351 98.453Z" fill="#EAF7F8"/>
  <path d="M175.099 93.4809C175.004 93.5577 174.991 93.6968 175.068 93.7916L177.587 96.8811C177.664 96.9759 177.803 96.9904 177.897 96.9136L182.761 92.948C182.856 92.8711 182.869 92.732 182.792 92.6372L180.273 89.5478C180.196 89.453 180.057 89.4384 179.963 89.5153L175.099 93.4809Z" fill="#EAF7F8"/>
  <path d="M180.785 89.1303C180.708 89.0355 180.722 88.8964 180.816 88.8195L185.68 84.854C185.774 84.7771 185.914 84.7917 185.991 84.8864L188.51 87.9759C188.587 88.0707 188.573 88.2098 188.479 88.2867L183.615 92.2523C183.52 92.3291 183.381 92.3146 183.304 92.2198L180.785 89.1303Z" fill="#EAF7F8"/>
  <path d="M186.759 84.2603C186.682 84.1655 186.695 84.0264 186.79 83.9495L188.496 82.5581L192.344 87.2781L190.638 88.6695C190.543 88.7463 190.404 88.7318 190.327 88.637L186.759 84.2603Z" fill="#EAF7F8"/>
  <ellipse cx="170.227" cy="108.239" rx="1.65152" ry="1.66086" transform="rotate(-39.1897 170.227 108.239)" fill="#37424A"/>
  <ellipse cx="189.939" cy="92.1681" rx="1.65152" ry="1.66086" transform="rotate(-39.1897 189.939 92.1681)" fill="#37424A"/>
  <path d="M173 43C171.895 43 171 43.8954 171 45V57C171 58.1046 171.895 59 173 59L173 70H175V59C176.105 59 177 58.1046 177 57V45C177 43.8954 176.105 43 175 43H173Z" fill="#37424A"/>
  <circle cx="174" cy="56" r="2" fill="#878E92"/>
  <circle cx="174" cy="51" r="2" fill="#AFB3B7"/>
  <circle cx="174" cy="46" r="2" fill="#C3C6C9"/>
  <path fill-rule="evenodd" clip-rule="evenodd" d="M198 53C196.166 54.8333 194.5 59.9999 195.499 64C196.473 67.8955 202.307 71.0615 204.5 71.5C204.971 71.5942 205.477 71.6707 206 71.7093C206.8 73.4768 208.999 75.3062 209.999 76L211 74.5C209.845 74.1138 207.982 73.0072 207.768 71.6707C209.467 71.4466 211.096 70.6083 212 68.5C213.5 65 211 63 210 62.5C209 62 205.499 61.5 203.999 65C202.729 67.9642 204.166 69.8333 204.5 70C203 69.6667 199.5 67 198 64.5C197.16 63.1006 196 60.5 200 53H198ZM206.5 70C206 69.5 205.1 68.1 205.5 66.5C206 64.5 207 64 208 64C210.178 64 211.5 66 210 68C208.642 69.8102 207 70 206.5 70Z" fill="#A51140"/>
  <path fill-rule="evenodd" clip-rule="evenodd" d="M200.227 82.0054C199.263 82.2638 198.416 82.7683 197.837 83.4261C197.265 84.0776 196.884 84.9816 197.14 85.9385C197.396 86.8954 198.179 87.4876 199 87.7655C199.83 88.0462 200.816 88.0594 201.78 87.801C202.744 87.5426 203.592 87.0381 204.17 86.3803C204.453 86.0579 204.69 85.6737 204.825 85.2518L215.417 82.3777C216.091 82.195 216.705 81.8392 217.198 81.3458L217.898 80.6459L204.633 83.299C204.272 82.6701 203.651 82.2588 203.007 82.0409C202.178 81.7602 201.192 81.747 200.227 82.0054ZM199.072 85.4208C199.042 85.3108 199.051 85.075 199.34 84.7463C199.623 84.4239 200.109 84.1077 200.745 83.9373C201.381 83.7668 201.96 83.7979 202.366 83.9354C202.781 84.0756 202.906 84.2755 202.936 84.3856C202.965 84.4956 202.956 84.7313 202.668 85.0601C202.384 85.3824 201.899 85.6987 201.262 85.8691C200.626 86.0396 200.048 86.0085 199.641 85.871C199.227 85.7308 199.101 85.5309 199.072 85.4208Z" fill="black"/>
  <path d="M209.495 76.7822C209.724 75.9403 210.168 75.1728 210.785 74.556L211.297 74.0444L209.753 81.7652L208.051 82.1056L209.495 76.7822Z" fill="black"/>
  <path fill-rule="evenodd" clip-rule="evenodd" d="M208.644 87.3098C209.273 87.671 209.684 88.2912 209.902 88.9355C210.182 89.7651 210.196 90.7512 209.937 91.7154C209.679 92.6797 209.174 93.5271 208.517 94.1052C207.865 94.6778 206.961 95.0591 206.004 94.8027C205.047 94.5463 204.455 93.7641 204.177 92.9425C203.896 92.1129 203.883 91.1268 204.142 90.1625C204.4 89.1982 204.905 88.3509 205.562 87.7728C205.885 87.4894 206.269 87.2529 206.691 87.1174L207.234 85.1165L209.188 84.5861L208.644 87.3098ZM206.522 92.8708C206.632 92.9003 206.868 92.8918 207.196 92.6029C207.519 92.3196 207.835 91.8339 208.005 91.1978C208.176 90.5617 208.145 89.983 208.007 89.5764C207.867 89.1619 207.667 89.0366 207.557 89.0071C207.447 88.9777 207.211 88.9862 206.883 89.2751C206.56 89.5584 206.244 90.0441 206.074 90.6802C205.903 91.3163 205.934 91.895 206.072 92.3016C206.212 92.7161 206.412 92.8414 206.522 92.8708Z" fill="black"/>
  <path d="M217.5 85.5C215.5 83.9 216 81.1667 216.5 80C213 85 217.41 88.9016 221 89.5C224 90 225 89 230 89.5C230.995 89.5995 234.5 91.5 234.5 94.5C234.5 96.9 236.167 98.1667 237 98.5L237.5 96C235.596 96 236 91.5 234 89.5C231.736 87.2362 229 87 226 87.5C223 88 220 87.5 217.5 85.5Z" fill="#A51140"/>
  <ellipse cx="113.884" cy="33.071" rx="2.08528" ry="2.1579" transform="rotate(53.5068 113.884 33.071)" fill="#37424A"/>
  <ellipse cx="145.659" cy="76.0218" rx="2.08527" ry="2.1579" transform="rotate(53.5068 145.659 76.0218)" fill="#37424A"/>
  <path d="M110.79 25.6105C114.913 22.5603 120.729 23.4301 123.779 27.5532L153.787 68.1171C156.837 72.2402 155.967 78.0553 151.844 81.1055C150.813 81.8681 149.36 81.6506 148.597 80.6199L110.305 28.8576C109.542 27.8269 109.759 26.3731 110.79 25.6105Z" fill="#37424A"/>
  <path d="M155.655 73.4568L157.002 75.2777C157.184 75.5234 157.134 75.8711 156.895 76.0712L156.874 76.0432C156.827 75.9793 156.735 75.9672 156.669 76.0161L155.413 76.9454C155.346 76.9943 155.331 77.0857 155.378 77.1495L155.464 77.2651C155.511 77.329 155.603 77.3411 155.669 77.2923L156.925 76.3629C156.981 76.3215 157.001 76.2497 156.977 76.1898C157.285 75.9412 157.351 75.5 157.121 75.1892L155.774 73.3683L155.655 73.4568Z" fill="#37424A"/>
  <path d="M150.533 81.6057C149.831 81.6417 149.134 81.3461 148.694 80.7521L110.206 28.7255C109.498 27.7677 109.727 26.3969 110.718 25.6636L111.077 25.3981C111.402 25.1581 111.736 24.9425 112.079 24.7512L152.04 78.7688C151.887 79.4619 151.391 80.8623 150.533 81.6057Z" fill="#A2AD00"/>
  <rect x="120.174" y="28.0603" width="4.17055" height="3.42287" transform="rotate(53.5068 120.174 28.0603)" fill="#EAF7F8"/>
  <rect x="131.977" y="44.0151" width="4.17056" height="3.42287" transform="rotate(53.5068 131.977 44.0151)" fill="#EAF7F8"/>
  <rect x="143.779" y="59.9698" width="4.17055" height="3.42287" transform="rotate(53.5068 143.779 59.9698)" fill="#EAF7F8"/>
  <rect x="123.167" y="32.1069" width="4.17055" height="3.42287" transform="rotate(53.5068 123.167 32.1069)" fill="#EAF7F8"/>
  <rect x="134.971" y="48.0616" width="4.17056" height="3.42287" transform="rotate(53.5068 134.971 48.0616)" fill="#EAF7F8"/>
  <rect x="146.773" y="64.0165" width="4.17055" height="3.42287" transform="rotate(53.5068 146.773 64.0165)" fill="#EAF7F8"/>
  <rect x="126.161" y="36.1533" width="4.17055" height="3.42287" transform="rotate(53.5068 126.161 36.1533)" fill="#EAF7F8"/>
  <rect x="137.964" y="52.1082" width="4.17055" height="3.42287" transform="rotate(53.5068 137.964 52.1082)" fill="#EAF7F8"/>
  <rect x="149.767" y="68.063" width="4.17054" height="3.42287" transform="rotate(53.5068 149.767 68.063)" fill="#EAF7F8"/>
  <path d="M152.6 72.2284C152.689 72.1628 152.814 72.1815 152.88 72.2703L154.116 73.9417C154.591 74.5838 154.639 75.4471 154.237 76.1374L153.177 77.958C153.104 78.0822 152.929 78.0918 152.843 77.9763L150.128 74.306C150.062 74.2172 150.081 74.0919 150.17 74.0262L152.6 72.2284Z" fill="#EAF7F8"/>
  <rect x="143.529" y="54.2517" width="3.88293" height="11.608" transform="rotate(53.5068 143.529 54.2517)" fill="#AFB3B7"/>
  <rect x="131.727" y="38.297" width="3.88293" height="11.608" transform="rotate(53.5068 131.727 38.297)" fill="#AFB3B7"/>
  <ellipse cx="152.362" cy="79.5153" rx="0.179764" ry="0.186027" transform="rotate(53.5068 152.362 79.5153)" fill="#E4D700"/>
  <path d="M84.2425 118.032L89.6597 119.903C89.6597 119.903 84.6918 130.076 84.6387 129.996C84.5857 129.918 79.8027 127.098 79.8027 127.098L84.2425 118.032Z" fill="#5F686E"/>
  <path d="M83.9783 119.639L88.3387 121.457L84.7976 128.652L80.6748 126.596L83.9783 119.639Z" fill="#C3C6C9"/>
  <path fill-rule="evenodd" clip-rule="evenodd" d="M48.7304 175.225L48.2158 177.79L51.0447 178.644L53.1019 180.097L60.2148 180.182C60.2148 180.182 60.2159 179.414 59.1868 179.072C58.1587 178.73 54.8158 178.217 54.3872 177.79C53.9586 177.362 53.0493 175.791 53.0493 175.791L48.7213 175.225" fill="#584528"/>
  <path d="M63.4111 177.181L67.354 176.434L70.3108 178.292C70.3108 178.292 73.1711 178.452 74.5206 178.773C75.8711 179.093 75.7422 180.151 75.7422 180.151L68.7966 180.098L66.0991 179.621L62.9502 179.542C63.0371 178.24 63.3424 177.365 63.4015 177.206C63.4081 177.19 63.4111 177.181 63.4111 177.181Z" fill="#584528"/>
  <ellipse cx="30.6904" cy="163.358" rx="15.163" ry="15.122" stroke="#C3C6C9" stroke-width="2"/>
  <ellipse cx="88.3095" cy="163.358" rx="15.163" ry="15.122" stroke="#C3C6C9" stroke-width="2"/>
  <path d="M46.8804 163.358C46.8804 172.269 39.6357 179.5 30.6902 179.5C21.7448 179.5 14.5 172.269 14.5 163.358C14.5 154.446 21.7448 147.215 30.6902 147.215C39.6357 147.215 46.8804 154.446 46.8804 163.358Z" stroke="#37424A" stroke-width="3"/>
  <path d="M104.5 163.358C104.5 172.269 97.2548 179.5 88.3093 179.5C79.3639 179.5 72.1191 172.269 72.1191 163.358C72.1191 154.446 79.3639 147.215 88.3093 147.215C97.2548 147.215 104.5 154.446 104.5 163.358Z" stroke="#37424A" stroke-width="3"/>
  <path fill-rule="evenodd" clip-rule="evenodd" d="M54.4456 160.333C54.3665 160.333 54.2879 160.335 54.2097 160.338L30.6794 160.837L30.7009 161.845L51.1506 161.411C49.777 162.421 48.8858 164.046 48.8858 165.878C48.8858 167.271 49.4011 168.545 50.2521 169.519L30.5534 164.883L30.3213 165.865L52.5758 171.101C53.1601 171.309 53.7896 171.423 54.4456 171.423C57.5161 171.423 60.0053 168.94 60.0053 165.878C60.0053 162.816 57.5161 160.333 54.4456 160.333ZM53.041 170.194C53.4833 170.337 53.9554 170.415 54.4456 170.415C56.9579 170.415 58.9945 168.383 58.9945 165.878C58.9945 163.374 56.9609 161.344 54.4512 161.341L54.2428 161.346C51.8246 161.452 49.8966 163.44 49.8966 165.878C49.8966 167.83 51.1331 169.494 52.8677 170.134L53.0453 170.176L53.041 170.194Z" fill="#5F686E"/>
  <ellipse cx="30.6903" cy="163.358" rx="2.52717" ry="2.52034" fill="#C3C6C9"/>
  <path fill-rule="evenodd" clip-rule="evenodd" d="M80.4656 126.714C80.5204 126.987 80.3429 127.252 80.0692 127.307L76.7982 127.959L77.9332 132.487C78.0009 132.757 77.8362 133.031 77.5654 133.099C77.2946 133.166 77.0202 133.002 76.9525 132.732L75.6889 127.691C75.6554 127.557 75.6783 127.416 75.7522 127.299C75.8261 127.183 75.9446 127.102 76.0801 127.075L79.8709 126.318C80.1446 126.264 80.4109 126.441 80.4656 126.714Z" fill="#C3C6C9"/>
  <path fill-rule="evenodd" clip-rule="evenodd" d="M45.9952 129.093C46.2675 129.032 46.538 129.203 46.5992 129.474L48.8737 139.556C48.935 139.827 48.7639 140.097 48.4915 140.158C48.2192 140.219 47.9488 140.049 47.8875 139.777L45.613 129.696C45.5517 129.424 45.7228 129.154 45.9952 129.093Z" fill="#C3C6C9"/>
  <path d="M51.1436 128.202C51.8123 128.411 52.0225 129.438 51.2447 129.685C50.1398 130.037 42.5911 130.829 41.6096 130.621C40.2297 130.329 38.9111 128.663 38.7296 127.64C38.5482 126.617 42.5451 127.703 44.8059 128.049C46.3182 128.28 48.3839 128.247 49.7435 128.213C50.5103 128.193 51.0526 128.174 51.1436 128.202Z" fill="#37424A"/>
  <path d="M48.3806 139.666L30.6904 163.358L54.4459 165.878M48.3806 139.666L78.3044 135.886M48.3806 139.666L54.4459 165.878M77.4431 132.609L78.3044 135.886M84.2665 158.569L54.4459 165.878M84.2665 158.569L88.31 163.358M84.2665 158.569L79.7618 141.431M54.4459 165.878L79.7618 141.431M78.3044 135.886L79.7618 141.431" stroke="#A2AD00" stroke-width="3" stroke-linecap="round" stroke-linejoin="round"/>
  <path opacity="0.5" fill-rule="evenodd" clip-rule="evenodd" d="M67.5257 177.433L62.9182 177.18L58.8878 148.64C56.8431 141.287 54.9899 134.62 53.1289 127.925C57.6845 129.193 61.5437 130.264 65.9851 131.499L67.5257 177.433Z" fill="#37424A"/>
  <path opacity="0.5" d="M59.469 137.427L57.6823 133.367L55.5862 128.609L53.052 127.903L56.4672 142.9L55.8334 143.424L56.491 144.181L55.4715 144.714L56.773 145.587L48.499 175.718L53.0559 176.421H53.059L53.1878 176.024L53.051 175.791L63.0884 145.649L60.0826 138.82L59.4695 137.428L59.469 137.427Z" fill="#37424A"/>
  <path d="M77.7366 119.824L80.8971 123.691L84.6146 126.202L85.1079 129.461L84.9365 130.946L82.0758 127.836L76.0312 122.484L77.7366 119.824Z" fill="#EEDDD9"/>
  <path d="M87.5754 132.427C86.4321 132.43 85.9919 131.766 85.9919 131.766L85.0573 132.326C84.8169 133.6 82.0801 134.494 81.6679 132.956C81.494 132.947 80.5062 132.813 80.4255 133.035C79.7915 134.713 76.1211 133.655 75.0542 133.434C74.9461 133.412 74.846 133.502 74.8597 133.61C75.2073 136.38 77.1834 138.806 80.1167 139.066C82.2225 139.26 84.7563 138.874 86.3123 137.343C88.2279 135.322 87.5754 132.427 87.5754 132.427Z" fill="#878E92"/>
  <path d="M83.0689 135.918C83.0689 135.918 85.1523 135.181 86.3421 135.365C86.3421 135.365 86.9016 134.897 86.7853 133.074C86.7853 133.074 85.216 134.814 81.6638 134.797C81.6638 134.797 82.8202 135.277 83.0689 135.918Z" fill="#37424A"/>
  <path d="M82.473 136.082C82.473 136.082 82.1693 135.726 81.3853 135.371C80.5625 134.998 79.2094 134.626 77.1174 134.67C77.1174 134.67 80.288 136.137 80.9345 137.308C80.9345 137.308 81.6021 136.373 82.473 136.082Z" fill="#37424A"/>
  <path d="M80.5735 138.171C77.502 138.365 75.8906 134.998 75.8906 134.998C78.5052 135.8 80.5735 138.171 80.5735 138.171Z" fill="#37424A"/>
  <path d="M86.1154 136.162C84.9219 138.091 81.3204 138.125 81.3204 138.125C82.5432 136.97 84.3767 136.005 86.1154 136.162Z" fill="#37424A"/>
  <path fill-rule="evenodd" clip-rule="evenodd" d="M79.5882 126.402C79.5882 126.402 79.5589 125.992 80.0507 125.85C80.7567 126.15 81.3971 126.714 81.8879 127.291L82.9191 128.643L85.7657 131.902L85.2557 132.208L82.3757 128.859L82.376 128.859L81.3368 132.944L81.2312 132.943C81.0214 132.941 80.7834 132.944 80.6196 132.966L81.7598 128.723L81.3544 127.734L81.3583 127.731C80.9217 127.268 79.9762 126.325 79.5882 126.402Z" fill="#37424A"/>
  <path d="M69.4201 94.7548L70.7388 92.8756L75.3125 94.2043L76.9314 89.7877L78.2541 89.1465C78.3997 89.0759 78.4411 88.8874 78.3375 88.7634L76.6736 86.7552L77.2337 84.9869L75.9964 81.8607L71.7654 80.0002L67.6395 81.58L66.0539 88.28L64.623 91.5055L69.4201 94.7548Z" fill="#EEDDD9"/>
  <path d="M77.493 84.7192C77.493 84.7192 77.8478 85.8453 77.5956 85.801C77.3444 85.7571 75.4328 85.5459 75.4328 85.5459L75.2549 84.9007L77.493 84.7192Z" fill="#5F686E"/>
  <path d="M76.783 90.4117L72.3781 89.3607L71.1777 89.7816L71.3784 93.1422L73.4532 94.8566L75.4477 94.5894L76.783 90.4117Z" fill="#5F686E"/>
  <path d="M71.7652 80H71.7657L71.7667 80.0001L75.9967 81.8601L75.9957 81.8605L73.8264 83.904L72.2712 89.9503H72.2691L71.1723 89.7824C71.1723 89.7824 70.9783 87.2409 70.771 86.877C70.5982 86.5735 70.2525 86.4873 69.9719 86.4873C69.8714 86.4873 69.7789 86.4984 69.7061 86.5146C69.2153 86.6239 68.6315 87.061 69.2012 88.4955L65.8506 88.2406C65.8506 88.2406 67.1612 81.4059 67.236 81.3268C67.3098 81.2481 71.5768 80.0527 71.7597 80.0015L71.7597 80.0015L71.7647 80.0001L71.7652 80Z" fill="#37424A"/>
  <path d="M64.2886 91.5182L60.7182 96.5659C60.5151 96.8542 60.3548 97.1698 60.2431 97.504L50.3457 127.151L66.6879 131.694L67.0311 113.658L76.599 123.723L78.881 119.78L70.3538 109.309L69.3677 94.9806L64.2886 91.5182Z" fill="#71D6E0"/>
  <path d="M62.126 108.54L62.2119 109.395L63.24 113.327L64.1619 111.093L62.126 108.54Z" fill="#448086"/>
  <path d="M66.131 93.2067L66.4312 93.6765L51.3066 114.609L61.4179 118.274L64.1619 111.094L65.6186 112.675L63.3249 118.989L64.1084 119.276L59.2076 133.945L40.5469 125.39L48.0935 113.733L48.2897 113.509L66.131 93.2067Z" fill="#2D565A"/>
  <path d="M70.8152 94.0213L65.498 89.2982L64.2031 91.5705L69.3242 95.2588L70.8152 94.0213Z" fill="#B5BD33"/>
  <path d="M64.4176 91.3685L40.0324 87.7785L36.7754 92.3943L63.9567 91.988L64.4176 91.3685Z" fill="#C7CE66"/>
  <path fill-rule="evenodd" clip-rule="evenodd" d="M41.5146 92.3234L41.7461 95.6427L63.9514 91.9948L63.9555 91.9882L41.5146 92.3234Z" fill="#B5BD33"/>
  <path d="M69.5171 95.002L63.9521 91.9945L64.4178 91.3687L69.5171 95.002Z" fill="#A2AD00"/>
  <path d="M41.3107 89.3444H41.3076V89.3464L41.5148 92.324L63.9567 91.9883L64.4176 91.3688L41.3107 89.3444Z" fill="#A2AD00"/>
</svg>