<?xml version="1.0" encoding="iso-8859-1"?>
<svg width="568" height="144" viewBox="0 0 568 144" fill="none" xmlns="http://www.w3.org/2000/svg">
  <rect width="216" height="12" fill="#D5D7D9"/>
  <rect y="20" width="216" height="12" fill="#D5D7D9"/>
  <rect y="52" width="192" height="12" fill="#D5D7D9"/>
  <rect y="72" width="64" height="12" fill="#D5D7D9"/>
  <rect y="132" width="64" height="12" fill="#D5D7D9"/>
  <rect y="92" width="120" height="12" fill="#D5D7D9"/>
  <rect y="112" width="120" height="12" fill="#D5D7D9"/>
  <rect x="450" y="2" width="116" height="140" stroke="#007C92" stroke-width="4"/>
  <path d="M471.541 104.357V108.98H474.898V112.145H471.541V122.762C471.541 123.488 471.682 124.016 471.963 124.344C472.256 124.66 472.771 124.818 473.51 124.818C474.002 124.818 474.5 124.76 475.004 124.643V127.947C474.031 128.217 473.094 128.352 472.191 128.352C468.91 128.352 467.27 126.541 467.27 122.92V112.145H464.141V108.98H467.27V104.357H471.541ZM481.252 123.5C482.049 123.5 482.664 123.729 483.098 124.186C483.531 124.631 483.748 125.193 483.748 125.873C483.748 126.541 483.531 127.098 483.098 127.543C482.664 127.977 482.049 128.193 481.252 128.193C480.49 128.193 479.887 127.977 479.441 127.543C478.996 127.109 478.773 126.553 478.773 125.873C478.773 125.193 478.99 124.631 479.424 124.186C479.857 123.729 480.467 123.5 481.252 123.5ZM481.252 108.576C482.049 108.576 482.664 108.805 483.098 109.262C483.531 109.707 483.748 110.27 483.748 110.949C483.748 111.617 483.531 112.174 483.098 112.619C482.664 113.053 482.049 113.27 481.252 113.27C480.49 113.27 479.887 113.053 479.441 112.619C478.996 112.186 478.773 111.629 478.773 110.949C478.773 110.27 478.99 109.707 479.424 109.262C479.857 108.805 480.467 108.576 481.252 108.576ZM494.918 119.844L493.02 121.795V128H488.748V101H493.02V116.574L494.355 114.904L499.611 108.98H504.744L497.678 116.908L505.5 128H500.561L494.918 119.844ZM507.248 118.314C507.248 116.451 507.617 114.775 508.355 113.287C509.094 111.787 510.131 110.639 511.467 109.842C512.803 109.033 514.338 108.629 516.072 108.629C518.639 108.629 520.719 109.455 522.312 111.107C523.918 112.76 524.785 114.951 524.914 117.682L524.932 118.684C524.932 120.559 524.568 122.234 523.842 123.711C523.127 125.188 522.096 126.33 520.748 127.139C519.412 127.947 517.865 128.352 516.107 128.352C513.424 128.352 511.273 127.461 509.656 125.68C508.051 123.887 507.248 121.502 507.248 118.525V118.314ZM511.52 118.684C511.52 120.641 511.924 122.176 512.732 123.289C513.541 124.391 514.666 124.941 516.107 124.941C517.549 124.941 518.668 124.379 519.465 123.254C520.273 122.129 520.678 120.482 520.678 118.314C520.678 116.393 520.262 114.869 519.43 113.744C518.609 112.619 517.49 112.057 516.072 112.057C514.678 112.057 513.57 112.613 512.75 113.727C511.93 114.828 511.52 116.48 511.52 118.684ZM539.002 112.883C538.439 112.789 537.859 112.742 537.262 112.742C535.305 112.742 533.986 113.492 533.307 114.992V128H529.035V108.98H533.113L533.219 111.107C534.25 109.455 535.68 108.629 537.508 108.629C538.117 108.629 538.621 108.711 539.02 108.875L539.002 112.883ZM548.432 104.357V108.98H551.789V112.145H548.432V122.762C548.432 123.488 548.572 124.016 548.854 124.344C549.146 124.66 549.662 124.818 550.4 124.818C550.893 124.818 551.391 124.76 551.895 124.643V127.947C550.922 128.217 549.984 128.352 549.082 128.352C545.801 128.352 544.16 126.541 544.16 122.92V112.145H541.031V108.98H544.16V104.357H548.432Z" fill="#007C92"/>
</svg>