<svg width="248" height="185" viewBox="0 0 248 185" fill="none" xmlns="http://www.w3.org/2000/svg">
<path d="M70.25 73.5912H9.75L9.75732 73.5783C4.7395 73.3164 0.75 69.075 0.75 63.8812C0.75 58.5186 5.00317 54.1713 10.25 54.1713C12.4431 54.1713 14.4624 54.9307 16.0703 56.2064C15.8606 55.2213 15.75 54.1984 15.75 53.1492C15.75 45.2463 22.0181 38.8398 29.75 38.8398C34.7383 38.8398 39.1172 41.5063 41.5969 45.5209C44.1538 42.0821 48.1982 39.8619 52.75 39.8619C60.0168 39.8619 65.9905 45.5207 66.6829 52.7622C67.7964 52.3512 68.9978 52.1271 70.25 52.1271C76.0491 52.1271 80.75 56.932 80.75 62.8591C80.75 68.7863 76.0491 73.5912 70.25 73.5912Z" fill="#D4F3F6"/>
<path fill-rule="evenodd" clip-rule="evenodd" d="M163.75 80C185.841 80 203.75 62.0914 203.75 40C203.75 17.9086 185.841 0 163.75 0C150.193 0 138.211 6.74438 130.977 17.0609C130.24 17.0205 129.497 17 128.75 17C106.659 17 88.75 34.9086 88.75 57C88.75 79.0914 106.659 97 128.75 97C142.307 97 154.289 90.2556 161.523 79.9391C162.26 79.9795 163.003 80 163.75 80Z" fill="#B3D8DE"/>
<path d="M133.533 73.0712C131.744 69.0803 130.75 64.6563 130.75 60C130.75 42.3269 145.077 28 162.75 28C178.18 28 191.059 38.9204 194.08 53.4539C199.78 48.2053 207.391 45 215.75 45C233.423 45 247.75 59.3269 247.75 77C247.75 92.9818 236.034 106.227 220.722 108.616C220.741 109.075 220.75 109.536 220.75 110C220.75 128.778 205.528 144 186.75 144C175.853 144 166.154 138.874 159.931 130.901C153.768 137.136 145.21 141 135.75 141C116.972 141 101.75 125.778 101.75 107C101.75 88.9673 115.788 74.2134 133.533 73.0712Z" fill="#99CBD3"/>
<path fill-rule="evenodd" clip-rule="evenodd" d="M158.25 107.5L108.75 32.5L109.75 31L158.25 96V107.5ZM158.021 142.262L118.25 101L119.25 99L158.096 131.533L158.75 38L164.75 35V78.4423L189.25 53L191.25 55L164.75 88.125V115.817L217.75 74L219.25 60.5H221.25L222.25 70L229.25 65L231.75 68L224.25 74L240.25 71L241.25 74L215.25 82L164.75 125.702V181H157.75L158.021 142.262Z" fill="#006678"/>
<path d="M186.501 83.939L185.505 83.7188C185.177 83.6461 184.834 83.7273 184.574 83.9394L176.86 90.2281C176.578 90.4581 176.428 90.8136 176.46 91.1776L176.539 92.0615L161.69 104.167C161.596 104.244 161.582 104.383 161.66 104.478L167.117 111.172C167.387 111.503 167.874 111.554 168.204 111.285L169.898 109.904C169.73 109.794 169.575 109.656 169.441 109.491C168.745 108.638 168.869 107.386 169.717 106.694C170.565 106.003 171.817 106.134 172.513 106.987C172.647 107.151 172.75 107.331 172.824 107.518L189.611 93.8328C189.442 93.7227 189.287 93.585 189.153 93.4204C188.457 92.5672 188.581 91.315 189.43 90.6233C190.278 89.9317 191.529 90.0626 192.225 90.9158C192.359 91.0804 192.463 91.2599 192.537 91.4473L194.316 89.9963C194.646 89.7274 194.694 89.2404 194.424 88.9086L188.967 82.2148C188.889 82.12 188.75 82.1055 188.656 82.1823L186.501 83.939Z" fill="#A2AD00"/>
<path d="M164.414 102.804C164.32 102.88 164.306 103.019 164.384 103.114L166.902 106.204C166.98 106.299 167.119 106.313 167.213 106.236L172.077 102.271C172.171 102.194 172.185 102.055 172.108 101.96L169.589 98.8704C169.512 98.7756 169.373 98.7611 169.278 98.8379L164.414 102.804Z" fill="#EAF7F8"/>
<path d="M170.101 98.453C170.024 98.3582 170.038 98.219 170.132 98.1422L174.996 94.1766C175.09 94.0998 175.229 94.1143 175.306 94.2091L177.825 97.2985C177.902 97.3933 177.889 97.5325 177.794 97.6093L172.93 101.575C172.836 101.652 172.697 101.637 172.62 101.542L170.101 98.453Z" fill="#EAF7F8"/>
<path d="M175.849 93.4809C175.755 93.5577 175.741 93.6969 175.818 93.7917L178.337 96.8811C178.414 96.9759 178.554 96.9904 178.648 96.9136L183.512 92.948C183.606 92.8711 183.62 92.732 183.543 92.6372L181.024 89.5478C180.947 89.453 180.808 89.4384 180.713 89.5153L175.849 93.4809Z" fill="#EAF7F8"/>
<path d="M181.536 89.1303C181.459 89.0356 181.472 88.8964 181.567 88.8196L186.431 84.854C186.525 84.7771 186.664 84.7917 186.741 84.8865L189.26 87.9759C189.337 88.0707 189.324 88.2098 189.229 88.2867L184.365 92.2523C184.271 92.3291 184.132 92.3146 184.055 92.2198L181.536 89.1303Z" fill="#EAF7F8"/>
<path d="M187.509 84.2603C187.432 84.1655 187.446 84.0264 187.54 83.9495L189.247 82.5581L193.095 87.2781L191.388 88.6695C191.294 88.7464 191.155 88.7318 191.078 88.637L187.509 84.2603Z" fill="#EAF7F8"/>
<ellipse cx="170.976" cy="108.239" rx="1.65152" ry="1.66086" transform="rotate(-39.1897 170.976 108.239)" fill="#37424A"/>
<ellipse cx="190.689" cy="92.1681" rx="1.65152" ry="1.66086" transform="rotate(-39.1897 190.689 92.1681)" fill="#37424A"/>
<path d="M173.75 43C172.645 43 171.75 43.8954 171.75 45V57C171.75 58.1046 172.645 59 173.75 59L173.75 70H175.75V59C176.855 59 177.75 58.1046 177.75 57V45C177.75 43.8954 176.855 43 175.75 43H173.75Z" fill="#37424A"/>
<circle cx="174.75" cy="56" r="2" fill="#878E92"/>
<circle cx="174.75" cy="51" r="2" fill="#AFB3B7"/>
<circle cx="174.75" cy="46" r="2" fill="#C3C6C9"/>
<ellipse cx="114.634" cy="33.0709" rx="2.08528" ry="2.1579" transform="rotate(53.5068 114.634 33.0709)" fill="#37424A"/>
<ellipse cx="146.408" cy="76.0217" rx="2.08527" ry="2.1579" transform="rotate(53.5068 146.408 76.0217)" fill="#37424A"/>
<path d="M111.54 25.6105C115.663 22.5603 121.479 23.4301 124.529 27.5532L154.537 68.1171C157.587 72.2402 156.717 78.0553 152.594 81.1055C151.563 81.8681 150.11 81.6506 149.347 80.6199L111.055 28.8576C110.292 27.8268 110.509 26.3731 111.54 25.6105Z" fill="#37424A"/>
<path d="M156.404 73.4568L157.751 75.2777C157.933 75.5234 157.884 75.871 157.644 76.0712L157.623 76.0431C157.576 75.9793 157.484 75.9672 157.418 76.016L156.162 76.9454C156.096 76.9942 156.081 77.0856 156.128 77.1495L156.213 77.2651C156.261 77.329 156.353 77.3411 156.419 77.2922L157.675 76.3629C157.731 76.3215 157.75 76.2496 157.726 76.1898C158.035 75.9411 158.101 75.4999 157.871 75.1892L156.524 73.3682L156.404 73.4568Z" fill="#37424A"/>
<path d="M151.284 81.6056C150.581 81.6417 149.884 81.3461 149.445 80.752L110.957 28.7255C110.248 27.7677 110.477 26.3968 111.469 25.6636L111.828 25.3981C112.152 25.158 112.487 24.9425 112.83 24.7512L152.791 78.7688C152.637 79.4619 152.141 80.8622 151.284 81.6056Z" fill="#A2AD00"/>
<rect x="120.924" y="28.0603" width="4.17055" height="3.42287" transform="rotate(53.5068 120.924 28.0603)" fill="#EAF7F8"/>
<rect x="132.727" y="44.0151" width="4.17056" height="3.42287" transform="rotate(53.5068 132.727 44.0151)" fill="#EAF7F8"/>
<rect x="144.53" y="59.9699" width="4.17055" height="3.42287" transform="rotate(53.5068 144.53 59.9699)" fill="#EAF7F8"/>
<rect x="123.917" y="32.1069" width="4.17055" height="3.42287" transform="rotate(53.5068 123.917 32.1069)" fill="#EAF7F8"/>
<rect x="135.72" y="48.0617" width="4.17056" height="3.42287" transform="rotate(53.5068 135.72 48.0617)" fill="#EAF7F8"/>
<rect x="147.523" y="64.0165" width="4.17055" height="3.42287" transform="rotate(53.5068 147.523 64.0165)" fill="#EAF7F8"/>
<rect x="126.911" y="36.1533" width="4.17055" height="3.42287" transform="rotate(53.5068 126.911 36.1533)" fill="#EAF7F8"/>
<rect x="138.714" y="52.1081" width="4.17055" height="3.42287" transform="rotate(53.5068 138.714 52.1081)" fill="#EAF7F8"/>
<rect x="150.517" y="68.063" width="4.17054" height="3.42287" transform="rotate(53.5068 150.517 68.063)" fill="#EAF7F8"/>
<path d="M153.349 72.2284C153.438 72.1627 153.564 72.1814 153.629 72.2702L154.866 73.9416C155.341 74.5838 155.388 75.447 154.986 76.1373L153.926 77.9579C153.854 78.0821 153.678 78.0918 153.593 77.9762L150.877 74.3059C150.812 74.2171 150.83 74.0919 150.919 74.0262L153.349 72.2284Z" fill="#EAF7F8"/>
<rect x="144.28" y="54.2517" width="3.88293" height="11.608" transform="rotate(53.5068 144.28 54.2517)" fill="#AFB3B7"/>
<rect x="132.477" y="38.2969" width="3.88293" height="11.608" transform="rotate(53.5068 132.477 38.2969)" fill="#AFB3B7"/>
<ellipse cx="153.112" cy="79.5153" rx="0.179764" ry="0.186027" transform="rotate(53.5068 153.112 79.5153)" fill="#E4D700"/>
<path d="M88.7137 120.459L92.9052 124.507C92.9052 124.507 84.1922 131.816 84.1761 131.72C84.1597 131.624 80.9375 126.968 80.9375 126.968L88.7137 120.459Z" fill="#8D9398"/>
<path d="M87.8138 121.838L91.0594 125.385L84.8724 130.543L81.9416 126.877L87.8138 121.838Z" fill="#D5D7D9"/>
<path fill-rule="evenodd" clip-rule="evenodd" d="M49.4808 179.097L48.9663 181.719L51.7952 182.592L53.8523 184.077L60.9653 184.164C60.9653 184.164 60.9663 183.379 59.9373 183.029C58.9092 182.68 55.5663 182.156 55.1377 181.719C54.7091 181.281 53.7998 179.676 53.7998 179.676L49.4717 179.097" fill="#977000"/>
<path d="M64.1616 181.097L68.1044 180.333L71.0613 182.232C71.0613 182.232 73.9216 182.396 75.2711 182.723C76.6216 183.051 76.4927 184.132 76.4927 184.132L69.547 184.078L66.8495 183.59L63.7007 183.51C63.7876 182.179 64.0929 181.285 64.152 181.123C64.1586 181.106 64.1616 181.097 64.1616 181.097Z" fill="#977000"/>
<path fill-rule="evenodd" clip-rule="evenodd" d="M55.5608 131.23L53.802 130.73L57.2172 146.058L56.5834 146.593L57.241 147.368L56.2215 147.912L57.523 148.805L49.249 179.601L53.8059 180.319H53.809L53.9378 179.914L53.801 179.676L60.5925 158.831L63.6687 181.095L68.2762 181.354L66.7356 134.405C65.1027 133.941 63.5485 133.5 62.0094 133.063C59.8866 132.46 57.7927 131.865 55.5608 131.23Z" fill="#5F686E"/>
<path d="M58.4323 136.314L63.8384 148.868L60.5925 158.83L59.6383 151.924C57.5936 144.409 55.7404 137.594 53.8794 130.751C54.4492 130.914 55.0082 131.073 55.5587 131.229L56.3362 131.45L58.4323 136.314Z" fill="#37424A"/>
<path d="M78.4861 122.472L81.6466 126.425L84.7498 127.251L87.7498 129.296L84.2498 131.34L81.2498 129.807L76.7808 125.191L78.4861 122.472Z" fill="#EEDDD9"/>
<path d="M70.1701 96.8488L71.4888 94.9281L76.0625 96.2862L77.6814 91.772L79.0041 91.1166C79.1497 91.0445 79.1911 90.8518 79.0875 90.7251L77.4236 88.6725L77.9837 86.8652L76.7464 83.6698L72.5154 81.7682L68.3895 83.3829L66.8039 90.231L65.373 93.5278L70.1701 96.8488Z" fill="#EEDDD9"/>
<path d="M78.2434 86.5915C78.2434 86.5915 78.5983 87.7425 78.346 87.6971C78.0948 87.6523 76.1833 87.4364 76.1833 87.4364L76.0054 86.777L78.2434 86.5915Z" fill="#5F686E"/>
<path d="M77.5325 92.4097L73.1277 91.3355L71.9272 91.7657L72.1279 95.2006L74.2027 96.9528L76.1972 96.6797L77.5325 92.4097Z" fill="#5F686E"/>
<path d="M72.5152 81.768H72.5157L72.5167 81.768L76.7467 83.6691L76.7457 83.6696L74.5764 85.7582L73.0212 91.9381H73.0191L71.9223 91.7666C71.9223 91.7666 71.7283 89.1689 71.521 88.7969C71.3482 88.4868 71.0025 88.3987 70.7219 88.3987C70.6214 88.3987 70.5289 88.41 70.4561 88.4265C69.9653 88.5383 69.3815 88.985 69.9512 90.4513L66.6006 90.1906C66.6006 90.1906 67.9112 83.2049 67.986 83.1241C68.0598 83.0437 72.3268 81.8218 72.5097 81.7695L72.5097 81.7695L72.5147 81.768L72.5152 81.768Z" fill="#242B30"/>
<path d="M65.0391 93.5407L61.4687 98.7C61.2655 98.9947 61.1053 99.3172 60.9936 99.6588L51.0962 129.961L67.4384 134.604L67.7816 116.17L77.3495 126.457L79.6315 122.427L71.1043 111.725L70.1182 97.0797L65.0391 93.5407Z" fill="#71D6E0"/>
<path d="M62.876 110.939L62.9619 111.812L63.99 115.831L64.9119 113.549L62.876 110.939Z" fill="#5F686E"/>
<path d="M65.0002 93.5221L65.7502 93.5221L57.5186 122.388L67.0992 124.359L67.2502 115.497L68.7502 117.214L69.0988 124.756L70.7502 125.207L68.5313 140.529L50.2502 135.428L54.2043 122.052L65.0002 93.5221Z" fill="#007C92"/>
<path d="M71.5657 96.0992L66.2485 91.2717L64.9536 93.5942L70.0747 97.364L71.5657 96.0992Z" fill="#A2AD00"/>
</svg>
