<svg width="64" height="64" viewBox="0 0 64 64" fill="none" xmlns="http://www.w3.org/2000/svg">
<g clip-path="url(#clip0_955_6123)">
<path d="M55.8196 20.8191C55.8196 20.8191 31.5056 18.786 24.1563 31.5412C20.5912 37.7286 25.5746 46.7427 34.4462 48.6871C38.342 56.8913 48.248 59.7124 53.4716 54.8433C64.2398 44.8057 55.8196 20.8191 55.8196 20.8191Z" fill="#33AF85"/>
<path d="M55.8779 20.6191C55.8779 20.6191 53.7758 25.4538 48.0058 33.2227C49.752 33.1316 50.8252 33.0869 52.0507 32.9453C53.8684 32.7354 55.744 32.5181 58.4365 32.1357C58.4011 32.1638 56.3385 33.7682 47.6982 33.6357C46.302 35.4985 44.6983 37.5232 42.8672 39.6855C45.5848 39.5464 47.2451 39.4798 49.1425 39.2627C51.9383 38.9429 54.8227 38.611 58.9638 38.0273C58.9439 38.0433 55.7946 40.5506 42.331 40.3154C40.6199 42.3123 38.7171 44.4209 36.6074 46.623C40.0488 46.4027 42.0923 46.2992 44.4404 46.001C47.7982 45.5746 51.2629 45.1321 56.2382 44.3682C56.2382 44.3682 52.3935 47.5052 35.8818 47.3682C33.394 49.8354 27.3719 55.184 27.3427 55.21C25.5437 54.529 26.1016 53.2429 26.1123 53.2188C27.8464 53.7151 31.9806 50.181 35.4472 46.7061C30.3258 30.9617 32.1245 26.2816 32.1464 26.2256C32.9111 31.2007 33.5296 34.6379 34.1308 37.9688C34.5721 40.4135 35.1165 42.474 36.0127 46.1357C37.6989 44.4134 39.1784 42.7621 40.0683 41.6846C40.5841 41.0601 41.0645 40.4814 41.5146 39.9395C37.0992 26.8609 38.5957 23.0566 38.5957 23.0566C39.2819 27.1821 39.8311 30.033 40.3652 32.7959C40.7493 34.7829 41.2138 36.4651 41.9697 39.3916C44.1057 36.8207 45.5593 35.0697 47.0752 32.9893C47.1307 32.913 47.1855 32.8361 47.2412 32.7598C44.509 24.5085 45.4599 22.0938 45.4599 22.0938C45.9034 24.7771 46.2581 26.6317 46.6035 28.4287C46.835 29.6334 47.112 30.6659 47.5449 32.3418C49.9415 29.0508 52.4602 25.5762 55.8779 20.6191Z" fill="#394D00"/>
<path d="M14.8034 4.0547C14.8034 4.0547 28.1444 11.48 27.5131 20.6704C27.2068 25.1285 21.4734 28.0732 16.1861 25.9886C11.3003 28.8919 5.16971 26.902 4.15447 22.5502C2.06154 13.579 14.8034 4.0547 14.8034 4.0547Z" fill="#2B926F"/>
<path d="M14.8438 3.92969C14.8901 7.69688 14.9849 10.3802 15.082 12.9258C15.8916 12.2061 16.396 11.7668 16.9365 11.2217C17.7428 10.4086 18.5748 9.56945 19.7412 8.33008C19.7354 8.35555 19.3563 9.94022 15.0947 13.2461C15.097 13.3063 15.0993 13.3667 15.1016 13.4268C15.1634 15.0362 15.3086 16.4526 15.5215 18.5332C16.9341 17.2774 17.7621 16.5658 18.6543 15.668C19.8956 14.4189 21.1761 13.1285 22.9717 11.2246C22.9717 11.2246 22.4214 13.7228 15.5664 18.9766C15.6112 19.4152 15.6589 19.8833 15.709 20.3877C15.7954 21.2577 15.9866 22.6315 16.2617 24.1143C18.0045 22.5246 19.0068 21.6445 20.0889 20.5283C21.5631 19.0076 23.0831 17.4371 25.2158 15.1191C25.2158 15.1191 24.559 18.1764 16.3564 24.6084C16.9452 27.6232 17.8614 30.901 18.9355 31.248C18.9355 31.248 18.7848 32.1309 17.6016 31.8545C17.6016 31.8545 16.3334 26.9569 15.9004 24.8018C7.32216 19.1446 6.38132 16.1756 6.37109 16.1426C8.68928 18.2749 10.335 19.7127 11.9307 21.1055C13.0466 22.0795 14.0721 22.8461 15.7832 24.1611C15.4555 22.2819 15.2021 20.5234 15.0098 18.8896C7.91008 14.3005 7.16699 11.8975 7.16699 11.8975C9.11473 13.6452 10.4971 14.8245 11.8379 15.9658C12.748 16.7406 13.5876 17.3545 14.9512 18.375C14.754 16.6121 14.6273 15.0002 14.5518 13.5449C9.97676 10.5737 9.49609 9.01953 9.49609 9.01953C10.7616 10.1575 11.6601 10.9258 12.5312 11.6689C13.1185 12.1699 13.6607 12.5672 14.5361 13.2236C14.25 7.20757 14.8373 3.96517 14.8438 3.92969Z" fill="#394D00"/>
</g>
<defs>
<clipPath id="clip0_955_6123">
<rect width="64" height="64" fill="white"/>
</clipPath>
</defs>
</svg>
