<svg width="6388" height="4087" viewBox="0 0 6388 4087" fill="none" xmlns="http://www.w3.org/2000/svg">
<g clip-path="url(#clip0_2_99)">
<path d="M6388 0H0V4087H6388V0Z" fill="#00303D"/>
<path d="M6389 4087V1926.86C5881.48 1926.86 5609.25 2101.78 5390.5 2242.32C5211.86 2357.09 5082.81 2440.01 4791.69 2440.01C4500.57 2440.01 4371.52 2357.09 4192.88 2242.32C3974.15 2101.78 3701.93 1926.86 3194.4 1926.86C2686.9 1926.86 2414.68 2101.78 2195.95 2242.32C2017.34 2357.09 1888.28 2440.01 1597.18 2440.01C1306.1 2440.01 1177.04 2357.09 998.44 2242.33C779.71 2101.78 507.5 1926.86 0 1926.86V4087H6389Z" fill="#00232C"/>
</g>
<defs>
<clipPath id="clip0_2_99">
<rect width="6388" height="4087" fill="white"/>
</clipPath>
</defs>
</svg>
