<svg width="6388" height="4087" fill="none" xmlns="http://www.w3.org/2000/svg"><path d="M6388 0H0v4087h6388V0Z" fill="#D3E5EA"/><path d="M6389 4087V1926.86c-507.52 0-779.75 174.92-998.5 315.46-178.64 114.77-307.69 197.69-598.81 197.69-291.12 0-420.17-82.92-598.81-197.69-218.73-140.54-490.95-315.46-998.48-315.46-507.5 0-779.72 174.92-998.45 315.46-178.61 114.77-307.67 197.69-598.77 197.69-291.08 0-420.14-82.92-598.74-197.68C779.71 2101.78 507.5 1926.86 0 1926.86V4087h6389Z" fill="#E6F2F6"/></svg>