<svg width="2872" height="1466" xmlns="http://www.w3.org/2000/svg"><g fill-rule="nonzero" fill="none"><path d="M1980.07 923.32c43.9-157.88-92.54-332.85-298.41-510.91s-359.05-424.55-619.7-227.88C801.31 381.2 719.41 830.56 854.41 1032.94c135.01 202.38 984.61 397.58 1125.66-109.62Z" fill="#0085A9"/><path d="M1939.7 637.13s43.72 1.46 56.45 43.88c12.73 42.42 6.78 286.75 6.78 286.75l-63.23-330.63Z" fill="#FF989B"/><path d="M1511.18 777.4s-34.77 94.75-40.95 112.48c-6.18 17.73 76.96 8.42 97.03-40.11 11.37-27.49 21.12-97.7.78-109.95-11.23-6.77-56.86 37.58-56.86 37.58Z" fill="#FFCBCD"/><path d="M1484.79 689.04s-31.19 84.56-37.08 107.87c-5.89 23.31 65.17 20.64 107.28-42.65s18.43-119.55 18.43-119.55l-88.63 54.33Z" fill="#FFB2B4"/><path d="M1571.93 354.37s-84.84-31.11-94.74-35.35c-9.9-4.24-29.69 89.09 94.74 124.44 124.44 35.35 0-89.09 0-89.09Zm-2.13 240.55s-55.42-2.33-75.35 13.06c-19.93 15.39-56.71 51.34-71.31 62.95-14.6 11.61 29.91 76.81 128.32-3.35 98.4-80.15 18.34-72.66 18.34-72.66Z" fill="#FF989B"/><path d="M1675.29 909.99s-4.44 162.11 141.65 244.82c0 0 29.69 46.66-12.98 123.01-42.67 76.35 262.33 138.46 271.48 50.9 3.72-35.62 10.82-89.08 4.24-154.83-5.14-51.39-28.52-110.98-28.52-110.98l-77.53-152.93h-298.34v.01Z" fill="#FF7E81"/><path d="M1593.05 306.29c-26.14 0-49.75 26.93-49.75 53.07v555.97c0 26.14 25.56 52.42 51.7 52.42h235.59c26.14 0 52.34-25.64 52.34-51.78V358.72c0-26.14-23.62-52.43-49.75-52.43h-240.13Z" fill="#E3F2F7"/><path d="M1831.64 976.29h-237.06c-33.28 0-60.35-27.07-60.35-60.35V358.32c0-33.28 27.07-60.35 60.35-60.35h237.06c33.27 0 60.35 27.07 60.35 60.35v557.62c0 33.28-27.07 60.35-60.35 60.35Zm-237.05-665.37c-26.14 0-47.4 21.27-47.4 47.4v557.62c0 26.14 21.26 47.4 47.4 47.4h237.06c26.14 0 47.4-21.27 47.4-47.4V358.32c0-26.14-21.27-47.4-47.4-47.4h-237.06Z" fill="#00242D"/><path fill="#00242D" d="M1529.3 434.44h14v28.48h-14z"/><path fill="#8E9093" d="M1882.93 496.58h14v58.25h-14z"/><path d="M1529.3 477.16h14v41.42h-14v-41.42Zm0 55.67h14v41.42h-14v-41.42Z" fill="#00242D"/><path d="M1935.34 519.81c-5.66-19.8 1.41-82.01-14.14-83.43-15.55-1.41-74.06 52.56-65.05 117.37 15.55 111.77 15.31 185.58-.61 244.63-19.14 70.99-86.87 202.21 0 294.12s204.23 11.31 204.23 11.31-118.77-564.2-124.43-584Z" fill="#FF7E81"/><path d="M1832.36 769.85h-238.49c-6.98 0-12.63-5.65-12.63-12.63V518.73c0-6.98 5.65-12.63 12.63-12.63h238.49c6.98 0 12.63 5.65 12.63 12.63v238.49c0 6.97-5.66 12.63-12.63 12.63Z" fill="#0085A9"/><path d="M1760.23 663.94c-14.97 0-23-5.16-29.46-9.31-5.27-3.39-9.08-5.83-17.67-5.83-8.59 0-12.4 2.45-17.66 5.83-6.45 4.15-14.48 9.31-29.45 9.31-14.97 0-23-5.16-29.45-9.31-5.27-3.39-9.08-5.83-17.66-5.83v-30c14.97 0 23 5.16 29.45 9.31 5.27 3.39 9.08 5.83 17.66 5.83 8.59 0 12.4-2.45 17.66-5.83 6.45-4.15 14.48-9.31 29.45-9.31 14.97 0 23 5.16 29.46 9.31 5.27 3.39 9.08 5.83 17.67 5.83 8.59 0 12.4-2.45 17.67-5.83 6.45-4.15 14.48-9.31 29.46-9.31v30c-8.59 0-12.4 2.45-17.67 5.83-6.45 4.15-14.49 9.31-29.46 9.31Zm-141.36 26.08h51.97v27.91h-51.97v-27.91Zm68.26 0h51.97v27.91h-51.97v-27.91Zm68.25 0h51.97v27.91h-51.97v-27.91Zm3.09-135.78-45.02 32.69-45.02-32.69-49.56 36.31v4.57h188.48v-5.1l-48.88-35.78Z" fill="#FFF"/><path d="M1417.07 149.28c0 82.08-148.62 369.3-148.62 369.3s-148.62-287.22-148.62-369.3c0-82.07 66.54-148.62 148.62-148.62 82.09 0 148.62 66.55 148.62 148.62Z" fill="#FF282E"/><path d="M1357.36 161.67c0 49.1-39.81 88.9-88.91 88.9-49.09 0-88.92-39.79-88.92-88.9 0-49.11 39.82-88.91 88.92-88.91 49.11 0 88.91 39.8 88.91 88.91Z" fill="#FFF"/><path d="M1279.36 805.67c.79 1.1.53 2.63-.57 3.42l-42.27 30.24a2.452 2.452 0 0 1-2.85-3.99l42.27-30.24a2.46 2.46 0 0 1 3.42.57Z" fill="#00242D"/><path d="M1217.94 831.06s16.17-12.57 17.34-13.15c1.17-.58 14.09-3.62 14.54-3.7.44-.08 11.45-2.12 11.45-2.12s1.07 4.18-2.02 6.39-8.99 3.04-8.99 3.04l-18.8 13.6-13.52-4.06Z" fill="#FF7E81"/><path d="M1210.22 835.3s20.78-11.49 22.93-12.17c2.15-.67 28.47-2.8 29.63-2.94 6.47-.8 6.82 5.84 3.97 7.19-2.85 1.35-7.25 1.71-7.25 1.71s2.94 6.04-3.05 7.15c4.81 6.26-1.92 8.81-1.92 8.81s.22 4.15-.71 5.51c-.93 1.36-6.07 4.59-7.86 5.29-1.79.7-30.87 6.55-30.87 6.55l-28.16 8.47-3.31-25.63 26.6-9.94Z" fill="#FF989B"/><path d="m1073.29 890.25 126.9-56.85 22.07 36.11s-94.71 74.42-142.49 76.72c-47.77 2.32-107.73-128.1-6.48-55.98Z" fill="#FFBB46"/><path d="M1082.89 549.96c20.29 1.26 45.02 13.33 40.31 46.52-3.3 23.25-11.03 62.94-26.5 63.37-6.85.19-29.75-9.51-29.75-9.51l-4.64 37.58-42-23.59 19.09-35.29c-.01-.01-23.39-83.22 43.49-79.08ZM1118.96 1208.03c-6.67-31.72-22.6-227.61-22.6-227.61s-128.74-64.78-136.88-16.82c0 0 103.11 201.53 109.17 219.33 6.06 17.8 1.92 55.62 26.27 116.18 12.17 30.28 50.18 131.46 50.18 131.46l31.75 14.22c-.01 0-53.2-214.4-57.89-236.76Z" fill="#FF989B"/><path d="M976.57 942.57c-13.65 33.38 4.92 98.82-3.1 159.13-8.02 60.29-8.55 70.43-45.17 143.76-11.78 23.59-38.76 156.91-38.76 156.91l20.32 21.37s71.73-183.12 82.17-202.15c15.56-28.35 81.98-218.54 81.98-218.54s-83.8-93.87-97.44-60.48Z" fill="#FF989B"/><path d="M1037.53 664.18c-20.15 1.25-44.21 8.23-51.73 57-10.55 68.53-60.26 473.95-60.26 473.95l212.38 23.47s-20.59-379.04-51.67-507.58c-9.31-38.54-31.59-47.9-48.72-46.84Z" fill="#FFBB46"/><path d="M1046.95 536.62c-77.91 26.8-91.06 245.14-152.6 260.32 117.05 42.06 163.52-181.02 163.52-181.02 2.06-2.83-6.49-14.39 1.43-22.2 6.43-6.35 14.83-6.4 16.85 4.63 0 0 25.54-34.66 41.72-32.64-4-22.81-49.56-39.21-70.92-29.09Z" fill="#00242D"/><path d="M1142.72 1429.67c-1.68 1.07 3.46 35.13 6.95 35.9 3.49.77 86.91-23.74 90.25-29.96 1.76-3.27-4.35-13.39-6.24-13.33-34.83 1.02-63.35-8.61-63.35-8.61s-7.29 5.49-4.97 9.58l1.56 1.54s-3.67 6.44-8.82 7.52c-5.15 1.08-11.12-5.37-15.38-2.64Zm-253.5-36.6c-1.96-.38-21.72 27.83-19.72 30.8 2 2.97 79.31 42.74 86.02 40.54 3.52-1.15 6.08-12.69 4.67-13.96-25.93-23.28-39.94-49.92-39.94-49.92s-9.06-1.05-10.2 3.51l.06 2.19s-7.09 2.13-11.57-.63c-4.48-2.78-4.35-11.56-9.32-12.53Z" fill="#006275"/></g></svg>