<svg width="2872" height="1466" viewBox="0 0 2872 1466" fill="none" xmlns="http://www.w3.org/2000/svg">
  <path d="M1903 896.486C1940.71 760.88 1823.52 610.596 1646.69 457.658C1469.87 304.72 1338.3 93.0059 1114.43 261.929C890.55 430.851 820.205 816.813 936.158 990.64C1052.12 1164.47 1781.85 1332.13 1903 896.486Z" fill="#0085A9"/>
  <path d="M1868.33 650.673C1868.33 650.673 1905.88 651.927 1916.81 688.362C1927.75 724.797 1922.64 934.656 1922.64 934.656L1868.33 650.673Z" fill="#FF989B"/>
  <path d="M1500.27 771.153C1500.27 771.153 1470.4 852.535 1465.09 867.764C1459.79 882.992 1531.2 874.996 1548.43 833.313C1558.2 809.701 1566.57 749.397 1549.1 738.875C1539.46 733.06 1500.27 771.153 1500.27 771.153Z" fill="#FFCBCD"/>
  <path d="M1477.6 695.259C1477.6 695.259 1450.81 767.889 1445.75 787.91C1440.69 807.931 1501.73 805.638 1537.9 751.277C1574.06 696.917 1553.73 648.594 1553.73 648.594L1477.6 695.259Z" fill="#FFB2B4"/>
  <path d="M1552.45 407.806C1552.45 407.806 1479.58 381.086 1471.07 377.444C1462.57 373.802 1445.57 453.964 1552.45 484.327C1659.33 514.69 1552.45 407.806 1552.45 407.806ZM1550.62 614.418C1550.62 614.418 1503.02 612.417 1485.9 625.636C1468.78 638.854 1437.19 669.732 1424.65 679.704C1412.11 689.676 1450.34 745.677 1534.86 676.827C1619.38 607.985 1550.62 614.418 1550.62 614.418Z" fill="#FF989B"/>
  <path d="M1641.22 885.036C1641.22 885.036 1637.41 1024.28 1762.89 1095.32C1762.89 1095.32 1788.39 1135.39 1751.74 1200.97C1715.09 1266.55 1977.06 1319.9 1984.92 1244.69C1988.11 1214.09 1994.21 1168.18 1988.56 1111.7C1984.14 1067.56 1964.06 1016.38 1964.06 1016.38L1897.47 885.028H1641.22V885.036Z" fill="#FF7E81"/>
  <path d="M1570.59 366.51C1548.13 366.51 1527.86 389.641 1527.86 412.093V889.623C1527.86 912.075 1549.81 934.647 1572.26 934.647H1774.61C1797.06 934.647 1819.57 912.625 1819.57 890.173V411.543C1819.57 389.091 1799.28 366.51 1776.84 366.51H1570.59Z" fill="#E3F2F7"/>
  <path d="M1775.52 941.982H1571.9C1543.32 941.982 1520.07 918.731 1520.07 890.147V411.199C1520.07 382.615 1543.32 359.364 1571.9 359.364H1775.52C1804.09 359.364 1827.35 382.615 1827.35 411.199V890.147C1827.35 918.731 1804.1 941.982 1775.52 941.982ZM1571.91 370.487C1549.46 370.487 1531.2 388.756 1531.2 411.199V890.147C1531.2 912.599 1549.46 930.859 1571.91 930.859H1775.52C1797.98 930.859 1816.24 912.59 1816.24 890.147V411.199C1816.24 388.747 1797.97 370.487 1775.52 370.487H1571.91Z" fill="#00242D"/>
  <path d="M1515.83 476.58H1527.86V501.041H1515.83V476.58Z" fill="#00242D"/>
  <path d="M1819.57 529.953H1831.59V579.985H1819.57V529.953Z" fill="#8E9093"/>
  <path d="M1515.83 513.273H1527.86V548.849H1515.83V513.273ZM1515.83 561.089H1527.86V596.665H1515.83V561.089Z" fill="#00242D"/>
  <path d="M1864.58 549.905C1859.72 532.899 1865.79 479.466 1852.44 478.246C1839.08 477.035 1788.83 523.39 1796.57 579.057C1809.92 675.057 1809.72 738.454 1796.04 789.173C1779.6 850.147 1721.43 962.854 1796.04 1041.8C1870.66 1120.74 1971.46 1051.51 1971.46 1051.51C1971.46 1051.51 1869.45 566.912 1864.58 549.905Z" fill="#FF7E81"/>
  <path d="M1776.13 764.668H1571.29C1565.3 764.668 1560.44 759.815 1560.44 753.82V548.977C1560.44 542.982 1565.3 538.129 1571.29 538.129H1776.13C1782.13 538.129 1786.98 542.982 1786.98 548.977V753.82C1786.98 759.806 1782.12 764.668 1776.13 764.668Z" fill="#0085A9"/>
  <path d="M1714.18 673.7C1701.32 673.7 1694.42 669.268 1688.88 665.704C1684.35 662.792 1681.08 660.696 1673.7 660.696C1666.32 660.696 1663.05 662.801 1658.53 665.704C1652.99 669.268 1646.09 673.7 1633.24 673.7C1620.38 673.7 1613.48 669.268 1607.94 665.704C1603.41 662.792 1600.14 660.696 1592.77 660.696V634.929C1605.63 634.929 1612.53 639.361 1618.07 642.926C1622.59 645.837 1625.87 647.933 1633.24 647.933C1640.61 647.933 1643.89 645.829 1648.4 642.926C1653.94 639.361 1660.84 634.929 1673.7 634.929C1686.56 634.929 1693.45 639.361 1699 642.926C1703.53 645.837 1706.8 647.933 1714.18 647.933C1721.56 647.933 1724.83 645.829 1729.36 642.926C1734.9 639.361 1741.79 634.929 1754.66 634.929V660.696C1747.28 660.696 1744.01 662.801 1739.48 665.704C1733.94 669.268 1727.04 673.7 1714.18 673.7ZM1592.76 696.101H1637.4V720.073H1592.76V696.101ZM1651.39 696.101H1696.03V720.073H1651.39V696.101ZM1710.01 696.101H1754.65V720.073H1710.01V696.101ZM1712.67 579.478L1674 607.555L1635.33 579.478L1592.76 610.665V614.59H1754.65V610.21L1712.67 579.478Z" fill="white"/>
  <path d="M1419.43 231.652C1419.43 302.151 1291.78 548.849 1291.78 548.849C1291.78 548.849 1164.13 302.151 1164.13 231.652C1164.13 161.161 1221.28 104 1291.78 104C1362.29 104 1419.43 161.161 1419.43 231.652Z" fill="#FF282E"/>
  <path d="M1368.15 242.294C1368.15 284.466 1333.96 318.651 1291.78 318.651C1249.62 318.651 1215.41 284.475 1215.41 242.294C1215.41 200.113 1249.61 165.928 1291.78 165.928C1333.96 165.928 1368.15 200.113 1368.15 242.294Z" fill="white"/>
  <path d="M1301.15 795.434C1301.83 796.379 1301.61 797.693 1300.66 798.372L1264.36 824.345C1263.9 824.659 1263.34 824.781 1262.8 824.686C1262.25 824.591 1261.77 824.285 1261.45 823.836C1261.13 823.386 1261 822.828 1261.08 822.282C1261.17 821.737 1261.47 821.247 1261.91 820.918L1298.22 794.945C1298.67 794.622 1299.23 794.492 1299.79 794.584C1300.34 794.676 1300.83 794.981 1301.15 795.434Z" fill="#00242D"/>
  <path d="M1248.4 817.242C1248.4 817.242 1262.29 806.446 1263.29 805.948C1264.3 805.449 1275.39 802.838 1275.78 802.77C1276.16 802.701 1285.62 800.949 1285.62 800.949C1285.62 800.949 1286.53 804.539 1283.88 806.437C1281.23 808.335 1276.16 809.048 1276.16 809.048L1260.01 820.729L1248.4 817.242Z" fill="#FF7E81"/>
  <path d="M1241.77 820.884C1241.77 820.884 1259.62 811.015 1261.46 810.431C1263.31 809.855 1285.92 808.026 1286.91 807.905C1292.47 807.218 1292.77 812.921 1290.32 814.081C1287.88 815.241 1284.1 815.55 1284.1 815.55C1284.1 815.55 1286.62 820.738 1281.48 821.691C1285.61 827.068 1279.83 829.258 1279.83 829.258C1279.83 829.258 1280.02 832.822 1279.22 833.991C1278.42 835.159 1274 837.933 1272.47 838.534C1270.93 839.135 1245.95 844.16 1245.95 844.16L1221.76 851.435L1218.92 829.421L1241.77 820.884Z" fill="#FF989B"/>
  <path d="M1124.16 868.081L1233.15 819.252L1252.11 850.267C1252.11 850.267 1170.76 914.188 1129.72 916.163C1088.69 918.156 1037.19 806.136 1124.16 868.081Z" fill="#FFBB46"/>
  <path d="M1132.4 575.802C1149.83 576.884 1171.07 587.251 1167.03 615.758C1164.19 635.728 1157.55 669.818 1144.26 670.188C1138.38 670.351 1118.71 662.02 1118.71 662.02L1114.73 694.298L1078.65 674.036L1095.05 643.725C1095.04 643.716 1074.96 572.246 1132.4 575.802ZM1163.38 1141.03C1157.65 1113.78 1143.97 945.53 1143.97 945.53C1143.97 945.53 1033.4 889.889 1026.4 931.083C1026.4 931.083 1114.97 1104.18 1120.17 1119.47C1125.38 1134.76 1121.82 1167.24 1142.74 1219.26C1153.19 1245.27 1185.84 1332.17 1185.84 1332.17L1213.11 1344.38C1213.1 1344.38 1167.41 1160.23 1163.38 1141.03Z" fill="#FF989B"/>
  <path d="M1041.08 913.019C1029.36 941.69 1045.31 997.897 1038.42 1049.7C1031.53 1101.48 1031.08 1110.19 999.624 1173.18C989.506 1193.44 966.332 1307.95 966.332 1307.95L983.785 1326.3C983.785 1326.3 1045.4 1169.02 1054.36 1152.67C1067.73 1128.32 1124.78 964.966 1124.78 964.966C1124.78 964.966 1052.8 884.34 1041.08 913.019Z" fill="#FF989B"/>
  <path d="M1093.44 673.907C1076.14 674.98 1055.47 680.976 1049.01 722.865C1039.95 781.726 997.253 1129.95 997.253 1129.95L1179.67 1150.11C1179.67 1150.11 1161.98 824.543 1135.29 714.138C1127.29 681.036 1108.16 672.996 1093.44 673.907Z" fill="#FFBB46"/>
  <path d="M1101.53 564.344C1034.62 587.363 1023.32 774.898 970.463 787.936C1071 824.062 1110.91 632.456 1110.91 632.456C1112.68 630.025 1105.34 620.096 1112.14 613.388C1117.66 607.934 1124.88 607.891 1126.61 617.364C1126.61 617.364 1148.55 587.594 1162.45 589.33C1159.01 569.738 1119.88 555.651 1101.53 564.344Z" fill="#00242D"/>
  <path d="M1183.79 1331.4C1182.35 1332.32 1186.76 1361.57 1189.76 1362.23C1192.76 1362.89 1264.41 1341.84 1267.28 1336.5C1268.79 1333.69 1263.54 1325 1261.92 1325.05C1232 1325.93 1207.51 1317.65 1207.51 1317.65C1207.51 1317.65 1201.24 1322.37 1203.24 1325.88L1204.58 1327.21C1204.58 1327.21 1201.42 1332.74 1197 1333.66C1192.58 1334.59 1187.45 1329.05 1183.79 1331.4ZM966.057 1299.96C964.373 1299.63 947.401 1323.86 949.119 1326.41C950.837 1328.97 1017.24 1363.12 1023 1361.24C1026.03 1360.25 1028.22 1350.34 1027.01 1349.24C1004.74 1329.25 992.709 1306.37 992.709 1306.37C992.709 1306.37 984.927 1305.47 983.948 1309.38L983.999 1311.26C983.999 1311.26 977.91 1313.09 974.062 1310.72C970.214 1308.33 970.326 1300.79 966.057 1299.96Z" fill="#006275"/>
</svg>