<?xml version="1.0" encoding="utf-8"?>
<!-- Generator: Adobe Illustrator 26.0.1, SVG Export Plug-In . SVG Version: 6.00 Build 0)  -->
<svg version="1.1" xmlns="http://www.w3.org/2000/svg" xmlns:xlink="http://www.w3.org/1999/xlink" x="0px" y="0px"
	 viewBox="0 0 1803.27 1803.27" style="enable-background:new 0 0 1803.27 1803.27;" xml:space="preserve">
<style type="text/css">
	.st0{fill:#00242D;}
	.st1{opacity:0.2;}
	.st2{fill:#006275;}
	.st3{fill:#FFFFFF;}
	.st4{fill:#E3F2F7;}
	.st5{fill:#E6F1F4;}
	.st6{fill:#030B0F;}
	.st7{fill:#000F0F;}
	.st8{fill:#0085A9;}
	.st9{clip-path:url(#SVGID_00000034782799681489961890000004438873611182275205_);fill:#00242D;}
	.st10{clip-path:url(#SVGID_00000034782799681489961890000004438873611182275205_);}
	.st11{fill:#FF989B;}
	.st12{display:none;fill:#00AC79;}
	.st13{display:none;fill:#00242D;}
	.st14{fill:#1C273F;}
	.st15{fill:#2A3756;}
	.st16{fill:#DB807D;}
	.st17{fill:#FFBB46;}
	.st18{opacity:0.2;fill:#00242D;}
	.st19{opacity:0.7;}
	.st20{opacity:0.32;fill:#FFFFFF;}
	.st21{fill:#FF282E;}
	.st22{clip-path:url(#SVGID_00000003793008324108329340000000746175538215082115_);fill:#00242D;}
	.st23{clip-path:url(#SVGID_00000003793008324108329340000000746175538215082115_);}
	.st24{fill:#FFCBCD;}
	.st25{fill:#FFB2B4;}
	.st26{fill:#FF7E81;}
	.st27{display:none;fill:#FFBB46;}
	.st28{fill:#8E9093;}
	.st29{display:none;opacity:0.2;fill:#231F20;}
	.st30{display:none;}
	.st31{display:inline;fill:#006275;}
	.st32{display:inline;fill:#3A3A3A;}
	.st33{display:inline;}
	.st34{fill:#FFD690;}
	.st35{display:inline;fill:#FFD690;}
	.st36{display:inline;opacity:0.57;fill:#CECCCC;}
	.st37{display:inline;fill:#2A3756;}
	.st38{fill:#4A940D;}
	.st39{fill:#49890D;}
	.st40{display:none;fill:#E3F2F7;}
	.st41{fill:#F0F0F0;}
	.st42{fill:#DCE4E6;}
	.st43{fill:#020D10;}
	.st44{fill:#09171D;}
	.st45{clip-path:url(#SVGID_00000122690598850315288810000012497455166968688004_);fill:#00242D;}
	.st46{clip-path:url(#SVGID_00000122690598850315288810000012497455166968688004_);}
	.st47{clip-path:url(#SVGID_00000009569203266944090400000014898804945547687831_);fill:#00242D;}
	.st48{clip-path:url(#SVGID_00000009569203266944090400000014898804945547687831_);}
	.st49{clip-path:url(#SVGID_00000048473464346819051850000007778057802825168310_);fill:#00242D;}
	.st50{clip-path:url(#SVGID_00000048473464346819051850000007778057802825168310_);}
	.st51{clip-path:url(#SVGID_00000041280001758130638250000014797622394031425462_);fill:#00242D;}
	.st52{clip-path:url(#SVGID_00000041280001758130638250000014797622394031425462_);}
</style>
<g id="Bakgrunner">
</g>
<g id="Mobil">
</g>
<g id="Data">
</g>
<g id="Mine_billetter_natt">
	<g>
		<path class="st8" d="M1476.07,1112.32c43.9-157.88-92.54-332.85-298.41-510.91c-205.87-178.06-359.05-424.55-619.7-227.88
			s-342.55,646.03-207.55,848.41C485.42,1424.32,1335.02,1619.52,1476.07,1112.32z"/>
		<g>
			<g>
				<g>
					<path class="st11" d="M1435.7,826.13c0,0,43.72,1.46,56.45,43.88c12.73,42.42,6.78,286.75,6.78,286.75L1435.7,826.13z"/>
					<path class="st24" d="M1007.18,966.4c0,0-34.77,94.75-40.95,112.48c-6.18,17.73,76.96,8.42,97.03-40.11
						c11.37-27.49,21.12-97.7,0.78-109.95C1052.81,922.05,1007.18,966.4,1007.18,966.4z"/>
					<path class="st25" d="M980.79,878.04c0,0-31.19,84.56-37.08,107.87c-5.89,23.31,65.17,20.64,107.28-42.65
						c42.11-63.29,18.43-119.55,18.43-119.55L980.79,878.04z"/>
					<path class="st11" d="M1067.93,543.37c0,0-84.84-31.11-94.74-35.35c-9.9-4.24-29.69,89.09,94.74,124.44
						C1192.37,667.81,1067.93,543.37,1067.93,543.37z"/>
					<path class="st11" d="M1065.8,783.92c0,0-55.42-2.33-75.35,13.06c-19.93,15.39-56.71,51.34-71.31,62.95
						c-14.6,11.61,29.91,76.81,128.32-3.35C1145.86,776.43,1065.8,783.92,1065.8,783.92z"/>
					<path class="st26" d="M1171.29,1098.99c0,0-4.44,162.11,141.65,244.82c0,0,29.69,46.66-12.98,123.01s262.33,138.46,271.48,50.9
						c3.72-35.62,10.82-89.08,4.24-154.83c-5.14-51.39-28.52-110.98-28.52-110.98l-77.53-152.93H1171.29z"/>
					<path class="st27" d="M1204.95,1803.36c25.45-57.18,84.4-355.62,84.4-355.62l330.87,36.06l18.09,319.56H1204.95z"/>
					<g id="phone_4_">
						<g>
							<g>
								<path class="st0" d="M1089.05,495.29c-26.14,0-49.75,26.93-49.75,53.07v555.97c0,26.14,25.56,52.42,51.7,52.42h235.59
									c26.14,0,52.34-25.64,52.34-51.78V547.72c0-26.14-23.62-52.43-49.75-52.43H1089.05z"/>
								<path class="st4" d="M1327.64,1165.29h-237.06c-33.28,0-60.35-27.07-60.35-60.35V547.32c0-33.28,27.07-60.35,60.35-60.35
									h237.06c33.27,0,60.35,27.07,60.35,60.35v557.62C1387.99,1138.22,1360.92,1165.29,1327.64,1165.29z M1090.59,499.92
									c-26.14,0-47.4,21.27-47.4,47.4v557.62c0,26.14,21.26,47.4,47.4,47.4h237.06c26.14,0,47.4-21.27,47.4-47.4V547.32
									c0-26.14-21.27-47.4-47.4-47.4H1090.59z"/>
								<rect x="1025.3" y="623.44" class="st4" width="14" height="28.48"/>
								<rect x="1378.93" y="685.58" class="st28" width="14" height="58.25"/>
								<g>
									<rect x="1025.3" y="666.16" class="st4" width="14" height="41.42"/>
									<rect x="1025.3" y="721.83" class="st4" width="14" height="41.42"/>
								</g>
							</g>
						</g>
					</g>
					<path class="st26" d="M1431.34,708.81c-5.66-19.8,1.41-82.01-14.14-83.43c-15.55-1.41-74.06,52.56-65.05,117.37
						c15.55,111.77,15.31,185.58-0.61,244.63c-19.14,70.99-86.87,202.21,0,294.12c86.87,91.91,204.23,11.31,204.23,11.31
						S1437,728.61,1431.34,708.81z"/>
				</g>
				<path class="st29" d="M620.97,1651.53c0,10.35-75.01,18.74-167.55,18.74s-167.55-8.39-167.55-18.74
					c0-10.35,75.01-18.74,167.55-18.74S620.97,1641.17,620.97,1651.53z"/>
				<g>
					<path class="st8" d="M1328.36,958.85h-238.49c-6.98,0-12.63-5.65-12.63-12.63V707.73c0-6.98,5.65-12.63,12.63-12.63h238.49
						c6.98,0,12.63,5.65,12.63,12.63v238.49C1340.99,953.19,1335.33,958.85,1328.36,958.85z"/>
					<g>
						<path class="st3" d="M1256.23,852.94c-14.97,0-23-5.16-29.46-9.31c-5.27-3.39-9.08-5.83-17.67-5.83s-12.4,2.45-17.66,5.83
							c-6.45,4.15-14.48,9.31-29.45,9.31c-14.97,0-23-5.16-29.45-9.31c-5.27-3.39-9.08-5.83-17.66-5.83v-30
							c14.97,0,23,5.16,29.45,9.31c5.27,3.39,9.08,5.83,17.66,5.83c8.59,0,12.4-2.45,17.66-5.83c6.45-4.15,14.48-9.31,29.45-9.31
							c14.97,0,23,5.16,29.46,9.31c5.27,3.39,9.08,5.83,17.67,5.83s12.4-2.45,17.67-5.83c6.45-4.15,14.48-9.31,29.46-9.31v30
							c-8.59,0-12.4,2.45-17.67,5.83C1279.24,847.78,1271.2,852.94,1256.23,852.94z"/>
						<rect x="1114.87" y="879.02" class="st3" width="51.97" height="27.91"/>
						<rect x="1183.13" y="879.02" class="st3" width="51.97" height="27.91"/>
						<rect x="1251.38" y="879.02" class="st3" width="51.97" height="27.91"/>
						<polygon class="st3" points="1254.47,743.24 1209.45,775.93 1164.43,743.24 1114.87,779.55 1114.87,784.12 1199.21,784.12 
							1219.68,784.12 1303.35,784.12 1303.35,779.02 						"/>
					</g>
				</g>
			</g>
			<g id="_x30_2_3_x2F_4_5_" class="st30">
				<g>
					<path class="st31" d="M481.26,1488.5c-0.07-2.08-0.12-4.17-0.12-6.27c0-104.01,84.32-188.32,188.32-188.32
						c2.55,0,5.08,0.07,7.61,0.17l-0.52,21.07l-65.94,7.59l-88.35,68.74l-20.4,97.02H481.26z"/>
					<path class="st31" d="M-41.77,1367.64c33.39-45.76,87.43-75.5,148.41-75.5c101.41,0,183.62,82.21,183.62,183.62
						c0,4.02-0.14,8.01-0.4,11.97h-23.39l-8.86-62.67l-50.95-73.51l-51.95-25.56l-60.43-9.28l-72.66,20.87l-46.84,41.63
						L-41.77,1367.64z"/>
					<path class="st32" d="M566.57,1209.77l16.07-0.76l-13.81-43.95h43.98c20.79,0,37.71-16.92,37.71-37.71
						c0-20.79-16.92-37.71-37.71-37.71h-72.19v14.94h72.19c12.55,0,22.77,10.21,22.77,22.77c0,12.56-10.21,22.77-22.77,22.77h-64.38
						L566.57,1209.77z"/>
					<path class="st32" d="M497.74,1479.47c0-93.93,76.42-170.35,170.35-170.35c93.93,0,170.35,76.42,170.35,170.35
						c0,93.93-76.42,170.35-170.35,170.35C574.16,1649.82,497.74,1573.4,497.74,1479.47z M511.98,1479.47
						c0,86.08,70.03,156.11,156.11,156.11c86.08,0,156.11-70.03,156.11-156.11c0-86.08-70.03-156.11-156.11-156.11
						C582.01,1323.36,511.98,1393.39,511.98,1479.47z"/>
					<path class="st32" d="M-65.69,1479.47c0-94.19,76.62-170.81,170.81-170.81c94.18,0,170.81,76.62,170.81,170.81
						c0,94.19-76.63,170.81-170.81,170.81C10.93,1650.28-65.69,1573.66-65.69,1479.47z M-50.99,1479.47
						c0,86.08,70.03,156.11,156.11,156.11c86.08,0,156.11-70.03,156.11-156.11c0-86.08-70.03-156.11-156.11-156.11
						C19.04,1323.36-50.99,1393.39-50.99,1479.47z"/>
					<polygon class="st31" points="112.85,1484.04 264.7,1226.97 569.9,1226.97 659.61,1482.45 676.56,1476.5 582.64,1209.01 
						254.45,1209.01 97.38,1474.9 					"/>
					<polygon class="st31" points="347.54,1504.87 593.27,1254.44 580.45,1241.86 355.24,1471.37 244.15,1140.61 227.12,1146.34 
											"/>
					<path class="st32" d="M316.79,1496.41c0,19.28,15.62,34.9,34.9,34.9c19.28,0,34.9-15.63,34.9-34.9
						c0-19.28-15.63-34.9-34.9-34.9C332.42,1461.51,316.79,1477.13,316.79,1496.41z"/>
					<path class="st32" d="M104.71,1496.41l-2.59-0.36v-32.72l259.38-0.23l-7.14,67.6L104.71,1496.41z M108.11,1469.32v21.51
						l240.94,33.1l5.8-54.84L108.11,1469.32z"/>
					<path class="st32" d="M205.75,1158.88c0,12.8,10.37,18.31,23.17,18.31c12.8,0,99.11-3.89,99.11-16.69
						c0-23.17-86.31-24.79-99.11-24.79C216.12,1135.71,205.75,1146.09,205.75,1158.88z"/>
					<path class="st32" d="M575.2,1097.11c0,5.8-4.7,10.49-10.5,10.49h-52.3c-5.79,0-10.49-4.7-10.49-10.49l0,0
						c0-5.79,4.7-10.49,10.49-10.49h52.3C570.5,1086.62,575.2,1091.32,575.2,1097.11L575.2,1097.11z"/>
					<path class="st32" d="M650.12,1479.47c0,9.92,8.04,17.96,17.96,17.96c9.92,0,17.96-8.05,17.96-17.96
						c0-9.92-8.04-17.96-17.96-17.96C658.16,1461.51,650.12,1469.55,650.12,1479.47z"/>
					<path class="st32" d="M87.15,1479.47c0,9.92,8.04,17.96,17.96,17.96c9.92,0,17.96-8.05,17.96-17.96
						c0-9.92-8.04-17.96-17.96-17.96C95.19,1461.51,87.15,1469.55,87.15,1479.47z"/>
				</g>
				<g id="_x30_2_Standing_5_" class="st33">
					<g id="leg_58_">
						<path class="st4" d="M339.9,1108.15c0,0,38.19,244.68,40.23,264.04c2.04,19.36-15.03,63.62,8.5,198.21l31.36,1.58
							c1.6-58.14,4.36-160.11,4.75-183.75c0.53-33.55,6.81-211.34,6.81-211.34S359.11,1061.61,339.9,1108.15z"/>
						<g>
							<polygon class="st0" points="484.96,1651.19 388.36,1654.26 388.36,1609.46 431.53,1609.46 484.96,1634.42 							"/>
							<polygon class="st3" points="392.79,1609.46 425.02,1609.46 421.17,1586.15 391.15,1588.5 							"/>
							<polygon class="st26" points="421.17,1586.15 391.15,1588.5 388.64,1570.41 419.99,1571.99 							"/>
						</g>
					</g>
					<g id="hoodie_15_">
						<g id="head_29_">
							<path class="st26" d="M346.55,718.84c20.4-5.16,48.59-1.04,54.4,33.16c4.08,23.97,8.96,65.54-6.16,70.83
								c-6.7,2.35-32.34,0-32.34,0l5.39,28.49h-46.97l7.7-40.81C328.58,810.52,279.3,735.83,346.55,718.84z"/>
							<path class="st0" d="M386.03,723.34l-30.86,45.33c-5.47-10.24-13.73-7.54-18.08,0.75c-5.34,10.2,6.73,18.91,5.58,22.34
								c-1.15,3.43-11.43,18.38-14.1,18.76c-2.67,0.38-53.7-22.83-30.23-81.24C309.16,702.36,355.62,692.9,386.03,723.34z"/>
							<path class="st0" d="M352.75,678.02c3.77,16.19-4,28.65-18.72,32.08c-14.73,3.43-23.91-5.58-27.68-21.77
								c-3.77-16.19,1.17-30.15,15.89-33.59C336.97,651.31,348.98,661.82,352.75,678.02z"/>
						</g>
					</g>
				</g>
				<g id="_x30_2_Front_5_" class="st33">
					<g id="leg_54_">
						<path class="st4" d="M258.96,1172.75c0,0,11.4,78.29,15.35,179.71c3.46,88.92-15.35,89.36,0.71,214.44h30.58
							c1.35-82.21,3.33-81.97,36.73-415.49C342.33,1151.42,277.65,1125.99,258.96,1172.75z"/>
						<polygon class="st3" points="302.85,1625.74 274.31,1617.35 275.02,1584.84 304.13,1584.85 						"/>
						<polygon class="st26" points="275.02,1584.84 304.13,1584.85 305.61,1566.91 275.02,1566.91 						"/>
						<polygon class="st0" points="312.23,1656.85 262.39,1656.85 262.39,1644.26 274.31,1608.72 304.13,1608.72 312.23,1644.26 
													"/>
					</g>
					<g id="hoodie_14_">
						<path class="st34" d="M248.72,864.43c-10.31,71.03-11.8,347.19-11.8,347.19c73.88,42.81,205.34,1.48,205.34,1.48
							s-10.36-242.19-35.32-347.53c-4.7-19.85-60.17-31.69-99.18-23.78C289.74,845.45,253.08,851.19,248.72,864.43z"/>
					</g>
				</g>
				<path class="st35" d="M262.39,881.5c0,0-88.61,136.72-67.99,179.69c20.62,42.96,101.23,60.14,101.23,60.14l-8.32-216.62
					L262.39,881.5z"/>
				<path class="st36" d="M251.79,898.63c0,0,43.18,22.22,101.57-6.72C353.36,891.91,295.63,946.9,251.79,898.63z"/>
				<g id="hand_29_" class="st33">
					<path class="st26" d="M520.23,1074.41c-14.86,9.35-22.19,24.42-16.38,33.66c1.69,2.69,4.32,4.58,7.55,5.69
						c3.23,1.11,14.26-7.66,18.67-11.8c2.29-2.16,5.05-4.2,8.18-5.95c6.69-3.76,13.59-5.42,18.96-4.98
						c2.98-6.1,3.37-12.19,0.46-16.82C551.84,1064.96,535.08,1065.05,520.23,1074.41z"/>
					<path class="st34" d="M394.29,851.92c0,0,47.55,22.26,47.87,137.52c0.2,70.19,14.08,74.04,28.98,83.5
						c16.42,10.43,36.58,12.78,36.58,12.78l3.68,28.04c0,0-146.78,52.39-118.73-135.98C397.62,944.59,394.29,851.92,394.29,851.92z"
						/>
				</g>
				<g>
					<polygon class="st37" points="380.83,846.06 326.37,869.11 357,873.71 396.55,851.78 					"/>
					<polygon class="st37" points="307.7,841.51 278.54,869.11 259.27,862.06 289.77,843.97 					"/>
					<g class="st33">
						<polygon class="st38" points="235.61,857.96 235.61,858.14 126.08,879.89 195.16,1068.22 384.22,868.63 						"/>
						<polygon class="st39" points="384.22,1074.8 261.76,1099.79 261.76,894.1 384.22,869.11 						"/>
						<polygon class="st38" points="262.48,1099.79 126.08,1086.06 126.08,880.37 262.48,894.1 						"/>
					</g>
				</g>
			</g>
		</g>
		<g>
			<path class="st21" d="M913.07,338.28c0,82.08-148.62,369.3-148.62,369.3s-148.62-287.22-148.62-369.3
				c0-82.07,66.54-148.62,148.62-148.62C846.54,189.66,913.07,256.21,913.07,338.28z"/>
			<path class="st0" d="M853.36,350.67c0,49.1-39.81,88.9-88.91,88.9c-49.09,0-88.92-39.79-88.92-88.9
				c0-49.11,39.82-88.91,88.92-88.91C813.56,261.76,853.36,301.56,853.36,350.67z"/>
		</g>
		<g id="_x30_4_Walking_5_">
			<g>
				<path class="st0" d="M775.36,994.67c0.79,1.1,0.53,2.63-0.57,3.42l-42.27,30.24c-1.1,0.79-2.63,0.53-3.42-0.57l0,0
					c-0.79-1.1-0.53-2.63,0.57-3.42l42.27-30.24C773.04,993.32,774.57,993.57,775.36,994.67L775.36,994.67z"/>
				<path class="st26" d="M713.94,1020.06c0,0,16.17-12.57,17.34-13.15c1.17-0.58,14.09-3.62,14.54-3.7
					c0.44-0.08,11.45-2.12,11.45-2.12s1.07,4.18-2.02,6.39c-3.09,2.21-8.99,3.04-8.99,3.04l-18.8,13.6L713.94,1020.06z"/>
				<path class="st11" d="M706.22,1024.3c0,0,20.78-11.49,22.93-12.17c2.15-0.67,28.47-2.8,29.63-2.94c6.47-0.8,6.82,5.84,3.97,7.19
					c-2.85,1.35-7.25,1.71-7.25,1.71s2.94,6.04-3.05,7.15c4.81,6.26-1.92,8.81-1.92,8.81s0.22,4.15-0.71,5.51
					c-0.93,1.36-6.07,4.59-7.86,5.29c-1.79,0.7-30.87,6.55-30.87,6.55l-28.16,8.47l-3.31-25.63L706.22,1024.3z"/>
			</g>
			<g id="hand_15_">
				<path class="st17" d="M569.29,1079.25l126.9-56.85l22.07,36.11c0,0-94.71,74.42-142.49,76.72
					C528,1137.55,468.04,1007.13,569.29,1079.25z"/>
			</g>
			<path id="head_13_" class="st11" d="M578.89,738.96c20.29,1.26,45.02,13.33,40.31,46.52c-3.3,23.25-11.03,62.94-26.5,63.37
				c-6.85,0.19-29.75-9.51-29.75-9.51l-4.64,37.58l-42-23.59l19.09-35.29C535.39,818.03,512.01,734.82,578.89,738.96z"/>
			<g id="leg_28_">
				<path class="st11" d="M614.96,1397.03c-6.67-31.72-22.6-227.61-22.6-227.61s-128.74-64.78-136.88-16.82
					c0,0,103.11,201.53,109.17,219.33c6.06,17.8,1.92,55.62,26.27,116.18c12.17,30.28,50.18,131.46,50.18,131.46l31.75,14.22
					C672.84,1633.79,619.65,1419.39,614.96,1397.03z"/>
			</g>
			<g id="leg_27_">
				<path class="st11" d="M472.57,1131.57c-13.65,33.38,4.92,98.82-3.1,159.13c-8.02,60.29-8.55,70.43-45.17,143.76
					c-11.78,23.59-38.76,156.91-38.76,156.91l20.32,21.37c0,0,71.73-183.12,82.17-202.15c15.56-28.35,81.98-218.54,81.98-218.54
					S486.21,1098.18,472.57,1131.57z"/>
			</g>
			<path id="dress_6_" class="st17" d="M533.53,853.18c-20.15,1.25-44.21,8.23-51.73,57c-10.55,68.53-60.26,473.95-60.26,473.95
				l212.38,23.47c0,0-20.59-379.04-51.67-507.58C572.94,861.48,550.66,852.12,533.53,853.18z"/>
			<path id="hair_6_" class="st0" d="M542.95,725.62C542.95,725.62,542.95,725.62,542.95,725.62
				c-77.91,26.8-91.06,245.14-152.6,260.32c117.05,42.06,163.52-181.02,163.52-181.02c2.06-2.83-6.49-14.39,1.43-22.2
				c6.43-6.35,14.83-6.4,16.85,4.63c0,0,25.54-34.66,41.72-32.64C609.87,731.9,564.31,715.5,542.95,725.62z"/>
			<path class="st40" d="M571.53,805.01c0.44,1.37-0.31,2.85-1.68,3.29l0,0c-1.38,0.45-2.85-0.31-3.29-1.68l-5.36-16.59
				c-0.44-1.37,0.31-2.85,1.68-3.29l0,0c1.37-0.44,2.85,0.31,3.29,1.68L571.53,805.01z"/>
			<g id="female_7_">
				<g>
					<path class="st2" d="M638.72,1618.67c-1.68,1.07,3.46,35.13,6.95,35.9c3.49,0.77,86.91-23.74,90.25-29.96
						c1.76-3.27-4.35-13.39-6.24-13.33c-34.83,1.02-63.35-8.61-63.35-8.61s-7.29,5.49-4.97,9.58l1.56,1.54c0,0-3.67,6.44-8.82,7.52
						C648.95,1622.39,642.98,1615.94,638.72,1618.67z"/>
				</g>
				<g>
					<path class="st2" d="M385.22,1582.07c-1.96-0.38-21.72,27.83-19.72,30.8c2,2.97,79.31,42.74,86.02,40.54
						c3.52-1.15,6.08-12.69,4.67-13.96c-25.93-23.28-39.94-49.92-39.94-49.92s-9.06-1.05-10.2,3.51l0.06,2.19
						c0,0-7.09,2.13-11.57-0.63C390.06,1591.82,390.19,1583.04,385.22,1582.07z"/>
				</g>
			</g>
		</g>
	</g>
</g>
<g id="Mine_biletter">
</g>
<g id="Logg_inn_natt">
</g>
<g id="Logg_inn">
</g>
</svg>
