<svg xmlns="http://www.w3.org/2000/svg" xmlns:xlink="http://www.w3.org/1999/xlink" viewBox="0 0 2400 2000" style="enable-background:new 0 0 2400 2000" xml:space="preserve"><style>.st0{fill:#00242d}.st3{fill:#fff}.st8{fill:#0085a9}.st11{fill:#ff989b}.st15{fill:#2a3756}.st16{fill:#db807d}.st17{fill:#ffbb46}.st20{opacity:.32;fill:#fff}</style><g id="Logg_inn_natt"><g id="Bussvindu"><path class="st8" d="M1527.42 577.14c-153.69 26.38-259.38 143.33-532.73 63.73-171.12-49.83-423.68 90.92-446.82 273.8-32.34 255.58-159.76 456.42-67.29 597.42 164.95 251.5 667.74 276.67 891.21 61.19 176.95-170.63 396.24-115.37 582.61-263.83 151.64-120.79 159.62-419.94 27.93-580.21-133.67-162.69-319.54-175.34-454.91-152.1z"/><defs><path id="SVGID_00000012442298217061494790000003900828036826762899_" d="M1507.02 1258.71c0 28.58-23.17 51.76-51.76 51.76H760c-28.58 0-51.76-23.17-51.76-51.76V849.83c0-28.58 23.17-51.76 51.76-51.76h695.27c28.58 0 51.76 23.17 51.76 51.76v408.88z"/></defs><use xlink:href="#SVGID_00000012442298217061494790000003900828036826762899_" style="overflow:visible;fill:#006275"/><clipPath id="SVGID_00000021809696294531216590000007341687870795792802_"><use xlink:href="#SVGID_00000012442298217061494790000003900828036826762899_" style="overflow:visible"/></clipPath><path style="clip-path:url(#SVGID_00000021809696294531216590000007341687870795792802_);fill:#00242d" d="M1402.25 801.85h15.33v517.18h-15.33z"/><g id="_x30_3_3_x2F_4_1_" style="clip-path:url(#SVGID_00000021809696294531216590000007341687870795792802_)"><g id="_x30_3_Standing_2_"><g id="head_25_"><path class="st11" d="M1202.98 865.95c21.06-5.32 51.39 9.59 56.16 34.23 4.77 24.64 9.25 67.65-6.36 73.12-6.91 2.42-33.38 0-33.38 0l5.56 29.41h-48.49l7.95-42.13s-50.86-77.1 18.56-94.63z"/><path class="st0" d="M1223.35 896.98c-5.83 17.03.07 42.01-11.47 20.41-5.64-10.57-14.17-7.79-18.66.77-5.52 10.53 6.94 19.51 5.77 23.06-1.19 3.54-11.8 18.96-14.56 19.36-2.75.39-29.85-43.85-17.97-73.46 12.99-32.41 68.09-34.48 80.37-8.24-4.69-.08-17.72 1.25-23.48 18.1z"/></g><g id="leg_4_"><path class="st0" d="M1178.14 1267.1s49.99 256.92 52.1 276.9c2.11 19.99-4.21 117.79 18.85 208.54l44.04 1.45c1.65-60.01 4.5-172.35 4.89-196.77.55-34.63 1.66-230.99 1.66-230.99s-101.72-107.19-121.54-59.13z"/><path class="st8" d="m1253.14 1803.45 33.73 9.4v-58.87l-33.73-1.32z"/></g></g><path class="st8" d="M1352.52 1345.6s2.46 18.48 2.45 19.97c-.02 1.5 8.98 39.54 9.02 41.69.04 2.16-3.2 23.42-4.21 25.01-1.01 1.59-18.43 18.92-18.43 18.92s-4.28.42-3.55-3.98c.73-4.39-1.59-2.67-2.1-4.45-.51-1.78 7.81-18.71 7.81-18.71l1.5-11.95-2.78-2.89-10.49 23.63s-2.71 1.26-3.47-1.49c-.77-2.75 6.82-27.15 6.82-27.15s-2.68-17.3-3.07-21.25c-.39-3.95 1.73-14.71 1.73-14.71l-7.42-20.09 26.19-2.55z"/><g id="_x30_3_Front_1_"><g id="leg_3_"><path class="st8" d="m1161.08 1798.29-31.73-8.66.74-40.65h33.59z"/><path class="st0" d="M1105.38 1324.17s11.25 120.32 15.4 231.38c-7.28 92.84-.54 183.63.71 196.12l47 .08c.4-24.31 5.63-112.29 15.94-191.48 15.13-116.31 37.11-244.27 37.11-244.27s-96.87-40.1-116.16 8.17z"/></g><g id="hand_2_"><g id="hand_8_"><path class="st11" d="M1389.03 1240.27c-17.63 11.1-26.34 28.98-19.43 39.94 2 3.19 5.12 5.44 8.96 6.75 3.83 1.31 16.92-9.08 22.16-14.01 2.72-2.56 6-4.98 9.7-7.06 7.94-4.47 16.13-6.44 22.5-5.91 3.54-7.24 4-14.47.54-19.97-6.91-10.96-26.8-10.85-44.43.26z"/><path class="st0" d="M1273.24 1007.25c33.27 26.29 45.26 40.77 47.94 146.01 1.96 77.06 14.35 80.57 30.71 90.97 18.04 11.46 24.48 6.77 24.48 6.77l3.89 36.08s-161.2 55.38-130.4-151.51c5.44-36.46-6.28-114.15 23.38-128.32z"/></g></g><path class="st0" d="M1179.4 987.2c-21.62 2.12-60.18 23.09-66.31 29.19-10.64 73.32-12.6 354.44-12.6 354.44l205.77 1.53s5.07-249.42-25.22-356.97c-9.87-16.47-47.61-24.4-58.92-27.66-.88-.26-42.1-.6-42.72-.53z"/></g><path class="st0" d="M1122.25 1010c-52.68 30.93-84.84 140.02-74.93 197.97 9.54 55.75 100.57 92.48 100.57 92.48s.03-249-25.64-290.45z"/><path d="M1251.93 1786.74c-2.32.63-8.58 41.55-4.85 43.69 3.74 2.14 108.22 3.79 114.28-2.15 3.18-3.12-.21-16.92-2.4-17.53-40.34-11.27-69.63-32.51-69.63-32.51s-10.32 3.69-9.12 9.22l1.24 2.33s-6.51 6.07-12.81 5.48c-6.29-.59-10.84-10.13-16.71-8.53zm-129.94 10.29c.39-2.81 3.17-6.34 4.84-7.96 1.79-1.74 2.55-2.87 4.55-8.34 1.82-4.96 8.72-6.45 13.02-6.63v-.01c.05 0 .11 0 .15.01.05 0 .1 0 .15-.01v.01c4.29.18 11.2 1.67 13.02 6.63 2.01 5.47 2.76 6.6 4.55 8.34 1.67 1.62 4.46 5.15 4.84 7.96.39 2.82 3.06 35.2-3.19 35.72-3.01.25-11.23-.27-19.22-.1h-.3c-7.99-.16-16.21.35-19.22.1-6.25-.52-3.58-32.9-3.19-35.72z" style="fill:#006275"/></g><g id="_x30_2_Sitting" style="clip-path:url(#SVGID_00000021809696294531216590000007341687870795792802_)"><g id="head_7_"><path class="st11" d="M865.09 1028.82c19.3-4.88 45.97-.99 51.47 31.37 3.85 22.68 8.47 62-5.83 67.02-6.34 2.22-30.59 0-30.59 0l5.1 26.95H840.8l7.29-38.61c-.01 0-46.63-70.66 17-86.73z"/><path class="st0" d="M884.45 1054.69c-5.56 16.26.07 40.11-10.95 19.48-5.39-10.09-13.53-7.44-17.81.74-5.27 10.05 6.63 18.63 5.51 22.01-1.13 3.38-8.76 20.23-13.9 18.48-27.84-9.48-41.04-38.31-33.29-67.76 10.21-38.78 64.95-43.9 91.86-10.23-4.48-.08-15.92 1.19-21.42 17.28z"/><path class="st0" d="M870.95 990.19c3.57 15.31-3.78 27.1-17.72 30.35-13.93 3.25-22.61-5.28-26.18-20.59-3.57-15.31 1.1-28.53 15.03-31.77 13.94-3.25 25.3 6.7 28.87 22.01z"/></g><g id="leg_15_"><path d="M1016.27 1520.73c8.71 16.23 12.08 5.66 35.77 65.03 12.97 32.52 40.57 70.88 55.77 92.29l28.97-10.83c-19.38-51.49-64.35-174.01-76.14-193.73-16.29-27.25-158.06-8.23-158.06-8.23s-52.87-34.3-89.24-10.01c-10.19 6.81 194.23 49.26 202.93 65.48z" style="fill:#1c273f"/><path class="st15" d="m1218.95 1719.1-85.17 33.28-8.68-30.89 33.02-22.7 55.53 5.36z"/><path class="st3" d="m1127.53 1719.93 25.33-17.53-11.35-21.13-26.03 11.58z"/><path class="st16" d="m1141.51 1681.27-26.03 11.58-7.67-14.8 27.65-10.32z"/></g><g id="leg_14_"><path class="st15" d="M787.1 1495.77c4.15 68.7 187.69 20.56 193.68 37.97 6 17.41 2.23 25.64 12.46 79.66 5.95 31.4 23.44 76.39 35.01 99.96l28.61-5.68c-10.87-53.93-24.26-183.13-28.94-205.01-6.63-31.05-146.32-43.05-146.32-43.05s-45.83-43.07-85.62-24.93c-11.14 5.08-9.51 50.67-8.88 61.08zm331.01 285.93-91.4 2.74 2.2-32.01 38.72-10.29 50.51 23.7z"/><path class="st3" d="m1031.72 1751.78 32.22-8.66-4.73-23.06-29.75 2.17z"/><path class="st16" d="m1059.21 1720.06-29.75 2.17-1.21-8.87 28.61-5.68z"/></g><g id="hoodie_7_"><path class="st17" d="M892.9 1143.87s-31.74 2.84-49.03-4.69c-21.77-9.49-52.76-20.2-68.73-14.42-12.02 4.34-16.85 73.84 21.76 76.46 69 4.68 96-57.35 96-57.35z"/><path class="st17" d="M855.42 1139.51c-19.73 1.23-39.14 6-51.85 43.26-18.13 51.31-30.96 140.75-31.43 310.45l165.28-32.51c-16.59-86.98-14.09-288.97-44.53-316.84-12.65-5.32-20.69-5.4-37.47-4.36z"/></g><g id="hand_9_"><path class="st17" d="M844.14 1182.77c13.9-.09 33.81 63.92 4.21 182.28l97.42 82.56-25.08 33.11s-92.19-56.61-111.42-99.43c-19.22-42.82-15.09-198.19 34.87-198.52z"/><path class="st16" d="m940.99 1453.93 15.98 17.49-10.69 12.54-19.13-11.7z"/><path class="st16" d="M979.84 1466.12c-15.66-5.53-31.15-2.12-34.59 7.61-1 2.83-.86 5.89.22 8.94s14.05 6.08 19.72 6.92c2.95.44 6.08 1.29 9.22 2.57 6.72 2.75 12.01 6.9 14.83 11.14 6.28-1.37 11.02-4.66 12.75-9.54 3.42-9.73-6.49-22.11-22.15-27.64z"/></g></g><path d="M1409.63 801.85h-604c-116.55 0-92.23 41.3-92.23 92.24v42.15c0-50.94 41.3-92.24 92.23-92.24h604c50.94 0 92.24 41.3 92.24 92.24v-42.15c-.01-50.94 26.34-92.24-92.24-92.24z" style="opacity:.2;fill:#00242d"/><path class="st8" d="m653.28 761.98-44.07 702.54 964.15-80.66-5.76-651.63-914.32 29.75zm853.74 500.51c0 28.58-23.17 51.76-51.76 51.76H760c-28.58 0-51.76-23.17-51.76-51.76V853.61c0-28.58 23.17-51.76 51.76-51.76h695.27c28.58 0 51.76 23.17 51.76 51.76v408.88z"/><path class="st0" d="M1461.44 1326.76H753.82c-31.73 0-57.55-26.12-57.55-58.22V847.56c0-32.1 25.82-58.22 57.55-58.22h707.62c31.73 0 57.55 26.12 57.55 58.22v420.97c0 32.11-25.82 58.23-57.55 58.23zM760 806.64c-25.9 0-46.97 21.07-46.97 46.97v408.88c0 25.9 21.07 46.97 46.97 46.97h695.27c25.9 0 46.97-21.07 46.97-46.97V853.61c0-25.9-21.07-46.97-46.97-46.97H760z"/><path class="st3" d="M1845.96 1029.28c-21.74 0-33.4-7.49-42.77-13.51-7.65-4.92-13.18-8.47-25.65-8.47s-18 3.55-25.65 8.47c-9.37 6.02-21.03 13.51-42.77 13.51-21.74 0-33.4-7.49-42.77-13.51-7.65-4.92-13.18-8.47-25.65-8.47v-43.56c21.74 0 33.4 7.49 42.77 13.51 7.65 4.92 13.18 8.47 25.65 8.47 12.47 0 18-3.55 25.65-8.47 9.37-6.02 21.03-13.51 42.77-13.51 21.74 0 33.4 7.49 42.77 13.51 7.65 4.92 13.18 8.47 25.65 8.47 12.47 0 18-3.55 25.65-8.47 9.37-6.02 21.03-13.51 42.77-13.51v43.56c-12.47 0-18 3.55-25.65 8.47-9.37 6.02-21.03 13.51-42.77 13.51zm-205.27 37.87h75.47v40.52h-75.47zm99.11 0h75.47v40.52h-75.47zm99.11 0h75.47v40.52h-75.47zm4.49-197.17-65.38 47.46-65.38-47.46-71.95 52.73v6.63h273.69v-7.41z"/></g><circle class="st0" cx="651.84" cy="608.1" r="328.03"/><g style="opacity:.7"><path class="st20" d="M720.66 512.54c-10.53 57.64 37.64 244.25-51.37 336.89-23.11 24.05-50.02 53.36-76.79 81.33 174.77 32.23 344.12-80.99 380.4-255.88 31.2-150.41-46.04-298.09-178.42-361.91-20.71 32.89-55.58 99.75-73.82 199.57z"/><path class="st20" d="M676.37 509.81c15.5-96.28 65.18-169.6 95.26-206.81a330.012 330.012 0 0 0-53.19-15.8c-177.33-36.78-350.89 77.15-387.68 254.47-30.58 147.42 43.01 292.22 170.58 358.01 43.15-29.72 89.53-64.51 120.41-95.73 86.51-87.45 42.31-217.69 54.62-294.14z"/><path d="M555.46 781.15c9.71 4.66 19.15 8.89 27.98 12.53 9.54 3.94 19.45 10.53 29.43 18.92 15.36 12.92 30.86 30.08 45.38 48.41 18.9 23.84 36.13 49.63 49.21 70.47 7.37-1.27 14.68-2.78 21.9-4.54-14.01-22.75-33.81-52.83-56.14-80.63l19.11-7.66 105.82 63.05c2.94-1.47 5.86-2.97 8.75-4.53l-24.81-14.78 75.18-110.42 56.64 33.49c1.68-2.24 3.34-4.5 4.97-6.78l-130.03-76.87 28.02-53.76c20.34-2.31 35.91-4.59 44.31-6.77 12.8-3.32 28.1-10.02 44.12-18.4l59.95 61.77c.94-3.06 1.83-6.14 2.68-9.25l-54.96-56.63c23.01-12.6 46.92-28.06 66.65-41.54-.27-8.16-.85-16.25-1.72-24.29-22.32 15.6-52.52 35.62-80.04 50.26l-47.21-48.63 48.41-118.65 56.66 29.14c-1.65-4.07-3.38-8.09-5.19-12.08l-48.29-24.83 13.85-33.96c-1.92-2.62-3.87-5.2-5.87-7.76l-15.45 37.87-70.47-36.23 29.7-58.02c-2.23-1.74-4.48-3.47-6.76-5.16l-30.38 59.35-55.24-28.4c-1.09 2.51-2.19 5.1-3.29 7.72l54.71 28.13-29.63 57.87-47.05-21.41-1.75 3.84-1.72 3.77.6.28 131.96 60.05-22.49 55.12-122.89-5.08c.16 2.74.32 5.55.49 8.4l123.33 5.1 46.19 47.58c-12.56 6.31-24.31 11.25-34.18 13.81-17.52 4.54-69.67 9.67-131.56 14.5-15.42 1.2-31.45 2.38-47.69 3.53-103.33 7.32-215.56 13.33-237.58 14.48l160.84-57.5c1.66.66 3.38 1.22 5.19 1.59 16.42 3.41 32.55-7.18 35.96-23.6 3.15-15.2-5.69-30.13-20.06-34.98l8.64-135.96L730.1 289.84c-2.96-.73-5.93-1.41-8.93-2.06l-58.94 78.18-102.29-72.53c-3.38.99-6.74 2.01-10.08 3.11l12.63 8.95-157.62 148.04-27.9-24.2c-1.54 2.36-3.04 4.75-4.52 7.15l68.72 59.6-68.72 97.33-43.81-40.38c-.57 3.32-1.09 6.63-1.56 9.95l40.51 37.33-40.08 56.77c.59 3.92 1.26 7.81 1.99 11.68l43.71-61.91L426 678.02l-79.24 50.52c2.6 6.58 5.41 13.06 8.42 19.44l77.06-49.12c6.06 7.83 15.68 16.55 27.52 25.57l-79.58 67.47c1.57 2.32 3.17 4.62 4.8 6.9l81.69-69.25c7.66 5.52 16.05 11.1 24.87 16.6l-32.08 17.45 30.84 100.12-14.29 21.42c2.35 1.49 4.72 2.96 7.12 4.4l72.33-108.39zm235.59-308.12 29.44-57.51 71.11 36.56-22.95 56.26-77.6-35.31zm59 294.68-75.16 110.4-72.78-43.36 35.23-14.1 47.64-91.41 65.07 38.47zM450.66 660.52l72.06-95.57 58.29 20.41c-.8 9.62 3.06 18.81 9.91 25.03l-140.26 50.13zm182.23-68.18c-2.47 11.9-14.16 19.58-26.07 17.11-11.91-2.47-19.58-14.16-17.11-26.06 2.47-11.9 14.16-19.58 26.06-17.11 11.91 2.46 19.59 14.15 17.12 26.06zm-20.16-34.83c-13.12-.62-25.23 7.33-29.85 19.62l-54.87-19.2 92.5-122.69-7.78 122.27zm-160.12-62.56 48.49-57.19 78.15 38.32-58.67 77.82-67.97-58.95zm204.6-122.28-72.83 96.61-77.69-38.1 87.49-103.2 63.03 44.69zm-69.89-49.56-88.39 104.26-35.46-17.39 106-99.52 17.85 12.65zm-176.1 135.93 45.73-42.94 36.4 17.85-47.06 55.51-35.07-30.42zm-32.95 140.61 69.23-98.07 68.02 59.01-83.78 111.12-53.47-72.06zm77.07 93.98c39.39-2.11 132.22-7.27 219.92-13.49 16.66-1.18 33.13-2.39 49.03-3.64 30.69-2.4 59.17-4.89 82.57-7.36l-75.5 144.89-48.8 19.53-14.9 5.96c-12.86-15.48-26.44-29.96-40.15-41.71-12.07-10.35-24.24-18.58-36.1-23.47-58.98-24.32-114.41-60.12-136.07-80.71zm14.14 74.04 30.3-16.48c15.52 9.33 32.04 18.31 48.08 26.26l-51.56 77.28-26.82-87.06z" style="fill:#e3f2f7"/></g><path style="fill:#ff282e" d="M503.85 659.29V521.43l-98.17-82.9 3.64-4.32 100.18 84.6v134.53l245.85-12.68-23.09-53.5 5.12-95.36 19.04-74.97-97.48-97.47v-11.62h5.65v9.28l98.1 98.09-19.77 77.81-4.95 93.22 25.79 59.75z"/><path class="st17" d="m881.43 803.16-40.31-23.86-196.34-2.2V565.45l-28.45-20.29-253.46-8.15.18-5.65 255.17 8.21 32.21 22.97v208.97l192.27 2.16 41.61 24.63z"/><path class="st3" d="m511.81 871.85-4.68-3.16 15.78-23.41 33.64-8.34 74.26-64.88V512.1h-95.59V370.12h103.93l43.68-61.3 4.6 3.27-45.37 63.68H540.87v130.69h95.59v268.16l-77.22 67.48-32.86 8.14z"/></g></svg>