<svg width="32" height="96" fill="none" xmlns="http://www.w3.org/2000/svg"><path fill-rule="evenodd" clip-rule="evenodd" d="m29.992 19.19-1.4-8.592A.706.706 0 0 0 27.9 10H3.4c-.7 0-1.4.716-1.4 1.434v9.85c0 .356.256.716.6.716h3.094c.472-1.438 1.812-2.4 3.406-2.4s2.936.962 3.406 2.4h7.088c.472-1.438 1.812-2.4 3.406-2.4s2.934.962 3.406 2.4H29.3a.71.71 0 0 0 .7-.716v-1.976c0-.04-.004-.08-.008-.12v.002Zm-5.68-5.61a.71.71 0 0 1 .7-.716h2.174a.7.7 0 0 1 .694.622l.37 2.864a.72.72 0 0 1-.405.744.687.687 0 0 1-.289.064h-2.544a.708.708 0 0 1-.7-.716V13.58Zm-8.4 0c0-.396.314-.716.7-.716h5.6c.386 0 .7.32.7.716v2.86a.707.707 0 0 1-.7.716h-5.6a.708.708 0 0 1-.7-.716v-2.86Zm-8.4 0c0-.396.314-.716.7-.716h5.6c.388 0 .702.32.702.716v2.86a.71.71 0 0 1-.7.716h-5.6a.708.708 0 0 1-.7-.716v-2.86h-.002Zm-4.2 0a.71.71 0 0 1 .7-.716h1.402c.386 0 .698.32.698.716v2.86a.706.706 0 0 1-.698.716h-1.4a.708.708 0 0 1-.7-.716v-2.86h-.002Z" fill="#A2AD00"/><path d="M21 23.6a2 2 0 1 1 3.995-.173A2 2 0 0 1 21 23.6Zm-11.9-2a2 2 0 1 0 0 4 2 2 0 0 0 0-4Z" fill="#A2AD00"/><path fill-rule="evenodd" clip-rule="evenodd" d="M26.636 46.912H29.5l-.002-.002a.5.5 0 0 1 .44.74l-3.222 5.926-.031-.017c-.788-.43-1.883-1.025-3.659-1.025-1.4 0-2.1.366-2.8.733-.7.366-1.4.733-2.8.733s-2.1-.367-2.8-.733c-.7-.367-1.4-.733-2.8-.733s-2.1.366-2.8.733c-.7.366-1.4.733-2.8.733-1.234 0-1.924-.284-2.55-.604l2.992-6.094a.7.7 0 0 1 .628-.39H8.63a.1.1 0 0 0 .094-.068l2.2-4.448A.708.708 0 0 1 11.56 42h6.778c.042 0 .094-.028.094-.108v-.926a.9.9 0 0 1 .488-.804l2.426-1.412c.406-.2.688.024.834.396l.68 1.65a.1.1 0 0 0 .094.068h1.108a.696.696 0 0 1 .66.484l1.814 5.492a.106.106 0 0 0 .1.072Zm-11.96-.117a.4.4 0 0 0 .118-.283h.002v-1.6c0-.22-.18-.4-.4-.4h-2.9a.508.508 0 0 0-.456.282l-.762 1.56c-.206.362.016.558.266.558h3.85a.4.4 0 0 0 .283-.117Zm4.406-.003a.408.408 0 0 0 .12-.288V44.92a.407.407 0 0 0-.408-.408H16.01a.407.407 0 0 0-.408.408v1.584a.408.408 0 0 0 .408.408h2.784a.408.408 0 0 0 .288-.12Zm1.324.122 3.864-.002c.218 0 .422-.128.316-.458l-.386-1.56a.505.505 0 0 0-.49-.382h-3.306a.404.404 0 0 0-.404.402v1.598a.405.405 0 0 0 .406.402Z" fill="#007C92"/><path d="M14.214 57.152c.757.398 1.615.848 3.26.848 1.643 0 2.503-.45 3.258-.846l.004-.002c.662-.348 1.182-.62 2.336-.62.826 0 1.326.138 1.786.344l.958-1.76c-.652-.31-1.458-.584-2.744-.584-1.644 0-2.506.45-3.264.848l-.005.003c-.657.344-1.178.617-2.329.617-1.151 0-1.672-.273-2.33-.617l-.004-.003c-.758-.398-1.62-.848-3.266-.848s-2.506.45-3.266.848h-.001c-.66.346-1.182.62-2.335.62-1.48 0-2.874-.87-2.982-.937l-.004-.003-.392-.216L2 56.632l.258.142c.076.05 1.91 1.226 4.014 1.226 1.646 0 2.506-.45 3.266-.85h.001c.66-.346 1.182-.62 2.335-.62s1.675.274 2.335.62h.001l.004.002Z" fill="#007C92"/><path fill-rule="evenodd" clip-rule="evenodd" d="M27.878 74.151a.7.7 0 0 1 .246.393l1.858 8.216a.904.904 0 0 1-.148.702l-1.624 2.246a.7.7 0 0 1-.568.29H4.356a.7.7 0 0 1-.566-.29L2.166 83.46a.902.902 0 0 1-.148-.7l1.86-8.216a.7.7 0 0 1 .682-.546h10.25l3.4-2.332-3.402-2.868h1.928l2.988 2.358a.664.664 0 0 1 .284.552c0 .244-.098.36-.298.51l-2.578 1.78h10.31a.7.7 0 0 1 .436.153Zm-20.431 6.48a.7.7 0 0 0 .053-.267v-2.802a.7.7 0 0 0-.7-.7H5.316a.7.7 0 0 0-.68.55l-.62 2.8a.7.7 0 0 0 .684.852h2.1a.701.701 0 0 0 .647-.432Zm6.353.433a.7.7 0 0 0 .7-.7l-.002-.004v-2.8a.7.7 0 0 0-.7-.7h-4.2a.7.7 0 0 0-.7.7v2.804a.7.7 0 0 0 .7.7H13.8Zm7.02 0a.7.7 0 0 0 .7-.7V77.56a.7.7 0 0 0-.7-.7h-4.2a.7.7 0 0 0-.7.7v2.804a.7.7 0 0 0 .7.7h4.2Zm6.604-.07a.7.7 0 0 0 .242-.192h-.002a.693.693 0 0 0 .14-.59l-.618-2.8a.7.7 0 0 0-.684-.55H23.62a.7.7 0 0 0-.7.7v2.802a.7.7 0 0 0 .7.7h3.502a.699.699 0 0 0 .302-.07Z" fill="#000"/><path d="M28 87.998H4v2h24v-2Z" fill="#000"/></svg>