<?xml version="1.0" encoding="utf-8"?>
<!-- Generator: Adobe Illustrator 26.0.1, SVG Export Plug-In . SVG Version: 6.00 Build 0)  -->
<svg version="1.1" xmlns="http://www.w3.org/2000/svg" xmlns:xlink="http://www.w3.org/1999/xlink" x="0px" y="0px"
	 viewBox="0 0 2400 2000" style="enable-background:new 0 0 2400 2000;" xml:space="preserve">
<style type="text/css">
	.st0{fill:#00242D;}
	.st1{opacity:0.2;}
	.st2{fill:#006275;}
	.st3{fill:#FFFFFF;}
	.st4{fill:#E3F2F7;}
	.st5{fill:#E6F1F4;}
	.st6{fill:#030B0F;}
	.st7{fill:#000F0F;}
	.st8{fill:#0085A9;}
	.st9{clip-path:url(#SVGID_00000079471328092225532710000003330815398194749339_);fill:#00242D;}
	.st10{clip-path:url(#SVGID_00000079471328092225532710000003330815398194749339_);}
	.st11{fill:#FF989B;}
	.st12{display:none;fill:#00AC79;}
	.st13{display:none;fill:#00242D;}
	.st14{fill:#1C273F;}
	.st15{fill:#2A3756;}
	.st16{fill:#DB807D;}
	.st17{fill:#FFBB46;}
	.st18{opacity:0.2;fill:#00242D;}
	.st19{opacity:0.7;}
	.st20{opacity:0.32;fill:#FFFFFF;}
	.st21{fill:#FF282E;}
	.st22{clip-path:url(#SVGID_00000070825428396697651730000009180812925102228141_);fill:#00242D;}
	.st23{clip-path:url(#SVGID_00000070825428396697651730000009180812925102228141_);}
	.st24{fill:#FFCBCD;}
	.st25{fill:#FFB2B4;}
	.st26{fill:#FF7E81;}
	.st27{display:none;fill:#FFBB46;}
	.st28{fill:#8E9093;}
	.st29{display:none;opacity:0.2;fill:#231F20;}
	.st30{display:none;}
	.st31{display:inline;fill:#006275;}
	.st32{display:inline;fill:#3A3A3A;}
	.st33{display:inline;}
	.st34{fill:#FFD690;}
	.st35{display:inline;fill:#FFD690;}
	.st36{display:inline;opacity:0.57;fill:#CECCCC;}
	.st37{display:inline;fill:#2A3756;}
	.st38{fill:#4A940D;}
	.st39{fill:#49890D;}
	.st40{display:none;fill:#E3F2F7;}
	.st41{fill:#F0F0F0;}
	.st42{fill:#DCE4E6;}
	.st43{fill:#020D10;}
	.st44{fill:#09171D;}
	.st45{clip-path:url(#SVGID_00000169538484958303921610000003814783928225049254_);fill:#00242D;}
	.st46{clip-path:url(#SVGID_00000169538484958303921610000003814783928225049254_);}
	.st47{clip-path:url(#SVGID_00000047055993423881837100000015494496787276596114_);fill:#00242D;}
	.st48{clip-path:url(#SVGID_00000047055993423881837100000015494496787276596114_);}
	.st49{clip-path:url(#SVGID_00000111912707458914666660000003743670819582253726_);fill:#00242D;}
	.st50{clip-path:url(#SVGID_00000111912707458914666660000003743670819582253726_);}
	.st51{clip-path:url(#SVGID_00000047761315667133158030000018253934730942077861_);fill:#00242D;}
	.st52{clip-path:url(#SVGID_00000047761315667133158030000018253934730942077861_);}
</style>
<g id="Bakgrunner">
</g>
<g id="Mobil">
</g>
<g id="Data">
</g>
<g id="Mine_billetter_natt">
</g>
<g id="Mine_biletter">
</g>
<g id="Logg_inn_natt">
	<g>
		<g id="Bussvindu">
			<path class="st8" d="M1527.42,577.14c-153.69,26.38-259.38,143.33-532.73,63.73c-171.12-49.83-423.68,90.92-446.82,273.8
				c-32.34,255.58-159.76,456.42-67.29,597.42c164.95,251.5,667.74,276.67,891.21,61.19c176.95-170.63,396.24-115.37,582.61-263.83
				c151.64-120.79,159.62-419.94,27.93-580.21C1848.66,566.55,1662.79,553.9,1527.42,577.14z"/>
			<g>
				<defs>
					<path id="SVGID_00000012442298217061494790000003900828036826762899_" d="M1507.02,1258.71c0,28.58-23.17,51.76-51.76,51.76
						H760c-28.58,0-51.76-23.17-51.76-51.76V849.83c0-28.58,23.17-51.76,51.76-51.76h695.27c28.58,0,51.76,23.17,51.76,51.76
						V1258.71z"/>
				</defs>
				<use xlink:href="#SVGID_00000012442298217061494790000003900828036826762899_"  style="overflow:visible;fill:#006275;"/>
				<clipPath id="SVGID_00000021809696294531216590000007341687870795792802_">
					<use xlink:href="#SVGID_00000012442298217061494790000003900828036826762899_"  style="overflow:visible;"/>
				</clipPath>
				
					<rect x="1402.25" y="801.85" style="clip-path:url(#SVGID_00000021809696294531216590000007341687870795792802_);fill:#00242D;" width="15.33" height="517.18"/>
				<g id="_x30_3_3_x2F_4_1_" style="clip-path:url(#SVGID_00000021809696294531216590000007341687870795792802_);">
					<g id="_x30_3_Standing_2_">
						<g id="head_25_">
							<path class="st11" d="M1202.98,865.95c21.06-5.32,51.39,9.59,56.16,34.23c4.77,24.64,9.25,67.65-6.36,73.12
								c-6.91,2.42-33.38,0-33.38,0l5.56,29.41h-48.49l7.95-42.13C1184.42,960.58,1133.56,883.48,1202.98,865.95z"/>
							<path class="st0" d="M1223.35,896.98c-5.83,17.03,0.07,42.01-11.47,20.41c-5.64-10.57-14.17-7.79-18.66,0.77
								c-5.52,10.53,6.94,19.51,5.77,23.06c-1.19,3.54-11.8,18.96-14.56,19.36c-2.75,0.39-29.85-43.85-17.97-73.46
								c12.99-32.41,68.09-34.48,80.37-8.24C1242.14,878.8,1229.11,880.13,1223.35,896.98z"/>
						</g>
						<g id="leg_4_">
							<path class="st0" d="M1178.14,1267.1c0,0,49.99,256.92,52.1,276.9c2.11,19.99-4.21,117.79,18.85,208.54l44.04,1.45
								c1.65-60.01,4.5-172.35,4.89-196.77c0.55-34.63,1.66-230.99,1.66-230.99S1197.96,1219.04,1178.14,1267.1z"/>
							<polygon class="st8" points="1253.14,1803.45 1286.87,1812.85 1286.87,1780.73 1286.87,1753.98 1253.14,1752.66 							"/>
						</g>
					</g>
					<g>
						<path class="st8" d="M1352.52,1345.6c0,0,2.46,18.48,2.45,19.97c-0.02,1.5,8.98,39.54,9.02,41.69
							c0.04,2.16-3.2,23.42-4.21,25.01c-1.01,1.59-18.43,18.92-18.43,18.92s-4.28,0.42-3.55-3.98c0.73-4.39-1.59-2.67-2.1-4.45
							c-0.51-1.78,7.81-18.71,7.81-18.71l1.5-11.95l-2.78-2.89l-10.49,23.63c0,0-2.71,1.26-3.47-1.49
							c-0.77-2.75,6.82-27.15,6.82-27.15s-2.68-17.3-3.07-21.25c-0.39-3.95,1.73-14.71,1.73-14.71l-7.42-20.09L1352.52,1345.6z"/>
					</g>
					<g id="_x30_3_Front_1_">
						<g id="leg_3_">
							<polygon class="st8" points="1161.08,1798.29 1129.35,1789.63 1130.09,1748.98 1163.68,1748.98 							"/>
							<path class="st0" d="M1105.38,1324.17c0,0,11.25,120.32,15.4,231.38c-7.28,92.84-0.54,183.63,0.71,196.12l47,0.08
								c0.4-24.31,5.63-112.29,15.94-191.48c15.13-116.31,37.11-244.27,37.11-244.27S1124.67,1275.9,1105.38,1324.17z"/>
						</g>
						<g id="hand_2_">
							<path class="st12" d="M1263.01,1001.2c0,0,74.23,24.28,88.74,201.87c9.62,117.67,8.87,163.58,8.87,163.58l-33.7,0.48
								c0,0-65.88-164.63-71.84-237.68C1252.25,1094.93,1263.01,1001.2,1263.01,1001.2z"/>
							<g id="hand_8_">
								<path class="st11" d="M1389.03,1240.27c-17.63,11.1-26.34,28.98-19.43,39.94c2,3.19,5.12,5.44,8.96,6.75
									c3.83,1.31,16.92-9.08,22.16-14.01c2.72-2.56,6-4.98,9.7-7.06c7.94-4.47,16.13-6.44,22.5-5.91c3.54-7.24,4-14.47,0.54-19.97
									C1426.55,1229.05,1406.66,1229.16,1389.03,1240.27z"/>
								<path class="st0" d="M1273.24,1007.25c33.27,26.29,45.26,40.77,47.94,146.01c1.96,77.06,14.35,80.57,30.71,90.97
									c18.04,11.46,24.48,6.77,24.48,6.77l3.89,36.08c0,0-161.2,55.38-130.4-151.51
									C1255.3,1099.11,1243.58,1021.42,1273.24,1007.25z"/>
							</g>
						</g>
						<path class="st0" d="M1179.4,987.2c-21.62,2.12-60.18,23.09-66.31,29.19c-10.64,73.32-12.6,354.44-12.6,354.44l205.77,1.53
							c0,0,5.07-249.42-25.22-356.97c-9.87-16.47-47.61-24.4-58.92-27.66C1221.24,987.47,1180.02,987.13,1179.4,987.2z"/>
					</g>
					<path class="st0" d="M1122.25,1010c-52.68,30.93-84.84,140.02-74.93,197.97c9.54,55.75,100.57,92.48,100.57,92.48
						S1147.92,1051.45,1122.25,1010z"/>
					<g>
						<path class="st2" d="M1251.93,1786.74c-2.32,0.63-8.58,41.55-4.85,43.69c3.74,2.14,108.22,3.79,114.28-2.15
							c3.18-3.12-0.21-16.92-2.4-17.53c-40.34-11.27-69.63-32.51-69.63-32.51s-10.32,3.69-9.12,9.22l1.24,2.33
							c0,0-6.51,6.07-12.81,5.48C1262.35,1794.68,1257.8,1785.14,1251.93,1786.74z"/>
						<path class="st2" d="M1121.99,1797.03c0.39-2.81,3.17-6.34,4.84-7.96c1.79-1.74,2.55-2.87,4.55-8.34
							c1.82-4.96,8.72-6.45,13.02-6.63v-0.01c0.05,0,0.11,0,0.15,0.01c0.05,0,0.1,0,0.15-0.01v0.01c4.29,0.18,11.2,1.67,13.02,6.63
							c2.01,5.47,2.76,6.6,4.55,8.34c1.67,1.62,4.46,5.15,4.84,7.96c0.39,2.82,3.06,35.2-3.19,35.72
							c-3.01,0.25-11.23-0.27-19.22-0.1v0c-0.05,0-0.1,0-0.15,0s-0.1,0-0.15,0v0c-7.99-0.16-16.21,0.35-19.22,0.1
							C1118.93,1832.23,1121.6,1799.85,1121.99,1797.03z"/>
					</g>
				</g>
				<g id="_x30_2_Sitting" style="clip-path:url(#SVGID_00000021809696294531216590000007341687870795792802_);">
					<g id="head_7_">
						<path class="st11" d="M865.09,1028.82c19.3-4.88,45.97-0.99,51.47,31.37c3.85,22.68,8.47,62-5.83,67.02
							c-6.34,2.22-30.59,0-30.59,0l5.1,26.95h-44.44l7.29-38.61C848.08,1115.55,801.46,1044.89,865.09,1028.82z"/>
						<path class="st13" d="M902.43,1033.08c0,0-14.79,3.84-20.96,14.76c-5.76,10.21-8.23,28.12-8.23,28.12
							c-5.17-9.69-12.99-7.14-17.1,0.7c-5.06,9.65,6.36,17.88,5.28,21.14c-1.09,3.25-10.81,17.38-13.34,17.75
							c-2.53,0.36-50.81-21.6-28.6-76.86C829.72,1013.22,873.66,1004.28,902.43,1033.08z"/>
						<path class="st0" d="M884.45,1054.69c-5.56,16.26,0.07,40.11-10.95,19.48c-5.39-10.09-13.53-7.44-17.81,0.74
							c-5.27,10.05,6.63,18.63,5.51,22.01c-1.13,3.38-8.76,20.23-13.9,18.48c-27.84-9.48-41.04-38.31-33.29-67.76
							c10.21-38.78,64.95-43.9,91.86-10.23C901.39,1037.33,889.95,1038.6,884.45,1054.69z"/>
						<path class="st0" d="M870.95,990.19c3.57,15.31-3.78,27.1-17.72,30.35c-13.93,3.25-22.61-5.28-26.18-20.59
							c-3.57-15.31,1.1-28.53,15.03-31.77C856.02,964.93,867.38,974.88,870.95,990.19z"/>
					</g>
					<g id="leg_15_">
						<path class="st14" d="M1016.27,1520.73c8.71,16.23,12.08,5.66,35.77,65.03c12.97,32.52,40.57,70.88,55.77,92.29l28.97-10.83
							c-19.38-51.49-64.35-174.01-76.14-193.73c-16.29-27.25-158.06-8.23-158.06-8.23s-52.87-34.3-89.24-10.01
							C803.15,1462.06,1007.57,1504.51,1016.27,1520.73z"/>
						<g>
							<polygon class="st15" points="1218.95,1719.1 1133.78,1752.38 1125.1,1721.49 1158.12,1698.79 1213.65,1704.15 							"/>
							<polygon class="st3" points="1127.53,1719.93 1152.86,1702.4 1141.51,1681.27 1115.48,1692.85 							"/>
							<polygon class="st16" points="1141.51,1681.27 1115.48,1692.85 1107.81,1678.05 1135.46,1667.73 							"/>
						</g>
					</g>
					<g id="leg_14_">
						<path class="st15" d="M787.1,1495.77c4.15,68.7,187.69,20.56,193.68,37.97c6,17.41,2.23,25.64,12.46,79.66
							c5.95,31.4,23.44,76.39,35.01,99.96l28.61-5.68c-10.87-53.93-24.26-183.13-28.94-205.01
							c-6.63-31.05-146.32-43.05-146.32-43.05s-45.83-43.07-85.62-24.93C784.84,1439.77,786.47,1485.36,787.1,1495.77z"/>
						<g>
							<polygon class="st15" points="1118.11,1781.7 1026.71,1784.44 1028.91,1752.43 1067.63,1742.14 1118.14,1765.84 							"/>
							<polygon class="st3" points="1031.72,1751.78 1063.94,1743.12 1059.21,1720.06 1029.46,1722.23 							"/>
							<polygon class="st16" points="1059.21,1720.06 1029.46,1722.23 1028.25,1713.36 1056.86,1707.68 							"/>
						</g>
					</g>
					<g id="hoodie_7_">
						<path class="st17" d="M892.9,1143.87c0,0-31.74,2.84-49.03-4.69c-21.77-9.49-52.76-20.2-68.73-14.42
							c-12.02,4.34-16.85,73.84,21.76,76.46C865.9,1205.9,892.9,1143.87,892.9,1143.87z"/>
						<path class="st17" d="M855.42,1139.51c-19.73,1.23-39.14,6-51.85,43.26c-18.13,51.31-30.96,140.75-31.43,310.45l165.28-32.51
							c-16.59-86.98-14.09-288.97-44.53-316.84C880.24,1138.55,872.2,1138.47,855.42,1139.51z"/>
					</g>
					<g id="hand_9_">
						<path class="st17" d="M844.14,1182.77c13.9-0.09,33.81,63.92,4.21,182.28l97.42,82.56l-25.08,33.11
							c0,0-92.19-56.61-111.42-99.43C790.05,1338.47,794.18,1183.1,844.14,1182.77z"/>
						<polygon class="st16" points="940.99,1453.93 956.97,1471.42 946.28,1483.96 927.15,1472.26 						"/>
						<path class="st16" d="M979.84,1466.12c-15.66-5.53-31.15-2.12-34.59,7.61c-1,2.83-0.86,5.89,0.22,8.94
							c1.08,3.05,14.05,6.08,19.72,6.92c2.95,0.44,6.08,1.29,9.22,2.57c6.72,2.75,12.01,6.9,14.83,11.14
							c6.28-1.37,11.02-4.66,12.75-9.54C1005.41,1484.03,995.5,1471.65,979.84,1466.12z"/>
					</g>
				</g>
			</g>
			<path class="st18" d="M1409.63,801.85h-604c-116.55,0-92.23,41.3-92.23,92.24v42.15c0-50.94,41.3-92.24,92.23-92.24h604
				c50.94,0,92.24,41.3,92.24,92.24v-42.15C1501.86,843.15,1528.21,801.85,1409.63,801.85z"/>
			<path class="st8" d="M653.28,761.98l-44.07,702.54l964.15-80.66l-5.76-651.63L653.28,761.98z M1507.02,1262.49
				c0,28.58-23.17,51.76-51.76,51.76H760c-28.58,0-51.76-23.17-51.76-51.76V853.61c0-28.58,23.17-51.76,51.76-51.76h695.27
				c28.58,0,51.76,23.17,51.76,51.76V1262.49z"/>
			<path class="st0" d="M1461.44,1326.76H753.82c-31.73,0-57.55-26.12-57.55-58.22V847.56c0-32.1,25.82-58.22,57.55-58.22h707.62
				c31.73,0,57.55,26.12,57.55,58.22v420.97C1518.99,1300.64,1493.17,1326.76,1461.44,1326.76z M760,806.64
				c-25.9,0-46.97,21.07-46.97,46.97v408.88c0,25.9,21.07,46.97,46.97,46.97h695.27c25.9,0,46.97-21.07,46.97-46.97V853.61
				c0-25.9-21.07-46.97-46.97-46.97H760z"/>
			<g>
				<path class="st3" d="M1845.96,1029.28c-21.74,0-33.4-7.49-42.77-13.51c-7.65-4.92-13.18-8.47-25.65-8.47s-18,3.55-25.65,8.47
					c-9.37,6.02-21.03,13.51-42.77,13.51c-21.74,0-33.4-7.49-42.77-13.51c-7.65-4.92-13.18-8.47-25.65-8.47v-43.56
					c21.74,0,33.4,7.49,42.77,13.51c7.65,4.92,13.18,8.47,25.65,8.47c12.47,0,18-3.55,25.65-8.47c9.37-6.02,21.03-13.51,42.77-13.51
					c21.74,0,33.4,7.49,42.77,13.51c7.65,4.92,13.18,8.47,25.65,8.47c12.47,0,18-3.55,25.65-8.47c9.37-6.02,21.03-13.51,42.77-13.51
					v43.56c-12.47,0-18,3.55-25.65,8.47C1879.36,1021.79,1867.7,1029.28,1845.96,1029.28z"/>
				<rect x="1640.69" y="1067.15" class="st3" width="75.47" height="40.52"/>
				<rect x="1739.8" y="1067.15" class="st3" width="75.47" height="40.52"/>
				<rect x="1838.91" y="1067.15" class="st3" width="75.47" height="40.52"/>
				<polygon class="st3" points="1843.4,869.98 1778.02,917.44 1712.64,869.98 1640.69,922.71 1640.69,929.34 1763.16,929.34 
					1792.88,929.34 1914.38,929.34 1914.38,921.93 				"/>
			</g>
		</g>
		<g>
			<circle class="st0" cx="651.84" cy="608.1" r="328.03"/>
			<g>
				<g>
					<g>
						<g>
							<g>
								<g class="st19">
									<path class="st20" d="M720.66,512.54c-10.53,57.64,37.64,244.25-51.37,336.89c-23.11,24.05-50.02,53.36-76.79,81.33
										c174.77,32.23,344.12-80.99,380.4-255.88c31.2-150.41-46.04-298.09-178.42-361.91
										C773.77,345.86,738.9,412.72,720.66,512.54z"/>
									<path class="st20" d="M676.37,509.81c15.5-96.28,65.18-169.6,95.26-206.81c-16.98-6.64-34.73-11.97-53.19-15.8
										c-177.33-36.78-350.89,77.15-387.68,254.47c-30.58,147.42,43.01,292.22,170.58,358.01
										c43.15-29.72,89.53-64.51,120.41-95.73C708.26,716.5,664.06,586.26,676.37,509.81z"/>
									<path class="st4" d="M555.46,781.15c9.71,4.66,19.15,8.89,27.98,12.53c9.54,3.94,19.45,10.53,29.43,18.92
										c15.36,12.92,30.86,30.08,45.38,48.41c18.9,23.84,36.13,49.63,49.21,70.47c7.37-1.27,14.68-2.78,21.9-4.54
										c-14.01-22.75-33.81-52.83-56.14-80.63l19.11-7.66l105.82,63.05c2.94-1.47,5.86-2.97,8.75-4.53l-24.81-14.78l75.18-110.42
										l56.64,33.49c1.68-2.24,3.34-4.5,4.97-6.78l-130.03-76.87l28.02-53.76c20.34-2.31,35.91-4.59,44.31-6.77
										c12.8-3.32,28.1-10.02,44.12-18.4l59.95,61.77c0.94-3.06,1.83-6.14,2.68-9.25l-54.96-56.63
										c23.01-12.6,46.92-28.06,66.65-41.54c-0.27-8.16-0.85-16.25-1.72-24.29c-22.32,15.6-52.52,35.62-80.04,50.26l-47.21-48.63
										l48.41-118.65l56.66,29.14c-1.65-4.07-3.38-8.09-5.19-12.08l-48.29-24.83l13.85-33.96c-1.92-2.62-3.87-5.2-5.87-7.76
										l-15.45,37.87l-70.47-36.23l29.7-58.02c-2.23-1.74-4.48-3.47-6.76-5.16l-30.38,59.35l-55.24-28.4
										c-1.09,2.51-2.19,5.1-3.29,7.72l54.71,28.13l-29.63,57.87l-47.05-21.41l-1.75,3.84l-1.72,3.77l0.6,0.28l131.96,60.05
										l-22.49,55.12l-122.89-5.08c0.16,2.74,0.32,5.55,0.49,8.4l123.33,5.1l46.19,47.58c-12.56,6.31-24.31,11.25-34.18,13.81
										c-17.52,4.54-69.67,9.67-131.56,14.5c-15.42,1.2-31.45,2.38-47.69,3.53c-103.33,7.32-215.56,13.33-237.58,14.48
										l160.84-57.5c1.66,0.66,3.38,1.22,5.19,1.59c16.42,3.41,32.55-7.18,35.96-23.6c3.15-15.2-5.69-30.13-20.06-34.98
										l8.64-135.96l100.46-133.24c-2.96-0.73-5.93-1.41-8.93-2.06l-58.94,78.18l-102.29-72.53c-3.38,0.99-6.74,2.01-10.08,3.11
										l12.63,8.95L404.87,453.53l-27.9-24.2c-1.54,2.36-3.04,4.75-4.52,7.15l68.72,59.6l-68.72,97.33l-43.81-40.38
										c-0.57,3.32-1.09,6.63-1.56,9.95l40.51,37.33l-40.08,56.77c0.59,3.92,1.26,7.81,1.99,11.68l43.71-61.91L426,678.02
										l-79.24,50.52c2.6,6.58,5.41,13.06,8.42,19.44l77.06-49.12c6.06,7.83,15.68,16.55,27.52,25.57l-79.58,67.47
										c1.57,2.32,3.17,4.62,4.8,6.9l81.69-69.25c7.66,5.52,16.05,11.1,24.87,16.6l-32.08,17.45l30.84,100.12l-14.29,21.42
										c2.35,1.49,4.72,2.96,7.12,4.4L555.46,781.15z M791.05,473.03l29.44-57.51l71.11,36.56l-22.95,56.26L791.05,473.03z
										 M850.05,767.71l-75.16,110.4l-72.78-43.36l35.23-14.1l47.64-91.41L850.05,767.71z M450.66,660.52l72.06-95.57l58.29,20.41
										c-0.8,9.62,3.06,18.81,9.91,25.03L450.66,660.52z M632.89,592.34c-2.47,11.9-14.16,19.58-26.07,17.11
										c-11.91-2.47-19.58-14.16-17.11-26.06c2.47-11.9,14.16-19.58,26.06-17.11C627.68,568.74,635.36,580.43,632.89,592.34z
										 M612.73,557.51c-13.12-0.62-25.23,7.33-29.85,19.62l-54.87-19.2l92.5-122.69L612.73,557.51z M452.61,494.95l48.49-57.19
										l78.15,38.32l-58.67,77.82L452.61,494.95z M657.21,372.67l-72.83,96.61l-77.69-38.1l87.49-103.2L657.21,372.67z
										 M587.32,323.11l-88.39,104.26l-35.46-17.39l106-99.52L587.32,323.11z M411.22,459.04l45.73-42.94l36.4,17.85l-47.06,55.51
										L411.22,459.04z M378.27,599.65l69.23-98.07l68.02,59.01l-83.78,111.12L378.27,599.65z M455.34,693.63
										c39.39-2.11,132.22-7.27,219.92-13.49c16.66-1.18,33.13-2.39,49.03-3.64c30.69-2.4,59.17-4.89,82.57-7.36l-75.5,144.89
										l-48.8,19.53l-14.9,5.96c-12.86-15.48-26.44-29.96-40.15-41.71c-12.07-10.35-24.24-18.58-36.1-23.47
										C532.43,750.02,477,714.22,455.34,693.63z M469.48,767.67l30.3-16.48c15.52,9.33,32.04,18.31,48.08,26.26l-51.56,77.28
										L469.48,767.67z"/>
								</g>
							</g>
						</g>
					</g>
				</g>
				<polygon class="st21" points="503.85,659.29 503.85,521.43 405.68,438.53 409.32,434.21 509.5,518.81 509.5,653.34 
					755.35,640.66 732.26,587.16 737.38,491.8 756.42,416.83 658.94,319.36 658.94,307.74 664.59,307.74 664.59,317.02 
					762.69,415.11 742.92,492.92 737.97,586.14 763.76,645.89 				"/>
				<polygon class="st17" points="881.43,803.16 841.12,779.3 644.78,777.1 644.78,565.45 616.33,545.16 362.87,537.01 
					363.05,531.36 618.22,539.57 650.43,562.54 650.43,771.51 842.7,773.67 884.31,798.3 				"/>
				<polygon class="st3" points="511.81,871.85 507.13,868.69 522.91,845.28 556.55,836.94 630.81,772.06 630.81,512.1 
					535.22,512.1 535.22,370.12 639.15,370.12 682.83,308.82 687.43,312.09 642.06,375.77 540.87,375.77 540.87,506.46 
					636.46,506.46 636.46,774.62 559.24,842.1 526.38,850.24 				"/>
			</g>
		</g>
	</g>
</g>
<g id="Logg_inn">
</g>
</svg>
