<svg width="26" height="18" viewBox="0 0 26 18" fill="none" xmlns="http://www.w3.org/2000/svg">
<path d="M20.7183 7.36406C20.2779 7.36406 19.8522 7.42456 19.4425 7.52728L16.7133 1.63687H20.3122C20.7607 1.63687 21.1246 2.00382 21.1246 2.45494C21.1246 2.90607 20.7605 3.27301 20.3122 3.27301C19.8633 3.27301 19.4997 3.63968 19.4997 4.09108C19.4997 4.54278 19.8633 4.90915 20.3122 4.90915C21.6565 4.90915 22.7498 3.80831 22.7498 2.45458C22.7498 1.10084 21.6566 0 20.3122 0L15.4373 0.000570691C15.1593 0.000570691 14.9011 0.143242 14.7515 0.37951C14.6025 0.615208 14.5832 0.911683 14.7008 1.16507L16.057 4.09132H10.2518L9.43941 2.45518L10.5622 2.4549C11.011 2.4549 11.3746 2.08823 11.3746 1.63683C11.3746 1.18512 11.011 0.818757 10.5622 0.818757H6.49971C6.05085 0.818757 5.6873 1.18542 5.6873 1.63683C5.6873 2.08853 6.05086 2.4549 6.49971 2.4549H7.62248L8.82344 4.87375L7.13426 7.70869C6.55674 7.48955 5.93387 7.36399 5.28127 7.36399C2.36928 7.36399 0 9.74975 0 12.682C0 15.6142 2.36928 18 5.28127 18C7.77329 18 9.86256 16.2509 10.4149 13.9093L12.1874 13.909C12.466 13.909 12.7244 13.7655 12.8735 13.5286L17.2247 6.61043L17.945 8.16497C16.4431 9.10379 15.4375 10.7748 15.4375 12.6817C15.4375 15.6139 17.8067 17.9997 20.7187 17.9997C23.6307 17.9997 26 15.6139 26 12.6817C25.9997 9.74947 23.6304 7.364 20.7184 7.364L20.7183 7.36406ZM5.28093 16.3636C3.26472 16.3636 1.62486 14.7124 1.62486 12.6821C1.62486 10.6519 3.26472 9.00064 5.28093 9.00064C5.62664 9.00064 5.9548 9.06484 6.27217 9.15558L4.17804 12.6702C4.02729 12.923 4.02332 13.238 4.16784 13.4945C4.31236 13.7508 4.58157 13.9091 4.87458 13.9091H8.7123C8.20789 15.3345 6.8675 16.3637 5.2809 16.3637L5.28093 16.3636ZM8.89594 12.2729H6.30989L7.69874 9.94165C8.35589 10.5303 8.79256 11.3475 8.89601 12.2729H8.89594ZM11.7393 12.2729H10.5412C10.4253 10.7512 9.67288 9.40862 8.54961 8.51348L10.2096 5.72763H15.8556L11.7393 12.2729ZM20.7181 16.3636C18.7018 16.3636 17.062 14.7124 17.062 12.6821C17.062 11.4309 17.688 10.3266 18.6381 9.66122L20.3883 13.4375C20.526 13.7345 20.819 13.9091 21.1253 13.9091C21.2404 13.9091 21.3568 13.8846 21.4682 13.8321C21.8751 13.6412 22.0508 13.1544 21.861 12.7446L20.1522 9.05764C20.3381 9.02854 20.5245 9.00029 20.7181 9.00029C22.7343 9.00029 24.3742 10.6515 24.3742 12.6818C24.3744 14.712 22.7343 16.3636 20.7181 16.3636Z" fill="black"/>
</svg>
