<svg width="20" height="20" viewBox="0 0 20 20" fill="none" xmlns="http://www.w3.org/2000/svg">
<path d="M1.02803 4.19438H2.45991C2.69053 5.0104 3.26655 5.68448 4.03674 6.03939C4.80678 6.39414 5.69356 6.39414 6.4636 6.03939C7.23364 5.68448 7.80981 5.0104 8.04028 4.19438H18.972C19.2549 4.19438 19.5163 4.04344 19.6576 3.79855C19.7991 3.55367 19.7991 3.25177 19.6576 3.0069C19.5163 2.76187 19.2549 2.61107 18.972 2.61107H8.04028C7.80981 1.79506 7.23364 1.12098 6.4636 0.766065C5.69356 0.411312 4.80678 0.411312 4.03674 0.766065C3.26655 1.12097 2.69054 1.79506 2.45991 2.61107H1.02803C0.745145 2.61107 0.483715 2.76186 0.34241 3.0069C0.200968 3.25178 0.200968 3.55368 0.34241 3.79855C0.483699 4.04343 0.745141 4.19438 1.02803 4.19438ZM5.24992 2.08336C5.59992 2.08336 5.93553 2.22235 6.18299 2.46983C6.43033 2.71716 6.56931 3.05274 6.56931 3.40275C6.56931 3.7526 6.43033 4.08821 6.18299 4.33567C5.93551 4.58315 5.59992 4.72214 5.24992 4.72214C4.90007 4.72214 4.56446 4.58315 4.317 4.33567C4.06951 4.08834 3.93052 3.75276 3.93052 3.40275C3.93098 3.0529 4.07013 2.71761 4.31746 2.47014C4.56479 2.22281 4.90007 2.08366 5.24992 2.08336Z" fill="black"/>
<path d="M18.9723 9.20836H17.0126C16.782 8.39235 16.206 7.71827 15.4358 7.36336C14.6658 7.0086 13.779 7.0086 13.0089 7.36336C12.2389 7.71826 11.6627 8.39235 11.4321 9.20836H1.02803C0.745145 9.20836 0.483715 9.35931 0.34241 9.60419C0.200968 9.84907 0.200968 10.151 0.34241 10.3958C0.483699 10.6407 0.745141 10.7917 1.02803 10.7917H11.4321C11.6627 11.6077 12.2389 12.2818 13.0089 12.6367C13.779 12.9914 14.6658 12.9914 15.4358 12.6367C16.206 12.2818 16.782 11.6077 17.0126 10.7917H18.9723C19.2552 10.7917 19.5166 10.6407 19.6579 10.3958C19.7993 10.151 19.7993 9.84906 19.6579 9.60419C19.5166 9.35931 19.2552 9.20836 18.9723 9.20836ZM14.2225 11.3194C13.8725 11.3194 13.5369 11.1804 13.2894 10.9329C13.0421 10.6856 12.903 10.35 12.903 9.99999C12.903 9.64999 13.0421 9.31438 13.2894 9.06707C13.5369 8.81959 13.8725 8.6806 14.2225 8.6806C14.5724 8.6806 14.908 8.81959 15.1554 9.06707C15.4029 9.31441 15.5419 9.64999 15.5419 9.99999C15.5414 10.3498 15.4023 10.6851 15.155 10.9325C14.9076 11.18 14.5722 11.3191 14.2225 11.3194Z" fill="black"/>
<path d="M18.973 15.8057H8.04126C7.81078 14.9896 7.23462 14.3156 6.46458 13.9606C5.69454 13.6059 4.80776 13.6059 4.03772 13.9606C3.26752 14.3156 2.69151 14.9896 2.46088 15.8057H1.029C0.746122 15.8057 0.484692 15.9566 0.343386 16.2015C0.201944 16.4464 0.201944 16.7483 0.343386 16.9931C0.484676 17.2382 0.746118 17.389 1.029 17.389H2.46088C2.69151 18.205 3.26752 18.8791 4.03772 19.234C4.80776 19.5887 5.69454 19.5887 6.46458 19.234C7.23462 18.8791 7.81078 18.205 8.04126 17.389H18.973C19.2559 17.389 19.5173 17.2382 19.6586 16.9931C19.8 16.7483 19.8 16.4464 19.6586 16.2015C19.5173 15.9566 19.2559 15.8057 18.973 15.8057ZM5.25085 17.9167C4.901 17.9167 4.5654 17.7777 4.31794 17.5302C4.07045 17.2829 3.93146 16.9473 3.93146 16.5973C3.93146 16.2474 4.07045 15.9118 4.31794 15.6644C4.56542 15.4169 4.901 15.2779 5.25085 15.2779C5.60086 15.2779 5.93647 15.4169 6.18393 15.6644C6.43126 15.9118 6.57025 16.2474 6.57025 16.5973C6.56995 16.9471 6.4308 17.2824 6.18347 17.5299C5.93599 17.7772 5.6007 17.9164 5.25085 17.9167Z" fill="black"/>
</svg>
