<svg width="40" height="40" viewBox="0 0 40 40" fill="none" xmlns="http://www.w3.org/2000/svg">
  <path fill-rule="evenodd" clip-rule="evenodd" d="M37.1213 6.34387C37.6708 6.71593 38 7.33636 38 8.00001V28C38 28.8178 37.5021 29.5532 36.7428 29.857L26.7428 33.857C26.3036 34.0326 25.8163 34.047 25.3675 33.8974L14.0626 30.129L4.74278 33.857C4.1266 34.1034 3.42829 34.0282 2.87874 33.6561C2.3292 33.2841 2 32.6637 2 32V12C2 11.1822 2.4979 10.4468 3.25722 10.1431L13.2572 6.14306C13.6964 5.96737 14.1837 5.95305 14.6325 6.10264L25.9374 9.87097L35.2572 6.14306C35.8734 5.89658 36.5717 5.97181 37.1213 6.34387ZM24 13.4415L16 10.7749V26.5585L24 29.2252V13.4415ZM28 29.0459L34 26.6459V10.9541L28 13.3541V29.0459ZM12 26.6459V10.9541L6 13.3541V29.0459L12 26.6459Z" fill="black"/>
</svg>