<svg width="40" height="40" viewBox="0 0 40 40" fill="none" xmlns="http://www.w3.org/2000/svg">
<path d="M24.9952 36.158C24.3052 36.158 23.7452 35.598 23.7452 34.908V9.90804C23.7452 9.21804 24.3052 8.65804 24.9952 8.65804C25.6852 8.65804 26.2452 9.21804 26.2452 9.90804V34.908C26.2452 35.598 25.6852 36.158 24.9952 36.158ZM13.3253 31.158C12.6353 31.158 12.0753 30.598 12.0753 29.908V5.73804C12.0753 5.04804 12.6353 4.48804 13.3253 4.48804C14.0153 4.48804 14.5753 5.04804 14.5753 5.73804V29.908C14.5753 30.598 14.0153 31.158 13.3253 31.158Z" fill="black"/>
<path d="M34.9951 36.1581L24.9952 36.158C24.8252 36.158 24.6551 36.1281 24.5051 36.0581L13.2751 31.2481L5.92511 33.6981C5.03511 33.9981 4.0551 33.8481 3.2951 33.2981C2.5351 32.7481 2.08502 31.8681 2.08502 30.9381V10.9481C2.08502 9.83809 2.70501 8.83809 3.69501 8.33809L12.0851 4.13809C12.8551 3.75809 13.7451 3.72809 14.5351 4.06809L25.2551 8.65809H34.9951C36.6051 8.65809 37.915 9.96809 37.915 11.5781V33.2481C37.915 34.8581 36.6051 36.1681 34.9951 36.1681V36.1581ZM25.2551 33.6581H34.9951C35.2251 33.6581 35.415 33.4681 35.415 33.2381V11.5681C35.415 11.3381 35.2251 11.1481 34.9951 11.1481H24.9951C24.8251 11.1481 24.6551 11.1181 24.5051 11.0481L13.5451 6.34809C13.4351 6.29809 13.305 6.30809 13.195 6.35809L4.80511 10.5481C4.66511 10.6181 4.57501 10.7681 4.57501 10.9181V30.9081C4.57501 31.0881 4.68506 31.1981 4.74506 31.2481C4.81506 31.2981 4.94506 31.3681 5.12506 31.3081L12.925 28.7081C13.215 28.6081 13.5351 28.6281 13.8151 28.7481L25.2451 33.6481L25.2551 33.6581Z" fill="black"/>
</svg>
