<svg width="40" height="40" viewBox="0 0 40 40" fill="none" xmlns="http://www.w3.org/2000/svg">
  <path fill-rule="evenodd" clip-rule="evenodd" d="M3.25722 12.1431L12.9159 8.27958C14.255 5.73504 16.9249 4 20 4C24.1028 4 27.4843 7.08854 27.9462 11.0675L35.2572 8.14306C35.8734 7.89658 36.5717 7.97182 37.1213 8.34387C37.6708 8.71593 38 9.33636 38 10V30C38 30.8178 37.5021 31.5532 36.7428 31.857L26.7428 35.857C26.3036 36.0326 25.8163 36.047 25.3675 35.8974L14.0626 32.129L4.74278 35.857C4.1266 36.1034 3.42829 36.0282 2.87874 35.6561C2.3292 35.2841 2 34.6637 2 34V14C2 13.1822 2.4979 12.4468 3.25722 12.1431ZM20 8C17.7909 8 16 9.79086 16 12C16 13.9524 17.1363 15.9986 18.5487 17.7272C19.0538 18.3453 19.5615 18.883 20 19.3144C20.4385 18.883 20.9462 18.3453 21.4513 17.7272C22.8637 15.9986 24 13.9524 24 12C24 9.79086 22.2091 8 20 8ZM22.2985 22.6502C21.9916 22.9352 21.7334 23.1599 21.5481 23.3164C21.1418 23.6594 20.5391 24 20 24C19.4434 24 18.8704 23.6697 18.4519 23.3164C18.2666 23.1599 18.0084 22.9352 17.7015 22.6502C17.0904 22.0827 16.2732 21.264 15.4513 20.2581C14.0127 18.4974 12.3474 15.9068 12.0475 12.9351L6 15.354V31.0459L13.2572 28.143C13.6964 27.9673 14.1837 27.953 14.6325 28.1026L25.9374 31.8709L34 28.6459V12.954L27.3067 15.6314C26.6199 17.4655 25.5314 19.0554 24.5487 20.2581C23.7268 21.264 22.9096 22.0827 22.2985 22.6502Z" fill="black"/>
</svg>