<svg width="40" height="40" viewBox="0 0 40 40" fill="none" xmlns="http://www.w3.org/2000/svg">
<path d="M5 32.2682C4.39 32.2682 3.79004 32.0783 3.29004 31.7183C2.53004 31.1683 2.08008 30.2883 2.08008 29.3583V9.36825C2.08008 8.25825 2.69994 7.25825 3.68994 6.75825L12.0801 2.55825C12.8501 2.17825 13.74 2.14825 14.53 2.48825L25.25 7.07825H34.99C36.6 7.07825 37.9099 8.38825 37.9099 9.99825V17.4983C37.9099 18.1883 37.3499 18.7483 36.6599 18.7483C35.9699 18.7483 35.4099 18.1883 35.4099 17.4983V9.99825C35.4099 9.76825 35.22 9.57825 34.99 9.57825H24.99C24.82 9.57825 24.65 9.54825 24.5 9.47825L13.54 4.77825C13.43 4.72825 13.2999 4.73825 13.1899 4.78825L4.80005 8.97825C4.66005 9.04825 4.57007 9.19825 4.57007 9.34825V29.3382C4.57007 29.5182 4.67999 29.6283 4.73999 29.6783C4.80999 29.7283 4.94012 29.7983 5.12012 29.7383L12.9199 27.1383C13.1999 27.0483 13.51 27.0583 13.78 27.1583L17.95 28.8283C18.59 29.0883 18.8999 29.8083 18.6499 30.4482C18.3899 31.0882 17.67 31.3983 17.03 31.1483L13.29 29.6483L5.91992 32.1083C5.61992 32.2083 5.31 32.2583 5 32.2583V32.2682Z" fill="black"/>
<path d="M14.5801 3.32812H12.0801V28.3281H14.5801V3.32812Z" fill="black"/>
<path d="M25 17.0781C24.31 17.0781 23.75 16.5181 23.75 15.8281V8.32812C23.75 7.63812 24.31 7.07812 25 7.07812C25.69 7.07812 26.25 7.63812 26.25 8.32812V15.8281C26.25 16.5181 25.69 17.0781 25 17.0781Z" fill="black"/>
<path d="M29.1699 37.7483C28.7399 37.7483 28.3099 37.6383 27.9199 37.4283C25.6699 36.2383 20.4199 32.8783 20.4199 27.4883C20.4199 22.6583 24.3499 18.7383 29.1699 18.7383C33.9899 18.7383 37.9199 22.6583 37.9199 27.4883C37.9199 32.8583 32.6699 36.2283 30.4199 37.4283C30.0299 37.6383 29.5999 37.7383 29.1699 37.7383V37.7483ZM29.1699 21.2483C25.7199 21.2483 22.9199 24.0483 22.9199 27.4983C22.9199 31.6383 27.6501 34.4683 29.0901 35.2283C29.1501 35.2583 29.2 35.2483 29.24 35.2283C30.69 34.4583 35.4199 31.6183 35.4199 27.4983C35.4199 24.0483 32.6199 21.2483 29.1699 21.2483Z" fill="black"/>
<path d="M29.1799 29.1681C28.2599 29.1681 27.51 28.4181 27.51 27.4981C27.51 26.5781 28.2499 25.8281 29.1699 25.8281C30.0899 25.8281 30.8401 26.5781 30.8401 27.4981C30.8401 28.4181 30.0899 29.1681 29.1699 29.1681H29.1799Z" fill="black"/>
</svg>
