<svg width="40" height="40" viewBox="0 0 40 40" fill="none" xmlns="http://www.w3.org/2000/svg">
<path d="M20 25.4198C16.1 25.4198 12.9199 22.2398 12.9199 18.3398C12.9199 14.4398 16.1 11.2598 20 11.2598C23.9 11.2598 27.0801 14.4398 27.0801 18.3398C27.0801 22.2398 23.9 25.4198 20 25.4198ZM20 13.7498C17.47 13.7498 15.4199 15.8098 15.4199 18.3298C15.4199 20.8498 17.47 22.9098 20 22.9098C22.53 22.9098 24.5801 20.8498 24.5801 18.3298C24.5801 15.8098 22.53 13.7498 20 13.7498Z" fill="black"/>
<path d="M20 37.9201C19.83 37.9201 19.65 37.8801 19.49 37.8101C18.85 37.5201 3.75 30.6701 3.75 18.3301C3.75 9.37008 11.04 2.08008 20 2.08008C28.96 2.08008 36.25 9.37008 36.25 18.3301C36.25 30.6701 21.15 37.5201 20.51 37.8101C20.35 37.8801 20.18 37.9201 20 37.9201ZM20 4.58008C12.42 4.58008 6.25 10.7501 6.25 18.3301C6.25 27.8701 17.46 34.0101 20 35.2801C22.54 34.0101 33.75 27.8701 33.75 18.3301C33.75 10.7501 27.58 4.58008 20 4.58008Z" fill="black"/>
</svg>
