<svg width="40" height="40" viewBox="0 0 40 40" fill="none" xmlns="http://www.w3.org/2000/svg">
  <path d="M20 12C17.7909 12 16 13.7909 16 16C16 18.2091 17.7909 20 20 20C22.2091 20 24 18.2091 24 16C24 13.7909 22.2091 12 20 12Z" fill="black"/>
  <path fill-rule="evenodd" clip-rule="evenodd" d="M18.1941 37.1047C17.8447 36.8097 17.3521 36.3811 16.764 35.835C15.5904 34.7451 14.0232 33.1746 12.4513 31.2507C9.36366 27.472 6 22.0182 6 16C6 8.26801 12.268 2 20 2C27.732 2 34 8.26801 34 16C34 22.0182 30.6363 27.472 27.5487 31.2507C25.9768 33.1746 24.4096 34.7451 23.236 35.835C22.6479 36.3811 22.1553 36.8097 21.8059 37.1047C21.6634 37.225 21.6618 37.2316 21.6609 37.2356C21.6596 37.2414 21.6595 37.2416 21.2311 37.5762C20.5076 38.1413 19.4924 38.1413 18.7689 37.5762C18.3405 37.2416 18.3404 37.2414 18.3391 37.2356C18.3382 37.2316 18.3366 37.225 18.1941 37.1047ZM20 6C14.4772 6 10 10.4772 10 16C10 20.6092 12.6363 25.1554 15.5487 28.7198C16.9768 30.4676 18.4096 31.9044 19.486 32.904C19.6686 33.0735 19.8405 33.2301 20 33.3732C20.1595 33.2301 20.3314 33.0735 20.514 32.904C21.5904 31.9044 23.0232 30.4676 24.4513 28.7198C27.3637 25.1554 30 20.6092 30 16C30 10.4772 25.5228 6 20 6Z" fill="black"/>
</svg>