<svg width="40" height="40" viewBox="0 0 40 40" fill="none" xmlns="http://www.w3.org/2000/svg">
<path d="M20 37.9201C19.83 37.9201 19.65 37.8801 19.49 37.8101C18.85 37.5201 3.75 30.6701 3.75 18.3301C3.75 9.37008 11.04 2.08008 20 2.08008C28.96 2.08008 36.25 9.37008 36.25 18.3301C36.25 30.6701 21.15 37.5201 20.51 37.8101C20.35 37.8801 20.18 37.9201 20 37.9201ZM20 4.58008C12.42 4.58008 6.25 10.7501 6.25 18.3301C6.25 27.8701 17.46 34.0101 20 35.2801C22.54 34.0101 33.75 27.8701 33.75 18.3301C33.75 10.7501 27.58 4.58008 20 4.58008Z" fill="black"/>
<path d="M25.67 24.9197C25.35 24.9197 25.0301 24.7997 24.7901 24.5497L19.8402 19.5997L14.89 24.5497C14.4 25.0397 13.6102 25.0397 13.1202 24.5497C12.6302 24.0597 12.6302 23.2697 13.1202 22.7797L18.0701 17.8297L13.1202 12.8797C12.6302 12.3897 12.6302 11.5997 13.1202 11.1097C13.6102 10.6197 14.4 10.6197 14.89 11.1097L19.8402 16.0597L24.7901 11.1097C25.2801 10.6197 26.0701 10.6197 26.5601 11.1097C27.0501 11.5997 27.0501 12.3897 26.5601 12.8797L21.6102 17.8297L26.5601 22.7797C27.0501 23.2697 27.0501 24.0597 26.5601 24.5497C26.3201 24.7897 26 24.9197 25.68 24.9197H25.67Z" fill="black"/>
</svg>
