<svg width="40" height="40" viewBox="0 0 40 40" fill="none" xmlns="http://www.w3.org/2000/svg">
<path d="M20 37.9201C19.83 37.9201 19.65 37.8801 19.49 37.8101C18.85 37.5201 3.75 30.6701 3.75 18.3301C3.75 9.37008 11.04 2.08008 20 2.08008C28.96 2.08008 36.25 9.37008 36.25 18.3301C36.25 30.6701 21.15 37.5201 20.51 37.8101C20.35 37.8801 20.18 37.9201 20 37.9201ZM20 4.58008C12.42 4.58008 6.25 10.7501 6.25 18.3301C6.25 27.8701 17.46 34.0101 20 35.2801C22.54 34.0101 33.75 27.8701 33.75 18.3301C33.75 10.7501 27.58 4.58008 20 4.58008Z" fill="black"/>
<path d="M19.3301 25.2501C19.0001 25.2501 18.68 25.1201 18.45 24.8801L13.45 19.8801C12.96 19.3901 12.96 18.6001 13.45 18.1101C13.94 17.6201 14.73 17.6201 15.22 18.1101L19.2501 22.1401L26.71 13.1901C27.15 12.6601 27.94 12.5901 28.47 13.0301C29 13.4701 29.07 14.2601 28.63 14.7901L20.2901 24.7901C20.0601 25.0601 19.74 25.2201 19.39 25.2401C19.37 25.2401 19.3501 25.2401 19.3301 25.2401V25.2501Z" fill="black"/>
</svg>
