<svg width="16" height="22" viewBox="0 0 16 22" fill="none" xmlns="http://www.w3.org/2000/svg">
<path d="M4.83742 13.2216H6.14096C6.38348 13.2216 6.57837 13.4165 6.57837 13.659V17.1626C6.57837 17.613 7.17166 17.7688 7.39252 17.3791L10.9394 11.6842C11.1039 11.3897 10.8961 11.0259 10.5626 11.0259H9.19411C8.95159 11.0259 8.7567 10.831 8.7567 10.5885V7.04165C8.7567 6.59126 8.16341 6.43537 7.94255 6.82511L4.45633 12.5676C4.29177 12.8577 4.50397 13.2215 4.83743 13.2215L4.83742 13.2216Z" fill="black"/>
<path d="M13.2001 2.19998H11.0001V0.441722C11.0001 0.194871 10.8052 0 10.5584 0H4.84167C4.59916 0 4.39995 0.194883 4.39995 0.441722V2.19998H2.19998C0.98738 2.19998 0 3.1874 0 4.39995V19.8C0 21.0126 0.987419 22 2.19998 22H13.1999C14.4125 22 15.3998 21.0126 15.3998 19.8V4.39995C15.3998 3.18736 14.4124 2.19998 13.1999 2.19998H13.2001ZM13.2001 19.7999H2.20021V4.39987H13.2001V19.7999Z" fill="black"/>
</svg>
