<svg width="20" height="20" viewBox="0 0 40 40" fill="none" xmlns="http://www.w3.org/2000/svg">
<path d="M28.2996 31.245H6.69995C4.13995 31.245 2.04956 29.185 2.04956 26.665V13.335C2.04956 10.805 4.13995 8.755 6.69995 8.755H28.2996C30.8596 8.755 32.95 10.815 32.95 13.335V26.665C32.95 29.195 30.8596 31.245 28.2996 31.245ZM6.69995 11.245C5.48995 11.245 4.54956 12.165 4.54956 13.325V26.655C4.54956 27.825 5.48995 28.735 6.69995 28.735H28.2996C29.5096 28.735 30.45 27.815 30.45 26.655V13.325C30.45 12.155 29.5096 11.245 28.2996 11.245H6.69995Z" fill="black"/>
<path d="M31.7004 25.4151C31.1004 25.4151 30.57 24.9851 30.47 24.3751C30.35 23.6951 30.8105 23.0451 31.4905 22.9351L35.0901 22.3251C35.3001 22.2951 35.4504 22.1151 35.4504 21.9151V18.0851C35.4504 17.8851 35.3001 17.7051 35.0901 17.6751L31.4905 17.0651C30.8105 16.9451 30.35 16.3051 30.47 15.6251C30.59 14.9451 31.2404 14.4851 31.9104 14.6051L35.51 15.2151C36.92 15.4551 37.9504 16.6651 37.9504 18.0951V21.9251C37.9504 23.3551 36.92 24.5651 35.51 24.8051L31.9104 25.4151C31.8404 25.4251 31.7704 25.4351 31.7004 25.4351V25.4151Z" fill="black"/>
<path d="M9.99976 24.5754C9.30976 24.5754 8.74976 24.0154 8.74976 23.3254V16.6554C8.74976 15.9654 9.30976 15.4054 9.99976 15.4054C10.6898 15.4054 11.2498 15.9654 11.2498 16.6554V23.3254C11.2498 24.0154 10.6898 24.5754 9.99976 24.5754Z" fill="black"/>
<path d="M14.9998 24.5754C14.3098 24.5754 13.7498 24.0154 13.7498 23.3254V16.6554C13.7498 15.9654 14.3098 15.4054 14.9998 15.4054C15.6898 15.4054 16.2498 15.9654 16.2498 16.6554V23.3254C16.2498 24.0154 15.6898 24.5754 14.9998 24.5754Z" fill="black"/>
<path d="M19.9998 24.5754C19.3098 24.5754 18.7498 24.0154 18.7498 23.3254V16.6554C18.7498 15.9654 19.3098 15.4054 19.9998 15.4054C20.6898 15.4054 21.2498 15.9654 21.2498 16.6554V23.3254C21.2498 24.0154 20.6898 24.5754 19.9998 24.5754Z" fill="black"/>
</svg>
