<svg width="135" height="154" viewBox="0 0 135 154" fill="none" xmlns="http://www.w3.org/2000/svg">
<ellipse cx="67" cy="151.5" rx="67" ry="2.5" fill="#E3E5E6"/>
<path d="M121.49 127.68C120.98 126.2 120.55 124.69 120.28 123.14C121.03 123.14 121.79 123.12 122.54 123.16C123.95 123.24 125.38 122.91 126.77 123.38C130.23 125.51 132.7 128.44 133.72 132.41C135.76 140.38 131.99 147.02 125.56 150.22C124 150.82 122.4 151.27 120.75 151.52C119.51 151.57 119.31 151.72 117.67 151.48C116 151.32 114.44 150.77 112.88 150.21C106.48 146.78 103.62 141.45 104.3 134.22C104.36 134.04 104.42 133.78 104.53 133.7C104.77 133.52 105.13 133.7 105.46 133.72C105.88 133.75 106.23 133.72 106.35 133.19C106.76 131.3 107.77 129.68 108.81 128.09C108.92 127.97 109.03 127.85 109.14 127.72C109.51 127.34 109.89 126.95 110.26 126.57C110.35 126.47 110.44 126.38 110.53 126.28L110.5 126.32C110.59 126.23 110.68 126.14 110.78 126.05V126.1C110.86 126.1 110.92 126.06 110.96 125.99C111.21 125.83 111.45 125.67 111.7 125.5C112.21 126.99 112.74 128.48 112.86 130.07C110.46 132.42 109.71 135.29 110.41 138.49C111.35 142.81 115.42 145.86 119.66 145.58C124.33 145.27 127.84 141.88 128.33 137.23C128.78 132.92 125.89 128.87 121.51 127.68H121.49Z" fill="black"/>
<path d="M27.6003 131.79C27.6003 131.86 27.6903 131.87 27.6803 131.93C26.1703 131.95 22.9403 131.96 22.8703 131.96C20.8503 128.28 16.3503 126.49 12.3203 127.78C8.24031 129.08 5.53031 133.11 5.96031 137.21C6.39031 141.29 9.20031 144.51 13.0503 145.37C16.9703 146.24 20.7803 144.52 22.9903 140.87C25.1303 140.87 27.2703 140.87 29.4103 140.87C28.1603 145.21 25.1803 148.06 21.3703 150.2C19.7203 150.77 18.0903 151.38 16.3503 151.65C15.6003 151.74 14.1403 151.77 13.4803 151.66C11.4103 151.24 10.2303 150.91 8.70031 150.21C8.62031 150.16 8.18031 149.95 8.04031 149.89C2.31031 146.5 -0.529694 141.52 0.0803059 134.84C0.540306 129.79 3.23031 126.04 7.49031 123.38C7.93031 123.18 8.40031 123.14 8.88031 123.15C10.4703 123.17 12.0703 123.22 13.6603 123.15C17.2203 122.98 20.4403 123.87 23.3103 125.99C23.4103 126.05 23.4103 126.06 23.4903 126.1C23.4903 126.1 23.6703 126.23 23.7603 126.31L23.7303 126.27C23.8203 126.36 23.9103 126.46 24.0003 126.55C25.5303 128.07 26.6703 129.85 27.5903 131.78L27.6003 131.79Z" fill="black"/>
<path d="M27.6799 131.93C26.7499 130 25.5399 128.07 24.0099 126.56C23.9199 126.47 23.8299 126.37 23.7399 126.28L23.7699 126.32C23.6799 126.23 23.4999 126.11 23.4999 126.11C23.4499 126.08 23.4099 126.06 23.3199 126C20.4499 123.88 17.2299 122.99 13.6699 123.16C12.0799 123.24 10.4799 123.18 8.88992 123.16C8.40992 123.16 6.75992 123.18 6.38992 123.18C4.46992 123.16 4.04992 123.16 2.12992 123.18C1.52992 123.18 1.11992 123.14 1.15992 122.36V117.87C1.15992 117.26 1.62992 117.15 2.17992 117.15C6.96992 117.18 11.7599 117.07 16.5499 117.21C24.3599 117.44 32.0399 123.97 33.6699 131.59C33.6999 131.74 33.7999 131.88 33.8599 132.02C31.7799 131.97 30.2499 132.04 27.6999 131.94L27.6799 131.93Z" fill="#A9AEB1"/>
<path d="M122.54 123.16C121.79 123.12 121.04 123.14 120.28 123.14C119.51 121.2 119.17 119.14 118.62 117.14C122.32 117.14 126.03 117.17 129.73 117.12C130.62 117.11 130.83 117.32 130.55 118.17C130.16 119.38 129.84 120.61 129.55 121.85C129.34 122.79 128.95 123.35 127.87 123.16C127.52 123.1 123.94 123.23 122.53 123.14L122.54 123.16Z" fill="#A9AEB1"/>
<path d="M103.39 133.71C102.64 133.71 101.88 133.66 101.13 133.72C100.18 133.8 100.08 133.37 100.27 132.58C101.63 126.83 104.76 122.4 109.97 119.52C110.92 121.4 111.25 123.47 111.68 125.5C111.43 125.66 111.19 125.82 110.94 125.99C110.74 125.8 110.76 125.96 110.76 126.1V126.05C110.67 126.14 110.58 126.23 110.48 126.32L110.51 126.28C110.42 126.38 110.33 126.47 110.24 126.57C109.87 126.95 109.49 127.34 109.12 127.72C109.01 127.84 108.9 127.96 108.79 128.09C107.74 129.68 106.74 131.3 106.33 133.19C106.21 133.72 105.87 133.75 105.44 133.72C104.97 133.69 103.78 133.72 103.37 133.72L103.39 133.71Z" fill="#A9AEB1"/>
<path d="M110.77 126.09C110.77 125.95 110.75 125.79 110.95 125.98C110.91 126.05 110.85 126.08 110.77 126.09Z" fill="#BAC8D4"/>
<path d="M110.49 126.31C110.58 126.22 110.67 126.13 110.77 126.04C110.68 126.13 110.59 126.22 110.49 126.31Z" fill="#BAC8D4"/>
<path d="M108.81 128.08C108.92 127.96 109.03 127.84 109.14 127.71C109.03 127.83 108.92 127.95 108.81 128.08Z" fill="#BAC8D4"/>
<path d="M88.8701 10.62C88.6301 9.73001 88.9301 9.53001 89.6601 9.34001C90.8901 9.02001 92.1201 8.68001 93.3501 8.33001L96.6501 7.52001C96.6701 7.52001 96.6901 7.51001 96.7101 7.50001L96.9601 7.44001V7.42001C98.3101 7.01001 99.3001 5.77001 99.3001 4.28001C99.3001 2.46001 97.8201 0.980011 96.0001 0.980011C95.7201 0.980011 95.4601 1.02001 95.2101 1.09001L90.4501 2.38001C87.8501 3.07001 85.2601 3.77001 82.6601 4.47001C80.6901 5.00001 80.6701 5.07001 81.1901 7.01001C84.0101 17.51 86.8201 28.01 89.6401 38.51C91.1501 44.12 92.6701 49.73 94.1901 55.34C94.9701 54.5 95.8001 53.73 96.9501 53.43C98.1301 53.12 99.2701 53.38 100.42 53.65C96.5801 39.3 92.7501 24.94 88.8801 10.6L88.8701 10.62Z" fill="#A9AEB1"/>
<path d="M33.8398 132.01C50.5898 132.01 67.3398 132.01 84.0998 132.05C84.9798 132.05 85.2698 131.55 85.6098 130.96C88.5598 125.86 91.4998 120.75 94.4498 115.65C97.6798 110.06 100.89 104.47 104.15 98.9C104.49 98.32 104.35 97.83 104.22 97.31C102.69 91.55 101.14 85.79 99.5898 80.03C97.6698 72.89 95.7398 65.75 93.8198 58.61C93.5198 57.48 93.7698 56.41 94.1898 55.35C94.9698 54.51 95.7998 53.74 96.9498 53.44C98.1298 53.13 99.2698 53.39 100.42 53.66C102.55 55.2 102.68 57.68 103.27 59.9C107.5 75.55 111.68 91.22 115.87 106.88C116.78 110.3 117.7 113.71 118.62 117.13C119.17 119.13 119.51 121.19 120.28 123.13C120.54 124.68 120.97 126.19 121.49 127.67C121.49 128.19 121.61 128.69 121.75 129.19C122.34 131.3 122.92 133.41 123.46 135.53C123.92 137.32 123.35 138.88 121.98 139.84C120.24 141.06 118.47 141.13 116.85 140.15C115.52 139.34 115.18 138 114.77 136.66C114.1 134.47 109.02 115.42 108.51 113.39C108.27 112.43 108.19 111.39 107.57 110.42C106.57 112.15 105.64 113.77 104.71 115.39C100.3 123.05 95.8799 130.71 91.4799 138.38C90.5499 139.99 89.2798 140.88 87.3298 140.88C68.0198 140.85 48.7098 140.86 29.4098 140.86C27.2698 140.86 25.1298 140.86 22.9898 140.86C21.5598 140.86 20.1198 140.89 18.6898 140.86C17.0598 140.83 15.4298 141.01 13.8098 140.66C11.9798 140.26 10.5798 138.4 10.6798 136.41C10.7998 134.1 12.2098 132.34 14.1498 132.23C16.1298 132.12 18.1098 131.9 20.0998 132.01C21.2098 131.99 22.9498 131.91 22.9998 131.97C23.9098 131.94 24.1698 131.94 27.6798 131.92C30.9398 131.94 31.7598 131.95 33.8398 132V132.01ZM18.6198 135.62C17.5098 135.62 16.3898 135.62 15.2798 135.62C14.6998 135.62 14.2098 135.77 14.2098 136.45C14.2098 137.13 14.6898 137.28 15.2698 137.28C17.4598 137.28 19.6498 137.28 21.8398 137.29C22.3798 137.29 22.8198 137.12 22.8398 136.52C22.8598 135.9 22.4798 135.6 21.8498 135.61C20.7798 135.62 19.6998 135.61 18.6298 135.61L18.6198 135.62ZM119.24 135.28C118.48 135.4 118 135.83 118.05 136.54C118.1 137.24 118.6 137.72 119.33 137.65C119.97 137.59 120.46 137.12 120.43 136.46C120.4 135.77 119.95 135.32 119.24 135.28ZM98.1898 58.86C98.7998 58.64 99.3799 58.28 99.2999 57.55C99.2299 56.87 98.7298 56.38 97.9998 56.44C97.3398 56.5 96.8899 57.01 96.9099 57.64C96.9299 58.33 97.4298 58.75 98.1798 58.86H98.1898Z" fill="#D5D7D9"/>
<path d="M18.6202 135.62C19.6902 135.62 20.7702 135.62 21.8402 135.62C22.4702 135.62 22.8502 135.91 22.8302 136.53C22.8102 137.13 22.3702 137.3 21.8302 137.3C19.6402 137.3 17.4502 137.29 15.2602 137.29C14.6802 137.29 14.2002 137.14 14.2002 136.46C14.2002 135.78 14.6902 135.63 15.2702 135.63C16.3802 135.63 17.5002 135.63 18.6102 135.63L18.6202 135.62Z" fill="white"/>
<path d="M119.25 135.28C119.96 135.32 120.41 135.77 120.44 136.46C120.47 137.12 119.98 137.59 119.34 137.65C118.61 137.72 118.11 137.24 118.06 136.54C118.01 135.83 118.49 135.4 119.25 135.28Z" fill="white"/>
<path d="M98.2003 58.86C97.4503 58.75 96.9503 58.33 96.9303 57.64C96.9103 57.01 97.3603 56.5 98.0203 56.44C98.7503 56.38 99.2503 56.87 99.3203 57.55C99.3903 58.28 98.8103 58.64 98.2103 58.86H98.2003Z" fill="white"/>
<circle cx="96.0002" cy="4.3" r="3.3" fill="black"/>
</svg>
