<svg width="40" height="40" viewBox="0 0 40 40" fill="none" xmlns="http://www.w3.org/2000/svg">
<rect x="15.9819" y="10" width="8.03613" height="20" fill="white"/>
<path fill-rule="evenodd" clip-rule="evenodd" d="M15.5398 6.33872C17.5398 2.88872 22.4599 2.88872 24.4599 6.33872L37.1998 28.3687C39.1998 31.8287 36.7698 36.2487 32.7398 36.2487H7.25984C3.22984 36.2487 0.79982 31.8287 2.79982 28.3687L15.5398 6.33872ZM18.3298 26.6687C18.3298 25.7487 19.0798 24.9987 19.9998 24.9987H20.0199C20.9399 24.9987 21.6898 25.7487 21.6898 26.6687C21.6898 27.5887 20.9399 28.3387 20.0199 28.3387H19.9998C19.0798 28.3387 18.3298 27.5887 18.3298 26.6687ZM21.6698 14.9987C21.6698 14.0787 20.9198 13.3287 19.9998 13.3287C19.0798 13.3287 18.3298 14.0787 18.3298 14.9987V21.6687C18.3298 22.5887 19.0798 23.3387 19.9998 23.3387C20.9198 23.3387 21.6698 22.5887 21.6698 21.6687V14.9987Z" fill="#EF4E45"/>
</svg>
