<svg width="274" height="132" viewBox="0 0 274 132" fill="none" xmlns="http://www.w3.org/2000/svg">
<path d="M11.4063 72.6912L30.082 122.267L90.968 128.654M11.4063 72.6912L42.6843 47.1429M11.4063 72.6912L62.2711 64.7834M57.4124 26.3088L94.0047 8.97235M57.4124 26.3088L110.099 75.4286M57.4124 26.3088L42.6843 47.1429M57.4124 26.3088L7.76221 37.5622L42.6843 47.1429M94.0047 8.97235L110.099 75.4286M94.0047 8.97235L128.5 29M163.242 18.2488L224.279 23.7235M163.242 18.2488L149.576 68.129M163.242 18.2488L128.5 29M224.279 23.7235L254.647 75.2765M224.279 23.7235L149.576 68.129M254.647 75.2765L230.657 121.203L207 85.5M254.647 75.2765L185.5 60.5M172.048 116.488L149.576 68.129M172.048 116.488L131.508 122.571L90.968 128.654M172.048 116.488L207 85.5M90.968 128.654L110.099 75.4286M110.099 75.4286L149.576 68.129M110.099 75.4286L69 95.5M149.576 68.129L128.5 29M184.347 61.4378L207 85.5" stroke="#C7CACC" stroke-width="2"/>
<path d="M30.5 120.5L69.5 96L62.5 65M223 24.5L184.5 61.5L173 116.5L109.5 76.5L62 65" stroke="#A9AEB1" stroke-width="3.5"/>
<rect x="92.0308" y="57.788" width="34.9221" height="34.977" rx="17.4611" fill="#A2AD00"/>
<path fill-rule="evenodd" clip-rule="evenodd" d="M119.515 77.567L118.512 71.3977C118.493 71.2788 118.433 71.1703 118.343 71.0917C118.252 71.013 118.136 70.9693 118.016 70.9683H100.466C99.9648 70.9683 99.4634 71.4824 99.4634 71.998V79.0706C99.4634 79.3262 99.6468 79.5847 99.8932 79.5847H102.109C102.448 78.5522 103.407 77.8614 104.549 77.8614C105.691 77.8614 106.652 78.5522 106.989 79.5847H112.066C112.404 78.5522 113.364 77.8614 114.506 77.8614C115.648 77.8614 116.608 78.5522 116.946 79.5847H119.019C119.295 79.5847 119.52 79.3535 119.52 79.0706V77.6517C119.52 77.623 119.517 77.5943 119.515 77.5656V77.567ZM115.446 73.5389C115.446 73.2545 115.672 73.0248 115.947 73.0248H117.505C117.628 73.025 117.746 73.0707 117.838 73.1531C117.93 73.2355 117.988 73.3487 118.002 73.4714L118.267 75.5278C118.276 75.6001 118.27 75.6736 118.249 75.7434C118.228 75.8131 118.193 75.8777 118.145 75.9328C118.099 75.9876 118.041 76.0317 117.977 76.0619C117.912 76.0922 117.841 76.1079 117.77 76.108H115.947C115.881 76.1072 115.815 76.0933 115.754 76.0671C115.692 76.0409 115.637 76.0028 115.59 75.955C115.544 75.9073 115.507 75.8508 115.482 75.7889C115.457 75.7269 115.445 75.6606 115.446 75.5939V73.5389ZM109.429 73.5389C109.429 73.2545 109.654 73.0248 109.93 73.0248H113.942C114.218 73.0248 114.443 73.2545 114.443 73.5389V75.5924C114.444 75.6592 114.431 75.7255 114.407 75.7874C114.382 75.8494 114.345 75.9059 114.299 75.9536C114.252 76.0013 114.196 76.0394 114.135 76.0657C114.074 76.0919 114.008 76.1058 113.942 76.1065H109.93C109.864 76.1058 109.798 76.0919 109.737 76.0657C109.675 76.0394 109.62 76.0013 109.573 75.9536C109.527 75.9059 109.49 75.8494 109.465 75.7874C109.44 75.7255 109.428 75.6592 109.429 75.5924V73.5389ZM103.412 73.5389C103.412 73.2545 103.637 73.0248 103.913 73.0248H107.925C108.202 73.0248 108.427 73.2545 108.427 73.5389V75.5924C108.429 75.7272 108.376 75.8568 108.282 75.9532C108.189 76.0495 108.06 76.1047 107.926 76.1065H103.915C103.848 76.1058 103.782 76.0919 103.721 76.0657C103.66 76.0394 103.604 76.0013 103.558 75.9536C103.511 75.9059 103.474 75.8494 103.45 75.7874C103.425 75.7255 103.412 75.6592 103.413 75.5924V73.5389H103.412ZM100.403 73.5389C100.403 73.2545 100.63 73.0248 100.905 73.0248H101.909C102.185 73.0248 102.409 73.2545 102.409 73.5389V75.5924C102.41 75.6591 102.398 75.7254 102.373 75.7873C102.348 75.8493 102.312 75.9057 102.265 75.9535C102.219 76.0013 102.163 76.0394 102.102 76.0656C102.041 76.0919 101.975 76.1058 101.909 76.1065H100.906C100.839 76.1058 100.774 76.0919 100.712 76.0657C100.651 76.0394 100.596 76.0013 100.549 75.9536C100.503 75.9059 100.466 75.8494 100.441 75.7874C100.416 75.7255 100.404 75.6592 100.405 75.5924V73.5389H100.403Z" fill="white"/>
<path d="M113.073 80.7336C113.065 80.5398 113.096 80.3463 113.164 80.1648C113.232 79.9832 113.337 79.8175 113.471 79.6775C113.605 79.5375 113.766 79.4261 113.944 79.3502C114.122 79.2742 114.313 79.2352 114.507 79.2355C114.7 79.2358 114.892 79.2754 115.07 79.3519C115.247 79.4284 115.408 79.5402 115.542 79.6806C115.675 79.821 115.779 79.9871 115.847 80.1688C115.914 80.3505 115.945 80.5441 115.936 80.7379C115.919 81.1072 115.76 81.4558 115.493 81.7109C115.226 81.9661 114.871 82.1082 114.502 82.1076C114.134 82.107 113.779 81.9639 113.513 81.7079C113.247 81.452 113.089 81.103 113.073 80.7336Z" fill="white"/>
<path d="M104.549 79.2972C103.76 79.2972 103.117 79.942 103.117 80.7332C103.117 81.1141 103.268 81.4794 103.536 81.7487C103.805 82.018 104.169 82.1693 104.549 82.1693C104.929 82.1693 105.294 82.018 105.562 81.7487C105.831 81.4794 105.982 81.1141 105.982 80.7332C105.982 79.942 105.339 79.2972 104.549 79.2972Z" fill="white"/>
<rect x="161.268" y="103.41" width="22.7753" height="22.8111" rx="11.3877" fill="#007C92"/>
<path fill-rule="evenodd" clip-rule="evenodd" d="M179.116 116.292L178.469 112.315C178.458 112.239 178.419 112.169 178.36 112.118C178.302 112.067 178.227 112.039 178.15 112.039H166.838C166.514 112.039 166.191 112.37 166.191 112.702V117.261C166.191 117.426 166.309 117.593 166.468 117.593H167.897C168.115 116.927 168.733 116.482 169.469 116.482C170.205 116.482 170.825 116.927 171.042 117.593H174.315C174.533 116.927 175.151 116.482 175.887 116.482C176.623 116.482 177.242 116.927 177.46 117.593H178.796C178.975 117.593 179.12 117.444 179.12 117.261V116.347C179.12 116.328 179.118 116.31 179.116 116.291V116.292ZM176.493 113.696C176.493 113.512 176.639 113.364 176.816 113.364H177.82C177.9 113.364 177.976 113.394 178.035 113.447C178.094 113.5 178.132 113.573 178.141 113.652L178.312 114.978C178.318 115.024 178.314 115.072 178.3 115.117C178.287 115.162 178.264 115.203 178.233 115.239C178.203 115.274 178.166 115.302 178.125 115.322C178.083 115.341 178.037 115.352 177.991 115.352H176.816C176.774 115.351 176.731 115.342 176.692 115.325C176.652 115.308 176.616 115.284 176.586 115.253C176.556 115.222 176.533 115.186 176.517 115.146C176.501 115.106 176.493 115.063 176.493 115.02V113.696ZM172.615 113.696C172.615 113.512 172.76 113.364 172.938 113.364H175.524C175.702 113.364 175.847 113.512 175.847 113.696V115.019C175.847 115.062 175.839 115.105 175.823 115.145C175.807 115.185 175.784 115.221 175.754 115.252C175.724 115.283 175.688 115.307 175.648 115.324C175.609 115.341 175.567 115.35 175.524 115.351H172.938C172.895 115.35 172.853 115.341 172.813 115.324C172.774 115.307 172.738 115.283 172.708 115.252C172.678 115.221 172.654 115.185 172.638 115.145C172.622 115.105 172.614 115.062 172.615 115.019V113.696ZM168.736 113.696C168.736 113.512 168.881 113.364 169.059 113.364H171.645C171.824 113.364 171.969 113.512 171.969 113.696V115.019C171.97 115.106 171.936 115.19 171.876 115.252C171.815 115.314 171.733 115.35 171.646 115.351H169.06C169.017 115.35 168.975 115.341 168.936 115.324C168.896 115.307 168.86 115.283 168.83 115.252C168.8 115.221 168.777 115.185 168.761 115.145C168.745 115.105 168.737 115.062 168.737 115.019V113.696H168.736ZM166.797 113.696C166.797 113.512 166.943 113.364 167.12 113.364H167.768C167.946 113.364 168.09 113.512 168.09 113.696V115.019C168.09 115.062 168.083 115.105 168.067 115.145C168.051 115.185 168.027 115.221 167.997 115.252C167.967 115.283 167.932 115.307 167.892 115.324C167.853 115.341 167.81 115.35 167.768 115.351H167.121C167.078 115.35 167.036 115.341 166.996 115.324C166.957 115.307 166.921 115.283 166.891 115.252C166.861 115.221 166.837 115.185 166.821 115.145C166.805 115.105 166.797 115.062 166.798 115.019V113.696H166.797Z" fill="white"/>
<path d="M174.964 118.333C174.959 118.208 174.978 118.084 175.023 117.967C175.067 117.85 175.134 117.743 175.22 117.653C175.306 117.562 175.41 117.491 175.525 117.442C175.64 117.393 175.763 117.367 175.888 117.368C176.013 117.368 176.136 117.393 176.251 117.443C176.365 117.492 176.469 117.564 176.555 117.655C176.641 117.745 176.708 117.852 176.752 117.969C176.795 118.086 176.815 118.211 176.809 118.336C176.798 118.574 176.696 118.799 176.524 118.963C176.352 119.128 176.123 119.219 175.885 119.219C175.647 119.219 175.419 119.126 175.247 118.961C175.076 118.796 174.974 118.571 174.964 118.333Z" fill="white"/>
<path d="M169.469 117.407C168.961 117.407 168.546 117.823 168.546 118.333C168.546 118.579 168.643 118.814 168.816 118.988C168.99 119.161 169.225 119.259 169.469 119.259C169.714 119.259 169.949 119.161 170.122 118.988C170.296 118.814 170.393 118.579 170.393 118.333C170.393 117.823 169.978 117.407 169.469 117.407Z" fill="white"/>
<rect x="145.477" width="34.9221" height="34.977" rx="17.4611" fill="#555E65"/>
<path fill-rule="evenodd" clip-rule="evenodd" d="M171.537 16.3396H171.534L169.969 11.5475C169.729 10.8108 168.988 10.3082 168.147 10.3082H157.735C156.894 10.3082 156.153 10.8108 155.912 11.5461L154.342 16.3396H154.339C153.96 16.3396 153.596 16.4906 153.328 16.7594C153.06 17.0282 152.909 17.3927 152.909 17.7728V22.8033C152.909 23.1997 153.229 23.5199 153.624 23.5199H154.342V24.4778C154.342 24.8967 154.508 25.2985 154.804 25.5948C155.099 25.891 155.5 26.0574 155.918 26.0574C156.336 26.0574 156.737 25.891 157.032 25.5948C157.328 25.2985 157.494 24.8967 157.494 24.4778V23.5199H168.382V24.4778C168.382 24.8967 168.548 25.2985 168.843 25.5948C169.139 25.891 169.54 26.0574 169.958 26.0574C170.376 26.0574 170.777 25.891 171.072 25.5948C171.368 25.2985 171.534 24.8967 171.534 24.4778V23.5199H172.251C172.345 23.5199 172.438 23.5014 172.525 23.4654C172.612 23.4294 172.691 23.3766 172.757 23.31C172.823 23.2435 172.876 23.1645 172.912 23.0776C172.948 22.9906 172.966 22.8974 172.966 22.8033V17.7728C172.966 17.3927 172.816 17.0282 172.548 16.7594C172.279 16.4906 171.916 16.3396 171.537 16.3396ZM156.162 16.2434L157.365 12.31C157.415 12.1628 157.511 12.0356 157.639 11.9468C157.766 11.8579 157.919 11.8121 158.074 11.816H167.802C168.131 11.816 168.419 12.0171 168.509 12.31L169.713 16.2448C169.727 16.2922 169.69 16.3396 169.635 16.3396H156.24C156.186 16.3396 156.147 16.2922 156.162 16.2434ZM155.488 17.7757C156.119 17.7786 156.633 18.2927 156.634 18.9303C156.633 19.1572 156.565 19.3788 156.438 19.567C156.312 19.7551 156.132 19.9015 155.923 19.9876C155.713 20.0736 155.483 20.0956 155.261 20.0506C155.039 20.0056 154.835 19.8958 154.676 19.7349C154.516 19.574 154.407 19.3692 154.364 19.1466C154.32 18.9239 154.343 18.6932 154.43 18.4836C154.517 18.274 154.664 18.0949 154.852 17.9689C155.04 17.8429 155.262 17.7757 155.488 17.7757ZM170.388 20.0734C170.237 20.0734 170.088 20.0437 169.949 19.9859C169.81 19.9282 169.684 19.8436 169.577 19.7369C169.471 19.6302 169.386 19.5036 169.329 19.3642C169.271 19.2248 169.241 19.0754 169.241 18.9245C169.241 18.7737 169.271 18.6243 169.329 18.4849C169.386 18.3455 169.471 18.2188 169.577 18.1122C169.684 18.0055 169.81 17.9209 169.949 17.8631C170.088 17.8054 170.237 17.7757 170.388 17.7757C170.692 17.7757 170.983 17.8967 171.198 18.1122C171.413 18.3276 171.534 18.6198 171.534 18.9245C171.534 19.2292 171.413 19.5214 171.198 19.7369C170.983 19.9523 170.692 20.0734 170.388 20.0734Z" fill="white"/>
<rect x="238.096" y="55.3548" width="34.9221" height="34.977" rx="17.4611" fill="#555E65"/>
<path fill-rule="evenodd" clip-rule="evenodd" d="M258.921 66.7208C259.032 66.8046 259.114 66.9221 259.153 67.056L261.16 73.896C261.356 73.8648 261.555 73.8488 261.756 73.8488C262.763 73.8488 263.729 74.2498 264.441 74.9635C265.153 75.6771 265.553 76.6451 265.553 77.6544C265.553 78.6637 265.153 79.6316 264.441 80.3453C263.729 81.059 262.763 81.4599 261.756 81.4599C260.749 81.4599 259.784 81.059 259.072 80.3453C258.36 79.6316 257.96 78.6637 257.96 77.6544C257.96 76.6451 258.36 75.6771 259.072 74.9635C259.4 74.634 259.783 74.3711 260.199 74.1836L259.564 72.0262L256.75 76.4069C256.884 76.6296 256.957 76.8868 256.957 77.1515C256.957 77.5324 256.806 77.8976 256.538 78.1669C256.269 78.4362 255.904 78.5875 255.525 78.5875C255.145 78.5875 254.78 78.4362 254.512 78.1669C254.243 77.8976 254.092 77.5324 254.092 77.1515C254.092 76.8661 254.177 76.5895 254.332 76.3555L252.357 72.8692L251.488 74.5499C251.661 74.6729 251.825 74.8111 251.977 74.9635C252.689 75.6771 253.089 76.6451 253.089 77.6544C253.089 78.6637 252.689 79.6316 251.977 80.3453C251.265 81.059 250.299 81.4599 249.293 81.4599C248.286 81.4599 247.32 81.059 246.608 80.3453C245.896 79.6316 245.496 78.6637 245.496 77.6544C245.496 76.6451 245.896 75.6771 246.608 74.9635C247.32 74.2498 248.286 73.8488 249.293 73.8488C249.745 73.8488 250.189 73.9297 250.605 74.0834L251.769 71.8309L251.02 70.5097H250.33C250.187 70.5097 250.051 70.453 249.95 70.352C249.849 70.251 249.792 70.114 249.792 69.9712C249.792 69.8284 249.849 69.6914 249.95 69.5904C250.051 69.4894 250.187 69.4327 250.33 69.4327H252.622C252.764 69.4327 252.901 69.4894 253.002 69.5904C253.103 69.6914 253.159 69.8284 253.159 69.9712C253.159 70.114 253.103 70.251 253.002 70.352C252.901 70.453 252.764 70.5097 252.622 70.5097H252.173L252.685 71.413L259.172 70.6906L258.277 67.6462L258.262 67.5959H255.469V66.5907H258.534C258.674 66.5914 258.809 66.637 258.921 66.7208ZM250.105 75.0499C249.848 74.9693 249.575 74.9259 249.293 74.9259C247.791 74.9259 246.571 76.1494 246.571 77.6544C246.571 79.1594 247.791 80.3829 249.293 80.3829C250.794 80.3829 252.015 79.1594 252.015 77.6544C252.015 76.7911 251.613 76.0204 250.987 75.5202L249.834 77.7518C249.771 77.8659 249.666 77.9509 249.542 77.9888C249.417 78.0266 249.283 78.0143 249.167 77.9545C249.052 77.8947 248.964 77.7921 248.922 77.6684C248.881 77.5447 248.889 77.4098 248.946 77.2922L250.105 75.0499ZM261.202 77.5938L260.507 75.2304C259.633 75.6847 259.034 76.6006 259.034 77.6544C259.034 79.1594 260.255 80.3829 261.756 80.3829C263.257 80.3829 264.478 79.1594 264.478 77.6544C264.478 76.1494 263.257 74.9259 261.756 74.9259C261.658 74.9259 261.562 74.9311 261.467 74.9411L262.162 77.3095C262.185 77.3739 262.195 77.4426 262.191 77.5111C262.187 77.5796 262.169 77.6466 262.138 77.7079C262.108 77.7692 262.065 77.8235 262.012 77.8674C261.959 77.9114 261.898 77.9442 261.833 77.9636C261.767 77.9831 261.698 77.9888 261.63 77.9806C261.562 77.9723 261.497 77.9501 261.438 77.9155C261.378 77.8808 261.327 77.8344 261.287 77.7791C261.246 77.7238 261.217 77.6607 261.202 77.5938ZM255.149 75.7656C255.27 75.7326 255.397 75.7154 255.525 75.7154C255.673 75.7154 255.818 75.7384 255.957 75.7824L258.536 71.7734L253.224 72.3651L255.149 75.7656ZM255.879 76.7961C255.785 76.7018 255.658 76.6489 255.525 76.6489C255.392 76.6489 255.264 76.7018 255.17 76.7961C255.076 76.8903 255.023 77.0182 255.023 77.1515C255.023 77.2848 255.076 77.4126 255.17 77.5069C255.264 77.6012 255.392 77.6541 255.525 77.6541C255.658 77.6541 255.785 77.6012 255.879 77.5069C255.973 77.4126 256.026 77.2848 256.026 77.1515C256.026 77.0182 255.973 76.8903 255.879 76.7961Z" fill="white"/>
<rect x="49.2131" y="13.3825" width="22.7753" height="22.8111" rx="11.3877" fill="#555E65"/>
<path fill-rule="evenodd" clip-rule="evenodd" d="M64.7564 27.5651C64.7388 27.5651 64.7231 27.5697 64.7056 27.5697L62.6518 20.4604C62.6269 20.3738 62.5746 20.2977 62.5028 20.2435C62.4311 20.1893 62.3437 20.1598 62.2538 20.1595H60.1391V20.9001H61.9398C61.96 20.8999 61.9796 20.9063 61.9958 20.9183C62.012 20.9304 62.0238 20.9474 62.0294 20.9667L63.4423 25.8553C63.4466 25.8701 63.4472 25.8857 63.4439 25.9007C63.4407 25.9157 63.4338 25.9297 63.4238 25.9414L61.2094 28.5509C61.2007 28.5611 61.1899 28.5693 61.1778 28.5748C61.1657 28.5804 61.1525 28.5833 61.1392 28.5833H57.775C57.6874 28.2586 57.4848 27.977 57.2051 27.7911C56.9254 27.6052 56.5878 27.5276 56.2553 27.573C55.9228 27.6183 55.6181 27.7835 55.3982 28.0375C55.1782 28.2916 55.058 28.6172 55.0601 28.9536C55.058 29.29 55.1782 29.6156 55.3982 29.8697C55.6181 30.1238 55.9228 30.2889 56.2553 30.3342C56.5878 30.3796 56.9254 30.3021 57.2051 30.1161C57.4848 29.9302 57.6874 29.6486 57.775 29.3239H61.3304C61.3906 29.3239 61.4502 29.3107 61.5049 29.2853C61.5596 29.2598 61.6081 29.2228 61.6471 29.1767L63.7009 26.756L64.0001 27.7928C63.6215 28.04 63.3703 28.4667 63.3703 28.9536C63.3703 29.2282 63.4515 29.4967 63.6037 29.725C63.7559 29.9534 63.9723 30.1314 64.2254 30.2365C64.4785 30.3415 64.757 30.369 65.0257 30.3155C65.2944 30.2619 65.5412 30.1296 65.7349 29.9355C65.9287 29.7413 66.0606 29.4939 66.114 29.2245C66.1675 28.9552 66.14 28.676 66.0352 28.4222C65.9304 28.1685 65.7528 27.9517 65.525 27.7991C65.2972 27.6465 65.0294 27.5651 64.7555 27.5651H64.7564ZM56.4453 29.6016C56.3603 29.6015 56.2761 29.5846 56.1976 29.5518C56.1191 29.5191 56.0478 29.4712 55.9878 29.4109C55.9278 29.3505 55.8802 29.2789 55.8478 29.2002C55.8154 29.1214 55.7987 29.037 55.7988 28.9518C55.799 28.8665 55.8158 28.7822 55.8485 28.7035C55.8811 28.6248 55.9289 28.5534 55.9891 28.4932C56.0493 28.433 56.1207 28.3853 56.1993 28.3528C56.2779 28.3203 56.3621 28.3037 56.4471 28.3038C56.6188 28.304 56.7834 28.3726 56.9046 28.4945C57.0258 28.6164 57.0938 28.7815 57.0935 28.9536C57.0933 29.1257 57.0249 29.2907 56.9033 29.4122C56.7817 29.5337 56.617 29.6018 56.4453 29.6016ZM64.7564 29.6016C64.6714 29.6015 64.5872 29.5846 64.5087 29.5518C64.4302 29.5191 64.3589 29.4712 64.2989 29.4109C64.2389 29.3505 64.1913 29.2789 64.1589 29.2002C64.1265 29.1214 64.1098 29.037 64.11 28.9518C64.1101 28.8665 64.1269 28.7822 64.1596 28.7035C64.1922 28.6248 64.24 28.5534 64.3002 28.4932C64.3604 28.433 64.4318 28.3853 64.5104 28.3528C64.589 28.3203 64.6732 28.3037 64.7582 28.3038C64.9299 28.304 65.0945 28.3726 65.2157 28.4945C65.3369 28.6164 65.4049 28.7815 65.4046 28.9536C65.4044 29.1257 65.336 29.2907 65.2144 29.4122C65.0928 29.5337 64.9281 29.6018 64.7564 29.6016Z" fill="white"/>
<rect x="19.1499" y="107.972" width="22.7753" height="22.8111" rx="11.3877" fill="#555E65"/>
<path d="M31.1492 115.212C30.9949 115.217 30.8414 115.19 30.6976 115.134C30.5537 115.078 30.4226 114.993 30.312 114.885C30.2013 114.777 30.1133 114.648 30.0533 114.506C29.9932 114.363 29.9623 114.21 29.9623 114.056C29.9623 113.901 29.9932 113.748 30.0533 113.605C30.1133 113.463 30.2013 113.334 30.312 113.226C30.4226 113.118 30.5537 113.034 30.6976 112.977C30.8414 112.921 30.9949 112.895 31.1492 112.899C31.4496 112.907 31.7348 113.033 31.9443 113.249C32.1537 113.465 32.2709 113.754 32.2709 114.056C32.2709 114.357 32.1537 114.646 31.9443 114.862C31.7348 115.078 31.4496 115.204 31.1492 115.212Z" fill="white"/>
<path d="M28.6171 122.516L28.5727 122.611L26.9622 124.971C26.8746 125.089 26.8373 125.238 26.8587 125.383C26.8801 125.529 26.9584 125.66 27.0763 125.748C27.1942 125.836 27.3421 125.873 27.4875 125.852C27.6329 125.831 27.7638 125.752 27.8515 125.634L29.6107 123.508C29.6442 123.449 29.6764 123.392 29.7087 123.334C29.7297 123.296 29.7508 123.259 29.7723 123.221L30.2516 121.846L29.1388 120.779L28.618 122.517L28.6171 122.516Z" fill="white"/>
<path d="M33.0907 118.032L34.9616 119.183C35.0465 119.239 35.1066 119.326 35.1294 119.425C35.1522 119.525 35.1359 119.629 35.084 119.717C35.032 119.804 34.9483 119.869 34.8504 119.896C34.7524 119.923 34.6477 119.912 34.558 119.864L32.6003 118.91C32.4751 118.849 32.3652 118.761 32.2789 118.651L31.6445 117.845L31.2992 119.564C31.2905 119.607 31.291 119.652 31.3006 119.696C31.3101 119.739 31.3285 119.78 31.3546 119.816L33.0667 122.172L33.2098 122.468L33.9532 125.128C33.9765 125.197 33.9859 125.27 33.9811 125.343C33.9762 125.416 33.9571 125.487 33.9248 125.552C33.8925 125.618 33.8477 125.676 33.7929 125.724C33.7381 125.772 33.6744 125.809 33.6055 125.832C33.5366 125.856 33.4637 125.865 33.3911 125.86C33.3185 125.855 33.2476 125.836 33.1823 125.804C33.1171 125.771 33.0589 125.726 33.011 125.671C32.9631 125.617 32.9265 125.553 32.9032 125.484L31.8736 122.788L31.832 122.723L29.7302 120.605C29.4929 120.358 29.3189 120.057 29.223 119.728C29.1272 119.398 29.1123 119.05 29.1798 118.714L29.4652 117.295L28.4605 117.911C28.4371 117.926 28.4172 117.945 28.4023 117.968L27.2082 119.816C27.1509 119.901 27.0626 119.961 26.962 119.982C26.8614 120.004 26.7565 119.985 26.6695 119.93C26.5825 119.875 26.5202 119.788 26.496 119.688C26.4718 119.588 26.4874 119.482 26.5397 119.394L27.5379 117.454C27.6018 117.331 27.6927 117.223 27.8039 117.139L29.4661 115.891C29.5702 115.813 29.6895 115.757 29.8163 115.729C29.9432 115.7 30.0746 115.698 30.2021 115.724L31.5319 115.993C31.653 116.017 31.7681 116.065 31.8702 116.135C31.9724 116.204 32.0595 116.294 32.1266 116.398L33.0316 117.974C33.0467 117.997 33.0669 118.017 33.0907 118.032Z" fill="white"/>
<ellipse cx="230.505" cy="121.355" rx="3.03671" ry="3.04147" fill="#A2AD00"/>
<ellipse cx="42.2288" cy="46.8387" rx="3.03671" ry="3.04147" fill="#A2AD00"/>
<ellipse cx="62.2711" cy="65.0876" rx="3.03671" ry="3.04147" fill="#A2AD00"/>
<ellipse cx="90.816" cy="128.959" rx="3.03671" ry="3.04147" fill="#8D9398"/>
<ellipse cx="68.9517" cy="95.8065" rx="3.03671" ry="3.04147" fill="#8D9398"/>
<ellipse cx="10.0367" cy="38.0415" rx="3.03671" ry="3.04147" fill="#8D9398"/>
<ellipse cx="94.0367" cy="9.04147" rx="3.03671" ry="3.04147" fill="#8D9398"/>
<ellipse cx="129.037" cy="29.0415" rx="3.03671" ry="3.04147" fill="#8D9398"/>
<ellipse cx="151.032" cy="67.2166" rx="6.07341" ry="6.08295" fill="#A2AD00"/>
<ellipse cx="207.037" cy="86.0415" rx="3.03671" ry="3.04147" fill="#8D9398"/>
<ellipse cx="185.037" cy="61.0415" rx="3.03671" ry="3.04147" fill="#8D9398"/>
<rect x="210.766" y="11.5576" width="22.7753" height="22.8111" rx="11.3877" fill="#539CA4"/>
<g clip-path="url(#clip0_4272_286)">
<path fill-rule="evenodd" clip-rule="evenodd" d="M214.679 27.4065L213.862 26.9971L214.192 26.3347L215.009 26.7441C215.321 26.9005 215.688 26.9005 216 26.7441L216.156 26.6659C216.676 26.4053 217.288 26.4053 217.808 26.6659L217.964 26.7441C218.276 26.9005 218.643 26.9005 218.955 26.7441L219.111 26.6659C219.631 26.4053 220.243 26.4053 220.763 26.6659L220.919 26.7441C221.231 26.9005 221.599 26.9005 221.91 26.7441L222.066 26.6659C222.586 26.4053 223.198 26.4053 223.718 26.6659L223.874 26.7441C224.186 26.9005 224.554 26.9005 224.866 26.7441L225.022 26.6659C225.541 26.4053 226.154 26.4053 226.673 26.6659L226.829 26.7441C227.141 26.9005 227.509 26.9005 227.821 26.7441L227.977 26.6659C228.497 26.4053 229.109 26.4053 229.629 26.6659L230.445 27.0753L230.115 27.7376L229.298 27.3283C228.986 27.1719 228.619 27.1719 228.307 27.3283L228.151 27.4065C227.631 27.6671 227.019 27.6671 226.499 27.4065L226.343 27.3283C226.031 27.1719 225.664 27.1719 225.352 27.3283L225.196 27.4065C224.676 27.6671 224.064 27.6671 223.544 27.4065L223.388 27.3283C223.076 27.1719 222.709 27.1719 222.397 27.3283L222.241 27.4065C221.721 27.6671 221.109 27.6671 220.589 27.4065L220.433 27.3283C220.121 27.1719 219.754 27.1719 219.442 27.3283L219.286 27.4065C218.766 27.6671 218.154 27.6671 217.634 27.4065L217.478 27.3283C217.166 27.1719 216.799 27.1719 216.487 27.3283L216.331 27.4065C215.811 27.6671 215.199 27.6671 214.679 27.4065Z" fill="white"/>
<path fill-rule="evenodd" clip-rule="evenodd" d="M229.029 24.074H215.279C215.026 24.074 214.848 24.3216 214.928 24.5613L215.421 26.0424C215.43 26.07 215.442 26.0958 215.457 26.1198C215.642 26.1279 215.83 26.0891 216 26.0035L216.156 25.9254C216.676 25.6647 217.288 25.6647 217.808 25.9254L217.964 26.0035C218.276 26.1599 218.643 26.1599 218.955 26.0035L219.111 25.9254C219.631 25.6647 220.243 25.6647 220.763 25.9254L220.919 26.0035C221.231 26.1599 221.599 26.1599 221.91 26.0035L222.066 25.9254C222.586 25.6647 223.198 25.6647 223.718 25.9254L223.874 26.0035C224.186 26.1599 224.554 26.1599 224.866 26.0035L225.022 25.9254C225.541 25.6647 226.154 25.6647 226.673 25.9254L226.829 26.0035C227.141 26.1599 227.509 26.1599 227.821 26.0035L227.977 25.9254C228.293 25.7666 228.644 25.7046 228.988 25.7392L229.379 24.5613C229.459 24.3216 229.281 24.074 229.029 24.074Z" fill="white"/>
<path fill-rule="evenodd" clip-rule="evenodd" d="M220.841 21.1508C221.024 21.2423 221.098 21.4647 221.007 21.6476L220.37 22.9241C220.245 23.1749 219.989 23.3334 219.709 23.3334H216.841L216.205 24.6098C216.113 24.7927 215.891 24.8669 215.709 24.7754C215.527 24.684 215.453 24.4616 215.544 24.2787L216.18 23.0022C216.306 22.7513 216.561 22.5929 216.841 22.5929H219.709L220.346 21.3164C220.437 21.1335 220.659 21.0594 220.841 21.1508ZM223.466 21.1508C223.648 21.0594 223.87 21.1335 223.962 21.3164L224.598 22.5929H227.466C227.746 22.5929 228.002 22.7513 228.127 23.0022L228.764 24.2787C228.855 24.4616 228.781 24.684 228.598 24.7754C228.416 24.8669 228.194 24.7927 228.103 24.6098L227.466 23.3334H224.598C224.318 23.3334 224.063 23.1749 223.937 22.924L223.301 21.6476C223.21 21.4647 223.284 21.2423 223.466 21.1508Z" fill="white"/>
<path fill-rule="evenodd" clip-rule="evenodd" d="M220.033 20.1462C219.941 19.6879 220.291 19.2604 220.757 19.2604H223.55C224.016 19.2604 224.366 19.6879 224.274 20.1462L223.993 21.5547C223.953 21.7552 223.759 21.8852 223.559 21.8451C223.359 21.805 223.229 21.6099 223.269 21.4094L223.55 20.0009H220.757L221.038 21.4094C221.078 21.6099 220.949 21.805 220.749 21.8451C220.549 21.8852 220.354 21.7552 220.314 21.5547L220.033 20.1462Z" fill="white"/>
<path d="M222.523 21.1118C222.523 20.9073 222.688 20.7415 222.892 20.7415H223.631V21.482H222.892C222.688 21.482 222.523 21.3163 222.523 21.1118Z" fill="white"/>
<path d="M221.784 21.1118C221.784 20.9073 221.619 20.7415 221.415 20.7415H220.676V21.482H221.415C221.619 21.482 221.784 21.3163 221.784 21.1118Z" fill="white"/>
</g>
<rect x="0.0185547" y="60.5253" width="22.7753" height="22.8111" rx="11.3877" fill="#539CA4"/>
<g clip-path="url(#clip1_4272_286)">
<path fill-rule="evenodd" clip-rule="evenodd" d="M3.93126 76.3742L3.1145 75.9648L3.44489 75.3024L4.26165 75.7118C4.57362 75.8682 4.94083 75.8682 5.2528 75.7118L5.40879 75.6336C5.92875 75.373 6.54076 75.373 7.06072 75.6336L7.21671 75.7118C7.52868 75.8682 7.89589 75.8682 8.20787 75.7118L8.36385 75.6336C8.88381 75.373 9.49583 75.373 10.0158 75.6336L10.1718 75.7118C10.4837 75.8682 10.851 75.8682 11.1629 75.7118L11.3189 75.6336C11.8389 75.373 12.4509 75.373 12.9708 75.6336L13.1268 75.7118C13.4388 75.8682 13.806 75.8682 14.118 75.7118L14.274 75.6336C14.7939 75.373 15.4059 75.373 15.9259 75.6336L16.0819 75.7118C16.3939 75.8682 16.7611 75.8682 17.073 75.7118L17.229 75.6336C17.749 75.373 18.361 75.373 18.881 75.6336L19.6977 76.043L19.3673 76.7054L18.5506 76.296C18.2386 76.1396 17.8714 76.1396 17.5594 76.296L17.4034 76.3742C16.8835 76.6348 16.2715 76.6348 15.7515 76.3742L15.5955 76.296C15.2835 76.1396 14.9163 76.1396 14.6044 76.296L14.4484 76.3742C13.9284 76.6348 13.3164 76.6348 12.7964 76.3742L12.6405 76.296C12.3285 76.1396 11.9613 76.1396 11.6493 76.296L11.4933 76.3742C10.9734 76.6348 10.3613 76.6348 9.84138 76.3742L9.6854 76.296C9.37342 76.1396 9.00621 76.1396 8.69424 76.296L8.53825 76.3742C8.01829 76.6348 7.40628 76.6348 6.88632 76.3742L6.73033 76.296C6.41836 76.1396 6.05115 76.1396 5.73918 76.296L5.58319 76.3742C5.06323 76.6348 4.45122 76.6348 3.93126 76.3742Z" fill="white"/>
<path d="M8.45105 68.5984C8.45105 67.9849 8.94719 67.4875 9.5592 67.4875H14.1349L13.4367 69.5873C13.3786 69.7621 13.4575 69.9531 13.6219 70.0355L18.0422 72.251C18.7187 72.5901 18.865 73.4939 18.3302 74.03L17.2954 74.8615C17.2731 74.8715 17.251 74.8821 17.229 74.8931L17.073 74.9713C16.7611 75.1276 16.3939 75.1276 16.0819 74.9713L15.9259 74.8931C15.4059 74.6325 14.7939 74.6325 14.274 74.8931L14.118 74.9713C13.806 75.1276 13.4388 75.1276 13.1268 74.9713L12.9708 74.8931C12.4509 74.6325 11.8389 74.6325 11.3189 74.8931L11.1629 74.9713C10.851 75.1276 10.4837 75.1276 10.1718 74.9713L10.0158 74.8931C9.49583 74.6325 8.88381 74.6325 8.36385 74.8931L8.20787 74.9713C7.89589 75.1276 7.52868 75.1276 7.21671 74.9713L7.06072 74.8931C6.54076 74.6325 5.92875 74.6325 5.40879 74.8931L5.2528 74.9713C4.94083 75.1276 4.57362 75.1276 4.26165 74.9713L4.01846 74.8494V72.6714H17.229L13.2915 70.6979C12.909 70.5062 12.6806 70.1183 12.6788 69.7092H11.7755C11.5715 69.7092 11.4061 69.5434 11.4061 69.3389C11.4061 69.1344 11.5715 68.9687 11.7755 68.9687H12.8637L13.1099 68.2281H9.5592C9.3552 68.2281 9.18982 68.3939 9.18982 68.5984V68.9687H10.298C10.502 68.9687 10.6673 69.1344 10.6673 69.3389C10.6673 69.5434 10.502 69.7092 10.298 69.7092H4.01846V68.9687H8.45105V68.5984Z" fill="white"/>
<path d="M6.60414 70.82H4.01846V71.5606H6.60414C6.80814 71.5606 6.97352 71.3948 6.97352 71.1903C6.97352 70.9858 6.80814 70.82 6.60414 70.82Z" fill="white"/>
<path d="M7.71229 71.1903C7.71229 70.9858 7.87767 70.82 8.08167 70.82H11.0367C11.2407 70.82 11.4061 70.9858 11.4061 71.1903C11.4061 71.3948 11.2407 71.5606 11.0367 71.5606H8.08167C7.87767 71.5606 7.71229 71.3948 7.71229 71.1903Z" fill="white"/>
</g>
<defs>
<clipPath id="clip0_4272_286">
<rect width="14.7753" height="14.8111" fill="white" transform="translate(214.766 15.5576)"/>
</clipPath>
<clipPath id="clip1_4272_286">
<rect width="14.7753" height="14.8111" fill="white" transform="translate(4.01855 64.5253)"/>
</clipPath>
</defs>
</svg>
