<svg width="135" height="74" viewBox="0 0 135 74" fill="none" xmlns="http://www.w3.org/2000/svg">
<path d="M120.488 33.645H83.4314L83.4359 33.6376C80.3625 33.4868 77.9189 31.0458 77.9189 28.0567C77.9189 24.9704 80.524 22.4685 83.7377 22.4685C85.081 22.4685 86.3178 22.9056 87.3026 23.6397C87.1742 23.0728 87.1064 22.4841 87.1064 21.8803C87.1064 17.332 90.9456 13.645 95.6814 13.645C98.7368 13.645 101.419 15.1796 102.938 17.49C104.504 15.511 106.981 14.2332 109.769 14.2332C114.22 14.2332 117.879 17.4899 118.303 21.6575C118.985 21.421 119.721 21.292 120.488 21.292C124.04 21.292 126.919 24.0573 126.919 27.4685C126.919 30.8797 124.04 33.645 120.488 33.645Z" fill="#A6D1D9"/>
<path d="M35.9189 67.645L6.74438 67.57C6.74438 67.57 -0.869627 66.618 0.0823729 58.211C0.0823729 58.211 0.399373 33.942 1.98537 28.39C1.98537 28.39 2.46136 26.645 5.47536 26.645L90.0764 29.009C90.0764 29.009 97.3034 28.842 104.931 33.308C104.931 33.308 117.429 42.031 120.919 49.645C120.919 49.645 136.973 50.756 134.118 65.191L131.104 67.57C131.104 67.57 127.919 67.645 125.919 67.645C123.919 67.645 126.556 59.032 118.625 59.032C118.625 59.032 111.712 58.445 110.919 67.645H50.9189C50.9189 67.645 51.1574 59.163 43.2264 59.004" fill="#A2AD00"/>
<path d="M38.0987 65.0674C32.0284 66.3246 24.4633 67.4539 16.8287 67.4689C16.5643 67.4694 16.3043 67.4699 16.0489 67.4703C13.5335 67.4747 11.4631 67.4783 9.94972 67.5709C9.92668 67.5723 9.90277 67.5747 9.87802 67.578L6.74438 67.57C6.74438 67.57 -0.869627 66.6179 0.0823729 58.2109C0.0823729 58.2109 0.116767 55.5778 0.21958 51.8477C0.920033 52.1455 1.65796 52.4832 1.91873 52.645C3.39913 53.3222 4.23288 53.5661 5.77779 54.018C5.816 54.0291 5.85463 54.0404 5.89372 54.0519C26.6447 60.1239 54.5437 49.2749 54.5437 49.2749C67.9377 44.7609 77.5687 42.1579 77.5687 42.1579C92.8587 38.1259 108.419 46.1402 108.419 46.1402C123.087 54.1466 128.893 55.7883 133.024 56.2416C134.294 58.429 134.881 61.3345 134.118 65.1909L131.104 67.57C131.104 67.57 127.919 67.645 125.919 67.645C125.25 67.645 125.1 66.6824 124.9 65.4009C124.501 62.8489 123.905 59.032 118.625 59.032C118.625 59.032 113.933 58.6335 111.836 63.6384C109.7 62.3053 106.943 60.6766 103.298 58.6869C103.298 58.6869 89.3887 50.5299 74.0987 54.5619C74.0987 54.5619 64.4687 57.1649 51.0737 61.6789C51.0737 61.6789 50.4863 61.8784 49.4186 62.2034C48.3306 60.5133 46.4557 59.0687 43.2264 59.004L38.0987 65.0674Z" fill="#909A00"/>
<path d="M4.08301 49.737L5.16403 30.507L86.4189 32.145C86.4189 32.145 98.4189 32.145 102.919 35.145C107.419 38.145 111.919 41.145 116.919 50.645L102.919 50.643V37.645H90.9189V49.645L4.08301 49.737Z" fill="#37424A"/>
<path d="M48.7439 13.6401H27.5689C27.5689 13.6401 29.6689 13.6402 27.5715 13.6353C25.4741 13.6304 24.4189 11.9506 24.4189 10.0077C24.4189 8.00163 25.9076 6.37537 27.7439 6.37537C28.5115 6.37537 29.2183 6.65947 29.7811 7.13667C29.7077 6.76819 29.6689 6.38553 29.6689 5.99302C29.6689 3.03667 31.8628 0.640076 34.5689 0.640076C36.3148 0.640076 37.8475 1.63759 38.7154 3.13937C39.6103 1.85299 41.0258 1.02243 42.6189 1.02243C45.1623 1.02243 47.2531 3.13931 47.4954 5.84826C47.8852 5.69449 48.3057 5.61066 48.7439 5.61066C50.7736 5.61066 52.4189 7.40811 52.4189 9.62537C52.4189 11.8426 50.7736 13.6401 48.7439 13.6401Z" fill="#A6D1D9"/>
<path d="M102.919 32.145C102.321 32.1185 101.971 32.8109 102.348 33.2765L103.175 34.2978C103.175 34.2978 113.495 40.2818 117.059 49.6798L120.919 49.6448C117.577 42.8114 109.814 35.4203 102.919 32.145Z" fill="#D5D7D9"/>
<path d="M126.711 53.4741L126.077 54.6371L128.086 57.9151L132.527 58.8671C132.527 58.8671 131.47 53.6861 126.711 53.4741Z" fill="#F1F2F2"/>
<path d="M103.919 37.645V49.7738H114.919C114.919 49.7738 110.419 42.145 103.919 37.645Z" fill="#F1F2F2"/>
<path fill-rule="evenodd" clip-rule="evenodd" d="M90.8 37.4401H103.2V65.8401H90.8V37.4401ZM91.2 37.8401V65.4401H102.8V37.8401H91.2Z" fill="#37424A"/>
<path d="M93 40.6401C93 40.0878 93.4477 39.6401 94 39.6401H100C100.552 39.6401 101 40.0878 101 40.6401V48.6401C101 49.1924 100.552 49.6401 100 49.6401H94C93.4477 49.6401 93 49.1924 93 48.6401V40.6401Z" fill="#F1F2F2"/>
<path d="M34.9189 64.6401V67.6401H50.9189V64.6401C50.9189 61.3264 48.2327 58.6401 44.9189 58.6401H40.9189C37.6052 58.6401 34.9189 61.3264 34.9189 64.6401Z" fill="#242B30"/>
<path d="M109.919 64.6401V67.6401H125.919V64.6401C125.919 61.3264 123.233 58.6401 119.919 58.6401H115.919C112.605 58.6401 109.919 61.3264 109.919 64.6401Z" fill="#242B30"/>
<path d="M42.9509 73.3599C46.28 73.3599 48.9789 70.6611 48.9789 67.3319C48.9789 64.0027 46.28 61.3039 42.9509 61.3039C39.6217 61.3039 36.9229 64.0027 36.9229 67.3319C36.9229 70.6611 39.6217 73.3599 42.9509 73.3599Z" fill="#C7CACC" stroke="#37424A" stroke-width="0.1601" stroke-miterlimit="10"/>
<path d="M42.9509 70.822C44.8784 70.822 46.4409 69.2595 46.4409 67.332C46.4409 65.4045 44.8784 63.842 42.9509 63.842C41.0235 63.842 39.4609 65.4045 39.4609 67.332C39.4609 69.2595 41.0235 70.822 42.9509 70.822Z" fill="#37424A"/>
<path d="M117.947 73.3599C121.276 73.3599 123.975 70.6611 123.975 67.3319C123.975 64.0027 121.276 61.3039 117.947 61.3039C114.618 61.3039 111.919 64.0027 111.919 67.3319C111.919 70.6611 114.618 73.3599 117.947 73.3599Z" fill="#C7CACC" stroke="#37424A" stroke-width="0.1601" stroke-miterlimit="10"/>
<path d="M117.947 70.822C119.874 70.822 121.437 69.2595 121.437 67.332C121.437 65.4045 119.874 63.842 117.947 63.842C116.02 63.842 114.457 65.4045 114.457 67.332C114.457 69.2595 116.02 70.822 117.947 70.822Z" fill="#37424A"/>
<path d="M8 36.6401C8 35.5355 8.89543 34.6401 10 34.6401H19C20.1046 34.6401 21 35.5355 21 36.6401V45.6401C21 46.7446 20.1046 47.6401 19 47.6401H10C8.89543 47.6401 8 46.7446 8 45.6401V36.6401Z" fill="#F1F2F2"/>
<path d="M23 36.6401C23 35.5355 23.8954 34.6401 25 34.6401H34C35.1046 34.6401 36 35.5355 36 36.6401V45.6401C36 46.7446 35.1046 47.6401 34 47.6401H25C23.8954 47.6401 23 46.7446 23 45.6401V36.6401Z" fill="#F1F2F2"/>
<path d="M38 36.6401C38 35.5355 38.8954 34.6401 40 34.6401H58C59.1046 34.6401 60 35.5355 60 36.6401V45.6401C60 46.7446 59.1046 47.6401 58 47.6401H40C38.8954 47.6401 38 46.7446 38 45.6401V36.6401Z" fill="#F1F2F2"/>
<path d="M62 36.6401C62 35.5355 62.8954 34.6401 64 34.6401H82C83.1046 34.6401 84 35.5355 84 36.6401V45.6401C84 46.7446 83.1046 47.6401 82 47.6401H64C62.8954 47.6401 62 46.7446 62 45.6401V36.6401Z" fill="#F1F2F2"/>
</svg>
