<svg width="159" height="145" viewBox="0 0 159 145" fill="none" xmlns="http://www.w3.org/2000/svg">
<path d="M143.322 66H59.3781L59.3883 65.9827C52.4261 65.6283 46.8906 59.8921 46.8906 52.8676C46.8906 45.6149 52.7919 39.7353 60.0719 39.7353C63.1148 39.7353 65.9166 40.7624 68.1476 42.4877C67.8566 41.1555 67.7031 39.772 67.7031 38.3529C67.7031 27.6646 76.4001 19 87.1281 19C94.0494 19 100.125 22.6064 103.566 28.0359C107.113 23.3852 112.725 20.3824 119.041 20.3824C129.123 20.3824 137.412 28.0357 138.372 37.8296C139.917 37.2737 141.584 36.9706 143.322 36.9706C151.368 36.9706 157.891 43.4691 157.891 51.4853C157.891 59.5015 151.368 66 143.322 66Z" fill="#006678"/>
<path d="M27.5797 25H4.13594L4.13878 24.9952C2.19437 24.8972 0.648438 23.3106 0.648438 21.3676C0.648438 19.3616 2.29654 17.7353 4.32969 17.7353C5.17952 17.7353 5.96199 18.0194 6.58506 18.4966C6.50379 18.1281 6.46094 17.7455 6.46094 17.3529C6.46094 14.3966 8.88981 12 11.8859 12C13.8189 12 15.5157 12.9975 16.4766 14.4993C17.4674 13.2129 19.0346 12.3824 20.7984 12.3824C23.6143 12.3824 25.9291 14.4992 26.1974 17.2082C26.6289 17.0544 27.0945 16.9706 27.5797 16.9706C29.8268 16.9706 31.6484 18.768 31.6484 20.9853C31.6484 23.2026 29.8268 25 27.5797 25Z" fill="#006678"/>
<path fill-rule="evenodd" clip-rule="evenodd" d="M33.3026 94.978L49.1321 88.8206C51.3268 84.7652 55.7024 82 60.7422 82C67.4663 82 73.0081 86.9224 73.7652 93.2637L85.7471 88.603C86.7569 88.2102 87.9014 88.3301 88.802 88.923C89.7027 89.516 90.2422 90.5048 90.2422 91.5625V123.437C90.2422 124.741 89.4262 125.913 88.1817 126.397L71.7929 132.772C71.073 133.052 70.2745 133.075 69.539 132.836L51.0114 126.831L35.7373 132.772C34.7274 133.165 33.583 133.045 32.6823 132.452C31.7817 131.859 31.2422 130.87 31.2422 129.812V97.9375C31.2422 96.6341 32.0582 95.4621 33.3026 94.978ZM60.7422 88.375C57.1217 88.375 54.1866 91.2292 54.1866 94.75C54.1866 97.8616 56.049 101.123 58.3637 103.878C59.1915 104.863 60.0235 105.72 60.7422 106.407C61.4609 105.72 62.2929 104.863 63.1206 103.878C65.4354 101.123 67.2977 97.8616 67.2977 94.75C67.2977 91.2292 64.3627 88.375 60.7422 88.375ZM64.5091 111.724C64.0062 112.178 63.583 112.536 63.2793 112.785C62.6134 113.332 61.6258 113.875 60.7422 113.875C59.8299 113.875 58.8909 113.349 58.2051 112.785C57.9013 112.536 57.4781 112.178 56.9753 111.724C55.9736 110.819 54.6344 109.514 53.2873 107.911C50.9296 105.105 48.2004 100.976 47.7089 96.2402L37.7977 100.096V125.104L49.6915 120.478C50.4113 120.198 51.2099 120.175 51.9454 120.414L70.473 126.419L83.6866 121.279V96.2705L72.717 100.538C71.5914 103.461 69.8076 105.995 68.1971 107.911C66.85 109.514 65.5107 110.819 64.5091 111.724Z" fill="#006678"/>
<path fill-rule="evenodd" clip-rule="evenodd" d="M30.3026 91.7235L46.1321 85.6868C48.3268 81.711 52.7024 79 57.7422 79C64.4663 79 70.0081 83.8258 70.7652 90.0429L82.7471 85.4735C83.7569 85.0884 84.9014 85.206 85.802 85.7873C86.7027 86.3686 87.2422 87.3381 87.2422 88.375V119.625C87.2422 120.903 86.4262 122.052 85.1817 122.526L68.7929 128.776C68.073 129.051 67.2745 129.073 66.539 128.84L48.0114 122.952L32.7373 128.776C31.7274 129.162 30.583 129.044 29.6823 128.463C28.7817 127.881 28.2422 126.912 28.2422 125.875V94.625C28.2422 93.3472 29.0582 92.1981 30.3026 91.7235ZM57.7422 85.25C54.1217 85.25 51.1866 88.0482 51.1866 91.5C51.1866 94.5506 53.049 97.7478 55.3637 100.449C56.1915 101.414 57.0235 102.255 57.7422 102.929C58.4609 102.255 59.2929 101.414 60.1206 100.449C62.4354 97.7478 64.2977 94.5506 64.2977 91.5C64.2977 88.0482 61.3627 85.25 57.7422 85.25ZM61.5091 108.141C61.0062 108.586 60.583 108.937 60.2793 109.182C59.6134 109.718 58.6258 110.25 57.7422 110.25C56.8299 110.25 55.8909 109.734 55.2051 109.182C54.9013 108.937 54.4781 108.586 53.9753 108.141C52.9736 107.254 51.6344 105.975 50.2873 104.403C47.9296 101.652 45.2004 97.6044 44.7089 92.961L34.7977 96.7407V121.259L46.6915 116.723C47.4113 116.449 48.2099 116.427 48.9454 116.66L67.473 122.548L80.6866 117.509V92.9907L69.717 97.174C68.5914 100.04 66.8076 102.524 65.1971 104.403C63.85 105.975 62.5107 107.254 61.5091 108.141Z" fill="#A6D1D9"/>
</svg>
