<svg width="218" height="212" viewBox="0 0 218 212" fill="none" xmlns="http://www.w3.org/2000/svg">
<rect width="149.241" height="177.984" rx="8" transform="matrix(0.995315 -0.0966807 0.0964008 0.995343 44 20.4287)" fill="#555E65"/>
<g clip-path="url(#clip0_4202_228)">
<path d="M209.521 27.8727L76.4941 20.3545C72.0829 20.1052 68.3053 23.4791 68.0567 27.8904L58.9447 189.591C58.6961 194.003 62.0706 197.781 66.4818 198.03L199.509 205.548C203.92 205.798 207.698 202.424 207.946 198.012L217.058 36.3115C217.307 31.9002 213.932 28.122 209.521 27.8727Z" fill="#EDE7DB"/>
<path d="M95.4847 174.224C104.152 174.714 111.574 168.074 112.063 159.395C112.552 150.715 105.923 143.282 97.2559 142.792C88.5889 142.302 81.1665 148.941 80.6774 157.621C80.1883 166.301 86.8177 173.734 95.4847 174.224Z" fill="#C9CF6B"/>
<path d="M68.4175 77.4573C66.2702 79.7438 65.6577 83.0747 66.8509 85.9761L77.5108 111.896C78.948 115.391 82.634 117.404 86.3506 116.724L101.959 113.868C106.899 112.964 109.793 107.784 107.974 103.102L107.408 101.644C105.968 97.9389 107.467 93.7391 110.927 91.7832L156.719 65.8973C160.685 63.6553 161.98 58.558 159.565 54.6939L137.192 18.8932C134.411 14.442 128.169 13.8295 124.576 17.6551L68.4175 77.4573Z" fill="#C9CF6B"/>
<path d="M131.669 10.1033L215.534 144.017" stroke="white" stroke-width="4" stroke-linecap="round" stroke-linejoin="round"/>
<path d="M163.996 61.7838L110.927 91.7832C107.467 93.7391 105.968 97.9389 107.408 101.644L107.974 103.102C109.793 107.784 106.899 112.964 101.959 113.868L79.9759 117.89" stroke="white" stroke-width="4" stroke-linecap="round" stroke-linejoin="round"/>
<path d="M105.99 113.053L196.076 112.947" stroke="white" stroke-width="4" stroke-linecap="round" stroke-linejoin="round"/>
<path d="M54.7996 -12.543L115.851 26.947" stroke="white" stroke-width="4" stroke-linecap="round" stroke-linejoin="round"/>
<path d="M27.1125 148.336L84.472 130.432" stroke="white" stroke-width="4" stroke-linecap="round" stroke-linejoin="round"/>
<path d="M146.597 113.401L148.266 151.311C148.292 151.889 148.38 152.461 148.528 153.02L173.384 246.291" stroke="white" stroke-width="4" stroke-linecap="round" stroke-linejoin="round"/>
<path d="M249.172 6.90791L148.6 37.1371" stroke="white" stroke-width="4" stroke-linecap="round" stroke-linejoin="round"/>
<path d="M185.776 25.9629L199.512 91.5193" stroke="white" stroke-width="4" stroke-linecap="round" stroke-linejoin="round"/>
<path d="M-108.644 148.656C-108.644 148.656 -108.644 148.656 -108.644 148.656C-104.412 149.316 -100.211 150.251 -96.0977 151.497C-91.9852 152.742 -87.9589 154.286 -84.0833 156.124C-80.2119 157.972 -76.483 160.087 -72.9243 162.42C-69.377 164.768 -65.9871 167.312 -62.7578 170L-61.5556 171.016C-61.3563 171.186 -61.1532 171.354 -60.9565 171.526L-60.3663 172.043L-59.186 173.077L-58.0262 174.127L-57.4456 174.652L-56.8747 175.184L-55.7334 176.247L-54.608 177.322C-54.2331 177.681 -53.8569 178.038 -53.4903 178.402L-52.3827 179.488C-52.0135 179.849 -51.6525 180.216 -51.2871 180.579C-50.5537 181.306 -49.8406 182.043 -49.1186 182.775C-47.6872 184.245 -46.2682 185.719 -44.869 187.194L-42.7735 189.403L-40.6945 191.6C-39.3316 193.036 -37.9556 194.455 -36.5656 195.857C-35.1744 197.257 -33.7713 198.643 -32.349 200.004C-30.9281 201.367 -29.4952 202.712 -28.0437 204.033C-22.2431 209.323 -16.2008 214.28 -9.94268 218.788C-6.81189 221.038 -3.62891 223.178 -0.388551 225.169C2.84977 227.163 6.14769 229.003 9.49585 230.657C10.3347 231.065 11.1744 231.469 12.0189 231.854L12.6519 232.144L13.2872 232.424C13.7103 232.614 14.1358 232.792 14.5603 232.975C16.2613 233.696 17.9755 234.354 19.7007 234.948C21.4258 235.544 23.1639 236.061 24.9077 236.509C25.3434 236.626 25.7808 236.724 26.2171 236.83C26.4351 236.885 26.6544 236.929 26.8727 236.978C27.0912 237.025 27.3101 237.075 27.5287 237.121L28.1853 237.253L28.5136 237.319L28.8422 237.379L29.4995 237.499C29.7184 237.537 29.9377 237.571 30.1568 237.607C31.0337 237.753 31.9107 237.865 32.7881 237.97C33.665 238.062 34.5423 238.147 35.418 238.194C36.2944 238.253 37.1686 238.274 38.0419 238.288C38.9142 238.287 39.7863 238.28 40.6545 238.233C41.5239 238.197 42.3888 238.123 43.2522 238.041L43.8984 237.966C44.1136 237.94 44.3298 237.92 44.5436 237.887C44.9722 237.825 45.4027 237.772 45.829 237.697C47.5385 237.417 49.2354 237.056 50.9058 236.58C52.5771 236.108 54.2278 235.546 55.8512 234.891C57.4752 234.239 59.0698 233.487 60.6351 232.657C63.7652 230.995 66.7701 229.001 69.6322 226.746C72.4938 224.49 75.2172 221.98 77.7976 219.28C79.085 217.926 80.3416 216.53 81.5643 215.094L82.0217 214.553C82.174 214.373 82.3274 214.194 82.4762 214.01L83.3756 212.911C83.9651 212.167 84.5587 211.428 85.1332 210.668L85.5675 210.102C85.7135 209.914 85.8525 209.72 85.9961 209.53L86.8492 208.381L88.6126 205.938C89.8908 204.182 91.2282 202.472 92.621 200.812C94.0167 199.154 95.4725 197.551 96.9751 195.996C98.4794 194.443 100.03 192.938 101.632 191.495C108.039 185.718 115.169 180.823 122.742 176.877C124.635 175.89 126.553 174.955 128.498 174.084C130.443 173.213 132.412 172.402 134.398 171.642L135.144 171.36C135.393 171.267 135.641 171.17 135.892 171.083L137.393 170.545L138.902 170.033L139.279 169.905L139.658 169.784L140.417 169.542C142.441 168.9 144.48 168.314 146.533 167.784C150.64 166.734 154.798 165.893 158.986 165.302L159.771 165.189L160.558 165.086L161.345 164.985L161.738 164.935L162.132 164.891L163.708 164.717L165.286 164.567C167.392 164.382 169.501 164.252 171.612 164.176C173.723 164.102 175.835 164.088 177.945 164.124L178.736 164.14C179 164.145 179.264 164.15 179.527 164.162L181.109 164.221C182.163 164.276 183.217 164.328 184.269 164.409C186.373 164.564 188.475 164.764 190.567 165.033C192.66 165.3 194.746 165.614 196.822 165.983C200.91 166.718 204.994 167.587 209.062 168.657C211.095 169.192 213.124 169.779 215.145 170.423L215.902 170.667L216.658 170.92C217.163 171.085 217.666 171.262 218.168 171.438L218.546 171.57L218.921 171.707L219.673 171.981C220.175 172.163 220.674 172.359 221.175 172.546C224.023 173.61 225.471 176.785 224.408 179.639C223.346 182.491 220.175 183.941 217.326 182.877C217.288 182.863 217.251 182.848 217.214 182.834L217.092 182.784C216.656 182.608 216.222 182.428 215.782 182.257L215.122 182.002L214.792 181.876L214.459 181.754C214.015 181.591 213.572 181.427 213.123 181.272L212.451 181.039L211.775 180.814C209.972 180.215 208.139 179.674 206.286 179.181C202.578 178.194 198.786 177.403 194.954 176.752C193.068 176.438 191.173 176.175 189.274 175.962L187.849 175.812L186.421 175.687L186.063 175.656L185.706 175.631L184.991 175.581L184.276 175.531L183.56 175.493C182.607 175.434 181.652 175.405 180.697 175.371L179.265 175.342C179.027 175.335 178.788 175.335 178.549 175.335L177.833 175.332C175.923 175.333 174.013 175.375 172.107 175.481C170.201 175.588 168.299 175.743 166.403 175.947L164.981 176.11L163.563 176.296L163.209 176.342L162.856 176.395L162.148 176.5L161.442 176.605L160.737 176.722C156.975 177.337 153.255 178.178 149.593 179.198C142.276 181.271 135.201 184.139 128.606 187.813C122.004 191.471 115.881 195.926 110.465 201.071C109.11 202.356 107.807 203.691 106.546 205.061C105.288 206.433 104.074 207.843 102.914 209.294C101.756 210.747 100.649 212.236 99.5949 213.761L97.8849 216.255C97.583 216.689 97.2751 217.12 96.9701 217.553C96.6676 217.987 96.3526 218.414 96.0393 218.842C95.4187 219.701 94.772 220.547 94.1288 221.394L93.1445 222.654C92.982 222.865 92.8129 223.072 92.645 223.279L92.1412 223.902C90.7915 225.56 89.3948 227.191 87.9386 228.781C86.4806 230.369 84.9642 231.919 83.3891 233.422C81.8129 234.924 80.1767 236.381 78.4713 237.773C75.0641 240.558 71.3852 243.099 67.4394 245.267C66.455 245.811 65.4496 246.325 64.4342 246.821C64.3081 246.884 64.1804 246.945 64.0514 247.004L63.6671 247.184L62.8971 247.542L62.1176 247.883L61.7277 248.053L61.5324 248.138L61.3355 248.219C59.2396 249.093 57.0897 249.861 54.8973 250.504C54.6243 250.588 54.3482 250.662 54.0731 250.738L53.2463 250.964L52.4143 251.171C52.1367 251.239 51.86 251.312 51.5804 251.372C51.0221 251.495 50.4652 251.627 49.903 251.733L49.0612 251.899L48.2156 252.046C47.6524 252.148 47.0863 252.226 46.5204 252.311C46.2379 252.356 45.9538 252.387 45.6699 252.424C45.3862 252.459 45.1029 252.496 44.8187 252.529C43.6823 252.648 42.5443 252.755 41.4049 252.81C40.266 252.879 39.1268 252.898 37.9895 252.904C36.853 252.896 35.7167 252.874 34.586 252.807C33.4541 252.751 32.3285 252.649 31.2059 252.536C30.0858 252.41 28.9685 252.27 27.8606 252.092C27.5838 252.047 27.3062 252.006 27.0301 251.958L26.2035 251.811L25.7899 251.737L25.3785 251.656L24.5564 251.493C24.2827 251.437 24.0111 251.376 23.7388 251.317C23.4671 251.257 23.1928 251.202 22.9233 251.136C22.3823 251.007 21.8391 250.884 21.3025 250.744C19.15 250.199 17.0306 249.568 14.9538 248.854C12.8763 248.141 10.8327 247.36 8.83376 246.504C8.33569 246.288 7.83359 246.078 7.34099 245.851L6.59966 245.517L5.86368 245.174C4.88107 244.718 3.91453 244.239 2.95199 243.753C-0.886184 241.794 -4.57125 239.618 -8.10648 237.272C-11.645 234.93 -15.0356 232.42 -18.3065 229.798C-24.845 224.546 -30.8934 218.839 -36.6441 212.925C-39.5194 209.967 -42.318 206.953 -45.0627 203.904C-46.434 202.379 -47.7927 200.847 -49.1374 199.306L-51.1212 197.039C-51.7809 196.289 -52.4419 195.54 -53.1027 194.797C-53.7633 194.052 -54.4289 193.318 -55.0924 192.581C-55.4231 192.211 -55.7594 191.852 -56.0929 191.486C-56.4277 191.124 -56.7598 190.756 -57.0961 190.397C-57.768 189.678 -58.4397 188.956 -59.1191 188.25C-59.4587 187.896 -59.795 187.537 -60.1367 187.187L-61.1625 186.139C-61.5028 185.787 -61.8492 185.444 -62.1943 185.1C-62.54 184.757 -62.8838 184.411 -63.2309 184.07L-64.2789 183.057L-64.8029 182.55L-65.3329 182.054L-66.3937 181.061L-67.4673 180.09L-68.0041 179.604C-68.183 179.442 -68.3667 179.287 -68.5476 179.129L-69.6373 178.181C-69.8175 178.021 -70.0038 177.871 -70.1875 177.716L-70.7398 177.256L-71.2927 176.795C-71.3852 176.719 -71.4763 176.64 -71.5695 176.565L-71.8497 176.341L-72.9711 175.446L-73.2519 175.222C-73.3457 175.148 -73.4416 175.077 -73.5361 175.005L-74.1059 174.572L-74.6751 174.14C-74.8655 173.997 -75.0525 173.847 -75.2469 173.71L-76.4042 172.876C-76.5973 172.737 -76.789 172.596 -76.9835 172.459L-77.571 172.058L-78.7467 171.256C-81.9067 169.165 -85.189 167.3 -88.5855 165.699C-95.3846 162.519 -102.658 160.448 -110.13 159.579C-113.15 159.228 -115.314 156.492 -114.964 153.467C-114.613 150.442 -111.88 148.275 -108.86 148.626C-108.796 148.633 -108.733 148.642 -108.67 148.652L-108.644 148.655C-108.644 148.656 -108.644 148.656 -108.644 148.656Z" fill="#A6D1D9"/>
<path d="M34.8261 299.504L89.5155 174.161" stroke="white" stroke-width="4" stroke-linecap="round" stroke-linejoin="round"/>
<path d="M113.312 156.444L254.893 139.248" stroke="white" stroke-width="4" stroke-linecap="round" stroke-linejoin="round"/>
<path d="M64.8921 81.212L176.001 -37.1023" stroke="white" stroke-width="4" stroke-linecap="round" stroke-linejoin="round"/>
<path d="M95.4093 175.569C104.818 176.101 112.876 168.893 113.407 159.471C113.938 150.048 106.741 141.979 97.3322 141.447C87.9233 140.915 79.8655 148.122 79.3345 157.545C78.8035 166.968 86.0004 175.037 95.4093 175.569Z" stroke="white" stroke-width="4" stroke-linecap="round" stroke-linejoin="round"/>
<path d="M-1.26514 115.998L76.3331 204.375" stroke="white" stroke-width="4" stroke-linecap="round" stroke-linejoin="round"/>
<path d="M40.4121 20.4339L89.952 142.671" stroke="white" stroke-width="4" stroke-linecap="round" stroke-linejoin="round"/>
<path d="M97.5197 70.7254C98.627 76.23 107.375 78.4599 114.088 75.6493C119.89 73.2203 122.893 66.1475 128.303 63.6313C133.712 61.1152 148.951 58.1116 145.181 51.0891C141.411 44.0667 123.9 35.2247 116.386 42.4683C112.083 46.6162 109.786 56.3275 104.698 59.6594C99.6095 62.9912 96.3713 65.0167 97.5197 70.7254Z" fill="#A6D1D9"/>
<path d="M187.222 98.8065L221.051 78.7498" stroke="white" stroke-width="4" stroke-linecap="round" stroke-linejoin="round"/>
<circle opacity="0.1" cx="177" cy="86.9999" r="22" fill="#007C92"/>
<circle cx="177" cy="86.9999" r="8.5" fill="#429EAE" stroke="white" stroke-width="3"/>
</g>
<rect x="1" y="123" width="127" height="39" rx="7" fill="white" stroke="#8D9398" stroke-width="2"/>
<path fill-rule="evenodd" clip-rule="evenodd" d="M16.4 135.8C13.3073 135.8 10.8 138.307 10.8 141.4C10.8 144.493 13.3073 147 16.4 147C17.6579 147 18.8189 146.585 19.7538 145.885L23.8344 149.966L24.9657 148.834L20.8852 144.754C21.5853 143.819 22 142.658 22 141.4C22 138.307 19.4928 135.8 16.4 135.8ZM12.4 141.4C12.4 139.191 14.1909 137.4 16.4 137.4C18.6092 137.4 20.4 139.191 20.4 141.4C20.4 143.609 18.6092 145.4 16.4 145.4C14.1909 145.4 12.4 143.609 12.4 141.4Z" fill="#429EAE"/>
<circle opacity="0.1" cx="42" cy="143" r="10" fill="#007C92"/>
<circle cx="42" cy="143" r="5" fill="#429EAE" stroke="white" stroke-width="2"/>
<path d="M56 143H119" stroke="#A6D1D9" stroke-width="2" stroke-linecap="round"/>
<defs>
<clipPath id="clip0_4202_228">
<rect width="149.239" height="177.958" rx="8" transform="matrix(0.998407 0.0564265 -0.0562622 0.998416 68.5068 19.9031)" fill="white"/>
</clipPath>
</defs>
</svg>
