<?xml version="1.0" encoding="UTF-8"?>
<svg width="165" height="131" id="Kjøp_for_andre" data-name="Kjøp for andre" xmlns="http://www.w3.org/2000/svg" viewBox="0 0 1571 1643">
  <path fill="#e3f2f7" d="M1010.18,1389.27c-266.53,91.46-263.01-41.53-523.26-147.01-246.87-100.06-413.41-385.32-292.19-641.17C357.65,257.23,512.91,185.53,736.55,150.05c299.31-47.49,695.19,340.45,565.57,636.34-135.71,309.81-43.63,517.67-291.94,602.88Z" />
  <path fill="#ffd690" d="M1250.04,1081.47s-40.87-318.27-70.36-387.47c-29.49-69.19-59.57-100.91-84.78-118.31-25.21-17.4-93.92-43.32-122.62-43.55-28.7-.24-152.28,47.82-148.68,71.8,5.8,38.63,141.22,17.94,141.22,17.94,0,0-102.23,38.05-112.78,75.58-10.55,37.53,36.26,138.12,56.73,163.12,20.47,25,92.49,72.43,92.49,72.43l248.79,148.48Z" />
  <g>
    <path fill="#ff989b" d="M823.1,819.7s31.15,23.45,18.71,60.92c-12.44,37.47-141.91,212.66-141.91,212.66l123.2-273.58Z" />
    <path fill="#ffcbcd" d="M438.66,702.57s-73.89,51.32-87.48,61.09c-13.59,9.77,51.83,45.56,91.33,20.43,22.37-14.23,65.44-60.46,56.88-79.81-4.73-10.7-60.73-1.71-60.73-1.71Z" />
    <path fill="#ffb2b4" d="M464.65,624.6s-66.06,45.71-82.29,59.7c-16.23,13.99,36.97,48.43,100.1,23.83,63.13-24.6,74.67-77.78,74.67-77.78l-92.47-5.75Z" />
    <path fill="#ff989b" d="M699.62,425.07s-45.96-66.15-51.01-74.31c-5.05-8.16-67.29,49.78,5.39,139.3,72.68,89.52,45.62-64.99,45.62-64.99Z" />
    <path fill="#ff989b" d="M574.87,599.47s-39.24-30.08-61.66-29.06c-22.42,1.02-67.67,8.41-84.27,9.4-16.6,.99-17.51,71.36,95.33,63.27,112.84-8.09,50.6-43.61,50.6-43.61Z" />
    <path fill="#ff7e81" d="M490.47,883.35s-86.25,115.99-22.04,251.15c0,0-2.23,49.25-72.47,83.09-70.24,33.85,120.47,235.35,171.98,176.17,20.96-24.08,53.51-59.44,82.39-110.78,22.57-40.13,36.03-95.57,36.03-95.57l21.76-151.27-217.65-152.79Z" />
    <g>
      <rect fill="#e3f2f7" stroke="#00242d" stroke-linejoin="round" stroke-width="20px" x="460.54" y="423.2" width="337.48" height="522.15" rx="62.19" ry="62.19" transform="translate(208.29 -144.58) rotate(15.68)" />
      <g>
        <line fill="#e3f2f7" x1="502.74" y1="537.16" x2="813.88" y2="624.47" />
        <g>
          <line fill="none" stroke-linecap="round" stroke="#00242d" stroke-linejoin="round" stroke-width="20px" x1="502.74" y1="537.16" x2="505.15" y2="537.83" />
          <line fill="none" stroke-linecap="round" stroke="#00242d" stroke-linejoin="round" stroke-width="20px" stroke-dasharray="0 0 5.13 41.05" x1="544.67" y1="548.92" x2="791.71" y2="618.25" />
          <line fill="none" stroke-linecap="round" stroke="#00242d" stroke-linejoin="round" stroke-width="20px" x1="811.47" y1="623.8" x2="813.88" y2="624.47" />
        </g>
      </g>
      <g>
        <path fill="#0085a9" d="M646.48,784.29c-13.4-3.76-19.3-10.4-24.03-15.73-3.87-4.35-6.66-7.5-14.35-9.66-7.69-2.16-11.71-.92-17.28,.78-6.82,2.09-15.3,4.69-28.71,.93-13.4-3.76-19.3-10.4-24.03-15.73-3.87-4.35-6.66-7.5-14.35-9.66l7.54-26.86c13.4,3.76,19.3,10.4,24.03,15.73,3.87,4.35,6.66,7.5,14.35,9.66s11.71,.92,17.28-.78c6.82-2.09,15.3-4.69,28.71-.93s19.3,10.4,24.03,15.73c3.87,4.35,6.66,7.5,14.35,9.66,7.69,2.16,11.71,.92,17.28-.78,6.82-2.09,15.3-4.69,28.71-.93l-7.54,26.86c-7.69-2.16-11.71-.92-17.28,.78-6.82,2.09-15.3,4.69-28.71,.93Z" />
        <rect fill="#0085a9" x="508.98" y="778.17" width="48.33" height="25.95" transform="translate(233.59 -114.63) rotate(15.68)" />
        <rect fill="#0085a9" x="570.08" y="795.32" width="48.33" height="25.95" transform="translate(240.5 -130.5) rotate(15.68)" />
        <rect fill="#0085a9" x="631.18" y="812.47" width="48.33" height="25.95" transform="translate(247.4 -146.37) rotate(15.68)" />
        <polygon fill="#0085a9" points="672.47 685.64 623.95 703.59 591.85 663.02 538.37 683.08 537.23 687.16 612.73 708.35 631.05 713.5 705.96 734.52 707.24 729.95 672.47 685.64" />
      </g>
    </g>
    <g>
      <rect fill="#e3f2f7" stroke="#00242d" stroke-linejoin="round" stroke-width="20px" x="653.7" y="381.71" width="337.48" height="522.15" rx="62.19" ry="62.19" transform="translate(462.8 -337.14) rotate(31.84)" />
      <g>
        <line fill="#e3f2f7" x1="741.86" y1="466.26" x2="1016.4" y2="636.73" />
        <g>
          <line fill="none" stroke-linecap="round" stroke="#00242d" stroke-linejoin="round" stroke-width="20px" x1="741.86" y1="466.26" x2="743.98" y2="467.58" />
          <line fill="none" stroke-linecap="round" stroke="#00242d" stroke-linejoin="round" stroke-width="20px" stroke-dasharray="0 0 5.13 41.05" x1="778.86" y1="489.24" x2="996.83" y2="624.58" />
          <line fill="none" stroke-linecap="round" stroke="#00242d" stroke-linejoin="round" stroke-width="20px" x1="1014.27" y1="635.41" x2="1016.4" y2="636.73" />
        </g>
      </g>
      <g>
        <path fill="#0085a9" d="M811.13,743.64c-11.83-7.34-15.64-15.36-18.7-21.8-2.5-5.26-4.31-9.06-11.09-13.27-6.78-4.21-10.99-4.15-16.81-4.06-7.13,.11-16,.25-27.83-7.1-11.83-7.34-15.64-15.36-18.7-21.8-2.5-5.26-4.31-9.06-11.09-13.27l14.71-23.7c11.83,7.34,15.64,15.36,18.7,21.8,2.5,5.26,4.31,9.06,11.09,13.27,6.78,4.21,10.99,4.15,16.81,4.06,7.13-.11,16.01-.25,27.83,7.1,11.83,7.34,15.64,15.36,18.7,21.8,2.5,5.26,4.31,9.06,11.09,13.27,6.78,4.21,10.99,4.15,16.81,4.06,7.13-.11,16.01-.25,27.83,7.1l-14.71,23.7c-6.78-4.21-10.99-4.15-16.82-4.06-7.13,.11-16.01,.25-27.83-7.1Z" />
        <rect fill="#0085a9" x="676.2" y="705.71" width="48.33" height="25.95" transform="translate(484.47 -261.32) rotate(31.84)" />
        <rect fill="#0085a9" x="730.11" y="739.18" width="48.33" height="25.95" transform="translate(510.24 -284.72) rotate(31.84)" />
        <rect fill="#0085a9" x="784.03" y="772.66" width="48.33" height="25.95" transform="translate(536.01 -308.13) rotate(31.84)" />
        <polygon fill="#0085a9" points="863.54 656.13 811.95 659.86 792.41 611.96 735.47 616.34 733.23 619.94 799.85 661.31 816.02 671.35 882.11 712.39 884.61 708.36 863.54 656.13" />
      </g>
    </g>
    <path fill="#ff7e81" d="M880.01,731.88c6.01-17.34,43.03-59.11,32.41-68.11-10.62-9-80.95,.41-107.56,52.31-45.89,89.51-83.87,143.23-125.73,178.15-50.32,41.99-166.93,103.03-150.63,214.57,16.3,111.54,143.2,112.84,143.2,112.84,0,0,202.29-472.43,208.3-489.77Z" />
  </g>
  <path fill="#ffc96b" d="M1162.73,1290.84c-43.78-56.79-59.16-99.72-86.89-138.23-27.72-38.51-59.67-59.37-79.01-91.48-47.24-78.44-7.42-156.94-25.85-259.38-19.14-106.43-43.5-216.6,21.4-237.83,18-5.89,34.03,15.25,39.62,47.53,11.25,64.99,38.47,154.93,38.47,154.93,0,0,187.37,299.39,232.46,363.03,45.09,63.64-96.42,218.23-140.2,161.44Z" />
</svg>