<svg width="64" height="64" viewBox="0 0 64 64" fill="none" xmlns="http://www.w3.org/2000/svg">
<path d="M56.6187 46H25.6125L25.6163 45.9937C23.0446 45.8656 21 43.7907 21 41.25C21 38.6266 23.1798 36.5 25.8687 36.5C26.9927 36.5 28.0276 36.8715 28.8517 37.4955C28.7442 37.0137 28.6875 36.5133 28.6875 36C28.6875 32.134 31.8999 29 35.8625 29C38.419 29 40.6632 30.3044 41.934 32.2683C43.2445 30.5861 45.3172 29.5 47.65 29.5C51.3743 29.5 54.4357 32.2682 54.7906 35.8107C55.3613 35.6096 55.977 35.5 56.6187 35.5C59.5908 35.5 62 37.8505 62 40.75C62 43.6495 59.5908 46 56.6187 46Z" fill="#E6F3F6"/>
<path d="M52.65 59H10.3L10.3051 58.9911C6.79265 58.8102 4 55.881 4 52.2941C4 48.5906 6.97722 45.5882 10.65 45.5882C12.1852 45.5882 13.5987 46.1127 14.7242 46.9937C14.5774 46.3134 14.5 45.607 14.5 44.8824C14.5 39.4245 18.8876 35 24.3 35C27.7918 35 30.857 36.8416 32.5928 39.6141C34.3827 37.2392 37.2138 35.7059 40.4 35.7059C45.4868 35.7059 49.6683 39.614 50.153 44.6151C50.9325 44.3312 51.7735 44.1765 52.65 44.1765C56.7094 44.1765 60 47.4948 60 51.5882C60 55.6816 56.7094 59 52.65 59Z" fill="#9ACDDA"/>
<path d="M29.2051 6C29.2051 6 24.4139 11.3513 23.5 19L23.499 18.998C13.9303 15.5814 7.02909 17.4083 7 17.416C12.8615 14.6983 18.5643 15.9316 21.0996 16.7402C21.0996 16.7363 21.0996 16.7324 21.0996 16.7285C21.0996 16.2218 21.5099 15.8106 22.0166 15.8105C22.1871 15.8105 22.3466 15.8574 22.4834 15.9385C22.6683 13.7107 23.793 9.50198 29.2051 6Z" fill="#349AB6"/>
</svg>
