<svg width="874" height="184" viewBox="0 0 876 184" fill="none" xmlns="http://www.w3.org/2000/svg">
<path d="M609.84 105C599.84 105 594.5 101.56 590.19 98.79C586.68 96.54 584.19 94.9 578.41 94.9C572.63 94.9 570.14 96.54 566.63 98.79C562.32 101.56 556.96 105 546.98 105C537 105 531.63 101.56 527.33 98.79C523.81 96.54 521.27 94.9 515.54 94.9V74.9C525.54 74.9 530.89 78.34 535.19 81.11C538.71 83.37 541.25 85 546.98 85C552.71 85 555.25 83.37 558.76 81.11C563.06 78.34 568.42 74.9 578.41 74.9C588.4 74.9 593.76 78.34 598.06 81.11C601.58 83.37 604.12 85 609.84 85C615.56 85 618.11 83.37 621.63 81.11C625.93 78.34 631.29 74.9 641.28 74.9V94.9C635.55 94.9 633.01 96.54 629.49 98.79C625.19 101.56 619.83 105 609.84 105Z" fill="#0082A3"/>
<path d="M550.22 122.4H515.55V141.02H550.22V122.4Z" fill="#0082A3"/>
<path d="M595.75 122.4H561.08V141.02H595.75V122.4Z" fill="#0082A3"/>
<path d="M641.28 122.4H606.61V141.02H641.28V122.4Z" fill="#0082A3"/>
<path d="M608.67 31.82L578.64 53.62L548.6 31.82L515.55 56.04V59.09H571.81H585.47H641.28V55.68L608.67 31.82Z" fill="#0082A3"/>
<path d="M762.81 82.9H721.47V83.42C721.47 88.9733 723.2 93.1133 726.66 95.84C730.12 98.5666 734.663 99.93 740.29 99.93C743.277 99.968 746.26 99.6694 749.18 99.04C751.743 98.4524 754.25 97.6392 756.67 96.61L758.67 107.76C756.145 108.805 753.512 109.57 750.82 110.04C746.908 110.862 742.917 111.251 738.92 111.2C734.608 111.231 730.315 110.624 726.18 109.4C722.346 108.277 718.792 106.359 715.75 103.77C712.685 101.103 710.258 97.7813 708.65 94.05C706.791 89.5906 705.892 84.7899 706.01 79.96C705.953 75.5124 706.687 71.09 708.18 66.9C709.527 63.1518 711.615 59.7134 714.32 56.79C717.013 53.9485 720.288 51.7212 723.92 50.26C727.871 48.6924 732.09 47.9111 736.34 47.96C744.44 47.96 750.88 50.4333 755.66 55.38C760.44 60.3266 762.83 67.1966 762.83 75.99L762.81 82.9ZM747.32 72.42C747.326 70.6706 747.114 68.9272 746.69 67.23C746.311 65.6459 745.632 64.149 744.69 62.82C743.737 61.5367 742.484 60.5067 741.04 59.82C739.375 59.0594 737.56 58.6867 735.73 58.73C733.971 58.6725 732.219 58.9845 730.588 59.646C728.957 60.3074 727.482 61.3035 726.26 62.57C723.682 65.3465 722.105 68.9049 721.78 72.68L747.32 72.42Z" fill="#2E2D2C"/>
<path d="M831.89 60.91C831.89 60.91 823.8 59.1 820.61 59.1C817.42 59.1 815.04 59.65 813.38 60.76C812.653 61.2204 812.048 61.8483 811.614 62.591C811.18 63.3338 810.931 64.1696 810.887 65.0286C810.843 65.8876 811.005 66.7446 811.361 67.5279C811.716 68.3111 812.254 68.9977 812.93 69.53C814.297 70.6833 817.027 71.8567 821.12 73.05L824.96 74.2C830.42 75.82 834.537 78.0367 837.31 80.85C840.083 83.6633 841.47 87.3767 841.47 91.99C841.565 94.6858 841.011 97.365 839.854 99.8016C838.696 102.238 836.97 104.361 834.82 105.99C830.38 109.45 824.32 111.18 816.64 111.18C810.021 111.355 803.446 110.057 797.39 107.38L799.39 95.82C801.92 97.033 804.554 98.0169 807.26 98.76C810.074 99.5343 812.981 99.9212 815.9 99.91C822.98 99.91 826.52 97.65 826.52 93.13C826.564 92.2065 826.354 91.2886 825.914 90.4759C825.473 89.6631 824.818 88.9867 824.02 88.52C821.323 87.0818 818.467 85.9642 815.51 85.19L811.51 83.91C806.223 82.21 802.32 79.9733 799.8 77.2C797.29 74.42 796.03 70.78 796.03 66.2C796.008 63.6514 796.576 61.1323 797.69 58.84C798.801 56.5809 800.395 54.594 802.36 53.02C804.534 51.3125 807.011 50.0302 809.66 49.24C812.751 48.3146 815.964 47.8628 819.19 47.9C822.607 47.9054 826.017 48.2403 829.37 48.9C832.522 49.4996 835.593 50.4662 838.52 51.78L831.89 60.91Z" fill="#2E2D2C"/>
<path d="M709.21 49.55C707.965 48.9491 706.666 48.467 705.33 48.11C703.573 47.6597 701.764 47.4445 699.95 47.47C695.727 47.3227 691.579 48.6092 688.18 51.12C685.138 53.4013 682.766 56.4578 681.31 59.97L679.31 48.63H667.7V109.42H682.7V80.32C682.7 73.84 684.193 69.1067 687.18 66.12C688.612 64.6637 690.326 63.5152 692.218 62.7449C694.109 61.9745 696.138 61.5985 698.18 61.64C698.96 61.64 699.67 61.64 700.36 61.74L709.21 49.55Z" fill="#2E2D2C"/>
<path d="M770.87 46.57L773.02 59H781.75L771.38 73.2V109.42H786.92V46.57H770.87Z" fill="#2E2D2C"/>
<path d="M668.12 141.29V127.07H670.47L670.93 129.81C671.273 128.964 671.844 128.23 672.58 127.69C673.384 127.107 674.357 126.805 675.35 126.83C675.773 126.824 676.196 126.864 676.61 126.95C676.936 127.022 677.251 127.133 677.55 127.28L676.98 129.87C676.389 129.582 675.738 129.439 675.08 129.45C674.566 129.438 674.054 129.532 673.578 129.727C673.101 129.921 672.67 130.212 672.31 130.58C671.909 131.049 671.605 131.593 671.414 132.179C671.224 132.766 671.151 133.385 671.2 134V141.29H668.12Z" fill="#2D2D2B"/>
<path d="M691.72 134.72H681.72V134.84C681.676 135.448 681.767 136.059 681.986 136.627C682.206 137.196 682.548 137.709 682.99 138.13C683.926 138.903 685.117 139.298 686.33 139.24C687.025 139.248 687.718 139.185 688.4 139.05C689.037 138.91 689.657 138.702 690.25 138.43L690.85 140.69C690.182 140.98 689.484 141.198 688.77 141.34C687.898 141.516 687.01 141.599 686.12 141.59C685.131 141.595 684.147 141.454 683.2 141.17C682.306 140.907 681.477 140.457 680.77 139.85C680.061 139.217 679.501 138.435 679.13 137.56C678.706 136.506 678.502 135.376 678.53 134.24C678.519 133.218 678.688 132.203 679.03 131.24C679.337 130.37 679.817 129.571 680.44 128.89C681.064 128.232 681.826 127.72 682.67 127.39C683.597 127.029 684.585 126.849 685.58 126.86C686.441 126.849 687.296 127.002 688.1 127.31C688.824 127.594 689.479 128.031 690.02 128.59C690.57 129.161 690.993 129.843 691.26 130.59C691.561 131.437 691.71 132.331 691.7 133.23L691.72 134.72ZM688.52 132.55C688.523 132.094 688.463 131.639 688.34 131.2C688.232 130.802 688.048 130.429 687.8 130.1C687.546 129.78 687.22 129.523 686.85 129.35C686.413 129.142 685.933 129.042 685.45 129.06C684.993 129.048 684.539 129.131 684.116 129.303C683.692 129.475 683.309 129.733 682.99 130.06C682.329 130.772 681.921 131.683 681.83 132.65L688.52 132.55Z" fill="#2D2D2B"/>
<path d="M697.23 123.55C696.945 123.541 696.668 123.462 696.42 123.322C696.173 123.181 695.964 122.982 695.811 122.742C695.658 122.502 695.565 122.228 695.542 121.945C695.519 121.661 695.565 121.376 695.677 121.114C695.788 120.852 695.962 120.622 696.183 120.442C696.404 120.263 696.665 120.14 696.944 120.085C697.224 120.029 697.512 120.042 697.785 120.123C698.058 120.205 698.307 120.351 698.51 120.55C698.674 120.713 698.803 120.908 698.889 121.123C698.975 121.338 699.016 121.569 699.01 121.8C699.019 122.033 698.979 122.266 698.893 122.483C698.807 122.7 698.676 122.896 698.51 123.06C698.341 123.225 698.141 123.353 697.921 123.437C697.7 123.521 697.465 123.56 697.23 123.55ZM695.66 141.29V127.07H698.77V141.29H695.66Z" fill="#2D2D2B"/>
<path d="M711.84 129.96C711.267 129.686 710.667 129.471 710.05 129.32C709.514 129.185 708.963 129.118 708.41 129.12C707.737 129.075 707.066 129.239 706.49 129.59C706.286 129.727 706.121 129.914 706.009 130.132C705.897 130.351 705.842 130.594 705.85 130.84C705.855 131.031 705.901 131.219 705.983 131.391C706.066 131.563 706.184 131.716 706.33 131.84C706.933 132.257 707.613 132.549 708.33 132.7L709.23 132.97C710.336 133.253 711.363 133.787 712.23 134.53C712.567 134.869 712.831 135.274 713.003 135.72C713.175 136.166 713.252 136.642 713.23 137.12C713.249 137.736 713.122 138.348 712.86 138.906C712.598 139.464 712.207 139.952 711.72 140.33C710.528 141.207 709.067 141.638 707.59 141.55C706.707 141.557 705.826 141.474 704.96 141.3C704.205 141.149 703.47 140.911 702.77 140.59L703.49 138.24C704.092 138.525 704.717 138.756 705.36 138.93C706.012 139.106 706.684 139.196 707.36 139.2C708.055 139.236 708.747 139.08 709.36 138.75C709.594 138.607 709.785 138.403 709.912 138.16C710.038 137.917 710.097 137.644 710.08 137.37C710.1 137.121 710.051 136.872 709.938 136.65C709.825 136.427 709.653 136.24 709.44 136.11C708.802 135.779 708.132 135.515 707.44 135.32L706.51 135.05C705.456 134.748 704.49 134.199 703.69 133.45C703.061 132.761 702.73 131.852 702.77 130.92C702.762 130.333 702.895 129.754 703.16 129.23C703.432 128.727 703.803 128.285 704.25 127.93C704.751 127.55 705.317 127.266 705.92 127.09C706.621 126.883 707.349 126.782 708.08 126.79C708.841 126.792 709.601 126.862 710.35 127C711.091 127.131 711.813 127.352 712.5 127.66L711.84 129.96Z" fill="#2D2D2B"/>
<path d="M719.89 141.29H716.78V127.07H719.22L719.65 128.97C720.297 128.327 721.043 127.794 721.86 127.39C722.686 127.005 723.589 126.814 724.5 126.83C725.135 126.79 725.771 126.878 726.37 127.09C726.97 127.301 727.521 127.631 727.99 128.06C728.422 128.535 728.755 129.093 728.968 129.699C729.181 130.306 729.27 130.949 729.23 131.59V141.29H726.12V131.98C726.167 131.258 725.942 130.545 725.49 129.98C725.246 129.728 724.949 129.532 724.62 129.408C724.292 129.284 723.94 129.233 723.59 129.26C722.926 129.267 722.272 129.428 721.68 129.73C721.01 130.07 720.405 130.523 719.89 131.07V141.29Z" fill="#2D2D2B"/>
<path d="M747.09 134.03C747.109 135.118 746.923 136.201 746.54 137.22C746.202 138.111 745.681 138.922 745.01 139.6C744.371 140.249 743.6 140.754 742.75 141.08C741.858 141.426 740.907 141.599 739.95 141.59C739.002 141.599 738.06 141.437 737.17 141.11C736.337 140.804 735.577 140.327 734.94 139.71C734.285 139.072 733.779 138.297 733.46 137.44C732.734 135.403 732.734 133.177 733.46 131.14C733.8 130.261 734.317 129.461 734.98 128.79C735.622 128.149 736.392 127.652 737.24 127.33C738.135 126.993 739.084 126.823 740.04 126.83C740.99 126.822 741.935 126.981 742.83 127.3C743.678 127.594 744.45 128.072 745.091 128.7C745.732 129.327 746.227 130.089 746.54 130.93C746.914 131.92 747.1 132.972 747.09 134.03ZM743.87 134.18C743.889 133.4 743.777 132.623 743.54 131.88C743.356 131.305 743.057 130.774 742.66 130.32C742.324 129.937 741.903 129.639 741.43 129.45C740.968 129.271 740.476 129.179 739.98 129.18C739.5 129.18 739.023 129.261 738.57 129.42C738.095 129.582 737.669 129.861 737.33 130.23C736.936 130.675 736.642 131.201 736.47 131.77C736.243 132.552 736.138 133.365 736.16 134.18C736.143 134.956 736.255 135.73 736.49 136.47C736.675 137.048 736.97 137.585 737.36 138.05C737.697 138.45 738.126 138.763 738.61 138.96C739.064 139.145 739.55 139.24 740.04 139.24C740.524 139.241 741.004 139.16 741.46 139C741.934 138.833 742.358 138.548 742.69 138.17C743.09 137.721 743.384 137.188 743.55 136.61C743.781 135.821 743.889 135.002 743.87 134.18Z" fill="#2D2D2B"/>
<path d="M750.77 141.29V127.07H753.12L753.57 129.81C753.914 128.962 754.489 128.227 755.23 127.69C756.033 127.105 757.007 126.803 758 126.83C758.42 126.824 758.839 126.864 759.25 126.95C759.596 127.018 759.932 127.129 760.25 127.28L759.68 129.87C759.415 129.741 759.136 129.641 758.85 129.57C758.5 129.486 758.14 129.445 757.78 129.45C757.265 129.437 756.753 129.531 756.277 129.725C755.8 129.92 755.369 130.211 755.01 130.58C754.605 131.047 754.298 131.59 754.106 132.177C753.913 132.764 753.84 133.384 753.89 134V141.29H750.77Z" fill="#2D2D2B"/>
<path d="M771.26 119.87H774.36V141.29H771.92L771.56 139.73H771.44C770.935 140.36 770.284 140.859 769.544 141.183C768.804 141.507 767.996 141.646 767.19 141.59C766.397 141.593 765.612 141.437 764.88 141.13C764.119 140.815 763.436 140.337 762.88 139.73C762.275 139.054 761.81 138.266 761.51 137.41C761.144 136.384 760.968 135.299 760.99 134.21C760.982 133.193 761.131 132.182 761.43 131.21C761.688 130.357 762.121 129.567 762.7 128.89C763.247 128.25 763.93 127.74 764.7 127.4C765.567 127.036 766.5 126.855 767.44 126.87C768.12 126.874 768.795 126.986 769.44 127.2C770.059 127.395 770.634 127.712 771.13 128.13L771.26 119.87ZM771.26 130.6C770.898 130.152 770.441 129.79 769.922 129.539C769.404 129.289 768.836 129.156 768.26 129.15C767.748 129.149 767.24 129.24 766.76 129.42C766.266 129.607 765.821 129.905 765.46 130.29C765.058 130.736 764.751 131.26 764.56 131.83C764.323 132.569 764.211 133.344 764.23 134.12C764.212 134.905 764.317 135.688 764.54 136.44C764.718 137.019 764.999 137.561 765.37 138.04C765.684 138.441 766.093 138.757 766.56 138.96C767.003 139.147 767.479 139.242 767.96 139.24C768.631 139.254 769.294 139.088 769.88 138.76C770.451 138.422 770.94 137.961 771.31 137.41L771.26 130.6Z" fill="#2D2D2B"/>
<path d="M779.01 141.29V119.87H782.01V141.29H779.01Z" fill="#2D2D2B"/>
<path d="M786.93 128.34C787.772 127.867 788.664 127.488 789.59 127.21C790.517 126.948 791.477 126.821 792.44 126.83C793.185 126.823 793.928 126.914 794.65 127.1C795.286 127.261 795.88 127.557 796.39 127.97C796.896 128.407 797.285 128.964 797.52 129.59C797.808 130.374 797.943 131.205 797.92 132.04V141.29H795.42L795.09 139.76H795.01C794.469 140.385 793.782 140.866 793.01 141.16C792.221 141.457 791.383 141.602 790.54 141.59C789.289 141.649 788.06 141.243 787.09 140.45C786.665 140.077 786.327 139.615 786.1 139.096C785.874 138.578 785.764 138.016 785.78 137.45C785.751 136.76 785.907 136.076 786.23 135.466C786.553 134.856 787.033 134.343 787.62 133.98C788.258 133.574 788.962 133.283 789.7 133.12C790.569 132.924 791.459 132.831 792.35 132.84H794.76V131.75C794.799 131.402 794.754 131.05 794.629 130.722C794.504 130.395 794.302 130.103 794.04 129.87C793.446 129.487 792.746 129.302 792.04 129.34C791.445 129.351 790.853 129.439 790.28 129.6C789.49 129.835 788.734 130.171 788.03 130.6L786.93 128.34ZM794.82 134.84H792.92C791.867 134.789 790.822 135.053 789.92 135.6C789.653 135.781 789.433 136.023 789.28 136.307C789.127 136.591 789.044 136.907 789.04 137.23C789.028 137.574 789.096 137.917 789.24 138.23C789.363 138.48 789.545 138.696 789.77 138.86C790 139.028 790.262 139.147 790.54 139.21C790.832 139.279 791.13 139.312 791.43 139.31C792.075 139.308 792.709 139.15 793.28 138.85C793.897 138.534 794.428 138.075 794.83 137.51L794.82 134.84Z" fill="#2D2D2B"/>
<path d="M805.36 141.29H802.26V127.07H804.7L805.12 128.97C805.77 128.327 806.52 127.794 807.34 127.39C808.163 127.007 809.062 126.815 809.97 126.83C810.606 126.789 811.244 126.877 811.845 127.088C812.447 127.3 812.999 127.63 813.47 128.06C813.903 128.535 814.235 129.093 814.448 129.699C814.661 130.306 814.75 130.949 814.71 131.59V141.29H811.6V131.98C811.647 131.258 811.422 130.545 810.97 129.98C810.725 129.728 810.428 129.533 810.1 129.409C809.772 129.285 809.42 129.234 809.07 129.26C808.406 129.267 807.752 129.428 807.16 129.73C806.487 130.07 805.878 130.523 805.36 131.07V141.29Z" fill="#2D2D2B"/>
<path d="M828.63 119.87H831.73V141.29H829.29L828.93 139.73H828.81C828.321 140.299 827.727 140.767 827.06 141.11C826.274 141.459 825.419 141.623 824.56 141.59C823.767 141.594 822.981 141.438 822.25 141.13C821.491 140.812 820.809 140.334 820.25 139.73C819.649 139.052 819.184 138.264 818.88 137.41C818.523 136.382 818.351 135.298 818.37 134.21C818.362 133.193 818.511 132.182 818.81 131.21C819.069 130.359 819.497 129.57 820.07 128.89C820.617 128.251 821.301 127.741 822.07 127.4C822.937 127.035 823.87 126.854 824.81 126.87C825.49 126.875 826.165 126.986 826.81 127.2C827.428 127.397 828.003 127.713 828.5 128.13L828.63 119.87ZM828.63 130.6C828.268 130.152 827.811 129.79 827.292 129.539C826.774 129.289 826.206 129.156 825.63 129.15C825.118 129.149 824.61 129.24 824.13 129.42C823.635 129.605 823.19 129.903 822.83 130.29C822.428 130.736 822.121 131.26 821.93 131.83C821.684 132.568 821.569 133.343 821.59 134.12C821.575 134.905 821.683 135.688 821.91 136.44C822.088 137.019 822.369 137.561 822.74 138.04C823.054 138.441 823.463 138.757 823.93 138.96C824.373 139.147 824.849 139.242 825.33 139.24C825.998 139.254 826.658 139.088 827.24 138.76C827.814 138.422 828.306 137.961 828.68 137.41L828.63 130.6Z" fill="#2D2D2B"/>
<path d="M835.89 139.48C835.89 138.95 836.101 138.441 836.476 138.066C836.851 137.691 837.36 137.48 837.89 137.48C838.151 137.477 838.409 137.527 838.649 137.627C838.89 137.727 839.108 137.874 839.29 138.06C839.48 138.252 839.63 138.48 839.729 138.731C839.829 138.982 839.877 139.25 839.87 139.52C839.888 139.803 839.846 140.087 839.746 140.352C839.646 140.618 839.491 140.859 839.29 141.06C838.916 141.426 838.413 141.63 837.89 141.63C837.36 141.636 836.849 141.431 836.47 141.06C836.264 140.855 836.106 140.607 836.006 140.334C835.906 140.061 835.866 139.77 835.89 139.48Z" fill="#2D2D2B"/>
<path d="M846.55 141.29H843.45V127.07H845.89L846.31 128.97C846.958 128.325 847.708 127.791 848.53 127.39C849.353 127.007 850.252 126.815 851.16 126.83C851.801 126.76 852.449 126.834 853.057 127.049C853.665 127.264 854.217 127.613 854.672 128.07C855.126 128.528 855.472 129.082 855.683 129.691C855.894 130.3 855.964 130.95 855.89 131.59V141.29H852.79V131.98C852.837 131.258 852.612 130.545 852.16 129.98C851.915 129.729 851.618 129.534 851.29 129.41C850.961 129.286 850.61 129.234 850.26 129.26C849.592 129.268 848.936 129.429 848.34 129.73C847.67 130.07 847.065 130.523 846.55 131.07V141.29Z" fill="#2D2D2B"/>
<path d="M873.76 134.03C873.776 135.119 873.586 136.201 873.2 137.22C872.865 138.111 872.347 138.922 871.68 139.6C871.039 140.247 870.269 140.751 869.42 141.08C868.527 141.425 867.577 141.599 866.62 141.59C865.669 141.599 864.723 141.437 863.83 141.11C862.998 140.802 862.239 140.325 861.6 139.71C860.951 139.069 860.449 138.294 860.13 137.44C859.404 135.403 859.404 133.177 860.13 131.14C860.466 130.259 860.984 129.458 861.65 128.79C862.29 128.147 863.061 127.649 863.91 127.33C864.804 126.992 865.754 126.822 866.71 126.83C867.66 126.823 868.604 126.982 869.5 127.3C870.331 127.596 871.09 128.062 871.73 128.67C872.383 129.304 872.886 130.076 873.2 130.93C873.577 131.92 873.767 132.971 873.76 134.03ZM870.54 134.18C870.556 133.4 870.441 132.622 870.2 131.88C870.015 131.308 869.72 130.778 869.33 130.32C868.992 129.935 868.567 129.636 868.09 129.45C867.631 129.27 867.143 129.179 866.65 129.18C866.167 129.18 865.686 129.261 865.23 129.42C864.76 129.586 864.338 129.864 864 130.23C863.606 130.675 863.312 131.201 863.14 131.77C862.909 132.552 862.801 133.365 862.82 134.18C862.803 134.956 862.915 135.73 863.15 136.47C863.338 137.049 863.637 137.586 864.03 138.05C864.367 138.45 864.796 138.763 865.28 138.96C865.734 139.145 866.22 139.24 866.71 139.24C867.193 139.239 867.673 139.158 868.13 139C868.604 138.833 869.028 138.548 869.36 138.17C869.756 137.718 870.05 137.186 870.22 136.61C870.451 135.821 870.559 135.002 870.54 134.18Z" fill="#2D2D2B"/>
<path d="M0.459961 33.12V75.75C0.459961 118.45 47.72 150.22 47.72 150.22C47.72 150.22 95.01 118.42 95.01 75.75V33.12H0.459961Z" fill="#FFD500"/>
<path d="M0.0100098 32.67V75.75C0.0100098 118.2 47.01 150.29 47.47 150.61L47.73 150.78L47.98 150.61C48.46 150.29 95.45 118.2 95.45 75.75V32.67H0.0100098ZM94.54 33.58V75.75C94.54 116.16 51.35 147.14 47.73 149.66C44.1 147.14 0.920013 116.16 0.920013 75.75V33.58H94.54Z" fill="#1D1D1B"/>
<path d="M20.3599 48.47C20.3599 48.47 18.6199 48.47 18.4099 48.47C18.0399 48.47 17.8599 47.09 18.6199 47.04L77.6199 48.54C78.1399 48.54 78.0199 49.92 77.1399 49.92H75.7499C75.7499 49.92 46.6199 72.24 51.0399 92.48C52.1299 97.48 58.2799 104.06 58.2799 104.06L56.7899 104.34C54.1955 101.142 50.8298 98.6577 47.0099 97.12C42.7099 95.62 37.9199 98.61 43.4599 104.44L43.6799 104.99C43.6799 104.99 18.1899 88.57 20.3599 48.47Z" fill="#1D1D1B"/>
<path d="M47.4599 48.07L47.1199 39.17L46.32 38.98L46.2 48L47.4599 48.07Z" fill="#1D1D1B"/>
<path d="M46.8301 44.65C46.8301 44.65 44.1301 44.45 44.1801 42.48C44.1801 40.83 46.3101 40.67 46.3101 40.67L46.8301 39.88C46.3024 39.8576 45.78 39.9934 45.3301 40.27C44.8201 40.64 44.4801 41.02 43.6901 40.75C42.8134 40.2932 41.8615 39.9985 40.8801 39.88C39.9582 39.9635 39.0799 40.3107 38.3501 40.88C38.3501 40.88 37.3501 41.67 35.5401 40.18C35.1457 39.8784 34.6941 39.66 34.2129 39.5379C33.7316 39.4159 33.2306 39.3928 32.7401 39.47C31.7401 39.61 31.8801 40.3 29.5901 41.15C29.5901 41.15 27.9301 41.58 27.6701 40.96C27.6701 40.96 26.9301 42.22 29.0701 42.45C30.2101 42.56 31.6401 41.67 32.5501 41.7C34.6801 41.7 34.5501 42.4 35.1601 42.91C35.708 43.344 36.3601 43.6269 37.0514 43.7304C37.7427 43.8339 38.449 43.7545 39.1001 43.5C40.5201 42.76 40.5801 42.78 41.1001 42.82C41.6201 42.86 41.6301 43.77 43.7201 43.88C44.0408 44.3466 44.4711 44.7273 44.9732 44.9888C45.4753 45.2504 46.0339 45.3847 46.6001 45.38L46.8301 44.65Z" fill="#1D1D1B"/>
<path d="M76.68 82.42C76.68 82.42 76.74 81.9 78.04 81.61C78.14 81.61 78.8 81.69 78.34 82.61L78.24 82.83C77.9057 84.117 77.7311 85.4403 77.72 86.77L77.29 96.69C77.2538 98.0446 77.6419 99.3767 78.4 100.5C79.0526 101.679 79.3316 103.029 79.2 104.37C79.2 104.37 78.58 109.65 78.5 109.9C78.4737 110.122 78.4021 110.336 78.2896 110.529C78.1771 110.722 78.0262 110.89 77.8461 111.022C77.6661 111.154 77.4608 111.248 77.243 111.297C77.0252 111.347 76.7995 111.351 76.58 111.31C76.58 111.31 74.92 111.05 75.02 109.63C75.01 109.47 76.76 82.72 76.68 82.42Z" fill="#1D1D1B"/>
<path d="M76.2301 98.12L58.9001 101.53C58.6038 101.786 58.3446 102.082 58.1301 102.41C58.1301 102.41 57.6001 103.41 58.5001 103.29L58.6401 103.13C58.6401 103.13 58.9001 102.41 59.4301 102.34L76.4301 98.81L76.2301 98.12Z" fill="#1D1D1B"/>
<path d="M45.1 96.47L45.01 104.41L46.85 104.86L47.03 95.93L45.1 96.47Z" fill="#1D1D1B"/>
<path d="M75.46 81.32C75.46 81.32 74.74 106.32 74.12 108.17C74.12 108.17 74.01 111.06 70.38 111.97C70.38 111.97 22.87 111.97 21.29 111.92C21.29 111.92 15.16 111.45 15.07 105.73C15.07 105.73 13.81 75.6 14.07 72.78C14.07 72.78 14.42 72.35 15.2 73.04L16.86 74.28C16.86 74.28 17.39 74.76 16.94 75.96C16.94 75.96 14.68 86.06 16.86 92.04C16.86 92.04 19.03 101.53 25.91 102.41C25.91 102.41 41.32 104.61 64.31 103.41C66.6112 102.954 68.7136 101.794 70.3261 100.09C71.9386 98.386 72.9814 96.2228 73.31 93.9C73.31 93.9 74.97 85.9 72.96 80.1C72.96 80.1 72.7 79.58 74.11 80.02C74.16 80 75.54 80.62 75.46 81.32Z" fill="#1D1D1B"/>
<path d="M15.5501 86.92C15.696 87.0243 15.8708 87.0803 16.0501 87.0803C16.2294 87.0803 16.4042 87.0243 16.5501 86.92C16.5501 86.92 16.2301 85.92 16.8201 85.73C16.8201 85.73 19.7501 85.63 20.2001 85.57C20.2001 85.57 20.9101 85.82 20.2001 86.57C20.2001 86.57 16.2701 90.91 16.0601 90.91H14.7001C14.7001 90.91 11.3101 87.56 10.3801 86.43C10.3801 86.43 9.73012 85.78 10.6501 85.71H13.1301C13.2705 85.7283 13.4021 85.7888 13.5074 85.8834C13.6128 85.978 13.6869 86.1024 13.7201 86.24C13.7624 86.4546 13.7624 86.6754 13.7201 86.89C13.8319 87.0142 13.9798 87.1003 14.143 87.1362C14.3062 87.172 14.4766 87.1559 14.6301 87.09C15.1401 87.03 15.5501 86.92 15.5501 86.92Z" fill="#1D1D1B"/>
<path d="M134.15 127.32C130.96 127.32 128.5 127.24 126.4 127.17V134.26L133.48 134.15C134.33 134.15 134.36 134.54 134.36 135.29V135.78C134.36 136.53 134.36 136.92 133.48 136.92L126.4 136.81V146.91C126.4 147.72 126.18 147.91 125.52 147.91H124.01C123.13 147.91 122.92 147.77 122.92 146.91V125.19C122.92 124.3 123.3 124.27 124.01 124.27H134.11C134.67 124.27 134.99 124.37 134.99 125.19V126.19C135.01 126.93 135.01 127.32 134.15 127.32Z" fill="#1D1D1B"/>
<path d="M155.76 125.61L148.81 138.72V146.91C148.81 147.72 148.57 147.91 147.94 147.91H146.47C145.55 147.91 145.38 147.77 145.38 146.91V139.04L138.29 125.61C138.153 125.373 138.081 125.104 138.08 124.83C138.08 124.44 138.36 124.27 138.82 124.27H140.68C140.935 124.225 141.197 124.276 141.417 124.412C141.636 124.549 141.798 124.762 141.87 125.01L147.09 135.18L152.5 125.01C152.573 124.762 152.734 124.549 152.954 124.412C153.173 124.276 153.435 124.225 153.69 124.27H155.2C155.66 124.27 155.97 124.44 155.97 124.83C155.989 125.106 155.915 125.381 155.76 125.61Z" fill="#1D1D1B"/>
<path d="M171.06 147.93H161.27C160.39 147.93 160.18 147.79 160.18 146.93V125.19C160.18 124.3 160.56 124.27 161.27 124.27H162.74C163.52 124.27 163.62 124.59 163.62 125.19V144.99C165.62 144.99 168.01 144.92 171.06 144.89C171.9 144.89 171.9 145.28 171.9 146.02V147.02C171.9 147.83 171.62 147.93 171.06 147.93Z" fill="#1D1D1B"/>
<path d="M191.51 147.93H189.13C188.809 147.961 188.485 147.905 188.193 147.767C187.901 147.63 187.651 147.417 187.47 147.15L179.2 138.15V146.91C179.2 147.72 178.99 147.91 178.32 147.91H176.85C175.97 147.91 175.76 147.77 175.76 146.91V125.19C175.76 124.3 176.14 124.27 176.85 124.27H178.32C179.09 124.27 179.2 124.59 179.2 125.19V134.97L187.47 125.05C188.04 124.37 188.25 124.27 188.95 124.27H190.74C191.51 124.27 191.55 124.8 191.16 125.27L182.16 136.15L191.78 146.67C192.43 147.42 192.21 147.93 191.51 147.93Z" fill="#1D1D1B"/>
<path d="M208.22 147.93H197.44C196.56 147.93 196.35 147.79 196.35 146.93V125.19C196.35 124.3 196.74 124.27 197.44 124.27H208.22C208.77 124.27 209.09 124.37 209.09 125.19V126.19C209.09 126.94 209.09 127.33 208.22 127.33C205.02 127.33 201.97 127.25 199.79 127.18V134.3C201.86 134.23 204.28 134.2 207.44 134.16C208.28 134.16 208.32 134.55 208.32 135.3V135.79C208.32 136.54 208.32 136.93 207.44 136.93C204.28 136.93 201.86 136.86 199.79 136.78V145.04C201.97 144.97 205.02 144.93 208.22 144.9C209.05 144.9 209.09 145.29 209.09 146.03V147.03C209.09 147.83 208.77 147.93 208.22 147.93Z" fill="#1D1D1B"/>
<path d="M226.28 145.77C225.12 148.14 222 148.25 219.62 148.25C217.62 148.25 215.72 148.08 214.56 147.97C213.65 147.9 213.33 147.83 213.33 147.3V146.06C213.33 145.24 213.33 144.89 214.04 144.89C215.97 144.89 215.51 145.17 220.14 145.17C222.63 145.17 223.55 144.92 223.55 142.17C223.55 139.42 223.55 138.98 221.93 138.31C220.31 137.64 219.02 137.03 217.58 136.36C214.14 134.77 213.58 134.2 213.58 130.05C213.58 128.35 213.58 126.51 214.91 125.3C216.24 124.09 218.35 124.03 221.26 124.03C222.84 124.03 223.68 124.1 225.19 124.21C226.07 124.28 226.42 124.35 226.42 124.88V126.12C226.42 126.94 226.42 127.29 225.72 127.29C224.35 127.29 224.72 127.11 221.93 127.11H219.44C216.95 127.11 216.91 128.17 216.91 130.44C216.91 132.1 217.02 132.49 218.49 133.2L221.37 134.48C225.86 136.48 226.88 136.99 226.88 140.92C226.88 142.23 226.88 144.57 226.28 145.77Z" fill="#1D1D1B"/>
<path d="M247.86 147.93H245.47C245.15 147.961 244.828 147.905 244.538 147.768C244.247 147.63 243.999 147.417 243.82 147.15L235.54 138.15V146.91C235.54 147.72 235.33 147.91 234.66 147.91H233.19C232.32 147.91 232.11 147.77 232.11 146.91V125.19C232.11 124.3 232.49 124.27 233.19 124.27H234.66C235.44 124.27 235.54 124.59 235.54 125.19V134.97L243.82 125.05C244.38 124.37 244.6 124.27 245.3 124.27H247.09C247.86 124.27 247.9 124.8 247.51 125.27L238.51 136.15L248.12 146.67C248.77 147.42 248.56 147.93 247.86 147.93Z" fill="#1D1D1B"/>
<path d="M268.59 145.52C266.84 147.86 264.59 148.68 261.54 148.68C258.49 148.68 256.24 147.86 254.54 145.52C252.54 142.8 252.26 139.52 252.26 136.14C252.26 132.76 252.54 129.44 254.54 126.71C256.36 124.23 258.75 123.6 261.54 123.6C264.33 123.6 266.73 124.23 268.59 126.71C270.59 129.44 270.87 132.81 270.87 136.14C270.87 139.47 270.59 142.8 268.59 145.52ZM266.42 129.42C265.51 127.33 263.58 126.66 261.54 126.66C259.5 126.66 257.54 127.33 256.67 129.42C255.93 131.12 255.82 134.24 255.82 136.12C255.82 138 255.93 141.12 256.67 142.78C257.54 144.87 259.47 145.54 261.54 145.54C263.61 145.54 265.54 144.87 266.42 142.78C267.15 141.08 267.26 137.99 267.26 136.12C267.26 134.25 267.15 131.14 266.42 129.42Z" fill="#1D1D1B"/>
<path d="M297.75 147.93H296.28C295.64 147.93 295.43 147.72 295.4 146.93L294.35 128.75C294.06 129.67 293.64 131.34 293.29 132.33C291.85 136.55 290.29 141.19 289.19 144.09C288.91 144.87 288.66 145.16 287.86 145.16H286.95C286.13 145.16 285.95 144.87 285.65 144.09C284.56 141.19 282.91 136.55 281.47 132.33C281.12 131.33 280.73 129.67 280.47 128.75L279.35 146.93C279.35 147.74 279.13 147.93 278.47 147.93H277.01C276.14 147.93 275.86 147.79 275.93 146.93L277.72 125.21C277.79 124.32 278.1 124.29 278.8 124.29H280.8C281.57 124.29 281.75 124.46 281.96 125.03C283.39 128.89 285.74 135.73 287.43 140.69C289.12 135.69 291.43 128.89 292.87 125.03C293.08 124.46 293.29 124.29 294.06 124.29H296.06C296.77 124.29 297.06 124.29 297.12 125.21L298.91 146.93C298.91 147.79 298.66 147.93 297.75 147.93Z" fill="#1D1D1B"/>
<path d="M325.71 147.93H324.24C323.61 147.93 323.4 147.72 323.36 146.93L322.31 128.75C322.03 129.67 321.61 131.34 321.26 132.33C319.82 136.55 318.26 141.19 317.15 144.09C316.87 144.87 316.62 145.16 315.82 145.16H314.91C314.1 145.16 313.91 144.87 313.61 144.09C312.52 141.19 310.87 136.55 309.43 132.33C309.08 131.33 308.69 129.67 308.43 128.75L307.31 146.93C307.31 147.74 307.1 147.93 306.43 147.93H305.01C304.13 147.93 303.85 147.79 303.92 146.93L305.71 125.21C305.78 124.32 306.1 124.29 306.8 124.29H308.8C309.57 124.29 309.75 124.46 309.96 125.03C311.4 128.89 313.75 135.73 315.43 140.69C317.12 135.69 319.43 128.89 320.87 125.03C321.08 124.46 321.29 124.29 322.06 124.29H324.06C324.76 124.29 325.06 124.29 325.11 125.21L326.9 146.93C326.87 147.79 326.63 147.93 325.71 147.93Z" fill="#1D1D1B"/>
<path d="M349.15 142.09C348.944 143.764 348.248 145.34 347.15 146.62C345.95 147.9 344.02 148.46 340.65 148.46C337.28 148.46 335.39 147.9 334.2 146.62C333.102 145.34 332.406 143.764 332.2 142.09C331.798 139.108 331.655 136.097 331.77 133.09V125.23C331.77 124.34 332.16 124.31 332.86 124.31H334.33C335.11 124.31 335.21 124.63 335.21 125.23V136.23C335.21 140.38 335.39 141.79 336.02 143.23C336.72 144.83 338.02 145.43 340.61 145.43C343.2 145.43 344.55 144.83 345.24 143.23C345.88 141.81 346.05 140.4 346.05 136.23V125.23C346.05 124.34 346.48 124.31 347.18 124.31H348.65C349.42 124.31 349.49 124.63 349.49 125.23V133.09C349.629 136.094 349.515 139.105 349.15 142.09Z" fill="#1D1D1B"/>
<path d="M371.75 147.93H370.59C369.99 147.93 369.59 147.93 369.15 147.4C366.31 143.29 361.64 135.89 358.23 130.54V146.91C358.23 147.72 357.99 147.91 357.36 147.91H355.89C354.97 147.91 354.8 147.77 354.8 146.91V125.19C354.8 124.3 355.15 124.27 355.89 124.27H356.89C357.63 124.27 357.83 124.27 358.15 124.76C361.03 128.98 365.35 135.82 369.2 141.7V125.19C369.2 124.3 369.55 124.27 370.26 124.27H371.77C372.54 124.27 372.64 124.59 372.64 125.19V146.91C372.62 147.72 372.38 147.93 371.75 147.93Z" fill="#1D1D1B"/>
<path d="M390.17 147.93H379.39C378.52 147.93 378.31 147.79 378.31 146.93V125.19C378.31 124.3 378.69 124.27 379.39 124.27H390.17C390.73 124.27 391.04 124.37 391.04 125.19V126.19C391.04 126.94 391.04 127.33 390.17 127.33C386.97 127.33 383.92 127.25 381.75 127.18V134.3C383.82 134.23 386.24 134.2 389.39 134.16C390.23 134.16 390.27 134.55 390.27 135.3V135.79C390.27 136.54 390.27 136.93 389.39 136.93C386.24 136.93 383.82 136.86 381.75 136.78V145.04C383.92 144.97 386.97 144.93 390.17 144.9C391.01 144.9 391.04 145.29 391.04 146.03V147.03C391.01 147.83 390.73 147.93 390.17 147.93Z" fill="#1D1D1B"/>
<path d="M161.52 38C161.34 40.06 161.29 48 161.41 57.81V53.37C161.56 64.99 161.93 79.12 162.57 88.79C162.57 88.79 140.5 63.01 131.3 49.05C131.3 49.05 131.03 45.05 130.98 42.18C130.93 39.31 129.38 38.42 129.38 38.42C129.38 38.42 124.77 35.29 122.79 34.14C122.79 34.14 122.79 72.45 122.79 91.78C122.79 107.33 132.55 108.16 132.55 108.16L131.98 63.1C143.34 79 163.19 111.1 170.82 109.49C170.82 109.49 171.76 68.37 172.15 55.55C172.284 51.9065 171.349 48.3034 169.46 45.1849C167.571 42.0663 164.811 39.5687 161.52 38Z" fill="#1D1D1B"/>
<path d="M326.52 80.6C326.52 80.6 324.21 91.3 328.09 99.8C331.48 95.55 332.17 83.43 338.03 84.64C343.89 85.85 340.46 107.2 352.31 109.94C354.41 83.05 344.89 57.65 326.52 80.6Z" fill="#1D1D1B"/>
<path d="M210.87 94.07C211.035 99.328 212.048 104.525 213.87 109.46C220.36 104.69 216.19 90.76 219.24 87.25C222.29 83.74 225.41 84.53 226.1 84.93C227.1 82.37 225.46 77.45 223.43 76.26C222.191 75.5348 220.759 75.2082 219.328 75.3245C217.897 75.4408 216.536 75.9943 215.43 76.91C212.62 79.15 209.87 81.66 208.23 82.21C208.24 82.21 210.63 85.54 210.87 94.07Z" fill="#1D1D1B"/>
<path d="M280.08 38.42C280.15 36.53 278 35.66 278 35.66C278 35.66 274.93 34.25 271.55 33.1C271.55 33.1 271.38 80.56 270.79 97.62C270.31 111.31 278.59 108.83 278.59 108.83L279.4 66.83C279.4 66.83 280.01 41.42 280.08 38.42Z" fill="#1D1D1B"/>
<path d="M238.34 108.86C238.34 108.86 240.51 110.64 242.67 109.58C247.038 107.065 250.827 103.658 253.79 99.58C255.53 108.71 261.64 108.43 261.64 108.43L262.45 64.29C262.45 64.29 262.92 49.59 262.95 46.63C262.95 43.22 261.13 42.33 261.13 42.33L253.9 38.09C253.9 38.09 253.99 54.58 253.72 75.03C245.16 74.59 231.15 78.8 230.81 88.56C230.37 101.13 235.25 106.22 238.34 108.86ZM253.44 89.56C251.3 94.56 248.75 98.39 241.86 102.98C239.11 100.1 238.62 90.98 240.42 87.76C242.22 84.54 249.42 81.66 253.33 82.44C253.93 82.62 253.82 88.49 253.44 89.56Z" fill="#1D1D1B"/>
<path d="M374.38 109.71C377.674 106.723 380.547 103.301 382.92 99.54C384.37 109.72 391.01 107.82 391.01 107.82L391.13 59.7C391.13 59.7 391.33 49.91 391.37 46.95C391.417 46.1417 391.277 45.3335 390.961 44.5879C390.646 43.8423 390.163 43.1792 389.55 42.65C389.55 42.65 389.07 42.02 383.04 40.31C383.04 40.31 383.23 56.39 383.04 75.31C374.94 76.98 358.16 83.37 357.79 94.22C357.5 102.43 365.15 106.91 369.32 109.92C370.088 110.394 370.98 110.628 371.882 110.59C372.784 110.553 373.654 110.246 374.38 109.71ZM382.93 82.65C383.35 82.8 383.16 88.53 382.77 89.92C380.55 95.66 378.25 98.1 373.37 101.65C370.22 99.65 365.86 96.28 367.66 93.09C369.46 89.9 379.75 82.86 382.93 82.65Z" fill="#1D1D1B"/>
<path d="M203.93 95.18C204.06 91.18 203.16 86.49 200.35 80.7C197.54 74.91 190.62 73.84 190.62 73.84C190.62 88.42 200.78 87.56 198.83 99.55C198.83 99.55 197.09 101.25 191.54 100.93C183.82 100.47 185.9 86.05 187.42 81.09C170.25 85.49 173.42 114.36 198.09 109.46C202.1 105.87 203.76 100.73 203.93 95.18Z" fill="#1D1D1B"/>
<path d="M284.63 99.64C284.63 99.64 283.63 103.41 285.39 104.77C291.28 109.59 306.39 108.35 310.88 93.77C311.25 102.12 313.68 111.56 323.88 110.28C324.49 110.18 322.32 101 319.88 92.13C318.566 86.8723 316.954 81.6939 315.05 76.62C314.658 75.73 314.011 74.9764 313.19 74.4547C312.369 73.9331 311.412 73.6669 310.44 73.69C295.01 75.53 288.25 88 284.63 99.64ZM289.73 101.42C289.95 95.29 299.65 83.69 309.67 82.42C303.81 87.42 300.59 102.65 289.73 101.42Z" fill="#1D1D1B"/>
<path d="M452.93 0h1v183.44h-1z" fill="#646363" />
</svg>
