<svg width="40" height="40" viewBox="0 0 40 40" fill="none" xmlns="http://www.w3.org/2000/svg">
<path d="M11.6929 36.2498C6.37287 36.2498 2.04248 31.9498 2.04248 26.6698C2.04248 21.3898 6.37287 17.0898 11.6929 17.0898C17.0129 17.0898 21.2427 21.3898 21.2427 26.6698C21.2427 31.9498 16.9629 36.2498 11.6929 36.2498ZM11.6929 19.5798C7.75287 19.5798 4.54248 22.7598 4.54248 26.6598C4.54248 30.5598 7.75287 33.7398 11.6929 33.7398C15.6329 33.7398 18.7427 30.5598 18.7427 26.6598C18.7427 22.7598 15.5829 19.5798 11.6929 19.5798Z" fill="black"/>
<path d="M27.4927 36.25C25.4227 36.25 23.7427 34.57 23.7427 32.5C23.7427 30.43 25.4227 28.75 27.4927 28.75C29.5627 28.75 31.2427 30.43 31.2427 32.5C31.2427 34.57 29.5627 36.25 27.4927 36.25ZM27.4927 31.25C26.7927 31.25 26.2427 31.8 26.2427 32.5C26.2427 33.2 26.7927 33.75 27.4927 33.75C28.1927 33.75 28.7427 33.2 28.7427 32.5C28.7427 31.8 28.1927 31.25 27.4927 31.25Z" fill="black"/>
<path d="M11.6929 28.33C11.5829 28.33 11.4728 28.32 11.3628 28.3C11.2628 28.28 11.1522 28.25 11.0522 28.2C10.9522 28.16 10.8629 28.11 10.7729 28.05C10.6729 27.99 10.5922 27.92 10.5122 27.84C10.4422 27.77 10.3722 27.68 10.3022 27.59C10.2422 27.5 10.1928 27.4 10.1528 27.3C10.1128 27.2 10.083 27.1 10.063 26.99C10.033 26.88 10.0229 26.77 10.0229 26.67C10.0229 26.56 10.033 26.45 10.063 26.34C10.083 26.23 10.1128 26.13 10.1528 26.03C10.1928 25.93 10.2422 25.83 10.3022 25.74C10.3722 25.65 10.4422 25.57 10.5122 25.49C10.5922 25.41 10.6729 25.34 10.7729 25.28C10.8629 25.22 10.9522 25.17 11.0522 25.13C11.1522 25.09 11.2628 25.06 11.3628 25.03C11.5828 24.99 11.8029 24.99 12.0229 25.03C12.1229 25.06 12.2325 25.09 12.3325 25.13C12.4325 25.17 12.5326 25.22 12.6226 25.28C12.7126 25.34 12.7926 25.41 12.8726 25.49C12.9526 25.57 13.0225 25.65 13.0825 25.74C13.1425 25.83 13.1929 25.93 13.2329 26.03C13.2729 26.13 13.3025 26.23 13.3325 26.34C13.3525 26.45 13.3628 26.56 13.3628 26.67C13.3628 26.77 13.3525 26.88 13.3325 26.99C13.3025 27.1 13.2729 27.2 13.2329 27.3C13.1929 27.4 13.1425 27.5 13.0825 27.59C13.0225 27.68 12.9526 27.77 12.8726 27.84C12.7926 27.92 12.7126 27.99 12.6226 28.05C12.5326 28.11 12.4325 28.16 12.3325 28.2C12.2325 28.25 12.1229 28.28 12.0229 28.3C11.9129 28.32 11.8029 28.33 11.6929 28.33Z" fill="black"/>
<path d="M9.99268 19.58C9.40268 19.58 8.87221 19.16 8.76221 18.56L6.56299 6.59C6.52299 6.43 6.31228 6.25 6.09229 6.25H3.29248C2.60248 6.25 2.04248 5.69 2.04248 5C2.04248 4.31 2.60248 3.75 3.29248 3.75H6.09229C7.46229 3.75 8.66244 4.7 9.00244 6.05L11.2231 18.11C11.3431 18.79 10.9031 19.44 10.2231 19.57C10.1431 19.58 10.0727 19.59 9.99268 19.59V19.58Z" fill="black"/>
<path d="M27.4927 31.25C26.8027 31.25 26.2427 30.6902 26.2427 30.0002V13.3302C26.2427 13.0702 26.0725 12.9102 25.7925 12.9102H9.19287C8.50287 12.9102 7.94287 12.3502 7.94287 11.6602C7.94287 10.9702 8.50287 10.4102 9.19287 10.4102H25.7925C27.4425 10.4102 28.7427 11.6902 28.7427 13.3302V30.0002C28.7427 30.6902 28.1827 31.25 27.4927 31.25Z" fill="black"/>
<path d="M34.0024 29.2098C33.0224 29.2098 32.0527 28.7198 31.5327 27.8698L29.4624 24.7798C29.4024 24.6898 29.313 24.5898 29.103 24.5898H20.0024C19.3124 24.5898 18.7524 24.0298 18.7524 23.3398C18.7524 22.6498 19.3124 22.0898 20.0024 22.0898H29.103C30.123 22.0898 31.0122 22.5698 31.5522 23.4098L33.6431 26.5298C33.7431 26.6898 33.9823 26.7598 34.1323 26.6998L36.2524 25.8798C36.9024 25.6298 37.6226 25.9498 37.8726 26.5898C38.1226 27.2298 37.8026 27.9598 37.1626 28.2098L35.063 29.0298C34.733 29.1698 34.3729 29.2298 34.0229 29.2298L34.0024 29.2098Z" fill="black"/>
</svg>
