<svg width="40" height="40" viewBox="0 0 40 40" fill="none" xmlns="http://www.w3.org/2000/svg">
<path d="M20 37.92C10.1 37.92 2.0498 29.88 2.0498 20C2.0498 10.12 10.1 2.07996 20 2.07996C29.9 2.07996 37.9502 10.12 37.9502 20C37.9502 29.88 29.9 37.92 20 37.92ZM20 4.57996C11.48 4.57996 4.5498 11.5 4.5498 20C4.5498 28.5 11.48 35.42 20 35.42C28.52 35.42 35.4502 28.5 35.4502 20C35.4502 11.5 28.52 4.57996 20 4.57996Z" fill="black"/>
<path d="M20 13.7499C18.63 13.7499 17.5498 12.6499 17.5498 11.2499C17.5498 9.84988 18.63 8.74988 20 8.74988C21.37 8.74988 22.4502 9.84988 22.4502 11.2499C22.4502 12.6499 21.37 13.7499 20 13.7499Z" fill="black"/>
<path d="M19.9997 17.9195C17.2997 17.9195 14.7694 17.2895 12.6794 16.0895C12.0794 15.7495 11.8695 14.9795 12.2195 14.3795C12.5595 13.7795 13.3294 13.5695 13.9294 13.9195C15.6394 14.8995 17.7495 15.4195 20.0095 15.4195C22.2695 15.4195 24.3696 14.8995 26.0896 13.9195C26.6896 13.5795 27.4496 13.7795 27.7996 14.3795C28.1396 14.9795 27.9396 15.7395 27.3396 16.0895C25.2496 17.2895 22.7193 17.9195 20.0193 17.9195H19.9997Z" fill="black"/>
<path d="M23.3002 31.25C22.7402 31.25 22.2203 30.87 22.0903 30.29L20.7201 24.58H19.2905L17.9203 30.29C17.7603 30.96 17.0806 31.37 16.4106 31.21C15.7406 31.05 15.3307 30.37 15.4907 29.7L17.06 23.18V16.66C17.06 15.97 17.62 15.41 18.31 15.41C18.64 15.41 18.9406 15.54 19.1606 15.74C19.6106 15.33 20.4108 15.33 20.8608 15.74C21.0808 15.53 21.3804 15.41 21.7104 15.41C22.4004 15.41 22.9604 15.97 22.9604 16.66V23.18L24.5307 29.7C24.6907 30.37 24.2808 31.05 23.6108 31.21C23.5108 31.23 23.4107 31.24 23.3207 31.24L23.3002 31.25Z" fill="black"/>
</svg>
