<svg width="40" height="40" viewBox="0 0 40 40" fill="none" xmlns="http://www.w3.org/2000/svg">
<path d="M17.8202 6.01965C17.8064 7.66929 16.4396 8.99507 14.7651 8.98316C13.0906 8.97125 11.7405 7.62615 11.7471 5.97646C11.7537 4.32677 13.1147 2.9952 14.7892 3.00001C16.4637 3.00482 17.8198 4.34419 17.8203 5.9939" fill="black"/>
<path d="M12.2755 7.52474L13.5654 22.3376L24.5634 22.2699L28.8404 32.4834L34 30.86L32.9138 28.2898L30.2661 28.9662L26.4643 19.632H16.213V17.5352H22.3231V14.8297H15.4663L15.3305 8.94515" fill="black"/>
<path d="M11.9464 15.0439C-4.01622 25.7271 16.0567 45.6027 26.6092 30.5899L25.4448 26.6002C20.7524 39.5007 1.60427 29.1191 12.1404 18.5503L11.9464 15.0439Z" fill="black"/>
</svg>
