<svg width="40" height="40" viewBox="0 0 40 40" fill="none" xmlns="http://www.w3.org/2000/svg">
<path d="M23.3501 27.9104C22.8801 27.9104 22.45 27.6404 22.23 27.2204L16.6597 16.1304L14.4702 20.5504C14.2602 20.9804 13.8301 21.2404 13.3501 21.2404H10.0503C9.36029 21.2404 8.80029 20.6804 8.80029 19.9904C8.80029 19.3004 9.36029 18.7404 10.0503 18.7404H12.5698L15.5298 12.7704C15.7398 12.3504 16.1699 12.0804 16.6499 12.0704C17.1199 12.0704 17.55 12.3404 17.77 12.7604L23.3403 23.8504L25.5298 19.4304C25.7398 19.0004 26.1699 18.7304 26.6499 18.7304H30.0503C30.7403 18.7304 31.3003 19.2904 31.3003 19.9804C31.3003 20.6704 30.7403 21.2304 30.0503 21.2304H27.4302L24.4702 27.2004C24.2602 27.6204 23.8301 27.8904 23.3501 27.9004V27.9104Z" fill="black"/>
<path d="M32.5503 37.08H7.55029C4.99029 37.08 2.8999 35.02 2.8999 32.5V7.50004C2.8999 4.97004 4.99029 2.92004 7.55029 2.92004H32.5503C35.0603 2.92004 37.1001 4.98004 37.1001 7.50004V32.5C37.1001 35.03 35.0603 37.08 32.5503 37.08ZM7.55029 5.41005C6.34029 5.41005 5.3999 6.33004 5.3999 7.49004V32.49C5.3999 33.66 6.34029 34.57 7.55029 34.57H32.5503C33.6803 34.57 34.6001 33.64 34.6001 32.49V7.49004C34.6001 6.34004 33.6803 5.41005 32.5503 5.41005H7.55029Z" fill="black"/>
</svg>
