<svg width="41" height="40" viewBox="0 0 41 40" fill="none" xmlns="http://www.w3.org/2000/svg">
<path d="M28.4998 31.245H6.90015C4.34015 31.245 2.24976 29.185 2.24976 26.665V13.335C2.24976 10.805 4.34015 8.755 6.90015 8.755H28.4998C31.0598 8.755 33.1501 10.815 33.1501 13.335V26.665C33.1501 29.195 31.0598 31.245 28.4998 31.245ZM6.90015 11.245C5.69015 11.245 4.74976 12.165 4.74976 13.325V26.655C4.74976 27.825 5.69015 28.735 6.90015 28.735H28.4998C29.7098 28.735 30.6501 27.815 30.6501 26.655V13.325C30.6501 12.155 29.7098 11.245 28.4998 11.245H6.90015Z" fill="black"/>
<path d="M31.9006 25.4151C31.3006 25.4151 30.7701 24.9851 30.6701 24.3751C30.5501 23.6951 31.0107 23.0451 31.6907 22.9351L35.2903 22.3251C35.5003 22.2951 35.6506 22.1151 35.6506 21.9151V18.0851C35.6506 17.8851 35.5003 17.7051 35.2903 17.6751L31.6907 17.0651C31.0107 16.9451 30.5501 16.3051 30.6701 15.6251C30.7901 14.9451 31.4306 14.4851 32.1106 14.6051L35.7102 15.2151C37.1202 15.4551 38.1506 16.6651 38.1506 18.0951V21.9251C38.1506 23.3551 37.1202 24.5651 35.7102 24.8051L32.1106 25.4151C32.0406 25.4251 31.9706 25.4351 31.9006 25.4351V25.4151Z" fill="black"/>
<path d="M10.2 24.5754C9.50995 24.5754 8.94995 24.0154 8.94995 23.3254V16.6554C8.94995 15.9654 9.50995 15.4054 10.2 15.4054C10.89 15.4054 11.45 15.9654 11.45 16.6554V23.3254C11.45 24.0154 10.89 24.5754 10.2 24.5754Z" fill="black"/>
<path d="M15.2 24.5754C14.51 24.5754 13.95 24.0154 13.95 23.3254V16.6554C13.95 15.9654 14.51 15.4054 15.2 15.4054C15.89 15.4054 16.45 15.9654 16.45 16.6554V23.3254C16.45 24.0154 15.89 24.5754 15.2 24.5754Z" fill="black"/>
</svg>
