<svg width="41" height="40" viewBox="0 0 41 40" fill="none" xmlns="http://www.w3.org/2000/svg">
<path d="M28.7498 31.245H7.15015C4.59015 31.245 2.49976 29.185 2.49976 26.665V13.335C2.49976 10.805 4.59015 8.755 7.15015 8.755H28.7498C31.3098 8.755 33.4001 10.815 33.4001 13.335V26.665C33.4001 29.195 31.3098 31.245 28.7498 31.245ZM7.15015 11.245C5.94015 11.245 4.99976 12.165 4.99976 13.325V26.655C4.99976 27.825 5.94015 28.735 7.15015 28.735H28.7498C29.9598 28.735 30.9001 27.815 30.9001 26.655V13.325C30.9001 12.155 29.9598 11.245 28.7498 11.245H7.15015Z" fill="black"/>
<path d="M32.1506 25.4151C31.5506 25.4151 31.0201 24.9851 30.9201 24.3751C30.8001 23.6951 31.2607 23.0451 31.9407 22.9351L35.5403 22.3251C35.7503 22.2951 35.9006 22.1151 35.9006 21.9151V18.0851C35.9006 17.8851 35.7503 17.7051 35.5403 17.6751L31.9407 17.0651C31.2607 16.9451 30.8001 16.3051 30.9201 15.6251C31.0401 14.9451 31.6906 14.4851 32.3606 14.6051L35.9602 15.2151C37.3702 15.4551 38.4006 16.6651 38.4006 18.0951V21.9251C38.4006 23.3551 37.3702 24.5651 35.9602 24.8051L32.3606 25.4151C32.2906 25.4251 32.2206 25.4351 32.1506 25.4351V25.4151Z" fill="black"/>
<path d="M10.45 24.5754C9.75995 24.5754 9.19995 24.0154 9.19995 23.3254V16.6554C9.19995 15.9654 9.75995 15.4054 10.45 15.4054C11.14 15.4054 11.7 15.9654 11.7 16.6554V23.3254C11.7 24.0154 11.14 24.5754 10.45 24.5754Z" fill="black"/>
</svg>
