<svg width="41" height="40" viewBox="0 0 41 40" fill="none" xmlns="http://www.w3.org/2000/svg">
<path d="M29.2498 31.245H7.65015C5.09015 31.245 2.99976 29.185 2.99976 26.665V13.335C2.99976 10.805 5.09015 8.755 7.65015 8.755H29.2498C31.8098 8.755 33.9001 10.815 33.9001 13.335V26.665C33.9001 29.195 31.8098 31.245 29.2498 31.245ZM7.65015 11.245C6.44015 11.245 5.49976 12.165 5.49976 13.325V26.655C5.49976 27.825 6.44015 28.735 7.65015 28.735H29.2498C30.4598 28.735 31.4001 27.815 31.4001 26.655V13.325C31.4001 12.155 30.4598 11.245 29.2498 11.245H7.65015Z" fill="black"/>
<path d="M32.6506 25.4151C32.0506 25.4151 31.5201 24.9851 31.4201 24.3751C31.3001 23.6951 31.7607 23.0451 32.4407 22.9351L36.0403 22.3251C36.2503 22.2951 36.4006 22.1151 36.4006 21.9151V18.0851C36.4006 17.8851 36.2503 17.7051 36.0403 17.6751L32.4407 17.0651C31.7607 16.9451 31.3001 16.3051 31.4201 15.6251C31.5401 14.9451 32.1906 14.4851 32.8606 14.6051L36.4602 15.2151C37.8702 15.4551 38.9006 16.6651 38.9006 18.0951V21.9251C38.9006 23.3551 37.8702 24.5651 36.4602 24.8051L32.8606 25.4151C32.7906 25.4251 32.7206 25.4351 32.6506 25.4351V25.4151Z" fill="black"/>
<path d="M10.95 24.5754C10.26 24.5754 9.69995 24.0154 9.69995 23.3254V16.6554C9.69995 15.9654 10.26 15.4054 10.95 15.4054C11.64 15.4054 12.2 15.9654 12.2 16.6554V23.3254C12.2 24.0154 11.64 24.5754 10.95 24.5754Z" fill="black"/>
<path d="M15.95 24.5754C15.26 24.5754 14.7 24.0154 14.7 23.3254V16.6554C14.7 15.9654 15.26 15.4054 15.95 15.4054C16.64 15.4054 17.2 15.9654 17.2 16.6554V23.3254C17.2 24.0154 16.64 24.5754 15.95 24.5754Z" fill="black"/>
<path d="M20.95 24.5754C20.26 24.5754 19.7 24.0154 19.7 23.3254V16.6554C19.7 15.9654 20.26 15.4054 20.95 15.4054C21.64 15.4054 22.2 15.9654 22.2 16.6554V23.3254C22.2 24.0154 21.64 24.5754 20.95 24.5754Z" fill="black"/>
</svg>
