<svg width="40" height="40" viewBox="0 0 40 40" fill="none" xmlns="http://www.w3.org/2000/svg">
<path d="M20.0034 36.249C19.8034 36.249 19.5935 36.199 19.4135 36.099C19.0035 35.879 18.7534 35.459 18.7534 34.999V22.669L10.8032 29.289C10.2732 29.729 9.48343 29.659 9.04343 29.129C8.60343 28.599 8.67358 27.809 9.20358 27.369L18.0532 19.999L9.20358 12.629C8.67358 12.189 8.60343 11.399 9.04343 10.869C9.48343 10.339 10.2732 10.269 10.8032 10.709L18.7534 17.329V4.99896C18.7534 4.53896 19.0035 4.11896 19.4135 3.89896C19.8135 3.67896 20.3138 3.70896 20.6938 3.95896L30.6938 10.629C31.0238 10.849 31.2236 11.209 31.2436 11.599C31.2636 11.989 31.1034 12.369 30.7934 12.629L21.9438 19.999L30.7934 27.369C31.0934 27.619 31.2636 27.999 31.2436 28.399C31.2236 28.789 31.0138 29.149 30.6938 29.369L20.6938 36.039C20.4838 36.179 20.2434 36.249 20.0034 36.249ZM21.2534 22.669V32.669L27.9135 28.229L21.2534 22.679V22.669ZM21.2534 7.33896V17.339L27.9135 11.789L21.2534 7.34896V7.33896Z" fill="black"/>
</svg>
