<svg width="36" height="36" viewBox="0 0 36 36" fill="none" xmlns="http://www.w3.org/2000/svg">
<path d="M14.9949 34.1248C14.8649 34.1248 14.7347 34.1048 14.6047 34.0548C14.1647 33.8948 13.8748 33.4748 13.8748 33.0048V20.6248H6.75464C6.31464 20.6248 5.91511 20.3648 5.73511 19.9648C5.55511 19.5648 5.61503 19.0948 5.90503 18.7648L20.155 2.26478C20.465 1.90478 20.9648 1.78478 21.3948 1.94478C21.8348 2.10478 22.1248 2.52478 22.1248 2.99478V15.3748H29.2449C29.6849 15.3748 30.0849 15.6348 30.2649 16.0348C30.4449 16.4348 30.385 16.9048 30.095 17.2348L15.845 33.7348C15.625 33.9848 15.3149 34.1248 14.9949 34.1248ZM16.115 29.9848L26.7849 17.6348H20.9949C20.3749 17.6348 19.8748 17.1348 19.8748 16.5148V6.03478L9.20483 18.3848H14.9949C15.6149 18.3848 16.115 18.8848 16.115 19.5048V29.9848Z" fill="black"/>
</svg>
