<svg width="36" height="36" viewBox="0 0 36 36" fill="none" xmlns="http://www.w3.org/2000/svg">
<path d="M15.005 34.1248C14.875 34.1248 14.7448 34.1048 14.6148 34.0548C14.1748 33.8948 13.8751 33.4748 13.8751 32.9948V20.6148H6.75499C6.31499 20.6148 5.9152 20.3548 5.7252 19.9548C5.5452 19.5548 5.61514 19.0748 5.91514 18.7448L11.9151 11.9948C12.3251 11.5348 13.045 11.4948 13.505 11.9048C13.965 12.3148 14.0148 13.0248 13.5948 13.4948L9.25499 18.3748H15.005C15.625 18.3748 16.1251 18.8748 16.1251 19.4948V29.9248L22.3951 22.5148C22.7951 22.0448 23.5052 21.9748 23.9752 22.3848C24.4452 22.7848 24.5051 23.4948 24.1051 23.9648L15.8551 33.7148C15.6351 33.9748 15.3252 34.1148 14.9952 34.1148L15.005 34.1248ZM26.255 21.3848C26.005 21.3848 25.7648 21.3048 25.5548 21.1348C25.0748 20.7448 24.9951 20.0348 25.3751 19.5548L26.9151 17.6348H21.005C20.385 17.6348 19.8849 17.1348 19.8849 16.5148V6.03479L16.0348 10.4948C15.6248 10.9648 14.9149 11.0148 14.4449 10.6148C13.9749 10.2048 13.9248 9.49479 14.3248 9.02479L20.1549 2.27479C20.4649 1.91479 20.9651 1.79479 21.3951 1.95479C21.8351 2.11479 22.1251 2.53479 22.1251 3.00479V15.3848H29.2452C29.6752 15.3848 30.075 15.6348 30.255 16.0248C30.435 16.4148 30.3851 16.8748 30.1251 17.2148L27.1251 20.9648C26.9051 21.2448 26.5752 21.3848 26.2452 21.3848H26.255Z" fill="black"/>
<path d="M33.0049 34.125C32.7149 34.125 32.4251 34.015 32.2051 33.795L2.20508 3.795C1.76508 3.355 1.76508 2.645 2.20508 2.205C2.64508 1.765 3.35492 1.765 3.79492 2.205L33.7949 32.205C34.2349 32.645 34.2349 33.355 33.7949 33.795C33.5749 34.015 33.2851 34.125 32.9951 34.125H33.0049Z" fill="black"/>
</svg>
