<svg xmlns="http://www.w3.org/2000/svg" width="800" height="637" fill="none"><path fill="#005685" d="M207.476 360.352a.93.93 0 0 1-.897-.736c-4.141-19.154-6.004-48.092-6.832-68.972a899.267 899.267 0 0 1-.598-21.203c-.069-3.499 1.242-6.791 3.703-9.3a12.866 12.866 0 0 1 9.247-3.891h69.925c.506 0 .92.414.92.921a.924.924 0 0 1-.92.921h-69.925c-3.013 0-5.82 1.174-7.936 3.338a11.09 11.09 0 0 0-3.174 7.988c.115 7.114.299 14.227.598 21.157.828 20.811 2.691 49.634 6.786 68.672a.923.923 0 0 1-.713 1.105h-.184ZM588.085 380.772H218.493c-4.301 0-7.751-5.11-10.557-15.631-.138-.484.161-.99.644-1.128.483-.138.989.161 1.127.644 2.484 9.324 5.52 14.251 8.786 14.251h369.592c8.603 0 15.618-6.999 15.618-15.586v-83.521c0-5.779-3.174-11.05-8.257-13.744l-11.524-6.147c-2.162-1.197-4.693-1.818-7.315-1.818H525.98a.924.924 0 0 1-.92-.921c0-.507.414-.921.92-.921h50.627c2.922 0 5.751.714 8.189 2.049l11.501 6.147a17.377 17.377 0 0 1 9.223 15.378v83.521c.023 9.6-7.82 17.427-17.435 17.427ZM481.564 258.115H325.405a.923.923 0 0 1-.92-.921c0-.506.414-.921.92-.921h156.159c.506 0 .92.415.92.921a.923.923 0 0 1-.92.921Z"/><path fill="#005685" d="M504.29 289.77c-13.318 0-24.175-10.843-24.175-24.196 0-13.329 10.834-24.195 24.175-24.195 13.318 0 24.175 10.843 24.175 24.195 0 13.33-10.834 24.196-24.175 24.196Zm0-46.549c-12.306 0-22.335 10.037-22.335 22.353 0 12.317 10.029 22.354 22.335 22.354 12.306 0 22.334-10.037 22.334-22.354 0-12.339-10.028-22.353-22.334-22.353ZM303.692 289.77c-13.318 0-24.175-10.843-24.175-24.196 0-13.329 10.834-24.195 24.175-24.195 13.318 0 24.175 10.843 24.175 24.195 0 13.33-10.834 24.196-24.175 24.196Zm0-46.549c-12.306 0-22.335 10.037-22.335 22.353 0 12.317 10.029 22.354 22.335 22.354 12.306 0 22.334-10.037 22.334-22.354 0-12.339-10.005-22.353-22.334-22.353ZM592.939 367.765H440.644a1.433 1.433 0 0 1-1.426-1.427v-52.581c0-.782.644-1.427 1.426-1.427h152.295c.782 0 1.426.645 1.426 1.427v52.581c-.023.783-.644 1.427-1.426 1.427Zm-151.881-1.841h151.443v-51.752H441.058v51.752ZM370.788 367.765H279.08a1.433 1.433 0 0 1-1.426-1.427v-52.581c0-.782.644-1.427 1.426-1.427h91.708c.782 0 1.426.645 1.426 1.427v52.581c-.023.783-.644 1.427-1.426 1.427Zm-91.294-1.841h90.857v-51.752h-90.857v51.752ZM270.293 365.81h-37.631a1.287 1.287 0 0 1-1.288-1.289v-98.946c0-.506.414-.921.92-.921h38.367c.506 0 .92.415.92.921v98.946c0 .713-.575 1.289-1.288 1.289Zm-37.078-1.842h36.526v-97.472h-36.526v97.472ZM225.417 380.774c-.506 0-.897-.391-.92-.898-.023-.644-1.61-65.679-3.956-78.456-.921-4.973-4.555-8.15-10.811-9.439-4.831-.99-9.477-.437-9.523-.414a.93.93 0 0 1-1.035-.806.93.93 0 0 1 .805-1.036c.207-.023 4.945-.599 10.075.437 6.992 1.428 11.248 5.203 12.283 10.912 2.369 12.915 3.933 76.063 4.002 78.756 0 .507-.391.944-.92.944ZM431.075 367.764h-51.224a1.385 1.385 0 0 1-1.381-1.381V265.55c0-.507.414-.921.921-.921h52.144c.506 0 .92.414.92.921v100.833c0 .76-.621 1.381-1.38 1.381Zm-50.764-1.841h50.304v-99.429h-50.304v99.429Z"/><path fill="#005685" d="M504.29 281.481c-8.764 0-15.894-7.136-15.894-15.907s7.13-15.908 15.894-15.908c8.763 0 15.894 7.137 15.894 15.908s-7.131 15.907-15.894 15.907Zm0-29.973c-7.752 0-14.054 6.308-14.054 14.066 0 7.758 6.302 14.066 14.054 14.066 7.751 0 14.054-6.308 14.054-14.066 0-7.758-6.303-14.066-14.054-14.066ZM303.692 281.481c-8.764 0-15.894-7.136-15.894-15.907s7.13-15.908 15.894-15.908c8.763 0 15.894 7.137 15.894 15.908s-7.108 15.907-15.894 15.907Zm0-29.973c-7.752 0-14.054 6.308-14.054 14.066 0 7.758 6.302 14.066 14.054 14.066 7.751 0 14.054-6.308 14.054-14.066 0-7.758-6.303-14.066-14.054-14.066ZM223.784 365.808h-29.557a5.359 5.359 0 0 1-5.337-4.766l-.736-6.515c-.23-2.003 1.127-4.351 2.99-5.249 1.288-.621 2.577-.437 3.52.507a.965.965 0 0 1 .207.322l1.357 3.545v.023l1.679 4.858h26.291c.253 0 .506.115.667.299.184.184.253.438.253.691l-.414 5.456c-.023.46-.437.829-.92.829Zm-31.168-15.056c-.184 0-.414.046-.667.184-1.058.506-2.116 2.026-1.955 3.384l.736 6.515a3.513 3.513 0 0 0 3.497 3.131h28.706l.276-3.614h-25.923a.943.943 0 0 1-.874-.622l-1.886-5.456-1.289-3.315c-.138-.115-.322-.207-.621-.207ZM280.46 266.496h-9.799a.923.923 0 0 1-.92-.921c0-.506.414-.921.92-.921h9.799c.506 0 .92.415.92.921a.923.923 0 0 1-.92.921ZM481.035 266.496h-49.5a.923.923 0 0 1-.92-.921c0-.506.414-.921.92-.921h49.5c.506 0 .92.415.92.921a.923.923 0 0 1-.92.921ZM724.853 380.771H88.465a.923.923 0 0 1-.92-.92c0-.507.414-.921.92-.921h636.388c.506 0 .92.414.92.921 0 .506-.414.92-.92.92Z"/></svg>