<?xml version="1.0" encoding="utf-8"?>
<!-- Generator: Adobe Illustrator 26.4.1, SVG Export Plug-In . SVG Version: 6.00 Build 0)  -->
<svg version="1.1" id="Layer_1" xmlns="http://www.w3.org/2000/svg" xmlns:xlink="http://www.w3.org/1999/xlink" x="0px" y="0px"
	 viewBox="0 0 3478 2767" style="enable-background:new 0 0 3478 2767;" xml:space="preserve">
<style type="text/css">
	.st0{fill:#005685;}
	.st1{fill:none;stroke:#005685;stroke-width:8;stroke-linecap:round;stroke-linejoin:round;stroke-miterlimit:10;}
</style>
<g>
	<path class="st0" d="M902,1565.3c-1.8,0-3.5-1.3-3.9-3.2c-18-83.2-26.1-208.9-29.7-299.6c-1.2-30.1-2.1-61.1-2.6-92.1
		c-0.3-15.2,5.4-29.5,16.1-40.4c10.7-10.9,25-16.9,40.2-16.9h304c2.2,0,4,1.8,4,4s-1.8,4-4,4h-304c-13.1,0-25.3,5.1-34.5,14.5
		c-9.1,9.3-14,21.6-13.8,34.7c0.5,30.9,1.3,61.8,2.6,91.9c3.6,90.4,11.7,215.6,29.5,298.3c0.5,2.2-0.9,4.3-3.1,4.8
		C902.6,1565.3,902.3,1565.3,902,1565.3z"/>
</g>
<g>
	<path class="st0" d="M2556.7,1654H949.9c-18.7,0-33.7-22.2-45.9-67.9c-0.6-2.1,0.7-4.3,2.8-4.9c2.1-0.6,4.3,0.7,4.9,2.8
		c10.8,40.5,24,61.9,38.2,61.9h1606.8c37.4,0,67.9-30.4,67.9-67.7v-362.8c0-25.1-13.8-48-35.9-59.7l-50.1-26.7
		c-9.4-5.2-20.4-7.9-31.8-7.9h-220.1c-2.2,0-4-1.8-4-4s1.8-4,4-4h220.1c12.7,0,25,3.1,35.6,8.9l50,26.7
		c24.8,13.2,40.1,38.8,40.1,66.8v362.8C2632.6,1620,2598.5,1654,2556.7,1654z"/>
</g>
<g>
	<path class="st0" d="M2093.6,1121.2h-678.9c-2.2,0-4-1.8-4-4s1.8-4,4-4h678.9c2.2,0,4,1.8,4,4S2095.8,1121.2,2093.6,1121.2z"/>
</g>
<g>
	<path class="st0" d="M2192.4,1258.7c-57.9,0-105.1-47.1-105.1-105.1c0-57.9,47.1-105.1,105.1-105.1c57.9,0,105.1,47.1,105.1,105.1
		C2297.5,1211.5,2250.4,1258.7,2192.4,1258.7z M2192.4,1056.5c-53.5,0-97.1,43.6-97.1,97.1c0,53.5,43.6,97.1,97.1,97.1
		c53.5,0,97.1-43.6,97.1-97.1C2289.5,1100,2245.9,1056.5,2192.4,1056.5z"/>
</g>
<g>
	<path class="st0" d="M1320.3,1258.7c-57.9,0-105.1-47.1-105.1-105.1c0-57.9,47.1-105.1,105.1-105.1c57.9,0,105.1,47.1,105.1,105.1
		C1425.4,1211.5,1378.3,1258.7,1320.3,1258.7z M1320.3,1056.5c-53.5,0-97.1,43.6-97.1,97.1c0,53.5,43.6,97.1,97.1,97.1
		c53.5,0,97.1-43.6,97.1-97.1C1417.4,1100,1373.9,1056.5,1320.3,1056.5z"/>
</g>
<g>
	<path class="st0" d="M2577.8,1597.5h-662.1c-3.4,0-6.2-2.8-6.2-6.2v-228.4c0-3.4,2.8-6.2,6.2-6.2h662.1c3.4,0,6.2,2.8,6.2,6.2
		v228.4C2583.9,1594.7,2581.2,1597.5,2577.8,1597.5z M1917.5,1589.5h658.4v-224.8h-658.4V1589.5z M2577.8,1364.7L2577.8,1364.7
		L2577.8,1364.7z"/>
</g>
<g>
	<path class="st0" d="M1612,1597.5h-398.7c-3.4,0-6.2-2.8-6.2-6.2v-228.4c0-3.4,2.8-6.2,6.2-6.2H1612c3.4,0,6.2,2.8,6.2,6.2v228.4
		C1618.1,1594.7,1615.4,1597.5,1612,1597.5z M1215.1,1589.5h395v-224.8h-395V1589.5z M1612,1364.7L1612,1364.7L1612,1364.7z"/>
</g>
<g>
	<path class="st0" d="M1175.1,1589h-163.6c-3.1,0-5.6-2.5-5.6-5.6v-429.8c0-2.2,1.8-4,4-4h166.8c2.2,0,4,1.8,4,4v429.8
		C1180.7,1586.5,1178.2,1589,1175.1,1589z M1013.9,1581h158.8v-423.4h-158.8V1581z"/>
</g>
<g>
	<path class="st0" d="M980,1654c-2.2,0-3.9-1.7-4-3.9c-0.1-2.8-7-285.3-17.2-340.8c-4-21.6-19.8-35.4-47-41
		c-21-4.3-41.2-1.9-41.4-1.8c-2.2,0.3-4.2-1.3-4.5-3.5s1.3-4.2,3.5-4.5c0.9-0.1,21.5-2.6,43.8,1.9c30.4,6.2,48.9,22.6,53.4,47.4
		c10.3,56.1,17.1,330.4,17.4,342.1C984,1652.1,982.3,1654,980,1654C980,1654,980,1654,980,1654z"/>
</g>
<g>
	<path class="st0" d="M1874.1,1597.5h-222.7c-3.3,0-6-2.7-6-6v-438c0-2.2,1.8-4,4-4h226.7c2.2,0,4,1.8,4,4v438
		C1880.1,1594.8,1877.4,1597.5,1874.1,1597.5z M1653.4,1589.5h218.7v-431.9h-218.7V1589.5z"/>
</g>
<g>
	<path class="st0" d="M2192.4,1222.7c-38.1,0-69.1-31-69.1-69.1s31-69.1,69.1-69.1c38.1,0,69.1,31,69.1,69.1
		S2230.5,1222.7,2192.4,1222.7z M2192.4,1092.5c-33.7,0-61.1,27.4-61.1,61.1s27.4,61.1,61.1,61.1c33.7,0,61.1-27.4,61.1-61.1
		S2226.1,1092.5,2192.4,1092.5z"/>
</g>
<g>
	<path class="st0" d="M1320.3,1222.7c-38.1,0-69.1-31-69.1-69.1s31-69.1,69.1-69.1s69.1,31,69.1,69.1S1358.5,1222.7,1320.3,1222.7z
		 M1320.3,1092.5c-33.7,0-61.1,27.4-61.1,61.1s27.4,61.1,61.1,61.1s61.1-27.4,61.1-61.1S1354,1092.5,1320.3,1092.5z"/>
</g>
<g>
	<path class="st0" d="M972.9,1589H844.4c-11.9,0-21.9-8.9-23.2-20.7l-3.2-28.3c-1-8.7,4.9-18.9,13-22.8c5.6-2.7,11.2-1.9,15.3,2.2
		c0.4,0.4,0.7,0.9,0.9,1.4l5.9,15.4c0,0,0,0.1,0,0.1l7.3,21.1h114.3c1.1,0,2.2,0.5,2.9,1.3c0.8,0.8,1.1,1.9,1.1,3l-1.8,23.7
		C976.8,1587.4,975,1589,972.9,1589z M837.4,1523.6c-0.8,0-1.8,0.2-2.9,0.8c-4.6,2.2-9.2,8.8-8.5,14.7l3.2,28.3
		c0.9,7.8,7.4,13.6,15.2,13.6h124.8l1.2-15.7H857.7c-1.7,0-3.2-1.1-3.8-2.7l-8.2-23.7l-5.6-14.4
		C839.5,1524,838.7,1523.6,837.4,1523.6z"/>
</g>
<g>
	<path class="st0" d="M1219.3,1157.6h-42.6c-2.2,0-4-1.8-4-4s1.8-4,4-4h42.6c2.2,0,4,1.8,4,4S1221.5,1157.6,1219.3,1157.6z"/>
</g>
<g>
	<path class="st0" d="M2091.3,1157.6h-215.2c-2.2,0-4-1.8-4-4s1.8-4,4-4h215.2c2.2,0,4,1.8,4,4S2093.5,1157.6,2091.3,1157.6z"/>
</g>
<g>
	<path class="st1" d="M1953.1,1360.7"/>
</g>
<g>
	<path class="st0" d="M3151.3,1654H384.6c-2.2,0-4-1.8-4-4s1.8-4,4-4h2766.7c2.2,0,4,1.8,4,4S3153.5,1654,3151.3,1654z"/>
</g>
</svg>
