<svg xmlns="http://www.w3.org/2000/svg" width="321" height="160" fill="none"><path fill="#fff" fill-opacity=".2" d="M33.032 133.25C19.824 141.635 8.207 151.714.205 160l-.017-43.108c5.11-4.048 10.24-7.714 15.372-10.978l.749-.495c7.564-5.15 15.675-9.445 24.79-13.127 27.288-11.026 58.767-14.377 92.092-17.921l.103-.011c6.831-.727 13.886-1.477 21.03-2.313 31.742-3.707 77.628-11.378 116-26.879l1.733-.9C295.035 33.457 313.218 19.756 320.187 0l.001 54.156c-12.826 9.316-23.647 15.417-37.741 21.112-41.713 16.852-90.653 25.081-124.368 29.019-7.171.839-14.177 1.584-20.961 2.306l-.152.016-.071.007-.276.03c-31.016 3.299-60.307 6.416-83.397 15.748-6.983 2.82-13.127 6.067-18.783 9.927l-.209.142-1.198.787Z"/></svg>