<svg width="85" height="85" viewBox="0 0 85 85" fill="none" xmlns="http://www.w3.org/2000/svg">
<path d="M33.4489 26.5262C33.6562 26.0267 33.6986 25.6922 33.6986 24.9807C33.7598 23.6614 33.8211 23.3128 33.8965 23.2185C33.9248 23.1855 33.953 23.1855 33.9907 23.1855H33.9954C34.1179 23.1855 34.2027 23.2091 34.1179 24.9807C34.1179 25.7346 34.0755 26.1115 33.8258 26.6958C33.6986 27.0303 33.741 27.1151 33.741 27.1151C33.741 27.1151 33.7834 27.1576 33.9483 27.2C34.0284 27.2 34.1132 27.2801 34.1132 27.4073C34.1509 28.6842 34.4383 29.3108 35.8472 29.3721C35.866 29.3721 35.8848 29.3721 35.9037 29.3721C35.9838 29.3721 36.0262 29.4145 36.0686 29.4569C36.111 29.4946 36.111 29.5794 36.111 29.6218C36.111 29.7349 36.0403 29.8197 35.9272 29.8291C35.9178 29.8291 35.9131 29.8291 35.9037 29.8291C34.1933 29.7867 33.774 28.9951 33.6939 27.5722C33.5667 27.5298 33.4442 27.4497 33.3593 27.3225C33.284 27.1104 33.284 26.9031 33.4489 26.5262Z" fill="#005685"/>
<path d="M35.7058 29.4536C35.7388 29.4159 35.8048 29.3829 35.8472 29.3735C35.8566 29.3735 35.8613 29.3688 35.8707 29.3688C35.9131 29.3688 36.0828 29.3264 36.2901 29.5337C36.4032 29.6468 36.488 29.807 36.5539 30.0143C36.5963 30.1604 36.6293 30.3253 36.6482 30.5138C36.5115 30.7069 36.3608 30.8954 36.2053 31.0839C36.177 30.9143 36.1487 30.7588 36.1252 30.6221C36.0451 30.1698 35.9838 29.9201 35.9555 29.8635C35.9555 29.84 35.9414 29.8306 35.932 29.8258C35.9226 29.8211 35.9131 29.8211 35.9131 29.8211C35.7906 29.8211 35.6634 29.741 35.6634 29.6138C35.6634 29.5384 35.6634 29.496 35.7058 29.4536ZM36.4126 30.4572C36.3937 30.4007 36.3843 30.3441 36.3749 30.2923C36.3655 30.2263 36.3513 30.1698 36.3278 30.1227C36.3278 30.1745 36.3419 30.2405 36.3655 30.3064C36.3796 30.3583 36.3937 30.4054 36.4126 30.4572Z" fill="#005685"/>
<path d="M38.0427 27.5798C38.0427 27.5374 38.0852 27.495 38.1276 27.4526C38.1652 27.4102 38.2501 27.4102 38.2925 27.4102C38.3349 27.4102 38.3773 27.4526 38.4197 27.495C38.4621 27.5327 38.4621 27.6175 38.4621 27.6599C38.4621 27.74 38.1276 29.5823 38.839 31.712C38.8767 31.8392 38.839 31.9617 38.7118 32.0041H38.627C38.5422 32.0041 38.4574 31.9664 38.4197 31.8863C37.6658 29.587 38.0427 27.5798 38.0427 27.5798Z" fill="#005685"/>
<path d="M32.7846 36.8111C32.794 36.7781 32.8081 36.7451 32.8175 36.7074C32.8835 36.5142 32.9683 36.3069 33.0625 36.0902C33.1803 35.8216 33.3123 35.5342 33.4583 35.2515C33.6421 34.884 33.84 34.5117 34.0332 34.1584C34.0709 34.0924 34.1038 34.0311 34.1368 33.9699C34.2358 33.7908 34.3347 33.6165 34.4337 33.4516C34.3536 33.7155 34.3441 33.9887 34.429 34.2762C34.3536 34.4128 34.2782 34.5541 34.2028 34.6955C33.8541 35.3457 33.5196 36.0289 33.3028 36.6038C33.2746 36.6744 33.251 36.7451 33.2275 36.8158C33.218 36.8441 33.2086 36.8723 33.1992 36.9053C32.8599 37.9278 32.9306 38.6722 33.1002 39.3366C33.1191 39.4073 33.1379 39.4732 33.1568 39.5392C33.1568 39.5769 33.1568 39.6617 33.1144 39.7041C33.072 39.7465 33.0296 39.7889 32.9872 39.7889H32.9448C32.8835 39.7889 32.8175 39.7653 32.7798 39.7371C32.7657 39.7277 32.7516 39.7135 32.7421 39.7041C32.6762 39.4449 32.6149 39.1811 32.5819 38.8984C32.5631 38.7335 32.549 38.5591 32.5443 38.3801C32.5395 37.9089 32.6008 37.4 32.7846 36.8111ZM35.3902 32.0051C35.2724 32.137 35.1546 32.2737 35.0462 32.4056C35.1451 32.2407 35.2064 32.1417 35.2064 32.1323C35.2347 32.0428 35.3053 31.9957 35.3902 32.0051Z" fill="#005685"/>
<path d="M21.7401 37.2218C21.7448 37.1841 21.7872 37.1417 21.8249 37.104C21.9521 37.0616 22.0746 37.0616 22.117 37.1464C22.3667 37.3962 27.5497 39.8604 29.2223 39.9452C29.7595 39.9452 31.5264 39.1489 32.5441 38.3668C32.5677 38.3479 32.5912 38.3338 32.6101 38.3149C32.6949 38.2301 32.8174 38.2725 32.9022 38.3574C32.9446 38.395 32.9446 38.4799 32.9446 38.5223C32.9446 38.6024 32.9022 38.6448 32.8598 38.6872C32.7703 38.7531 32.6761 38.8191 32.5818 38.8851C31.4698 39.6295 29.7972 40.4023 29.1799 40.4023V40.3646C27.7429 40.2939 23.4976 38.4327 22.1736 37.6694C21.9568 37.5422 21.8155 37.448 21.7825 37.3962C21.7401 37.3585 21.7401 37.2736 21.7401 37.2312C21.7401 37.2265 21.7401 37.2265 21.7401 37.2218Z" fill="#005685"/>
<path d="M29.2224 38.3157C29.2648 38.3157 29.2648 38.3157 29.2648 38.3157C29.3072 38.3157 29.3496 38.3157 29.3496 38.2733C30.7725 37.3545 33.4441 35.597 34.2828 34.3012C34.3676 34.2164 34.3252 34.0515 34.2404 34.0091C34.1556 33.9243 33.9907 33.9667 33.9482 34.0515C33.152 35.2624 30.5605 36.9351 29.1847 37.8539C28.8925 37.8539 27.2623 37.689 22.2443 35.8043C22.2019 35.8043 22.117 35.8043 22.0793 35.8043C22.0369 35.8467 21.9945 35.8891 21.9521 35.9315C21.9097 36.0587 21.9521 36.1812 22.0793 36.2236C27.4272 38.2308 28.9726 38.3157 29.2224 38.3157Z" fill="#005685"/>
<path d="M33.2745 20.7191C34.443 20.0924 35.6163 19.8427 36.8272 20.05C36.8696 20.05 36.8696 20.05 36.912 20.05C36.9544 20.05 39.9652 20.5919 40.5495 23.3105C40.6343 23.7299 40.7144 24.1916 40.7992 24.6911C41.2186 26.9056 41.6756 29.3699 43.0137 31.754C44.1021 33.634 44.2294 35.5988 43.4331 36.6024C43.1786 36.9369 42.6368 37.3563 41.718 37.3563C41.506 37.3563 41.2657 37.3421 41.0018 37.3092C40.8605 37.2903 40.7097 37.2668 40.5542 37.2338C40.4882 37.2196 40.4176 37.2055 40.3469 37.1867L40.182 37.1442L40.2244 36.9369C40.2244 36.8945 40.4741 35.5988 39.7626 34.1381C39.7626 34.0957 39.1784 33.177 38.3821 33.1345C38.0098 33.0921 37.5905 33.2995 37.2136 33.7612C37.0439 33.9685 36.9167 34.1381 36.7518 34.3455C36.1676 35.0993 35.6634 35.726 35.0791 35.6412C34.7587 35.5988 34.4807 35.2972 34.2028 34.6894C34.1886 34.6612 34.1745 34.6282 34.1603 34.5952C34.1509 34.5716 34.1415 34.5434 34.1321 34.5151C34.085 34.3926 34.0567 34.2701 34.0378 34.1523C34.0284 34.0957 34.0237 34.0392 34.019 33.9874C33.9436 33.0262 34.6551 32.2534 35.4184 31.4148C35.6587 31.1603 35.9037 30.8965 36.1299 30.6232C36.2147 30.5195 36.2948 30.4159 36.3702 30.3075C36.3749 30.3028 36.3749 30.2981 36.3796 30.2934C36.4455 30.2038 36.5021 30.1096 36.5586 30.0154C36.7094 29.7562 36.8225 29.4876 36.879 29.2049C37.3408 26.948 37.2136 25.7371 36.5445 24.9832C36.2524 24.6487 35.9178 24.4791 35.6257 24.3141C35.4184 24.1869 35.1969 24.0738 34.9613 23.8901C34.7258 23.7063 34.476 23.4566 34.2028 23.0608C34.1556 23.1079 34.085 23.1551 34.0001 23.188C33.9672 23.2022 33.9389 23.2116 33.9012 23.221C33.708 23.2776 33.4771 23.2728 33.3264 23.1456C33.1992 23.0655 33.1143 22.8959 33.1991 22.6038C33.0719 22.5614 32.9494 22.5614 32.8222 22.4766C32.5678 22.3069 32.4029 22.0572 32.4029 21.8075C32.3557 21.5531 32.5207 21.1384 33.2745 20.7191ZM32.9353 22.1797C33.0578 22.2221 33.1426 22.2221 33.185 22.2221C33.3499 22.1373 33.5572 22.0148 33.6845 22.1797C33.7269 22.2645 33.7693 22.387 33.6421 22.5143C33.4771 22.764 33.4771 22.8912 33.4771 22.8912C33.5195 22.9336 33.7269 22.8912 33.8117 22.8064C33.8541 22.7263 34.0661 22.5567 34.2734 22.6415C34.3959 22.6839 34.4383 22.764 34.4807 22.8912C34.9378 23.5603 35.3571 23.7723 35.7341 23.9796C36.0686 24.1492 36.4031 24.3141 36.7801 24.7335C37.5764 25.6099 37.6989 26.9056 37.1994 29.2898C37.1193 29.7327 36.9167 30.1332 36.6482 30.5148C36.5115 30.708 36.3607 30.8965 36.2052 31.0849C36.0262 31.297 35.8377 31.5043 35.654 31.7116C35.5644 31.8105 35.4796 31.9048 35.3901 32.0037C35.2723 32.1357 35.1545 32.2723 35.0462 32.4042C34.7682 32.7435 34.5373 33.0874 34.4336 33.4455C34.3535 33.7094 34.3441 33.9827 34.4289 34.2701C34.443 34.3219 34.4619 34.3737 34.4855 34.4303C34.6928 34.9344 34.9048 35.1842 35.1121 35.2266C35.4467 35.269 35.9461 34.6423 36.4078 34.058C36.5351 33.8507 36.7047 33.6811 36.8696 33.4738C37.3266 32.8848 37.8732 32.6351 38.4151 32.6775C39.0511 32.7293 39.5459 33.1628 39.8474 33.5068C40.0453 33.7282 40.1584 33.912 40.1725 33.9308C40.7992 35.2266 40.7568 36.3527 40.7144 36.8144C40.8086 36.838 40.8982 36.8615 40.9877 36.8804C41.9394 37.0783 42.6745 36.8898 43.0985 36.3527C43.7676 35.4339 43.598 33.6811 42.6368 31.966C41.2987 29.5395 40.7992 26.9904 40.3799 24.7759C40.295 24.3141 40.2149 23.8571 40.1301 23.4378C39.626 21.0536 37.0345 20.5542 36.8696 20.5118C36.8319 20.5118 36.8319 20.5118 36.6576 20.5495C36.2382 20.4646 34.9849 20.2573 33.397 21.1761C32.9777 21.4258 32.728 21.6803 32.728 21.8876C32.728 22.0148 32.8081 22.0949 32.9353 22.1797Z" fill="#005685"/>
<path d="M19.8176 37.5189C19.86 37.5189 19.9025 37.5189 19.9025 37.4765L21.9945 36.3881C22.0793 36.3457 22.1217 36.2609 22.1217 36.1808V35.5541C22.1217 35.4269 22.0369 35.3468 21.9144 35.3468C21.7872 35.3468 21.7071 35.4316 21.7071 35.5541V36.0159L19.9496 36.9346L18.0272 33.2548V32.8401C18.0272 32.7129 17.9424 32.6328 17.8199 32.6328C17.6926 32.6328 17.6125 32.7176 17.6125 32.8401V33.4244C17.6125 33.4668 17.6125 33.5092 17.6549 33.5092L19.7046 37.3964C19.7375 37.4388 19.7752 37.4765 19.8176 37.5189Z" fill="#005685"/>
<path d="M17.688 32.5865L19.78 31.498H19.9449C19.9873 31.5405 20.0297 31.5829 20.0722 31.6253L20.7742 32.954L21.5516 34.4288L22.0134 35.3051L22.0652 35.3994L22.1171 35.4983L22.1218 35.5077V35.6727C22.1123 35.6821 22.1076 35.6868 22.0982 35.6962C22.0652 35.7292 22.0322 35.7669 21.9946 35.7999L21.7071 35.9507L19.9214 36.8789L19.9025 36.8883C19.9025 36.9213 19.8743 36.9307 19.8413 36.9307C19.8319 36.9307 19.8271 36.9307 19.8177 36.9307C19.747 36.9307 19.7046 36.8977 19.634 36.7941C19.6292 36.7846 19.6198 36.7752 19.6104 36.7611L18.7152 35.0601L18.0885 33.8728L17.6126 32.9728L17.5608 32.8739V32.709C17.6032 32.6713 17.6456 32.6289 17.688 32.5865ZM21.6176 35.5172L20.5575 33.4911L20.4915 33.3686L19.78 32.0116L18.0649 32.888L19.9025 36.3983L21.6176 35.5172Z" fill="#005685"/>
<path d="M19.9874 37.0262C19.9874 36.9838 20.0722 36.9414 20.1146 36.9414C20.1523 36.9414 20.2371 36.9414 20.2795 36.9838C20.3596 37.0262 20.4821 37.0639 20.6329 37.0969C20.7695 37.1252 20.925 37.1487 21.0899 37.1676C21.302 37.1911 21.5328 37.21 21.7401 37.2194C21.8768 37.2241 22.004 37.2288 22.1171 37.2288H22.1595C22.282 37.2288 22.3668 37.3089 22.3668 37.4361C22.3668 37.5162 22.3244 37.5586 22.282 37.6011C22.2584 37.6246 22.2207 37.6529 22.1736 37.667C22.1406 37.6764 22.1077 37.6859 22.0747 37.6859C21.7213 37.6859 20.5858 37.6482 20.1099 37.3655C20.0816 37.3466 20.0533 37.3325 20.0298 37.3136C19.9874 37.3136 19.945 37.2288 19.945 37.1864C19.945 37.1534 19.945 37.0686 19.9874 37.0262Z" fill="#005685"/>
<path d="M22.4516 36.3938H22.5364C22.5788 36.3938 22.6212 36.3514 22.6636 36.2666C22.706 36.2242 22.706 36.1394 22.6636 36.1017C22.6212 35.9368 22.4139 35.3478 22.4139 35.0981C22.4139 34.8908 22.249 34.6363 21.9521 34.2217C21.7448 33.9296 21.5328 33.595 21.4103 33.3453C21.2454 32.9684 21.0333 32.8836 20.9108 32.926C20.7459 32.926 20.5763 33.0532 20.4915 33.2605C20.4915 33.3029 20.4915 33.3877 20.4915 33.4254C20.5339 33.4678 20.5763 33.5102 20.6187 33.5526C20.7459 33.595 20.8684 33.5526 20.9108 33.4254C20.9108 33.4254 20.9108 33.4254 20.9108 33.383C20.9108 33.4254 20.9532 33.4678 20.9956 33.5102C21.1229 33.8023 21.3726 34.1793 21.5799 34.4714C21.7448 34.6787 21.9568 35.0557 21.9992 35.1405C21.9992 35.4326 22.2066 36.1017 22.249 36.2289C22.2867 36.309 22.3668 36.3938 22.4516 36.3938Z" fill="#005685"/>
<path d="M19.6529 37.2279C19.7377 37.2279 19.8602 37.1431 19.8602 37.063C19.8602 37.0206 19.8602 36.9358 19.8178 36.8981C19.7754 36.8557 19.733 36.8133 19.6906 36.8133C19.2288 36.7285 18.4372 35.8097 18.3524 35.2254C18.31 35.0605 18.2676 34.8909 18.1875 34.7637C18.2723 34.8485 18.3147 34.971 18.3948 35.0558C18.4373 35.0982 18.4797 35.1406 18.5221 35.1406C18.5645 35.1406 18.6493 35.1406 18.687 35.0982C18.7718 35.0134 18.8142 34.8909 18.7718 34.8061C17.9755 33.5951 17.7258 33.5527 17.641 33.5527C17.5562 33.5527 17.4761 33.5951 17.4336 33.6375C17.2687 33.8449 17.3912 34.0993 17.5986 34.4715C17.7258 34.7212 17.8907 35.0134 17.9331 35.3055C18.065 36.0594 18.9838 37.1054 19.6529 37.2279Z" fill="#005685"/>
<path d="M39.0464 37.7756C39.1312 37.7756 39.1736 37.7332 39.2113 37.6908C39.2537 37.6484 39.2537 37.6484 39.2537 37.606C39.2961 37.5636 39.2961 37.4788 39.2537 37.4411C39.2113 37.3987 39.1689 37.3563 39.1265 37.3139C37.2465 36.6024 35.7812 37.1867 35.7388 37.1867C35.6115 37.2291 35.5738 37.3516 35.6115 37.4788C35.6115 37.5212 35.6963 37.606 35.7388 37.606C35.7812 37.6484 35.866 37.6484 35.9037 37.606C35.9037 37.606 37.2842 37.1066 38.9569 37.7332C39.004 37.7756 39.004 37.7756 39.0464 37.7756Z" fill="#005685"/>
<path d="M35.701 49.6446C35.7434 49.6446 35.7858 49.6446 35.8282 49.6022C35.8282 49.6022 37.0391 48.8059 38.839 49.0603C38.9238 49.0603 39.0039 49.0179 39.0888 48.9331C39.0888 48.8907 39.1312 48.8907 39.1312 48.8483C39.1312 48.7635 39.1312 48.7211 39.0888 48.6834C39.0464 48.641 39.0039 48.5986 38.9238 48.5986C36.959 48.3064 35.6633 49.1828 35.5785 49.2252C35.4513 49.31 35.4513 49.4325 35.4937 49.5598C35.5361 49.6022 35.5785 49.6446 35.6209 49.6446C35.6586 49.6446 35.701 49.6446 35.701 49.6446Z" fill="#005685"/>
<path d="M33.0672 36.851H33.152C33.1944 36.851 33.2368 36.8086 33.2792 36.7238C33.3216 36.6813 33.3216 36.5965 33.2792 36.5588C33.1143 36.017 32.7374 35.6825 32.695 35.64C32.6526 35.5976 32.6101 35.5552 32.53 35.5976C32.4876 35.5976 32.4028 35.64 32.3651 35.6825C32.2803 35.7673 32.2803 35.8898 32.3651 35.9746C32.3651 35.9746 32.6997 36.3091 32.8269 36.7285C32.8599 36.8133 32.9824 36.851 33.0672 36.851Z" fill="#005685"/>
<path d="M31.1871 73.2171C31.4368 73.2171 31.6866 73.1747 31.941 73.0522C31.9834 73.0522 32.0258 73.0098 32.0258 72.9674C32.6949 71.879 33.3215 70.7953 33.821 69.7493C34.0283 69.3299 34.1979 68.953 34.3628 68.5384C35.0743 66.8233 35.5314 65.2778 35.6586 63.8973C35.7434 63.1434 35.7434 62.4366 35.6162 61.8053C35.6162 61.6781 35.5738 61.598 35.5314 61.4707L35.6162 60.9289C35.6586 60.764 35.701 60.5519 35.7434 60.3022C35.7858 60.1373 35.7858 59.9677 35.8282 59.8028L35.8706 59.5531C35.8706 59.5106 35.8706 59.4682 35.8706 59.4258C35.6209 58.4646 35.4089 57.4186 35.2015 56.2925C34.9518 55.0392 34.7021 53.6162 34.4901 51.9436C34.4901 51.8164 34.3628 51.7363 34.2403 51.7363C34.1131 51.7363 34.033 51.8635 34.033 51.986C34.2827 53.6587 34.5325 55.0769 34.7869 56.3349C34.9942 57.4657 35.2062 58.507 35.456 59.4682L35.4136 59.6756C35.3712 59.8405 35.3712 60.0101 35.3288 60.175C35.2863 60.4247 35.2439 60.6368 35.2015 60.8017L35.0743 61.3859C35.0743 61.4283 35.0743 61.4707 35.0743 61.4707C35.1167 61.598 35.1167 61.7205 35.1591 61.8477C35.2863 62.4319 35.2863 63.101 35.2015 63.8125C35.0743 65.1506 34.6597 66.6537 33.9482 68.3263C33.7833 68.7033 33.6137 69.0802 33.4064 69.4949C32.9069 70.5409 32.3179 71.5869 31.6913 72.5858C31.484 72.6706 31.3143 72.713 31.107 72.6706C30.9798 72.6706 30.8149 72.6282 30.6877 72.5434C30.895 71.5397 31.107 70.5361 31.2719 69.6174L31.3567 69.2404C31.3992 68.9907 31.4416 68.6986 31.484 68.4441C31.8185 66.5217 31.9834 64.9339 32.0682 63.723C32.1106 63.0115 32.1106 62.4696 32.0682 62.0503C32.0682 61.8854 32.0258 61.7157 32.0258 61.5885C31.8986 60.8771 31.7761 60.1656 31.6913 59.4588V59.3316C31.5641 58.328 31.484 57.282 31.4416 56.2407C31.3992 54.9874 31.4416 53.8189 31.5264 52.5608C31.5688 52.1415 31.6112 51.7645 31.6536 51.3923C31.6536 51.2651 31.5688 51.1426 31.4463 51.1426C31.3191 51.1426 31.1965 51.2274 31.1965 51.3499C31.1541 51.7268 31.1117 52.1038 31.0693 52.5184C30.9845 53.7717 30.9421 54.9827 30.9845 56.236C31.0269 57.282 31.1117 58.3657 31.2342 59.3693V59.4965C31.3191 60.208 31.4416 60.9195 31.5688 61.6262C31.6112 61.7534 31.6112 61.8759 31.6112 62.0456C31.6536 62.4649 31.6536 63.0068 31.6112 63.6758C31.5688 64.8868 31.3615 66.4322 31.0269 68.3169C30.9845 68.5666 30.9421 68.8588 30.8997 69.1132L30.8149 69.4901C30.65 70.4937 30.3955 71.5398 30.1882 72.581C30.1458 72.6659 30.2306 72.7884 30.3154 72.8308C30.5228 72.958 30.7772 73.0805 31.0693 73.0805C31.1023 73.2171 31.1447 73.2171 31.1871 73.2171Z" fill="#005685"/>
<path d="M39.7154 73.3023C40.2996 73.3023 40.7614 72.9678 41.0535 72.718C41.0959 72.6756 41.0959 72.6332 41.0959 72.5908C41.3033 71.6296 41.4729 70.626 41.5577 69.6224C41.6001 69.1607 41.6001 68.7884 41.6425 68.4115C41.6849 66.4891 41.4352 64.774 40.8462 63.271C40.6389 62.7291 40.3845 62.225 40.1347 61.7679V61.7255C40.1347 61.6407 40.1347 61.5182 40.1771 61.3486C40.2195 61.0989 40.262 60.7219 40.3044 60.2602C40.3044 60.0953 40.3468 59.8408 40.3468 59.5911V59.3838C40.3892 58.5498 40.4316 57.4614 40.5117 56.2505C40.5541 55.2045 40.6389 54.2433 40.6766 53.4093C40.719 52.6978 40.7614 52.0287 40.8038 51.4021C40.8038 51.2749 40.719 51.1523 40.5965 51.1523C40.4693 51.1523 40.3468 51.2372 40.3468 51.3597C40.3044 51.9863 40.262 52.613 40.2195 53.3245C40.1347 54.1584 40.0923 55.1196 40.0546 56.1656C40.0122 57.3342 39.9698 58.465 39.8897 59.2566V59.4639C39.8897 59.7136 39.8473 59.9256 39.8473 60.1329C39.8049 60.5947 39.7625 60.9669 39.7201 61.2214C39.7201 61.3486 39.6777 61.4711 39.6777 61.5559V61.5983C39.6777 61.7255 39.6777 61.8056 39.7625 61.9328C40.0122 62.3522 40.262 62.8516 40.4316 63.3935C40.9734 64.8164 41.2279 66.4844 41.1855 68.3691C41.1855 68.7884 41.1431 69.1654 41.1431 69.5376C41.0582 70.4564 40.9357 71.4176 40.7237 72.3364C40.5164 72.5437 40.1819 72.7557 39.7625 72.7557C39.5128 71.5448 39.3008 70.4988 39.0934 69.4952L38.8437 68.3267C38.4668 66.5692 38.0898 65.2358 37.7977 64.3123C37.6328 63.7704 37.4632 63.3511 37.2983 63.1013C37.0485 62.7244 36.8365 62.225 36.6292 61.6407C36.4643 61.179 36.2947 60.6795 36.1297 59.968C36.0873 59.8031 36.0449 59.5911 36.0025 59.4262C36.0025 59.3838 36.0025 59.299 35.9601 59.2613C35.7528 58.3425 35.4984 57.3389 35.2911 56.2505C35.0413 54.9971 34.7916 53.5742 34.5796 51.9015C34.5796 51.7743 34.4524 51.6942 34.3299 51.6942C34.2026 51.6942 34.1225 51.8214 34.1225 51.9439C34.3723 53.6166 34.622 55.0348 34.8764 56.2929C35.0837 57.4237 35.2958 58.465 35.5455 59.4262C35.5455 59.4262 35.5455 59.4262 35.5455 59.4686V59.511C35.5879 59.7183 35.6303 59.9303 35.7104 60.1377C35.9177 60.8491 36.0873 61.391 36.2523 61.8527C36.4596 62.4794 36.714 63.0212 36.9637 63.4406C37.0909 63.6479 37.2559 64.0249 37.4255 64.5714C37.7176 65.4902 38.0521 66.8283 38.4715 68.5434L38.7212 69.7119C38.9285 70.7579 39.183 71.884 39.4327 73.1374C39.4327 73.2222 39.5175 73.3023 39.64 73.3447C39.5458 73.3023 39.6306 73.3023 39.7154 73.3023Z" fill="#005685"/>
<path d="M36.9591 75.2245C36.9167 75.1821 36.8743 75.102 36.9167 75.0171C37.124 74.4706 37.793 74.3057 38.2548 74.2209C38.382 74.1785 38.5893 74.1361 38.6317 74.0936C38.8014 74.0088 39.0935 73.5518 39.3432 73.1749C39.3621 73.1419 39.3903 73.1136 39.4233 73.0948C39.4751 73.0618 39.5411 73.0476 39.5929 73.0476C40.0076 73.0853 40.3845 72.9628 40.7614 72.5859C40.8039 72.5011 40.9264 72.5011 41.0112 72.5435C41.0489 72.5623 41.0724 72.5906 41.096 72.6283C41.1243 72.6801 41.1384 72.7414 41.1384 72.7932C41.0536 73.1277 41.1808 73.2974 41.3457 73.5471C41.4305 73.6743 41.5106 73.8015 41.5954 73.9664C41.7603 74.3434 41.8027 74.8051 41.7603 75.0973C41.7179 75.2198 41.6378 75.3046 41.5106 75.3046H37.0816C36.9968 75.3046 36.9119 75.2622 36.9591 75.2245ZM41.3033 74.8051C41.2609 74.6355 41.2609 74.3434 41.1761 74.1408C41.096 73.9711 41.0536 73.891 40.9688 73.7638C40.8415 73.5989 40.719 73.3869 40.6766 73.1796C40.3421 73.3869 40.0076 73.5141 39.6306 73.4717C39.461 73.7638 39.1265 74.268 38.8767 74.4329C38.7542 74.513 38.5846 74.5554 38.3349 74.5978C38.1276 74.6779 37.8731 74.7203 37.6658 74.8051H41.3033V74.8051Z" fill="#005685"/>
<path d="M27.2576 75.0207C27.4649 74.4741 28.134 74.3092 28.5957 74.2244C28.7229 74.2244 28.9303 74.182 28.9727 74.1396C29.1423 73.9747 29.8113 73.2632 30.0611 72.9711L30.1883 72.8438C30.2118 72.8203 30.2354 72.8061 30.2637 72.792C30.3391 72.759 30.4192 72.7684 30.4804 72.8014C30.6029 72.8815 30.8574 73.0087 31.0223 73.0087C31.2296 73.0087 31.4416 72.9663 31.6489 72.8815C31.7337 72.8391 31.8138 72.8391 31.8987 72.9239C31.9458 72.9475 31.9646 72.9946 31.9693 73.0464C31.974 73.0888 31.9599 73.136 31.9411 73.1737C31.7714 73.5082 31.7337 73.6354 31.8987 73.9699C32.1908 74.3846 32.1484 74.9311 32.106 75.1385C32.0636 75.261 31.9835 75.3458 31.8562 75.3458H27.4272C27.3424 75.3458 27.2576 75.3034 27.3 75.228C27.2576 75.1856 27.2152 75.1055 27.2576 75.0207ZM31.6489 74.8887C31.6489 74.6767 31.6065 74.427 31.4746 74.3092C31.2673 73.9747 31.2673 73.7202 31.3097 73.5129H30.9327C30.8291 73.5129 30.7254 73.4941 30.6265 73.4611C30.5275 73.4328 30.4333 73.3904 30.3485 73.348C29.8914 73.8898 29.3873 74.394 29.18 74.5589C29.0575 74.639 28.8878 74.6861 28.6381 74.7238C28.3884 74.7615 28.1764 74.8039 27.9691 74.8887H31.6489Z" fill="#005685"/>
<path d="M38.0427 45.0463H38.1652C38.7071 45.0463 39.084 45.0039 39.2112 45.0039H39.2536C39.3809 45.0039 39.461 44.8767 39.461 44.7542C39.461 44.627 39.3338 44.5469 39.2112 44.5469C39.2112 44.5469 39.2112 44.5469 39.1688 44.5469C39.0416 44.5469 38.6694 44.5893 38.1652 44.5893H38.038V44.7165C38.038 44.8013 38.038 44.8437 38.038 44.9238L38.0427 45.0463Z" fill="#005685"/>
<path d="M36.2004 45.046V44.5843H36.0732C35.4041 44.5419 34.7774 44.4571 34.2356 44.377C34.1932 44.377 34.1084 44.377 34.0707 44.4194C34.0283 44.4618 33.9859 44.5042 33.9859 44.5466C33.9435 44.6738 34.0283 44.7963 34.1508 44.7963C34.6926 44.9235 35.3193 45.0036 36.0732 45.046H36.2004Z" fill="#005685"/>
<path d="M38.0004 45.7985H38.1276C38.3773 45.7985 38.5893 45.7561 38.7542 45.7561C38.8391 45.7561 38.8815 45.7561 38.9616 45.7137C39.0464 45.7137 39.0888 45.7137 39.1265 45.7137H39.1689C39.2113 45.7137 39.2113 45.7137 39.2113 45.7137H39.2537C39.3385 45.6713 39.3809 45.5865 39.3809 45.5064L39.3385 45.3792C39.2961 45.2944 39.2113 45.252 39.1312 45.252C39.1312 45.252 39.0888 45.252 39.004 45.252H38.9616C38.7966 45.252 38.4998 45.2944 38.0852 45.3368H37.958V45.464C37.958 45.5488 37.958 45.5912 37.958 45.6713V45.7985H38.0004Z" fill="#005685"/>
<path d="M36.2428 45.878V45.7508C36.2428 45.7084 36.2428 45.666 36.2428 45.666C36.2428 45.6236 36.2428 45.6236 36.2428 45.5812V45.454H36.1156C35.3193 45.454 34.5701 45.3692 33.8587 45.2891H33.8163C33.7314 45.2891 33.689 45.2891 33.6513 45.3315C33.6089 45.3739 33.5665 45.4163 33.5665 45.4587C33.5241 45.5859 33.6089 45.666 33.7315 45.7084L33.8964 45.7508C33.9388 45.7508 33.9388 45.7508 33.9812 45.7508C34.1084 45.7508 34.2309 45.7932 34.3581 45.7932C34.9 45.878 35.4465 45.878 36.1533 45.9204L36.2428 45.878Z" fill="#005685"/>
<path d="M40.4222 53.865C41.0489 52.1923 40.7144 50.0626 40.295 48.5171V48.4323C40.0877 47.5983 39.8757 47.0094 39.7956 46.8869V46.8445L39.7532 46.8021C39.7108 46.7172 39.6683 46.6371 39.6683 46.5099L39.6259 46.3827C39.5835 46.133 39.5411 45.9634 39.4987 45.756V45.7136C39.2914 44.041 39.8333 42.1186 40.3327 40.4459L40.3751 40.2386C40.5824 39.5271 40.752 38.9004 40.8746 38.3162C40.9594 37.9817 40.9594 37.6895 41.0018 37.3974C41.0018 37.3126 41.0018 37.1901 41.0018 37.1053V37.0629V37.0205V36.9781C40.917 36.2666 40.7945 35.6399 40.6248 35.0557C40.6248 35.0133 40.6248 35.0132 40.6248 35.0132C40.4976 34.5138 40.3327 34.1793 40.2055 33.9248C40.1207 33.7976 40.0783 33.6751 40.0406 33.6327C39.9558 33.5055 39.8333 33.4678 39.7484 33.5479C39.6636 33.5903 39.6212 33.6751 39.6212 33.7552C39.6212 33.7976 39.6212 33.84 39.6636 33.8824L39.706 33.9248C39.9134 34.3018 40.1254 34.8436 40.2903 35.3855V35.4279C40.4175 35.8472 40.4976 36.2242 40.54 36.5964V36.7613C40.54 36.8037 40.54 36.8461 40.54 36.8885V37.0157C40.6248 37.812 40.2903 38.9805 39.9134 40.2339C39.5364 41.6144 39.0794 43.1599 39.037 44.5828C39.037 44.6252 39.037 44.71 39.037 44.7901C39.037 44.955 39.037 45.1247 39.037 45.2519V45.4592C39.037 45.5016 39.037 45.544 39.037 45.6241C39.037 45.6665 39.037 45.7089 39.037 45.7513C39.037 45.7513 39.037 45.7937 39.037 45.8361C39.0794 46.0011 39.0794 46.1707 39.1218 46.3356C39.1218 46.378 39.1218 46.4204 39.1642 46.4204C39.1642 46.4628 39.1642 46.5052 39.2066 46.5052H39.3338L39.2066 46.5476V46.59C39.249 46.7172 39.2914 46.7973 39.3338 46.9246C39.4186 47.1743 39.6259 47.7585 39.8333 48.5972C39.8757 48.7244 39.8757 48.847 39.9181 48.9742C40.0453 49.6008 40.1678 50.2275 40.2102 50.8118V50.8966C40.2102 50.939 40.2102 50.939 40.2102 50.9814V51.0238L40.2526 51.4431C40.2526 51.9426 40.2102 52.4043 40.1678 52.8237V52.8661H40.3751C40.3327 53.1582 40.2479 53.4503 40.1678 53.7001L40.4222 53.865Z" fill="#005685"/>
<path d="M34.7822 55.7871H34.9094V56.0368H34.7822V55.7871Z" fill="#005685"/>
<path d="M33.3592 46.1768C33.6089 45.8847 33.821 45.5077 33.9435 45.0884V45.046C33.9859 45.0036 33.9859 44.9188 34.0283 44.8811C34.1131 44.5889 34.1555 44.3392 34.1932 44.0848C34.2356 43.3733 34.1932 42.5817 34.066 41.8278C34.0236 41.6205 33.9011 41.5781 33.8163 41.5781C33.7315 41.5781 33.689 41.6205 33.6514 41.6629C33.6089 41.7053 33.609 41.7902 33.609 41.8278C33.7362 42.5393 33.7739 43.2885 33.7362 44.0424C33.6938 44.3345 33.6089 44.8387 33.3168 45.3381L33.4817 45.4229C33.3545 45.6302 33.2744 45.7999 33.1048 45.9648L33.3592 46.1768Z" fill="#005685"/>
<path d="M31.3945 51.6517C31.5217 51.6517 31.6018 51.5669 31.6442 51.4444C31.7714 49.1874 33.8587 45.5076 33.9011 45.5076C33.9859 45.3803 33.9435 45.2578 33.8163 45.173C33.6891 45.0882 33.5666 45.1306 33.4818 45.2578C33.397 45.4228 31.3097 49.0602 31.1824 51.402C31.1447 51.5245 31.2296 51.6517 31.3945 51.6517C31.3945 51.6517 31.3568 51.6517 31.3945 51.6517Z" fill="#005685"/>
<path d="M35.9932 49.0154L38.4574 48.7657L38.3726 48.5159C38.2878 48.2662 38.2878 47.305 38.3302 45.6748C38.3302 45.5899 38.3302 45.5475 38.3302 45.5098C38.3302 45.3025 38.3302 45.1329 38.3302 44.968C38.3302 44.8832 38.3302 44.8408 38.3302 44.7607C38.4574 41.5425 38.7071 37.448 38.7071 37.4056L38.2878 37.3632C38.2878 37.4056 38.0381 41.5001 37.9108 44.7183C37.9108 44.8031 37.9108 44.8455 37.9108 44.9256C37.9108 45.0905 37.9108 45.3025 37.9108 45.4674C37.9108 45.5098 37.9108 45.5947 37.9108 45.6748C37.8684 47.0977 37.8684 47.9317 37.9108 48.3934L36.4078 48.5583C36.4078 48.0966 36.3654 47.0553 36.323 45.7596L36.2806 44.756C36.1157 38.4846 36.3654 37.6506 36.4455 37.5234L36.1958 37.1465C35.9884 37.2737 35.6115 37.4386 35.8188 44.7513V45.5852C35.8188 45.6276 35.8188 45.67 35.8188 45.7124V45.7973C35.8612 47.5547 35.946 48.8505 35.946 48.8505L35.9932 49.0154Z" fill="#005685"/>
<path d="M33.7362 42.0343H33.9859C34.1132 41.9071 34.1132 41.8694 33.9435 41.4924C33.7362 41.0307 33.3593 40.1119 33.1096 39.3203L32.6902 39.4475C32.9399 40.2815 33.3593 41.2427 33.5666 41.7045C33.609 41.8317 33.6514 41.9542 33.6938 41.9542L33.9011 41.8694L33.7362 42.0343Z" fill="#005685"/>
<path d="M61.1962 20.8025V75.3034H64.3296V20.8025V12.3591V10.5215H61.1962" stroke="#005685" stroke-width="0.471175" stroke-miterlimit="10"/>
<path d="M64.3296 20.8025H49.2849V10.5215H64.3296V12.3591V20.8025Z" stroke="#005685" stroke-width="0.471175" stroke-miterlimit="10"/>
<path d="M66.9399 75.3457H15.5158" stroke="#005685" stroke-width="0.471175" stroke-miterlimit="10"/>
</svg>
