<svg width="165" height="165" viewBox="0 0 165 165" fill="none" xmlns="http://www.w3.org/2000/svg">
<g clip-path="url(#clip0_112_75)">
<path d="M68.6297 83.4805C68.3719 82.8617 68.3203 82.4492 68.3203 81.5727C68.2172 79.9227 68.1657 79.5102 68.0625 79.407C68.011 79.3555 68.011 79.3555 67.9594 79.3555C67.8047 79.3555 67.7016 79.3555 67.8047 81.5727C67.8047 82.5008 67.8563 82.9648 68.1656 83.6867C68.3203 84.0992 68.2688 84.2023 68.2688 84.2023C68.2688 84.2023 68.2172 84.2539 68.011 84.3055C67.9078 84.3055 67.8047 84.4086 67.8047 84.5633C67.7532 86.1617 67.3922 86.9352 65.6391 86.9867H65.5875C65.4844 86.9867 65.4328 87.0383 65.3813 87.0898C65.3297 87.1414 65.3297 87.2445 65.3297 87.2961C65.3297 87.4508 65.4328 87.5539 65.5875 87.5539H65.6391C67.7016 87.5023 68.2172 86.5227 68.3203 84.7695C68.475 84.718 68.6297 84.6148 68.7328 84.4602C68.836 84.2023 68.836 83.9445 68.6297 83.4805Z" fill="#005685"/>
<path d="M65.8453 87.0895C65.7937 87.0379 65.6906 86.9863 65.6391 86.9863H65.5875C65.4844 86.9863 65.3297 86.9863 65.1234 87.1926C64.9688 87.3473 64.8656 87.5535 64.8141 87.8113C64.7625 87.966 64.7109 88.2238 64.7109 88.4301C64.8656 88.6879 65.0719 88.8941 65.2266 89.152C65.2781 88.9457 65.2781 88.7395 65.3297 88.5848C65.4328 88.0176 65.4844 87.7082 65.5359 87.6566C65.5359 87.6051 65.5875 87.6051 65.5875 87.6051H65.6391C65.7938 87.6051 65.8969 87.502 65.8969 87.3473C65.8969 87.1926 65.8969 87.141 65.8453 87.0895ZM64.9688 88.327C64.9688 88.2754 65.0203 88.1723 65.0203 88.1207C65.0203 88.0691 65.0719 87.966 65.0719 87.9145C65.0719 87.966 65.0719 88.0691 65.0203 88.1207C65.0203 88.1723 64.9688 88.2754 64.9688 88.327Z" fill="#005685"/>
<path d="M62.9578 84.7687C62.9578 84.7172 62.9063 84.6656 62.8547 84.6141C62.8031 84.5625 62.7 84.5625 62.6485 84.5625C62.5969 84.5625 62.5453 84.6141 62.4938 84.6656C62.4422 84.7172 62.4422 84.8203 62.4422 84.8719C62.4422 84.975 62.8547 87.2438 61.9781 89.8734C61.9266 90.0281 61.9781 90.1828 62.1328 90.2344H62.2359C62.3391 90.2344 62.4422 90.1828 62.4938 90.0797C63.4219 87.2437 62.9578 84.7687 62.9578 84.7687Z" fill="#005685"/>
<path d="M69.4547 96.1641C69.4547 96.1125 69.4547 96.0609 69.4031 96.0609C69.3516 95.8031 69.2484 95.5453 69.0937 95.2875C68.9391 94.9781 68.7844 94.6172 68.6297 94.2563C68.4234 93.7922 68.1656 93.3281 67.9078 92.9156C67.8562 92.8641 67.8047 92.7609 67.8047 92.7094C67.7016 92.4516 67.5469 92.2453 67.3922 92.0391C67.4953 92.3484 67.4953 92.7094 67.3922 93.0703C67.4953 93.225 67.5984 93.4312 67.7016 93.5859C68.1141 94.3594 68.5266 95.2359 68.8359 95.9578C68.8875 96.0609 68.8875 96.1125 68.9391 96.2156C68.9391 96.2672 68.9391 96.2672 68.9906 96.3188C69.4031 97.5563 69.3 98.4844 69.0937 99.3094C69.0937 99.4125 69.0422 99.4641 69.0422 99.5672C69.0422 99.6188 69.0422 99.7219 69.0937 99.7734C69.1453 99.825 69.1969 99.8766 69.2484 99.8766H69.3C69.3516 99.8766 69.4547 99.8766 69.5062 99.825L69.5578 99.7734C69.6609 99.4641 69.7125 99.1547 69.7641 98.7938C69.8156 98.5875 69.8156 98.3812 69.8156 98.175C69.7641 97.5047 69.6609 96.8859 69.4547 96.1641ZM66.2062 90.2344C66.3609 90.3891 66.5156 90.5953 66.6703 90.75C66.5156 90.4922 66.4641 90.3891 66.4641 90.3891C66.4125 90.2859 66.3609 90.2344 66.2062 90.2344Z" fill="#005685"/>
<path d="M83.0672 96.6788C83.0672 96.6272 83.0157 96.5757 82.9641 96.5241C82.8094 96.4725 82.6547 96.4725 82.6032 96.5757C82.2938 96.885 75.9 99.9272 73.8375 100.03C73.1672 100.03 71.0016 99.0507 69.7641 98.071C69.7125 98.071 69.7125 98.0194 69.661 98.0194C69.5579 97.9163 69.4032 97.9679 69.3 98.071C69.2485 98.1225 69.2485 98.2257 69.2485 98.2772C69.2485 98.3804 69.3 98.4319 69.3516 98.4835C69.4547 98.5866 69.5578 98.6382 69.7125 98.7413C71.1047 99.6694 73.1672 100.598 73.8891 100.598V100.546C75.6422 100.443 80.9016 98.1741 82.5516 97.1944C82.8094 97.0397 83.0157 96.9366 83.0157 96.8335C83.0672 96.8335 83.0672 96.7304 83.0672 96.6788Z" fill="#005685"/>
<path d="M73.8375 98.0195C73.7859 98.0195 73.7859 98.0195 73.7859 98.0195C73.7344 98.0195 73.6828 98.0195 73.6828 97.9679C71.9297 96.8336 68.6297 94.6679 67.5984 93.0695C67.4953 92.9664 67.5469 92.7601 67.65 92.7086C67.7531 92.6054 67.9594 92.657 68.0109 92.7601C68.9906 94.2554 72.1875 96.3179 73.8891 97.4523C74.25 97.4523 76.2609 97.2461 82.4484 94.9257C82.5 94.9257 82.6031 94.9257 82.6547 94.9257C82.7063 94.9773 82.7578 95.0289 82.8094 95.0804C82.8609 95.2351 82.8094 95.3898 82.6547 95.4414C76.0547 97.9164 74.1469 98.0195 73.8375 98.0195Z" fill="#005685"/>
<path d="M68.8359 76.3126C67.3922 75.5391 65.9484 75.2298 64.4531 75.4876C64.4016 75.4876 64.4016 75.4876 64.35 75.4876C64.2985 75.4876 60.5859 76.1579 59.8641 79.5095C59.7609 80.0251 59.6578 80.5923 59.5547 81.211C59.0391 83.9438 58.4719 86.986 56.8219 89.9251C55.4813 92.2454 55.3266 94.6688 56.3063 95.9063C56.6156 96.3188 57.286 96.8345 58.4203 96.8345C58.6781 96.8345 58.9875 96.8345 59.2969 96.7829C59.4516 96.7829 59.6578 96.7313 59.8641 96.6798C59.9672 96.6798 60.0188 96.6282 60.1219 96.6282L60.3281 96.5766L60.2766 96.3188C60.2766 96.2673 59.9672 94.6688 60.8438 92.8641C60.8438 92.8126 61.5656 91.6782 62.5453 91.6266C63.0094 91.5751 63.525 91.8329 63.9891 92.4001C64.1953 92.6579 64.35 92.8641 64.5563 93.122C65.2781 94.0501 65.8969 94.8235 66.6188 94.7204C67.0313 94.6688 67.3406 94.3079 67.7016 93.5345C67.7016 93.4829 67.7531 93.4829 67.7531 93.4313C67.7531 93.3798 67.7531 93.3798 67.8047 93.3282C67.8563 93.1735 67.9078 93.0188 67.9078 92.8641C67.9078 92.8126 67.9078 92.7095 67.9078 92.6579C68.0109 91.472 67.1344 90.4923 66.2063 89.461C65.8969 89.1516 65.5875 88.8423 65.3297 88.4813C65.2266 88.3782 65.1234 88.2235 65.0203 88.0688C64.9172 87.9657 64.8656 87.8626 64.8141 87.7595C64.6078 87.4501 64.5047 87.0891 64.4016 86.7282C63.8344 83.9438 63.9891 82.4485 64.8141 81.5204C65.175 81.1079 65.5875 80.9016 65.9484 80.6954C66.2063 80.5407 66.4641 80.386 66.7734 80.1798C67.0828 79.9735 67.3922 79.6641 67.7016 79.1485C67.7531 79.2001 67.8563 79.2516 67.9594 79.3032C68.011 79.3032 68.0109 79.3548 68.0625 79.3548C68.3203 79.4063 68.5781 79.4063 68.7844 79.2516C68.9391 79.1485 69.0422 78.9423 68.9391 78.5813C69.0938 78.5298 69.2485 78.5298 69.4031 78.4266C69.7125 78.2204 69.9188 77.911 69.9188 77.6016C69.9703 77.3438 69.7641 76.8282 68.8359 76.3126ZM69.2485 78.1173C69.0938 78.1688 68.9906 78.1688 68.9391 78.1688C68.7328 78.0657 68.475 77.911 68.3203 78.1173C68.2688 78.2204 68.2172 78.3751 68.3719 78.5298C68.5781 78.8391 68.5781 78.9938 68.5781 78.9938C68.5266 79.0454 68.2688 78.9938 68.1656 78.8907C68.1141 78.7876 67.8563 78.5813 67.5985 78.6845C67.4438 78.736 67.3922 78.8391 67.3406 78.9938C66.7735 79.8188 66.2578 80.0766 65.7938 80.3345C65.3813 80.5407 64.9688 80.747 64.5047 81.2626C63.525 82.3454 63.3703 83.9438 63.9891 86.8829C64.0922 87.4501 64.35 87.9141 64.7109 88.4298C64.8656 88.6876 65.0719 88.8938 65.2266 89.1516C65.4328 89.4095 65.6906 89.6673 65.8969 89.9251C66 90.0282 66.1031 90.1829 66.2063 90.286C66.3609 90.4407 66.5156 90.647 66.6703 90.8016C66.9797 91.2141 67.2375 91.5751 67.3922 91.9876C67.4953 92.297 67.4953 92.6579 67.3922 93.0188C67.3922 93.0704 67.3406 93.1735 67.3406 93.2251C67.0828 93.8438 66.825 94.1532 66.5672 94.2048C66.1547 94.2563 65.5359 93.4829 64.9688 92.761C64.8141 92.5032 64.6078 92.297 64.4016 92.0391C63.8344 91.3173 63.1641 91.0079 62.4938 91.0595C61.7203 91.111 61.1016 91.6782 60.7406 92.0907C60.4828 92.3485 60.3797 92.6063 60.3281 92.6063C59.5547 94.2048 59.6063 95.597 59.6578 96.1641C59.5547 96.2157 59.4 96.2157 59.2969 96.2673C58.1109 96.5251 57.2344 96.2673 56.7188 95.597C55.8938 94.4626 56.1 92.297 57.2859 90.1829C58.9359 87.1923 59.5547 84.047 60.0703 81.3141C60.1734 80.747 60.2766 80.1798 60.3797 79.6641C60.9984 76.7251 64.1953 76.1063 64.4016 76.0548C64.4531 76.0548 64.4531 76.0548 64.6594 76.1063C65.175 76.0032 66.7219 75.7454 68.6813 76.8798C69.1969 77.1891 69.5063 77.4985 69.5063 77.7563C69.5063 77.911 69.4031 78.0141 69.2485 78.1173Z" fill="#005685"/>
<path d="M85.4391 97.0406C85.3875 97.0406 85.336 97.0406 85.336 96.9891L82.7578 95.6484C82.6547 95.5969 82.6031 95.4938 82.6031 95.3906V94.6172C82.6031 94.4625 82.7063 94.3594 82.861 94.3594C83.0156 94.3594 83.1188 94.4625 83.1188 94.6172V95.1844L85.2844 96.3188L87.6563 91.7812V91.2656C87.6563 91.1109 87.7594 91.0078 87.9141 91.0078C88.0688 91.0078 88.1719 91.1109 88.1719 91.2656V91.9875C88.1719 92.0391 88.1719 92.0906 88.1203 92.0906L85.5938 96.8859C85.5422 96.9375 85.4906 96.9891 85.4391 97.0406Z" fill="#005685"/>
<path d="M88.0688 90.9559L85.4907 89.6152H85.2844C85.2328 89.6668 85.1813 89.7184 85.1297 89.7699L84.2531 91.4199L83.2735 93.2246L82.7063 94.3074L82.6547 94.4105L82.6031 94.4621V94.5137V94.7199C82.6031 94.7199 82.6032 94.7199 82.6547 94.7715L82.7578 94.8746L83.1188 95.0809L85.336 96.2152C85.336 96.2668 85.3875 96.2668 85.3875 96.2668H85.4391C85.5422 96.2668 85.5938 96.2152 85.6969 96.1121C85.6969 96.1121 85.6969 96.1121 85.6969 96.0605L86.7797 93.9465L87.5532 92.5027L88.1719 91.3684L88.2235 91.2652V91.059L88.0688 90.9559ZM83.2219 94.5652L84.511 92.0902L84.6141 91.9355L85.4907 90.2855L87.6047 91.3684L85.336 95.6996L83.2219 94.5652Z" fill="#005685"/>
<path d="M85.2328 96.4215C85.2328 96.3699 85.1297 96.3184 85.0781 96.3184C85.0266 96.3184 84.9234 96.3184 84.8719 96.3699C84.7688 96.4215 84.6141 96.473 84.4078 96.5246C84.2531 96.5762 84.0469 96.5762 83.8406 96.6277C83.5828 96.6793 83.2734 96.6793 83.0156 96.6793C82.8609 96.6793 82.7063 96.6793 82.5516 96.6793H82.5C82.3453 96.6793 82.2422 96.7824 82.2422 96.9371C82.2422 97.0402 82.2937 97.0918 82.3453 97.1434C82.3969 97.1949 82.4484 97.1949 82.5 97.2465C82.5516 97.2465 82.6031 97.2465 82.6031 97.2465C83.0156 97.2465 84.4078 97.1949 85.0266 96.834C85.0781 96.834 85.1297 96.7824 85.1297 96.7824C85.1813 96.7824 85.2328 96.6793 85.2328 96.6277C85.2844 96.5762 85.2844 96.473 85.2328 96.4215Z" fill="#005685"/>
<path d="M82.1906 95.6492H82.0875C82.036 95.6492 81.9844 95.5976 81.9328 95.4945C81.8813 95.4429 81.8813 95.3398 81.9328 95.2882C81.9844 95.082 82.2422 94.3601 82.2422 94.0507C82.2422 93.7929 82.4485 93.4836 82.8094 92.9679C83.0672 92.607 83.325 92.1945 83.4797 91.8851C83.686 91.4211 83.9438 91.3179 84.0985 91.3695C84.3047 91.3695 84.511 91.5242 84.6141 91.782C84.6141 91.8336 84.6141 91.9367 84.6141 91.9882C84.5625 92.0398 84.511 92.0914 84.4594 92.1429C84.3047 92.1945 84.15 92.1429 84.0985 91.9882C84.0985 91.9882 84.0985 91.9882 84.0985 91.9367C84.0985 91.9882 84.0469 92.0398 83.9953 92.0914C83.8406 92.4523 83.5313 92.9164 83.2735 93.2773C83.0672 93.5351 82.8094 93.9992 82.7578 94.1023C82.7578 94.4632 82.5 95.2882 82.4485 95.4429C82.3969 95.5461 82.2938 95.6492 82.1906 95.6492Z" fill="#005685"/>
<path d="M85.6453 96.6801C85.5422 96.6801 85.3875 96.577 85.3875 96.4738C85.3875 96.4223 85.3875 96.3191 85.4391 96.2676C85.4906 96.216 85.5422 96.1645 85.5938 96.1645C86.1609 96.0613 87.1406 94.927 87.2438 94.2051C87.2953 93.9988 87.3469 93.7926 87.45 93.6379C87.3469 93.741 87.2953 93.8957 87.1922 93.9988C87.1406 94.0504 87.0891 94.102 87.0375 94.102C86.9859 94.102 86.8828 94.102 86.8313 94.0504C86.7281 93.9473 86.6766 93.7926 86.7281 93.6895C87.7078 92.1941 88.0172 92.1426 88.1203 92.1426C88.2234 92.1426 88.3266 92.1941 88.3781 92.2457C88.5844 92.5035 88.4297 92.8129 88.1719 93.277C88.0172 93.5863 87.8109 93.9473 87.7594 94.3082C87.6047 95.2363 86.4703 96.5254 85.6453 96.6801Z" fill="#005685"/>
<path d="M61.7203 97.349C61.6172 97.349 61.5656 97.2975 61.5141 97.2459C61.4625 97.1943 61.4625 97.1943 61.4625 97.1428C61.4109 97.0912 61.4109 96.9881 61.4625 96.9365C61.5141 96.885 61.5656 96.8334 61.6172 96.7818C63.9375 95.9053 65.7422 96.6271 65.7938 96.6271C65.9484 96.6787 66 96.8334 65.9484 96.9881C65.9484 97.0396 65.8453 97.1428 65.7938 97.1428C65.7422 97.1943 65.6391 97.1943 65.5875 97.1428C65.5875 97.1428 63.8859 96.524 61.8234 97.2975C61.7719 97.349 61.7719 97.349 61.7203 97.349Z" fill="#005685"/>
<path d="M65.8453 111.993C65.7937 111.993 65.7422 111.993 65.6906 111.942C65.6906 111.942 64.1953 110.962 61.9781 111.272C61.875 111.272 61.7719 111.22 61.6687 111.117C61.6687 111.065 61.6172 111.065 61.6172 111.014C61.6172 110.911 61.6172 110.859 61.6687 110.807C61.7203 110.756 61.7719 110.704 61.875 110.704C64.2984 110.343 65.8969 111.426 66 111.478C66.1547 111.581 66.1547 111.736 66.1031 111.89C66.0516 111.942 66 111.993 65.9484 111.993C65.8969 111.993 65.8453 111.993 65.8453 111.993Z" fill="#005685"/>
<path d="M69.0938 96.2147H68.9907C68.9391 96.2147 68.8875 96.1632 68.836 96.06C68.7844 96.0085 68.7844 95.9053 68.836 95.8538C69.0422 95.1835 69.5063 94.771 69.5578 94.7194C69.6094 94.6678 69.661 94.6163 69.7641 94.6678C69.8157 94.6678 69.9188 94.7194 69.9703 94.771C70.0735 94.8741 70.0735 95.0288 69.9703 95.1319C69.9703 95.1319 69.5579 95.5444 69.4032 96.06C69.3516 96.1632 69.1969 96.2147 69.0938 96.2147Z" fill="#005685"/>
<path d="M89.4094 83.8406C88.7391 83.2734 88.1719 82.9124 87.7078 82.6546C86.4703 81.9328 86.1094 81.6749 86.8828 78.4265C87.6563 75.1781 86.7281 73.4765 85.8 72.5999C84.6656 71.5171 82.9641 71.2078 81.3141 71.7749C79.7156 72.2906 78.6328 73.4765 78.3235 74.9718C77.7563 78.014 78.8906 84.0984 84.3047 85.1812C86.0578 85.5421 87.1406 86.1609 87.5531 87.0374C87.9656 87.914 87.5016 88.7906 87.45 88.8421C86.986 89.4093 87.0891 89.8218 87.2953 90.0796C87.3985 90.1828 87.6047 90.2859 87.8625 90.2859C88.2235 90.2859 88.5844 90.1312 89.1 89.8734C90.0797 89.1515 90.6985 87.9656 90.75 86.7796C90.75 86.0062 90.5438 84.8718 89.4094 83.8406ZM88.7391 89.4609C88.1719 89.8734 87.811 89.8734 87.7078 89.7703C87.6563 89.6671 87.7078 89.4609 87.9141 89.2546V89.2031C87.9141 89.1515 88.5844 88.0687 88.0688 86.8828C87.6047 85.7999 86.3672 85.0781 84.4078 84.6656C79.3547 83.6343 78.2719 77.9109 78.8391 75.0749C79.0969 73.7859 80.0766 72.7546 81.4688 72.2906C81.9328 72.1359 82.4485 72.0328 82.9125 72.0328C83.8922 72.0328 84.7688 72.3937 85.4906 73.064C86.3156 73.8374 87.1406 75.3328 86.4188 78.3749C85.4906 82.0359 86.1094 82.3968 87.45 83.1703C87.9141 83.4281 88.4297 83.789 89.0485 84.3046C90.0281 85.1296 90.2344 86.1093 90.1828 86.7796C90.1313 87.8109 89.5641 88.8421 88.7391 89.4609Z" fill="#005685"/>
<path d="M84.7688 78.375L84.2531 77.6016C84.2531 77.55 84.2016 77.55 84.2016 77.4984C84.2016 77.4469 84.2016 77.4469 84.2016 77.3953L84.0984 75.5906C84.0469 75.5391 84.0469 75.4359 84.0469 75.3844C83.9438 74.6109 83.2219 73.9922 82.2938 73.9922C81.3656 73.9922 80.6438 74.6109 80.5406 75.3844C80.4891 75.4359 80.4891 75.4875 80.4891 75.5906L80.3859 77.3953V77.4469C80.3344 77.4469 80.3344 77.4984 80.2828 77.55L79.7672 78.3234C79.6641 78.4781 79.6641 78.6328 79.7156 78.7359C79.7672 78.8906 79.9219 78.9422 80.0766 78.9422H84.3563C84.5109 78.9422 84.6141 78.8391 84.8203 78.7875C84.8719 78.6328 84.8719 78.4781 84.7688 78.375ZM80.3859 78.375L80.7469 77.8078C80.7469 77.7562 80.7984 77.7047 80.7984 77.7047C80.9016 77.6016 80.9016 77.4984 80.9016 77.3438L81.0047 75.3844C81.0047 74.8687 81.5203 74.4562 82.1906 74.4562C82.8094 74.4562 83.325 74.8687 83.3766 75.3844V75.4875L83.4281 75.5391L83.5313 77.3953C83.5313 77.55 83.5313 77.6531 83.6344 77.7563C83.6344 77.8078 83.6859 77.8078 83.6859 77.8594L84.0469 78.375H80.3859V78.375Z" fill="#005685"/>
<path d="M83.4797 78.7883C83.4281 78.6336 83.2734 78.582 83.1188 78.582H81.4172C81.2625 78.582 81.1078 78.6852 81.0563 78.7883C81.0047 78.8398 81.0047 78.8914 81.0047 78.943C81.0047 79.0461 81.0563 79.0977 81.0563 79.1492C81.1078 79.2008 81.5719 79.9742 82.2422 79.9742C82.9125 79.9742 83.3766 79.2008 83.4797 79.1492C83.5313 79.0977 83.5313 78.9945 83.5313 78.943C83.5313 78.8914 83.4797 78.8398 83.4797 78.7883ZM82.1906 79.407C81.9844 79.407 81.8297 79.2523 81.675 79.0977H82.7063C82.5516 79.2523 82.3969 79.407 82.1906 79.407Z" fill="#005685"/>
<path d="M71.4141 141.075C71.1047 141.075 70.7953 141.023 70.486 140.868C70.4344 140.868 70.3828 140.817 70.3828 140.765C69.5578 139.425 68.7844 138.084 68.1657 136.795C67.9078 136.279 67.7016 135.815 67.4953 135.3C66.6188 133.186 66.0516 131.278 65.8969 129.576C65.7938 128.648 65.7938 127.771 65.9485 126.998C65.9485 126.843 66 126.74 66.0516 126.586L65.9485 125.915C65.8969 125.709 65.8453 125.451 65.7938 125.142C65.7422 124.936 65.7422 124.729 65.6907 124.523L65.6391 124.214C65.6391 124.162 65.6391 124.111 65.6391 124.059C65.9485 122.873 66.2063 121.584 66.4641 120.192C66.7735 118.645 67.0829 116.892 67.3407 114.829C67.3407 114.675 67.4953 114.571 67.65 114.571C67.8047 114.571 67.9078 114.726 67.9078 114.881C67.5985 116.943 67.2891 118.696 66.9797 120.243C66.7219 121.636 66.4641 122.925 66.1547 124.111L66.2063 124.368C66.2578 124.575 66.2579 124.781 66.3094 124.987C66.361 125.296 66.4125 125.554 66.4641 125.761L66.6188 126.482C66.6188 126.534 66.6188 126.586 66.6188 126.586C66.5672 126.74 66.5672 126.895 66.5157 127.05C66.361 127.771 66.361 128.596 66.4641 129.473C66.6188 131.123 67.1344 132.979 68.011 135.042C68.2172 135.506 68.4235 135.97 68.6813 136.486C69.3 137.775 70.0219 139.064 70.7953 140.301C71.0532 140.404 71.2594 140.456 71.5172 140.404C71.6719 140.404 71.8782 140.353 72.0328 140.25C71.775 139.012 71.5172 137.775 71.311 136.64L71.2079 136.176C71.1563 135.867 71.1047 135.506 71.0532 135.196C70.6407 132.825 70.4344 130.865 70.3313 129.37C70.2797 128.493 70.2797 127.823 70.3313 127.307C70.3313 127.101 70.3828 126.895 70.3828 126.74C70.5375 125.864 70.6922 124.987 70.7953 124.111V123.956C70.95 122.718 71.0532 121.429 71.1047 120.14C71.1563 118.593 71.1047 117.15 71.0016 115.603C70.95 115.087 70.8985 114.623 70.8469 114.159C70.8469 114.004 70.95 113.85 71.1047 113.85C71.2594 113.85 71.4141 113.953 71.4141 114.107C71.4657 114.571 71.5172 115.036 71.5688 115.551C71.6719 117.098 71.7235 118.593 71.6719 120.14C71.6203 121.429 71.5172 122.77 71.3625 124.007V124.162C71.2594 125.039 71.1047 125.915 70.95 126.792C70.8985 126.946 70.8985 127.101 70.8985 127.307C70.8469 127.823 70.8469 128.493 70.8985 129.318C70.95 130.814 71.2078 132.721 71.6203 135.042C71.6719 135.351 71.7235 135.712 71.775 136.021L71.8782 136.486C72.0844 137.723 72.3938 139.012 72.6516 140.301C72.7032 140.404 72.6 140.559 72.4969 140.611C72.2391 140.765 71.9297 140.92 71.5688 140.92C71.5172 141.075 71.4657 141.075 71.4141 141.075Z" fill="#005685"/>
<path d="M60.8953 141.178C60.1734 141.178 59.6063 140.765 59.2453 140.456C59.1938 140.404 59.1938 140.353 59.1938 140.301C58.936 139.115 58.7297 137.878 58.6266 136.64C58.575 136.073 58.575 135.609 58.5235 135.145C58.4719 132.773 58.7813 130.659 59.5031 128.803C59.761 128.132 60.0703 127.514 60.3797 126.946V126.895C60.3797 126.792 60.3797 126.637 60.3281 126.431C60.2766 126.121 60.225 125.657 60.1734 125.09C60.1734 124.884 60.1219 124.575 60.1219 124.265V124.007C60.0703 122.976 60.0188 121.636 59.9156 120.14C59.8641 118.851 59.761 117.665 59.7094 116.634C59.6578 115.757 59.6063 114.932 59.5547 114.159C59.5547 114.004 59.6578 113.85 59.8125 113.85C59.9672 113.85 60.1219 113.953 60.1219 114.107C60.1734 114.881 60.225 115.654 60.2766 116.531C60.3797 117.562 60.4313 118.748 60.4828 120.037C60.5344 121.481 60.5859 122.873 60.6891 123.853V124.111C60.6891 124.42 60.7406 124.678 60.7406 124.936C60.7922 125.503 60.8438 125.967 60.8953 126.276C60.8953 126.431 60.9469 126.586 60.9469 126.689V126.74C60.9469 126.895 60.9469 126.998 60.8438 127.153C60.5344 127.668 60.225 128.287 60.0188 128.957C59.3485 130.711 59.0391 132.773 59.0906 135.093C59.0906 135.609 59.1422 136.073 59.1422 136.537C59.2453 137.671 59.4 138.857 59.6578 139.992C59.9156 140.25 60.3281 140.507 60.8438 140.507C61.1531 139.012 61.4109 137.723 61.6688 136.486L61.9781 135.042C62.4422 132.876 62.9063 131.226 63.2672 130.092C63.4734 129.421 63.6797 128.906 63.886 128.596C64.1953 128.132 64.4531 127.514 64.711 126.792C64.9172 126.225 65.1234 125.606 65.3297 124.729C65.3813 124.523 65.4328 124.265 65.4844 124.059C65.4844 124.007 65.4844 123.904 65.5359 123.853C65.7938 122.718 66.1031 121.481 66.3609 120.14C66.6703 118.593 66.9797 116.84 67.2375 114.778C67.2375 114.623 67.3922 114.52 67.5469 114.52C67.7016 114.52 67.8047 114.675 67.8047 114.829C67.4953 116.892 67.1859 118.645 66.8766 120.192C66.6188 121.584 66.361 122.873 66.0516 124.059C66.0516 124.059 66.0516 124.059 66.0516 124.111V124.162C66 124.42 65.9484 124.678 65.8453 124.936C65.5875 125.812 65.3813 126.482 65.175 127.05C64.9172 127.823 64.6078 128.493 64.2984 129.009C64.1438 129.267 63.9375 129.731 63.7313 130.401C63.3703 131.536 62.9578 133.186 62.4422 135.3L62.1328 136.743C61.875 138.032 61.5656 139.425 61.2563 140.971C61.2563 141.075 61.1531 141.178 60.9985 141.229C61.1016 141.178 60.9984 141.178 60.8953 141.178Z" fill="#005685"/>
<path d="M64.35 143.293C64.0922 142.623 63.2672 142.416 62.7 142.313C62.5453 142.262 62.2875 142.21 62.2359 142.158C62.0297 142.055 61.6688 141.488 61.3594 141.024C61.3594 140.973 61.3078 140.973 61.2563 140.921C61.2047 140.869 61.1016 140.869 61.05 140.869C60.5344 140.921 60.0703 140.766 59.6063 140.302C59.5547 140.199 59.4 140.199 59.2969 140.251C59.2453 140.251 59.1938 140.302 59.1938 140.354C59.1422 140.405 59.1422 140.508 59.1422 140.56C59.2453 140.973 59.0906 141.179 58.8844 141.488C58.7813 141.643 58.6781 141.798 58.575 142.004C58.3688 142.468 58.3172 143.035 58.3688 143.396C58.4203 143.551 58.5234 143.654 58.6781 143.654H64.1438C64.2469 143.654 64.35 143.602 64.2984 143.551C64.35 143.499 64.4016 143.396 64.35 143.293ZM58.9359 143.035C58.9875 142.829 58.9875 142.468 59.0906 142.21C59.1938 142.004 59.2453 141.901 59.3484 141.746C59.5031 141.54 59.6578 141.282 59.7094 141.024C60.1219 141.282 60.5344 141.437 60.9984 141.385C61.2047 141.746 61.6172 142.365 61.9266 142.571C62.0813 142.674 62.2875 142.726 62.5969 142.777C62.8547 142.88 63.1641 142.932 63.4219 143.035H58.9359Z" fill="#005685"/>
<path d="M76.2609 143.293C76.0031 142.623 75.1781 142.416 74.6109 142.313C74.4562 142.313 74.1984 142.262 74.1469 142.21C73.9406 142.004 73.1156 141.127 72.8062 140.766L72.6516 140.612C72.6 140.612 72.6 140.56 72.5484 140.56C72.4453 140.509 72.3422 140.509 72.2906 140.56C72.1359 140.663 71.8266 140.818 71.6203 140.818C71.3625 140.818 71.1047 140.766 70.8469 140.663C70.7437 140.612 70.6406 140.612 70.5375 140.715C70.4859 140.715 70.4344 140.818 70.4344 140.87C70.4344 140.921 70.4344 140.973 70.4859 141.024C70.6922 141.437 70.7437 141.591 70.5375 142.004C70.1766 142.52 70.2281 143.19 70.2797 143.448C70.3312 143.551 70.3828 143.602 70.4344 143.654C70.4859 143.705 70.5375 143.705 70.5891 143.705H76.0547C76.1062 143.705 76.1578 143.705 76.2094 143.654C76.2094 143.654 76.2609 143.602 76.2094 143.551C76.2609 143.499 76.3125 143.396 76.2609 143.293ZM73.8891 142.726C74.0437 142.829 74.25 142.88 74.5594 142.932C74.8687 142.984 75.1266 143.035 75.3844 143.138H70.8469C70.8469 142.88 70.8984 142.571 71.0531 142.416C71.3109 142.004 71.3109 141.695 71.2594 141.437H71.7234C71.9812 141.437 72.2391 141.334 72.4453 141.23C73.0125 141.901 73.6312 142.52 73.8891 142.726Z" fill="#005685"/>
<path d="M62.9578 106.322H62.8032C62.1328 106.322 61.6688 106.27 61.5141 106.27H61.4625C61.3078 106.27 61.2047 106.116 61.2047 105.961C61.2047 105.806 61.3594 105.703 61.5141 105.703C61.5141 105.703 61.5141 105.703 61.5657 105.703C61.7203 105.703 62.1844 105.755 62.8032 105.755H62.9578V105.909C62.9578 106.012 62.9578 106.064 62.9578 106.167V106.322Z" fill="#005685"/>
<path d="M65.2266 106.321V105.754H65.3813C66.2063 105.702 66.9797 105.599 67.65 105.496C67.7016 105.496 67.8047 105.496 67.8563 105.548C67.9078 105.599 67.9594 105.651 67.9594 105.702C68.0109 105.857 67.9078 106.012 67.7531 106.012C67.0828 106.166 66.3094 106.27 65.3813 106.321H65.2266Z" fill="#005685"/>
<path d="M63.0094 107.25H62.8547C62.5453 107.25 62.2875 107.199 62.0812 107.199C61.9781 107.199 61.9266 107.199 61.8234 107.147C61.7203 107.147 61.6687 107.147 61.6172 107.147H61.5656C61.5141 107.147 61.5141 107.147 61.5141 107.147H61.4625C61.3594 107.096 61.3078 106.993 61.3078 106.889L61.3594 106.735C61.4109 106.632 61.514 106.58 61.6172 106.58C61.6172 106.58 61.6687 106.58 61.7719 106.58H61.8234C62.0297 106.58 62.3906 106.632 62.9062 106.683H63.0609V106.838C63.0609 106.941 63.0609 106.993 63.0609 107.096L63.0094 107.25Z" fill="#005685"/>
<path d="M65.175 107.353V107.198C65.175 107.146 65.175 107.095 65.175 107.095C65.175 107.043 65.175 107.043 65.175 106.992V106.837H65.3297C66.3094 106.837 67.2375 106.734 68.1141 106.631H68.1656C68.2687 106.631 68.3203 106.631 68.3719 106.682C68.4234 106.734 68.475 106.786 68.475 106.837C68.5266 106.992 68.4234 107.095 68.2687 107.146L68.0625 107.198C68.0109 107.198 68.0109 107.198 67.9594 107.198C67.8047 107.198 67.65 107.25 67.4953 107.25C66.825 107.353 66.1547 107.353 65.2781 107.404L65.175 107.353Z" fill="#005685"/>
<path d="M60.0188 117.201C59.2453 115.138 59.6578 112.509 60.1734 110.601V110.498C60.4312 109.467 60.6891 108.745 60.7922 108.59V108.538L60.8438 108.487C60.8953 108.384 60.9469 108.281 60.9469 108.126L60.9984 107.971C61.05 107.662 61.1016 107.456 61.1531 107.198V107.146C61.4109 105.084 60.7406 102.712 60.1219 100.649L60.0703 100.392C59.8125 99.515 59.6063 98.7415 59.4516 98.0197C59.3484 97.6072 59.3484 97.2462 59.2969 96.8853C59.2969 96.7822 59.2969 96.6275 59.2969 96.5244V96.4728V96.4212V96.3697C59.4 95.4931 59.5547 94.7197 59.7609 93.9978C59.7609 93.9462 59.7609 93.9462 59.7609 93.9462C59.9156 93.3275 60.1219 92.915 60.2766 92.6056C60.3797 92.4509 60.4313 92.2962 60.4828 92.2447C60.5859 92.09 60.7406 92.0384 60.8438 92.1415C60.9469 92.1931 60.9984 92.2962 60.9984 92.3994C60.9984 92.4509 60.9984 92.5025 60.9469 92.554L60.8953 92.6056C60.6375 93.0697 60.3797 93.74 60.1734 94.4103V94.4619C60.0187 94.9775 59.9156 95.4415 59.8641 95.9056V96.1119C59.8641 96.1634 59.8641 96.215 59.8641 96.2665V96.4212C59.7609 97.4009 60.1734 98.8447 60.6375 100.392C61.1016 102.093 61.6687 104.001 61.7203 105.754C61.7203 105.806 61.7203 105.909 61.7203 106.012C61.7203 106.218 61.7203 106.424 61.7203 106.579V106.837C61.7203 106.888 61.7203 106.94 61.7203 107.043C61.7203 107.095 61.7203 107.146 61.7203 107.198C61.7203 107.198 61.7203 107.249 61.7203 107.301C61.6687 107.507 61.6688 107.713 61.6172 107.92C61.6172 107.971 61.6172 108.023 61.5656 108.023C61.5656 108.074 61.5656 108.126 61.5141 108.126H61.3594L61.5141 108.177V108.229C61.4625 108.384 61.4109 108.487 61.3594 108.642C61.2562 108.951 60.9984 109.673 60.7406 110.704C60.6891 110.859 60.6891 111.013 60.6375 111.168C60.4828 111.942 60.3281 112.715 60.2766 113.437V113.54C60.2766 113.592 60.2766 113.592 60.2766 113.643V113.695L60.225 114.21C60.225 114.829 60.2766 115.396 60.3281 115.912V115.963H60.0703C60.1219 116.324 60.225 116.685 60.3281 116.995L60.0188 117.201Z" fill="#005685"/>
<path d="M66.9797 119.572H66.825V119.882H66.9797V119.572Z" fill="#005685"/>
<path d="M68.7328 107.715C68.4235 107.354 68.1656 106.89 68.011 106.374V106.323C67.9594 106.271 67.9594 106.168 67.9078 106.116C67.8047 105.755 67.7531 105.446 67.7016 105.137C67.65 104.26 67.7016 103.28 67.8563 102.352C67.9078 102.095 68.0625 102.043 68.1656 102.043C68.2688 102.043 68.3203 102.095 68.3719 102.146C68.4235 102.198 68.4235 102.301 68.4235 102.352C68.2688 103.229 68.2172 104.157 68.2688 105.085C68.3203 105.446 68.4235 106.065 68.7844 106.684L68.5781 106.787C68.7328 107.045 68.836 107.251 69.0422 107.457L68.7328 107.715Z" fill="#005685"/>
<path d="M71.1563 114.47C71.0016 114.47 70.8984 114.367 70.8469 114.212C70.6922 111.427 68.1141 106.89 68.0625 106.89C67.9594 106.735 68.0109 106.581 68.1656 106.477C68.3203 106.374 68.475 106.426 68.5781 106.581C68.6813 106.787 71.2594 111.273 71.4141 114.16C71.4656 114.315 71.3625 114.47 71.1563 114.47C71.1563 114.47 71.2078 114.47 71.1563 114.47Z" fill="#005685"/>
<path d="M65.4844 111.22L62.4422 110.911L62.5453 110.601C62.6484 110.292 62.6484 109.106 62.5969 107.095C62.5969 106.992 62.5969 106.94 62.5969 106.889C62.5969 106.631 62.5969 106.425 62.5969 106.218C62.5969 106.115 62.5969 106.064 62.5969 105.961C62.4422 101.99 62.1328 96.9371 62.1328 96.8855L62.6484 96.834C62.6484 96.8855 62.9578 101.939 63.1125 105.909C63.1125 106.012 63.1125 106.064 63.1125 106.167C63.1125 106.373 63.1125 106.631 63.1125 106.837C63.1125 106.889 63.1125 106.992 63.1125 107.095C63.1641 108.848 63.1641 109.879 63.1125 110.446L64.9688 110.653C64.9688 110.086 65.0203 108.796 65.0719 107.198L65.1234 105.961C65.3297 98.2262 65.0203 97.1949 64.9172 97.0402L65.2266 96.5762C65.4844 96.7309 65.9484 96.9371 65.6906 105.961V106.992C65.6906 107.043 65.6906 107.095 65.6906 107.146V107.25C65.6391 109.415 65.5359 111.014 65.5359 111.014L65.4844 111.22Z" fill="#005685"/>
<path d="M68.2688 102.609H67.9594C67.8047 102.455 67.8047 102.403 68.0109 101.939C68.2688 101.372 68.7328 100.237 69.0422 99.2578L69.5578 99.4125C69.2484 100.444 68.7328 101.63 68.475 102.197C68.4234 102.352 68.3719 102.506 68.3203 102.506L68.0625 102.403L68.2688 102.609Z" fill="#005685"/>
<path d="M103.744 52.9547H91.575C91.4718 52.9547 91.3687 52.8516 91.3687 52.7485C91.3687 52.6454 91.4718 52.5422 91.575 52.5422H103.744C104.259 52.5422 104.723 52.336 105.084 51.975C105.445 51.6141 105.652 51.15 105.6 50.6344C105.6 49.3969 105.548 48.1594 105.497 46.9735C105.342 43.3641 105.033 38.3625 104.311 35.0625C104.311 34.9594 104.362 34.8047 104.466 34.8047C104.569 34.7532 104.723 34.8563 104.723 34.9594C105.445 38.311 105.755 43.3125 105.909 46.9735C105.961 48.1594 106.012 49.3969 106.012 50.6344C106.012 51.2532 105.806 51.8204 105.342 52.2844C104.981 52.6969 104.362 52.9547 103.744 52.9547Z" fill="#005685"/>
<path d="M49.139 52.9547H40.3218C39.8062 52.9547 39.2906 52.8516 38.8781 52.5938L36.8672 51.5109C35.8359 50.9953 35.2172 49.9125 35.2172 48.7781V34.2891C35.2172 32.5875 36.6094 31.1953 38.3109 31.1953H102.609C103.383 31.1953 104.002 32.0719 104.517 33.9281C104.569 34.0313 104.466 34.1859 104.362 34.1859C104.259 34.2375 104.105 34.1344 104.105 34.0312C103.692 32.4844 103.177 31.6078 102.609 31.6078H38.3625C36.9187 31.6078 35.6812 32.7938 35.6812 34.2375V48.7266C35.6812 49.7062 36.1968 50.5828 37.0734 51.0469L39.0844 52.1297C39.4453 52.3359 39.8578 52.4391 40.3218 52.4391H49.139C49.2422 52.4391 49.3453 52.5422 49.3453 52.6453C49.3453 52.7484 49.2937 52.9547 49.139 52.9547Z" fill="#005685"/>
<path d="M84.0469 52.9555H56.8734C56.7703 52.9555 56.6672 52.8523 56.6672 52.7492C56.6672 52.6461 56.7703 52.543 56.8734 52.543H84.0469C84.15 52.543 84.2531 52.6461 84.2531 52.7492C84.2531 52.8523 84.15 52.9555 84.0469 52.9555Z" fill="#005685"/>
<path d="M57.1828 51.0977C57.0797 48.7773 55.2234 46.9727 52.9031 46.9727C50.5312 46.9727 48.6234 48.8805 48.6234 51.2523C48.6234 51.6648 48.675 52.0773 48.7781 52.4383C48.8297 52.593 48.8812 52.7992 48.9843 52.9539C49.2422 53.5727 49.6547 54.1398 50.1703 54.5523C50.8922 55.1711 51.8718 55.532 52.9031 55.532C53.8312 55.532 54.7078 55.2227 55.4297 54.707C55.5843 54.6039 55.6875 54.5008 55.8422 54.3977C56.2547 53.9852 56.6156 53.5211 56.8734 52.9539C56.925 52.7992 56.9765 52.6961 57.0281 52.5414C57.1312 52.232 57.1828 51.8711 57.2343 51.5102C57.2343 51.407 57.2343 51.3555 57.2343 51.2523C57.1828 51.2008 57.1828 51.1492 57.1828 51.0977ZM52.9031 55.068C51.2531 55.068 49.8609 54.0367 49.3453 52.593V52.5414C49.1906 52.1289 49.139 51.7164 49.139 51.2523C49.139 49.1383 50.8406 47.4367 52.9547 47.4367C55.0687 47.4367 56.8218 49.1898 56.7703 51.2523C56.7187 53.3664 55.0172 55.068 52.9031 55.068Z" fill="#005685"/>
<path d="M92.0906 51.0977C91.9875 48.7773 90.1313 46.9727 87.8109 46.9727C85.4391 46.9727 83.5312 48.8805 83.5312 51.2523C83.5312 51.7164 83.5828 52.1289 83.7375 52.5414C83.7891 52.6961 83.8406 52.7992 83.8922 52.9539C84.15 53.5211 84.4594 53.9852 84.9234 54.3977C85.0781 54.5523 85.2328 54.6555 85.3875 54.7586C86.0578 55.2227 86.9344 55.532 87.8625 55.532C88.8937 55.532 89.8219 55.1711 90.5438 54.6039C90.6984 54.5008 90.8531 54.3461 91.0078 54.1914C91.3687 53.8305 91.6266 53.418 91.8328 52.9539C91.8844 52.7992 91.9359 52.6961 91.9875 52.5414C92.0906 52.232 92.1422 51.8711 92.1938 51.5102C92.1938 51.407 92.1938 51.3555 92.1938 51.2523C92.0906 51.2008 92.0906 51.1492 92.0906 51.0977ZM87.8109 55.068C85.6969 55.068 83.9953 53.3664 83.9953 51.2523C83.9953 49.1383 85.6969 47.4367 87.8109 47.4367C89.925 47.4367 91.6266 49.1898 91.6266 51.2523C91.6266 53.3664 89.925 55.068 87.8109 55.068Z" fill="#005685"/>
<path d="M62.8031 33.4648H38.6718C37.8468 33.4648 37.1765 34.1352 37.1765 34.9602V41.7148C37.1765 42.5398 37.8468 43.2102 38.6718 43.2102H62.8031C63.6281 43.2102 64.2984 42.5398 64.2984 41.7664V34.9602C64.2984 34.1352 63.6281 33.4648 62.8031 33.4648ZM63.8343 41.7664C63.8343 42.3336 63.3703 42.7977 62.8031 42.7977H38.6718C38.1046 42.7977 37.6406 42.3336 37.6406 41.7664V34.9602C37.6406 34.393 38.1046 33.9289 38.6718 33.9289H62.8031C63.3703 33.9289 63.8343 34.393 63.8343 34.9602V41.7664Z" fill="#005685"/>
<path d="M90.9562 33.4648H77.3437C76.5187 33.4648 75.8484 34.1352 75.8484 34.9602V41.7148C75.8484 42.5398 76.5187 43.2102 77.3437 43.2102H90.9046C91.7296 43.2102 92.3999 42.5398 92.4515 41.7664V34.9602C92.4515 34.1352 91.7812 33.4648 90.9562 33.4648ZM91.9874 41.7664C91.9874 42.3336 91.5234 42.7977 90.9562 42.7977H77.3437C76.7765 42.7977 76.3124 42.3336 76.3124 41.7664V34.9602C76.3124 34.393 76.7765 33.9289 77.3437 33.9289H90.9562C91.5234 33.9289 91.9874 34.393 91.9874 34.9602V41.7664Z" fill="#005685"/>
<path d="M99.3093 33.8242H94.514C93.8953 33.8242 93.3796 34.3398 93.3796 34.9586V51.3039C93.3796 51.407 93.4828 51.5102 93.5859 51.5102H100.237C100.341 51.5102 100.444 51.407 100.444 51.3039V34.9586C100.444 34.3398 99.9281 33.8242 99.3093 33.8242ZM100.031 51.0461H93.7921V34.9586C93.7921 34.5461 94.1015 34.2367 94.514 34.2367H99.3093C99.7218 34.2367 100.031 34.5461 100.031 34.9586V51.0461Z" fill="#005685"/>
<path d="M105.239 47.1797C103.95 47.1797 102.248 46.7672 101.939 45.1172C101.527 42.8484 101.269 31.8656 101.217 31.4016C101.217 31.2984 101.32 31.1953 101.423 31.1953C101.578 31.1953 101.63 31.2984 101.63 31.4016C101.63 31.5047 101.887 42.7969 102.3 45.0141C102.661 47.025 105.755 46.6641 105.755 46.6641C105.858 46.6641 105.961 46.7156 106.012 46.8703C106.012 46.9734 105.961 47.0766 105.806 47.1281C105.652 47.1797 105.445 47.1797 105.239 47.1797Z" fill="#005685"/>
<path d="M73.5281 33.4648H66.7218C66 33.4648 65.3812 34.0836 65.3812 34.8055V51.3055C65.3812 51.4086 65.4843 51.5117 65.5875 51.5117H74.6625C74.7656 51.5117 74.8687 51.4086 74.8687 51.2539V34.8055C74.8687 34.0836 74.25 33.4648 73.5281 33.4648ZM74.4047 51.0477H65.7422V34.8055C65.7422 34.2898 66.1547 33.8773 66.6703 33.8773H73.4765C73.9922 33.8773 74.4047 34.2898 74.4047 34.8055V51.0477Z" fill="#005685"/>
<path d="M52.9031 48.418C51.3562 48.418 50.0671 49.707 50.0671 51.2539C50.0671 52.8008 51.3562 54.0898 52.9031 54.0898C54.5015 54.0898 55.739 52.8008 55.739 51.2539C55.739 49.707 54.45 48.418 52.9031 48.418ZM52.9031 53.6258C51.614 53.6258 50.5312 52.543 50.5312 51.2539C50.5312 49.9648 51.5625 48.882 52.9031 48.882C54.2437 48.882 55.275 49.9648 55.275 51.2539C55.275 52.543 54.2437 53.6258 52.9031 53.6258Z" fill="#005685"/>
<path d="M87.8109 48.418C86.264 48.418 84.975 49.707 84.975 51.2539C84.975 52.8008 86.264 54.0898 87.8109 54.0898C89.3578 54.0898 90.6469 52.8008 90.6469 51.2539C90.6469 49.707 89.3578 48.418 87.8109 48.418ZM87.8109 53.6258C86.5219 53.6258 85.439 52.543 85.439 51.2539C85.439 49.9648 86.4703 48.882 87.8109 48.882C89.1515 48.882 90.1828 49.9648 90.1828 51.2539C90.1828 52.543 89.1 53.6258 87.8109 53.6258Z" fill="#005685"/>
<path d="M112.664 54.6039H90.3891C90.2859 54.6039 90.1828 54.5008 90.1828 54.3977C90.1828 54.2945 90.2859 54.1914 90.3891 54.1914H112.664C112.767 54.1914 112.87 54.2945 112.87 54.3977C112.87 54.5008 112.767 54.6039 112.664 54.6039Z" fill="#005685"/>
<path d="M85.2328 54.8109H55.5844C55.4812 54.8109 55.3781 54.7078 55.3781 54.6047C55.3781 54.5016 55.4812 54.3984 55.5844 54.3984H85.2328C85.3359 54.3984 85.439 54.5016 85.439 54.6047C85.439 54.7078 85.3359 54.8109 85.2328 54.8109Z" fill="#005685"/>
<path d="M107.92 35.8879L107.817 34.7535C107.766 34.2379 107.353 33.877 106.837 33.877H101.681C101.578 33.877 101.475 33.9801 101.475 34.0832L101.423 35.0113C101.423 35.0629 101.423 35.1145 101.475 35.166C101.527 35.2176 101.578 35.2176 101.63 35.2176H106.167L106.425 36.0426L106.683 36.6613L106.734 36.7129C106.837 36.816 106.992 36.8676 107.147 36.8676C107.25 36.8676 107.302 36.816 107.353 36.8676C107.662 36.7129 107.972 36.3004 107.92 35.8879ZM107.25 36.4035C107.147 36.4551 107.147 36.4035 107.095 36.4035L106.528 34.9082C106.477 34.8051 106.425 34.7535 106.322 34.7535H101.887L101.939 34.2379H106.889C107.198 34.2379 107.405 34.4957 107.456 34.7535L107.559 35.8879C107.559 36.0941 107.405 36.3004 107.25 36.4035Z" fill="#005685"/>
<path d="M93.5859 51.5102H91.8843C91.7812 51.5102 91.6781 51.407 91.6781 51.3039C91.6781 51.2008 91.7812 51.0977 91.8843 51.0977H93.5859C93.689 51.0977 93.7922 51.2008 93.7922 51.3039C93.7922 51.407 93.689 51.5102 93.5859 51.5102Z" fill="#005685"/>
<path d="M65.5875 51.5102H56.9765C56.8734 51.5102 56.7703 51.407 56.7703 51.3039C56.7703 51.2008 56.8734 51.0977 56.9765 51.0977H65.5875C65.6906 51.0977 65.7937 51.2008 65.7937 51.3039C65.7937 51.407 65.6906 51.5102 65.5875 51.5102Z" fill="#005685"/>
<path d="M117.356 64.866L117.305 64.8145H117.15C117.15 64.8145 117.15 64.8145 117.098 64.8145L110.55 67.2379C110.498 67.2895 110.447 67.341 110.447 67.4441V82.3457C110.447 82.3973 110.498 82.4488 110.55 82.5004C110.55 82.552 110.602 82.552 110.653 82.552H110.705L117.202 80.1801L117.305 80.1285C117.356 80.077 117.408 80.0254 117.408 79.9223V68.7848C117.15 68.1145 117.047 67.4957 117.047 66.9285C117.047 66.3098 117.15 65.7426 117.408 65.227C117.408 65.1754 117.408 65.1754 117.408 65.1238V64.9691C117.408 64.9176 117.408 64.9176 117.356 64.866ZM110.808 67.5988L116.944 65.3301C116.738 65.8457 116.634 66.3613 116.634 66.9285C116.634 67.5473 116.738 68.166 116.995 68.8879V79.7676L110.808 82.0879V67.5988Z" fill="#005685"/>
<path d="M117.253 65.3297C117.202 65.3297 117.202 65.3297 117.253 65.3297C117.15 65.3297 117.047 65.2266 117.047 65.1234V64.9688C117.047 64.9172 117.098 64.8141 117.15 64.8141C117.202 64.7625 117.305 64.7625 117.356 64.8141L117.408 64.8656C117.459 64.9172 117.511 65.0203 117.459 65.1234L117.408 65.2266C117.356 65.2781 117.305 65.3297 117.253 65.3297Z" fill="#005685"/>
<path d="M123.905 70.7957C123.905 70.7441 123.853 70.7441 123.802 70.7441C123.75 70.7441 123.647 70.7957 123.595 70.8473C122.616 72.3426 121.481 73.6316 121.069 74.0441C120.502 73.477 118.336 71.2598 117.408 68.8879C117.408 68.8363 117.356 68.7848 117.356 68.7848C117.356 68.7332 117.253 68.6816 117.15 68.6816C117.047 68.7332 116.995 68.7848 116.995 68.8879V79.9223C116.995 79.9738 117.047 80.0254 117.098 80.077L117.202 80.1801L123.544 84.9238L123.647 85.027C123.647 85.027 123.647 85.027 123.647 85.0785H123.698C123.75 85.0785 123.802 85.0785 123.75 84.9238C123.802 84.9238 123.853 84.8207 123.853 84.7691V71.002C123.956 70.8988 123.956 70.8473 123.905 70.7957ZM117.408 79.8191V69.816C118.594 72.3426 120.863 74.4566 120.966 74.5598C121.017 74.6629 121.172 74.6113 121.223 74.5598C121.275 74.5082 122.461 73.2707 123.595 71.6723V84.4082L117.408 79.8191Z" fill="#005685"/>
<path d="M123.802 85.0258C123.698 85.0258 123.647 84.9742 123.595 84.9227C123.544 84.8195 123.595 84.7164 123.698 84.6648L130.144 82.2414V67.7523L124.678 69.8148C124.575 69.8664 124.472 69.8148 124.42 69.7117C124.369 69.6086 124.42 69.5055 124.523 69.4539L130.298 67.3398C130.35 67.3398 130.402 67.3398 130.453 67.3398C130.505 67.3914 130.556 67.443 130.556 67.4945V82.3961C130.556 82.4992 130.505 82.5508 130.453 82.6023L123.802 85.0258C123.853 85.0258 123.853 85.0258 123.802 85.0258Z" fill="#005685"/>
<path d="M121.12 62.6484C119.522 62.6484 118.13 63.525 117.408 64.8141C117.408 64.8141 117.408 64.8141 117.408 64.8656C117.356 64.9172 117.356 64.9687 117.305 65.0719C117.305 65.1234 117.253 65.1234 117.253 65.175C117.253 65.2266 117.202 65.2781 117.202 65.2781C116.995 65.7422 116.892 66.3609 116.892 66.9281C116.892 67.4953 116.995 68.0625 117.202 68.6297C117.202 68.6813 117.253 68.7844 117.253 68.8359C117.305 68.9906 117.408 69.1453 117.459 69.3516C118.645 71.9812 121.172 74.3531 121.172 74.3531C121.172 74.3531 122.616 72.8578 123.853 71.0016C123.905 70.95 123.956 70.8984 123.956 70.7953C124.163 70.4859 124.369 70.125 124.523 69.7641C124.575 69.6609 124.627 69.6094 124.627 69.5063C124.678 69.4547 124.678 69.4031 124.73 69.3516C125.142 68.475 125.4 67.5984 125.4 66.825C125.452 64.5563 123.492 62.6484 121.12 62.6484ZM122.719 69.0938C122.255 69.4031 121.739 69.6094 121.12 69.6094C119.625 69.6094 118.439 68.4234 118.439 66.9281C118.439 66.6188 118.491 66.3094 118.594 66.0516C118.955 65.0203 119.934 64.2469 121.12 64.2469C122.616 64.2469 123.802 65.4328 123.802 66.9281C123.802 67.8047 123.389 68.5781 122.719 69.0938Z" stroke="#005685" stroke-miterlimit="10"/>
<path d="M121.12 63.9883C119.883 63.9883 118.8 64.8133 118.388 65.9477C118.284 66.257 118.233 66.5664 118.233 66.8758C118.233 68.4742 119.522 69.7633 121.12 69.7633C121.739 69.7633 122.358 69.6086 122.822 69.1961C123.544 68.6805 124.008 67.8039 124.008 66.8758C124.008 65.2773 122.719 63.9883 121.12 63.9883ZM118.594 66.9273C118.594 66.618 118.645 66.3602 118.748 66.1023C119.109 65.0711 120.038 64.4008 121.12 64.4008C122.513 64.4008 123.647 65.5352 123.544 66.9273C123.544 67.7008 123.183 68.4742 122.513 68.9383C122.1 69.2477 121.584 69.4023 121.069 69.4023C119.728 69.4023 118.594 68.3195 118.594 66.9273Z" fill="#005685"/>
<path d="M52.9032 0C58.4719 4.64062 56.925 13.5609 50.1188 16.0875L23.8219 25.8844C20.7282 27.0188 18.511 29.7 17.8407 32.8969L15.7782 43.2609C14.6438 49.0875 19.0782 54.5531 25.0594 54.5531H50.5313" stroke="#005685" stroke-miterlimit="10"/>
<path d="M112.303 54.3473H148.912C152.522 54.3473 155.409 51.4082 155.409 47.8504V42.952C155.409 39.3426 152.47 36.4551 148.912 36.4551C145.303 36.4551 142.416 39.3941 142.416 42.952V89.0488C142.416 90.1316 141.539 90.9566 140.508 90.9566C139.425 90.9566 138.6 90.0801 138.6 89.0488C138.6 85.3363 135.609 82.3457 131.897 82.3457H130.298" stroke="#005685" stroke-miterlimit="10"/>
<path d="M85.4391 96.6797V108.436C85.4391 111.736 88.1203 114.469 91.4719 114.469H119.934C125.813 114.469 130.608 119.264 130.608 125.142C130.608 131.02 125.813 135.816 119.934 135.816H115.448C109.57 135.816 104.775 131.072 104.775 125.142L104.672 88.275C104.672 84.9234 107.353 82.2422 110.705 82.2422" stroke="#005685" stroke-miterlimit="10"/>
<path d="M34.3922 76.4148V143.652H30.525V76.4148V65.9992V63.7305H34.3922" stroke="#005685" stroke-miterlimit="10"/>
<path d="M30.525 76.4148H49.0875V63.7305H30.525V65.9992V76.4148Z" stroke="#005685" stroke-miterlimit="10"/>
<path d="M30.525 143.652H76.3125" stroke="#005685" stroke-miterlimit="10"/>
</g>
<defs>
<clipPath id="clip0_112_75">
<rect width="165" height="165" fill="white"/>
</clipPath>
</defs>
</svg>
