<?xml version="1.0" encoding="utf-8"?>
<!-- Generator: Adobe Illustrator 26.4.1, SVG Export Plug-In . SVG Version: 6.00 Build 0)  -->
<svg version="1.1" id="Layer_1" xmlns="http://www.w3.org/2000/svg" xmlns:xlink="http://www.w3.org/1999/xlink" x="0px" y="0px"
	viewBox="0 0 2400 2000" style="enable-background:new 0 0 2400 2000;">
	<g>
		<g>
			<g>
				<path fill="#FFFFFF" d="M985.1,1141c-1.7,0-2.9-1.2-2.9-2.9c0-0.6,0-1.7,0.6-2.3c0.6-0.6,1.2-1.2,2.3-1.2
				c20.3-0.6,24.4-9.3,24.9-27.3c0-1.7,1.2-2.9,2.3-2.9c2.3-0.6,2.9-1.2,2.9-1.2s0.6-1.2-1.2-5.8c-3.5-8.1-4.1-13.3-4.1-23.8
				c-1.2-24.9,0-24.9,1.7-24.9s2.9,0,4.1,24.9c0,9.9,0.6,14.5,3.5,21.5c2.3,5.2,2.3,8.1,1.2,11c-1.2,1.7-2.9,2.9-4.6,3.5
				C1014.7,1129.4,1008.8,1140.4,985.1,1141L985.1,1141z M985.1,1139.2L985.1,1139.2L985.1,1139.2z M985.1,1137.5L985.1,1137.5
				L985.1,1137.5L985.1,1137.5L985.1,1137.5z M985.1,1137.5L985.1,1137.5L985.1,1137.5L985.1,1137.5L985.1,1137.5z" />
			</g>
		</g>
		<g>
			<g>
				<path fill="#FFFFFF" d="M976.9,1171.1L976.9,1171.1h-1.7v-1.7c-1.7-16.8,0-27.8,4.6-32.5c2.9-2.9,5.2-2.3,5.8-2.3s1.7,0.6,2.3,1.2
				c0.6,0.6,0.6,1.2,0.6,2.3c0,1.7-1.7,2.9-3.5,2.9c0,0-0.6,0-0.6,0.6c-0.6,1.2-2.3,9.3-4.6,24.4
				C978.7,1171.1,978.1,1171.1,976.9,1171.1z M979.3,1145c-0.6,1.2-0.6,2.9-1.2,4.6C978.7,1147.9,979.3,1146.2,979.3,1145z" />
			</g>
		</g>
		<g>
			<g>
				<path fill="#FFFFFF" d="M947.4,1171.1h-1.2c-1.7-0.6-2.3-2.3-1.7-4.1c9.9-29.6,5.2-55.1,5.2-56.3c0-0.6,0-1.7,0.6-2.3
				c0.6-0.6,1.2-1.2,1.7-1.2c0.6,0,1.7,0,2.3,0.6s1.2,1.2,1.2,1.7c0,0,5.2,27.8-5.2,59.7C949.7,1170.5,948.5,1171.1,947.4,1171.1z
				 M952,1110.2L952,1110.2L952,1110.2L952,1110.2z" />
			</g>
		</g>
		<g>
			<g>
				<path fill="#FFFFFF" d="M1026.3,1279h-0.6c-0.6,0-1.2-0.6-1.7-1.2c-0.6-0.6-0.6-1.7-0.6-2.3c2.9-9.9,4.6-20.9-0.6-36.5
				c-7-22-31.9-61.5-32.5-63.2c-0.6-0.6-0.6-1.7-0.6-2.3c0-0.6,0.6-1.7,1.2-1.7c1.7-1.2,3.5-0.6,4.1,1.2c0,0.6,26.1,41.8,33.6,65
				c5.2,16.8,3.5,29,0.6,40C1028.6,1278.4,1027.4,1279,1026.3,1279z M1026.8,1276.1C1026.8,1276.1,1026.3,1276.1,1026.8,1276.1
				L1026.8,1276.1L1026.8,1276.1z M992,1174L992,1174L992,1174z" />
			</g>
		</g>
		<g>
			<g>
				<path fill="#FFFFFF" d="M1078.5,1287.7c-9.3,0-36-12.8-51-23.8c-0.6-0.6-1.2-1.2-1.2-2.3c0-0.6,0-1.7,0.6-2.3
				c1.2-1.2,2.9-1.7,4.1-0.6c13.9,11,39.4,22.6,47,22.6c23.2-1.2,95.1-35.4,98.6-38.9c0.6-1.2,2.3-1.2,4.1-0.6
				c0.6,0.6,1.2,1.2,1.2,1.7c0,0.6,0,1.7-0.6,2.3c-3.5,5.2-79.5,40-102.7,41.2V1287.7z M1179.4,1245.4L1179.4,1245.4L1179.4,1245.4z
				" />
			</g>
		</g>
		<g>
			<g>
				<path fill="#FFFFFF" d="M1077.9,1258.7c-0.6,0-0.6,0-0.6,0c-0.6,0-1.2,0-1.2-0.6c-19.7-12.8-56.8-37.1-68.5-55.1
				c-1.2-1.2-0.6-3.5,0.6-4.1c1.2-1.2,3.5-0.6,4.1,0.6c11,16.8,47,40,66.1,52.8c4.1,0,26.7-2.3,96.3-28.4c0.6,0,1.7,0,2.3,0
				c0.6,0.6,1.2,1.2,1.7,1.7c0.6,1.7,0,3.5-1.7,4.1C1102.8,1257.6,1081.4,1258.7,1077.9,1258.7z" />
			</g>
		</g>
		<g>
			<path fill="#FFFFFF" d="M904.4,1245.4c-12.8,0-20.3-5.8-23.8-10.4c-11-13.9-9.3-41.2,5.8-67.3c18.6-33.1,24.9-67.3,30.7-98
			c1.2-7,2.3-13.3,3.5-19.1c8.1-37.7,49.9-45.2,50.5-45.2s0.6,0,1.2,0c16.8-2.9,33.1,0.6,49.3,9.3c10.4,5.8,12.8,11.6,12.2,15.1
			c0,3.5-2.3,7-5.8,9.3c-1.7,1.2-3.5,1.2-5.2,1.7c1.2,4.1,0,6.4-1.7,7.5c-3.5,2.9-9.9,1.2-12.2-1.2l0,0c-7.5,11-13.9,13.9-19.7,17.4
			c-4.1,2.3-8.7,4.6-12.8,9.3c-9.3,10.4-11,27.3-4.6,58.6c2.3,11.6,11.6,21.5,20.3,30.7c12.8,13.9,24.4,26.7,17.4,44.1
			c-4.1,9.3-8.1,13.9-12.8,14.5c-8.1,1.2-15.1-7.5-23.2-18c-2.3-2.9-4.1-5.2-6.4-8.1c-5.2-6.4-11-9.3-16.2-8.7
			c-11,0.6-19.1,13.3-19.1,13.9c-9.9,20.3-6.4,38.3-6.4,38.9l0.6,2.9l-2.3,0.6C916,1244.8,909.7,1245.4,904.4,1245.4z M971.7,1011.6
			c-2.3,0.6-38.3,7.5-45.2,40.6c-1.2,5.8-2.3,12.2-3.5,18.6c-5.8,30.7-12.8,66.1-31.3,99.8c-13.3,23.8-15.7,48.1-6.4,60.9
			c6.4,8.1,18,10.4,33.1,6.4c-0.6-6.4-1.2-22,7.5-40c0.6-0.6,9.9-16.2,24.4-17.4c7.5-0.6,15.1,2.9,21.5,11c2.3,2.9,4.6,5.2,6.4,8.1
			c6.4,8.1,13.3,16.8,18,16.2c2.9-0.6,5.8-4.1,8.7-11c5.8-13.9-5.2-25.5-16.2-37.7c-9.3-10.4-19.1-20.9-21.5-33.6
			c-7-33.1-5.2-51,5.8-63.2c5.2-5.8,9.9-8.1,14.5-10.4c5.2-2.9,11-5.8,17.4-15.1c0.6-1.7,1.2-2.9,2.9-3.5c2.9-1.2,5.8,1.2,6.4,2.3
			c1.2,1.2,4.1,1.7,4.6,1.2c0,0,0-1.7-2.3-5.2c-1.7-1.7-1.2-3.5-0.6-4.6c1.7-2.3,4.6-0.6,7,0.6c0.6,0,1.7,0,3.5-0.6
			c1.7-1.2,2.9-2.3,2.9-4.1c0-2.9-3.5-6.4-9.3-9.9c-22-12.8-39.4-9.9-45.2-8.7C972.3,1011.6,972.3,1011.6,971.7,1011.6z" />
		</g>
		<g>
			<g>
				<path fill="#FFFFFF" d="M1208.4,1247.7c-0.6,0-1.2,0-1.2-0.6l-29-15.1c-1.2-0.6-1.7-1.7-1.7-2.9v-8.7c0-1.7,1.2-2.9,2.9-2.9
				c1.7,0,2.9,1.2,2.9,2.9v6.4l24.4,12.8l26.7-51v-5.8c0-1.7,1.2-2.9,2.9-2.9c1.7,0,2.9,1.2,2.9,2.9v8.1c0,0.6,0,1.2-0.6,1.2
				l-28.4,53.9C1209.6,1246.5,1209,1247.1,1208.4,1247.7L1208.4,1247.7z" />
			</g>
		</g>
		<g>
			<g>
				<path fill="#FFFFFF" d="M1208.4,1239.6c-0.6,0-1.2,0-1.2-0.6l-29-15.1c-0.6-0.6-1.2-1.2-1.7-1.7c0-0.6,0-1.7,0-2.3l28.4-53.9
				c0.6-0.6,1.2-1.2,1.7-1.7c0.6,0,1.7,0,2.3,0l29,15.1c0.6,0.6,1.2,1.2,1.7,1.7c0,0.6,0,1.7,0,2.3l-28.4,53.9
				C1210.1,1239,1209.6,1239.6,1208.4,1239.6z M1183.5,1219.8l23.8,12.2l25.5-48.7l-23.8-12.2L1183.5,1219.8z" />
			</g>
		</g>
		<g>
			<g>
				<path fill="#FFFFFF" d="M1177.1,1250L1177.1,1250c-1.2,0-2.3-0.6-2.9-1.2c-0.6-0.6-1.2-1.2-1.2-2.3c0-1.7,1.2-2.9,2.9-2.9h0.6l0,0
				c8.1,0,21.5-1.2,25.5-3.5c0.6-0.6,1.7-0.6,2.3-0.6s1.7,0.6,1.7,1.2c0.6,0.6,0.6,1.7,0.6,2.3c0,0.6-0.6,1.7-1.2,1.7
				C1199.7,1249.4,1182.3,1250,1177.1,1250z M1177.1,1246.5L1177.1,1246.5C1177.1,1247.1,1177.1,1246.5,1177.1,1246.5z
				 M1177.1,1246.5L1177.1,1246.5v-1.2V1246.5z" />
			</g>
		</g>
		<g>
			<g>
				<path fill="#FFFFFF" d="M1171.9,1232h-1.2c-0.6,0-1.2-0.6-1.7-1.7c-0.6-0.6-0.6-1.7,0-2.3c0.6-2.3,3.5-10.4,3.5-13.9
				c0-2.9,2.3-6.4,6.4-12.2c2.9-4.1,5.8-8.7,7.5-12.2c2.3-5.2,5.2-6.4,7-5.8c2.3,0,4.6,1.7,5.8,4.6c0,0.6,0,1.7,0,2.3
				c-0.6,0.6-1.2,1.2-1.7,1.7c-1.7,0.6-3.5,0-4.1-1.7c0,0,0,0,0-0.6c0,0.6-0.6,1.2-1.2,1.7c-1.7,4.1-5.2,9.3-8.1,13.3
				c-2.3,2.9-5.2,8.1-5.8,9.3c0,4.1-2.9,13.3-3.5,15.1C1174.2,1230.9,1173,1232,1171.9,1232z" />
			</g>
		</g>
		<g>
			<g>
				<path fill="#FFFFFF" d="M1210.7,1243.6c-1.2,0-2.9-1.2-2.9-2.3c0-0.6,0-1.7,0.6-2.3c0.6-0.6,1.2-1.2,1.7-1.2
				c6.4-1.2,17.4-13.9,18.6-22c0.6-2.3,1.2-4.6,2.3-6.4c-1.2,1.2-1.7,2.9-2.9,4.1c-0.6,0.6-1.2,1.2-1.7,1.2s-1.7,0-2.3-0.6
				c-1.2-1.2-1.7-2.9-1.2-4.1c11-16.8,14.5-17.4,15.7-17.4s2.3,0.6,2.9,1.2c2.3,2.9,0.6,6.4-2.3,11.6c-1.7,3.5-4.1,7.5-4.6,11.6
				C1232.8,1227.4,1220,1241.9,1210.7,1243.6L1210.7,1243.6z" />
			</g>
		</g>
		<g>
			<g>
				<path fill="#FFFFFF" d="M941.6,1251.2c-1.2,0-1.7-0.6-2.3-1.2l0,0c-0.6-0.6-0.6-0.6-0.6-1.2c-0.6-0.6-0.6-1.7,0-2.3s1.2-1.2,1.7-1.7
				c26.1-9.9,46.4-1.7,47-1.7c1.7,0.6,2.3,2.3,1.7,4.1c0,0.6-1.2,1.7-1.7,1.7c-0.6,0.6-1.7,0.6-2.3,0c0,0-19.1-7-42.3,1.7
				C942.1,1251.2,942.1,1251.2,941.6,1251.2z" />
			</g>
		</g>
		<g>
			<g>
				<path fill="#FFFFFF" d="M988,1415.9c-0.6,0-1.2,0-1.7-0.6c0,0-16.8-11-41.8-7.5c-1.2,0-2.3-0.6-3.5-1.7l0,0c0-0.6-0.6-0.6-0.6-1.2
				c0-1.2,0-1.7,0.6-2.3c0.6-0.6,1.2-1.2,2.3-1.2c27.3-4.1,45.2,8.1,46.4,8.7c1.7,1.2,1.7,2.9,1.2,4.6c-0.6,0.6-1.2,1.2-1.7,1.2
				C988.5,1415.9,988,1415.9,988,1415.9z" />
			</g>
		</g>
		<g>
			<g>
				<path fill="#FFFFFF" d="M1024.5,1238.4h-1.2c-0.6,0-1.2-0.6-1.7-1.7c-0.6-0.6-0.6-1.7,0-2.3c2.3-7.5,7.5-12.2,8.1-12.8
				c0.6-0.6,1.2-1.2,2.3-0.6c0.6,0,1.7,0.6,2.3,1.2c1.2,1.2,1.2,2.9,0,4.1c0,0-4.6,4.6-6.4,10.4
				C1027.4,1237.8,1025.7,1238.4,1024.5,1238.4z" />
			</g>
		</g>
		<g>
			<g>
				<path fill="#FFFFFF" d="M1235.7,1171.7c-2.9,0-5.2-1.2-6.4-2.3c-2.3-2.9-3.5-7.5,1.7-13.9c0.6-0.6,5.8-10.4,1.2-20.3
				c-4.6-9.9-16.8-16.8-36.5-20.9c-60.9-12.2-73.7-80.6-67.3-114.9c3.5-16.8,15.7-30.2,33.6-36c18.6-6.4,37.7-2.9,50.5,9.3
				c10.4,9.9,20.9,29,12.2,65.6c-8.7,36.5-4.6,39.4,9.3,47.6c5.2,2.9,11.6,7,19.1,13.3c12.8,11.6,15.1,24.4,15.1,33.1
				c-0.6,13.3-7.5,26.7-18.6,34.8C1243.8,1170,1239.7,1171.7,1235.7,1171.7z M1180,966.3c-5.2,0-11,1.2-16.2,2.9
				c-15.7,5.2-26.7,16.8-29.6,31.3c-6.4,31.9,5.8,96.3,62.7,107.9c22,4.6,36,12.8,41.2,24.9c5.8,13.3-1.7,25.5-1.7,26.1v0.6
				c-2.3,2.3-2.9,4.6-2.3,5.8c1.2,1.2,5.2,1.2,11.6-3.5c9.3-7,15.7-18.6,16.2-30.2c0.6-7.5-1.7-18.6-12.8-27.8
				c-7-5.8-12.8-9.9-18-12.8c-15.1-8.7-22-12.8-11.6-53.9c8.1-34.2-1.2-51-10.4-59.7C1200.9,970.4,1191,966.3,1180,966.3z" />
			</g>
		</g>
		<g>
			<g>
				<g>
					<g>
						<path fill="#FFFFFF" d="M1196.2,1044.1h-48.1c-1.7,0-3.5-0.6-4.1-2.3c-0.6-1.2-0.6-2.9,0.6-4.6l5.8-8.7c0.6-0.6,0.6-1.2,1.2-1.2
						v-0.6l1.2-20.3c0-1.2,0-1.7,0.6-2.3c1.2-8.7,9.3-15.7,19.7-15.7c10.4,0,18.6,7,19.7,15.7c0,0.6,0,1.7,0.6,2.3l1.2,20.3
						c0,0.6,0,0.6,0,1.2s0.6,0.6,0.6,1.2l5.8,8.7c1.2,1.2,1.2,2.9,0.6,4.6C1199.1,1042.9,1198,1044.1,1196.2,1044.1z M1151.6,1037.7
						h41.2l-4.1-5.8c0-0.6-0.6-0.6-0.6-1.2c-1.2-1.2-1.2-2.3-1.2-4.1l-1.2-20.9l-0.6-0.6v-1.2c-0.6-5.8-6.4-10.4-13.3-10.4
						c-7.5,0-13.3,4.6-13.3,10.4l-1.2,22c0,1.7,0,2.9-1.2,4.1c0,0-0.6,0.6-0.6,1.2L1151.6,1037.7z" />
					</g>
				</g>
			</g>
			<g>
				<g>
					<g>
						<path fill="#FFFFFF" d="M1172.4,1055.7c-7.5,0-12.8-8.7-13.3-9.3c-0.6-1.2-1.2-2.9,0-4.1c0.6-1.2,2.3-2.3,4.1-2.3h19.1
						c1.7,0,3.5,0.6,4.1,2.3c0.6,1.2,0.6,2.9,0,4.1C1185.2,1047,1180,1055.7,1172.4,1055.7z M1166.1,1045.8c1.7,1.7,3.5,3.5,5.8,3.5
						c2.3,0,4.1-1.7,5.8-3.5H1166.1z" />
					</g>
				</g>
			</g>
		</g>
		<g>
			<path fill="#FFFFFF" d="M1050.6,1743.1c-3.5,0-7-0.6-10.4-2.3c-0.6,0-1.2-0.6-1.2-1.2c-9.3-15.1-18-30.2-24.9-44.7
			c-2.9-5.8-5.2-11-7.5-16.8c-9.9-23.8-16.2-45.2-18-64.4c-1.2-10.4-1.2-20.3,0.6-29c0-1.7,0.6-2.9,1.2-4.6l-1.2-7.5
			c-0.6-2.3-1.2-5.2-1.7-8.7c-0.6-2.3-0.6-4.6-1.2-7l-0.6-3.5c0-0.6,0-1.2,0-1.7c3.5-13.3,6.4-27.8,9.3-43.5
			c3.5-17.4,7-37.1,9.9-60.3c0-1.7,1.7-2.9,3.5-2.9s2.9,1.7,2.9,3.5c-3.5,23.2-7,42.9-10.4,60.3c-2.9,15.7-5.8,30.2-9.3,43.5l0,0
			l0.6,2.9c0.6,2.3,0.6,4.6,1.2,7c0.6,3.5,1.2,6.4,1.7,8.7l1.7,8.1c0,0.6,0,1.2,0,1.2c-0.6,1.7-0.6,3.5-1.2,5.2
			c-1.7,8.1-1.7,17.4-0.6,27.3c1.7,18.6,7.5,39.4,17.4,62.7c2.3,5.2,4.6,10.4,7.5,16.2c7,14.5,15.1,29,23.8,42.9
			c2.9,1.2,5.2,1.7,8.1,1.2c1.7,0,4.1-0.6,5.8-1.7c-2.9-13.9-5.8-27.8-8.1-40.6l-1.2-5.2c-0.6-3.5-1.2-7.5-1.7-11
			c-4.6-26.7-7-48.7-8.1-65.6c-0.6-9.9-0.6-17.4,0-23.2c0-2.3,0.6-4.6,0.6-6.4c1.7-9.9,3.5-19.7,4.6-29.6v-1.7
			c1.7-13.9,2.9-28.4,3.5-42.9c0.6-17.4,0-33.6-1.2-51c-0.6-5.8-1.2-11-1.7-16.2c0-1.7,1.2-3.5,2.9-3.5c1.7,0,3.5,1.2,3.5,2.9
			c0.6,5.2,1.2,10.4,1.7,16.2c1.2,17.4,1.7,34.2,1.2,51.6c-0.6,14.5-1.7,29.6-3.5,43.5v1.7c-1.2,9.9-2.9,19.7-4.6,29.6
			c-0.6,1.7-0.6,3.5-0.6,5.8c-0.6,5.8-0.6,13.3,0,22.6c0.6,16.8,3.5,38.3,8.1,64.4c0.6,3.5,1.2,7.5,1.7,11l1.2,5.2
			c2.3,13.9,5.8,28.4,8.7,42.9c0.6,1.2-0.6,2.9-1.7,3.5c-2.9,1.7-6.4,3.5-10.4,3.5C1051.8,1743.1,1051.2,1743.1,1050.6,1743.1z" />
		</g>
		<g>
			<path fill="#FFFFFF" d="M932.3,1744.3c-8.1,0-14.5-4.6-18.6-8.1c-0.6-0.6-0.6-1.2-0.6-1.7c-2.9-13.3-5.2-27.3-6.4-41.2
			c-0.6-6.4-0.6-11.6-1.2-16.8c-0.6-26.7,2.9-50.5,11-71.4c2.9-7.5,6.4-14.5,9.9-20.9l0,0v-0.6c0-1.2,0-2.9-0.6-5.2
			c-0.6-3.5-1.2-8.7-1.7-15.1c0-2.3-0.6-5.8-0.6-9.3v-2.9c-0.6-11.6-1.2-26.7-2.3-43.5c-0.6-14.5-1.7-27.8-2.3-39.4
			c-0.6-9.9-1.2-19.1-1.7-27.8c0-1.7,1.2-3.5,2.9-3.5s3.5,1.2,3.5,2.9c0.6,8.7,1.2,17.4,1.7,27.3c1.2,11.6,1.7,24.9,2.3,39.4
			c0.6,16.2,1.2,31.9,2.3,42.9v2.9c0,3.5,0.6,6.4,0.6,9.3c0.6,6.4,1.2,11.6,1.7,15.1c0,1.7,0.6,3.5,0.6,4.6v0.6c0,1.7,0,2.9-1.2,4.6
			c-3.5,5.8-7,12.8-9.3,20.3c-7.5,19.7-11,42.9-10.4,69c0,5.8,0.6,11,0.6,16.2c1.2,12.8,2.9,26.1,5.8,38.9c2.9,2.9,7.5,5.8,13.3,5.8
			l0,0c3.5-16.8,6.4-31.3,9.3-45.2l3.5-16.2c5.2-24.4,10.4-42.9,14.5-55.7c2.3-7.5,4.6-13.3,7-16.8c3.5-5.2,6.4-12.2,9.3-20.3
			c2.3-6.4,4.6-13.3,7-23.2c0.6-2.3,1.2-5.2,1.7-7.5c0-0.6,0-1.7,0.6-2.3c2.9-12.8,6.4-26.7,9.3-41.8c3.5-17.4,7-37.1,9.9-60.3
			c0-1.7,1.7-2.9,3.5-2.9s2.9,1.7,2.9,3.5c-3.5,23.2-7,42.9-10.4,60.3c-2.9,15.7-5.8,30.2-9.3,43.5c0,0,0,0,0,0.6v0.6
			c-0.6,2.9-1.2,5.8-2.3,8.7c-2.9,9.9-5.2,17.4-7.5,23.8c-2.9,8.7-6.4,16.2-9.9,22c-1.7,2.9-4.1,8.1-6.4,15.7
			c-4.1,12.8-8.7,31.3-14.5,55.1l-3.5,16.2c-2.9,14.5-6.4,30.2-9.9,47.6c0,1.2-1.2,2.3-2.9,2.9
			C934.6,1744.3,933.4,1744.3,932.3,1744.3z" />
		</g>
		<g>
			<path fill="#FFFFFF" d="M968.8,1772.1h-61.5c-1.7,0-2.9-1.2-3.5-2.9c-0.6-4.1,0-10.4,2.3-15.7c1.2-2.3,2.3-4.1,3.5-5.8
			c2.3-3.5,4.1-5.8,2.9-10.4c0-1.2,0.6-2.9,1.7-3.5c1.2-0.6,2.9-0.6,3.5,0.6c5.2,5.2,10.4,7,16.2,6.4c1.2,0,2.9,0.6,3.5,1.7
			c3.5,5.2,7.5,11.6,9.9,12.8c0.6,0.6,3.5,1.2,5.2,1.7c6.4,1.2,15.7,3.5,18.6,11c0.6,1.2,0,2.3-0.6,2.9
			C971.1,1771.5,970,1772.1,968.8,1772.1z M910.2,1765.1h50.5c-2.9-1.2-6.4-1.7-9.3-2.9c-3.5-0.6-5.8-1.2-7.5-2.3
			c-3.5-2.3-8.1-9.3-10.4-13.3c-5.2,0.6-9.9-1.2-14.5-4.1c-0.6,2.9-2.3,5.8-4.1,8.1c-1.2,1.7-1.7,2.9-2.9,5.2
			C910.8,1758.8,910.8,1762.8,910.2,1765.1z" />
		</g>
		<g>
			<path fill="#FFFFFF" d="M1102.8,1772.7h-61.5c-1.7,0-2.9-1.2-3.5-2.9c-0.6-2.9-1.2-10.4,2.9-16.2c2.3-4.6,1.7-6.4-0.6-11
			c-0.6-1.2-0.6-2.9,0.6-3.5c1.2-1.2,2.3-1.2,3.5-0.6c2.9,1.2,5.8,1.7,8.7,1.7c2.3,0,5.8-1.7,7.5-2.9c1.2-0.6,2.9-0.6,4.1,0.6
			l1.7,1.7c3.5,4.1,12.8,13.9,15.1,16.2c0.6,0.6,3.5,1.2,5.2,1.2c6.4,1.2,15.7,3.5,18.6,11c0.6,1.2,0,2.3-0.6,2.9
			C1105.1,1772.1,1104,1772.7,1102.8,1772.7z M1044.2,1766.3h51c-2.9-1.2-5.8-1.7-9.3-2.3c-3.5-0.6-5.8-1.2-7.5-2.3
			c-2.9-2.3-9.9-9.3-16.2-16.8l0,0c-2.3,1.2-5.2,2.3-8.1,2.3c-1.7,0-3.5,0-5.2,0c0.6,2.9,0.6,6.4-2.3,11
			C1044.8,1759.9,1044.2,1763.4,1044.2,1766.3z" />
		</g>
		<g>
			<g>
				<path fill="#FFFFFF" d="M955.5,1352.1h-1.7c-7.5,0-12.8-0.6-14.5-0.6h-0.6c-1.7,0-2.9-1.7-2.9-3.5c0-1.7,1.7-2.9,3.5-2.9
				c0,0,0,0,0.6,0c1.7,0,7,0.6,13.9,0.6h1.7v1.7c0,1.2,0,1.7,0,2.9V1352.1z" />
			</g>
			<g>
				<path fill="#FFFFFF" d="M981,1352.1v-6.4h1.7c9.3-0.6,18-1.7,25.5-2.9c0.6,0,1.7,0,2.3,0.6c0.6,0.6,1.2,1.2,1.2,1.7
				c0.6,1.7-0.6,3.5-2.3,3.5c-7.5,1.7-16.2,2.9-26.7,3.5H981z" />
			</g>
		</g>
		<g>
			<g>
				<path fill="#FFFFFF" d="M956.1,1362.6h-1.7c-3.5,0-6.4-0.6-8.7-0.6c-1.2,0-1.7,0-2.9-0.6c-1.2,0-1.7,0-2.3,0h-0.6
				c-0.6,0-0.6,0-0.6,0h-0.6c-1.2-0.6-1.7-1.7-1.7-2.9l0.6-1.7c0.6-1.2,1.7-1.7,2.9-1.7c0,0,0.6,0,1.7,0h0.6c2.3,0,6.4,0.6,12.2,1.2
				h1.7v1.7c0,1.2,0,1.7,0,2.9v1.7H956.1z" />
			</g>
			<g>
				<path fill="#FFFFFF" d="M980.4,1363.7v-1.7c0-0.6,0-1.2,0-1.2c0-0.6,0-0.6,0-1.2v-1.7h1.7c11,0,21.5-1.2,31.3-2.3h0.6
				c1.2,0,1.7,0,2.3,0.6c0.6,0.6,1.2,1.2,1.2,1.7c0.6,1.7-0.6,2.9-2.3,3.5l0,0l-2.3,0.6c-0.6,0-0.6,0-1.2,0c-1.7,0-3.5,0.6-5.2,0.6
				c-7.5,1.2-15.1,1.2-24.9,1.7L980.4,1363.7z" />
			</g>
		</g>
		<g>
			<g>
				<path fill="#FFFFFF" d="M922.4,1474.5c-8.7-23.2-4.1-52.8,1.7-74.3v-1.2c2.9-11.6,5.8-19.7,7-21.5v-0.6l0.6-0.6
				c0.6-1.2,1.2-2.3,1.2-4.1l0.6-1.7l0,0c0.6-3.5,1.2-5.8,1.7-8.7v-0.6c2.9-23.2-4.6-49.9-11.6-73.1l-0.6-2.9
				c-2.9-9.9-5.2-18.6-7-26.7c-1.2-4.6-1.2-8.7-1.7-12.8c0-1.2,0-2.9,0-4.1v-0.6v-0.6v-0.6c1.2-9.9,2.9-18.6,5.2-26.7
				c0-0.6,0-0.6,0-0.6c1.7-7,4.1-11.6,5.8-15.1c1.2-1.7,1.7-3.5,2.3-4.1c1.2-1.7,2.9-2.3,4.1-1.2c1.2,0.6,1.7,1.7,1.7,2.9
				c0,0.6,0,1.2-0.6,1.7l-0.6,0.6c-2.9,5.2-5.8,12.8-8.1,20.3v0.6l0,0c-1.7,5.8-2.9,11-3.5,16.2v2.3l0,0c0,0.6,0,1.2,0,1.7v1.7l0,0
				c-1.2,11,3.5,27.3,8.7,44.7c5.2,19.1,11.6,40.6,12.2,60.3c0,0.6,0,1.7,0,2.9c0,2.3,0,4.6,0,6.4v2.9c0,0.6,0,1.2,0,2.3
				c0,0.6,0,1.2,0,1.7c0,0,0,0.6,0,1.2c-0.6,2.3-0.6,4.6-1.2,7c0,0.6,0,1.2-0.6,1.2c0,0.6,0,1.2-0.6,1.2h-1.7l1.7,0.6v0.6
				c-0.6,1.7-1.2,2.9-1.7,4.6c-1.2,3.5-4.1,11.6-7,23.2c-0.6,1.7-0.6,3.5-1.2,5.2c-1.7,8.7-3.5,17.4-4.1,25.5v1.2c0,0.6,0,0.6,0,1.2
				v0.6l-0.6,5.8c0,7,0.6,13.3,1.2,19.1v0.6H923c0.6,4.1,1.7,8.1,2.9,11.6L922.4,1474.5z" />
			</g>
			<g>
				<rect x="999" y="1501.2" fill="#FFFFFF" width="1.7" height="3.5" />
			</g>
		</g>
		<g>
			<g>
				<path fill="#FFFFFF" d="M1020.5,1367.8c-3.5-4.1-6.4-9.3-8.1-15.1l0,0v-0.6c-0.6-0.6-0.6-1.7-1.2-2.3c-1.2-4.1-1.7-7.5-2.3-11
				c-0.6-9.9,0-20.9,1.7-31.3c0.6-2.9,2.3-3.5,3.5-3.5c1.2,0,1.7,0.6,2.3,1.2s0.6,1.7,0.6,2.3c-1.7,9.9-2.3,20.3-1.7,30.7
				c0.6,4.1,1.7,11,5.8,18l-2.3,1.2c1.7,2.9,2.9,5.2,5.2,7.5L1020.5,1367.8z" />
			</g>
		</g>
		<g>
			<path fill="#FFFFFF" d="M1047.7,1443.8c-1.7,0-2.9-1.2-3.5-2.9c-1.7-31.3-30.7-82.4-31.3-82.4c-1.2-1.7-0.6-3.5,1.2-4.6
			s3.5-0.6,4.6,1.2c1.2,2.3,30.2,52.8,31.9,85.3C1051.2,1442,1050,1443.8,1047.7,1443.8C1048.3,1443.8,1047.7,1443.8,1047.7,1443.8z
			" />
		</g>
		<g>
			<path fill="#FFFFFF" d="M983.9,1407.2l-34.2-3.5l1.2-3.5c1.2-3.5,1.2-16.8,0.6-39.4c0-1.2,0-1.7,0-2.3c0-2.9,0-5.2,0-7.5
			c0-1.2,0-1.7,0-2.9c-1.7-44.7-5.2-101.5-5.2-102.1l5.8-0.6c0,0.6,3.5,57.4,5.2,102.1c0,1.2,0,1.7,0,2.9c0,2.3,0,5.2,0,7.5
			c0,0.6,0,1.7,0,2.9c0.6,19.7,0.6,31.3,0,37.7l20.9,2.3c0-6.4,0.6-20.9,1.2-38.9l0.6-13.9c2.3-87-1.2-98.6-2.3-100.4l3.5-5.2
			c2.9,1.7,8.1,4.1,5.2,105.6v11.6c0,0.6,0,1.2,0,1.7v1.2c-0.6,24.4-1.7,42.3-1.7,42.3L983.9,1407.2z" />
		</g>
		<g>
			<path fill="#FFFFFF" d="M1015.2,1310.3h-3.5c-1.7-1.7-1.7-2.3,0.6-7.5c2.9-6.4,8.1-19.1,11.6-30.2l5.8,1.7
			c-3.5,11.6-9.3,24.9-12.2,31.3c-0.6,1.7-1.2,3.5-1.7,3.5l-2.9-1.2l0,0L1015.2,1310.3z" />
		</g>
	</g>
	<g>
		<g>
			<path fill="#FFFFFF" d="M1414.3,751.7h-136.9c-1.2,0-2.3-1.2-2.3-2.3s1.2-2.3,2.3-2.3h136.9c5.8,0,11-2.3,15.1-6.4
			c4.1-4.1,6.4-9.3,5.8-15.1c0-13.9-0.6-27.8-1.2-41.2c-1.7-40.6-5.2-96.9-13.3-134c0-1.2,0.6-2.9,1.7-2.9c1.2-0.6,2.9,0.6,2.9,1.7
			c8.1,37.7,11.6,94,13.3,135.2c0.6,13.3,1.2,27.3,1.2,41.2c0,7-2.3,13.3-7.5,18.6C1428.3,748.8,1421.3,751.7,1414.3,751.7z" />
		</g>
		<g>
			<path fill="#FFFFFF" d="M800,751.7h-99.2c-5.8,0-11.6-1.2-16.2-4.1L662,735.5c-11.6-5.8-18.6-18-18.6-30.7v-163
			c0-19.1,15.7-34.8,34.8-34.8h723.4c8.7,0,15.7,9.9,21.5,30.7c0.6,1.2-0.6,2.9-1.7,2.9c-1.2,0.6-2.9-0.6-2.9-1.7
			c-4.6-17.4-10.4-27.3-16.8-27.3H678.8c-16.2,0-30.2,13.3-30.2,29.6v163c0,11,5.8,20.9,15.7,26.1l22.6,12.2
			c4.1,2.3,8.7,3.5,13.9,3.5H800c1.2,0,2.3,1.2,2.3,2.3S801.8,751.7,800,751.7z" />
		</g>
		<g>
			<path fill="#FFFFFF" d="M1192.7,751.7H887c-1.2,0-2.3-1.2-2.3-2.3s1.2-2.3,2.3-2.3h305.7c1.2,0,2.3,1.2,2.3,2.3
			S1193.9,751.7,1192.7,751.7z" />
		</g>
		<g>
			<path fill="#FFFFFF" d="M842.4,780.7c-26.7,0-48.1-21.5-48.1-48.1s21.5-48.1,48.1-48.1s48.1,21.5,48.1,48.1
			C890.5,759.3,869,780.7,842.4,780.7z M842.4,689.6c-23.8,0-42.9,19.1-42.9,42.9c0,23.8,19.1,42.9,42.9,42.9s42.9-19.1,42.9-42.9
			C885.9,709.4,866.1,689.6,842.4,689.6z" />
		</g>
		<g>
			<path fill="#FFFFFF" d="M1235.1,780.7c-26.7,0-48.1-21.5-48.1-48.1s21.5-48.1,48.1-48.1s48.1,21.5,48.1,48.1
			C1283.2,759.3,1261.8,780.7,1235.1,780.7z M1235.1,689.6c-23.8,0-42.9,19.1-42.9,42.9c0,23.8,19.1,42.9,42.9,42.9
			s42.9-19.1,42.9-42.9C1278,709.4,1258.9,689.6,1235.1,689.6z" />
		</g>
		<g>
			<path fill="#FFFFFF" d="M953.7,642.1H682.3c-9.3,0-16.8-7.5-16.8-16.8v-76c0-9.3,7.5-16.8,16.8-16.8h271.5c9.3,0,16.8,7.5,16.8,16.8
			v76.6C970.6,634.5,963,642.1,953.7,642.1z M682.3,537.7c-6.4,0-11.6,5.2-11.6,11.6v76.6c0,6.4,5.2,11.6,11.6,11.6h271.5
			c6.4,0,11.6-5.2,11.6-11.6v-76.6c0-6.4-5.2-11.6-11.6-11.6H682.3z" />
		</g>
		<g>
			<path fill="#FFFFFF" d="M1269.9,642.1h-152.6c-9.3,0-16.8-7.5-16.8-16.8v-76c0-9.3,7.5-16.8,16.8-16.8h153.1
			c9.3,0,16.8,7.5,16.8,16.8v76.6C1286.7,634.5,1279.2,642.1,1269.9,642.1z M1117.3,537.7c-6.4,0-11.6,5.2-11.6,11.6v76.6
			c0,6.4,5.2,11.6,11.6,11.6h153.1c6.4,0,11.6-5.2,11.6-11.6v-76.6c0-6.4-5.2-11.6-11.6-11.6H1117.3z" />
		</g>
		<g>
			<path fill="#FFFFFF" d="M1374.9,735.5h-74.8c-1.2,0-2.3-1.2-2.3-2.3V549.3c0-7,5.8-12.8,12.8-12.8h53.9c7,0,12.8,5.8,12.8,12.8v183.9
			C1377.2,734.3,1376,735.5,1374.9,735.5z M1302.4,730.2h70.2v-181c0-4.6-3.5-8.1-8.1-8.1h-53.9c-4.6,0-8.1,3.5-8.1,8.1
			L1302.4,730.2L1302.4,730.2z" />
		</g>
		<g>
			<path fill="#FFFFFF" d="M1431.2,686.7c-14.5,0-33.6-4.6-37.1-23.2c-4.6-25.5-7.5-149.1-8.1-154.3c0-1.2,1.2-2.3,2.3-2.3
			c1.7,0,2.3,1.2,2.3,2.3s2.9,128.2,7.5,153.1c4.1,22.6,38.9,18.6,38.9,18.6c1.2,0,2.3,0.6,2.9,2.3c0,1.2-0.6,2.3-2.3,2.9
			C1435.8,686.7,1433.5,686.7,1431.2,686.7z" />
		</g>
		<g>
			<path fill="#FFFFFF" d="M1087.2,735.5H985.1c-1.2,0-2.3-1.2-2.3-2.3V547.5c0-8.1,7-15.1,15.1-15.1h76.6c8.1,0,15.1,7,15.1,15.1v185
			C1089.5,734.3,1088.3,735.5,1087.2,735.5z M987.4,730.2h96.9V547.5c0-5.8-4.6-10.4-10.4-10.4h-76.6c-5.8,0-10.4,4.6-10.4,10.4
			v182.7H987.4z" />
		</g>
		<g>
			<path fill="#FFFFFF" d="M842.4,764.5c-17.4,0-31.9-14.5-31.9-31.9c0-17.4,14.5-31.9,31.9-31.9c17.4,0,31.9,14.5,31.9,31.9
			C874.3,750,860.3,764.5,842.4,764.5z M842.4,705.9c-15.1,0-26.7,12.2-26.7,26.7c0,14.5,12.2,26.7,26.7,26.7
			c15.1,0,26.7-12.2,26.7-26.7C869,718.1,857.4,705.9,842.4,705.9z" />
		</g>
		<g>
			<path fill="#FFFFFF" d="M1235.1,764.5c-17.4,0-31.9-14.5-31.9-31.9c0-17.4,14.5-31.9,31.9-31.9s31.9,14.5,31.9,31.9
			C1267,750,1252.5,764.5,1235.1,764.5z M1235.1,705.9c-15.1,0-26.7,12.2-26.7,26.7c0,14.5,12.2,26.7,26.7,26.7s26.7-12.2,26.7-26.7
			C1261.8,718.1,1250.2,705.9,1235.1,705.9z" />
		</g>
		<g>
			<path fill="#FFFFFF" d="M1452.6,570.7c-1.7,0-3.5-0.6-4.6-1.7l-0.6-0.6l-2.9-7l-2.9-9.3h-51c-0.6,0-1.2,0-1.7-0.6s-0.6-1.2-0.6-1.7
			l0.6-10.4c0-1.2,1.2-2.3,2.3-2.3h58c5.8,0,10.4,4.1,11,9.9l1.2,12.8c0.6,4.6-2.9,9.3-6.4,11
			C1454.4,570.1,1453.8,570.7,1452.6,570.7z M1452,565.5c0.6,0,0.6,0.6,1.7,0c1.7-1.2,3.5-3.5,3.5-5.8l-1.2-12.8
			c-0.6-2.9-2.9-5.8-6.4-5.8H1394l-0.6,5.8h49.9c1.2,0,1.7,0.6,2.3,1.7L1452,565.5z" />
		</g>
		<g>
			<path fill="#FFFFFF" d="M1300.1,735.5h-19.1c-1.2,0-2.3-1.2-2.3-2.3s1.2-2.3,2.3-2.3h19.1c1.2,0,2.3,1.2,2.3,2.3
			S1301.2,735.5,1300.1,735.5z" />
		</g>
		<g>
			<path fill="#FFFFFF" d="M985.1,735.5h-96.9c-1.2,0-2.3-1.2-2.3-2.3s1.2-2.3,2.3-2.3h96.9c1.2,0,2.3,1.2,2.3,2.3
			S986.2,735.5,985.1,735.5z" />
		</g>
		<g>
			<path fill="#FFFFFF" d="M950.3,639.8L950.3,639.8z" />
		</g>
	</g>
	<g>
		<g>
			<path fill="#FFFFFF" d="M1492.1,1084.7c-0.6,0-1.2,0-1.2-0.6c-0.6-0.6-1.2-1.2-1.2-1.7V914.7c0-1.2,0.6-1.7,1.2-2.3l74.3-27.3
			c0.6,0,1.2,0,1.7,0c0.6,0.6,1.2,1.2,1.2,1.7v1.7c0,0.6,0,0.6,0,1.2c-2.9,5.8-4.1,12.2-4.1,19.1c0,6.4,1.2,13.3,4.1,20.9v0.6v124.7
			c0,1.2-0.6,1.7-1.2,2.3l-74.3,27.3C1492.6,1084.7,1492.1,1084.7,1492.1,1084.7z M1493.8,916.5v163l69.6-26.1V931
			c-2.9-8.1-4.1-15.1-4.1-22c0-6.4,1.2-12.2,3.5-18L1493.8,916.5z" />
		</g>
		<g>
			<path fill="#FFFFFF" d="M1566.3,890.9C1565.7,890.9,1565.7,890.9,1566.3,890.9c-1.2,0-2.3-1.2-2.3-2.3v-1.7c0-0.6,0.6-1.7,1.2-1.7
			c0.6-0.6,1.7-0.6,2.3,0l0.6,0.6c0.6,0.6,1.2,1.7,0.6,2.9l-0.6,1.2C1567.5,890.4,1566.9,890.9,1566.3,890.9z" />
		</g>
		<g>
			<path fill="#FFFFFF" d="M1640,1112.5c-0.6,0-1.2,0-1.2-0.6l-74.3-55.1c-0.6-0.6-1.2-1.2-1.2-1.7V930.4c0-1.2,0.6-1.7,1.7-2.3
			c1.2,0,2.3,0.6,2.3,1.2c9.9,27.3,35.4,53.4,41.8,59.7c4.6-4.6,17.4-19.1,28.4-36c0.6-0.6,1.7-1.2,2.3-1.2c1.2,0,1.7,1.2,1.7,2.3
			v154.9c0,0.6-0.6,1.7-1.2,1.7C1641.2,1112.5,1640.6,1112.5,1640,1112.5z M1568.1,1053.9l69.6,51.6V962.3
			c-12.8,18-26.1,31.9-26.7,32.5s-2.3,1.2-2.9,0c-1.2-1.2-26.7-24.9-40-53.4V1053.9z" />
		</g>
		<g>
			<path fill="#FFFFFF" d="M1640,1112.5c-1.2,0-1.7-0.6-2.3-1.2c-0.6-1.2,0-2.3,1.2-2.9l72.5-27.3v-163l-61.5,23.2
			c-1.2,0.6-2.3,0-2.9-1.2c-0.6-1.2,0-2.3,1.2-2.9l65-23.8c0.6,0,1.2,0,1.7,0c0.6,0.6,1.2,1.2,1.2,1.7v167.6c0,1.2-0.6,1.7-1.2,2.3
			l-74.3,27.3C1640.6,1112.5,1640.6,1112.5,1640,1112.5z" />
		</g>
		<g>
			<path fill="none" stroke="#FFFFFF" stroke-width="5" stroke-miterlimit="10" d="M1609.8,860.8c-19.1,0-35.4,11-43.5,27.3c0,0.6-0.6,0.6-0.6,1.2c-2.9,5.8-4.1,12.8-4.1,19.7
			c0,7,1.7,14.5,4.1,21.5c12.2,31.9,44.1,62.1,44.1,62.1s16.2-16.8,30.2-37.7c3.5-5.2,6.4-10.4,9.3-16.2c5.2-10.4,8.7-20.9,8.7-30.2
			C1658.6,882.2,1636.5,860.8,1609.8,860.8z M1627.8,933.3c-5.2,3.5-11,5.8-18,5.8c-16.8,0-30.2-13.3-30.2-30.2c0-3.5,0.6-7,1.7-9.9
			c4.1-11.6,15.1-20.3,28.4-20.3c16.8,0,30.2,13.3,30.2,30.2C1640,918.8,1635.4,927.5,1627.8,933.3z" />
		</g>
		<g>
			<path fill="#FFFFFF" d="M1609.8,940.8c-18,0-32.5-14.5-32.5-32.5c0-3.5,0.6-7,1.7-10.4c4.6-12.8,16.8-22,30.7-22
			c18,0,32.5,14.5,32.5,32.5c0,10.4-5.2,20.3-13.3,26.1C1623.7,939.1,1616.8,940.8,1609.8,940.8z M1609.8,880.5
			c-12.2,0-22.6,7.5-26.7,19.1c-1.2,2.9-1.7,5.8-1.7,9.3c0,15.7,12.8,27.8,27.8,27.8c5.8,0,11.6-1.7,16.2-5.2
			c7.5-5.2,11.6-13.9,11.6-22.6C1638.3,893.3,1625.5,880.5,1609.8,880.5z" />
		</g>
	</g>
	<path fill="none" stroke="#FFFFFF" stroke-width="5" stroke-miterlimit="10" d="M622.9,0l219.5,156c62.7,52.2,45.2,152.6-31.3,181L515.2,447.2c-34.8,12.8-59.7,42.9-67.3,78.9l-23.2,116.6
	c-12.8,65.6,37.1,127,104.4,127h286.6" />
	<path fill="none" stroke="#FFFFFF" stroke-width="5" stroke-miterlimit="10" d="M1713.1,1082.4h18c20.9,0,39.7,8.4,53.4,22.1c13.6,13.6,22,32.5,22,53.4c0,5.8,2.3,11.2,6.2,15.1
	c3.8,3.9,9.2,6.4,15.3,6.4c11.6,0,21.5-9.3,21.5-21.5V769.4V639.2c0-20,8.1-38.3,21.3-51.6c13.2-13.3,31.5-21.5,51.8-21.5
	c40,0,73.1,32.5,73.1,73.1v57.1c0,40-32.5,73.1-73.1,73.1h-73.1h-583.2h-4.9" />
	<polyline fill="none" stroke="#FFFFFF" stroke-width="5" stroke-miterlimit="10" points="1207.8,769.4 1204,769.4 873.5,769.4 869,769.4 " />
	<path fill="none" stroke="#FFFFFF" stroke-width="5" stroke-miterlimit="10" d="M1208.4,1243.6v132.3c0,37.1,30.2,67.9,67.9,67.9h320.2c66.1,0,120.1,53.9,120.1,120.1l0,0
	c0,66.1-53.9,120.1-120.1,120.1H1546c-66.1,0-120.1-53.4-120.1-120.1l-1.2-414.8c0-37.7,30.2-67.9,67.9-67.9l0,0" />
	<polyline fill="none" stroke="#FFFFFF" stroke-width="5" stroke-miterlimit="10" points="634.1,1015.7 634.1,1772.1 590.6,1772.1 590.6,1015.7 590.6,898.5 590.6,873 634.1,873 " />
	<polygon fill="none" stroke="#FFFFFF" stroke-width="5" stroke-miterlimit="10" points="590.6,1015.7 799.4,1015.7 799.4,873 590.6,873 590.6,898.5 " />
	<line fill="none" stroke="#FFFFFF" stroke-width="5" stroke-miterlimit="10" x1="590.6" y1="1772.1" x2="1105.7" y2="1772.1" />
</svg>