<?xml version="1.0" encoding="utf-8"?>
<!-- Generator: Adobe Illustrator 26.4.1, SVG Export Plug-In . SVG Version: 6.00 Build 0)  -->
<svg version="1.1" id="Layer_1" xmlns="http://www.w3.org/2000/svg" xmlns:xlink="http://www.w3.org/1999/xlink" x="0px" y="0px"
	 viewBox="0 0 1803 2110" style="enable-background:new 0 0 1803 2110;" xml:space="preserve">
<style type="text/css">
	.st0{fill:#005685;}
	.st1{fill:none;stroke:#005685;stroke-width:5;stroke-linecap:round;stroke-linejoin:round;stroke-miterlimit:10;}
</style>
<g>
	<path class="st0" d="M1013.4,780c-1.7,0-3.4-0.3-5.1-0.8c-5.2-1.7-9.1-5.9-10.5-11.2l-3.5-13.3c-0.7-2.4-2.5-4.2-4.9-4.9
		c-2.4-0.6-4.9,0-6.7,1.7l-7,6.7c-3,3.3-7.3,4.9-11.6,4.5c-4.4-0.4-8.3-2.8-10.7-6.6l-15.4-25.3c-0.7-1.2-0.3-2.7,0.8-3.4
		c1.2-0.7,2.7-0.4,3.4,0.8l15.4,25.2c1.5,2.5,4,4,6.9,4.3c2.8,0.3,5.6-0.8,7.5-3c0,0,0.1-0.1,0.1-0.1l7.1-6.8
		c3.1-2.9,7.4-4,11.5-2.9c4.1,1.1,7.2,4.2,8.4,8.4l3.5,13.4c1,3.6,3.7,6.5,7.3,7.7c3.6,1.2,7.4,0.5,10.3-1.8l29.3-22.9
		c1.1-0.9,2.7-0.7,3.5,0.4c0.9,1.1,0.7,2.7-0.4,3.5l-29.3,22.9C1020.4,778.8,1016.9,780,1013.4,780z"/>
</g>
<g>
	<path class="st0" d="M1215.6,736.6c-4.2,0-8.5-1.4-11.9-4.2l-20.7-17c-1.1-0.9-1.2-2.5-0.3-3.5c0.9-1.1,2.5-1.2,3.5-0.3l20.7,17
		c4.9,4,12,4.2,16.9,0.3l22.8-17.3c5.9-4.5,14.1-4.3,19.9,0.5l8.9,7.6c4.6,3.9,11.4,4.2,16.2,0.6l9.9-7.6c1.1-0.8,2.7-0.6,3.5,0.5
		c0.8,1.1,0.6,2.7-0.5,3.5l-9.9,7.6c-6.7,5-16.1,4.7-22.5-0.7l-8.9-7.6c-3.9-3.3-9.5-3.4-13.6-0.3l-22.8,17.3
		C1223.5,735.4,1219.6,736.6,1215.6,736.6z"/>
</g>
<g>
	<path class="st0" d="M1447.4,560.3h-213.2c-1.4,0-2.5-1.1-2.5-2.5s1.1-2.5,2.5-2.5h213.2c9.2,0,17.9-3.6,24.4-10.2
		c6.5-6.6,9.9-15.3,9.7-24.5c-0.2-14.1-0.7-36.7-1.7-64.4c-2.5-63.4-8.2-151.1-20.7-209.2c-0.3-1.3,0.6-2.7,1.9-3
		c1.4-0.3,2.7,0.6,3,1.9c12.5,58.5,18.2,146.5,20.8,210.1c1.1,27.8,1.5,50.4,1.8,64.5c0.2,10.5-3.8,20.5-11.2,28.1
		C1467.9,556.1,1458,560.3,1447.4,560.3z"/>
</g>
<g>
	<path class="st0" d="M490.5,560.3H336.2c-9,0-17.6-2.2-24.8-6.2l-35.1-18.7c-17.3-9.2-28-27.1-28-46.6V234.4
		c0-29.1,23.7-52.7,52.8-52.7h1126.7c12.8,0,23.5,15.9,31.9,47.3c0.4,1.3-0.4,2.7-1.8,3.1c-1.3,0.4-2.7-0.4-3.1-1.8
		c-7.6-28.5-16.9-43.6-27.1-43.6H301.2c-26.4,0-47.8,21.4-47.8,47.7v254.3c0,17.7,9.7,33.9,25.3,42.2l35.1,18.7
		c6.5,3.7,14.2,5.6,22.4,5.6h154.3c1.4,0,2.5,1.1,2.5,2.5S491.9,560.3,490.5,560.3z"/>
</g>
<g>
	<path class="st0" d="M1101.9,560.3h-476c-1.4,0-2.5-1.1-2.5-2.5s1.1-2.5,2.5-2.5h476c1.4,0,2.5,1.1,2.5,2.5
		S1103.2,560.3,1101.9,560.3z"/>
</g>
<g>
	<path class="st0" d="M556.6,605.8c-40.5,0-73.4-32.9-73.4-73.4s32.9-73.4,73.4-73.4s73.4,32.9,73.4,73.4S597.1,605.8,556.6,605.8z
		 M556.6,463.9c-37.7,0-68.4,30.7-68.4,68.4c0,37.7,30.7,68.4,68.4,68.4c37.7,0,68.4-30.7,68.4-68.4
		C625,494.6,594.3,463.9,556.6,463.9z"/>
</g>
<g>
	<path class="st0" d="M1168.1,605.8c-40.5,0-73.4-32.9-73.4-73.4s32.9-73.4,73.4-73.4c40.5,0,73.4,32.9,73.4,73.4
		S1208.5,605.8,1168.1,605.8z M1168.1,463.9c-37.7,0-68.4,30.7-68.4,68.4c0,37.7,30.7,68.4,68.4,68.4c37.7,0,68.4-30.7,68.4-68.4
		C1236.5,494.6,1205.8,463.9,1168.1,463.9z"/>
</g>
<g>
	<path class="st0" d="M749.3,389.5H287.7c-3,0-5.5-2.4-5.5-5.5V226.7c0-3,2.4-5.5,5.5-5.5h461.4c3,0,5.5,2.4,5.5,5.5V384
		c0.1,1.4-0.4,2.8-1.4,3.8C752.2,388.9,750.8,389.5,749.3,389.5z M287.7,226.3c-0.2,0-0.5,0.2-0.5,0.5V384c0,0.2,0.2,0.5,0.5,0.5
		h461.6c0.2,0,0.3-0.1,0.3-0.1c0.1-0.1,0.1-0.1,0.1-0.1c0-0.1,0-0.1,0-0.2V226.7c0-0.2-0.2-0.5-0.5-0.5H287.7z"/>
</g>
<g>
	<path class="st0" d="M1241.8,389.5H965c-3,0-5.5-2.4-5.5-5.5V226.7c0-3,2.5-5.5,5.5-5.5h276.8c3,0,5.5,2.4,5.5,5.5V384
		C1247.3,387.1,1244.8,389.5,1241.8,389.5z M965,226.3c-0.2,0-0.5,0.2-0.5,0.5V384c0,0.2,0.2,0.5,0.5,0.5h276.8
		c0.2,0,0.5-0.2,0.5-0.5V226.7c0-0.2-0.2-0.5-0.5-0.5H965z"/>
</g>
<g>
	<path class="st0" d="M1385.8,534.8h-116.9c-1.4,0-2.5-1.1-2.5-2.5V232c0-2.6,2-4.7,4.7-4.7h112.6c2.6,0,4.7,2,4.7,4.7v300.4
		C1388.3,533.7,1387.2,534.8,1385.8,534.8z M1271.3,529.8h111.9V232.3h-111.9V529.8z"/>
</g>
<g>
	<path class="st0" d="M1473.6,458.9c-5.5,0-12.6-0.4-19.9-1.9c-21.2-4.3-34.1-15.7-37.3-33c-7.4-39.3-12-231.6-12.2-239.8
		c0-1.4,1.1-2.5,2.4-2.6c1.4,0,2.5,1.1,2.6,2.4c0,2,4.8,200.1,12.1,239c6.9,36.8,61.8,30.3,62.4,30.3c1.4-0.2,2.6,0.8,2.8,2.2
		c0.2,1.4-0.8,2.6-2.2,2.8C1484,458.4,1479.8,458.9,1473.6,458.9z"/>
</g>
<g>
	<path class="st0" d="M937.4,534.8H778.4c-1.4,0-2.5-1.1-2.5-2.5V226.5c0-2.9,2.3-5.2,5.2-5.2h153.7c2.9,0,5.2,2.3,5.2,5.2v305.9
		C939.9,533.7,938.8,534.8,937.4,534.8z M780.9,529.8h154.1V226.5c0-0.1-0.1-0.2-0.2-0.2H781c-0.1,0-0.2,0.1-0.2,0.2V529.8z"/>
</g>
<g>
	<path class="st0" d="M556.6,580.5c-26.5,0-48.1-21.6-48.1-48.1s21.6-48.1,48.1-48.1s48.1,21.6,48.1,48.1S583.1,580.5,556.6,580.5z
		 M556.6,489.2c-23.8,0-43.1,19.3-43.1,43.1s19.3,43.1,43.1,43.1s43.1-19.3,43.1-43.1S580.4,489.2,556.6,489.2z"/>
</g>
<g>
	<path class="st0" d="M1168.1,580.5c-26.5,0-48.1-21.6-48.1-48.1s21.6-48.1,48.1-48.1s48.1,21.6,48.1,48.1
		S1194.6,580.5,1168.1,580.5z M1168.1,489.2c-23.8,0-43.1,19.3-43.1,43.1s19.3,43.1,43.1,43.1c23.8,0,43.1-19.3,43.1-43.1
		S1191.8,489.2,1168.1,489.2z"/>
</g>
<g>
	<path class="st0" d="M1603.6,588.7h-389.8c-1.4,0-2.5-1.1-2.5-2.5s1.1-2.5,2.5-2.5h389.8c1.4,0,2.5,1.1,2.5,2.5
		S1605,588.7,1603.6,588.7z"/>
</g>
<g>
	<path class="st0" d="M1122.4,588.7H602.6c-1.4,0-2.5-1.1-2.5-2.5s1.1-2.5,2.5-2.5h519.8c1.4,0,2.5,1.1,2.5,2.5
		S1123.8,588.7,1122.4,588.7z"/>
</g>
<g>
	<path class="st0" d="M510.6,588.7H250.7c-1.4,0-2.5-1.1-2.5-2.5s1.1-2.5,2.5-2.5h259.8c1.4,0,2.5,1.1,2.5,2.5
		S512,588.7,510.6,588.7z"/>
</g>
<g>
	<path class="st0" d="M1506.8,278.2c-2.2,0-4.3-0.9-6-2.6c-0.2-0.2-0.4-0.5-0.6-0.9l-4.2-10.8l-5.2-15.1h-80.3
		c-0.7,0-1.4-0.3-1.8-0.8c-0.5-0.5-0.7-1.2-0.7-1.9l1.2-16.7c0.1-1.3,1.2-2.3,2.5-2.3h90.2c8.1,0,15,6.2,15.9,14.3l2.3,19.9
		c0.8,6.7-4,13.3-8.9,15.7C1509.7,277.8,1508.2,278.2,1506.8,278.2z M1504.7,272.4c0.7,0.6,2,1.3,4.3,0.2c3.3-1.6,6.6-6.3,6.1-10.6
		l-2.3-19.9c-0.7-5.6-5.4-9.9-11-9.9h-87.8l-0.8,11.7h79.4c1.1,0,2,0.7,2.4,1.7l5.8,16.7L1504.7,272.4z"/>
</g>
<g>
	<path class="st0" d="M317.2,858c-11,0-19.9-8.9-19.9-19.9s8.9-19.9,19.9-19.9s19.9,8.9,19.9,19.9S328.2,858,317.2,858z
		 M317.2,823.1c-8.2,0-14.9,6.7-14.9,14.9S309,853,317.2,853s14.9-6.7,14.9-14.9S325.5,823.1,317.2,823.1z"/>
</g>
<g>
	<path class="st0" d="M317.2,809.6c-11,0-19.9-8.9-19.9-19.9s8.9-19.9,19.9-19.9s19.9,8.9,19.9,19.9S328.2,809.6,317.2,809.6z
		 M317.2,774.7c-8.2,0-14.9,6.7-14.9,14.9s6.7,14.9,14.9,14.9s14.9-6.7,14.9-14.9S325.5,774.7,317.2,774.7z"/>
</g>
<g>
	<path class="st0" d="M317.2,761.2c-11,0-19.9-8.9-19.9-19.9s8.9-19.9,19.9-19.9s19.9,8.9,19.9,19.9S328.2,761.2,317.2,761.2z
		 M317.2,726.3c-8.2,0-14.9,6.7-14.9,14.9s6.7,14.9,14.9,14.9s14.9-6.7,14.9-14.9S325.5,726.3,317.2,726.3z"/>
</g>
<g>
	<path class="st0" d="M1268.8,534.8H1239c-1.4,0-2.5-1.1-2.5-2.5s1.1-2.5,2.5-2.5h29.9c1.4,0,2.5,1.1,2.5,2.5
		S1270.2,534.8,1268.8,534.8z"/>
</g>
<g>
	<path class="st0" d="M778.4,534.8H627.5c-1.4,0-2.5-1.1-2.5-2.5s1.1-2.5,2.5-2.5h150.8c1.4,0,2.5,1.1,2.5,2.5
		S779.7,534.8,778.4,534.8z"/>
</g>
<g>
	<path class="st1" d="M724.4,387"/>
</g>
<g>
	<path class="st0" d="M1504.8,1201.5c-9.4,0-24.9-6.6-33-11c-1.2-0.7-1.7-2.2-1-3.4c0.7-1.2,2.2-1.7,3.4-1
		c7.4,4,22.1,10.4,30.6,10.4c27.7,0,50.2-22.5,50.2-50.2c0-19-10.5-36.1-27.3-44.7c-0.8-0.4-1.4-1.3-1.4-2.2v-0.7
		c0-17.7-12.5-33.3-29.7-37.2c-1-0.2-1.7-1-1.9-1.9c-2.9-14.3-15.6-24.6-30.1-24.6c-14.7,0-27.3,10.4-30.1,24.7
		c-0.2,1-0.9,1.7-1.9,2c-17.2,4.2-29.2,19.4-29.2,37v0.4c0,0.9-0.5,1.8-1.4,2.2c-17.2,8.6-27.8,25.7-27.8,44.8
		c0,27.7,22.5,50.2,50.2,50.2c8.4,0,16.7-2.1,23.9-6c1.2-0.7,2.7-0.2,3.4,1c0.7,1.2,0.2,2.7-1,3.4c-8,4.4-17.1,6.7-26.3,6.7
		c-30.4,0-55.2-24.8-55.2-55.2c0-20.4,11.2-38.9,29.2-48.6c0.5-19,13.2-35.2,31.5-40.4c3.8-15.9,18.2-27.2,34.7-27.2
		c16.4,0,30.7,11.3,34.7,27.1c18.4,4.9,31.6,21.7,32,40.8c17.7,9.6,28.7,28,28.7,48.4C1560,1176.7,1535.2,1201.5,1504.8,1201.5z"/>
</g>
<g>
	<path class="st1" d="M1389.2,1149.8"/>
</g>
<g>
	<path class="st0" d="M1477.5,1222.8c-0.4,0-0.8-0.1-1.2-0.3c-1.2-0.7-1.6-2.2-1-3.4c0.5-1,13.3-23.7,32.2-22.6
		c1.4,0.1,2.4,1.3,2.4,2.6c-0.1,1.4-1.3,2.5-2.6,2.4c-15.8-0.8-27.4,19.9-27.5,20.1C1479.2,1222.4,1478.4,1222.8,1477.5,1222.8z"/>
</g>
<g>
	<path class="st1" d="M1439.8,1196.7"/>
</g>
<g>
	<path class="st0" d="M1474.5,1202.7c-0.3,0-0.7-0.1-1-0.2c-0.8-0.4-1.4-1.1-1.5-2l-1.5-12c-0.2-1.4,0.8-2.6,2.2-2.8
		c1.4-0.2,2.6,0.8,2.8,2.2l1,7.9l5.1-3.6c1.1-0.8,2.7-0.5,3.5,0.6c0.8,1.1,0.5,2.7-0.6,3.5l-8.5,5.9
		C1475.5,1202.6,1475,1202.7,1474.5,1202.7z"/>
</g>
<g>
	<path class="st0" d="M1452,1140.1C1451.9,1140.1,1451.9,1140.1,1452,1140.1c-1.5-0.1-2.5-1.2-2.5-2.6c0-0.4,2-42.3,50.5-42.3
		c1.4,0,2.5,1.1,2.5,2.5s-1.1,2.5-2.5,2.5c-43.6,0-45.4,35.9-45.5,37.5C1454.4,1139.1,1453.3,1140.1,1452,1140.1z"/>
</g>
<g>
	<path class="st1" d="M1430.7,1198.6"/>
</g>
<g>
	<path class="st0" d="M1450.5,1212.6c-5,0-19.3-7.7-21.7-11.7c-1-1.6-0.6-2.9-0.2-3.5c0.7-1.2,2.2-1.7,3.4-1
		c0.8,0.5,1.3,1.3,1.3,2.2c2.1,2.6,13.6,8.8,16.9,9c0.8-0.5,1.7-0.6,2.6-0.1c1.2,0.7,1.7,2.2,1,3.4
		C1453.4,1211.5,1452.5,1212.5,1450.5,1212.6C1450.5,1212.6,1450.5,1212.6,1450.5,1212.6z M1432.9,1199.8
		C1432.9,1199.8,1432.9,1199.8,1432.9,1199.8C1432.9,1199.8,1432.9,1199.8,1432.9,1199.8z"/>
</g>
<g>
	<path class="st0" d="M746.7,1897.4c-0.5,0-1-0.2-1.4-0.4c-0.7-0.5-1.1-1.2-1.1-2.1V1692c0-1,0.6-2,1.6-2.3l89.7-33.4
		c0.8-0.3,1.6-0.2,2.3,0.3c0.7,0.5,1.1,1.2,1.1,2.1v1.9c0,0.4-0.1,0.7-0.2,1.1c-3.3,7-4.9,14.8-4.9,23.2c0,7.6,1.6,15.9,5,25.5
		c0.1,0.3,0.1,0.5,0.1,0.8v150.6c0,1-0.7,2-1.6,2.3l-89.7,33.2C747.3,1897.3,747,1897.4,746.7,1897.4z M749.2,1693.8v197.5L834,1860
		v-148.4c-3.5-9.9-5.2-18.7-5.2-26.7c0-7.9,1.4-15.3,4-22.1L749.2,1693.8z"/>
</g>
<g>
	<path class="st0" d="M926,1930.6c-0.5,0-1.1-0.2-1.5-0.5l-89.6-66.5c-0.6-0.5-1-1.2-1-2v-150.6c0-1.2,0.9-2.2,2.1-2.5
		c1.2-0.2,2.4,0.5,2.8,1.6c12.3,33,43,64.9,50.7,72.6c5.2-5.5,21-22.9,34.4-43.5c0.6-0.9,1.7-1.4,2.8-1c1.1,0.3,1.8,1.3,1.8,2.4
		v187.6c0,0.9-0.5,1.8-1.4,2.2C926.8,1930.5,926.4,1930.6,926,1930.6z M839,1860.3l84.6,62.8v-174.4c-15.4,22.1-32,39.1-32.2,39.3
		c-1,1-2.5,1-3.5,0.1c-1.4-1.4-32.3-30.8-48.9-65V1860.3z"/>
</g>
<g>
	<path class="st0" d="M926,1930.6c-1,0-2-0.6-2.3-1.6c-0.5-1.3,0.2-2.7,1.5-3.2l88.1-32.7v-197.4l-74.9,27.6
		c-1.3,0.5-2.7-0.2-3.2-1.5c-0.5-1.3,0.2-2.7,1.5-3.2l78.2-28.9c0.8-0.3,1.6-0.2,2.3,0.3c0.7,0.5,1.1,1.2,1.1,2.1v202.7
		c0,1-0.6,2-1.6,2.3l-89.7,33.4C926.6,1930.5,926.3,1930.6,926,1930.6z"/>
</g>
<g>
	<path class="st0" d="M889.6,1788.9c-0.6,0-1.2-0.2-1.7-0.7c-1.6-1.5-39.3-37.5-53.7-76.2c-3.6-10.1-5.3-19-5.3-27.2
		c0-9.1,1.8-17.6,5.4-25.3c0.1-0.2,0.2-0.4,0.3-0.5c0.1-0.2,0.3-0.4,0.3-0.6c0-0.1,0.1-0.2,0.1-0.3c10.1-20.8,31.6-34.2,54.7-34.2
		c33.5,0,60.8,27.3,60.8,61c0,10.7-3.5,22.9-10.8,37.4c-2.8,5.8-6.5,12.2-11.5,19.8c-16.5,25.2-36.6,45.9-36.8,46.1
		C890.9,1788.7,890.2,1788.9,889.6,1788.9z M839.5,1660.2c-0.2,0.5-0.4,0.9-0.6,1.3c-0.1,0.1-0.1,0.2-0.1,0.2
		c-3.2,7-4.9,14.8-4.9,23.1c0,7.6,1.6,15.9,5,25.5c12.3,32.9,43,64.9,50.7,72.6c5.2-5.5,21-23,34.4-43.5c4.9-7.5,8.4-13.7,11.2-19.3
		c6.8-13.6,10.2-25.4,10.2-35.2c0-30.9-25-56-55.8-56C868.4,1628.9,848.8,1641.1,839.5,1660.2z M889.4,1723.6
		c-21.5,0-38.9-17.5-38.9-38.9c0-4.5,0.8-8.9,2.2-12.8c5.5-15.6,20.3-26.2,36.9-26.2c21.5,0,38.9,17.5,38.9,38.9
		c0,12.5-5.9,24-16.2,31.4C905.7,1721,897.8,1723.6,889.4,1723.6z M889.6,1650.7c-14.5,0-27.4,9.2-32.2,22.9
		c-1.3,3.3-1.9,7.1-1.9,11c0,18.7,15.2,33.9,33.9,33.9c7.3,0,14.2-2.3,20-6.6c0,0,0,0,0,0c9-6.5,14.1-16.4,14.1-27.4
		C923.5,1665.9,908.3,1650.7,889.6,1650.7z"/>
</g>
<g>
	<path class="st0" d="M889.4,1723.6c-21.5,0-38.9-17.5-38.9-38.9c0-4.5,0.8-8.9,2.2-12.8c5.5-15.6,20.3-26.2,36.9-26.2
		c10.3-0.2,19.9,3.7,27.3,11c7.5,7.4,11.6,17.3,11.6,27.8c0,12.5-6,24.3-16.2,31.6C905.8,1721,897.8,1723.6,889.4,1723.6z
		 M890.2,1650.7c-0.2,0-0.4,0-0.6,0c-14.5,0-27.4,9.2-32.2,22.9c-1.3,3.3-1.9,7.1-1.9,11c0,18.7,15.2,33.9,33.9,33.9
		c7.3,0,14.2-2.3,20-6.6c8.9-6.3,14.1-16.6,14.1-27.6c0-9.2-3.6-17.8-10.2-24.2C907.1,1654.1,898.9,1650.7,890.2,1650.7z"/>
</g>
<g>
	<path class="st0" d="M771.4,780c-4,0-7.8-1.5-10.6-4.4l-12-12c-1-1-1-2.6,0-3.5c1-1,2.6-1,3.5,0l12,12c1.9,1.9,4.4,2.9,7.1,2.9
		s5.2-1,7.1-2.9l8.4-8.4c2.8-2.8,6.6-4.4,10.6-4.4s7.8,1.5,10.6,4.4c1.9,1.9,4.4,2.9,7.1,2.9s5.2-1,7.1-2.9l8.4-8.4c1-1,2.6-1,3.5,0
		c1,1,1,2.6,0,3.5l-8.4,8.4c-2.8,2.8-6.6,4.4-10.6,4.4s-7.8-1.5-10.6-4.4c-1.9-1.9-4.4-2.9-7.1-2.9s-5.2,1-7.1,2.9l-8.4,8.4
		C779.2,778.5,775.4,780,771.4,780z"/>
</g>
<g>
	<path class="st0" d="M728.3,1520.5h-60.5c-1.4,0-2.5-1.1-2.5-2.5v-19.5c0-1.4,1.1-2.5,2.5-2.5h60.5c1.4,0,2.5,1.1,2.5,2.5v19.5
		C730.8,1519.3,729.7,1520.5,728.3,1520.5z M670.3,1515.5h55.5V1501h-55.5V1515.5z"/>
</g>
<g>
	<path class="st0" d="M707.6,1419.3h-19.2c-1.4,0-2.5-1.1-2.5-2.5v-161.7c0-1.4,1.1-2.5,2.5-2.5h19.2c1.4,0,2.5,1.1,2.5,2.5v161.7
		C710.1,1418.2,709,1419.3,707.6,1419.3z M690.9,1414.3h14.2v-156.7h-14.2V1414.3z"/>
</g>
<g>
	<path class="st0" d="M715,1501h-34c-1.4,0-2.5-1.1-2.5-2.5V1485c0-1.4,1.1-2.5,2.5-2.5h4.9V1417c0-1.4,1.1-2.5,2.5-2.5h19.2
		c1.4,0,2.5,1.1,2.5,2.5v65.5h4.9c1.4,0,2.5,1.1,2.5,2.5v13.5C717.5,1499.8,716.4,1501,715,1501z M683.5,1496h29v-8.5h-4.9
		c-1.4,0-2.5-1.1-2.5-2.5v-65.5h-14.2v65.5c0,1.4-1.1,2.5-2.5,2.5h-4.9V1496z"/>
</g>
<g>
	<path class="st0" d="M1090.2,1419.3H1071c-1.4,0-2.5-1.1-2.5-2.5v-161.7c0-1.4,1.1-2.5,2.5-2.5h19.2c1.4,0,2.5,1.1,2.5,2.5v161.7
		C1092.7,1418.2,1091.6,1419.3,1090.2,1419.3z M1073.5,1414.3h14.2v-156.7h-14.2V1414.3z"/>
</g>
<g>
	<path class="st0" d="M1110.9,1520.3h-60.5c-1.4,0-2.5-1.1-2.5-2.5v-19.4c0-1.4,1.1-2.5,2.5-2.5h10.8v-11c0-1.4,1.1-2.5,2.5-2.5h4.9
		v-65.6c0-1.4,1.1-2.5,2.5-2.5h19.2c1.4,0,2.5,1.1,2.5,2.5v65.6h5c1.4,0,2.5,1.1,2.5,2.5v11h10.7c1.4,0,2.5,1.1,2.5,2.5v19.4
		C1113.4,1519.2,1112.3,1520.3,1110.9,1520.3z M1052.9,1515.3h55.5V1501h-10.7c-1.4,0-2.5-1.1-2.5-2.5v-11h-5
		c-1.4,0-2.5-1.1-2.5-2.5v-65.6h-14.2v65.6c0,1.4-1.1,2.5-2.5,2.5h-4.9v11c0,1.4-1.1,2.5-2.5,2.5h-10.8V1515.3z"/>
</g>
<g>
	<path class="st0" d="M1377.5,1419.3H370.3c-1.4,0-2.5-1.1-2.5-2.5s1.1-2.5,2.5-2.5h1007.2c15.7,0,28.4-12.7,28.4-28.4
		s-12.7-28.4-28.4-28.4h-63.9c-22,0-39.8-17.9-39.8-39.8s17.9-39.8,39.8-39.8h126.8c11.2-26.6,10.2-59.5,7.1-83.2
		c-38.6-10.5-38.2-39.6-38.2-39.9c0-1.4,1.2-2.5,2.6-2.4c1.4,0,2.5,1.2,2.4,2.6c0,1.1-0.1,26.3,36.1,35.3c1,0.2,1.7,1.1,1.9,2.1
		c3.4,24.9,4.8,60.5-7.9,89.1c-0.4,0.9-1.3,1.5-2.3,1.5h-128.5c-19.2,0-34.8,15.6-34.8,34.8s15.6,34.8,34.8,34.8h63.9
		c18.4,0,33.4,15,33.4,33.4S1396,1419.3,1377.5,1419.3z"/>
</g>
<g>
	<path class="st0" d="M892.5,1363c-42.6,0-103.1-6.9-149.4-39.8c-27.9-19.8-37.3-39.5-37.7-40.3c-0.6-1.3,0-2.7,1.2-3.3
		c1.3-0.6,2.7,0,3.3,1.2c0.1,0.2,9.4,19.5,36.4,38.6c25,17.6,70.6,38.7,146.2,38.7c1.4,0,2.5,1.1,2.5,2.5S893.9,1363,892.5,1363z"/>
</g>
<g>
	<path class="st0" d="M892.4,1419.5c-1.4,0-2.5-1.1-2.5-2.5v-56.4c0-1.4,1.1-2.5,2.5-2.5c41.7,0,100.4-6.7,143.1-38.6
		c25.4-19,33.2-38.3,33.3-38.5c0.5-1.3,2-1.9,3.2-1.4c1.3,0.5,1.9,1.9,1.4,3.2c-0.3,0.8-8.2,20.6-34.6,40.5
		c-42.9,32.3-101.4,39.6-143.9,39.9v54C894.9,1418.3,893.8,1419.5,892.4,1419.5z"/>
</g>
<g>
	<path class="st0" d="M1230.7,1419.5c-0.3,0-0.7-0.1-1-0.2c-47.7-20.7-83.7-56.6-105.5-83.2c-23.6-28.7-36.1-52.9-36.3-53.2
		c-0.6-1.2-0.1-2.7,1.1-3.4c1.2-0.6,2.7-0.1,3.4,1.1c0.1,0.2,12.5,24.1,35.8,52.4c21.4,26.1,56.8,61.4,103.5,81.6
		c1.3,0.5,1.8,2,1.3,3.3C1232.6,1418.9,1231.7,1419.5,1230.7,1419.5z"/>
</g>
<g>
	<path class="st0" d="M547.9,1419.5c-1,0-1.9-0.6-2.3-1.5c-0.5-1.3,0-2.7,1.3-3.3c46.8-20.3,82.1-55.6,103.5-81.6
		c23.3-28.3,35.6-52.1,35.8-52.4c0.6-1.2,2.1-1.7,3.4-1.1c1.2,0.6,1.7,2.1,1.1,3.4c-0.1,0.2-12.7,24.5-36.3,53.2
		c-21.8,26.5-57.8,62.5-105.5,83.2C548.6,1419.4,548.2,1419.5,547.9,1419.5z"/>
</g>
<g>
	<path class="st0" d="M634.2,1419.3c-1.4,0-2.5-1.1-2.5-2.5V1355c0-1.4,1.1-2.5,2.5-2.5s2.5,1.1,2.5,2.5v61.8
		C636.7,1418.2,635.6,1419.3,634.2,1419.3z"/>
</g>
<g>
	<path class="st0" d="M1144.4,1419.3c-1.4,0-2.5-1.1-2.5-2.5V1355c0-1.4,1.1-2.5,2.5-2.5s2.5,1.1,2.5,2.5v61.8
		C1146.9,1418.2,1145.8,1419.3,1144.4,1419.3z"/>
</g>
<g>
	<path class="st0" d="M787.4,1419.3c-1.4,0-2.5-1.1-2.5-2.5v-73.3c0-1.4,1.1-2.5,2.5-2.5s2.5,1.1,2.5,2.5v73.3
		C789.9,1418.2,788.8,1419.3,787.4,1419.3z"/>
</g>
<g>
	<path class="st0" d="M991.3,1419.3c-1.4,0-2.5-1.1-2.5-2.5v-73.3c0-1.4,1.1-2.5,2.5-2.5s2.5,1.1,2.5,2.5v73.3
		C993.8,1418.2,992.7,1419.3,991.3,1419.3z"/>
</g>
<g>
	<path class="st0" d="M1097.7,1501h-34.1c-1.4,0-2.5-1.1-2.5-2.5s1.1-2.5,2.5-2.5h34.1c1.4,0,2.5,1.1,2.5,2.5
		S1099.1,1501,1097.7,1501z"/>
</g>
<g>
	<g>
		<path class="st0" d="M1072.6,1157.4H922.1c-1.4,0-2.5-1.1-2.5-2.5v-72h-27.2c-0.1,0-0.1,0-0.2,0c-0.1,0-0.1,0-0.2,0h-27.2v72
			c0,1.4-1.1,2.5-2.5,2.5H712.1c-1.4,0-2.5-1.1-2.5-2.5v-129.5c0-1.4,1.1-2.5,2.5-2.5h88.2l90.3-90.3c0.9-0.9,2.6-0.9,3.5,0
			l90.3,90.3h88.2c1.4,0,2.5,1.1,2.5,2.5v129.5C1075.1,1156.3,1074,1157.4,1072.6,1157.4z M924.6,1152.4h145.5v-124.5h-86.7
			c-0.7,0-1.3-0.3-1.8-0.7l-89.2-89.2l-89.2,89.2c-0.5,0.5-1.1,0.7-1.8,0.7h-86.7v124.5h145.1v-72c0-1.4,1.1-2.5,2.5-2.5H892
			c0.1,0,0.1,0,0.2,0c0.1,0,0.1,0,0.2,0h29.7c1.4,0,2.5,1.1,2.5,2.5V1152.4z"/>
	</g>
	<g>
		<path class="st0" d="M892.4,1049.6c-15.2,0-27.6-12.4-27.6-27.6c0-15.2,12.4-27.6,27.6-27.6s27.6,12.4,27.6,27.6
			C920,1037.2,907.6,1049.6,892.4,1049.6z M892.4,999.4c-12.5,0-22.6,10.1-22.6,22.6c0,12.5,10.1,22.6,22.6,22.6
			s22.6-10.1,22.6-22.6C915,1009.5,904.8,999.4,892.4,999.4z"/>
	</g>
	<g>
		<path class="st0" d="M881.3,1034.6c-0.6,0-1.3-0.2-1.8-0.7c-1-1-1-2.6,0-3.5l10.4-10.4v-15.6c0-1.4,1.1-2.5,2.5-2.5
			s2.5,1.1,2.5,2.5v16.6c0,0.7-0.3,1.3-0.7,1.8l-11.1,11.1C882.5,1034.4,881.9,1034.6,881.3,1034.6z"/>
	</g>
	<g>
		<path class="st0" d="M712.1,1027.9c-0.5,0-1-0.1-1.4-0.4c-1.1-0.8-1.4-2.3-0.6-3.5l35.6-52c0.5-0.7,1.2-1.1,2.1-1.1h103.6
			c1.4,0,2.5,1.1,2.5,2.5s-1.1,2.5-2.5,2.5H749.1l-34.9,50.9C713.7,1027.5,712.9,1027.9,712.1,1027.9z"/>
	</g>
	<g>
		<path class="st0" d="M1072.6,1027.9c-0.8,0-1.6-0.4-2.1-1.1l-34.9-50.9H933.5c-1.4,0-2.5-1.1-2.5-2.5s1.1-2.5,2.5-2.5H1037
			c0.8,0,1.6,0.4,2.1,1.1l35.6,52c0.8,1.1,0.5,2.7-0.6,3.5C1073.6,1027.8,1073.1,1027.9,1072.6,1027.9z"/>
	</g>
	<g>
		<path class="st0" d="M983.4,1027.9h-20.6c-0.7,0-1.3-0.3-1.7-0.7l-68.6-67l-66.9,67c-0.5,0.5-1.1,0.7-1.8,0.7h-22.4
			c-1.4,0-2.5-1.1-2.5-2.5s1.1-2.5,2.5-2.5h21.3l67.9-68c1-1,2.5-1,3.5,0l69.6,68h19.6c1.4,0,2.5,1.1,2.5,2.5
			S984.8,1027.9,983.4,1027.9z"/>
	</g>
	<g>
		<path class="st0" d="M776.8,1121.3h-31.1c-1.4,0-2.5-1.1-2.5-2.5v-48.6c0-3.2,2.6-5.9,5.9-5.9h24.4c3.2,0,5.9,2.6,5.9,5.9v48.6
			C779.3,1120.1,778.1,1121.3,776.8,1121.3z M748.1,1116.3h26.1v-46.1c0-0.5-0.4-0.9-0.9-0.9H749c-0.5,0-0.9,0.4-0.9,0.9V1116.3z"/>
	</g>
	<g>
		<path class="st0" d="M822.9,1121.3h-31.2c-1.4,0-2.5-1.1-2.5-2.5v-48.6c0-3.2,2.6-5.9,5.9-5.9h24.5c3.2,0,5.9,2.6,5.9,5.9v48.6
			C825.4,1120.1,824.3,1121.3,822.9,1121.3z M794.1,1116.3h26.2v-46.1c0-0.5-0.4-0.9-0.9-0.9H795c-0.5,0-0.9,0.4-0.9,0.9V1116.3z"/>
	</g>
	<g>
		<path class="st0" d="M990.9,1121.3h-31.2c-1.4,0-2.5-1.1-2.5-2.5v-48.6c0-3.2,2.6-5.9,5.9-5.9h24.5c3.2,0,5.9,2.6,5.9,5.9v48.6
			C993.4,1120.1,992.2,1121.3,990.9,1121.3z M962.1,1116.3h26.2v-46.1c0-0.5-0.4-0.9-0.9-0.9H963c-0.5,0-0.9,0.4-0.9,0.9V1116.3z"/>
	</g>
	<g>
		<path class="st0" d="M1037,1121.3h-31.2c-1.4,0-2.5-1.1-2.5-2.5v-48.6c0-3.2,2.6-5.9,5.9-5.9h24.5c3.2,0,5.9,2.6,5.9,5.9v48.6
			C1039.5,1120.1,1038.4,1121.3,1037,1121.3z M1008.2,1116.3h26.2v-46.1c0-0.5-0.4-0.9-0.9-0.9h-24.5c-0.5,0-0.9,0.4-0.9,0.9V1116.3
			z"/>
	</g>
	<g>
		<path class="st0" d="M892.4,936.9c-1.4,0-2.5-1.1-2.5-2.5v-7.5c0,0,0,0,0,0v-22.5c0-1.4,1.1-2.5,2.5-2.5h42c1.1,0,2,0.7,2.4,1.7
			c0.4,1,0,2.1-0.8,2.8l-11.8,9.7l11.8,9.4c0.8,0.7,1.2,1.8,0.8,2.8c-0.4,1-1.3,1.7-2.4,1.7c0,0,0,0,0,0l-39.5-0.5v5
			C894.9,935.8,893.8,936.9,892.4,936.9z M894.9,924.4l32.2,0.4l-8.6-6.8c-0.6-0.5-0.9-1.2-0.9-1.9s0.3-1.5,0.9-2l8.8-7.2h-32.5
			V924.4z"/>
	</g>
</g>
<g>
	<path class="st0" d="M351.6,1283.4h-142c-1.4,0-2.5-1.1-2.5-2.5V1149c0-11,8.9-19.9,19.9-19.9h107.2c11,0,19.9,8.9,19.9,19.9v131.9
		C354.1,1282.2,353,1283.4,351.6,1283.4z M212.1,1278.4h137V1149c0-8.2-6.7-14.9-14.9-14.9H227c-8.2,0-14.9,6.7-14.9,14.9V1278.4z"
		/>
</g>
<g>
	<path class="st0" d="M379.5,1283.4H181.8c-1.4,0-2.5-1.1-2.5-2.5v-154.2c0-14.7,12-26.7,26.7-26.7h149.3c14.7,0,26.7,12,26.7,26.7
		v154.2C382,1282.2,380.9,1283.4,379.5,1283.4z M184.3,1278.4H377v-151.7c0-12-9.7-21.7-21.7-21.7H206c-12,0-21.7,9.7-21.7,21.7
		V1278.4z"/>
</g>
<g>
	<path class="st0" d="M209.6,1283.4c-0.6,0-1.3-0.2-1.8-0.7c-1-1-1-2.6,0-3.5l48.8-48.9c0.5-0.5,1.1-0.7,1.8-0.7h44.3
		c0.7,0,1.3,0.3,1.8,0.7l48.9,48.9c1,1,1,2.6,0,3.5c-1,1-2.6,1-3.5,0l-48.2-48.2h-42.2l-48,48.2
		C210.9,1283.1,210.3,1283.4,209.6,1283.4z"/>
</g>
<g>
	<path class="st0" d="M302,1234.5h-42.7c-1.4,0-2.5-1.1-2.5-2.5v-44.4c0-4.3,3.5-7.7,7.7-7.7h32.3c4.3,0,7.7,3.5,7.7,7.7v44.4
		C304.5,1233.4,303.3,1234.5,302,1234.5z M261.8,1229.5h37.7v-41.9c0-1.5-1.2-2.7-2.7-2.7h-32.3c-1.5,0-2.7,1.2-2.7,2.7V1229.5z"/>
</g>
<g>
	<path class="st0" d="M280.6,1274.9c-1.4,0-2.5-1.1-2.5-2.5v-10.3c0-1.4,1.1-2.5,2.5-2.5s2.5,1.1,2.5,2.5v10.3
		C283.1,1273.8,282,1274.9,280.6,1274.9z"/>
</g>
<g>
	<path class="st0" d="M280.6,1257.7c-1.4,0-2.5-1.1-2.5-2.5v-6.6c0-1.4,1.1-2.5,2.5-2.5s2.5,1.1,2.5,2.5v6.6
		C283.1,1256.6,282,1257.7,280.6,1257.7z"/>
</g>
<g>
	<path class="st0" d="M280.6,1245c-1.4,0-2.5-1.1-2.5-2.5v-2.2c0-1.4,1.1-2.5,2.5-2.5s2.5,1.1,2.5,2.5v2.2
		C283.1,1243.9,282,1245,280.6,1245z"/>
</g>
<g>
	<path class="st1" d="M370.3,1416.7"/>
</g>
<g>
	<path class="st0" d="M370.3,1419.5H210.5c-17.2,0-31.1-14-31.1-31.1v-21.5c0-17.2,14-31.1,31.1-31.1h292.9
		c14.4,0,26.1-11.7,26.1-26.1s-11.7-26.1-26.1-26.1H379.5c-1.4,0-2.5-1.1-2.5-2.5s1.1-2.5,2.5-2.5h123.9c17.2,0,31.1,14,31.1,31.1
		s-14,31.1-31.1,31.1H210.5c-14.4,0-26.1,11.7-26.1,26.1v21.5c0,14.4,11.7,26.1,26.1,26.1h159.8c1.4,0,2.5,1.1,2.5,2.5
		S371.7,1419.5,370.3,1419.5z"/>
</g>
<g>
	<path class="st0" d="M1566.4,1999.1H591.1c-33.9,0-61.6-27.6-61.6-61.6v-284.9c0-33.9,27.6-61.6,61.6-61.6h588.8
		c33.9,0,61.6,27.6,61.6,61.6v183.2c0,33.9-27.6,61.6-61.6,61.6h-164.1c-1.4,0-2.5-1.1-2.5-2.5s1.1-2.5,2.5-2.5h164.1
		c31.2,0,56.6-25.4,56.6-56.6v-183.2c0-31.2-25.4-56.6-56.6-56.6H591.1c-31.2,0-56.6,25.4-56.6,56.6v284.9
		c0,31.2,25.4,56.6,56.6,56.6h975.3c31.2,0,56.6-25.4,56.6-56.6v-597.7c0-31.2-25.4-56.6-56.6-56.6H1543l-7-0.1
		c-16.5-0.2-32-6.8-43.5-18.7c-11.4-11.8-17.6-27.3-17.3-43.7l0-0.6c0-1.4,1.1-2.5,2.5-2.5c0,0,0,0,0,0c1.4,0,2.5,1.2,2.5,2.5l0,0.6
		c-0.3,15,5.4,29.3,15.9,40.1c10.6,10.9,24.8,17,40,17.2l7,0.1h23.3c33.9,0,61.6,27.6,61.6,61.6v597.7
		C1627.9,1971.5,1600.3,1999.1,1566.4,1999.1z"/>
</g>
<g>
	<path class="st1" d="M1493.4,623.6"/>
</g>
<g>
	<path class="st0" d="M1628,984.8c-40.3,0-73-32.8-73-73c0-18-14.7-32.8-32.7-32.9l-61.4-0.5c-45.1-1.4-59.9-29.6-61.5-33
		l-130.5-171.5c0,0,0-0.1-0.1-0.1c-3.4-4.9-5.7-8.1-9.1-10.9c-3.5-2.9-9.5-4.2-16.3-3.6c-7,0.6-13.2,3.3-16.2,6.8l-102,123.1
		c-4.9,5.9-12,9.4-19.6,9.7c-7.6,0.3-14.9-2.7-20.2-8.1l-86.3-89.2c-7-7.2-18.6-7.4-25.8-0.5l-84,81.1c-4.9,4.7-11.4,7.2-18.2,7
		c-6.8-0.2-13.1-3.1-17.7-8.1L809,731.6c-3.6-3.9-8.4-6-13.7-6c-5.3,0-10.1,2.1-13.7,6.1L666.5,859.2
		c-13.5,14.9-40.9,27.1-61.1,27.1c-1.4,0-2.5-1.1-2.5-2.5s1.1-2.5,2.5-2.5c19,0,44.7-11.4,57.4-25.5l115.1-127.6
		c4.5-4.9,10.8-7.7,17.4-7.7c0,0,0,0,0,0c6.6,0,12.9,2.8,17.4,7.7l44.6,49.3c3.7,4,8.7,6.3,14.1,6.5c5.5,0.2,10.6-1.8,14.6-5.6
		l84-81.1c9.2-8.9,23.9-8.6,32.8,0.6l86.3,89.2c4.3,4.4,10.3,6.8,16.4,6.6c6.2-0.2,12-3.1,16-7.9l102-123.1
		c3.8-4.6,11.1-7.8,19.6-8.6c8.2-0.7,15.4,1,19.9,4.7c3.8,3.2,6.3,6.6,10,11.8l130.6,171.7c0.1,0.2,0.2,0.3,0.3,0.5
		c0.5,1.2,13.6,28.9,57.2,30.3l1.2,0l60.2,0.5c20.7,0.2,37.6,17.2,37.6,37.9c0,37.5,30.5,68,68,68c37.5,0,68-30.5,68-68V681.1
		c0-51-41.5-92.4-92.4-92.4c-1.4,0-2.5-1.1-2.5-2.5s1.1-2.5,2.5-2.5c53.7,0,97.4,43.7,97.4,97.4v230.6
		C1701.1,952,1668.3,984.8,1628,984.8z"/>
</g>
<g>
	<path class="st0" d="M181.7,1283.5h-15.6c-24.8,0-45-20.2-45-45V999.8H88.1c-21,0-38.1-17.1-38.1-38.1v-36.4
		c0-21,17.1-38.1,38.1-38.1s38.1,17.1,38.1,38.1v69.5h179V878.1h-14.7c-5.9,0-10.6-4.8-10.6-10.6V713.9c0-5.9,4.8-10.6,10.6-10.6
		h51.9c5.9,0,10.6,4.8,10.6,10.6v153.6c0,5.9-4.8,10.6-10.6,10.6h-11.8v116.7h123.6c29.9,0,54.2-24.3,54.2-54.2
		c0-32.7,26.6-59.2,59.2-59.2h37.7c1.4,0,2.5,1.1,2.5,2.5s-1.1,2.5-2.5,2.5h-37.7c-29.9,0-54.2,24.3-54.2,54.2
		c0,32.7-26.6,59.2-59.2,59.2H328.1c-1.4,0-2.5-1.1-2.5-2.5V875.6c0-1.4,1.1-2.5,2.5-2.5h14.3c3.1,0,5.6-2.5,5.6-5.6V713.9
		c0-3.1-2.5-5.6-5.6-5.6h-51.9c-3.1,0-5.6,2.5-5.6,5.6v153.6c0,3.1,2.5,5.6,5.6,5.6h17.2c1.4,0,2.5,1.1,2.5,2.5v121.7
		c0,1.4-1.1,2.5-2.5,2.5H126.1v238.7c0,22.1,17.9,40,40,40h15.6c1.4,0,2.5,1.1,2.5,2.5S183.1,1283.5,181.7,1283.5z M88.1,892.3
		c-18.2,0-33.1,14.8-33.1,33.1v36.4c0,18.2,14.8,33.1,33.1,33.1h33.1v-69.5C121.1,907.1,106.3,892.3,88.1,892.3z"/>
</g>
<g>
	<path class="st1" d="M892,1154.8"/>
</g>
<g>
	<path class="st0" d="M892,1363c-1.4,0-2.5-1.1-2.5-2.5v-280.1c0-1.4,1.1-2.5,2.5-2.5s2.5,1.1,2.5,2.5v280.1
		C894.5,1361.9,893.4,1363,892,1363z"/>
</g>
</svg>
