<svg width="239" height="320" viewBox="0 0 239 320" fill="none" xmlns="http://www.w3.org/2000/svg">
<path d="M0.914905 28.719C0.488361 24.3214 3.70757 20.4106 8.10521 19.984L206.176 0.772434C210.573 0.345891 214.484 3.5651 214.911 7.96274L238.084 246.882C238.511 251.279 235.292 255.19 230.894 255.616L32.8235 274.828C28.4258 275.255 24.5151 272.035 24.0885 267.638L0.914905 28.719Z" fill="#555E65"/>
<g clip-path="url(#clip0_12_6625)">
<path d="M222.671 11.6633L23.9873 0.450754C19.576 0.20181 15.7982 3.57603 15.5492 7.98729L2.02662 247.606C1.77767 252.017 5.15189 255.795 9.56315 256.044L208.247 267.257C212.658 267.506 216.436 264.131 216.685 259.72L230.208 20.1013C230.457 15.6901 227.082 11.9122 222.671 11.6633Z" fill="#EDE7DB"/>
<path d="M54.8648 221.996C67.3508 222.701 78.0439 213.15 78.7485 200.664C79.4532 188.178 69.9025 177.485 57.4165 176.781C44.9305 176.076 34.2374 185.627 33.5327 198.113C32.8281 210.599 42.3788 221.292 54.8648 221.996Z" fill="#C9CF6B"/>
<path d="M14.3254 84.4375C12.1738 86.7254 11.5599 90.0607 12.756 92.9648L30.0568 134.972C31.4947 138.463 35.1778 140.474 38.892 139.795L68.3783 134.407C73.3219 133.504 76.2181 128.32 74.3957 123.636L70.9433 114.764C69.5005 111.056 71.0016 106.851 74.4662 104.896L146.276 64.3619C150.247 62.1201 151.544 57.0169 149.125 53.151L112.523 -5.33313C109.741 -9.77824 103.506 -10.3897 99.9136 -6.56971L14.3254 84.4375Z" fill="#C9CF6B"/>
<path fill-rule="evenodd" clip-rule="evenodd" d="M105.932 -15.7917C106.868 -16.3786 108.102 -16.0958 108.689 -15.16L229.508 177.48C230.095 178.416 229.812 179.65 228.877 180.237C227.941 180.824 226.707 180.541 226.12 179.605L105.3 -13.0347C104.713 -13.9705 104.996 -15.2048 105.932 -15.7917Z" fill="white"/>
<path fill-rule="evenodd" clip-rule="evenodd" d="M155.307 59.2639C155.85 60.2258 155.51 61.4458 154.549 61.9887L75.4491 106.638C72.8506 108.104 71.7248 111.258 72.8069 114.038L76.2594 122.911C78.5374 128.765 74.917 135.245 68.7375 136.374L32.8819 142.926C31.7953 143.125 30.7535 142.405 30.555 141.318C30.3564 140.232 31.0763 139.19 32.1629 138.991L68.0185 132.44C71.7262 131.762 73.8984 127.874 72.5317 124.362L69.0792 115.489C67.2758 110.854 69.1521 105.599 73.4829 103.154L152.582 58.5053C153.544 57.9624 154.764 58.302 155.307 59.2639Z" fill="white"/>
<path fill-rule="evenodd" clip-rule="evenodd" d="M201.782 133.844C201.784 134.949 200.889 135.845 199.785 135.847L70.002 136C68.8975 136.001 68.001 135.107 67.9997 134.002C67.9984 132.898 68.8928 132.001 69.9973 132L199.78 131.847C200.885 131.845 201.781 132.74 201.782 133.844Z" fill="white"/>
<path fill-rule="evenodd" clip-rule="evenodd" d="M-5.42742 -47.76C-4.82813 -48.6879 -3.59013 -48.9542 -2.66227 -48.355L85.2918 8.45292C86.2196 9.05222 86.486 10.2902 85.8867 11.2181C85.2874 12.1459 84.0494 12.4123 83.1215 11.813L-4.83248 -44.9949C-5.76035 -45.5942 -6.02671 -46.8322 -5.42742 -47.76Z" fill="white"/>
<path fill-rule="evenodd" clip-rule="evenodd" d="M40.9089 158.405C41.2376 159.459 40.6492 160.581 39.5946 160.909L-43.0401 186.666C-44.0946 186.994 -45.2159 186.406 -45.5446 185.351C-45.8733 184.297 -45.2849 183.175 -44.2303 182.847L38.4043 157.091C39.4589 156.762 40.5802 157.35 40.9089 158.405Z" fill="white"/>
<path fill-rule="evenodd" clip-rule="evenodd" d="M128.411 132.502C129.515 132.453 130.449 133.308 130.498 134.412L132.919 189.328C132.939 189.761 133.005 190.191 133.117 190.61L169.023 325.152C169.308 326.219 168.674 327.315 167.607 327.6C166.539 327.885 165.443 327.251 165.159 326.184L129.252 191.642C129.065 190.943 128.955 190.226 128.923 189.504L126.501 134.588C126.453 133.485 127.308 132.551 128.411 132.502Z" fill="white"/>
<path fill-rule="evenodd" clip-rule="evenodd" d="M278.19 -19.269C278.508 -18.211 277.908 -17.096 276.85 -16.7785L131.961 26.7074C130.903 27.0249 129.788 26.4247 129.47 25.3667C129.153 24.3088 129.753 23.1937 130.811 22.8762L275.7 -20.6096C276.758 -20.9271 277.873 -20.3269 278.19 -19.269Z" fill="white"/>
<path fill-rule="evenodd" clip-rule="evenodd" d="M184.532 6.75996C185.614 6.53313 186.674 7.22559 186.901 8.30662L206.689 102.612C206.916 103.693 206.223 104.753 205.142 104.98C204.061 105.207 203.001 104.515 202.774 103.434L182.986 9.12805C182.759 8.04703 183.451 6.9868 184.532 6.75996Z" fill="white"/>
<path d="M-239.211 185.216C-239.211 185.216 -239.211 185.216 -239.211 185.216C-233.115 186.166 -227.062 187.511 -221.137 189.303C-215.212 191.093 -209.412 193.315 -203.828 195.959C-198.251 198.617 -192.879 201.66 -187.752 205.016C-182.642 208.394 -177.758 212.053 -173.106 215.92L-171.374 217.382C-171.087 217.627 -170.794 217.868 -170.511 218.116L-169.661 218.859L-167.96 220.347L-166.289 221.857L-165.453 222.612L-164.63 223.377L-162.986 224.907L-161.365 226.453C-160.825 226.969 -160.283 227.483 -159.755 228.006L-158.159 229.568C-157.627 230.089 -157.107 230.616 -156.581 231.139C-155.524 232.185 -154.497 233.245 -153.457 234.297C-151.394 236.412 -149.35 238.532 -147.334 240.654L-144.316 243.832L-141.321 246.993C-139.357 249.059 -137.375 251.1 -135.372 253.117C-133.368 255.131 -131.347 257.125 -129.298 259.082C-127.251 261.043 -125.186 262.978 -123.095 264.879C-114.739 272.488 -106.034 279.618 -97.0181 286.103C-92.5077 289.34 -87.9221 292.419 -83.2539 295.283C-78.5887 298.152 -73.8375 300.798 -69.014 303.177C-67.8056 303.765 -66.5958 304.346 -65.3792 304.9L-64.4673 305.316L-63.552 305.72C-62.9426 305.993 -62.3295 306.249 -61.7179 306.513C-59.2675 307.549 -56.7978 308.495 -54.3125 309.35C-51.8272 310.207 -49.3232 310.951 -46.811 311.596C-46.1833 311.764 -45.5533 311.905 -44.9247 312.058C-44.6106 312.137 -44.2947 312.2 -43.9801 312.27C-43.6654 312.338 -43.35 312.411 -43.0351 312.476L-42.0891 312.666L-41.6162 312.761L-41.1428 312.847L-40.1959 313.02C-39.8805 313.075 -39.5646 313.123 -39.249 313.175C-37.9857 313.386 -36.7222 313.547 -35.4582 313.698C-34.1948 313.829 -32.931 313.952 -31.6693 314.021C-30.4069 314.105 -29.1474 314.135 -27.8893 314.155C-26.6326 314.154 -25.3762 314.144 -24.1254 314.076C-22.8729 314.025 -21.627 313.917 -20.3831 313.8L-19.4522 313.692C-19.1421 313.655 -18.8307 313.626 -18.5227 313.578C-17.9052 313.489 -17.2849 313.413 -16.6708 313.305C-14.208 312.903 -11.7634 312.383 -9.35702 311.699C-6.9492 311.019 -4.57116 310.211 -2.23236 309.269C0.107124 308.33 2.4044 307.248 4.65945 306.054C9.16883 303.664 13.4978 300.796 17.6212 297.552C21.7437 294.306 25.6672 290.696 29.3846 286.811C31.2392 284.863 33.0495 282.855 34.8111 280.789L35.47 280.012C35.6894 279.752 35.9104 279.495 36.1248 279.23L37.4204 277.649C38.2697 276.58 39.1249 275.516 39.9525 274.424L40.5783 273.609C40.7886 273.338 40.9888 273.059 41.1957 272.786L42.4248 271.133L44.9652 267.618C46.8065 265.092 48.7332 262.633 50.7398 260.244C52.7505 257.86 54.8478 255.553 57.0125 253.316C59.1797 251.083 61.4129 248.917 63.7212 246.841C72.9524 238.531 83.2239 231.49 94.1333 225.812C96.8609 224.393 99.6239 223.048 102.426 221.795C105.228 220.543 108.064 219.375 110.926 218.282L112.001 217.877C112.359 217.743 112.716 217.604 113.078 217.478L115.24 216.705L117.414 215.968L117.957 215.784L118.504 215.61L119.596 215.261C122.512 214.338 125.451 213.494 128.408 212.732C134.325 211.223 140.314 210.013 146.349 209.162L147.48 208.999L148.613 208.852L149.747 208.707L150.313 208.634L150.88 208.571L153.151 208.32L155.425 208.105C158.458 207.839 161.496 207.652 164.537 207.542C167.578 207.435 170.621 207.416 173.661 207.467L174.801 207.491C175.181 207.498 175.561 207.505 175.941 207.522L178.22 207.607C179.738 207.686 181.257 207.762 182.773 207.878C185.804 208.1 188.831 208.388 191.845 208.775C194.86 209.158 197.865 209.61 200.857 210.141C206.746 211.199 212.63 212.449 218.49 213.988C221.419 214.758 224.342 215.602 227.253 216.529L228.345 216.88L229.433 217.244C230.16 217.481 230.885 217.736 231.609 217.989L232.153 218.178L232.694 218.376L233.777 218.769C234.5 219.033 235.219 219.313 235.94 219.582C240.044 221.114 242.13 225.681 240.599 229.786C239.068 233.889 234.5 235.975 230.395 234.444C230.341 234.424 230.287 234.402 230.234 234.382L230.059 234.311C229.43 234.058 228.804 233.798 228.171 233.552L227.221 233.186L226.745 233.004L226.265 232.829C225.625 232.595 224.987 232.358 224.34 232.136L223.373 231.8L222.399 231.477C219.801 230.615 217.16 229.836 214.49 229.127C209.149 227.708 203.686 226.57 198.165 225.634C195.448 225.182 192.719 224.803 189.983 224.497L187.929 224.281L185.872 224.101L185.357 224.057L184.842 224.021L183.812 223.948L182.782 223.876L181.751 223.822C180.377 223.738 179.001 223.696 177.627 223.646L175.563 223.605C175.219 223.595 174.875 223.595 174.531 223.594L173.5 223.591C170.748 223.592 167.997 223.653 165.251 223.806C162.505 223.959 159.765 224.183 157.033 224.476L154.986 224.71L152.942 224.977L152.432 225.044L151.923 225.119L150.904 225.27L149.886 225.422L148.871 225.59C143.451 226.475 138.092 227.684 132.816 229.152C122.276 232.133 112.083 236.259 102.581 241.545C93.0703 246.808 84.2491 253.216 76.4468 260.617C74.4945 262.466 72.6176 264.386 70.8014 266.357C68.9878 268.331 67.2389 270.36 65.5679 272.447C63.8995 274.536 62.3048 276.679 60.7868 278.872L58.3233 282.46C57.8883 283.084 57.4447 283.704 57.0054 284.327C56.5695 284.951 56.1157 285.565 55.6644 286.182C54.7704 287.418 53.8386 288.634 52.9121 289.853L51.4941 291.665C51.2598 291.968 51.0162 292.266 50.7743 292.565L50.0487 293.461C48.1041 295.845 46.092 298.192 43.9941 300.478C41.8937 302.764 39.709 304.993 37.4399 307.155C35.1691 309.316 32.812 311.411 30.3552 313.414C25.4465 317.421 20.1465 321.077 14.4621 324.195C13.0438 324.978 11.5955 325.717 10.1326 326.43C9.95099 326.521 9.76695 326.608 9.5812 326.694L9.02745 326.952L7.91818 327.467L6.7953 327.958L6.23348 328.203L5.95215 328.325L5.6685 328.441C2.6491 329.699 -0.448116 330.804 -3.60661 331.728C-3.99995 331.849 -4.39778 331.955 -4.79399 332.064L-5.98518 332.39L-7.18371 332.688C-7.58368 332.786 -7.98233 332.891 -8.38517 332.977C-9.1894 333.154 -9.99168 333.344 -10.8016 333.497L-12.0144 333.735L-13.2326 333.946C-14.044 334.094 -14.8596 334.206 -15.6748 334.328C-16.0818 334.393 -16.4911 334.437 -16.9001 334.49C-17.3088 334.54 -17.7169 334.594 -18.1264 334.641C-19.7634 334.813 -21.4029 334.966 -23.0444 335.046C-24.6852 335.144 -26.3264 335.172 -27.9649 335.182C-29.6021 335.169 -31.2391 335.138 -32.868 335.042C-34.4987 334.961 -36.1203 334.814 -37.7376 334.651C-39.3511 334.47 -40.9609 334.269 -42.557 334.012C-42.9558 333.948 -43.3557 333.889 -43.7534 333.82L-44.9443 333.609L-45.5401 333.502L-46.1327 333.386L-47.317 333.151C-47.7114 333.071 -48.1026 332.983 -48.495 332.899C-48.8864 332.812 -49.2817 332.732 -49.6699 332.637C-50.4492 332.452 -51.2318 332.276 -52.0049 332.073C-55.1059 331.29 -58.1592 330.382 -61.1511 329.354C-64.1439 328.329 -67.0881 327.206 -69.9679 325.975C-70.6854 325.663 -71.4088 325.361 -72.1184 325.035L-73.1864 324.554L-74.2467 324.061C-75.6623 323.406 -77.0547 322.715 -78.4414 322.017C-83.9709 319.198 -89.2797 316.068 -94.3727 312.693C-99.4705 309.325 -104.355 305.714 -109.067 301.942C-118.487 294.387 -127.201 286.177 -135.485 277.669C-139.628 273.414 -143.659 269.078 -147.613 264.693C-149.589 262.499 -151.546 260.295 -153.484 258.078L-156.342 254.817C-157.292 253.738 -158.244 252.66 -159.196 251.592C-160.148 250.519 -161.107 249.465 -162.063 248.405C-162.539 247.872 -163.024 247.355 -163.504 246.829C-163.987 246.308 -164.465 245.779 -164.949 245.262C-165.917 244.227 -166.885 243.189 -167.864 242.173C-168.353 241.665 -168.838 241.149 -169.33 240.645L-170.808 239.137C-171.298 238.631 -171.797 238.137 -172.294 237.642C-172.792 237.148 -173.287 236.651 -173.787 236.16L-175.297 234.703L-176.052 233.975L-176.816 233.26L-178.344 231.832L-179.891 230.434L-180.664 229.736C-180.922 229.503 -181.186 229.28 -181.447 229.052L-183.017 227.689C-183.276 227.459 -183.545 227.243 -183.809 227.02L-184.605 226.358L-185.402 225.695C-185.535 225.585 -185.666 225.473 -185.8 225.365L-186.204 225.043L-187.82 223.755L-188.224 223.433C-188.359 223.326 -188.497 223.224 -188.634 223.12L-189.454 222.498L-190.274 221.875C-190.549 221.67 -190.818 221.454 -191.098 221.258L-192.766 220.057C-193.044 219.858 -193.32 219.654 -193.6 219.458L-194.446 218.881L-196.14 217.727C-200.693 214.72 -205.421 212.036 -210.314 209.733C-220.11 205.158 -230.588 202.18 -241.352 200.93C-245.704 200.425 -248.821 196.488 -248.316 192.137C-247.811 187.785 -243.874 184.668 -239.522 185.173C-239.43 185.184 -239.339 185.196 -239.249 185.21L-239.211 185.215C-239.211 185.215 -239.211 185.216 -239.211 185.216V185.216Z" fill="#A6D1D9"/>
<path fill-rule="evenodd" clip-rule="evenodd" d="M47.0664 220.074C48.0785 220.516 48.5405 221.695 48.0982 222.707L-30.6898 403.017C-31.132 404.029 -32.3111 404.491 -33.3233 404.049C-34.3354 403.607 -34.7974 402.428 -34.3551 401.416L44.4329 221.106C44.8752 220.093 46.0542 219.631 47.0664 220.074Z" fill="white"/>
<path fill-rule="evenodd" clip-rule="evenodd" d="M286.501 171.441C286.634 172.538 285.853 173.535 284.756 173.668L80.7883 198.404C79.6918 198.537 78.6951 197.756 78.5621 196.66C78.4291 195.563 79.2102 194.566 80.3067 194.433L284.275 169.697C285.371 169.564 286.368 170.345 286.501 171.441Z" fill="white"/>
<path fill-rule="evenodd" clip-rule="evenodd" d="M172.23 -83.4613C173.035 -82.7046 173.073 -81.4389 172.317 -80.6342L12.2486 89.5654C11.4919 90.3701 10.2261 90.4089 9.42152 89.6521C8.61689 88.8954 8.57806 87.6297 9.33479 86.8251L169.403 -83.3746C170.16 -84.1792 171.425 -84.2181 172.23 -83.4613Z" fill="white"/>
<path fill-rule="evenodd" clip-rule="evenodd" d="M57.4143 176.842C44.9622 176.139 34.2982 185.664 33.5955 198.116C32.8928 210.568 42.4175 221.232 54.8695 221.935C67.3215 222.638 77.9855 213.113 78.6882 200.661C79.391 188.209 69.8663 177.545 57.4143 176.842ZM29.6019 197.891C30.429 183.233 42.982 172.021 57.6396 172.849C72.2973 173.676 83.5091 186.229 82.6819 200.886C81.8547 215.544 69.3018 226.756 54.6441 225.929C39.9865 225.101 28.7747 212.548 29.6019 197.891Z" fill="white"/>
<path fill-rule="evenodd" clip-rule="evenodd" d="M-85.8379 136.735C-85.0084 136.005 -83.7447 136.086 -83.0153 136.916L28.7763 264.049C29.5057 264.878 29.4245 266.142 28.595 266.871C27.7655 267.601 26.5018 267.519 25.7724 266.69L-86.0192 139.557C-86.7486 138.728 -86.6674 137.464 -85.8379 136.735Z" fill="white"/>
<path fill-rule="evenodd" clip-rule="evenodd" d="M-25.2269 -1.08961C-24.2035 -1.50501 -23.037 -1.01206 -22.6216 0.0114198L48.7478 175.854C49.1632 176.877 48.6702 178.044 47.6467 178.459C46.6232 178.875 45.4568 178.382 45.0414 177.358L-26.328 1.51572C-26.7434 0.492241 -26.2504 -0.674205 -25.2269 -1.08961Z" fill="white"/>
<path d="M57.7963 73.1099C59.3915 81.0285 71.9942 84.2362 81.665 80.1931C90.0234 76.6989 94.3499 66.5244 102.144 62.9048C109.937 59.2852 131.89 54.9644 126.459 44.8623C121.029 34.7603 95.8013 22.0408 84.9764 32.4609C78.7773 38.4279 75.4677 52.398 68.1373 57.191C60.8069 61.984 56.1418 64.8977 57.7963 73.1099Z" fill="#A6D1D9"/>
<path fill-rule="evenodd" clip-rule="evenodd" d="M237.482 83.6344C238.045 84.5849 237.73 85.8116 236.78 86.3743L188.044 115.227C187.094 115.789 185.867 115.475 185.304 114.525C184.742 113.574 185.056 112.347 186.007 111.785L234.742 82.9323C235.692 82.3696 236.919 82.6839 237.482 83.6344Z" fill="white"/>
</g>
<path d="M154.531 207.518C154.793 202.87 158.774 199.315 163.421 199.577L192.876 201.24C197.524 201.502 201.079 205.482 200.816 210.13L199.154 239.584C198.892 244.232 194.912 247.787 190.264 247.525L160.809 245.863C156.162 245.601 152.606 241.62 152.869 236.972L154.531 207.518Z" fill="white"/>
<path fill-rule="evenodd" clip-rule="evenodd" d="M192.698 204.395L163.243 202.733C160.338 202.569 157.851 204.791 157.687 207.696L156.025 237.15C155.861 240.055 158.083 242.543 160.987 242.707L190.442 244.369C193.347 244.533 195.834 242.311 195.998 239.406L197.661 209.952C197.825 207.047 195.603 204.559 192.698 204.395ZM163.421 199.577C158.774 199.315 154.793 202.87 154.531 207.518L152.869 236.972C152.606 241.62 156.162 245.601 160.809 245.863L190.264 247.525C194.912 247.787 198.892 244.232 199.154 239.584L200.816 210.13C201.079 205.482 197.524 201.502 192.876 201.24L163.421 199.577Z" fill="#A9AEB1"/>
<path d="M169.213 219.564L172.475 219.748C172.787 220.364 173.409 220.802 174.149 220.844C175.251 220.906 176.196 220.063 176.258 218.96C176.32 217.857 175.477 216.912 174.374 216.85C173.635 216.808 172.967 217.174 172.588 217.751L169.325 217.567L169.213 219.564Z" fill="black"/>
<path d="M168.931 224.556L178.184 225.078C178.496 225.694 179.118 226.132 179.857 226.174C180.96 226.236 181.905 225.393 181.967 224.29C182.029 223.187 181.185 222.243 180.083 222.18C179.344 222.139 178.676 222.504 178.297 223.081L169.044 222.559L168.931 224.556Z" fill="black"/>
<path d="M171.912 229.732L168.649 229.548L168.762 227.551L172.024 227.735C172.403 227.158 173.071 226.793 173.81 226.834C174.913 226.897 175.757 227.841 175.695 228.944C175.632 230.047 174.688 230.89 173.585 230.828C172.846 230.786 172.223 230.348 171.912 229.732Z" fill="black"/>
<path d="M177.2 220.014L185.187 220.465L185.3 218.468L177.313 218.018L177.2 220.014Z" fill="black"/>
<path d="M184.906 225.457L182.909 225.345L183.022 223.348L185.018 223.46L184.906 225.457Z" fill="black"/>
<path d="M176.637 229.999L184.624 230.449L184.737 228.453L176.749 228.002L176.637 229.999Z" fill="black"/>
<path d="M152.083 241.83C152.104 242.092 152.052 242.344 151.942 242.574C151.913 242.734 151.865 242.895 151.798 243.053L147.496 253.1C147.078 254.075 146.057 254.579 145.216 254.224C144.374 253.87 144.03 252.793 144.447 251.818L147.87 243.823L139.352 244.515C138.291 244.602 137.372 243.937 137.3 243.032C137.229 242.126 138.031 241.322 139.092 241.235L150.031 240.347C151.092 240.26 152.011 240.925 152.083 241.83Z" fill="#A2AD00"/>
<path d="M113.227 300.29C112.84 301.375 111.648 301.966 110.567 301.609C109.485 301.253 108.922 300.083 109.31 298.998C109.8 297.626 109.902 296.014 109.511 294.244C109.266 293.135 109.978 292.014 111.101 291.741C112.225 291.468 113.333 292.146 113.578 293.255C114.112 295.678 114.014 298.088 113.227 300.29Z" fill="#A2AD00"/>
<path d="M103.719 303.932C104.82 303.574 105.98 304.163 106.311 305.248C106.641 306.333 106.017 307.504 104.917 307.861C103.885 308.197 102.78 308.448 101.606 308.611C99.8106 308.86 98.0744 308.716 96.479 308.199C95.3954 307.848 94.827 306.682 95.2088 305.594C95.5912 304.507 96.7795 303.91 97.8632 304.261C98.8368 304.577 99.9371 304.68 101.138 304.513C102.085 304.382 102.944 304.184 103.719 303.932Z" fill="#A2AD00"/>
<path d="M108.524 284.162C109.291 284.992 109.22 286.301 108.365 287.087C107.511 287.873 106.195 287.837 105.427 287.007C104.834 286.367 104.179 285.732 103.456 285.107C103.437 285.091 103.418 285.075 103.399 285.058C103.352 285.018 103.305 284.977 103.257 284.935L103.254 284.933C102.594 284.361 101.835 283.704 100.933 283.01C100.036 282.319 99.8915 281.021 100.61 280.111C101.329 279.2 102.638 279.022 103.535 279.712C104.535 280.482 105.378 281.212 106.035 281.782C106.089 281.829 106.142 281.875 106.194 281.919C106.208 281.931 106.221 281.943 106.235 281.954C107.064 282.673 107.828 283.41 108.524 284.162Z" fill="#A2AD00"/>
<path d="M135.703 248.842C136.739 248.32 137.982 248.721 138.48 249.737C138.978 250.753 138.542 252 137.506 252.522C135.432 253.568 133.355 254.651 131.296 255.766C130.276 256.319 129.02 255.956 128.491 254.956C127.962 253.956 128.36 252.697 129.381 252.145C131.479 251.009 133.594 249.905 135.703 248.842Z" fill="#A2AD00"/>
<path d="M92.7574 295.471C92.7456 296.613 91.8051 297.555 90.6556 297.575C89.5065 297.593 88.5841 296.683 88.5959 295.54C88.6234 292.771 89.2585 289.721 90.5923 286.501C91.034 285.435 92.2521 284.904 93.3134 285.315C94.3742 285.726 94.8762 286.923 94.4347 287.989C93.2792 290.777 92.7791 293.3 92.7574 295.471Z" fill="#A2AD00"/>
<path d="M119.474 257.864C120.461 257.254 121.739 257.542 122.327 258.509C122.914 259.475 122.59 260.752 121.602 261.362C119.585 262.609 117.627 263.878 115.754 265.161C114.796 265.817 113.505 265.591 112.87 264.655C112.235 263.72 112.497 262.43 113.455 261.774C115.391 260.447 117.405 259.143 119.474 257.864Z" fill="#A2AD00"/>
<path d="M104.265 268.792C105.142 268.03 106.455 268.105 107.197 268.957C107.939 269.81 107.829 271.117 106.952 271.878C106.065 272.647 105.224 273.416 104.431 274.181C103.39 275.188 102.428 276.185 101.544 277.171C100.768 278.035 99.4523 278.128 98.6037 277.381C97.7552 276.633 97.6961 275.326 98.4711 274.462C99.4266 273.397 100.46 272.326 101.572 271.251C102.425 270.427 103.325 269.607 104.265 268.792Z" fill="#A2AD00"/>
<path d="M93.0608 274.534C94.1693 274.806 94.822 275.926 94.5181 277.036C94.2149 278.145 93.0702 278.824 91.9618 278.552C90.1046 278.096 88.0224 277.842 85.6943 277.921C84.5453 277.959 83.6071 277.065 83.5985 275.922C83.5903 274.781 84.5151 273.824 85.6648 273.785C88.3871 273.693 90.8491 273.989 93.0608 274.534Z" fill="#A2AD00"/>
<path d="M74.1751 276.235C75.2578 275.825 76.4474 276.357 76.8315 277.423C77.2156 278.489 76.649 279.687 75.5656 280.097C73.6647 280.817 71.6483 281.74 69.5114 282.904C68.4923 283.458 67.2359 283.098 66.7047 282.099C66.1737 281.1 66.5694 279.841 67.5882 279.286C69.8842 278.037 72.0785 277.03 74.1751 276.235Z" fill="#A2AD00"/>
<path d="M57.9667 285.566C58.8935 284.866 60.1955 285.03 60.8756 285.933C61.5555 286.836 61.355 288.136 60.4288 288.835C58.7179 290.128 56.9487 291.559 55.1188 293.14C54.2397 293.899 52.9269 293.823 52.1865 292.969C51.4456 292.115 51.5579 290.807 52.4368 290.048C54.3334 288.409 56.1763 286.919 57.9667 285.566Z" fill="#A2AD00"/>
<defs>
<clipPath id="clip0_12_6625">
<rect x="16" width="215" height="256" rx="8" transform="rotate(3.23 16 0)" fill="white"/>
</clipPath>
</defs>
</svg>
