<?xml version="1.0" encoding="utf-8"?>
<!-- Generator: Adobe Illustrator 26.4.1, SVG Export Plug-In . SVG Version: 6.00 Build 0)  -->
<svg version="1.1" id="Layer_1" xmlns="http://www.w3.org/2000/svg" xmlns:xlink="http://www.w3.org/1999/xlink" x="0px" y="0px"
	viewBox="0 0 1804 1804" style="enable-background:new 0 0 1804 1804;">
	<g>
		<g>
			<g>
				<g>
					<path fill="#005685" d="M1041.9,633.1c-2.7,0-4.4-1.8-4.4-4.4c0-0.9,0-2.7,0.9-3.5c0.9-0.9,1.8-1.8,3.5-1.8
					c31-0.9,37.3-14.2,38.1-41.7c0-2.7,1.8-4.4,3.5-4.4c3.5-0.9,4.4-1.8,4.4-1.8s0.9-1.8-1.8-8.9c-5.3-12.4-6.2-20.4-6.2-36.4
					c-1.8-38.1,0-38.1,2.7-38.1s4.4,0,6.2,38.1c0,15.1,0.9,22.2,5.3,32.8c3.5,8,3.5,12.4,1.8,16.9c-1.8,2.7-4.4,4.4-7.1,5.3
					C1087.1,615.4,1078.2,632.2,1041.9,633.1L1041.9,633.1z M1041.9,630.5L1041.9,630.5L1041.9,630.5z M1041.9,627.8L1041.9,627.8
					L1041.9,627.8L1041.9,627.8L1041.9,627.8z M1041.9,627.8L1041.9,627.8L1041.9,627.8L1041.9,627.8L1041.9,627.8z" />
				</g>
			</g>
			<g>
				<g>
					<path fill="#005685" d="M1029.4,679.2L1029.4,679.2h-2.7v-2.7c-2.7-25.7,0-42.6,7.1-49.7c4.4-4.4,8-3.5,8.9-3.5
					c0.9,0,2.7,0.9,3.5,1.8c0.9,0.9,0.9,1.8,0.9,3.5c0,2.7-2.7,4.4-5.3,4.4c0,0-0.9,0-0.9,0.9c-0.9,1.8-3.5,14.2-7.1,37.3
					C1032.1,679.2,1031.2,679.2,1029.4,679.2z M1033,639.3c-0.9,1.8-0.9,4.4-1.8,7.1C1032.1,643.8,1033,641.1,1033,639.3z" />
				</g>
			</g>
			<g>
				<g>
					<path fill="#005685" d="M984.2,679.2h-1.8c-2.7-0.9-3.5-3.5-2.7-6.2c15.1-45.2,8-84.3,8-86c0-0.9,0-2.7,0.9-3.5
					c0.9-0.9,1.8-1.8,2.7-1.8c0.9,0,2.7,0,3.5,0.9c0.9,0.9,1.8,1.8,1.8,2.7c0,0,8,42.6-8,91.4C987.8,678.4,986,679.2,984.2,679.2z
					 M991.3,586.1L991.3,586.1L991.3,586.1L991.3,586.1z" />
				</g>
			</g>
			<g>
				<g>
					<path fill="#005685" d="M1104.8,844.2h-0.9c-0.9,0-1.8-0.9-2.7-1.8c-0.9-0.9-0.9-2.7-0.9-3.5c4.4-15.1,7.1-31.9-0.9-55.9
					c-10.6-33.7-48.8-94-49.7-96.7c-0.9-0.9-0.9-2.7-0.9-3.5c0-0.9,0.9-2.7,1.8-2.7c2.7-1.8,5.3-0.9,6.2,1.8
					c0,0.9,39.9,63.9,51.4,99.3c8,25.7,5.3,44.4,0.9,61.2C1108.4,843.3,1106.6,844.2,1104.8,844.2z M1105.7,839.8
					C1105.7,839.8,1104.8,839.8,1105.7,839.8L1105.7,839.8L1105.7,839.8z M1052.5,683.7L1052.5,683.7L1052.5,683.7z" />
				</g>
			</g>
			<g>
				<g>
					<path fill="#005685" d="M1184.7,857.5c-14.2,0-55-19.5-78.1-36.4c-0.9-0.9-1.8-1.8-1.8-3.5c0-0.9,0-2.7,0.9-3.5
					c1.8-1.8,4.4-2.7,6.2-0.9c21.3,16.9,60.3,34.6,71.9,34.6c35.5-1.8,145.5-54.1,150.8-59.4c0.9-1.8,3.5-1.8,6.2-0.9
					c0.9,0.9,1.8,1.8,1.8,2.7s0,2.7-0.9,3.5c-5.3,8-121.5,61.2-157,63V857.5z M1339,792.8L1339,792.8L1339,792.8z" />
				</g>
			</g>
			<g>
				<g>
					<path fill="#005685" d="M1183.8,813.2c-0.9,0-0.9,0-0.9,0c-0.9,0-1.8,0-1.8-0.9c-30.2-19.5-86.9-56.8-104.7-84.3
					c-1.8-1.8-0.9-5.3,0.9-6.2c1.8-1.8,5.3-0.9,6.2,0.9c16.9,25.7,71.9,61.2,101.1,80.7c6.2,0,40.8-3.5,147.3-43.5
					c0.9,0,2.7,0,3.5,0c0.9,0.9,1.8,1.8,2.7,2.7c0.9,2.7,0,5.3-2.7,6.2C1221.9,811.4,1189.1,813.2,1183.8,813.2z" />
				</g>
			</g>
			<g>
				<path fill="#005685" d="M918.6,792.8c-19.5,0-31-8.9-36.4-16c-16.9-21.3-14.2-63,8.9-102.9c28.4-50.6,38.1-102.9,47-149.9
				c1.8-10.6,3.5-20.4,5.3-29.3c12.4-57.7,76.3-69.2,77.2-69.2s0.9,0,1.8,0c25.7-4.4,50.6,0.9,75.4,14.2c16,8.9,19.5,17.7,18.6,23.1
				c0,5.3-3.5,10.6-8.9,14.2c-2.7,1.8-5.3,1.8-8,2.7c1.8,6.2,0,9.8-2.7,11.5c-5.3,4.4-15.1,1.8-18.6-1.8l0,0
				c-11.5,16.9-21.3,21.3-30.2,26.6c-6.2,3.5-13.3,7.1-19.5,14.2c-14.2,16-16.9,41.7-7.1,89.6c3.5,17.7,17.7,32.8,31,47
				c19.5,21.3,37.3,40.8,26.6,67.4c-6.2,14.2-12.4,21.3-19.5,22.2c-12.4,1.8-23.1-11.5-35.5-27.5c-3.5-4.4-6.2-8-9.8-12.4
				c-8-9.8-16.9-14.2-24.8-13.3c-16.9,0.9-29.3,20.4-29.3,21.3c-15.1,31-9.8,58.5-9.8,59.4l0.9,4.4l-3.5,0.9
				C936.3,791.9,926.5,792.8,918.6,792.8z M1021.5,435.3c-3.5,0.9-58.5,11.5-69.2,62.1c-1.8,8.9-3.5,18.6-5.3,28.4
				c-8.9,47-19.5,101.1-47.9,152.6c-20.4,36.4-24,73.6-9.8,93.1c9.8,12.4,27.5,16,50.6,9.8c-0.9-9.8-1.8-33.7,11.5-61.2
				c0.9-0.9,15.1-24.8,37.3-26.6c11.5-0.9,23.1,4.4,32.8,16.9c3.5,4.4,7.1,8,9.8,12.4c9.8,12.4,20.4,25.7,27.5,24.8
				c4.4-0.9,8.9-6.2,13.3-16.9c8.9-21.3-8-39-24.8-57.7c-14.2-16-29.3-31.9-32.8-51.4c-10.6-50.6-8-78.1,8.9-96.7
				c8-8.9,15.1-12.4,22.2-16c8-4.4,16.9-8.9,26.6-23.1c0.9-2.7,1.8-4.4,4.4-5.3c4.4-1.8,8.9,1.8,9.8,3.5c1.8,1.8,6.2,2.7,7.1,1.8
				c0,0,0-2.7-3.5-8c-2.7-2.7-1.8-5.3-0.9-7.1c2.7-3.5,7.1-0.9,10.6,0.9c0.9,0,2.7,0,5.3-0.9c2.7-1.8,4.4-3.5,4.4-6.2
				c0-4.4-5.3-9.8-14.2-15.1c-33.7-19.5-60.3-15.1-69.2-13.3C1022.3,435.3,1022.3,435.3,1021.5,435.3z" />
			</g>
			<g>
				<g>
					<path fill="#005685" d="M1383.4,796.3c-0.9,0-1.8,0-1.8-0.9l-44.4-23.1c-1.8-0.9-2.7-2.7-2.7-4.4v-13.3c0-2.7,1.8-4.4,4.4-4.4
					c2.7,0,4.4,1.8,4.4,4.4v9.8l37.3,19.5l40.8-78.1V697c0-2.7,1.8-4.4,4.4-4.4c2.7,0,4.4,1.8,4.4,4.4v12.4c0,0.9,0,1.8-0.9,1.8
					l-43.5,82.5C1385.1,794.6,1384.3,795.4,1383.4,796.3L1383.4,796.3z" />
				</g>
			</g>
			<g>
				<g>
					<path fill="#005685" d="M1383.4,783.9c-0.9,0-1.8,0-1.8-0.9l-44.4-23.1c-0.9-0.9-1.8-1.8-2.7-2.7c0-0.9,0-2.7,0-3.5l43.5-82.5
					c0.9-0.9,1.8-1.8,2.7-2.7c0.9,0,2.7,0,3.5,0l44.4,23.1c0.9,0.9,1.8,1.8,2.7,2.7c0,0.9,0,2.7,0,3.5l-43.5,82.5
					C1386,783,1385.1,783.9,1383.4,783.9z M1345.2,753.8l36.4,18.6l39-74.5l-36.4-18.6L1345.2,753.8z" />
				</g>
			</g>
			<g>
				<g>
					<path fill="#005685" d="M1335.5,799.9L1335.5,799.9c-1.8,0-3.5-0.9-4.4-1.8c-0.9-0.9-1.8-1.8-1.8-3.5c0-2.7,1.8-4.4,4.4-4.4h0.9
					l0,0c12.4,0,32.8-1.8,39-5.3c0.9-0.9,2.7-0.9,3.5-0.9c0.9,0,2.7,0.9,2.7,1.8c0.9,0.9,0.9,2.7,0.9,3.5c0,0.9-0.9,2.7-1.8,2.7
					C1370.1,799,1343.5,799.9,1335.5,799.9z M1335.5,794.6L1335.5,794.6C1335.5,795.4,1335.5,794.6,1335.5,794.6z M1335.5,794.6
					L1335.5,794.6v-1.8V794.6z" />
				</g>
			</g>
			<g>
				<g>
					<path fill="#005685" d="M1327.5,772.4h-1.8c-0.9,0-1.8-0.9-2.7-2.7c-0.9-0.9-0.9-2.7,0-3.5c0.9-3.5,5.3-16,5.3-21.3
					c0-4.4,3.5-9.8,9.8-18.6c4.4-6.2,8.9-13.3,11.5-18.6c3.5-8,8-9.8,10.6-8.9c3.5,0,7.1,2.7,8.9,7.1c0,0.9,0,2.7,0,3.5
					c-0.9,0.9-1.8,1.8-2.7,2.7c-2.7,0.9-5.3,0-6.2-2.7c0,0,0,0,0-0.9c0,0.9-0.9,1.8-1.8,2.7c-2.7,6.2-8,14.2-12.4,20.4
					c-3.5,4.4-8,12.4-8.9,14.2c0,6.2-4.4,20.4-5.3,23.1C1331,770.6,1329.3,772.4,1327.5,772.4z" />
				</g>
			</g>
			<g>
				<g>
					<path fill="#005685" d="M1386.9,790.1c-1.8,0-4.4-1.8-4.4-3.5c0-0.9,0-2.7,0.9-3.5c0.9-0.9,1.8-1.8,2.7-1.8
					c9.8-1.8,26.6-21.3,28.4-33.7c0.9-3.5,1.8-7.1,3.5-9.8c-1.8,1.8-2.7,4.4-4.4,6.2c-0.9,0.9-1.8,1.8-2.7,1.8s-2.7,0-3.5-0.9
					c-1.8-1.8-2.7-4.4-1.8-6.2c16.9-25.7,22.2-26.6,24-26.6s3.5,0.9,4.4,1.8c3.5,4.4,0.9,9.8-3.5,17.7c-2.7,5.3-6.2,11.5-7.1,17.7
					C1420.6,765.3,1401.1,787.5,1386.9,790.1L1386.9,790.1z" />
				</g>
			</g>
			<g>
				<g>
					<path fill="#005685" d="M975.3,801.7c-1.8,0-2.7-0.9-3.5-1.8l0,0c-0.9-0.9-0.9-0.9-0.9-1.8c-0.9-0.9-0.9-2.7,0-3.5
					c0.9-0.9,1.8-1.8,2.7-2.7c39.9-15.1,71-2.7,71.9-2.7c2.7,0.9,3.5,3.5,2.7,6.2c0,0.9-1.8,2.7-2.7,2.7c-0.9,0.9-2.7,0.9-3.5,0
					c0,0-29.3-10.6-64.8,2.7C976.2,801.7,976.2,801.7,975.3,801.7z" />
				</g>
			</g>
			<g>
				<g>
					<path fill="#005685" d="M1046.3,1053.6c-0.9,0-1.8,0-2.7-0.9c0,0-25.7-16.9-63.9-11.5c-1.8,0-3.5-0.9-5.3-2.7l0,0
					c0-0.9-0.9-0.9-0.9-1.8c0-1.8,0-2.7,0.9-3.5c0.9-0.9,1.8-1.8,3.5-1.8c41.7-6.2,69.2,12.4,71,13.3c2.7,1.8,2.7,4.4,1.8,7.1
					c-0.9,0.9-1.8,1.8-2.7,1.8C1047.2,1053.6,1046.3,1053.6,1046.3,1053.6z" />
				</g>
			</g>
			<g>
				<g>
					<path fill="#005685" d="M1102.2,782.1h-1.8c-0.9,0-1.8-0.9-2.7-2.7c-0.9-0.9-0.9-2.7,0-3.5c3.5-11.5,11.5-18.6,12.4-19.5
					c0.9-0.9,1.8-1.8,3.5-0.9c0.9,0,2.7,0.9,3.5,1.8c1.8,1.8,1.8,4.4,0,6.2c0,0-7.1,7.1-9.8,16
					C1106.6,781.3,1104,782.1,1102.2,782.1z" />
				</g>
			</g>
			<g>
				<g>
					<path fill="#005685" d="M1425.1,680.1c-4.4,0-8-1.8-9.8-3.5c-3.5-4.4-5.3-11.5,2.7-21.3c0.9-0.9,8.9-16,1.8-31
					c-7.1-15.1-25.7-25.7-55.9-31.9c-93.1-18.6-112.7-123.3-102.9-175.6c5.3-25.7,24-46.1,51.4-55c28.4-9.8,57.7-4.4,77.2,14.2
					c16,15.1,31.9,44.4,18.6,100.2c-13.3,55.9-7.1,60.3,14.2,72.7c8,4.4,17.7,10.6,29.3,20.4c19.5,17.7,23.1,37.3,23.1,50.6
					c-0.9,20.4-11.5,40.8-28.4,53.2C1437.5,677.5,1431.3,680.1,1425.1,680.1z M1339.9,366.1c-8,0-16.9,1.8-24.8,4.4
					c-24,8-40.8,25.7-45.2,47.9c-9.8,48.8,8.9,147.3,95.8,165c33.7,7.1,55,19.5,63,38.1c8.9,20.4-2.7,39-2.7,39.9v0.9
					c-3.5,3.5-4.4,7.1-3.5,8.9c1.8,1.8,8,1.8,17.7-5.3c14.2-10.6,24-28.4,24.8-46.1c0.9-11.5-2.7-28.4-19.5-42.6
					c-10.6-8.9-19.5-15.1-27.5-19.5c-23.1-13.3-33.7-19.5-17.7-82.5c12.4-52.3-1.8-78.1-16-91.4
					C1371.8,372.3,1356.8,366.1,1339.9,366.1z" />
				</g>
			</g>
			<g>
				<g>
					<g>
						<g>
							<path fill="#005685" d="M1364.7,485h-73.6c-2.7,0-5.3-0.9-6.2-3.5c-0.9-1.8-0.9-4.4,0.9-7.1l8.9-13.3c0.9-0.9,0.9-1.8,1.8-1.8
							v-0.9l1.8-31c0-1.8,0-2.7,0.9-3.5c1.8-13.3,14.2-24,30.2-24c16,0,28.4,10.6,30.2,24c0,0.9,0,2.7,0.9,3.5l1.8,31
							c0,0.9,0,0.9,0,1.8c0,0.9,0.9,0.9,0.9,1.8l8.9,13.3c1.8,1.8,1.8,4.4,0.9,7.1C1369.2,483.2,1367.4,485,1364.7,485z
							 M1296.4,475.2h63l-6.2-8.9c0-0.9-0.9-0.9-0.9-1.8c-1.8-1.8-1.8-3.5-1.8-6.2l-1.8-31.9l-0.9-0.9v-1.8c-0.9-8.9-9.8-16-20.4-16
							c-11.5,0-20.4,7.1-20.4,16l-1.8,33.7c0,2.7,0,4.4-1.8,6.2c0,0-0.9,0.9-0.9,1.8L1296.4,475.2z" />
						</g>
					</g>
				</g>
				<g>
					<g>
						<g>
							<path fill="#005685" d="M1328.4,502.7c-11.5,0-19.5-13.3-20.4-14.2c-0.9-1.8-1.8-4.4,0-6.2c0.9-1.8,3.5-3.5,6.2-3.5h29.3
							c2.7,0,5.3,0.9,6.2,3.5c0.9,1.8,0.9,4.4,0,6.2C1347.9,489.4,1339.9,502.7,1328.4,502.7z M1318.6,487.6
							c2.7,2.7,5.3,5.3,8.9,5.3s6.2-2.7,8.9-5.3H1318.6z" />
						</g>
					</g>
				</g>
			</g>
			<g>
				<path fill="#005685" d="M1142.1,1553.9c-5.3,0-10.6-0.9-16-3.5c-0.9,0-1.8-0.9-1.8-1.8c-14.2-23.1-27.5-46.1-38.1-68.3
				c-4.4-8.9-8-16.9-11.5-25.7c-15.1-36.4-24.8-69.2-27.5-98.5c-1.8-16-1.8-31,0.9-44.4c0-2.7,0.9-4.4,1.8-7.1l-1.8-11.5
				c-0.9-3.5-1.8-8-2.7-13.3c-0.9-3.5-0.9-7.1-1.8-10.6l-0.9-5.3c0-0.9,0-1.8,0-2.7c5.3-20.4,9.8-42.6,14.2-66.5
				c5.3-26.6,10.6-56.8,15.1-92.3c0-2.7,2.7-4.4,5.3-4.4c2.7,0,4.4,2.7,4.4,5.3c-5.3,35.5-10.6,65.6-16,92.3
				c-4.4,24-8.9,46.1-14.2,66.5l0,0l0.9,4.4c0.9,3.5,0.9,7.1,1.8,10.6c0.9,5.3,1.8,9.8,2.7,13.3l2.7,12.4c0,0.9,0,1.8,0,1.8
				c-0.9,2.7-0.9,5.3-1.8,8c-2.7,12.4-2.7,26.6-0.9,41.7c2.7,28.4,11.5,60.3,26.6,95.8c3.5,8,7.1,16,11.5,24.8
				c10.6,22.2,23.1,44.4,36.4,65.6c4.4,1.8,8,2.7,12.4,1.8c2.7,0,6.2-0.9,8.9-2.7c-4.4-21.3-8.9-42.6-12.4-62.1l-1.8-8
				c-0.9-5.3-1.8-11.5-2.7-16.9c-7.1-40.8-10.6-74.5-12.4-100.2c-0.9-15.1-0.9-26.6,0-35.5c0-3.5,0.9-7.1,0.9-9.8
				c2.7-15.1,5.3-30.2,7.1-45.2v-2.7c2.7-21.3,4.4-43.5,5.3-65.6c0.9-26.6,0-51.4-1.8-78.1c-0.9-8.9-1.8-16.9-2.7-24.8
				c0-2.7,1.8-5.3,4.4-5.3c2.7,0,5.3,1.8,5.3,4.4c0.9,8,1.8,16,2.7,24.8c1.8,26.6,2.7,52.3,1.8,78.9c-0.9,22.2-2.7,45.2-5.3,66.5
				v2.7c-1.8,15.1-4.4,30.2-7.1,45.2c-0.9,2.7-0.9,5.3-0.9,8.9c-0.9,8.9-0.9,20.4,0,34.6c0.9,25.7,5.3,58.5,12.4,98.5
				c0.9,5.3,1.8,11.5,2.7,16.9l1.8,8c3.5,21.3,8.9,43.5,13.3,65.6c0.9,1.8-0.9,4.4-2.7,5.3c-4.4,2.7-9.8,5.3-16,5.3
				C1143.9,1553.9,1143,1553.9,1142.1,1553.9z" />
			</g>
			<g>
				<path fill="#005685" d="M961.1,1555.7c-12.4,0-22.2-7.1-28.4-12.4c-0.9-0.9-0.9-1.8-0.9-2.7c-4.4-20.4-8-41.7-9.8-63
				c-0.9-9.8-0.9-17.7-1.8-25.7c-0.9-40.8,4.4-77.2,16.9-109.1c4.4-11.5,9.8-22.2,15.1-31.9l0,0v-0.9c0-1.8,0-4.4-0.9-8
				c-0.9-5.3-1.8-13.3-2.7-23.1c0-3.5-0.9-8.9-0.9-14.2v-4.4c-0.9-17.7-1.8-40.8-3.5-66.5c-0.9-22.2-2.7-42.6-3.5-60.3
				c-0.9-15.1-1.8-29.3-2.7-42.6c0-2.7,1.8-5.3,4.4-5.3c2.7,0,5.3,1.8,5.3,4.4c0.9,13.3,1.8,26.6,2.7,41.7
				c1.8,17.7,2.7,38.1,3.5,60.3c0.9,24.8,1.8,48.8,3.5,65.6v4.4c0,5.3,0.9,9.8,0.9,14.2c0.9,9.8,1.8,17.7,2.7,23.1
				c0,2.7,0.9,5.3,0.9,7.1v0.9c0,2.7,0,4.4-1.8,7.1c-5.3,8.9-10.6,19.5-14.2,31c-11.5,30.2-16.9,65.6-16,105.6
				c0,8.9,0.9,16.9,0.9,24.8c1.8,19.5,4.4,39.9,8.9,59.4c4.4,4.4,11.5,8.9,20.4,8.9l0,0c5.3-25.7,9.8-47.9,14.2-69.2l5.3-24.8
				c8-37.3,16-65.6,22.2-85.2c3.5-11.5,7.1-20.4,10.6-25.7c5.3-8,9.8-18.6,14.2-31c3.5-9.8,7.1-20.4,10.6-35.5
				c0.9-3.5,1.8-8,2.7-11.5c0-0.9,0-2.7,0.9-3.5c4.4-19.5,9.8-40.8,14.2-63.9c5.3-26.6,10.6-56.8,15.1-92.3c0-2.7,2.7-4.4,5.3-4.4
				c2.7,0,4.4,2.7,4.4,5.3c-5.3,35.5-10.6,65.6-16,92.3c-4.4,24-8.9,46.1-14.2,66.5c0,0,0,0,0,0.9v0.9c-0.9,4.4-1.8,8.9-3.5,13.3
				c-4.4,15.1-8,26.6-11.5,36.4c-4.4,13.3-9.8,24.8-15.1,33.7c-2.7,4.4-6.2,12.4-9.8,24c-6.2,19.5-13.3,47.9-22.2,84.3l-5.3,24.8
				c-4.4,22.2-9.8,46.1-15.1,72.7c0,1.8-1.8,3.5-4.4,4.4C964.7,1555.7,962.9,1555.7,961.1,1555.7z" />
			</g>
			<g>
				<path fill="#005685" d="M1017,1598.2h-94c-2.7,0-4.4-1.8-5.3-4.4c-0.9-6.2,0-16,3.5-24c1.8-3.5,3.5-6.2,5.3-8.9
				c3.5-5.3,6.2-8.9,4.4-16c0-1.8,0.9-4.4,2.7-5.3s4.4-0.9,5.3,0.9c8,8,16,10.6,24.8,9.8c1.8,0,4.4,0.9,5.3,2.7
				c5.3,8,11.5,17.7,15.1,19.5c0.9,0.9,5.3,1.8,8,2.7c9.8,1.8,24,5.3,28.4,16.9c0.9,1.8,0,3.5-0.9,4.4
				C1020.6,1597.3,1018.8,1598.2,1017,1598.2z M927.4,1587.6h77.2c-4.4-1.8-9.8-2.7-14.2-4.4c-5.3-0.9-8.9-1.8-11.5-3.5
				c-5.3-3.5-12.4-14.2-16-20.4c-8,0.9-15.1-1.8-22.2-6.2c-0.9,4.4-3.5,8.9-6.2,12.4c-1.8,2.7-2.7,4.4-4.4,8
				C928.3,1577.8,928.3,1584,927.4,1587.6z" />
			</g>
			<g>
				<path fill="#005685" d="M1221.9,1599.1h-94c-2.7,0-4.4-1.8-5.3-4.4c-0.9-4.4-1.8-16,4.4-24.8c3.5-7.1,2.7-9.8-0.9-16.9
				c-0.9-1.8-0.9-4.4,0.9-5.3c1.8-1.8,3.5-1.8,5.3-0.9c4.4,1.8,8.9,2.7,13.3,2.7c3.5,0,8.9-2.7,11.5-4.4c1.8-0.9,4.4-0.9,6.2,0.9
				l2.7,2.7c5.3,6.2,19.5,21.3,23.1,24.8c0.9,0.9,5.3,1.8,8,1.8c9.8,1.8,24,5.3,28.4,16.9c0.9,1.8,0,3.5-0.9,4.4
				C1225.5,1598.2,1223.7,1599.1,1221.9,1599.1z M1132.3,1589.4h78.1c-4.4-1.8-8.9-2.7-14.2-3.5s-8.9-1.8-11.5-3.5
				c-4.4-3.5-15.1-14.2-24.8-25.7l0,0c-3.5,1.8-8,3.5-12.4,3.5c-2.7,0-5.3,0-8,0c0.9,4.4,0.9,9.8-3.5,16.9
				C1133.2,1579.6,1132.3,1584.9,1132.3,1589.4z" />
			</g>
			<g>
				<g>
					<path fill="#005685" d="M996.6,956H994c-11.5,0-19.5-0.9-22.2-0.9h-0.9c-2.7,0-4.4-2.7-4.4-5.3c0-2.7,2.7-4.4,5.3-4.4
					c0,0,0,0,0.9,0c2.7,0,10.6,0.9,21.3,0.9h2.7v2.7c0,1.8,0,2.7,0,4.4V956z" />
				</g>
				<g>
					<path fill="#005685" d="M1035.7,956v-9.8h2.7c14.2-0.9,27.5-2.7,39-4.4c0.9,0,2.7,0,3.5,0.9c0.9,0.9,1.8,1.8,1.8,2.7
					c0.9,2.7-0.9,5.3-3.5,5.3c-11.5,2.7-24.8,4.4-40.8,5.3L1035.7,956z" />
				</g>
			</g>
			<g>
				<g>
					<path fill="#005685" d="M997.5,972h-2.7c-5.3,0-9.8-0.9-13.3-0.9c-1.8,0-2.7,0-4.4-0.9c-1.8,0-2.7,0-3.5,0h-0.9c-0.9,0-0.9,0-0.9,0
					h-0.9c-1.8-0.9-2.7-2.7-2.7-4.4l0.9-2.7c0.9-1.8,2.7-2.7,4.4-2.7c0,0,0.9,0,2.7,0h0.9c3.5,0,9.8,0.9,18.6,1.8h2.7v2.7
					c0,1.8,0,2.7,0,4.4v2.7H997.5z" />
				</g>
				<g>
					<path fill="#005685" d="M1034.8,973.7v-2.7c0-0.9,0-1.8,0-1.8c0-0.9,0-0.9,0-1.8v-2.7h2.7c16.9,0,32.8-1.8,47.9-3.5h0.9
					c1.8,0,2.7,0,3.5,0.9c0.9,0.9,1.8,1.8,1.8,2.7c0.9,2.7-0.9,4.4-3.5,5.3l0,0l-3.5,0.9c-0.9,0-0.9,0-1.8,0c-2.7,0-5.3,0.9-8,0.9
					c-11.5,1.8-23.1,1.8-38.1,2.7L1034.8,973.7z" />
				</g>
			</g>
			<g>
				<g>
					<path fill="#005685" d="M946.1,1143.2c-13.3-35.5-6.2-80.7,2.7-113.5v-1.8c4.4-17.7,8.9-30.2,10.6-32.8v-0.9l0.9-0.9
					c0.9-1.8,1.8-3.5,1.8-6.2l0.9-2.7l0,0c0.9-5.3,1.8-8.9,2.7-13.3v-0.9c4.4-35.5-7.1-76.3-17.7-111.8l-0.9-4.4
					c-4.4-15.1-8-28.4-10.6-40.8c-1.8-7.1-1.8-13.3-2.7-19.5c0-1.8,0-4.4,0-6.2v-0.9v-0.9v-0.9c1.8-15.1,4.4-28.4,8-40.8
					c0-0.9,0-0.9,0-0.9c2.7-10.6,6.2-17.7,8.9-23.1c1.8-2.7,2.7-5.3,3.5-6.2c1.8-2.7,4.4-3.5,6.2-1.8c1.8,0.9,2.7,2.7,2.7,4.4
					c0,0.9,0,1.8-0.9,2.7l-0.9,0.9c-4.4,8-8.9,19.5-12.4,31v0.9l0,0c-2.7,8.9-4.4,16.9-5.3,24.8v3.5l0,0c0,0.9,0,1.8,0,2.7v2.7l0,0
					c-1.8,16.9,5.3,41.7,13.3,68.3c8,29.3,17.7,62.1,18.6,92.3c0,0.9,0,2.7,0,4.4c0,3.5,0,7.1,0,9.8v4.4c0,0.9,0,1.8,0,3.5
					c0,0.9,0,1.8,0,2.7c0,0,0,0.9,0,1.8c-0.9,3.5-0.9,7.1-1.8,10.6c0,0.9,0,1.8-0.9,1.8c0,0.9,0,1.8-0.9,1.8h-2.7l2.7,0.9v0.9
					c-0.9,2.7-1.8,4.4-2.7,7.1c-1.8,5.3-6.2,17.7-10.6,35.5c-0.9,2.7-0.9,5.3-1.8,8c-2.7,13.3-5.3,26.6-6.2,39v1.8
					c0,0.9,0,0.9,0,1.8v0.9l-0.9,8.9c0,10.6,0.9,20.4,1.8,29.3v0.9h-4.4c0.9,6.2,2.7,12.4,4.4,17.7L946.1,1143.2z" />
				</g>
				<g>
					<rect x="1063.1" y="1184" fill="#005685" width="2.7" height="5.3" />
				</g>
			</g>
			<g>
				<g>
					<path fill="#005685" d="M1096,980c-5.3-6.2-9.8-14.2-12.4-23.1l0,0V956c-0.9-0.9-0.9-2.7-1.8-3.5c-1.8-6.2-2.7-11.5-3.5-16.9
					c-0.9-15.1,0-31.9,2.7-47.9c0.9-4.4,3.5-5.3,5.3-5.3c1.8,0,2.7,0.9,3.5,1.8c0.9,0.9,0.9,2.7,0.9,3.5c-2.7,15.1-3.5,31-2.7,47
					c0.9,6.2,2.7,16.9,8.9,27.5l-3.5,1.8c2.7,4.4,4.4,8,8,11.5L1096,980z" />
				</g>
			</g>
			<g>
				<path fill="#005685" d="M1137.7,1096.2c-2.7,0-4.4-1.8-5.3-4.4c-2.7-47.9-47-126-47.9-126c-1.8-2.7-0.9-5.3,1.8-7.1
				c2.7-1.8,5.3-0.9,7.1,1.8c1.8,3.5,46.1,80.7,48.8,130.4C1143,1093.5,1141.2,1096.2,1137.7,1096.2
				C1138.5,1096.2,1137.7,1096.2,1137.7,1096.2z" />
			</g>
			<g>
				<path fill="#005685" d="M1040.1,1040.3l-52.3-5.3l1.8-5.3c1.8-5.3,1.8-25.7,0.9-60.3c0-1.8,0-2.7,0-3.5c0-4.4,0-8,0-11.5
				c0-1.8,0-2.7,0-4.4c-2.7-68.3-8-155.2-8-156.1l8.9-0.9c0,0.9,5.3,87.8,8,156.1c0,1.8,0,2.7,0,4.4c0,3.5,0,8,0,11.5
				c0,0.9,0,2.7,0,4.4c0.9,30.2,0.9,47.9,0,57.7l31.9,3.5c0-9.8,0.9-31.9,1.8-59.4l0.9-21.3c3.5-133.1-1.8-150.8-3.5-153.5l5.3-8
				c4.4,2.7,12.4,6.2,8,161.4v17.7c0,0.9,0,1.8,0,2.7v1.8c-0.9,37.3-2.7,64.8-2.7,64.8L1040.1,1040.3z" />
			</g>
			<g>
				<path fill="#005685" d="M1088,892.1h-5.3c-2.7-2.7-2.7-3.5,0.9-11.5c4.4-9.8,12.4-29.3,17.7-46.1l8.9,2.7
				c-5.3,17.7-14.2,38.1-18.6,47.9c-0.9,2.7-1.8,5.3-2.7,5.3l-4.4-1.8l0,0L1088,892.1z" />
			</g>
		</g>
		<polyline fill="none" stroke="#005685" stroke-width="10" stroke-miterlimit="10" points="505.2,441.5 505.2,1598.2 438.7,1598.2 438.7,441.5 438.7,262.3 438.7,223.3 505.2,223.3 	" />
		<polygon fill="none" stroke="#005685" stroke-width="10" stroke-miterlimit="10" points="438.7,441.5 758,441.5 758,223.3 438.7,223.3 438.7,262.3 	" />
		<line fill="none" stroke="#005685" stroke-width="10" stroke-miterlimit="10" x1="383.3" y1="1599.1" x2="1474.7" y2="1599.1" />
	</g>
</svg>