<svg width="40" height="40" viewBox="0 0 40 40" fill="none" xmlns="http://www.w3.org/2000/svg">
<path d="M20 6L36 34H4L20 6Z" fill="#A51140"/>
<path d="M20 6L36 34H4L20 6Z" fill="white" fill-opacity="0.81"/>
<path fill-rule="evenodd" clip-rule="evenodd" d="M20 4C20.7177 4 21.3804 4.38457 21.7365 5.00772L37.7365 33.0077C38.0902 33.6267 38.0877 34.3872 37.7298 35.0039C37.372 35.6205 36.7129 36 36 36H4C3.28706 36 2.62802 35.6205 2.27018 35.0039C1.91234 34.3872 1.9098 33.6267 2.26351 33.0077L18.2635 5.00772C18.6196 4.38457 19.2823 4 20 4ZM7.44636 32H32.5536L20 10.0311L7.44636 32Z" fill="#A51140"/>
<path d="M18 16V24H22V16H18Z" fill="white"/>
<path d="M22 26H18V30H22V26Z" fill="white"/>
</svg>
