<svg width="40" height="40" viewBox="0 0 40 40" fill="none" xmlns="http://www.w3.org/2000/svg">
<path fill-rule="evenodd" clip-rule="evenodd" d="M2.08008 20.0101C2.08008 10.1101 10.1001 2.09009 20.0001 2.09009C29.9001 2.09009 37.9201 10.1101 37.9201 20.0101C37.9201 21.5501 37.72 23.0601 37.35 24.4901C37.27 24.8201 37.0501 25.1001 36.7601 25.2601C36.4701 25.4301 36.1201 25.4701 35.7901 25.3701L30.9901 23.9701C30.3501 23.7801 29.9601 23.1201 30.1201 22.4701C30.3101 21.6801 30.4201 20.8501 30.4201 20.0001C30.4201 14.2501 25.7501 9.58009 20.0001 9.58009C14.2501 9.58009 9.58008 14.2401 9.58008 20.0001C9.58008 25.7601 14.2501 30.4201 20.0001 30.4201C21.9701 30.4201 23.8001 29.8801 25.3701 28.9301C25.8201 28.6501 26.4001 28.7001 26.8101 29.0401L30.8001 32.3701C31.1001 32.6101 31.2601 32.9801 31.2501 33.3601C31.2401 33.7401 31.0601 34.1001 30.7501 34.3301C27.7601 36.5801 24.0301 37.9101 20.0001 37.9101C10.1001 37.9101 2.08008 29.8901 2.08008 19.9901V20.0101Z" fill="#E1E7EB"/>
</svg>
