<svg width="39" height="34" viewBox="0 0 39 34" fill="#003441" xmlns="http://www.w3.org/2000/svg">
  <path d="M29.3524 22.9962C26.3213 22.9962 24.7147 21.9688 23.3809 21.1226C22.32 20.4276 21.5317 19.944 19.8039 19.944C18.076 19.944 17.2879 20.4276 16.2269 21.1226C14.9234 21.9688 13.2865 22.9962 10.2855 22.9962C7.25423 22.9962 5.64763 21.9688 4.34415 21.1226C3.2832 20.4276 2.49507 19.944 0.767212 19.944V13.9001C3.79853 13.9001 5.40513 14.9275 6.70858 15.7737C7.76954 16.4687 8.55769 16.9523 10.2855 16.9523C12.0134 16.9523 12.8015 16.4687 13.8625 15.7737C15.166 14.9275 16.8029 13.9001 19.8039 13.9001C22.8353 13.9001 24.4419 14.9275 25.7756 15.7737C26.8366 16.4687 27.6247 16.9523 29.3524 16.9523C31.0804 16.9523 31.8685 16.4687 32.9295 15.7737C34.2329 14.9275 35.8698 13.9001 38.9012 13.9001V19.944C37.1733 19.944 36.3851 20.4276 35.3242 21.1226C33.9904 21.9386 32.3838 22.9962 29.3524 22.9962Z" />
  <path d="M11.2859 28.2546H0.767212V33.8755H11.2859V28.2546Z" />
  <path d="M25.0783 28.2546H14.5596V33.8755H25.0783V28.2546Z" />
  <path d="M38.901 28.2546H28.3823V33.8755H38.901V28.2546Z" />
  <path d="M28.9888 0.875488L19.8948 7.46342L10.8009 0.875488L0.767212 8.18872V9.12553H17.8335H21.9561H38.8709V8.09805L28.9888 0.875488Z" />
</svg>