<svg width="40" height="40" viewBox="0 0 40 40" fill="none" xmlns="http://www.w3.org/2000/svg">
<path d="M10 12.9248H5.83002C5.14002 12.9248 4.58002 12.3648 4.58002 11.6748C4.58002 10.9848 5.14002 10.4248 5.83002 10.4248H10C10.69 10.4248 11.25 10.9848 11.25 11.6748C11.25 12.3648 10.69 12.9248 10 12.9248Z" fill="black"/>
<path d="M14.17 29.585H5.84C5.15 29.585 4.59 29.025 4.59 28.335C4.59 27.645 5.15 27.085 5.84 27.085H14.17C14.86 27.085 15.42 27.645 15.42 28.335C15.42 29.025 14.86 29.585 14.17 29.585Z" fill="black"/>
<path d="M34.17 29.585H30C29.31 29.585 28.75 29.025 28.75 28.335C28.75 27.645 29.31 27.085 30 27.085H34.17C34.86 27.085 35.42 27.645 35.42 28.335C35.42 29.025 34.86 29.585 34.17 29.585Z" fill="black"/>
<path d="M34.17 12.9248H25.84C25.15 12.9248 24.59 12.3648 24.59 11.6748C24.59 10.9848 25.15 10.4248 25.84 10.4248H34.17C34.86 10.4248 35.42 10.9848 35.42 11.6748C35.42 12.3648 34.86 12.9248 34.17 12.9248Z" fill="black"/>
<path d="M18.33 17.925H11.66C10.05 17.925 8.73999 16.615 8.73999 15.005V8.33504C8.73999 6.72504 10.05 5.41504 11.66 5.41504H18.33C19.94 5.41504 21.25 6.72504 21.25 8.33504V15.005C21.25 16.615 19.94 17.925 18.33 17.925ZM11.67 7.92504C11.44 7.92504 11.25 8.11504 11.25 8.34504V15.015C11.25 15.245 11.44 15.435 11.67 15.435H18.34C18.57 15.435 18.76 15.245 18.76 15.015V8.34504C18.76 8.11504 18.57 7.92504 18.34 7.92504H11.67Z" fill="black"/>
<path d="M28.33 34.5852H21.66C20.05 34.5852 18.74 33.2752 18.74 31.6652V24.9952C18.74 23.3852 20.05 22.0752 21.66 22.0752H28.33C29.94 22.0752 31.25 23.3852 31.25 24.9952V31.6652C31.25 33.2752 29.94 34.5852 28.33 34.5852ZM21.67 24.5852C21.44 24.5852 21.25 24.7752 21.25 25.0052V31.6752C21.25 31.9052 21.44 32.0952 21.67 32.0952H28.34C28.57 32.0952 28.76 31.9052 28.76 31.6752V25.0052C28.76 24.7752 28.57 24.5852 28.34 24.5852H21.67Z" fill="black"/>
</svg>
