<svg width="40" height="40" viewBox="0 0 40 40" fill="none" xmlns="http://www.w3.org/2000/svg">
  <path
    d="M12.3281 16.2812H2.84062C2.21157 16.2812 1.60827 16.0314 1.16346 15.5865C0.718643 15.1417 0.46875 14.5384 0.46875 13.9094V4.42187C0.46875 3.79282 0.718643 3.18951 1.16346 2.74471C1.60827 2.29989 2.21157 2.05 2.84062 2.05C3.46968 2.05 4.07299 2.29989 4.51779 2.74471C4.96261 3.18951 5.2125 3.79282 5.2125 4.42187V7.16138C8.50347 3.91982 13.5714 0.46875 20.2344 0.46875C29.0221 0.46875 34.3391 5.6849 34.5625 5.90628C35.0022 6.35151 35.2482 6.95248 35.2469 7.57828C35.2454 8.20407 34.9969 8.80396 34.5552 9.24724C34.1134 9.69052 33.5143 9.94127 32.8887 9.94489C32.2628 9.94848 31.6609 9.70462 31.2141 9.26642C31.1273 9.18341 26.9546 5.2125 20.2344 5.2125C14.5024 5.2125 10.1658 8.70706 7.58437 11.5375H12.3281C12.9572 11.5375 13.5605 11.7874 14.0053 12.2322C14.4501 12.677 14.7 13.2803 14.7 13.9094C14.7 14.5384 14.4501 15.1417 14.0053 15.5865C13.5605 16.0314 12.9572 16.2812 12.3281 16.2812ZM37.6281 24.1875H28.1406C27.5117 24.1875 26.9083 24.4374 26.4635 24.8822C26.0187 25.327 25.7687 25.9304 25.7687 26.5594C25.7687 27.1883 26.0187 27.7917 26.4635 28.2365C26.9083 28.6813 27.5117 28.9312 28.1406 28.9312H32.8844C30.3149 31.7616 25.9663 35.2562 20.2344 35.2562C13.5141 35.2562 9.34154 31.2854 9.25458 31.2004C8.80778 30.7622 8.20595 30.5183 7.58015 30.5219C6.95438 30.5254 6.35538 30.7761 5.91364 31.2196C5.47193 31.6629 5.22328 32.2628 5.22191 32.8884C5.22052 33.5143 5.46651 34.1152 5.90628 34.5605C6.12962 34.7839 11.4466 40 20.2344 40C26.8974 40 31.9652 36.5488 35.2562 33.3074V36.0469C35.2562 36.6758 35.5062 37.2792 35.951 37.724C36.3958 38.1688 36.9992 38.4187 37.6281 38.4187C38.2571 38.4187 38.8605 38.1688 39.3053 37.724C39.75 37.2792 40 36.6758 40 36.0469V26.5594C40 25.9304 39.75 25.327 39.3053 24.8822C38.8605 24.4374 38.2571 24.1875 37.6281 24.1875Z"
    fill="black" />
</svg>