<svg width="40" height="40" viewBox="0 0 40 40" fill="none" xmlns="http://www.w3.org/2000/svg">
<path d="M6.91 37.0799C6.82 37.0799 6.73001 37.0799 6.64001 37.0799C5.42001 37.0499 4.36999 37.0199 3.77999 36.0199C3.18999 35.0199 3.70001 34.0699 4.39001 32.7499C4.95001 31.6999 5.49 30.2499 4.97 29.2599C3.25 26.6699 2.30999 24.1399 2.14999 21.7299C2.05999 20.2799 2.05999 18.8099 2.14999 17.3699C2.64999 9.69992 8.72998 3.53992 16.3 3.03992C18.72 2.87992 21.28 2.87992 23.7 3.03992C31.27 3.53992 37.35 9.70992 37.85 17.3699C37.94 18.8199 37.94 20.2799 37.85 21.7299C37.35 29.3999 31.27 35.5599 23.7 36.0599C21.28 36.2199 18.72 36.2199 16.3 36.0599C15.32 35.9899 14.3 35.7599 13.43 35.3999C13.11 35.2699 12.78 35.1299 12.57 35.0499C12.42 35.1599 12.2 35.3099 11.99 35.4699C10.53 36.5499 8.86 37.0699 6.91 37.0699V37.0799ZM6.26998 34.5699C6.40998 34.5699 6.56001 34.5699 6.70001 34.5799C8.24001 34.6199 9.42 34.2799 10.51 33.4699C11.31 32.8799 11.72 32.5799 12.26 32.5099C12.8 32.4499 13.26 32.6399 14.38 33.0999C15 33.3499 15.75 33.5299 16.46 33.5699C18.77 33.7199 21.21 33.7199 23.53 33.5699C29.85 33.1499 34.93 27.9899 35.35 21.5699C35.43 20.2499 35.43 18.8499 35.35 17.5299C34.93 11.1099 29.85 5.94992 23.53 5.52992C21.22 5.37992 18.77 5.37992 16.46 5.52992C10.14 5.94992 5.06001 11.1099 4.64001 17.5299C4.56001 18.8499 4.56001 20.2499 4.64001 21.5699C4.77001 23.5499 5.58998 25.6899 7.07998 27.9299C7.09998 27.9599 7.12 27.9899 7.13 28.0199C8 29.5999 7.81999 31.5799 6.58999 33.9099C6.46999 34.1299 6.35 34.3599 6.25 34.5699H6.26998Z" fill="black"/>
<path d="M26.67 21.6603C25.75 21.6603 25 20.9103 25 19.9903C25 19.0703 25.74 18.3203 26.66 18.3203H26.67C27.59 18.3203 28.34 19.0703 28.34 19.9903C28.34 20.9103 27.59 21.6603 26.67 21.6603ZM20.01 21.6603C19.09 21.6603 18.34 20.9103 18.34 19.9903C18.34 19.0703 19.08 18.3203 20 18.3203H20.01C20.93 18.3203 21.68 19.0703 21.68 19.9903C21.68 20.9103 20.93 21.6603 20.01 21.6603ZM13.35 21.6603C12.43 21.6603 11.68 20.9103 11.68 19.9903C11.68 19.0703 12.42 18.3203 13.34 18.3203H13.35C14.27 18.3203 15.02 19.0703 15.02 19.9903C15.02 20.9103 14.27 21.6603 13.35 21.6603Z" fill="black"/>
</svg>
