<svg width="40" height="40" viewBox="0 0 40 40" fill="none" xmlns="http://www.w3.org/2000/svg">
    <path fill-rule="evenodd" clip-rule="evenodd" d="M4 11.2549C4 7.24988 7.24418 4 11.25 4H28.75C32.7558 4 36 7.24988 36 11.2549V21.7647C36 25.7697 32.7558 29.0196 28.75 29.0196H27.6415L17 36.9997V29.0196H11.25C7.24418 29.0196 4 25.7697 4 21.7647V11.2549ZM11.25 8C9.45683 8 8 9.45551 8 11.2549V21.7647C8 23.5641 9.45683 25.0196 11.25 25.0196H21V29.0003L26.3083 25.0196H28.75C30.5432 25.0196 32 23.5641 32 21.7647V11.2549C32 9.45551 30.5432 8 28.75 8H11.25Z" fill="black"/>
</svg>