<svg width="40" height="40" viewBox="0 0 40 40" fill="none" xmlns="http://www.w3.org/2000/svg">
<path d="M25.83 27.0798C25.51 27.0798 25.19 26.9598 24.95 26.7098L20 21.7598L15.05 26.7098C14.56 27.1998 13.77 27.1998 13.28 26.7098C12.79 26.2198 12.79 25.4298 13.28 24.9398L18.23 19.9898L13.28 15.0398C12.79 14.5498 12.79 13.7598 13.28 13.2698C13.77 12.7798 14.56 12.7798 15.05 13.2698L20 18.2198L24.95 13.2698C25.44 12.7798 26.23 12.7798 26.72 13.2698C27.21 13.7598 27.21 14.5498 26.72 15.0398L21.77 19.9898L26.72 24.9398C27.21 25.4298 27.21 26.2198 26.72 26.7098C26.48 26.9498 26.16 27.0798 25.84 27.0798H25.83Z" fill="black"/>
<path d="M20 37.9201C10.12 37.9201 2.07999 29.8801 2.07999 20.0001C2.07999 10.1201 10.12 2.08008 20 2.08008C29.88 2.08008 37.92 10.1201 37.92 20.0001C37.92 29.8801 29.88 37.9201 20 37.9201ZM20 4.58008C11.5 4.58008 4.57999 11.5001 4.57999 20.0001C4.57999 28.5001 11.5 35.4201 20 35.4201C28.5 35.4201 35.42 28.5001 35.42 20.0001C35.42 11.5001 28.5 4.58008 20 4.58008Z" fill="black"/>
</svg>
