<svg width="40" height="40" viewBox="0 0 40 40" fill="none" xmlns="http://www.w3.org/2000/svg">
<path d="M31.665 32.9188C31.345 32.9188 31.025 32.7988 30.785 32.5488L7.45502 9.2188C6.96502 8.7288 6.96502 7.9388 7.45502 7.4488C7.94502 6.9588 8.73504 6.9588 9.22504 7.4488L32.555 30.7788C33.045 31.2688 33.045 32.0588 32.555 32.5488C32.315 32.7888 31.995 32.9188 31.675 32.9188H31.665Z" fill="black"/>
<path d="M8.32499 32.9188C8.00499 32.9188 7.68501 32.7988 7.44501 32.5488C6.95501 32.0588 6.95501 31.2688 7.44501 30.7788L30.775 7.4488C31.265 6.9588 32.055 6.9588 32.545 7.4488C33.035 7.9388 33.035 8.7288 32.545 9.2188L9.215 32.5488C8.975 32.7888 8.655 32.9188 8.335 32.9188H8.32499Z" fill="black"/>
</svg>
