<svg width="40" height="40" viewBox="0 0 40 40" fill="none" xmlns="http://www.w3.org/2000/svg">
<path d="M32.415 24.5799C29.885 24.5799 27.835 22.5199 27.835 19.9999C27.835 17.4799 29.895 15.4199 32.415 15.4199C34.935 15.4199 36.995 17.4799 36.995 19.9999C36.995 22.5199 34.935 24.5799 32.415 24.5799ZM32.415 17.9199C31.265 17.9199 30.335 18.8499 30.335 19.9999C30.335 21.1499 31.265 22.0799 32.415 22.0799C33.565 22.0799 34.495 21.1499 34.495 19.9999C34.495 18.8499 33.565 17.9199 32.415 17.9199Z" fill="black"/>
<path d="M19.915 24.5799C17.385 24.5799 15.335 22.5199 15.335 19.9999C15.335 17.4799 17.395 15.4199 19.915 15.4199C22.435 15.4199 24.495 17.4799 24.495 19.9999C24.495 22.5199 22.435 24.5799 19.915 24.5799ZM19.915 17.9199C18.765 17.9199 17.835 18.8499 17.835 19.9999C17.835 21.1499 18.765 22.0799 19.915 22.0799C21.065 22.0799 21.995 21.1499 21.995 19.9999C21.995 18.8499 21.065 17.9199 19.915 17.9199Z" fill="black"/>
<path d="M7.58496 24.5799C5.05496 24.5799 3.005 22.5199 3.005 19.9999C3.005 17.4799 5.06496 15.4199 7.58496 15.4199C10.105 15.4199 12.165 17.4799 12.165 19.9999C12.165 22.5199 10.105 24.5799 7.58496 24.5799ZM7.58496 17.9199C6.43496 17.9199 5.505 18.8499 5.505 19.9999C5.505 21.1499 6.43496 22.0799 7.58496 22.0799C8.73496 22.0799 9.66498 21.1499 9.66498 19.9999C9.66498 18.8499 8.73496 17.9199 7.58496 17.9199Z" fill="black"/>
</svg>
