<svg width="20" height="20" viewBox="0 0 40 40" fill="none" xmlns="http://www.w3.org/2000/svg">
<path d="M27.7 37.9201H12.31C9.89002 37.9201 7.88001 36.0301 7.74002 33.6101L6.26003 9.24009C6.22003 8.55009 6.74002 7.96009 7.43002 7.92009C8.12002 7.87009 8.71002 8.40009 8.75002 9.09009L10.23 33.4601C10.3 34.5601 11.21 35.4201 12.31 35.4201H27.7C28.8 35.4201 29.7101 34.5601 29.7801 33.4601L31.26 9.09009C31.3 8.40009 31.89 7.86009 32.58 7.92009C33.27 7.96009 33.79 8.55009 33.75 9.24009L32.27 33.6101C32.12 36.0301 30.11 37.9201 27.7 37.9201Z" fill="black"/>
<path d="M26.67 10.4201C26.67 10.4201 26.65 10.4201 26.64 10.4201H13.36C13.36 10.4201 13.32 10.4201 13.3 10.4201H5C4.31 10.4201 3.75 9.86007 3.75 9.17007C3.75 8.48007 4.31 7.92007 5 7.92007H12.51L14.25 3.85007C14.71 2.78007 15.76 2.08008 16.93 2.08008H23.07C24.24 2.08008 25.29 2.77007 25.75 3.85007L27.49 7.91008H35C35.69 7.91008 36.25 8.47008 36.25 9.16008C36.25 9.85008 35.69 10.4101 35 10.4101H26.7C26.7 10.4101 26.68 10.4101 26.67 10.4101V10.4201ZM15.23 7.92007H24.77L23.45 4.84008C23.38 4.69008 23.23 4.59008 23.07 4.59008H16.93C16.76 4.59008 16.61 4.69008 16.55 4.84008L15.23 7.92007Z" fill="black"/>
<path d="M15.83 28.75C15.14 28.75 14.58 28.19 14.58 27.5V17.5C14.58 16.81 15.14 16.25 15.83 16.25C16.52 16.25 17.08 16.81 17.08 17.5V27.5C17.08 28.19 16.52 28.75 15.83 28.75Z" fill="black"/>
<path d="M24.17 28.75C23.48 28.75 22.92 28.19 22.92 27.5V17.5C22.92 16.81 23.48 16.25 24.17 16.25C24.86 16.25 25.42 16.81 25.42 17.5V27.5C25.42 28.19 24.86 28.75 24.17 28.75Z" fill="black"/>
</svg>
