<svg width="40" height="40" viewBox="0 0 40 40" fill="none" xmlns="http://www.w3.org/2000/svg">
<path d="M7.01428 34.2423C6.68428 34.2423 6.36428 34.1123 6.13428 33.8723C5.82428 33.5623 5.69432 33.1123 5.80432 32.6823L7.24432 26.9123C7.44432 26.1023 7.86428 25.3723 8.45428 24.7823L26.6243 6.61232C27.7643 5.47232 29.6143 5.47232 30.7443 6.61232L33.3843 9.25232C33.9343 9.80232 34.2343 10.5323 34.2343 11.3123C34.2343 12.0923 33.9343 12.8223 33.3843 13.3723L15.2143 31.5423C14.6243 32.1323 13.8943 32.5423 13.0843 32.7523L7.31427 34.1923C7.21427 34.2123 7.11428 34.2323 7.01428 34.2323V34.2423ZM23.6743 13.0923L10.2143 26.5523C9.94429 26.8223 9.75431 27.1523 9.66431 27.5223L8.7243 31.2723L12.4743 30.3323C12.8443 30.2423 13.1743 30.0523 13.4443 29.7823L26.9043 16.3223L23.6743 13.0923ZM25.4443 11.3323L28.6743 14.5623L31.6143 11.6223C31.7243 11.5123 31.7343 11.3923 31.7343 11.3323C31.7343 11.2723 31.7143 11.1423 31.6143 11.0423L28.9743 8.40233C28.8143 8.24233 28.5443 8.24233 28.3843 8.40233L25.4443 11.3423V11.3323Z" fill="black"/>
<path d="M29.5143 34.2427H19.5143C18.8243 34.2427 18.2643 33.6827 18.2643 32.9927C18.2643 32.3027 18.8243 31.7427 19.5143 31.7427H29.5143C30.2043 31.7427 30.7643 32.3027 30.7643 32.9927C30.7643 33.6827 30.2043 34.2427 29.5143 34.2427Z" fill="black"/>
</svg>
