<svg width="40" height="40" viewBox="0 0 40 40" fill="none" xmlns="http://www.w3.org/2000/svg">
  <path d="M18 20V10H22V20H18Z" fill="black"/>
  <path d="M18 22H22V26H18V22Z" fill="black"/>
  <path fill-rule="evenodd" clip-rule="evenodd" d="M12 2C9.34954 2 6.86648 3.30509 5.08579 5.08579C3.30509 6.86648 2 9.34954 2 12V36C2 36.6932 2.3589 37.3369 2.94854 37.7013C3.53817 38.0657 4.27445 38.0988 4.89443 37.7889L12.4721 34L28 34C30.6505 34 33.1335 32.6949 34.9142 30.9142C36.6949 29.1335 38 26.6505 38 24V12C38 9.34954 36.6949 6.86648 34.9142 5.08579C33.1335 3.30509 30.6505 2 28 2H12ZM6 12C6 10.6505 6.69491 9.13352 7.91421 7.91421C9.13352 6.69491 10.6505 6 12 6H28C29.3495 6 30.8665 6.69491 32.0858 7.91421C33.3051 9.13352 34 10.6505 34 12V24C34 25.3495 33.3051 26.8665 32.0858 28.0858C30.8665 29.3051 29.3495 30 28 30L12 30C11.6895 30 11.3833 30.0723 11.1056 30.2111L6 32.7639V12Z" fill="black"/>
</svg>