<svg width="40" height="40" viewBox="0 0 40 40" fill="none" xmlns="http://www.w3.org/2000/svg">
<path d="M6.8988 37.9188C6.8088 37.9188 6.71878 37.9188 6.62878 37.9188C5.40878 37.8888 4.35879 37.8589 3.76879 36.8689C3.17879 35.8689 3.67878 34.9188 4.37878 33.5988C4.93878 32.5488 5.4788 31.0988 4.9588 30.1088C3.2388 27.5188 2.29879 24.9888 2.13879 22.5688C2.04879 21.1188 2.04879 19.6588 2.13879 18.2088C2.63879 10.5388 8.71875 4.37885 16.2888 3.87885C18.3488 3.73885 20.4588 3.71885 22.5488 3.81885C23.2388 3.84885 23.7688 4.43885 23.7388 5.12885C23.7088 5.81885 23.1288 6.33885 22.4288 6.31885C20.4288 6.22885 18.4188 6.24885 16.4488 6.37885C10.1288 6.79885 5.04878 11.9588 4.62878 18.3788C4.54878 19.6988 4.54878 21.0988 4.62878 22.4188C4.75878 24.3988 5.57878 26.5388 7.06878 28.7788C7.08878 28.8088 7.10877 28.8389 7.11877 28.8689C7.98877 30.4489 7.80879 32.4289 6.57879 34.7589C6.45879 34.9789 6.33876 35.2088 6.23876 35.4188C6.37876 35.4188 6.52876 35.4188 6.66876 35.4288C8.19876 35.4588 9.38875 35.1188 10.4788 34.3188C11.2888 33.7288 11.6888 33.4288 12.2288 33.3588C12.7688 33.2888 13.2288 33.4788 14.3588 33.9488C14.9788 34.1988 15.7388 34.3788 16.4388 34.4188C18.7488 34.5688 21.1988 34.5688 23.5088 34.4188C29.8288 33.9988 34.9088 28.8388 35.3288 22.4188C35.4088 21.0988 35.4088 19.6988 35.3288 18.3788C35.3088 18.1388 35.2888 17.8988 35.2588 17.6588C35.1788 16.9688 35.6688 16.3488 36.3488 16.2688C37.0387 16.1888 37.6588 16.6788 37.7388 17.3588C37.7688 17.6388 37.7988 17.9288 37.8188 18.2088C37.9088 19.6588 37.9088 21.1188 37.8188 22.5688C37.3188 30.2388 31.2388 36.3988 23.6688 36.8988C21.2488 37.0588 18.6888 37.0588 16.2688 36.8988C15.2888 36.8388 14.2688 36.5988 13.3988 36.2388C13.0788 36.1088 12.7488 35.9688 12.5388 35.8888C12.3888 35.9988 12.1688 36.1488 11.9588 36.3088C10.4988 37.3888 8.82877 37.9089 6.86877 37.9089L6.8988 37.9188Z" fill="black"/>
<path d="M23.3289 17.9186C22.6389 17.9186 22.0789 17.3586 22.0789 16.6686V12.4986C22.0789 12.1686 22.2089 11.8486 22.4489 11.6186L31.6188 2.44855C32.1088 1.95855 32.8989 1.95855 33.3889 2.44855L37.5588 6.61855C37.7888 6.84855 37.9288 7.16855 37.9288 7.49855C37.9288 7.82855 37.7988 8.14855 37.5588 8.37855L28.3889 17.5486C28.1589 17.7786 27.8389 17.9186 27.5089 17.9186H23.3289ZM24.5789 15.4186H26.9788L34.8989 7.49855L32.4988 5.09855L24.5789 13.0186V15.4186Z" fill="black"/>
<path d="M20.0087 22.4987C19.0887 22.4987 18.3387 21.7487 18.3387 20.8287C18.3387 19.9087 19.0787 19.1587 19.9987 19.1587H20.0087C20.9287 19.1587 21.6787 19.9087 21.6787 20.8287C21.6787 21.7487 20.9287 22.4987 20.0087 22.4987ZM13.3487 22.4987C12.4287 22.4987 11.6787 21.7487 11.6787 20.8287C11.6787 19.9087 12.4187 19.1587 13.3387 19.1587H13.3587C14.2787 19.1587 15.0287 19.9087 15.0287 20.8287C15.0287 21.7487 14.2787 22.4987 13.3587 22.4987H13.3487Z" fill="black"/>
</svg>
