<svg width="20" height="20" viewBox="0 0 20 20" fill="none" xmlns="http://www.w3.org/2000/svg">
<path d="M2 6H5.26756C5.61337 6.5978 6.25972 7 7 7C8.10457 7 9 6.10457 9 5C9 3.89543 8.10457 3 7 3C6.25972 3 5.61337 3.4022 5.26756 4H2V6Z" fill="black"/>
<path d="M2 11H11.2676C11.6134 11.5978 12.2597 12 13 12C14.1046 12 15 11.1046 15 10C15 8.89543 14.1046 8 13 8C12.2597 8 11.6134 8.4022 11.2676 9H2V11Z" fill="black"/>
<path d="M5.26756 16H2V14H5.26756C5.61337 13.4022 6.25972 13 7 13C8.10457 13 9 13.8954 9 15C9 16.1046 8.10457 17 7 17C6.25972 17 5.61337 16.5978 5.26756 16Z" fill="black"/>
<path d="M10 6H18V4H10V6Z" fill="black"/>
<path d="M18 11H16V9H18V11Z" fill="black"/>
<path d="M10 16H18V14H10V16Z" fill="black"/>
</svg>
