<svg width="20" height="20" viewBox="0 0 40 40" fill="none" xmlns="http://www.w3.org/2000/svg">
<path fill-rule="evenodd" clip-rule="evenodd" d="M20.4167 5.83333C20.4167 4.68268 21.3496 3.75 22.5 3.75H25.8334C26.9838 3.75 27.9167 4.68268 27.9167 5.83333V10.8333C27.9167 11.984 26.9838 12.9167 25.8334 12.9167H22.5C21.3496 12.9167 20.4167 11.984 20.4167 10.8333V5.83333ZM22.9167 6.25V10.4167H25.4167V6.25H22.9167Z" fill="black"/>
<path fill-rule="evenodd" clip-rule="evenodd" d="M12.0834 17.5C12.0834 16.3495 13.0161 15.4167 14.1667 15.4167H17.5C18.6506 15.4167 19.5834 16.3495 19.5834 17.5V22.5C19.5834 23.6505 18.6506 24.5833 17.5 24.5833H14.1667C13.0161 24.5833 12.0834 23.6505 12.0834 22.5V17.5ZM14.5834 17.9167V22.0833H17.0834V17.9167H14.5834Z" fill="black"/>
<path fill-rule="evenodd" clip-rule="evenodd" d="M17.0834 29.1667C17.0834 28.0161 18.0162 27.0833 19.1667 27.0833H22.5C23.6506 27.0833 24.5834 28.0161 24.5834 29.1667V34.1667C24.5834 35.3172 23.6506 36.25 22.5 36.25H19.1667C18.0162 36.25 17.0834 35.3172 17.0834 34.1667V29.1667ZM19.5834 29.5833V33.75H22.0834V29.5833H19.5834Z" fill="black"/>
<path fill-rule="evenodd" clip-rule="evenodd" d="M4.58337 8.33333C4.58337 7.64298 5.14302 7.08333 5.83337 7.08333H21.6667C22.3571 7.08333 22.9167 7.64298 22.9167 8.33333C22.9167 9.02369 22.3571 9.58333 21.6667 9.58333H5.83337C5.14302 9.58333 4.58337 9.02369 4.58337 8.33333Z" fill="black"/>
<path fill-rule="evenodd" clip-rule="evenodd" d="M4.58337 31.6667C4.58337 30.9763 5.14302 30.4167 5.83337 30.4167H18.3334C19.0237 30.4167 19.5834 30.9763 19.5834 31.6667C19.5834 32.357 19.0237 32.9167 18.3334 32.9167H5.83337C5.14302 32.9167 4.58337 32.357 4.58337 31.6667Z" fill="black"/>
<path fill-rule="evenodd" clip-rule="evenodd" d="M26.25 31.6667C26.25 30.9763 26.8097 30.4167 27.5 30.4167H34.1667C34.8571 30.4167 35.4167 30.9763 35.4167 31.6667C35.4167 32.357 34.8571 32.9167 34.1667 32.9167H27.5C26.8097 32.9167 26.25 32.357 26.25 31.6667Z" fill="black"/>
<path fill-rule="evenodd" clip-rule="evenodd" d="M17.0834 20C17.0834 19.3096 17.643 18.75 18.3334 18.75H34.1667C34.8571 18.75 35.4167 19.3096 35.4167 20C35.4167 20.6904 34.8571 21.25 34.1667 21.25H18.3334C17.643 21.25 17.0834 20.6904 17.0834 20Z" fill="black"/>
<path fill-rule="evenodd" clip-rule="evenodd" d="M29.5834 8.33333C29.5834 7.64298 30.143 7.08333 30.8334 7.08333H34.1667C34.8571 7.08333 35.4167 7.64298 35.4167 8.33333C35.4167 9.02369 34.8571 9.58333 34.1667 9.58333H30.8334C30.143 9.58333 29.5834 9.02369 29.5834 8.33333Z" fill="black"/>
<path fill-rule="evenodd" clip-rule="evenodd" d="M4.58337 20C4.58337 19.3096 5.14302 18.75 5.83337 18.75H9.16671C9.85706 18.75 10.4167 19.3096 10.4167 20C10.4167 20.6904 9.85706 21.25 9.16671 21.25H5.83337C5.14302 21.25 4.58337 20.6904 4.58337 20Z" fill="black"/>
</svg>
