<svg width="40" height="40" viewBox="0 0 40 40" fill="none" xmlns="http://www.w3.org/2000/svg">
<path fill-rule="evenodd" clip-rule="evenodd" d="M27.4494 22.4495C27.9376 21.9614 28.729 21.9614 29.2172 22.4495L34.2173 27.4497C34.4518 27.6841 34.5835 28.0021 34.5835 28.3336C34.5835 28.6651 34.4517 28.9831 34.2173 29.2175L29.2171 34.2173C28.729 34.7055 27.9375 34.7054 27.4494 34.2173C26.9612 33.7291 26.9613 32.9376 27.4494 32.4495L31.5657 28.3336L27.4494 24.2173C26.9613 23.7291 26.9613 22.9377 27.4494 22.4495Z" fill="black"/>
<path fill-rule="evenodd" clip-rule="evenodd" d="M5.41663 11.6667C5.41663 10.9764 5.97627 10.4167 6.66663 10.4167H33.3333C34.0236 10.4167 34.5833 10.9764 34.5833 11.6667C34.5833 12.3571 34.0236 12.9167 33.3333 12.9167H6.66663C5.97627 12.9167 5.41663 12.3571 5.41663 11.6667Z" fill="black"/>
<path fill-rule="evenodd" clip-rule="evenodd" d="M5.41663 28.3334C5.41663 27.6431 5.97627 27.0834 6.66663 27.0834H33.3333C34.0236 27.0834 34.5835 27.6432 34.5835 28.3336C34.5835 29.024 34.0236 29.5834 33.3333 29.5834H6.66663C5.97627 29.5834 5.41663 29.0238 5.41663 28.3334Z" fill="black"/>
<path fill-rule="evenodd" clip-rule="evenodd" d="M12.5505 5.7829C13.0387 6.27107 13.0386 7.06253 12.5505 7.55067L8.43439 11.6664L12.5505 15.7829C13.0387 16.2711 13.0386 17.0625 12.5505 17.5507C12.0623 18.0388 11.2708 18.0388 10.7827 17.5506L5.78271 12.5502C5.5483 12.3158 5.41661 11.9983 5.41663 11.6667C5.41664 11.3352 5.54835 11.0169 5.78278 10.7824L10.7828 5.78283C11.271 5.29469 12.0624 5.29472 12.5505 5.7829Z" fill="black"/>
</svg>
