<svg width="20" height="20" viewBox="0 0 40 40" fill="none" xmlns="http://www.w3.org/2000/svg">
<path d="M30.8287 13.7551H19.1687C18.4787 13.7551 17.9187 13.1951 17.9187 12.5051C17.9187 11.8151 18.4787 11.2551 19.1687 11.2551H30.8287C31.5187 11.2551 32.0787 11.8151 32.0787 12.5051C32.0787 13.1951 31.5187 13.7551 30.8287 13.7551Z" fill="black"/>
<path d="M25.8287 20.425H19.1687C18.4787 20.425 17.9187 19.865 17.9187 19.175C17.9187 18.485 18.4787 17.925 19.1687 17.925H25.8287C26.5187 17.925 27.0787 18.485 27.0787 19.175C27.0787 19.865 26.5187 20.425 25.8287 20.425Z" fill="black"/>
<path d="M22.4987 27.095H19.1687C18.4787 27.095 17.9187 26.535 17.9187 25.845C17.9187 25.155 18.4787 24.595 19.1687 24.595H22.4987C23.1887 24.595 23.7487 25.155 23.7487 25.845C23.7487 26.535 23.1887 27.095 22.4987 27.095Z" fill="black"/>
<path d="M34.1688 7.09497H19.1687C18.4787 7.09497 17.9187 6.53497 17.9187 5.84497C17.9187 5.15497 18.4787 4.59497 19.1687 4.59497H34.1688C34.8588 4.59497 35.4188 5.15497 35.4188 5.84497C35.4188 6.53497 34.8588 7.09497 34.1688 7.09497Z" fill="black"/>
<path d="M9.99879 35.4249C9.67879 35.4249 9.35878 35.3049 9.11878 35.0549L4.9488 30.8849C4.4588 30.3949 4.4588 29.605 4.9488 29.115C5.4388 28.625 6.22876 28.625 6.71876 29.115L8.7588 31.145V5.82495C8.7588 5.13495 9.3188 4.57495 10.0088 4.57495C10.6988 4.57495 11.2588 5.13495 11.2588 5.82495V31.145L13.2988 29.115C13.7888 28.625 14.5788 28.625 15.0688 29.115C15.5588 29.605 15.5588 30.3949 15.0688 30.8849L10.8988 35.0549C10.6588 35.2949 10.3388 35.4249 10.0188 35.4249H9.99879Z" fill="black"/>
</svg>
