<svg width="40" height="40" viewBox="0 0 40 40" fill="none" xmlns="http://www.w3.org/2000/svg">
<path d="M36.6662 37.9201C36.3462 37.9201 36.0262 37.8001 35.7862 37.5501L28.2862 30.0501C27.7962 29.5601 27.7962 28.7701 28.2862 28.2801C28.7762 27.7901 29.5662 27.7901 30.0562 28.2801L37.5562 35.7801C38.0462 36.2701 38.0462 37.0601 37.5562 37.5501C37.3162 37.7901 36.9962 37.9201 36.6762 37.9201H36.6662Z" fill="black"/>
<path d="M18.3262 34.5801C9.36617 34.5801 2.07617 27.2901 2.07617 18.3301C2.07617 9.37008 9.36617 2.08008 18.3262 2.08008C27.2862 2.08008 34.5762 9.37008 34.5762 18.3301C34.5762 27.2901 27.2862 34.5801 18.3262 34.5801ZM18.3262 4.58008C10.7462 4.58008 4.57617 10.7501 4.57617 18.3301C4.57617 25.9101 10.7462 32.0801 18.3262 32.0801C25.9062 32.0801 32.0762 25.9101 32.0762 18.3301C32.0762 10.7501 25.9062 4.58008 18.3262 4.58008Z" fill="black"/>
</svg>
