<svg width="40" height="40" viewBox="0 0 40 40" fill="none" xmlns="http://www.w3.org/2000/svg">
<path d="M8.46997 30.9854C7.86997 30.9854 7.28004 30.7954 6.79004 30.4154C4.64004 28.7354 2.07996 26.1454 2.07996 23.3254C2.07996 20.5054 4.64003 17.9154 6.78003 16.2454C7.64003 15.5854 8.77 15.4854 9.75 15.9754L11.3 16.7454C12.3 17.2454 12.91 18.2454 12.91 19.3554V27.2954C12.91 28.4054 12.29 29.4054 11.3 29.9054L9.75 30.6854C9.34 30.8954 8.89996 30.9954 8.45996 30.9954L8.46997 30.9854ZM8.46997 18.1754C8.41997 18.1754 8.36006 18.1854 8.31006 18.2254C5.98006 20.0454 4.57996 21.9554 4.57996 23.3254C4.57996 24.6954 5.97995 26.6054 8.31995 28.4354C8.43995 28.5254 8.59002 28.4654 8.65002 28.4354L10.2 27.6654C10.34 27.5954 10.4301 27.4454 10.4301 27.2954V19.3554C10.4301 19.1954 10.34 19.0554 10.2 18.9754L8.66003 18.2054C8.66003 18.2054 8.55999 18.1654 8.48999 18.1654L8.46997 18.1754Z" fill="black"/>
<path d="M33.33 18.745C32.64 18.745 32.08 18.185 32.08 17.495V16.665C32.08 10.005 26.66 4.58496 20 4.58496C13.34 4.58496 7.92004 10.005 7.92004 16.665V17.495C7.92004 18.185 7.36004 18.745 6.67004 18.745C5.98004 18.745 5.42004 18.185 5.42004 17.495V16.665C5.42004 8.62496 11.96 2.08496 20 2.08496C28.04 2.08496 34.58 8.62496 34.58 16.665V17.495C34.58 18.185 34.02 18.745 33.33 18.745Z" fill="black"/>
<path d="M26.67 37.915H20C19.31 37.915 18.75 37.355 18.75 36.665C18.75 35.975 19.31 35.415 20 35.415H26.67C29.65 35.415 32.08 32.985 32.08 29.995V29.165C32.08 28.475 32.64 27.915 33.33 27.915C34.02 27.915 34.58 28.475 34.58 29.165V29.995C34.58 34.365 31.03 37.915 26.67 37.915Z" fill="black"/>
<path d="M31.52 30.9851C31.09 30.9851 30.65 30.8851 30.24 30.6851L28.6899 29.9051C27.6899 29.4051 27.08 28.4051 27.08 27.2951V19.3551C27.08 18.2451 27.6999 17.2451 28.6899 16.7451L30.25 15.9651C31.23 15.4851 32.37 15.5851 33.22 16.2351C35.36 17.9051 37.92 20.4951 37.92 23.3151C37.92 26.1351 35.36 28.7151 33.22 30.3951C32.72 30.7751 32.13 30.9751 31.52 30.9751V30.9851ZM31.53 18.1751C31.46 18.1751 31.39 18.2051 31.36 18.2151L29.8101 18.9851C29.6701 19.0551 29.58 19.2051 29.58 19.3551V27.2951C29.58 27.4551 29.6701 27.5951 29.8101 27.6651L31.36 28.4351C31.42 28.4651 31.5699 28.5151 31.6899 28.4251C34.0199 26.6051 35.42 24.6951 35.42 23.3251C35.42 21.9551 34.0199 20.0451 31.6899 18.2251C31.6399 18.1851 31.58 18.1751 31.53 18.1751Z" fill="black"/>
</svg>
