<svg width="40" height="40" viewBox="0 0 40 40" fill="none" xmlns="http://www.w3.org/2000/svg">
<path d="M28.325 34.585C27.635 34.585 27.075 34.025 27.075 33.335V6.66504C27.075 5.97504 27.635 5.41504 28.325 5.41504C29.015 5.41504 29.575 5.97504 29.575 6.66504V33.335C29.575 34.025 29.015 34.585 28.325 34.585Z" fill="black"/>
<path d="M28.325 34.585C28.005 34.585 27.6849 34.4646 27.4449 34.2146L22.4449 29.2146C21.9549 28.7246 21.9549 27.9346 22.4449 27.4446C22.9349 26.9546 23.7249 26.9546 24.2149 27.4446L28.3349 31.5646L32.4549 27.4446C32.9449 26.9546 33.7349 26.9546 34.2249 27.4446C34.7149 27.9346 34.7149 28.7246 34.2249 29.2146L29.2249 34.2146C28.9849 34.4546 28.6649 34.5846 28.3449 34.5846L28.325 34.585Z" fill="black"/>
<path d="M16.665 12.925C16.345 12.925 16.025 12.805 15.785 12.555L11.665 8.43498L7.54499 12.555C7.05499 13.045 6.26497 13.045 5.77497 12.555C5.28497 12.065 5.28497 11.275 5.77497 10.785L10.775 5.78498C11.265 5.29498 12.055 5.29498 12.545 5.78498L17.545 10.785C18.035 11.275 18.035 12.065 17.545 12.555C17.305 12.795 16.985 12.925 16.665 12.925Z" fill="black"/>
<path d="M11.665 34.585C10.975 34.585 10.415 34.025 10.415 33.335V6.66504C10.415 5.97504 10.975 5.41504 11.665 5.41504C12.355 5.41504 12.915 5.97504 12.915 6.66504V33.335C12.915 34.025 12.355 34.585 11.665 34.585Z" fill="black"/>
</svg>
